ISO-10303-21;
HEADER;
FILE_DESCRIPTION(('Open CASCADE Model'),'2;1');
FILE_NAME('Open CASCADE Shape Model','2026-09-25T21:11:06',('Author'),(
    'Open CASCADE'),'Open CASCADE STEP processor 7.5','Open CASCADE 7.5'
  ,'Unknown');
FILE_SCHEMA(('AUTOMOTIVE_DESIGN { 1 0 10303 214 1 1 1 1 }'));
ENDSEC;
DATA;
#1 = APPLICATION_PROTOCOL_DEFINITION('international standard',
  'automotive_design',2000,#2);
#2 = APPLICATION_CONTEXT(
  'core data for automotive mechanical design processes');
#3 = SHAPE_DEFINITION_REPRESENTATION(#4,#10);
#4 = PRODUCT_DEFINITION_SHAPE('','',#5);
#5 = PRODUCT_DEFINITION('design','',#6,#9);
#6 = PRODUCT_DEFINITION_FORMATION('','',#7);
#7 = PRODUCT('PCB','PCB','',(#8));
#8 = PRODUCT_CONTEXT('',#2,'mechanical');
#9 = PRODUCT_DEFINITION_CONTEXT('part definition',#2,'design');
#10 = SHAPE_REPRESENTATION('',(#11),#15);
#11 = AXIS2_PLACEMENT_3D('',#12,#13,#14);
#12 = CARTESIAN_POINT('',(0.,0.,0.));
#13 = DIRECTION('',(0.,0.,1.));
#14 = DIRECTION('',(1.,0.,-0.));
#15 = ( GEOMETRIC_REPRESENTATION_CONTEXT(3) 
GLOBAL_UNCERTAINTY_ASSIGNED_CONTEXT((#19)) GLOBAL_UNIT_ASSIGNED_CONTEXT(
(#16,#17,#18)) REPRESENTATION_CONTEXT('Context #1',
  '3D Context with UNIT and UNCERTAINTY') );
#16 = ( LENGTH_UNIT() NAMED_UNIT(*) SI_UNIT(.MILLI.,.METRE.) );
#17 = ( NAMED_UNIT(*) PLANE_ANGLE_UNIT() SI_UNIT($,.RADIAN.) );
#18 = ( NAMED_UNIT(*) SI_UNIT($,.STERADIAN.) SOLID_ANGLE_UNIT() );
#19 = UNCERTAINTY_MEASURE_WITH_UNIT(LENGTH_MEASURE(1.E-07),#16,
  'distance_accuracy_value','confusion accuracy');
#20 = PRODUCT_RELATED_PRODUCT_CATEGORY('part',$,(#7));
#21 = SHAPE_DEFINITION_REPRESENTATION(#22,#28);
#22 = PRODUCT_DEFINITION_SHAPE('','',#23);
#23 = PRODUCT_DEFINITION('design','',#24,#27);
#24 = PRODUCT_DEFINITION_FORMATION('','',#25);
#25 = PRODUCT('Designator1','Designator1','',(#26));
#26 = PRODUCT_CONTEXT('',#2,'mechanical');
#27 = PRODUCT_DEFINITION_CONTEXT('part definition',#2,'design');
#28 = SHAPE_REPRESENTATION('',(#11,#29),#33);
#29 = AXIS2_PLACEMENT_3D('',#30,#31,#32);
#30 = CARTESIAN_POINT('',(0.,0.,0.));
#31 = DIRECTION('',(0.,0.,1.));
#32 = DIRECTION('',(1.,0.,0.));
#33 = ( GEOMETRIC_REPRESENTATION_CONTEXT(3) 
GLOBAL_UNCERTAINTY_ASSIGNED_CONTEXT((#37)) GLOBAL_UNIT_ASSIGNED_CONTEXT(
(#34,#35,#36)) REPRESENTATION_CONTEXT('Context #1',
  '3D Context with UNIT and UNCERTAINTY') );
#34 = ( LENGTH_UNIT() NAMED_UNIT(*) SI_UNIT(.MILLI.,.METRE.) );
#35 = ( NAMED_UNIT(*) PLANE_ANGLE_UNIT() SI_UNIT($,.RADIAN.) );
#36 = ( NAMED_UNIT(*) SI_UNIT($,.STERADIAN.) SOLID_ANGLE_UNIT() );
#37 = UNCERTAINTY_MEASURE_WITH_UNIT(LENGTH_MEASURE(1.E-07),#34,
  'distance_accuracy_value','confusion accuracy');
#38 = PRODUCT_RELATED_PRODUCT_CATEGORY('part',$,(#25));
#39 = SHAPE_DEFINITION_REPRESENTATION(#40,#46);
#40 = PRODUCT_DEFINITION_SHAPE('','',#41);
#41 = PRODUCT_DEFINITION('design','',#42,#45);
#42 = PRODUCT_DEFINITION_FORMATION('','',#43);
#43 = PRODUCT('9126475120','9126475120','',(#44));
#44 = PRODUCT_CONTEXT('',#2,'mechanical');
#45 = PRODUCT_DEFINITION_CONTEXT('part definition',#2,'design');
#46 = SHAPE_REPRESENTATION('',(#11,#47,#51,#55,#59,#63,#67,#71,#75,#79,
    #83,#87,#91,#95,#99,#103,#107,#111,#115,#119,#123,#127,#131,#135),
  #139);
#47 = AXIS2_PLACEMENT_3D('',#48,#49,#50);
#48 = CARTESIAN_POINT('',(-1.55,-1.55,0.));
#49 = DIRECTION('',(0.,0.,1.));
#50 = DIRECTION('',(1.,0.,0.));
#51 = AXIS2_PLACEMENT_3D('',#52,#53,#54);
#52 = CARTESIAN_POINT('',(-1.55,-1.55,0.));
#53 = DIRECTION('',(0.,0.,1.));
#54 = DIRECTION('',(1.,0.,0.));
#55 = AXIS2_PLACEMENT_3D('',#56,#57,#58);
#56 = CARTESIAN_POINT('',(-0.825,-0.825,-1.E-03));
#57 = DIRECTION('',(0.,0.,1.));
#58 = DIRECTION('',(1.,0.,0.));
#59 = AXIS2_PLACEMENT_3D('',#60,#61,#62);
#60 = CARTESIAN_POINT('',(-1.55,-0.9,0.));
#61 = DIRECTION('',(0.,0.,1.));
#62 = DIRECTION('',(1.,0.,0.));
#63 = AXIS2_PLACEMENT_3D('',#64,#65,#66);
#64 = CARTESIAN_POINT('',(1.55,0.9,0.));
#65 = DIRECTION('',(0.,0.,1.));
#66 = DIRECTION('',(-1.,1.224646799147E-16,0.));
#67 = AXIS2_PLACEMENT_3D('',#68,#69,#70);
#68 = CARTESIAN_POINT('',(-1.55,-0.5,0.));
#69 = DIRECTION('',(0.,0.,1.));
#70 = DIRECTION('',(1.,0.,0.));
#71 = AXIS2_PLACEMENT_3D('',#72,#73,#74);
#72 = CARTESIAN_POINT('',(1.55,0.5,0.));
#73 = DIRECTION('',(0.,0.,1.));
#74 = DIRECTION('',(-1.,1.224646799147E-16,0.));
#75 = AXIS2_PLACEMENT_3D('',#76,#77,#78);
#76 = CARTESIAN_POINT('',(-1.55,-0.1,0.));
#77 = DIRECTION('',(0.,0.,1.));
#78 = DIRECTION('',(1.,0.,0.));
#79 = AXIS2_PLACEMENT_3D('',#80,#81,#82);
#80 = CARTESIAN_POINT('',(1.55,0.1,0.));
#81 = DIRECTION('',(0.,0.,1.));
#82 = DIRECTION('',(-1.,1.224646799147E-16,0.));
#83 = AXIS2_PLACEMENT_3D('',#84,#85,#86);
#84 = CARTESIAN_POINT('',(-1.55,0.3,0.));
#85 = DIRECTION('',(0.,0.,1.));
#86 = DIRECTION('',(1.,0.,0.));
#87 = AXIS2_PLACEMENT_3D('',#88,#89,#90);
#88 = CARTESIAN_POINT('',(1.55,-0.3,0.));
#89 = DIRECTION('',(0.,0.,1.));
#90 = DIRECTION('',(-1.,1.224646799147E-16,0.));
#91 = AXIS2_PLACEMENT_3D('',#92,#93,#94);
#92 = CARTESIAN_POINT('',(-1.55,0.7,0.));
#93 = DIRECTION('',(0.,0.,1.));
#94 = DIRECTION('',(1.,0.,0.));
#95 = AXIS2_PLACEMENT_3D('',#96,#97,#98);
#96 = CARTESIAN_POINT('',(1.55,-0.7,0.));
#97 = DIRECTION('',(0.,0.,1.));
#98 = DIRECTION('',(-1.,1.224646799147E-16,0.));
#99 = AXIS2_PLACEMENT_3D('',#100,#101,#102);
#100 = CARTESIAN_POINT('',(-0.7,-1.55,0.));
#101 = DIRECTION('',(0.,-0.,1.));
#102 = DIRECTION('',(1.110223024625E-16,1.,0.));
#103 = AXIS2_PLACEMENT_3D('',#104,#105,#106);
#104 = CARTESIAN_POINT('',(0.7,1.55,0.));
#105 = DIRECTION('',(0.,0.,1.));
#106 = DIRECTION('',(-2.334869823773E-16,-1.,0.));
#107 = AXIS2_PLACEMENT_3D('',#108,#109,#110);
#108 = CARTESIAN_POINT('',(-0.3,-1.55,0.));
#109 = DIRECTION('',(0.,-0.,1.));
#110 = DIRECTION('',(1.110223024625E-16,1.,0.));
#111 = AXIS2_PLACEMENT_3D('',#112,#113,#114);
#112 = CARTESIAN_POINT('',(0.3,1.55,0.));
#113 = DIRECTION('',(0.,0.,1.));
#114 = DIRECTION('',(-2.334869823773E-16,-1.,0.));
#115 = AXIS2_PLACEMENT_3D('',#116,#117,#118);
#116 = CARTESIAN_POINT('',(0.1,-1.55,0.));
#117 = DIRECTION('',(0.,-0.,1.));
#118 = DIRECTION('',(1.110223024625E-16,1.,0.));
#119 = AXIS2_PLACEMENT_3D('',#120,#121,#122);
#120 = CARTESIAN_POINT('',(-0.1,1.55,0.));
#121 = DIRECTION('',(0.,0.,1.));
#122 = DIRECTION('',(-2.334869823773E-16,-1.,0.));
#123 = AXIS2_PLACEMENT_3D('',#124,#125,#126);
#124 = CARTESIAN_POINT('',(0.5,-1.55,0.));
#125 = DIRECTION('',(0.,-0.,1.));
#126 = DIRECTION('',(1.110223024625E-16,1.,0.));
#127 = AXIS2_PLACEMENT_3D('',#128,#129,#130);
#128 = CARTESIAN_POINT('',(-0.5,1.55,0.));
#129 = DIRECTION('',(0.,0.,1.));
#130 = DIRECTION('',(-2.334869823773E-16,-1.,0.));
#131 = AXIS2_PLACEMENT_3D('',#132,#133,#134);
#132 = CARTESIAN_POINT('',(0.9,-1.55,0.));
#133 = DIRECTION('',(0.,-0.,1.));
#134 = DIRECTION('',(1.110223024625E-16,1.,0.));
#135 = AXIS2_PLACEMENT_3D('',#136,#137,#138);
#136 = CARTESIAN_POINT('',(-0.9,1.55,0.));
#137 = DIRECTION('',(0.,0.,1.));
#138 = DIRECTION('',(-2.334869823773E-16,-1.,0.));
#139 = ( GEOMETRIC_REPRESENTATION_CONTEXT(3) 
GLOBAL_UNCERTAINTY_ASSIGNED_CONTEXT((#143)) GLOBAL_UNIT_ASSIGNED_CONTEXT
((#140,#141,#142)) REPRESENTATION_CONTEXT('Context #1',
  '3D Context with UNIT and UNCERTAINTY') );
#140 = ( LENGTH_UNIT() NAMED_UNIT(*) SI_UNIT(.MILLI.,.METRE.) );
#141 = ( NAMED_UNIT(*) PLANE_ANGLE_UNIT() SI_UNIT($,.RADIAN.) );
#142 = ( NAMED_UNIT(*) SI_UNIT($,.STERADIAN.) SOLID_ANGLE_UNIT() );
#143 = UNCERTAINTY_MEASURE_WITH_UNIT(LENGTH_MEASURE(1.E-07),#140,
  'distance_accuracy_value','confusion accuracy');
#144 = MANIFOLD_SURFACE_SHAPE_REPRESENTATION('',(#11,#145),#164);
#145 = SHELL_BASED_SURFACE_MODEL('',(#146));
#146 = OPEN_SHELL('',(#147));
#147 = ADVANCED_FACE('',(#148),#159,.T.);
#148 = FACE_BOUND('',#149,.T.);
#149 = EDGE_LOOP('',(#150));
#150 = ORIENTED_EDGE('',*,*,#151,.T.);
#151 = EDGE_CURVE('',#152,#152,#154,.T.);
#152 = VERTEX_POINT('',#153);
#153 = CARTESIAN_POINT('',(0.710416666667,2.583333333333,0.501));
#154 = CIRCLE('',#155,0.19375);
#155 = AXIS2_PLACEMENT_3D('',#156,#157,#158);
#156 = CARTESIAN_POINT('',(0.516666666667,2.583333333333,0.501));
#157 = DIRECTION('',(0.,0.,1.));
#158 = DIRECTION('',(1.,0.,-0.));
#159 = PLANE('',#160);
#160 = AXIS2_PLACEMENT_3D('',#161,#162,#163);
#161 = CARTESIAN_POINT('',(0.516666666667,2.583333333333,0.501));
#162 = DIRECTION('',(-7.387875283027E-31,-5.47250020965E-32,1.));
#163 = DIRECTION('',(1.,0.,7.387875283027E-31));
#164 = ( GEOMETRIC_REPRESENTATION_CONTEXT(3) 
GLOBAL_UNCERTAINTY_ASSIGNED_CONTEXT((#168)) GLOBAL_UNIT_ASSIGNED_CONTEXT
((#165,#166,#167)) REPRESENTATION_CONTEXT('Context #1',
  '3D Context with UNIT and UNCERTAINTY') );
#165 = ( LENGTH_UNIT() NAMED_UNIT(*) SI_UNIT(.MILLI.,.METRE.) );
#166 = ( NAMED_UNIT(*) PLANE_ANGLE_UNIT() SI_UNIT($,.RADIAN.) );
#167 = ( NAMED_UNIT(*) SI_UNIT($,.STERADIAN.) SOLID_ANGLE_UNIT() );
#168 = UNCERTAINTY_MEASURE_WITH_UNIT(LENGTH_MEASURE(1.E-07),#165,
  'distance_accuracy_value','confusion accuracy');
#169 = SHAPE_DEFINITION_REPRESENTATION(#170,#144);
#170 = PRODUCT_DEFINITION_SHAPE('','',#171);
#171 = PRODUCT_DEFINITION('design','',#172,#175);
#172 = PRODUCT_DEFINITION_FORMATION('','',#173);
#173 = PRODUCT('Open CASCADE STEP translator 7.5 11.1',
  'Open CASCADE STEP translator 7.5 11.1','',(#174));
#174 = PRODUCT_CONTEXT('',#2,'mechanical');
#175 = PRODUCT_DEFINITION_CONTEXT('part definition',#2,'design');
#176 = CONTEXT_DEPENDENT_SHAPE_REPRESENTATION(#177,#179);
#177 = ( REPRESENTATION_RELATIONSHIP('','',#144,#46) 
REPRESENTATION_RELATIONSHIP_WITH_TRANSFORMATION(#178) 
SHAPE_REPRESENTATION_RELATIONSHIP() );
#178 = ITEM_DEFINED_TRANSFORMATION('','',#11,#47);
#179 = PRODUCT_DEFINITION_SHAPE('Placement','Placement of an item',#180
  );
#180 = NEXT_ASSEMBLY_USAGE_OCCURRENCE('243','220','',#41,#171,$);
#181 = PRODUCT_RELATED_PRODUCT_CATEGORY('part',$,(#173));
#182 = ADVANCED_BREP_SHAPE_REPRESENTATION('',(#11,#183),#378);
#183 = MANIFOLD_SOLID_BREP('',#184);
#184 = CLOSED_SHELL('',(#185,#225,#256,#291,#315,#332,#344,#369));
#185 = ADVANCED_FACE('',(#186),#220,.F.);
#186 = FACE_BOUND('',#187,.F.);
#187 = EDGE_LOOP('',(#188,#198,#206,#214));
#188 = ORIENTED_EDGE('',*,*,#189,.F.);
#189 = EDGE_CURVE('',#190,#192,#194,.T.);
#190 = VERTEX_POINT('',#191);
#191 = CARTESIAN_POINT('',(0.,0.,0.));
#192 = VERTEX_POINT('',#193);
#193 = CARTESIAN_POINT('',(0.,0.,0.6));
#194 = LINE('',#195,#196);
#195 = CARTESIAN_POINT('',(0.,0.,0.));
#196 = VECTOR('',#197,1.);
#197 = DIRECTION('',(0.,0.,1.));
#198 = ORIENTED_EDGE('',*,*,#199,.T.);
#199 = EDGE_CURVE('',#190,#200,#202,.T.);
#200 = VERTEX_POINT('',#201);
#201 = CARTESIAN_POINT('',(0.,3.1,0.));
#202 = LINE('',#203,#204);
#203 = CARTESIAN_POINT('',(0.,0.,0.));
#204 = VECTOR('',#205,1.);
#205 = DIRECTION('',(-0.,1.,0.));
#206 = ORIENTED_EDGE('',*,*,#207,.T.);
#207 = EDGE_CURVE('',#200,#208,#210,.T.);
#208 = VERTEX_POINT('',#209);
#209 = CARTESIAN_POINT('',(0.,3.1,0.6));
#210 = LINE('',#211,#212);
#211 = CARTESIAN_POINT('',(0.,3.1,0.));
#212 = VECTOR('',#213,1.);
#213 = DIRECTION('',(0.,0.,1.));
#214 = ORIENTED_EDGE('',*,*,#215,.F.);
#215 = EDGE_CURVE('',#192,#208,#216,.T.);
#216 = LINE('',#217,#218);
#217 = CARTESIAN_POINT('',(0.,0.,0.6));
#218 = VECTOR('',#219,1.);
#219 = DIRECTION('',(-0.,1.,0.));
#220 = PLANE('',#221);
#221 = AXIS2_PLACEMENT_3D('',#222,#223,#224);
#222 = CARTESIAN_POINT('',(0.,0.,0.));
#223 = DIRECTION('',(1.,0.,-0.));
#224 = DIRECTION('',(0.,0.,1.));
#225 = ADVANCED_FACE('',(#226),#251,.F.);
#226 = FACE_BOUND('',#227,.F.);
#227 = EDGE_LOOP('',(#228,#236,#237,#245));
#228 = ORIENTED_EDGE('',*,*,#229,.F.);
#229 = EDGE_CURVE('',#190,#230,#232,.T.);
#230 = VERTEX_POINT('',#231);
#231 = CARTESIAN_POINT('',(3.1,0.,0.));
#232 = LINE('',#233,#234);
#233 = CARTESIAN_POINT('',(0.,0.,0.));
#234 = VECTOR('',#235,1.);
#235 = DIRECTION('',(1.,0.,-0.));
#236 = ORIENTED_EDGE('',*,*,#189,.T.);
#237 = ORIENTED_EDGE('',*,*,#238,.T.);
#238 = EDGE_CURVE('',#192,#239,#241,.T.);
#239 = VERTEX_POINT('',#240);
#240 = CARTESIAN_POINT('',(3.1,0.,0.6));
#241 = LINE('',#242,#243);
#242 = CARTESIAN_POINT('',(0.,0.,0.6));
#243 = VECTOR('',#244,1.);
#244 = DIRECTION('',(1.,0.,-0.));
#245 = ORIENTED_EDGE('',*,*,#246,.F.);
#246 = EDGE_CURVE('',#230,#239,#247,.T.);
#247 = LINE('',#248,#249);
#248 = CARTESIAN_POINT('',(3.1,0.,0.));
#249 = VECTOR('',#250,1.);
#250 = DIRECTION('',(0.,0.,1.));
#251 = PLANE('',#252);
#252 = AXIS2_PLACEMENT_3D('',#253,#254,#255);
#253 = CARTESIAN_POINT('',(0.,0.,0.));
#254 = DIRECTION('',(-0.,1.,0.));
#255 = DIRECTION('',(0.,0.,1.));
#256 = ADVANCED_FACE('',(#257,#275),#286,.T.);
#257 = FACE_BOUND('',#258,.T.);
#258 = EDGE_LOOP('',(#259,#260,#261,#269));
#259 = ORIENTED_EDGE('',*,*,#215,.F.);
#260 = ORIENTED_EDGE('',*,*,#238,.T.);
#261 = ORIENTED_EDGE('',*,*,#262,.T.);
#262 = EDGE_CURVE('',#239,#263,#265,.T.);
#263 = VERTEX_POINT('',#264);
#264 = CARTESIAN_POINT('',(3.1,3.1,0.6));
#265 = LINE('',#266,#267);
#266 = CARTESIAN_POINT('',(3.1,0.,0.6));
#267 = VECTOR('',#268,1.);
#268 = DIRECTION('',(-0.,1.,0.));
#269 = ORIENTED_EDGE('',*,*,#270,.F.);
#270 = EDGE_CURVE('',#208,#263,#271,.T.);
#271 = LINE('',#272,#273);
#272 = CARTESIAN_POINT('',(0.,3.1,0.6));
#273 = VECTOR('',#274,1.);
#274 = DIRECTION('',(1.,0.,-0.));
#275 = FACE_BOUND('',#276,.T.);
#276 = EDGE_LOOP('',(#277));
#277 = ORIENTED_EDGE('',*,*,#278,.F.);
#278 = EDGE_CURVE('',#279,#279,#281,.T.);
#279 = VERTEX_POINT('',#280);
#280 = CARTESIAN_POINT('',(0.710416666667,2.583333333333,0.6));
#281 = CIRCLE('',#282,0.19375);
#282 = AXIS2_PLACEMENT_3D('',#283,#284,#285);
#283 = CARTESIAN_POINT('',(0.516666666667,2.583333333333,0.6));
#284 = DIRECTION('',(0.,0.,1.));
#285 = DIRECTION('',(1.,0.,-0.));
#286 = PLANE('',#287);
#287 = AXIS2_PLACEMENT_3D('',#288,#289,#290);
#288 = CARTESIAN_POINT('',(0.,0.,0.6));
#289 = DIRECTION('',(0.,0.,1.));
#290 = DIRECTION('',(1.,0.,-0.));
#291 = ADVANCED_FACE('',(#292),#310,.T.);
#292 = FACE_BOUND('',#293,.T.);
#293 = EDGE_LOOP('',(#294,#302,#303,#304));
#294 = ORIENTED_EDGE('',*,*,#295,.F.);
#295 = EDGE_CURVE('',#200,#296,#298,.T.);
#296 = VERTEX_POINT('',#297);
#297 = CARTESIAN_POINT('',(3.1,3.1,0.));
#298 = LINE('',#299,#300);
#299 = CARTESIAN_POINT('',(0.,3.1,0.));
#300 = VECTOR('',#301,1.);
#301 = DIRECTION('',(1.,0.,-0.));
#302 = ORIENTED_EDGE('',*,*,#207,.T.);
#303 = ORIENTED_EDGE('',*,*,#270,.T.);
#304 = ORIENTED_EDGE('',*,*,#305,.F.);
#305 = EDGE_CURVE('',#296,#263,#306,.T.);
#306 = LINE('',#307,#308);
#307 = CARTESIAN_POINT('',(3.1,3.1,0.));
#308 = VECTOR('',#309,1.);
#309 = DIRECTION('',(0.,0.,1.));
#310 = PLANE('',#311);
#311 = AXIS2_PLACEMENT_3D('',#312,#313,#314);
#312 = CARTESIAN_POINT('',(0.,3.1,0.));
#313 = DIRECTION('',(-0.,1.,0.));
#314 = DIRECTION('',(0.,0.,1.));
#315 = ADVANCED_FACE('',(#316),#327,.F.);
#316 = FACE_BOUND('',#317,.F.);
#317 = EDGE_LOOP('',(#318,#319,#320,#326));
#318 = ORIENTED_EDGE('',*,*,#199,.F.);
#319 = ORIENTED_EDGE('',*,*,#229,.T.);
#320 = ORIENTED_EDGE('',*,*,#321,.T.);
#321 = EDGE_CURVE('',#230,#296,#322,.T.);
#322 = LINE('',#323,#324);
#323 = CARTESIAN_POINT('',(3.1,0.,0.));
#324 = VECTOR('',#325,1.);
#325 = DIRECTION('',(-0.,1.,0.));
#326 = ORIENTED_EDGE('',*,*,#295,.F.);
#327 = PLANE('',#328);
#328 = AXIS2_PLACEMENT_3D('',#329,#330,#331);
#329 = CARTESIAN_POINT('',(0.,0.,0.));
#330 = DIRECTION('',(0.,0.,1.));
#331 = DIRECTION('',(1.,0.,-0.));
#332 = ADVANCED_FACE('',(#333),#339,.T.);
#333 = FACE_BOUND('',#334,.T.);
#334 = EDGE_LOOP('',(#335,#336,#337,#338));
#335 = ORIENTED_EDGE('',*,*,#246,.F.);
#336 = ORIENTED_EDGE('',*,*,#321,.T.);
#337 = ORIENTED_EDGE('',*,*,#305,.T.);
#338 = ORIENTED_EDGE('',*,*,#262,.F.);
#339 = PLANE('',#340);
#340 = AXIS2_PLACEMENT_3D('',#341,#342,#343);
#341 = CARTESIAN_POINT('',(3.1,0.,0.));
#342 = DIRECTION('',(1.,0.,-0.));
#343 = DIRECTION('',(0.,0.,1.));
#344 = ADVANCED_FACE('',(#345),#364,.F.);
#345 = FACE_BOUND('',#346,.F.);
#346 = EDGE_LOOP('',(#347,#348,#356,#363));
#347 = ORIENTED_EDGE('',*,*,#278,.F.);
#348 = ORIENTED_EDGE('',*,*,#349,.F.);
#349 = EDGE_CURVE('',#350,#279,#352,.T.);
#350 = VERTEX_POINT('',#351);
#351 = CARTESIAN_POINT('',(0.710416666667,2.583333333333,0.5));
#352 = LINE('',#353,#354);
#353 = CARTESIAN_POINT('',(0.710416666667,2.583333333333,0.5));
#354 = VECTOR('',#355,1.);
#355 = DIRECTION('',(0.,0.,1.));
#356 = ORIENTED_EDGE('',*,*,#357,.T.);
#357 = EDGE_CURVE('',#350,#350,#358,.T.);
#358 = CIRCLE('',#359,0.19375);
#359 = AXIS2_PLACEMENT_3D('',#360,#361,#362);
#360 = CARTESIAN_POINT('',(0.516666666667,2.583333333333,0.5));
#361 = DIRECTION('',(0.,0.,1.));
#362 = DIRECTION('',(1.,0.,-0.));
#363 = ORIENTED_EDGE('',*,*,#349,.T.);
#364 = CYLINDRICAL_SURFACE('',#365,0.19375);
#365 = AXIS2_PLACEMENT_3D('',#366,#367,#368);
#366 = CARTESIAN_POINT('',(0.516666666667,2.583333333333,0.5));
#367 = DIRECTION('',(0.,0.,1.));
#368 = DIRECTION('',(1.,0.,-0.));
#369 = ADVANCED_FACE('',(#370),#373,.T.);
#370 = FACE_BOUND('',#371,.F.);
#371 = EDGE_LOOP('',(#372));
#372 = ORIENTED_EDGE('',*,*,#357,.F.);
#373 = PLANE('',#374);
#374 = AXIS2_PLACEMENT_3D('',#375,#376,#377);
#375 = CARTESIAN_POINT('',(0.516666666667,2.583333333333,0.5));
#376 = DIRECTION('',(0.,0.,1.));
#377 = DIRECTION('',(1.,0.,-0.));
#378 = ( GEOMETRIC_REPRESENTATION_CONTEXT(3) 
GLOBAL_UNCERTAINTY_ASSIGNED_CONTEXT((#382)) GLOBAL_UNIT_ASSIGNED_CONTEXT
((#379,#380,#381)) REPRESENTATION_CONTEXT('Context #1',
  '3D Context with UNIT and UNCERTAINTY') );
#379 = ( LENGTH_UNIT() NAMED_UNIT(*) SI_UNIT(.MILLI.,.METRE.) );
#380 = ( NAMED_UNIT(*) PLANE_ANGLE_UNIT() SI_UNIT($,.RADIAN.) );
#381 = ( NAMED_UNIT(*) SI_UNIT($,.STERADIAN.) SOLID_ANGLE_UNIT() );
#382 = UNCERTAINTY_MEASURE_WITH_UNIT(LENGTH_MEASURE(1.E-07),#379,
  'distance_accuracy_value','confusion accuracy');
#383 = SHAPE_DEFINITION_REPRESENTATION(#384,#182);
#384 = PRODUCT_DEFINITION_SHAPE('','',#385);
#385 = PRODUCT_DEFINITION('design','',#386,#389);
#386 = PRODUCT_DEFINITION_FORMATION('','',#387);
#387 = PRODUCT('Body','Body','',(#388));
#388 = PRODUCT_CONTEXT('',#2,'mechanical');
#389 = PRODUCT_DEFINITION_CONTEXT('part definition',#2,'design');
#390 = CONTEXT_DEPENDENT_SHAPE_REPRESENTATION(#391,#393);
#391 = ( REPRESENTATION_RELATIONSHIP('','',#182,#46) 
REPRESENTATION_RELATIONSHIP_WITH_TRANSFORMATION(#392) 
SHAPE_REPRESENTATION_RELATIONSHIP() );
#392 = ITEM_DEFINED_TRANSFORMATION('','',#11,#51);
#393 = PRODUCT_DEFINITION_SHAPE('Placement','Placement of an item',#394
  );
#394 = NEXT_ASSEMBLY_USAGE_OCCURRENCE('244','221','',#41,#385,$);
#395 = PRODUCT_RELATED_PRODUCT_CATEGORY('part',$,(#387));
#396 = ADVANCED_BREP_SHAPE_REPRESENTATION('',(#11,#397),#580);
#397 = MANIFOLD_SOLID_BREP('',#398);
#398 = CLOSED_SHELL('',(#399,#439,#470,#501,#532,#554,#567));
#399 = ADVANCED_FACE('',(#400),#434,.F.);
#400 = FACE_BOUND('',#401,.F.);
#401 = EDGE_LOOP('',(#402,#412,#420,#428));
#402 = ORIENTED_EDGE('',*,*,#403,.T.);
#403 = EDGE_CURVE('',#404,#406,#408,.T.);
#404 = VERTEX_POINT('',#405);
#405 = CARTESIAN_POINT('',(0.,0.,0.));
#406 = VERTEX_POINT('',#407);
#407 = CARTESIAN_POINT('',(0.,0.,1.E-03));
#408 = LINE('',#409,#410);
#409 = CARTESIAN_POINT('',(0.,0.,0.));
#410 = VECTOR('',#411,1.);
#411 = DIRECTION('',(0.,0.,1.));
#412 = ORIENTED_EDGE('',*,*,#413,.T.);
#413 = EDGE_CURVE('',#406,#414,#416,.T.);
#414 = VERTEX_POINT('',#415);
#415 = CARTESIAN_POINT('',(1.65,0.,1.E-03));
#416 = LINE('',#417,#418);
#417 = CARTESIAN_POINT('',(0.,0.,1.E-03));
#418 = VECTOR('',#419,1.);
#419 = DIRECTION('',(1.,0.,0.));
#420 = ORIENTED_EDGE('',*,*,#421,.F.);
#421 = EDGE_CURVE('',#422,#414,#424,.T.);
#422 = VERTEX_POINT('',#423);
#423 = CARTESIAN_POINT('',(1.65,0.,0.));
#424 = LINE('',#425,#426);
#425 = CARTESIAN_POINT('',(1.65,0.,0.));
#426 = VECTOR('',#427,1.);
#427 = DIRECTION('',(0.,0.,1.));
#428 = ORIENTED_EDGE('',*,*,#429,.F.);
#429 = EDGE_CURVE('',#404,#422,#430,.T.);
#430 = LINE('',#431,#432);
#431 = CARTESIAN_POINT('',(0.,0.,0.));
#432 = VECTOR('',#433,1.);
#433 = DIRECTION('',(1.,0.,0.));
#434 = PLANE('',#435);
#435 = AXIS2_PLACEMENT_3D('',#436,#437,#438);
#436 = CARTESIAN_POINT('',(0.,0.,0.));
#437 = DIRECTION('',(0.,1.,0.));
#438 = DIRECTION('',(1.,0.,0.));
#439 = ADVANCED_FACE('',(#440),#465,.F.);
#440 = FACE_BOUND('',#441,.F.);
#441 = EDGE_LOOP('',(#442,#443,#451,#459));
#442 = ORIENTED_EDGE('',*,*,#421,.T.);
#443 = ORIENTED_EDGE('',*,*,#444,.T.);
#444 = EDGE_CURVE('',#414,#445,#447,.T.);
#445 = VERTEX_POINT('',#446);
#446 = CARTESIAN_POINT('',(1.65,1.65,1.E-03));
#447 = LINE('',#448,#449);
#448 = CARTESIAN_POINT('',(1.65,0.,1.E-03));
#449 = VECTOR('',#450,1.);
#450 = DIRECTION('',(0.,1.,0.));
#451 = ORIENTED_EDGE('',*,*,#452,.F.);
#452 = EDGE_CURVE('',#453,#445,#455,.T.);
#453 = VERTEX_POINT('',#454);
#454 = CARTESIAN_POINT('',(1.65,1.65,0.));
#455 = LINE('',#456,#457);
#456 = CARTESIAN_POINT('',(1.65,1.65,0.));
#457 = VECTOR('',#458,1.);
#458 = DIRECTION('',(0.,0.,1.));
#459 = ORIENTED_EDGE('',*,*,#460,.F.);
#460 = EDGE_CURVE('',#422,#453,#461,.T.);
#461 = LINE('',#462,#463);
#462 = CARTESIAN_POINT('',(1.65,0.,0.));
#463 = VECTOR('',#464,1.);
#464 = DIRECTION('',(0.,1.,0.));
#465 = PLANE('',#466);
#466 = AXIS2_PLACEMENT_3D('',#467,#468,#469);
#467 = CARTESIAN_POINT('',(1.65,0.,0.));
#468 = DIRECTION('',(-1.,0.,0.));
#469 = DIRECTION('',(0.,1.,0.));
#470 = ADVANCED_FACE('',(#471),#496,.F.);
#471 = FACE_BOUND('',#472,.F.);
#472 = EDGE_LOOP('',(#473,#474,#482,#490));
#473 = ORIENTED_EDGE('',*,*,#452,.T.);
#474 = ORIENTED_EDGE('',*,*,#475,.T.);
#475 = EDGE_CURVE('',#445,#476,#478,.T.);
#476 = VERTEX_POINT('',#477);
#477 = CARTESIAN_POINT('',(0.35,1.65,1.E-03));
#478 = LINE('',#479,#480);
#479 = CARTESIAN_POINT('',(1.65,1.65,1.E-03));
#480 = VECTOR('',#481,1.);
#481 = DIRECTION('',(-1.,0.,0.));
#482 = ORIENTED_EDGE('',*,*,#483,.F.);
#483 = EDGE_CURVE('',#484,#476,#486,.T.);
#484 = VERTEX_POINT('',#485);
#485 = CARTESIAN_POINT('',(0.35,1.65,0.));
#486 = LINE('',#487,#488);
#487 = CARTESIAN_POINT('',(0.35,1.65,0.));
#488 = VECTOR('',#489,1.);
#489 = DIRECTION('',(0.,0.,1.));
#490 = ORIENTED_EDGE('',*,*,#491,.F.);
#491 = EDGE_CURVE('',#453,#484,#492,.T.);
#492 = LINE('',#493,#494);
#493 = CARTESIAN_POINT('',(1.65,1.65,0.));
#494 = VECTOR('',#495,1.);
#495 = DIRECTION('',(-1.,0.,0.));
#496 = PLANE('',#497);
#497 = AXIS2_PLACEMENT_3D('',#498,#499,#500);
#498 = CARTESIAN_POINT('',(1.65,1.65,0.));
#499 = DIRECTION('',(0.,-1.,0.));
#500 = DIRECTION('',(-1.,0.,0.));
#501 = ADVANCED_FACE('',(#502),#527,.F.);
#502 = FACE_BOUND('',#503,.F.);
#503 = EDGE_LOOP('',(#504,#505,#513,#521));
#504 = ORIENTED_EDGE('',*,*,#483,.T.);
#505 = ORIENTED_EDGE('',*,*,#506,.T.);
#506 = EDGE_CURVE('',#476,#507,#509,.T.);
#507 = VERTEX_POINT('',#508);
#508 = CARTESIAN_POINT('',(0.,1.3,1.E-03));
#509 = LINE('',#510,#511);
#510 = CARTESIAN_POINT('',(0.35,1.65,1.E-03));
#511 = VECTOR('',#512,1.);
#512 = DIRECTION('',(-0.707106781187,-0.707106781187,0.));
#513 = ORIENTED_EDGE('',*,*,#514,.F.);
#514 = EDGE_CURVE('',#515,#507,#517,.T.);
#515 = VERTEX_POINT('',#516);
#516 = CARTESIAN_POINT('',(0.,1.3,0.));
#517 = LINE('',#518,#519);
#518 = CARTESIAN_POINT('',(0.,1.3,0.));
#519 = VECTOR('',#520,1.);
#520 = DIRECTION('',(0.,0.,1.));
#521 = ORIENTED_EDGE('',*,*,#522,.F.);
#522 = EDGE_CURVE('',#484,#515,#523,.T.);
#523 = LINE('',#524,#525);
#524 = CARTESIAN_POINT('',(0.35,1.65,0.));
#525 = VECTOR('',#526,1.);
#526 = DIRECTION('',(-0.707106781187,-0.707106781187,0.));
#527 = PLANE('',#528);
#528 = AXIS2_PLACEMENT_3D('',#529,#530,#531);
#529 = CARTESIAN_POINT('',(0.35,1.65,0.));
#530 = DIRECTION('',(0.707106781187,-0.707106781187,0.));
#531 = DIRECTION('',(-0.707106781187,-0.707106781187,0.));
#532 = ADVANCED_FACE('',(#533),#549,.F.);
#533 = FACE_BOUND('',#534,.F.);
#534 = EDGE_LOOP('',(#535,#536,#542,#543));
#535 = ORIENTED_EDGE('',*,*,#514,.T.);
#536 = ORIENTED_EDGE('',*,*,#537,.T.);
#537 = EDGE_CURVE('',#507,#406,#538,.T.);
#538 = LINE('',#539,#540);
#539 = CARTESIAN_POINT('',(0.,1.3,1.E-03));
#540 = VECTOR('',#541,1.);
#541 = DIRECTION('',(0.,-1.,0.));
#542 = ORIENTED_EDGE('',*,*,#403,.F.);
#543 = ORIENTED_EDGE('',*,*,#544,.F.);
#544 = EDGE_CURVE('',#515,#404,#545,.T.);
#545 = LINE('',#546,#547);
#546 = CARTESIAN_POINT('',(0.,1.3,0.));
#547 = VECTOR('',#548,1.);
#548 = DIRECTION('',(0.,-1.,0.));
#549 = PLANE('',#550);
#550 = AXIS2_PLACEMENT_3D('',#551,#552,#553);
#551 = CARTESIAN_POINT('',(0.,1.3,0.));
#552 = DIRECTION('',(1.,0.,-0.));
#553 = DIRECTION('',(0.,-1.,0.));
#554 = ADVANCED_FACE('',(#555),#562,.F.);
#555 = FACE_BOUND('',#556,.F.);
#556 = EDGE_LOOP('',(#557,#558,#559,#560,#561));
#557 = ORIENTED_EDGE('',*,*,#429,.T.);
#558 = ORIENTED_EDGE('',*,*,#460,.T.);
#559 = ORIENTED_EDGE('',*,*,#491,.T.);
#560 = ORIENTED_EDGE('',*,*,#522,.T.);
#561 = ORIENTED_EDGE('',*,*,#544,.T.);
#562 = PLANE('',#563);
#563 = AXIS2_PLACEMENT_3D('',#564,#565,#566);
#564 = CARTESIAN_POINT('',(0.855417073133,0.794582926867,0.));
#565 = DIRECTION('',(0.,0.,1.));
#566 = DIRECTION('',(1.,0.,-0.));
#567 = ADVANCED_FACE('',(#568),#575,.T.);
#568 = FACE_BOUND('',#569,.T.);
#569 = EDGE_LOOP('',(#570,#571,#572,#573,#574));
#570 = ORIENTED_EDGE('',*,*,#413,.T.);
#571 = ORIENTED_EDGE('',*,*,#444,.T.);
#572 = ORIENTED_EDGE('',*,*,#475,.T.);
#573 = ORIENTED_EDGE('',*,*,#506,.T.);
#574 = ORIENTED_EDGE('',*,*,#537,.T.);
#575 = PLANE('',#576);
#576 = AXIS2_PLACEMENT_3D('',#577,#578,#579);
#577 = CARTESIAN_POINT('',(0.855417073133,0.794582926867,1.E-03));
#578 = DIRECTION('',(0.,0.,1.));
#579 = DIRECTION('',(1.,0.,-0.));
#580 = ( GEOMETRIC_REPRESENTATION_CONTEXT(3) 
GLOBAL_UNCERTAINTY_ASSIGNED_CONTEXT((#584)) GLOBAL_UNIT_ASSIGNED_CONTEXT
((#581,#582,#583)) REPRESENTATION_CONTEXT('Context #1',
  '3D Context with UNIT and UNCERTAINTY') );
#581 = ( LENGTH_UNIT() NAMED_UNIT(*) SI_UNIT(.MILLI.,.METRE.) );
#582 = ( NAMED_UNIT(*) PLANE_ANGLE_UNIT() SI_UNIT($,.RADIAN.) );
#583 = ( NAMED_UNIT(*) SI_UNIT($,.STERADIAN.) SOLID_ANGLE_UNIT() );
#584 = UNCERTAINTY_MEASURE_WITH_UNIT(LENGTH_MEASURE(1.E-07),#581,
  'distance_accuracy_value','confusion accuracy');
#585 = SHAPE_DEFINITION_REPRESENTATION(#586,#396);
#586 = PRODUCT_DEFINITION_SHAPE('','',#587);
#587 = PRODUCT_DEFINITION('design','',#588,#591);
#588 = PRODUCT_DEFINITION_FORMATION('','',#589);
#589 = PRODUCT('Thermal Shape','Thermal Shape','',(#590));
#590 = PRODUCT_CONTEXT('',#2,'mechanical');
#591 = PRODUCT_DEFINITION_CONTEXT('part definition',#2,'design');
#592 = CONTEXT_DEPENDENT_SHAPE_REPRESENTATION(#593,#595);
#593 = ( REPRESENTATION_RELATIONSHIP('','',#396,#46) 
REPRESENTATION_RELATIONSHIP_WITH_TRANSFORMATION(#594) 
SHAPE_REPRESENTATION_RELATIONSHIP() );
#594 = ITEM_DEFINED_TRANSFORMATION('','',#11,#55);
#595 = PRODUCT_DEFINITION_SHAPE('Placement','Placement of an item',#596
  );
#596 = NEXT_ASSEMBLY_USAGE_OCCURRENCE('245','222','',#41,#587,$);
#597 = PRODUCT_RELATED_PRODUCT_CATEGORY('part',$,(#589));
#598 = ADVANCED_BREP_SHAPE_REPRESENTATION('',(#11,#599),#941);
#599 = MANIFOLD_SOLID_BREP('',#600);
#600 = CLOSED_SHELL('',(#601,#641,#672,#703,#734,#758,#782,#806,#830,
    #852,#876,#900,#917,#929));
#601 = ADVANCED_FACE('',(#602),#636,.F.);
#602 = FACE_BOUND('',#603,.F.);
#603 = EDGE_LOOP('',(#604,#614,#622,#630));
#604 = ORIENTED_EDGE('',*,*,#605,.F.);
#605 = EDGE_CURVE('',#606,#608,#610,.T.);
#606 = VERTEX_POINT('',#607);
#607 = CARTESIAN_POINT('',(-1.E-03,0.,0.));
#608 = VERTEX_POINT('',#609);
#609 = CARTESIAN_POINT('',(0.,0.,0.));
#610 = LINE('',#611,#612);
#611 = CARTESIAN_POINT('',(-1.E-03,0.,0.));
#612 = VECTOR('',#613,1.);
#613 = DIRECTION('',(1.,0.,0.));
#614 = ORIENTED_EDGE('',*,*,#615,.T.);
#615 = EDGE_CURVE('',#606,#616,#618,.T.);
#616 = VERTEX_POINT('',#617);
#617 = CARTESIAN_POINT('',(-1.E-03,0.,1.E-03));
#618 = LINE('',#619,#620);
#619 = CARTESIAN_POINT('',(-1.E-03,0.,0.));
#620 = VECTOR('',#621,1.);
#621 = DIRECTION('',(0.,0.,1.));
#622 = ORIENTED_EDGE('',*,*,#623,.T.);
#623 = EDGE_CURVE('',#616,#624,#626,.T.);
#624 = VERTEX_POINT('',#625);
#625 = CARTESIAN_POINT('',(-2.194425197111E-19,0.,1.E-03));
#626 = LINE('',#627,#628);
#627 = CARTESIAN_POINT('',(-1.E-03,0.,1.E-03));
#628 = VECTOR('',#629,1.);
#629 = DIRECTION('',(1.,0.,0.));
#630 = ORIENTED_EDGE('',*,*,#631,.F.);
#631 = EDGE_CURVE('',#608,#624,#632,.T.);
#632 = LINE('',#633,#634);
#633 = CARTESIAN_POINT('',(0.,0.,0.));
#634 = VECTOR('',#635,1.);
#635 = DIRECTION('',(-2.22044604925E-16,0.,1.));
#636 = PLANE('',#637);
#637 = AXIS2_PLACEMENT_3D('',#638,#639,#640);
#638 = CARTESIAN_POINT('',(-1.E-03,0.,0.));
#639 = DIRECTION('',(0.,1.,0.));
#640 = DIRECTION('',(1.,0.,0.));
#641 = ADVANCED_FACE('',(#642),#667,.F.);
#642 = FACE_BOUND('',#643,.F.);
#643 = EDGE_LOOP('',(#644,#652,#653,#661));
#644 = ORIENTED_EDGE('',*,*,#645,.T.);
#645 = EDGE_CURVE('',#646,#606,#648,.T.);
#646 = VERTEX_POINT('',#647);
#647 = CARTESIAN_POINT('',(-1.E-03,0.2,0.));
#648 = LINE('',#649,#650);
#649 = CARTESIAN_POINT('',(-1.E-03,0.2,0.));
#650 = VECTOR('',#651,1.);
#651 = DIRECTION('',(0.,-1.,0.));
#652 = ORIENTED_EDGE('',*,*,#605,.T.);
#653 = ORIENTED_EDGE('',*,*,#654,.F.);
#654 = EDGE_CURVE('',#655,#608,#657,.T.);
#655 = VERTEX_POINT('',#656);
#656 = CARTESIAN_POINT('',(0.,0.2,0.));
#657 = LINE('',#658,#659);
#658 = CARTESIAN_POINT('',(0.,0.2,0.));
#659 = VECTOR('',#660,1.);
#660 = DIRECTION('',(-0.,-1.,0.));
#661 = ORIENTED_EDGE('',*,*,#662,.T.);
#662 = EDGE_CURVE('',#655,#646,#663,.T.);
#663 = LINE('',#664,#665);
#664 = CARTESIAN_POINT('',(0.4,0.2,0.));
#665 = VECTOR('',#666,1.);
#666 = DIRECTION('',(-1.,0.,0.));
#667 = PLANE('',#668);
#668 = AXIS2_PLACEMENT_3D('',#669,#670,#671);
#669 = CARTESIAN_POINT('',(0.1995,0.1,0.));
#670 = DIRECTION('',(0.,0.,1.));
#671 = DIRECTION('',(1.,0.,-0.));
#672 = ADVANCED_FACE('',(#673),#698,.F.);
#673 = FACE_BOUND('',#674,.F.);
#674 = EDGE_LOOP('',(#675,#683,#684,#692));
#675 = ORIENTED_EDGE('',*,*,#676,.F.);
#676 = EDGE_CURVE('',#608,#677,#679,.T.);
#677 = VERTEX_POINT('',#678);
#678 = CARTESIAN_POINT('',(0.4,0.,0.));
#679 = LINE('',#680,#681);
#680 = CARTESIAN_POINT('',(-1.E-03,0.,0.));
#681 = VECTOR('',#682,1.);
#682 = DIRECTION('',(1.,0.,0.));
#683 = ORIENTED_EDGE('',*,*,#631,.T.);
#684 = ORIENTED_EDGE('',*,*,#685,.T.);
#685 = EDGE_CURVE('',#624,#686,#688,.T.);
#686 = VERTEX_POINT('',#687);
#687 = CARTESIAN_POINT('',(0.4,0.,1.E-03));
#688 = LINE('',#689,#690);
#689 = CARTESIAN_POINT('',(-1.E-03,0.,1.E-03));
#690 = VECTOR('',#691,1.);
#691 = DIRECTION('',(1.,0.,0.));
#692 = ORIENTED_EDGE('',*,*,#693,.F.);
#693 = EDGE_CURVE('',#677,#686,#694,.T.);
#694 = LINE('',#695,#696);
#695 = CARTESIAN_POINT('',(0.4,0.,0.));
#696 = VECTOR('',#697,1.);
#697 = DIRECTION('',(0.,0.,1.));
#698 = PLANE('',#699);
#699 = AXIS2_PLACEMENT_3D('',#700,#701,#702);
#700 = CARTESIAN_POINT('',(-1.E-03,0.,0.));
#701 = DIRECTION('',(0.,1.,0.));
#702 = DIRECTION('',(1.,0.,0.));
#703 = ADVANCED_FACE('',(#704),#729,.F.);
#704 = FACE_BOUND('',#705,.F.);
#705 = EDGE_LOOP('',(#706,#707,#715,#723));
#706 = ORIENTED_EDGE('',*,*,#623,.F.);
#707 = ORIENTED_EDGE('',*,*,#708,.T.);
#708 = EDGE_CURVE('',#616,#709,#711,.T.);
#709 = VERTEX_POINT('',#710);
#710 = CARTESIAN_POINT('',(-1.E-03,0.,0.15));
#711 = LINE('',#712,#713);
#712 = CARTESIAN_POINT('',(-1.E-03,0.,0.));
#713 = VECTOR('',#714,1.);
#714 = DIRECTION('',(-2.22044604925E-16,0.,1.));
#715 = ORIENTED_EDGE('',*,*,#716,.F.);
#716 = EDGE_CURVE('',#717,#709,#719,.T.);
#717 = VERTEX_POINT('',#718);
#718 = CARTESIAN_POINT('',(-3.330669073875E-17,0.,0.15));
#719 = LINE('',#720,#721);
#720 = CARTESIAN_POINT('',(-3.330669073875E-17,0.,0.15));
#721 = VECTOR('',#722,1.);
#722 = DIRECTION('',(-1.,0.,0.));
#723 = ORIENTED_EDGE('',*,*,#724,.F.);
#724 = EDGE_CURVE('',#624,#717,#725,.T.);
#725 = LINE('',#726,#727);
#726 = CARTESIAN_POINT('',(0.,0.,0.));
#727 = VECTOR('',#728,1.);
#728 = DIRECTION('',(-2.22044604925E-16,0.,1.));
#729 = PLANE('',#730);
#730 = AXIS2_PLACEMENT_3D('',#731,#732,#733);
#731 = CARTESIAN_POINT('',(0.,0.,0.));
#732 = DIRECTION('',(0.,1.,0.));
#733 = DIRECTION('',(-2.22044604925E-16,0.,1.));
#734 = ADVANCED_FACE('',(#735),#753,.F.);
#735 = FACE_BOUND('',#736,.F.);
#736 = EDGE_LOOP('',(#737,#745,#751,#752));
#737 = ORIENTED_EDGE('',*,*,#738,.T.);
#738 = EDGE_CURVE('',#646,#739,#741,.T.);
#739 = VERTEX_POINT('',#740);
#740 = CARTESIAN_POINT('',(-1.E-03,0.2,1.E-03));
#741 = LINE('',#742,#743);
#742 = CARTESIAN_POINT('',(-1.E-03,0.2,0.));
#743 = VECTOR('',#744,1.);
#744 = DIRECTION('',(0.,0.,1.));
#745 = ORIENTED_EDGE('',*,*,#746,.T.);
#746 = EDGE_CURVE('',#739,#616,#747,.T.);
#747 = LINE('',#748,#749);
#748 = CARTESIAN_POINT('',(-1.E-03,0.2,1.E-03));
#749 = VECTOR('',#750,1.);
#750 = DIRECTION('',(0.,-1.,0.));
#751 = ORIENTED_EDGE('',*,*,#615,.F.);
#752 = ORIENTED_EDGE('',*,*,#645,.F.);
#753 = PLANE('',#754);
#754 = AXIS2_PLACEMENT_3D('',#755,#756,#757);
#755 = CARTESIAN_POINT('',(-1.E-03,0.2,0.));
#756 = DIRECTION('',(1.,0.,-0.));
#757 = DIRECTION('',(0.,-1.,0.));
#758 = ADVANCED_FACE('',(#759),#777,.F.);
#759 = FACE_BOUND('',#760,.F.);
#760 = EDGE_LOOP('',(#761,#762,#770,#776));
#761 = ORIENTED_EDGE('',*,*,#662,.F.);
#762 = ORIENTED_EDGE('',*,*,#763,.F.);
#763 = EDGE_CURVE('',#764,#655,#766,.T.);
#764 = VERTEX_POINT('',#765);
#765 = CARTESIAN_POINT('',(-1.110223024625E-19,0.2,1.E-03));
#766 = LINE('',#767,#768);
#767 = CARTESIAN_POINT('',(-3.330669073875E-17,0.2,0.15));
#768 = VECTOR('',#769,1.);
#769 = DIRECTION('',(2.22044604925E-16,0.,-1.));
#770 = ORIENTED_EDGE('',*,*,#771,.T.);
#771 = EDGE_CURVE('',#764,#739,#772,.T.);
#772 = LINE('',#773,#774);
#773 = CARTESIAN_POINT('',(0.4,0.2,1.E-03));
#774 = VECTOR('',#775,1.);
#775 = DIRECTION('',(-1.,0.,0.));
#776 = ORIENTED_EDGE('',*,*,#738,.F.);
#777 = PLANE('',#778);
#778 = AXIS2_PLACEMENT_3D('',#779,#780,#781);
#779 = CARTESIAN_POINT('',(0.4,0.2,0.));
#780 = DIRECTION('',(0.,-1.,0.));
#781 = DIRECTION('',(-1.,0.,0.));
#782 = ADVANCED_FACE('',(#783),#801,.F.);
#783 = FACE_BOUND('',#784,.F.);
#784 = EDGE_LOOP('',(#785,#786,#787,#795));
#785 = ORIENTED_EDGE('',*,*,#654,.T.);
#786 = ORIENTED_EDGE('',*,*,#676,.T.);
#787 = ORIENTED_EDGE('',*,*,#788,.T.);
#788 = EDGE_CURVE('',#677,#789,#791,.T.);
#789 = VERTEX_POINT('',#790);
#790 = CARTESIAN_POINT('',(0.4,0.2,0.));
#791 = LINE('',#792,#793);
#792 = CARTESIAN_POINT('',(0.4,0.,0.));
#793 = VECTOR('',#794,1.);
#794 = DIRECTION('',(0.,1.,0.));
#795 = ORIENTED_EDGE('',*,*,#796,.T.);
#796 = EDGE_CURVE('',#789,#655,#797,.T.);
#797 = LINE('',#798,#799);
#798 = CARTESIAN_POINT('',(0.4,0.2,0.));
#799 = VECTOR('',#800,1.);
#800 = DIRECTION('',(-1.,0.,0.));
#801 = PLANE('',#802);
#802 = AXIS2_PLACEMENT_3D('',#803,#804,#805);
#803 = CARTESIAN_POINT('',(0.1995,0.1,0.));
#804 = DIRECTION('',(0.,0.,1.));
#805 = DIRECTION('',(1.,0.,-0.));
#806 = ADVANCED_FACE('',(#807),#825,.F.);
#807 = FACE_BOUND('',#808,.F.);
#808 = EDGE_LOOP('',(#809,#810,#818,#824));
#809 = ORIENTED_EDGE('',*,*,#693,.T.);
#810 = ORIENTED_EDGE('',*,*,#811,.T.);
#811 = EDGE_CURVE('',#686,#812,#814,.T.);
#812 = VERTEX_POINT('',#813);
#813 = CARTESIAN_POINT('',(0.4,0.2,1.E-03));
#814 = LINE('',#815,#816);
#815 = CARTESIAN_POINT('',(0.4,0.,1.E-03));
#816 = VECTOR('',#817,1.);
#817 = DIRECTION('',(0.,1.,0.));
#818 = ORIENTED_EDGE('',*,*,#819,.F.);
#819 = EDGE_CURVE('',#789,#812,#820,.T.);
#820 = LINE('',#821,#822);
#821 = CARTESIAN_POINT('',(0.4,0.2,0.));
#822 = VECTOR('',#823,1.);
#823 = DIRECTION('',(0.,0.,1.));
#824 = ORIENTED_EDGE('',*,*,#788,.F.);
#825 = PLANE('',#826);
#826 = AXIS2_PLACEMENT_3D('',#827,#828,#829);
#827 = CARTESIAN_POINT('',(0.4,0.,0.));
#828 = DIRECTION('',(-1.,0.,0.));
#829 = DIRECTION('',(0.,1.,0.));
#830 = ADVANCED_FACE('',(#831),#847,.T.);
#831 = FACE_BOUND('',#832,.T.);
#832 = EDGE_LOOP('',(#833,#839,#840,#841));
#833 = ORIENTED_EDGE('',*,*,#834,.T.);
#834 = EDGE_CURVE('',#764,#624,#835,.T.);
#835 = LINE('',#836,#837);
#836 = CARTESIAN_POINT('',(-1.110223024625E-19,0.1,1.E-03));
#837 = VECTOR('',#838,1.);
#838 = DIRECTION('',(-0.,-1.,0.));
#839 = ORIENTED_EDGE('',*,*,#685,.T.);
#840 = ORIENTED_EDGE('',*,*,#811,.T.);
#841 = ORIENTED_EDGE('',*,*,#842,.T.);
#842 = EDGE_CURVE('',#812,#764,#843,.T.);
#843 = LINE('',#844,#845);
#844 = CARTESIAN_POINT('',(0.4,0.2,1.E-03));
#845 = VECTOR('',#846,1.);
#846 = DIRECTION('',(-1.,0.,0.));
#847 = PLANE('',#848);
#848 = AXIS2_PLACEMENT_3D('',#849,#850,#851);
#849 = CARTESIAN_POINT('',(0.1995,0.1,1.E-03));
#850 = DIRECTION('',(0.,0.,1.));
#851 = DIRECTION('',(1.,0.,-0.));
#852 = ADVANCED_FACE('',(#853),#871,.F.);
#853 = FACE_BOUND('',#854,.F.);
#854 = EDGE_LOOP('',(#855,#856,#857,#865));
#855 = ORIENTED_EDGE('',*,*,#834,.T.);
#856 = ORIENTED_EDGE('',*,*,#724,.T.);
#857 = ORIENTED_EDGE('',*,*,#858,.T.);
#858 = EDGE_CURVE('',#717,#859,#861,.T.);
#859 = VERTEX_POINT('',#860);
#860 = CARTESIAN_POINT('',(-3.330669073875E-17,0.2,0.15));
#861 = LINE('',#862,#863);
#862 = CARTESIAN_POINT('',(-3.330669073875E-17,0.,0.15));
#863 = VECTOR('',#864,1.);
#864 = DIRECTION('',(0.,1.,0.));
#865 = ORIENTED_EDGE('',*,*,#866,.T.);
#866 = EDGE_CURVE('',#859,#764,#867,.T.);
#867 = LINE('',#868,#869);
#868 = CARTESIAN_POINT('',(-3.330669073875E-17,0.2,0.15));
#869 = VECTOR('',#870,1.);
#870 = DIRECTION('',(2.22044604925E-16,0.,-1.));
#871 = PLANE('',#872);
#872 = AXIS2_PLACEMENT_3D('',#873,#874,#875);
#873 = CARTESIAN_POINT('',(-1.665334536938E-17,0.1,7.5E-02));
#874 = DIRECTION('',(-1.,0.,-2.22044604925E-16));
#875 = DIRECTION('',(-2.22044604925E-16,0.,1.));
#876 = ADVANCED_FACE('',(#877),#895,.F.);
#877 = FACE_BOUND('',#878,.F.);
#878 = EDGE_LOOP('',(#879,#880,#888,#894));
#879 = ORIENTED_EDGE('',*,*,#716,.T.);
#880 = ORIENTED_EDGE('',*,*,#881,.T.);
#881 = EDGE_CURVE('',#709,#882,#884,.T.);
#882 = VERTEX_POINT('',#883);
#883 = CARTESIAN_POINT('',(-1.E-03,0.2,0.15));
#884 = LINE('',#885,#886);
#885 = CARTESIAN_POINT('',(-1.E-03,0.,0.15));
#886 = VECTOR('',#887,1.);
#887 = DIRECTION('',(0.,1.,0.));
#888 = ORIENTED_EDGE('',*,*,#889,.F.);
#889 = EDGE_CURVE('',#859,#882,#890,.T.);
#890 = LINE('',#891,#892);
#891 = CARTESIAN_POINT('',(-3.330669073875E-17,0.2,0.15));
#892 = VECTOR('',#893,1.);
#893 = DIRECTION('',(-1.,0.,0.));
#894 = ORIENTED_EDGE('',*,*,#858,.F.);
#895 = PLANE('',#896);
#896 = AXIS2_PLACEMENT_3D('',#897,#898,#899);
#897 = CARTESIAN_POINT('',(-3.330669073875E-17,0.,0.15));
#898 = DIRECTION('',(0.,0.,-1.));
#899 = DIRECTION('',(0.,1.,0.));
#900 = ADVANCED_FACE('',(#901),#912,.T.);
#901 = FACE_BOUND('',#902,.T.);
#902 = EDGE_LOOP('',(#903,#904,#905,#906));
#903 = ORIENTED_EDGE('',*,*,#746,.T.);
#904 = ORIENTED_EDGE('',*,*,#708,.T.);
#905 = ORIENTED_EDGE('',*,*,#881,.T.);
#906 = ORIENTED_EDGE('',*,*,#907,.T.);
#907 = EDGE_CURVE('',#882,#739,#908,.T.);
#908 = LINE('',#909,#910);
#909 = CARTESIAN_POINT('',(-1.E-03,0.2,0.15));
#910 = VECTOR('',#911,1.);
#911 = DIRECTION('',(2.22044604925E-16,0.,-1.));
#912 = PLANE('',#913);
#913 = AXIS2_PLACEMENT_3D('',#914,#915,#916);
#914 = CARTESIAN_POINT('',(-1.E-03,0.1,7.5E-02));
#915 = DIRECTION('',(-1.,0.,-2.22044604925E-16));
#916 = DIRECTION('',(-2.22044604925E-16,0.,1.));
#917 = ADVANCED_FACE('',(#918),#924,.F.);
#918 = FACE_BOUND('',#919,.F.);
#919 = EDGE_LOOP('',(#920,#921,#922,#923));
#920 = ORIENTED_EDGE('',*,*,#866,.F.);
#921 = ORIENTED_EDGE('',*,*,#889,.T.);
#922 = ORIENTED_EDGE('',*,*,#907,.T.);
#923 = ORIENTED_EDGE('',*,*,#771,.F.);
#924 = PLANE('',#925);
#925 = AXIS2_PLACEMENT_3D('',#926,#927,#928);
#926 = CARTESIAN_POINT('',(-3.330669073875E-17,0.2,0.15));
#927 = DIRECTION('',(-0.,-1.,-0.));
#928 = DIRECTION('',(2.22044604925E-16,0.,-1.));
#929 = ADVANCED_FACE('',(#930),#936,.F.);
#930 = FACE_BOUND('',#931,.F.);
#931 = EDGE_LOOP('',(#932,#933,#934,#935));
#932 = ORIENTED_EDGE('',*,*,#796,.F.);
#933 = ORIENTED_EDGE('',*,*,#819,.T.);
#934 = ORIENTED_EDGE('',*,*,#842,.T.);
#935 = ORIENTED_EDGE('',*,*,#763,.T.);
#936 = PLANE('',#937);
#937 = AXIS2_PLACEMENT_3D('',#938,#939,#940);
#938 = CARTESIAN_POINT('',(0.4,0.2,0.));
#939 = DIRECTION('',(0.,-1.,0.));
#940 = DIRECTION('',(-1.,0.,0.));
#941 = ( GEOMETRIC_REPRESENTATION_CONTEXT(3) 
GLOBAL_UNCERTAINTY_ASSIGNED_CONTEXT((#945)) GLOBAL_UNIT_ASSIGNED_CONTEXT
((#942,#943,#944)) REPRESENTATION_CONTEXT('Context #1',
  '3D Context with UNIT and UNCERTAINTY') );
#942 = ( LENGTH_UNIT() NAMED_UNIT(*) SI_UNIT(.MILLI.,.METRE.) );
#943 = ( NAMED_UNIT(*) PLANE_ANGLE_UNIT() SI_UNIT($,.RADIAN.) );
#944 = ( NAMED_UNIT(*) SI_UNIT($,.STERADIAN.) SOLID_ANGLE_UNIT() );
#945 = UNCERTAINTY_MEASURE_WITH_UNIT(LENGTH_MEASURE(1.E-07),#942,
  'distance_accuracy_value','confusion accuracy');
#946 = SHAPE_DEFINITION_REPRESENTATION(#947,#598);
#947 = PRODUCT_DEFINITION_SHAPE('','',#948);
#948 = PRODUCT_DEFINITION('design','',#949,#952);
#949 = PRODUCT_DEFINITION_FORMATION('','',#950);
#950 = PRODUCT('Pin Shape','Pin Shape','',(#951));
#951 = PRODUCT_CONTEXT('',#2,'mechanical');
#952 = PRODUCT_DEFINITION_CONTEXT('part definition',#2,'design');
#953 = CONTEXT_DEPENDENT_SHAPE_REPRESENTATION(#954,#956);
#954 = ( REPRESENTATION_RELATIONSHIP('','',#598,#46) 
REPRESENTATION_RELATIONSHIP_WITH_TRANSFORMATION(#955) 
SHAPE_REPRESENTATION_RELATIONSHIP() );
#955 = ITEM_DEFINED_TRANSFORMATION('','',#11,#59);
#956 = PRODUCT_DEFINITION_SHAPE('Placement','Placement of an item',#957
  );
#957 = NEXT_ASSEMBLY_USAGE_OCCURRENCE('246','223','',#41,#948,$);
#958 = PRODUCT_RELATED_PRODUCT_CATEGORY('part',$,(#950));
#959 = CONTEXT_DEPENDENT_SHAPE_REPRESENTATION(#960,#962);
#960 = ( REPRESENTATION_RELATIONSHIP('','',#598,#46) 
REPRESENTATION_RELATIONSHIP_WITH_TRANSFORMATION(#961) 
SHAPE_REPRESENTATION_RELATIONSHIP() );
#961 = ITEM_DEFINED_TRANSFORMATION('','',#11,#63);
#962 = PRODUCT_DEFINITION_SHAPE('Placement','Placement of an item',#963
  );
#963 = NEXT_ASSEMBLY_USAGE_OCCURRENCE('247','224','',#41,#948,$);
#964 = CONTEXT_DEPENDENT_SHAPE_REPRESENTATION(#965,#967);
#965 = ( REPRESENTATION_RELATIONSHIP('','',#598,#46) 
REPRESENTATION_RELATIONSHIP_WITH_TRANSFORMATION(#966) 
SHAPE_REPRESENTATION_RELATIONSHIP() );
#966 = ITEM_DEFINED_TRANSFORMATION('','',#11,#67);
#967 = PRODUCT_DEFINITION_SHAPE('Placement','Placement of an item',#968
  );
#968 = NEXT_ASSEMBLY_USAGE_OCCURRENCE('248','225','',#41,#948,$);
#969 = CONTEXT_DEPENDENT_SHAPE_REPRESENTATION(#970,#972);
#970 = ( REPRESENTATION_RELATIONSHIP('','',#598,#46) 
REPRESENTATION_RELATIONSHIP_WITH_TRANSFORMATION(#971) 
SHAPE_REPRESENTATION_RELATIONSHIP() );
#971 = ITEM_DEFINED_TRANSFORMATION('','',#11,#71);
#972 = PRODUCT_DEFINITION_SHAPE('Placement','Placement of an item',#973
  );
#973 = NEXT_ASSEMBLY_USAGE_OCCURRENCE('249','226','',#41,#948,$);
#974 = CONTEXT_DEPENDENT_SHAPE_REPRESENTATION(#975,#977);
#975 = ( REPRESENTATION_RELATIONSHIP('','',#598,#46) 
REPRESENTATION_RELATIONSHIP_WITH_TRANSFORMATION(#976) 
SHAPE_REPRESENTATION_RELATIONSHIP() );
#976 = ITEM_DEFINED_TRANSFORMATION('','',#11,#75);
#977 = PRODUCT_DEFINITION_SHAPE('Placement','Placement of an item',#978
  );
#978 = NEXT_ASSEMBLY_USAGE_OCCURRENCE('250','227','',#41,#948,$);
#979 = CONTEXT_DEPENDENT_SHAPE_REPRESENTATION(#980,#982);
#980 = ( REPRESENTATION_RELATIONSHIP('','',#598,#46) 
REPRESENTATION_RELATIONSHIP_WITH_TRANSFORMATION(#981) 
SHAPE_REPRESENTATION_RELATIONSHIP() );
#981 = ITEM_DEFINED_TRANSFORMATION('','',#11,#79);
#982 = PRODUCT_DEFINITION_SHAPE('Placement','Placement of an item',#983
  );
#983 = NEXT_ASSEMBLY_USAGE_OCCURRENCE('251','228','',#41,#948,$);
#984 = CONTEXT_DEPENDENT_SHAPE_REPRESENTATION(#985,#987);
#985 = ( REPRESENTATION_RELATIONSHIP('','',#598,#46) 
REPRESENTATION_RELATIONSHIP_WITH_TRANSFORMATION(#986) 
SHAPE_REPRESENTATION_RELATIONSHIP() );
#986 = ITEM_DEFINED_TRANSFORMATION('','',#11,#83);
#987 = PRODUCT_DEFINITION_SHAPE('Placement','Placement of an item',#988
  );
#988 = NEXT_ASSEMBLY_USAGE_OCCURRENCE('252','229','',#41,#948,$);
#989 = CONTEXT_DEPENDENT_SHAPE_REPRESENTATION(#990,#992);
#990 = ( REPRESENTATION_RELATIONSHIP('','',#598,#46) 
REPRESENTATION_RELATIONSHIP_WITH_TRANSFORMATION(#991) 
SHAPE_REPRESENTATION_RELATIONSHIP() );
#991 = ITEM_DEFINED_TRANSFORMATION('','',#11,#87);
#992 = PRODUCT_DEFINITION_SHAPE('Placement','Placement of an item',#993
  );
#993 = NEXT_ASSEMBLY_USAGE_OCCURRENCE('253','230','',#41,#948,$);
#994 = CONTEXT_DEPENDENT_SHAPE_REPRESENTATION(#995,#997);
#995 = ( REPRESENTATION_RELATIONSHIP('','',#598,#46) 
REPRESENTATION_RELATIONSHIP_WITH_TRANSFORMATION(#996) 
SHAPE_REPRESENTATION_RELATIONSHIP() );
#996 = ITEM_DEFINED_TRANSFORMATION('','',#11,#91);
#997 = PRODUCT_DEFINITION_SHAPE('Placement','Placement of an item',#998
  );
#998 = NEXT_ASSEMBLY_USAGE_OCCURRENCE('254','231','',#41,#948,$);
#999 = CONTEXT_DEPENDENT_SHAPE_REPRESENTATION(#1000,#1002);
#1000 = ( REPRESENTATION_RELATIONSHIP('','',#598,#46) 
REPRESENTATION_RELATIONSHIP_WITH_TRANSFORMATION(#1001) 
SHAPE_REPRESENTATION_RELATIONSHIP() );
#1001 = ITEM_DEFINED_TRANSFORMATION('','',#11,#95);
#1002 = PRODUCT_DEFINITION_SHAPE('Placement','Placement of an item',
  #1003);
#1003 = NEXT_ASSEMBLY_USAGE_OCCURRENCE('255','232','',#41,#948,$);
#1004 = CONTEXT_DEPENDENT_SHAPE_REPRESENTATION(#1005,#1007);
#1005 = ( REPRESENTATION_RELATIONSHIP('','',#598,#46) 
REPRESENTATION_RELATIONSHIP_WITH_TRANSFORMATION(#1006) 
SHAPE_REPRESENTATION_RELATIONSHIP() );
#1006 = ITEM_DEFINED_TRANSFORMATION('','',#11,#99);
#1007 = PRODUCT_DEFINITION_SHAPE('Placement','Placement of an item',
  #1008);
#1008 = NEXT_ASSEMBLY_USAGE_OCCURRENCE('256','233','',#41,#948,$);
#1009 = CONTEXT_DEPENDENT_SHAPE_REPRESENTATION(#1010,#1012);
#1010 = ( REPRESENTATION_RELATIONSHIP('','',#598,#46) 
REPRESENTATION_RELATIONSHIP_WITH_TRANSFORMATION(#1011) 
SHAPE_REPRESENTATION_RELATIONSHIP() );
#1011 = ITEM_DEFINED_TRANSFORMATION('','',#11,#103);
#1012 = PRODUCT_DEFINITION_SHAPE('Placement','Placement of an item',
  #1013);
#1013 = NEXT_ASSEMBLY_USAGE_OCCURRENCE('257','234','',#41,#948,$);
#1014 = CONTEXT_DEPENDENT_SHAPE_REPRESENTATION(#1015,#1017);
#1015 = ( REPRESENTATION_RELATIONSHIP('','',#598,#46) 
REPRESENTATION_RELATIONSHIP_WITH_TRANSFORMATION(#1016) 
SHAPE_REPRESENTATION_RELATIONSHIP() );
#1016 = ITEM_DEFINED_TRANSFORMATION('','',#11,#107);
#1017 = PRODUCT_DEFINITION_SHAPE('Placement','Placement of an item',
  #1018);
#1018 = NEXT_ASSEMBLY_USAGE_OCCURRENCE('258','235','',#41,#948,$);
#1019 = CONTEXT_DEPENDENT_SHAPE_REPRESENTATION(#1020,#1022);
#1020 = ( REPRESENTATION_RELATIONSHIP('','',#598,#46) 
REPRESENTATION_RELATIONSHIP_WITH_TRANSFORMATION(#1021) 
SHAPE_REPRESENTATION_RELATIONSHIP() );
#1021 = ITEM_DEFINED_TRANSFORMATION('','',#11,#111);
#1022 = PRODUCT_DEFINITION_SHAPE('Placement','Placement of an item',
  #1023);
#1023 = NEXT_ASSEMBLY_USAGE_OCCURRENCE('259','236','',#41,#948,$);
#1024 = CONTEXT_DEPENDENT_SHAPE_REPRESENTATION(#1025,#1027);
#1025 = ( REPRESENTATION_RELATIONSHIP('','',#598,#46) 
REPRESENTATION_RELATIONSHIP_WITH_TRANSFORMATION(#1026) 
SHAPE_REPRESENTATION_RELATIONSHIP() );
#1026 = ITEM_DEFINED_TRANSFORMATION('','',#11,#115);
#1027 = PRODUCT_DEFINITION_SHAPE('Placement','Placement of an item',
  #1028);
#1028 = NEXT_ASSEMBLY_USAGE_OCCURRENCE('260','237','',#41,#948,$);
#1029 = CONTEXT_DEPENDENT_SHAPE_REPRESENTATION(#1030,#1032);
#1030 = ( REPRESENTATION_RELATIONSHIP('','',#598,#46) 
REPRESENTATION_RELATIONSHIP_WITH_TRANSFORMATION(#1031) 
SHAPE_REPRESENTATION_RELATIONSHIP() );
#1031 = ITEM_DEFINED_TRANSFORMATION('','',#11,#119);
#1032 = PRODUCT_DEFINITION_SHAPE('Placement','Placement of an item',
  #1033);
#1033 = NEXT_ASSEMBLY_USAGE_OCCURRENCE('261','238','',#41,#948,$);
#1034 = CONTEXT_DEPENDENT_SHAPE_REPRESENTATION(#1035,#1037);
#1035 = ( REPRESENTATION_RELATIONSHIP('','',#598,#46) 
REPRESENTATION_RELATIONSHIP_WITH_TRANSFORMATION(#1036) 
SHAPE_REPRESENTATION_RELATIONSHIP() );
#1036 = ITEM_DEFINED_TRANSFORMATION('','',#11,#123);
#1037 = PRODUCT_DEFINITION_SHAPE('Placement','Placement of an item',
  #1038);
#1038 = NEXT_ASSEMBLY_USAGE_OCCURRENCE('262','239','',#41,#948,$);
#1039 = CONTEXT_DEPENDENT_SHAPE_REPRESENTATION(#1040,#1042);
#1040 = ( REPRESENTATION_RELATIONSHIP('','',#598,#46) 
REPRESENTATION_RELATIONSHIP_WITH_TRANSFORMATION(#1041) 
SHAPE_REPRESENTATION_RELATIONSHIP() );
#1041 = ITEM_DEFINED_TRANSFORMATION('','',#11,#127);
#1042 = PRODUCT_DEFINITION_SHAPE('Placement','Placement of an item',
  #1043);
#1043 = NEXT_ASSEMBLY_USAGE_OCCURRENCE('263','240','',#41,#948,$);
#1044 = CONTEXT_DEPENDENT_SHAPE_REPRESENTATION(#1045,#1047);
#1045 = ( REPRESENTATION_RELATIONSHIP('','',#598,#46) 
REPRESENTATION_RELATIONSHIP_WITH_TRANSFORMATION(#1046) 
SHAPE_REPRESENTATION_RELATIONSHIP() );
#1046 = ITEM_DEFINED_TRANSFORMATION('','',#11,#131);
#1047 = PRODUCT_DEFINITION_SHAPE('Placement','Placement of an item',
  #1048);
#1048 = NEXT_ASSEMBLY_USAGE_OCCURRENCE('264','241','',#41,#948,$);
#1049 = CONTEXT_DEPENDENT_SHAPE_REPRESENTATION(#1050,#1052);
#1050 = ( REPRESENTATION_RELATIONSHIP('','',#598,#46) 
REPRESENTATION_RELATIONSHIP_WITH_TRANSFORMATION(#1051) 
SHAPE_REPRESENTATION_RELATIONSHIP() );
#1051 = ITEM_DEFINED_TRANSFORMATION('','',#11,#135);
#1052 = PRODUCT_DEFINITION_SHAPE('Placement','Placement of an item',
  #1053);
#1053 = NEXT_ASSEMBLY_USAGE_OCCURRENCE('265','242','',#41,#948,$);
#1054 = CONTEXT_DEPENDENT_SHAPE_REPRESENTATION(#1055,#1057);
#1055 = ( REPRESENTATION_RELATIONSHIP('','',#46,#28) 
REPRESENTATION_RELATIONSHIP_WITH_TRANSFORMATION(#1056) 
SHAPE_REPRESENTATION_RELATIONSHIP() );
#1056 = ITEM_DEFINED_TRANSFORMATION('','',#11,#29);
#1057 = PRODUCT_DEFINITION_SHAPE('Placement','Placement of an item',
  #1058);
#1058 = NEXT_ASSEMBLY_USAGE_OCCURRENCE('266','','',#23,#41,$);
#1059 = PRODUCT_RELATED_PRODUCT_CATEGORY('part',$,(#43));
#1060 = MECHANICAL_DESIGN_GEOMETRIC_PRESENTATION_REPRESENTATION('',(
    #1061),#580);
#1061 = STYLED_ITEM('color',(#1062),#397);
#1062 = PRESENTATION_STYLE_ASSIGNMENT((#1063,#1069));
#1063 = SURFACE_STYLE_USAGE(.BOTH.,#1064);
#1064 = SURFACE_SIDE_STYLE('',(#1065));
#1065 = SURFACE_STYLE_FILL_AREA(#1066);
#1066 = FILL_AREA_STYLE('',(#1067));
#1067 = FILL_AREA_STYLE_COLOUR('',#1068);
#1068 = COLOUR_RGB('',0.800000010877,0.800000010877,0.800000010877);
#1069 = CURVE_STYLE('',#1070,POSITIVE_LENGTH_MEASURE(0.1),#1068);
#1070 = DRAUGHTING_PRE_DEFINED_CURVE_FONT('continuous');
#1071 = MECHANICAL_DESIGN_GEOMETRIC_PRESENTATION_REPRESENTATION('',(
    #1072),#378);
#1072 = STYLED_ITEM('color',(#1073),#183);
#1073 = PRESENTATION_STYLE_ASSIGNMENT((#1074,#1080));
#1074 = SURFACE_STYLE_USAGE(.BOTH.,#1075);
#1075 = SURFACE_SIDE_STYLE('',(#1076));
#1076 = SURFACE_STYLE_FILL_AREA(#1077);
#1077 = FILL_AREA_STYLE('',(#1078));
#1078 = FILL_AREA_STYLE_COLOUR('',#1079);
#1079 = COLOUR_RGB('',0.199999998682,0.199999998682,0.199999998682);
#1080 = CURVE_STYLE('',#1081,POSITIVE_LENGTH_MEASURE(0.1),#1079);
#1081 = DRAUGHTING_PRE_DEFINED_CURVE_FONT('continuous');
#1082 = MECHANICAL_DESIGN_GEOMETRIC_PRESENTATION_REPRESENTATION('',(
    #1083),#164);
#1083 = STYLED_ITEM('color',(#1084),#147);
#1084 = PRESENTATION_STYLE_ASSIGNMENT((#1085,#1091));
#1085 = SURFACE_STYLE_USAGE(.BOTH.,#1086);
#1086 = SURFACE_SIDE_STYLE('',(#1087));
#1087 = SURFACE_STYLE_FILL_AREA(#1088);
#1088 = FILL_AREA_STYLE('',(#1089));
#1089 = FILL_AREA_STYLE_COLOUR('',#1090);
#1090 = DRAUGHTING_PRE_DEFINED_COLOUR('white');
#1091 = CURVE_STYLE('',#1092,POSITIVE_LENGTH_MEASURE(0.1),#1090);
#1092 = DRAUGHTING_PRE_DEFINED_CURVE_FONT('continuous');
#1093 = MECHANICAL_DESIGN_GEOMETRIC_PRESENTATION_REPRESENTATION('',(
    #1094),#941);
#1094 = STYLED_ITEM('color',(#1095),#599);
#1095 = PRESENTATION_STYLE_ASSIGNMENT((#1096,#1101));
#1096 = SURFACE_STYLE_USAGE(.BOTH.,#1097);
#1097 = SURFACE_SIDE_STYLE('',(#1098));
#1098 = SURFACE_STYLE_FILL_AREA(#1099);
#1099 = FILL_AREA_STYLE('',(#1100));
#1100 = FILL_AREA_STYLE_COLOUR('',#1068);
#1101 = CURVE_STYLE('',#1102,POSITIVE_LENGTH_MEASURE(0.1),#1068);
#1102 = DRAUGHTING_PRE_DEFINED_CURVE_FONT('continuous');
ENDSEC;
END-ISO-10303-21;
