ISO-10303-21;
HEADER;
FILE_DESCRIPTION(('Open CASCADE Model'),'2;1');
FILE_NAME('Open CASCADE Shape Model','2026-08-30T13:17:11',('Author'),(
    'Open CASCADE'),'Open CASCADE STEP processor 7.5','Open CASCADE 7.5'
  ,'Unknown');
FILE_SCHEMA(('AUTOMOTIVE_DESIGN { 1 0 10303 214 1 1 1 1 }'));
ENDSEC;
DATA;
#1 = APPLICATION_PROTOCOL_DEFINITION('international standard',
  'automotive_design',2000,#2);
#2 = APPLICATION_CONTEXT(
  'core data for automotive mechanical design processes');
#3 = SHAPE_DEFINITION_REPRESENTATION(#4,#10);
#4 = PRODUCT_DEFINITION_SHAPE('','',#5);
#5 = PRODUCT_DEFINITION('design','',#6,#9);
#6 = PRODUCT_DEFINITION_FORMATION('','',#7);
#7 = PRODUCT('PCB','PCB','',(#8));
#8 = PRODUCT_CONTEXT('',#2,'mechanical');
#9 = PRODUCT_DEFINITION_CONTEXT('part definition',#2,'design');
#10 = SHAPE_REPRESENTATION('',(#11),#15);
#11 = AXIS2_PLACEMENT_3D('',#12,#13,#14);
#12 = CARTESIAN_POINT('',(0.,0.,0.));
#13 = DIRECTION('',(0.,0.,1.));
#14 = DIRECTION('',(1.,0.,-0.));
#15 = ( GEOMETRIC_REPRESENTATION_CONTEXT(3) 
GLOBAL_UNCERTAINTY_ASSIGNED_CONTEXT((#19)) GLOBAL_UNIT_ASSIGNED_CONTEXT(
(#16,#17,#18)) REPRESENTATION_CONTEXT('Context #1',
  '3D Context with UNIT and UNCERTAINTY') );
#16 = ( LENGTH_UNIT() NAMED_UNIT(*) SI_UNIT(.MILLI.,.METRE.) );
#17 = ( NAMED_UNIT(*) PLANE_ANGLE_UNIT() SI_UNIT($,.RADIAN.) );
#18 = ( NAMED_UNIT(*) SI_UNIT($,.STERADIAN.) SOLID_ANGLE_UNIT() );
#19 = UNCERTAINTY_MEASURE_WITH_UNIT(LENGTH_MEASURE(1.E-07),#16,
  'distance_accuracy_value','confusion accuracy');
#20 = PRODUCT_RELATED_PRODUCT_CATEGORY('part',$,(#7));
#21 = SHAPE_DEFINITION_REPRESENTATION(#22,#28);
#22 = PRODUCT_DEFINITION_SHAPE('','',#23);
#23 = PRODUCT_DEFINITION('design','',#24,#27);
#24 = PRODUCT_DEFINITION_FORMATION('','',#25);
#25 = PRODUCT('Designator1','Designator1','',(#26));
#26 = PRODUCT_CONTEXT('',#2,'mechanical');
#27 = PRODUCT_DEFINITION_CONTEXT('part definition',#2,'design');
#28 = SHAPE_REPRESENTATION('',(#11,#29),#33);
#29 = AXIS2_PLACEMENT_3D('',#30,#31,#32);
#30 = CARTESIAN_POINT('',(0.,0.,0.));
#31 = DIRECTION('',(0.,0.,1.));
#32 = DIRECTION('',(1.,0.,0.));
#33 = ( GEOMETRIC_REPRESENTATION_CONTEXT(3) 
GLOBAL_UNCERTAINTY_ASSIGNED_CONTEXT((#37)) GLOBAL_UNIT_ASSIGNED_CONTEXT(
(#34,#35,#36)) REPRESENTATION_CONTEXT('Context #1',
  '3D Context with UNIT and UNCERTAINTY') );
#34 = ( LENGTH_UNIT() NAMED_UNIT(*) SI_UNIT(.MILLI.,.METRE.) );
#35 = ( NAMED_UNIT(*) PLANE_ANGLE_UNIT() SI_UNIT($,.RADIAN.) );
#36 = ( NAMED_UNIT(*) SI_UNIT($,.STERADIAN.) SOLID_ANGLE_UNIT() );
#37 = UNCERTAINTY_MEASURE_WITH_UNIT(LENGTH_MEASURE(1.E-07),#34,
  'distance_accuracy_value','confusion accuracy');
#38 = PRODUCT_RELATED_PRODUCT_CATEGORY('part',$,(#25));
#39 = SHAPE_DEFINITION_REPRESENTATION(#40,#46);
#40 = PRODUCT_DEFINITION_SHAPE('','',#41);
#41 = PRODUCT_DEFINITION('design','',#42,#45);
#42 = PRODUCT_DEFINITION_FORMATION('','',#43);
#43 = PRODUCT('7750841600','7750841600','',(#44));
#44 = PRODUCT_CONTEXT('',#2,'mechanical');
#45 = PRODUCT_DEFINITION_CONTEXT('part definition',#2,'design');
#46 = SHAPE_REPRESENTATION('',(#11,#47,#51,#55,#59,#63,#67,#71,#75,#79,
    #83,#87,#91,#95),#99);
#47 = AXIS2_PLACEMENT_3D('',#48,#49,#50);
#48 = CARTESIAN_POINT('',(-1.,-1.,0.));
#49 = DIRECTION('',(0.,0.,1.));
#50 = DIRECTION('',(1.,0.,0.));
#51 = AXIS2_PLACEMENT_3D('',#52,#53,#54);
#52 = CARTESIAN_POINT('',(-1.,-1.,0.));
#53 = DIRECTION('',(0.,0.,1.));
#54 = DIRECTION('',(1.,0.,0.));
#55 = AXIS2_PLACEMENT_3D('',#56,#57,#58);
#56 = CARTESIAN_POINT('',(-0.45,-0.75,-1.E-03));
#57 = DIRECTION('',(0.,0.,1.));
#58 = DIRECTION('',(1.,0.,0.));
#59 = AXIS2_PLACEMENT_3D('',#60,#61,#62);
#60 = CARTESIAN_POINT('',(-1.,-0.9,0.));
#61 = DIRECTION('',(0.,0.,1.));
#62 = DIRECTION('',(1.,0.,0.));
#63 = AXIS2_PLACEMENT_3D('',#64,#65,#66);
#64 = CARTESIAN_POINT('',(-1.,-0.5,0.));
#65 = DIRECTION('',(0.,0.,1.));
#66 = DIRECTION('',(1.,0.,0.));
#67 = AXIS2_PLACEMENT_3D('',#68,#69,#70);
#68 = CARTESIAN_POINT('',(-1.,-0.1,0.));
#69 = DIRECTION('',(0.,0.,1.));
#70 = DIRECTION('',(1.,0.,0.));
#71 = AXIS2_PLACEMENT_3D('',#72,#73,#74);
#72 = CARTESIAN_POINT('',(-1.,0.3,0.));
#73 = DIRECTION('',(0.,0.,1.));
#74 = DIRECTION('',(1.,0.,0.));
#75 = AXIS2_PLACEMENT_3D('',#76,#77,#78);
#76 = CARTESIAN_POINT('',(-1.,0.7,0.));
#77 = DIRECTION('',(0.,0.,1.));
#78 = DIRECTION('',(1.,0.,0.));
#79 = AXIS2_PLACEMENT_3D('',#80,#81,#82);
#80 = CARTESIAN_POINT('',(1.,-0.7,0.));
#81 = DIRECTION('',(0.,0.,1.));
#82 = DIRECTION('',(-1.,1.224646799147E-16,0.));
#83 = AXIS2_PLACEMENT_3D('',#84,#85,#86);
#84 = CARTESIAN_POINT('',(1.,-0.3,0.));
#85 = DIRECTION('',(0.,0.,1.));
#86 = DIRECTION('',(-1.,1.224646799147E-16,0.));
#87 = AXIS2_PLACEMENT_3D('',#88,#89,#90);
#88 = CARTESIAN_POINT('',(1.,0.1,0.));
#89 = DIRECTION('',(0.,0.,1.));
#90 = DIRECTION('',(-1.,1.224646799147E-16,0.));
#91 = AXIS2_PLACEMENT_3D('',#92,#93,#94);
#92 = CARTESIAN_POINT('',(1.,0.5,0.));
#93 = DIRECTION('',(0.,0.,1.));
#94 = DIRECTION('',(-1.,1.224646799147E-16,0.));
#95 = AXIS2_PLACEMENT_3D('',#96,#97,#98);
#96 = CARTESIAN_POINT('',(1.,0.9,0.));
#97 = DIRECTION('',(0.,0.,1.));
#98 = DIRECTION('',(-1.,1.224646799147E-16,0.));
#99 = ( GEOMETRIC_REPRESENTATION_CONTEXT(3) 
GLOBAL_UNCERTAINTY_ASSIGNED_CONTEXT((#103)) GLOBAL_UNIT_ASSIGNED_CONTEXT
((#100,#101,#102)) REPRESENTATION_CONTEXT('Context #1',
  '3D Context with UNIT and UNCERTAINTY') );
#100 = ( LENGTH_UNIT() NAMED_UNIT(*) SI_UNIT(.MILLI.,.METRE.) );
#101 = ( NAMED_UNIT(*) PLANE_ANGLE_UNIT() SI_UNIT($,.RADIAN.) );
#102 = ( NAMED_UNIT(*) SI_UNIT($,.STERADIAN.) SOLID_ANGLE_UNIT() );
#103 = UNCERTAINTY_MEASURE_WITH_UNIT(LENGTH_MEASURE(1.E-07),#100,
  'distance_accuracy_value','confusion accuracy');
#104 = MANIFOLD_SURFACE_SHAPE_REPRESENTATION('',(#11,#105),#124);
#105 = SHELL_BASED_SURFACE_MODEL('',(#106));
#106 = OPEN_SHELL('',(#107));
#107 = ADVANCED_FACE('',(#108),#119,.T.);
#108 = FACE_BOUND('',#109,.T.);
#109 = EDGE_LOOP('',(#110));
#110 = ORIENTED_EDGE('',*,*,#111,.T.);
#111 = EDGE_CURVE('',#112,#112,#114,.T.);
#112 = VERTEX_POINT('',#113);
#113 = CARTESIAN_POINT('',(0.458333333333,1.666666666667,0.701));
#114 = CIRCLE('',#115,0.125);
#115 = AXIS2_PLACEMENT_3D('',#116,#117,#118);
#116 = CARTESIAN_POINT('',(0.333333333333,1.666666666667,0.701));
#117 = DIRECTION('',(0.,0.,1.));
#118 = DIRECTION('',(1.,0.,-0.));
#119 = PLANE('',#120);
#120 = AXIS2_PLACEMENT_3D('',#121,#122,#123);
#121 = CARTESIAN_POINT('',(0.333333333333,1.666666666667,0.701));
#122 = DIRECTION('',(0.,0.,1.));
#123 = DIRECTION('',(1.,0.,-0.));
#124 = ( GEOMETRIC_REPRESENTATION_CONTEXT(3) 
GLOBAL_UNCERTAINTY_ASSIGNED_CONTEXT((#128)) GLOBAL_UNIT_ASSIGNED_CONTEXT
((#125,#126,#127)) REPRESENTATION_CONTEXT('Context #1',
  '3D Context with UNIT and UNCERTAINTY') );
#125 = ( LENGTH_UNIT() NAMED_UNIT(*) SI_UNIT(.MILLI.,.METRE.) );
#126 = ( NAMED_UNIT(*) PLANE_ANGLE_UNIT() SI_UNIT($,.RADIAN.) );
#127 = ( NAMED_UNIT(*) SI_UNIT($,.STERADIAN.) SOLID_ANGLE_UNIT() );
#128 = UNCERTAINTY_MEASURE_WITH_UNIT(LENGTH_MEASURE(1.E-07),#125,
  'distance_accuracy_value','confusion accuracy');
#129 = SHAPE_DEFINITION_REPRESENTATION(#130,#104);
#130 = PRODUCT_DEFINITION_SHAPE('','',#131);
#131 = PRODUCT_DEFINITION('design','',#132,#135);
#132 = PRODUCT_DEFINITION_FORMATION('','',#133);
#133 = PRODUCT('Open CASCADE STEP translator 7.5 21.1',
  'Open CASCADE STEP translator 7.5 21.1','',(#134));
#134 = PRODUCT_CONTEXT('',#2,'mechanical');
#135 = PRODUCT_DEFINITION_CONTEXT('part definition',#2,'design');
#136 = CONTEXT_DEPENDENT_SHAPE_REPRESENTATION(#137,#139);
#137 = ( REPRESENTATION_RELATIONSHIP('','',#104,#46) 
REPRESENTATION_RELATIONSHIP_WITH_TRANSFORMATION(#138) 
SHAPE_REPRESENTATION_RELATIONSHIP() );
#138 = ITEM_DEFINED_TRANSFORMATION('','',#11,#47);
#139 = PRODUCT_DEFINITION_SHAPE('Placement','Placement of an item',#140
  );
#140 = NEXT_ASSEMBLY_USAGE_OCCURRENCE('264','251','',#41,#131,$);
#141 = PRODUCT_RELATED_PRODUCT_CATEGORY('part',$,(#133));
#142 = ADVANCED_BREP_SHAPE_REPRESENTATION('',(#11,#143),#338);
#143 = MANIFOLD_SOLID_BREP('',#144);
#144 = CLOSED_SHELL('',(#145,#185,#216,#251,#275,#292,#304,#329));
#145 = ADVANCED_FACE('',(#146),#180,.F.);
#146 = FACE_BOUND('',#147,.F.);
#147 = EDGE_LOOP('',(#148,#158,#166,#174));
#148 = ORIENTED_EDGE('',*,*,#149,.F.);
#149 = EDGE_CURVE('',#150,#152,#154,.T.);
#150 = VERTEX_POINT('',#151);
#151 = CARTESIAN_POINT('',(0.,0.,0.));
#152 = VERTEX_POINT('',#153);
#153 = CARTESIAN_POINT('',(0.,0.,0.8));
#154 = LINE('',#155,#156);
#155 = CARTESIAN_POINT('',(0.,0.,0.));
#156 = VECTOR('',#157,1.);
#157 = DIRECTION('',(0.,0.,1.));
#158 = ORIENTED_EDGE('',*,*,#159,.T.);
#159 = EDGE_CURVE('',#150,#160,#162,.T.);
#160 = VERTEX_POINT('',#161);
#161 = CARTESIAN_POINT('',(0.,2.,0.));
#162 = LINE('',#163,#164);
#163 = CARTESIAN_POINT('',(0.,0.,0.));
#164 = VECTOR('',#165,1.);
#165 = DIRECTION('',(-0.,1.,0.));
#166 = ORIENTED_EDGE('',*,*,#167,.T.);
#167 = EDGE_CURVE('',#160,#168,#170,.T.);
#168 = VERTEX_POINT('',#169);
#169 = CARTESIAN_POINT('',(0.,2.,0.8));
#170 = LINE('',#171,#172);
#171 = CARTESIAN_POINT('',(0.,2.,0.));
#172 = VECTOR('',#173,1.);
#173 = DIRECTION('',(0.,0.,1.));
#174 = ORIENTED_EDGE('',*,*,#175,.F.);
#175 = EDGE_CURVE('',#152,#168,#176,.T.);
#176 = LINE('',#177,#178);
#177 = CARTESIAN_POINT('',(0.,0.,0.8));
#178 = VECTOR('',#179,1.);
#179 = DIRECTION('',(-0.,1.,0.));
#180 = PLANE('',#181);
#181 = AXIS2_PLACEMENT_3D('',#182,#183,#184);
#182 = CARTESIAN_POINT('',(0.,0.,0.));
#183 = DIRECTION('',(1.,0.,-0.));
#184 = DIRECTION('',(0.,0.,1.));
#185 = ADVANCED_FACE('',(#186),#211,.F.);
#186 = FACE_BOUND('',#187,.F.);
#187 = EDGE_LOOP('',(#188,#196,#197,#205));
#188 = ORIENTED_EDGE('',*,*,#189,.F.);
#189 = EDGE_CURVE('',#150,#190,#192,.T.);
#190 = VERTEX_POINT('',#191);
#191 = CARTESIAN_POINT('',(2.,0.,0.));
#192 = LINE('',#193,#194);
#193 = CARTESIAN_POINT('',(0.,0.,0.));
#194 = VECTOR('',#195,1.);
#195 = DIRECTION('',(1.,0.,-0.));
#196 = ORIENTED_EDGE('',*,*,#149,.T.);
#197 = ORIENTED_EDGE('',*,*,#198,.T.);
#198 = EDGE_CURVE('',#152,#199,#201,.T.);
#199 = VERTEX_POINT('',#200);
#200 = CARTESIAN_POINT('',(2.,0.,0.8));
#201 = LINE('',#202,#203);
#202 = CARTESIAN_POINT('',(0.,0.,0.8));
#203 = VECTOR('',#204,1.);
#204 = DIRECTION('',(1.,0.,-0.));
#205 = ORIENTED_EDGE('',*,*,#206,.F.);
#206 = EDGE_CURVE('',#190,#199,#207,.T.);
#207 = LINE('',#208,#209);
#208 = CARTESIAN_POINT('',(2.,0.,0.));
#209 = VECTOR('',#210,1.);
#210 = DIRECTION('',(0.,0.,1.));
#211 = PLANE('',#212);
#212 = AXIS2_PLACEMENT_3D('',#213,#214,#215);
#213 = CARTESIAN_POINT('',(0.,0.,0.));
#214 = DIRECTION('',(-0.,1.,0.));
#215 = DIRECTION('',(0.,0.,1.));
#216 = ADVANCED_FACE('',(#217,#235),#246,.T.);
#217 = FACE_BOUND('',#218,.T.);
#218 = EDGE_LOOP('',(#219,#220,#221,#229));
#219 = ORIENTED_EDGE('',*,*,#175,.F.);
#220 = ORIENTED_EDGE('',*,*,#198,.T.);
#221 = ORIENTED_EDGE('',*,*,#222,.T.);
#222 = EDGE_CURVE('',#199,#223,#225,.T.);
#223 = VERTEX_POINT('',#224);
#224 = CARTESIAN_POINT('',(2.,2.,0.8));
#225 = LINE('',#226,#227);
#226 = CARTESIAN_POINT('',(2.,0.,0.8));
#227 = VECTOR('',#228,1.);
#228 = DIRECTION('',(-0.,1.,0.));
#229 = ORIENTED_EDGE('',*,*,#230,.F.);
#230 = EDGE_CURVE('',#168,#223,#231,.T.);
#231 = LINE('',#232,#233);
#232 = CARTESIAN_POINT('',(0.,2.,0.8));
#233 = VECTOR('',#234,1.);
#234 = DIRECTION('',(1.,0.,-0.));
#235 = FACE_BOUND('',#236,.T.);
#236 = EDGE_LOOP('',(#237));
#237 = ORIENTED_EDGE('',*,*,#238,.F.);
#238 = EDGE_CURVE('',#239,#239,#241,.T.);
#239 = VERTEX_POINT('',#240);
#240 = CARTESIAN_POINT('',(0.458333333333,1.666666666667,0.8));
#241 = CIRCLE('',#242,0.125);
#242 = AXIS2_PLACEMENT_3D('',#243,#244,#245);
#243 = CARTESIAN_POINT('',(0.333333333333,1.666666666667,0.8));
#244 = DIRECTION('',(0.,0.,1.));
#245 = DIRECTION('',(1.,0.,-0.));
#246 = PLANE('',#247);
#247 = AXIS2_PLACEMENT_3D('',#248,#249,#250);
#248 = CARTESIAN_POINT('',(0.,0.,0.8));
#249 = DIRECTION('',(0.,0.,1.));
#250 = DIRECTION('',(1.,0.,-0.));
#251 = ADVANCED_FACE('',(#252),#270,.T.);
#252 = FACE_BOUND('',#253,.T.);
#253 = EDGE_LOOP('',(#254,#262,#263,#264));
#254 = ORIENTED_EDGE('',*,*,#255,.F.);
#255 = EDGE_CURVE('',#160,#256,#258,.T.);
#256 = VERTEX_POINT('',#257);
#257 = CARTESIAN_POINT('',(2.,2.,0.));
#258 = LINE('',#259,#260);
#259 = CARTESIAN_POINT('',(0.,2.,0.));
#260 = VECTOR('',#261,1.);
#261 = DIRECTION('',(1.,0.,-0.));
#262 = ORIENTED_EDGE('',*,*,#167,.T.);
#263 = ORIENTED_EDGE('',*,*,#230,.T.);
#264 = ORIENTED_EDGE('',*,*,#265,.F.);
#265 = EDGE_CURVE('',#256,#223,#266,.T.);
#266 = LINE('',#267,#268);
#267 = CARTESIAN_POINT('',(2.,2.,0.));
#268 = VECTOR('',#269,1.);
#269 = DIRECTION('',(0.,0.,1.));
#270 = PLANE('',#271);
#271 = AXIS2_PLACEMENT_3D('',#272,#273,#274);
#272 = CARTESIAN_POINT('',(0.,2.,0.));
#273 = DIRECTION('',(-0.,1.,0.));
#274 = DIRECTION('',(0.,0.,1.));
#275 = ADVANCED_FACE('',(#276),#287,.F.);
#276 = FACE_BOUND('',#277,.F.);
#277 = EDGE_LOOP('',(#278,#279,#280,#286));
#278 = ORIENTED_EDGE('',*,*,#159,.F.);
#279 = ORIENTED_EDGE('',*,*,#189,.T.);
#280 = ORIENTED_EDGE('',*,*,#281,.T.);
#281 = EDGE_CURVE('',#190,#256,#282,.T.);
#282 = LINE('',#283,#284);
#283 = CARTESIAN_POINT('',(2.,0.,0.));
#284 = VECTOR('',#285,1.);
#285 = DIRECTION('',(-0.,1.,0.));
#286 = ORIENTED_EDGE('',*,*,#255,.F.);
#287 = PLANE('',#288);
#288 = AXIS2_PLACEMENT_3D('',#289,#290,#291);
#289 = CARTESIAN_POINT('',(0.,0.,0.));
#290 = DIRECTION('',(0.,0.,1.));
#291 = DIRECTION('',(1.,0.,-0.));
#292 = ADVANCED_FACE('',(#293),#299,.T.);
#293 = FACE_BOUND('',#294,.T.);
#294 = EDGE_LOOP('',(#295,#296,#297,#298));
#295 = ORIENTED_EDGE('',*,*,#206,.F.);
#296 = ORIENTED_EDGE('',*,*,#281,.T.);
#297 = ORIENTED_EDGE('',*,*,#265,.T.);
#298 = ORIENTED_EDGE('',*,*,#222,.F.);
#299 = PLANE('',#300);
#300 = AXIS2_PLACEMENT_3D('',#301,#302,#303);
#301 = CARTESIAN_POINT('',(2.,0.,0.));
#302 = DIRECTION('',(1.,0.,-0.));
#303 = DIRECTION('',(0.,0.,1.));
#304 = ADVANCED_FACE('',(#305),#324,.F.);
#305 = FACE_BOUND('',#306,.F.);
#306 = EDGE_LOOP('',(#307,#308,#316,#323));
#307 = ORIENTED_EDGE('',*,*,#238,.F.);
#308 = ORIENTED_EDGE('',*,*,#309,.F.);
#309 = EDGE_CURVE('',#310,#239,#312,.T.);
#310 = VERTEX_POINT('',#311);
#311 = CARTESIAN_POINT('',(0.458333333333,1.666666666667,0.7));
#312 = LINE('',#313,#314);
#313 = CARTESIAN_POINT('',(0.458333333333,1.666666666667,0.7));
#314 = VECTOR('',#315,1.);
#315 = DIRECTION('',(0.,0.,1.));
#316 = ORIENTED_EDGE('',*,*,#317,.T.);
#317 = EDGE_CURVE('',#310,#310,#318,.T.);
#318 = CIRCLE('',#319,0.125);
#319 = AXIS2_PLACEMENT_3D('',#320,#321,#322);
#320 = CARTESIAN_POINT('',(0.333333333333,1.666666666667,0.7));
#321 = DIRECTION('',(0.,0.,1.));
#322 = DIRECTION('',(1.,0.,-0.));
#323 = ORIENTED_EDGE('',*,*,#309,.T.);
#324 = CYLINDRICAL_SURFACE('',#325,0.125);
#325 = AXIS2_PLACEMENT_3D('',#326,#327,#328);
#326 = CARTESIAN_POINT('',(0.333333333333,1.666666666667,0.7));
#327 = DIRECTION('',(0.,0.,1.));
#328 = DIRECTION('',(1.,0.,-0.));
#329 = ADVANCED_FACE('',(#330),#333,.T.);
#330 = FACE_BOUND('',#331,.F.);
#331 = EDGE_LOOP('',(#332));
#332 = ORIENTED_EDGE('',*,*,#317,.F.);
#333 = PLANE('',#334);
#334 = AXIS2_PLACEMENT_3D('',#335,#336,#337);
#335 = CARTESIAN_POINT('',(0.333333333333,1.666666666667,0.7));
#336 = DIRECTION('',(0.,0.,1.));
#337 = DIRECTION('',(1.,0.,-0.));
#338 = ( GEOMETRIC_REPRESENTATION_CONTEXT(3) 
GLOBAL_UNCERTAINTY_ASSIGNED_CONTEXT((#342)) GLOBAL_UNIT_ASSIGNED_CONTEXT
((#339,#340,#341)) REPRESENTATION_CONTEXT('Context #1',
  '3D Context with UNIT and UNCERTAINTY') );
#339 = ( LENGTH_UNIT() NAMED_UNIT(*) SI_UNIT(.MILLI.,.METRE.) );
#340 = ( NAMED_UNIT(*) PLANE_ANGLE_UNIT() SI_UNIT($,.RADIAN.) );
#341 = ( NAMED_UNIT(*) SI_UNIT($,.STERADIAN.) SOLID_ANGLE_UNIT() );
#342 = UNCERTAINTY_MEASURE_WITH_UNIT(LENGTH_MEASURE(1.E-07),#339,
  'distance_accuracy_value','confusion accuracy');
#343 = SHAPE_DEFINITION_REPRESENTATION(#344,#142);
#344 = PRODUCT_DEFINITION_SHAPE('','',#345);
#345 = PRODUCT_DEFINITION('design','',#346,#349);
#346 = PRODUCT_DEFINITION_FORMATION('','',#347);
#347 = PRODUCT('Body','Body','',(#348));
#348 = PRODUCT_CONTEXT('',#2,'mechanical');
#349 = PRODUCT_DEFINITION_CONTEXT('part definition',#2,'design');
#350 = CONTEXT_DEPENDENT_SHAPE_REPRESENTATION(#351,#353);
#351 = ( REPRESENTATION_RELATIONSHIP('','',#142,#46) 
REPRESENTATION_RELATIONSHIP_WITH_TRANSFORMATION(#352) 
SHAPE_REPRESENTATION_RELATIONSHIP() );
#352 = ITEM_DEFINED_TRANSFORMATION('','',#11,#51);
#353 = PRODUCT_DEFINITION_SHAPE('Placement','Placement of an item',#354
  );
#354 = NEXT_ASSEMBLY_USAGE_OCCURRENCE('265','252','',#41,#345,$);
#355 = PRODUCT_RELATED_PRODUCT_CATEGORY('part',$,(#347));
#356 = ADVANCED_BREP_SHAPE_REPRESENTATION('',(#11,#357),#540);
#357 = MANIFOLD_SOLID_BREP('',#358);
#358 = CLOSED_SHELL('',(#359,#399,#430,#461,#492,#514,#527));
#359 = ADVANCED_FACE('',(#360),#394,.F.);
#360 = FACE_BOUND('',#361,.F.);
#361 = EDGE_LOOP('',(#362,#372,#380,#388));
#362 = ORIENTED_EDGE('',*,*,#363,.T.);
#363 = EDGE_CURVE('',#364,#366,#368,.T.);
#364 = VERTEX_POINT('',#365);
#365 = CARTESIAN_POINT('',(0.,0.,0.));
#366 = VERTEX_POINT('',#367);
#367 = CARTESIAN_POINT('',(0.,0.,1.E-03));
#368 = LINE('',#369,#370);
#369 = CARTESIAN_POINT('',(0.,0.,0.));
#370 = VECTOR('',#371,1.);
#371 = DIRECTION('',(0.,0.,1.));
#372 = ORIENTED_EDGE('',*,*,#373,.T.);
#373 = EDGE_CURVE('',#366,#374,#376,.T.);
#374 = VERTEX_POINT('',#375);
#375 = CARTESIAN_POINT('',(0.9,0.,1.E-03));
#376 = LINE('',#377,#378);
#377 = CARTESIAN_POINT('',(0.,0.,1.E-03));
#378 = VECTOR('',#379,1.);
#379 = DIRECTION('',(1.,0.,0.));
#380 = ORIENTED_EDGE('',*,*,#381,.F.);
#381 = EDGE_CURVE('',#382,#374,#384,.T.);
#382 = VERTEX_POINT('',#383);
#383 = CARTESIAN_POINT('',(0.9,0.,0.));
#384 = LINE('',#385,#386);
#385 = CARTESIAN_POINT('',(0.9,0.,0.));
#386 = VECTOR('',#387,1.);
#387 = DIRECTION('',(0.,0.,1.));
#388 = ORIENTED_EDGE('',*,*,#389,.F.);
#389 = EDGE_CURVE('',#364,#382,#390,.T.);
#390 = LINE('',#391,#392);
#391 = CARTESIAN_POINT('',(0.,0.,0.));
#392 = VECTOR('',#393,1.);
#393 = DIRECTION('',(1.,0.,0.));
#394 = PLANE('',#395);
#395 = AXIS2_PLACEMENT_3D('',#396,#397,#398);
#396 = CARTESIAN_POINT('',(0.,0.,0.));
#397 = DIRECTION('',(0.,1.,0.));
#398 = DIRECTION('',(1.,0.,0.));
#399 = ADVANCED_FACE('',(#400),#425,.F.);
#400 = FACE_BOUND('',#401,.F.);
#401 = EDGE_LOOP('',(#402,#403,#411,#419));
#402 = ORIENTED_EDGE('',*,*,#381,.T.);
#403 = ORIENTED_EDGE('',*,*,#404,.T.);
#404 = EDGE_CURVE('',#374,#405,#407,.T.);
#405 = VERTEX_POINT('',#406);
#406 = CARTESIAN_POINT('',(0.9,1.5,1.E-03));
#407 = LINE('',#408,#409);
#408 = CARTESIAN_POINT('',(0.9,0.,1.E-03));
#409 = VECTOR('',#410,1.);
#410 = DIRECTION('',(0.,1.,0.));
#411 = ORIENTED_EDGE('',*,*,#412,.F.);
#412 = EDGE_CURVE('',#413,#405,#415,.T.);
#413 = VERTEX_POINT('',#414);
#414 = CARTESIAN_POINT('',(0.9,1.5,0.));
#415 = LINE('',#416,#417);
#416 = CARTESIAN_POINT('',(0.9,1.5,0.));
#417 = VECTOR('',#418,1.);
#418 = DIRECTION('',(0.,0.,1.));
#419 = ORIENTED_EDGE('',*,*,#420,.F.);
#420 = EDGE_CURVE('',#382,#413,#421,.T.);
#421 = LINE('',#422,#423);
#422 = CARTESIAN_POINT('',(0.9,0.,0.));
#423 = VECTOR('',#424,1.);
#424 = DIRECTION('',(0.,1.,0.));
#425 = PLANE('',#426);
#426 = AXIS2_PLACEMENT_3D('',#427,#428,#429);
#427 = CARTESIAN_POINT('',(0.9,0.,0.));
#428 = DIRECTION('',(-1.,0.,0.));
#429 = DIRECTION('',(0.,1.,0.));
#430 = ADVANCED_FACE('',(#431),#456,.F.);
#431 = FACE_BOUND('',#432,.F.);
#432 = EDGE_LOOP('',(#433,#434,#442,#450));
#433 = ORIENTED_EDGE('',*,*,#412,.T.);
#434 = ORIENTED_EDGE('',*,*,#435,.T.);
#435 = EDGE_CURVE('',#405,#436,#438,.T.);
#436 = VERTEX_POINT('',#437);
#437 = CARTESIAN_POINT('',(0.35,1.5,1.E-03));
#438 = LINE('',#439,#440);
#439 = CARTESIAN_POINT('',(0.9,1.5,1.E-03));
#440 = VECTOR('',#441,1.);
#441 = DIRECTION('',(-1.,0.,0.));
#442 = ORIENTED_EDGE('',*,*,#443,.F.);
#443 = EDGE_CURVE('',#444,#436,#446,.T.);
#444 = VERTEX_POINT('',#445);
#445 = CARTESIAN_POINT('',(0.35,1.5,0.));
#446 = LINE('',#447,#448);
#447 = CARTESIAN_POINT('',(0.35,1.5,0.));
#448 = VECTOR('',#449,1.);
#449 = DIRECTION('',(0.,0.,1.));
#450 = ORIENTED_EDGE('',*,*,#451,.F.);
#451 = EDGE_CURVE('',#413,#444,#452,.T.);
#452 = LINE('',#453,#454);
#453 = CARTESIAN_POINT('',(0.9,1.5,0.));
#454 = VECTOR('',#455,1.);
#455 = DIRECTION('',(-1.,0.,0.));
#456 = PLANE('',#457);
#457 = AXIS2_PLACEMENT_3D('',#458,#459,#460);
#458 = CARTESIAN_POINT('',(0.9,1.5,0.));
#459 = DIRECTION('',(0.,-1.,0.));
#460 = DIRECTION('',(-1.,0.,0.));
#461 = ADVANCED_FACE('',(#462),#487,.F.);
#462 = FACE_BOUND('',#463,.F.);
#463 = EDGE_LOOP('',(#464,#465,#473,#481));
#464 = ORIENTED_EDGE('',*,*,#443,.T.);
#465 = ORIENTED_EDGE('',*,*,#466,.T.);
#466 = EDGE_CURVE('',#436,#467,#469,.T.);
#467 = VERTEX_POINT('',#468);
#468 = CARTESIAN_POINT('',(0.,1.15,1.E-03));
#469 = LINE('',#470,#471);
#470 = CARTESIAN_POINT('',(0.35,1.5,1.E-03));
#471 = VECTOR('',#472,1.);
#472 = DIRECTION('',(-0.707106781187,-0.707106781187,0.));
#473 = ORIENTED_EDGE('',*,*,#474,.F.);
#474 = EDGE_CURVE('',#475,#467,#477,.T.);
#475 = VERTEX_POINT('',#476);
#476 = CARTESIAN_POINT('',(0.,1.15,0.));
#477 = LINE('',#478,#479);
#478 = CARTESIAN_POINT('',(0.,1.15,0.));
#479 = VECTOR('',#480,1.);
#480 = DIRECTION('',(0.,0.,1.));
#481 = ORIENTED_EDGE('',*,*,#482,.F.);
#482 = EDGE_CURVE('',#444,#475,#483,.T.);
#483 = LINE('',#484,#485);
#484 = CARTESIAN_POINT('',(0.35,1.5,0.));
#485 = VECTOR('',#486,1.);
#486 = DIRECTION('',(-0.707106781187,-0.707106781187,0.));
#487 = PLANE('',#488);
#488 = AXIS2_PLACEMENT_3D('',#489,#490,#491);
#489 = CARTESIAN_POINT('',(0.35,1.5,0.));
#490 = DIRECTION('',(0.707106781187,-0.707106781187,0.));
#491 = DIRECTION('',(-0.707106781187,-0.707106781187,0.));
#492 = ADVANCED_FACE('',(#493),#509,.F.);
#493 = FACE_BOUND('',#494,.F.);
#494 = EDGE_LOOP('',(#495,#496,#502,#503));
#495 = ORIENTED_EDGE('',*,*,#474,.T.);
#496 = ORIENTED_EDGE('',*,*,#497,.T.);
#497 = EDGE_CURVE('',#467,#366,#498,.T.);
#498 = LINE('',#499,#500);
#499 = CARTESIAN_POINT('',(0.,1.15,1.E-03));
#500 = VECTOR('',#501,1.);
#501 = DIRECTION('',(0.,-1.,0.));
#502 = ORIENTED_EDGE('',*,*,#363,.F.);
#503 = ORIENTED_EDGE('',*,*,#504,.F.);
#504 = EDGE_CURVE('',#475,#364,#505,.T.);
#505 = LINE('',#506,#507);
#506 = CARTESIAN_POINT('',(0.,1.15,0.));
#507 = VECTOR('',#508,1.);
#508 = DIRECTION('',(0.,-1.,0.));
#509 = PLANE('',#510);
#510 = AXIS2_PLACEMENT_3D('',#511,#512,#513);
#511 = CARTESIAN_POINT('',(0.,1.15,0.));
#512 = DIRECTION('',(1.,0.,-0.));
#513 = DIRECTION('',(0.,-1.,0.));
#514 = ADVANCED_FACE('',(#515),#522,.F.);
#515 = FACE_BOUND('',#516,.F.);
#516 = EDGE_LOOP('',(#517,#518,#519,#520,#521));
#517 = ORIENTED_EDGE('',*,*,#389,.T.);
#518 = ORIENTED_EDGE('',*,*,#420,.T.);
#519 = ORIENTED_EDGE('',*,*,#451,.T.);
#520 = ORIENTED_EDGE('',*,*,#482,.T.);
#521 = ORIENTED_EDGE('',*,*,#504,.T.);
#522 = PLANE('',#523);
#523 = AXIS2_PLACEMENT_3D('',#524,#525,#526);
#524 = CARTESIAN_POINT('',(0.475600128641,0.711014035889,0.));
#525 = DIRECTION('',(0.,0.,1.));
#526 = DIRECTION('',(1.,0.,-0.));
#527 = ADVANCED_FACE('',(#528),#535,.T.);
#528 = FACE_BOUND('',#529,.T.);
#529 = EDGE_LOOP('',(#530,#531,#532,#533,#534));
#530 = ORIENTED_EDGE('',*,*,#373,.T.);
#531 = ORIENTED_EDGE('',*,*,#404,.T.);
#532 = ORIENTED_EDGE('',*,*,#435,.T.);
#533 = ORIENTED_EDGE('',*,*,#466,.T.);
#534 = ORIENTED_EDGE('',*,*,#497,.T.);
#535 = PLANE('',#536);
#536 = AXIS2_PLACEMENT_3D('',#537,#538,#539);
#537 = CARTESIAN_POINT('',(0.475600128641,0.711014035889,1.E-03));
#538 = DIRECTION('',(0.,0.,1.));
#539 = DIRECTION('',(1.,0.,-0.));
#540 = ( GEOMETRIC_REPRESENTATION_CONTEXT(3) 
GLOBAL_UNCERTAINTY_ASSIGNED_CONTEXT((#544)) GLOBAL_UNIT_ASSIGNED_CONTEXT
((#541,#542,#543)) REPRESENTATION_CONTEXT('Context #1',
  '3D Context with UNIT and UNCERTAINTY') );
#541 = ( LENGTH_UNIT() NAMED_UNIT(*) SI_UNIT(.MILLI.,.METRE.) );
#542 = ( NAMED_UNIT(*) PLANE_ANGLE_UNIT() SI_UNIT($,.RADIAN.) );
#543 = ( NAMED_UNIT(*) SI_UNIT($,.STERADIAN.) SOLID_ANGLE_UNIT() );
#544 = UNCERTAINTY_MEASURE_WITH_UNIT(LENGTH_MEASURE(1.E-07),#541,
  'distance_accuracy_value','confusion accuracy');
#545 = SHAPE_DEFINITION_REPRESENTATION(#546,#356);
#546 = PRODUCT_DEFINITION_SHAPE('','',#547);
#547 = PRODUCT_DEFINITION('design','',#548,#551);
#548 = PRODUCT_DEFINITION_FORMATION('','',#549);
#549 = PRODUCT('Thermal Shape','Thermal Shape','',(#550));
#550 = PRODUCT_CONTEXT('',#2,'mechanical');
#551 = PRODUCT_DEFINITION_CONTEXT('part definition',#2,'design');
#552 = CONTEXT_DEPENDENT_SHAPE_REPRESENTATION(#553,#555);
#553 = ( REPRESENTATION_RELATIONSHIP('','',#356,#46) 
REPRESENTATION_RELATIONSHIP_WITH_TRANSFORMATION(#554) 
SHAPE_REPRESENTATION_RELATIONSHIP() );
#554 = ITEM_DEFINED_TRANSFORMATION('','',#11,#55);
#555 = PRODUCT_DEFINITION_SHAPE('Placement','Placement of an item',#556
  );
#556 = NEXT_ASSEMBLY_USAGE_OCCURRENCE('266','253','',#41,#547,$);
#557 = PRODUCT_RELATED_PRODUCT_CATEGORY('part',$,(#549));
#558 = SHAPE_REPRESENTATION('',(#11,#559,#709),#751);
#559 = MANIFOLD_SOLID_BREP('',#560);
#560 = CLOSED_SHELL('',(#561,#601,#632,#663,#685,#697));
#561 = ADVANCED_FACE('',(#562),#596,.F.);
#562 = FACE_BOUND('',#563,.F.);
#563 = EDGE_LOOP('',(#564,#574,#582,#590));
#564 = ORIENTED_EDGE('',*,*,#565,.T.);
#565 = EDGE_CURVE('',#566,#568,#570,.T.);
#566 = VERTEX_POINT('',#567);
#567 = CARTESIAN_POINT('',(0.,0.,0.));
#568 = VERTEX_POINT('',#569);
#569 = CARTESIAN_POINT('',(0.,0.,1.E-03));
#570 = LINE('',#571,#572);
#571 = CARTESIAN_POINT('',(0.,0.,0.));
#572 = VECTOR('',#573,1.);
#573 = DIRECTION('',(0.,0.,1.));
#574 = ORIENTED_EDGE('',*,*,#575,.T.);
#575 = EDGE_CURVE('',#568,#576,#578,.T.);
#576 = VERTEX_POINT('',#577);
#577 = CARTESIAN_POINT('',(0.3,0.,1.E-03));
#578 = LINE('',#579,#580);
#579 = CARTESIAN_POINT('',(0.,0.,1.E-03));
#580 = VECTOR('',#581,1.);
#581 = DIRECTION('',(1.,0.,0.));
#582 = ORIENTED_EDGE('',*,*,#583,.F.);
#583 = EDGE_CURVE('',#584,#576,#586,.T.);
#584 = VERTEX_POINT('',#585);
#585 = CARTESIAN_POINT('',(0.3,0.,0.));
#586 = LINE('',#587,#588);
#587 = CARTESIAN_POINT('',(0.3,0.,0.));
#588 = VECTOR('',#589,1.);
#589 = DIRECTION('',(0.,0.,1.));
#590 = ORIENTED_EDGE('',*,*,#591,.F.);
#591 = EDGE_CURVE('',#566,#584,#592,.T.);
#592 = LINE('',#593,#594);
#593 = CARTESIAN_POINT('',(0.,0.,0.));
#594 = VECTOR('',#595,1.);
#595 = DIRECTION('',(1.,0.,0.));
#596 = PLANE('',#597);
#597 = AXIS2_PLACEMENT_3D('',#598,#599,#600);
#598 = CARTESIAN_POINT('',(0.,0.,0.));
#599 = DIRECTION('',(0.,1.,0.));
#600 = DIRECTION('',(1.,0.,0.));
#601 = ADVANCED_FACE('',(#602),#627,.F.);
#602 = FACE_BOUND('',#603,.F.);
#603 = EDGE_LOOP('',(#604,#605,#613,#621));
#604 = ORIENTED_EDGE('',*,*,#583,.T.);
#605 = ORIENTED_EDGE('',*,*,#606,.T.);
#606 = EDGE_CURVE('',#576,#607,#609,.T.);
#607 = VERTEX_POINT('',#608);
#608 = CARTESIAN_POINT('',(0.3,0.2,1.E-03));
#609 = LINE('',#610,#611);
#610 = CARTESIAN_POINT('',(0.3,0.,1.E-03));
#611 = VECTOR('',#612,1.);
#612 = DIRECTION('',(0.,1.,0.));
#613 = ORIENTED_EDGE('',*,*,#614,.F.);
#614 = EDGE_CURVE('',#615,#607,#617,.T.);
#615 = VERTEX_POINT('',#616);
#616 = CARTESIAN_POINT('',(0.3,0.2,0.));
#617 = LINE('',#618,#619);
#618 = CARTESIAN_POINT('',(0.3,0.2,0.));
#619 = VECTOR('',#620,1.);
#620 = DIRECTION('',(0.,0.,1.));
#621 = ORIENTED_EDGE('',*,*,#622,.F.);
#622 = EDGE_CURVE('',#584,#615,#623,.T.);
#623 = LINE('',#624,#625);
#624 = CARTESIAN_POINT('',(0.3,0.,0.));
#625 = VECTOR('',#626,1.);
#626 = DIRECTION('',(0.,1.,0.));
#627 = PLANE('',#628);
#628 = AXIS2_PLACEMENT_3D('',#629,#630,#631);
#629 = CARTESIAN_POINT('',(0.3,0.,0.));
#630 = DIRECTION('',(-1.,0.,0.));
#631 = DIRECTION('',(0.,1.,0.));
#632 = ADVANCED_FACE('',(#633),#658,.F.);
#633 = FACE_BOUND('',#634,.F.);
#634 = EDGE_LOOP('',(#635,#636,#644,#652));
#635 = ORIENTED_EDGE('',*,*,#614,.T.);
#636 = ORIENTED_EDGE('',*,*,#637,.T.);
#637 = EDGE_CURVE('',#607,#638,#640,.T.);
#638 = VERTEX_POINT('',#639);
#639 = CARTESIAN_POINT('',(0.,0.2,1.E-03));
#640 = LINE('',#641,#642);
#641 = CARTESIAN_POINT('',(0.3,0.2,1.E-03));
#642 = VECTOR('',#643,1.);
#643 = DIRECTION('',(-1.,0.,0.));
#644 = ORIENTED_EDGE('',*,*,#645,.F.);
#645 = EDGE_CURVE('',#646,#638,#648,.T.);
#646 = VERTEX_POINT('',#647);
#647 = CARTESIAN_POINT('',(0.,0.2,0.));
#648 = LINE('',#649,#650);
#649 = CARTESIAN_POINT('',(0.,0.2,0.));
#650 = VECTOR('',#651,1.);
#651 = DIRECTION('',(0.,0.,1.));
#652 = ORIENTED_EDGE('',*,*,#653,.F.);
#653 = EDGE_CURVE('',#615,#646,#654,.T.);
#654 = LINE('',#655,#656);
#655 = CARTESIAN_POINT('',(0.3,0.2,0.));
#656 = VECTOR('',#657,1.);
#657 = DIRECTION('',(-1.,0.,0.));
#658 = PLANE('',#659);
#659 = AXIS2_PLACEMENT_3D('',#660,#661,#662);
#660 = CARTESIAN_POINT('',(0.3,0.2,0.));
#661 = DIRECTION('',(0.,-1.,0.));
#662 = DIRECTION('',(-1.,0.,0.));
#663 = ADVANCED_FACE('',(#664),#680,.F.);
#664 = FACE_BOUND('',#665,.F.);
#665 = EDGE_LOOP('',(#666,#667,#673,#674));
#666 = ORIENTED_EDGE('',*,*,#645,.T.);
#667 = ORIENTED_EDGE('',*,*,#668,.T.);
#668 = EDGE_CURVE('',#638,#568,#669,.T.);
#669 = LINE('',#670,#671);
#670 = CARTESIAN_POINT('',(0.,0.2,1.E-03));
#671 = VECTOR('',#672,1.);
#672 = DIRECTION('',(0.,-1.,0.));
#673 = ORIENTED_EDGE('',*,*,#565,.F.);
#674 = ORIENTED_EDGE('',*,*,#675,.F.);
#675 = EDGE_CURVE('',#646,#566,#676,.T.);
#676 = LINE('',#677,#678);
#677 = CARTESIAN_POINT('',(0.,0.2,0.));
#678 = VECTOR('',#679,1.);
#679 = DIRECTION('',(0.,-1.,0.));
#680 = PLANE('',#681);
#681 = AXIS2_PLACEMENT_3D('',#682,#683,#684);
#682 = CARTESIAN_POINT('',(0.,0.2,0.));
#683 = DIRECTION('',(1.,0.,-0.));
#684 = DIRECTION('',(0.,-1.,0.));
#685 = ADVANCED_FACE('',(#686),#692,.F.);
#686 = FACE_BOUND('',#687,.F.);
#687 = EDGE_LOOP('',(#688,#689,#690,#691));
#688 = ORIENTED_EDGE('',*,*,#591,.T.);
#689 = ORIENTED_EDGE('',*,*,#622,.T.);
#690 = ORIENTED_EDGE('',*,*,#653,.T.);
#691 = ORIENTED_EDGE('',*,*,#675,.T.);
#692 = PLANE('',#693);
#693 = AXIS2_PLACEMENT_3D('',#694,#695,#696);
#694 = CARTESIAN_POINT('',(0.15,0.1,0.));
#695 = DIRECTION('',(0.,0.,1.));
#696 = DIRECTION('',(1.,0.,-0.));
#697 = ADVANCED_FACE('',(#698),#704,.T.);
#698 = FACE_BOUND('',#699,.T.);
#699 = EDGE_LOOP('',(#700,#701,#702,#703));
#700 = ORIENTED_EDGE('',*,*,#575,.T.);
#701 = ORIENTED_EDGE('',*,*,#606,.T.);
#702 = ORIENTED_EDGE('',*,*,#637,.T.);
#703 = ORIENTED_EDGE('',*,*,#668,.T.);
#704 = PLANE('',#705);
#705 = AXIS2_PLACEMENT_3D('',#706,#707,#708);
#706 = CARTESIAN_POINT('',(0.15,0.1,1.E-03));
#707 = DIRECTION('',(0.,0.,1.));
#708 = DIRECTION('',(1.,0.,-0.));
#709 = SHELL_BASED_SURFACE_MODEL('',(#710));
#710 = OPEN_SHELL('',(#711));
#711 = ADVANCED_FACE('',(#712),#746,.T.);
#712 = FACE_BOUND('',#713,.T.);
#713 = EDGE_LOOP('',(#714,#724,#732,#740));
#714 = ORIENTED_EDGE('',*,*,#715,.T.);
#715 = EDGE_CURVE('',#716,#718,#720,.T.);
#716 = VERTEX_POINT('',#717);
#717 = CARTESIAN_POINT('',(-1.E-03,0.,1.E-03));
#718 = VERTEX_POINT('',#719);
#719 = CARTESIAN_POINT('',(-1.E-03,0.,0.201));
#720 = LINE('',#721,#722);
#721 = CARTESIAN_POINT('',(-1.E-03,0.,1.E-03));
#722 = VECTOR('',#723,1.);
#723 = DIRECTION('',(-2.22044604925E-16,0.,1.));
#724 = ORIENTED_EDGE('',*,*,#725,.T.);
#725 = EDGE_CURVE('',#718,#726,#728,.T.);
#726 = VERTEX_POINT('',#727);
#727 = CARTESIAN_POINT('',(-1.E-03,0.2,0.201));
#728 = LINE('',#729,#730);
#729 = CARTESIAN_POINT('',(-1.E-03,0.,0.201));
#730 = VECTOR('',#731,1.);
#731 = DIRECTION('',(0.,1.,0.));
#732 = ORIENTED_EDGE('',*,*,#733,.T.);
#733 = EDGE_CURVE('',#726,#734,#736,.T.);
#734 = VERTEX_POINT('',#735);
#735 = CARTESIAN_POINT('',(-1.E-03,0.2,1.E-03));
#736 = LINE('',#737,#738);
#737 = CARTESIAN_POINT('',(-1.E-03,0.2,0.201));
#738 = VECTOR('',#739,1.);
#739 = DIRECTION('',(2.22044604925E-16,0.,-1.));
#740 = ORIENTED_EDGE('',*,*,#741,.T.);
#741 = EDGE_CURVE('',#734,#716,#742,.T.);
#742 = LINE('',#743,#744);
#743 = CARTESIAN_POINT('',(-1.E-03,0.2,1.E-03));
#744 = VECTOR('',#745,1.);
#745 = DIRECTION('',(-0.,-1.,0.));
#746 = PLANE('',#747);
#747 = AXIS2_PLACEMENT_3D('',#748,#749,#750);
#748 = CARTESIAN_POINT('',(-1.E-03,0.1,0.101));
#749 = DIRECTION('',(-1.,0.,-2.22044604925E-16));
#750 = DIRECTION('',(-2.22044604925E-16,0.,1.));
#751 = ( GEOMETRIC_REPRESENTATION_CONTEXT(3) 
GLOBAL_UNCERTAINTY_ASSIGNED_CONTEXT((#755)) GLOBAL_UNIT_ASSIGNED_CONTEXT
((#752,#753,#754)) REPRESENTATION_CONTEXT('Context #1',
  '3D Context with UNIT and UNCERTAINTY') );
#752 = ( LENGTH_UNIT() NAMED_UNIT(*) SI_UNIT(.MILLI.,.METRE.) );
#753 = ( NAMED_UNIT(*) PLANE_ANGLE_UNIT() SI_UNIT($,.RADIAN.) );
#754 = ( NAMED_UNIT(*) SI_UNIT($,.STERADIAN.) SOLID_ANGLE_UNIT() );
#755 = UNCERTAINTY_MEASURE_WITH_UNIT(LENGTH_MEASURE(1.E-07),#752,
  'distance_accuracy_value','confusion accuracy');
#756 = SHAPE_DEFINITION_REPRESENTATION(#757,#558);
#757 = PRODUCT_DEFINITION_SHAPE('','',#758);
#758 = PRODUCT_DEFINITION('design','',#759,#762);
#759 = PRODUCT_DEFINITION_FORMATION('','',#760);
#760 = PRODUCT('Pin Shape','Pin Shape','',(#761));
#761 = PRODUCT_CONTEXT('',#2,'mechanical');
#762 = PRODUCT_DEFINITION_CONTEXT('part definition',#2,'design');
#763 = CONTEXT_DEPENDENT_SHAPE_REPRESENTATION(#764,#766);
#764 = ( REPRESENTATION_RELATIONSHIP('','',#558,#46) 
REPRESENTATION_RELATIONSHIP_WITH_TRANSFORMATION(#765) 
SHAPE_REPRESENTATION_RELATIONSHIP() );
#765 = ITEM_DEFINED_TRANSFORMATION('','',#11,#59);
#766 = PRODUCT_DEFINITION_SHAPE('Placement','Placement of an item',#767
  );
#767 = NEXT_ASSEMBLY_USAGE_OCCURRENCE('267','254','',#41,#758,$);
#768 = PRODUCT_RELATED_PRODUCT_CATEGORY('part',$,(#760));
#769 = CONTEXT_DEPENDENT_SHAPE_REPRESENTATION(#770,#772);
#770 = ( REPRESENTATION_RELATIONSHIP('','',#558,#46) 
REPRESENTATION_RELATIONSHIP_WITH_TRANSFORMATION(#771) 
SHAPE_REPRESENTATION_RELATIONSHIP() );
#771 = ITEM_DEFINED_TRANSFORMATION('','',#11,#63);
#772 = PRODUCT_DEFINITION_SHAPE('Placement','Placement of an item',#773
  );
#773 = NEXT_ASSEMBLY_USAGE_OCCURRENCE('268','255','',#41,#758,$);
#774 = CONTEXT_DEPENDENT_SHAPE_REPRESENTATION(#775,#777);
#775 = ( REPRESENTATION_RELATIONSHIP('','',#558,#46) 
REPRESENTATION_RELATIONSHIP_WITH_TRANSFORMATION(#776) 
SHAPE_REPRESENTATION_RELATIONSHIP() );
#776 = ITEM_DEFINED_TRANSFORMATION('','',#11,#67);
#777 = PRODUCT_DEFINITION_SHAPE('Placement','Placement of an item',#778
  );
#778 = NEXT_ASSEMBLY_USAGE_OCCURRENCE('269','256','',#41,#758,$);
#779 = CONTEXT_DEPENDENT_SHAPE_REPRESENTATION(#780,#782);
#780 = ( REPRESENTATION_RELATIONSHIP('','',#558,#46) 
REPRESENTATION_RELATIONSHIP_WITH_TRANSFORMATION(#781) 
SHAPE_REPRESENTATION_RELATIONSHIP() );
#781 = ITEM_DEFINED_TRANSFORMATION('','',#11,#71);
#782 = PRODUCT_DEFINITION_SHAPE('Placement','Placement of an item',#783
  );
#783 = NEXT_ASSEMBLY_USAGE_OCCURRENCE('270','257','',#41,#758,$);
#784 = CONTEXT_DEPENDENT_SHAPE_REPRESENTATION(#785,#787);
#785 = ( REPRESENTATION_RELATIONSHIP('','',#558,#46) 
REPRESENTATION_RELATIONSHIP_WITH_TRANSFORMATION(#786) 
SHAPE_REPRESENTATION_RELATIONSHIP() );
#786 = ITEM_DEFINED_TRANSFORMATION('','',#11,#75);
#787 = PRODUCT_DEFINITION_SHAPE('Placement','Placement of an item',#788
  );
#788 = NEXT_ASSEMBLY_USAGE_OCCURRENCE('271','258','',#41,#758,$);
#789 = CONTEXT_DEPENDENT_SHAPE_REPRESENTATION(#790,#792);
#790 = ( REPRESENTATION_RELATIONSHIP('','',#558,#46) 
REPRESENTATION_RELATIONSHIP_WITH_TRANSFORMATION(#791) 
SHAPE_REPRESENTATION_RELATIONSHIP() );
#791 = ITEM_DEFINED_TRANSFORMATION('','',#11,#79);
#792 = PRODUCT_DEFINITION_SHAPE('Placement','Placement of an item',#793
  );
#793 = NEXT_ASSEMBLY_USAGE_OCCURRENCE('272','259','',#41,#758,$);
#794 = CONTEXT_DEPENDENT_SHAPE_REPRESENTATION(#795,#797);
#795 = ( REPRESENTATION_RELATIONSHIP('','',#558,#46) 
REPRESENTATION_RELATIONSHIP_WITH_TRANSFORMATION(#796) 
SHAPE_REPRESENTATION_RELATIONSHIP() );
#796 = ITEM_DEFINED_TRANSFORMATION('','',#11,#83);
#797 = PRODUCT_DEFINITION_SHAPE('Placement','Placement of an item',#798
  );
#798 = NEXT_ASSEMBLY_USAGE_OCCURRENCE('273','260','',#41,#758,$);
#799 = CONTEXT_DEPENDENT_SHAPE_REPRESENTATION(#800,#802);
#800 = ( REPRESENTATION_RELATIONSHIP('','',#558,#46) 
REPRESENTATION_RELATIONSHIP_WITH_TRANSFORMATION(#801) 
SHAPE_REPRESENTATION_RELATIONSHIP() );
#801 = ITEM_DEFINED_TRANSFORMATION('','',#11,#87);
#802 = PRODUCT_DEFINITION_SHAPE('Placement','Placement of an item',#803
  );
#803 = NEXT_ASSEMBLY_USAGE_OCCURRENCE('274','261','',#41,#758,$);
#804 = CONTEXT_DEPENDENT_SHAPE_REPRESENTATION(#805,#807);
#805 = ( REPRESENTATION_RELATIONSHIP('','',#558,#46) 
REPRESENTATION_RELATIONSHIP_WITH_TRANSFORMATION(#806) 
SHAPE_REPRESENTATION_RELATIONSHIP() );
#806 = ITEM_DEFINED_TRANSFORMATION('','',#11,#91);
#807 = PRODUCT_DEFINITION_SHAPE('Placement','Placement of an item',#808
  );
#808 = NEXT_ASSEMBLY_USAGE_OCCURRENCE('275','262','',#41,#758,$);
#809 = CONTEXT_DEPENDENT_SHAPE_REPRESENTATION(#810,#812);
#810 = ( REPRESENTATION_RELATIONSHIP('','',#558,#46) 
REPRESENTATION_RELATIONSHIP_WITH_TRANSFORMATION(#811) 
SHAPE_REPRESENTATION_RELATIONSHIP() );
#811 = ITEM_DEFINED_TRANSFORMATION('','',#11,#95);
#812 = PRODUCT_DEFINITION_SHAPE('Placement','Placement of an item',#813
  );
#813 = NEXT_ASSEMBLY_USAGE_OCCURRENCE('276','263','',#41,#758,$);
#814 = CONTEXT_DEPENDENT_SHAPE_REPRESENTATION(#815,#817);
#815 = ( REPRESENTATION_RELATIONSHIP('','',#46,#28) 
REPRESENTATION_RELATIONSHIP_WITH_TRANSFORMATION(#816) 
SHAPE_REPRESENTATION_RELATIONSHIP() );
#816 = ITEM_DEFINED_TRANSFORMATION('','',#11,#29);
#817 = PRODUCT_DEFINITION_SHAPE('Placement','Placement of an item',#818
  );
#818 = NEXT_ASSEMBLY_USAGE_OCCURRENCE('277','','',#23,#41,$);
#819 = PRODUCT_RELATED_PRODUCT_CATEGORY('part',$,(#43));
#820 = MECHANICAL_DESIGN_GEOMETRIC_PRESENTATION_REPRESENTATION('',(#821)
  ,#540);
#821 = STYLED_ITEM('color',(#822),#357);
#822 = PRESENTATION_STYLE_ASSIGNMENT((#823,#829));
#823 = SURFACE_STYLE_USAGE(.BOTH.,#824);
#824 = SURFACE_SIDE_STYLE('',(#825));
#825 = SURFACE_STYLE_FILL_AREA(#826);
#826 = FILL_AREA_STYLE('',(#827));
#827 = FILL_AREA_STYLE_COLOUR('',#828);
#828 = COLOUR_RGB('',0.800000010877,0.800000010877,0.800000010877);
#829 = CURVE_STYLE('',#830,POSITIVE_LENGTH_MEASURE(0.1),#828);
#830 = DRAUGHTING_PRE_DEFINED_CURVE_FONT('continuous');
#831 = MECHANICAL_DESIGN_GEOMETRIC_PRESENTATION_REPRESENTATION('',(#832)
  ,#338);
#832 = STYLED_ITEM('color',(#833),#143);
#833 = PRESENTATION_STYLE_ASSIGNMENT((#834,#840));
#834 = SURFACE_STYLE_USAGE(.BOTH.,#835);
#835 = SURFACE_SIDE_STYLE('',(#836));
#836 = SURFACE_STYLE_FILL_AREA(#837);
#837 = FILL_AREA_STYLE('',(#838));
#838 = FILL_AREA_STYLE_COLOUR('',#839);
#839 = COLOUR_RGB('',0.199999998682,0.199999998682,0.199999998682);
#840 = CURVE_STYLE('',#841,POSITIVE_LENGTH_MEASURE(0.1),#839);
#841 = DRAUGHTING_PRE_DEFINED_CURVE_FONT('continuous');
#842 = MECHANICAL_DESIGN_GEOMETRIC_PRESENTATION_REPRESENTATION('',(#843,
    #852),#751);
#843 = STYLED_ITEM('color',(#844),#559);
#844 = PRESENTATION_STYLE_ASSIGNMENT((#845,#850));
#845 = SURFACE_STYLE_USAGE(.BOTH.,#846);
#846 = SURFACE_SIDE_STYLE('',(#847));
#847 = SURFACE_STYLE_FILL_AREA(#848);
#848 = FILL_AREA_STYLE('',(#849));
#849 = FILL_AREA_STYLE_COLOUR('',#828);
#850 = CURVE_STYLE('',#851,POSITIVE_LENGTH_MEASURE(0.1),#828);
#851 = DRAUGHTING_PRE_DEFINED_CURVE_FONT('continuous');
#852 = STYLED_ITEM('color',(#853),#711);
#853 = PRESENTATION_STYLE_ASSIGNMENT((#854,#859));
#854 = SURFACE_STYLE_USAGE(.BOTH.,#855);
#855 = SURFACE_SIDE_STYLE('',(#856));
#856 = SURFACE_STYLE_FILL_AREA(#857);
#857 = FILL_AREA_STYLE('',(#858));
#858 = FILL_AREA_STYLE_COLOUR('',#828);
#859 = CURVE_STYLE('',#860,POSITIVE_LENGTH_MEASURE(0.1),#828);
#860 = DRAUGHTING_PRE_DEFINED_CURVE_FONT('continuous');
#861 = MECHANICAL_DESIGN_GEOMETRIC_PRESENTATION_REPRESENTATION('',(#862)
  ,#124);
#862 = STYLED_ITEM('color',(#863),#107);
#863 = PRESENTATION_STYLE_ASSIGNMENT((#864,#870));
#864 = SURFACE_STYLE_USAGE(.BOTH.,#865);
#865 = SURFACE_SIDE_STYLE('',(#866));
#866 = SURFACE_STYLE_FILL_AREA(#867);
#867 = FILL_AREA_STYLE('',(#868));
#868 = FILL_AREA_STYLE_COLOUR('',#869);
#869 = DRAUGHTING_PRE_DEFINED_COLOUR('white');
#870 = CURVE_STYLE('',#871,POSITIVE_LENGTH_MEASURE(0.1),#869);
#871 = DRAUGHTING_PRE_DEFINED_CURVE_FONT('continuous');
ENDSEC;
END-ISO-10303-21;
