ISO-10303-21;
HEADER;
FILE_DESCRIPTION(('Open CASCADE Model'),'2;1');
FILE_NAME('Open CASCADE Shape Model','2026-10-01T21:06:09',('Author'),(
    'Open CASCADE'),'Open CASCADE STEP processor 7.5','Open CASCADE 7.5'
  ,'Unknown');
FILE_SCHEMA(('AUTOMOTIVE_DESIGN { 1 0 10303 214 1 1 1 1 }'));
ENDSEC;
DATA;
#1 = APPLICATION_PROTOCOL_DEFINITION('international standard',
  'automotive_design',2000,#2);
#2 = APPLICATION_CONTEXT(
  'core data for automotive mechanical design processes');
#3 = SHAPE_DEFINITION_REPRESENTATION(#4,#10);
#4 = PRODUCT_DEFINITION_SHAPE('','',#5);
#5 = PRODUCT_DEFINITION('design','',#6,#9);
#6 = PRODUCT_DEFINITION_FORMATION('','',#7);
#7 = PRODUCT('PCB','PCB','',(#8));
#8 = PRODUCT_CONTEXT('',#2,'mechanical');
#9 = PRODUCT_DEFINITION_CONTEXT('part definition',#2,'design');
#10 = SHAPE_REPRESENTATION('',(#11),#15);
#11 = AXIS2_PLACEMENT_3D('',#12,#13,#14);
#12 = CARTESIAN_POINT('',(0.,0.,0.));
#13 = DIRECTION('',(0.,0.,1.));
#14 = DIRECTION('',(1.,0.,-0.));
#15 = ( GEOMETRIC_REPRESENTATION_CONTEXT(3) 
GLOBAL_UNCERTAINTY_ASSIGNED_CONTEXT((#19)) GLOBAL_UNIT_ASSIGNED_CONTEXT(
(#16,#17,#18)) REPRESENTATION_CONTEXT('Context #1',
  '3D Context with UNIT and UNCERTAINTY') );
#16 = ( LENGTH_UNIT() NAMED_UNIT(*) SI_UNIT(.MILLI.,.METRE.) );
#17 = ( NAMED_UNIT(*) PLANE_ANGLE_UNIT() SI_UNIT($,.RADIAN.) );
#18 = ( NAMED_UNIT(*) SI_UNIT($,.STERADIAN.) SOLID_ANGLE_UNIT() );
#19 = UNCERTAINTY_MEASURE_WITH_UNIT(LENGTH_MEASURE(1.E-07),#16,
  'distance_accuracy_value','confusion accuracy');
#20 = PRODUCT_RELATED_PRODUCT_CATEGORY('part',$,(#7));
#21 = SHAPE_DEFINITION_REPRESENTATION(#22,#28);
#22 = PRODUCT_DEFINITION_SHAPE('','',#23);
#23 = PRODUCT_DEFINITION('design','',#24,#27);
#24 = PRODUCT_DEFINITION_FORMATION('','',#25);
#25 = PRODUCT('Designator1','Designator1','',(#26));
#26 = PRODUCT_CONTEXT('',#2,'mechanical');
#27 = PRODUCT_DEFINITION_CONTEXT('part definition',#2,'design');
#28 = SHAPE_REPRESENTATION('',(#11,#29),#33);
#29 = AXIS2_PLACEMENT_3D('',#30,#31,#32);
#30 = CARTESIAN_POINT('',(0.,0.,0.));
#31 = DIRECTION('',(0.,0.,1.));
#32 = DIRECTION('',(1.,0.,0.));
#33 = ( GEOMETRIC_REPRESENTATION_CONTEXT(3) 
GLOBAL_UNCERTAINTY_ASSIGNED_CONTEXT((#37)) GLOBAL_UNIT_ASSIGNED_CONTEXT(
(#34,#35,#36)) REPRESENTATION_CONTEXT('Context #1',
  '3D Context with UNIT and UNCERTAINTY') );
#34 = ( LENGTH_UNIT() NAMED_UNIT(*) SI_UNIT(.MILLI.,.METRE.) );
#35 = ( NAMED_UNIT(*) PLANE_ANGLE_UNIT() SI_UNIT($,.RADIAN.) );
#36 = ( NAMED_UNIT(*) SI_UNIT($,.STERADIAN.) SOLID_ANGLE_UNIT() );
#37 = UNCERTAINTY_MEASURE_WITH_UNIT(LENGTH_MEASURE(1.E-07),#34,
  'distance_accuracy_value','confusion accuracy');
#38 = PRODUCT_RELATED_PRODUCT_CATEGORY('part',$,(#25));
#39 = SHAPE_DEFINITION_REPRESENTATION(#40,#46);
#40 = PRODUCT_DEFINITION_SHAPE('','',#41);
#41 = PRODUCT_DEFINITION('design','',#42,#45);
#42 = PRODUCT_DEFINITION_FORMATION('','',#43);
#43 = PRODUCT('9962525568','9962525568','',(#44));
#44 = PRODUCT_CONTEXT('',#2,'mechanical');
#45 = PRODUCT_DEFINITION_CONTEXT('part definition',#2,'design');
#46 = SHAPE_REPRESENTATION('',(#11,#47,#51,#55,#59,#63,#67,#71,#75,#79,
    #83,#87,#91,#95,#99,#103,#107,#111,#115,#119),#123);
#47 = AXIS2_PLACEMENT_3D('',#48,#49,#50);
#48 = CARTESIAN_POINT('',(-1.55,-1.55,0.));
#49 = DIRECTION('',(0.,0.,1.));
#50 = DIRECTION('',(1.,0.,0.));
#51 = AXIS2_PLACEMENT_3D('',#52,#53,#54);
#52 = CARTESIAN_POINT('',(-1.55,-1.55,0.));
#53 = DIRECTION('',(0.,0.,1.));
#54 = DIRECTION('',(1.,0.,0.));
#55 = AXIS2_PLACEMENT_3D('',#56,#57,#58);
#56 = CARTESIAN_POINT('',(-0.875,-0.875,-1.E-03));
#57 = DIRECTION('',(0.,0.,1.));
#58 = DIRECTION('',(1.,0.,0.));
#59 = AXIS2_PLACEMENT_3D('',#60,#61,#62);
#60 = CARTESIAN_POINT('',(-1.55,-0.875,0.));
#61 = DIRECTION('',(0.,0.,1.));
#62 = DIRECTION('',(1.,0.,0.));
#63 = AXIS2_PLACEMENT_3D('',#64,#65,#66);
#64 = CARTESIAN_POINT('',(1.55,0.875,0.));
#65 = DIRECTION('',(0.,0.,1.));
#66 = DIRECTION('',(-1.,1.224646799147E-16,0.));
#67 = AXIS2_PLACEMENT_3D('',#68,#69,#70);
#68 = CARTESIAN_POINT('',(-1.55,-0.375,0.));
#69 = DIRECTION('',(0.,0.,1.));
#70 = DIRECTION('',(1.,0.,0.));
#71 = AXIS2_PLACEMENT_3D('',#72,#73,#74);
#72 = CARTESIAN_POINT('',(1.55,0.375,0.));
#73 = DIRECTION('',(0.,0.,1.));
#74 = DIRECTION('',(-1.,1.224646799147E-16,0.));
#75 = AXIS2_PLACEMENT_3D('',#76,#77,#78);
#76 = CARTESIAN_POINT('',(-1.55,0.125,0.));
#77 = DIRECTION('',(0.,0.,1.));
#78 = DIRECTION('',(1.,0.,0.));
#79 = AXIS2_PLACEMENT_3D('',#80,#81,#82);
#80 = CARTESIAN_POINT('',(1.55,-0.125,0.));
#81 = DIRECTION('',(0.,0.,1.));
#82 = DIRECTION('',(-1.,1.224646799147E-16,0.));
#83 = AXIS2_PLACEMENT_3D('',#84,#85,#86);
#84 = CARTESIAN_POINT('',(-1.55,0.625,0.));
#85 = DIRECTION('',(0.,0.,1.));
#86 = DIRECTION('',(1.,0.,0.));
#87 = AXIS2_PLACEMENT_3D('',#88,#89,#90);
#88 = CARTESIAN_POINT('',(1.55,-0.625,0.));
#89 = DIRECTION('',(0.,0.,1.));
#90 = DIRECTION('',(-1.,1.224646799147E-16,0.));
#91 = AXIS2_PLACEMENT_3D('',#92,#93,#94);
#92 = CARTESIAN_POINT('',(-0.625,-1.55,0.));
#93 = DIRECTION('',(0.,-0.,1.));
#94 = DIRECTION('',(1.110223024625E-16,1.,0.));
#95 = AXIS2_PLACEMENT_3D('',#96,#97,#98);
#96 = CARTESIAN_POINT('',(0.625,1.55,0.));
#97 = DIRECTION('',(0.,0.,1.));
#98 = DIRECTION('',(-2.334869823773E-16,-1.,0.));
#99 = AXIS2_PLACEMENT_3D('',#100,#101,#102);
#100 = CARTESIAN_POINT('',(-0.125,-1.55,0.));
#101 = DIRECTION('',(0.,-0.,1.));
#102 = DIRECTION('',(1.110223024625E-16,1.,0.));
#103 = AXIS2_PLACEMENT_3D('',#104,#105,#106);
#104 = CARTESIAN_POINT('',(0.125,1.55,0.));
#105 = DIRECTION('',(0.,0.,1.));
#106 = DIRECTION('',(-2.334869823773E-16,-1.,0.));
#107 = AXIS2_PLACEMENT_3D('',#108,#109,#110);
#108 = CARTESIAN_POINT('',(0.375,-1.55,0.));
#109 = DIRECTION('',(0.,-0.,1.));
#110 = DIRECTION('',(1.110223024625E-16,1.,0.));
#111 = AXIS2_PLACEMENT_3D('',#112,#113,#114);
#112 = CARTESIAN_POINT('',(-0.375,1.55,0.));
#113 = DIRECTION('',(0.,0.,1.));
#114 = DIRECTION('',(-2.334869823773E-16,-1.,0.));
#115 = AXIS2_PLACEMENT_3D('',#116,#117,#118);
#116 = CARTESIAN_POINT('',(0.875,-1.55,0.));
#117 = DIRECTION('',(0.,-0.,1.));
#118 = DIRECTION('',(1.110223024625E-16,1.,0.));
#119 = AXIS2_PLACEMENT_3D('',#120,#121,#122);
#120 = CARTESIAN_POINT('',(-0.875,1.55,0.));
#121 = DIRECTION('',(0.,0.,1.));
#122 = DIRECTION('',(-2.334869823773E-16,-1.,0.));
#123 = ( GEOMETRIC_REPRESENTATION_CONTEXT(3) 
GLOBAL_UNCERTAINTY_ASSIGNED_CONTEXT((#127)) GLOBAL_UNIT_ASSIGNED_CONTEXT
((#124,#125,#126)) REPRESENTATION_CONTEXT('Context #1',
  '3D Context with UNIT and UNCERTAINTY') );
#124 = ( LENGTH_UNIT() NAMED_UNIT(*) SI_UNIT(.MILLI.,.METRE.) );
#125 = ( NAMED_UNIT(*) PLANE_ANGLE_UNIT() SI_UNIT($,.RADIAN.) );
#126 = ( NAMED_UNIT(*) SI_UNIT($,.STERADIAN.) SOLID_ANGLE_UNIT() );
#127 = UNCERTAINTY_MEASURE_WITH_UNIT(LENGTH_MEASURE(1.E-07),#124,
  'distance_accuracy_value','confusion accuracy');
#128 = MANIFOLD_SURFACE_SHAPE_REPRESENTATION('',(#11,#129),#148);
#129 = SHELL_BASED_SURFACE_MODEL('',(#130));
#130 = OPEN_SHELL('',(#131));
#131 = ADVANCED_FACE('',(#132),#143,.T.);
#132 = FACE_BOUND('',#133,.T.);
#133 = EDGE_LOOP('',(#134));
#134 = ORIENTED_EDGE('',*,*,#135,.T.);
#135 = EDGE_CURVE('',#136,#136,#138,.T.);
#136 = VERTEX_POINT('',#137);
#137 = CARTESIAN_POINT('',(0.710416666667,2.583333333333,0.501));
#138 = CIRCLE('',#139,0.19375);
#139 = AXIS2_PLACEMENT_3D('',#140,#141,#142);
#140 = CARTESIAN_POINT('',(0.516666666667,2.583333333333,0.501));
#141 = DIRECTION('',(0.,0.,1.));
#142 = DIRECTION('',(1.,0.,-0.));
#143 = PLANE('',#144);
#144 = AXIS2_PLACEMENT_3D('',#145,#146,#147);
#145 = CARTESIAN_POINT('',(0.516666666667,2.583333333333,0.501));
#146 = DIRECTION('',(-7.387875283027E-31,-5.47250020965E-32,1.));
#147 = DIRECTION('',(1.,0.,7.387875283027E-31));
#148 = ( GEOMETRIC_REPRESENTATION_CONTEXT(3) 
GLOBAL_UNCERTAINTY_ASSIGNED_CONTEXT((#152)) GLOBAL_UNIT_ASSIGNED_CONTEXT
((#149,#150,#151)) REPRESENTATION_CONTEXT('Context #1',
  '3D Context with UNIT and UNCERTAINTY') );
#149 = ( LENGTH_UNIT() NAMED_UNIT(*) SI_UNIT(.MILLI.,.METRE.) );
#150 = ( NAMED_UNIT(*) PLANE_ANGLE_UNIT() SI_UNIT($,.RADIAN.) );
#151 = ( NAMED_UNIT(*) SI_UNIT($,.STERADIAN.) SOLID_ANGLE_UNIT() );
#152 = UNCERTAINTY_MEASURE_WITH_UNIT(LENGTH_MEASURE(1.E-07),#149,
  'distance_accuracy_value','confusion accuracy');
#153 = SHAPE_DEFINITION_REPRESENTATION(#154,#128);
#154 = PRODUCT_DEFINITION_SHAPE('','',#155);
#155 = PRODUCT_DEFINITION('design','',#156,#159);
#156 = PRODUCT_DEFINITION_FORMATION('','',#157);
#157 = PRODUCT('Open CASCADE STEP translator 7.5 13.1',
  'Open CASCADE STEP translator 7.5 13.1','',(#158));
#158 = PRODUCT_CONTEXT('',#2,'mechanical');
#159 = PRODUCT_DEFINITION_CONTEXT('part definition',#2,'design');
#160 = CONTEXT_DEPENDENT_SHAPE_REPRESENTATION(#161,#163);
#161 = ( REPRESENTATION_RELATIONSHIP('','',#128,#46) 
REPRESENTATION_RELATIONSHIP_WITH_TRANSFORMATION(#162) 
SHAPE_REPRESENTATION_RELATIONSHIP() );
#162 = ITEM_DEFINED_TRANSFORMATION('','',#11,#47);
#163 = PRODUCT_DEFINITION_SHAPE('Placement','Placement of an item',#164
  );
#164 = NEXT_ASSEMBLY_USAGE_OCCURRENCE('290','271','',#41,#155,$);
#165 = PRODUCT_RELATED_PRODUCT_CATEGORY('part',$,(#157));
#166 = ADVANCED_BREP_SHAPE_REPRESENTATION('',(#11,#167),#362);
#167 = MANIFOLD_SOLID_BREP('',#168);
#168 = CLOSED_SHELL('',(#169,#209,#240,#275,#299,#316,#328,#353));
#169 = ADVANCED_FACE('',(#170),#204,.F.);
#170 = FACE_BOUND('',#171,.F.);
#171 = EDGE_LOOP('',(#172,#182,#190,#198));
#172 = ORIENTED_EDGE('',*,*,#173,.F.);
#173 = EDGE_CURVE('',#174,#176,#178,.T.);
#174 = VERTEX_POINT('',#175);
#175 = CARTESIAN_POINT('',(0.,0.,0.));
#176 = VERTEX_POINT('',#177);
#177 = CARTESIAN_POINT('',(0.,0.,0.6));
#178 = LINE('',#179,#180);
#179 = CARTESIAN_POINT('',(0.,0.,0.));
#180 = VECTOR('',#181,1.);
#181 = DIRECTION('',(0.,0.,1.));
#182 = ORIENTED_EDGE('',*,*,#183,.T.);
#183 = EDGE_CURVE('',#174,#184,#186,.T.);
#184 = VERTEX_POINT('',#185);
#185 = CARTESIAN_POINT('',(0.,3.1,0.));
#186 = LINE('',#187,#188);
#187 = CARTESIAN_POINT('',(0.,0.,0.));
#188 = VECTOR('',#189,1.);
#189 = DIRECTION('',(-0.,1.,0.));
#190 = ORIENTED_EDGE('',*,*,#191,.T.);
#191 = EDGE_CURVE('',#184,#192,#194,.T.);
#192 = VERTEX_POINT('',#193);
#193 = CARTESIAN_POINT('',(0.,3.1,0.6));
#194 = LINE('',#195,#196);
#195 = CARTESIAN_POINT('',(0.,3.1,0.));
#196 = VECTOR('',#197,1.);
#197 = DIRECTION('',(0.,0.,1.));
#198 = ORIENTED_EDGE('',*,*,#199,.F.);
#199 = EDGE_CURVE('',#176,#192,#200,.T.);
#200 = LINE('',#201,#202);
#201 = CARTESIAN_POINT('',(0.,0.,0.6));
#202 = VECTOR('',#203,1.);
#203 = DIRECTION('',(-0.,1.,0.));
#204 = PLANE('',#205);
#205 = AXIS2_PLACEMENT_3D('',#206,#207,#208);
#206 = CARTESIAN_POINT('',(0.,0.,0.));
#207 = DIRECTION('',(1.,0.,-0.));
#208 = DIRECTION('',(0.,0.,1.));
#209 = ADVANCED_FACE('',(#210),#235,.F.);
#210 = FACE_BOUND('',#211,.F.);
#211 = EDGE_LOOP('',(#212,#220,#221,#229));
#212 = ORIENTED_EDGE('',*,*,#213,.F.);
#213 = EDGE_CURVE('',#174,#214,#216,.T.);
#214 = VERTEX_POINT('',#215);
#215 = CARTESIAN_POINT('',(3.1,0.,0.));
#216 = LINE('',#217,#218);
#217 = CARTESIAN_POINT('',(0.,0.,0.));
#218 = VECTOR('',#219,1.);
#219 = DIRECTION('',(1.,0.,-0.));
#220 = ORIENTED_EDGE('',*,*,#173,.T.);
#221 = ORIENTED_EDGE('',*,*,#222,.T.);
#222 = EDGE_CURVE('',#176,#223,#225,.T.);
#223 = VERTEX_POINT('',#224);
#224 = CARTESIAN_POINT('',(3.1,0.,0.6));
#225 = LINE('',#226,#227);
#226 = CARTESIAN_POINT('',(0.,0.,0.6));
#227 = VECTOR('',#228,1.);
#228 = DIRECTION('',(1.,0.,-0.));
#229 = ORIENTED_EDGE('',*,*,#230,.F.);
#230 = EDGE_CURVE('',#214,#223,#231,.T.);
#231 = LINE('',#232,#233);
#232 = CARTESIAN_POINT('',(3.1,0.,0.));
#233 = VECTOR('',#234,1.);
#234 = DIRECTION('',(0.,0.,1.));
#235 = PLANE('',#236);
#236 = AXIS2_PLACEMENT_3D('',#237,#238,#239);
#237 = CARTESIAN_POINT('',(0.,0.,0.));
#238 = DIRECTION('',(-0.,1.,0.));
#239 = DIRECTION('',(0.,0.,1.));
#240 = ADVANCED_FACE('',(#241,#259),#270,.T.);
#241 = FACE_BOUND('',#242,.T.);
#242 = EDGE_LOOP('',(#243,#244,#245,#253));
#243 = ORIENTED_EDGE('',*,*,#199,.F.);
#244 = ORIENTED_EDGE('',*,*,#222,.T.);
#245 = ORIENTED_EDGE('',*,*,#246,.T.);
#246 = EDGE_CURVE('',#223,#247,#249,.T.);
#247 = VERTEX_POINT('',#248);
#248 = CARTESIAN_POINT('',(3.1,3.1,0.6));
#249 = LINE('',#250,#251);
#250 = CARTESIAN_POINT('',(3.1,0.,0.6));
#251 = VECTOR('',#252,1.);
#252 = DIRECTION('',(-0.,1.,0.));
#253 = ORIENTED_EDGE('',*,*,#254,.F.);
#254 = EDGE_CURVE('',#192,#247,#255,.T.);
#255 = LINE('',#256,#257);
#256 = CARTESIAN_POINT('',(0.,3.1,0.6));
#257 = VECTOR('',#258,1.);
#258 = DIRECTION('',(1.,0.,-0.));
#259 = FACE_BOUND('',#260,.T.);
#260 = EDGE_LOOP('',(#261));
#261 = ORIENTED_EDGE('',*,*,#262,.F.);
#262 = EDGE_CURVE('',#263,#263,#265,.T.);
#263 = VERTEX_POINT('',#264);
#264 = CARTESIAN_POINT('',(0.710416666667,2.583333333333,0.6));
#265 = CIRCLE('',#266,0.19375);
#266 = AXIS2_PLACEMENT_3D('',#267,#268,#269);
#267 = CARTESIAN_POINT('',(0.516666666667,2.583333333333,0.6));
#268 = DIRECTION('',(0.,0.,1.));
#269 = DIRECTION('',(1.,0.,-0.));
#270 = PLANE('',#271);
#271 = AXIS2_PLACEMENT_3D('',#272,#273,#274);
#272 = CARTESIAN_POINT('',(0.,0.,0.6));
#273 = DIRECTION('',(0.,0.,1.));
#274 = DIRECTION('',(1.,0.,-0.));
#275 = ADVANCED_FACE('',(#276),#294,.T.);
#276 = FACE_BOUND('',#277,.T.);
#277 = EDGE_LOOP('',(#278,#286,#287,#288));
#278 = ORIENTED_EDGE('',*,*,#279,.F.);
#279 = EDGE_CURVE('',#184,#280,#282,.T.);
#280 = VERTEX_POINT('',#281);
#281 = CARTESIAN_POINT('',(3.1,3.1,0.));
#282 = LINE('',#283,#284);
#283 = CARTESIAN_POINT('',(0.,3.1,0.));
#284 = VECTOR('',#285,1.);
#285 = DIRECTION('',(1.,0.,-0.));
#286 = ORIENTED_EDGE('',*,*,#191,.T.);
#287 = ORIENTED_EDGE('',*,*,#254,.T.);
#288 = ORIENTED_EDGE('',*,*,#289,.F.);
#289 = EDGE_CURVE('',#280,#247,#290,.T.);
#290 = LINE('',#291,#292);
#291 = CARTESIAN_POINT('',(3.1,3.1,0.));
#292 = VECTOR('',#293,1.);
#293 = DIRECTION('',(0.,0.,1.));
#294 = PLANE('',#295);
#295 = AXIS2_PLACEMENT_3D('',#296,#297,#298);
#296 = CARTESIAN_POINT('',(0.,3.1,0.));
#297 = DIRECTION('',(-0.,1.,0.));
#298 = DIRECTION('',(0.,0.,1.));
#299 = ADVANCED_FACE('',(#300),#311,.F.);
#300 = FACE_BOUND('',#301,.F.);
#301 = EDGE_LOOP('',(#302,#303,#304,#310));
#302 = ORIENTED_EDGE('',*,*,#183,.F.);
#303 = ORIENTED_EDGE('',*,*,#213,.T.);
#304 = ORIENTED_EDGE('',*,*,#305,.T.);
#305 = EDGE_CURVE('',#214,#280,#306,.T.);
#306 = LINE('',#307,#308);
#307 = CARTESIAN_POINT('',(3.1,0.,0.));
#308 = VECTOR('',#309,1.);
#309 = DIRECTION('',(-0.,1.,0.));
#310 = ORIENTED_EDGE('',*,*,#279,.F.);
#311 = PLANE('',#312);
#312 = AXIS2_PLACEMENT_3D('',#313,#314,#315);
#313 = CARTESIAN_POINT('',(0.,0.,0.));
#314 = DIRECTION('',(0.,0.,1.));
#315 = DIRECTION('',(1.,0.,-0.));
#316 = ADVANCED_FACE('',(#317),#323,.T.);
#317 = FACE_BOUND('',#318,.T.);
#318 = EDGE_LOOP('',(#319,#320,#321,#322));
#319 = ORIENTED_EDGE('',*,*,#230,.F.);
#320 = ORIENTED_EDGE('',*,*,#305,.T.);
#321 = ORIENTED_EDGE('',*,*,#289,.T.);
#322 = ORIENTED_EDGE('',*,*,#246,.F.);
#323 = PLANE('',#324);
#324 = AXIS2_PLACEMENT_3D('',#325,#326,#327);
#325 = CARTESIAN_POINT('',(3.1,0.,0.));
#326 = DIRECTION('',(1.,0.,-0.));
#327 = DIRECTION('',(0.,0.,1.));
#328 = ADVANCED_FACE('',(#329),#348,.F.);
#329 = FACE_BOUND('',#330,.F.);
#330 = EDGE_LOOP('',(#331,#332,#340,#347));
#331 = ORIENTED_EDGE('',*,*,#262,.F.);
#332 = ORIENTED_EDGE('',*,*,#333,.F.);
#333 = EDGE_CURVE('',#334,#263,#336,.T.);
#334 = VERTEX_POINT('',#335);
#335 = CARTESIAN_POINT('',(0.710416666667,2.583333333333,0.5));
#336 = LINE('',#337,#338);
#337 = CARTESIAN_POINT('',(0.710416666667,2.583333333333,0.5));
#338 = VECTOR('',#339,1.);
#339 = DIRECTION('',(0.,0.,1.));
#340 = ORIENTED_EDGE('',*,*,#341,.T.);
#341 = EDGE_CURVE('',#334,#334,#342,.T.);
#342 = CIRCLE('',#343,0.19375);
#343 = AXIS2_PLACEMENT_3D('',#344,#345,#346);
#344 = CARTESIAN_POINT('',(0.516666666667,2.583333333333,0.5));
#345 = DIRECTION('',(0.,0.,1.));
#346 = DIRECTION('',(1.,0.,-0.));
#347 = ORIENTED_EDGE('',*,*,#333,.T.);
#348 = CYLINDRICAL_SURFACE('',#349,0.19375);
#349 = AXIS2_PLACEMENT_3D('',#350,#351,#352);
#350 = CARTESIAN_POINT('',(0.516666666667,2.583333333333,0.5));
#351 = DIRECTION('',(0.,0.,1.));
#352 = DIRECTION('',(1.,0.,-0.));
#353 = ADVANCED_FACE('',(#354),#357,.T.);
#354 = FACE_BOUND('',#355,.F.);
#355 = EDGE_LOOP('',(#356));
#356 = ORIENTED_EDGE('',*,*,#341,.F.);
#357 = PLANE('',#358);
#358 = AXIS2_PLACEMENT_3D('',#359,#360,#361);
#359 = CARTESIAN_POINT('',(0.516666666667,2.583333333333,0.5));
#360 = DIRECTION('',(0.,0.,1.));
#361 = DIRECTION('',(1.,0.,-0.));
#362 = ( GEOMETRIC_REPRESENTATION_CONTEXT(3) 
GLOBAL_UNCERTAINTY_ASSIGNED_CONTEXT((#366)) GLOBAL_UNIT_ASSIGNED_CONTEXT
((#363,#364,#365)) REPRESENTATION_CONTEXT('Context #1',
  '3D Context with UNIT and UNCERTAINTY') );
#363 = ( LENGTH_UNIT() NAMED_UNIT(*) SI_UNIT(.MILLI.,.METRE.) );
#364 = ( NAMED_UNIT(*) PLANE_ANGLE_UNIT() SI_UNIT($,.RADIAN.) );
#365 = ( NAMED_UNIT(*) SI_UNIT($,.STERADIAN.) SOLID_ANGLE_UNIT() );
#366 = UNCERTAINTY_MEASURE_WITH_UNIT(LENGTH_MEASURE(1.E-07),#363,
  'distance_accuracy_value','confusion accuracy');
#367 = SHAPE_DEFINITION_REPRESENTATION(#368,#166);
#368 = PRODUCT_DEFINITION_SHAPE('','',#369);
#369 = PRODUCT_DEFINITION('design','',#370,#373);
#370 = PRODUCT_DEFINITION_FORMATION('','',#371);
#371 = PRODUCT('Body','Body','',(#372));
#372 = PRODUCT_CONTEXT('',#2,'mechanical');
#373 = PRODUCT_DEFINITION_CONTEXT('part definition',#2,'design');
#374 = CONTEXT_DEPENDENT_SHAPE_REPRESENTATION(#375,#377);
#375 = ( REPRESENTATION_RELATIONSHIP('','',#166,#46) 
REPRESENTATION_RELATIONSHIP_WITH_TRANSFORMATION(#376) 
SHAPE_REPRESENTATION_RELATIONSHIP() );
#376 = ITEM_DEFINED_TRANSFORMATION('','',#11,#51);
#377 = PRODUCT_DEFINITION_SHAPE('Placement','Placement of an item',#378
  );
#378 = NEXT_ASSEMBLY_USAGE_OCCURRENCE('291','272','',#41,#369,$);
#379 = PRODUCT_RELATED_PRODUCT_CATEGORY('part',$,(#371));
#380 = ADVANCED_BREP_SHAPE_REPRESENTATION('',(#11,#381),#564);
#381 = MANIFOLD_SOLID_BREP('',#382);
#382 = CLOSED_SHELL('',(#383,#423,#454,#485,#516,#538,#551));
#383 = ADVANCED_FACE('',(#384),#418,.F.);
#384 = FACE_BOUND('',#385,.F.);
#385 = EDGE_LOOP('',(#386,#396,#404,#412));
#386 = ORIENTED_EDGE('',*,*,#387,.T.);
#387 = EDGE_CURVE('',#388,#390,#392,.T.);
#388 = VERTEX_POINT('',#389);
#389 = CARTESIAN_POINT('',(0.,0.,0.));
#390 = VERTEX_POINT('',#391);
#391 = CARTESIAN_POINT('',(0.,0.,1.E-03));
#392 = LINE('',#393,#394);
#393 = CARTESIAN_POINT('',(0.,0.,0.));
#394 = VECTOR('',#395,1.);
#395 = DIRECTION('',(0.,0.,1.));
#396 = ORIENTED_EDGE('',*,*,#397,.T.);
#397 = EDGE_CURVE('',#390,#398,#400,.T.);
#398 = VERTEX_POINT('',#399);
#399 = CARTESIAN_POINT('',(1.75,0.,1.E-03));
#400 = LINE('',#401,#402);
#401 = CARTESIAN_POINT('',(0.,0.,1.E-03));
#402 = VECTOR('',#403,1.);
#403 = DIRECTION('',(1.,0.,0.));
#404 = ORIENTED_EDGE('',*,*,#405,.F.);
#405 = EDGE_CURVE('',#406,#398,#408,.T.);
#406 = VERTEX_POINT('',#407);
#407 = CARTESIAN_POINT('',(1.75,0.,0.));
#408 = LINE('',#409,#410);
#409 = CARTESIAN_POINT('',(1.75,0.,0.));
#410 = VECTOR('',#411,1.);
#411 = DIRECTION('',(0.,0.,1.));
#412 = ORIENTED_EDGE('',*,*,#413,.F.);
#413 = EDGE_CURVE('',#388,#406,#414,.T.);
#414 = LINE('',#415,#416);
#415 = CARTESIAN_POINT('',(0.,0.,0.));
#416 = VECTOR('',#417,1.);
#417 = DIRECTION('',(1.,0.,0.));
#418 = PLANE('',#419);
#419 = AXIS2_PLACEMENT_3D('',#420,#421,#422);
#420 = CARTESIAN_POINT('',(0.,0.,0.));
#421 = DIRECTION('',(0.,1.,0.));
#422 = DIRECTION('',(1.,0.,0.));
#423 = ADVANCED_FACE('',(#424),#449,.F.);
#424 = FACE_BOUND('',#425,.F.);
#425 = EDGE_LOOP('',(#426,#427,#435,#443));
#426 = ORIENTED_EDGE('',*,*,#405,.T.);
#427 = ORIENTED_EDGE('',*,*,#428,.T.);
#428 = EDGE_CURVE('',#398,#429,#431,.T.);
#429 = VERTEX_POINT('',#430);
#430 = CARTESIAN_POINT('',(1.75,1.75,1.E-03));
#431 = LINE('',#432,#433);
#432 = CARTESIAN_POINT('',(1.75,0.,1.E-03));
#433 = VECTOR('',#434,1.);
#434 = DIRECTION('',(0.,1.,0.));
#435 = ORIENTED_EDGE('',*,*,#436,.F.);
#436 = EDGE_CURVE('',#437,#429,#439,.T.);
#437 = VERTEX_POINT('',#438);
#438 = CARTESIAN_POINT('',(1.75,1.75,0.));
#439 = LINE('',#440,#441);
#440 = CARTESIAN_POINT('',(1.75,1.75,0.));
#441 = VECTOR('',#442,1.);
#442 = DIRECTION('',(0.,0.,1.));
#443 = ORIENTED_EDGE('',*,*,#444,.F.);
#444 = EDGE_CURVE('',#406,#437,#445,.T.);
#445 = LINE('',#446,#447);
#446 = CARTESIAN_POINT('',(1.75,0.,0.));
#447 = VECTOR('',#448,1.);
#448 = DIRECTION('',(0.,1.,0.));
#449 = PLANE('',#450);
#450 = AXIS2_PLACEMENT_3D('',#451,#452,#453);
#451 = CARTESIAN_POINT('',(1.75,0.,0.));
#452 = DIRECTION('',(-1.,0.,0.));
#453 = DIRECTION('',(0.,1.,0.));
#454 = ADVANCED_FACE('',(#455),#480,.F.);
#455 = FACE_BOUND('',#456,.F.);
#456 = EDGE_LOOP('',(#457,#458,#466,#474));
#457 = ORIENTED_EDGE('',*,*,#436,.T.);
#458 = ORIENTED_EDGE('',*,*,#459,.T.);
#459 = EDGE_CURVE('',#429,#460,#462,.T.);
#460 = VERTEX_POINT('',#461);
#461 = CARTESIAN_POINT('',(0.35,1.75,1.E-03));
#462 = LINE('',#463,#464);
#463 = CARTESIAN_POINT('',(1.75,1.75,1.E-03));
#464 = VECTOR('',#465,1.);
#465 = DIRECTION('',(-1.,0.,0.));
#466 = ORIENTED_EDGE('',*,*,#467,.F.);
#467 = EDGE_CURVE('',#468,#460,#470,.T.);
#468 = VERTEX_POINT('',#469);
#469 = CARTESIAN_POINT('',(0.35,1.75,0.));
#470 = LINE('',#471,#472);
#471 = CARTESIAN_POINT('',(0.35,1.75,0.));
#472 = VECTOR('',#473,1.);
#473 = DIRECTION('',(0.,0.,1.));
#474 = ORIENTED_EDGE('',*,*,#475,.F.);
#475 = EDGE_CURVE('',#437,#468,#476,.T.);
#476 = LINE('',#477,#478);
#477 = CARTESIAN_POINT('',(1.75,1.75,0.));
#478 = VECTOR('',#479,1.);
#479 = DIRECTION('',(-1.,0.,0.));
#480 = PLANE('',#481);
#481 = AXIS2_PLACEMENT_3D('',#482,#483,#484);
#482 = CARTESIAN_POINT('',(1.75,1.75,0.));
#483 = DIRECTION('',(0.,-1.,0.));
#484 = DIRECTION('',(-1.,0.,0.));
#485 = ADVANCED_FACE('',(#486),#511,.F.);
#486 = FACE_BOUND('',#487,.F.);
#487 = EDGE_LOOP('',(#488,#489,#497,#505));
#488 = ORIENTED_EDGE('',*,*,#467,.T.);
#489 = ORIENTED_EDGE('',*,*,#490,.T.);
#490 = EDGE_CURVE('',#460,#491,#493,.T.);
#491 = VERTEX_POINT('',#492);
#492 = CARTESIAN_POINT('',(0.,1.4,1.E-03));
#493 = LINE('',#494,#495);
#494 = CARTESIAN_POINT('',(0.35,1.75,1.E-03));
#495 = VECTOR('',#496,1.);
#496 = DIRECTION('',(-0.707106781187,-0.707106781187,0.));
#497 = ORIENTED_EDGE('',*,*,#498,.F.);
#498 = EDGE_CURVE('',#499,#491,#501,.T.);
#499 = VERTEX_POINT('',#500);
#500 = CARTESIAN_POINT('',(0.,1.4,0.));
#501 = LINE('',#502,#503);
#502 = CARTESIAN_POINT('',(0.,1.4,0.));
#503 = VECTOR('',#504,1.);
#504 = DIRECTION('',(0.,0.,1.));
#505 = ORIENTED_EDGE('',*,*,#506,.F.);
#506 = EDGE_CURVE('',#468,#499,#507,.T.);
#507 = LINE('',#508,#509);
#508 = CARTESIAN_POINT('',(0.35,1.75,0.));
#509 = VECTOR('',#510,1.);
#510 = DIRECTION('',(-0.707106781187,-0.707106781187,0.));
#511 = PLANE('',#512);
#512 = AXIS2_PLACEMENT_3D('',#513,#514,#515);
#513 = CARTESIAN_POINT('',(0.35,1.75,0.));
#514 = DIRECTION('',(0.707106781187,-0.707106781187,0.));
#515 = DIRECTION('',(-0.707106781187,-0.707106781187,0.));
#516 = ADVANCED_FACE('',(#517),#533,.F.);
#517 = FACE_BOUND('',#518,.F.);
#518 = EDGE_LOOP('',(#519,#520,#526,#527));
#519 = ORIENTED_EDGE('',*,*,#498,.T.);
#520 = ORIENTED_EDGE('',*,*,#521,.T.);
#521 = EDGE_CURVE('',#491,#390,#522,.T.);
#522 = LINE('',#523,#524);
#523 = CARTESIAN_POINT('',(0.,1.4,1.E-03));
#524 = VECTOR('',#525,1.);
#525 = DIRECTION('',(0.,-1.,0.));
#526 = ORIENTED_EDGE('',*,*,#387,.F.);
#527 = ORIENTED_EDGE('',*,*,#528,.F.);
#528 = EDGE_CURVE('',#499,#388,#529,.T.);
#529 = LINE('',#530,#531);
#530 = CARTESIAN_POINT('',(0.,1.4,0.));
#531 = VECTOR('',#532,1.);
#532 = DIRECTION('',(0.,-1.,0.));
#533 = PLANE('',#534);
#534 = AXIS2_PLACEMENT_3D('',#535,#536,#537);
#535 = CARTESIAN_POINT('',(0.,1.4,0.));
#536 = DIRECTION('',(1.,0.,-0.));
#537 = DIRECTION('',(0.,-1.,0.));
#538 = ADVANCED_FACE('',(#539),#546,.F.);
#539 = FACE_BOUND('',#540,.F.);
#540 = EDGE_LOOP('',(#541,#542,#543,#544,#545));
#541 = ORIENTED_EDGE('',*,*,#413,.T.);
#542 = ORIENTED_EDGE('',*,*,#444,.T.);
#543 = ORIENTED_EDGE('',*,*,#475,.T.);
#544 = ORIENTED_EDGE('',*,*,#506,.T.);
#545 = ORIENTED_EDGE('',*,*,#528,.T.);
#546 = PLANE('',#547);
#547 = AXIS2_PLACEMENT_3D('',#548,#549,#550);
#548 = CARTESIAN_POINT('',(0.90513516383,0.84486483617,0.));
#549 = DIRECTION('',(0.,0.,1.));
#550 = DIRECTION('',(1.,0.,-0.));
#551 = ADVANCED_FACE('',(#552),#559,.T.);
#552 = FACE_BOUND('',#553,.T.);
#553 = EDGE_LOOP('',(#554,#555,#556,#557,#558));
#554 = ORIENTED_EDGE('',*,*,#397,.T.);
#555 = ORIENTED_EDGE('',*,*,#428,.T.);
#556 = ORIENTED_EDGE('',*,*,#459,.T.);
#557 = ORIENTED_EDGE('',*,*,#490,.T.);
#558 = ORIENTED_EDGE('',*,*,#521,.T.);
#559 = PLANE('',#560);
#560 = AXIS2_PLACEMENT_3D('',#561,#562,#563);
#561 = CARTESIAN_POINT('',(0.90513516383,0.84486483617,1.E-03));
#562 = DIRECTION('',(0.,0.,1.));
#563 = DIRECTION('',(1.,0.,-0.));
#564 = ( GEOMETRIC_REPRESENTATION_CONTEXT(3) 
GLOBAL_UNCERTAINTY_ASSIGNED_CONTEXT((#568)) GLOBAL_UNIT_ASSIGNED_CONTEXT
((#565,#566,#567)) REPRESENTATION_CONTEXT('Context #1',
  '3D Context with UNIT and UNCERTAINTY') );
#565 = ( LENGTH_UNIT() NAMED_UNIT(*) SI_UNIT(.MILLI.,.METRE.) );
#566 = ( NAMED_UNIT(*) PLANE_ANGLE_UNIT() SI_UNIT($,.RADIAN.) );
#567 = ( NAMED_UNIT(*) SI_UNIT($,.STERADIAN.) SOLID_ANGLE_UNIT() );
#568 = UNCERTAINTY_MEASURE_WITH_UNIT(LENGTH_MEASURE(1.E-07),#565,
  'distance_accuracy_value','confusion accuracy');
#569 = SHAPE_DEFINITION_REPRESENTATION(#570,#380);
#570 = PRODUCT_DEFINITION_SHAPE('','',#571);
#571 = PRODUCT_DEFINITION('design','',#572,#575);
#572 = PRODUCT_DEFINITION_FORMATION('','',#573);
#573 = PRODUCT('Thermal Shape','Thermal Shape','',(#574));
#574 = PRODUCT_CONTEXT('',#2,'mechanical');
#575 = PRODUCT_DEFINITION_CONTEXT('part definition',#2,'design');
#576 = CONTEXT_DEPENDENT_SHAPE_REPRESENTATION(#577,#579);
#577 = ( REPRESENTATION_RELATIONSHIP('','',#380,#46) 
REPRESENTATION_RELATIONSHIP_WITH_TRANSFORMATION(#578) 
SHAPE_REPRESENTATION_RELATIONSHIP() );
#578 = ITEM_DEFINED_TRANSFORMATION('','',#11,#55);
#579 = PRODUCT_DEFINITION_SHAPE('Placement','Placement of an item',#580
  );
#580 = NEXT_ASSEMBLY_USAGE_OCCURRENCE('292','273','',#41,#571,$);
#581 = PRODUCT_RELATED_PRODUCT_CATEGORY('part',$,(#573));
#582 = ADVANCED_BREP_SHAPE_REPRESENTATION('',(#11,#583),#925);
#583 = MANIFOLD_SOLID_BREP('',#584);
#584 = CLOSED_SHELL('',(#585,#625,#656,#687,#718,#742,#766,#790,#814,
    #836,#860,#884,#901,#913));
#585 = ADVANCED_FACE('',(#586),#620,.F.);
#586 = FACE_BOUND('',#587,.F.);
#587 = EDGE_LOOP('',(#588,#598,#606,#614));
#588 = ORIENTED_EDGE('',*,*,#589,.F.);
#589 = EDGE_CURVE('',#590,#592,#594,.T.);
#590 = VERTEX_POINT('',#591);
#591 = CARTESIAN_POINT('',(-1.E-03,0.,0.));
#592 = VERTEX_POINT('',#593);
#593 = CARTESIAN_POINT('',(0.,0.,0.));
#594 = LINE('',#595,#596);
#595 = CARTESIAN_POINT('',(-1.E-03,0.,0.));
#596 = VECTOR('',#597,1.);
#597 = DIRECTION('',(1.,0.,0.));
#598 = ORIENTED_EDGE('',*,*,#599,.T.);
#599 = EDGE_CURVE('',#590,#600,#602,.T.);
#600 = VERTEX_POINT('',#601);
#601 = CARTESIAN_POINT('',(-1.E-03,0.,1.E-03));
#602 = LINE('',#603,#604);
#603 = CARTESIAN_POINT('',(-1.E-03,0.,0.));
#604 = VECTOR('',#605,1.);
#605 = DIRECTION('',(0.,0.,1.));
#606 = ORIENTED_EDGE('',*,*,#607,.T.);
#607 = EDGE_CURVE('',#600,#608,#610,.T.);
#608 = VERTEX_POINT('',#609);
#609 = CARTESIAN_POINT('',(-2.194425197111E-19,0.,1.E-03));
#610 = LINE('',#611,#612);
#611 = CARTESIAN_POINT('',(-1.E-03,0.,1.E-03));
#612 = VECTOR('',#613,1.);
#613 = DIRECTION('',(1.,0.,0.));
#614 = ORIENTED_EDGE('',*,*,#615,.F.);
#615 = EDGE_CURVE('',#592,#608,#616,.T.);
#616 = LINE('',#617,#618);
#617 = CARTESIAN_POINT('',(0.,0.,0.));
#618 = VECTOR('',#619,1.);
#619 = DIRECTION('',(-2.22044604925E-16,0.,1.));
#620 = PLANE('',#621);
#621 = AXIS2_PLACEMENT_3D('',#622,#623,#624);
#622 = CARTESIAN_POINT('',(-1.E-03,0.,0.));
#623 = DIRECTION('',(0.,1.,0.));
#624 = DIRECTION('',(1.,0.,0.));
#625 = ADVANCED_FACE('',(#626),#651,.F.);
#626 = FACE_BOUND('',#627,.F.);
#627 = EDGE_LOOP('',(#628,#636,#637,#645));
#628 = ORIENTED_EDGE('',*,*,#629,.T.);
#629 = EDGE_CURVE('',#630,#590,#632,.T.);
#630 = VERTEX_POINT('',#631);
#631 = CARTESIAN_POINT('',(-1.E-03,0.25,0.));
#632 = LINE('',#633,#634);
#633 = CARTESIAN_POINT('',(-1.E-03,0.25,0.));
#634 = VECTOR('',#635,1.);
#635 = DIRECTION('',(0.,-1.,0.));
#636 = ORIENTED_EDGE('',*,*,#589,.T.);
#637 = ORIENTED_EDGE('',*,*,#638,.F.);
#638 = EDGE_CURVE('',#639,#592,#641,.T.);
#639 = VERTEX_POINT('',#640);
#640 = CARTESIAN_POINT('',(0.,0.25,0.));
#641 = LINE('',#642,#643);
#642 = CARTESIAN_POINT('',(0.,0.25,0.));
#643 = VECTOR('',#644,1.);
#644 = DIRECTION('',(-0.,-1.,0.));
#645 = ORIENTED_EDGE('',*,*,#646,.T.);
#646 = EDGE_CURVE('',#639,#630,#647,.T.);
#647 = LINE('',#648,#649);
#648 = CARTESIAN_POINT('',(0.35,0.25,0.));
#649 = VECTOR('',#650,1.);
#650 = DIRECTION('',(-1.,0.,0.));
#651 = PLANE('',#652);
#652 = AXIS2_PLACEMENT_3D('',#653,#654,#655);
#653 = CARTESIAN_POINT('',(0.1745,0.125,0.));
#654 = DIRECTION('',(0.,0.,1.));
#655 = DIRECTION('',(1.,0.,-0.));
#656 = ADVANCED_FACE('',(#657),#682,.F.);
#657 = FACE_BOUND('',#658,.F.);
#658 = EDGE_LOOP('',(#659,#667,#668,#676));
#659 = ORIENTED_EDGE('',*,*,#660,.F.);
#660 = EDGE_CURVE('',#592,#661,#663,.T.);
#661 = VERTEX_POINT('',#662);
#662 = CARTESIAN_POINT('',(0.35,0.,0.));
#663 = LINE('',#664,#665);
#664 = CARTESIAN_POINT('',(-1.E-03,0.,0.));
#665 = VECTOR('',#666,1.);
#666 = DIRECTION('',(1.,0.,0.));
#667 = ORIENTED_EDGE('',*,*,#615,.T.);
#668 = ORIENTED_EDGE('',*,*,#669,.T.);
#669 = EDGE_CURVE('',#608,#670,#672,.T.);
#670 = VERTEX_POINT('',#671);
#671 = CARTESIAN_POINT('',(0.35,0.,1.E-03));
#672 = LINE('',#673,#674);
#673 = CARTESIAN_POINT('',(-1.E-03,0.,1.E-03));
#674 = VECTOR('',#675,1.);
#675 = DIRECTION('',(1.,0.,0.));
#676 = ORIENTED_EDGE('',*,*,#677,.F.);
#677 = EDGE_CURVE('',#661,#670,#678,.T.);
#678 = LINE('',#679,#680);
#679 = CARTESIAN_POINT('',(0.35,0.,0.));
#680 = VECTOR('',#681,1.);
#681 = DIRECTION('',(0.,0.,1.));
#682 = PLANE('',#683);
#683 = AXIS2_PLACEMENT_3D('',#684,#685,#686);
#684 = CARTESIAN_POINT('',(-1.E-03,0.,0.));
#685 = DIRECTION('',(0.,1.,0.));
#686 = DIRECTION('',(1.,0.,0.));
#687 = ADVANCED_FACE('',(#688),#713,.F.);
#688 = FACE_BOUND('',#689,.F.);
#689 = EDGE_LOOP('',(#690,#691,#699,#707));
#690 = ORIENTED_EDGE('',*,*,#607,.F.);
#691 = ORIENTED_EDGE('',*,*,#692,.T.);
#692 = EDGE_CURVE('',#600,#693,#695,.T.);
#693 = VERTEX_POINT('',#694);
#694 = CARTESIAN_POINT('',(-1.E-03,0.,0.15));
#695 = LINE('',#696,#697);
#696 = CARTESIAN_POINT('',(-1.E-03,0.,0.));
#697 = VECTOR('',#698,1.);
#698 = DIRECTION('',(-2.22044604925E-16,0.,1.));
#699 = ORIENTED_EDGE('',*,*,#700,.F.);
#700 = EDGE_CURVE('',#701,#693,#703,.T.);
#701 = VERTEX_POINT('',#702);
#702 = CARTESIAN_POINT('',(-3.330669073875E-17,0.,0.15));
#703 = LINE('',#704,#705);
#704 = CARTESIAN_POINT('',(-3.330669073875E-17,0.,0.15));
#705 = VECTOR('',#706,1.);
#706 = DIRECTION('',(-1.,0.,0.));
#707 = ORIENTED_EDGE('',*,*,#708,.F.);
#708 = EDGE_CURVE('',#608,#701,#709,.T.);
#709 = LINE('',#710,#711);
#710 = CARTESIAN_POINT('',(0.,0.,0.));
#711 = VECTOR('',#712,1.);
#712 = DIRECTION('',(-2.22044604925E-16,0.,1.));
#713 = PLANE('',#714);
#714 = AXIS2_PLACEMENT_3D('',#715,#716,#717);
#715 = CARTESIAN_POINT('',(0.,0.,0.));
#716 = DIRECTION('',(0.,1.,0.));
#717 = DIRECTION('',(-2.22044604925E-16,0.,1.));
#718 = ADVANCED_FACE('',(#719),#737,.F.);
#719 = FACE_BOUND('',#720,.F.);
#720 = EDGE_LOOP('',(#721,#729,#735,#736));
#721 = ORIENTED_EDGE('',*,*,#722,.T.);
#722 = EDGE_CURVE('',#630,#723,#725,.T.);
#723 = VERTEX_POINT('',#724);
#724 = CARTESIAN_POINT('',(-1.E-03,0.25,1.E-03));
#725 = LINE('',#726,#727);
#726 = CARTESIAN_POINT('',(-1.E-03,0.25,0.));
#727 = VECTOR('',#728,1.);
#728 = DIRECTION('',(0.,0.,1.));
#729 = ORIENTED_EDGE('',*,*,#730,.T.);
#730 = EDGE_CURVE('',#723,#600,#731,.T.);
#731 = LINE('',#732,#733);
#732 = CARTESIAN_POINT('',(-1.E-03,0.25,1.E-03));
#733 = VECTOR('',#734,1.);
#734 = DIRECTION('',(0.,-1.,0.));
#735 = ORIENTED_EDGE('',*,*,#599,.F.);
#736 = ORIENTED_EDGE('',*,*,#629,.F.);
#737 = PLANE('',#738);
#738 = AXIS2_PLACEMENT_3D('',#739,#740,#741);
#739 = CARTESIAN_POINT('',(-1.E-03,0.25,0.));
#740 = DIRECTION('',(1.,0.,-0.));
#741 = DIRECTION('',(0.,-1.,0.));
#742 = ADVANCED_FACE('',(#743),#761,.F.);
#743 = FACE_BOUND('',#744,.F.);
#744 = EDGE_LOOP('',(#745,#746,#754,#760));
#745 = ORIENTED_EDGE('',*,*,#646,.F.);
#746 = ORIENTED_EDGE('',*,*,#747,.F.);
#747 = EDGE_CURVE('',#748,#639,#750,.T.);
#748 = VERTEX_POINT('',#749);
#749 = CARTESIAN_POINT('',(-1.110223024625E-19,0.25,1.E-03));
#750 = LINE('',#751,#752);
#751 = CARTESIAN_POINT('',(-3.330669073875E-17,0.25,0.15));
#752 = VECTOR('',#753,1.);
#753 = DIRECTION('',(2.22044604925E-16,0.,-1.));
#754 = ORIENTED_EDGE('',*,*,#755,.T.);
#755 = EDGE_CURVE('',#748,#723,#756,.T.);
#756 = LINE('',#757,#758);
#757 = CARTESIAN_POINT('',(0.35,0.25,1.E-03));
#758 = VECTOR('',#759,1.);
#759 = DIRECTION('',(-1.,0.,0.));
#760 = ORIENTED_EDGE('',*,*,#722,.F.);
#761 = PLANE('',#762);
#762 = AXIS2_PLACEMENT_3D('',#763,#764,#765);
#763 = CARTESIAN_POINT('',(0.35,0.25,0.));
#764 = DIRECTION('',(0.,-1.,0.));
#765 = DIRECTION('',(-1.,0.,0.));
#766 = ADVANCED_FACE('',(#767),#785,.F.);
#767 = FACE_BOUND('',#768,.F.);
#768 = EDGE_LOOP('',(#769,#770,#771,#779));
#769 = ORIENTED_EDGE('',*,*,#638,.T.);
#770 = ORIENTED_EDGE('',*,*,#660,.T.);
#771 = ORIENTED_EDGE('',*,*,#772,.T.);
#772 = EDGE_CURVE('',#661,#773,#775,.T.);
#773 = VERTEX_POINT('',#774);
#774 = CARTESIAN_POINT('',(0.35,0.25,0.));
#775 = LINE('',#776,#777);
#776 = CARTESIAN_POINT('',(0.35,0.,0.));
#777 = VECTOR('',#778,1.);
#778 = DIRECTION('',(0.,1.,0.));
#779 = ORIENTED_EDGE('',*,*,#780,.T.);
#780 = EDGE_CURVE('',#773,#639,#781,.T.);
#781 = LINE('',#782,#783);
#782 = CARTESIAN_POINT('',(0.35,0.25,0.));
#783 = VECTOR('',#784,1.);
#784 = DIRECTION('',(-1.,0.,0.));
#785 = PLANE('',#786);
#786 = AXIS2_PLACEMENT_3D('',#787,#788,#789);
#787 = CARTESIAN_POINT('',(0.1745,0.125,0.));
#788 = DIRECTION('',(0.,0.,1.));
#789 = DIRECTION('',(1.,0.,-0.));
#790 = ADVANCED_FACE('',(#791),#809,.F.);
#791 = FACE_BOUND('',#792,.F.);
#792 = EDGE_LOOP('',(#793,#794,#802,#808));
#793 = ORIENTED_EDGE('',*,*,#677,.T.);
#794 = ORIENTED_EDGE('',*,*,#795,.T.);
#795 = EDGE_CURVE('',#670,#796,#798,.T.);
#796 = VERTEX_POINT('',#797);
#797 = CARTESIAN_POINT('',(0.35,0.25,1.E-03));
#798 = LINE('',#799,#800);
#799 = CARTESIAN_POINT('',(0.35,0.,1.E-03));
#800 = VECTOR('',#801,1.);
#801 = DIRECTION('',(0.,1.,0.));
#802 = ORIENTED_EDGE('',*,*,#803,.F.);
#803 = EDGE_CURVE('',#773,#796,#804,.T.);
#804 = LINE('',#805,#806);
#805 = CARTESIAN_POINT('',(0.35,0.25,0.));
#806 = VECTOR('',#807,1.);
#807 = DIRECTION('',(0.,0.,1.));
#808 = ORIENTED_EDGE('',*,*,#772,.F.);
#809 = PLANE('',#810);
#810 = AXIS2_PLACEMENT_3D('',#811,#812,#813);
#811 = CARTESIAN_POINT('',(0.35,0.,0.));
#812 = DIRECTION('',(-1.,0.,0.));
#813 = DIRECTION('',(0.,1.,0.));
#814 = ADVANCED_FACE('',(#815),#831,.T.);
#815 = FACE_BOUND('',#816,.T.);
#816 = EDGE_LOOP('',(#817,#823,#824,#825));
#817 = ORIENTED_EDGE('',*,*,#818,.T.);
#818 = EDGE_CURVE('',#748,#608,#819,.T.);
#819 = LINE('',#820,#821);
#820 = CARTESIAN_POINT('',(-1.110223024625E-19,0.125,1.E-03));
#821 = VECTOR('',#822,1.);
#822 = DIRECTION('',(-0.,-1.,0.));
#823 = ORIENTED_EDGE('',*,*,#669,.T.);
#824 = ORIENTED_EDGE('',*,*,#795,.T.);
#825 = ORIENTED_EDGE('',*,*,#826,.T.);
#826 = EDGE_CURVE('',#796,#748,#827,.T.);
#827 = LINE('',#828,#829);
#828 = CARTESIAN_POINT('',(0.35,0.25,1.E-03));
#829 = VECTOR('',#830,1.);
#830 = DIRECTION('',(-1.,0.,0.));
#831 = PLANE('',#832);
#832 = AXIS2_PLACEMENT_3D('',#833,#834,#835);
#833 = CARTESIAN_POINT('',(0.1745,0.125,1.E-03));
#834 = DIRECTION('',(0.,0.,1.));
#835 = DIRECTION('',(1.,0.,-0.));
#836 = ADVANCED_FACE('',(#837),#855,.F.);
#837 = FACE_BOUND('',#838,.F.);
#838 = EDGE_LOOP('',(#839,#840,#841,#849));
#839 = ORIENTED_EDGE('',*,*,#818,.T.);
#840 = ORIENTED_EDGE('',*,*,#708,.T.);
#841 = ORIENTED_EDGE('',*,*,#842,.T.);
#842 = EDGE_CURVE('',#701,#843,#845,.T.);
#843 = VERTEX_POINT('',#844);
#844 = CARTESIAN_POINT('',(-3.330669073875E-17,0.25,0.15));
#845 = LINE('',#846,#847);
#846 = CARTESIAN_POINT('',(-3.330669073875E-17,0.,0.15));
#847 = VECTOR('',#848,1.);
#848 = DIRECTION('',(0.,1.,0.));
#849 = ORIENTED_EDGE('',*,*,#850,.T.);
#850 = EDGE_CURVE('',#843,#748,#851,.T.);
#851 = LINE('',#852,#853);
#852 = CARTESIAN_POINT('',(-3.330669073875E-17,0.25,0.15));
#853 = VECTOR('',#854,1.);
#854 = DIRECTION('',(2.22044604925E-16,0.,-1.));
#855 = PLANE('',#856);
#856 = AXIS2_PLACEMENT_3D('',#857,#858,#859);
#857 = CARTESIAN_POINT('',(-1.665334536938E-17,0.125,7.5E-02));
#858 = DIRECTION('',(-1.,0.,-2.22044604925E-16));
#859 = DIRECTION('',(-2.22044604925E-16,0.,1.));
#860 = ADVANCED_FACE('',(#861),#879,.F.);
#861 = FACE_BOUND('',#862,.F.);
#862 = EDGE_LOOP('',(#863,#864,#872,#878));
#863 = ORIENTED_EDGE('',*,*,#700,.T.);
#864 = ORIENTED_EDGE('',*,*,#865,.T.);
#865 = EDGE_CURVE('',#693,#866,#868,.T.);
#866 = VERTEX_POINT('',#867);
#867 = CARTESIAN_POINT('',(-1.E-03,0.25,0.15));
#868 = LINE('',#869,#870);
#869 = CARTESIAN_POINT('',(-1.E-03,0.,0.15));
#870 = VECTOR('',#871,1.);
#871 = DIRECTION('',(0.,1.,0.));
#872 = ORIENTED_EDGE('',*,*,#873,.F.);
#873 = EDGE_CURVE('',#843,#866,#874,.T.);
#874 = LINE('',#875,#876);
#875 = CARTESIAN_POINT('',(-3.330669073875E-17,0.25,0.15));
#876 = VECTOR('',#877,1.);
#877 = DIRECTION('',(-1.,0.,0.));
#878 = ORIENTED_EDGE('',*,*,#842,.F.);
#879 = PLANE('',#880);
#880 = AXIS2_PLACEMENT_3D('',#881,#882,#883);
#881 = CARTESIAN_POINT('',(-3.330669073875E-17,0.,0.15));
#882 = DIRECTION('',(0.,0.,-1.));
#883 = DIRECTION('',(0.,1.,0.));
#884 = ADVANCED_FACE('',(#885),#896,.T.);
#885 = FACE_BOUND('',#886,.T.);
#886 = EDGE_LOOP('',(#887,#888,#889,#890));
#887 = ORIENTED_EDGE('',*,*,#730,.T.);
#888 = ORIENTED_EDGE('',*,*,#692,.T.);
#889 = ORIENTED_EDGE('',*,*,#865,.T.);
#890 = ORIENTED_EDGE('',*,*,#891,.T.);
#891 = EDGE_CURVE('',#866,#723,#892,.T.);
#892 = LINE('',#893,#894);
#893 = CARTESIAN_POINT('',(-1.E-03,0.25,0.15));
#894 = VECTOR('',#895,1.);
#895 = DIRECTION('',(2.22044604925E-16,0.,-1.));
#896 = PLANE('',#897);
#897 = AXIS2_PLACEMENT_3D('',#898,#899,#900);
#898 = CARTESIAN_POINT('',(-1.E-03,0.125,7.5E-02));
#899 = DIRECTION('',(-1.,0.,-2.22044604925E-16));
#900 = DIRECTION('',(-2.22044604925E-16,0.,1.));
#901 = ADVANCED_FACE('',(#902),#908,.F.);
#902 = FACE_BOUND('',#903,.F.);
#903 = EDGE_LOOP('',(#904,#905,#906,#907));
#904 = ORIENTED_EDGE('',*,*,#850,.F.);
#905 = ORIENTED_EDGE('',*,*,#873,.T.);
#906 = ORIENTED_EDGE('',*,*,#891,.T.);
#907 = ORIENTED_EDGE('',*,*,#755,.F.);
#908 = PLANE('',#909);
#909 = AXIS2_PLACEMENT_3D('',#910,#911,#912);
#910 = CARTESIAN_POINT('',(-3.330669073875E-17,0.25,0.15));
#911 = DIRECTION('',(-0.,-1.,-0.));
#912 = DIRECTION('',(2.22044604925E-16,0.,-1.));
#913 = ADVANCED_FACE('',(#914),#920,.F.);
#914 = FACE_BOUND('',#915,.F.);
#915 = EDGE_LOOP('',(#916,#917,#918,#919));
#916 = ORIENTED_EDGE('',*,*,#780,.F.);
#917 = ORIENTED_EDGE('',*,*,#803,.T.);
#918 = ORIENTED_EDGE('',*,*,#826,.T.);
#919 = ORIENTED_EDGE('',*,*,#747,.T.);
#920 = PLANE('',#921);
#921 = AXIS2_PLACEMENT_3D('',#922,#923,#924);
#922 = CARTESIAN_POINT('',(0.35,0.25,0.));
#923 = DIRECTION('',(0.,-1.,0.));
#924 = DIRECTION('',(-1.,0.,0.));
#925 = ( GEOMETRIC_REPRESENTATION_CONTEXT(3) 
GLOBAL_UNCERTAINTY_ASSIGNED_CONTEXT((#929)) GLOBAL_UNIT_ASSIGNED_CONTEXT
((#926,#927,#928)) REPRESENTATION_CONTEXT('Context #1',
  '3D Context with UNIT and UNCERTAINTY') );
#926 = ( LENGTH_UNIT() NAMED_UNIT(*) SI_UNIT(.MILLI.,.METRE.) );
#927 = ( NAMED_UNIT(*) PLANE_ANGLE_UNIT() SI_UNIT($,.RADIAN.) );
#928 = ( NAMED_UNIT(*) SI_UNIT($,.STERADIAN.) SOLID_ANGLE_UNIT() );
#929 = UNCERTAINTY_MEASURE_WITH_UNIT(LENGTH_MEASURE(1.E-07),#926,
  'distance_accuracy_value','confusion accuracy');
#930 = SHAPE_DEFINITION_REPRESENTATION(#931,#582);
#931 = PRODUCT_DEFINITION_SHAPE('','',#932);
#932 = PRODUCT_DEFINITION('design','',#933,#936);
#933 = PRODUCT_DEFINITION_FORMATION('','',#934);
#934 = PRODUCT('Pin Shape','Pin Shape','',(#935));
#935 = PRODUCT_CONTEXT('',#2,'mechanical');
#936 = PRODUCT_DEFINITION_CONTEXT('part definition',#2,'design');
#937 = CONTEXT_DEPENDENT_SHAPE_REPRESENTATION(#938,#940);
#938 = ( REPRESENTATION_RELATIONSHIP('','',#582,#46) 
REPRESENTATION_RELATIONSHIP_WITH_TRANSFORMATION(#939) 
SHAPE_REPRESENTATION_RELATIONSHIP() );
#939 = ITEM_DEFINED_TRANSFORMATION('','',#11,#59);
#940 = PRODUCT_DEFINITION_SHAPE('Placement','Placement of an item',#941
  );
#941 = NEXT_ASSEMBLY_USAGE_OCCURRENCE('293','274','',#41,#932,$);
#942 = PRODUCT_RELATED_PRODUCT_CATEGORY('part',$,(#934));
#943 = CONTEXT_DEPENDENT_SHAPE_REPRESENTATION(#944,#946);
#944 = ( REPRESENTATION_RELATIONSHIP('','',#582,#46) 
REPRESENTATION_RELATIONSHIP_WITH_TRANSFORMATION(#945) 
SHAPE_REPRESENTATION_RELATIONSHIP() );
#945 = ITEM_DEFINED_TRANSFORMATION('','',#11,#63);
#946 = PRODUCT_DEFINITION_SHAPE('Placement','Placement of an item',#947
  );
#947 = NEXT_ASSEMBLY_USAGE_OCCURRENCE('294','275','',#41,#932,$);
#948 = CONTEXT_DEPENDENT_SHAPE_REPRESENTATION(#949,#951);
#949 = ( REPRESENTATION_RELATIONSHIP('','',#582,#46) 
REPRESENTATION_RELATIONSHIP_WITH_TRANSFORMATION(#950) 
SHAPE_REPRESENTATION_RELATIONSHIP() );
#950 = ITEM_DEFINED_TRANSFORMATION('','',#11,#67);
#951 = PRODUCT_DEFINITION_SHAPE('Placement','Placement of an item',#952
  );
#952 = NEXT_ASSEMBLY_USAGE_OCCURRENCE('295','276','',#41,#932,$);
#953 = CONTEXT_DEPENDENT_SHAPE_REPRESENTATION(#954,#956);
#954 = ( REPRESENTATION_RELATIONSHIP('','',#582,#46) 
REPRESENTATION_RELATIONSHIP_WITH_TRANSFORMATION(#955) 
SHAPE_REPRESENTATION_RELATIONSHIP() );
#955 = ITEM_DEFINED_TRANSFORMATION('','',#11,#71);
#956 = PRODUCT_DEFINITION_SHAPE('Placement','Placement of an item',#957
  );
#957 = NEXT_ASSEMBLY_USAGE_OCCURRENCE('296','277','',#41,#932,$);
#958 = CONTEXT_DEPENDENT_SHAPE_REPRESENTATION(#959,#961);
#959 = ( REPRESENTATION_RELATIONSHIP('','',#582,#46) 
REPRESENTATION_RELATIONSHIP_WITH_TRANSFORMATION(#960) 
SHAPE_REPRESENTATION_RELATIONSHIP() );
#960 = ITEM_DEFINED_TRANSFORMATION('','',#11,#75);
#961 = PRODUCT_DEFINITION_SHAPE('Placement','Placement of an item',#962
  );
#962 = NEXT_ASSEMBLY_USAGE_OCCURRENCE('297','278','',#41,#932,$);
#963 = CONTEXT_DEPENDENT_SHAPE_REPRESENTATION(#964,#966);
#964 = ( REPRESENTATION_RELATIONSHIP('','',#582,#46) 
REPRESENTATION_RELATIONSHIP_WITH_TRANSFORMATION(#965) 
SHAPE_REPRESENTATION_RELATIONSHIP() );
#965 = ITEM_DEFINED_TRANSFORMATION('','',#11,#79);
#966 = PRODUCT_DEFINITION_SHAPE('Placement','Placement of an item',#967
  );
#967 = NEXT_ASSEMBLY_USAGE_OCCURRENCE('298','279','',#41,#932,$);
#968 = CONTEXT_DEPENDENT_SHAPE_REPRESENTATION(#969,#971);
#969 = ( REPRESENTATION_RELATIONSHIP('','',#582,#46) 
REPRESENTATION_RELATIONSHIP_WITH_TRANSFORMATION(#970) 
SHAPE_REPRESENTATION_RELATIONSHIP() );
#970 = ITEM_DEFINED_TRANSFORMATION('','',#11,#83);
#971 = PRODUCT_DEFINITION_SHAPE('Placement','Placement of an item',#972
  );
#972 = NEXT_ASSEMBLY_USAGE_OCCURRENCE('299','280','',#41,#932,$);
#973 = CONTEXT_DEPENDENT_SHAPE_REPRESENTATION(#974,#976);
#974 = ( REPRESENTATION_RELATIONSHIP('','',#582,#46) 
REPRESENTATION_RELATIONSHIP_WITH_TRANSFORMATION(#975) 
SHAPE_REPRESENTATION_RELATIONSHIP() );
#975 = ITEM_DEFINED_TRANSFORMATION('','',#11,#87);
#976 = PRODUCT_DEFINITION_SHAPE('Placement','Placement of an item',#977
  );
#977 = NEXT_ASSEMBLY_USAGE_OCCURRENCE('300','281','',#41,#932,$);
#978 = CONTEXT_DEPENDENT_SHAPE_REPRESENTATION(#979,#981);
#979 = ( REPRESENTATION_RELATIONSHIP('','',#582,#46) 
REPRESENTATION_RELATIONSHIP_WITH_TRANSFORMATION(#980) 
SHAPE_REPRESENTATION_RELATIONSHIP() );
#980 = ITEM_DEFINED_TRANSFORMATION('','',#11,#91);
#981 = PRODUCT_DEFINITION_SHAPE('Placement','Placement of an item',#982
  );
#982 = NEXT_ASSEMBLY_USAGE_OCCURRENCE('301','282','',#41,#932,$);
#983 = CONTEXT_DEPENDENT_SHAPE_REPRESENTATION(#984,#986);
#984 = ( REPRESENTATION_RELATIONSHIP('','',#582,#46) 
REPRESENTATION_RELATIONSHIP_WITH_TRANSFORMATION(#985) 
SHAPE_REPRESENTATION_RELATIONSHIP() );
#985 = ITEM_DEFINED_TRANSFORMATION('','',#11,#95);
#986 = PRODUCT_DEFINITION_SHAPE('Placement','Placement of an item',#987
  );
#987 = NEXT_ASSEMBLY_USAGE_OCCURRENCE('302','283','',#41,#932,$);
#988 = CONTEXT_DEPENDENT_SHAPE_REPRESENTATION(#989,#991);
#989 = ( REPRESENTATION_RELATIONSHIP('','',#582,#46) 
REPRESENTATION_RELATIONSHIP_WITH_TRANSFORMATION(#990) 
SHAPE_REPRESENTATION_RELATIONSHIP() );
#990 = ITEM_DEFINED_TRANSFORMATION('','',#11,#99);
#991 = PRODUCT_DEFINITION_SHAPE('Placement','Placement of an item',#992
  );
#992 = NEXT_ASSEMBLY_USAGE_OCCURRENCE('303','284','',#41,#932,$);
#993 = CONTEXT_DEPENDENT_SHAPE_REPRESENTATION(#994,#996);
#994 = ( REPRESENTATION_RELATIONSHIP('','',#582,#46) 
REPRESENTATION_RELATIONSHIP_WITH_TRANSFORMATION(#995) 
SHAPE_REPRESENTATION_RELATIONSHIP() );
#995 = ITEM_DEFINED_TRANSFORMATION('','',#11,#103);
#996 = PRODUCT_DEFINITION_SHAPE('Placement','Placement of an item',#997
  );
#997 = NEXT_ASSEMBLY_USAGE_OCCURRENCE('304','285','',#41,#932,$);
#998 = CONTEXT_DEPENDENT_SHAPE_REPRESENTATION(#999,#1001);
#999 = ( REPRESENTATION_RELATIONSHIP('','',#582,#46) 
REPRESENTATION_RELATIONSHIP_WITH_TRANSFORMATION(#1000) 
SHAPE_REPRESENTATION_RELATIONSHIP() );
#1000 = ITEM_DEFINED_TRANSFORMATION('','',#11,#107);
#1001 = PRODUCT_DEFINITION_SHAPE('Placement','Placement of an item',
  #1002);
#1002 = NEXT_ASSEMBLY_USAGE_OCCURRENCE('305','286','',#41,#932,$);
#1003 = CONTEXT_DEPENDENT_SHAPE_REPRESENTATION(#1004,#1006);
#1004 = ( REPRESENTATION_RELATIONSHIP('','',#582,#46) 
REPRESENTATION_RELATIONSHIP_WITH_TRANSFORMATION(#1005) 
SHAPE_REPRESENTATION_RELATIONSHIP() );
#1005 = ITEM_DEFINED_TRANSFORMATION('','',#11,#111);
#1006 = PRODUCT_DEFINITION_SHAPE('Placement','Placement of an item',
  #1007);
#1007 = NEXT_ASSEMBLY_USAGE_OCCURRENCE('306','287','',#41,#932,$);
#1008 = CONTEXT_DEPENDENT_SHAPE_REPRESENTATION(#1009,#1011);
#1009 = ( REPRESENTATION_RELATIONSHIP('','',#582,#46) 
REPRESENTATION_RELATIONSHIP_WITH_TRANSFORMATION(#1010) 
SHAPE_REPRESENTATION_RELATIONSHIP() );
#1010 = ITEM_DEFINED_TRANSFORMATION('','',#11,#115);
#1011 = PRODUCT_DEFINITION_SHAPE('Placement','Placement of an item',
  #1012);
#1012 = NEXT_ASSEMBLY_USAGE_OCCURRENCE('307','288','',#41,#932,$);
#1013 = CONTEXT_DEPENDENT_SHAPE_REPRESENTATION(#1014,#1016);
#1014 = ( REPRESENTATION_RELATIONSHIP('','',#582,#46) 
REPRESENTATION_RELATIONSHIP_WITH_TRANSFORMATION(#1015) 
SHAPE_REPRESENTATION_RELATIONSHIP() );
#1015 = ITEM_DEFINED_TRANSFORMATION('','',#11,#119);
#1016 = PRODUCT_DEFINITION_SHAPE('Placement','Placement of an item',
  #1017);
#1017 = NEXT_ASSEMBLY_USAGE_OCCURRENCE('308','289','',#41,#932,$);
#1018 = CONTEXT_DEPENDENT_SHAPE_REPRESENTATION(#1019,#1021);
#1019 = ( REPRESENTATION_RELATIONSHIP('','',#46,#28) 
REPRESENTATION_RELATIONSHIP_WITH_TRANSFORMATION(#1020) 
SHAPE_REPRESENTATION_RELATIONSHIP() );
#1020 = ITEM_DEFINED_TRANSFORMATION('','',#11,#29);
#1021 = PRODUCT_DEFINITION_SHAPE('Placement','Placement of an item',
  #1022);
#1022 = NEXT_ASSEMBLY_USAGE_OCCURRENCE('309','','',#23,#41,$);
#1023 = PRODUCT_RELATED_PRODUCT_CATEGORY('part',$,(#43));
#1024 = MECHANICAL_DESIGN_GEOMETRIC_PRESENTATION_REPRESENTATION('',(
    #1025),#925);
#1025 = STYLED_ITEM('color',(#1026),#583);
#1026 = PRESENTATION_STYLE_ASSIGNMENT((#1027,#1033));
#1027 = SURFACE_STYLE_USAGE(.BOTH.,#1028);
#1028 = SURFACE_SIDE_STYLE('',(#1029));
#1029 = SURFACE_STYLE_FILL_AREA(#1030);
#1030 = FILL_AREA_STYLE('',(#1031));
#1031 = FILL_AREA_STYLE_COLOUR('',#1032);
#1032 = COLOUR_RGB('',0.800000010877,0.800000010877,0.800000010877);
#1033 = CURVE_STYLE('',#1034,POSITIVE_LENGTH_MEASURE(0.1),#1032);
#1034 = DRAUGHTING_PRE_DEFINED_CURVE_FONT('continuous');
#1035 = MECHANICAL_DESIGN_GEOMETRIC_PRESENTATION_REPRESENTATION('',(
    #1036),#564);
#1036 = STYLED_ITEM('color',(#1037),#381);
#1037 = PRESENTATION_STYLE_ASSIGNMENT((#1038,#1043));
#1038 = SURFACE_STYLE_USAGE(.BOTH.,#1039);
#1039 = SURFACE_SIDE_STYLE('',(#1040));
#1040 = SURFACE_STYLE_FILL_AREA(#1041);
#1041 = FILL_AREA_STYLE('',(#1042));
#1042 = FILL_AREA_STYLE_COLOUR('',#1032);
#1043 = CURVE_STYLE('',#1044,POSITIVE_LENGTH_MEASURE(0.1),#1032);
#1044 = DRAUGHTING_PRE_DEFINED_CURVE_FONT('continuous');
#1045 = MECHANICAL_DESIGN_GEOMETRIC_PRESENTATION_REPRESENTATION('',(
    #1046),#148);
#1046 = STYLED_ITEM('color',(#1047),#131);
#1047 = PRESENTATION_STYLE_ASSIGNMENT((#1048,#1054));
#1048 = SURFACE_STYLE_USAGE(.BOTH.,#1049);
#1049 = SURFACE_SIDE_STYLE('',(#1050));
#1050 = SURFACE_STYLE_FILL_AREA(#1051);
#1051 = FILL_AREA_STYLE('',(#1052));
#1052 = FILL_AREA_STYLE_COLOUR('',#1053);
#1053 = DRAUGHTING_PRE_DEFINED_COLOUR('white');
#1054 = CURVE_STYLE('',#1055,POSITIVE_LENGTH_MEASURE(0.1),#1053);
#1055 = DRAUGHTING_PRE_DEFINED_CURVE_FONT('continuous');
#1056 = MECHANICAL_DESIGN_GEOMETRIC_PRESENTATION_REPRESENTATION('',(
    #1057),#362);
#1057 = STYLED_ITEM('color',(#1058),#167);
#1058 = PRESENTATION_STYLE_ASSIGNMENT((#1059,#1065));
#1059 = SURFACE_STYLE_USAGE(.BOTH.,#1060);
#1060 = SURFACE_SIDE_STYLE('',(#1061));
#1061 = SURFACE_STYLE_FILL_AREA(#1062);
#1062 = FILL_AREA_STYLE('',(#1063));
#1063 = FILL_AREA_STYLE_COLOUR('',#1064);
#1064 = COLOUR_RGB('',0.199999998682,0.199999998682,0.199999998682);
#1065 = CURVE_STYLE('',#1066,POSITIVE_LENGTH_MEASURE(0.1),#1064);
#1066 = DRAUGHTING_PRE_DEFINED_CURVE_FONT('continuous');
ENDSEC;
END-ISO-10303-21;
