ISO-10303-21;
HEADER;
/* Generated by software containing ST-Developer
 * from STEP Tools, Inc. (www.steptools.com) 
 */
/* OPTION: strings as raw bytes, not using required /X/ escapes */

FILE_DESCRIPTION(
/* description */ ('Unknown'),
/* implementation_level */ '2;1');

FILE_NAME(
/* name */ 'MF-MSMF050_40X-2',
/* time_stamp */ '2024-02-05T10:03:43+02:00',
/* author */ ('Unknown'),
/* organization */ ('Unknown'),
/* preprocessor_version */ 'ST-DEVELOPER v18.102',
/* originating_system */ 'Solid Edge',
/* authorisation */ 'Unknown');

FILE_SCHEMA (('AUTOMOTIVE_DESIGN {1 0 10303 214 3 1 1}'));
ENDSEC;

DATA;
#10=PROPERTY_DEFINITION_REPRESENTATION(#14,#12);
#11=PROPERTY_DEFINITION_REPRESENTATION(#15,#13);
#12=REPRESENTATION('',(#16),#1121);
#13=REPRESENTATION('',(#17),#1121);
#14=PROPERTY_DEFINITION('pmi validation property','',#1126);
#15=PROPERTY_DEFINITION('pmi validation property','',#1126);
#16=VALUE_REPRESENTATION_ITEM('number of annotations',COUNT_MEASURE(0.));
#17=VALUE_REPRESENTATION_ITEM('number of views',COUNT_MEASURE(0.));
#18=SHAPE_REPRESENTATION_RELATIONSHIP('','',#771,#19);
#19=ADVANCED_BREP_SHAPE_REPRESENTATION('',(#769),#1121);
#20=CIRCLE('',#782,0.509266602038907);
#21=CIRCLE('',#783,0.509266602038907);
#22=CIRCLE('',#784,0.509266602038907);
#23=CIRCLE('',#785,0.509266602038907);
#24=CIRCLE('',#794,0.509266602038907);
#25=CIRCLE('',#798,0.350725492579567);
#26=CIRCLE('',#800,0.350725492579567);
#27=CIRCLE('',#805,0.509266602038907);
#28=CIRCLE('',#806,0.509266602038907);
#29=CIRCLE('',#807,0.509266602038907);
#30=CIRCLE('',#809,0.350725492579567);
#31=CIRCLE('',#811,0.350725492579567);
#32=CYLINDRICAL_SURFACE('',#781,0.509266602038907);
#33=CYLINDRICAL_SURFACE('',#801,0.350725492579567);
#34=CYLINDRICAL_SURFACE('',#804,0.509266602038907);
#35=CYLINDRICAL_SURFACE('',#812,0.350725492579567);
#36=ORIENTED_EDGE('',*,*,#188,.T.);
#37=ORIENTED_EDGE('',*,*,#189,.T.);
#38=ORIENTED_EDGE('',*,*,#190,.F.);
#39=ORIENTED_EDGE('',*,*,#191,.F.);
#40=ORIENTED_EDGE('',*,*,#192,.F.);
#41=ORIENTED_EDGE('',*,*,#193,.T.);
#42=ORIENTED_EDGE('',*,*,#194,.F.);
#43=ORIENTED_EDGE('',*,*,#195,.F.);
#44=ORIENTED_EDGE('',*,*,#194,.T.);
#45=ORIENTED_EDGE('',*,*,#196,.T.);
#46=ORIENTED_EDGE('',*,*,#197,.F.);
#47=ORIENTED_EDGE('',*,*,#198,.F.);
#48=ORIENTED_EDGE('',*,*,#199,.T.);
#49=ORIENTED_EDGE('',*,*,#200,.T.);
#50=ORIENTED_EDGE('',*,*,#201,.F.);
#51=ORIENTED_EDGE('',*,*,#202,.T.);
#52=ORIENTED_EDGE('',*,*,#201,.T.);
#53=ORIENTED_EDGE('',*,*,#203,.T.);
#54=ORIENTED_EDGE('',*,*,#204,.T.);
#55=ORIENTED_EDGE('',*,*,#205,.T.);
#56=ORIENTED_EDGE('',*,*,#206,.T.);
#57=ORIENTED_EDGE('',*,*,#207,.T.);
#58=ORIENTED_EDGE('',*,*,#208,.F.);
#59=ORIENTED_EDGE('',*,*,#209,.T.);
#60=ORIENTED_EDGE('',*,*,#208,.T.);
#61=ORIENTED_EDGE('',*,*,#210,.T.);
#62=ORIENTED_EDGE('',*,*,#211,.F.);
#63=ORIENTED_EDGE('',*,*,#212,.T.);
#64=ORIENTED_EDGE('',*,*,#213,.T.);
#65=ORIENTED_EDGE('',*,*,#214,.T.);
#66=ORIENTED_EDGE('',*,*,#188,.F.);
#67=ORIENTED_EDGE('',*,*,#215,.F.);
#68=ORIENTED_EDGE('',*,*,#216,.T.);
#69=ORIENTED_EDGE('',*,*,#192,.T.);
#70=ORIENTED_EDGE('',*,*,#217,.F.);
#71=ORIENTED_EDGE('',*,*,#218,.T.);
#72=ORIENTED_EDGE('',*,*,#219,.T.);
#73=ORIENTED_EDGE('',*,*,#220,.F.);
#74=ORIENTED_EDGE('',*,*,#221,.F.);
#75=ORIENTED_EDGE('',*,*,#190,.T.);
#76=ORIENTED_EDGE('',*,*,#222,.T.);
#77=ORIENTED_EDGE('',*,*,#223,.T.);
#78=ORIENTED_EDGE('',*,*,#193,.F.);
#79=ORIENTED_EDGE('',*,*,#216,.F.);
#80=ORIENTED_EDGE('',*,*,#224,.T.);
#81=ORIENTED_EDGE('',*,*,#225,.F.);
#82=ORIENTED_EDGE('',*,*,#189,.F.);
#83=ORIENTED_EDGE('',*,*,#226,.T.);
#84=ORIENTED_EDGE('',*,*,#227,.T.);
#85=ORIENTED_EDGE('',*,*,#222,.F.);
#86=ORIENTED_EDGE('',*,*,#207,.F.);
#87=ORIENTED_EDGE('',*,*,#228,.T.);
#88=ORIENTED_EDGE('',*,*,#229,.T.);
#89=ORIENTED_EDGE('',*,*,#230,.F.);
#90=ORIENTED_EDGE('',*,*,#203,.F.);
#91=ORIENTED_EDGE('',*,*,#231,.T.);
#92=ORIENTED_EDGE('',*,*,#232,.T.);
#93=ORIENTED_EDGE('',*,*,#233,.T.);
#94=ORIENTED_EDGE('',*,*,#210,.F.);
#95=ORIENTED_EDGE('',*,*,#230,.T.);
#96=ORIENTED_EDGE('',*,*,#234,.T.);
#97=ORIENTED_EDGE('',*,*,#226,.F.);
#98=ORIENTED_EDGE('',*,*,#214,.F.);
#99=ORIENTED_EDGE('',*,*,#235,.F.);
#100=ORIENTED_EDGE('',*,*,#196,.F.);
#101=ORIENTED_EDGE('',*,*,#225,.T.);
#102=ORIENTED_EDGE('',*,*,#236,.T.);
#103=ORIENTED_EDGE('',*,*,#231,.F.);
#104=ORIENTED_EDGE('',*,*,#200,.F.);
#105=ORIENTED_EDGE('',*,*,#237,.F.);
#106=ORIENTED_EDGE('',*,*,#237,.T.);
#107=ORIENTED_EDGE('',*,*,#238,.T.);
#108=ORIENTED_EDGE('',*,*,#235,.T.);
#109=ORIENTED_EDGE('',*,*,#239,.F.);
#110=ORIENTED_EDGE('',*,*,#229,.F.);
#111=ORIENTED_EDGE('',*,*,#240,.T.);
#112=ORIENTED_EDGE('',*,*,#232,.F.);
#113=ORIENTED_EDGE('',*,*,#236,.F.);
#114=ORIENTED_EDGE('',*,*,#224,.F.);
#115=ORIENTED_EDGE('',*,*,#223,.F.);
#116=ORIENTED_EDGE('',*,*,#227,.F.);
#117=ORIENTED_EDGE('',*,*,#234,.F.);
#118=ORIENTED_EDGE('',*,*,#241,.T.);
#119=ORIENTED_EDGE('',*,*,#242,.F.);
#120=ORIENTED_EDGE('',*,*,#243,.F.);
#121=ORIENTED_EDGE('',*,*,#220,.T.);
#122=ORIENTED_EDGE('',*,*,#244,.T.);
#123=ORIENTED_EDGE('',*,*,#218,.F.);
#124=ORIENTED_EDGE('',*,*,#245,.F.);
#125=ORIENTED_EDGE('',*,*,#246,.T.);
#126=ORIENTED_EDGE('',*,*,#243,.T.);
#127=ORIENTED_EDGE('',*,*,#247,.T.);
#128=ORIENTED_EDGE('',*,*,#245,.T.);
#129=ORIENTED_EDGE('',*,*,#217,.T.);
#130=ORIENTED_EDGE('',*,*,#195,.T.);
#131=ORIENTED_EDGE('',*,*,#198,.T.);
#132=ORIENTED_EDGE('',*,*,#248,.T.);
#133=ORIENTED_EDGE('',*,*,#215,.T.);
#134=ORIENTED_EDGE('',*,*,#191,.T.);
#135=ORIENTED_EDGE('',*,*,#221,.T.);
#136=ORIENTED_EDGE('',*,*,#241,.F.);
#137=ORIENTED_EDGE('',*,*,#219,.F.);
#138=ORIENTED_EDGE('',*,*,#244,.F.);
#139=ORIENTED_EDGE('',*,*,#249,.F.);
#140=ORIENTED_EDGE('',*,*,#249,.T.);
#141=ORIENTED_EDGE('',*,*,#246,.F.);
#142=ORIENTED_EDGE('',*,*,#247,.F.);
#143=ORIENTED_EDGE('',*,*,#242,.T.);
#144=ORIENTED_EDGE('',*,*,#250,.F.);
#145=ORIENTED_EDGE('',*,*,#251,.F.);
#146=ORIENTED_EDGE('',*,*,#252,.T.);
#147=ORIENTED_EDGE('',*,*,#253,.T.);
#148=ORIENTED_EDGE('',*,*,#254,.F.);
#149=ORIENTED_EDGE('',*,*,#255,.F.);
#150=ORIENTED_EDGE('',*,*,#256,.T.);
#151=ORIENTED_EDGE('',*,*,#257,.T.);
#152=ORIENTED_EDGE('',*,*,#206,.F.);
#153=ORIENTED_EDGE('',*,*,#258,.T.);
#154=ORIENTED_EDGE('',*,*,#251,.T.);
#155=ORIENTED_EDGE('',*,*,#259,.F.);
#156=ORIENTED_EDGE('',*,*,#257,.F.);
#157=ORIENTED_EDGE('',*,*,#260,.T.);
#158=ORIENTED_EDGE('',*,*,#204,.F.);
#159=ORIENTED_EDGE('',*,*,#233,.F.);
#160=ORIENTED_EDGE('',*,*,#240,.F.);
#161=ORIENTED_EDGE('',*,*,#228,.F.);
#162=ORIENTED_EDGE('',*,*,#252,.F.);
#163=ORIENTED_EDGE('',*,*,#258,.F.);
#164=ORIENTED_EDGE('',*,*,#209,.F.);
#165=ORIENTED_EDGE('',*,*,#212,.F.);
#166=ORIENTED_EDGE('',*,*,#261,.F.);
#167=ORIENTED_EDGE('',*,*,#202,.F.);
#168=ORIENTED_EDGE('',*,*,#205,.F.);
#169=ORIENTED_EDGE('',*,*,#260,.F.);
#170=ORIENTED_EDGE('',*,*,#256,.F.);
#171=ORIENTED_EDGE('',*,*,#262,.F.);
#172=ORIENTED_EDGE('',*,*,#250,.T.);
#173=ORIENTED_EDGE('',*,*,#263,.T.);
#174=ORIENTED_EDGE('',*,*,#254,.T.);
#175=ORIENTED_EDGE('',*,*,#259,.T.);
#176=ORIENTED_EDGE('',*,*,#263,.F.);
#177=ORIENTED_EDGE('',*,*,#253,.F.);
#178=ORIENTED_EDGE('',*,*,#262,.T.);
#179=ORIENTED_EDGE('',*,*,#255,.T.);
#180=ORIENTED_EDGE('',*,*,#239,.T.);
#181=ORIENTED_EDGE('',*,*,#213,.F.);
#182=ORIENTED_EDGE('',*,*,#248,.F.);
#183=ORIENTED_EDGE('',*,*,#197,.T.);
#184=ORIENTED_EDGE('',*,*,#238,.F.);
#185=ORIENTED_EDGE('',*,*,#199,.F.);
#186=ORIENTED_EDGE('',*,*,#261,.T.);
#187=ORIENTED_EDGE('',*,*,#211,.T.);
#188=EDGE_CURVE('',#264,#265,#312,.T.);
#189=EDGE_CURVE('',#265,#266,#313,.T.);
#190=EDGE_CURVE('',#267,#266,#314,.T.);
#191=EDGE_CURVE('',#264,#267,#315,.T.);
#192=EDGE_CURVE('',#268,#269,#316,.F.);
#193=EDGE_CURVE('',#268,#270,#317,.T.);
#194=EDGE_CURVE('',#271,#270,#318,.T.);
#195=EDGE_CURVE('',#269,#271,#319,.T.);
#196=EDGE_CURVE('',#270,#272,#320,.T.);
#197=EDGE_CURVE('',#273,#272,#321,.T.);
#198=EDGE_CURVE('',#271,#273,#322,.T.);
#199=EDGE_CURVE('',#274,#275,#323,.T.);
#200=EDGE_CURVE('',#275,#276,#324,.T.);
#201=EDGE_CURVE('',#277,#276,#325,.T.);
#202=EDGE_CURVE('',#277,#274,#326,.T.);
#203=EDGE_CURVE('',#276,#278,#327,.T.);
#204=EDGE_CURVE('',#278,#279,#328,.F.);
#205=EDGE_CURVE('',#279,#277,#329,.T.);
#206=EDGE_CURVE('',#280,#281,#330,.T.);
#207=EDGE_CURVE('',#281,#282,#331,.T.);
#208=EDGE_CURVE('',#283,#282,#332,.T.);
#209=EDGE_CURVE('',#283,#280,#333,.T.);
#210=EDGE_CURVE('',#282,#284,#334,.T.);
#211=EDGE_CURVE('',#285,#284,#335,.T.);
#212=EDGE_CURVE('',#285,#283,#336,.T.);
#213=EDGE_CURVE('',#286,#287,#337,.T.);
#214=EDGE_CURVE('',#287,#265,#338,.T.);
#215=EDGE_CURVE('',#286,#264,#339,.T.);
#216=EDGE_CURVE('',#288,#268,#340,.F.);
#217=EDGE_CURVE('',#289,#269,#20,.T.);
#218=EDGE_CURVE('',#289,#290,#341,.T.);
#219=EDGE_CURVE('',#290,#291,#21,.T.);
#220=EDGE_CURVE('',#292,#291,#342,.T.);
#221=EDGE_CURVE('',#267,#292,#22,.T.);
#222=EDGE_CURVE('',#266,#293,#343,.T.);
#223=EDGE_CURVE('',#293,#288,#23,.F.);
#224=EDGE_CURVE('',#288,#294,#344,.T.);
#225=EDGE_CURVE('',#270,#294,#345,.T.);
#226=EDGE_CURVE('',#265,#295,#346,.T.);
#227=EDGE_CURVE('',#295,#293,#347,.T.);
#228=EDGE_CURVE('',#281,#296,#348,.T.);
#229=EDGE_CURVE('',#296,#297,#349,.T.);
#230=EDGE_CURVE('',#282,#297,#350,.T.);
#231=EDGE_CURVE('',#276,#298,#351,.T.);
#232=EDGE_CURVE('',#298,#299,#352,.T.);
#233=EDGE_CURVE('',#299,#278,#353,.F.);
#234=EDGE_CURVE('',#297,#295,#354,.T.);
#235=EDGE_CURVE('',#284,#287,#355,.T.);
#236=EDGE_CURVE('',#294,#298,#356,.T.);
#237=EDGE_CURVE('',#272,#275,#357,.T.);
#238=EDGE_CURVE('',#275,#284,#358,.T.);
#239=EDGE_CURVE('',#272,#287,#359,.T.);
#240=EDGE_CURVE('',#296,#299,#24,.T.);
#241=EDGE_CURVE('',#291,#300,#360,.T.);
#242=EDGE_CURVE('',#301,#300,#361,.T.);
#243=EDGE_CURVE('',#292,#301,#362,.T.);
#244=EDGE_CURVE('',#302,#290,#363,.T.);
#245=EDGE_CURVE('',#303,#289,#364,.T.);
#246=EDGE_CURVE('',#303,#302,#365,.T.);
#247=EDGE_CURVE('',#301,#303,#25,.T.);
#248=EDGE_CURVE('',#273,#286,#366,.T.);
#249=EDGE_CURVE('',#300,#302,#26,.T.);
#250=EDGE_CURVE('',#304,#305,#367,.T.);
#251=EDGE_CURVE('',#306,#304,#368,.T.);
#252=EDGE_CURVE('',#306,#307,#369,.T.);
#253=EDGE_CURVE('',#307,#305,#370,.T.);
#254=EDGE_CURVE('',#308,#309,#371,.T.);
#255=EDGE_CURVE('',#310,#308,#372,.T.);
#256=EDGE_CURVE('',#310,#311,#373,.T.);
#257=EDGE_CURVE('',#311,#309,#374,.T.);
#258=EDGE_CURVE('',#280,#306,#27,.T.);
#259=EDGE_CURVE('',#309,#304,#28,.T.);
#260=EDGE_CURVE('',#311,#279,#29,.T.);
#261=EDGE_CURVE('',#274,#285,#375,.T.);
#262=EDGE_CURVE('',#307,#310,#30,.T.);
#263=EDGE_CURVE('',#305,#308,#31,.T.);
#264=VERTEX_POINT('',#968);
#265=VERTEX_POINT('',#969);
#266=VERTEX_POINT('',#971);
#267=VERTEX_POINT('',#973);
#268=VERTEX_POINT('',#977);
#269=VERTEX_POINT('',#978);
#270=VERTEX_POINT('',#980);
#271=VERTEX_POINT('',#982);
#272=VERTEX_POINT('',#986);
#273=VERTEX_POINT('',#988);
#274=VERTEX_POINT('',#992);
#275=VERTEX_POINT('',#993);
#276=VERTEX_POINT('',#995);
#277=VERTEX_POINT('',#997);
#278=VERTEX_POINT('',#1001);
#279=VERTEX_POINT('',#1003);
#280=VERTEX_POINT('',#1007);
#281=VERTEX_POINT('',#1008);
#282=VERTEX_POINT('',#1010);
#283=VERTEX_POINT('',#1012);
#284=VERTEX_POINT('',#1016);
#285=VERTEX_POINT('',#1018);
#286=VERTEX_POINT('',#1022);
#287=VERTEX_POINT('',#1023);
#288=VERTEX_POINT('',#1028);
#289=VERTEX_POINT('',#1030);
#290=VERTEX_POINT('',#1032);
#291=VERTEX_POINT('',#1034);
#292=VERTEX_POINT('',#1036);
#293=VERTEX_POINT('',#1039);
#294=VERTEX_POINT('',#1043);
#295=VERTEX_POINT('',#1047);
#296=VERTEX_POINT('',#1051);
#297=VERTEX_POINT('',#1053);
#298=VERTEX_POINT('',#1057);
#299=VERTEX_POINT('',#1059);
#300=VERTEX_POINT('',#1074);
#301=VERTEX_POINT('',#1076);
#302=VERTEX_POINT('',#1080);
#303=VERTEX_POINT('',#1082);
#304=VERTEX_POINT('',#1092);
#305=VERTEX_POINT('',#1093);
#306=VERTEX_POINT('',#1095);
#307=VERTEX_POINT('',#1097);
#308=VERTEX_POINT('',#1101);
#309=VERTEX_POINT('',#1102);
#310=VERTEX_POINT('',#1104);
#311=VERTEX_POINT('',#1106);
#312=LINE('',#967,#376);
#313=LINE('',#970,#377);
#314=LINE('',#972,#378);
#315=LINE('',#974,#379);
#316=LINE('',#976,#380);
#317=LINE('',#979,#381);
#318=LINE('',#981,#382);
#319=LINE('',#983,#383);
#320=LINE('',#985,#384);
#321=LINE('',#987,#385);
#322=LINE('',#989,#386);
#323=LINE('',#991,#387);
#324=LINE('',#994,#388);
#325=LINE('',#996,#389);
#326=LINE('',#998,#390);
#327=LINE('',#1000,#391);
#328=LINE('',#1002,#392);
#329=LINE('',#1004,#393);
#330=LINE('',#1006,#394);
#331=LINE('',#1009,#395);
#332=LINE('',#1011,#396);
#333=LINE('',#1013,#397);
#334=LINE('',#1015,#398);
#335=LINE('',#1017,#399);
#336=LINE('',#1019,#400);
#337=LINE('',#1021,#401);
#338=LINE('',#1024,#402);
#339=LINE('',#1025,#403);
#340=LINE('',#1027,#404);
#341=LINE('',#1031,#405);
#342=LINE('',#1035,#406);
#343=LINE('',#1038,#407);
#344=LINE('',#1042,#408);
#345=LINE('',#1044,#409);
#346=LINE('',#1046,#410);
#347=LINE('',#1048,#411);
#348=LINE('',#1050,#412);
#349=LINE('',#1052,#413);
#350=LINE('',#1054,#414);
#351=LINE('',#1056,#415);
#352=LINE('',#1058,#416);
#353=LINE('',#1060,#417);
#354=LINE('',#1062,#418);
#355=LINE('',#1063,#419);
#356=LINE('',#1065,#420);
#357=LINE('',#1066,#421);
#358=LINE('',#1068,#422);
#359=LINE('',#1069,#423);
#360=LINE('',#1073,#424);
#361=LINE('',#1075,#425);
#362=LINE('',#1077,#426);
#363=LINE('',#1079,#427);
#364=LINE('',#1081,#428);
#365=LINE('',#1083,#429);
#366=LINE('',#1086,#430);
#367=LINE('',#1091,#431);
#368=LINE('',#1094,#432);
#369=LINE('',#1096,#433);
#370=LINE('',#1098,#434);
#371=LINE('',#1100,#435);
#372=LINE('',#1103,#436);
#373=LINE('',#1105,#437);
#374=LINE('',#1107,#438);
#375=LINE('',#1113,#439);
#376=VECTOR('',#819,1000.);
#377=VECTOR('',#820,1000.);
#378=VECTOR('',#821,1000.);
#379=VECTOR('',#822,1000.);
#380=VECTOR('',#825,1000.);
#381=VECTOR('',#826,1000.);
#382=VECTOR('',#827,1000.);
#383=VECTOR('',#828,1000.);
#384=VECTOR('',#831,1000.);
#385=VECTOR('',#832,1000.);
#386=VECTOR('',#833,1000.);
#387=VECTOR('',#836,1000.);
#388=VECTOR('',#837,1000.);
#389=VECTOR('',#838,1000.);
#390=VECTOR('',#839,1000.);
#391=VECTOR('',#842,1000.);
#392=VECTOR('',#843,1000.);
#393=VECTOR('',#844,1000.);
#394=VECTOR('',#847,1000.);
#395=VECTOR('',#848,1000.);
#396=VECTOR('',#849,1000.);
#397=VECTOR('',#850,1000.);
#398=VECTOR('',#853,1000.);
#399=VECTOR('',#854,1000.);
#400=VECTOR('',#855,1000.);
#401=VECTOR('',#858,1000.);
#402=VECTOR('',#859,1000.);
#403=VECTOR('',#860,1000.);
#404=VECTOR('',#863,1000.);
#405=VECTOR('',#866,1000.);
#406=VECTOR('',#869,1000.);
#407=VECTOR('',#872,1000.);
#408=VECTOR('',#877,1000.);
#409=VECTOR('',#878,1000.);
#410=VECTOR('',#881,1000.);
#411=VECTOR('',#882,1000.);
#412=VECTOR('',#885,1000.);
#413=VECTOR('',#886,1000.);
#414=VECTOR('',#887,1000.);
#415=VECTOR('',#890,1000.);
#416=VECTOR('',#891,1000.);
#417=VECTOR('',#892,1000.);
#418=VECTOR('',#895,1000.);
#419=VECTOR('',#896,1000.);
#420=VECTOR('',#899,1000.);
#421=VECTOR('',#900,1000.);
#422=VECTOR('',#903,1000.);
#423=VECTOR('',#904,1000.);
#424=VECTOR('',#911,1000.);
#425=VECTOR('',#912,1000.);
#426=VECTOR('',#913,1000.);
#427=VECTOR('',#916,1000.);
#428=VECTOR('',#917,1000.);
#429=VECTOR('',#918,1000.);
#430=VECTOR('',#923,1000.);
#431=VECTOR('',#932,1000.);
#432=VECTOR('',#933,1000.);
#433=VECTOR('',#934,1000.);
#434=VECTOR('',#935,1000.);
#435=VECTOR('',#938,1000.);
#436=VECTOR('',#939,1000.);
#437=VECTOR('',#940,1000.);
#438=VECTOR('',#941,1000.);
#439=VECTOR('',#952,1000.);
#440=EDGE_LOOP('',(#36,#37,#38,#39));
#441=EDGE_LOOP('',(#40,#41,#42,#43));
#442=EDGE_LOOP('',(#44,#45,#46,#47));
#443=EDGE_LOOP('',(#48,#49,#50,#51));
#444=EDGE_LOOP('',(#52,#53,#54,#55));
#445=EDGE_LOOP('',(#56,#57,#58,#59));
#446=EDGE_LOOP('',(#60,#61,#62,#63));
#447=EDGE_LOOP('',(#64,#65,#66,#67));
#448=EDGE_LOOP('',(#68,#69,#70,#71,#72,#73,#74,#75,#76,#77));
#449=EDGE_LOOP('',(#78,#79,#80,#81));
#450=EDGE_LOOP('',(#82,#83,#84,#85));
#451=EDGE_LOOP('',(#86,#87,#88,#89));
#452=EDGE_LOOP('',(#90,#91,#92,#93));
#453=EDGE_LOOP('',(#94,#95,#96,#97,#98,#99));
#454=EDGE_LOOP('',(#100,#101,#102,#103,#104,#105));
#455=EDGE_LOOP('',(#106,#107,#108,#109));
#456=EDGE_LOOP('',(#110,#111,#112,#113,#114,#115,#116,#117));
#457=EDGE_LOOP('',(#118,#119,#120,#121));
#458=EDGE_LOOP('',(#122,#123,#124,#125));
#459=EDGE_LOOP('',(#126,#127,#128,#129,#130,#131,#132,#133,#134,#135));
#460=EDGE_LOOP('',(#136,#137,#138,#139));
#461=EDGE_LOOP('',(#140,#141,#142,#143));
#462=EDGE_LOOP('',(#144,#145,#146,#147));
#463=EDGE_LOOP('',(#148,#149,#150,#151));
#464=EDGE_LOOP('',(#152,#153,#154,#155,#156,#157,#158,#159,#160,#161));
#465=EDGE_LOOP('',(#162,#163,#164,#165,#166,#167,#168,#169,#170,#171));
#466=EDGE_LOOP('',(#172,#173,#174,#175));
#467=EDGE_LOOP('',(#176,#177,#178,#179));
#468=EDGE_LOOP('',(#180,#181,#182,#183));
#469=EDGE_LOOP('',(#184,#185,#186,#187));
#470=FACE_BOUND('',#440,.T.);
#471=FACE_BOUND('',#441,.T.);
#472=FACE_BOUND('',#442,.T.);
#473=FACE_BOUND('',#443,.T.);
#474=FACE_BOUND('',#444,.T.);
#475=FACE_BOUND('',#445,.T.);
#476=FACE_BOUND('',#446,.T.);
#477=FACE_BOUND('',#447,.T.);
#478=FACE_BOUND('',#448,.T.);
#479=FACE_BOUND('',#449,.T.);
#480=FACE_BOUND('',#450,.T.);
#481=FACE_BOUND('',#451,.T.);
#482=FACE_BOUND('',#452,.T.);
#483=FACE_BOUND('',#453,.T.);
#484=FACE_BOUND('',#454,.T.);
#485=FACE_BOUND('',#455,.T.);
#486=FACE_BOUND('',#456,.T.);
#487=FACE_BOUND('',#457,.T.);
#488=FACE_BOUND('',#458,.T.);
#489=FACE_BOUND('',#459,.T.);
#490=FACE_BOUND('',#460,.T.);
#491=FACE_BOUND('',#461,.T.);
#492=FACE_BOUND('',#462,.T.);
#493=FACE_BOUND('',#463,.T.);
#494=FACE_BOUND('',#464,.T.);
#495=FACE_BOUND('',#465,.T.);
#496=FACE_BOUND('',#466,.T.);
#497=FACE_BOUND('',#467,.T.);
#498=FACE_BOUND('',#468,.T.);
#499=FACE_BOUND('',#469,.T.);
#500=PLANE('',#773);
#501=PLANE('',#774);
#502=PLANE('',#775);
#503=PLANE('',#776);
#504=PLANE('',#777);
#505=PLANE('',#778);
#506=PLANE('',#779);
#507=PLANE('',#780);
#508=PLANE('',#786);
#509=PLANE('',#787);
#510=PLANE('',#788);
#511=PLANE('',#789);
#512=PLANE('',#790);
#513=PLANE('',#791);
#514=PLANE('',#792);
#515=PLANE('',#793);
#516=PLANE('',#795);
#517=PLANE('',#796);
#518=PLANE('',#797);
#519=PLANE('',#799);
#520=PLANE('',#802);
#521=PLANE('',#803);
#522=PLANE('',#808);
#523=PLANE('',#810);
#524=PLANE('',#813);
#525=PLANE('',#814);
#526=STYLED_ITEM('',(#556),#738);
#527=STYLED_ITEM('',(#557),#739);
#528=STYLED_ITEM('',(#558),#740);
#529=STYLED_ITEM('',(#559),#741);
#530=STYLED_ITEM('',(#560),#742);
#531=STYLED_ITEM('',(#561),#743);
#532=STYLED_ITEM('',(#562),#744);
#533=STYLED_ITEM('',(#563),#745);
#534=STYLED_ITEM('',(#564),#746);
#535=STYLED_ITEM('',(#565),#747);
#536=STYLED_ITEM('',(#566),#748);
#537=STYLED_ITEM('',(#567),#749);
#538=STYLED_ITEM('',(#568),#750);
#539=STYLED_ITEM('',(#569),#751);
#540=STYLED_ITEM('',(#570),#752);
#541=STYLED_ITEM('',(#571),#753);
#542=STYLED_ITEM('',(#572),#754);
#543=STYLED_ITEM('',(#573),#755);
#544=STYLED_ITEM('',(#574),#756);
#545=STYLED_ITEM('',(#575),#757);
#546=STYLED_ITEM('',(#576),#758);
#547=STYLED_ITEM('',(#577),#759);
#548=STYLED_ITEM('',(#578),#760);
#549=STYLED_ITEM('',(#579),#761);
#550=STYLED_ITEM('',(#580),#762);
#551=STYLED_ITEM('',(#581),#763);
#552=STYLED_ITEM('',(#582),#764);
#553=STYLED_ITEM('',(#583),#765);
#554=STYLED_ITEM('',(#584),#766);
#555=STYLED_ITEM('',(#585),#767);
#556=PRESENTATION_STYLE_ASSIGNMENT((#586));
#557=PRESENTATION_STYLE_ASSIGNMENT((#587));
#558=PRESENTATION_STYLE_ASSIGNMENT((#588));
#559=PRESENTATION_STYLE_ASSIGNMENT((#589));
#560=PRESENTATION_STYLE_ASSIGNMENT((#590));
#561=PRESENTATION_STYLE_ASSIGNMENT((#591));
#562=PRESENTATION_STYLE_ASSIGNMENT((#592));
#563=PRESENTATION_STYLE_ASSIGNMENT((#593));
#564=PRESENTATION_STYLE_ASSIGNMENT((#594));
#565=PRESENTATION_STYLE_ASSIGNMENT((#595));
#566=PRESENTATION_STYLE_ASSIGNMENT((#596));
#567=PRESENTATION_STYLE_ASSIGNMENT((#597));
#568=PRESENTATION_STYLE_ASSIGNMENT((#598));
#569=PRESENTATION_STYLE_ASSIGNMENT((#599));
#570=PRESENTATION_STYLE_ASSIGNMENT((#600));
#571=PRESENTATION_STYLE_ASSIGNMENT((#601));
#572=PRESENTATION_STYLE_ASSIGNMENT((#602));
#573=PRESENTATION_STYLE_ASSIGNMENT((#603));
#574=PRESENTATION_STYLE_ASSIGNMENT((#604));
#575=PRESENTATION_STYLE_ASSIGNMENT((#605));
#576=PRESENTATION_STYLE_ASSIGNMENT((#606));
#577=PRESENTATION_STYLE_ASSIGNMENT((#607));
#578=PRESENTATION_STYLE_ASSIGNMENT((#608));
#579=PRESENTATION_STYLE_ASSIGNMENT((#609));
#580=PRESENTATION_STYLE_ASSIGNMENT((#610));
#581=PRESENTATION_STYLE_ASSIGNMENT((#611));
#582=PRESENTATION_STYLE_ASSIGNMENT((#612));
#583=PRESENTATION_STYLE_ASSIGNMENT((#613));
#584=PRESENTATION_STYLE_ASSIGNMENT((#614));
#585=PRESENTATION_STYLE_ASSIGNMENT((#615));
#586=SURFACE_STYLE_USAGE(.BOTH.,#616);
#587=SURFACE_STYLE_USAGE(.BOTH.,#617);
#588=SURFACE_STYLE_USAGE(.BOTH.,#618);
#589=SURFACE_STYLE_USAGE(.BOTH.,#619);
#590=SURFACE_STYLE_USAGE(.BOTH.,#620);
#591=SURFACE_STYLE_USAGE(.BOTH.,#621);
#592=SURFACE_STYLE_USAGE(.BOTH.,#622);
#593=SURFACE_STYLE_USAGE(.BOTH.,#623);
#594=SURFACE_STYLE_USAGE(.BOTH.,#624);
#595=SURFACE_STYLE_USAGE(.BOTH.,#625);
#596=SURFACE_STYLE_USAGE(.BOTH.,#626);
#597=SURFACE_STYLE_USAGE(.BOTH.,#627);
#598=SURFACE_STYLE_USAGE(.BOTH.,#628);
#599=SURFACE_STYLE_USAGE(.BOTH.,#629);
#600=SURFACE_STYLE_USAGE(.BOTH.,#630);
#601=SURFACE_STYLE_USAGE(.BOTH.,#631);
#602=SURFACE_STYLE_USAGE(.BOTH.,#632);
#603=SURFACE_STYLE_USAGE(.BOTH.,#633);
#604=SURFACE_STYLE_USAGE(.BOTH.,#634);
#605=SURFACE_STYLE_USAGE(.BOTH.,#635);
#606=SURFACE_STYLE_USAGE(.BOTH.,#636);
#607=SURFACE_STYLE_USAGE(.BOTH.,#637);
#608=SURFACE_STYLE_USAGE(.BOTH.,#638);
#609=SURFACE_STYLE_USAGE(.BOTH.,#639);
#610=SURFACE_STYLE_USAGE(.BOTH.,#640);
#611=SURFACE_STYLE_USAGE(.BOTH.,#641);
#612=SURFACE_STYLE_USAGE(.BOTH.,#642);
#613=SURFACE_STYLE_USAGE(.BOTH.,#643);
#614=SURFACE_STYLE_USAGE(.BOTH.,#644);
#615=SURFACE_STYLE_USAGE(.BOTH.,#645);
#616=SURFACE_SIDE_STYLE('',(#646));
#617=SURFACE_SIDE_STYLE('',(#647));
#618=SURFACE_SIDE_STYLE('',(#648));
#619=SURFACE_SIDE_STYLE('',(#649));
#620=SURFACE_SIDE_STYLE('',(#650));
#621=SURFACE_SIDE_STYLE('',(#651));
#622=SURFACE_SIDE_STYLE('',(#652));
#623=SURFACE_SIDE_STYLE('',(#653));
#624=SURFACE_SIDE_STYLE('',(#654));
#625=SURFACE_SIDE_STYLE('',(#655));
#626=SURFACE_SIDE_STYLE('',(#656));
#627=SURFACE_SIDE_STYLE('',(#657));
#628=SURFACE_SIDE_STYLE('',(#658));
#629=SURFACE_SIDE_STYLE('',(#659));
#630=SURFACE_SIDE_STYLE('',(#660));
#631=SURFACE_SIDE_STYLE('',(#661));
#632=SURFACE_SIDE_STYLE('',(#662));
#633=SURFACE_SIDE_STYLE('',(#663));
#634=SURFACE_SIDE_STYLE('',(#664));
#635=SURFACE_SIDE_STYLE('',(#665));
#636=SURFACE_SIDE_STYLE('',(#666));
#637=SURFACE_SIDE_STYLE('',(#667));
#638=SURFACE_SIDE_STYLE('',(#668));
#639=SURFACE_SIDE_STYLE('',(#669));
#640=SURFACE_SIDE_STYLE('',(#670));
#641=SURFACE_SIDE_STYLE('',(#671));
#642=SURFACE_SIDE_STYLE('',(#672));
#643=SURFACE_SIDE_STYLE('',(#673));
#644=SURFACE_SIDE_STYLE('',(#674));
#645=SURFACE_SIDE_STYLE('',(#675));
#646=SURFACE_STYLE_FILL_AREA(#676);
#647=SURFACE_STYLE_FILL_AREA(#677);
#648=SURFACE_STYLE_FILL_AREA(#678);
#649=SURFACE_STYLE_FILL_AREA(#679);
#650=SURFACE_STYLE_FILL_AREA(#680);
#651=SURFACE_STYLE_FILL_AREA(#681);
#652=SURFACE_STYLE_FILL_AREA(#682);
#653=SURFACE_STYLE_FILL_AREA(#683);
#654=SURFACE_STYLE_FILL_AREA(#684);
#655=SURFACE_STYLE_FILL_AREA(#685);
#656=SURFACE_STYLE_FILL_AREA(#686);
#657=SURFACE_STYLE_FILL_AREA(#687);
#658=SURFACE_STYLE_FILL_AREA(#688);
#659=SURFACE_STYLE_FILL_AREA(#689);
#660=SURFACE_STYLE_FILL_AREA(#690);
#661=SURFACE_STYLE_FILL_AREA(#691);
#662=SURFACE_STYLE_FILL_AREA(#692);
#663=SURFACE_STYLE_FILL_AREA(#693);
#664=SURFACE_STYLE_FILL_AREA(#694);
#665=SURFACE_STYLE_FILL_AREA(#695);
#666=SURFACE_STYLE_FILL_AREA(#696);
#667=SURFACE_STYLE_FILL_AREA(#697);
#668=SURFACE_STYLE_FILL_AREA(#698);
#669=SURFACE_STYLE_FILL_AREA(#699);
#670=SURFACE_STYLE_FILL_AREA(#700);
#671=SURFACE_STYLE_FILL_AREA(#701);
#672=SURFACE_STYLE_FILL_AREA(#702);
#673=SURFACE_STYLE_FILL_AREA(#703);
#674=SURFACE_STYLE_FILL_AREA(#704);
#675=SURFACE_STYLE_FILL_AREA(#705);
#676=FILL_AREA_STYLE('',(#706));
#677=FILL_AREA_STYLE('',(#707));
#678=FILL_AREA_STYLE('',(#708));
#679=FILL_AREA_STYLE('',(#709));
#680=FILL_AREA_STYLE('',(#710));
#681=FILL_AREA_STYLE('',(#711));
#682=FILL_AREA_STYLE('',(#712));
#683=FILL_AREA_STYLE('',(#713));
#684=FILL_AREA_STYLE('',(#714));
#685=FILL_AREA_STYLE('',(#715));
#686=FILL_AREA_STYLE('',(#716));
#687=FILL_AREA_STYLE('',(#717));
#688=FILL_AREA_STYLE('',(#718));
#689=FILL_AREA_STYLE('',(#719));
#690=FILL_AREA_STYLE('',(#720));
#691=FILL_AREA_STYLE('',(#721));
#692=FILL_AREA_STYLE('',(#722));
#693=FILL_AREA_STYLE('',(#723));
#694=FILL_AREA_STYLE('',(#724));
#695=FILL_AREA_STYLE('',(#725));
#696=FILL_AREA_STYLE('',(#726));
#697=FILL_AREA_STYLE('',(#727));
#698=FILL_AREA_STYLE('',(#728));
#699=FILL_AREA_STYLE('',(#729));
#700=FILL_AREA_STYLE('',(#730));
#701=FILL_AREA_STYLE('',(#731));
#702=FILL_AREA_STYLE('',(#732));
#703=FILL_AREA_STYLE('',(#733));
#704=FILL_AREA_STYLE('',(#734));
#705=FILL_AREA_STYLE('',(#735));
#706=FILL_AREA_STYLE_COLOUR('',#736);
#707=FILL_AREA_STYLE_COLOUR('',#736);
#708=FILL_AREA_STYLE_COLOUR('',#736);
#709=FILL_AREA_STYLE_COLOUR('',#736);
#710=FILL_AREA_STYLE_COLOUR('',#736);
#711=FILL_AREA_STYLE_COLOUR('',#736);
#712=FILL_AREA_STYLE_COLOUR('',#736);
#713=FILL_AREA_STYLE_COLOUR('',#736);
#714=FILL_AREA_STYLE_COLOUR('',#736);
#715=FILL_AREA_STYLE_COLOUR('',#737);
#716=FILL_AREA_STYLE_COLOUR('',#737);
#717=FILL_AREA_STYLE_COLOUR('',#737);
#718=FILL_AREA_STYLE_COLOUR('',#737);
#719=FILL_AREA_STYLE_COLOUR('',#737);
#720=FILL_AREA_STYLE_COLOUR('',#737);
#721=FILL_AREA_STYLE_COLOUR('',#737);
#722=FILL_AREA_STYLE_COLOUR('',#737);
#723=FILL_AREA_STYLE_COLOUR('',#736);
#724=FILL_AREA_STYLE_COLOUR('',#736);
#725=FILL_AREA_STYLE_COLOUR('',#736);
#726=FILL_AREA_STYLE_COLOUR('',#736);
#727=FILL_AREA_STYLE_COLOUR('',#736);
#728=FILL_AREA_STYLE_COLOUR('',#736);
#729=FILL_AREA_STYLE_COLOUR('',#736);
#730=FILL_AREA_STYLE_COLOUR('',#736);
#731=FILL_AREA_STYLE_COLOUR('',#736);
#732=FILL_AREA_STYLE_COLOUR('',#736);
#733=FILL_AREA_STYLE_COLOUR('',#736);
#734=FILL_AREA_STYLE_COLOUR('',#736);
#735=FILL_AREA_STYLE_COLOUR('',#736);
#736=COLOUR_RGB('',0.749019622802734,0.665650486946106,0.449411779642105);
#737=COLOUR_RGB('',0.200000002980232,0.200000002980232,0.200000002980232);
#738=ADVANCED_FACE('',(#470),#500,.F.);
#739=ADVANCED_FACE('',(#471),#501,.F.);
#740=ADVANCED_FACE('',(#472),#502,.F.);
#741=ADVANCED_FACE('',(#473),#503,.F.);
#742=ADVANCED_FACE('',(#474),#504,.F.);
#743=ADVANCED_FACE('',(#475),#505,.F.);
#744=ADVANCED_FACE('',(#476),#506,.F.);
#745=ADVANCED_FACE('',(#477),#507,.F.);
#746=ADVANCED_FACE('',(#478),#32,.T.);
#747=ADVANCED_FACE('',(#479),#508,.F.);
#748=ADVANCED_FACE('',(#480),#509,.F.);
#749=ADVANCED_FACE('',(#481),#510,.F.);
#750=ADVANCED_FACE('',(#482),#511,.F.);
#751=ADVANCED_FACE('',(#483),#512,.F.);
#752=ADVANCED_FACE('',(#484),#513,.F.);
#753=ADVANCED_FACE('',(#485),#514,.T.);
#754=ADVANCED_FACE('',(#486),#515,.F.);
#755=ADVANCED_FACE('',(#487),#516,.F.);
#756=ADVANCED_FACE('',(#488),#517,.F.);
#757=ADVANCED_FACE('',(#489),#518,.F.);
#758=ADVANCED_FACE('',(#490),#519,.T.);
#759=ADVANCED_FACE('',(#491),#33,.F.);
#760=ADVANCED_FACE('',(#492),#520,.T.);
#761=ADVANCED_FACE('',(#493),#521,.T.);
#762=ADVANCED_FACE('',(#494),#34,.T.);
#763=ADVANCED_FACE('',(#495),#522,.T.);
#764=ADVANCED_FACE('',(#496),#523,.F.);
#765=ADVANCED_FACE('',(#497),#35,.F.);
#766=ADVANCED_FACE('',(#498),#524,.F.);
#767=ADVANCED_FACE('',(#499),#525,.T.);
#768=CLOSED_SHELL('',(#738,#739,#740,#741,#742,#743,#744,#745,#746,#747,
#748,#749,#750,#751,#752,#753,#754,#755,#756,#757,#758,#759,#760,#761,#762,
#763,#764,#765,#766,#767));
#769=MANIFOLD_SOLID_BREP('',#768);
#770=SHAPE_DEFINITION_REPRESENTATION(#1126,#771);
#771=SHAPE_REPRESENTATION('MF-MSMF050_40X-2',(#772),#1121);
#772=AXIS2_PLACEMENT_3D('',#965,#815,#816);
#773=AXIS2_PLACEMENT_3D('',#966,#817,#818);
#774=AXIS2_PLACEMENT_3D('',#975,#823,#824);
#775=AXIS2_PLACEMENT_3D('',#984,#829,#830);
#776=AXIS2_PLACEMENT_3D('',#990,#834,#835);
#777=AXIS2_PLACEMENT_3D('',#999,#840,#841);
#778=AXIS2_PLACEMENT_3D('',#1005,#845,#846);
#779=AXIS2_PLACEMENT_3D('',#1014,#851,#852);
#780=AXIS2_PLACEMENT_3D('',#1020,#856,#857);
#781=AXIS2_PLACEMENT_3D('',#1026,#861,#862);
#782=AXIS2_PLACEMENT_3D('',#1029,#864,#865);
#783=AXIS2_PLACEMENT_3D('',#1033,#867,#868);
#784=AXIS2_PLACEMENT_3D('',#1037,#870,#871);
#785=AXIS2_PLACEMENT_3D('',#1040,#873,#874);
#786=AXIS2_PLACEMENT_3D('',#1041,#875,#876);
#787=AXIS2_PLACEMENT_3D('',#1045,#879,#880);
#788=AXIS2_PLACEMENT_3D('',#1049,#883,#884);
#789=AXIS2_PLACEMENT_3D('',#1055,#888,#889);
#790=AXIS2_PLACEMENT_3D('',#1061,#893,#894);
#791=AXIS2_PLACEMENT_3D('',#1064,#897,#898);
#792=AXIS2_PLACEMENT_3D('',#1067,#901,#902);
#793=AXIS2_PLACEMENT_3D('',#1070,#905,#906);
#794=AXIS2_PLACEMENT_3D('',#1071,#907,#908);
#795=AXIS2_PLACEMENT_3D('',#1072,#909,#910);
#796=AXIS2_PLACEMENT_3D('',#1078,#914,#915);
#797=AXIS2_PLACEMENT_3D('',#1084,#919,#920);
#798=AXIS2_PLACEMENT_3D('',#1085,#921,#922);
#799=AXIS2_PLACEMENT_3D('',#1087,#924,#925);
#800=AXIS2_PLACEMENT_3D('',#1088,#926,#927);
#801=AXIS2_PLACEMENT_3D('',#1089,#928,#929);
#802=AXIS2_PLACEMENT_3D('',#1090,#930,#931);
#803=AXIS2_PLACEMENT_3D('',#1099,#936,#937);
#804=AXIS2_PLACEMENT_3D('',#1108,#942,#943);
#805=AXIS2_PLACEMENT_3D('',#1109,#944,#945);
#806=AXIS2_PLACEMENT_3D('',#1110,#946,#947);
#807=AXIS2_PLACEMENT_3D('',#1111,#948,#949);
#808=AXIS2_PLACEMENT_3D('',#1112,#950,#951);
#809=AXIS2_PLACEMENT_3D('',#1114,#953,#954);
#810=AXIS2_PLACEMENT_3D('',#1115,#955,#956);
#811=AXIS2_PLACEMENT_3D('',#1116,#957,#958);
#812=AXIS2_PLACEMENT_3D('',#1117,#959,#960);
#813=AXIS2_PLACEMENT_3D('',#1118,#961,#962);
#814=AXIS2_PLACEMENT_3D('',#1119,#963,#964);
#815=DIRECTION('',(0.,0.,1.));
#816=DIRECTION('',(1.,0.,0.));
#817=DIRECTION('',(-1.,0.,0.));
#818=DIRECTION('',(0.,0.,1.));
#819=DIRECTION('',(0.,0.,-1.));
#820=DIRECTION('',(0.,1.,0.));
#821=DIRECTION('',(0.,0.,-1.));
#822=DIRECTION('',(0.,1.,0.));
#823=DIRECTION('',(-1.,0.,0.));
#824=DIRECTION('',(0.,0.,1.));
#825=DIRECTION('',(0.,0.,-1.));
#826=DIRECTION('',(0.,1.,0.));
#827=DIRECTION('',(0.,0.,-1.));
#828=DIRECTION('',(0.,1.,0.));
#829=DIRECTION('',(0.,-1.,0.));
#830=DIRECTION('',(0.,0.,-1.));
#831=DIRECTION('',(-1.,0.,0.));
#832=DIRECTION('',(0.,0.,-1.));
#833=DIRECTION('',(-1.,0.,0.));
#834=DIRECTION('',(0.,-1.,0.));
#835=DIRECTION('',(0.,0.,-1.));
#836=DIRECTION('',(0.,0.,-1.));
#837=DIRECTION('',(-1.,0.,0.));
#838=DIRECTION('',(0.,0.,-1.));
#839=DIRECTION('',(1.,0.,0.));
#840=DIRECTION('',(1.,0.,0.));
#841=DIRECTION('',(0.,0.,-1.));
#842=DIRECTION('',(0.,-1.,0.));
#843=DIRECTION('',(0.,0.,-1.));
#844=DIRECTION('',(0.,1.,0.));
#845=DIRECTION('',(1.,0.,0.));
#846=DIRECTION('',(0.,0.,-1.));
#847=DIRECTION('',(0.,0.,-1.));
#848=DIRECTION('',(0.,-1.,0.));
#849=DIRECTION('',(0.,0.,-1.));
#850=DIRECTION('',(0.,1.,0.));
#851=DIRECTION('',(0.,1.,0.));
#852=DIRECTION('',(0.,0.,1.));
#853=DIRECTION('',(1.,0.,0.));
#854=DIRECTION('',(0.,0.,-1.));
#855=DIRECTION('',(-1.,0.,0.));
#856=DIRECTION('',(0.,1.,0.));
#857=DIRECTION('',(0.,0.,1.));
#858=DIRECTION('',(0.,0.,-1.));
#859=DIRECTION('',(1.,0.,0.));
#860=DIRECTION('',(1.,0.,0.));
#861=DIRECTION('',(0.,0.,-1.));
#862=DIRECTION('',(-1.,0.,0.));
#863=DIRECTION('',(0.,0.,-1.));
#864=DIRECTION('',(0.,0.,1.));
#865=DIRECTION('',(1.,0.,0.));
#866=DIRECTION('',(0.,0.,-1.));
#867=DIRECTION('',(0.,0.,1.));
#868=DIRECTION('',(1.,0.,0.));
#869=DIRECTION('',(0.,0.,-1.));
#870=DIRECTION('',(0.,0.,1.));
#871=DIRECTION('',(1.,0.,0.));
#872=DIRECTION('',(0.,0.,-1.));
#873=DIRECTION('',(0.,0.,1.));
#874=DIRECTION('',(1.,0.,0.));
#875=DIRECTION('',(-1.,0.,0.));
#876=DIRECTION('',(0.,0.,1.));
#877=DIRECTION('',(0.,1.,0.));
#878=DIRECTION('',(0.,0.,-1.));
#879=DIRECTION('',(-1.,0.,0.));
#880=DIRECTION('',(0.,0.,1.));
#881=DIRECTION('',(0.,0.,-1.));
#882=DIRECTION('',(0.,1.,0.));
#883=DIRECTION('',(1.,0.,0.));
#884=DIRECTION('',(0.,0.,-1.));
#885=DIRECTION('',(0.,0.,-1.));
#886=DIRECTION('',(0.,-1.,0.));
#887=DIRECTION('',(0.,0.,-1.));
#888=DIRECTION('',(1.,0.,0.));
#889=DIRECTION('',(0.,0.,-1.));
#890=DIRECTION('',(0.,0.,-1.));
#891=DIRECTION('',(0.,-1.,0.));
#892=DIRECTION('',(0.,0.,-1.));
#893=DIRECTION('',(0.,1.,0.));
#894=DIRECTION('',(0.,0.,1.));
#895=DIRECTION('',(1.,0.,0.));
#896=DIRECTION('',(1.,0.,0.));
#897=DIRECTION('',(0.,-1.,0.));
#898=DIRECTION('',(0.,0.,-1.));
#899=DIRECTION('',(-1.,0.,0.));
#900=DIRECTION('',(-1.,0.,0.));
#901=DIRECTION('',(0.,0.,1.));
#902=DIRECTION('',(1.,0.,0.));
#903=DIRECTION('',(-1.33440267382831E-16,-1.,0.));
#904=DIRECTION('',(1.33440267382831E-16,-1.,0.));
#905=DIRECTION('',(0.,0.,1.));
#906=DIRECTION('',(1.,0.,0.));
#907=DIRECTION('',(0.,0.,1.));
#908=DIRECTION('',(1.,0.,0.));
#909=DIRECTION('',(-1.,0.,0.));
#910=DIRECTION('',(0.,0.,1.));
#911=DIRECTION('',(0.,1.,0.));
#912=DIRECTION('',(0.,0.,-1.));
#913=DIRECTION('',(0.,1.,0.));
#914=DIRECTION('',(-1.,0.,0.));
#915=DIRECTION('',(0.,0.,1.));
#916=DIRECTION('',(0.,1.,0.));
#917=DIRECTION('',(0.,1.,0.));
#918=DIRECTION('',(0.,0.,-1.));
#919=DIRECTION('',(0.,0.,-1.));
#920=DIRECTION('',(-1.,0.,0.));
#921=DIRECTION('',(0.,0.,-1.));
#922=DIRECTION('',(1.,0.,0.));
#923=DIRECTION('',(1.33440267382831E-16,-1.,0.));
#924=DIRECTION('',(0.,0.,-1.));
#925=DIRECTION('',(-1.,0.,0.));
#926=DIRECTION('',(0.,0.,-1.));
#927=DIRECTION('',(1.,0.,0.));
#928=DIRECTION('',(0.,0.,-1.));
#929=DIRECTION('',(-1.,0.,0.));
#930=DIRECTION('',(-1.,0.,0.));
#931=DIRECTION('',(0.,0.,1.));
#932=DIRECTION('',(0.,1.,0.));
#933=DIRECTION('',(0.,0.,-1.));
#934=DIRECTION('',(0.,1.,0.));
#935=DIRECTION('',(0.,0.,-1.));
#936=DIRECTION('',(-1.,0.,0.));
#937=DIRECTION('',(0.,0.,1.));
#938=DIRECTION('',(0.,1.,0.));
#939=DIRECTION('',(0.,0.,-1.));
#940=DIRECTION('',(0.,1.,0.));
#941=DIRECTION('',(0.,0.,-1.));
#942=DIRECTION('',(0.,0.,-1.));
#943=DIRECTION('',(-1.,0.,0.));
#944=DIRECTION('',(0.,0.,-1.));
#945=DIRECTION('',(-1.,0.,0.));
#946=DIRECTION('',(0.,0.,-1.));
#947=DIRECTION('',(-1.,0.,0.));
#948=DIRECTION('',(0.,0.,-1.));
#949=DIRECTION('',(-1.,0.,0.));
#950=DIRECTION('',(0.,0.,1.));
#951=DIRECTION('',(1.,0.,0.));
#952=DIRECTION('',(-1.33440267382831E-16,-1.,0.));
#953=DIRECTION('',(0.,0.,1.));
#954=DIRECTION('',(-1.,0.,0.));
#955=DIRECTION('',(0.,0.,1.));
#956=DIRECTION('',(1.,0.,0.));
#957=DIRECTION('',(0.,0.,1.));
#958=DIRECTION('',(-1.,0.,0.));
#959=DIRECTION('',(0.,0.,-1.));
#960=DIRECTION('',(-1.,0.,0.));
#961=DIRECTION('',(1.,1.33440267382831E-16,0.));
#962=DIRECTION('',(-1.33440267382831E-16,1.,0.));
#963=DIRECTION('',(1.,-1.33440267382831E-16,0.));
#964=DIRECTION('',(1.33440267382831E-16,1.,0.));
#965=CARTESIAN_POINT('',(0.,0.,0.));
#966=CARTESIAN_POINT('',(2.25,-1.625,0.325));
#967=CARTESIAN_POINT('',(2.25,-1.625,0.325));
#968=CARTESIAN_POINT('',(2.25,-1.625,0.356470120125056));
#969=CARTESIAN_POINT('',(2.25,-1.625,0.325));
#970=CARTESIAN_POINT('',(2.25,-1.625,0.325));
#971=CARTESIAN_POINT('',(2.25,-0.509266602038907,0.325));
#972=CARTESIAN_POINT('',(2.25,-0.509266602038907,0.356470120125056));
#973=CARTESIAN_POINT('',(2.25,-0.509266602038907,0.356470120125056));
#974=CARTESIAN_POINT('',(2.25,-1.625,0.356470120125056));
#975=CARTESIAN_POINT('',(2.25,-1.625,0.325));
#976=CARTESIAN_POINT('',(2.25,0.509266602038907,0.356470120125056));
#977=CARTESIAN_POINT('',(2.25,0.509266602038907,0.325));
#978=CARTESIAN_POINT('',(2.25,0.509266602038907,0.356470120125056));
#979=CARTESIAN_POINT('',(2.25,-1.625,0.325));
#980=CARTESIAN_POINT('',(2.25,1.625,0.325));
#981=CARTESIAN_POINT('',(2.25,1.625,0.325));
#982=CARTESIAN_POINT('',(2.25,1.625,0.356470120125056));
#983=CARTESIAN_POINT('',(2.25,0.509266602038907,0.356470120125056));
#984=CARTESIAN_POINT('',(2.25,1.625,0.325));
#985=CARTESIAN_POINT('',(2.25,1.625,0.325));
#986=CARTESIAN_POINT('',(1.65,1.625,0.325));
#987=CARTESIAN_POINT('',(1.65,1.625,0.356470120125056));
#988=CARTESIAN_POINT('',(1.65,1.625,0.356470120125056));
#989=CARTESIAN_POINT('',(2.25,1.625,0.356470120125056));
#990=CARTESIAN_POINT('',(2.25,1.625,0.325));
#991=CARTESIAN_POINT('',(-1.65,1.625,0.356470120125056));
#992=CARTESIAN_POINT('',(-1.65,1.625,0.356470120125056));
#993=CARTESIAN_POINT('',(-1.65,1.625,0.325));
#994=CARTESIAN_POINT('',(2.25,1.625,0.325));
#995=CARTESIAN_POINT('',(-2.25,1.625,0.325));
#996=CARTESIAN_POINT('',(-2.25,1.625,0.325));
#997=CARTESIAN_POINT('',(-2.25,1.625,0.356470120125056));
#998=CARTESIAN_POINT('',(-1.65,1.625,0.356470120125056));
#999=CARTESIAN_POINT('',(-2.25,1.625,0.325));
#1000=CARTESIAN_POINT('',(-2.25,1.625,0.325));
#1001=CARTESIAN_POINT('',(-2.25,0.509266602038907,0.325));
#1002=CARTESIAN_POINT('',(-2.25,0.509266602038907,0.356470120125056));
#1003=CARTESIAN_POINT('',(-2.25,0.509266602038907,0.356470120125056));
#1004=CARTESIAN_POINT('',(-2.25,1.625,0.356470120125056));
#1005=CARTESIAN_POINT('',(-2.25,1.625,0.325));
#1006=CARTESIAN_POINT('',(-2.25,-0.509266602038907,0.356470120125056));
#1007=CARTESIAN_POINT('',(-2.25,-0.509266602038907,0.356470120125056));
#1008=CARTESIAN_POINT('',(-2.25,-0.509266602038907,0.325));
#1009=CARTESIAN_POINT('',(-2.25,1.625,0.325));
#1010=CARTESIAN_POINT('',(-2.25,-1.625,0.325));
#1011=CARTESIAN_POINT('',(-2.25,-1.625,0.325));
#1012=CARTESIAN_POINT('',(-2.25,-1.625,0.356470120125056));
#1013=CARTESIAN_POINT('',(-2.25,-0.509266602038907,0.356470120125056));
#1014=CARTESIAN_POINT('',(-2.25,-1.625,0.325));
#1015=CARTESIAN_POINT('',(-2.25,-1.625,0.325));
#1016=CARTESIAN_POINT('',(-1.65,-1.625,0.325));
#1017=CARTESIAN_POINT('',(-1.65,-1.625,0.356470120125056));
#1018=CARTESIAN_POINT('',(-1.65,-1.625,0.356470120125056));
#1019=CARTESIAN_POINT('',(-2.25,-1.625,0.356470120125056));
#1020=CARTESIAN_POINT('',(-2.25,-1.625,0.325));
#1021=CARTESIAN_POINT('',(1.65,-1.625,0.356470120125056));
#1022=CARTESIAN_POINT('',(1.65,-1.625,0.356470120125056));
#1023=CARTESIAN_POINT('',(1.65,-1.625,0.325));
#1024=CARTESIAN_POINT('',(-2.25,-1.625,0.325));
#1025=CARTESIAN_POINT('',(1.65,-1.625,0.356470120125056));
#1026=CARTESIAN_POINT('',(2.25,0.,0.356470120125056));
#1027=CARTESIAN_POINT('',(2.25,0.509266602038907,0.356470120125056));
#1028=CARTESIAN_POINT('',(2.25,0.509266602038907,-0.325));
#1029=CARTESIAN_POINT('',(2.25,0.,0.356470120125056));
#1030=CARTESIAN_POINT('',(2.27495790514677,0.508654671582735,0.356470120125056));
#1031=CARTESIAN_POINT('',(2.27495790514677,0.508654671582735,0.356470120125056));
#1032=CARTESIAN_POINT('',(2.27495790514677,0.508654671582735,-0.356470120125056));
#1033=CARTESIAN_POINT('',(2.25,0.,-0.356470120125056));
#1034=CARTESIAN_POINT('',(2.27495790514677,-0.508654671582735,-0.356470120125056));
#1035=CARTESIAN_POINT('',(2.27495790514677,-0.508654671582735,0.356470120125056));
#1036=CARTESIAN_POINT('',(2.27495790514677,-0.508654671582735,0.356470120125056));
#1037=CARTESIAN_POINT('',(2.25,0.,0.356470120125056));
#1038=CARTESIAN_POINT('',(2.25,-0.509266602038907,0.356470120125056));
#1039=CARTESIAN_POINT('',(2.25,-0.509266602038907,-0.325));
#1040=CARTESIAN_POINT('',(2.25,0.,-0.325));
#1041=CARTESIAN_POINT('',(2.25,-1.625,0.325));
#1042=CARTESIAN_POINT('',(2.25,-1.625,-0.325));
#1043=CARTESIAN_POINT('',(2.25,1.625,-0.325));
#1044=CARTESIAN_POINT('',(2.25,1.625,0.325));
#1045=CARTESIAN_POINT('',(2.25,-1.625,0.325));
#1046=CARTESIAN_POINT('',(2.25,-1.625,0.325));
#1047=CARTESIAN_POINT('',(2.25,-1.625,-0.325));
#1048=CARTESIAN_POINT('',(2.25,-1.625,-0.325));
#1049=CARTESIAN_POINT('',(-2.25,1.625,0.325));
#1050=CARTESIAN_POINT('',(-2.25,-0.509266602038907,0.356470120125056));
#1051=CARTESIAN_POINT('',(-2.25,-0.509266602038907,-0.325));
#1052=CARTESIAN_POINT('',(-2.25,1.625,-0.325));
#1053=CARTESIAN_POINT('',(-2.25,-1.625,-0.325));
#1054=CARTESIAN_POINT('',(-2.25,-1.625,0.325));
#1055=CARTESIAN_POINT('',(-2.25,1.625,0.325));
#1056=CARTESIAN_POINT('',(-2.25,1.625,0.325));
#1057=CARTESIAN_POINT('',(-2.25,1.625,-0.325));
#1058=CARTESIAN_POINT('',(-2.25,1.625,-0.325));
#1059=CARTESIAN_POINT('',(-2.25,0.509266602038907,-0.325));
#1060=CARTESIAN_POINT('',(-2.25,0.509266602038907,0.356470120125056));
#1061=CARTESIAN_POINT('',(-2.25,-1.625,0.325));
#1062=CARTESIAN_POINT('',(-2.25,-1.625,-0.325));
#1063=CARTESIAN_POINT('',(-2.25,-1.625,0.325));
#1064=CARTESIAN_POINT('',(2.25,1.625,0.325));
#1065=CARTESIAN_POINT('',(2.25,1.625,-0.325));
#1066=CARTESIAN_POINT('',(2.25,1.625,0.325));
#1067=CARTESIAN_POINT('',(0.,0.,0.325));
#1068=CARTESIAN_POINT('',(-1.65,1.625,0.325));
#1069=CARTESIAN_POINT('',(1.65,1.625,0.325));
#1070=CARTESIAN_POINT('',(0.,0.,-0.325));
#1071=CARTESIAN_POINT('',(-2.25,0.,-0.325));
#1072=CARTESIAN_POINT('',(2.27495790514677,-0.34983635333662,0.356470120125056));
#1073=CARTESIAN_POINT('',(2.27495790514677,-0.34983635333662,-0.356470120125056));
#1074=CARTESIAN_POINT('',(2.27495790514677,-0.34983635333662,-0.356470120125056));
#1075=CARTESIAN_POINT('',(2.27495790514677,-0.34983635333662,0.356470120125056));
#1076=CARTESIAN_POINT('',(2.27495790514677,-0.34983635333662,0.356470120125056));
#1077=CARTESIAN_POINT('',(2.27495790514677,-0.34983635333662,0.356470120125056));
#1078=CARTESIAN_POINT('',(2.27495790514677,0.508654671582735,0.356470120125056));
#1079=CARTESIAN_POINT('',(2.27495790514677,0.508654671582735,-0.356470120125056));
#1080=CARTESIAN_POINT('',(2.27495790514677,0.34983635333662,-0.356470120125056));
#1081=CARTESIAN_POINT('',(2.27495790514677,0.508654671582735,0.356470120125056));
#1082=CARTESIAN_POINT('',(2.27495790514677,0.34983635333662,0.356470120125056));
#1083=CARTESIAN_POINT('',(2.27495790514677,0.34983635333662,0.356470120125056));
#1084=CARTESIAN_POINT('',(2.25,0.,0.356470120125056));
#1085=CARTESIAN_POINT('',(2.25,0.,0.356470120125056));
#1086=CARTESIAN_POINT('',(1.65,1.625,0.356470120125056));
#1087=CARTESIAN_POINT('',(2.25,0.,-0.356470120125056));
#1088=CARTESIAN_POINT('',(2.25,0.,-0.356470120125056));
#1089=CARTESIAN_POINT('',(2.25,0.,1.40043073219789));
#1090=CARTESIAN_POINT('',(-2.27495790514677,-0.34983635333662,0.356470120125056));
#1091=CARTESIAN_POINT('',(-2.27495790514677,-0.34983635333662,-0.356470120125056));
#1092=CARTESIAN_POINT('',(-2.27495790514677,-0.508654671582735,-0.356470120125056));
#1093=CARTESIAN_POINT('',(-2.27495790514677,-0.34983635333662,-0.356470120125056));
#1094=CARTESIAN_POINT('',(-2.27495790514677,-0.508654671582735,0.356470120125056));
#1095=CARTESIAN_POINT('',(-2.27495790514677,-0.508654671582735,0.356470120125056));
#1096=CARTESIAN_POINT('',(-2.27495790514677,-0.34983635333662,0.356470120125056));
#1097=CARTESIAN_POINT('',(-2.27495790514677,-0.34983635333662,0.356470120125056));
#1098=CARTESIAN_POINT('',(-2.27495790514677,-0.34983635333662,0.356470120125056));
#1099=CARTESIAN_POINT('',(-2.27495790514677,0.508654671582735,0.356470120125056));
#1100=CARTESIAN_POINT('',(-2.27495790514677,0.508654671582735,-0.356470120125056));
#1101=CARTESIAN_POINT('',(-2.27495790514677,0.34983635333662,-0.356470120125056));
#1102=CARTESIAN_POINT('',(-2.27495790514677,0.508654671582735,-0.356470120125056));
#1103=CARTESIAN_POINT('',(-2.27495790514677,0.34983635333662,0.356470120125056));
#1104=CARTESIAN_POINT('',(-2.27495790514677,0.34983635333662,0.356470120125056));
#1105=CARTESIAN_POINT('',(-2.27495790514677,0.508654671582735,0.356470120125056));
#1106=CARTESIAN_POINT('',(-2.27495790514677,0.508654671582735,0.356470120125056));
#1107=CARTESIAN_POINT('',(-2.27495790514677,0.508654671582735,0.356470120125056));
#1108=CARTESIAN_POINT('',(-2.25,0.,0.356470120125056));
#1109=CARTESIAN_POINT('',(-2.25,0.,0.356470120125056));
#1110=CARTESIAN_POINT('',(-2.25,0.,-0.356470120125056));
#1111=CARTESIAN_POINT('',(-2.25,0.,0.356470120125056));
#1112=CARTESIAN_POINT('',(-2.25,0.,0.356470120125056));
#1113=CARTESIAN_POINT('',(-1.65,1.625,0.356470120125056));
#1114=CARTESIAN_POINT('',(-2.25,0.,0.356470120125056));
#1115=CARTESIAN_POINT('',(-2.25,0.,-0.356470120125056));
#1116=CARTESIAN_POINT('',(-2.25,0.,-0.356470120125056));
#1117=CARTESIAN_POINT('',(-2.25,0.,1.40043073219789));
#1118=CARTESIAN_POINT('',(1.65,1.625,0.356470120125056));
#1119=CARTESIAN_POINT('',(-1.65,1.625,0.356470120125056));
#1120=MECHANICAL_DESIGN_GEOMETRIC_PRESENTATION_REPRESENTATION('',(#526,
#527,#528,#529,#530,#531,#532,#533,#534,#535,#536,#537,#538,#539,#540,#541,
#542,#543,#544,#545,#546,#547,#548,#549,#550,#551,#552,#553,#554,#555),
#1121);
#1121=(
GEOMETRIC_REPRESENTATION_CONTEXT(3)
GLOBAL_UNCERTAINTY_ASSIGNED_CONTEXT((#1122))
GLOBAL_UNIT_ASSIGNED_CONTEXT((#1125,#1124,#1123))
REPRESENTATION_CONTEXT('MF-MSMF050_40X-2','TOP_LEVEL_ASSEMBLY_PART')
);
#1122=UNCERTAINTY_MEASURE_WITH_UNIT(LENGTH_MEASURE(0.005),#1125,
'DISTANCE_ACCURACY_VALUE','Maximum Tolerance applied to model');
#1123=(
NAMED_UNIT(*)
SI_UNIT($,.STERADIAN.)
SOLID_ANGLE_UNIT()
);
#1124=(
NAMED_UNIT(*)
PLANE_ANGLE_UNIT()
SI_UNIT($,.RADIAN.)
);
#1125=(
LENGTH_UNIT()
NAMED_UNIT(*)
SI_UNIT(.MILLI.,.METRE.)
);
#1126=PRODUCT_DEFINITION_SHAPE('','',#1127);
#1127=PRODUCT_DEFINITION('','',#1129,#1128);
#1128=PRODUCT_DEFINITION_CONTEXT('',#1135,'design');
#1129=PRODUCT_DEFINITION_FORMATION_WITH_SPECIFIED_SOURCE('','',#1131,
 .NOT_KNOWN.);
#1130=PRODUCT_RELATED_PRODUCT_CATEGORY('','',(#1131));
#1131=PRODUCT('MF-MSMF050_40X-2','MF-MSMF050_40X-2','MF-MSMF050_40X-2',
(#1133));
#1132=PRODUCT_CATEGORY('','');
#1133=PRODUCT_CONTEXT('',#1135,'mechanical');
#1134=APPLICATION_PROTOCOL_DEFINITION('international standard',
'automotive_design',2010,#1135);
#1135=APPLICATION_CONTEXT(
'core data for automotive mechanical design processes');
ENDSEC;
END-ISO-10303-21;
