ISO-10303-21;
HEADER;
FILE_DESCRIPTION (( 'STEP AP214' ),
    '1' );
FILE_NAME ('NTC0201.step',
    '2025-10-18T15:08:37',
    ( '' ),
    ( '' ),
    'SwSTEP 2.0',
    'SolidWorks 2025',
    '' );
FILE_SCHEMA (( 'AUTOMOTIVE_DESIGN' ));
ENDSEC;

DATA;
#1 = PLANE ( 'NONE',  #827 ) ;
#2 = AXIS2_PLACEMENT_3D ( 'NONE', #112, #319, #630 ) ;
#3 = VERTEX_POINT ( 'NONE', #163 ) ;
#4 = LINE ( 'NONE', #665, #684 ) ;
#5 = PRODUCT_CONTEXT ( 'NONE', #672, 'mechanical' ) ;
#6 = EDGE_CURVE ( 'NONE', #490, #754, #428, .T. ) ;
#7 = DIRECTION ( 'NONE',  ( 0.000000000000000000, 0.000000000000000000, 1.000000000000000000 ) ) ;
#8 = VERTEX_POINT ( 'NONE', #400 ) ;
#9 = CARTESIAN_POINT ( 'NONE',  ( 0.03300000000000000155, 0.3300000000000000155, 0.2969999999999999862 ) ) ;
#10 = PRODUCT_DEFINITION ( 'UNKNOWN', '', #403, #566 ) ;
#11 = DIRECTION ( 'NONE',  ( 0.000000000000000000, 0.000000000000000000, 1.000000000000000000 ) ) ;
#12 = VECTOR ( 'NONE', #7, 1000.000000000000000 ) ;
#13 = FACE_OUTER_BOUND ( 'NONE', #368, .T. ) ;
#14 = EDGE_LOOP ( 'NONE', ( #44, #603, #71, #364 ) ) ;
#15 = STYLED_ITEM ( 'NONE', ( #353 ), #715 ) ;
#16 = DIRECTION ( 'NONE',  ( 1.000000000000000000, 0.000000000000000000, 0.000000000000000000 ) ) ;
#17 = APPLICATION_PROTOCOL_DEFINITION ( 'draft international standard', 'automotive_design', 1998, #144 ) ;
#18 = PLANE ( 'NONE',  #233 ) ;
#19 = ORIENTED_EDGE ( 'NONE', *, *, #420, .T. ) ;
#20 = FACE_OUTER_BOUND ( 'NONE', #811, .T. ) ;
#21 = ORIENTED_EDGE ( 'NONE', *, *, #6, .T. ) ;
#22 = ADVANCED_FACE ( 'NONE', ( #448 ), #117, .T. ) ;
#23 = EDGE_CURVE ( 'NONE', #29, #561, #130, .T. ) ;
#24 = CARTESIAN_POINT ( 'NONE',  ( 0.03300000000000000155, 0.000000000000000000, 0.03300000000000000155 ) ) ;
#25 = VERTEX_POINT ( 'NONE', #395 ) ;
#26 = AXIS2_PLACEMENT_3D ( 'NONE', #397, #716, #581 ) ;
#27 = FILL_AREA_STYLE_COLOUR ( '', #465 ) ;
#28 = DIRECTION ( 'NONE',  ( 1.000000000000000000, 0.000000000000000000, 0.000000000000000000 ) ) ;
#29 = VERTEX_POINT ( 'NONE', #711 ) ;
#30 = PRODUCT_DEFINITION_FORMATION_WITH_SPECIFIED_SOURCE ( 'ANY', '', #648, .NOT_KNOWN. ) ;
#31 = ITEM_DEFINED_TRANSFORMATION ( 'NONE', 'NONE', #522,  #155 ) ;
#32 = FILL_AREA_STYLE_COLOUR ( '', #275 ) ;
#33 = EDGE_CURVE ( 'NONE', #754, #832, #341, .T. ) ;
#34 = ORIENTED_EDGE ( 'NONE', *, *, #312, .T. ) ;
#35 =( LENGTH_UNIT ( ) NAMED_UNIT ( * ) SI_UNIT ( .MILLI., .METRE. ) );
#36 = EDGE_CURVE ( 'NONE', #614, #490, #518, .T. ) ;
#37 =( NAMED_UNIT ( * ) SI_UNIT ( $, .STERADIAN. ) SOLID_ANGLE_UNIT ( ) );
#38 = VERTEX_POINT ( 'NONE', #458 ) ;
#39 = PRODUCT_DEFINITION_SHAPE ( 'NONE', 'NONE',  #860 ) ;
#40 = CARTESIAN_POINT ( 'NONE',  ( 0.000000000000000000, 0.000000000000000000, 0.000000000000000000 ) ) ;
#41 = COLOUR_RGB ( '',0.5019607843137254832, 0.5019607843137254832, 0.5019607843137254832 ) ;
#42 = ORIENTED_EDGE ( 'NONE', *, *, #524, .F. ) ;
#43 = CARTESIAN_POINT ( 'NONE',  ( 0.000000000000000000, 0.3300000000000000155, 0.000000000000000000 ) ) ;
#44 = ORIENTED_EDGE ( 'NONE', *, *, #524, .T. ) ;
#45 = PRODUCT_DEFINITION ( 'UNKNOWN', '', #576, #829 ) ;
#46 = LINE ( 'NONE', #309, #585 ) ;
#47 = ORIENTED_EDGE ( 'NONE', *, *, #496, .F. ) ;
#48 = CARTESIAN_POINT ( 'NONE',  ( 0.1499999999999999944, 0.000000000000000000, 0.3300000000000000155 ) ) ;
#49 = DIRECTION ( 'NONE',  ( 1.000000000000000000, 0.000000000000000000, 0.000000000000000000 ) ) ;
#50 =( GEOMETRIC_REPRESENTATION_CONTEXT ( 3 ) GLOBAL_UNCERTAINTY_ASSIGNED_CONTEXT ( ( #692 ) ) GLOBAL_UNIT_ASSIGNED_CONTEXT ( ( #35, #615, #833 ) ) REPRESENTATION_CONTEXT ( 'NONE', 'WORKASPACE' ) );
#51 = DIRECTION ( 'NONE',  ( 1.000000000000000000, 0.000000000000000000, 0.000000000000000000 ) ) ;
#52 = ORIENTED_EDGE ( 'NONE', *, *, #59, .T. ) ;
#53 = DIRECTION ( 'NONE',  ( 0.000000000000000000, 0.000000000000000000, 1.000000000000000000 ) ) ;
#54 = FILL_AREA_STYLE_COLOUR ( '', #179 ) ;
#55 = DIRECTION ( 'NONE',  ( 0.000000000000000000, 0.000000000000000000, 1.000000000000000000 ) ) ;
#56 = EDGE_CURVE ( 'NONE', #735, #8, #510, .T. ) ;
#57 = SURFACE_STYLE_USAGE ( .BOTH. , #788 ) ;
#58 = CARTESIAN_POINT ( 'NONE',  ( 0.03300000000000000155, 0.000000000000000000, 0.03300000000000000155 ) ) ;
#59 = EDGE_CURVE ( 'NONE', #537, #438, #454, .T. ) ;
#60 = SURFACE_STYLE_FILL_AREA ( #390 ) ;
#61 = PRESENTATION_STYLE_ASSIGNMENT (( #57 ) ) ;
#62 = FACE_OUTER_BOUND ( 'NONE', #407, .T. ) ;
#63 = VECTOR ( 'NONE', #613, 1000.000000000000000 ) ;
#64 =( NAMED_UNIT ( * ) SI_UNIT ( $, .STERADIAN. ) SOLID_ANGLE_UNIT ( ) );
#65 = AXIS2_PLACEMENT_3D ( 'NONE', #836, #374, #629 ) ;
#66 = CARTESIAN_POINT ( 'NONE',  ( 0.03300000000000000155, 0.000000000000000000, 0.2969999999999999862 ) ) ;
#67 =( GEOMETRIC_REPRESENTATION_CONTEXT ( 3 ) GLOBAL_UNCERTAINTY_ASSIGNED_CONTEXT ( ( #283 ) ) GLOBAL_UNIT_ASSIGNED_CONTEXT ( ( #781, #727, #271 ) ) REPRESENTATION_CONTEXT ( 'NONE', 'WORKASPACE' ) );
#68 = CARTESIAN_POINT ( 'NONE',  ( 0.03300000000000000155, 0.000000000000000000, 0.03300000000000000155 ) ) ;
#69 = SURFACE_STYLE_USAGE ( .BOTH. , #550 ) ;
#70 = AXIS2_PLACEMENT_3D ( 'NONE', #500, #698, #382 ) ;
#71 = ORIENTED_EDGE ( 'NONE', *, *, #705, .F. ) ;
#72 =( LENGTH_UNIT ( ) NAMED_UNIT ( * ) SI_UNIT ( .MILLI., .METRE. ) );
#73 = EDGE_CURVE ( 'NONE', #651, #438, #654, .T. ) ;
#74 = DIRECTION ( 'NONE',  ( 0.000000000000000000, 0.000000000000000000, 1.000000000000000000 ) ) ;
#75 = APPLICATION_PROTOCOL_DEFINITION ( 'draft international standard', 'automotive_design', 1998, #658 ) ;
#76 = FACE_OUTER_BOUND ( 'NONE', #14, .T. ) ;
#77 = VERTEX_POINT ( 'NONE', #583 ) ;
#78 = PLANE ( 'NONE',  #373 ) ;
#79 = APPLICATION_PROTOCOL_DEFINITION ( 'draft international standard', 'automotive_design', 1998, #771 ) ;
#80 = DIRECTION ( 'NONE',  ( 0.000000000000000000, 0.000000000000000000, 1.000000000000000000 ) ) ;
#81 = VERTEX_POINT ( 'NONE', #184 ) ;
#82 = VECTOR ( 'NONE', #635, 1000.000000000000000 ) ;
#83 = DIRECTION ( 'NONE',  ( 0.000000000000000000, 0.000000000000000000, 1.000000000000000000 ) ) ;
#84 = PRODUCT_DEFINITION_CONTEXT ( 'detailed design', #839, 'design' ) ;
#85 = CONTEXT_DEPENDENT_SHAPE_REPRESENTATION ( #489, #39 ) ;
#86 = CARTESIAN_POINT ( 'NONE',  ( 0.03300000000000000155, 0.000000000000000000, 0.03300000000000000155 ) ) ;
#87 = ORIENTED_EDGE ( 'NONE', *, *, #362, .T. ) ;
#88 = ADVANCED_FACE ( 'NONE', ( #446 ), #1, .F. ) ;
#89 = DIRECTION ( 'NONE',  ( 0.000000000000000000, 0.000000000000000000, 1.000000000000000000 ) ) ;
#90 = ORIENTED_EDGE ( 'NONE', *, *, #578, .T. ) ;
#91 = CARTESIAN_POINT ( 'NONE',  ( 0.3300000000000000155, 0.000000000000000000, 0.03300000000000000155 ) ) ;
#92 = CARTESIAN_POINT ( 'NONE',  ( 0.000000000000000000, 0.000000000000000000, 0.3300000000000000155 ) ) ;
#93 = ORIENTED_EDGE ( 'NONE', *, *, #784, .T. ) ;
#94 = AXIS2_PLACEMENT_3D ( 'NONE', #92, #80, #363 ) ;
#95 = VECTOR ( 'NONE', #150, 1000.000000000000000 ) ;
#96 = CARTESIAN_POINT ( 'NONE',  ( 0.03300000000000000155, 0.000000000000000000, 0.2969999999999999862 ) ) ;
#97 = DIRECTION ( 'NONE',  ( 0.000000000000000000, 1.000000000000000000, 0.000000000000000000 ) ) ;
#98 = EDGE_LOOP ( 'NONE', ( #431, #476, #180, #270 ) ) ;
#99 = FILL_AREA_STYLE ('',( #32 ) ) ;
#100 = VERTEX_POINT ( 'NONE', #775 ) ;
#101 = CARTESIAN_POINT ( 'NONE',  ( 0.000000000000000000, 0.3300000000000000155, 0.3300000000000000155 ) ) ;
#102 = ORIENTED_EDGE ( 'NONE', *, *, #362, .F. ) ;
#103 = PRODUCT_DEFINITION_SHAPE ( 'NONE', 'NONE',  #10 ) ;
#104 = AXIS2_PLACEMENT_3D ( 'NONE', #387, #791, #846 ) ;
#105 = CARTESIAN_POINT ( 'NONE',  ( 0.000000000000000000, 0.000000000000000000, 0.03300000000000000155 ) ) ;
#106 = VECTOR ( 'NONE', #562, 1000.000000000000000 ) ;
#107 = FILL_AREA_STYLE ('',( #54 ) ) ;
#108 = ORIENTED_EDGE ( 'NONE', *, *, #23, .F. ) ;
#109 = EDGE_CURVE ( 'NONE', #490, #561, #320, .T. ) ;
#110 = CARTESIAN_POINT ( 'NONE',  ( 0.1499999999999999944, 0.3300000000000000155, 0.3300000000000000155 ) ) ;
#111 = AXIS2_PLACEMENT_3D ( 'NONE', #595, #11, #790 ) ;
#112 = CARTESIAN_POINT ( 'NONE',  ( -0.3150000000000000022, -0.1650000000000000078, 0.000000000000000000 ) ) ;
#113 = ORIENTED_EDGE ( 'NONE', *, *, #132, .T. ) ;
#114 = DIRECTION ( 'NONE',  ( 1.000000000000000000, 0.000000000000000000, 0.000000000000000000 ) ) ;
#115 = CARTESIAN_POINT ( 'NONE',  ( 0.000000000000000000, 0.3300000000000000155, 0.000000000000000000 ) ) ;
#116 =( NAMED_UNIT ( * ) SI_UNIT ( $, .STERADIAN. ) SOLID_ANGLE_UNIT ( ) );
#117 = PLANE ( 'NONE',  #274 ) ;
#118 = VECTOR ( 'NONE', #51, 1000.000000000000000 ) ;
#119 =( NAMED_UNIT ( * ) PLANE_ANGLE_UNIT ( ) SI_UNIT ( $, .RADIAN. ) );
#120 = PRESENTATION_LAYER_ASSIGNMENT (  '', '', ( #244 ) ) ;
#121 =( GEOMETRIC_REPRESENTATION_CONTEXT ( 3 ) GLOBAL_UNCERTAINTY_ASSIGNED_CONTEXT ( ( #818 ) ) GLOBAL_UNIT_ASSIGNED_CONTEXT ( ( #502, #704, #708 ) ) REPRESENTATION_CONTEXT ( 'NONE', 'WORKASPACE' ) );
#122 = DIRECTION ( 'NONE',  ( -0.000000000000000000, 1.000000000000000000, 0.000000000000000000 ) ) ;
#123 = DIRECTION ( 'NONE',  ( 0.000000000000000000, 0.000000000000000000, 1.000000000000000000 ) ) ;
#124 = DIRECTION ( 'NONE',  ( 1.000000000000000000, 0.000000000000000000, 0.000000000000000000 ) ) ;
#125 = CARTESIAN_POINT ( 'NONE',  ( 0.000000000000000000, 0.000000000000000000, 0.000000000000000000 ) ) ;
#126 = DIRECTION ( 'NONE',  ( 0.000000000000000000, 1.000000000000000000, 0.000000000000000000 ) ) ;
#127 = PRODUCT_DEFINITION_SHAPE ( 'NONE', 'NONE',  #859 ) ;
#128 =( LENGTH_UNIT ( ) NAMED_UNIT ( * ) SI_UNIT ( .MILLI., .METRE. ) );
#129 = LINE ( 'NONE', #456, #234 ) ;
#130 = LINE ( 'NONE', #252, #751 ) ;
#131 = ORIENTED_EDGE ( 'NONE', *, *, #505, .F. ) ;
#132 = EDGE_CURVE ( 'NONE', #342, #540, #266, .T. ) ;
#133 = CARTESIAN_POINT ( 'NONE',  ( 0.000000000000000000, 0.000000000000000000, 0.000000000000000000 ) ) ;
#134 = AXIS2_PLACEMENT_3D ( 'NONE', #539, #810, #142 ) ;
#135 =( NAMED_UNIT ( * ) PLANE_ANGLE_UNIT ( ) SI_UNIT ( $, .RADIAN. ) );
#136 = PRESENTATION_LAYER_ASSIGNMENT (  '', '', ( #15 ) ) ;
#137 = DIRECTION ( 'NONE',  ( 0.000000000000000000, 1.000000000000000000, 0.000000000000000000 ) ) ;
#138 = ADVANCED_FACE ( 'NONE', ( #327 ), #525, .F. ) ;
#139 = EDGE_LOOP ( 'NONE', ( #375, #310, #215, #507 ) ) ;
#140 = DIRECTION ( 'NONE',  ( 1.000000000000000000, 0.000000000000000000, 0.000000000000000000 ) ) ;
#141 = CARTESIAN_POINT ( 'NONE',  ( 0.03300000000000000155, 0.000000000000000000, 0.2969999999999999862 ) ) ;
#142 = DIRECTION ( 'NONE',  ( 1.000000000000000000, 0.000000000000000000, 0.000000000000000000 ) ) ;
#143 = ORIENTED_EDGE ( 'NONE', *, *, #693, .T. ) ;
#144 = APPLICATION_CONTEXT ( 'automotive_design' ) ;
#145 = LINE ( 'NONE', #347, #406 ) ;
#146 = APPLICATION_PROTOCOL_DEFINITION ( 'draft international standard', 'automotive_design', 1998, #277 ) ;
#147 = CARTESIAN_POINT ( 'NONE',  ( 0.03300000000000000155, 0.3300000000000000155, 0.03300000000000000155 ) ) ;
#148 = VERTEX_POINT ( 'NONE', #579 ) ;
#149 = SHAPE_REPRESENTATION ( 'Open CASCADE STEP translator 7.5 5.2.1.step_\X2\9ed88ba4\X0\', ( #478 ), #121 ) ;
#150 = DIRECTION ( 'NONE',  ( 1.000000000000000000, 0.000000000000000000, 0.000000000000000000 ) ) ;
#151 = ADVANCED_FACE ( 'NONE', ( #200 ), #650, .F. ) ;
#152 = DIRECTION ( 'NONE',  ( 0.000000000000000000, 0.000000000000000000, 1.000000000000000000 ) ) ;
#153 = STYLED_ITEM ( 'NONE', ( #259 ), #156 ) ;
#154 = ORIENTED_EDGE ( 'NONE', *, *, #505, .T. ) ;
#155 = AXIS2_PLACEMENT_3D ( 'NONE', #776, #262, #140 ) ;
#156 = MANIFOLD_SOLID_BREP ( 'Mark[1]', #567 ) ;
#157 = VERTEX_POINT ( 'NONE', #734 ) ;
#158 = AXIS2_PLACEMENT_3D ( 'NONE', #258, #520, #653 ) ;
#159 = FACE_OUTER_BOUND ( 'NONE', #747, .T. ) ;
#160 = ORIENTED_EDGE ( 'NONE', *, *, #33, .T. ) ;
#161 = ITEM_DEFINED_TRANSFORMATION ( 'NONE', 'NONE', #350,  #478 ) ;
#162 = LINE ( 'NONE', #430, #637 ) ;
#163 = CARTESIAN_POINT ( 'NONE',  ( 0.1499999999999999944, 0.000000000000000000, 0.03300000000000000155 ) ) ;
#164 = MECHANICAL_DESIGN_GEOMETRIC_PRESENTATION_REPRESENTATION (  '', ( #153 ), #556 ) ;
#165 = VECTOR ( 'NONE', #560, 1000.000000000000000 ) ;
#166 = LINE ( 'NONE', #221, #206 ) ;
#167 = LINE ( 'NONE', #324, #696 ) ;
#168 = ORIENTED_EDGE ( 'NONE', *, *, #496, .T. ) ;
#169 = DIRECTION ( 'NONE',  ( 0.000000000000000000, 0.000000000000000000, 1.000000000000000000 ) ) ;
#170 = CARTESIAN_POINT ( 'NONE',  ( 0.1499999999999999944, 0.000000000000000000, 0.000000000000000000 ) ) ;
#171 = EDGE_CURVE ( 'NONE', #640, #679, #724, .T. ) ;
#172 = EDGE_LOOP ( 'NONE', ( #412, #352, #113, #824 ) ) ;
#173 = CARTESIAN_POINT ( 'NONE',  ( 0.1499999999999999944, 0.000000000000000000, 0.000000000000000000 ) ) ;
#174 = EDGE_CURVE ( 'NONE', #614, #3, #281, .T. ) ;
#175 = FILL_AREA_STYLE ('',( #850 ) ) ;
#176 = ORIENTED_EDGE ( 'NONE', *, *, #33, .F. ) ;
#177 = LINE ( 'NONE', #173, #657 ) ;
#178 = AXIS2_PLACEMENT_3D ( 'NONE', #96, #83, #744 ) ;
#179 = COLOUR_RGB ( '',0.8274509803921568096, 0.8274509803921568096, 0.8274509803921568096 ) ;
#180 = ORIENTED_EDGE ( 'NONE', *, *, #840, .F. ) ;
#181 = LINE ( 'NONE', #245, #193 ) ;
#182 =( GEOMETRIC_REPRESENTATION_CONTEXT ( 3 ) GLOBAL_UNCERTAINTY_ASSIGNED_CONTEXT ( ( #605 ) ) GLOBAL_UNIT_ASSIGNED_CONTEXT ( ( #763, #183, #445 ) ) REPRESENTATION_CONTEXT ( 'NONE', 'WORKASPACE' ) );
#183 =( NAMED_UNIT ( * ) PLANE_ANGLE_UNIT ( ) SI_UNIT ( $, .RADIAN. ) );
#184 = CARTESIAN_POINT ( 'NONE',  ( 0.03300000000000000155, 0.000000000000000000, 0.2969999999999999862 ) ) ;
#185 = LINE ( 'NONE', #105, #165 ) ;
#186 = EDGE_CURVE ( 'NONE', #614, #29, #411, .T. ) ;
#187 = CARTESIAN_POINT ( 'NONE',  ( 0.03300000000000000155, 0.000000000000000000, 0.03300000000000000155 ) ) ;
#188 = APPLICATION_CONTEXT ( 'automotive_design' ) ;
#189 = SURFACE_STYLE_USAGE ( .BOTH. , #242 ) ;
#190 = DIRECTION ( 'NONE',  ( 1.000000000000000000, 0.000000000000000000, 0.000000000000000000 ) ) ;
#191 = FACE_OUTER_BOUND ( 'NONE', #303, .T. ) ;
#192 = PRODUCT_DEFINITION_SHAPE ( 'NONE', 'NONE',  #855 ) ;
#193 = VECTOR ( 'NONE', #632, 1000.000000000000000 ) ;
#194 = DIRECTION ( 'NONE',  ( 1.000000000000000000, 0.000000000000000000, 0.000000000000000000 ) ) ;
#195 = LINE ( 'NONE', #647, #398 ) ;
#196 = DIRECTION ( 'NONE',  ( -1.000000000000000000, 0.000000000000000000, 0.000000000000000000 ) ) ;
#197 =( LENGTH_UNIT ( ) NAMED_UNIT ( * ) SI_UNIT ( .MILLI., .METRE. ) );
#198 = CARTESIAN_POINT ( 'NONE',  ( 0.03300000000000000155, 0.000000000000000000, 0.03300000000000000155 ) ) ;
#199 = PRODUCT_RELATED_PRODUCT_CATEGORY ( 'part', '', ( #648 ) ) ;
#200 = FACE_OUTER_BOUND ( 'NONE', #98, .T. ) ;
#201 = ADVANCED_FACE ( 'NONE', ( #20 ), #211, .T. ) ;
#202 = SURFACE_STYLE_FILL_AREA ( #526 ) ;
#203 = DIRECTION ( 'NONE',  ( 1.000000000000000000, 0.000000000000000000, 0.000000000000000000 ) ) ;
#204 = CLOSED_SHELL ( 'NONE', ( #718, #138, #22, #201, #452, #216, #328, #264, #88, #151 ) ) ;
#205 = CARTESIAN_POINT ( 'NONE',  ( 0.000000000000000000, 0.000000000000000000, 0.000000000000000000 ) ) ;
#206 = VECTOR ( 'NONE', #477, 1000.000000000000000 ) ;
#207 = LINE ( 'NONE', #345, #778 ) ;
#208 = EDGE_LOOP ( 'NONE', ( #816, #838, #820, #371 ) ) ;
#209 = CARTESIAN_POINT ( 'NONE',  ( 0.000000000000000000, 0.000000000000000000, 0.000000000000000000 ) ) ;
#210 = DIRECTION ( 'NONE',  ( 1.000000000000000000, 0.000000000000000000, 0.000000000000000000 ) ) ;
#211 = PLANE ( 'NONE',  #739 ) ;
#212 = ORIENTED_EDGE ( 'NONE', *, *, #56, .T. ) ;
#213 = LINE ( 'NONE', #133, #95 ) ;
#214 = LINE ( 'NONE', #678, #288 ) ;
#215 = ORIENTED_EDGE ( 'NONE', *, *, #420, .F. ) ;
#216 = ADVANCED_FACE ( 'NONE', ( #76 ), #18, .F. ) ;
#217 = AXIS2_PLACEMENT_3D ( 'NONE', #147, #606, #602 ) ;
#218 = CARTESIAN_POINT ( 'NONE',  ( 0.000000000000000000, 0.000000000000000000, 0.000000000000000000 ) ) ;
#219 = VECTOR ( 'NONE', #499, 1000.000000000000000 ) ;
#220 = ORIENTED_EDGE ( 'NONE', *, *, #256, .T. ) ;
#221 = CARTESIAN_POINT ( 'NONE',  ( 0.000000000000000000, 0.000000000000000000, 0.3300000000000000155 ) ) ;
#222 = UNCERTAINTY_MEASURE_WITH_UNIT (LENGTH_MEASURE( 1.000000000000000082E-05 ), #461, 'distance_accuracy_value', 'NONE');
#223 = ORIENTED_EDGE ( 'NONE', *, *, #612, .F. ) ;
#224 = STYLED_ITEM ( 'NONE', ( #386 ), #597 ) ;
#225 = SURFACE_SIDE_STYLE ('',( #423 ) ) ;
#226 = EDGE_CURVE ( 'NONE', #534, #148, #355, .T. ) ;
#227 = PLANE ( 'NONE',  #544 ) ;
#228 = VERTEX_POINT ( 'NONE', #481 ) ;
#229 = APPLICATION_CONTEXT ( 'automotive_design' ) ;
#230 = DIRECTION ( 'NONE',  ( -0.000000000000000000, 1.000000000000000000, 0.000000000000000000 ) ) ;
#231 = VECTOR ( 'NONE', #462, 1000.000000000000000 ) ;
#232 = EDGE_LOOP ( 'NONE', ( #725, #750, #21, #160, #359, #419, #554, #703 ) ) ;
#233 = AXIS2_PLACEMENT_3D ( 'NONE', #421, #471, #608 ) ;
#234 = VECTOR ( 'NONE', #402, 1000.000000000000000 ) ;
#235 = PLANE ( 'NONE',  #766 ) ;
#236 = EDGE_LOOP ( 'NONE', ( #298, #609, #743, #278 ) ) ;
#237 = DIRECTION ( 'NONE',  ( 0.000000000000000000, 1.000000000000000000, 0.000000000000000000 ) ) ;
#238 = UNCERTAINTY_MEASURE_WITH_UNIT (LENGTH_MEASURE( 1.000000000000000082E-05 ), #128, 'distance_accuracy_value', 'NONE');
#239 = PRODUCT ( 'Mid Body_2.step_\X2\9ed88ba4\X0\', 'Mid Body_2.step_\X2\9ed88ba4\X0\', '', ( #5 ) ) ;
#240 = ADVANCED_FACE ( 'NONE', ( #159 ), #671, .F. ) ;
#241 = EDGE_LOOP ( 'NONE', ( #530, #501, #695, #721 ) ) ;
#242 = SURFACE_SIDE_STYLE ('',( #514 ) ) ;
#243 = ORIENTED_EDGE ( 'NONE', *, *, #852, .T. ) ;
#244 = STYLED_ITEM ( 'NONE', ( #557 ), #424 ) ;
#245 = CARTESIAN_POINT ( 'NONE',  ( 0.5969999999999999751, 0.000000000000000000, 0.03300000000000000155 ) ) ;
#246 = EDGE_LOOP ( 'NONE', ( #663, #220, #34, #598 ) ) ;
#247 = LINE ( 'NONE', #830, #569 ) ;
#248 =( GEOMETRIC_REPRESENTATION_CONTEXT ( 3 ) GLOBAL_UNCERTAINTY_ASSIGNED_CONTEXT ( ( #222 ) ) GLOBAL_UNIT_ASSIGNED_CONTEXT ( ( #461, #135, #399 ) ) REPRESENTATION_CONTEXT ( 'NONE', 'WORKASPACE' ) );
#249 = PRODUCT_RELATED_PRODUCT_CATEGORY ( 'part', '', ( #717 ) ) ;
#250 = CARTESIAN_POINT ( 'NONE',  ( 0.03300000000000000155, 0.000000000000000000, 0.03300000000000000155 ) ) ;
#251 = CARTESIAN_POINT ( 'NONE',  ( 0.000000000000000000, 0.000000000000000000, 0.000000000000000000 ) ) ;
#252 = CARTESIAN_POINT ( 'NONE',  ( 0.03300000000000000155, 0.3300000000000000155, 0.03300000000000000155 ) ) ;
#253 = DIRECTION ( 'NONE',  ( 1.000000000000000000, 0.000000000000000000, 0.000000000000000000 ) ) ;
#254 = PRODUCT_DEFINITION_SHAPE ( 'NONE', 'NONE',  #857 ) ;
#255 = VECTOR ( 'NONE', #642, 1000.000000000000000 ) ;
#256 = EDGE_CURVE ( 'NONE', #148, #38, #214, .T. ) ;
#257 = STYLED_ITEM ( 'NONE', ( #61 ), #260 ) ;
#258 = CARTESIAN_POINT ( 'NONE',  ( -0.1650000000000000078, -0.1650000000000000078, 0.2969999999999999862 ) ) ;
#259 = PRESENTATION_STYLE_ASSIGNMENT (( #69 ) ) ;
#260 = ADVANCED_BREP_SHAPE_REPRESENTATION ( '', ( #424, #478 ), #121 ) ;
#261 = ORIENTED_EDGE ( 'NONE', *, *, #306, .T. ) ;
#262 = DIRECTION ( 'NONE',  ( 0.000000000000000000, 0.000000000000000000, 1.000000000000000000 ) ) ;
#263 = LINE ( 'NONE', #460, #305 ) ;
#264 = ADVANCED_FACE ( 'NONE', ( #13 ), #358, .T. ) ;
#265 = MECHANICAL_DESIGN_GEOMETRIC_PRESENTATION_REPRESENTATION (  '', ( #224 ), #512 ) ;
#266 = LINE ( 'NONE', #574, #304 ) ;
#267 = CARTESIAN_POINT ( 'NONE',  ( 0.000000000000000000, 0.000000000000000000, 0.000000000000000000 ) ) ;
#268 = PRODUCT_CONTEXT ( 'NONE', #658, 'mechanical' ) ;
#269 = LINE ( 'NONE', #529, #427 ) ;
#270 = ORIENTED_EDGE ( 'NONE', *, *, #171, .T. ) ;
#271 =( NAMED_UNIT ( * ) SI_UNIT ( $, .STERADIAN. ) SOLID_ANGLE_UNIT ( ) );
#272 = SHAPE_REPRESENTATION ( 'Mid Body_2.step_\X2\9ed88ba4\X0\', ( #478 ), #67 ) ;
#273 = DIRECTION ( 'NONE',  ( 1.000000000000000000, 0.000000000000000000, 0.000000000000000000 ) ) ;
#274 = AXIS2_PLACEMENT_3D ( 'NONE', #250, #588, #137 ) ;
#275 = COLOUR_RGB ( '',0.8000000000000000444, 0.8000000000000000444, 0.8000000000000000444 ) ;
#276 = CARTESIAN_POINT ( 'NONE',  ( 0.03300000000000000155, 0.000000000000000000, 0.03300000000000000155 ) ) ;
#277 = APPLICATION_CONTEXT ( 'automotive_design' ) ;
#278 = ORIENTED_EDGE ( 'NONE', *, *, #349, .T. ) ;
#279 = DIRECTION ( 'NONE',  ( 0.000000000000000000, 0.000000000000000000, 1.000000000000000000 ) ) ;
#280 = SHAPE_DEFINITION_REPRESENTATION ( #826, #825 ) ;
#281 = LINE ( 'NONE', #276, #63 ) ;
#282 = ORIENTED_EDGE ( 'NONE', *, *, #256, .F. ) ;
#283 = UNCERTAINTY_MEASURE_WITH_UNIT (LENGTH_MEASURE( 1.000000000000000082E-05 ), #781, 'distance_accuracy_value', 'NONE');
#284 = DIRECTION ( 'NONE',  ( 0.000000000000000000, 1.000000000000000000, 0.000000000000000000 ) ) ;
#285 = ORIENTED_EDGE ( 'NONE', *, *, #349, .F. ) ;
#286 = LINE ( 'NONE', #817, #726 ) ;
#287 = ADVANCED_FACE ( 'NONE', ( #475 ), #667, .T. ) ;
#288 = VECTOR ( 'NONE', #89, 1000.000000000000000 ) ;
#289 = ORIENTED_EDGE ( 'NONE', *, *, #756, .F. ) ;
#290 = STYLED_ITEM ( 'NONE', ( #706 ), #762 ) ;
#291 = FILL_AREA_STYLE ('',( #27 ) ) ;
#292 = UNCERTAINTY_MEASURE_WITH_UNIT (LENGTH_MEASURE( 1.000000000000000082E-05 ), #197, 'distance_accuracy_value', 'NONE');
#293 = CARTESIAN_POINT ( 'NONE',  ( 0.5969999999999999751, 0.000000000000000000, 0.03300000000000000155 ) ) ;
#294 = ORIENTED_EDGE ( 'NONE', *, *, #643, .T. ) ;
#295 =( GEOMETRIC_REPRESENTATION_CONTEXT ( 3 ) GLOBAL_UNCERTAINTY_ASSIGNED_CONTEXT ( ( #504 ) ) GLOBAL_UNIT_ASSIGNED_CONTEXT ( ( #646, #394, #64 ) ) REPRESENTATION_CONTEXT ( 'NONE', 'WORKASPACE' ) );
#296 = CONTEXT_DEPENDENT_SHAPE_REPRESENTATION ( #831, #127 ) ;
#297 = FACE_OUTER_BOUND ( 'NONE', #172, .T. ) ;
#298 = ORIENTED_EDGE ( 'NONE', *, *, #538, .T. ) ;
#299 = PRODUCT_DEFINITION_CONTEXT ( 'detailed design', #730, 'design' ) ;
#300 = ITEM_DEFINED_TRANSFORMATION ( 'NONE', 'NONE', #158,  #478 ) ;
#301 = SURFACE_STYLE_FILL_AREA ( #99 ) ;
#302 = PRODUCT_DEFINITION_SHAPE ( 'NONE', 'NONE',  #858 ) ;
#303 = EDGE_LOOP ( 'NONE', ( #767, #627, #294, #570 ) ) ;
#304 = VECTOR ( 'NONE', #325, 1000.000000000000000 ) ;
#305 = VECTOR ( 'NONE', #332, 1000.000000000000000 ) ;
#306 = EDGE_CURVE ( 'NONE', #690, #3, #269, .T. ) ;
#307 = DIRECTION ( 'NONE',  ( 0.000000000000000000, 0.000000000000000000, 1.000000000000000000 ) ) ;
#308 = ORIENTED_EDGE ( 'NONE', *, *, #538, .F. ) ;
#309 = CARTESIAN_POINT ( 'NONE',  ( 0.000000000000000000, 0.3300000000000000155, 0.000000000000000000 ) ) ;
#310 = ORIENTED_EDGE ( 'NONE', *, *, #720, .F. ) ;
#311 = DIRECTION ( 'NONE',  ( 0.000000000000000000, 1.000000000000000000, 0.000000000000000000 ) ) ;
#312 = EDGE_CURVE ( 'NONE', #38, #77, #207, .T. ) ;
#313 = ORIENTED_EDGE ( 'NONE', *, *, #73, .T. ) ;
#314 = VECTOR ( 'NONE', #335, 1000.000000000000000 ) ;
#315 = LINE ( 'NONE', #442, #780 ) ;
#316 = VECTOR ( 'NONE', #740, 1000.000000000000000 ) ;
#317 = FACE_OUTER_BOUND ( 'NONE', #482, .T. ) ;
#318 = PRODUCT_RELATED_PRODUCT_CATEGORY ( 'part', '', ( #555 ) ) ;
#319 = DIRECTION ( 'NONE',  ( 0.000000000000000000, 0.000000000000000000, 1.000000000000000000 ) ) ;
#320 = LINE ( 'NONE', #66, #314 ) ;
#321 =( REPRESENTATION_RELATIONSHIP ('NONE','NONE', #338, #825 ) REPRESENTATION_RELATIONSHIP_WITH_TRANSFORMATION ( #616 )SHAPE_REPRESENTATION_RELATIONSHIP( ) );
#322 = CARTESIAN_POINT ( 'NONE',  ( 0.03300000000000000155, 0.000000000000000000, 0.2969999999999999862 ) ) ;
#323 = EDGE_LOOP ( 'NONE', ( #631, #52, #143, #356 ) ) ;
#324 = CARTESIAN_POINT ( 'NONE',  ( 0.000000000000000000, 0.000000000000000000, 0.000000000000000000 ) ) ;
#325 = DIRECTION ( 'NONE',  ( 1.000000000000000000, 0.000000000000000000, 0.000000000000000000 ) ) ;
#326 = PLANE ( 'NONE',  #26 ) ;
#327 = FACE_OUTER_BOUND ( 'NONE', #236, .T. ) ;
#328 = ADVANCED_FACE ( 'NONE', ( #466 ), #729, .T. ) ;
#329 = FILL_AREA_STYLE_COLOUR ( '', #414 ) ;
#330 = ADVANCED_FACE ( 'NONE', ( #596 ), #533, .F. ) ;
#331 = VECTOR ( 'NONE', #617, 1000.000000000000000 ) ;
#332 = DIRECTION ( 'NONE',  ( 0.000000000000000000, -1.000000000000000000, 0.000000000000000000 ) ) ;
#333 = VECTOR ( 'NONE', #523, 1000.000000000000000 ) ;
#334 = APPLICATION_PROTOCOL_DEFINITION ( 'draft international standard', 'automotive_design', 1998, #685 ) ;
#335 = DIRECTION ( 'NONE',  ( 0.000000000000000000, 1.000000000000000000, 0.000000000000000000 ) ) ;
#336 = EDGE_LOOP ( 'NONE', ( #498, #415, #401, #787 ) ) ;
#337 = CARTESIAN_POINT ( 'NONE',  ( 0.000000000000000000, 0.000000000000000000, 0.000000000000000000 ) ) ;
#338 = SHAPE_REPRESENTATION ( 'NTC0201', ( #340, #111 ), #295 ) ;
#339 = DIRECTION ( 'NONE',  ( -0.000000000000000000, 1.000000000000000000, 0.000000000000000000 ) ) ;
#340 = AXIS2_PLACEMENT_3D ( 'NONE', #125, #799, #210 ) ;
#341 = LINE ( 'NONE', #592, #384 ) ;
#342 = VERTEX_POINT ( 'NONE', #757 ) ;
#343 = DIRECTION ( 'NONE',  ( 0.000000000000000000, 1.000000000000000000, 0.000000000000000000 ) ) ;
#344 = APPLICATION_PROTOCOL_DEFINITION ( 'draft international standard', 'automotive_design', 1998, #188 ) ;
#345 = CARTESIAN_POINT ( 'NONE',  ( 0.03300000000000000155, 0.3300000000000000155, 0.2969999999999999862 ) ) ;
#346 = ORIENTED_EDGE ( 'NONE', *, *, #174, .T. ) ;
#347 = CARTESIAN_POINT ( 'NONE',  ( 0.03300000000000000155, 0.3300000000000000155, 0.03300000000000000155 ) ) ;
#348 = VECTOR ( 'NONE', #779, 1000.000000000000000 ) ;
#349 = EDGE_CURVE ( 'NONE', #561, #380, #849, .T. ) ;
#350 = AXIS2_PLACEMENT_3D ( 'NONE', #337, #123, #392 ) ;
#351 =( NAMED_UNIT ( * ) PLANE_ANGLE_UNIT ( ) SI_UNIT ( $, .RADIAN. ) );
#352 = ORIENTED_EDGE ( 'NONE', *, *, #756, .T. ) ;
#353 = PRESENTATION_STYLE_ASSIGNMENT (( #748 ) ) ;
#354 = APPLICATION_PROTOCOL_DEFINITION ( 'draft international standard', 'automotive_design', 1998, #839 ) ;
#355 = LINE ( 'NONE', #24, #584 ) ;
#356 = ORIENTED_EDGE ( 'NONE', *, *, #132, .F. ) ;
#357 = EDGE_CURVE ( 'NONE', #8, #540, #749, .T. ) ;
#358 = PLANE ( 'NONE',  #94 ) ;
#359 = ORIENTED_EDGE ( 'NONE', *, *, #837, .F. ) ;
#360 = PRODUCT_DEFINITION ( 'UNKNOWN', '', #30, #299 ) ;
#361 = LINE ( 'NONE', #752, #797 ) ;
#362 = EDGE_CURVE ( 'NONE', #835, #738, #247, .T. ) ;
#363 = DIRECTION ( 'NONE',  ( 1.000000000000000000, 0.000000000000000000, 0.000000000000000000 ) ) ;
#364 = ORIENTED_EDGE ( 'NONE', *, *, #840, .T. ) ;
#365 = LINE ( 'NONE', #187, #492 ) ;
#366 = ORIENTED_EDGE ( 'NONE', *, *, #659, .F. ) ;
#367 =( LENGTH_UNIT ( ) NAMED_UNIT ( * ) SI_UNIT ( .MILLI., .METRE. ) );
#368 = EDGE_LOOP ( 'NONE', ( #366, #607, #682, #102 ) ) ;
#369 = EDGE_CURVE ( 'NONE', #534, #81, #365, .T. ) ;
#370 = SURFACE_STYLE_FILL_AREA ( #107 ) ;
#371 = ORIENTED_EDGE ( 'NONE', *, *, #693, .F. ) ;
#372 = VECTOR ( 'NONE', #806, 1000.000000000000000 ) ;
#373 = AXIS2_PLACEMENT_3D ( 'NONE', #669, #74, #408 ) ;
#374 = DIRECTION ( 'NONE',  ( 1.000000000000000000, 0.000000000000000000, 0.000000000000000000 ) ) ;
#375 = ORIENTED_EDGE ( 'NONE', *, *, #563, .T. ) ;
#376 =( REPRESENTATION_RELATIONSHIP ('NONE','NONE', #825, #619 ) REPRESENTATION_RELATIONSHIP_WITH_TRANSFORMATION ( #31 )SHAPE_REPRESENTATION_RELATIONSHIP( ) );
#377 = CARTESIAN_POINT ( 'NONE',  ( 0.1499999999999999944, 0.000000000000000000, 0.2969999999999999862 ) ) ;
#378 = EDGE_CURVE ( 'NONE', #157, #537, #167, .T. ) ;
#379 = PRODUCT_DEFINITION_CONTEXT ( 'detailed design', #229, 'design' ) ;
#380 = VERTEX_POINT ( 'NONE', #843 ) ;
#381 = LINE ( 'NONE', #322, #611 ) ;
#382 = DIRECTION ( 'NONE',  ( 1.000000000000000000, 0.000000000000000000, 0.000000000000000000 ) ) ;
#383 = CARTESIAN_POINT ( 'NONE',  ( 0.000000000000000000, 0.000000000000000000, 0.03300000000000000155 ) ) ;
#384 = VECTOR ( 'NONE', #55, 1000.000000000000000 ) ;
#385 = CARTESIAN_POINT ( 'NONE',  ( 0.03300000000000000155, 0.000000000000000000, 0.03300000000000000155 ) ) ;
#386 = PRESENTATION_STYLE_ASSIGNMENT (( #189 ) ) ;
#387 = CARTESIAN_POINT ( 'NONE',  ( 0.03300000000000000155, 0.000000000000000000, 0.2969999999999999862 ) ) ;
#388 = FACE_OUTER_BOUND ( 'NONE', #621, .T. ) ;
#389 = PRODUCT_DEFINITION_SHAPE ( 'NONE', 'NONE',  #856 ) ;
#390 = FILL_AREA_STYLE ('',( #662 ) ) ;
#391 = EDGE_CURVE ( 'NONE', #81, #38, #162, .T. ) ;
#392 = DIRECTION ( 'NONE',  ( 1.000000000000000000, 0.000000000000000000, 0.000000000000000000 ) ) ;
#393 = PLANE ( 'NONE',  #625 ) ;
#394 =( NAMED_UNIT ( * ) PLANE_ANGLE_UNIT ( ) SI_UNIT ( $, .RADIAN. ) );
#395 = CARTESIAN_POINT ( 'NONE',  ( 0.1499999999999999944, 0.3300000000000000155, 0.000000000000000000 ) ) ;
#396 = AXIS2_PLACEMENT_3D ( 'NONE', #851, #194, #126 ) ;
#397 = CARTESIAN_POINT ( 'NONE',  ( 0.000000000000000000, 0.000000000000000000, 0.03300000000000000155 ) ) ;
#398 = VECTOR ( 'NONE', #279, 1000.000000000000000 ) ;
#399 =( NAMED_UNIT ( * ) SI_UNIT ( $, .STERADIAN. ) SOLID_ANGLE_UNIT ( ) );
#400 = CARTESIAN_POINT ( 'NONE',  ( 0.3300000000000000155, 0.3300000000000000155, 0.000000000000000000 ) ) ;
#401 = ORIENTED_EDGE ( 'NONE', *, *, #814, .T. ) ;
#402 = DIRECTION ( 'NONE',  ( 1.000000000000000000, 0.000000000000000000, 0.000000000000000000 ) ) ;
#403 = PRODUCT_DEFINITION_FORMATION_WITH_SPECIFIED_SOURCE ( 'ANY', '', #425, .NOT_KNOWN. ) ;
#404 = DIRECTION ( 'NONE',  ( 0.000000000000000000, 0.000000000000000000, 1.000000000000000000 ) ) ;
#405 = DIRECTION ( 'NONE',  ( 1.000000000000000000, 0.000000000000000000, 0.000000000000000000 ) ) ;
#406 = VECTOR ( 'NONE', #16, 1000.000000000000000 ) ;
#407 = EDGE_LOOP ( 'NONE', ( #93, #289, #803, #673 ) ) ;
#408 = DIRECTION ( 'NONE',  ( 1.000000000000000000, 0.000000000000000000, 0.000000000000000000 ) ) ;
#409 =( REPRESENTATION_RELATIONSHIP ('NONE','NONE', #825, #619 ) REPRESENTATION_RELATIONSHIP_WITH_TRANSFORMATION ( #487 )SHAPE_REPRESENTATION_RELATIONSHIP( ) );
#410 = DIRECTION ( 'NONE',  ( 0.000000000000000000, 0.000000000000000000, 1.000000000000000000 ) ) ;
#411 = LINE ( 'NONE', #746, #372 ) ;
#412 = ORIENTED_EDGE ( 'NONE', *, *, #56, .F. ) ;
#413 = CARTESIAN_POINT ( 'NONE',  ( 0.5969999999999999751, 0.3300000000000000155, 0.03300000000000000155 ) ) ;
#414 = COLOUR_RGB ( '',0.8000000000000000444, 0.8000000000000000444, 0.8000000000000000444 ) ;
#415 = ORIENTED_EDGE ( 'NONE', *, *, #808, .T. ) ;
#416 = PRODUCT_DEFINITION ( 'UNKNOWN', '', #769, #84 ) ;
#417 = DIRECTION ( 'NONE',  ( 0.000000000000000000, 0.000000000000000000, 1.000000000000000000 ) ) ;
#418 = PRODUCT_DEFINITION_FORMATION_WITH_SPECIFIED_SOURCE ( 'ANY', '', #772, .NOT_KNOWN. ) ;
#419 = ORIENTED_EDGE ( 'NONE', *, *, #171, .F. ) ;
#420 = EDGE_CURVE ( 'NONE', #534, #228, #447, .T. ) ;
#421 = CARTESIAN_POINT ( 'NONE',  ( 0.000000000000000000, 0.000000000000000000, 0.000000000000000000 ) ) ;
#422 = EDGE_LOOP ( 'NONE', ( #47, #42, #90, #87, #547, #285, #108, #154 ) ) ;
#423 = SURFACE_STYLE_FILL_AREA ( #291 ) ;
#424 = MANIFOLD_SOLID_BREP ( 'Open CASCADE STEP translator 7.5 5.2.1[1]', #204 ) ;
#425 = PRODUCT ( 'Terminal_2.step_\X2\9ed88ba4\X0\', 'Terminal_2.step_\X2\9ed88ba4\X0\', '', ( #453 ) ) ;
#426 = ITEM_DEFINED_TRANSFORMATION ( 'NONE', 'NONE', #702,  #478 ) ;
#427 = VECTOR ( 'NONE', #794, 1000.000000000000000 ) ;
#428 = LINE ( 'NONE', #707, #683 ) ;
#429 = UNCERTAINTY_MEASURE_WITH_UNIT (LENGTH_MEASURE( 1.000000000000000082E-05 ), #644, 'distance_accuracy_value', 'NONE');
#430 = CARTESIAN_POINT ( 'NONE',  ( 0.03300000000000000155, 0.000000000000000000, 0.2969999999999999862 ) ) ;
#431 = ORIENTED_EDGE ( 'NONE', *, *, #659, .T. ) ;
#432 = DIRECTION ( 'NONE',  ( 1.000000000000000000, 0.000000000000000000, 0.000000000000000000 ) ) ;
#433 = SURFACE_SIDE_STYLE ('',( #301 ) ) ;
#434 = ORIENTED_EDGE ( 'NONE', *, *, #551, .T. ) ;
#435 = DIRECTION ( 'NONE',  ( 1.000000000000000000, 0.000000000000000000, 0.000000000000000000 ) ) ;
#436 = PRODUCT_DEFINITION_CONTEXT ( 'detailed design', #701, 'design' ) ;
#437 = VECTOR ( 'NONE', #483, 1000.000000000000000 ) ;
#438 = VERTEX_POINT ( 'NONE', #777 ) ;
#439 = VECTOR ( 'NONE', #519, 1000.000000000000000 ) ;
#440 =( GEOMETRIC_REPRESENTATION_CONTEXT ( 3 ) GLOBAL_UNCERTAINTY_ASSIGNED_CONTEXT ( ( #443 ) ) GLOBAL_UNIT_ASSIGNED_CONTEXT ( ( #694, #709, #774 ) ) REPRESENTATION_CONTEXT ( 'NONE', 'WORKASPACE' ) );
#441 = ORIENTED_EDGE ( 'NONE', *, *, #306, .F. ) ;
#442 = CARTESIAN_POINT ( 'NONE',  ( 0.000000000000000000, 0.000000000000000000, 0.3300000000000000155 ) ) ;
#443 = UNCERTAINTY_MEASURE_WITH_UNIT (LENGTH_MEASURE( 1.000000000000000082E-05 ), #694, 'distance_accuracy_value', 'NONE');
#444 = PRODUCT_DEFINITION_SHAPE ( 'NONE', 'NONE',  #360 ) ;
#445 =( NAMED_UNIT ( * ) SI_UNIT ( $, .STERADIAN. ) SOLID_ANGLE_UNIT ( ) );
#446 = FACE_OUTER_BOUND ( 'NONE', #232, .T. ) ;
#447 = LINE ( 'NONE', #385, #331 ) ;
#448 = FACE_OUTER_BOUND ( 'NONE', #241, .T. ) ;
#449 = PRODUCT_DEFINITION_SHAPE ( 'NONE', 'NONE',  #45 ) ;
#450 =( GEOMETRIC_REPRESENTATION_CONTEXT ( 3 ) GLOBAL_UNCERTAINTY_ASSIGNED_CONTEXT ( ( #677 ) ) GLOBAL_UNIT_ASSIGNED_CONTEXT ( ( #367, #119, #37 ) ) REPRESENTATION_CONTEXT ( 'NONE', 'WORKASPACE' ) );
#451 = DIRECTION ( 'NONE',  ( 0.000000000000000000, 0.000000000000000000, 1.000000000000000000 ) ) ;
#452 = ADVANCED_FACE ( 'NONE', ( #388 ), #235, .T. ) ;
#453 = PRODUCT_CONTEXT ( 'NONE', #144, 'mechanical' ) ;
#454 = LINE ( 'NONE', #383, #231 ) ;
#455 = SHAPE_REPRESENTATION_RELATIONSHIP ( 'NONE' , 'NONE' ,  #149, #260 ) ;
#456 = CARTESIAN_POINT ( 'NONE',  ( 0.03300000000000000155, 0.3300000000000000155, 0.03300000000000000155 ) ) ;
#457 = PRODUCT_DEFINITION ( 'UNKNOWN', '', #845, #379 ) ;
#458 = CARTESIAN_POINT ( 'NONE',  ( 0.03300000000000000155, 0.3300000000000000155, 0.2969999999999999862 ) ) ;
#459 =( NAMED_UNIT ( * ) PLANE_ANGLE_UNIT ( ) SI_UNIT ( $, .RADIAN. ) );
#460 = CARTESIAN_POINT ( 'NONE',  ( 0.1499999999999999944, 0.000000000000000000, 0.2969999999999999862 ) ) ;
#461 =( LENGTH_UNIT ( ) NAMED_UNIT ( * ) SI_UNIT ( .MILLI., .METRE. ) );
#462 = DIRECTION ( 'NONE',  ( 1.000000000000000000, 0.000000000000000000, 0.000000000000000000 ) ) ;
#463 =( NAMED_UNIT ( * ) SI_UNIT ( $, .STERADIAN. ) SOLID_ANGLE_UNIT ( ) );
#464 = ADVANCED_FACE ( 'NONE', ( #191 ), #227, .T. ) ;
#465 = COLOUR_RGB ( '',0.8274509803921568096, 0.8274509803921568096, 0.8274509803921568096 ) ;
#466 = FACE_OUTER_BOUND ( 'NONE', #422, .T. ) ;
#467 = ADVANCED_FACE ( 'NONE', ( #297 ), #823, .T. ) ;
#468 = DIRECTION ( 'NONE',  ( 1.000000000000000000, 0.000000000000000000, 0.000000000000000000 ) ) ;
#469 = PRESENTATION_LAYER_ASSIGNMENT (  '', '', ( #224 ) ) ;
#470 = PRODUCT_CONTEXT ( 'NONE', #685, 'mechanical' ) ;
#471 = DIRECTION ( 'NONE',  ( 0.000000000000000000, 0.000000000000000000, 1.000000000000000000 ) ) ;
#472 = EDGE_LOOP ( 'NONE', ( #176, #308, #243, #633 ) ) ;
#473 = CARTESIAN_POINT ( 'NONE',  ( 0.000000000000000000, 0.000000000000000000, 0.03300000000000000155 ) ) ;
#474 = EDGE_CURVE ( 'NONE', #651, #8, #493, .T. ) ;
#475 = FACE_OUTER_BOUND ( 'NONE', #246, .T. ) ;
#476 = ORIENTED_EDGE ( 'NONE', *, *, #578, .F. ) ;
#477 = DIRECTION ( 'NONE',  ( 0.000000000000000000, 1.000000000000000000, 0.000000000000000000 ) ) ;
#478 = AXIS2_PLACEMENT_3D ( 'NONE', #251, #169, #432 ) ;
#479 = MECHANICAL_DESIGN_GEOMETRIC_PRESENTATION_REPRESENTATION (  '', ( #15 ), #50 ) ;
#480 = ADVANCED_FACE ( 'NONE', ( #317 ), #572, .F. ) ;
#481 = CARTESIAN_POINT ( 'NONE',  ( 0.5969999999999999751, 0.000000000000000000, 0.03300000000000000155 ) ) ;
#482 = EDGE_LOOP ( 'NONE', ( #313, #564, #686, #495 ) ) ;
#483 = DIRECTION ( 'NONE',  ( 0.000000000000000000, 0.000000000000000000, 1.000000000000000000 ) ) ;
#484 = AXIS2_PLACEMENT_3D ( 'NONE', #205, #404, #785 ) ;
#485 = EDGE_LOOP ( 'NONE', ( #434, #656, #842, #19 ) ) ;
#486 = CARTESIAN_POINT ( 'NONE',  ( 0.000000000000000000, 0.000000000000000000, 0.3300000000000000155 ) ) ;
#487 = ITEM_DEFINED_TRANSFORMATION ( 'NONE', 'NONE', #2,  #155 ) ;
#488 = DIRECTION ( 'NONE',  ( 0.000000000000000000, 1.000000000000000000, 0.000000000000000000 ) ) ;
#489 =( REPRESENTATION_RELATIONSHIP ('NONE','NONE', #619, #149 ) REPRESENTATION_RELATIONSHIP_WITH_TRANSFORMATION ( #161 )SHAPE_REPRESENTATION_RELATIONSHIP( ) );
#490 = VERTEX_POINT ( 'NONE', #141 ) ;
#491 = ADVANCED_FACE ( 'NONE', ( #531 ), #78, .F. ) ;
#492 = VECTOR ( 'NONE', #53, 1000.000000000000000 ) ;
#493 = LINE ( 'NONE', #753, #82 ) ;
#494 = PRESENTATION_LAYER_ASSIGNMENT (  '', '', ( #257 ) ) ;
#495 = ORIENTED_EDGE ( 'NONE', *, *, #612, .T. ) ;
#496 = EDGE_CURVE ( 'NONE', #25, #690, #798, .T. ) ;
#497 = CARTESIAN_POINT ( 'NONE',  ( 0.3300000000000000155, 0.3300000000000000155, 0.000000000000000000 ) ) ;
#498 = ORIENTED_EDGE ( 'NONE', *, *, #391, .F. ) ;
#499 = DIRECTION ( 'NONE',  ( 0.000000000000000000, 1.000000000000000000, 0.000000000000000000 ) ) ;
#500 = CARTESIAN_POINT ( 'NONE',  ( 0.000000000000000000, 0.000000000000000000, 0.000000000000000000 ) ) ;
#501 = ORIENTED_EDGE ( 'NONE', *, *, #186, .T. ) ;
#502 =( LENGTH_UNIT ( ) NAMED_UNIT ( * ) SI_UNIT ( .MILLI., .METRE. ) );
#503 = ADVANCED_FACE ( 'NONE', ( #793 ), #853, .T. ) ;
#504 = UNCERTAINTY_MEASURE_WITH_UNIT (LENGTH_MEASURE( 1.000000000000000082E-05 ), #646, 'distance_accuracy_value', 'NONE');
#505 = EDGE_CURVE ( 'NONE', #29, #690, #129, .T. ) ;
#506 =( NAMED_UNIT ( * ) PLANE_ANGLE_UNIT ( ) SI_UNIT ( $, .RADIAN. ) );
#507 = ORIENTED_EDGE ( 'NONE', *, *, #226, .T. ) ;
#508 = AXIS2_PLACEMENT_3D ( 'NONE', #68, #339, #591 ) ;
#509 = CARTESIAN_POINT ( 'NONE',  ( 0.5969999999999999751, 0.000000000000000000, 0.2969999999999999862 ) ) ;
#510 = LINE ( 'NONE', #770, #118 ) ;
#511 = DIRECTION ( 'NONE',  ( 0.000000000000000000, 0.000000000000000000, 1.000000000000000000 ) ) ;
#512 =( GEOMETRIC_REPRESENTATION_CONTEXT ( 3 ) GLOBAL_UNCERTAINTY_ASSIGNED_CONTEXT ( ( #429 ) ) GLOBAL_UNIT_ASSIGNED_CONTEXT ( ( #644, #506, #116 ) ) REPRESENTATION_CONTEXT ( 'NONE', 'WORKASPACE' ) );
#513 = CARTESIAN_POINT ( 'NONE',  ( 0.03300000000000000155, 0.3300000000000000155, 0.2969999999999999862 ) ) ;
#514 = SURFACE_STYLE_FILL_AREA ( #175 ) ;
#515 = CARTESIAN_POINT ( 'NONE',  ( 0.03300000000000000155, 0.000000000000000000, 0.03300000000000000155 ) ) ;
#516 = DIRECTION ( 'NONE',  ( 0.000000000000000000, 0.000000000000000000, 1.000000000000000000 ) ) ;
#517 = ADVANCED_FACE ( 'NONE', ( #62 ), #393, .F. ) ;
#518 = LINE ( 'NONE', #515, #12 ) ;
#519 = DIRECTION ( 'NONE',  ( 0.000000000000000000, 0.000000000000000000, 1.000000000000000000 ) ) ;
#520 = DIRECTION ( 'NONE',  ( 0.000000000000000000, 0.000000000000000000, 1.000000000000000000 ) ) ;
#521 =( NAMED_UNIT ( * ) PLANE_ANGLE_UNIT ( ) SI_UNIT ( $, .RADIAN. ) );
#522 = AXIS2_PLACEMENT_3D ( 'NONE', #573, #410, #196 ) ;
#523 = DIRECTION ( 'NONE',  ( 0.000000000000000000, 1.000000000000000000, 0.000000000000000000 ) ) ;
#524 = EDGE_CURVE ( 'NONE', #100, #25, #4, .T. ) ;
#525 = PLANE ( 'NONE',  #104 ) ;
#526 = FILL_AREA_STYLE ('',( #329 ) ) ;
#527 = CARTESIAN_POINT ( 'NONE',  ( 0.5969999999999999751, 0.000000000000000000, 0.03300000000000000155 ) ) ;
#528 = DIRECTION ( 'NONE',  ( 1.000000000000000000, 0.000000000000000000, 0.000000000000000000 ) ) ;
#529 = CARTESIAN_POINT ( 'NONE',  ( 0.1499999999999999944, 0.000000000000000000, 0.03300000000000000155 ) ) ;
#530 = ORIENTED_EDGE ( 'NONE', *, *, #36, .F. ) ;
#531 = FACE_OUTER_BOUND ( 'NONE', #139, .T. ) ;
#532 = VECTOR ( 'NONE', #311, 1000.000000000000000 ) ;
#533 = PLANE ( 'NONE',  #624 ) ;
#534 = VERTEX_POINT ( 'NONE', #198 ) ;
#535 = LINE ( 'NONE', #804, #333 ) ;
#536 = SHAPE_DEFINITION_REPRESENTATION ( #847, #802 ) ;
#537 = VERTEX_POINT ( 'NONE', #473 ) ;
#538 = EDGE_CURVE ( 'NONE', #380, #754, #263, .T. ) ;
#539 = CARTESIAN_POINT ( 'NONE',  ( 0.000000000000000000, 0.3300000000000000155, 0.000000000000000000 ) ) ;
#540 = VERTEX_POINT ( 'NONE', #594 ) ;
#541 = CLOSED_SHELL ( 'NONE', ( #680, #491, #287, #636, #464, #330 ) ) ;
#542 = DIRECTION ( 'NONE',  ( 0.000000000000000000, 0.000000000000000000, 1.000000000000000000 ) ) ;
#543 = PRESENTATION_LAYER_ASSIGNMENT (  '', '', ( #153 ) ) ;
#544 = AXIS2_PLACEMENT_3D ( 'NONE', #293, #549, #97 ) ;
#545 = PRESENTATION_LAYER_ASSIGNMENT (  '', '', ( #290 ) ) ;
#546 =( REPRESENTATION_RELATIONSHIP ('NONE','NONE', #825, #272 ) REPRESENTATION_RELATIONSHIP_WITH_TRANSFORMATION ( #426 )SHAPE_REPRESENTATION_RELATIONSHIP( ) );
#547 = ORIENTED_EDGE ( 'NONE', *, *, #852, .F. ) ;
#548 = CONTEXT_DEPENDENT_SHAPE_REPRESENTATION ( #409, #389 ) ;
#549 = DIRECTION ( 'NONE',  ( 1.000000000000000000, 0.000000000000000000, 0.000000000000000000 ) ) ;
#550 = SURFACE_SIDE_STYLE ('',( #60 ) ) ;
#551 = EDGE_CURVE ( 'NONE', #228, #807, #731, .T. ) ;
#552 = ORIENTED_EDGE ( 'NONE', *, *, #732, .T. ) ;
#553 = DIRECTION ( 'NONE',  ( 1.000000000000000000, 0.000000000000000000, 0.000000000000000000 ) ) ;
#554 = ORIENTED_EDGE ( 'NONE', *, *, #705, .T. ) ;
#555 = PRODUCT ( 'Open CASCADE STEP translator 7.5 5.2.1.step_\X2\9ed88ba4\X0\', 'Open CASCADE STEP translator 7.5 5.2.1.step_\X2\9ed88ba4\X0\', '', ( #822 ) ) ;
#556 =( GEOMETRIC_REPRESENTATION_CONTEXT ( 3 ) GLOBAL_UNCERTAINTY_ASSIGNED_CONTEXT ( ( #292 ) ) GLOBAL_UNIT_ASSIGNED_CONTEXT ( ( #197, #351, #742 ) ) REPRESENTATION_CONTEXT ( 'NONE', 'WORKASPACE' ) );
#557 = PRESENTATION_STYLE_ASSIGNMENT (( #577 ) ) ;
#558 = VECTOR ( 'NONE', #722, 1000.000000000000000 ) ;
#559 = ORIENTED_EDGE ( 'NONE', *, *, #474, .F. ) ;
#560 = DIRECTION ( 'NONE',  ( 0.000000000000000000, 1.000000000000000000, 0.000000000000000000 ) ) ;
#561 = VERTEX_POINT ( 'NONE', #9 ) ;
#562 = DIRECTION ( 'NONE',  ( 0.000000000000000000, 1.000000000000000000, 0.000000000000000000 ) ) ;
#563 = EDGE_CURVE ( 'NONE', #148, #699, #145, .T. ) ;
#564 = ORIENTED_EDGE ( 'NONE', *, *, #59, .F. ) ;
#565 = CARTESIAN_POINT ( 'NONE',  ( 0.1499999999999999944, 0.3300000000000000155, 0.000000000000000000 ) ) ;
#566 = PRODUCT_DEFINITION_CONTEXT ( 'detailed design', #277, 'design' ) ;
#567 = CLOSED_SHELL ( 'NONE', ( #628, #240, #467, #480, #503, #517 ) ) ;
#568 = SURFACE_SIDE_STYLE ('',( #370 ) ) ;
#569 = VECTOR ( 'NONE', #773, 1000.000000000000000 ) ;
#570 = ORIENTED_EDGE ( 'NONE', *, *, #814, .F. ) ;
#571 = AXIS2_PLACEMENT_3D ( 'NONE', #209, #789, #273 ) ;
#572 = PLANE ( 'NONE',  #571 ) ;
#573 = CARTESIAN_POINT ( 'NONE',  ( 0.3150000000000000022, 0.1650000000000000078, 0.000000000000000000 ) ) ;
#574 = CARTESIAN_POINT ( 'NONE',  ( 0.000000000000000000, 0.3300000000000000155, 0.03300000000000000155 ) ) ;
#575 = CARTESIAN_POINT ( 'NONE',  ( 0.1499999999999999944, 0.000000000000000000, 0.000000000000000000 ) ) ;
#576 = PRODUCT_DEFINITION_FORMATION_WITH_SPECIFIED_SOURCE ( 'ANY', '', #239, .NOT_KNOWN. ) ;
#577 = SURFACE_STYLE_USAGE ( .BOTH. , #433 ) ;
#578 = EDGE_CURVE ( 'NONE', #100, #835, #195, .T. ) ;
#579 = CARTESIAN_POINT ( 'NONE',  ( 0.03300000000000000155, 0.3300000000000000155, 0.03300000000000000155 ) ) ;
#580 =( NAMED_UNIT ( * ) SI_UNIT ( $, .STERADIAN. ) SOLID_ANGLE_UNIT ( ) );
#581 = DIRECTION ( 'NONE',  ( 1.000000000000000000, 0.000000000000000000, 0.000000000000000000 ) ) ;
#582 = APPLICATION_PROTOCOL_DEFINITION ( 'draft international standard', 'automotive_design', 1998, #792 ) ;
#583 = CARTESIAN_POINT ( 'NONE',  ( 0.5969999999999999751, 0.3300000000000000155, 0.2969999999999999862 ) ) ;
#584 = VECTOR ( 'NONE', #284, 1000.000000000000000 ) ;
#585 = VECTOR ( 'NONE', #307, 1000.000000000000000 ) ;
#586 = MECHANICAL_DESIGN_GEOMETRIC_PRESENTATION_REPRESENTATION (  '', ( #290 ), #440 ) ;
#587 = FACE_OUTER_BOUND ( 'NONE', #323, .T. ) ;
#588 = DIRECTION ( 'NONE',  ( 1.000000000000000000, 0.000000000000000000, 0.000000000000000000 ) ) ;
#589 = EDGE_LOOP ( 'NONE', ( #796, #282, #593, #618 ) ) ;
#590 = PRODUCT_RELATED_PRODUCT_CATEGORY ( 'part', '', ( #239 ) ) ;
#591 = DIRECTION ( 'NONE',  ( 1.000000000000000000, 0.000000000000000000, 0.000000000000000000 ) ) ;
#592 = CARTESIAN_POINT ( 'NONE',  ( 0.1499999999999999944, 0.000000000000000000, 0.000000000000000000 ) ) ;
#593 = ORIENTED_EDGE ( 'NONE', *, *, #226, .F. ) ;
#594 = CARTESIAN_POINT ( 'NONE',  ( 0.3300000000000000155, 0.3300000000000000155, 0.03300000000000000155 ) ) ;
#595 = CARTESIAN_POINT ( 'NONE',  ( 0.000000000000000000, 0.000000000000000000, 0.000000000000000000 ) ) ;
#596 = FACE_OUTER_BOUND ( 'NONE', #589, .T. ) ;
#597 = ADVANCED_BREP_SHAPE_REPRESENTATION ( '', ( #156, #478 ), #182 ) ;
#598 = ORIENTED_EDGE ( 'NONE', *, *, #643, .F. ) ;
#599 = CARTESIAN_POINT ( 'NONE',  ( 0.3300000000000000155, 0.000000000000000000, 0.000000000000000000 ) ) ;
#600 =( GEOMETRIC_REPRESENTATION_CONTEXT ( 3 ) GLOBAL_UNCERTAINTY_ASSIGNED_CONTEXT ( ( #238 ) ) GLOBAL_UNIT_ASSIGNED_CONTEXT ( ( #128, #459, #463 ) ) REPRESENTATION_CONTEXT ( 'NONE', 'WORKASPACE' ) );
#601 = SHAPE_DEFINITION_REPRESENTATION ( #449, #272 ) ;
#602 = DIRECTION ( 'NONE',  ( 1.000000000000000000, 0.000000000000000000, 0.000000000000000000 ) ) ;
#603 = ORIENTED_EDGE ( 'NONE', *, *, #801, .F. ) ;
#604 = EDGE_CURVE ( 'NONE', #832, #738, #535, .T. ) ;
#605 = UNCERTAINTY_MEASURE_WITH_UNIT (LENGTH_MEASURE( 1.000000000000000082E-05 ), #763, 'distance_accuracy_value', 'NONE');
#606 = DIRECTION ( 'NONE',  ( -0.000000000000000000, 1.000000000000000000, 0.000000000000000000 ) ) ;
#607 = ORIENTED_EDGE ( 'NONE', *, *, #837, .T. ) ;
#608 = DIRECTION ( 'NONE',  ( 1.000000000000000000, 0.000000000000000000, 0.000000000000000000 ) ) ;
#609 = ORIENTED_EDGE ( 'NONE', *, *, #6, .F. ) ;
#610 = PLANE ( 'NONE',  #65 ) ;
#611 = VECTOR ( 'NONE', #114, 1000.000000000000000 ) ;
#612 = EDGE_CURVE ( 'NONE', #157, #651, #213, .T. ) ;
#613 = DIRECTION ( 'NONE',  ( 1.000000000000000000, 0.000000000000000000, 0.000000000000000000 ) ) ;
#614 = VERTEX_POINT ( 'NONE', #58 ) ;
#615 =( NAMED_UNIT ( * ) PLANE_ANGLE_UNIT ( ) SI_UNIT ( $, .RADIAN. ) );
#616 = ITEM_DEFINED_TRANSFORMATION ( 'NONE', 'NONE', #111,  #70 ) ;
#617 = DIRECTION ( 'NONE',  ( 1.000000000000000000, 0.000000000000000000, 0.000000000000000000 ) ) ;
#618 = ORIENTED_EDGE ( 'NONE', *, *, #369, .T. ) ;
#619 = SHAPE_REPRESENTATION ( 'Terminal_2.step_\X2\9ed88ba4\X0\', ( #155, #350 ), #741 ) ;
#620 = LINE ( 'NONE', #91, #316 ) ;
#621 = EDGE_LOOP ( 'NONE', ( #676, #668, #168, #261 ) ) ;
#622 = LINE ( 'NONE', #40, #532 ) ;
#623 = PRODUCT_DEFINITION_SHAPE ( 'NONE', 'NONE',  #416 ) ;
#624 = AXIS2_PLACEMENT_3D ( 'NONE', #800, #49, #488 ) ;
#625 = AXIS2_PLACEMENT_3D ( 'NONE', #783, #253, #343 ) ;
#626 = SHAPE_REPRESENTATION_RELATIONSHIP ( 'NONE' , 'NONE' ,  #272, #762 ) ;
#627 = ORIENTED_EDGE ( 'NONE', *, *, #720, .T. ) ;
#628 = ADVANCED_FACE ( 'NONE', ( #587 ), #326, .T. ) ;
#629 = DIRECTION ( 'NONE',  ( 0.000000000000000000, 1.000000000000000000, 0.000000000000000000 ) ) ;
#630 = DIRECTION ( 'NONE',  ( 1.000000000000000000, 0.000000000000000000, 0.000000000000000000 ) ) ;
#631 = ORIENTED_EDGE ( 'NONE', *, *, #784, .F. ) ;
#632 = DIRECTION ( 'NONE',  ( 0.000000000000000000, 1.000000000000000000, 0.000000000000000000 ) ) ;
#633 = ORIENTED_EDGE ( 'NONE', *, *, #604, .F. ) ;
#634 = LINE ( 'NONE', #765, #106 ) ;
#635 = DIRECTION ( 'NONE',  ( 0.000000000000000000, 1.000000000000000000, 0.000000000000000000 ) ) ;
#636 = ADVANCED_FACE ( 'NONE', ( #652 ), #660, .F. ) ;
#637 = VECTOR ( 'NONE', #689, 1000.000000000000000 ) ;
#638 = DIRECTION ( 'NONE',  ( 1.000000000000000000, 0.000000000000000000, 0.000000000000000000 ) ) ;
#639 = AXIS2_PLACEMENT_3D ( 'NONE', #115, #230, #553 ) ;
#640 = VERTEX_POINT ( 'NONE', #267 ) ;
#641 = CARTESIAN_POINT ( 'NONE',  ( 0.1499999999999999944, 0.000000000000000000, 0.000000000000000000 ) ) ;
#642 = DIRECTION ( 'NONE',  ( 0.000000000000000000, 0.000000000000000000, 1.000000000000000000 ) ) ;
#643 = EDGE_CURVE ( 'NONE', #699, #77, #286, .T. ) ;
#644 =( LENGTH_UNIT ( ) NAMED_UNIT ( * ) SI_UNIT ( .MILLI., .METRE. ) );
#645 = DIRECTION ( 'NONE',  ( 0.000000000000000000, 0.000000000000000000, 1.000000000000000000 ) ) ;
#646 =( LENGTH_UNIT ( ) NAMED_UNIT ( * ) SI_UNIT ( .MILLI., .METRE. ) );
#647 = CARTESIAN_POINT ( 'NONE',  ( 0.000000000000000000, 0.3300000000000000155, 0.000000000000000000 ) ) ;
#648 = PRODUCT ( 'NTC0201', 'NTC0201', '', ( #470 ) ) ;
#649 = CARTESIAN_POINT ( 'NONE',  ( -0.3150000000000000022, -0.1650000000000000078, 0.000000000000000000 ) ) ;
#650 = PLANE ( 'NONE',  #396 ) ;
#651 = VERTEX_POINT ( 'NONE', #828 ) ;
#652 = FACE_OUTER_BOUND ( 'NONE', #485, .T. ) ;
#653 = DIRECTION ( 'NONE',  ( 1.000000000000000000, 0.000000000000000000, 0.000000000000000000 ) ) ;
#654 = LINE ( 'NONE', #719, #348 ) ;
#655 = PRODUCT_RELATED_PRODUCT_CATEGORY ( 'part', '', ( #425 ) ) ;
#656 = ORIENTED_EDGE ( 'NONE', *, *, #808, .F. ) ;
#657 = VECTOR ( 'NONE', #516, 1000.000000000000000 ) ;
#658 = APPLICATION_CONTEXT ( 'automotive_design' ) ;
#659 = EDGE_CURVE ( 'NONE', #679, #835, #166, .T. ) ;
#660 = PLANE ( 'NONE',  #508 ) ;
#661 = APPLICATION_PROTOCOL_DEFINITION ( 'draft international standard', 'automotive_design', 1998, #672 ) ;
#662 = FILL_AREA_STYLE_COLOUR ( '', #41 ) ;
#663 = ORIENTED_EDGE ( 'NONE', *, *, #563, .F. ) ;
#664 = COLOUR_RGB ( '',0.5019607843137254832, 0.5019607843137254832, 0.5019607843137254832 ) ;
#665 = CARTESIAN_POINT ( 'NONE',  ( 0.000000000000000000, 0.3300000000000000155, 0.000000000000000000 ) ) ;
#666 = APPLICATION_PROTOCOL_DEFINITION ( 'draft international standard', 'automotive_design', 1998, #730 ) ;
#667 = PLANE ( 'NONE',  #217 ) ;
#668 = ORIENTED_EDGE ( 'NONE', *, *, #801, .T. ) ;
#669 = CARTESIAN_POINT ( 'NONE',  ( 0.03300000000000000155, 0.000000000000000000, 0.03300000000000000155 ) ) ;
#670 = SHAPE_DEFINITION_REPRESENTATION ( #444, #338 ) ;
#671 = PLANE ( 'NONE',  #795 ) ;
#672 = APPLICATION_CONTEXT ( 'automotive_design' ) ;
#673 = ORIENTED_EDGE ( 'NONE', *, *, #378, .T. ) ;
#674 = DIRECTION ( 'NONE',  ( 1.000000000000000000, 0.000000000000000000, 0.000000000000000000 ) ) ;
#675 = CONTEXT_DEPENDENT_SHAPE_REPRESENTATION ( #321, #192 ) ;
#676 = ORIENTED_EDGE ( 'NONE', *, *, #745, .F. ) ;
#677 = UNCERTAINTY_MEASURE_WITH_UNIT (LENGTH_MEASURE( 1.000000000000000082E-05 ), #367, 'distance_accuracy_value', 'NONE');
#678 = CARTESIAN_POINT ( 'NONE',  ( 0.03300000000000000155, 0.3300000000000000155, 0.03300000000000000155 ) ) ;
#679 = VERTEX_POINT ( 'NONE', #486 ) ;
#680 = ADVANCED_FACE ( 'NONE', ( #821 ), #755, .T. ) ;
#681 = CARTESIAN_POINT ( 'NONE',  ( 0.000000000000000000, 0.000000000000000000, 0.000000000000000000 ) ) ;
#682 = ORIENTED_EDGE ( 'NONE', *, *, #604, .T. ) ;
#683 = VECTOR ( 'NONE', #190, 1000.000000000000000 ) ;
#684 = VECTOR ( 'NONE', #468, 1000.000000000000000 ) ;
#685 = APPLICATION_CONTEXT ( 'automotive_design' ) ;
#686 = ORIENTED_EDGE ( 'NONE', *, *, #378, .F. ) ;
#687 = CARTESIAN_POINT ( 'NONE',  ( 0.1499999999999999944, 0.3300000000000000155, 0.03300000000000000155 ) ) ;
#688 = SHAPE_DEFINITION_REPRESENTATION ( #623, #149 ) ;
#689 = DIRECTION ( 'NONE',  ( 0.000000000000000000, 1.000000000000000000, 0.000000000000000000 ) ) ;
#690 = VERTEX_POINT ( 'NONE', #687 ) ;
#691 = FACE_OUTER_BOUND ( 'NONE', #472, .T. ) ;
#692 = UNCERTAINTY_MEASURE_WITH_UNIT (LENGTH_MEASURE( 1.000000000000000082E-05 ), #35, 'distance_accuracy_value', 'NONE');
#693 = EDGE_CURVE ( 'NONE', #438, #540, #620, .T. ) ;
#694 =( LENGTH_UNIT ( ) NAMED_UNIT ( * ) SI_UNIT ( .MILLI., .METRE. ) );
#695 = ORIENTED_EDGE ( 'NONE', *, *, #23, .T. ) ;
#696 = VECTOR ( 'NONE', #451, 1000.000000000000000 ) ;
#697 = AXIS2_PLACEMENT_3D ( 'NONE', #599, #203, #736 ) ;
#698 = DIRECTION ( 'NONE',  ( 0.000000000000000000, 0.000000000000000000, 1.000000000000000000 ) ) ;
#699 = VERTEX_POINT ( 'NONE', #413 ) ;
#700 = CARTESIAN_POINT ( 'NONE',  ( 0.000000000000000000, 0.000000000000000000, 0.000000000000000000 ) ) ;
#701 = APPLICATION_CONTEXT ( 'automotive_design' ) ;
#702 = AXIS2_PLACEMENT_3D ( 'NONE', #649, #728, #528 ) ;
#703 = ORIENTED_EDGE ( 'NONE', *, *, #745, .T. ) ;
#704 =( NAMED_UNIT ( * ) PLANE_ANGLE_UNIT ( ) SI_UNIT ( $, .RADIAN. ) );
#705 = EDGE_CURVE ( 'NONE', #640, #764, #361, .T. ) ;
#706 = PRESENTATION_STYLE_ASSIGNMENT (( #844 ) ) ;
#707 = CARTESIAN_POINT ( 'NONE',  ( 0.03300000000000000155, 0.000000000000000000, 0.2969999999999999862 ) ) ;
#708 =( NAMED_UNIT ( * ) SI_UNIT ( $, .STERADIAN. ) SOLID_ANGLE_UNIT ( ) );
#709 =( NAMED_UNIT ( * ) PLANE_ANGLE_UNIT ( ) SI_UNIT ( $, .RADIAN. ) );
#710 = MECHANICAL_DESIGN_GEOMETRIC_PRESENTATION_REPRESENTATION (  '', ( #244 ), #450 ) ;
#711 = CARTESIAN_POINT ( 'NONE',  ( 0.03300000000000000155, 0.3300000000000000155, 0.03300000000000000155 ) ) ;
#712 = VECTOR ( 'NONE', #511, 1000.000000000000000 ) ;
#713 = SHAPE_DEFINITION_REPRESENTATION ( #103, #619 ) ;
#714 = CARTESIAN_POINT ( 'NONE',  ( 0.000000000000000000, 0.000000000000000000, 0.000000000000000000 ) ) ;
#715 = MANIFOLD_SOLID_BREP ( 'Mid Body[1]', #541 ) ;
#716 = DIRECTION ( 'NONE',  ( 0.000000000000000000, 0.000000000000000000, 1.000000000000000000 ) ) ;
#717 = PRODUCT ( 'Mark_2.step_\X2\9ed88ba4\X0\', 'Mark_2.step_\X2\9ed88ba4\X0\', '', ( #268 ) ) ;
#718 = ADVANCED_FACE ( 'NONE', ( #691 ), #610, .T. ) ;
#719 = CARTESIAN_POINT ( 'NONE',  ( 0.3300000000000000155, 0.000000000000000000, 0.000000000000000000 ) ) ;
#720 = EDGE_CURVE ( 'NONE', #228, #699, #181, .T. ) ;
#721 = ORIENTED_EDGE ( 'NONE', *, *, #109, .F. ) ;
#722 = DIRECTION ( 'NONE',  ( 0.000000000000000000, 0.000000000000000000, 1.000000000000000000 ) ) ;
#723 = APPLICATION_PROTOCOL_DEFINITION ( 'draft international standard', 'automotive_design', 1998, #701 ) ;
#724 = LINE ( 'NONE', #218, #437 ) ;
#725 = ORIENTED_EDGE ( 'NONE', *, *, #174, .F. ) ;
#726 = VECTOR ( 'NONE', #542, 1000.000000000000000 ) ;
#727 =( NAMED_UNIT ( * ) PLANE_ANGLE_UNIT ( ) SI_UNIT ( $, .RADIAN. ) );
#728 = DIRECTION ( 'NONE',  ( 0.000000000000000000, 0.000000000000000000, 1.000000000000000000 ) ) ;
#729 = PLANE ( 'NONE',  #134 ) ;
#730 = APPLICATION_CONTEXT ( 'automotive_design' ) ;
#731 = LINE ( 'NONE', #527, #439 ) ;
#732 = EDGE_CURVE ( 'NONE', #157, #735, #622, .T. ) ;
#733 = APPLICATION_PROTOCOL_DEFINITION ( 'draft international standard', 'automotive_design', 1998, #229 ) ;
#734 = CARTESIAN_POINT ( 'NONE',  ( 0.000000000000000000, 0.000000000000000000, 0.000000000000000000 ) ) ;
#735 = VERTEX_POINT ( 'NONE', #43 ) ;
#736 = DIRECTION ( 'NONE',  ( 0.000000000000000000, 1.000000000000000000, 0.000000000000000000 ) ) ;
#737 = DIRECTION ( 'NONE',  ( 1.000000000000000000, 0.000000000000000000, 0.000000000000000000 ) ) ;
#738 = VERTEX_POINT ( 'NONE', #110 ) ;
#739 = AXIS2_PLACEMENT_3D ( 'NONE', #86, #417, #815 ) ;
#740 = DIRECTION ( 'NONE',  ( 0.000000000000000000, 1.000000000000000000, 0.000000000000000000 ) ) ;
#741 =( GEOMETRIC_REPRESENTATION_CONTEXT ( 3 ) GLOBAL_UNCERTAINTY_ASSIGNED_CONTEXT ( ( #761 ) ) GLOBAL_UNIT_ASSIGNED_CONTEXT ( ( #72, #521, #580 ) ) REPRESENTATION_CONTEXT ( 'NONE', 'WORKASPACE' ) );
#742 =( NAMED_UNIT ( * ) SI_UNIT ( $, .STERADIAN. ) SOLID_ANGLE_UNIT ( ) );
#743 = ORIENTED_EDGE ( 'NONE', *, *, #109, .T. ) ;
#744 = DIRECTION ( 'NONE',  ( 1.000000000000000000, 0.000000000000000000, 0.000000000000000000 ) ) ;
#745 = EDGE_CURVE ( 'NONE', #764, #3, #177, .T. ) ;
#746 = CARTESIAN_POINT ( 'NONE',  ( 0.03300000000000000155, 0.000000000000000000, 0.03300000000000000155 ) ) ;
#747 = EDGE_LOOP ( 'NONE', ( #212, #559, #223, #552 ) ) ;
#748 = SURFACE_STYLE_USAGE ( .BOTH. , #225 ) ;
#749 = LINE ( 'NONE', #497, #255 ) ;
#750 = ORIENTED_EDGE ( 'NONE', *, *, #36, .T. ) ;
#751 = VECTOR ( 'NONE', #645, 1000.000000000000000 ) ;
#752 = CARTESIAN_POINT ( 'NONE',  ( 0.000000000000000000, 0.000000000000000000, 0.000000000000000000 ) ) ;
#753 = CARTESIAN_POINT ( 'NONE',  ( 0.3300000000000000155, 0.000000000000000000, 0.000000000000000000 ) ) ;
#754 = VERTEX_POINT ( 'NONE', #377 ) ;
#755 = PLANE ( 'NONE',  #178 ) ;
#756 = EDGE_CURVE ( 'NONE', #735, #342, #46, .T. ) ;
#757 = CARTESIAN_POINT ( 'NONE',  ( 0.000000000000000000, 0.3300000000000000155, 0.03300000000000000155 ) ) ;
#758 = ORIENTED_EDGE ( 'NONE', *, *, #186, .F. ) ;
#759 = LINE ( 'NONE', #641, #841 ) ;
#760 = PRODUCT_DEFINITION ( 'UNKNOWN', '', #418, #436 ) ;
#761 = UNCERTAINTY_MEASURE_WITH_UNIT (LENGTH_MEASURE( 1.000000000000000082E-05 ), #72, 'distance_accuracy_value', 'NONE');
#762 = ADVANCED_BREP_SHAPE_REPRESENTATION ( '', ( #715, #478 ), #67 ) ;
#763 =( LENGTH_UNIT ( ) NAMED_UNIT ( * ) SI_UNIT ( .MILLI., .METRE. ) );
#764 = VERTEX_POINT ( 'NONE', #575 ) ;
#765 = CARTESIAN_POINT ( 'NONE',  ( 0.5969999999999999751, 0.000000000000000000, 0.2969999999999999862 ) ) ;
#766 = AXIS2_PLACEMENT_3D ( 'NONE', #170, #28, #819 ) ;
#767 = ORIENTED_EDGE ( 'NONE', *, *, #551, .F. ) ;
#768 = LINE ( 'NONE', #700, #219 ) ;
#769 = PRODUCT_DEFINITION_FORMATION_WITH_SPECIFIED_SOURCE ( 'ANY', '', #555, .NOT_KNOWN. ) ;
#770 = CARTESIAN_POINT ( 'NONE',  ( 0.000000000000000000, 0.3300000000000000155, 0.000000000000000000 ) ) ;
#771 = APPLICATION_CONTEXT ( 'automotive_design' ) ;
#772 = PRODUCT ( 'NTC0201.step_\X2\9ed88ba4\X0\', 'NTC0201.step_\X2\9ed88ba4\X0\', '', ( #805 ) ) ;
#773 = DIRECTION ( 'NONE',  ( 1.000000000000000000, 0.000000000000000000, 0.000000000000000000 ) ) ;
#774 =( NAMED_UNIT ( * ) SI_UNIT ( $, .STERADIAN. ) SOLID_ANGLE_UNIT ( ) );
#775 = CARTESIAN_POINT ( 'NONE',  ( 0.000000000000000000, 0.3300000000000000155, 0.000000000000000000 ) ) ;
#776 = CARTESIAN_POINT ( 'NONE',  ( 0.000000000000000000, 0.000000000000000000, 0.000000000000000000 ) ) ;
#777 = CARTESIAN_POINT ( 'NONE',  ( 0.3300000000000000155, 0.000000000000000000, 0.03300000000000000155 ) ) ;
#778 = VECTOR ( 'NONE', #737, 1000.000000000000000 ) ;
#779 = DIRECTION ( 'NONE',  ( 0.000000000000000000, 0.000000000000000000, 1.000000000000000000 ) ) ;
#780 = VECTOR ( 'NONE', #435, 1000.000000000000000 ) ;
#781 =( LENGTH_UNIT ( ) NAMED_UNIT ( * ) SI_UNIT ( .MILLI., .METRE. ) );
#782 = PRODUCT_RELATED_PRODUCT_CATEGORY ( 'part', '', ( #772 ) ) ;
#783 = CARTESIAN_POINT ( 'NONE',  ( 0.000000000000000000, 0.000000000000000000, 0.000000000000000000 ) ) ;
#784 = EDGE_CURVE ( 'NONE', #537, #342, #185, .T. ) ;
#785 = DIRECTION ( 'NONE',  ( 1.000000000000000000, 0.000000000000000000, 0.000000000000000000 ) ) ;
#786 = VECTOR ( 'NONE', #124, 1000.000000000000000 ) ;
#787 = ORIENTED_EDGE ( 'NONE', *, *, #312, .F. ) ;
#788 = SURFACE_SIDE_STYLE ('',( #202 ) ) ;
#789 = DIRECTION ( 'NONE',  ( -0.000000000000000000, 1.000000000000000000, 0.000000000000000000 ) ) ;
#790 = DIRECTION ( 'NONE',  ( 1.000000000000000000, 0.000000000000000000, 0.000000000000000000 ) ) ;
#791 = DIRECTION ( 'NONE',  ( 0.000000000000000000, 0.000000000000000000, 1.000000000000000000 ) ) ;
#792 = APPLICATION_CONTEXT ( 'automotive_design' ) ;
#793 = FACE_OUTER_BOUND ( 'NONE', #208, .T. ) ;
#794 = DIRECTION ( 'NONE',  ( 0.000000000000000000, -1.000000000000000000, 0.000000000000000000 ) ) ;
#795 = AXIS2_PLACEMENT_3D ( 'NONE', #681, #152, #405 ) ;
#796 = ORIENTED_EDGE ( 'NONE', *, *, #391, .T. ) ;
#797 = VECTOR ( 'NONE', #674, 1000.000000000000000 ) ;
#798 = LINE ( 'NONE', #854, #558 ) ;
#799 = DIRECTION ( 'NONE',  ( 0.000000000000000000, 0.000000000000000000, 1.000000000000000000 ) ) ;
#800 = CARTESIAN_POINT ( 'NONE',  ( 0.03300000000000000155, 0.000000000000000000, 0.03300000000000000155 ) ) ;
#801 = EDGE_CURVE ( 'NONE', #764, #25, #759, .T. ) ;
#802 = SHAPE_REPRESENTATION ( 'Mark_2.step_\X2\9ed88ba4\X0\', ( #478 ), #182 ) ;
#803 = ORIENTED_EDGE ( 'NONE', *, *, #732, .F. ) ;
#804 = CARTESIAN_POINT ( 'NONE',  ( 0.1499999999999999944, 0.000000000000000000, 0.3300000000000000155 ) ) ;
#805 = PRODUCT_CONTEXT ( 'NONE', #771, 'mechanical' ) ;
#806 = DIRECTION ( 'NONE',  ( 0.000000000000000000, 1.000000000000000000, 0.000000000000000000 ) ) ;
#807 = VERTEX_POINT ( 'NONE', #509 ) ;
#808 = EDGE_CURVE ( 'NONE', #81, #807, #381, .T. ) ;
#809 = CONTEXT_DEPENDENT_SHAPE_REPRESENTATION ( #546, #302 ) ;
#810 = DIRECTION ( 'NONE',  ( -0.000000000000000000, 1.000000000000000000, 0.000000000000000000 ) ) ;
#811 = EDGE_LOOP ( 'NONE', ( #131, #758, #346, #441 ) ) ;
#812 = MECHANICAL_DESIGN_GEOMETRIC_PRESENTATION_REPRESENTATION (  '', ( #257 ), #600 ) ;
#813 = CONTEXT_DEPENDENT_SHAPE_REPRESENTATION ( #376, #254 ) ;
#814 = EDGE_CURVE ( 'NONE', #807, #77, #634, .T. ) ;
#815 = DIRECTION ( 'NONE',  ( 1.000000000000000000, 0.000000000000000000, 0.000000000000000000 ) ) ;
#816 = ORIENTED_EDGE ( 'NONE', *, *, #73, .F. ) ;
#817 = CARTESIAN_POINT ( 'NONE',  ( 0.5969999999999999751, 0.3300000000000000155, 0.03300000000000000155 ) ) ;
#818 = UNCERTAINTY_MEASURE_WITH_UNIT (LENGTH_MEASURE( 1.000000000000000082E-05 ), #502, 'distance_accuracy_value', 'NONE');
#819 = DIRECTION ( 'NONE',  ( 0.000000000000000000, 1.000000000000000000, 0.000000000000000000 ) ) ;
#820 = ORIENTED_EDGE ( 'NONE', *, *, #357, .T. ) ;
#821 = FACE_OUTER_BOUND ( 'NONE', #336, .T. ) ;
#822 = PRODUCT_CONTEXT ( 'NONE', #792, 'mechanical' ) ;
#823 = PLANE ( 'NONE',  #639 ) ;
#824 = ORIENTED_EDGE ( 'NONE', *, *, #357, .F. ) ;
#825 = SHAPE_REPRESENTATION ( 'NTC0201.step_\X2\9ed88ba4\X0\', ( #70, #2, #522, #702, #158 ), #248 ) ;
#826 = PRODUCT_DEFINITION_SHAPE ( 'NONE', 'NONE',  #760 ) ;
#827 = AXIS2_PLACEMENT_3D ( 'NONE', #714, #122, #638 ) ;
#828 = CARTESIAN_POINT ( 'NONE',  ( 0.3300000000000000155, 0.000000000000000000, 0.000000000000000000 ) ) ;
#829 = PRODUCT_DEFINITION_CONTEXT ( 'detailed design', #188, 'design' ) ;
#830 = CARTESIAN_POINT ( 'NONE',  ( 0.000000000000000000, 0.3300000000000000155, 0.3300000000000000155 ) ) ;
#831 =( REPRESENTATION_RELATIONSHIP ('NONE','NONE', #825, #802 ) REPRESENTATION_RELATIONSHIP_WITH_TRANSFORMATION ( #300 )SHAPE_REPRESENTATION_RELATIONSHIP( ) );
#832 = VERTEX_POINT ( 'NONE', #48 ) ;
#833 =( NAMED_UNIT ( * ) SI_UNIT ( $, .STERADIAN. ) SOLID_ANGLE_UNIT ( ) );
#834 = SHAPE_REPRESENTATION_RELATIONSHIP ( 'NONE' , 'NONE' ,  #802, #597 ) ;
#835 = VERTEX_POINT ( 'NONE', #101 ) ;
#836 = CARTESIAN_POINT ( 'NONE',  ( 0.1499999999999999944, 0.000000000000000000, 0.000000000000000000 ) ) ;
#837 = EDGE_CURVE ( 'NONE', #679, #832, #315, .T. ) ;
#838 = ORIENTED_EDGE ( 'NONE', *, *, #474, .T. ) ;
#839 = APPLICATION_CONTEXT ( 'automotive_design' ) ;
#840 = EDGE_CURVE ( 'NONE', #640, #100, #768, .T. ) ;
#841 = VECTOR ( 'NONE', #237, 1000.000000000000000 ) ;
#842 = ORIENTED_EDGE ( 'NONE', *, *, #369, .F. ) ;
#843 = CARTESIAN_POINT ( 'NONE',  ( 0.1499999999999999944, 0.3300000000000000155, 0.2969999999999999862 ) ) ;
#844 = SURFACE_STYLE_USAGE ( .BOTH. , #568 ) ;
#845 = PRODUCT_DEFINITION_FORMATION_WITH_SPECIFIED_SOURCE ( 'ANY', '', #717, .NOT_KNOWN. ) ;
#846 = DIRECTION ( 'NONE',  ( 1.000000000000000000, 0.000000000000000000, 0.000000000000000000 ) ) ;
#847 = PRODUCT_DEFINITION_SHAPE ( 'NONE', 'NONE',  #457 ) ;
#848 = LINE ( 'NONE', #565, #712 ) ;
#849 = LINE ( 'NONE', #513, #786 ) ;
#850 = FILL_AREA_STYLE_COLOUR ( '', #664 ) ;
#851 = CARTESIAN_POINT ( 'NONE',  ( 0.000000000000000000, 0.000000000000000000, 0.000000000000000000 ) ) ;
#852 = EDGE_CURVE ( 'NONE', #380, #738, #848, .T. ) ;
#853 = PLANE ( 'NONE',  #697 ) ;
#854 = CARTESIAN_POINT ( 'NONE',  ( 0.1499999999999999944, 0.3300000000000000155, 0.000000000000000000 ) ) ;
#855 = NEXT_ASSEMBLY_USAGE_OCCURRENCE ( 'NAUO1', ' ', ' ', #360, #760, $ ) ;
#856 = NEXT_ASSEMBLY_USAGE_OCCURRENCE ( 'NAUO2', ' ', ' ', #760, #10, $ ) ;
#857 = NEXT_ASSEMBLY_USAGE_OCCURRENCE ( 'NAUO3', ' ', ' ', #760, #10, $ ) ;
#858 = NEXT_ASSEMBLY_USAGE_OCCURRENCE ( 'NAUO4', ' ', ' ', #760, #45, $ ) ;
#859 = NEXT_ASSEMBLY_USAGE_OCCURRENCE ( 'NAUO5', ' ', ' ', #760, #457, $ ) ;
#860 = NEXT_ASSEMBLY_USAGE_OCCURRENCE ( 'NAUO6', ' ', ' ', #10, #416, $ ) ;
ENDSEC;
END-ISO-10303-21;
