ISO-10303-21;
HEADER;
FILE_DESCRIPTION (( 'STEP AP214' ),
    '1' );
FILE_NAME ('NTC0805.step',
    '2025-10-18T15:08:57',
    ( '' ),
    ( '' ),
    'SwSTEP 2.0',
    'SolidWorks 2025',
    '' );
FILE_SCHEMA (( 'AUTOMOTIVE_DESIGN' ));
ENDSEC;

DATA;
#1 = CARTESIAN_POINT ( 'NONE',  ( 0.000000000000000000, 0.000000000000000000, 0.000000000000000000 ) ) ;
#2 = AXIS2_PLACEMENT_3D ( 'NONE', #633, #568, #85 ) ;
#3 = FACE_OUTER_BOUND ( 'NONE', #571, .T. ) ;
#4 =( LENGTH_UNIT ( ) NAMED_UNIT ( * ) SI_UNIT ( .MILLI., .METRE. ) );
#5 = AXIS2_PLACEMENT_3D ( 'NONE', #766, #248, #591 ) ;
#6 = CARTESIAN_POINT ( 'NONE',  ( 0.1449999999999999900, 0.000000000000000000, 1.304999999999999938 ) ) ;
#7 = PRODUCT_DEFINITION ( 'UNKNOWN', '', #403, #764 ) ;
#8 = CLOSED_SHELL ( 'NONE', ( #148, #54, #99, #344, #300, #76, #727, #783, #331, #628 ) ) ;
#9 = VECTOR ( 'NONE', #317, 1000.000000000000000 ) ;
#10 = AXIS2_PLACEMENT_3D ( 'NONE', #795, #210, #62 ) ;
#11 = PLANE ( 'NONE',  #191 ) ;
#12 =( REPRESENTATION_RELATIONSHIP ('NONE','NONE', #115, #561 ) REPRESENTATION_RELATIONSHIP_WITH_TRANSFORMATION ( #527 )SHAPE_REPRESENTATION_RELATIONSHIP( ) );
#13 = ORIENTED_EDGE ( 'NONE', *, *, #206, .F. ) ;
#14 = ADVANCED_FACE ( 'NONE', ( #631 ), #44, .T. ) ;
#15 = ORIENTED_EDGE ( 'NONE', *, *, #236, .F. ) ;
#16 = DIRECTION ( 'NONE',  ( 1.000000000000000000, 0.000000000000000000, 0.000000000000000000 ) ) ;
#17 = EDGE_LOOP ( 'NONE', ( #660, #451, #422, #310 ) ) ;
#18 = AXIS2_PLACEMENT_3D ( 'NONE', #381, #640, #267 ) ;
#19 = CARTESIAN_POINT ( 'NONE',  ( 2.055000000000000160, 0.000000000000000000, 0.1449999999999999900 ) ) ;
#20 = PRESENTATION_STYLE_ASSIGNMENT (( #814 ) ) ;
#21 = VERTEX_POINT ( 'NONE', #507 ) ;
#22 = EDGE_CURVE ( 'NONE', #313, #756, #251, .T. ) ;
#23 = DIRECTION ( 'NONE',  ( 0.000000000000000000, 0.000000000000000000, 1.000000000000000000 ) ) ;
#24 = PRODUCT_DEFINITION_FORMATION_WITH_SPECIFIED_SOURCE ( 'ANY', '', #729, .NOT_KNOWN. ) ;
#25 = ORIENTED_EDGE ( 'NONE', *, *, #711, .F. ) ;
#26 = PRESENTATION_LAYER_ASSIGNMENT (  '', '', ( #621 ) ) ;
#27 = PRODUCT_DEFINITION ( 'UNKNOWN', '', #588, #577 ) ;
#28 = CARTESIAN_POINT ( 'NONE',  ( 0.1449999999999999900, 1.449999999999999956, 1.304999999999999938 ) ) ;
#29 = VECTOR ( 'NONE', #40, 1000.000000000000000 ) ;
#30 = ORIENTED_EDGE ( 'NONE', *, *, #643, .F. ) ;
#31 = DIRECTION ( 'NONE',  ( 0.000000000000000000, 1.000000000000000000, 0.000000000000000000 ) ) ;
#32 = DIRECTION ( 'NONE',  ( 1.000000000000000000, 0.000000000000000000, 0.000000000000000000 ) ) ;
#33 = ORIENTED_EDGE ( 'NONE', *, *, #624, .T. ) ;
#34 = CARTESIAN_POINT ( 'NONE',  ( -1.100000000000000089, -0.7249999999999999778, 0.000000000000000000 ) ) ;
#35 = CARTESIAN_POINT ( 'NONE',  ( 1.300000000000000044, 1.449999999999999956, 0.1449999999999999900 ) ) ;
#36 = DIRECTION ( 'NONE',  ( 0.000000000000000000, 1.000000000000000000, 0.000000000000000000 ) ) ;
#37 = ADVANCED_FACE ( 'NONE', ( #623 ), #599, .F. ) ;
#38 = EDGE_LOOP ( 'NONE', ( #298, #80, #359, #98 ) ) ;
#39 =( NAMED_UNIT ( * ) SI_UNIT ( $, .STERADIAN. ) SOLID_ANGLE_UNIT ( ) );
#40 = DIRECTION ( 'NONE',  ( 0.000000000000000000, 0.000000000000000000, 1.000000000000000000 ) ) ;
#41 = CARTESIAN_POINT ( 'NONE',  ( 0.4500000000000000111, 0.000000000000000000, 1.304999999999999938 ) ) ;
#42 = DIRECTION ( 'NONE',  ( 1.000000000000000000, 0.000000000000000000, 0.000000000000000000 ) ) ;
#43 = PRODUCT_DEFINITION_CONTEXT ( 'detailed design', #805, 'design' ) ;
#44 = PLANE ( 'NONE',  #812 ) ;
#45 = VECTOR ( 'NONE', #42, 1000.000000000000000 ) ;
#46 =( NAMED_UNIT ( * ) SI_UNIT ( $, .STERADIAN. ) SOLID_ANGLE_UNIT ( ) );
#47 = DIRECTION ( 'NONE',  ( 0.000000000000000000, 0.000000000000000000, 1.000000000000000000 ) ) ;
#48 = LINE ( 'NONE', #767, #211 ) ;
#49 = FILL_AREA_STYLE ('',( #517 ) ) ;
#50 = COLOUR_RGB ( '',0.8274509803921568096, 0.8274509803921568096, 0.8274509803921568096 ) ;
#51 = ITEM_DEFINED_TRANSFORMATION ( 'NONE', 'NONE', #376,  #117 ) ;
#52 = CARTESIAN_POINT ( 'NONE',  ( 0.1449999999999999900, 1.449999999999999956, 1.304999999999999938 ) ) ;
#53 = ORIENTED_EDGE ( 'NONE', *, *, #448, .T. ) ;
#54 = ADVANCED_FACE ( 'NONE', ( #798 ), #215, .F. ) ;
#55 = PLANE ( 'NONE',  #811 ) ;
#56 = DIRECTION ( 'NONE',  ( 0.000000000000000000, 1.000000000000000000, 0.000000000000000000 ) ) ;
#57 = APPLICATION_PROTOCOL_DEFINITION ( 'draft international standard', 'automotive_design', 1998, #279 ) ;
#58 = LINE ( 'NONE', #112, #486 ) ;
#59 = PRODUCT_DEFINITION_SHAPE ( 'NONE', 'NONE',  #7 ) ;
#60 = CARTESIAN_POINT ( 'NONE',  ( 0.000000000000000000, 1.449999999999999956, 0.000000000000000000 ) ) ;
#61 = CARTESIAN_POINT ( 'NONE',  ( 0.1449999999999999900, 0.000000000000000000, 0.1449999999999999900 ) ) ;
#62 = DIRECTION ( 'NONE',  ( 1.000000000000000000, 0.000000000000000000, 0.000000000000000000 ) ) ;
#63 = SHAPE_REPRESENTATION ( 'Mark_1.step_\X2\9ed88ba4\X0\', ( #117 ), #747 ) ;
#64 = PLANE ( 'NONE',  #146 ) ;
#65 = VERTEX_POINT ( 'NONE', #282 ) ;
#66 = DIRECTION ( 'NONE',  ( 1.000000000000000000, 0.000000000000000000, 0.000000000000000000 ) ) ;
#67 = DIRECTION ( 'NONE',  ( 0.000000000000000000, 1.000000000000000000, 0.000000000000000000 ) ) ;
#68 = DIRECTION ( 'NONE',  ( 1.000000000000000000, 0.000000000000000000, 0.000000000000000000 ) ) ;
#69 = VERTEX_POINT ( 'NONE', #275 ) ;
#70 = DIRECTION ( 'NONE',  ( 1.000000000000000000, 0.000000000000000000, 0.000000000000000000 ) ) ;
#71 = AXIS2_PLACEMENT_3D ( 'NONE', #6, #537, #68 ) ;
#72 = FACE_OUTER_BOUND ( 'NONE', #306, .T. ) ;
#73 = SURFACE_STYLE_USAGE ( .BOTH. , #343 ) ;
#74 =( GEOMETRIC_REPRESENTATION_CONTEXT ( 3 ) GLOBAL_UNCERTAINTY_ASSIGNED_CONTEXT ( ( #225 ) ) GLOBAL_UNIT_ASSIGNED_CONTEXT ( ( #601, #207, #455 ) ) REPRESENTATION_CONTEXT ( 'NONE', 'WORKASPACE' ) );
#75 = EDGE_CURVE ( 'NONE', #418, #696, #142, .T. ) ;
#76 = ADVANCED_FACE ( 'NONE', ( #149 ), #135, .F. ) ;
#77 = SURFACE_SIDE_STYLE ('',( #554 ) ) ;
#78 = ORIENTED_EDGE ( 'NONE', *, *, #693, .F. ) ;
#79 =( LENGTH_UNIT ( ) NAMED_UNIT ( * ) SI_UNIT ( .MILLI., .METRE. ) );
#80 = ORIENTED_EDGE ( 'NONE', *, *, #273, .T. ) ;
#81 = APPLICATION_CONTEXT ( 'automotive_design' ) ;
#82 = SHAPE_REPRESENTATION ( 'NTC0805', ( #551, #637 ), #472 ) ;
#83 = VECTOR ( 'NONE', #334, 1000.000000000000000 ) ;
#84 = LINE ( 'NONE', #361, #219 ) ;
#85 = DIRECTION ( 'NONE',  ( 1.000000000000000000, 0.000000000000000000, 0.000000000000000000 ) ) ;
#86 =( NAMED_UNIT ( * ) SI_UNIT ( $, .STERADIAN. ) SOLID_ANGLE_UNIT ( ) );
#87 = ORIENTED_EDGE ( 'NONE', *, *, #75, .T. ) ;
#88 = STYLED_ITEM ( 'NONE', ( #708 ), #625 ) ;
#89 = SURFACE_SIDE_STYLE ('',( #686 ) ) ;
#90 = ADVANCED_BREP_SHAPE_REPRESENTATION ( '', ( #350, #117 ), #281 ) ;
#91 = ORIENTED_EDGE ( 'NONE', *, *, #843, .T. ) ;
#92 = PRODUCT_DEFINITION ( 'UNKNOWN', '', #692, #243 ) ;
#93 = CARTESIAN_POINT ( 'NONE',  ( 0.000000000000000000, 1.449999999999999956, 0.000000000000000000 ) ) ;
#94 =( LENGTH_UNIT ( ) NAMED_UNIT ( * ) SI_UNIT ( .MILLI., .METRE. ) );
#95 = ORIENTED_EDGE ( 'NONE', *, *, #711, .T. ) ;
#96 = AXIS2_PLACEMENT_3D ( 'NONE', #430, #23, #297 ) ;
#97 = CARTESIAN_POINT ( 'NONE',  ( 0.4500000000000000111, 0.000000000000000000, 0.000000000000000000 ) ) ;
#98 = ORIENTED_EDGE ( 'NONE', *, *, #184, .F. ) ;
#99 = ADVANCED_FACE ( 'NONE', ( #3 ), #739, .T. ) ;
#100 = APPLICATION_PROTOCOL_DEFINITION ( 'draft international standard', 'automotive_design', 1998, #597 ) ;
#101 = PRODUCT_DEFINITION_SHAPE ( 'NONE', 'NONE',  #552 ) ;
#102 = LINE ( 'NONE', #746, #189 ) ;
#103 = EDGE_CURVE ( 'NONE', #578, #512, #594, .T. ) ;
#104 = CARTESIAN_POINT ( 'NONE',  ( 0.1449999999999999900, 0.000000000000000000, 1.304999999999999938 ) ) ;
#105 = EDGE_CURVE ( 'NONE', #780, #136, #186, .T. ) ;
#106 = ORIENTED_EDGE ( 'NONE', *, *, #540, .T. ) ;
#107 = DIRECTION ( 'NONE',  ( 0.000000000000000000, 0.000000000000000000, 1.000000000000000000 ) ) ;
#108 = DIRECTION ( 'NONE',  ( 1.000000000000000000, 0.000000000000000000, 0.000000000000000000 ) ) ;
#109 = FACE_OUTER_BOUND ( 'NONE', #745, .T. ) ;
#110 = LINE ( 'NONE', #641, #45 ) ;
#111 = EDGE_LOOP ( 'NONE', ( #566, #15, #120, #106 ) ) ;
#112 = CARTESIAN_POINT ( 'NONE',  ( 0.000000000000000000, 0.000000000000000000, 1.449999999999999956 ) ) ;
#113 = CARTESIAN_POINT ( 'NONE',  ( 0.1449999999999999900, 0.000000000000000000, 0.1449999999999999900 ) ) ;
#114 = VECTOR ( 'NONE', #440, 1000.000000000000000 ) ;
#115 = SHAPE_REPRESENTATION ( 'NTC0805.step_\X2\9ed88ba4\X0\', ( #278, #414, #203, #723, #376 ), #535 ) ;
#116 =( REPRESENTATION_RELATIONSHIP ('NONE','NONE', #217, #680 ) REPRESENTATION_RELATIONSHIP_WITH_TRANSFORMATION ( #274 )SHAPE_REPRESENTATION_RELATIONSHIP( ) );
#117 = AXIS2_PLACEMENT_3D ( 'NONE', #335, #399, #598 ) ;
#118 = EDGE_CURVE ( 'NONE', #69, #756, #473, .T. ) ;
#119 = CARTESIAN_POINT ( 'NONE',  ( 1.300000000000000044, 0.000000000000000000, 0.000000000000000000 ) ) ;
#120 = ORIENTED_EDGE ( 'NONE', *, *, #283, .T. ) ;
#121 = DIRECTION ( 'NONE',  ( 0.000000000000000000, 0.000000000000000000, 1.000000000000000000 ) ) ;
#122 = LINE ( 'NONE', #763, #684 ) ;
#123 = PRODUCT_DEFINITION_SHAPE ( 'NONE', 'NONE',  #402 ) ;
#124 = PRODUCT_RELATED_PRODUCT_CATEGORY ( 'part', '', ( #452 ) ) ;
#125 = FACE_OUTER_BOUND ( 'NONE', #173, .T. ) ;
#126 = ORIENTED_EDGE ( 'NONE', *, *, #662, .T. ) ;
#127 = DIRECTION ( 'NONE',  ( 0.000000000000000000, 0.000000000000000000, 1.000000000000000000 ) ) ;
#128 = CARTESIAN_POINT ( 'NONE',  ( 0.4500000000000000111, 0.000000000000000000, 0.1449999999999999900 ) ) ;
#129 = APPLICATION_PROTOCOL_DEFINITION ( 'draft international standard', 'automotive_design', 1998, #315 ) ;
#130 = DIRECTION ( 'NONE',  ( 0.000000000000000000, 0.000000000000000000, 1.000000000000000000 ) ) ;
#131 = EDGE_LOOP ( 'NONE', ( #836, #616, #401, #164 ) ) ;
#132 = PRODUCT_DEFINITION_SHAPE ( 'NONE', 'NONE',  #675 ) ;
#133 = CARTESIAN_POINT ( 'NONE',  ( 0.1449999999999999900, 1.449999999999999956, 0.1449999999999999900 ) ) ;
#134 = LINE ( 'NONE', #1, #644 ) ;
#135 = PLANE ( 'NONE',  #347 ) ;
#136 = VERTEX_POINT ( 'NONE', #466 ) ;
#137 =( REPRESENTATION_RELATIONSHIP ('NONE','NONE', #82, #115 ) REPRESENTATION_RELATIONSHIP_WITH_TRANSFORMATION ( #392 )SHAPE_REPRESENTATION_RELATIONSHIP( ) );
#138 = FILL_AREA_STYLE ('',( #663 ) ) ;
#139 = MECHANICAL_DESIGN_GEOMETRIC_PRESENTATION_REPRESENTATION (  '', ( #88 ), #255 ) ;
#140 = CARTESIAN_POINT ( 'NONE',  ( 0.4500000000000000111, 0.000000000000000000, 0.000000000000000000 ) ) ;
#141 = VERTEX_POINT ( 'NONE', #280 ) ;
#142 = LINE ( 'NONE', #796, #742 ) ;
#143 = ORIENTED_EDGE ( 'NONE', *, *, #610, .F. ) ;
#144 = PRESENTATION_STYLE_ASSIGNMENT (( #73 ) ) ;
#145 = EDGE_CURVE ( 'NONE', #327, #780, #532, .T. ) ;
#146 = AXIS2_PLACEMENT_3D ( 'NONE', #779, #47, #187 ) ;
#147 = AXIS2_PLACEMENT_3D ( 'NONE', #581, #574, #393 ) ;
#148 = ADVANCED_FACE ( 'NONE', ( #72 ), #11, .T. ) ;
#149 = FACE_OUTER_BOUND ( 'NONE', #666, .T. ) ;
#150 = EDGE_CURVE ( 'NONE', #426, #487, #538, .T. ) ;
#151 = FILL_AREA_STYLE_COLOUR ( '', #342 ) ;
#152 = VERTEX_POINT ( 'NONE', #740 ) ;
#153 = EDGE_LOOP ( 'NONE', ( #156, #677, #78, #87 ) ) ;
#154 =( GEOMETRIC_REPRESENTATION_CONTEXT ( 3 ) GLOBAL_UNCERTAINTY_ASSIGNED_CONTEXT ( ( #159 ) ) GLOBAL_UNIT_ASSIGNED_CONTEXT ( ( #613, #683, #86 ) ) REPRESENTATION_CONTEXT ( 'NONE', 'WORKASPACE' ) );
#155 = CARTESIAN_POINT ( 'NONE',  ( 0.1449999999999999900, 0.000000000000000000, 1.304999999999999938 ) ) ;
#156 = ORIENTED_EDGE ( 'NONE', *, *, #447, .T. ) ;
#157 = DIRECTION ( 'NONE',  ( 0.000000000000000000, 0.000000000000000000, 1.000000000000000000 ) ) ;
#158 =( NAMED_UNIT ( * ) PLANE_ANGLE_UNIT ( ) SI_UNIT ( $, .RADIAN. ) );
#159 = UNCERTAINTY_MEASURE_WITH_UNIT (LENGTH_MEASURE( 1.000000000000000082E-05 ), #613, 'distance_accuracy_value', 'NONE');
#160 = ORIENTED_EDGE ( 'NONE', *, *, #448, .F. ) ;
#161 = PRESENTATION_LAYER_ASSIGNMENT (  '', '', ( #816 ) ) ;
#162 = PRODUCT ( 'Mid Body_1.step_\X2\9ed88ba4\X0\', 'Mid Body_1.step_\X2\9ed88ba4\X0\', '', ( #787 ) ) ;
#163 = DIRECTION ( 'NONE',  ( 0.000000000000000000, 1.000000000000000000, 0.000000000000000000 ) ) ;
#164 = ORIENTED_EDGE ( 'NONE', *, *, #850, .F. ) ;
#165 = LINE ( 'NONE', #97, #474 ) ;
#166 = CARTESIAN_POINT ( 'NONE',  ( 0.000000000000000000, 0.000000000000000000, 0.000000000000000000 ) ) ;
#167 = UNCERTAINTY_MEASURE_WITH_UNIT (LENGTH_MEASURE( 1.000000000000000082E-05 ), #171, 'distance_accuracy_value', 'NONE');
#168 = EDGE_CURVE ( 'NONE', #169, #313, #791, .T. ) ;
#169 = VERTEX_POINT ( 'NONE', #435 ) ;
#170 = DIRECTION ( 'NONE',  ( 0.000000000000000000, 0.000000000000000000, 1.000000000000000000 ) ) ;
#171 =( LENGTH_UNIT ( ) NAMED_UNIT ( * ) SI_UNIT ( .MILLI., .METRE. ) );
#172 = PRESENTATION_STYLE_ASSIGNMENT (( #324 ) ) ;
#173 = EDGE_LOOP ( 'NONE', ( #765, #91, #354, #839 ) ) ;
#174 =( NAMED_UNIT ( * ) PLANE_ANGLE_UNIT ( ) SI_UNIT ( $, .RADIAN. ) );
#175 = LINE ( 'NONE', #825, #777 ) ;
#176 =( GEOMETRIC_REPRESENTATION_CONTEXT ( 3 ) GLOBAL_UNCERTAINTY_ASSIGNED_CONTEXT ( ( #546 ) ) GLOBAL_UNIT_ASSIGNED_CONTEXT ( ( #372, #367, #238 ) ) REPRESENTATION_CONTEXT ( 'NONE', 'WORKASPACE' ) );
#177 = LINE ( 'NONE', #385, #358 ) ;
#178 = DIRECTION ( 'NONE',  ( -0.000000000000000000, 1.000000000000000000, 0.000000000000000000 ) ) ;
#179 = APPLICATION_CONTEXT ( 'automotive_design' ) ;
#180 = ORIENTED_EDGE ( 'NONE', *, *, #643, .T. ) ;
#181 = DIRECTION ( 'NONE',  ( 0.000000000000000000, 0.000000000000000000, 1.000000000000000000 ) ) ;
#182 = SURFACE_SIDE_STYLE ('',( #504 ) ) ;
#183 = FACE_OUTER_BOUND ( 'NONE', #234, .T. ) ;
#184 = EDGE_CURVE ( 'NONE', #487, #200, #320, .T. ) ;
#185 = ORIENTED_EDGE ( 'NONE', *, *, #785, .T. ) ;
#186 = LINE ( 'NONE', #400, #406 ) ;
#187 = DIRECTION ( 'NONE',  ( 1.000000000000000000, 0.000000000000000000, 0.000000000000000000 ) ) ;
#188 = VERTEX_POINT ( 'NONE', #522 ) ;
#189 = VECTOR ( 'NONE', #233, 1000.000000000000000 ) ;
#190 = DIRECTION ( 'NONE',  ( 0.000000000000000000, 1.000000000000000000, 0.000000000000000000 ) ) ;
#191 = AXIS2_PLACEMENT_3D ( 'NONE', #140, #667, #286 ) ;
#192 = LINE ( 'NONE', #639, #673 ) ;
#193 = ORIENTED_EDGE ( 'NONE', *, *, #145, .F. ) ;
#194 = DIRECTION ( 'NONE',  ( 0.000000000000000000, -1.000000000000000000, 0.000000000000000000 ) ) ;
#195 = MECHANICAL_DESIGN_GEOMETRIC_PRESENTATION_REPRESENTATION (  '', ( #816 ), #649 ) ;
#196 = LINE ( 'NONE', #721, #489 ) ;
#197 = PRODUCT_DEFINITION_SHAPE ( 'NONE', 'NONE',  #855 ) ;
#198 =( NAMED_UNIT ( * ) SI_UNIT ( $, .STERADIAN. ) SOLID_ANGLE_UNIT ( ) );
#199 = CARTESIAN_POINT ( 'NONE',  ( 0.000000000000000000, 0.000000000000000000, 0.000000000000000000 ) ) ;
#200 = VERTEX_POINT ( 'NONE', #714 ) ;
#201 = CARTESIAN_POINT ( 'NONE',  ( 0.000000000000000000, 0.000000000000000000, 1.449999999999999956 ) ) ;
#202 = CARTESIAN_POINT ( 'NONE',  ( 0.000000000000000000, 0.000000000000000000, 0.000000000000000000 ) ) ;
#203 = AXIS2_PLACEMENT_3D ( 'NONE', #697, #509, #502 ) ;
#204 = CARTESIAN_POINT ( 'NONE',  ( 0.4500000000000000111, 1.449999999999999956, 0.000000000000000000 ) ) ;
#205 = ORIENTED_EDGE ( 'NONE', *, *, #722, .F. ) ;
#206 = EDGE_CURVE ( 'NONE', #333, #136, #528, .T. ) ;
#207 =( NAMED_UNIT ( * ) PLANE_ANGLE_UNIT ( ) SI_UNIT ( $, .RADIAN. ) );
#208 = VECTOR ( 'NONE', #66, 1000.000000000000000 ) ;
#209 = DIRECTION ( 'NONE',  ( 0.000000000000000000, 1.000000000000000000, 0.000000000000000000 ) ) ;
#210 = DIRECTION ( 'NONE',  ( 0.000000000000000000, 0.000000000000000000, 1.000000000000000000 ) ) ;
#211 = VECTOR ( 'NONE', #121, 1000.000000000000000 ) ;
#212 = CARTESIAN_POINT ( 'NONE',  ( 0.000000000000000000, 0.000000000000000000, 0.000000000000000000 ) ) ;
#213 = EDGE_CURVE ( 'NONE', #333, #578, #192, .T. ) ;
#214 = ADVANCED_BREP_SHAPE_REPRESENTATION ( '', ( #625, #117 ), #235 ) ;
#215 = PLANE ( 'NONE',  #71 ) ;
#216 = PRODUCT_DEFINITION_FORMATION_WITH_SPECIFIED_SOURCE ( 'ANY', '', #162, .NOT_KNOWN. ) ;
#217 = SHAPE_REPRESENTATION ( 'Terminal_1.step_\X2\9ed88ba4\X0\', ( #449, #10 ), #284 ) ;
#218 = PRESENTATION_STYLE_ASSIGNMENT (( #809 ) ) ;
#219 = VECTOR ( 'NONE', #563, 1000.000000000000000 ) ;
#220 = ADVANCED_FACE ( 'NONE', ( #832 ), #332, .F. ) ;
#221 = VERTEX_POINT ( 'NONE', #584 ) ;
#222 = ORIENTED_EDGE ( 'NONE', *, *, #540, .F. ) ;
#223 = DIRECTION ( 'NONE',  ( 0.000000000000000000, 0.000000000000000000, 1.000000000000000000 ) ) ;
#224 = SURFACE_STYLE_FILL_AREA ( #804 ) ;
#225 = UNCERTAINTY_MEASURE_WITH_UNIT (LENGTH_MEASURE( 1.000000000000000082E-05 ), #601, 'distance_accuracy_value', 'NONE');
#226 = ORIENTED_EDGE ( 'NONE', *, *, #499, .T. ) ;
#227 = APPLICATION_CONTEXT ( 'automotive_design' ) ;
#228 = CONTEXT_DEPENDENT_SHAPE_REPRESENTATION ( #786, #307 ) ;
#229 = DIRECTION ( 'NONE',  ( 0.000000000000000000, 0.000000000000000000, 1.000000000000000000 ) ) ;
#230 = ORIENTED_EDGE ( 'NONE', *, *, #145, .T. ) ;
#231 = VECTOR ( 'NONE', #31, 1000.000000000000000 ) ;
#232 = VECTOR ( 'NONE', #181, 1000.000000000000000 ) ;
#233 = DIRECTION ( 'NONE',  ( 1.000000000000000000, 0.000000000000000000, 0.000000000000000000 ) ) ;
#234 = EDGE_LOOP ( 'NONE', ( #715, #533, #691, #515 ) ) ;
#235 =( GEOMETRIC_REPRESENTATION_CONTEXT ( 3 ) GLOBAL_UNCERTAINTY_ASSIGNED_CONTEXT ( ( #703 ) ) GLOBAL_UNIT_ASSIGNED_CONTEXT ( ( #277, #542, #289 ) ) REPRESENTATION_CONTEXT ( 'NONE', 'WORKASPACE' ) );
#236 = EDGE_CURVE ( 'NONE', #21, #749, #707, .T. ) ;
#237 = LINE ( 'NONE', #93, #851 ) ;
#238 =( NAMED_UNIT ( * ) SI_UNIT ( $, .STERADIAN. ) SOLID_ANGLE_UNIT ( ) );
#239 = ORIENTED_EDGE ( 'NONE', *, *, #103, .T. ) ;
#240 = APPLICATION_PROTOCOL_DEFINITION ( 'draft international standard', 'automotive_design', 1998, #805 ) ;
#241 = LINE ( 'NONE', #626, #520 ) ;
#242 = SURFACE_SIDE_STYLE ('',( #627 ) ) ;
#243 = PRODUCT_DEFINITION_CONTEXT ( 'detailed design', #315, 'design' ) ;
#244 =( REPRESENTATION_RELATIONSHIP ('NONE','NONE', #115, #217 ) REPRESENTATION_RELATIONSHIP_WITH_TRANSFORMATION ( #536 )SHAPE_REPRESENTATION_RELATIONSHIP( ) );
#245 = VERTEX_POINT ( 'NONE', #52 ) ;
#246 = AXIS2_PLACEMENT_3D ( 'NONE', #61, #534, #728 ) ;
#247 = DIRECTION ( 'NONE',  ( 0.000000000000000000, 0.000000000000000000, 1.000000000000000000 ) ) ;
#248 = DIRECTION ( 'NONE',  ( 1.000000000000000000, 0.000000000000000000, 0.000000000000000000 ) ) ;
#249 = CARTESIAN_POINT ( 'NONE',  ( 0.000000000000000000, 1.449999999999999956, 0.1449999999999999900 ) ) ;
#250 = PLANE ( 'NONE',  #605 ) ;
#251 = LINE ( 'NONE', #319, #445 ) ;
#252 = SHAPE_REPRESENTATION_RELATIONSHIP ( 'NONE' , 'NONE' ,  #63, #606 ) ;
#253 = CARTESIAN_POINT ( 'NONE',  ( 0.000000000000000000, 0.000000000000000000, 0.1449999999999999900 ) ) ;
#254 = PRODUCT ( 'NTC0805', 'NTC0805', '', ( #291 ) ) ;
#255 =( GEOMETRIC_REPRESENTATION_CONTEXT ( 3 ) GLOBAL_UNCERTAINTY_ASSIGNED_CONTEXT ( ( #828 ) ) GLOBAL_UNIT_ASSIGNED_CONTEXT ( ( #774, #656, #304 ) ) REPRESENTATION_CONTEXT ( 'NONE', 'WORKASPACE' ) );
#256 = CARTESIAN_POINT ( 'NONE',  ( 0.000000000000000000, 1.449999999999999956, 0.000000000000000000 ) ) ;
#257 = ORIENTED_EDGE ( 'NONE', *, *, #519, .T. ) ;
#258 = PRODUCT_CONTEXT ( 'NONE', #279, 'mechanical' ) ;
#259 = CARTESIAN_POINT ( 'NONE',  ( 0.1449999999999999900, 1.449999999999999956, 0.1449999999999999900 ) ) ;
#260 = ORIENTED_EDGE ( 'NONE', *, *, #565, .F. ) ;
#261 = DIRECTION ( 'NONE',  ( 0.000000000000000000, 0.000000000000000000, 1.000000000000000000 ) ) ;
#262 = PRODUCT_RELATED_PRODUCT_CATEGORY ( 'part', '', ( #162 ) ) ;
#263 = CARTESIAN_POINT ( 'NONE',  ( 0.000000000000000000, 1.449999999999999956, 0.1449999999999999900 ) ) ;
#264 = PRODUCT ( 'NTC0805.step_\X2\9ed88ba4\X0\', 'NTC0805.step_\X2\9ed88ba4\X0\', '', ( #549 ) ) ;
#265 = FILL_AREA_STYLE_COLOUR ( '', #589 ) ;
#266 = ORIENTED_EDGE ( 'NONE', *, *, #283, .F. ) ;
#267 = DIRECTION ( 'NONE',  ( 1.000000000000000000, 0.000000000000000000, 0.000000000000000000 ) ) ;
#268 = LINE ( 'NONE', #525, #383 ) ;
#269 = AXIS2_PLACEMENT_3D ( 'NONE', #407, #396, #732 ) ;
#270 = CARTESIAN_POINT ( 'NONE',  ( 2.055000000000000160, 0.000000000000000000, 1.304999999999999938 ) ) ;
#271 = DIRECTION ( 'NONE',  ( 0.000000000000000000, 1.000000000000000000, 0.000000000000000000 ) ) ;
#272 = CARTESIAN_POINT ( 'NONE',  ( 0.000000000000000000, 0.000000000000000000, 0.000000000000000000 ) ) ;
#273 = EDGE_CURVE ( 'NONE', #529, #245, #337, .T. ) ;
#274 = ITEM_DEFINED_TRANSFORMATION ( 'NONE', 'NONE', #10,  #117 ) ;
#275 = CARTESIAN_POINT ( 'NONE',  ( 0.1449999999999999900, 0.000000000000000000, 0.1449999999999999900 ) ) ;
#276 = DIRECTION ( 'NONE',  ( -0.000000000000000000, 1.000000000000000000, 0.000000000000000000 ) ) ;
#277 =( LENGTH_UNIT ( ) NAMED_UNIT ( * ) SI_UNIT ( .MILLI., .METRE. ) );
#278 = AXIS2_PLACEMENT_3D ( 'NONE', #706, #223, #16 ) ;
#279 = APPLICATION_CONTEXT ( 'automotive_design' ) ;
#280 = CARTESIAN_POINT ( 'NONE',  ( 2.055000000000000160, 0.000000000000000000, 1.304999999999999938 ) ) ;
#281 =( GEOMETRIC_REPRESENTATION_CONTEXT ( 3 ) GLOBAL_UNCERTAINTY_ASSIGNED_CONTEXT ( ( #506 ) ) GLOBAL_UNIT_ASSIGNED_CONTEXT ( ( #4, #784, #198 ) ) REPRESENTATION_CONTEXT ( 'NONE', 'WORKASPACE' ) );
#282 = CARTESIAN_POINT ( 'NONE',  ( 0.000000000000000000, 1.449999999999999956, 1.449999999999999956 ) ) ;
#283 = EDGE_CURVE ( 'NONE', #21, #341, #175, .T. ) ;
#284 =( GEOMETRIC_REPRESENTATION_CONTEXT ( 3 ) GLOBAL_UNCERTAINTY_ASSIGNED_CONTEXT ( ( #485 ) ) GLOBAL_UNIT_ASSIGNED_CONTEXT ( ( #464, #669, #797 ) ) REPRESENTATION_CONTEXT ( 'NONE', 'WORKASPACE' ) );
#285 = LINE ( 'NONE', #270, #318 ) ;
#286 = DIRECTION ( 'NONE',  ( 0.000000000000000000, 1.000000000000000000, 0.000000000000000000 ) ) ;
#287 = ADVANCED_FACE ( 'NONE', ( #773 ), #314, .T. ) ;
#288 = ORIENTED_EDGE ( 'NONE', *, *, #105, .T. ) ;
#289 =( NAMED_UNIT ( * ) SI_UNIT ( $, .STERADIAN. ) SOLID_ANGLE_UNIT ( ) );
#290 = ORIENTED_EDGE ( 'NONE', *, *, #562, .F. ) ;
#291 = PRODUCT_CONTEXT ( 'NONE', #370, 'mechanical' ) ;
#292 = ORIENTED_EDGE ( 'NONE', *, *, #850, .T. ) ;
#293 = VECTOR ( 'NONE', #720, 1000.000000000000000 ) ;
#294 = CARTESIAN_POINT ( 'NONE',  ( 0.000000000000000000, 0.000000000000000000, 0.000000000000000000 ) ) ;
#295 = UNCERTAINTY_MEASURE_WITH_UNIT (LENGTH_MEASURE( 1.000000000000000082E-05 ), #94, 'distance_accuracy_value', 'NONE');
#296 = ORIENTED_EDGE ( 'NONE', *, *, #360, .F. ) ;
#297 = DIRECTION ( 'NONE',  ( 1.000000000000000000, 0.000000000000000000, 0.000000000000000000 ) ) ;
#298 = ORIENTED_EDGE ( 'NONE', *, *, #411, .F. ) ;
#299 = VECTOR ( 'NONE', #689, 1000.000000000000000 ) ;
#300 = ADVANCED_FACE ( 'NONE', ( #125 ), #326, .T. ) ;
#301 = VECTOR ( 'NONE', #503, 1000.000000000000000 ) ;
#302 = LINE ( 'NONE', #558, #231 ) ;
#303 = EDGE_CURVE ( 'NONE', #688, #823, #58, .T. ) ;
#304 =( NAMED_UNIT ( * ) SI_UNIT ( $, .STERADIAN. ) SOLID_ANGLE_UNIT ( ) );
#305 = ADVANCED_FACE ( 'NONE', ( #705 ), #719, .T. ) ;
#306 = EDGE_LOOP ( 'NONE', ( #321, #143, #457, #651 ) ) ;
#307 = PRODUCT_DEFINITION_SHAPE ( 'NONE', 'NONE',  #856 ) ;
#308 = DIRECTION ( 'NONE',  ( 0.000000000000000000, 0.000000000000000000, 1.000000000000000000 ) ) ;
#309 = CARTESIAN_POINT ( 'NONE',  ( 0.1449999999999999900, 0.000000000000000000, 1.304999999999999938 ) ) ;
#310 = ORIENTED_EDGE ( 'NONE', *, *, #693, .T. ) ;
#311 = CARTESIAN_POINT ( 'NONE',  ( 2.055000000000000160, 1.449999999999999956, 0.1449999999999999900 ) ) ;
#312 = LINE ( 'NONE', #570, #9 ) ;
#313 = VERTEX_POINT ( 'NONE', #788 ) ;
#314 = PLANE ( 'NONE',  #147 ) ;
#315 = APPLICATION_CONTEXT ( 'automotive_design' ) ;
#316 = FACE_OUTER_BOUND ( 'NONE', #699, .T. ) ;
#317 = DIRECTION ( 'NONE',  ( 0.000000000000000000, 0.000000000000000000, 1.000000000000000000 ) ) ;
#318 = VECTOR ( 'NONE', #469, 1000.000000000000000 ) ;
#319 = CARTESIAN_POINT ( 'NONE',  ( 0.4500000000000000111, 0.000000000000000000, 0.1449999999999999900 ) ) ;
#320 = LINE ( 'NONE', #700, #476 ) ;
#321 = ORIENTED_EDGE ( 'NONE', *, *, #501, .F. ) ;
#322 = STYLED_ITEM ( 'NONE', ( #172 ), #632 ) ;
#323 = DIRECTION ( 'NONE',  ( 1.000000000000000000, 0.000000000000000000, 0.000000000000000000 ) ) ;
#324 = SURFACE_STYLE_USAGE ( .BOTH. , #242 ) ;
#325 = PRODUCT_DEFINITION_CONTEXT ( 'detailed design', #179, 'design' ) ;
#326 = PLANE ( 'NONE',  #5 ) ;
#327 = VERTEX_POINT ( 'NONE', #199 ) ;
#328 = CARTESIAN_POINT ( 'NONE',  ( 0.1449999999999999900, 1.449999999999999956, 1.304999999999999938 ) ) ;
#329 = CARTESIAN_POINT ( 'NONE',  ( 0.000000000000000000, 0.000000000000000000, 0.1449999999999999900 ) ) ;
#330 = PRODUCT_DEFINITION_SHAPE ( 'NONE', 'NONE',  #27 ) ;
#331 = ADVANCED_FACE ( 'NONE', ( #456 ), #725, .F. ) ;
#332 = PLANE ( 'NONE',  #604 ) ;
#333 = VERTEX_POINT ( 'NONE', #645 ) ;
#334 = DIRECTION ( 'NONE',  ( 1.000000000000000000, 0.000000000000000000, 0.000000000000000000 ) ) ;
#335 = CARTESIAN_POINT ( 'NONE',  ( 0.000000000000000000, 0.000000000000000000, 0.000000000000000000 ) ) ;
#336 = ITEM_DEFINED_TRANSFORMATION ( 'NONE', 'NONE', #414,  #449 ) ;
#337 = LINE ( 'NONE', #259, #29 ) ;
#338 = EDGE_LOOP ( 'NONE', ( #160, #759, #482, #789 ) ) ;
#339 = CARTESIAN_POINT ( 'NONE',  ( 0.000000000000000000, 0.000000000000000000, 0.000000000000000000 ) ) ;
#340 = DIRECTION ( 'NONE',  ( 0.000000000000000000, 0.000000000000000000, 1.000000000000000000 ) ) ;
#341 = VERTEX_POINT ( 'NONE', #838 ) ;
#342 = COLOUR_RGB ( '',0.5019607843137254832, 0.5019607843137254832, 0.5019607843137254832 ) ;
#343 = SURFACE_SIDE_STYLE ('',( #459 ) ) ;
#344 = ADVANCED_FACE ( 'NONE', ( #659 ), #64, .T. ) ;
#345 = SHAPE_DEFINITION_REPRESENTATION ( #101, #63 ) ;
#346 = CARTESIAN_POINT ( 'NONE',  ( 2.055000000000000160, 0.000000000000000000, 0.1449999999999999900 ) ) ;
#347 = AXIS2_PLACEMENT_3D ( 'NONE', #212, #607, #793 ) ;
#348 = CARTESIAN_POINT ( 'NONE',  ( 0.1449999999999999900, 0.000000000000000000, 0.1449999999999999900 ) ) ;
#349 = VERTEX_POINT ( 'NONE', #443 ) ;
#350 = MANIFOLD_SOLID_BREP ( 'Open CASCADE STEP translator 7.5 8.2.1[1]', #8 ) ;
#351 =( NAMED_UNIT ( * ) SI_UNIT ( $, .STERADIAN. ) SOLID_ANGLE_UNIT ( ) );
#352 = ADVANCED_FACE ( 'NONE', ( #807 ), #548, .F. ) ;
#353 = VECTOR ( 'NONE', #717, 1000.000000000000000 ) ;
#354 = ORIENTED_EDGE ( 'NONE', *, *, #168, .T. ) ;
#355 = COLOUR_RGB ( '',0.8000000000000000444, 0.8000000000000000444, 0.8000000000000000444 ) ;
#356 = DIRECTION ( 'NONE',  ( 0.000000000000000000, 0.000000000000000000, 1.000000000000000000 ) ) ;
#357 = ORIENTED_EDGE ( 'NONE', *, *, #755, .T. ) ;
#358 = VECTOR ( 'NONE', #261, 1000.000000000000000 ) ;
#359 = ORIENTED_EDGE ( 'NONE', *, *, #410, .T. ) ;
#360 = EDGE_CURVE ( 'NONE', #69, #21, #826, .T. ) ;
#361 = CARTESIAN_POINT ( 'NONE',  ( 1.300000000000000044, 0.000000000000000000, 0.1449999999999999900 ) ) ;
#362 = DIRECTION ( 'NONE',  ( 0.000000000000000000, -1.000000000000000000, 0.000000000000000000 ) ) ;
#363 = VECTOR ( 'NONE', #758, 1000.000000000000000 ) ;
#364 = AXIS2_PLACEMENT_3D ( 'NONE', #404, #470, #209 ) ;
#365 = PRODUCT_RELATED_PRODUCT_CATEGORY ( 'part', '', ( #254 ) ) ;
#366 = DIRECTION ( 'NONE',  ( 0.000000000000000000, 0.000000000000000000, 1.000000000000000000 ) ) ;
#367 =( NAMED_UNIT ( * ) PLANE_ANGLE_UNIT ( ) SI_UNIT ( $, .RADIAN. ) );
#368 = ORIENTED_EDGE ( 'NONE', *, *, #802, .T. ) ;
#369 = CARTESIAN_POINT ( 'NONE',  ( 0.000000000000000000, 0.000000000000000000, 0.000000000000000000 ) ) ;
#370 = APPLICATION_CONTEXT ( 'automotive_design' ) ;
#371 = LINE ( 'NONE', #155, #299 ) ;
#372 =( LENGTH_UNIT ( ) NAMED_UNIT ( * ) SI_UNIT ( .MILLI., .METRE. ) );
#373 = EDGE_LOOP ( 'NONE', ( #492, #768, #193, #185 ) ) ;
#374 = DIRECTION ( 'NONE',  ( 1.000000000000000000, 0.000000000000000000, 0.000000000000000000 ) ) ;
#375 = CARTESIAN_POINT ( 'NONE',  ( 0.1449999999999999900, 0.000000000000000000, 1.304999999999999938 ) ) ;
#376 = AXIS2_PLACEMENT_3D ( 'NONE', #638, #107, #831 ) ;
#377 = PLANE ( 'NONE',  #687 ) ;
#378 = UNCERTAINTY_MEASURE_WITH_UNIT (LENGTH_MEASURE( 1.000000000000000082E-05 ), #678, 'distance_accuracy_value', 'NONE');
#379 = DIRECTION ( 'NONE',  ( -0.000000000000000000, 1.000000000000000000, 0.000000000000000000 ) ) ;
#380 = DIRECTION ( 'NONE',  ( -0.000000000000000000, 1.000000000000000000, 0.000000000000000000 ) ) ;
#381 = CARTESIAN_POINT ( 'NONE',  ( 0.000000000000000000, 0.000000000000000000, 0.000000000000000000 ) ) ;
#382 = CARTESIAN_POINT ( 'NONE',  ( 0.000000000000000000, 0.000000000000000000, 0.1449999999999999900 ) ) ;
#383 = VECTOR ( 'NONE', #67, 1000.000000000000000 ) ;
#384 = APPLICATION_PROTOCOL_DEFINITION ( 'draft international standard', 'automotive_design', 1998, #81 ) ;
#385 = CARTESIAN_POINT ( 'NONE',  ( 0.000000000000000000, 1.449999999999999956, 0.000000000000000000 ) ) ;
#386 = DIRECTION ( 'NONE',  ( 1.000000000000000000, 0.000000000000000000, 0.000000000000000000 ) ) ;
#387 = EDGE_CURVE ( 'NONE', #426, #141, #553, .T. ) ;
#388 = SHAPE_DEFINITION_REPRESENTATION ( #123, #561 ) ;
#389 = CARTESIAN_POINT ( 'NONE',  ( 0.000000000000000000, 0.000000000000000000, 0.000000000000000000 ) ) ;
#390 = ORIENTED_EDGE ( 'NONE', *, *, #501, .T. ) ;
#391 = PLANE ( 'NONE',  #246 ) ;
#392 = ITEM_DEFINED_TRANSFORMATION ( 'NONE', 'NONE', #637,  #278 ) ;
#393 = DIRECTION ( 'NONE',  ( 1.000000000000000000, 0.000000000000000000, 0.000000000000000000 ) ) ;
#394 = ORIENTED_EDGE ( 'NONE', *, *, #690, .F. ) ;
#395 = FACE_OUTER_BOUND ( 'NONE', #432, .T. ) ;
#396 = DIRECTION ( 'NONE',  ( -0.000000000000000000, 1.000000000000000000, 0.000000000000000000 ) ) ;
#397 = ORIENTED_EDGE ( 'NONE', *, *, #738, .T. ) ;
#398 = VECTOR ( 'NONE', #194, 1000.000000000000000 ) ;
#399 = DIRECTION ( 'NONE',  ( 0.000000000000000000, 0.000000000000000000, 1.000000000000000000 ) ) ;
#400 = CARTESIAN_POINT ( 'NONE',  ( 0.000000000000000000, 0.000000000000000000, 0.1449999999999999900 ) ) ;
#401 = ORIENTED_EDGE ( 'NONE', *, *, #184, .T. ) ;
#402 = PRODUCT_DEFINITION ( 'UNKNOWN', '', #216, #494 ) ;
#403 = PRODUCT_DEFINITION_FORMATION_WITH_SPECIFIED_SOURCE ( 'ANY', '', #254, .NOT_KNOWN. ) ;
#404 = CARTESIAN_POINT ( 'NONE',  ( 0.1449999999999999900, 0.000000000000000000, 0.1449999999999999900 ) ) ;
#405 = AXIS2_PLACEMENT_3D ( 'NONE', #844, #380, #769 ) ;
#406 = VECTOR ( 'NONE', #70, 1000.000000000000000 ) ;
#407 = CARTESIAN_POINT ( 'NONE',  ( 0.000000000000000000, 0.000000000000000000, 0.000000000000000000 ) ) ;
#408 = PRESENTATION_LAYER_ASSIGNMENT (  '', '', ( #629 ) ) ;
#409 = EDGE_LOOP ( 'NONE', ( #642, #799, #257, #614, #290, #222, #205, #397 ) ) ;
#410 = EDGE_CURVE ( 'NONE', #245, #200, #420, .T. ) ;
#411 = EDGE_CURVE ( 'NONE', #529, #487, #102, .T. ) ;
#412 =( NAMED_UNIT ( * ) PLANE_ANGLE_UNIT ( ) SI_UNIT ( $, .RADIAN. ) );
#413 = APPLICATION_CONTEXT ( 'automotive_design' ) ;
#414 = AXIS2_PLACEMENT_3D ( 'NONE', #34, #417, #374 ) ;
#415 = ORIENTED_EDGE ( 'NONE', *, *, #360, .T. ) ;
#416 = DIRECTION ( 'NONE',  ( 1.000000000000000000, 0.000000000000000000, 0.000000000000000000 ) ) ;
#417 = DIRECTION ( 'NONE',  ( 0.000000000000000000, 0.000000000000000000, 1.000000000000000000 ) ) ;
#418 = VERTEX_POINT ( 'NONE', #490 ) ;
#419 = VECTOR ( 'NONE', #36, 1000.000000000000000 ) ;
#420 = LINE ( 'NONE', #28, #776 ) ;
#421 = ADVANCED_FACE ( 'NONE', ( #681 ), #694, .T. ) ;
#422 = ORIENTED_EDGE ( 'NONE', *, *, #802, .F. ) ;
#423 = MECHANICAL_DESIGN_GEOMETRIC_PRESENTATION_REPRESENTATION (  '', ( #322 ), #176 ) ;
#424 = CARTESIAN_POINT ( 'NONE',  ( 2.055000000000000160, 0.000000000000000000, 0.1449999999999999900 ) ) ;
#425 =( NAMED_UNIT ( * ) PLANE_ANGLE_UNIT ( ) SI_UNIT ( $, .RADIAN. ) );
#426 = VERTEX_POINT ( 'NONE', #424 ) ;
#427 = PRODUCT_RELATED_PRODUCT_CATEGORY ( 'part', '', ( #264 ) ) ;
#428 = ORIENTED_EDGE ( 'NONE', *, *, #22, .F. ) ;
#429 = PRODUCT_CONTEXT ( 'NONE', #544, 'mechanical' ) ;
#430 = CARTESIAN_POINT ( 'NONE',  ( 0.1449999999999999900, 0.000000000000000000, 0.1449999999999999900 ) ) ;
#431 = LINE ( 'NONE', #263, #353 ) ;
#432 = EDGE_LOOP ( 'NONE', ( #543, #500, #126, #612 ) ) ;
#433 = PRODUCT_DEFINITION_SHAPE ( 'NONE', 'NONE',  #860 ) ;
#434 = DIRECTION ( 'NONE',  ( 1.000000000000000000, 0.000000000000000000, 0.000000000000000000 ) ) ;
#435 = CARTESIAN_POINT ( 'NONE',  ( 0.4500000000000000111, 1.449999999999999956, 0.000000000000000000 ) ) ;
#436 = LINE ( 'NONE', #328, #508 ) ;
#437 = DIRECTION ( 'NONE',  ( 1.000000000000000000, 0.000000000000000000, 0.000000000000000000 ) ) ;
#438 = ORIENTED_EDGE ( 'NONE', *, *, #303, .F. ) ;
#439 = DIRECTION ( 'NONE',  ( 1.000000000000000000, 0.000000000000000000, 0.000000000000000000 ) ) ;
#440 = DIRECTION ( 'NONE',  ( 0.000000000000000000, 0.000000000000000000, 1.000000000000000000 ) ) ;
#441 = SURFACE_STYLE_USAGE ( .BOTH. , #182 ) ;
#442 =( GEOMETRIC_REPRESENTATION_CONTEXT ( 3 ) GLOBAL_UNCERTAINTY_ASSIGNED_CONTEXT ( ( #167 ) ) GLOBAL_UNIT_ASSIGNED_CONTEXT ( ( #171, #619, #762 ) ) REPRESENTATION_CONTEXT ( 'NONE', 'WORKASPACE' ) );
#443 = CARTESIAN_POINT ( 'NONE',  ( 0.000000000000000000, 1.449999999999999956, 0.000000000000000000 ) ) ;
#444 = EDGE_LOOP ( 'NONE', ( #25, #288, #752, #394 ) ) ;
#445 = VECTOR ( 'NONE', #362, 1000.000000000000000 ) ;
#446 = DIRECTION ( 'NONE',  ( 0.000000000000000000, 1.000000000000000000, 0.000000000000000000 ) ) ;
#447 = EDGE_CURVE ( 'NONE', #696, #245, #371, .T. ) ;
#448 = EDGE_CURVE ( 'NONE', #188, #578, #237, .T. ) ;
#449 = AXIS2_PLACEMENT_3D ( 'NONE', #202, #471, #730 ) ;
#450 = DIRECTION ( 'NONE',  ( 0.000000000000000000, 0.000000000000000000, 1.000000000000000000 ) ) ;
#451 = ORIENTED_EDGE ( 'NONE', *, *, #150, .F. ) ;
#452 = PRODUCT ( 'Open CASCADE STEP translator 7.5 8.2.1.step_\X2\9ed88ba4\X0\', 'Open CASCADE STEP translator 7.5 8.2.1.step_\X2\9ed88ba4\X0\', '', ( #461 ) ) ;
#453 = LINE ( 'NONE', #256, #293 ) ;
#454 = FACE_OUTER_BOUND ( 'NONE', #153, .T. ) ;
#455 =( NAMED_UNIT ( * ) SI_UNIT ( $, .STERADIAN. ) SOLID_ANGLE_UNIT ( ) );
#456 = FACE_OUTER_BOUND ( 'NONE', #815, .T. ) ;
#457 = ORIENTED_EDGE ( 'NONE', *, *, #562, .T. ) ;
#458 = LINE ( 'NONE', #272, #83 ) ;
#459 = SURFACE_STYLE_FILL_AREA ( #138 ) ;
#460 = APPLICATION_CONTEXT ( 'automotive_design' ) ;
#461 = PRODUCT_CONTEXT ( 'NONE', #81, 'mechanical' ) ;
#462 = DIRECTION ( 'NONE',  ( 1.000000000000000000, 0.000000000000000000, 0.000000000000000000 ) ) ;
#463 = EDGE_LOOP ( 'NONE', ( #618, #30, #704, #368 ) ) ;
#464 =( LENGTH_UNIT ( ) NAMED_UNIT ( * ) SI_UNIT ( .MILLI., .METRE. ) );
#465 = AXIS2_PLACEMENT_3D ( 'NONE', #657, #276, #854 ) ;
#466 = CARTESIAN_POINT ( 'NONE',  ( 1.300000000000000044, 0.000000000000000000, 0.1449999999999999900 ) ) ;
#467 = ORIENTED_EDGE ( 'NONE', *, *, #447, .F. ) ;
#468 = PRESENTATION_LAYER_ASSIGNMENT (  '', '', ( #322 ) ) ;
#469 = DIRECTION ( 'NONE',  ( 0.000000000000000000, 1.000000000000000000, 0.000000000000000000 ) ) ;
#470 = DIRECTION ( 'NONE',  ( 1.000000000000000000, 0.000000000000000000, 0.000000000000000000 ) ) ;
#471 = DIRECTION ( 'NONE',  ( 0.000000000000000000, 0.000000000000000000, 1.000000000000000000 ) ) ;
#472 =( GEOMETRIC_REPRESENTATION_CONTEXT ( 3 ) GLOBAL_UNCERTAINTY_ASSIGNED_CONTEXT ( ( #648 ) ) GLOBAL_UNIT_ASSIGNED_CONTEXT ( ( #79, #174, #46 ) ) REPRESENTATION_CONTEXT ( 'NONE', 'WORKASPACE' ) );
#473 = LINE ( 'NONE', #348, #712 ) ;
#474 = VECTOR ( 'NONE', #366, 1000.000000000000000 ) ;
#475 = EDGE_CURVE ( 'NONE', #136, #512, #84, .T. ) ;
#476 = VECTOR ( 'NONE', #130, 1000.000000000000000 ) ;
#477 = ORIENTED_EDGE ( 'NONE', *, *, #813, .T. ) ;
#478 = EDGE_LOOP ( 'NONE', ( #95, #260, #726, #230 ) ) ;
#479 = DIRECTION ( 'NONE',  ( 1.000000000000000000, 0.000000000000000000, 0.000000000000000000 ) ) ;
#480 = SHAPE_REPRESENTATION_RELATIONSHIP ( 'NONE' , 'NONE' ,  #561, #214 ) ;
#481 = MECHANICAL_DESIGN_GEOMETRIC_PRESENTATION_REPRESENTATION (  '', ( #600 ), #154 ) ;
#482 = ORIENTED_EDGE ( 'NONE', *, *, #690, .T. ) ;
#483 = CARTESIAN_POINT ( 'NONE',  ( 2.055000000000000160, 0.000000000000000000, 0.1449999999999999900 ) ) ;
#484 = EDGE_CURVE ( 'NONE', #69, #806, #302, .T. ) ;
#485 = UNCERTAINTY_MEASURE_WITH_UNIT (LENGTH_MEASURE( 1.000000000000000082E-05 ), #464, 'distance_accuracy_value', 'NONE');
#486 = VECTOR ( 'NONE', #514, 1000.000000000000000 ) ;
#487 = VERTEX_POINT ( 'NONE', #311 ) ;
#488 = CLOSED_SHELL ( 'NONE', ( #583, #352, #287, #757, #421, #800 ) ) ;
#489 = VECTOR ( 'NONE', #56, 1000.000000000000000 ) ;
#490 = CARTESIAN_POINT ( 'NONE',  ( 0.1449999999999999900, 0.000000000000000000, 0.1449999999999999900 ) ) ;
#491 = EDGE_CURVE ( 'NONE', #65, #679, #493, .T. ) ;
#492 = ORIENTED_EDGE ( 'NONE', *, *, #206, .T. ) ;
#493 = LINE ( 'NONE', #698, #363 ) ;
#494 = PRODUCT_DEFINITION_CONTEXT ( 'detailed design', #227, 'design' ) ;
#495 = ORIENTED_EDGE ( 'NONE', *, *, #849, .F. ) ;
#496 = SHAPE_DEFINITION_REPRESENTATION ( #132, #115 ) ;
#497 = FILL_AREA_STYLE ('',( #265 ) ) ;
#498 = LINE ( 'NONE', #113, #751 ) ;
#499 = EDGE_CURVE ( 'NONE', #152, #756, #165, .T. ) ;
#500 = ORIENTED_EDGE ( 'NONE', *, *, #303, .T. ) ;
#501 = EDGE_CURVE ( 'NONE', #749, #823, #241, .T. ) ;
#502 = DIRECTION ( 'NONE',  ( -1.000000000000000000, 0.000000000000000000, 0.000000000000000000 ) ) ;
#503 = DIRECTION ( 'NONE',  ( 1.000000000000000000, 0.000000000000000000, 0.000000000000000000 ) ) ;
#504 = SURFACE_STYLE_FILL_AREA ( #840 ) ;
#505 = CARTESIAN_POINT ( 'NONE',  ( 0.000000000000000000, 1.449999999999999956, 0.000000000000000000 ) ) ;
#506 = UNCERTAINTY_MEASURE_WITH_UNIT (LENGTH_MEASURE( 1.000000000000000082E-05 ), #4, 'distance_accuracy_value', 'NONE');
#507 = CARTESIAN_POINT ( 'NONE',  ( 0.1449999999999999900, 0.000000000000000000, 1.304999999999999938 ) ) ;
#508 = VECTOR ( 'NONE', #833, 1000.000000000000000 ) ;
#509 = DIRECTION ( 'NONE',  ( 0.000000000000000000, 0.000000000000000000, 1.000000000000000000 ) ) ;
#510 = DIRECTION ( 'NONE',  ( 1.000000000000000000, 0.000000000000000000, 0.000000000000000000 ) ) ;
#511 = DIRECTION ( 'NONE',  ( 1.000000000000000000, 0.000000000000000000, 0.000000000000000000 ) ) ;
#512 = VERTEX_POINT ( 'NONE', #35 ) ;
#513 = SHAPE_DEFINITION_REPRESENTATION ( #824, #217 ) ;
#514 = DIRECTION ( 'NONE',  ( 1.000000000000000000, 0.000000000000000000, 0.000000000000000000 ) ) ;
#515 = ORIENTED_EDGE ( 'NONE', *, *, #849, .T. ) ;
#516 = CARTESIAN_POINT ( 'NONE',  ( 1.300000000000000044, 0.000000000000000000, 0.000000000000000000 ) ) ;
#517 = FILL_AREA_STYLE_COLOUR ( '', #835 ) ;
#518 = DIRECTION ( 'NONE',  ( 0.000000000000000000, 0.000000000000000000, 1.000000000000000000 ) ) ;
#519 = EDGE_CURVE ( 'NONE', #349, #65, #646, .T. ) ;
#520 = VECTOR ( 'NONE', #308, 1000.000000000000000 ) ;
#521 = APPLICATION_PROTOCOL_DEFINITION ( 'draft international standard', 'automotive_design', 1998, #179 ) ;
#522 = CARTESIAN_POINT ( 'NONE',  ( 0.000000000000000000, 1.449999999999999956, 0.000000000000000000 ) ) ;
#523 = VECTOR ( 'NONE', #671, 1000.000000000000000 ) ;
#524 = DIRECTION ( 'NONE',  ( 0.000000000000000000, 1.000000000000000000, 0.000000000000000000 ) ) ;
#525 = CARTESIAN_POINT ( 'NONE',  ( 0.4500000000000000111, 0.000000000000000000, 0.000000000000000000 ) ) ;
#526 = ADVANCED_FACE ( 'NONE', ( #316 ), #55, .T. ) ;
#527 = ITEM_DEFINED_TRANSFORMATION ( 'NONE', 'NONE', #723,  #117 ) ;
#528 = LINE ( 'NONE', #119, #114 ) ;
#529 = VERTEX_POINT ( 'NONE', #575 ) ;
#530 = LINE ( 'NONE', #587, #731 ) ;
#531 = SHAPE_DEFINITION_REPRESENTATION ( #330, #680 ) ;
#532 = LINE ( 'NONE', #735, #523 ) ;
#533 = ORIENTED_EDGE ( 'NONE', *, *, #519, .F. ) ;
#534 = DIRECTION ( 'NONE',  ( 1.000000000000000000, 0.000000000000000000, 0.000000000000000000 ) ) ;
#535 =( GEOMETRIC_REPRESENTATION_CONTEXT ( 3 ) GLOBAL_UNCERTAINTY_ASSIGNED_CONTEXT ( ( #748 ) ) GLOBAL_UNIT_ASSIGNED_CONTEXT ( ( #682, #412, #39 ) ) REPRESENTATION_CONTEXT ( 'NONE', 'WORKASPACE' ) );
#536 = ITEM_DEFINED_TRANSFORMATION ( 'NONE', 'NONE', #203,  #449 ) ;
#537 = DIRECTION ( 'NONE',  ( 0.000000000000000000, 0.000000000000000000, 1.000000000000000000 ) ) ;
#538 = LINE ( 'NONE', #346, #556 ) ;
#539 = DIRECTION ( 'NONE',  ( 0.000000000000000000, 1.000000000000000000, 0.000000000000000000 ) ) ;
#540 = EDGE_CURVE ( 'NONE', #341, #801, #436, .T. ) ;
#541 = ORIENTED_EDGE ( 'NONE', *, *, #484, .F. ) ;
#542 =( NAMED_UNIT ( * ) PLANE_ANGLE_UNIT ( ) SI_UNIT ( $, .RADIAN. ) );
#543 = ORIENTED_EDGE ( 'NONE', *, *, #658, .F. ) ;
#544 = APPLICATION_CONTEXT ( 'automotive_design' ) ;
#545 = APPLICATION_PROTOCOL_DEFINITION ( 'draft international standard', 'automotive_design', 1998, #460 ) ;
#546 = UNCERTAINTY_MEASURE_WITH_UNIT (LENGTH_MEASURE( 1.000000000000000082E-05 ), #372, 'distance_accuracy_value', 'NONE');
#547 = EDGE_LOOP ( 'NONE', ( #743, #541, #550, #428 ) ) ;
#548 = PLANE ( 'NONE',  #96 ) ;
#549 = PRODUCT_CONTEXT ( 'NONE', #597, 'mechanical' ) ;
#550 = ORIENTED_EDGE ( 'NONE', *, *, #118, .T. ) ;
#551 = AXIS2_PLACEMENT_3D ( 'NONE', #294, #247, #580 ) ;
#552 = PRODUCT_DEFINITION ( 'UNKNOWN', '', #24, #325 ) ;
#553 = LINE ( 'NONE', #483, #555 ) ;
#554 = SURFACE_STYLE_FILL_AREA ( #676 ) ;
#555 = VECTOR ( 'NONE', #157, 1000.000000000000000 ) ;
#556 = VECTOR ( 'NONE', #539, 1000.000000000000000 ) ;
#557 = ORIENTED_EDGE ( 'NONE', *, *, #785, .F. ) ;
#558 = CARTESIAN_POINT ( 'NONE',  ( 0.1449999999999999900, 0.000000000000000000, 0.1449999999999999900 ) ) ;
#559 = DIRECTION ( 'NONE',  ( 1.000000000000000000, 0.000000000000000000, 0.000000000000000000 ) ) ;
#560 = VERTEX_POINT ( 'NONE', #249 ) ;
#561 = SHAPE_REPRESENTATION ( 'Mid Body_1.step_\X2\9ed88ba4\X0\', ( #117 ), #235 ) ;
#562 = EDGE_CURVE ( 'NONE', #801, #679, #48, .T. ) ;
#563 = DIRECTION ( 'NONE',  ( 0.000000000000000000, 1.000000000000000000, 0.000000000000000000 ) ) ;
#564 = CARTESIAN_POINT ( 'NONE',  ( 0.4500000000000000111, 0.000000000000000000, 1.449999999999999956 ) ) ;
#565 = EDGE_CURVE ( 'NONE', #188, #560, #177, .T. ) ;
#566 = ORIENTED_EDGE ( 'NONE', *, *, #610, .T. ) ;
#567 = PRESENTATION_LAYER_ASSIGNMENT (  '', '', ( #600 ) ) ;
#568 = DIRECTION ( 'NONE',  ( 0.000000000000000000, 0.000000000000000000, 1.000000000000000000 ) ) ;
#569 = PRODUCT_DEFINITION_SHAPE ( 'NONE', 'NONE',  #859 ) ;
#570 = CARTESIAN_POINT ( 'NONE',  ( 0.1449999999999999900, 1.449999999999999956, 0.1449999999999999900 ) ) ;
#571 = EDGE_LOOP ( 'NONE', ( #296, #617, #829, #266 ) ) ;
#572 = CARTESIAN_POINT ( 'NONE',  ( -1.100000000000000089, -0.7249999999999999778, 0.000000000000000000 ) ) ;
#573 = AXIS2_PLACEMENT_3D ( 'NONE', #201, #518, #653 ) ;
#574 = DIRECTION ( 'NONE',  ( -0.000000000000000000, 1.000000000000000000, 0.000000000000000000 ) ) ;
#575 = CARTESIAN_POINT ( 'NONE',  ( 0.1449999999999999900, 1.449999999999999956, 0.1449999999999999900 ) ) ;
#576 = DIRECTION ( 'NONE',  ( 0.000000000000000000, 1.000000000000000000, 0.000000000000000000 ) ) ;
#577 = PRODUCT_DEFINITION_CONTEXT ( 'detailed design', #413, 'design' ) ;
#578 = VERTEX_POINT ( 'NONE', #716 ) ;
#579 = PRESENTATION_LAYER_ASSIGNMENT (  '', '', ( #88 ) ) ;
#580 = DIRECTION ( 'NONE',  ( 1.000000000000000000, 0.000000000000000000, 0.000000000000000000 ) ) ;
#581 = CARTESIAN_POINT ( 'NONE',  ( 0.1449999999999999900, 1.449999999999999956, 0.1449999999999999900 ) ) ;
#582 = ORIENTED_EDGE ( 'NONE', *, *, #213, .F. ) ;
#583 = ADVANCED_FACE ( 'NONE', ( #652 ), #377, .T. ) ;
#584 = CARTESIAN_POINT ( 'NONE',  ( 0.000000000000000000, 0.000000000000000000, 0.000000000000000000 ) ) ;
#585 = CARTESIAN_POINT ( 'NONE',  ( 0.1449999999999999900, 0.000000000000000000, 1.304999999999999938 ) ) ;
#586 = PRODUCT_RELATED_PRODUCT_CATEGORY ( 'part', '', ( #846 ) ) ;
#587 = CARTESIAN_POINT ( 'NONE',  ( 0.1449999999999999900, 0.000000000000000000, 0.1449999999999999900 ) ) ;
#588 = PRODUCT_DEFINITION_FORMATION_WITH_SPECIFIED_SOURCE ( 'ANY', '', #452, .NOT_KNOWN. ) ;
#589 = COLOUR_RGB ( '',0.8000000000000000444, 0.8000000000000000444, 0.8000000000000000444 ) ;
#590 = APPLICATION_PROTOCOL_DEFINITION ( 'draft international standard', 'automotive_design', 1998, #413 ) ;
#591 = DIRECTION ( 'NONE',  ( 0.000000000000000000, 1.000000000000000000, 0.000000000000000000 ) ) ;
#592 = CARTESIAN_POINT ( 'NONE',  ( 0.4500000000000000111, 1.449999999999999956, 1.304999999999999938 ) ) ;
#593 = CONTEXT_DEPENDENT_SHAPE_REPRESENTATION ( #244, #760 ) ;
#594 = LINE ( 'NONE', #664, #852 ) ;
#595 = ORIENTED_EDGE ( 'NONE', *, *, #670, .T. ) ;
#596 = PLANE ( 'NONE',  #573 ) ;
#597 = APPLICATION_CONTEXT ( 'automotive_design' ) ;
#598 = DIRECTION ( 'NONE',  ( 1.000000000000000000, 0.000000000000000000, 0.000000000000000000 ) ) ;
#599 = PLANE ( 'NONE',  #269 ) ;
#600 = STYLED_ITEM ( 'NONE', ( #20 ), #606 ) ;
#601 =( LENGTH_UNIT ( ) NAMED_UNIT ( * ) SI_UNIT ( .MILLI., .METRE. ) );
#602 = DIRECTION ( 'NONE',  ( 0.000000000000000000, 0.000000000000000000, 1.000000000000000000 ) ) ;
#603 = VECTOR ( 'NONE', #127, 1000.000000000000000 ) ;
#604 = AXIS2_PLACEMENT_3D ( 'NONE', #389, #108, #271 ) ;
#605 = AXIS2_PLACEMENT_3D ( 'NONE', #505, #178, #437 ) ;
#606 = ADVANCED_BREP_SHAPE_REPRESENTATION ( '', ( #632, #117 ), #747 ) ;
#607 = DIRECTION ( 'NONE',  ( 0.000000000000000000, 0.000000000000000000, 1.000000000000000000 ) ) ;
#608 = COLOUR_RGB ( '',0.8274509803921568096, 0.8274509803921568096, 0.8274509803921568096 ) ;
#609 = ADVANCED_FACE ( 'NONE', ( #109 ), #847, .F. ) ;
#610 = EDGE_CURVE ( 'NONE', #801, #749, #781, .T. ) ;
#611 = DIRECTION ( 'NONE',  ( 0.000000000000000000, 0.000000000000000000, 1.000000000000000000 ) ) ;
#612 = ORIENTED_EDGE ( 'NONE', *, *, #491, .F. ) ;
#613 =( LENGTH_UNIT ( ) NAMED_UNIT ( * ) SI_UNIT ( .MILLI., .METRE. ) );
#614 = ORIENTED_EDGE ( 'NONE', *, *, #491, .T. ) ;
#615 =( NAMED_UNIT ( * ) SI_UNIT ( $, .STERADIAN. ) SOLID_ANGLE_UNIT ( ) );
#616 = ORIENTED_EDGE ( 'NONE', *, *, #150, .T. ) ;
#617 = ORIENTED_EDGE ( 'NONE', *, *, #484, .T. ) ;
#618 = ORIENTED_EDGE ( 'NONE', *, *, #387, .T. ) ;
#619 =( NAMED_UNIT ( * ) PLANE_ANGLE_UNIT ( ) SI_UNIT ( $, .RADIAN. ) );
#620 = LINE ( 'NONE', #564, #830 ) ;
#621 = STYLED_ITEM ( 'NONE', ( #818 ), #350 ) ;
#622 = AXIS2_PLACEMENT_3D ( 'NONE', #253, #450, #510 ) ;
#623 = FACE_OUTER_BOUND ( 'NONE', #373, .T. ) ;
#624 = EDGE_CURVE ( 'NONE', #349, #169, #453, .T. ) ;
#625 = MANIFOLD_SOLID_BREP ( 'Mid Body[1]', #488 ) ;
#626 = CARTESIAN_POINT ( 'NONE',  ( 0.4500000000000000111, 0.000000000000000000, 0.000000000000000000 ) ) ;
#627 = SURFACE_STYLE_FILL_AREA ( #49 ) ;
#628 = ADVANCED_FACE ( 'NONE', ( #183 ), #841, .F. ) ;
#629 = STYLED_ITEM ( 'NONE', ( #144 ), #90 ) ;
#630 = PRODUCT_DEFINITION_SHAPE ( 'NONE', 'NONE',  #858 ) ;
#631 = FACE_OUTER_BOUND ( 'NONE', #338, .T. ) ;
#632 = MANIFOLD_SOLID_BREP ( 'Mark[1]', #794 ) ;
#633 = CARTESIAN_POINT ( 'NONE',  ( 0.000000000000000000, 0.000000000000000000, 0.000000000000000000 ) ) ;
#634 = CARTESIAN_POINT ( 'NONE',  ( 0.4500000000000000111, 1.449999999999999956, 1.449999999999999956 ) ) ;
#635 = APPLICATION_CONTEXT ( 'automotive_design' ) ;
#636 = CARTESIAN_POINT ( 'NONE',  ( 0.000000000000000000, 1.449999999999999956, 0.000000000000000000 ) ) ;
#637 = AXIS2_PLACEMENT_3D ( 'NONE', #369, #356, #439 ) ;
#638 = CARTESIAN_POINT ( 'NONE',  ( -0.6500000000000000222, -0.7249999999999999778, 1.304999999999999938 ) ) ;
#639 = CARTESIAN_POINT ( 'NONE',  ( 1.300000000000000044, 0.000000000000000000, 0.000000000000000000 ) ) ;
#640 = DIRECTION ( 'NONE',  ( 0.000000000000000000, 0.000000000000000000, 1.000000000000000000 ) ) ;
#641 = CARTESIAN_POINT ( 'NONE',  ( 0.1449999999999999900, 1.449999999999999956, 0.1449999999999999900 ) ) ;
#642 = ORIENTED_EDGE ( 'NONE', *, *, #168, .F. ) ;
#643 = EDGE_CURVE ( 'NONE', #696, #141, #695, .T. ) ;
#644 = VECTOR ( 'NONE', #611, 1000.000000000000000 ) ;
#645 = CARTESIAN_POINT ( 'NONE',  ( 1.300000000000000044, 0.000000000000000000, 0.000000000000000000 ) ) ;
#646 = LINE ( 'NONE', #60, #603 ) ;
#647 = CARTESIAN_POINT ( 'NONE',  ( 0.000000000000000000, 0.000000000000000000, 1.449999999999999956 ) ) ;
#648 = UNCERTAINTY_MEASURE_WITH_UNIT (LENGTH_MEASURE( 1.000000000000000082E-05 ), #79, 'distance_accuracy_value', 'NONE');
#649 =( GEOMETRIC_REPRESENTATION_CONTEXT ( 3 ) GLOBAL_UNCERTAINTY_ASSIGNED_CONTEXT ( ( #295 ) ) GLOBAL_UNIT_ASSIGNED_CONTEXT ( ( #94, #425, #615 ) ) REPRESENTATION_CONTEXT ( 'NONE', 'WORKASPACE' ) );
#650 = DIRECTION ( 'NONE',  ( 0.000000000000000000, 1.000000000000000000, 0.000000000000000000 ) ) ;
#651 = ORIENTED_EDGE ( 'NONE', *, *, #662, .F. ) ;
#652 = FACE_OUTER_BOUND ( 'NONE', #685, .T. ) ;
#653 = DIRECTION ( 'NONE',  ( 1.000000000000000000, 0.000000000000000000, 0.000000000000000000 ) ) ;
#654 = DIRECTION ( 'NONE',  ( 0.000000000000000000, 1.000000000000000000, 0.000000000000000000 ) ) ;
#655 = ORIENTED_EDGE ( 'NONE', *, *, #843, .F. ) ;
#656 =( NAMED_UNIT ( * ) PLANE_ANGLE_UNIT ( ) SI_UNIT ( $, .RADIAN. ) );
#657 = CARTESIAN_POINT ( 'NONE',  ( 0.1449999999999999900, 0.000000000000000000, 0.1449999999999999900 ) ) ;
#658 = EDGE_CURVE ( 'NONE', #688, #65, #702, .T. ) ;
#659 = FACE_OUTER_BOUND ( 'NONE', #547, .T. ) ;
#660 = ORIENTED_EDGE ( 'NONE', *, *, #411, .T. ) ;
#661 = LINE ( 'NONE', #339, #208 ) ;
#662 = EDGE_CURVE ( 'NONE', #823, #679, #620, .T. ) ;
#663 = FILL_AREA_STYLE_COLOUR ( '', #355 ) ;
#664 = CARTESIAN_POINT ( 'NONE',  ( 1.300000000000000044, 1.449999999999999956, 0.000000000000000000 ) ) ;
#665 = VECTOR ( 'NONE', #32, 1000.000000000000000 ) ;
#666 = EDGE_LOOP ( 'NONE', ( #33, #655, #810, #357 ) ) ;
#667 = DIRECTION ( 'NONE',  ( 1.000000000000000000, 0.000000000000000000, 0.000000000000000000 ) ) ;
#668 = ORIENTED_EDGE ( 'NONE', *, *, #410, .F. ) ;
#669 =( NAMED_UNIT ( * ) PLANE_ANGLE_UNIT ( ) SI_UNIT ( $, .RADIAN. ) );
#670 = EDGE_CURVE ( 'NONE', #327, #188, #122, .T. ) ;
#671 = DIRECTION ( 'NONE',  ( 0.000000000000000000, 0.000000000000000000, 1.000000000000000000 ) ) ;
#672 = AXIS2_PLACEMENT_3D ( 'NONE', #19, #821, #163 ) ;
#673 = VECTOR ( 'NONE', #650, 1000.000000000000000 ) ;
#674 = SHAPE_REPRESENTATION_RELATIONSHIP ( 'NONE' , 'NONE' ,  #680, #90 ) ;
#675 = PRODUCT_DEFINITION ( 'UNKNOWN', '', #842, #43 ) ;
#676 = FILL_AREA_STYLE ('',( #151 ) ) ;
#677 = ORIENTED_EDGE ( 'NONE', *, *, #273, .F. ) ;
#678 =( LENGTH_UNIT ( ) NAMED_UNIT ( * ) SI_UNIT ( .MILLI., .METRE. ) );
#679 = VERTEX_POINT ( 'NONE', #634 ) ;
#680 = SHAPE_REPRESENTATION ( 'Open CASCADE STEP translator 7.5 8.2.1.step_\X2\9ed88ba4\X0\', ( #117 ), #281 ) ;
#681 = FACE_OUTER_BOUND ( 'NONE', #131, .T. ) ;
#682 =( LENGTH_UNIT ( ) NAMED_UNIT ( * ) SI_UNIT ( .MILLI., .METRE. ) );
#683 =( NAMED_UNIT ( * ) PLANE_ANGLE_UNIT ( ) SI_UNIT ( $, .RADIAN. ) );
#684 = VECTOR ( 'NONE', #822, 1000.000000000000000 ) ;
#685 = EDGE_LOOP ( 'NONE', ( #467, #180, #292, #668 ) ) ;
#686 = SURFACE_STYLE_FILL_AREA ( #497 ) ;
#687 = AXIS2_PLACEMENT_3D ( 'NONE', #585, #701, #511 ) ;
#688 = VERTEX_POINT ( 'NONE', #834 ) ;
#689 = DIRECTION ( 'NONE',  ( 0.000000000000000000, 1.000000000000000000, 0.000000000000000000 ) ) ;
#690 = EDGE_CURVE ( 'NONE', #560, #512, #431, .T. ) ;
#691 = ORIENTED_EDGE ( 'NONE', *, *, #755, .F. ) ;
#692 = PRODUCT_DEFINITION_FORMATION_WITH_SPECIFIED_SOURCE ( 'ANY', '', #846, .NOT_KNOWN. ) ;
#693 = EDGE_CURVE ( 'NONE', #418, #529, #498, .T. ) ;
#694 = PLANE ( 'NONE',  #672 ) ;
#695 = LINE ( 'NONE', #309, #665 ) ;
#696 = VERTEX_POINT ( 'NONE', #104 ) ;
#697 = CARTESIAN_POINT ( 'NONE',  ( 1.100000000000000089, 0.7249999999999999778, 0.000000000000000000 ) ) ;
#698 = CARTESIAN_POINT ( 'NONE',  ( 0.000000000000000000, 1.449999999999999956, 1.449999999999999956 ) ) ;
#699 = EDGE_LOOP ( 'NONE', ( #13, #820, #239, #845 ) ) ;
#700 = CARTESIAN_POINT ( 'NONE',  ( 2.055000000000000160, 1.449999999999999956, 0.1449999999999999900 ) ) ;
#701 = DIRECTION ( 'NONE',  ( 0.000000000000000000, 0.000000000000000000, 1.000000000000000000 ) ) ;
#702 = LINE ( 'NONE', #647, #734 ) ;
#703 = UNCERTAINTY_MEASURE_WITH_UNIT (LENGTH_MEASURE( 1.000000000000000082E-05 ), #277, 'distance_accuracy_value', 'NONE');
#704 = ORIENTED_EDGE ( 'NONE', *, *, #75, .F. ) ;
#705 = FACE_OUTER_BOUND ( 'NONE', #444, .T. ) ;
#706 = CARTESIAN_POINT ( 'NONE',  ( 0.000000000000000000, 0.000000000000000000, 0.000000000000000000 ) ) ;
#707 = LINE ( 'NONE', #375, #301 ) ;
#708 = PRESENTATION_STYLE_ASSIGNMENT (( #441 ) ) ;
#709 = DIRECTION ( 'NONE',  ( 0.000000000000000000, 1.000000000000000000, 0.000000000000000000 ) ) ;
#710 = MECHANICAL_DESIGN_GEOMETRIC_PRESENTATION_REPRESENTATION (  '', ( #621 ), #442 ) ;
#711 = EDGE_CURVE ( 'NONE', #780, #560, #775, .T. ) ;
#712 = VECTOR ( 'NONE', #462, 1000.000000000000000 ) ;
#713 = CONTEXT_DEPENDENT_SHAPE_REPRESENTATION ( #817, #569 ) ;
#714 = CARTESIAN_POINT ( 'NONE',  ( 2.055000000000000160, 1.449999999999999956, 1.304999999999999938 ) ) ;
#715 = ORIENTED_EDGE ( 'NONE', *, *, #658, .T. ) ;
#716 = CARTESIAN_POINT ( 'NONE',  ( 1.300000000000000044, 1.449999999999999956, 0.000000000000000000 ) ) ;
#717 = DIRECTION ( 'NONE',  ( 1.000000000000000000, 0.000000000000000000, 0.000000000000000000 ) ) ;
#718 = MECHANICAL_DESIGN_GEOMETRIC_PRESENTATION_REPRESENTATION (  '', ( #629 ), #74 ) ;
#719 = PLANE ( 'NONE',  #622 ) ;
#720 = DIRECTION ( 'NONE',  ( 1.000000000000000000, 0.000000000000000000, 0.000000000000000000 ) ) ;
#721 = CARTESIAN_POINT ( 'NONE',  ( 0.000000000000000000, 0.000000000000000000, 0.000000000000000000 ) ) ;
#722 = EDGE_CURVE ( 'NONE', #806, #341, #312, .T. ) ;
#723 = AXIS2_PLACEMENT_3D ( 'NONE', #572, #170, #434 ) ;
#724 = APPLICATION_PROTOCOL_DEFINITION ( 'draft international standard', 'automotive_design', 1998, #227 ) ;
#725 = PLANE ( 'NONE',  #405 ) ;
#726 = ORIENTED_EDGE ( 'NONE', *, *, #670, .F. ) ;
#727 = ADVANCED_FACE ( 'NONE', ( #827 ), #250, .T. ) ;
#728 = DIRECTION ( 'NONE',  ( 0.000000000000000000, 1.000000000000000000, 0.000000000000000000 ) ) ;
#729 = PRODUCT ( 'Mark_1.step_\X2\9ed88ba4\X0\', 'Mark_1.step_\X2\9ed88ba4\X0\', '', ( #429 ) ) ;
#730 = DIRECTION ( 'NONE',  ( 1.000000000000000000, 0.000000000000000000, 0.000000000000000000 ) ) ;
#731 = VECTOR ( 'NONE', #386, 1000.000000000000000 ) ;
#732 = DIRECTION ( 'NONE',  ( 1.000000000000000000, 0.000000000000000000, 0.000000000000000000 ) ) ;
#733 = ORIENTED_EDGE ( 'NONE', *, *, #236, .T. ) ;
#734 = VECTOR ( 'NONE', #190, 1000.000000000000000 ) ;
#735 = CARTESIAN_POINT ( 'NONE',  ( 0.000000000000000000, 0.000000000000000000, 0.000000000000000000 ) ) ;
#736 = AXIS2_PLACEMENT_3D ( 'NONE', #166, #559, #446 ) ;
#737 = ORIENTED_EDGE ( 'NONE', *, *, #118, .F. ) ;
#738 = EDGE_CURVE ( 'NONE', #806, #313, #110, .T. ) ;
#739 = PLANE ( 'NONE',  #364 ) ;
#740 = CARTESIAN_POINT ( 'NONE',  ( 0.4500000000000000111, 0.000000000000000000, 0.000000000000000000 ) ) ;
#741 = VECTOR ( 'NONE', #229, 1000.000000000000000 ) ;
#742 = VECTOR ( 'NONE', #340, 1000.000000000000000 ) ;
#743 = ORIENTED_EDGE ( 'NONE', *, *, #738, .F. ) ;
#744 = SURFACE_SIDE_STYLE ('',( #224 ) ) ;
#745 = EDGE_LOOP ( 'NONE', ( #53, #582, #557, #595 ) ) ;
#746 = CARTESIAN_POINT ( 'NONE',  ( 0.1449999999999999900, 1.449999999999999956, 0.1449999999999999900 ) ) ;
#747 =( GEOMETRIC_REPRESENTATION_CONTEXT ( 3 ) GLOBAL_UNCERTAINTY_ASSIGNED_CONTEXT ( ( #378 ) ) GLOBAL_UNIT_ASSIGNED_CONTEXT ( ( #678, #158, #351 ) ) REPRESENTATION_CONTEXT ( 'NONE', 'WORKASPACE' ) );
#748 = UNCERTAINTY_MEASURE_WITH_UNIT (LENGTH_MEASURE( 1.000000000000000082E-05 ), #682, 'distance_accuracy_value', 'NONE');
#749 = VERTEX_POINT ( 'NONE', #771 ) ;
#750 = SURFACE_STYLE_USAGE ( .BOTH. , #89 ) ;
#751 = VECTOR ( 'NONE', #576, 1000.000000000000000 ) ;
#752 = ORIENTED_EDGE ( 'NONE', *, *, #475, .T. ) ;
#753 = CARTESIAN_POINT ( 'NONE',  ( 0.1449999999999999900, 0.000000000000000000, 0.1449999999999999900 ) ) ;
#754 = FILL_AREA_STYLE_COLOUR ( '', #608 ) ;
#755 = EDGE_CURVE ( 'NONE', #221, #349, #196, .T. ) ;
#756 = VERTEX_POINT ( 'NONE', #128 ) ;
#757 = ADVANCED_FACE ( 'NONE', ( #782 ), #790, .F. ) ;
#758 = DIRECTION ( 'NONE',  ( 1.000000000000000000, 0.000000000000000000, 0.000000000000000000 ) ) ;
#759 = ORIENTED_EDGE ( 'NONE', *, *, #565, .T. ) ;
#760 = PRODUCT_DEFINITION_SHAPE ( 'NONE', 'NONE',  #857 ) ;
#761 = APPLICATION_PROTOCOL_DEFINITION ( 'draft international standard', 'automotive_design', 1998, #544 ) ;
#762 =( NAMED_UNIT ( * ) SI_UNIT ( $, .STERADIAN. ) SOLID_ANGLE_UNIT ( ) );
#763 = CARTESIAN_POINT ( 'NONE',  ( 0.000000000000000000, 0.000000000000000000, 0.000000000000000000 ) ) ;
#764 = PRODUCT_DEFINITION_CONTEXT ( 'detailed design', #460, 'design' ) ;
#765 = ORIENTED_EDGE ( 'NONE', *, *, #499, .F. ) ;
#766 = CARTESIAN_POINT ( 'NONE',  ( 0.4500000000000000111, 0.000000000000000000, 0.000000000000000000 ) ) ;
#767 = CARTESIAN_POINT ( 'NONE',  ( 0.4500000000000000111, 1.449999999999999956, 0.000000000000000000 ) ) ;
#768 = ORIENTED_EDGE ( 'NONE', *, *, #105, .F. ) ;
#769 = DIRECTION ( 'NONE',  ( 1.000000000000000000, 0.000000000000000000, 0.000000000000000000 ) ) ;
#770 = FILL_AREA_STYLE_COLOUR ( '', #50 ) ;
#771 = CARTESIAN_POINT ( 'NONE',  ( 0.4500000000000000111, 0.000000000000000000, 1.304999999999999938 ) ) ;
#772 = DIRECTION ( 'NONE',  ( 1.000000000000000000, 0.000000000000000000, 0.000000000000000000 ) ) ;
#773 = FACE_OUTER_BOUND ( 'NONE', #38, .T. ) ;
#774 =( LENGTH_UNIT ( ) NAMED_UNIT ( * ) SI_UNIT ( .MILLI., .METRE. ) );
#775 = LINE ( 'NONE', #382, #419 ) ;
#776 = VECTOR ( 'NONE', #479, 1000.000000000000000 ) ;
#777 = VECTOR ( 'NONE', #654, 1000.000000000000000 ) ;
#778 = CONTEXT_DEPENDENT_SHAPE_REPRESENTATION ( #137, #197 ) ;
#779 = CARTESIAN_POINT ( 'NONE',  ( 0.1449999999999999900, 0.000000000000000000, 0.1449999999999999900 ) ) ;
#780 = VERTEX_POINT ( 'NONE', #329 ) ;
#781 = LINE ( 'NONE', #41, #398 ) ;
#782 = FACE_OUTER_BOUND ( 'NONE', #463, .T. ) ;
#783 = ADVANCED_FACE ( 'NONE', ( #395 ), #596, .T. ) ;
#784 =( NAMED_UNIT ( * ) PLANE_ANGLE_UNIT ( ) SI_UNIT ( $, .RADIAN. ) );
#785 = EDGE_CURVE ( 'NONE', #327, #333, #458, .T. ) ;
#786 =( REPRESENTATION_RELATIONSHIP ('NONE','NONE', #115, #217 ) REPRESENTATION_RELATIONSHIP_WITH_TRANSFORMATION ( #336 )SHAPE_REPRESENTATION_RELATIONSHIP( ) );
#787 = PRODUCT_CONTEXT ( 'NONE', #635, 'mechanical' ) ;
#788 = CARTESIAN_POINT ( 'NONE',  ( 0.4500000000000000111, 1.449999999999999956, 0.1449999999999999900 ) ) ;
#789 = ORIENTED_EDGE ( 'NONE', *, *, #103, .F. ) ;
#790 = PLANE ( 'NONE',  #465 ) ;
#791 = LINE ( 'NONE', #204, #232 ) ;
#792 = CONTEXT_DEPENDENT_SHAPE_REPRESENTATION ( #116, #433 ) ;
#793 = DIRECTION ( 'NONE',  ( 1.000000000000000000, 0.000000000000000000, 0.000000000000000000 ) ) ;
#794 = CLOSED_SHELL ( 'NONE', ( #305, #609, #14, #37, #526, #220 ) ) ;
#795 = CARTESIAN_POINT ( 'NONE',  ( 0.000000000000000000, 0.000000000000000000, 0.000000000000000000 ) ) ;
#796 = CARTESIAN_POINT ( 'NONE',  ( 0.1449999999999999900, 0.000000000000000000, 0.1449999999999999900 ) ) ;
#797 =( NAMED_UNIT ( * ) SI_UNIT ( $, .STERADIAN. ) SOLID_ANGLE_UNIT ( ) );
#798 = FACE_OUTER_BOUND ( 'NONE', #111, .T. ) ;
#799 = ORIENTED_EDGE ( 'NONE', *, *, #624, .F. ) ;
#800 = ADVANCED_FACE ( 'NONE', ( #454 ), #391, .F. ) ;
#801 = VERTEX_POINT ( 'NONE', #592 ) ;
#802 = EDGE_CURVE ( 'NONE', #418, #426, #530, .T. ) ;
#803 = SHAPE_DEFINITION_REPRESENTATION ( #59, #82 ) ;
#804 = FILL_AREA_STYLE ('',( #754 ) ) ;
#805 = APPLICATION_CONTEXT ( 'automotive_design' ) ;
#806 = VERTEX_POINT ( 'NONE', #133 ) ;
#807 = FACE_OUTER_BOUND ( 'NONE', #17, .T. ) ;
#808 = APPLICATION_PROTOCOL_DEFINITION ( 'draft international standard', 'automotive_design', 1998, #370 ) ;
#809 = SURFACE_STYLE_USAGE ( .BOTH. , #744 ) ;
#810 = ORIENTED_EDGE ( 'NONE', *, *, #813, .F. ) ;
#811 = AXIS2_PLACEMENT_3D ( 'NONE', #516, #323, #524 ) ;
#812 = AXIS2_PLACEMENT_3D ( 'NONE', #636, #379, #772 ) ;
#813 = EDGE_CURVE ( 'NONE', #221, #152, #661, .T. ) ;
#814 = SURFACE_STYLE_USAGE ( .BOTH. , #77 ) ;
#815 = EDGE_LOOP ( 'NONE', ( #737, #415, #733, #390, #438, #495, #477, #226 ) ) ;
#816 = STYLED_ITEM ( 'NONE', ( #218 ), #214 ) ;
#817 =( REPRESENTATION_RELATIONSHIP ('NONE','NONE', #115, #63 ) REPRESENTATION_RELATIONSHIP_WITH_TRANSFORMATION ( #51 )SHAPE_REPRESENTATION_RELATIONSHIP( ) );
#818 = PRESENTATION_STYLE_ASSIGNMENT (( #750 ) ) ;
#819 = PRODUCT_RELATED_PRODUCT_CATEGORY ( 'part', '', ( #729 ) ) ;
#820 = ORIENTED_EDGE ( 'NONE', *, *, #213, .T. ) ;
#821 = DIRECTION ( 'NONE',  ( 1.000000000000000000, 0.000000000000000000, 0.000000000000000000 ) ) ;
#822 = DIRECTION ( 'NONE',  ( 0.000000000000000000, 1.000000000000000000, 0.000000000000000000 ) ) ;
#823 = VERTEX_POINT ( 'NONE', #848 ) ;
#824 = PRODUCT_DEFINITION_SHAPE ( 'NONE', 'NONE',  #92 ) ;
#825 = CARTESIAN_POINT ( 'NONE',  ( 0.1449999999999999900, 0.000000000000000000, 1.304999999999999938 ) ) ;
#826 = LINE ( 'NONE', #753, #741 ) ;
#827 = FACE_OUTER_BOUND ( 'NONE', #409, .T. ) ;
#828 = UNCERTAINTY_MEASURE_WITH_UNIT (LENGTH_MEASURE( 1.000000000000000082E-05 ), #774, 'distance_accuracy_value', 'NONE');
#829 = ORIENTED_EDGE ( 'NONE', *, *, #722, .T. ) ;
#830 = VECTOR ( 'NONE', #709, 1000.000000000000000 ) ;
#831 = DIRECTION ( 'NONE',  ( 1.000000000000000000, 0.000000000000000000, 0.000000000000000000 ) ) ;
#832 = FACE_OUTER_BOUND ( 'NONE', #478, .T. ) ;
#833 = DIRECTION ( 'NONE',  ( 1.000000000000000000, 0.000000000000000000, 0.000000000000000000 ) ) ;
#834 = CARTESIAN_POINT ( 'NONE',  ( 0.000000000000000000, 0.000000000000000000, 1.449999999999999956 ) ) ;
#835 = COLOUR_RGB ( '',0.5019607843137254832, 0.5019607843137254832, 0.5019607843137254832 ) ;
#836 = ORIENTED_EDGE ( 'NONE', *, *, #387, .F. ) ;
#837 = APPLICATION_PROTOCOL_DEFINITION ( 'draft international standard', 'automotive_design', 1998, #635 ) ;
#838 = CARTESIAN_POINT ( 'NONE',  ( 0.1449999999999999900, 1.449999999999999956, 1.304999999999999938 ) ) ;
#839 = ORIENTED_EDGE ( 'NONE', *, *, #22, .T. ) ;
#840 = FILL_AREA_STYLE ('',( #770 ) ) ;
#841 = PLANE ( 'NONE',  #736 ) ;
#842 = PRODUCT_DEFINITION_FORMATION_WITH_SPECIFIED_SOURCE ( 'ANY', '', #264, .NOT_KNOWN. ) ;
#843 = EDGE_CURVE ( 'NONE', #152, #169, #268, .T. ) ;
#844 = CARTESIAN_POINT ( 'NONE',  ( 0.000000000000000000, 0.000000000000000000, 0.000000000000000000 ) ) ;
#845 = ORIENTED_EDGE ( 'NONE', *, *, #475, .F. ) ;
#846 = PRODUCT ( 'Terminal_1.step_\X2\9ed88ba4\X0\', 'Terminal_1.step_\X2\9ed88ba4\X0\', '', ( #258 ) ) ;
#847 = PLANE ( 'NONE',  #18 ) ;
#848 = CARTESIAN_POINT ( 'NONE',  ( 0.4500000000000000111, 0.000000000000000000, 1.449999999999999956 ) ) ;
#849 = EDGE_CURVE ( 'NONE', #221, #688, #134, .T. ) ;
#850 = EDGE_CURVE ( 'NONE', #141, #200, #285, .T. ) ;
#851 = VECTOR ( 'NONE', #416, 1000.000000000000000 ) ;
#852 = VECTOR ( 'NONE', #602, 1000.000000000000000 ) ;
#853 = CONTEXT_DEPENDENT_SHAPE_REPRESENTATION ( #12, #630 ) ;
#854 = DIRECTION ( 'NONE',  ( 1.000000000000000000, 0.000000000000000000, 0.000000000000000000 ) ) ;
#855 = NEXT_ASSEMBLY_USAGE_OCCURRENCE ( 'NAUO1', ' ', ' ', #7, #675, $ ) ;
#856 = NEXT_ASSEMBLY_USAGE_OCCURRENCE ( 'NAUO2', ' ', ' ', #675, #92, $ ) ;
#857 = NEXT_ASSEMBLY_USAGE_OCCURRENCE ( 'NAUO3', ' ', ' ', #675, #92, $ ) ;
#858 = NEXT_ASSEMBLY_USAGE_OCCURRENCE ( 'NAUO4', ' ', ' ', #675, #402, $ ) ;
#859 = NEXT_ASSEMBLY_USAGE_OCCURRENCE ( 'NAUO5', ' ', ' ', #675, #552, $ ) ;
#860 = NEXT_ASSEMBLY_USAGE_OCCURRENCE ( 'NAUO6', ' ', ' ', #92, #27, $ ) ;
ENDSEC;
END-ISO-10303-21;
