ISO-10303-21;
HEADER;
FILE_DESCRIPTION (( 'STEP AP214' ),
    '1' );
FILE_NAME ('NTC0603.step',
    '2025-10-18T15:09:17',
    ( '' ),
    ( '' ),
    'SwSTEP 2.0',
    'SolidWorks 2025',
    '' );
FILE_SCHEMA (( 'AUTOMOTIVE_DESIGN' ));
ENDSEC;

DATA;
#1 = DIRECTION ( 'NONE',  ( 1.000000000000000000, 0.000000000000000000, 0.000000000000000000 ) ) ;
#2 = LINE ( 'NONE', #295, #564 ) ;
#3 = UNCERTAINTY_MEASURE_WITH_UNIT (LENGTH_MEASURE( 1.000000000000000082E-05 ), #308, 'distance_accuracy_value', 'NONE');
#4 = LINE ( 'NONE', #199, #537 ) ;
#5 = VERTEX_POINT ( 'NONE', #307 ) ;
#6 = ITEM_DEFINED_TRANSFORMATION ( 'NONE', 'NONE', #759,  #842 ) ;
#7 = EDGE_CURVE ( 'NONE', #770, #371, #695, .T. ) ;
#8 = CARTESIAN_POINT ( 'NONE',  ( 1.655000000000000027, 0.000000000000000000, 0.09500000000000000111 ) ) ;
#9 = AXIS2_PLACEMENT_3D ( 'NONE', #291, #280, #421 ) ;
#10 = VECTOR ( 'NONE', #225, 1000.000000000000000 ) ;
#11 = ORIENTED_EDGE ( 'NONE', *, *, #534, .F. ) ;
#12 =( NAMED_UNIT ( * ) SI_UNIT ( $, .STERADIAN. ) SOLID_ANGLE_UNIT ( ) );
#13 = ORIENTED_EDGE ( 'NONE', *, *, #108, .F. ) ;
#14 = APPLICATION_PROTOCOL_DEFINITION ( 'draft international standard', 'automotive_design', 1998, #426 ) ;
#15 = PLANE ( 'NONE',  #481 ) ;
#16 = CARTESIAN_POINT ( 'NONE',  ( 0.000000000000000000, 0.000000000000000000, 0.000000000000000000 ) ) ;
#17 = EDGE_CURVE ( 'NONE', #715, #594, #31, .T. ) ;
#18 = PRODUCT_DEFINITION_CONTEXT ( 'detailed design', #661, 'design' ) ;
#19 = VERTEX_POINT ( 'NONE', #555 ) ;
#20 = APPLICATION_PROTOCOL_DEFINITION ( 'draft international standard', 'automotive_design', 1998, #319 ) ;
#21 = FACE_OUTER_BOUND ( 'NONE', #147, .T. ) ;
#22 = DIRECTION ( 'NONE',  ( 0.000000000000000000, 1.000000000000000000, 0.000000000000000000 ) ) ;
#23 = VECTOR ( 'NONE', #121, 1000.000000000000000 ) ;
#24 = ADVANCED_FACE ( 'NONE', ( #700 ), #683, .F. ) ;
#25 = ORIENTED_EDGE ( 'NONE', *, *, #672, .T. ) ;
#26 = CARTESIAN_POINT ( 'NONE',  ( 0.000000000000000000, 0.000000000000000000, 0.09500000000000000111 ) ) ;
#27 = PRODUCT_DEFINITION_SHAPE ( 'NONE', 'NONE',  #857 ) ;
#28 = LINE ( 'NONE', #559, #428 ) ;
#29 = DIRECTION ( 'NONE',  ( 1.000000000000000000, 0.000000000000000000, 0.000000000000000000 ) ) ;
#30 = CARTESIAN_POINT ( 'NONE',  ( 0.4000000000000000222, 0.000000000000000000, 0.09500000000000000111 ) ) ;
#31 = LINE ( 'NONE', #434, #165 ) ;
#32 = CARTESIAN_POINT ( 'NONE',  ( 0.000000000000000000, 0.000000000000000000, 0.000000000000000000 ) ) ;
#33 = CARTESIAN_POINT ( 'NONE',  ( 0.09500000000000000111, 0.000000000000000000, 0.09500000000000000111 ) ) ;
#34 = VECTOR ( 'NONE', #368, 1000.000000000000000 ) ;
#35 =( NAMED_UNIT ( * ) PLANE_ANGLE_UNIT ( ) SI_UNIT ( $, .RADIAN. ) );
#36 = LINE ( 'NONE', #502, #136 ) ;
#37 = CARTESIAN_POINT ( 'NONE',  ( 0.000000000000000000, 0.000000000000000000, 0.9499999999999999556 ) ) ;
#38 = CARTESIAN_POINT ( 'NONE',  ( 0.000000000000000000, 0.000000000000000000, 0.000000000000000000 ) ) ;
#39 = CARTESIAN_POINT ( 'NONE',  ( 0.000000000000000000, 0.000000000000000000, 0.000000000000000000 ) ) ;
#40 = EDGE_CURVE ( 'NONE', #5, #19, #97, .T. ) ;
#41 = FILL_AREA_STYLE ('',( #515 ) ) ;
#42 = DIRECTION ( 'NONE',  ( 1.000000000000000000, 0.000000000000000000, 0.000000000000000000 ) ) ;
#43 = DIRECTION ( 'NONE',  ( 1.000000000000000000, 0.000000000000000000, 0.000000000000000000 ) ) ;
#44 = LINE ( 'NONE', #528, #587 ) ;
#45 = EDGE_CURVE ( 'NONE', #526, #196, #836, .T. ) ;
#46 = ORIENTED_EDGE ( 'NONE', *, *, #142, .F. ) ;
#47 = AXIS2_PLACEMENT_3D ( 'NONE', #38, #639, #501 ) ;
#48 = CARTESIAN_POINT ( 'NONE',  ( 0.4000000000000000222, 0.9499999999999999556, 0.8549999999999999822 ) ) ;
#49 = FILL_AREA_STYLE_COLOUR ( '', #257 ) ;
#50 = PRODUCT_DEFINITION_CONTEXT ( 'detailed design', #319, 'design' ) ;
#51 = ORIENTED_EDGE ( 'NONE', *, *, #568, .F. ) ;
#52 = SHAPE_REPRESENTATION_RELATIONSHIP ( 'NONE' , 'NONE' ,  #622, #675 ) ;
#53 = SHAPE_REPRESENTATION ( 'Mark.step_\X2\9ed88ba4\X0\', ( #378 ), #176 ) ;
#54 = DIRECTION ( 'NONE',  ( 0.000000000000000000, 0.000000000000000000, 1.000000000000000000 ) ) ;
#55 = VERTEX_POINT ( 'NONE', #365 ) ;
#56 = CARTESIAN_POINT ( 'NONE',  ( 0.09500000000000000111, 0.000000000000000000, 0.8549999999999999822 ) ) ;
#57 = EDGE_CURVE ( 'NONE', #128, #715, #623, .T. ) ;
#58 = PRESENTATION_STYLE_ASSIGNMENT (( #774 ) ) ;
#59 = ORIENTED_EDGE ( 'NONE', *, *, #728, .T. ) ;
#60 =( LENGTH_UNIT ( ) NAMED_UNIT ( * ) SI_UNIT ( .MILLI., .METRE. ) );
#61 = LINE ( 'NONE', #588, #330 ) ;
#62 = FACE_OUTER_BOUND ( 'NONE', #256, .T. ) ;
#63 = VECTOR ( 'NONE', #637, 1000.000000000000000 ) ;
#64 = FACE_OUTER_BOUND ( 'NONE', #725, .T. ) ;
#65 = ORIENTED_EDGE ( 'NONE', *, *, #356, .T. ) ;
#66 = SURFACE_STYLE_USAGE ( .BOTH. , #251 ) ;
#67 = APPLICATION_CONTEXT ( 'automotive_design' ) ;
#68 = PLANE ( 'NONE',  #273 ) ;
#69 = ADVANCED_FACE ( 'NONE', ( #168 ), #503, .F. ) ;
#70 = ORIENTED_EDGE ( 'NONE', *, *, #608, .F. ) ;
#71 = CONTEXT_DEPENDENT_SHAPE_REPRESENTATION ( #640, #694 ) ;
#72 = DIRECTION ( 'NONE',  ( 1.000000000000000000, 0.000000000000000000, 0.000000000000000000 ) ) ;
#73 = ORIENTED_EDGE ( 'NONE', *, *, #268, .T. ) ;
#74 =( NAMED_UNIT ( * ) PLANE_ANGLE_UNIT ( ) SI_UNIT ( $, .RADIAN. ) );
#75 = LINE ( 'NONE', #293, #800 ) ;
#76 =( GEOMETRIC_REPRESENTATION_CONTEXT ( 3 ) GLOBAL_UNCERTAINTY_ASSIGNED_CONTEXT ( ( #143 ) ) GLOBAL_UNIT_ASSIGNED_CONTEXT ( ( #530, #325, #189 ) ) REPRESENTATION_CONTEXT ( 'NONE', 'WORKASPACE' ) );
#77 = AXIS2_PLACEMENT_3D ( 'NONE', #582, #191, #648 ) ;
#78 = ORIENTED_EDGE ( 'NONE', *, *, #383, .T. ) ;
#79 = DIRECTION ( 'NONE',  ( 1.000000000000000000, 0.000000000000000000, 0.000000000000000000 ) ) ;
#80 = DIRECTION ( 'NONE',  ( 1.000000000000000000, 0.000000000000000000, 0.000000000000000000 ) ) ;
#81 = ORIENTED_EDGE ( 'NONE', *, *, #840, .F. ) ;
#82 = DIRECTION ( 'NONE',  ( 1.000000000000000000, 0.000000000000000000, 0.000000000000000000 ) ) ;
#83 = CARTESIAN_POINT ( 'NONE',  ( 0.9499999999999999556, 0.9499999999999999556, 0.000000000000000000 ) ) ;
#84 = CARTESIAN_POINT ( 'NONE',  ( 0.09500000000000000111, 0.000000000000000000, 0.8549999999999999822 ) ) ;
#85 = EDGE_CURVE ( 'NONE', #188, #715, #236, .T. ) ;
#86 = ORIENTED_EDGE ( 'NONE', *, *, #292, .F. ) ;
#87 = APPLICATION_PROTOCOL_DEFINITION ( 'draft international standard', 'automotive_design', 1998, #227 ) ;
#88 = CARTESIAN_POINT ( 'NONE',  ( 0.09500000000000000111, 0.000000000000000000, 0.8549999999999999822 ) ) ;
#89 = DIRECTION ( 'NONE',  ( 0.000000000000000000, 0.000000000000000000, 1.000000000000000000 ) ) ;
#90 = VECTOR ( 'NONE', #482, 1000.000000000000000 ) ;
#91 = AXIS2_PLACEMENT_3D ( 'NONE', #93, #544, #680 ) ;
#92 = ORIENTED_EDGE ( 'NONE', *, *, #793, .T. ) ;
#93 = CARTESIAN_POINT ( 'NONE',  ( 0.9499999999999999556, 0.000000000000000000, 0.000000000000000000 ) ) ;
#94 = PRODUCT_RELATED_PRODUCT_CATEGORY ( 'part', '', ( #234 ) ) ;
#95 = FACE_OUTER_BOUND ( 'NONE', #425, .T. ) ;
#96 = PRODUCT_DEFINITION_SHAPE ( 'NONE', 'NONE',  #513 ) ;
#97 = LINE ( 'NONE', #163, #118 ) ;
#98 = ITEM_DEFINED_TRANSFORMATION ( 'NONE', 'NONE', #47,  #378 ) ;
#99 = FACE_OUTER_BOUND ( 'NONE', #212, .T. ) ;
#100 = ORIENTED_EDGE ( 'NONE', *, *, #57, .F. ) ;
#101 = CARTESIAN_POINT ( 'NONE',  ( 0.9499999999999999556, 0.000000000000000000, 0.09500000000000000111 ) ) ;
#102 = PRODUCT_DEFINITION_SHAPE ( 'NONE', 'NONE',  #664 ) ;
#103 = CARTESIAN_POINT ( 'NONE',  ( 0.9499999999999999556, 0.9499999999999999556, 0.000000000000000000 ) ) ;
#104 = VECTOR ( 'NONE', #167, 1000.000000000000000 ) ;
#105 = SURFACE_STYLE_FILL_AREA ( #311 ) ;
#106 = AXIS2_PLACEMENT_3D ( 'NONE', #479, #557, #359 ) ;
#107 = PLANE ( 'NONE',  #613 ) ;
#108 = EDGE_CURVE ( 'NONE', #806, #466, #692, .T. ) ;
#109 = ORIENTED_EDGE ( 'NONE', *, *, #125, .T. ) ;
#110 = SURFACE_SIDE_STYLE ('',( #105 ) ) ;
#111 = CARTESIAN_POINT ( 'NONE',  ( 0.09500000000000000111, 0.000000000000000000, 0.09500000000000000111 ) ) ;
#112 = EDGE_CURVE ( 'NONE', #342, #806, #28, .T. ) ;
#113 = ORIENTED_EDGE ( 'NONE', *, *, #7, .T. ) ;
#114 = CARTESIAN_POINT ( 'NONE',  ( 0.9499999999999999556, 0.000000000000000000, 0.000000000000000000 ) ) ;
#115 = CARTESIAN_POINT ( 'NONE',  ( 0.09500000000000000111, 0.000000000000000000, 0.09500000000000000111 ) ) ;
#116 = PRODUCT_DEFINITION_FORMATION_WITH_SPECIFIED_SOURCE ( 'ANY', '', #372, .NOT_KNOWN. ) ;
#117 = VERTEX_POINT ( 'NONE', #226 ) ;
#118 = VECTOR ( 'NONE', #303, 1000.000000000000000 ) ;
#119 = VECTOR ( 'NONE', #72, 1000.000000000000000 ) ;
#120 = SURFACE_SIDE_STYLE ('',( #465 ) ) ;
#121 = DIRECTION ( 'NONE',  ( 0.000000000000000000, -1.000000000000000000, 0.000000000000000000 ) ) ;
#122 = UNCERTAINTY_MEASURE_WITH_UNIT (LENGTH_MEASURE( 1.000000000000000082E-05 ), #60, 'distance_accuracy_value', 'NONE');
#123 = EDGE_LOOP ( 'NONE', ( #458, #670, #688, #239 ) ) ;
#124 = SHAPE_REPRESENTATION_RELATIONSHIP ( 'NONE' , 'NONE' ,  #53, #717 ) ;
#125 = EDGE_CURVE ( 'NONE', #357, #179, #314, .T. ) ;
#126 = CARTESIAN_POINT ( 'NONE',  ( 0.000000000000000000, 0.000000000000000000, 0.000000000000000000 ) ) ;
#127 =( NAMED_UNIT ( * ) SI_UNIT ( $, .STERADIAN. ) SOLID_ANGLE_UNIT ( ) );
#128 = VERTEX_POINT ( 'NONE', #584 ) ;
#129 = PLANE ( 'NONE',  #77 ) ;
#130 = CARTESIAN_POINT ( 'NONE',  ( 1.655000000000000027, 0.000000000000000000, 0.8549999999999999822 ) ) ;
#131 = PRODUCT_DEFINITION ( 'UNKNOWN', '', #828, #737 ) ;
#132 = ORIENTED_EDGE ( 'NONE', *, *, #395, .F. ) ;
#133 = CARTESIAN_POINT ( 'NONE',  ( -0.8750000000000000000, -0.4749999999999999778, 0.000000000000000000 ) ) ;
#134 = PRESENTATION_STYLE_ASSIGNMENT (( #727 ) ) ;
#135 = VECTOR ( 'NONE', #571, 1000.000000000000000 ) ;
#136 = VECTOR ( 'NONE', #312, 1000.000000000000000 ) ;
#137 = MANIFOLD_SOLID_BREP ( 'Mid Body[1]', #600 ) ;
#138 = EDGE_CURVE ( 'NONE', #638, #594, #61, .T. ) ;
#139 = EDGE_LOOP ( 'NONE', ( #601, #339, #612, #296 ) ) ;
#140 = CARTESIAN_POINT ( 'NONE',  ( 0.8750000000000000000, 0.4749999999999999778, 0.000000000000000000 ) ) ;
#141 = CARTESIAN_POINT ( 'NONE',  ( 0.9499999999999999556, 0.000000000000000000, 0.000000000000000000 ) ) ;
#142 = EDGE_CURVE ( 'NONE', #420, #473, #44, .T. ) ;
#143 = UNCERTAINTY_MEASURE_WITH_UNIT (LENGTH_MEASURE( 1.000000000000000082E-05 ), #530, 'distance_accuracy_value', 'NONE');
#144 = APPLICATION_CONTEXT ( 'automotive_design' ) ;
#145 = VERTEX_POINT ( 'NONE', #708 ) ;
#146 = CONTEXT_DEPENDENT_SHAPE_REPRESENTATION ( #384, #438 ) ;
#147 = EDGE_LOOP ( 'NONE', ( #320, #739, #208, #205 ) ) ;
#148 = SHAPE_DEFINITION_REPRESENTATION ( #102, #360 ) ;
#149 = DIRECTION ( 'NONE',  ( 1.000000000000000000, 0.000000000000000000, 0.000000000000000000 ) ) ;
#150 = PLANE ( 'NONE',  #390 ) ;
#151 = VECTOR ( 'NONE', #510, 1000.000000000000000 ) ;
#152 = STYLED_ITEM ( 'NONE', ( #447 ), #675 ) ;
#153 = ORIENTED_EDGE ( 'NONE', *, *, #268, .F. ) ;
#154 = SHAPE_DEFINITION_REPRESENTATION ( #709, #622 ) ;
#155 = ADVANCED_FACE ( 'NONE', ( #323 ), #397, .T. ) ;
#156 = LINE ( 'NONE', #345, #615 ) ;
#157 = LINE ( 'NONE', #611, #135 ) ;
#158 = MANIFOLD_SOLID_BREP ( 'Open CASCADE STEP translator 7.5 7.2.1[1]', #478 ) ;
#159 = ORIENTED_EDGE ( 'NONE', *, *, #583, .T. ) ;
#160 = SHAPE_DEFINITION_REPRESENTATION ( #581, #736 ) ;
#161 = CARTESIAN_POINT ( 'NONE',  ( 0.09500000000000000111, 0.9499999999999999556, 0.09500000000000000111 ) ) ;
#162 = APPLICATION_CONTEXT ( 'automotive_design' ) ;
#163 = CARTESIAN_POINT ( 'NONE',  ( 0.09500000000000000111, 0.9499999999999999556, 0.09500000000000000111 ) ) ;
#164 = DIRECTION ( 'NONE',  ( 1.000000000000000000, 0.000000000000000000, 0.000000000000000000 ) ) ;
#165 = VECTOR ( 'NONE', #299, 1000.000000000000000 ) ;
#166 = EDGE_LOOP ( 'NONE', ( #801, #11, #269, #483 ) ) ;
#167 = DIRECTION ( 'NONE',  ( 0.000000000000000000, 1.000000000000000000, 0.000000000000000000 ) ) ;
#168 = FACE_OUTER_BOUND ( 'NONE', #403, .T. ) ;
#169 = LINE ( 'NONE', #507, #63 ) ;
#170 = VERTEX_POINT ( 'NONE', #243 ) ;
#171 = ADVANCED_FACE ( 'NONE', ( #450 ), #247, .T. ) ;
#172 = LINE ( 'NONE', #769, #575 ) ;
#173 = PRODUCT_DEFINITION ( 'UNKNOWN', '', #344, #18 ) ;
#174 = ORIENTED_EDGE ( 'NONE', *, *, #138, .F. ) ;
#175 = VECTOR ( 'NONE', #435, 1000.000000000000000 ) ;
#176 =( GEOMETRIC_REPRESENTATION_CONTEXT ( 3 ) GLOBAL_UNCERTAINTY_ASSIGNED_CONTEXT ( ( #590 ) ) GLOBAL_UNIT_ASSIGNED_CONTEXT ( ( #521, #726, #710 ) ) REPRESENTATION_CONTEXT ( 'NONE', 'WORKASPACE' ) );
#177 = EDGE_CURVE ( 'NONE', #19, #196, #186, .T. ) ;
#178 = CARTESIAN_POINT ( 'NONE',  ( 0.000000000000000000, 0.9499999999999999556, 0.09500000000000000111 ) ) ;
#179 = VERTEX_POINT ( 'NONE', #392 ) ;
#180 = LINE ( 'NONE', #448, #204 ) ;
#181 =( NAMED_UNIT ( * ) PLANE_ANGLE_UNIT ( ) SI_UNIT ( $, .RADIAN. ) );
#182 = UNCERTAINTY_MEASURE_WITH_UNIT (LENGTH_MEASURE( 1.000000000000000082E-05 ), #472, 'distance_accuracy_value', 'NONE');
#183 = ORIENTED_EDGE ( 'NONE', *, *, #634, .T. ) ;
#184 =( REPRESENTATION_RELATIONSHIP ('NONE','NONE', #366, #736 ) REPRESENTATION_RELATIONSHIP_WITH_TRANSFORMATION ( #833 )SHAPE_REPRESENTATION_RELATIONSHIP( ) );
#185 = EDGE_CURVE ( 'NONE', #473, #371, #650, .T. ) ;
#186 = LINE ( 'NONE', #788, #23 ) ;
#187 = MECHANICAL_DESIGN_GEOMETRIC_PRESENTATION_REPRESENTATION (  '', ( #289 ), #76 ) ;
#188 = VERTEX_POINT ( 'NONE', #362 ) ;
#189 =( NAMED_UNIT ( * ) SI_UNIT ( $, .STERADIAN. ) SOLID_ANGLE_UNIT ( ) );
#190 = VECTOR ( 'NONE', #89, 1000.000000000000000 ) ;
#191 = DIRECTION ( 'NONE',  ( 0.000000000000000000, 0.000000000000000000, 1.000000000000000000 ) ) ;
#192 = CARTESIAN_POINT ( 'NONE',  ( 0.000000000000000000, 0.9499999999999999556, 0.09500000000000000111 ) ) ;
#193 = ORIENTED_EDGE ( 'NONE', *, *, #814, .T. ) ;
#194 = LINE ( 'NONE', #711, #509 ) ;
#195 = DIRECTION ( 'NONE',  ( 0.000000000000000000, 0.000000000000000000, 1.000000000000000000 ) ) ;
#196 = VERTEX_POINT ( 'NONE', #30 ) ;
#197 = DIRECTION ( 'NONE',  ( 1.000000000000000000, 0.000000000000000000, 0.000000000000000000 ) ) ;
#198 = EDGE_CURVE ( 'NONE', #117, #563, #2, .T. ) ;
#199 = CARTESIAN_POINT ( 'NONE',  ( 0.4000000000000000222, 0.000000000000000000, 0.000000000000000000 ) ) ;
#200 = ORIENTED_EDGE ( 'NONE', *, *, #524, .F. ) ;
#201 = AXIS2_PLACEMENT_3D ( 'NONE', #837, #373, #305 ) ;
#202 = CARTESIAN_POINT ( 'NONE',  ( 0.000000000000000000, 0.9499999999999999556, 0.9499999999999999556 ) ) ;
#203 = ADVANCED_FACE ( 'NONE', ( #554 ), #401, .F. ) ;
#204 = VECTOR ( 'NONE', #706, 1000.000000000000000 ) ;
#205 = ORIENTED_EDGE ( 'NONE', *, *, #779, .T. ) ;
#206 = DIRECTION ( 'NONE',  ( 0.000000000000000000, 0.000000000000000000, 1.000000000000000000 ) ) ;
#207 = UNCERTAINTY_MEASURE_WITH_UNIT (LENGTH_MEASURE( 1.000000000000000082E-05 ), #596, 'distance_accuracy_value', 'NONE');
#208 = ORIENTED_EDGE ( 'NONE', *, *, #383, .F. ) ;
#209 = CARTESIAN_POINT ( 'NONE',  ( 0.000000000000000000, 0.000000000000000000, 0.000000000000000000 ) ) ;
#210 = LINE ( 'NONE', #298, #508 ) ;
#211 = EDGE_CURVE ( 'NONE', #5, #806, #542, .T. ) ;
#212 = EDGE_LOOP ( 'NONE', ( #81, #446, #267, #597 ) ) ;
#213 = CARTESIAN_POINT ( 'NONE',  ( 0.09500000000000000111, 0.9499999999999999556, 0.8549999999999999822 ) ) ;
#214 =( GEOMETRIC_REPRESENTATION_CONTEXT ( 3 ) GLOBAL_UNCERTAINTY_ASSIGNED_CONTEXT ( ( #667 ) ) GLOBAL_UNIT_ASSIGNED_CONTEXT ( ( #416, #74, #284 ) ) REPRESENTATION_CONTEXT ( 'NONE', 'WORKASPACE' ) );
#215 = MECHANICAL_DESIGN_GEOMETRIC_PRESENTATION_REPRESENTATION (  '', ( #455 ), #760 ) ;
#216 = CARTESIAN_POINT ( 'NONE',  ( 0.000000000000000000, 0.000000000000000000, 0.000000000000000000 ) ) ;
#217 = AXIS2_PLACEMENT_3D ( 'NONE', #126, #322, #656 ) ;
#218 =( GEOMETRIC_REPRESENTATION_CONTEXT ( 3 ) GLOBAL_UNCERTAINTY_ASSIGNED_CONTEXT ( ( #122 ) ) GLOBAL_UNIT_ASSIGNED_CONTEXT ( ( #60, #742, #851 ) ) REPRESENTATION_CONTEXT ( 'NONE', 'WORKASPACE' ) );
#219 = ORIENTED_EDGE ( 'NONE', *, *, #583, .F. ) ;
#220 = CARTESIAN_POINT ( 'NONE',  ( 1.655000000000000027, 0.9499999999999999556, 0.09500000000000000111 ) ) ;
#221 = CARTESIAN_POINT ( 'NONE',  ( 0.09500000000000000111, 0.9499999999999999556, 0.8549999999999999822 ) ) ;
#222 = PRODUCT_CONTEXT ( 'NONE', #795, 'mechanical' ) ;
#223 =( LENGTH_UNIT ( ) NAMED_UNIT ( * ) SI_UNIT ( .MILLI., .METRE. ) );
#224 = ADVANCED_FACE ( 'NONE', ( #545 ), #414, .F. ) ;
#225 = DIRECTION ( 'NONE',  ( 0.000000000000000000, 1.000000000000000000, 0.000000000000000000 ) ) ;
#226 = CARTESIAN_POINT ( 'NONE',  ( 0.09500000000000000111, 0.9499999999999999556, 0.09500000000000000111 ) ) ;
#227 = APPLICATION_CONTEXT ( 'automotive_design' ) ;
#228 = DIRECTION ( 'NONE',  ( 1.000000000000000000, 0.000000000000000000, 0.000000000000000000 ) ) ;
#229 = VECTOR ( 'NONE', #488, 1000.000000000000000 ) ;
#230 = VECTOR ( 'NONE', #29, 1000.000000000000000 ) ;
#231 = EDGE_LOOP ( 'NONE', ( #153, #812, #850, #431, #283, #13, #460, #719 ) ) ;
#232 =( NAMED_UNIT ( * ) SI_UNIT ( $, .STERADIAN. ) SOLID_ANGLE_UNIT ( ) );
#233 = CARTESIAN_POINT ( 'NONE',  ( 1.655000000000000027, 0.9499999999999999556, 0.09500000000000000111 ) ) ;
#234 = PRODUCT ( 'Open CASCADE STEP translator 7.5 7.2.1.step_\X2\9ed88ba4\X0\', 'Open CASCADE STEP translator 7.5 7.2.1.step_\X2\9ed88ba4\X0\', '', ( #804 ) ) ;
#235 = EDGE_CURVE ( 'NONE', #563, #179, #429, .T. ) ;
#236 = LINE ( 'NONE', #37, #643 ) ;
#237 = SHAPE_REPRESENTATION ( 'Open CASCADE STEP translator 7.5 7.2.1.step_\X2\9ed88ba4\X0\', ( #378 ), #762 ) ;
#238 = CARTESIAN_POINT ( 'NONE',  ( 0.000000000000000000, 0.9499999999999999556, 0.000000000000000000 ) ) ;
#239 = ORIENTED_EDGE ( 'NONE', *, *, #108, .T. ) ;
#240 = PRODUCT_DEFINITION ( 'UNKNOWN', '', #454, #50 ) ;
#241 = FILL_AREA_STYLE_COLOUR ( '', #746 ) ;
#242 = DIRECTION ( 'NONE',  ( 1.000000000000000000, 0.000000000000000000, 0.000000000000000000 ) ) ;
#243 = CARTESIAN_POINT ( 'NONE',  ( 0.4000000000000000222, 0.000000000000000000, 0.8549999999999999822 ) ) ;
#244 = AXIS2_PLACEMENT_3D ( 'NONE', #423, #164, #351 ) ;
#245 = AXIS2_PLACEMENT_3D ( 'NONE', #56, #599, #271 ) ;
#246 = FACE_OUTER_BOUND ( 'NONE', #529, .T. ) ;
#247 = PLANE ( 'NONE',  #629 ) ;
#248 = ORIENTED_EDGE ( 'NONE', *, *, #297, .T. ) ;
#249 = PLANE ( 'NONE',  #347 ) ;
#250 = ORIENTED_EDGE ( 'NONE', *, *, #125, .F. ) ;
#251 = SURFACE_SIDE_STYLE ('',( #332 ) ) ;
#252 = CARTESIAN_POINT ( 'NONE',  ( 1.655000000000000027, 0.000000000000000000, 0.09500000000000000111 ) ) ;
#253 =( REPRESENTATION_RELATIONSHIP ('NONE','NONE', #366, #622 ) REPRESENTATION_RELATIONSHIP_WITH_TRANSFORMATION ( #689 )SHAPE_REPRESENTATION_RELATIONSHIP( ) );
#254 = DIRECTION ( 'NONE',  ( 0.000000000000000000, 1.000000000000000000, 0.000000000000000000 ) ) ;
#255 = AXIS2_PLACEMENT_3D ( 'NONE', #394, #264, #197 ) ;
#256 = EDGE_LOOP ( 'NONE', ( #275, #263, #585, #391 ) ) ;
#257 = COLOUR_RGB ( '',0.8274509803921568096, 0.8274509803921568096, 0.8274509803921568096 ) ;
#258 = MECHANICAL_DESIGN_GEOMETRIC_PRESENTATION_REPRESENTATION (  '', ( #576 ), #603 ) ;
#259 = CARTESIAN_POINT ( 'NONE',  ( 0.4000000000000000222, 0.000000000000000000, 0.000000000000000000 ) ) ;
#260 = DIRECTION ( 'NONE',  ( 0.000000000000000000, 1.000000000000000000, 0.000000000000000000 ) ) ;
#261 = UNCERTAINTY_MEASURE_WITH_UNIT (LENGTH_MEASURE( 1.000000000000000082E-05 ), #519, 'distance_accuracy_value', 'NONE');
#262 = ADVANCED_FACE ( 'NONE', ( #659 ), #150, .F. ) ;
#263 = ORIENTED_EDGE ( 'NONE', *, *, #424, .T. ) ;
#264 = DIRECTION ( 'NONE',  ( 0.000000000000000000, 0.000000000000000000, 1.000000000000000000 ) ) ;
#265 = FILL_AREA_STYLE ('',( #334 ) ) ;
#266 = DIRECTION ( 'NONE',  ( 1.000000000000000000, 0.000000000000000000, 0.000000000000000000 ) ) ;
#267 = ORIENTED_EDGE ( 'NONE', *, *, #185, .T. ) ;
#268 = EDGE_CURVE ( 'NONE', #705, #19, #487, .T. ) ;
#269 = ORIENTED_EDGE ( 'NONE', *, *, #568, .T. ) ;
#270 =( NAMED_UNIT ( * ) SI_UNIT ( $, .STERADIAN. ) SOLID_ANGLE_UNIT ( ) );
#271 = DIRECTION ( 'NONE',  ( 1.000000000000000000, 0.000000000000000000, 0.000000000000000000 ) ) ;
#272 = MECHANICAL_DESIGN_GEOMETRIC_PRESENTATION_REPRESENTATION (  '', ( #684 ), #550 ) ;
#273 = AXIS2_PLACEMENT_3D ( 'NONE', #628, #733, #718 ) ;
#274 = APPLICATION_CONTEXT ( 'automotive_design' ) ;
#275 = ORIENTED_EDGE ( 'NONE', *, *, #85, .F. ) ;
#276 = PLANE ( 'NONE',  #686 ) ;
#277 = EDGE_CURVE ( 'NONE', #535, #473, #621, .T. ) ;
#278 = UNCERTAINTY_MEASURE_WITH_UNIT (LENGTH_MEASURE( 1.000000000000000082E-05 ), #223, 'distance_accuracy_value', 'NONE');
#279 = VERTEX_POINT ( 'NONE', #752 ) ;
#280 = DIRECTION ( 'NONE',  ( 0.000000000000000000, 0.000000000000000000, 1.000000000000000000 ) ) ;
#281 = CARTESIAN_POINT ( 'NONE',  ( 0.000000000000000000, 0.9499999999999999556, 0.000000000000000000 ) ) ;
#282 = DIRECTION ( 'NONE',  ( 0.000000000000000000, 1.000000000000000000, 0.000000000000000000 ) ) ;
#283 = ORIENTED_EDGE ( 'NONE', *, *, #657, .F. ) ;
#284 =( NAMED_UNIT ( * ) SI_UNIT ( $, .STERADIAN. ) SOLID_ANGLE_UNIT ( ) );
#285 = CARTESIAN_POINT ( 'NONE',  ( 0.000000000000000000, 0.000000000000000000, 0.000000000000000000 ) ) ;
#286 =( GEOMETRIC_REPRESENTATION_CONTEXT ( 3 ) GLOBAL_UNCERTAINTY_ASSIGNED_CONTEXT ( ( #532 ) ) GLOBAL_UNIT_ASSIGNED_CONTEXT ( ( #839, #570, #702 ) ) REPRESENTATION_CONTEXT ( 'NONE', 'WORKASPACE' ) );
#287 = DIRECTION ( 'NONE',  ( -0.000000000000000000, 1.000000000000000000, 0.000000000000000000 ) ) ;
#288 = VECTOR ( 'NONE', #341, 1000.000000000000000 ) ;
#289 = STYLED_ITEM ( 'NONE', ( #720 ), #717 ) ;
#290 = EDGE_LOOP ( 'NONE', ( #744, #655, #109, #646 ) ) ;
#291 = CARTESIAN_POINT ( 'NONE',  ( 0.000000000000000000, 0.000000000000000000, 0.000000000000000000 ) ) ;
#292 = EDGE_CURVE ( 'NONE', #409, #128, #616, .T. ) ;
#293 = CARTESIAN_POINT ( 'NONE',  ( 0.000000000000000000, 0.000000000000000000, 0.000000000000000000 ) ) ;
#294 = APPLICATION_CONTEXT ( 'automotive_design' ) ;
#295 = CARTESIAN_POINT ( 'NONE',  ( 0.09500000000000000111, 0.9499999999999999556, 0.09500000000000000111 ) ) ;
#296 = ORIENTED_EDGE ( 'NONE', *, *, #292, .T. ) ;
#297 = EDGE_CURVE ( 'NONE', #55, #533, #355, .T. ) ;
#298 = CARTESIAN_POINT ( 'NONE',  ( 0.09500000000000000111, 0.9499999999999999556, 0.09500000000000000111 ) ) ;
#299 = DIRECTION ( 'NONE',  ( 1.000000000000000000, 0.000000000000000000, 0.000000000000000000 ) ) ;
#300 = DIRECTION ( 'NONE',  ( 0.000000000000000000, 1.000000000000000000, 0.000000000000000000 ) ) ;
#301 = VECTOR ( 'NONE', #491, 1000.000000000000000 ) ;
#302 = MECHANICAL_DESIGN_GEOMETRIC_PRESENTATION_REPRESENTATION (  '', ( #413 ), #497 ) ;
#303 = DIRECTION ( 'NONE',  ( 1.000000000000000000, 0.000000000000000000, 0.000000000000000000 ) ) ;
#304 = CONTEXT_DEPENDENT_SHAPE_REPRESENTATION ( #499, #313 ) ;
#305 = DIRECTION ( 'NONE',  ( 1.000000000000000000, 0.000000000000000000, 0.000000000000000000 ) ) ;
#306 = CARTESIAN_POINT ( 'NONE',  ( 0.4000000000000000222, 0.000000000000000000, 0.000000000000000000 ) ) ;
#307 = CARTESIAN_POINT ( 'NONE',  ( 0.09500000000000000111, 0.9499999999999999556, 0.09500000000000000111 ) ) ;
#308 =( LENGTH_UNIT ( ) NAMED_UNIT ( * ) SI_UNIT ( .MILLI., .METRE. ) );
#309 = DIRECTION ( 'NONE',  ( 1.000000000000000000, 0.000000000000000000, 0.000000000000000000 ) ) ;
#310 =( NAMED_UNIT ( * ) SI_UNIT ( $, .STERADIAN. ) SOLID_ANGLE_UNIT ( ) );
#311 = FILL_AREA_STYLE ('',( #636 ) ) ;
#312 = DIRECTION ( 'NONE',  ( 0.000000000000000000, 1.000000000000000000, 0.000000000000000000 ) ) ;
#313 = PRODUCT_DEFINITION_SHAPE ( 'NONE', 'NONE',  #859 ) ;
#314 = LINE ( 'NONE', #130, #151 ) ;
#315 = VECTOR ( 'NONE', #22, 1000.000000000000000 ) ;
#316 = VECTOR ( 'NONE', #79, 1000.000000000000000 ) ;
#317 = DIRECTION ( 'NONE',  ( -1.000000000000000000, 0.000000000000000000, 0.000000000000000000 ) ) ;
#318 = FACE_OUTER_BOUND ( 'NONE', #166, .T. ) ;
#319 = APPLICATION_CONTEXT ( 'automotive_design' ) ;
#320 = ORIENTED_EDGE ( 'NONE', *, *, #573, .T. ) ;
#321 = FILL_AREA_STYLE_COLOUR ( '', #553 ) ;
#322 = DIRECTION ( 'NONE',  ( 1.000000000000000000, 0.000000000000000000, 0.000000000000000000 ) ) ;
#323 = FACE_OUTER_BOUND ( 'NONE', #767, .T. ) ;
#324 = ORIENTED_EDGE ( 'NONE', *, *, #820, .F. ) ;
#325 =( NAMED_UNIT ( * ) PLANE_ANGLE_UNIT ( ) SI_UNIT ( $, .RADIAN. ) );
#326 = FACE_OUTER_BOUND ( 'NONE', #678, .T. ) ;
#327 = EDGE_CURVE ( 'NONE', #117, #533, #210, .T. ) ;
#328 = SURFACE_STYLE_USAGE ( .BOTH. , #654 ) ;
#329 = PRODUCT_DEFINITION_FORMATION_WITH_SPECIFIED_SOURCE ( 'ANY', '', #834, .NOT_KNOWN. ) ;
#330 = VECTOR ( 'NONE', #260, 1000.000000000000000 ) ;
#331 = ORIENTED_EDGE ( 'NONE', *, *, #534, .T. ) ;
#332 = SURFACE_STYLE_FILL_AREA ( #716 ) ;
#333 = VECTOR ( 'NONE', #740, 1000.000000000000000 ) ;
#334 = FILL_AREA_STYLE_COLOUR ( '', #644 ) ;
#335 = PRODUCT_RELATED_PRODUCT_CATEGORY ( 'part', '', ( #649 ) ) ;
#336 = PLANE ( 'NONE',  #412 ) ;
#337 = ORIENTED_EDGE ( 'NONE', *, *, #618, .T. ) ;
#338 = DIRECTION ( 'NONE',  ( 1.000000000000000000, 0.000000000000000000, 0.000000000000000000 ) ) ;
#339 = ORIENTED_EDGE ( 'NONE', *, *, #634, .F. ) ;
#340 = APPLICATION_PROTOCOL_DEFINITION ( 'draft international standard', 'automotive_design', 1998, #436 ) ;
#341 = DIRECTION ( 'NONE',  ( 0.000000000000000000, 1.000000000000000000, 0.000000000000000000 ) ) ;
#342 = VERTEX_POINT ( 'NONE', #84 ) ;
#343 = PRODUCT_CONTEXT ( 'NONE', #67, 'mechanical' ) ;
#344 = PRODUCT_DEFINITION_FORMATION_WITH_SPECIFIED_SOURCE ( 'ANY', '', #445, .NOT_KNOWN. ) ;
#345 = CARTESIAN_POINT ( 'NONE',  ( 0.000000000000000000, 0.000000000000000000, 0.000000000000000000 ) ) ;
#346 = VECTOR ( 'NONE', #228, 1000.000000000000000 ) ;
#347 = AXIS2_PLACEMENT_3D ( 'NONE', #565, #633, #43 ) ;
#348 = ORIENTED_EDGE ( 'NONE', *, *, #198, .T. ) ;
#349 = APPLICATION_PROTOCOL_DEFINITION ( 'draft international standard', 'automotive_design', 1998, #162 ) ;
#350 = PLANE ( 'NONE',  #106 ) ;
#351 = DIRECTION ( 'NONE',  ( 0.000000000000000000, 1.000000000000000000, 0.000000000000000000 ) ) ;
#352 = ORIENTED_EDGE ( 'NONE', *, *, #793, .F. ) ;
#353 = APPLICATION_PROTOCOL_DEFINITION ( 'draft international standard', 'automotive_design', 1998, #795 ) ;
#354 = DIRECTION ( 'NONE',  ( 0.000000000000000000, 0.000000000000000000, 1.000000000000000000 ) ) ;
#355 = LINE ( 'NONE', #755, #10 ) ;
#356 = EDGE_CURVE ( 'NONE', #342, #170, #561, .T. ) ;
#357 = VERTEX_POINT ( 'NONE', #687 ) ;
#358 = APPLICATION_PROTOCOL_DEFINITION ( 'draft international standard', 'automotive_design', 1998, #469 ) ;
#359 = DIRECTION ( 'NONE',  ( 1.000000000000000000, 0.000000000000000000, 0.000000000000000000 ) ) ;
#360 = SHAPE_REPRESENTATION ( 'NTC0603', ( #712, #9 ), #798 ) ;
#361 = AXIS2_PLACEMENT_3D ( 'NONE', #238, #766, #504 ) ;
#362 = CARTESIAN_POINT ( 'NONE',  ( 0.000000000000000000, 0.000000000000000000, 0.9499999999999999556 ) ) ;
#363 = COLOUR_RGB ( '',0.8000000000000000444, 0.8000000000000000444, 0.8000000000000000444 ) ;
#364 = ADVANCED_FACE ( 'NONE', ( #95 ), #741, .T. ) ;
#365 = CARTESIAN_POINT ( 'NONE',  ( 0.09500000000000000111, 0.000000000000000000, 0.8549999999999999822 ) ) ;
#366 = SHAPE_REPRESENTATION ( 'NTC0603.step_\X2\9ed88ba4\X0\', ( #255, #759, #388, #771, #786 ), #214 ) ;
#367 = CARTESIAN_POINT ( 'NONE',  ( 0.4000000000000000222, 0.000000000000000000, 0.000000000000000000 ) ) ;
#368 = DIRECTION ( 'NONE',  ( 0.000000000000000000, 0.000000000000000000, 1.000000000000000000 ) ) ;
#369 =( REPRESENTATION_RELATIONSHIP ('NONE','NONE', #736, #237 ) REPRESENTATION_RELATIONSHIP_WITH_TRANSFORMATION ( #98 )SHAPE_REPRESENTATION_RELATIONSHIP( ) );
#370 = DIRECTION ( 'NONE',  ( 0.000000000000000000, 0.000000000000000000, 1.000000000000000000 ) ) ;
#371 = VERTEX_POINT ( 'NONE', #763 ) ;
#372 = PRODUCT ( 'NTC0603.step_\X2\9ed88ba4\X0\', 'NTC0603.step_\X2\9ed88ba4\X0\', '', ( #343 ) ) ;
#373 = DIRECTION ( 'NONE',  ( 0.000000000000000000, 0.000000000000000000, 1.000000000000000000 ) ) ;
#374 = ADVANCED_FACE ( 'NONE', ( #64 ), #336, .T. ) ;
#375 = DIRECTION ( 'NONE',  ( -0.000000000000000000, 1.000000000000000000, 0.000000000000000000 ) ) ;
#376 = COLOUR_RGB ( '',0.8000000000000000444, 0.8000000000000000444, 0.8000000000000000444 ) ;
#377 = VECTOR ( 'NONE', #500, 1000.000000000000000 ) ;
#378 = AXIS2_PLACEMENT_3D ( 'NONE', #685, #427, #735 ) ;
#379 = DIRECTION ( 'NONE',  ( 0.000000000000000000, 0.000000000000000000, 1.000000000000000000 ) ) ;
#380 = DIRECTION ( 'NONE',  ( 1.000000000000000000, 0.000000000000000000, 0.000000000000000000 ) ) ;
#381 = EDGE_LOOP ( 'NONE', ( #676, #100, #86, #511 ) ) ;
#382 = DIRECTION ( 'NONE',  ( 0.000000000000000000, 0.000000000000000000, 1.000000000000000000 ) ) ;
#383 = EDGE_CURVE ( 'NONE', #753, #535, #809, .T. ) ;
#384 =( REPRESENTATION_RELATIONSHIP ('NONE','NONE', #366, #736 ) REPRESENTATION_RELATIONSHIP_WITH_TRANSFORMATION ( #6 )SHAPE_REPRESENTATION_RELATIONSHIP( ) );
#385 = ORIENTED_EDGE ( 'NONE', *, *, #524, .T. ) ;
#386 = SURFACE_STYLE_USAGE ( .BOTH. , #110 ) ;
#387 = DIRECTION ( 'NONE',  ( 0.000000000000000000, 1.000000000000000000, 0.000000000000000000 ) ) ;
#388 = AXIS2_PLACEMENT_3D ( 'NONE', #140, #464, #317 ) ;
#389 = DIRECTION ( 'NONE',  ( 1.000000000000000000, 0.000000000000000000, 0.000000000000000000 ) ) ;
#390 = AXIS2_PLACEMENT_3D ( 'NONE', #805, #681, #419 ) ;
#391 = ORIENTED_EDGE ( 'NONE', *, *, #17, .F. ) ;
#392 = CARTESIAN_POINT ( 'NONE',  ( 1.655000000000000027, 0.9499999999999999556, 0.8549999999999999822 ) ) ;
#393 = ORIENTED_EDGE ( 'NONE', *, *, #112, .F. ) ;
#394 = CARTESIAN_POINT ( 'NONE',  ( 0.000000000000000000, 0.000000000000000000, 0.000000000000000000 ) ) ;
#395 = EDGE_CURVE ( 'NONE', #466, #170, #157, .T. ) ;
#396 = DIRECTION ( 'NONE',  ( 0.000000000000000000, 1.000000000000000000, 0.000000000000000000 ) ) ;
#397 = PLANE ( 'NONE',  #829 ) ;
#398 = EDGE_LOOP ( 'NONE', ( #632, #451, #113, #219 ) ) ;
#399 = CARTESIAN_POINT ( 'NONE',  ( 0.4000000000000000222, 0.000000000000000000, 0.9499999999999999556 ) ) ;
#400 = PRODUCT_RELATED_PRODUCT_CATEGORY ( 'part', '', ( #834 ) ) ;
#401 = PLANE ( 'NONE',  #402 ) ;
#402 = AXIS2_PLACEMENT_3D ( 'NONE', #826, #287, #817 ) ;
#403 = EDGE_LOOP ( 'NONE', ( #476, #70, #626, #385 ) ) ;
#404 = DIRECTION ( 'NONE',  ( 0.000000000000000000, 0.000000000000000000, 1.000000000000000000 ) ) ;
#405 = EDGE_LOOP ( 'NONE', ( #665, #749, #352, #604 ) ) ;
#406 =( NAMED_UNIT ( * ) SI_UNIT ( $, .STERADIAN. ) SOLID_ANGLE_UNIT ( ) );
#407 = ORIENTED_EDGE ( 'NONE', *, *, #185, .F. ) ;
#408 = CARTESIAN_POINT ( 'NONE',  ( 0.000000000000000000, 0.000000000000000000, 0.09500000000000000111 ) ) ;
#409 = VERTEX_POINT ( 'NONE', #32 ) ;
#410 = PRODUCT_CONTEXT ( 'NONE', #274, 'mechanical' ) ;
#411 = LINE ( 'NONE', #673, #316 ) ;
#412 = AXIS2_PLACEMENT_3D ( 'NONE', #593, #80, #282 ) ;
#413 = STYLED_ITEM ( 'NONE', ( #690 ), #845 ) ;
#414 = PLANE ( 'NONE',  #244 ) ;
#415 = ORIENTED_EDGE ( 'NONE', *, *, #327, .F. ) ;
#416 =( LENGTH_UNIT ( ) NAMED_UNIT ( * ) SI_UNIT ( .MILLI., .METRE. ) );
#417 = DIRECTION ( 'NONE',  ( 1.000000000000000000, 0.000000000000000000, 0.000000000000000000 ) ) ;
#418 = ADVANCED_FACE ( 'NONE', ( #99 ), #107, .T. ) ;
#419 = DIRECTION ( 'NONE',  ( 1.000000000000000000, 0.000000000000000000, 0.000000000000000000 ) ) ;
#420 = VERTEX_POINT ( 'NONE', #574 ) ;
#421 = DIRECTION ( 'NONE',  ( 1.000000000000000000, 0.000000000000000000, 0.000000000000000000 ) ) ;
#422 = CARTESIAN_POINT ( 'NONE',  ( 0.09500000000000000111, 0.9499999999999999556, 0.09500000000000000111 ) ) ;
#423 = CARTESIAN_POINT ( 'NONE',  ( 0.09500000000000000111, 0.000000000000000000, 0.09500000000000000111 ) ) ;
#424 = EDGE_CURVE ( 'NONE', #188, #638, #169, .T. ) ;
#425 = EDGE_LOOP ( 'NONE', ( #796, #183, #73, #437 ) ) ;
#426 = APPLICATION_CONTEXT ( 'automotive_design' ) ;
#427 = DIRECTION ( 'NONE',  ( 0.000000000000000000, 0.000000000000000000, 1.000000000000000000 ) ) ;
#428 = VECTOR ( 'NONE', #823, 1000.000000000000000 ) ;
#429 = LINE ( 'NONE', #220, #811 ) ;
#430 = VECTOR ( 'NONE', #354, 1000.000000000000000 ) ;
#431 = ORIENTED_EDGE ( 'NONE', *, *, #17, .T. ) ;
#432 =( LENGTH_UNIT ( ) NAMED_UNIT ( * ) SI_UNIT ( .MILLI., .METRE. ) );
#433 = DIRECTION ( 'NONE',  ( 0.000000000000000000, 1.000000000000000000, 0.000000000000000000 ) ) ;
#434 = CARTESIAN_POINT ( 'NONE',  ( 0.000000000000000000, 0.9499999999999999556, 0.9499999999999999556 ) ) ;
#435 = DIRECTION ( 'NONE',  ( 0.000000000000000000, 0.000000000000000000, 1.000000000000000000 ) ) ;
#436 = APPLICATION_CONTEXT ( 'automotive_design' ) ;
#437 = ORIENTED_EDGE ( 'NONE', *, *, #177, .T. ) ;
#438 = PRODUCT_DEFINITION_SHAPE ( 'NONE', 'NONE',  #856 ) ;
#439 = CARTESIAN_POINT ( 'NONE',  ( 0.4000000000000000222, 0.000000000000000000, 0.000000000000000000 ) ) ;
#440 = VECTOR ( 'NONE', #748, 1000.000000000000000 ) ;
#441 = ORIENTED_EDGE ( 'NONE', *, *, #45, .T. ) ;
#442 = DIRECTION ( 'NONE',  ( 0.000000000000000000, 0.000000000000000000, 1.000000000000000000 ) ) ;
#443 = LINE ( 'NONE', #518, #104 ) ;
#444 = ADVANCED_FACE ( 'NONE', ( #246 ), #691, .T. ) ;
#445 = PRODUCT ( 'Mark.step_\X2\9ed88ba4\X0\', 'Mark.step_\X2\9ed88ba4\X0\', '', ( #549 ) ) ;
#446 = ORIENTED_EDGE ( 'NONE', *, *, #142, .T. ) ;
#447 = PRESENTATION_STYLE_ASSIGNMENT (( #761 ) ) ;
#448 = CARTESIAN_POINT ( 'NONE',  ( 0.09500000000000000111, 0.000000000000000000, 0.09500000000000000111 ) ) ;
#449 = ADVANCED_FACE ( 'NONE', ( #773 ), #848, .T. ) ;
#450 = FACE_OUTER_BOUND ( 'NONE', #846, .T. ) ;
#451 = ORIENTED_EDGE ( 'NONE', *, *, #608, .T. ) ;
#452 = LINE ( 'NONE', #522, #830 ) ;
#453 = PRODUCT_DEFINITION_SHAPE ( 'NONE', 'NONE',  #858 ) ;
#454 = PRODUCT_DEFINITION_FORMATION_WITH_SPECIFIED_SOURCE ( 'ANY', '', #619, .NOT_KNOWN. ) ;
#455 = STYLED_ITEM ( 'NONE', ( #714 ), #158 ) ;
#456 = PRODUCT_DEFINITION_CONTEXT ( 'detailed design', #436, 'design' ) ;
#457 = PRESENTATION_LAYER_ASSIGNMENT (  '', '', ( #413 ) ) ;
#458 = ORIENTED_EDGE ( 'NONE', *, *, #395, .T. ) ;
#459 = DIRECTION ( 'NONE',  ( 0.000000000000000000, 0.000000000000000000, 1.000000000000000000 ) ) ;
#460 = ORIENTED_EDGE ( 'NONE', *, *, #211, .F. ) ;
#461 = ADVANCED_FACE ( 'NONE', ( #641 ), #580, .F. ) ;
#462 = PLANE ( 'NONE',  #245 ) ;
#463 = ORIENTED_EDGE ( 'NONE', *, *, #277, .F. ) ;
#464 = DIRECTION ( 'NONE',  ( 0.000000000000000000, 0.000000000000000000, 1.000000000000000000 ) ) ;
#465 = SURFACE_STYLE_FILL_AREA ( #265 ) ;
#466 = VERTEX_POINT ( 'NONE', #48 ) ;
#467 = CARTESIAN_POINT ( 'NONE',  ( -0.8750000000000000000, -0.4749999999999999778, 0.000000000000000000 ) ) ;
#468 = VECTOR ( 'NONE', #396, 1000.000000000000000 ) ;
#469 = APPLICATION_CONTEXT ( 'automotive_design' ) ;
#470 = EDGE_CURVE ( 'NONE', #145, #662, #172, .T. ) ;
#471 = ORIENTED_EDGE ( 'NONE', *, *, #470, .F. ) ;
#472 =( LENGTH_UNIT ( ) NAMED_UNIT ( * ) SI_UNIT ( .MILLI., .METRE. ) );
#473 = VERTEX_POINT ( 'NONE', #178 ) ;
#474 = LINE ( 'NONE', #88, #333 ) ;
#475 = DIRECTION ( 'NONE',  ( 0.000000000000000000, 0.000000000000000000, 1.000000000000000000 ) ) ;
#476 = ORIENTED_EDGE ( 'NONE', *, *, #840, .T. ) ;
#477 = ADVANCED_FACE ( 'NONE', ( #318 ), #249, .T. ) ;
#478 = CLOSED_SHELL ( 'NONE', ( #444, #262, #171, #477, #364, #768, #449, #721, #203, #461 ) ) ;
#479 = CARTESIAN_POINT ( 'NONE',  ( 0.000000000000000000, 0.000000000000000000, 0.000000000000000000 ) ) ;
#480 = VECTOR ( 'NONE', #149, 1000.000000000000000 ) ;
#481 = AXIS2_PLACEMENT_3D ( 'NONE', #209, #206, #417 ) ;
#482 = DIRECTION ( 'NONE',  ( 0.000000000000000000, 0.000000000000000000, 1.000000000000000000 ) ) ;
#483 = ORIENTED_EDGE ( 'NONE', *, *, #177, .F. ) ;
#484 = PRODUCT_CONTEXT ( 'NONE', #144, 'mechanical' ) ;
#485 = EDGE_CURVE ( 'NONE', #145, #117, #443, .T. ) ;
#486 = DIRECTION ( 'NONE',  ( 1.000000000000000000, 0.000000000000000000, 0.000000000000000000 ) ) ;
#487 = LINE ( 'NONE', #677, #190 ) ;
#488 = DIRECTION ( 'NONE',  ( 1.000000000000000000, 0.000000000000000000, 0.000000000000000000 ) ) ;
#489 = ITEM_DEFINED_TRANSFORMATION ( 'NONE', 'NONE', #9,  #255 ) ;
#490 = DIRECTION ( 'NONE',  ( 1.000000000000000000, 0.000000000000000000, 0.000000000000000000 ) ) ;
#491 = DIRECTION ( 'NONE',  ( 1.000000000000000000, 0.000000000000000000, 0.000000000000000000 ) ) ;
#492 = DIRECTION ( 'NONE',  ( 1.000000000000000000, 0.000000000000000000, 0.000000000000000000 ) ) ;
#493 = CONTEXT_DEPENDENT_SHAPE_REPRESENTATION ( #184, #27 ) ;
#494 = SURFACE_SIDE_STYLE ('',( #776 ) ) ;
#495 = CLOSED_SHELL ( 'NONE', ( #155, #69, #418, #802, #738, #707 ) ) ;
#496 = DIRECTION ( 'NONE',  ( 1.000000000000000000, 0.000000000000000000, 0.000000000000000000 ) ) ;
#497 =( GEOMETRIC_REPRESENTATION_CONTEXT ( 3 ) GLOBAL_UNCERTAINTY_ASSIGNED_CONTEXT ( ( #783 ) ) GLOBAL_UNIT_ASSIGNED_CONTEXT ( ( #432, #624, #232 ) ) REPRESENTATION_CONTEXT ( 'NONE', 'WORKASPACE' ) );
#498 = EDGE_CURVE ( 'NONE', #662, #357, #630, .T. ) ;
#499 =( REPRESENTATION_RELATIONSHIP ('NONE','NONE', #366, #53 ) REPRESENTATION_RELATIONSHIP_WITH_TRANSFORMATION ( #701 )SHAPE_REPRESENTATION_RELATIONSHIP( ) );
#500 = DIRECTION ( 'NONE',  ( 0.000000000000000000, 0.000000000000000000, 1.000000000000000000 ) ) ;
#501 = DIRECTION ( 'NONE',  ( 1.000000000000000000, 0.000000000000000000, 0.000000000000000000 ) ) ;
#502 = CARTESIAN_POINT ( 'NONE',  ( 0.000000000000000000, 0.000000000000000000, 0.000000000000000000 ) ) ;
#503 = PLANE ( 'NONE',  #743 ) ;
#504 = DIRECTION ( 'NONE',  ( 1.000000000000000000, 0.000000000000000000, 0.000000000000000000 ) ) ;
#505 = DIRECTION ( 'NONE',  ( 1.000000000000000000, 0.000000000000000000, 0.000000000000000000 ) ) ;
#506 = EDGE_CURVE ( 'NONE', #279, #342, #703, .T. ) ;
#507 = CARTESIAN_POINT ( 'NONE',  ( 0.000000000000000000, 0.000000000000000000, 0.9499999999999999556 ) ) ;
#508 = VECTOR ( 'NONE', #475, 1000.000000000000000 ) ;
#509 = VECTOR ( 'NONE', #54, 1000.000000000000000 ) ;
#510 = DIRECTION ( 'NONE',  ( 0.000000000000000000, 1.000000000000000000, 0.000000000000000000 ) ) ;
#511 = ORIENTED_EDGE ( 'NONE', *, *, #820, .T. ) ;
#512 = FILL_AREA_STYLE ('',( #241 ) ) ;
#513 = PRODUCT_DEFINITION ( 'UNKNOWN', '', #116, #538 ) ;
#514 = CARTESIAN_POINT ( 'NONE',  ( 0.000000000000000000, 0.000000000000000000, 0.09500000000000000111 ) ) ;
#515 = FILL_AREA_STYLE_COLOUR ( '', #376 ) ;
#516 = EDGE_LOOP ( 'NONE', ( #520, #46, #200, #78 ) ) ;
#517 = DIRECTION ( 'NONE',  ( 1.000000000000000000, 0.000000000000000000, 0.000000000000000000 ) ) ;
#518 = CARTESIAN_POINT ( 'NONE',  ( 0.09500000000000000111, 0.000000000000000000, 0.09500000000000000111 ) ) ;
#519 =( LENGTH_UNIT ( ) NAMED_UNIT ( * ) SI_UNIT ( .MILLI., .METRE. ) );
#520 = ORIENTED_EDGE ( 'NONE', *, *, #277, .T. ) ;
#521 =( LENGTH_UNIT ( ) NAMED_UNIT ( * ) SI_UNIT ( .MILLI., .METRE. ) );
#522 = CARTESIAN_POINT ( 'NONE',  ( 0.09500000000000000111, 0.9499999999999999556, 0.8549999999999999822 ) ) ;
#523 = PRODUCT_DEFINITION_FORMATION_WITH_SPECIFIED_SOURCE ( 'ANY', '', #649, .NOT_KNOWN. ) ;
#524 = EDGE_CURVE ( 'NONE', #753, #420, #36, .T. ) ;
#525 = VECTOR ( 'NONE', #764, 1000.000000000000000 ) ;
#526 = VERTEX_POINT ( 'NONE', #306 ) ;
#527 = LINE ( 'NONE', #8, #288 ) ;
#528 = CARTESIAN_POINT ( 'NONE',  ( 0.000000000000000000, 0.9499999999999999556, 0.000000000000000000 ) ) ;
#529 = EDGE_LOOP ( 'NONE', ( #592, #132, #566, #174 ) ) ;
#530 =( LENGTH_UNIT ( ) NAMED_UNIT ( * ) SI_UNIT ( .MILLI., .METRE. ) );
#531 = LINE ( 'NONE', #259, #468 ) ;
#532 = UNCERTAINTY_MEASURE_WITH_UNIT (LENGTH_MEASURE( 1.000000000000000082E-05 ), #839, 'distance_accuracy_value', 'NONE');
#533 = VERTEX_POINT ( 'NONE', #777 ) ;
#534 = EDGE_CURVE ( 'NONE', #279, #5, #699, .T. ) ;
#535 = VERTEX_POINT ( 'NONE', #514 ) ;
#536 = DIRECTION ( 'NONE',  ( 0.000000000000000000, 0.000000000000000000, 1.000000000000000000 ) ) ;
#537 = VECTOR ( 'NONE', #459, 1000.000000000000000 ) ;
#538 = PRODUCT_DEFINITION_CONTEXT ( 'detailed design', #294, 'design' ) ;
#539 = EDGE_LOOP ( 'NONE', ( #547, #731, #25, #578 ) ) ;
#540 = SHAPE_DEFINITION_REPRESENTATION ( #757, #53 ) ;
#541 = CARTESIAN_POINT ( 'NONE',  ( 0.9499999999999999556, 0.000000000000000000, 0.09500000000000000111 ) ) ;
#542 = LINE ( 'NONE', #161, #90 ) ;
#543 = EDGE_LOOP ( 'NONE', ( #248, #415, #781, #92 ) ) ;
#544 = DIRECTION ( 'NONE',  ( 1.000000000000000000, 0.000000000000000000, 0.000000000000000000 ) ) ;
#545 = FACE_OUTER_BOUND ( 'NONE', #543, .T. ) ;
#546 = PRODUCT_RELATED_PRODUCT_CATEGORY ( 'part', '', ( #445 ) ) ;
#547 = ORIENTED_EDGE ( 'NONE', *, *, #198, .F. ) ;
#548 = PRESENTATION_LAYER_ASSIGNMENT (  '', '', ( #455 ) ) ;
#549 = PRODUCT_CONTEXT ( 'NONE', #162, 'mechanical' ) ;
#550 =( GEOMETRIC_REPRESENTATION_CONTEXT ( 3 ) GLOBAL_UNCERTAINTY_ASSIGNED_CONTEXT ( ( #651 ) ) GLOBAL_UNIT_ASSIGNED_CONTEXT ( ( #704, #724, #127 ) ) REPRESENTATION_CONTEXT ( 'NONE', 'WORKASPACE' ) );
#551 =( NAMED_UNIT ( * ) PLANE_ANGLE_UNIT ( ) SI_UNIT ( $, .RADIAN. ) );
#552 = VECTOR ( 'NONE', #433, 1000.000000000000000 ) ;
#553 = COLOUR_RGB ( '',0.5019607843137254832, 0.5019607843137254832, 0.5019607843137254832 ) ;
#554 = FACE_OUTER_BOUND ( 'NONE', #734, .T. ) ;
#555 = CARTESIAN_POINT ( 'NONE',  ( 0.4000000000000000222, 0.9499999999999999556, 0.09500000000000000111 ) ) ;
#556 =( NAMED_UNIT ( * ) PLANE_ANGLE_UNIT ( ) SI_UNIT ( $, .RADIAN. ) );
#557 = DIRECTION ( 'NONE',  ( -0.000000000000000000, 1.000000000000000000, 0.000000000000000000 ) ) ;
#558 = DIRECTION ( 'NONE',  ( 0.000000000000000000, 1.000000000000000000, 0.000000000000000000 ) ) ;
#559 = CARTESIAN_POINT ( 'NONE',  ( 0.09500000000000000111, 0.000000000000000000, 0.8549999999999999822 ) ) ;
#560 =( NAMED_UNIT ( * ) SI_UNIT ( $, .STERADIAN. ) SOLID_ANGLE_UNIT ( ) );
#561 = LINE ( 'NONE', #822, #301 ) ;
#562 = PRODUCT_DEFINITION_SHAPE ( 'NONE', 'NONE',  #131 ) ;
#563 = VERTEX_POINT ( 'NONE', #233 ) ;
#564 = VECTOR ( 'NONE', #266, 1000.000000000000000 ) ;
#565 = CARTESIAN_POINT ( 'NONE',  ( 0.09500000000000000111, 0.000000000000000000, 0.09500000000000000111 ) ) ;
#566 = ORIENTED_EDGE ( 'NONE', *, *, #657, .T. ) ;
#567 = CARTESIAN_POINT ( 'NONE',  ( 0.000000000000000000, 0.9499999999999999556, 0.000000000000000000 ) ) ;
#568 = EDGE_CURVE ( 'NONE', #279, #196, #180, .T. ) ;
#569 = DIRECTION ( 'NONE',  ( 0.000000000000000000, 1.000000000000000000, 0.000000000000000000 ) ) ;
#570 =( NAMED_UNIT ( * ) PLANE_ANGLE_UNIT ( ) SI_UNIT ( $, .RADIAN. ) );
#571 = DIRECTION ( 'NONE',  ( 0.000000000000000000, -1.000000000000000000, 0.000000000000000000 ) ) ;
#572 = FILL_AREA_STYLE ('',( #49 ) ) ;
#573 = EDGE_CURVE ( 'NONE', #853, #784, #693, .T. ) ;
#574 = CARTESIAN_POINT ( 'NONE',  ( 0.000000000000000000, 0.9499999999999999556, 0.000000000000000000 ) ) ;
#575 = VECTOR ( 'NONE', #242, 1000.000000000000000 ) ;
#576 = STYLED_ITEM ( 'NONE', ( #134 ), #723 ) ;
#577 = SURFACE_SIDE_STYLE ('',( #844 ) ) ;
#578 = ORIENTED_EDGE ( 'NONE', *, *, #235, .F. ) ;
#579 = CARTESIAN_POINT ( 'NONE',  ( -0.4749999999999999778, -0.4749999999999999778, 0.8549999999999999822 ) ) ;
#580 = PLANE ( 'NONE',  #841 ) ;
#581 = PRODUCT_DEFINITION_SHAPE ( 'NONE', 'NONE',  #240 ) ;
#582 = CARTESIAN_POINT ( 'NONE',  ( 0.09500000000000000111, 0.000000000000000000, 0.09500000000000000111 ) ) ;
#583 = EDGE_CURVE ( 'NONE', #784, #371, #625, .T. ) ;
#584 = CARTESIAN_POINT ( 'NONE',  ( 0.000000000000000000, 0.9499999999999999556, 0.000000000000000000 ) ) ;
#585 = ORIENTED_EDGE ( 'NONE', *, *, #138, .T. ) ;
#586 = FACE_OUTER_BOUND ( 'NONE', #398, .T. ) ;
#587 = VECTOR ( 'NONE', #780, 1000.000000000000000 ) ;
#588 = CARTESIAN_POINT ( 'NONE',  ( 0.4000000000000000222, 0.000000000000000000, 0.9499999999999999556 ) ) ;
#589 = VECTOR ( 'NONE', #782, 1000.000000000000000 ) ;
#590 = UNCERTAINTY_MEASURE_WITH_UNIT (LENGTH_MEASURE( 1.000000000000000082E-05 ), #521, 'distance_accuracy_value', 'NONE');
#591 = PRESENTATION_LAYER_ASSIGNMENT (  '', '', ( #152 ) ) ;
#592 = ORIENTED_EDGE ( 'NONE', *, *, #618, .F. ) ;
#593 = CARTESIAN_POINT ( 'NONE',  ( 1.655000000000000027, 0.000000000000000000, 0.09500000000000000111 ) ) ;
#594 = VERTEX_POINT ( 'NONE', #663 ) ;
#595 = DIRECTION ( 'NONE',  ( 1.000000000000000000, 0.000000000000000000, 0.000000000000000000 ) ) ;
#596 =( LENGTH_UNIT ( ) NAMED_UNIT ( * ) SI_UNIT ( .MILLI., .METRE. ) );
#597 = ORIENTED_EDGE ( 'NONE', *, *, #7, .F. ) ;
#598 = ADVANCED_FACE ( 'NONE', ( #326 ), #129, .F. ) ;
#599 = DIRECTION ( 'NONE',  ( 0.000000000000000000, 0.000000000000000000, 1.000000000000000000 ) ) ;
#600 = CLOSED_SHELL ( 'NONE', ( #682, #598, #751, #24, #374, #224 ) ) ;
#601 = ORIENTED_EDGE ( 'NONE', *, *, #647, .T. ) ;
#602 = APPLICATION_PROTOCOL_DEFINITION ( 'draft international standard', 'automotive_design', 1998, #144 ) ;
#603 =( GEOMETRIC_REPRESENTATION_CONTEXT ( 3 ) GLOBAL_UNCERTAINTY_ASSIGNED_CONTEXT ( ( #207 ) ) GLOBAL_UNIT_ASSIGNED_CONTEXT ( ( #596, #797, #406 ) ) REPRESENTATION_CONTEXT ( 'NONE', 'WORKASPACE' ) );
#604 = ORIENTED_EDGE ( 'NONE', *, *, #470, .T. ) ;
#605 = APPLICATION_PROTOCOL_DEFINITION ( 'draft international standard', 'automotive_design', 1998, #67 ) ;
#606 = DIRECTION ( 'NONE',  ( -0.000000000000000000, 1.000000000000000000, 0.000000000000000000 ) ) ;
#607 = DIRECTION ( 'NONE',  ( 0.000000000000000000, 0.000000000000000000, 1.000000000000000000 ) ) ;
#608 = EDGE_CURVE ( 'NONE', #853, #770, #794, .T. ) ;
#609 = ORIENTED_EDGE ( 'NONE', *, *, #506, .T. ) ;
#610 = LINE ( 'NONE', #669, #430 ) ;
#611 = CARTESIAN_POINT ( 'NONE',  ( 0.4000000000000000222, 0.000000000000000000, 0.8549999999999999822 ) ) ;
#612 = ORIENTED_EDGE ( 'NONE', *, *, #814, .F. ) ;
#613 = AXIS2_PLACEMENT_3D ( 'NONE', #567, #375, #380 ) ;
#614 = DIRECTION ( 'NONE',  ( 0.000000000000000000, 0.000000000000000000, 1.000000000000000000 ) ) ;
#615 = VECTOR ( 'NONE', #614, 1000.000000000000000 ) ;
#616 = LINE ( 'NONE', #16, #799 ) ;
#617 = ORIENTED_EDGE ( 'NONE', *, *, #424, .F. ) ;
#618 = EDGE_CURVE ( 'NONE', #170, #638, #4, .T. ) ;
#619 = PRODUCT ( 'Terminal.step_\X2\9ed88ba4\X0\', 'Terminal.step_\X2\9ed88ba4\X0\', '', ( #410 ) ) ;
#620 = PLANE ( 'NONE',  #91 ) ;
#621 = LINE ( 'NONE', #26, #315 ) ;
#622 = SHAPE_REPRESENTATION ( 'Mid Body.step_\X2\9ed88ba4\X0\', ( #378 ), #286 ) ;
#623 = LINE ( 'NONE', #818, #377 ) ;
#624 =( NAMED_UNIT ( * ) PLANE_ANGLE_UNIT ( ) SI_UNIT ( $, .RADIAN. ) );
#625 = LINE ( 'NONE', #101, #671 ) ;
#626 = ORIENTED_EDGE ( 'NONE', *, *, #779, .F. ) ;
#627 = CONTEXT_DEPENDENT_SHAPE_REPRESENTATION ( #369, #778 ) ;
#628 = CARTESIAN_POINT ( 'NONE',  ( 0.000000000000000000, 0.000000000000000000, 0.9499999999999999556 ) ) ;
#629 = AXIS2_PLACEMENT_3D ( 'NONE', #115, #389, #254 ) ;
#630 = LINE ( 'NONE', #831, #175 ) ;
#631 = EDGE_CURVE ( 'NONE', #662, #563, #527, .T. ) ;
#632 = ORIENTED_EDGE ( 'NONE', *, *, #573, .F. ) ;
#633 = DIRECTION ( 'NONE',  ( 0.000000000000000000, 0.000000000000000000, 1.000000000000000000 ) ) ;
#634 = EDGE_CURVE ( 'NONE', #526, #705, #531, .T. ) ;
#635 = CARTESIAN_POINT ( 'NONE',  ( 0.000000000000000000, 0.000000000000000000, 0.09500000000000000111 ) ) ;
#636 = FILL_AREA_STYLE_COLOUR ( '', #363 ) ;
#637 = DIRECTION ( 'NONE',  ( 1.000000000000000000, 0.000000000000000000, 0.000000000000000000 ) ) ;
#638 = VERTEX_POINT ( 'NONE', #399 ) ;
#639 = DIRECTION ( 'NONE',  ( 0.000000000000000000, 0.000000000000000000, 1.000000000000000000 ) ) ;
#640 =( REPRESENTATION_RELATIONSHIP ('NONE','NONE', #360, #366 ) REPRESENTATION_RELATIONSHIP_WITH_TRANSFORMATION ( #489 )SHAPE_REPRESENTATION_RELATIONSHIP( ) );
#641 = FACE_OUTER_BOUND ( 'NONE', #381, .T. ) ;
#642 = PRODUCT_RELATED_PRODUCT_CATEGORY ( 'part', '', ( #619 ) ) ;
#643 = VECTOR ( 'NONE', #569, 1000.000000000000000 ) ;
#644 = COLOUR_RGB ( '',0.5019607843137254832, 0.5019607843137254832, 0.5019607843137254832 ) ;
#645 = DIRECTION ( 'NONE',  ( 1.000000000000000000, 0.000000000000000000, 0.000000000000000000 ) ) ;
#646 = ORIENTED_EDGE ( 'NONE', *, *, #672, .F. ) ;
#647 = EDGE_CURVE ( 'NONE', #128, #705, #791, .T. ) ;
#648 = DIRECTION ( 'NONE',  ( 1.000000000000000000, 0.000000000000000000, 0.000000000000000000 ) ) ;
#649 = PRODUCT ( 'NTC0603', 'NTC0603', '', ( #222 ) ) ;
#650 = LINE ( 'NONE', #192, #346 ) ;
#651 = UNCERTAINTY_MEASURE_WITH_UNIT (LENGTH_MEASURE( 1.000000000000000082E-05 ), #704, 'distance_accuracy_value', 'NONE');
#652 = ORIENTED_EDGE ( 'NONE', *, *, #211, .T. ) ;
#653 = CARTESIAN_POINT ( 'NONE',  ( 0.000000000000000000, 0.9499999999999999556, 0.000000000000000000 ) ) ;
#654 = SURFACE_SIDE_STYLE ('',( #849 ) ) ;
#655 = ORIENTED_EDGE ( 'NONE', *, *, #789, .T. ) ;
#656 = DIRECTION ( 'NONE',  ( 0.000000000000000000, 1.000000000000000000, 0.000000000000000000 ) ) ;
#657 = EDGE_CURVE ( 'NONE', #466, #594, #194, .T. ) ;
#658 = PRESENTATION_LAYER_ASSIGNMENT (  '', '', ( #684 ) ) ;
#659 = FACE_OUTER_BOUND ( 'NONE', #123, .T. ) ;
#660 = PRESENTATION_LAYER_ASSIGNMENT (  '', '', ( #576 ) ) ;
#661 = APPLICATION_CONTEXT ( 'automotive_design' ) ;
#662 = VERTEX_POINT ( 'NONE', #252 ) ;
#663 = CARTESIAN_POINT ( 'NONE',  ( 0.4000000000000000222, 0.9499999999999999556, 0.9499999999999999556 ) ) ;
#664 = PRODUCT_DEFINITION ( 'UNKNOWN', '', #523, #456 ) ;
#665 = ORIENTED_EDGE ( 'NONE', *, *, #498, .T. ) ;
#666 = FACE_OUTER_BOUND ( 'NONE', #290, .T. ) ;
#667 = UNCERTAINTY_MEASURE_WITH_UNIT (LENGTH_MEASURE( 1.000000000000000082E-05 ), #416, 'distance_accuracy_value', 'NONE');
#668 = ORIENTED_EDGE ( 'NONE', *, *, #506, .F. ) ;
#669 = CARTESIAN_POINT ( 'NONE',  ( 0.09500000000000000111, 0.000000000000000000, 0.09500000000000000111 ) ) ;
#670 = ORIENTED_EDGE ( 'NONE', *, *, #356, .F. ) ;
#671 = VECTOR ( 'NONE', #835, 1000.000000000000000 ) ;
#672 = EDGE_CURVE ( 'NONE', #533, #179, #452, .T. ) ;
#673 = CARTESIAN_POINT ( 'NONE',  ( 0.000000000000000000, 0.000000000000000000, 0.000000000000000000 ) ) ;
#674 = DIRECTION ( 'NONE',  ( 0.000000000000000000, 1.000000000000000000, 0.000000000000000000 ) ) ;
#675 = ADVANCED_BREP_SHAPE_REPRESENTATION ( '', ( #137, #378 ), #286 ) ;
#676 = ORIENTED_EDGE ( 'NONE', *, *, #85, .T. ) ;
#677 = CARTESIAN_POINT ( 'NONE',  ( 0.4000000000000000222, 0.9499999999999999556, 0.000000000000000000 ) ) ;
#678 = EDGE_LOOP ( 'NONE', ( #348, #792, #471, #854 ) ) ;
#679 = APPLICATION_PROTOCOL_DEFINITION ( 'draft international standard', 'automotive_design', 1998, #294 ) ;
#680 = DIRECTION ( 'NONE',  ( 0.000000000000000000, 1.000000000000000000, 0.000000000000000000 ) ) ;
#681 = DIRECTION ( 'NONE',  ( 0.000000000000000000, 0.000000000000000000, 1.000000000000000000 ) ) ;
#682 = ADVANCED_FACE ( 'NONE', ( #666 ), #462, .T. ) ;
#683 = PLANE ( 'NONE',  #696 ) ;
#684 = STYLED_ITEM ( 'NONE', ( #58 ), #137 ) ;
#685 = CARTESIAN_POINT ( 'NONE',  ( 0.000000000000000000, 0.000000000000000000, 0.000000000000000000 ) ) ;
#686 = AXIS2_PLACEMENT_3D ( 'NONE', #422, #606, #490 ) ;
#687 = CARTESIAN_POINT ( 'NONE',  ( 1.655000000000000027, 0.000000000000000000, 0.8549999999999999822 ) ) ;
#688 = ORIENTED_EDGE ( 'NONE', *, *, #112, .T. ) ;
#689 = ITEM_DEFINED_TRANSFORMATION ( 'NONE', 'NONE', #771,  #378 ) ;
#690 = PRESENTATION_STYLE_ASSIGNMENT (( #386 ) ) ;
#691 = PLANE ( 'NONE',  #729 ) ;
#692 = LINE ( 'NONE', #221, #229 ) ;
#693 = LINE ( 'NONE', #114, #772 ) ;
#694 = PRODUCT_DEFINITION_SHAPE ( 'NONE', 'NONE',  #855 ) ;
#695 = LINE ( 'NONE', #103, #525 ) ;
#696 = AXIS2_PLACEMENT_3D ( 'NONE', #33, #827, #492 ) ;
#697 = PRODUCT_DEFINITION ( 'UNKNOWN', '', #329, #730 ) ;
#698 = VECTOR ( 'NONE', #382, 1000.000000000000000 ) ;
#699 = LINE ( 'NONE', #843, #552 ) ;
#700 = FACE_OUTER_BOUND ( 'NONE', #405, .T. ) ;
#701 = ITEM_DEFINED_TRANSFORMATION ( 'NONE', 'NONE', #786,  #378 ) ;
#702 =( NAMED_UNIT ( * ) SI_UNIT ( $, .STERADIAN. ) SOLID_ANGLE_UNIT ( ) );
#703 = LINE ( 'NONE', #111, #698 ) ;
#704 =( LENGTH_UNIT ( ) NAMED_UNIT ( * ) SI_UNIT ( .MILLI., .METRE. ) );
#705 = VERTEX_POINT ( 'NONE', #852 ) ;
#706 = DIRECTION ( 'NONE',  ( 1.000000000000000000, 0.000000000000000000, 0.000000000000000000 ) ) ;
#707 = ADVANCED_FACE ( 'NONE', ( #785 ), #722, .F. ) ;
#708 = CARTESIAN_POINT ( 'NONE',  ( 0.09500000000000000111, 0.000000000000000000, 0.09500000000000000111 ) ) ;
#709 = PRODUCT_DEFINITION_SHAPE ( 'NONE', 'NONE',  #697 ) ;
#710 =( NAMED_UNIT ( * ) SI_UNIT ( $, .STERADIAN. ) SOLID_ANGLE_UNIT ( ) );
#711 = CARTESIAN_POINT ( 'NONE',  ( 0.4000000000000000222, 0.9499999999999999556, 0.000000000000000000 ) ) ;
#712 = AXIS2_PLACEMENT_3D ( 'NONE', #819, #536, #82 ) ;
#713 =( GEOMETRIC_REPRESENTATION_CONTEXT ( 3 ) GLOBAL_UNCERTAINTY_ASSIGNED_CONTEXT ( ( #3 ) ) GLOBAL_UNIT_ASSIGNED_CONTEXT ( ( #308, #35, #560 ) ) REPRESENTATION_CONTEXT ( 'NONE', 'WORKASPACE' ) );
#714 = PRESENTATION_STYLE_ASSIGNMENT (( #328 ) ) ;
#715 = VERTEX_POINT ( 'NONE', #202 ) ;
#716 = FILL_AREA_STYLE ('',( #321 ) ) ;
#717 = ADVANCED_BREP_SHAPE_REPRESENTATION ( '', ( #723, #378 ), #176 ) ;
#718 = DIRECTION ( 'NONE',  ( 1.000000000000000000, 0.000000000000000000, 0.000000000000000000 ) ) ;
#719 = ORIENTED_EDGE ( 'NONE', *, *, #40, .T. ) ;
#720 = PRESENTATION_STYLE_ASSIGNMENT (( #66 ) ) ;
#721 = ADVANCED_FACE ( 'NONE', ( #62 ), #68, .T. ) ;
#722 = PLANE ( 'NONE',  #217 ) ;
#723 = MANIFOLD_SOLID_BREP ( 'Mark[1]', #495 ) ;
#724 =( NAMED_UNIT ( * ) PLANE_ANGLE_UNIT ( ) SI_UNIT ( $, .RADIAN. ) );
#725 = EDGE_LOOP ( 'NONE', ( #775, #803, #790, #250 ) ) ;
#726 =( NAMED_UNIT ( * ) PLANE_ANGLE_UNIT ( ) SI_UNIT ( $, .RADIAN. ) );
#727 = SURFACE_STYLE_USAGE ( .BOTH. , #120 ) ;
#728 = EDGE_CURVE ( 'NONE', #535, #784, #754, .T. ) ;
#729 = AXIS2_PLACEMENT_3D ( 'NONE', #439, #838, #387 ) ;
#730 = PRODUCT_DEFINITION_CONTEXT ( 'detailed design', #227, 'design' ) ;
#731 = ORIENTED_EDGE ( 'NONE', *, *, #327, .T. ) ;
#732 = DIRECTION ( 'NONE',  ( 0.000000000000000000, 0.000000000000000000, 1.000000000000000000 ) ) ;
#733 = DIRECTION ( 'NONE',  ( 0.000000000000000000, 0.000000000000000000, 1.000000000000000000 ) ) ;
#734 = EDGE_LOOP ( 'NONE', ( #51, #609, #65, #337, #617, #324, #193, #441 ) ) ;
#735 = DIRECTION ( 'NONE',  ( 1.000000000000000000, 0.000000000000000000, 0.000000000000000000 ) ) ;
#736 = SHAPE_REPRESENTATION ( 'Terminal.step_\X2\9ed88ba4\X0\', ( #842, #47 ), #713 ) ;
#737 = PRODUCT_DEFINITION_CONTEXT ( 'detailed design', #469, 'design' ) ;
#738 = ADVANCED_FACE ( 'NONE', ( #586 ), #620, .T. ) ;
#739 = ORIENTED_EDGE ( 'NONE', *, *, #728, .F. ) ;
#740 = DIRECTION ( 'NONE',  ( 1.000000000000000000, 0.000000000000000000, 0.000000000000000000 ) ) ;
#741 = PLANE ( 'NONE',  #787 ) ;
#742 =( NAMED_UNIT ( * ) PLANE_ANGLE_UNIT ( ) SI_UNIT ( $, .RADIAN. ) );
#743 = AXIS2_PLACEMENT_3D ( 'NONE', #832, #379, #505 ) ;
#744 = ORIENTED_EDGE ( 'NONE', *, *, #297, .F. ) ;
#745 = SHAPE_DEFINITION_REPRESENTATION ( #96, #366 ) ;
#746 = COLOUR_RGB ( '',0.8274509803921568096, 0.8274509803921568096, 0.8274509803921568096 ) ;
#747 = CARTESIAN_POINT ( 'NONE',  ( 0.9499999999999999556, 0.000000000000000000, 0.000000000000000000 ) ) ;
#748 = DIRECTION ( 'NONE',  ( 0.000000000000000000, 0.000000000000000000, 1.000000000000000000 ) ) ;
#749 = ORIENTED_EDGE ( 'NONE', *, *, #789, .F. ) ;
#750 = SHAPE_DEFINITION_REPRESENTATION ( #562, #237 ) ;
#751 = ADVANCED_FACE ( 'NONE', ( #816 ), #276, .T. ) ;
#752 = CARTESIAN_POINT ( 'NONE',  ( 0.09500000000000000111, 0.000000000000000000, 0.09500000000000000111 ) ) ;
#753 = VERTEX_POINT ( 'NONE', #285 ) ;
#754 = LINE ( 'NONE', #408, #480 ) ;
#755 = CARTESIAN_POINT ( 'NONE',  ( 0.09500000000000000111, 0.000000000000000000, 0.8549999999999999822 ) ) ;
#756 = PRODUCT_RELATED_PRODUCT_CATEGORY ( 'part', '', ( #372 ) ) ;
#757 = PRODUCT_DEFINITION_SHAPE ( 'NONE', 'NONE',  #173 ) ;
#758 = CARTESIAN_POINT ( 'NONE',  ( 0.4000000000000000222, 0.000000000000000000, 0.000000000000000000 ) ) ;
#759 = AXIS2_PLACEMENT_3D ( 'NONE', #467, #732, #338 ) ;
#760 =( GEOMETRIC_REPRESENTATION_CONTEXT ( 3 ) GLOBAL_UNCERTAINTY_ASSIGNED_CONTEXT ( ( #261 ) ) GLOBAL_UNIT_ASSIGNED_CONTEXT ( ( #519, #181, #310 ) ) REPRESENTATION_CONTEXT ( 'NONE', 'WORKASPACE' ) );
#761 = SURFACE_STYLE_USAGE ( .BOTH. , #494 ) ;
#762 =( GEOMETRIC_REPRESENTATION_CONTEXT ( 3 ) GLOBAL_UNCERTAINTY_ASSIGNED_CONTEXT ( ( #278 ) ) GLOBAL_UNIT_ASSIGNED_CONTEXT ( ( #223, #551, #12 ) ) REPRESENTATION_CONTEXT ( 'NONE', 'WORKASPACE' ) );
#763 = CARTESIAN_POINT ( 'NONE',  ( 0.9499999999999999556, 0.9499999999999999556, 0.09500000000000000111 ) ) ;
#764 = DIRECTION ( 'NONE',  ( 0.000000000000000000, 0.000000000000000000, 1.000000000000000000 ) ) ;
#765 = CARTESIAN_POINT ( 'NONE',  ( 0.000000000000000000, 0.000000000000000000, 0.000000000000000000 ) ) ;
#766 = DIRECTION ( 'NONE',  ( -0.000000000000000000, 1.000000000000000000, 0.000000000000000000 ) ) ;
#767 = EDGE_LOOP ( 'NONE', ( #463, #59, #159, #407 ) ) ;
#768 = ADVANCED_FACE ( 'NONE', ( #808 ), #15, .F. ) ;
#769 = CARTESIAN_POINT ( 'NONE',  ( 0.09500000000000000111, 0.000000000000000000, 0.09500000000000000111 ) ) ;
#770 = VERTEX_POINT ( 'NONE', #83 ) ;
#771 = AXIS2_PLACEMENT_3D ( 'NONE', #133, #404, #595 ) ;
#772 = VECTOR ( 'NONE', #370, 1000.000000000000000 ) ;
#773 = FACE_OUTER_BOUND ( 'NONE', #231, .T. ) ;
#774 = SURFACE_STYLE_USAGE ( .BOTH. , #577 ) ;
#775 = ORIENTED_EDGE ( 'NONE', *, *, #498, .F. ) ;
#776 = SURFACE_STYLE_FILL_AREA ( #512 ) ;
#777 = CARTESIAN_POINT ( 'NONE',  ( 0.09500000000000000111, 0.9499999999999999556, 0.8549999999999999822 ) ) ;
#778 = PRODUCT_DEFINITION_SHAPE ( 'NONE', 'NONE',  #860 ) ;
#779 = EDGE_CURVE ( 'NONE', #753, #853, #411, .T. ) ;
#780 = DIRECTION ( 'NONE',  ( 0.000000000000000000, 0.000000000000000000, 1.000000000000000000 ) ) ;
#781 = ORIENTED_EDGE ( 'NONE', *, *, #485, .F. ) ;
#782 = DIRECTION ( 'NONE',  ( 0.000000000000000000, 1.000000000000000000, 0.000000000000000000 ) ) ;
#783 = UNCERTAINTY_MEASURE_WITH_UNIT (LENGTH_MEASURE( 1.000000000000000082E-05 ), #432, 'distance_accuracy_value', 'NONE');
#784 = VERTEX_POINT ( 'NONE', #541 ) ;
#785 = FACE_OUTER_BOUND ( 'NONE', #516, .T. ) ;
#786 = AXIS2_PLACEMENT_3D ( 'NONE', #579, #847, #517 ) ;
#787 = AXIS2_PLACEMENT_3D ( 'NONE', #367, #496, #674 ) ;
#788 = CARTESIAN_POINT ( 'NONE',  ( 0.4000000000000000222, 0.000000000000000000, 0.09500000000000000111 ) ) ;
#789 = EDGE_CURVE ( 'NONE', #55, #357, #474, .T. ) ;
#790 = ORIENTED_EDGE ( 'NONE', *, *, #235, .T. ) ;
#791 = LINE ( 'NONE', #653, #119 ) ;
#792 = ORIENTED_EDGE ( 'NONE', *, *, #631, .F. ) ;
#793 = EDGE_CURVE ( 'NONE', #145, #55, #610, .T. ) ;
#794 = LINE ( 'NONE', #141, #589 ) ;
#795 = APPLICATION_CONTEXT ( 'automotive_design' ) ;
#796 = ORIENTED_EDGE ( 'NONE', *, *, #45, .F. ) ;
#797 =( NAMED_UNIT ( * ) PLANE_ANGLE_UNIT ( ) SI_UNIT ( $, .RADIAN. ) );
#798 =( GEOMETRIC_REPRESENTATION_CONTEXT ( 3 ) GLOBAL_UNCERTAINTY_ASSIGNED_CONTEXT ( ( #182 ) ) GLOBAL_UNIT_ASSIGNED_CONTEXT ( ( #472, #556, #270 ) ) REPRESENTATION_CONTEXT ( 'NONE', 'WORKASPACE' ) );
#799 = VECTOR ( 'NONE', #558, 1000.000000000000000 ) ;
#800 = VECTOR ( 'NONE', #486, 1000.000000000000000 ) ;
#801 = ORIENTED_EDGE ( 'NONE', *, *, #40, .F. ) ;
#802 = ADVANCED_FACE ( 'NONE', ( #21 ), #350, .F. ) ;
#803 = ORIENTED_EDGE ( 'NONE', *, *, #631, .T. ) ;
#804 = PRODUCT_CONTEXT ( 'NONE', #426, 'mechanical' ) ;
#805 = CARTESIAN_POINT ( 'NONE',  ( 0.09500000000000000111, 0.000000000000000000, 0.8549999999999999822 ) ) ;
#806 = VERTEX_POINT ( 'NONE', #213 ) ;
#807 = APPLICATION_PROTOCOL_DEFINITION ( 'draft international standard', 'automotive_design', 1998, #274 ) ;
#808 = FACE_OUTER_BOUND ( 'NONE', #139, .T. ) ;
#809 = LINE ( 'NONE', #216, #440 ) ;
#810 = PRESENTATION_LAYER_ASSIGNMENT (  '', '', ( #289 ) ) ;
#811 = VECTOR ( 'NONE', #607, 1000.000000000000000 ) ;
#812 = ORIENTED_EDGE ( 'NONE', *, *, #647, .F. ) ;
#813 = APPLICATION_PROTOCOL_DEFINITION ( 'draft international standard', 'automotive_design', 1998, #661 ) ;
#814 = EDGE_CURVE ( 'NONE', #409, #526, #75, .T. ) ;
#815 = MECHANICAL_DESIGN_GEOMETRIC_PRESENTATION_REPRESENTATION (  '', ( #152 ), #218 ) ;
#816 = FACE_OUTER_BOUND ( 'NONE', #539, .T. ) ;
#817 = DIRECTION ( 'NONE',  ( 1.000000000000000000, 0.000000000000000000, 0.000000000000000000 ) ) ;
#818 = CARTESIAN_POINT ( 'NONE',  ( 0.000000000000000000, 0.9499999999999999556, 0.000000000000000000 ) ) ;
#819 = CARTESIAN_POINT ( 'NONE',  ( 0.000000000000000000, 0.000000000000000000, 0.000000000000000000 ) ) ;
#820 = EDGE_CURVE ( 'NONE', #409, #188, #156, .T. ) ;
#821 = LINE ( 'NONE', #281, #230 ) ;
#822 = CARTESIAN_POINT ( 'NONE',  ( 0.09500000000000000111, 0.000000000000000000, 0.8549999999999999822 ) ) ;
#823 = DIRECTION ( 'NONE',  ( 0.000000000000000000, 1.000000000000000000, 0.000000000000000000 ) ) ;
#824 = CONTEXT_DEPENDENT_SHAPE_REPRESENTATION ( #253, #453 ) ;
#825 = SHAPE_REPRESENTATION_RELATIONSHIP ( 'NONE' , 'NONE' ,  #237, #845 ) ;
#826 = CARTESIAN_POINT ( 'NONE',  ( 0.000000000000000000, 0.000000000000000000, 0.000000000000000000 ) ) ;
#827 = DIRECTION ( 'NONE',  ( -0.000000000000000000, 1.000000000000000000, 0.000000000000000000 ) ) ;
#828 = PRODUCT_DEFINITION_FORMATION_WITH_SPECIFIED_SOURCE ( 'ANY', '', #234, .NOT_KNOWN. ) ;
#829 = AXIS2_PLACEMENT_3D ( 'NONE', #635, #195, #645 ) ;
#830 = VECTOR ( 'NONE', #1, 1000.000000000000000 ) ;
#831 = CARTESIAN_POINT ( 'NONE',  ( 1.655000000000000027, 0.000000000000000000, 0.09500000000000000111 ) ) ;
#832 = CARTESIAN_POINT ( 'NONE',  ( 0.000000000000000000, 0.000000000000000000, 0.000000000000000000 ) ) ;
#833 = ITEM_DEFINED_TRANSFORMATION ( 'NONE', 'NONE', #388,  #842 ) ;
#834 = PRODUCT ( 'Mid Body.step_\X2\9ed88ba4\X0\', 'Mid Body.step_\X2\9ed88ba4\X0\', '', ( #484 ) ) ;
#835 = DIRECTION ( 'NONE',  ( 0.000000000000000000, 1.000000000000000000, 0.000000000000000000 ) ) ;
#836 = LINE ( 'NONE', #758, #34 ) ;
#837 = CARTESIAN_POINT ( 'NONE',  ( 0.000000000000000000, 0.000000000000000000, 0.000000000000000000 ) ) ;
#838 = DIRECTION ( 'NONE',  ( 1.000000000000000000, 0.000000000000000000, 0.000000000000000000 ) ) ;
#839 =( LENGTH_UNIT ( ) NAMED_UNIT ( * ) SI_UNIT ( .MILLI., .METRE. ) );
#840 = EDGE_CURVE ( 'NONE', #420, #770, #821, .T. ) ;
#841 = AXIS2_PLACEMENT_3D ( 'NONE', #39, #309, #300 ) ;
#842 = AXIS2_PLACEMENT_3D ( 'NONE', #765, #442, #42 ) ;
#843 = CARTESIAN_POINT ( 'NONE',  ( 0.09500000000000000111, 0.000000000000000000, 0.09500000000000000111 ) ) ;
#844 = SURFACE_STYLE_FILL_AREA ( #572 ) ;
#845 = ADVANCED_BREP_SHAPE_REPRESENTATION ( '', ( #158, #378 ), #762 ) ;
#846 = EDGE_LOOP ( 'NONE', ( #668, #331, #652, #393 ) ) ;
#847 = DIRECTION ( 'NONE',  ( 0.000000000000000000, 0.000000000000000000, 1.000000000000000000 ) ) ;
#848 = PLANE ( 'NONE',  #361 ) ;
#849 = SURFACE_STYLE_FILL_AREA ( #41 ) ;
#850 = ORIENTED_EDGE ( 'NONE', *, *, #57, .T. ) ;
#851 =( NAMED_UNIT ( * ) SI_UNIT ( $, .STERADIAN. ) SOLID_ANGLE_UNIT ( ) );
#852 = CARTESIAN_POINT ( 'NONE',  ( 0.4000000000000000222, 0.9499999999999999556, 0.000000000000000000 ) ) ;
#853 = VERTEX_POINT ( 'NONE', #747 ) ;
#854 = ORIENTED_EDGE ( 'NONE', *, *, #485, .T. ) ;
#855 = NEXT_ASSEMBLY_USAGE_OCCURRENCE ( 'NAUO1', ' ', ' ', #664, #513, $ ) ;
#856 = NEXT_ASSEMBLY_USAGE_OCCURRENCE ( 'NAUO2', ' ', ' ', #513, #240, $ ) ;
#857 = NEXT_ASSEMBLY_USAGE_OCCURRENCE ( 'NAUO3', ' ', ' ', #513, #240, $ ) ;
#858 = NEXT_ASSEMBLY_USAGE_OCCURRENCE ( 'NAUO4', ' ', ' ', #513, #697, $ ) ;
#859 = NEXT_ASSEMBLY_USAGE_OCCURRENCE ( 'NAUO5', ' ', ' ', #513, #173, $ ) ;
#860 = NEXT_ASSEMBLY_USAGE_OCCURRENCE ( 'NAUO6', ' ', ' ', #240, #131, $ ) ;
ENDSEC;
END-ISO-10303-21;
