ISO-10303-21;
HEADER;
FILE_DESCRIPTION (( 'STEP AP214' ),
    '1' );
FILE_NAME ('NTC0402.step',
    '2025-10-18T15:08:12',
    ( '' ),
    ( '' ),
    'SwSTEP 2.0',
    'SolidWorks 2025',
    '' );
FILE_SCHEMA (( 'AUTOMOTIVE_DESIGN' ));
ENDSEC;

DATA;
#1 = CARTESIAN_POINT ( 'NONE',  ( 0.9949999999999999956, 0.000000000000000000, 0.05500000000000000028 ) ) ;
#2 = DIRECTION ( 'NONE',  ( 1.000000000000000000, 0.000000000000000000, 0.000000000000000000 ) ) ;
#3 = ORIENTED_EDGE ( 'NONE', *, *, #850, .T. ) ;
#4 = UNCERTAINTY_MEASURE_WITH_UNIT (LENGTH_MEASURE( 1.000000000000000082E-05 ), #140, 'distance_accuracy_value', 'NONE');
#5 = LINE ( 'NONE', #206, #289 ) ;
#6 = ADVANCED_FACE ( 'NONE', ( #616 ), #416, .F. ) ;
#7 = EDGE_LOOP ( 'NONE', ( #652, #449, #847, #182 ) ) ;
#8 = ITEM_DEFINED_TRANSFORMATION ( 'NONE', 'NONE', #37,  #518 ) ;
#9 = FILL_AREA_STYLE_COLOUR ( '', #593 ) ;
#10 = VECTOR ( 'NONE', #755, 1000.000000000000000 ) ;
#11 = VERTEX_POINT ( 'NONE', #73 ) ;
#12 = SURFACE_SIDE_STYLE ('',( #410 ) ) ;
#13 = LINE ( 'NONE', #281, #456 ) ;
#14 = EDGE_CURVE ( 'NONE', #168, #407, #221, .T. ) ;
#15 = CONTEXT_DEPENDENT_SHAPE_REPRESENTATION ( #276, #283 ) ;
#16 = DIRECTION ( 'NONE',  ( 0.000000000000000000, 0.000000000000000000, 1.000000000000000000 ) ) ;
#17 = EDGE_LOOP ( 'NONE', ( #843, #559, #765, #837 ) ) ;
#18 = APPLICATION_PROTOCOL_DEFINITION ( 'draft international standard', 'automotive_design', 1998, #562 ) ;
#19 = EDGE_CURVE ( 'NONE', #286, #700, #204, .T. ) ;
#20 = DIRECTION ( 'NONE',  ( 1.000000000000000000, 0.000000000000000000, 0.000000000000000000 ) ) ;
#21 = DIRECTION ( 'NONE',  ( 1.000000000000000000, 0.000000000000000000, 0.000000000000000000 ) ) ;
#22 = VECTOR ( 'NONE', #58, 1000.000000000000000 ) ;
#23 = VECTOR ( 'NONE', #447, 1000.000000000000000 ) ;
#24 = FILL_AREA_STYLE ('',( #167 ) ) ;
#25 = PLANE ( 'NONE',  #503 ) ;
#26 = FACE_OUTER_BOUND ( 'NONE', #7, .T. ) ;
#27 = VERTEX_POINT ( 'NONE', #347 ) ;
#28 =( NAMED_UNIT ( * ) SI_UNIT ( $, .STERADIAN. ) SOLID_ANGLE_UNIT ( ) );
#29 = PRODUCT_DEFINITION ( 'UNKNOWN', '', #409, #787 ) ;
#30 = FACE_OUTER_BOUND ( 'NONE', #595, .T. ) ;
#31 = EDGE_CURVE ( 'NONE', #213, #542, #752, .T. ) ;
#32 = PRODUCT_DEFINITION_SHAPE ( 'NONE', 'NONE',  #855 ) ;
#33 = DIRECTION ( 'NONE',  ( 0.000000000000000000, 0.000000000000000000, 1.000000000000000000 ) ) ;
#34 = SHAPE_REPRESENTATION ( 'NTC0402.step_\X2\9ed88ba4\X0\', ( #617, #802, #629, #37, #671 ), #103 ) ;
#35 = ORIENTED_EDGE ( 'NONE', *, *, #483, .F. ) ;
#36 = DIRECTION ( 'NONE',  ( 0.000000000000000000, 0.000000000000000000, 1.000000000000000000 ) ) ;
#37 = AXIS2_PLACEMENT_3D ( 'NONE', #466, #535, #205 ) ;
#38 = VECTOR ( 'NONE', #228, 1000.000000000000000 ) ;
#39 = ORIENTED_EDGE ( 'NONE', *, *, #839, .F. ) ;
#40 =( LENGTH_UNIT ( ) NAMED_UNIT ( * ) SI_UNIT ( .MILLI., .METRE. ) );
#41 = VECTOR ( 'NONE', #198, 1000.000000000000000 ) ;
#42 = CARTESIAN_POINT ( 'NONE',  ( 0.5500000000000000444, 0.000000000000000000, 0.000000000000000000 ) ) ;
#43 =( NAMED_UNIT ( * ) SI_UNIT ( $, .STERADIAN. ) SOLID_ANGLE_UNIT ( ) );
#44 = CARTESIAN_POINT ( 'NONE',  ( 0.000000000000000000, 0.000000000000000000, 0.000000000000000000 ) ) ;
#45 = LINE ( 'NONE', #322, #136 ) ;
#46 = ORIENTED_EDGE ( 'NONE', *, *, #390, .T. ) ;
#47 = LINE ( 'NONE', #184, #207 ) ;
#48 = PRODUCT_DEFINITION_FORMATION_WITH_SPECIFIED_SOURCE ( 'ANY', '', #208, .NOT_KNOWN. ) ;
#49 = VERTEX_POINT ( 'NONE', #481 ) ;
#50 = CARTESIAN_POINT ( 'NONE',  ( -0.2750000000000000222, -0.2750000000000000222, 0.4949999999999999956 ) ) ;
#51 = AXIS2_PLACEMENT_3D ( 'NONE', #808, #145, #480 ) ;
#52 = SURFACE_STYLE_USAGE ( .BOTH. , #712 ) ;
#53 = ORIENTED_EDGE ( 'NONE', *, *, #568, .F. ) ;
#54 = CARTESIAN_POINT ( 'NONE',  ( 0.000000000000000000, 0.000000000000000000, 0.000000000000000000 ) ) ;
#55 = CARTESIAN_POINT ( 'NONE',  ( 0.05500000000000000028, 0.5500000000000000444, 0.05500000000000000028 ) ) ;
#56 = PRODUCT_DEFINITION ( 'UNKNOWN', '', #48, #735 ) ;
#57 = EDGE_CURVE ( 'NONE', #286, #168, #492, .T. ) ;
#58 = DIRECTION ( 'NONE',  ( 0.000000000000000000, 0.000000000000000000, 1.000000000000000000 ) ) ;
#59 = EDGE_LOOP ( 'NONE', ( #46, #585, #112, #610 ) ) ;
#60 = DIRECTION ( 'NONE',  ( -0.000000000000000000, 1.000000000000000000, 0.000000000000000000 ) ) ;
#61 = CARTESIAN_POINT ( 'NONE',  ( 0.05500000000000000028, 0.000000000000000000, 0.05500000000000000028 ) ) ;
#62 = EDGE_LOOP ( 'NONE', ( #39, #469, #252, #334 ) ) ;
#63 = DIRECTION ( 'NONE',  ( 0.000000000000000000, 1.000000000000000000, 0.000000000000000000 ) ) ;
#64 = COLOUR_RGB ( '',0.8274509803921568096, 0.8274509803921568096, 0.8274509803921568096 ) ;
#65 = PRODUCT_DEFINITION_SHAPE ( 'NONE', 'NONE',  #860 ) ;
#66 =( GEOMETRIC_REPRESENTATION_CONTEXT ( 3 ) GLOBAL_UNCERTAINTY_ASSIGNED_CONTEXT ( ( #4 ) ) GLOBAL_UNIT_ASSIGNED_CONTEXT ( ( #140, #188, #277 ) ) REPRESENTATION_CONTEXT ( 'NONE', 'WORKASPACE' ) );
#67 = SHAPE_REPRESENTATION ( 'Mid Body_3.step_\X2\9ed88ba4\X0\', ( #518 ), #607 ) ;
#68 = CARTESIAN_POINT ( 'NONE',  ( 0.05500000000000000028, 0.000000000000000000, 0.05500000000000000028 ) ) ;
#69 = EDGE_LOOP ( 'NONE', ( #798, #569, #477, #458 ) ) ;
#70 = EDGE_CURVE ( 'NONE', #614, #11, #742, .T. ) ;
#71 = EDGE_CURVE ( 'NONE', #323, #572, #13, .T. ) ;
#72 = SURFACE_STYLE_FILL_AREA ( #324 ) ;
#73 = CARTESIAN_POINT ( 'NONE',  ( 0.9949999999999999956, 0.000000000000000000, 0.4949999999999999956 ) ) ;
#74 = SHAPE_DEFINITION_REPRESENTATION ( #137, #600 ) ;
#75 = PRODUCT_DEFINITION_CONTEXT ( 'detailed design', #711, 'design' ) ;
#76 = PLANE ( 'NONE',  #643 ) ;
#77 = ORIENTED_EDGE ( 'NONE', *, *, #174, .F. ) ;
#78 = APPLICATION_PROTOCOL_DEFINITION ( 'draft international standard', 'automotive_design', 1998, #338 ) ;
#79 = CARTESIAN_POINT ( 'NONE',  ( 0.000000000000000000, 0.000000000000000000, 0.000000000000000000 ) ) ;
#80 = EDGE_CURVE ( 'NONE', #419, #605, #215, .T. ) ;
#81 = AXIS2_PLACEMENT_3D ( 'NONE', #179, #244, #250 ) ;
#82 = CARTESIAN_POINT ( 'NONE',  ( 0.9949999999999999956, 0.000000000000000000, 0.05500000000000000028 ) ) ;
#83 = PRODUCT_CONTEXT ( 'NONE', #664, 'mechanical' ) ;
#84 =( NAMED_UNIT ( * ) SI_UNIT ( $, .STERADIAN. ) SOLID_ANGLE_UNIT ( ) );
#85 = LINE ( 'NONE', #298, #368 ) ;
#86 = ADVANCED_FACE ( 'NONE', ( #769 ), #621, .F. ) ;
#87 = DIRECTION ( 'NONE',  ( 0.000000000000000000, 1.000000000000000000, 0.000000000000000000 ) ) ;
#88 = CARTESIAN_POINT ( 'NONE',  ( 0.2500000000000000000, 0.000000000000000000, 0.000000000000000000 ) ) ;
#89 = CARTESIAN_POINT ( 'NONE',  ( 0.000000000000000000, 0.5500000000000000444, 0.000000000000000000 ) ) ;
#90 = ORIENTED_EDGE ( 'NONE', *, *, #57, .F. ) ;
#91 = DIRECTION ( 'NONE',  ( 0.000000000000000000, 0.000000000000000000, 1.000000000000000000 ) ) ;
#92 = DIRECTION ( 'NONE',  ( 0.000000000000000000, 0.000000000000000000, 1.000000000000000000 ) ) ;
#93 = PRESENTATION_LAYER_ASSIGNMENT (  '', '', ( #701 ) ) ;
#94 =( GEOMETRIC_REPRESENTATION_CONTEXT ( 3 ) GLOBAL_UNCERTAINTY_ASSIGNED_CONTEXT ( ( #461 ) ) GLOBAL_UNIT_ASSIGNED_CONTEXT ( ( #749, #425, #28 ) ) REPRESENTATION_CONTEXT ( 'NONE', 'WORKASPACE' ) );
#95 = PLANE ( 'NONE',  #176 ) ;
#96 = ORIENTED_EDGE ( 'NONE', *, *, #122, .F. ) ;
#97 = CARTESIAN_POINT ( 'NONE',  ( 0.000000000000000000, 0.000000000000000000, 0.5500000000000000444 ) ) ;
#98 = CARTESIAN_POINT ( 'NONE',  ( 0.05500000000000000028, 0.5500000000000000444, 0.4949999999999999956 ) ) ;
#99 = DIRECTION ( 'NONE',  ( 0.000000000000000000, 1.000000000000000000, 0.000000000000000000 ) ) ;
#100 = ORIENTED_EDGE ( 'NONE', *, *, #348, .T. ) ;
#101 = FACE_OUTER_BOUND ( 'NONE', #793, .T. ) ;
#102 = EDGE_CURVE ( 'NONE', #49, #319, #555, .T. ) ;
#103 =( GEOMETRIC_REPRESENTATION_CONTEXT ( 3 ) GLOBAL_UNCERTAINTY_ASSIGNED_CONTEXT ( ( #135 ) ) GLOBAL_UNIT_ASSIGNED_CONTEXT ( ( #782, #794, #131 ) ) REPRESENTATION_CONTEXT ( 'NONE', 'WORKASPACE' ) );
#104 = PLANE ( 'NONE',  #604 ) ;
#105 = VECTOR ( 'NONE', #293, 1000.000000000000000 ) ;
#106 = AXIS2_PLACEMENT_3D ( 'NONE', #603, #60, #532 ) ;
#107 = ORIENTED_EDGE ( 'NONE', *, *, #266, .T. ) ;
#108 = VECTOR ( 'NONE', #471, 1000.000000000000000 ) ;
#109 = FACE_OUTER_BOUND ( 'NONE', #770, .T. ) ;
#110 = CARTESIAN_POINT ( 'NONE',  ( 0.000000000000000000, 0.000000000000000000, 0.000000000000000000 ) ) ;
#111 = EDGE_CURVE ( 'NONE', #841, #379, #299, .T. ) ;
#112 = ORIENTED_EDGE ( 'NONE', *, *, #708, .F. ) ;
#113 =( NAMED_UNIT ( * ) SI_UNIT ( $, .STERADIAN. ) SOLID_ANGLE_UNIT ( ) );
#114 = FACE_OUTER_BOUND ( 'NONE', #628, .T. ) ;
#115 = CARTESIAN_POINT ( 'NONE',  ( 0.5500000000000000444, 0.5500000000000000444, 0.000000000000000000 ) ) ;
#116 = EDGE_LOOP ( 'NONE', ( #234, #315, #667, #705, #508, #545, #398, #681 ) ) ;
#117 = LINE ( 'NONE', #61, #655 ) ;
#118 = VERTEX_POINT ( 'NONE', #499 ) ;
#119 = DIRECTION ( 'NONE',  ( 0.000000000000000000, 0.000000000000000000, 1.000000000000000000 ) ) ;
#120 = AXIS2_PLACEMENT_3D ( 'NONE', #778, #840, #792 ) ;
#121 = LINE ( 'NONE', #55, #304 ) ;
#122 = EDGE_CURVE ( 'NONE', #286, #388, #238, .T. ) ;
#123 = PLANE ( 'NONE',  #528 ) ;
#124 = MANIFOLD_SOLID_BREP ( 'Mid Body[1]', #314 ) ;
#125 = ORIENTED_EDGE ( 'NONE', *, *, #510, .T. ) ;
#126 = DIRECTION ( 'NONE',  ( 0.000000000000000000, 0.000000000000000000, 1.000000000000000000 ) ) ;
#127 = PRODUCT_DEFINITION_CONTEXT ( 'detailed design', #180, 'design' ) ;
#128 = SURFACE_STYLE_USAGE ( .BOTH. , #476 ) ;
#129 = CARTESIAN_POINT ( 'NONE',  ( 0.000000000000000000, 0.5500000000000000444, 0.5500000000000000444 ) ) ;
#130 = ORIENTED_EDGE ( 'NONE', *, *, #80, .F. ) ;
#131 =( NAMED_UNIT ( * ) SI_UNIT ( $, .STERADIAN. ) SOLID_ANGLE_UNIT ( ) );
#132 = EDGE_CURVE ( 'NONE', #296, #525, #691, .T. ) ;
#133 = ORIENTED_EDGE ( 'NONE', *, *, #70, .F. ) ;
#134 =( NAMED_UNIT ( * ) SI_UNIT ( $, .STERADIAN. ) SOLID_ANGLE_UNIT ( ) );
#135 = UNCERTAINTY_MEASURE_WITH_UNIT (LENGTH_MEASURE( 1.000000000000000082E-05 ), #782, 'distance_accuracy_value', 'NONE');
#136 = VECTOR ( 'NONE', #723, 1000.000000000000000 ) ;
#137 = PRODUCT_DEFINITION_SHAPE ( 'NONE', 'NONE',  #513 ) ;
#138 = VECTOR ( 'NONE', #838, 1000.000000000000000 ) ;
#139 = DIRECTION ( 'NONE',  ( 0.000000000000000000, 0.000000000000000000, 1.000000000000000000 ) ) ;
#140 =( LENGTH_UNIT ( ) NAMED_UNIT ( * ) SI_UNIT ( .MILLI., .METRE. ) );
#141 = ORIENTED_EDGE ( 'NONE', *, *, #158, .F. ) ;
#142 = FILL_AREA_STYLE ('',( #151 ) ) ;
#143 = DIRECTION ( 'NONE',  ( -0.000000000000000000, 1.000000000000000000, 0.000000000000000000 ) ) ;
#144 = APPLICATION_PROTOCOL_DEFINITION ( 'draft international standard', 'automotive_design', 1998, #365 ) ;
#145 = DIRECTION ( 'NONE',  ( 0.000000000000000000, 0.000000000000000000, 1.000000000000000000 ) ) ;
#146 = ADVANCED_FACE ( 'NONE', ( #825 ), #104, .F. ) ;
#147 = CARTESIAN_POINT ( 'NONE',  ( 0.2500000000000000000, 0.000000000000000000, 0.4949999999999999956 ) ) ;
#148 = VECTOR ( 'NONE', #36, 1000.000000000000000 ) ;
#149 = VECTOR ( 'NONE', #381, 1000.000000000000000 ) ;
#150 = ORIENTED_EDGE ( 'NONE', *, *, #132, .T. ) ;
#151 = FILL_AREA_STYLE_COLOUR ( '', #775 ) ;
#152 = FACE_OUTER_BOUND ( 'NONE', #357, .T. ) ;
#153 = EDGE_LOOP ( 'NONE', ( #375, #229, #107, #851 ) ) ;
#154 = ITEM_DEFINED_TRANSFORMATION ( 'NONE', 'NONE', #629,  #51 ) ;
#155 = CARTESIAN_POINT ( 'NONE',  ( 0.05500000000000000028, 0.5500000000000000444, 0.05500000000000000028 ) ) ;
#156 = FACE_OUTER_BOUND ( 'NONE', #62, .T. ) ;
#157 = CARTESIAN_POINT ( 'NONE',  ( 0.000000000000000000, 0.000000000000000000, 0.05500000000000000028 ) ) ;
#158 = EDGE_CURVE ( 'NONE', #605, #757, #563, .T. ) ;
#159 = EDGE_LOOP ( 'NONE', ( #719, #165, #3, #392 ) ) ;
#160 = LINE ( 'NONE', #89, #413 ) ;
#161 = PRODUCT_DEFINITION_FORMATION_WITH_SPECIFIED_SOURCE ( 'ANY', '', #810, .NOT_KNOWN. ) ;
#162 = VECTOR ( 'NONE', #430, 1000.000000000000000 ) ;
#163 = AXIS2_PLACEMENT_3D ( 'NONE', #345, #421, #496 ) ;
#164 = PRODUCT_DEFINITION_SHAPE ( 'NONE', 'NONE',  #737 ) ;
#165 = ORIENTED_EDGE ( 'NONE', *, *, #326, .T. ) ;
#166 = DIRECTION ( 'NONE',  ( 0.000000000000000000, 1.000000000000000000, 0.000000000000000000 ) ) ;
#167 = FILL_AREA_STYLE_COLOUR ( '', #64 ) ;
#168 = VERTEX_POINT ( 'NONE', #157 ) ;
#169 = SURFACE_STYLE_FILL_AREA ( #766 ) ;
#170 = EDGE_CURVE ( 'NONE', #379, #118, #232, .T. ) ;
#171 = CARTESIAN_POINT ( 'NONE',  ( 0.05500000000000000028, 0.000000000000000000, 0.05500000000000000028 ) ) ;
#172 = FILL_AREA_STYLE_COLOUR ( '', #231 ) ;
#173 = DIRECTION ( 'NONE',  ( 1.000000000000000000, 0.000000000000000000, 0.000000000000000000 ) ) ;
#174 = EDGE_CURVE ( 'NONE', #700, #407, #495, .T. ) ;
#175 = CARTESIAN_POINT ( 'NONE',  ( 0.2500000000000000000, 0.000000000000000000, 0.05500000000000000028 ) ) ;
#176 = AXIS2_PLACEMENT_3D ( 'NONE', #110, #833, #567 ) ;
#177 = VECTOR ( 'NONE', #608, 1000.000000000000000 ) ;
#178 =( GEOMETRIC_REPRESENTATION_CONTEXT ( 3 ) GLOBAL_UNCERTAINTY_ASSIGNED_CONTEXT ( ( #197 ) ) GLOBAL_UNIT_ASSIGNED_CONTEXT ( ( #435, #439, #301 ) ) REPRESENTATION_CONTEXT ( 'NONE', 'WORKASPACE' ) );
#179 = CARTESIAN_POINT ( 'NONE',  ( 0.2500000000000000000, 0.000000000000000000, 0.000000000000000000 ) ) ;
#180 = APPLICATION_CONTEXT ( 'automotive_design' ) ;
#181 = LINE ( 'NONE', #129, #353 ) ;
#182 = ORIENTED_EDGE ( 'NONE', *, *, #583, .T. ) ;
#183 = CARTESIAN_POINT ( 'NONE',  ( 0.05500000000000000028, 0.5500000000000000444, 0.05500000000000000028 ) ) ;
#184 = CARTESIAN_POINT ( 'NONE',  ( 0.05500000000000000028, 0.5500000000000000444, 0.05500000000000000028 ) ) ;
#185 = ADVANCED_FACE ( 'NONE', ( #305 ), #95, .F. ) ;
#186 = VERTEX_POINT ( 'NONE', #175 ) ;
#187 = DIRECTION ( 'NONE',  ( 1.000000000000000000, 0.000000000000000000, 0.000000000000000000 ) ) ;
#188 =( NAMED_UNIT ( * ) PLANE_ANGLE_UNIT ( ) SI_UNIT ( $, .RADIAN. ) );
#189 = CARTESIAN_POINT ( 'NONE',  ( 0.2500000000000000000, 0.5500000000000000444, 0.4949999999999999956 ) ) ;
#190 = AXIS2_PLACEMENT_3D ( 'NONE', #54, #786, #660 ) ;
#191 = ORIENTED_EDGE ( 'NONE', *, *, #132, .F. ) ;
#192 = CLOSED_SHELL ( 'NONE', ( #418, #224, #472, #337, #547, #633, #670, #819, #185, #86 ) ) ;
#193 = PRESENTATION_LAYER_ASSIGNMENT (  '', '', ( #688 ) ) ;
#194 = CARTESIAN_POINT ( 'NONE',  ( 0.05500000000000000028, 0.000000000000000000, 0.05500000000000000028 ) ) ;
#195 = CARTESIAN_POINT ( 'NONE',  ( 0.000000000000000000, 0.5500000000000000444, 0.05500000000000000028 ) ) ;
#196 = ORIENTED_EDGE ( 'NONE', *, *, #170, .F. ) ;
#197 = UNCERTAINTY_MEASURE_WITH_UNIT (LENGTH_MEASURE( 1.000000000000000082E-05 ), #435, 'distance_accuracy_value', 'NONE');
#198 = DIRECTION ( 'NONE',  ( 0.000000000000000000, 0.000000000000000000, 1.000000000000000000 ) ) ;
#199 = FILL_AREA_STYLE ('',( #533 ) ) ;
#200 = ORIENTED_EDGE ( 'NONE', *, *, #850, .F. ) ;
#201 = CARTESIAN_POINT ( 'NONE',  ( 0.05500000000000000028, 0.000000000000000000, 0.4949999999999999956 ) ) ;
#202 = PRODUCT_RELATED_PRODUCT_CATEGORY ( 'part', '', ( #412 ) ) ;
#203 = EDGE_CURVE ( 'NONE', #841, #473, #445, .T. ) ;
#204 = LINE ( 'NONE', #280, #790 ) ;
#205 = DIRECTION ( 'NONE',  ( 1.000000000000000000, 0.000000000000000000, 0.000000000000000000 ) ) ;
#206 = CARTESIAN_POINT ( 'NONE',  ( 0.2500000000000000000, 0.000000000000000000, 0.5500000000000000444 ) ) ;
#207 = VECTOR ( 'NONE', #391, 1000.000000000000000 ) ;
#208 = PRODUCT ( 'Terminal_3.step_\X2\9ed88ba4\X0\', 'Terminal_3.step_\X2\9ed88ba4\X0\', '', ( #606 ) ) ;
#209 =( GEOMETRIC_REPRESENTATION_CONTEXT ( 3 ) GLOBAL_UNCERTAINTY_ASSIGNED_CONTEXT ( ( #807 ) ) GLOBAL_UNIT_ASSIGNED_CONTEXT ( ( #612, #482, #84 ) ) REPRESENTATION_CONTEXT ( 'NONE', 'WORKASPACE' ) );
#210 = ORIENTED_EDGE ( 'NONE', *, *, #122, .T. ) ;
#211 = CONTEXT_DEPENDENT_SHAPE_REPRESENTATION ( #212, #405 ) ;
#212 =( REPRESENTATION_RELATIONSHIP ('NONE','NONE', #34, #600 ) REPRESENTATION_RELATIONSHIP_WITH_TRANSFORMATION ( #282 )SHAPE_REPRESENTATION_RELATIONSHIP( ) );
#213 = VERTEX_POINT ( 'NONE', #356 ) ;
#214 = PLANE ( 'NONE',  #716 ) ;
#215 = LINE ( 'NONE', #171, #38 ) ;
#216 = SURFACE_STYLE_USAGE ( .BOTH. , #12 ) ;
#217 = ORIENTED_EDGE ( 'NONE', *, *, #727, .T. ) ;
#218 = CARTESIAN_POINT ( 'NONE',  ( 0.2500000000000000000, 0.000000000000000000, 0.000000000000000000 ) ) ;
#219 = PRESENTATION_LAYER_ASSIGNMENT (  '', '', ( #717 ) ) ;
#220 = APPLICATION_CONTEXT ( 'automotive_design' ) ;
#221 = LINE ( 'NONE', #800, #441 ) ;
#222 = SHAPE_DEFINITION_REPRESENTATION ( #330, #67 ) ;
#223 = FACE_OUTER_BOUND ( 'NONE', #465, .T. ) ;
#224 = ADVANCED_FACE ( 'NONE', ( #26 ), #718, .F. ) ;
#225 = PRODUCT_RELATED_PRODUCT_CATEGORY ( 'part', '', ( #399 ) ) ;
#226 = APPLICATION_CONTEXT ( 'automotive_design' ) ;
#227 = LINE ( 'NONE', #147, #486 ) ;
#228 = DIRECTION ( 'NONE',  ( 0.000000000000000000, 1.000000000000000000, 0.000000000000000000 ) ) ;
#229 = ORIENTED_EDGE ( 'NONE', *, *, #174, .T. ) ;
#230 = VECTOR ( 'NONE', #363, 1000.000000000000000 ) ;
#231 = COLOUR_RGB ( '',0.8274509803921568096, 0.8274509803921568096, 0.8274509803921568096 ) ;
#232 = LINE ( 'NONE', #764, #672 ) ;
#233 = EDGE_CURVE ( 'NONE', #419, #614, #117, .T. ) ;
#234 = ORIENTED_EDGE ( 'NONE', *, *, #697, .F. ) ;
#235 = SHAPE_REPRESENTATION ( 'NTC0402', ( #426, #190 ), #590 ) ;
#236 = DIRECTION ( 'NONE',  ( 1.000000000000000000, 0.000000000000000000, 0.000000000000000000 ) ) ;
#237 = APPLICATION_CONTEXT ( 'automotive_design' ) ;
#238 = LINE ( 'NONE', #360, #162 ) ;
#239 = ORIENTED_EDGE ( 'NONE', *, *, #288, .F. ) ;
#240 = EDGE_CURVE ( 'NONE', #431, #49, #45, .T. ) ;
#241 = PLANE ( 'NONE',  #566 ) ;
#242 = CARTESIAN_POINT ( 'NONE',  ( 0.000000000000000000, 0.000000000000000000, 0.000000000000000000 ) ) ;
#243 = ORIENTED_EDGE ( 'NONE', *, *, #626, .T. ) ;
#244 = DIRECTION ( 'NONE',  ( 1.000000000000000000, 0.000000000000000000, 0.000000000000000000 ) ) ;
#245 = DIRECTION ( 'NONE',  ( 1.000000000000000000, 0.000000000000000000, 0.000000000000000000 ) ) ;
#246 =( LENGTH_UNIT ( ) NAMED_UNIT ( * ) SI_UNIT ( .MILLI., .METRE. ) );
#247 = AXIS2_PLACEMENT_3D ( 'NONE', #760, #632, #99 ) ;
#248 = VECTOR ( 'NONE', #853, 1000.000000000000000 ) ;
#249 = EDGE_LOOP ( 'NONE', ( #196, #520, #582, #695, #809, #564, #200, #709 ) ) ;
#250 = DIRECTION ( 'NONE',  ( 0.000000000000000000, 1.000000000000000000, 0.000000000000000000 ) ) ;
#251 = DIRECTION ( 'NONE',  ( 1.000000000000000000, 0.000000000000000000, 0.000000000000000000 ) ) ;
#252 = ORIENTED_EDGE ( 'NONE', *, *, #170, .T. ) ;
#253 = CARTESIAN_POINT ( 'NONE',  ( -0.5250000000000000222, -0.2750000000000000222, 0.000000000000000000 ) ) ;
#254 = VERTEX_POINT ( 'NONE', #189 ) ;
#255 = DIRECTION ( 'NONE',  ( 1.000000000000000000, 0.000000000000000000, 0.000000000000000000 ) ) ;
#256 = DIRECTION ( 'NONE',  ( 1.000000000000000000, 0.000000000000000000, 0.000000000000000000 ) ) ;
#257 = VERTEX_POINT ( 'NONE', #519 ) ;
#258 = DIRECTION ( 'NONE',  ( 1.000000000000000000, 0.000000000000000000, 0.000000000000000000 ) ) ;
#259 = STYLED_ITEM ( 'NONE', ( #468 ), #385 ) ;
#260 = AXIS2_PLACEMENT_3D ( 'NONE', #768, #845, #166 ) ;
#261 = CARTESIAN_POINT ( 'NONE',  ( 0.000000000000000000, 0.000000000000000000, 0.000000000000000000 ) ) ;
#262 = CARTESIAN_POINT ( 'NONE',  ( 0.05500000000000000028, 0.000000000000000000, 0.4949999999999999956 ) ) ;
#263 = VERTEX_POINT ( 'NONE', #846 ) ;
#264 = DIRECTION ( 'NONE',  ( 1.000000000000000000, 0.000000000000000000, 0.000000000000000000 ) ) ;
#265 = DIRECTION ( 'NONE',  ( 1.000000000000000000, 0.000000000000000000, 0.000000000000000000 ) ) ;
#266 = EDGE_CURVE ( 'NONE', #407, #648, #406, .T. ) ;
#267 = FACE_OUTER_BOUND ( 'NONE', #159, .T. ) ;
#268 = PRODUCT_DEFINITION_SHAPE ( 'NONE', 'NONE',  #857 ) ;
#269 = EDGE_LOOP ( 'NONE', ( #549, #35, #724, #713 ) ) ;
#270 = PRODUCT_CONTEXT ( 'NONE', #226, 'mechanical' ) ;
#271 =( REPRESENTATION_RELATIONSHIP ('NONE','NONE', #235, #34 ) REPRESENTATION_RELATIONSHIP_WITH_TRANSFORMATION ( #493 )SHAPE_REPRESENTATION_RELATIONSHIP( ) );
#272 = CARTESIAN_POINT ( 'NONE',  ( 0.000000000000000000, 0.000000000000000000, 0.000000000000000000 ) ) ;
#273 = SHAPE_REPRESENTATION ( 'Terminal_3.step_\X2\9ed88ba4\X0\', ( #51, #163 ), #383 ) ;
#274 = ORIENTED_EDGE ( 'NONE', *, *, #722, .F. ) ;
#275 = APPLICATION_PROTOCOL_DEFINITION ( 'draft international standard', 'automotive_design', 1998, #506 ) ;
#276 =( REPRESENTATION_RELATIONSHIP ('NONE','NONE', #34, #67 ) REPRESENTATION_RELATIONSHIP_WITH_TRANSFORMATION ( #8 )SHAPE_REPRESENTATION_RELATIONSHIP( ) );
#277 =( NAMED_UNIT ( * ) SI_UNIT ( $, .STERADIAN. ) SOLID_ANGLE_UNIT ( ) );
#278 = PRESENTATION_LAYER_ASSIGNMENT (  '', '', ( #259 ) ) ;
#279 = EDGE_CURVE ( 'NONE', #473, #27, #181, .T. ) ;
#280 = CARTESIAN_POINT ( 'NONE',  ( 0.000000000000000000, 0.000000000000000000, 0.000000000000000000 ) ) ;
#281 = CARTESIAN_POINT ( 'NONE',  ( 0.2500000000000000000, 0.000000000000000000, 0.000000000000000000 ) ) ;
#282 = ITEM_DEFINED_TRANSFORMATION ( 'NONE', 'NONE', #671,  #518 ) ;
#283 = PRODUCT_DEFINITION_SHAPE ( 'NONE', 'NONE',  #858 ) ;
#284 = CARTESIAN_POINT ( 'NONE',  ( 0.000000000000000000, 0.000000000000000000, 0.5500000000000000444 ) ) ;
#285 = DIRECTION ( 'NONE',  ( 1.000000000000000000, 0.000000000000000000, 0.000000000000000000 ) ) ;
#286 = VERTEX_POINT ( 'NONE', #638 ) ;
#287 = APPLICATION_PROTOCOL_DEFINITION ( 'draft international standard', 'automotive_design', 1998, #711 ) ;
#288 = EDGE_CURVE ( 'NONE', #446, #379, #309, .T. ) ;
#289 = VECTOR ( 'NONE', #596, 1000.000000000000000 ) ;
#290 = CLOSED_SHELL ( 'NONE', ( #546, #740, #619, #146, #658, #463 ) ) ;
#291 = DIRECTION ( 'NONE',  ( 1.000000000000000000, 0.000000000000000000, 0.000000000000000000 ) ) ;
#292 =( GEOMETRIC_REPRESENTATION_CONTEXT ( 3 ) GLOBAL_UNCERTAINTY_ASSIGNED_CONTEXT ( ( #404 ) ) GLOBAL_UNIT_ASSIGNED_CONTEXT ( ( #624, #502, #43 ) ) REPRESENTATION_CONTEXT ( 'NONE', 'WORKASPACE' ) );
#293 = DIRECTION ( 'NONE',  ( 0.000000000000000000, 1.000000000000000000, 0.000000000000000000 ) ) ;
#294 = APPLICATION_PROTOCOL_DEFINITION ( 'draft international standard', 'automotive_design', 1998, #237 ) ;
#295 = DIRECTION ( 'NONE',  ( 0.000000000000000000, 1.000000000000000000, 0.000000000000000000 ) ) ;
#296 = VERTEX_POINT ( 'NONE', #318 ) ;
#297 = PRODUCT ( 'Mark_3.step_\X2\9ed88ba4\X0\', 'Mark_3.step_\X2\9ed88ba4\X0\', '', ( #340 ) ) ;
#298 = CARTESIAN_POINT ( 'NONE',  ( 0.000000000000000000, 0.000000000000000000, 0.000000000000000000 ) ) ;
#299 = LINE ( 'NONE', #699, #230 ) ;
#300 = VERTEX_POINT ( 'NONE', #780 ) ;
#301 =( NAMED_UNIT ( * ) SI_UNIT ( $, .STERADIAN. ) SOLID_ANGLE_UNIT ( ) );
#302 = DIRECTION ( 'NONE',  ( 0.000000000000000000, 0.000000000000000000, 1.000000000000000000 ) ) ;
#303 = AXIS2_PLACEMENT_3D ( 'NONE', #663, #143, #678 ) ;
#304 = VECTOR ( 'NONE', #386, 1000.000000000000000 ) ;
#305 = FACE_OUTER_BOUND ( 'NONE', #116, .T. ) ;
#306 = EDGE_CURVE ( 'NONE', #254, #27, #584, .T. ) ;
#307 = CARTESIAN_POINT ( 'NONE',  ( 0.05500000000000000028, 0.000000000000000000, 0.05500000000000000028 ) ) ;
#308 = PLANE ( 'NONE',  #260 ) ;
#309 = LINE ( 'NONE', #784, #327 ) ;
#310 = EDGE_LOOP ( 'NONE', ( #522, #779, #90, #210 ) ) ;
#311 =( REPRESENTATION_RELATIONSHIP ('NONE','NONE', #34, #273 ) REPRESENTATION_RELATIONSHIP_WITH_TRANSFORMATION ( #154 )SHAPE_REPRESENTATION_RELATIONSHIP( ) );
#312 = EDGE_CURVE ( 'NONE', #361, #118, #47, .T. ) ;
#313 = CARTESIAN_POINT ( 'NONE',  ( 0.2500000000000000000, 0.000000000000000000, 0.05500000000000000028 ) ) ;
#314 = CLOSED_SHELL ( 'NONE', ( #443, #609, #558, #6, #805, #574 ) ) ;
#315 = ORIENTED_EDGE ( 'NONE', *, *, #240, .T. ) ;
#316 = DIRECTION ( 'NONE',  ( -1.000000000000000000, 0.000000000000000000, 0.000000000000000000 ) ) ;
#317 = FACE_OUTER_BOUND ( 'NONE', #826, .T. ) ;
#318 = CARTESIAN_POINT ( 'NONE',  ( 0.9949999999999999956, 0.5500000000000000444, 0.05500000000000000028 ) ) ;
#319 = VERTEX_POINT ( 'NONE', #451 ) ;
#320 = SHAPE_REPRESENTATION_RELATIONSHIP ( 'NONE' , 'NONE' ,  #600, #552 ) ;
#321 = CARTESIAN_POINT ( 'NONE',  ( 0.000000000000000000, 0.5500000000000000444, 0.000000000000000000 ) ) ;
#322 = CARTESIAN_POINT ( 'NONE',  ( 0.05500000000000000028, 0.000000000000000000, 0.05500000000000000028 ) ) ;
#323 = VERTEX_POINT ( 'NONE', #455 ) ;
#324 = FILL_AREA_STYLE ('',( #9 ) ) ;
#325 = LINE ( 'NONE', #635, #397 ) ;
#326 = EDGE_CURVE ( 'NONE', #431, #361, #325, .T. ) ;
#327 = VECTOR ( 'NONE', #464, 1000.000000000000000 ) ;
#328 = ORIENTED_EDGE ( 'NONE', *, *, #568, .T. ) ;
#329 = PRODUCT_DEFINITION ( 'UNKNOWN', '', #789, #75 ) ;
#330 = PRODUCT_DEFINITION_SHAPE ( 'NONE', 'NONE',  #29 ) ;
#331 = VECTOR ( 'NONE', #634, 1000.000000000000000 ) ;
#332 = DIRECTION ( 'NONE',  ( 0.000000000000000000, 1.000000000000000000, 0.000000000000000000 ) ) ;
#333 = DIRECTION ( 'NONE',  ( 1.000000000000000000, 0.000000000000000000, 0.000000000000000000 ) ) ;
#334 = ORIENTED_EDGE ( 'NONE', *, *, #352, .T. ) ;
#335 = CARTESIAN_POINT ( 'NONE',  ( 0.000000000000000000, 0.000000000000000000, 0.000000000000000000 ) ) ;
#336 = SHAPE_DEFINITION_REPRESENTATION ( #164, #666 ) ;
#337 = ADVANCED_FACE ( 'NONE', ( #591 ), #123, .T. ) ;
#338 = APPLICATION_CONTEXT ( 'automotive_design' ) ;
#339 = ORIENTED_EDGE ( 'NONE', *, *, #19, .T. ) ;
#340 = PRODUCT_CONTEXT ( 'NONE', #401, 'mechanical' ) ;
#341 = PRODUCT_DEFINITION_CONTEXT ( 'detailed design', #237, 'design' ) ;
#342 = VECTOR ( 'NONE', #602, 1000.000000000000000 ) ;
#343 = AXIS2_PLACEMENT_3D ( 'NONE', #514, #832, #236 ) ;
#344 = DIRECTION ( 'NONE',  ( 0.000000000000000000, 0.000000000000000000, 1.000000000000000000 ) ) ;
#345 = CARTESIAN_POINT ( 'NONE',  ( 0.000000000000000000, 0.000000000000000000, 0.000000000000000000 ) ) ;
#346 = LINE ( 'NONE', #428, #529 ) ;
#347 = CARTESIAN_POINT ( 'NONE',  ( 0.2500000000000000000, 0.5500000000000000444, 0.5500000000000000444 ) ) ;
#348 = EDGE_CURVE ( 'NONE', #300, #648, #587, .T. ) ;
#349 = CARTESIAN_POINT ( 'NONE',  ( 0.05500000000000000028, 0.000000000000000000, 0.05500000000000000028 ) ) ;
#350 = PRODUCT_RELATED_PRODUCT_CATEGORY ( 'part', '', ( #297 ) ) ;
#351 = ORIENTED_EDGE ( 'NONE', *, *, #415, .F. ) ;
#352 = EDGE_CURVE ( 'NONE', #118, #186, #728, .T. ) ;
#353 = VECTOR ( 'NONE', #527, 1000.000000000000000 ) ;
#354 =( NAMED_UNIT ( * ) SI_UNIT ( $, .STERADIAN. ) SOLID_ANGLE_UNIT ( ) );
#355 = PRODUCT_DEFINITION_SHAPE ( 'NONE', 'NONE',  #56 ) ;
#356 = CARTESIAN_POINT ( 'NONE',  ( 0.000000000000000000, 0.000000000000000000, 0.000000000000000000 ) ) ;
#357 = EDGE_LOOP ( 'NONE', ( #364, #77, #598, #402 ) ) ;
#358 = LINE ( 'NONE', #88, #177 ) ;
#359 = CARTESIAN_POINT ( 'NONE',  ( 0.05500000000000000028, 0.000000000000000000, 0.4949999999999999956 ) ) ;
#360 = CARTESIAN_POINT ( 'NONE',  ( 0.000000000000000000, 0.000000000000000000, 0.000000000000000000 ) ) ;
#361 = VERTEX_POINT ( 'NONE', #581 ) ;
#362 = CARTESIAN_POINT ( 'NONE',  ( 0.05500000000000000028, 0.5500000000000000444, 0.05500000000000000028 ) ) ;
#363 = DIRECTION ( 'NONE',  ( 1.000000000000000000, 0.000000000000000000, 0.000000000000000000 ) ) ;
#364 = ORIENTED_EDGE ( 'NONE', *, *, #14, .T. ) ;
#365 = APPLICATION_CONTEXT ( 'automotive_design' ) ;
#366 = PLANE ( 'NONE',  #631 ) ;
#367 = AXIS2_PLACEMENT_3D ( 'NONE', #656, #815, #544 ) ;
#368 = VECTOR ( 'NONE', #561, 1000.000000000000000 ) ;
#369 = SURFACE_SIDE_STYLE ('',( #756 ) ) ;
#370 = ORIENTED_EDGE ( 'NONE', *, *, #641, .F. ) ;
#371 = SHAPE_REPRESENTATION_RELATIONSHIP ( 'NONE' , 'NONE' ,  #67, #750 ) ;
#372 = PLANE ( 'NONE',  #475 ) ;
#373 = CARTESIAN_POINT ( 'NONE',  ( 0.000000000000000000, 0.5500000000000000444, 0.000000000000000000 ) ) ;
#374 = EDGE_CURVE ( 'NONE', #263, #11, #842, .T. ) ;
#375 = ORIENTED_EDGE ( 'NONE', *, *, #500, .F. ) ;
#376 = SURFACE_STYLE_FILL_AREA ( #432 ) ;
#377 = CARTESIAN_POINT ( 'NONE',  ( 0.9949999999999999956, 0.000000000000000000, 0.05500000000000000028 ) ) ;
#378 = DIRECTION ( 'NONE',  ( 1.000000000000000000, 0.000000000000000000, 0.000000000000000000 ) ) ;
#379 = VERTEX_POINT ( 'NONE', #576 ) ;
#380 = SURFACE_SIDE_STYLE ('',( #376 ) ) ;
#381 = DIRECTION ( 'NONE',  ( 0.000000000000000000, 1.000000000000000000, 0.000000000000000000 ) ) ;
#382 = VECTOR ( 'NONE', #295, 1000.000000000000000 ) ;
#383 =( GEOMETRIC_REPRESENTATION_CONTEXT ( 3 ) GLOBAL_UNCERTAINTY_ASSIGNED_CONTEXT ( ( #531 ) ) GLOBAL_UNIT_ASSIGNED_CONTEXT ( ( #823, #758, #113 ) ) REPRESENTATION_CONTEXT ( 'NONE', 'WORKASPACE' ) );
#384 = EDGE_LOOP ( 'NONE', ( #659, #438, #577, #738 ) ) ;
#385 = MANIFOLD_SOLID_BREP ( 'Mark[1]', #290 ) ;
#386 = DIRECTION ( 'NONE',  ( 1.000000000000000000, 0.000000000000000000, 0.000000000000000000 ) ) ;
#387 = DIRECTION ( 'NONE',  ( 0.000000000000000000, 0.000000000000000000, 1.000000000000000000 ) ) ;
#388 = VERTEX_POINT ( 'NONE', #491 ) ;
#389 =( NAMED_UNIT ( * ) PLANE_ANGLE_UNIT ( ) SI_UNIT ( $, .RADIAN. ) );
#390 = EDGE_CURVE ( 'NONE', #542, #473, #849, .T. ) ;
#391 = DIRECTION ( 'NONE',  ( 1.000000000000000000, 0.000000000000000000, 0.000000000000000000 ) ) ;
#392 = ORIENTED_EDGE ( 'NONE', *, *, #102, .F. ) ;
#393 = APPLICATION_PROTOCOL_DEFINITION ( 'draft international standard', 'automotive_design', 1998, #180 ) ;
#394 = UNCERTAINTY_MEASURE_WITH_UNIT (LENGTH_MEASURE( 1.000000000000000082E-05 ), #627, 'distance_accuracy_value', 'NONE');
#395 = FACE_OUTER_BOUND ( 'NONE', #249, .T. ) ;
#396 = CARTESIAN_POINT ( 'NONE',  ( 0.000000000000000000, 0.000000000000000000, 0.000000000000000000 ) ) ;
#397 = VECTOR ( 'NONE', #651, 1000.000000000000000 ) ;
#398 = ORIENTED_EDGE ( 'NONE', *, *, #516, .T. ) ;
#399 = PRODUCT ( 'NTC0402.step_\X2\9ed88ba4\X0\', 'NTC0402.step_\X2\9ed88ba4\X0\', '', ( #83 ) ) ;
#400 = LINE ( 'NONE', #662, #748 ) ;
#401 = APPLICATION_CONTEXT ( 'automotive_design' ) ;
#402 = ORIENTED_EDGE ( 'NONE', *, *, #57, .T. ) ;
#403 = DIRECTION ( 'NONE',  ( 1.000000000000000000, 0.000000000000000000, 0.000000000000000000 ) ) ;
#404 = UNCERTAINTY_MEASURE_WITH_UNIT (LENGTH_MEASURE( 1.000000000000000082E-05 ), #624, 'distance_accuracy_value', 'NONE');
#405 = PRODUCT_DEFINITION_SHAPE ( 'NONE', 'NONE',  #859 ) ;
#406 = LINE ( 'NONE', #195, #411 ) ;
#407 = VERTEX_POINT ( 'NONE', #811 ) ;
#408 = PRODUCT_CONTEXT ( 'NONE', #562, 'mechanical' ) ;
#409 = PRODUCT_DEFINITION_FORMATION_WITH_SPECIFIED_SOURCE ( 'ANY', '', #412, .NOT_KNOWN. ) ;
#410 = SURFACE_STYLE_FILL_AREA ( #142 ) ;
#411 = VECTOR ( 'NONE', #378, 1000.000000000000000 ) ;
#412 = PRODUCT ( 'Mid Body_3.step_\X2\9ed88ba4\X0\', 'Mid Body_3.step_\X2\9ed88ba4\X0\', '', ( #611 ) ) ;
#413 = VECTOR ( 'NONE', #414, 1000.000000000000000 ) ;
#414 = DIRECTION ( 'NONE',  ( 1.000000000000000000, 0.000000000000000000, 0.000000000000000000 ) ) ;
#415 = EDGE_CURVE ( 'NONE', #757, #525, #620, .T. ) ;
#416 = PLANE ( 'NONE',  #303 ) ;
#417 = CARTESIAN_POINT ( 'NONE',  ( 0.000000000000000000, 0.000000000000000000, 0.5500000000000000444 ) ) ;
#418 = ADVANCED_FACE ( 'NONE', ( #751 ), #548, .T. ) ;
#419 = VERTEX_POINT ( 'NONE', #615 ) ;
#420 = APPLICATION_PROTOCOL_DEFINITION ( 'draft international standard', 'automotive_design', 1998, #220 ) ;
#421 = DIRECTION ( 'NONE',  ( 0.000000000000000000, 0.000000000000000000, 1.000000000000000000 ) ) ;
#422 = PLANE ( 'NONE',  #81 ) ;
#423 = DIRECTION ( 'NONE',  ( 0.000000000000000000, 0.000000000000000000, 1.000000000000000000 ) ) ;
#424 = ORIENTED_EDGE ( 'NONE', *, *, #788, .F. ) ;
#425 =( NAMED_UNIT ( * ) PLANE_ANGLE_UNIT ( ) SI_UNIT ( $, .RADIAN. ) );
#426 = AXIS2_PLACEMENT_3D ( 'NONE', #589, #852, #258 ) ;
#427 = COLOUR_RGB ( '',0.5019607843137254832, 0.5019607843137254832, 0.5019607843137254832 ) ;
#428 = CARTESIAN_POINT ( 'NONE',  ( 0.05500000000000000028, 0.000000000000000000, 0.4949999999999999956 ) ) ;
#429 = PRESENTATION_LAYER_ASSIGNMENT (  '', '', ( #580 ) ) ;
#430 = DIRECTION ( 'NONE',  ( 1.000000000000000000, 0.000000000000000000, 0.000000000000000000 ) ) ;
#431 = VERTEX_POINT ( 'NONE', #68 ) ;
#432 = FILL_AREA_STYLE ('',( #172 ) ) ;
#433 = DIRECTION ( 'NONE',  ( 1.000000000000000000, 0.000000000000000000, 0.000000000000000000 ) ) ;
#434 = CARTESIAN_POINT ( 'NONE',  ( 0.000000000000000000, 0.5500000000000000444, 0.000000000000000000 ) ) ;
#435 =( LENGTH_UNIT ( ) NAMED_UNIT ( * ) SI_UNIT ( .MILLI., .METRE. ) );
#436 = PLANE ( 'NONE',  #343 ) ;
#437 = CARTESIAN_POINT ( 'NONE',  ( 0.05500000000000000028, 0.000000000000000000, 0.4949999999999999956 ) ) ;
#438 = ORIENTED_EDGE ( 'NONE', *, *, #326, .F. ) ;
#439 =( NAMED_UNIT ( * ) PLANE_ANGLE_UNIT ( ) SI_UNIT ( $, .RADIAN. ) );
#440 = LINE ( 'NONE', #575, #138 ) ;
#441 = VECTOR ( 'NONE', #87, 1000.000000000000000 ) ;
#442 = MECHANICAL_DESIGN_GEOMETRIC_PRESENTATION_REPRESENTATION (  '', ( #688 ), #66 ) ;
#443 = ADVANCED_FACE ( 'NONE', ( #30 ), #25, .T. ) ;
#444 = MECHANICAL_DESIGN_GEOMETRIC_PRESENTATION_REPRESENTATION (  '', ( #717 ), #178 ) ;
#445 = LINE ( 'NONE', #373, #731 ) ;
#446 = VERTEX_POINT ( 'NONE', #218 ) ;
#447 = DIRECTION ( 'NONE',  ( 1.000000000000000000, 0.000000000000000000, 0.000000000000000000 ) ) ;
#448 = DIRECTION ( 'NONE',  ( 0.000000000000000000, 0.000000000000000000, 1.000000000000000000 ) ) ;
#449 = ORIENTED_EDGE ( 'NONE', *, *, #524, .F. ) ;
#450 = LINE ( 'NONE', #42, #149 ) ;
#451 = CARTESIAN_POINT ( 'NONE',  ( 0.05500000000000000028, 0.5500000000000000444, 0.4949999999999999956 ) ) ;
#452 = ORIENTED_EDGE ( 'NONE', *, *, #111, .T. ) ;
#453 = CARTESIAN_POINT ( 'NONE',  ( 0.000000000000000000, 0.000000000000000000, 0.000000000000000000 ) ) ;
#454 = CARTESIAN_POINT ( 'NONE',  ( 0.05500000000000000028, 0.5500000000000000444, 0.4949999999999999956 ) ) ;
#455 = CARTESIAN_POINT ( 'NONE',  ( 0.2500000000000000000, 0.000000000000000000, 0.4949999999999999956 ) ) ;
#456 = VECTOR ( 'NONE', #747, 1000.000000000000000 ) ;
#457 = AXIS2_PLACEMENT_3D ( 'NONE', #613, #16, #285 ) ;
#458 = ORIENTED_EDGE ( 'NONE', *, *, #279, .F. ) ;
#459 =( NAMED_UNIT ( * ) SI_UNIT ( $, .STERADIAN. ) SOLID_ANGLE_UNIT ( ) );
#460 = PRODUCT_RELATED_PRODUCT_CATEGORY ( 'part', '', ( #208 ) ) ;
#461 = UNCERTAINTY_MEASURE_WITH_UNIT (LENGTH_MEASURE( 1.000000000000000082E-05 ), #749, 'distance_accuracy_value', 'NONE');
#462 = DIRECTION ( 'NONE',  ( 0.000000000000000000, 1.000000000000000000, 0.000000000000000000 ) ) ;
#463 = ADVANCED_FACE ( 'NONE', ( #152 ), #214, .F. ) ;
#464 = DIRECTION ( 'NONE',  ( 0.000000000000000000, 1.000000000000000000, 0.000000000000000000 ) ) ;
#465 = EDGE_LOOP ( 'NONE', ( #812, #243, #781, #534 ) ) ;
#466 = CARTESIAN_POINT ( 'NONE',  ( -0.5250000000000000222, -0.2750000000000000222, 0.000000000000000000 ) ) ;
#467 = FACE_OUTER_BOUND ( 'NONE', #501, .T. ) ;
#468 = PRESENTATION_STYLE_ASSIGNMENT (( #52 ) ) ;
#469 = ORIENTED_EDGE ( 'NONE', *, *, #288, .T. ) ;
#470 = UNCERTAINTY_MEASURE_WITH_UNIT (LENGTH_MEASURE( 1.000000000000000082E-05 ), #618, 'distance_accuracy_value', 'NONE');
#471 = DIRECTION ( 'NONE',  ( 0.000000000000000000, 1.000000000000000000, 0.000000000000000000 ) ) ;
#472 = ADVANCED_FACE ( 'NONE', ( #267 ), #557, .T. ) ;
#473 = VERTEX_POINT ( 'NONE', #745 ) ;
#474 = SHAPE_DEFINITION_REPRESENTATION ( #657, #235 ) ;
#475 = AXIS2_PLACEMENT_3D ( 'NONE', #307, #302, #570 ) ;
#476 = SURFACE_SIDE_STYLE ('',( #72 ) ) ;
#477 = ORIENTED_EDGE ( 'NONE', *, *, #796, .T. ) ;
#478 = CONTEXT_DEPENDENT_SHAPE_REPRESENTATION ( #831, #592 ) ;
#479 = UNCERTAINTY_MEASURE_WITH_UNIT (LENGTH_MEASURE( 1.000000000000000082E-05 ), #40, 'distance_accuracy_value', 'NONE');
#480 = DIRECTION ( 'NONE',  ( 1.000000000000000000, 0.000000000000000000, 0.000000000000000000 ) ) ;
#481 = CARTESIAN_POINT ( 'NONE',  ( 0.05500000000000000028, 0.000000000000000000, 0.4949999999999999956 ) ) ;
#482 =( NAMED_UNIT ( * ) PLANE_ANGLE_UNIT ( ) SI_UNIT ( $, .RADIAN. ) );
#483 = EDGE_CURVE ( 'NONE', #254, #323, #227, .T. ) ;
#484 = CARTESIAN_POINT ( 'NONE',  ( 0.05500000000000000028, 0.000000000000000000, 0.05500000000000000028 ) ) ;
#485 = ORIENTED_EDGE ( 'NONE', *, *, #788, .T. ) ;
#486 = VECTOR ( 'NONE', #554, 1000.000000000000000 ) ;
#487 = DIRECTION ( 'NONE',  ( 1.000000000000000000, 0.000000000000000000, 0.000000000000000000 ) ) ;
#488 = VECTOR ( 'NONE', #556, 1000.000000000000000 ) ;
#489 = AXIS2_PLACEMENT_3D ( 'NONE', #1, #265, #799 ) ;
#490 = EDGE_CURVE ( 'NONE', #542, #572, #498, .T. ) ;
#491 = CARTESIAN_POINT ( 'NONE',  ( 0.5500000000000000444, 0.000000000000000000, 0.000000000000000000 ) ) ;
#492 = LINE ( 'NONE', #335, #342 ) ;
#493 = ITEM_DEFINED_TRANSFORMATION ( 'NONE', 'NONE', #190,  #617 ) ;
#494 = PLANE ( 'NONE',  #457 ) ;
#495 = LINE ( 'NONE', #434, #148 ) ;
#496 = DIRECTION ( 'NONE',  ( 1.000000000000000000, 0.000000000000000000, 0.000000000000000000 ) ) ;
#497 =( REPRESENTATION_RELATIONSHIP ('NONE','NONE', #273, #666 ) REPRESENTATION_RELATIONSHIP_WITH_TRANSFORMATION ( #739 )SHAPE_REPRESENTATION_RELATIONSHIP( ) );
#498 = LINE ( 'NONE', #97, #553 ) ;
#499 = CARTESIAN_POINT ( 'NONE',  ( 0.2500000000000000000, 0.5500000000000000444, 0.05500000000000000028 ) ) ;
#500 = EDGE_CURVE ( 'NONE', #700, #300, #160, .T. ) ;
#501 = EDGE_LOOP ( 'NONE', ( #817, #53, #96, #339 ) ) ;
#502 =( NAMED_UNIT ( * ) PLANE_ANGLE_UNIT ( ) SI_UNIT ( $, .RADIAN. ) );
#503 = AXIS2_PLACEMENT_3D ( 'NONE', #359, #92, #2 ) ;
#504 = ORIENTED_EDGE ( 'NONE', *, *, #415, .T. ) ;
#505 = LINE ( 'NONE', #776, #23 ) ;
#506 = APPLICATION_CONTEXT ( 'automotive_design' ) ;
#507 = SURFACE_STYLE_USAGE ( .BOTH. , #369 ) ;
#508 = ORIENTED_EDGE ( 'NONE', *, *, #490, .F. ) ;
#509 =( NAMED_UNIT ( * ) PLANE_ANGLE_UNIT ( ) SI_UNIT ( $, .RADIAN. ) );
#510 = EDGE_CURVE ( 'NONE', #419, #263, #677, .T. ) ;
#511 = DIRECTION ( 'NONE',  ( 1.000000000000000000, 0.000000000000000000, 0.000000000000000000 ) ) ;
#512 = ORIENTED_EDGE ( 'NONE', *, *, #158, .T. ) ;
#513 = PRODUCT_DEFINITION ( 'UNKNOWN', '', #515, #341 ) ;
#514 = CARTESIAN_POINT ( 'NONE',  ( 0.000000000000000000, 0.5500000000000000444, 0.000000000000000000 ) ) ;
#515 = PRODUCT_DEFINITION_FORMATION_WITH_SPECIFIED_SOURCE ( 'ANY', '', #297, .NOT_KNOWN. ) ;
#516 = EDGE_CURVE ( 'NONE', #213, #446, #85, .T. ) ;
#517 = MECHANICAL_DESIGN_GEOMETRIC_PRESENTATION_REPRESENTATION (  '', ( #259 ), #762 ) ;
#518 = AXIS2_PLACEMENT_3D ( 'NONE', #79, #91, #20 ) ;
#519 = CARTESIAN_POINT ( 'NONE',  ( 0.5500000000000000444, 0.000000000000000000, 0.05500000000000000028 ) ) ;
#520 = ORIENTED_EDGE ( 'NONE', *, *, #111, .F. ) ;
#521 = SURFACE_STYLE_FILL_AREA ( #199 ) ;
#522 = ORIENTED_EDGE ( 'NONE', *, *, #767, .T. ) ;
#523 =( NAMED_UNIT ( * ) PLANE_ANGLE_UNIT ( ) SI_UNIT ( $, .RADIAN. ) );
#524 = EDGE_CURVE ( 'NONE', #49, #323, #346, .T. ) ;
#525 = VERTEX_POINT ( 'NONE', #690 ) ;
#526 = CARTESIAN_POINT ( 'NONE',  ( 0.5500000000000000444, 0.000000000000000000, 0.000000000000000000 ) ) ;
#527 = DIRECTION ( 'NONE',  ( 1.000000000000000000, 0.000000000000000000, 0.000000000000000000 ) ) ;
#528 = AXIS2_PLACEMENT_3D ( 'NONE', #647, #387, #245 ) ;
#529 = VECTOR ( 'NONE', #21, 1000.000000000000000 ) ;
#530 = ORIENTED_EDGE ( 'NONE', *, *, #767, .F. ) ;
#531 = UNCERTAINTY_MEASURE_WITH_UNIT (LENGTH_MEASURE( 1.000000000000000082E-05 ), #823, 'distance_accuracy_value', 'NONE');
#532 = DIRECTION ( 'NONE',  ( 1.000000000000000000, 0.000000000000000000, 0.000000000000000000 ) ) ;
#533 = FILL_AREA_STYLE_COLOUR ( '', #427 ) ;
#534 = ORIENTED_EDGE ( 'NONE', *, *, #266, .F. ) ;
#535 = DIRECTION ( 'NONE',  ( 0.000000000000000000, 0.000000000000000000, 1.000000000000000000 ) ) ;
#536 = CARTESIAN_POINT ( 'NONE',  ( 0.9949999999999999956, 0.000000000000000000, 0.4949999999999999956 ) ) ;
#537 = ADVANCED_BREP_SHAPE_REPRESENTATION ( '', ( #680, #518 ), #94 ) ;
#538 = ORIENTED_EDGE ( 'NONE', *, *, #374, .T. ) ;
#539 = DIRECTION ( 'NONE',  ( 0.000000000000000000, 0.000000000000000000, 1.000000000000000000 ) ) ;
#540 = DIRECTION ( 'NONE',  ( 0.000000000000000000, 1.000000000000000000, 0.000000000000000000 ) ) ;
#541 = PRODUCT_DEFINITION_FORMATION_WITH_SPECIFIED_SOURCE ( 'ANY', '', #689, .NOT_KNOWN. ) ;
#542 = VERTEX_POINT ( 'NONE', #827 ) ;
#543 = DIRECTION ( 'NONE',  ( 0.000000000000000000, 1.000000000000000000, 0.000000000000000000 ) ) ;
#544 = DIRECTION ( 'NONE',  ( 0.000000000000000000, 1.000000000000000000, 0.000000000000000000 ) ) ;
#545 = ORIENTED_EDGE ( 'NONE', *, *, #31, .F. ) ;
#546 = ADVANCED_FACE ( 'NONE', ( #223 ), #494, .T. ) ;
#547 = ADVANCED_FACE ( 'NONE', ( #156 ), #422, .T. ) ;
#548 = PLANE ( 'NONE',  #367 ) ;
#549 = ORIENTED_EDGE ( 'NONE', *, *, #71, .F. ) ;
#550 = SHAPE_DEFINITION_REPRESENTATION ( #601, #34 ) ;
#551 =( GEOMETRIC_REPRESENTATION_CONTEXT ( 3 ) GLOBAL_UNCERTAINTY_ASSIGNED_CONTEXT ( ( #394 ) ) GLOBAL_UNIT_ASSIGNED_CONTEXT ( ( #627, #571, #704 ) ) REPRESENTATION_CONTEXT ( 'NONE', 'WORKASPACE' ) );
#552 = ADVANCED_BREP_SHAPE_REPRESENTATION ( '', ( #385, #518 ), #292 ) ;
#553 = VECTOR ( 'NONE', #679, 1000.000000000000000 ) ;
#554 = DIRECTION ( 'NONE',  ( 0.000000000000000000, -1.000000000000000000, 0.000000000000000000 ) ) ;
#555 = LINE ( 'NONE', #437, #105 ) ;
#556 = DIRECTION ( 'NONE',  ( 0.000000000000000000, 0.000000000000000000, 1.000000000000000000 ) ) ;
#557 = PLANE ( 'NONE',  #761 ) ;
#558 = ADVANCED_FACE ( 'NONE', ( #109 ), #366, .T. ) ;
#559 = ORIENTED_EDGE ( 'NONE', *, *, #374, .F. ) ;
#560 =( NAMED_UNIT ( * ) PLANE_ANGLE_UNIT ( ) SI_UNIT ( $, .RADIAN. ) );
#561 = DIRECTION ( 'NONE',  ( 1.000000000000000000, 0.000000000000000000, 0.000000000000000000 ) ) ;
#562 = APPLICATION_CONTEXT ( 'automotive_design' ) ;
#563 = LINE ( 'NONE', #694, #565 ) ;
#564 = ORIENTED_EDGE ( 'NONE', *, *, #583, .F. ) ;
#565 = VECTOR ( 'NONE', #773, 1000.000000000000000 ) ;
#566 = AXIS2_PLACEMENT_3D ( 'NONE', #44, #772, #173 ) ;
#567 = DIRECTION ( 'NONE',  ( 1.000000000000000000, 0.000000000000000000, 0.000000000000000000 ) ) ;
#568 = EDGE_CURVE ( 'NONE', #388, #300, #450, .T. ) ;
#569 = ORIENTED_EDGE ( 'NONE', *, *, #490, .T. ) ;
#570 = DIRECTION ( 'NONE',  ( 1.000000000000000000, 0.000000000000000000, 0.000000000000000000 ) ) ;
#571 =( NAMED_UNIT ( * ) PLANE_ANGLE_UNIT ( ) SI_UNIT ( $, .RADIAN. ) );
#572 = VERTEX_POINT ( 'NONE', #637 ) ;
#573 =( NAMED_UNIT ( * ) SI_UNIT ( $, .STERADIAN. ) SOLID_ANGLE_UNIT ( ) );
#574 = ADVANCED_FACE ( 'NONE', ( #317 ), #308, .F. ) ;
#575 = CARTESIAN_POINT ( 'NONE',  ( 0.5500000000000000444, 0.000000000000000000, 0.05500000000000000028 ) ) ;
#576 = CARTESIAN_POINT ( 'NONE',  ( 0.2500000000000000000, 0.5500000000000000444, 0.000000000000000000 ) ) ;
#577 = ORIENTED_EDGE ( 'NONE', *, *, #697, .T. ) ;
#578 = PRESENTATION_LAYER_ASSIGNMENT (  '', '', ( #594 ) ) ;
#579 = VECTOR ( 'NONE', #448, 1000.000000000000000 ) ;
#580 = STYLED_ITEM ( 'NONE', ( #754 ), #537 ) ;
#581 = CARTESIAN_POINT ( 'NONE',  ( 0.05500000000000000028, 0.5500000000000000444, 0.05500000000000000028 ) ) ;
#582 = ORIENTED_EDGE ( 'NONE', *, *, #203, .T. ) ;
#583 = EDGE_CURVE ( 'NONE', #319, #254, #693, .T. ) ;
#584 = LINE ( 'NONE', #707, #579 ) ;
#585 = ORIENTED_EDGE ( 'NONE', *, *, #203, .F. ) ;
#586 = FACE_OUTER_BOUND ( 'NONE', #636, .T. ) ;
#587 = LINE ( 'NONE', #115, #22 ) ;
#588 = EDGE_LOOP ( 'NONE', ( #485, #733, #692, #785 ) ) ;
#589 = CARTESIAN_POINT ( 'NONE',  ( 0.000000000000000000, 0.000000000000000000, 0.000000000000000000 ) ) ;
#590 =( GEOMETRIC_REPRESENTATION_CONTEXT ( 3 ) GLOBAL_UNCERTAINTY_ASSIGNED_CONTEXT ( ( #661 ) ) GLOBAL_UNIT_ASSIGNED_CONTEXT ( ( #854, #389, #134 ) ) REPRESENTATION_CONTEXT ( 'NONE', 'WORKASPACE' ) );
#591 = FACE_OUTER_BOUND ( 'NONE', #384, .T. ) ;
#592 = PRODUCT_DEFINITION_SHAPE ( 'NONE', 'NONE',  #856 ) ;
#593 = COLOUR_RGB ( '',0.8000000000000000444, 0.8000000000000000444, 0.8000000000000000444 ) ;
#594 = STYLED_ITEM ( 'NONE', ( #640 ), #552 ) ;
#595 = EDGE_LOOP ( 'NONE', ( #729, #538, #639, #351 ) ) ;
#596 = DIRECTION ( 'NONE',  ( 0.000000000000000000, 1.000000000000000000, 0.000000000000000000 ) ) ;
#597 = DIRECTION ( 'NONE',  ( 0.000000000000000000, 1.000000000000000000, 0.000000000000000000 ) ) ;
#598 = ORIENTED_EDGE ( 'NONE', *, *, #19, .F. ) ;
#599 = PLANE ( 'NONE',  #791 ) ;
#600 = SHAPE_REPRESENTATION ( 'Mark_3.step_\X2\9ed88ba4\X0\', ( #518 ), #292 ) ;
#601 = PRODUCT_DEFINITION_SHAPE ( 'NONE', 'NONE',  #329 ) ;
#602 = DIRECTION ( 'NONE',  ( 0.000000000000000000, 0.000000000000000000, 1.000000000000000000 ) ) ;
#603 = CARTESIAN_POINT ( 'NONE',  ( 0.000000000000000000, 0.5500000000000000444, 0.000000000000000000 ) ) ;
#604 = AXIS2_PLACEMENT_3D ( 'NONE', #242, #836, #511 ) ;
#605 = VERTEX_POINT ( 'NONE', #362 ) ;
#606 = PRODUCT_CONTEXT ( 'NONE', #506, 'mechanical' ) ;
#607 =( GEOMETRIC_REPRESENTATION_CONTEXT ( 3 ) GLOBAL_UNCERTAINTY_ASSIGNED_CONTEXT ( ( #470 ) ) GLOBAL_UNIT_ASSIGNED_CONTEXT ( ( #618, #560, #573 ) ) REPRESENTATION_CONTEXT ( 'NONE', 'WORKASPACE' ) );
#608 = DIRECTION ( 'NONE',  ( 0.000000000000000000, 0.000000000000000000, 1.000000000000000000 ) ) ;
#609 = ADVANCED_FACE ( 'NONE', ( #625 ), #372, .F. ) ;
#610 = ORIENTED_EDGE ( 'NONE', *, *, #31, .T. ) ;
#611 = PRODUCT_CONTEXT ( 'NONE', #365, 'mechanical' ) ;
#612 =( LENGTH_UNIT ( ) NAMED_UNIT ( * ) SI_UNIT ( .MILLI., .METRE. ) );
#613 = CARTESIAN_POINT ( 'NONE',  ( 0.000000000000000000, 0.000000000000000000, 0.05500000000000000028 ) ) ;
#614 = VERTEX_POINT ( 'NONE', #377 ) ;
#615 = CARTESIAN_POINT ( 'NONE',  ( 0.05500000000000000028, 0.000000000000000000, 0.05500000000000000028 ) ) ;
#616 = FACE_OUTER_BOUND ( 'NONE', #17, .T. ) ;
#617 = AXIS2_PLACEMENT_3D ( 'NONE', #453, #126, #187 ) ;
#618 =( LENGTH_UNIT ( ) NAMED_UNIT ( * ) SI_UNIT ( .MILLI., .METRE. ) );
#619 = ADVANCED_FACE ( 'NONE', ( #835 ), #436, .T. ) ;
#620 = LINE ( 'NONE', #684, #10 ) ;
#621 = PLANE ( 'NONE',  #247 ) ;
#622 = LINE ( 'NONE', #155, #488 ) ;
#623 = CARTESIAN_POINT ( 'NONE',  ( 0.9949999999999999956, 0.5500000000000000444, 0.05500000000000000028 ) ) ;
#624 =( LENGTH_UNIT ( ) NAMED_UNIT ( * ) SI_UNIT ( .MILLI., .METRE. ) );
#625 = FACE_OUTER_BOUND ( 'NONE', #588, .T. ) ;
#626 = EDGE_CURVE ( 'NONE', #168, #257, #505, .T. ) ;
#627 =( LENGTH_UNIT ( ) NAMED_UNIT ( * ) SI_UNIT ( .MILLI., .METRE. ) );
#628 = EDGE_LOOP ( 'NONE', ( #530, #328, #100, #370 ) ) ;
#629 = AXIS2_PLACEMENT_3D ( 'NONE', #844, #720, #316 ) ;
#630 = VECTOR ( 'NONE', #797, 1000.000000000000000 ) ;
#631 = AXIS2_PLACEMENT_3D ( 'NONE', #183, #703, #433 ) ;
#632 = DIRECTION ( 'NONE',  ( 1.000000000000000000, 0.000000000000000000, 0.000000000000000000 ) ) ;
#633 = ADVANCED_FACE ( 'NONE', ( #101 ), #241, .F. ) ;
#634 = DIRECTION ( 'NONE',  ( 1.000000000000000000, 0.000000000000000000, 0.000000000000000000 ) ) ;
#635 = CARTESIAN_POINT ( 'NONE',  ( 0.05500000000000000028, 0.000000000000000000, 0.05500000000000000028 ) ) ;
#636 = EDGE_LOOP ( 'NONE', ( #133, #217, #150, #274 ) ) ;
#637 = CARTESIAN_POINT ( 'NONE',  ( 0.2500000000000000000, 0.000000000000000000, 0.5500000000000000444 ) ) ;
#638 = CARTESIAN_POINT ( 'NONE',  ( 0.000000000000000000, 0.000000000000000000, 0.000000000000000000 ) ) ;
#639 = ORIENTED_EDGE ( 'NONE', *, *, #722, .T. ) ;
#640 = PRESENTATION_STYLE_ASSIGNMENT (( #834 ) ) ;
#641 = EDGE_CURVE ( 'NONE', #257, #648, #440, .T. ) ;
#642 = MECHANICAL_DESIGN_GEOMETRIC_PRESENTATION_REPRESENTATION (  '', ( #701 ), #551 ) ;
#643 = AXIS2_PLACEMENT_3D ( 'NONE', #261, #783, #646 ) ;
#644 = ORIENTED_EDGE ( 'NONE', *, *, #516, .F. ) ;
#645 = CARTESIAN_POINT ( 'NONE',  ( 0.000000000000000000, 0.000000000000000000, 0.000000000000000000 ) ) ;
#646 = DIRECTION ( 'NONE',  ( 1.000000000000000000, 0.000000000000000000, 0.000000000000000000 ) ) ;
#647 = CARTESIAN_POINT ( 'NONE',  ( 0.05500000000000000028, 0.000000000000000000, 0.05500000000000000028 ) ) ;
#648 = VERTEX_POINT ( 'NONE', #706 ) ;
#649 = PRODUCT_DEFINITION_CONTEXT ( 'detailed design', #759, 'design' ) ;
#650 = DIRECTION ( 'NONE',  ( 1.000000000000000000, 0.000000000000000000, 0.000000000000000000 ) ) ;
#651 = DIRECTION ( 'NONE',  ( 0.000000000000000000, 1.000000000000000000, 0.000000000000000000 ) ) ;
#652 = ORIENTED_EDGE ( 'NONE', *, *, #483, .T. ) ;
#653 = PLANE ( 'NONE',  #106 ) ;
#654 = MECHANICAL_DESIGN_GEOMETRIC_PRESENTATION_REPRESENTATION (  '', ( #594 ), #746 ) ;
#655 = VECTOR ( 'NONE', #256, 1000.000000000000000 ) ;
#656 = CARTESIAN_POINT ( 'NONE',  ( 0.2500000000000000000, 0.000000000000000000, 0.000000000000000000 ) ) ;
#657 = PRODUCT_DEFINITION_SHAPE ( 'NONE', 'NONE',  #698 ) ;
#658 = ADVANCED_FACE ( 'NONE', ( #114 ), #599, .T. ) ;
#659 = ORIENTED_EDGE ( 'NONE', *, *, #312, .F. ) ;
#660 = DIRECTION ( 'NONE',  ( 1.000000000000000000, 0.000000000000000000, 0.000000000000000000 ) ) ;
#661 = UNCERTAINTY_MEASURE_WITH_UNIT (LENGTH_MEASURE( 1.000000000000000082E-05 ), #854, 'distance_accuracy_value', 'NONE');
#662 = CARTESIAN_POINT ( 'NONE',  ( 0.9949999999999999956, 0.000000000000000000, 0.05500000000000000028 ) ) ;
#663 = CARTESIAN_POINT ( 'NONE',  ( 0.05500000000000000028, 0.000000000000000000, 0.05500000000000000028 ) ) ;
#664 = APPLICATION_CONTEXT ( 'automotive_design' ) ;
#665 = LINE ( 'NONE', #272, #804 ) ;
#666 = SHAPE_REPRESENTATION ( 'Open CASCADE STEP translator 7.5 6.2.1.step_\X2\9ed88ba4\X0\', ( #518 ), #94 ) ;
#667 = ORIENTED_EDGE ( 'NONE', *, *, #524, .T. ) ;
#668 = APPLICATION_PROTOCOL_DEFINITION ( 'draft international standard', 'automotive_design', 1998, #401 ) ;
#669 = UNCERTAINTY_MEASURE_WITH_UNIT (LENGTH_MEASURE( 1.000000000000000082E-05 ), #246, 'distance_accuracy_value', 'NONE');
#670 = ADVANCED_FACE ( 'NONE', ( #395 ), #653, .T. ) ;
#671 = AXIS2_PLACEMENT_3D ( 'NONE', #50, #714, #403 ) ;
#672 = VECTOR ( 'NONE', #423, 1000.000000000000000 ) ;
#673 = CARTESIAN_POINT ( 'NONE',  ( 0.000000000000000000, 0.000000000000000000, 0.000000000000000000 ) ) ;
#674 = APPLICATION_PROTOCOL_DEFINITION ( 'draft international standard', 'automotive_design', 1998, #759 ) ;
#675 = VECTOR ( 'NONE', #332, 1000.000000000000000 ) ;
#676 = PLANE ( 'NONE',  #702 ) ;
#677 = LINE ( 'NONE', #349, #830 ) ;
#678 = DIRECTION ( 'NONE',  ( 1.000000000000000000, 0.000000000000000000, 0.000000000000000000 ) ) ;
#679 = DIRECTION ( 'NONE',  ( 1.000000000000000000, 0.000000000000000000, 0.000000000000000000 ) ) ;
#680 = MANIFOLD_SOLID_BREP ( 'Open CASCADE STEP translator 7.5 6.2.1[1]', #192 ) ;
#681 = ORIENTED_EDGE ( 'NONE', *, *, #839, .T. ) ;
#682 = CONTEXT_DEPENDENT_SHAPE_REPRESENTATION ( #311, #268 ) ;
#683 = PRODUCT_RELATED_PRODUCT_CATEGORY ( 'part', '', ( #689 ) ) ;
#684 = CARTESIAN_POINT ( 'NONE',  ( 0.05500000000000000028, 0.5500000000000000444, 0.4949999999999999956 ) ) ;
#685 = DIRECTION ( 'NONE',  ( 0.000000000000000000, 0.000000000000000000, 1.000000000000000000 ) ) ;
#686 = AXIS2_PLACEMENT_3D ( 'NONE', #645, #119, #255 ) ;
#687 = VECTOR ( 'NONE', #251, 1000.000000000000000 ) ;
#688 = STYLED_ITEM ( 'NONE', ( #848 ), #680 ) ;
#689 = PRODUCT ( 'NTC0402', 'NTC0402', '', ( #270 ) ) ;
#690 = CARTESIAN_POINT ( 'NONE',  ( 0.9949999999999999956, 0.5500000000000000444, 0.4949999999999999956 ) ) ;
#691 = LINE ( 'NONE', #623, #816 ) ;
#692 = ORIENTED_EDGE ( 'NONE', *, *, #233, .F. ) ;
#693 = LINE ( 'NONE', #98, #331 ) ;
#694 = CARTESIAN_POINT ( 'NONE',  ( 0.05500000000000000028, 0.5500000000000000444, 0.05500000000000000028 ) ) ;
#695 = ORIENTED_EDGE ( 'NONE', *, *, #279, .T. ) ;
#696 = SURFACE_SIDE_STYLE ('',( #169 ) ) ;
#697 = EDGE_CURVE ( 'NONE', #431, #186, #801, .T. ) ;
#698 = PRODUCT_DEFINITION ( 'UNKNOWN', '', #541, #127 ) ;
#699 = CARTESIAN_POINT ( 'NONE',  ( 0.000000000000000000, 0.5500000000000000444, 0.000000000000000000 ) ) ;
#700 = VERTEX_POINT ( 'NONE', #321 ) ;
#701 = STYLED_ITEM ( 'NONE', ( #821 ), #124 ) ;
#702 = AXIS2_PLACEMENT_3D ( 'NONE', #284, #741, #487 ) ;
#703 = DIRECTION ( 'NONE',  ( -0.000000000000000000, 1.000000000000000000, 0.000000000000000000 ) ) ;
#704 =( NAMED_UNIT ( * ) SI_UNIT ( $, .STERADIAN. ) SOLID_ANGLE_UNIT ( ) );
#705 = ORIENTED_EDGE ( 'NONE', *, *, #71, .T. ) ;
#706 = CARTESIAN_POINT ( 'NONE',  ( 0.5500000000000000444, 0.5500000000000000444, 0.05500000000000000028 ) ) ;
#707 = CARTESIAN_POINT ( 'NONE',  ( 0.2500000000000000000, 0.5500000000000000444, 0.000000000000000000 ) ) ;
#708 = EDGE_CURVE ( 'NONE', #213, #841, #665, .T. ) ;
#709 = ORIENTED_EDGE ( 'NONE', *, *, #312, .T. ) ;
#710 = FILL_AREA_STYLE_COLOUR ( '', #777 ) ;
#711 = APPLICATION_CONTEXT ( 'automotive_design' ) ;
#712 = SURFACE_SIDE_STYLE ('',( #521 ) ) ;
#713 = ORIENTED_EDGE ( 'NONE', *, *, #796, .F. ) ;
#714 = DIRECTION ( 'NONE',  ( 0.000000000000000000, 0.000000000000000000, 1.000000000000000000 ) ) ;
#715 = LINE ( 'NONE', #795, #41 ) ;
#716 = AXIS2_PLACEMENT_3D ( 'NONE', #396, #333, #597 ) ;
#717 = STYLED_ITEM ( 'NONE', ( #763 ), #750 ) ;
#718 = PLANE ( 'NONE',  #120 ) ;
#719 = ORIENTED_EDGE ( 'NONE', *, *, #240, .F. ) ;
#720 = DIRECTION ( 'NONE',  ( 0.000000000000000000, 0.000000000000000000, 1.000000000000000000 ) ) ;
#721 = LINE ( 'NONE', #536, #675 ) ;
#722 = EDGE_CURVE ( 'NONE', #11, #525, #721, .T. ) ;
#723 = DIRECTION ( 'NONE',  ( 0.000000000000000000, 0.000000000000000000, 1.000000000000000000 ) ) ;
#724 = ORIENTED_EDGE ( 'NONE', *, *, #306, .T. ) ;
#725 = APPLICATION_PROTOCOL_DEFINITION ( 'draft international standard', 'automotive_design', 1998, #226 ) ;
#726 = PLANE ( 'NONE',  #489 ) ;
#727 = EDGE_CURVE ( 'NONE', #614, #296, #400, .T. ) ;
#728 = LINE ( 'NONE', #313, #630 ) ;
#729 = ORIENTED_EDGE ( 'NONE', *, *, #814, .F. ) ;
#730 = FACE_OUTER_BOUND ( 'NONE', #69, .T. ) ;
#731 = VECTOR ( 'NONE', #685, 1000.000000000000000 ) ;
#732 = MECHANICAL_DESIGN_GEOMETRIC_PRESENTATION_REPRESENTATION (  '', ( #580 ), #209 ) ;
#733 = ORIENTED_EDGE ( 'NONE', *, *, #727, .F. ) ;
#734 = APPLICATION_PROTOCOL_DEFINITION ( 'draft international standard', 'automotive_design', 1998, #664 ) ;
#735 = PRODUCT_DEFINITION_CONTEXT ( 'detailed design', #220, 'design' ) ;
#736 = LINE ( 'NONE', #201, #108 ) ;
#737 = PRODUCT_DEFINITION ( 'UNKNOWN', '', #161, #649 ) ;
#738 = ORIENTED_EDGE ( 'NONE', *, *, #352, .F. ) ;
#739 = ITEM_DEFINED_TRANSFORMATION ( 'NONE', 'NONE', #163,  #518 ) ;
#740 = ADVANCED_FACE ( 'NONE', ( #467 ), #76, .F. ) ;
#741 = DIRECTION ( 'NONE',  ( 0.000000000000000000, 0.000000000000000000, 1.000000000000000000 ) ) ;
#742 = LINE ( 'NONE', #82, #829 ) ;
#743 = SHAPE_DEFINITION_REPRESENTATION ( #355, #273 ) ;
#744 = SHAPE_REPRESENTATION_RELATIONSHIP ( 'NONE' , 'NONE' ,  #666, #537 ) ;
#745 = CARTESIAN_POINT ( 'NONE',  ( 0.000000000000000000, 0.5500000000000000444, 0.5500000000000000444 ) ) ;
#746 =( GEOMETRIC_REPRESENTATION_CONTEXT ( 3 ) GLOBAL_UNCERTAINTY_ASSIGNED_CONTEXT ( ( #479 ) ) GLOBAL_UNIT_ASSIGNED_CONTEXT ( ( #40, #509, #459 ) ) REPRESENTATION_CONTEXT ( 'NONE', 'WORKASPACE' ) );
#747 = DIRECTION ( 'NONE',  ( 0.000000000000000000, 0.000000000000000000, 1.000000000000000000 ) ) ;
#748 = VECTOR ( 'NONE', #63, 1000.000000000000000 ) ;
#749 =( LENGTH_UNIT ( ) NAMED_UNIT ( * ) SI_UNIT ( .MILLI., .METRE. ) );
#750 = ADVANCED_BREP_SHAPE_REPRESENTATION ( '', ( #124, #518 ), #607 ) ;
#751 = FACE_OUTER_BOUND ( 'NONE', #269, .T. ) ;
#752 = LINE ( 'NONE', #673, #803 ) ;
#753 = ITEM_DEFINED_TRANSFORMATION ( 'NONE', 'NONE', #802,  #51 ) ;
#754 = PRESENTATION_STYLE_ASSIGNMENT (( #216 ) ) ;
#755 = DIRECTION ( 'NONE',  ( 1.000000000000000000, 0.000000000000000000, 0.000000000000000000 ) ) ;
#756 = SURFACE_STYLE_FILL_AREA ( #24 ) ;
#757 = VERTEX_POINT ( 'NONE', #454 ) ;
#758 =( NAMED_UNIT ( * ) PLANE_ANGLE_UNIT ( ) SI_UNIT ( $, .RADIAN. ) );
#759 = APPLICATION_CONTEXT ( 'automotive_design' ) ;
#760 = CARTESIAN_POINT ( 'NONE',  ( 0.000000000000000000, 0.000000000000000000, 0.000000000000000000 ) ) ;
#761 = AXIS2_PLACEMENT_3D ( 'NONE', #484, #291, #824 ) ;
#762 =( GEOMETRIC_REPRESENTATION_CONTEXT ( 3 ) GLOBAL_UNCERTAINTY_ASSIGNED_CONTEXT ( ( #669 ) ) GLOBAL_UNIT_ASSIGNED_CONTEXT ( ( #246, #523, #354 ) ) REPRESENTATION_CONTEXT ( 'NONE', 'WORKASPACE' ) );
#763 = PRESENTATION_STYLE_ASSIGNMENT (( #771 ) ) ;
#764 = CARTESIAN_POINT ( 'NONE',  ( 0.2500000000000000000, 0.5500000000000000444, 0.000000000000000000 ) ) ;
#765 = ORIENTED_EDGE ( 'NONE', *, *, #510, .F. ) ;
#766 = FILL_AREA_STYLE ('',( #710 ) ) ;
#767 = EDGE_CURVE ( 'NONE', #388, #257, #715, .T. ) ;
#768 = CARTESIAN_POINT ( 'NONE',  ( 0.05500000000000000028, 0.000000000000000000, 0.05500000000000000028 ) ) ;
#769 = FACE_OUTER_BOUND ( 'NONE', #59, .T. ) ;
#770 = EDGE_LOOP ( 'NONE', ( #424, #512, #504, #191 ) ) ;
#771 = SURFACE_STYLE_USAGE ( .BOTH. , #380 ) ;
#772 = DIRECTION ( 'NONE',  ( 0.000000000000000000, 0.000000000000000000, 1.000000000000000000 ) ) ;
#773 = DIRECTION ( 'NONE',  ( 0.000000000000000000, 0.000000000000000000, 1.000000000000000000 ) ) ;
#774 = ORIENTED_EDGE ( 'NONE', *, *, #708, .T. ) ;
#775 = COLOUR_RGB ( '',0.8000000000000000444, 0.8000000000000000444, 0.8000000000000000444 ) ;
#776 = CARTESIAN_POINT ( 'NONE',  ( 0.000000000000000000, 0.000000000000000000, 0.05500000000000000028 ) ) ;
#777 = COLOUR_RGB ( '',0.5019607843137254832, 0.5019607843137254832, 0.5019607843137254832 ) ;
#778 = CARTESIAN_POINT ( 'NONE',  ( 0.05500000000000000028, 0.000000000000000000, 0.4949999999999999956 ) ) ;
#779 = ORIENTED_EDGE ( 'NONE', *, *, #626, .F. ) ;
#780 = CARTESIAN_POINT ( 'NONE',  ( 0.5500000000000000444, 0.5500000000000000444, 0.000000000000000000 ) ) ;
#781 = ORIENTED_EDGE ( 'NONE', *, *, #641, .T. ) ;
#782 =( LENGTH_UNIT ( ) NAMED_UNIT ( * ) SI_UNIT ( .MILLI., .METRE. ) );
#783 = DIRECTION ( 'NONE',  ( 0.000000000000000000, 0.000000000000000000, 1.000000000000000000 ) ) ;
#784 = CARTESIAN_POINT ( 'NONE',  ( 0.2500000000000000000, 0.000000000000000000, 0.000000000000000000 ) ) ;
#785 = ORIENTED_EDGE ( 'NONE', *, *, #80, .T. ) ;
#786 = DIRECTION ( 'NONE',  ( 0.000000000000000000, 0.000000000000000000, 1.000000000000000000 ) ) ;
#787 = PRODUCT_DEFINITION_CONTEXT ( 'detailed design', #338, 'design' ) ;
#788 = EDGE_CURVE ( 'NONE', #605, #296, #121, .T. ) ;
#789 = PRODUCT_DEFINITION_FORMATION_WITH_SPECIFIED_SOURCE ( 'ANY', '', #399, .NOT_KNOWN. ) ;
#790 = VECTOR ( 'NONE', #543, 1000.000000000000000 ) ;
#791 = AXIS2_PLACEMENT_3D ( 'NONE', #526, #650, #540 ) ;
#792 = DIRECTION ( 'NONE',  ( 1.000000000000000000, 0.000000000000000000, 0.000000000000000000 ) ) ;
#793 = EDGE_LOOP ( 'NONE', ( #452, #239, #644, #774 ) ) ;
#794 =( NAMED_UNIT ( * ) PLANE_ANGLE_UNIT ( ) SI_UNIT ( $, .RADIAN. ) );
#795 = CARTESIAN_POINT ( 'NONE',  ( 0.5500000000000000444, 0.000000000000000000, 0.000000000000000000 ) ) ;
#796 = EDGE_CURVE ( 'NONE', #572, #27, #5, .T. ) ;
#797 = DIRECTION ( 'NONE',  ( 0.000000000000000000, -1.000000000000000000, 0.000000000000000000 ) ) ;
#798 = ORIENTED_EDGE ( 'NONE', *, *, #390, .F. ) ;
#799 = DIRECTION ( 'NONE',  ( 0.000000000000000000, 1.000000000000000000, 0.000000000000000000 ) ) ;
#800 = CARTESIAN_POINT ( 'NONE',  ( 0.000000000000000000, 0.000000000000000000, 0.05500000000000000028 ) ) ;
#801 = LINE ( 'NONE', #194, #248 ) ;
#802 = AXIS2_PLACEMENT_3D ( 'NONE', #253, #539, #264 ) ;
#803 = VECTOR ( 'NONE', #139, 1000.000000000000000 ) ;
#804 = VECTOR ( 'NONE', #462, 1000.000000000000000 ) ;
#805 = ADVANCED_FACE ( 'NONE', ( #586 ), #726, .T. ) ;
#806 = ORIENTED_EDGE ( 'NONE', *, *, #814, .T. ) ;
#807 = UNCERTAINTY_MEASURE_WITH_UNIT (LENGTH_MEASURE( 1.000000000000000082E-05 ), #612, 'distance_accuracy_value', 'NONE');
#808 = CARTESIAN_POINT ( 'NONE',  ( 0.000000000000000000, 0.000000000000000000, 0.000000000000000000 ) ) ;
#809 = ORIENTED_EDGE ( 'NONE', *, *, #306, .F. ) ;
#810 = PRODUCT ( 'Open CASCADE STEP translator 7.5 6.2.1.step_\X2\9ed88ba4\X0\', 'Open CASCADE STEP translator 7.5 6.2.1.step_\X2\9ed88ba4\X0\', '', ( #408 ) ) ;
#811 = CARTESIAN_POINT ( 'NONE',  ( 0.000000000000000000, 0.5500000000000000444, 0.05500000000000000028 ) ) ;
#812 = ORIENTED_EDGE ( 'NONE', *, *, #14, .F. ) ;
#813 = CARTESIAN_POINT ( 'NONE',  ( 0.000000000000000000, 0.5500000000000000444, 0.000000000000000000 ) ) ;
#814 = EDGE_CURVE ( 'NONE', #263, #757, #736, .T. ) ;
#815 = DIRECTION ( 'NONE',  ( 1.000000000000000000, 0.000000000000000000, 0.000000000000000000 ) ) ;
#816 = VECTOR ( 'NONE', #33, 1000.000000000000000 ) ;
#817 = ORIENTED_EDGE ( 'NONE', *, *, #500, .T. ) ;
#818 = CONTEXT_DEPENDENT_SHAPE_REPRESENTATION ( #271, #32 ) ;
#819 = ADVANCED_FACE ( 'NONE', ( #730 ), #676, .T. ) ;
#820 = DIRECTION ( 'NONE',  ( 0.000000000000000000, 0.000000000000000000, 1.000000000000000000 ) ) ;
#821 = PRESENTATION_STYLE_ASSIGNMENT (( #507 ) ) ;
#822 = CONTEXT_DEPENDENT_SHAPE_REPRESENTATION ( #497, #65 ) ;
#823 =( LENGTH_UNIT ( ) NAMED_UNIT ( * ) SI_UNIT ( .MILLI., .METRE. ) );
#824 = DIRECTION ( 'NONE',  ( 0.000000000000000000, 1.000000000000000000, 0.000000000000000000 ) ) ;
#825 = FACE_OUTER_BOUND ( 'NONE', #310, .T. ) ;
#826 = EDGE_LOOP ( 'NONE', ( #806, #141, #130, #125 ) ) ;
#827 = CARTESIAN_POINT ( 'NONE',  ( 0.000000000000000000, 0.000000000000000000, 0.5500000000000000444 ) ) ;
#828 = PRODUCT_RELATED_PRODUCT_CATEGORY ( 'part', '', ( #810 ) ) ;
#829 = VECTOR ( 'NONE', #344, 1000.000000000000000 ) ;
#830 = VECTOR ( 'NONE', #820, 1000.000000000000000 ) ;
#831 =( REPRESENTATION_RELATIONSHIP ('NONE','NONE', #34, #273 ) REPRESENTATION_RELATIONSHIP_WITH_TRANSFORMATION ( #753 )SHAPE_REPRESENTATION_RELATIONSHIP( ) );
#832 = DIRECTION ( 'NONE',  ( -0.000000000000000000, 1.000000000000000000, 0.000000000000000000 ) ) ;
#833 = DIRECTION ( 'NONE',  ( -0.000000000000000000, 1.000000000000000000, 0.000000000000000000 ) ) ;
#834 = SURFACE_STYLE_USAGE ( .BOTH. , #696 ) ;
#835 = FACE_OUTER_BOUND ( 'NONE', #153, .T. ) ;
#836 = DIRECTION ( 'NONE',  ( -0.000000000000000000, 1.000000000000000000, 0.000000000000000000 ) ) ;
#837 = ORIENTED_EDGE ( 'NONE', *, *, #233, .T. ) ;
#838 = DIRECTION ( 'NONE',  ( 0.000000000000000000, 1.000000000000000000, 0.000000000000000000 ) ) ;
#839 = EDGE_CURVE ( 'NONE', #446, #186, #358, .T. ) ;
#840 = DIRECTION ( 'NONE',  ( 0.000000000000000000, 0.000000000000000000, 1.000000000000000000 ) ) ;
#841 = VERTEX_POINT ( 'NONE', #813 ) ;
#842 = LINE ( 'NONE', #262, #687 ) ;
#843 = ORIENTED_EDGE ( 'NONE', *, *, #70, .T. ) ;
#844 = CARTESIAN_POINT ( 'NONE',  ( 0.5250000000000000222, 0.2750000000000000222, 0.000000000000000000 ) ) ;
#845 = DIRECTION ( 'NONE',  ( 1.000000000000000000, 0.000000000000000000, 0.000000000000000000 ) ) ;
#846 = CARTESIAN_POINT ( 'NONE',  ( 0.05500000000000000028, 0.000000000000000000, 0.4949999999999999956 ) ) ;
#847 = ORIENTED_EDGE ( 'NONE', *, *, #102, .T. ) ;
#848 = PRESENTATION_STYLE_ASSIGNMENT (( #128 ) ) ;
#849 = LINE ( 'NONE', #417, #382 ) ;
#850 = EDGE_CURVE ( 'NONE', #361, #319, #622, .T. ) ;
#851 = ORIENTED_EDGE ( 'NONE', *, *, #348, .F. ) ;
#852 = DIRECTION ( 'NONE',  ( 0.000000000000000000, 0.000000000000000000, 1.000000000000000000 ) ) ;
#853 = DIRECTION ( 'NONE',  ( 1.000000000000000000, 0.000000000000000000, 0.000000000000000000 ) ) ;
#854 =( LENGTH_UNIT ( ) NAMED_UNIT ( * ) SI_UNIT ( .MILLI., .METRE. ) );
#855 = NEXT_ASSEMBLY_USAGE_OCCURRENCE ( 'NAUO1', ' ', ' ', #698, #329, $ ) ;
#856 = NEXT_ASSEMBLY_USAGE_OCCURRENCE ( 'NAUO2', ' ', ' ', #329, #56, $ ) ;
#857 = NEXT_ASSEMBLY_USAGE_OCCURRENCE ( 'NAUO3', ' ', ' ', #329, #56, $ ) ;
#858 = NEXT_ASSEMBLY_USAGE_OCCURRENCE ( 'NAUO4', ' ', ' ', #329, #29, $ ) ;
#859 = NEXT_ASSEMBLY_USAGE_OCCURRENCE ( 'NAUO5', ' ', ' ', #329, #513, $ ) ;
#860 = NEXT_ASSEMBLY_USAGE_OCCURRENCE ( 'NAUO6', ' ', ' ', #56, #737, $ ) ;
ENDSEC;
END-ISO-10303-21;
