ISO-10303-21;
HEADER;
FILE_DESCRIPTION(('Open CASCADE Model'),'2;1');
FILE_NAME('Open CASCADE Shape Model','2025-10-13T01:02:43',('Author'),(
    'Open CASCADE'),'Open CASCADE STEP processor 7.5','Open CASCADE 7.5'
  ,'Unknown');
FILE_SCHEMA(('AUTOMOTIVE_DESIGN { 1 0 10303 214 1 1 1 1 }'));
ENDSEC;
DATA;
#1 = APPLICATION_PROTOCOL_DEFINITION('international standard',
  'automotive_design',2000,#2);
#2 = APPLICATION_CONTEXT(
  'core data for automotive mechanical design processes');
#3 = SHAPE_DEFINITION_REPRESENTATION(#4,#10);
#4 = PRODUCT_DEFINITION_SHAPE('','',#5);
#5 = PRODUCT_DEFINITION('design','',#6,#9);
#6 = PRODUCT_DEFINITION_FORMATION('','',#7);
#7 = PRODUCT('PCB','PCB','',(#8));
#8 = PRODUCT_CONTEXT('',#2,'mechanical');
#9 = PRODUCT_DEFINITION_CONTEXT('part definition',#2,'design');
#10 = SHAPE_REPRESENTATION('',(#11),#15);
#11 = AXIS2_PLACEMENT_3D('',#12,#13,#14);
#12 = CARTESIAN_POINT('',(0.,0.,0.));
#13 = DIRECTION('',(0.,0.,1.));
#14 = DIRECTION('',(1.,0.,-0.));
#15 = ( GEOMETRIC_REPRESENTATION_CONTEXT(3) 
GLOBAL_UNCERTAINTY_ASSIGNED_CONTEXT((#19)) GLOBAL_UNIT_ASSIGNED_CONTEXT(
(#16,#17,#18)) REPRESENTATION_CONTEXT('Context #1',
  '3D Context with UNIT and UNCERTAINTY') );
#16 = ( LENGTH_UNIT() NAMED_UNIT(*) SI_UNIT(.MILLI.,.METRE.) );
#17 = ( NAMED_UNIT(*) PLANE_ANGLE_UNIT() SI_UNIT($,.RADIAN.) );
#18 = ( NAMED_UNIT(*) SI_UNIT($,.STERADIAN.) SOLID_ANGLE_UNIT() );
#19 = UNCERTAINTY_MEASURE_WITH_UNIT(LENGTH_MEASURE(1.E-07),#16,
  'distance_accuracy_value','confusion accuracy');
#20 = PRODUCT_RELATED_PRODUCT_CATEGORY('part',$,(#7));
#21 = SHAPE_DEFINITION_REPRESENTATION(#22,#28);
#22 = PRODUCT_DEFINITION_SHAPE('','',#23);
#23 = PRODUCT_DEFINITION('design','',#24,#27);
#24 = PRODUCT_DEFINITION_FORMATION('','',#25);
#25 = PRODUCT('Designator1','Designator1','',(#26));
#26 = PRODUCT_CONTEXT('',#2,'mechanical');
#27 = PRODUCT_DEFINITION_CONTEXT('part definition',#2,'design');
#28 = SHAPE_REPRESENTATION('',(#11,#29),#33);
#29 = AXIS2_PLACEMENT_3D('',#30,#31,#32);
#30 = CARTESIAN_POINT('',(0.,0.,0.));
#31 = DIRECTION('',(0.,0.,1.));
#32 = DIRECTION('',(1.,0.,0.));
#33 = ( GEOMETRIC_REPRESENTATION_CONTEXT(3) 
GLOBAL_UNCERTAINTY_ASSIGNED_CONTEXT((#37)) GLOBAL_UNIT_ASSIGNED_CONTEXT(
(#34,#35,#36)) REPRESENTATION_CONTEXT('Context #1',
  '3D Context with UNIT and UNCERTAINTY') );
#34 = ( LENGTH_UNIT() NAMED_UNIT(*) SI_UNIT(.MILLI.,.METRE.) );
#35 = ( NAMED_UNIT(*) PLANE_ANGLE_UNIT() SI_UNIT($,.RADIAN.) );
#36 = ( NAMED_UNIT(*) SI_UNIT($,.STERADIAN.) SOLID_ANGLE_UNIT() );
#37 = UNCERTAINTY_MEASURE_WITH_UNIT(LENGTH_MEASURE(1.E-07),#34,
  'distance_accuracy_value','confusion accuracy');
#38 = PRODUCT_RELATED_PRODUCT_CATEGORY('part',$,(#25));
#39 = SHAPE_DEFINITION_REPRESENTATION(#40,#46);
#40 = PRODUCT_DEFINITION_SHAPE('','',#41);
#41 = PRODUCT_DEFINITION('design','',#42,#45);
#42 = PRODUCT_DEFINITION_FORMATION('','',#43);
#43 = PRODUCT('12973519200','12973519200','',(#44));
#44 = PRODUCT_CONTEXT('',#2,'mechanical');
#45 = PRODUCT_DEFINITION_CONTEXT('part definition',#2,'design');
#46 = SHAPE_REPRESENTATION('',(#11,#47,#51,#55,#59,#63,#67,#71,#75,#79,
    #83,#87,#91,#95,#99,#103,#107,#111,#115),#119);
#47 = AXIS2_PLACEMENT_3D('',#48,#49,#50);
#48 = CARTESIAN_POINT('',(-0.925,-1.325,0.));
#49 = DIRECTION('',(0.,0.,1.));
#50 = DIRECTION('',(1.,0.,0.));
#51 = AXIS2_PLACEMENT_3D('',#52,#53,#54);
#52 = CARTESIAN_POINT('',(-0.925,-1.325,0.));
#53 = DIRECTION('',(0.,0.,1.));
#54 = DIRECTION('',(1.,0.,0.));
#55 = AXIS2_PLACEMENT_3D('',#56,#57,#58);
#56 = CARTESIAN_POINT('',(-0.925,-0.7,0.));
#57 = DIRECTION('',(0.,0.,1.));
#58 = DIRECTION('',(1.,0.,0.));
#59 = AXIS2_PLACEMENT_3D('',#60,#61,#62);
#60 = CARTESIAN_POINT('',(0.925,0.7,0.));
#61 = DIRECTION('',(0.,0.,1.));
#62 = DIRECTION('',(-1.,1.224646799147E-16,0.));
#63 = AXIS2_PLACEMENT_3D('',#64,#65,#66);
#64 = CARTESIAN_POINT('',(-0.925,-0.3,0.));
#65 = DIRECTION('',(0.,0.,1.));
#66 = DIRECTION('',(1.,0.,0.));
#67 = AXIS2_PLACEMENT_3D('',#68,#69,#70);
#68 = CARTESIAN_POINT('',(0.925,0.3,0.));
#69 = DIRECTION('',(0.,0.,1.));
#70 = DIRECTION('',(-1.,1.224646799147E-16,0.));
#71 = AXIS2_PLACEMENT_3D('',#72,#73,#74);
#72 = CARTESIAN_POINT('',(-0.925,0.1,0.));
#73 = DIRECTION('',(0.,0.,1.));
#74 = DIRECTION('',(1.,0.,0.));
#75 = AXIS2_PLACEMENT_3D('',#76,#77,#78);
#76 = CARTESIAN_POINT('',(0.925,-0.1,0.));
#77 = DIRECTION('',(0.,0.,1.));
#78 = DIRECTION('',(-1.,1.224646799147E-16,0.));
#79 = AXIS2_PLACEMENT_3D('',#80,#81,#82);
#80 = CARTESIAN_POINT('',(-0.925,0.5,0.));
#81 = DIRECTION('',(0.,0.,1.));
#82 = DIRECTION('',(1.,0.,0.));
#83 = AXIS2_PLACEMENT_3D('',#84,#85,#86);
#84 = CARTESIAN_POINT('',(0.925,-0.5,0.));
#85 = DIRECTION('',(0.,0.,1.));
#86 = DIRECTION('',(-1.,1.224646799147E-16,0.));
#87 = AXIS2_PLACEMENT_3D('',#88,#89,#90);
#88 = CARTESIAN_POINT('',(-0.5,-1.325,0.));
#89 = DIRECTION('',(0.,-0.,1.));
#90 = DIRECTION('',(1.110223024625E-16,1.,0.));
#91 = AXIS2_PLACEMENT_3D('',#92,#93,#94);
#92 = CARTESIAN_POINT('',(0.5,1.325,0.));
#93 = DIRECTION('',(0.,0.,1.));
#94 = DIRECTION('',(-2.334869823773E-16,-1.,0.));
#95 = AXIS2_PLACEMENT_3D('',#96,#97,#98);
#96 = CARTESIAN_POINT('',(-0.1,-1.325,0.));
#97 = DIRECTION('',(0.,-0.,1.));
#98 = DIRECTION('',(1.110223024625E-16,1.,0.));
#99 = AXIS2_PLACEMENT_3D('',#100,#101,#102);
#100 = CARTESIAN_POINT('',(0.1,1.325,0.));
#101 = DIRECTION('',(0.,0.,1.));
#102 = DIRECTION('',(-2.334869823773E-16,-1.,0.));
#103 = AXIS2_PLACEMENT_3D('',#104,#105,#106);
#104 = CARTESIAN_POINT('',(0.3,-1.325,0.));
#105 = DIRECTION('',(0.,-0.,1.));
#106 = DIRECTION('',(1.110223024625E-16,1.,0.));
#107 = AXIS2_PLACEMENT_3D('',#108,#109,#110);
#108 = CARTESIAN_POINT('',(-0.3,1.325,0.));
#109 = DIRECTION('',(0.,0.,1.));
#110 = DIRECTION('',(-2.334869823773E-16,-1.,0.));
#111 = AXIS2_PLACEMENT_3D('',#112,#113,#114);
#112 = CARTESIAN_POINT('',(0.7,-1.325,0.));
#113 = DIRECTION('',(0.,-0.,1.));
#114 = DIRECTION('',(1.110223024625E-16,1.,0.));
#115 = AXIS2_PLACEMENT_3D('',#116,#117,#118);
#116 = CARTESIAN_POINT('',(-0.7,1.325,0.));
#117 = DIRECTION('',(0.,0.,1.));
#118 = DIRECTION('',(-2.334869823773E-16,-1.,0.));
#119 = ( GEOMETRIC_REPRESENTATION_CONTEXT(3) 
GLOBAL_UNCERTAINTY_ASSIGNED_CONTEXT((#123)) GLOBAL_UNIT_ASSIGNED_CONTEXT
((#120,#121,#122)) REPRESENTATION_CONTEXT('Context #1',
  '3D Context with UNIT and UNCERTAINTY') );
#120 = ( LENGTH_UNIT() NAMED_UNIT(*) SI_UNIT(.MILLI.,.METRE.) );
#121 = ( NAMED_UNIT(*) PLANE_ANGLE_UNIT() SI_UNIT($,.RADIAN.) );
#122 = ( NAMED_UNIT(*) SI_UNIT($,.STERADIAN.) SOLID_ANGLE_UNIT() );
#123 = UNCERTAINTY_MEASURE_WITH_UNIT(LENGTH_MEASURE(1.E-07),#120,
  'distance_accuracy_value','confusion accuracy');
#124 = MANIFOLD_SURFACE_SHAPE_REPRESENTATION('',(#11,#125),#144);
#125 = SHELL_BASED_SURFACE_MODEL('',(#126));
#126 = OPEN_SHELL('',(#127));
#127 = ADVANCED_FACE('',(#128),#139,.T.);
#128 = FACE_BOUND('',#129,.T.);
#129 = EDGE_LOOP('',(#130));
#130 = ORIENTED_EDGE('',*,*,#131,.T.);
#131 = EDGE_CURVE('',#132,#132,#134,.T.);
#132 = VERTEX_POINT('',#133);
#133 = CARTESIAN_POINT('',(0.423958333333,2.341666666667,0.451));
#134 = CIRCLE('',#135,0.115625);
#135 = AXIS2_PLACEMENT_3D('',#136,#137,#138);
#136 = CARTESIAN_POINT('',(0.308333333333,2.341666666667,0.451));
#137 = DIRECTION('',(0.,0.,1.));
#138 = DIRECTION('',(1.,0.,-0.));
#139 = PLANE('',#140);
#140 = AXIS2_PLACEMENT_3D('',#141,#142,#143);
#141 = CARTESIAN_POINT('',(0.308333333333,2.341666666667,0.451));
#142 = DIRECTION('',(-3.073234595456E-31,-3.72629694699E-30,1.));
#143 = DIRECTION('',(0.,1.,3.72629694699E-30));
#144 = ( GEOMETRIC_REPRESENTATION_CONTEXT(3) 
GLOBAL_UNCERTAINTY_ASSIGNED_CONTEXT((#148)) GLOBAL_UNIT_ASSIGNED_CONTEXT
((#145,#146,#147)) REPRESENTATION_CONTEXT('Context #1',
  '3D Context with UNIT and UNCERTAINTY') );
#145 = ( LENGTH_UNIT() NAMED_UNIT(*) SI_UNIT(.MILLI.,.METRE.) );
#146 = ( NAMED_UNIT(*) PLANE_ANGLE_UNIT() SI_UNIT($,.RADIAN.) );
#147 = ( NAMED_UNIT(*) SI_UNIT($,.STERADIAN.) SOLID_ANGLE_UNIT() );
#148 = UNCERTAINTY_MEASURE_WITH_UNIT(LENGTH_MEASURE(1.E-07),#145,
  'distance_accuracy_value','confusion accuracy');
#149 = SHAPE_DEFINITION_REPRESENTATION(#150,#124);
#150 = PRODUCT_DEFINITION_SHAPE('','',#151);
#151 = PRODUCT_DEFINITION('design','',#152,#155);
#152 = PRODUCT_DEFINITION_FORMATION('','',#153);
#153 = PRODUCT('Open CASCADE STEP translator 7.5 102.1',
  'Open CASCADE STEP translator 7.5 102.1','',(#154));
#154 = PRODUCT_CONTEXT('',#2,'mechanical');
#155 = PRODUCT_DEFINITION_CONTEXT('part definition',#2,'design');
#156 = CONTEXT_DEPENDENT_SHAPE_REPRESENTATION(#157,#159);
#157 = ( REPRESENTATION_RELATIONSHIP('','',#124,#46) 
REPRESENTATION_RELATIONSHIP_WITH_TRANSFORMATION(#158) 
SHAPE_REPRESENTATION_RELATIONSHIP() );
#158 = ITEM_DEFINED_TRANSFORMATION('','',#11,#47);
#159 = PRODUCT_DEFINITION_SHAPE('Placement','Placement of an item',#160
  );
#160 = NEXT_ASSEMBLY_USAGE_OCCURRENCE('1918','1898','',#41,#151,$);
#161 = PRODUCT_RELATED_PRODUCT_CATEGORY('part',$,(#153));
#162 = SHAPE_DEFINITION_REPRESENTATION(#163,#169);
#163 = PRODUCT_DEFINITION_SHAPE('','',#164);
#164 = PRODUCT_DEFINITION('design','',#165,#168);
#165 = PRODUCT_DEFINITION_FORMATION('','',#166);
#166 = PRODUCT('Body','Body','',(#167));
#167 = PRODUCT_CONTEXT('',#2,'mechanical');
#168 = PRODUCT_DEFINITION_CONTEXT('part definition',#2,'design');
#169 = SHAPE_REPRESENTATION('',(#11,#170),#174);
#170 = AXIS2_PLACEMENT_3D('',#171,#172,#173);
#171 = CARTESIAN_POINT('',(0.,0.,0.));
#172 = DIRECTION('',(0.,0.,1.));
#173 = DIRECTION('',(1.,0.,0.));
#174 = ( GEOMETRIC_REPRESENTATION_CONTEXT(3) 
GLOBAL_UNCERTAINTY_ASSIGNED_CONTEXT((#178)) GLOBAL_UNIT_ASSIGNED_CONTEXT
((#175,#176,#177)) REPRESENTATION_CONTEXT('Context #1',
  '3D Context with UNIT and UNCERTAINTY') );
#175 = ( LENGTH_UNIT() NAMED_UNIT(*) SI_UNIT(.MILLI.,.METRE.) );
#176 = ( NAMED_UNIT(*) PLANE_ANGLE_UNIT() SI_UNIT($,.RADIAN.) );
#177 = ( NAMED_UNIT(*) SI_UNIT($,.STERADIAN.) SOLID_ANGLE_UNIT() );
#178 = UNCERTAINTY_MEASURE_WITH_UNIT(LENGTH_MEASURE(1.E-07),#175,
  'distance_accuracy_value','confusion accuracy');
#179 = ADVANCED_BREP_SHAPE_REPRESENTATION('',(#11,#180),#375);
#180 = MANIFOLD_SOLID_BREP('',#181);
#181 = CLOSED_SHELL('',(#182,#222,#253,#288,#312,#329,#341,#366));
#182 = ADVANCED_FACE('',(#183),#217,.F.);
#183 = FACE_BOUND('',#184,.F.);
#184 = EDGE_LOOP('',(#185,#195,#203,#211));
#185 = ORIENTED_EDGE('',*,*,#186,.F.);
#186 = EDGE_CURVE('',#187,#189,#191,.T.);
#187 = VERTEX_POINT('',#188);
#188 = CARTESIAN_POINT('',(0.,0.,5.E-02));
#189 = VERTEX_POINT('',#190);
#190 = CARTESIAN_POINT('',(0.,0.,0.55));
#191 = LINE('',#192,#193);
#192 = CARTESIAN_POINT('',(0.,0.,5.E-02));
#193 = VECTOR('',#194,1.);
#194 = DIRECTION('',(0.,0.,1.));
#195 = ORIENTED_EDGE('',*,*,#196,.T.);
#196 = EDGE_CURVE('',#187,#197,#199,.T.);
#197 = VERTEX_POINT('',#198);
#198 = CARTESIAN_POINT('',(0.,2.65,5.E-02));
#199 = LINE('',#200,#201);
#200 = CARTESIAN_POINT('',(0.,0.,5.E-02));
#201 = VECTOR('',#202,1.);
#202 = DIRECTION('',(-0.,1.,0.));
#203 = ORIENTED_EDGE('',*,*,#204,.T.);
#204 = EDGE_CURVE('',#197,#205,#207,.T.);
#205 = VERTEX_POINT('',#206);
#206 = CARTESIAN_POINT('',(0.,2.65,0.55));
#207 = LINE('',#208,#209);
#208 = CARTESIAN_POINT('',(0.,2.65,5.E-02));
#209 = VECTOR('',#210,1.);
#210 = DIRECTION('',(0.,0.,1.));
#211 = ORIENTED_EDGE('',*,*,#212,.F.);
#212 = EDGE_CURVE('',#189,#205,#213,.T.);
#213 = LINE('',#214,#215);
#214 = CARTESIAN_POINT('',(0.,0.,0.55));
#215 = VECTOR('',#216,1.);
#216 = DIRECTION('',(-0.,1.,0.));
#217 = PLANE('',#218);
#218 = AXIS2_PLACEMENT_3D('',#219,#220,#221);
#219 = CARTESIAN_POINT('',(0.,0.,5.E-02));
#220 = DIRECTION('',(1.,0.,-0.));
#221 = DIRECTION('',(0.,0.,1.));
#222 = ADVANCED_FACE('',(#223),#248,.F.);
#223 = FACE_BOUND('',#224,.F.);
#224 = EDGE_LOOP('',(#225,#233,#234,#242));
#225 = ORIENTED_EDGE('',*,*,#226,.F.);
#226 = EDGE_CURVE('',#187,#227,#229,.T.);
#227 = VERTEX_POINT('',#228);
#228 = CARTESIAN_POINT('',(1.85,0.,5.E-02));
#229 = LINE('',#230,#231);
#230 = CARTESIAN_POINT('',(0.,0.,5.E-02));
#231 = VECTOR('',#232,1.);
#232 = DIRECTION('',(1.,0.,-0.));
#233 = ORIENTED_EDGE('',*,*,#186,.T.);
#234 = ORIENTED_EDGE('',*,*,#235,.T.);
#235 = EDGE_CURVE('',#189,#236,#238,.T.);
#236 = VERTEX_POINT('',#237);
#237 = CARTESIAN_POINT('',(1.85,0.,0.55));
#238 = LINE('',#239,#240);
#239 = CARTESIAN_POINT('',(0.,0.,0.55));
#240 = VECTOR('',#241,1.);
#241 = DIRECTION('',(1.,0.,-0.));
#242 = ORIENTED_EDGE('',*,*,#243,.F.);
#243 = EDGE_CURVE('',#227,#236,#244,.T.);
#244 = LINE('',#245,#246);
#245 = CARTESIAN_POINT('',(1.85,0.,5.E-02));
#246 = VECTOR('',#247,1.);
#247 = DIRECTION('',(0.,0.,1.));
#248 = PLANE('',#249);
#249 = AXIS2_PLACEMENT_3D('',#250,#251,#252);
#250 = CARTESIAN_POINT('',(0.,0.,5.E-02));
#251 = DIRECTION('',(-0.,1.,0.));
#252 = DIRECTION('',(0.,0.,1.));
#253 = ADVANCED_FACE('',(#254,#272),#283,.T.);
#254 = FACE_BOUND('',#255,.T.);
#255 = EDGE_LOOP('',(#256,#257,#258,#266));
#256 = ORIENTED_EDGE('',*,*,#212,.F.);
#257 = ORIENTED_EDGE('',*,*,#235,.T.);
#258 = ORIENTED_EDGE('',*,*,#259,.T.);
#259 = EDGE_CURVE('',#236,#260,#262,.T.);
#260 = VERTEX_POINT('',#261);
#261 = CARTESIAN_POINT('',(1.85,2.65,0.55));
#262 = LINE('',#263,#264);
#263 = CARTESIAN_POINT('',(1.85,0.,0.55));
#264 = VECTOR('',#265,1.);
#265 = DIRECTION('',(-0.,1.,0.));
#266 = ORIENTED_EDGE('',*,*,#267,.F.);
#267 = EDGE_CURVE('',#205,#260,#268,.T.);
#268 = LINE('',#269,#270);
#269 = CARTESIAN_POINT('',(0.,2.65,0.55));
#270 = VECTOR('',#271,1.);
#271 = DIRECTION('',(1.,0.,-0.));
#272 = FACE_BOUND('',#273,.T.);
#273 = EDGE_LOOP('',(#274));
#274 = ORIENTED_EDGE('',*,*,#275,.F.);
#275 = EDGE_CURVE('',#276,#276,#278,.T.);
#276 = VERTEX_POINT('',#277);
#277 = CARTESIAN_POINT('',(0.423958333333,2.341666666667,0.55));
#278 = CIRCLE('',#279,0.115625);
#279 = AXIS2_PLACEMENT_3D('',#280,#281,#282);
#280 = CARTESIAN_POINT('',(0.308333333333,2.341666666667,0.55));
#281 = DIRECTION('',(0.,0.,1.));
#282 = DIRECTION('',(1.,0.,-0.));
#283 = PLANE('',#284);
#284 = AXIS2_PLACEMENT_3D('',#285,#286,#287);
#285 = CARTESIAN_POINT('',(0.,0.,0.55));
#286 = DIRECTION('',(0.,0.,1.));
#287 = DIRECTION('',(1.,0.,-0.));
#288 = ADVANCED_FACE('',(#289),#307,.T.);
#289 = FACE_BOUND('',#290,.T.);
#290 = EDGE_LOOP('',(#291,#299,#300,#301));
#291 = ORIENTED_EDGE('',*,*,#292,.F.);
#292 = EDGE_CURVE('',#197,#293,#295,.T.);
#293 = VERTEX_POINT('',#294);
#294 = CARTESIAN_POINT('',(1.85,2.65,5.E-02));
#295 = LINE('',#296,#297);
#296 = CARTESIAN_POINT('',(0.,2.65,5.E-02));
#297 = VECTOR('',#298,1.);
#298 = DIRECTION('',(1.,0.,-0.));
#299 = ORIENTED_EDGE('',*,*,#204,.T.);
#300 = ORIENTED_EDGE('',*,*,#267,.T.);
#301 = ORIENTED_EDGE('',*,*,#302,.F.);
#302 = EDGE_CURVE('',#293,#260,#303,.T.);
#303 = LINE('',#304,#305);
#304 = CARTESIAN_POINT('',(1.85,2.65,5.E-02));
#305 = VECTOR('',#306,1.);
#306 = DIRECTION('',(0.,0.,1.));
#307 = PLANE('',#308);
#308 = AXIS2_PLACEMENT_3D('',#309,#310,#311);
#309 = CARTESIAN_POINT('',(0.,2.65,5.E-02));
#310 = DIRECTION('',(-0.,1.,0.));
#311 = DIRECTION('',(0.,0.,1.));
#312 = ADVANCED_FACE('',(#313),#324,.F.);
#313 = FACE_BOUND('',#314,.F.);
#314 = EDGE_LOOP('',(#315,#316,#317,#323));
#315 = ORIENTED_EDGE('',*,*,#196,.F.);
#316 = ORIENTED_EDGE('',*,*,#226,.T.);
#317 = ORIENTED_EDGE('',*,*,#318,.T.);
#318 = EDGE_CURVE('',#227,#293,#319,.T.);
#319 = LINE('',#320,#321);
#320 = CARTESIAN_POINT('',(1.85,0.,5.E-02));
#321 = VECTOR('',#322,1.);
#322 = DIRECTION('',(-0.,1.,0.));
#323 = ORIENTED_EDGE('',*,*,#292,.F.);
#324 = PLANE('',#325);
#325 = AXIS2_PLACEMENT_3D('',#326,#327,#328);
#326 = CARTESIAN_POINT('',(0.,0.,5.E-02));
#327 = DIRECTION('',(0.,0.,1.));
#328 = DIRECTION('',(1.,0.,-0.));
#329 = ADVANCED_FACE('',(#330),#336,.T.);
#330 = FACE_BOUND('',#331,.T.);
#331 = EDGE_LOOP('',(#332,#333,#334,#335));
#332 = ORIENTED_EDGE('',*,*,#243,.F.);
#333 = ORIENTED_EDGE('',*,*,#318,.T.);
#334 = ORIENTED_EDGE('',*,*,#302,.T.);
#335 = ORIENTED_EDGE('',*,*,#259,.F.);
#336 = PLANE('',#337);
#337 = AXIS2_PLACEMENT_3D('',#338,#339,#340);
#338 = CARTESIAN_POINT('',(1.85,0.,5.E-02));
#339 = DIRECTION('',(1.,0.,-0.));
#340 = DIRECTION('',(0.,0.,1.));
#341 = ADVANCED_FACE('',(#342),#361,.F.);
#342 = FACE_BOUND('',#343,.F.);
#343 = EDGE_LOOP('',(#344,#345,#353,#360));
#344 = ORIENTED_EDGE('',*,*,#275,.F.);
#345 = ORIENTED_EDGE('',*,*,#346,.F.);
#346 = EDGE_CURVE('',#347,#276,#349,.T.);
#347 = VERTEX_POINT('',#348);
#348 = CARTESIAN_POINT('',(0.423958333333,2.341666666667,0.45));
#349 = LINE('',#350,#351);
#350 = CARTESIAN_POINT('',(0.423958333333,2.341666666667,0.45));
#351 = VECTOR('',#352,1.);
#352 = DIRECTION('',(0.,0.,1.));
#353 = ORIENTED_EDGE('',*,*,#354,.T.);
#354 = EDGE_CURVE('',#347,#347,#355,.T.);
#355 = CIRCLE('',#356,0.115625);
#356 = AXIS2_PLACEMENT_3D('',#357,#358,#359);
#357 = CARTESIAN_POINT('',(0.308333333333,2.341666666667,0.45));
#358 = DIRECTION('',(0.,0.,1.));
#359 = DIRECTION('',(1.,0.,-0.));
#360 = ORIENTED_EDGE('',*,*,#346,.T.);
#361 = CYLINDRICAL_SURFACE('',#362,0.115625);
#362 = AXIS2_PLACEMENT_3D('',#363,#364,#365);
#363 = CARTESIAN_POINT('',(0.308333333333,2.341666666667,0.45));
#364 = DIRECTION('',(0.,0.,1.));
#365 = DIRECTION('',(1.,0.,-0.));
#366 = ADVANCED_FACE('',(#367),#370,.T.);
#367 = FACE_BOUND('',#368,.F.);
#368 = EDGE_LOOP('',(#369));
#369 = ORIENTED_EDGE('',*,*,#354,.F.);
#370 = PLANE('',#371);
#371 = AXIS2_PLACEMENT_3D('',#372,#373,#374);
#372 = CARTESIAN_POINT('',(0.308333333333,2.341666666667,0.45));
#373 = DIRECTION('',(0.,0.,1.));
#374 = DIRECTION('',(1.,0.,-0.));
#375 = ( GEOMETRIC_REPRESENTATION_CONTEXT(3) 
GLOBAL_UNCERTAINTY_ASSIGNED_CONTEXT((#379)) GLOBAL_UNIT_ASSIGNED_CONTEXT
((#376,#377,#378)) REPRESENTATION_CONTEXT('Context #1',
  '3D Context with UNIT and UNCERTAINTY') );
#376 = ( LENGTH_UNIT() NAMED_UNIT(*) SI_UNIT(.MILLI.,.METRE.) );
#377 = ( NAMED_UNIT(*) PLANE_ANGLE_UNIT() SI_UNIT($,.RADIAN.) );
#378 = ( NAMED_UNIT(*) SI_UNIT($,.STERADIAN.) SOLID_ANGLE_UNIT() );
#379 = UNCERTAINTY_MEASURE_WITH_UNIT(LENGTH_MEASURE(1.E-07),#376,
  'distance_accuracy_value','confusion accuracy');
#380 = SHAPE_DEFINITION_REPRESENTATION(#381,#179);
#381 = PRODUCT_DEFINITION_SHAPE('','',#382);
#382 = PRODUCT_DEFINITION('design','',#383,#386);
#383 = PRODUCT_DEFINITION_FORMATION('','',#384);
#384 = PRODUCT('Open CASCADE STEP translator 7.5 102.2.1',
  'Open CASCADE STEP translator 7.5 102.2.1','',(#385));
#385 = PRODUCT_CONTEXT('',#2,'mechanical');
#386 = PRODUCT_DEFINITION_CONTEXT('part definition',#2,'design');
#387 = CONTEXT_DEPENDENT_SHAPE_REPRESENTATION(#388,#390);
#388 = ( REPRESENTATION_RELATIONSHIP('','',#179,#169) 
REPRESENTATION_RELATIONSHIP_WITH_TRANSFORMATION(#389) 
SHAPE_REPRESENTATION_RELATIONSHIP() );
#389 = ITEM_DEFINED_TRANSFORMATION('','',#11,#170);
#390 = PRODUCT_DEFINITION_SHAPE('Placement','Placement of an item',#391
  );
#391 = NEXT_ASSEMBLY_USAGE_OCCURRENCE('1919','1899','',#164,#382,$);
#392 = PRODUCT_RELATED_PRODUCT_CATEGORY('part',$,(#384));
#393 = CONTEXT_DEPENDENT_SHAPE_REPRESENTATION(#394,#396);
#394 = ( REPRESENTATION_RELATIONSHIP('','',#169,#46) 
REPRESENTATION_RELATIONSHIP_WITH_TRANSFORMATION(#395) 
SHAPE_REPRESENTATION_RELATIONSHIP() );
#395 = ITEM_DEFINED_TRANSFORMATION('','',#11,#51);
#396 = PRODUCT_DEFINITION_SHAPE('Placement','Placement of an item',#397
  );
#397 = NEXT_ASSEMBLY_USAGE_OCCURRENCE('1920','1900','',#41,#164,$);
#398 = PRODUCT_RELATED_PRODUCT_CATEGORY('part',$,(#166));
#399 = SHAPE_DEFINITION_REPRESENTATION(#400,#406);
#400 = PRODUCT_DEFINITION_SHAPE('','',#401);
#401 = PRODUCT_DEFINITION('design','',#402,#405);
#402 = PRODUCT_DEFINITION_FORMATION('','',#403);
#403 = PRODUCT('Pin Shape','Pin Shape','',(#404));
#404 = PRODUCT_CONTEXT('',#2,'mechanical');
#405 = PRODUCT_DEFINITION_CONTEXT('part definition',#2,'design');
#406 = SHAPE_REPRESENTATION('',(#11,#407),#411);
#407 = AXIS2_PLACEMENT_3D('',#408,#409,#410);
#408 = CARTESIAN_POINT('',(0.,0.,0.));
#409 = DIRECTION('',(0.,0.,1.));
#410 = DIRECTION('',(1.,0.,0.));
#411 = ( GEOMETRIC_REPRESENTATION_CONTEXT(3) 
GLOBAL_UNCERTAINTY_ASSIGNED_CONTEXT((#415)) GLOBAL_UNIT_ASSIGNED_CONTEXT
((#412,#413,#414)) REPRESENTATION_CONTEXT('Context #1',
  '3D Context with UNIT and UNCERTAINTY') );
#412 = ( LENGTH_UNIT() NAMED_UNIT(*) SI_UNIT(.MILLI.,.METRE.) );
#413 = ( NAMED_UNIT(*) PLANE_ANGLE_UNIT() SI_UNIT($,.RADIAN.) );
#414 = ( NAMED_UNIT(*) SI_UNIT($,.STERADIAN.) SOLID_ANGLE_UNIT() );
#415 = UNCERTAINTY_MEASURE_WITH_UNIT(LENGTH_MEASURE(1.E-07),#412,
  'distance_accuracy_value','confusion accuracy');
#416 = ADVANCED_BREP_SHAPE_REPRESENTATION('',(#11,#417),#759);
#417 = MANIFOLD_SOLID_BREP('',#418);
#418 = CLOSED_SHELL('',(#419,#459,#490,#521,#552,#576,#600,#624,#648,
    #670,#694,#718,#735,#747));
#419 = ADVANCED_FACE('',(#420),#454,.F.);
#420 = FACE_BOUND('',#421,.F.);
#421 = EDGE_LOOP('',(#422,#432,#440,#448));
#422 = ORIENTED_EDGE('',*,*,#423,.F.);
#423 = EDGE_CURVE('',#424,#426,#428,.T.);
#424 = VERTEX_POINT('',#425);
#425 = CARTESIAN_POINT('',(-5.E-02,0.,0.));
#426 = VERTEX_POINT('',#427);
#427 = CARTESIAN_POINT('',(0.,0.,0.));
#428 = LINE('',#429,#430);
#429 = CARTESIAN_POINT('',(-5.E-02,0.,0.));
#430 = VECTOR('',#431,1.);
#431 = DIRECTION('',(1.,0.,0.));
#432 = ORIENTED_EDGE('',*,*,#433,.T.);
#433 = EDGE_CURVE('',#424,#434,#436,.T.);
#434 = VERTEX_POINT('',#435);
#435 = CARTESIAN_POINT('',(-5.E-02,0.,5.E-02));
#436 = LINE('',#437,#438);
#437 = CARTESIAN_POINT('',(-5.E-02,0.,0.));
#438 = VECTOR('',#439,1.);
#439 = DIRECTION('',(0.,0.,1.));
#440 = ORIENTED_EDGE('',*,*,#441,.T.);
#441 = EDGE_CURVE('',#434,#442,#444,.T.);
#442 = VERTEX_POINT('',#443);
#443 = CARTESIAN_POINT('',(-1.249000902703E-17,0.,5.E-02));
#444 = LINE('',#445,#446);
#445 = CARTESIAN_POINT('',(-5.E-02,0.,5.E-02));
#446 = VECTOR('',#447,1.);
#447 = DIRECTION('',(1.,0.,0.));
#448 = ORIENTED_EDGE('',*,*,#449,.F.);
#449 = EDGE_CURVE('',#426,#442,#450,.T.);
#450 = LINE('',#451,#452);
#451 = CARTESIAN_POINT('',(0.,0.,0.));
#452 = VECTOR('',#453,1.);
#453 = DIRECTION('',(-2.22044604925E-16,0.,1.));
#454 = PLANE('',#455);
#455 = AXIS2_PLACEMENT_3D('',#456,#457,#458);
#456 = CARTESIAN_POINT('',(-5.E-02,0.,0.));
#457 = DIRECTION('',(0.,1.,0.));
#458 = DIRECTION('',(1.,0.,0.));
#459 = ADVANCED_FACE('',(#460),#485,.F.);
#460 = FACE_BOUND('',#461,.F.);
#461 = EDGE_LOOP('',(#462,#470,#471,#479));
#462 = ORIENTED_EDGE('',*,*,#463,.T.);
#463 = EDGE_CURVE('',#464,#424,#466,.T.);
#464 = VERTEX_POINT('',#465);
#465 = CARTESIAN_POINT('',(-5.E-02,0.2,0.));
#466 = LINE('',#467,#468);
#467 = CARTESIAN_POINT('',(-5.E-02,0.2,0.));
#468 = VECTOR('',#469,1.);
#469 = DIRECTION('',(0.,-1.,0.));
#470 = ORIENTED_EDGE('',*,*,#423,.T.);
#471 = ORIENTED_EDGE('',*,*,#472,.F.);
#472 = EDGE_CURVE('',#473,#426,#475,.T.);
#473 = VERTEX_POINT('',#474);
#474 = CARTESIAN_POINT('',(0.,0.2,0.));
#475 = LINE('',#476,#477);
#476 = CARTESIAN_POINT('',(0.,0.2,0.));
#477 = VECTOR('',#478,1.);
#478 = DIRECTION('',(-0.,-1.,0.));
#479 = ORIENTED_EDGE('',*,*,#480,.T.);
#480 = EDGE_CURVE('',#473,#464,#481,.T.);
#481 = LINE('',#482,#483);
#482 = CARTESIAN_POINT('',(0.4,0.2,0.));
#483 = VECTOR('',#484,1.);
#484 = DIRECTION('',(-1.,0.,0.));
#485 = PLANE('',#486);
#486 = AXIS2_PLACEMENT_3D('',#487,#488,#489);
#487 = CARTESIAN_POINT('',(0.175,0.1,0.));
#488 = DIRECTION('',(0.,0.,1.));
#489 = DIRECTION('',(1.,0.,-0.));
#490 = ADVANCED_FACE('',(#491),#516,.F.);
#491 = FACE_BOUND('',#492,.F.);
#492 = EDGE_LOOP('',(#493,#501,#502,#510));
#493 = ORIENTED_EDGE('',*,*,#494,.F.);
#494 = EDGE_CURVE('',#426,#495,#497,.T.);
#495 = VERTEX_POINT('',#496);
#496 = CARTESIAN_POINT('',(0.4,0.,0.));
#497 = LINE('',#498,#499);
#498 = CARTESIAN_POINT('',(-5.E-02,0.,0.));
#499 = VECTOR('',#500,1.);
#500 = DIRECTION('',(1.,0.,0.));
#501 = ORIENTED_EDGE('',*,*,#449,.T.);
#502 = ORIENTED_EDGE('',*,*,#503,.T.);
#503 = EDGE_CURVE('',#442,#504,#506,.T.);
#504 = VERTEX_POINT('',#505);
#505 = CARTESIAN_POINT('',(0.4,0.,5.E-02));
#506 = LINE('',#507,#508);
#507 = CARTESIAN_POINT('',(-5.E-02,0.,5.E-02));
#508 = VECTOR('',#509,1.);
#509 = DIRECTION('',(1.,0.,0.));
#510 = ORIENTED_EDGE('',*,*,#511,.F.);
#511 = EDGE_CURVE('',#495,#504,#512,.T.);
#512 = LINE('',#513,#514);
#513 = CARTESIAN_POINT('',(0.4,0.,0.));
#514 = VECTOR('',#515,1.);
#515 = DIRECTION('',(0.,0.,1.));
#516 = PLANE('',#517);
#517 = AXIS2_PLACEMENT_3D('',#518,#519,#520);
#518 = CARTESIAN_POINT('',(-5.E-02,0.,0.));
#519 = DIRECTION('',(0.,1.,0.));
#520 = DIRECTION('',(1.,0.,0.));
#521 = ADVANCED_FACE('',(#522),#547,.F.);
#522 = FACE_BOUND('',#523,.F.);
#523 = EDGE_LOOP('',(#524,#525,#533,#541));
#524 = ORIENTED_EDGE('',*,*,#441,.F.);
#525 = ORIENTED_EDGE('',*,*,#526,.T.);
#526 = EDGE_CURVE('',#434,#527,#529,.T.);
#527 = VERTEX_POINT('',#528);
#528 = CARTESIAN_POINT('',(-5.E-02,0.,0.13));
#529 = LINE('',#530,#531);
#530 = CARTESIAN_POINT('',(-5.E-02,0.,0.));
#531 = VECTOR('',#532,1.);
#532 = DIRECTION('',(-2.22044604925E-16,0.,1.));
#533 = ORIENTED_EDGE('',*,*,#534,.F.);
#534 = EDGE_CURVE('',#535,#527,#537,.T.);
#535 = VERTEX_POINT('',#536);
#536 = CARTESIAN_POINT('',(-2.886579864025E-17,0.,0.13));
#537 = LINE('',#538,#539);
#538 = CARTESIAN_POINT('',(-2.886579864025E-17,0.,0.13));
#539 = VECTOR('',#540,1.);
#540 = DIRECTION('',(-1.,0.,0.));
#541 = ORIENTED_EDGE('',*,*,#542,.F.);
#542 = EDGE_CURVE('',#442,#535,#543,.T.);
#543 = LINE('',#544,#545);
#544 = CARTESIAN_POINT('',(0.,0.,0.));
#545 = VECTOR('',#546,1.);
#546 = DIRECTION('',(-2.22044604925E-16,0.,1.));
#547 = PLANE('',#548);
#548 = AXIS2_PLACEMENT_3D('',#549,#550,#551);
#549 = CARTESIAN_POINT('',(0.,0.,0.));
#550 = DIRECTION('',(0.,1.,0.));
#551 = DIRECTION('',(-2.22044604925E-16,0.,1.));
#552 = ADVANCED_FACE('',(#553),#571,.F.);
#553 = FACE_BOUND('',#554,.F.);
#554 = EDGE_LOOP('',(#555,#563,#569,#570));
#555 = ORIENTED_EDGE('',*,*,#556,.T.);
#556 = EDGE_CURVE('',#464,#557,#559,.T.);
#557 = VERTEX_POINT('',#558);
#558 = CARTESIAN_POINT('',(-5.E-02,0.2,5.E-02));
#559 = LINE('',#560,#561);
#560 = CARTESIAN_POINT('',(-5.E-02,0.2,0.));
#561 = VECTOR('',#562,1.);
#562 = DIRECTION('',(0.,0.,1.));
#563 = ORIENTED_EDGE('',*,*,#564,.T.);
#564 = EDGE_CURVE('',#557,#434,#565,.T.);
#565 = LINE('',#566,#567);
#566 = CARTESIAN_POINT('',(-5.E-02,0.2,5.E-02));
#567 = VECTOR('',#568,1.);
#568 = DIRECTION('',(0.,-1.,0.));
#569 = ORIENTED_EDGE('',*,*,#433,.F.);
#570 = ORIENTED_EDGE('',*,*,#463,.F.);
#571 = PLANE('',#572);
#572 = AXIS2_PLACEMENT_3D('',#573,#574,#575);
#573 = CARTESIAN_POINT('',(-5.E-02,0.2,0.));
#574 = DIRECTION('',(1.,0.,-0.));
#575 = DIRECTION('',(0.,-1.,0.));
#576 = ADVANCED_FACE('',(#577),#595,.F.);
#577 = FACE_BOUND('',#578,.F.);
#578 = EDGE_LOOP('',(#579,#580,#588,#594));
#579 = ORIENTED_EDGE('',*,*,#480,.F.);
#580 = ORIENTED_EDGE('',*,*,#581,.F.);
#581 = EDGE_CURVE('',#582,#473,#584,.T.);
#582 = VERTEX_POINT('',#583);
#583 = CARTESIAN_POINT('',(-5.551115123126E-18,0.2,5.E-02));
#584 = LINE('',#585,#586);
#585 = CARTESIAN_POINT('',(-2.886579864025E-17,0.2,0.13));
#586 = VECTOR('',#587,1.);
#587 = DIRECTION('',(2.22044604925E-16,0.,-1.));
#588 = ORIENTED_EDGE('',*,*,#589,.T.);
#589 = EDGE_CURVE('',#582,#557,#590,.T.);
#590 = LINE('',#591,#592);
#591 = CARTESIAN_POINT('',(0.4,0.2,5.E-02));
#592 = VECTOR('',#593,1.);
#593 = DIRECTION('',(-1.,0.,0.));
#594 = ORIENTED_EDGE('',*,*,#556,.F.);
#595 = PLANE('',#596);
#596 = AXIS2_PLACEMENT_3D('',#597,#598,#599);
#597 = CARTESIAN_POINT('',(0.4,0.2,0.));
#598 = DIRECTION('',(0.,-1.,0.));
#599 = DIRECTION('',(-1.,0.,0.));
#600 = ADVANCED_FACE('',(#601),#619,.F.);
#601 = FACE_BOUND('',#602,.F.);
#602 = EDGE_LOOP('',(#603,#604,#605,#613));
#603 = ORIENTED_EDGE('',*,*,#472,.T.);
#604 = ORIENTED_EDGE('',*,*,#494,.T.);
#605 = ORIENTED_EDGE('',*,*,#606,.T.);
#606 = EDGE_CURVE('',#495,#607,#609,.T.);
#607 = VERTEX_POINT('',#608);
#608 = CARTESIAN_POINT('',(0.4,0.2,0.));
#609 = LINE('',#610,#611);
#610 = CARTESIAN_POINT('',(0.4,0.,0.));
#611 = VECTOR('',#612,1.);
#612 = DIRECTION('',(0.,1.,0.));
#613 = ORIENTED_EDGE('',*,*,#614,.T.);
#614 = EDGE_CURVE('',#607,#473,#615,.T.);
#615 = LINE('',#616,#617);
#616 = CARTESIAN_POINT('',(0.4,0.2,0.));
#617 = VECTOR('',#618,1.);
#618 = DIRECTION('',(-1.,0.,0.));
#619 = PLANE('',#620);
#620 = AXIS2_PLACEMENT_3D('',#621,#622,#623);
#621 = CARTESIAN_POINT('',(0.175,0.1,0.));
#622 = DIRECTION('',(0.,0.,1.));
#623 = DIRECTION('',(1.,0.,-0.));
#624 = ADVANCED_FACE('',(#625),#643,.F.);
#625 = FACE_BOUND('',#626,.F.);
#626 = EDGE_LOOP('',(#627,#628,#636,#642));
#627 = ORIENTED_EDGE('',*,*,#511,.T.);
#628 = ORIENTED_EDGE('',*,*,#629,.T.);
#629 = EDGE_CURVE('',#504,#630,#632,.T.);
#630 = VERTEX_POINT('',#631);
#631 = CARTESIAN_POINT('',(0.4,0.2,5.E-02));
#632 = LINE('',#633,#634);
#633 = CARTESIAN_POINT('',(0.4,0.,5.E-02));
#634 = VECTOR('',#635,1.);
#635 = DIRECTION('',(0.,1.,0.));
#636 = ORIENTED_EDGE('',*,*,#637,.F.);
#637 = EDGE_CURVE('',#607,#630,#638,.T.);
#638 = LINE('',#639,#640);
#639 = CARTESIAN_POINT('',(0.4,0.2,0.));
#640 = VECTOR('',#641,1.);
#641 = DIRECTION('',(0.,0.,1.));
#642 = ORIENTED_EDGE('',*,*,#606,.F.);
#643 = PLANE('',#644);
#644 = AXIS2_PLACEMENT_3D('',#645,#646,#647);
#645 = CARTESIAN_POINT('',(0.4,0.,0.));
#646 = DIRECTION('',(-1.,0.,0.));
#647 = DIRECTION('',(0.,1.,0.));
#648 = ADVANCED_FACE('',(#649),#665,.T.);
#649 = FACE_BOUND('',#650,.T.);
#650 = EDGE_LOOP('',(#651,#657,#658,#659));
#651 = ORIENTED_EDGE('',*,*,#652,.T.);
#652 = EDGE_CURVE('',#582,#442,#653,.T.);
#653 = LINE('',#654,#655);
#654 = CARTESIAN_POINT('',(-5.551115123126E-18,0.1,5.E-02));
#655 = VECTOR('',#656,1.);
#656 = DIRECTION('',(-0.,-1.,0.));
#657 = ORIENTED_EDGE('',*,*,#503,.T.);
#658 = ORIENTED_EDGE('',*,*,#629,.T.);
#659 = ORIENTED_EDGE('',*,*,#660,.T.);
#660 = EDGE_CURVE('',#630,#582,#661,.T.);
#661 = LINE('',#662,#663);
#662 = CARTESIAN_POINT('',(0.4,0.2,5.E-02));
#663 = VECTOR('',#664,1.);
#664 = DIRECTION('',(-1.,0.,0.));
#665 = PLANE('',#666);
#666 = AXIS2_PLACEMENT_3D('',#667,#668,#669);
#667 = CARTESIAN_POINT('',(0.175,0.1,5.E-02));
#668 = DIRECTION('',(0.,0.,1.));
#669 = DIRECTION('',(1.,0.,-0.));
#670 = ADVANCED_FACE('',(#671),#689,.F.);
#671 = FACE_BOUND('',#672,.F.);
#672 = EDGE_LOOP('',(#673,#674,#675,#683));
#673 = ORIENTED_EDGE('',*,*,#652,.T.);
#674 = ORIENTED_EDGE('',*,*,#542,.T.);
#675 = ORIENTED_EDGE('',*,*,#676,.T.);
#676 = EDGE_CURVE('',#535,#677,#679,.T.);
#677 = VERTEX_POINT('',#678);
#678 = CARTESIAN_POINT('',(-2.886579864025E-17,0.2,0.13));
#679 = LINE('',#680,#681);
#680 = CARTESIAN_POINT('',(-2.886579864025E-17,0.,0.13));
#681 = VECTOR('',#682,1.);
#682 = DIRECTION('',(0.,1.,0.));
#683 = ORIENTED_EDGE('',*,*,#684,.T.);
#684 = EDGE_CURVE('',#677,#582,#685,.T.);
#685 = LINE('',#686,#687);
#686 = CARTESIAN_POINT('',(-2.886579864025E-17,0.2,0.13));
#687 = VECTOR('',#688,1.);
#688 = DIRECTION('',(2.22044604925E-16,0.,-1.));
#689 = PLANE('',#690);
#690 = AXIS2_PLACEMENT_3D('',#691,#692,#693);
#691 = CARTESIAN_POINT('',(-1.443289932013E-17,0.1,6.5E-02));
#692 = DIRECTION('',(-1.,0.,-2.22044604925E-16));
#693 = DIRECTION('',(-2.22044604925E-16,0.,1.));
#694 = ADVANCED_FACE('',(#695),#713,.F.);
#695 = FACE_BOUND('',#696,.F.);
#696 = EDGE_LOOP('',(#697,#698,#706,#712));
#697 = ORIENTED_EDGE('',*,*,#534,.T.);
#698 = ORIENTED_EDGE('',*,*,#699,.T.);
#699 = EDGE_CURVE('',#527,#700,#702,.T.);
#700 = VERTEX_POINT('',#701);
#701 = CARTESIAN_POINT('',(-5.E-02,0.2,0.13));
#702 = LINE('',#703,#704);
#703 = CARTESIAN_POINT('',(-5.E-02,0.,0.13));
#704 = VECTOR('',#705,1.);
#705 = DIRECTION('',(0.,1.,0.));
#706 = ORIENTED_EDGE('',*,*,#707,.F.);
#707 = EDGE_CURVE('',#677,#700,#708,.T.);
#708 = LINE('',#709,#710);
#709 = CARTESIAN_POINT('',(-2.886579864025E-17,0.2,0.13));
#710 = VECTOR('',#711,1.);
#711 = DIRECTION('',(-1.,0.,0.));
#712 = ORIENTED_EDGE('',*,*,#676,.F.);
#713 = PLANE('',#714);
#714 = AXIS2_PLACEMENT_3D('',#715,#716,#717);
#715 = CARTESIAN_POINT('',(-2.886579864025E-17,0.,0.13));
#716 = DIRECTION('',(0.,0.,-1.));
#717 = DIRECTION('',(0.,1.,0.));
#718 = ADVANCED_FACE('',(#719),#730,.T.);
#719 = FACE_BOUND('',#720,.T.);
#720 = EDGE_LOOP('',(#721,#722,#723,#724));
#721 = ORIENTED_EDGE('',*,*,#564,.T.);
#722 = ORIENTED_EDGE('',*,*,#526,.T.);
#723 = ORIENTED_EDGE('',*,*,#699,.T.);
#724 = ORIENTED_EDGE('',*,*,#725,.T.);
#725 = EDGE_CURVE('',#700,#557,#726,.T.);
#726 = LINE('',#727,#728);
#727 = CARTESIAN_POINT('',(-5.E-02,0.2,0.13));
#728 = VECTOR('',#729,1.);
#729 = DIRECTION('',(2.22044604925E-16,0.,-1.));
#730 = PLANE('',#731);
#731 = AXIS2_PLACEMENT_3D('',#732,#733,#734);
#732 = CARTESIAN_POINT('',(-5.E-02,0.1,6.5E-02));
#733 = DIRECTION('',(-1.,0.,-2.22044604925E-16));
#734 = DIRECTION('',(-2.22044604925E-16,0.,1.));
#735 = ADVANCED_FACE('',(#736),#742,.F.);
#736 = FACE_BOUND('',#737,.F.);
#737 = EDGE_LOOP('',(#738,#739,#740,#741));
#738 = ORIENTED_EDGE('',*,*,#684,.F.);
#739 = ORIENTED_EDGE('',*,*,#707,.T.);
#740 = ORIENTED_EDGE('',*,*,#725,.T.);
#741 = ORIENTED_EDGE('',*,*,#589,.F.);
#742 = PLANE('',#743);
#743 = AXIS2_PLACEMENT_3D('',#744,#745,#746);
#744 = CARTESIAN_POINT('',(-2.886579864025E-17,0.2,0.13));
#745 = DIRECTION('',(-0.,-1.,-0.));
#746 = DIRECTION('',(2.22044604925E-16,0.,-1.));
#747 = ADVANCED_FACE('',(#748),#754,.F.);
#748 = FACE_BOUND('',#749,.F.);
#749 = EDGE_LOOP('',(#750,#751,#752,#753));
#750 = ORIENTED_EDGE('',*,*,#614,.F.);
#751 = ORIENTED_EDGE('',*,*,#637,.T.);
#752 = ORIENTED_EDGE('',*,*,#660,.T.);
#753 = ORIENTED_EDGE('',*,*,#581,.T.);
#754 = PLANE('',#755);
#755 = AXIS2_PLACEMENT_3D('',#756,#757,#758);
#756 = CARTESIAN_POINT('',(0.4,0.2,0.));
#757 = DIRECTION('',(0.,-1.,0.));
#758 = DIRECTION('',(-1.,0.,0.));
#759 = ( GEOMETRIC_REPRESENTATION_CONTEXT(3) 
GLOBAL_UNCERTAINTY_ASSIGNED_CONTEXT((#763)) GLOBAL_UNIT_ASSIGNED_CONTEXT
((#760,#761,#762)) REPRESENTATION_CONTEXT('Context #1',
  '3D Context with UNIT and UNCERTAINTY') );
#760 = ( LENGTH_UNIT() NAMED_UNIT(*) SI_UNIT(.MILLI.,.METRE.) );
#761 = ( NAMED_UNIT(*) PLANE_ANGLE_UNIT() SI_UNIT($,.RADIAN.) );
#762 = ( NAMED_UNIT(*) SI_UNIT($,.STERADIAN.) SOLID_ANGLE_UNIT() );
#763 = UNCERTAINTY_MEASURE_WITH_UNIT(LENGTH_MEASURE(1.E-07),#760,
  'distance_accuracy_value','confusion accuracy');
#764 = SHAPE_DEFINITION_REPRESENTATION(#765,#416);
#765 = PRODUCT_DEFINITION_SHAPE('','',#766);
#766 = PRODUCT_DEFINITION('design','',#767,#770);
#767 = PRODUCT_DEFINITION_FORMATION('','',#768);
#768 = PRODUCT('Open CASCADE STEP translator 7.5 102.3.1',
  'Open CASCADE STEP translator 7.5 102.3.1','',(#769));
#769 = PRODUCT_CONTEXT('',#2,'mechanical');
#770 = PRODUCT_DEFINITION_CONTEXT('part definition',#2,'design');
#771 = CONTEXT_DEPENDENT_SHAPE_REPRESENTATION(#772,#774);
#772 = ( REPRESENTATION_RELATIONSHIP('','',#416,#406) 
REPRESENTATION_RELATIONSHIP_WITH_TRANSFORMATION(#773) 
SHAPE_REPRESENTATION_RELATIONSHIP() );
#773 = ITEM_DEFINED_TRANSFORMATION('','',#11,#407);
#774 = PRODUCT_DEFINITION_SHAPE('Placement','Placement of an item',#775
  );
#775 = NEXT_ASSEMBLY_USAGE_OCCURRENCE('1921','1901','',#401,#766,$);
#776 = PRODUCT_RELATED_PRODUCT_CATEGORY('part',$,(#768));
#777 = CONTEXT_DEPENDENT_SHAPE_REPRESENTATION(#778,#780);
#778 = ( REPRESENTATION_RELATIONSHIP('','',#406,#46) 
REPRESENTATION_RELATIONSHIP_WITH_TRANSFORMATION(#779) 
SHAPE_REPRESENTATION_RELATIONSHIP() );
#779 = ITEM_DEFINED_TRANSFORMATION('','',#11,#55);
#780 = PRODUCT_DEFINITION_SHAPE('Placement','Placement of an item',#781
  );
#781 = NEXT_ASSEMBLY_USAGE_OCCURRENCE('1922','1902','',#41,#401,$);
#782 = PRODUCT_RELATED_PRODUCT_CATEGORY('part',$,(#403));
#783 = CONTEXT_DEPENDENT_SHAPE_REPRESENTATION(#784,#786);
#784 = ( REPRESENTATION_RELATIONSHIP('','',#406,#46) 
REPRESENTATION_RELATIONSHIP_WITH_TRANSFORMATION(#785) 
SHAPE_REPRESENTATION_RELATIONSHIP() );
#785 = ITEM_DEFINED_TRANSFORMATION('','',#11,#59);
#786 = PRODUCT_DEFINITION_SHAPE('Placement','Placement of an item',#787
  );
#787 = NEXT_ASSEMBLY_USAGE_OCCURRENCE('1923','1903','',#41,#401,$);
#788 = CONTEXT_DEPENDENT_SHAPE_REPRESENTATION(#789,#791);
#789 = ( REPRESENTATION_RELATIONSHIP('','',#406,#46) 
REPRESENTATION_RELATIONSHIP_WITH_TRANSFORMATION(#790) 
SHAPE_REPRESENTATION_RELATIONSHIP() );
#790 = ITEM_DEFINED_TRANSFORMATION('','',#11,#63);
#791 = PRODUCT_DEFINITION_SHAPE('Placement','Placement of an item',#792
  );
#792 = NEXT_ASSEMBLY_USAGE_OCCURRENCE('1924','1904','',#41,#401,$);
#793 = CONTEXT_DEPENDENT_SHAPE_REPRESENTATION(#794,#796);
#794 = ( REPRESENTATION_RELATIONSHIP('','',#406,#46) 
REPRESENTATION_RELATIONSHIP_WITH_TRANSFORMATION(#795) 
SHAPE_REPRESENTATION_RELATIONSHIP() );
#795 = ITEM_DEFINED_TRANSFORMATION('','',#11,#67);
#796 = PRODUCT_DEFINITION_SHAPE('Placement','Placement of an item',#797
  );
#797 = NEXT_ASSEMBLY_USAGE_OCCURRENCE('1925','1905','',#41,#401,$);
#798 = CONTEXT_DEPENDENT_SHAPE_REPRESENTATION(#799,#801);
#799 = ( REPRESENTATION_RELATIONSHIP('','',#406,#46) 
REPRESENTATION_RELATIONSHIP_WITH_TRANSFORMATION(#800) 
SHAPE_REPRESENTATION_RELATIONSHIP() );
#800 = ITEM_DEFINED_TRANSFORMATION('','',#11,#71);
#801 = PRODUCT_DEFINITION_SHAPE('Placement','Placement of an item',#802
  );
#802 = NEXT_ASSEMBLY_USAGE_OCCURRENCE('1926','1906','',#41,#401,$);
#803 = CONTEXT_DEPENDENT_SHAPE_REPRESENTATION(#804,#806);
#804 = ( REPRESENTATION_RELATIONSHIP('','',#406,#46) 
REPRESENTATION_RELATIONSHIP_WITH_TRANSFORMATION(#805) 
SHAPE_REPRESENTATION_RELATIONSHIP() );
#805 = ITEM_DEFINED_TRANSFORMATION('','',#11,#75);
#806 = PRODUCT_DEFINITION_SHAPE('Placement','Placement of an item',#807
  );
#807 = NEXT_ASSEMBLY_USAGE_OCCURRENCE('1927','1907','',#41,#401,$);
#808 = CONTEXT_DEPENDENT_SHAPE_REPRESENTATION(#809,#811);
#809 = ( REPRESENTATION_RELATIONSHIP('','',#406,#46) 
REPRESENTATION_RELATIONSHIP_WITH_TRANSFORMATION(#810) 
SHAPE_REPRESENTATION_RELATIONSHIP() );
#810 = ITEM_DEFINED_TRANSFORMATION('','',#11,#79);
#811 = PRODUCT_DEFINITION_SHAPE('Placement','Placement of an item',#812
  );
#812 = NEXT_ASSEMBLY_USAGE_OCCURRENCE('1928','1908','',#41,#401,$);
#813 = CONTEXT_DEPENDENT_SHAPE_REPRESENTATION(#814,#816);
#814 = ( REPRESENTATION_RELATIONSHIP('','',#406,#46) 
REPRESENTATION_RELATIONSHIP_WITH_TRANSFORMATION(#815) 
SHAPE_REPRESENTATION_RELATIONSHIP() );
#815 = ITEM_DEFINED_TRANSFORMATION('','',#11,#83);
#816 = PRODUCT_DEFINITION_SHAPE('Placement','Placement of an item',#817
  );
#817 = NEXT_ASSEMBLY_USAGE_OCCURRENCE('1929','1909','',#41,#401,$);
#818 = CONTEXT_DEPENDENT_SHAPE_REPRESENTATION(#819,#821);
#819 = ( REPRESENTATION_RELATIONSHIP('','',#406,#46) 
REPRESENTATION_RELATIONSHIP_WITH_TRANSFORMATION(#820) 
SHAPE_REPRESENTATION_RELATIONSHIP() );
#820 = ITEM_DEFINED_TRANSFORMATION('','',#11,#87);
#821 = PRODUCT_DEFINITION_SHAPE('Placement','Placement of an item',#822
  );
#822 = NEXT_ASSEMBLY_USAGE_OCCURRENCE('1930','1910','',#41,#401,$);
#823 = CONTEXT_DEPENDENT_SHAPE_REPRESENTATION(#824,#826);
#824 = ( REPRESENTATION_RELATIONSHIP('','',#406,#46) 
REPRESENTATION_RELATIONSHIP_WITH_TRANSFORMATION(#825) 
SHAPE_REPRESENTATION_RELATIONSHIP() );
#825 = ITEM_DEFINED_TRANSFORMATION('','',#11,#91);
#826 = PRODUCT_DEFINITION_SHAPE('Placement','Placement of an item',#827
  );
#827 = NEXT_ASSEMBLY_USAGE_OCCURRENCE('1931','1911','',#41,#401,$);
#828 = CONTEXT_DEPENDENT_SHAPE_REPRESENTATION(#829,#831);
#829 = ( REPRESENTATION_RELATIONSHIP('','',#406,#46) 
REPRESENTATION_RELATIONSHIP_WITH_TRANSFORMATION(#830) 
SHAPE_REPRESENTATION_RELATIONSHIP() );
#830 = ITEM_DEFINED_TRANSFORMATION('','',#11,#95);
#831 = PRODUCT_DEFINITION_SHAPE('Placement','Placement of an item',#832
  );
#832 = NEXT_ASSEMBLY_USAGE_OCCURRENCE('1932','1912','',#41,#401,$);
#833 = CONTEXT_DEPENDENT_SHAPE_REPRESENTATION(#834,#836);
#834 = ( REPRESENTATION_RELATIONSHIP('','',#406,#46) 
REPRESENTATION_RELATIONSHIP_WITH_TRANSFORMATION(#835) 
SHAPE_REPRESENTATION_RELATIONSHIP() );
#835 = ITEM_DEFINED_TRANSFORMATION('','',#11,#99);
#836 = PRODUCT_DEFINITION_SHAPE('Placement','Placement of an item',#837
  );
#837 = NEXT_ASSEMBLY_USAGE_OCCURRENCE('1933','1913','',#41,#401,$);
#838 = CONTEXT_DEPENDENT_SHAPE_REPRESENTATION(#839,#841);
#839 = ( REPRESENTATION_RELATIONSHIP('','',#406,#46) 
REPRESENTATION_RELATIONSHIP_WITH_TRANSFORMATION(#840) 
SHAPE_REPRESENTATION_RELATIONSHIP() );
#840 = ITEM_DEFINED_TRANSFORMATION('','',#11,#103);
#841 = PRODUCT_DEFINITION_SHAPE('Placement','Placement of an item',#842
  );
#842 = NEXT_ASSEMBLY_USAGE_OCCURRENCE('1934','1914','',#41,#401,$);
#843 = CONTEXT_DEPENDENT_SHAPE_REPRESENTATION(#844,#846);
#844 = ( REPRESENTATION_RELATIONSHIP('','',#406,#46) 
REPRESENTATION_RELATIONSHIP_WITH_TRANSFORMATION(#845) 
SHAPE_REPRESENTATION_RELATIONSHIP() );
#845 = ITEM_DEFINED_TRANSFORMATION('','',#11,#107);
#846 = PRODUCT_DEFINITION_SHAPE('Placement','Placement of an item',#847
  );
#847 = NEXT_ASSEMBLY_USAGE_OCCURRENCE('1935','1915','',#41,#401,$);
#848 = CONTEXT_DEPENDENT_SHAPE_REPRESENTATION(#849,#851);
#849 = ( REPRESENTATION_RELATIONSHIP('','',#406,#46) 
REPRESENTATION_RELATIONSHIP_WITH_TRANSFORMATION(#850) 
SHAPE_REPRESENTATION_RELATIONSHIP() );
#850 = ITEM_DEFINED_TRANSFORMATION('','',#11,#111);
#851 = PRODUCT_DEFINITION_SHAPE('Placement','Placement of an item',#852
  );
#852 = NEXT_ASSEMBLY_USAGE_OCCURRENCE('1936','1916','',#41,#401,$);
#853 = CONTEXT_DEPENDENT_SHAPE_REPRESENTATION(#854,#856);
#854 = ( REPRESENTATION_RELATIONSHIP('','',#406,#46) 
REPRESENTATION_RELATIONSHIP_WITH_TRANSFORMATION(#855) 
SHAPE_REPRESENTATION_RELATIONSHIP() );
#855 = ITEM_DEFINED_TRANSFORMATION('','',#11,#115);
#856 = PRODUCT_DEFINITION_SHAPE('Placement','Placement of an item',#857
  );
#857 = NEXT_ASSEMBLY_USAGE_OCCURRENCE('1937','1917','',#41,#401,$);
#858 = CONTEXT_DEPENDENT_SHAPE_REPRESENTATION(#859,#861);
#859 = ( REPRESENTATION_RELATIONSHIP('','',#46,#28) 
REPRESENTATION_RELATIONSHIP_WITH_TRANSFORMATION(#860) 
SHAPE_REPRESENTATION_RELATIONSHIP() );
#860 = ITEM_DEFINED_TRANSFORMATION('','',#11,#29);
#861 = PRODUCT_DEFINITION_SHAPE('Placement','Placement of an item',#862
  );
#862 = NEXT_ASSEMBLY_USAGE_OCCURRENCE('1938','','',#23,#41,$);
#863 = PRODUCT_RELATED_PRODUCT_CATEGORY('part',$,(#43));
#864 = MECHANICAL_DESIGN_GEOMETRIC_PRESENTATION_REPRESENTATION('',(#865)
  ,#759);
#865 = STYLED_ITEM('color',(#866),#417);
#866 = PRESENTATION_STYLE_ASSIGNMENT((#867,#873));
#867 = SURFACE_STYLE_USAGE(.BOTH.,#868);
#868 = SURFACE_SIDE_STYLE('',(#869));
#869 = SURFACE_STYLE_FILL_AREA(#870);
#870 = FILL_AREA_STYLE('',(#871));
#871 = FILL_AREA_STYLE_COLOUR('',#872);
#872 = COLOUR_RGB('',0.800000010877,0.800000010877,0.800000010877);
#873 = CURVE_STYLE('',#874,POSITIVE_LENGTH_MEASURE(0.1),#872);
#874 = DRAUGHTING_PRE_DEFINED_CURVE_FONT('continuous');
#875 = MECHANICAL_DESIGN_GEOMETRIC_PRESENTATION_REPRESENTATION('',(#876)
  ,#144);
#876 = STYLED_ITEM('color',(#877),#127);
#877 = PRESENTATION_STYLE_ASSIGNMENT((#878,#884));
#878 = SURFACE_STYLE_USAGE(.BOTH.,#879);
#879 = SURFACE_SIDE_STYLE('',(#880));
#880 = SURFACE_STYLE_FILL_AREA(#881);
#881 = FILL_AREA_STYLE('',(#882));
#882 = FILL_AREA_STYLE_COLOUR('',#883);
#883 = DRAUGHTING_PRE_DEFINED_COLOUR('white');
#884 = CURVE_STYLE('',#885,POSITIVE_LENGTH_MEASURE(0.1),#883);
#885 = DRAUGHTING_PRE_DEFINED_CURVE_FONT('continuous');
#886 = MECHANICAL_DESIGN_GEOMETRIC_PRESENTATION_REPRESENTATION('',(#887)
  ,#375);
#887 = STYLED_ITEM('color',(#888),#180);
#888 = PRESENTATION_STYLE_ASSIGNMENT((#889,#895));
#889 = SURFACE_STYLE_USAGE(.BOTH.,#890);
#890 = SURFACE_SIDE_STYLE('',(#891));
#891 = SURFACE_STYLE_FILL_AREA(#892);
#892 = FILL_AREA_STYLE('',(#893));
#893 = FILL_AREA_STYLE_COLOUR('',#894);
#894 = COLOUR_RGB('',0.199999998682,0.199999998682,0.199999998682);
#895 = CURVE_STYLE('',#896,POSITIVE_LENGTH_MEASURE(0.1),#894);
#896 = DRAUGHTING_PRE_DEFINED_CURVE_FONT('continuous');
ENDSEC;
END-ISO-10303-21;
