ISO-10303-21;
HEADER;
FILE_DESCRIPTION(('Open CASCADE Model'),'2;1');
FILE_NAME('Open CASCADE Shape Model','2026-10-03T22:41:48',('Author'),(
    'Open CASCADE'),'Open CASCADE STEP processor 7.5','Open CASCADE 7.5'
  ,'Unknown');
FILE_SCHEMA(('AUTOMOTIVE_DESIGN { 1 0 10303 214 1 1 1 1 }'));
ENDSEC;
DATA;
#1 = APPLICATION_PROTOCOL_DEFINITION('international standard',
  'automotive_design',2000,#2);
#2 = APPLICATION_CONTEXT(
  'core data for automotive mechanical design processes');
#3 = SHAPE_DEFINITION_REPRESENTATION(#4,#10);
#4 = PRODUCT_DEFINITION_SHAPE('','',#5);
#5 = PRODUCT_DEFINITION('design','',#6,#9);
#6 = PRODUCT_DEFINITION_FORMATION('','',#7);
#7 = PRODUCT('PCB','PCB','',(#8));
#8 = PRODUCT_CONTEXT('',#2,'mechanical');
#9 = PRODUCT_DEFINITION_CONTEXT('part definition',#2,'design');
#10 = SHAPE_REPRESENTATION('',(#11),#15);
#11 = AXIS2_PLACEMENT_3D('',#12,#13,#14);
#12 = CARTESIAN_POINT('',(0.,0.,0.));
#13 = DIRECTION('',(0.,0.,1.));
#14 = DIRECTION('',(1.,0.,-0.));
#15 = ( GEOMETRIC_REPRESENTATION_CONTEXT(3) 
GLOBAL_UNCERTAINTY_ASSIGNED_CONTEXT((#19)) GLOBAL_UNIT_ASSIGNED_CONTEXT(
(#16,#17,#18)) REPRESENTATION_CONTEXT('Context #1',
  '3D Context with UNIT and UNCERTAINTY') );
#16 = ( LENGTH_UNIT() NAMED_UNIT(*) SI_UNIT(.MILLI.,.METRE.) );
#17 = ( NAMED_UNIT(*) PLANE_ANGLE_UNIT() SI_UNIT($,.RADIAN.) );
#18 = ( NAMED_UNIT(*) SI_UNIT($,.STERADIAN.) SOLID_ANGLE_UNIT() );
#19 = UNCERTAINTY_MEASURE_WITH_UNIT(LENGTH_MEASURE(1.E-07),#16,
  'distance_accuracy_value','confusion accuracy');
#20 = PRODUCT_RELATED_PRODUCT_CATEGORY('part',$,(#7));
#21 = SHAPE_DEFINITION_REPRESENTATION(#22,#28);
#22 = PRODUCT_DEFINITION_SHAPE('','',#23);
#23 = PRODUCT_DEFINITION('design','',#24,#27);
#24 = PRODUCT_DEFINITION_FORMATION('','',#25);
#25 = PRODUCT('Designator1','Designator1','',(#26));
#26 = PRODUCT_CONTEXT('',#2,'mechanical');
#27 = PRODUCT_DEFINITION_CONTEXT('part definition',#2,'design');
#28 = SHAPE_REPRESENTATION('',(#11,#29),#33);
#29 = AXIS2_PLACEMENT_3D('',#30,#31,#32);
#30 = CARTESIAN_POINT('',(0.,0.,0.));
#31 = DIRECTION('',(0.,0.,1.));
#32 = DIRECTION('',(1.,0.,0.));
#33 = ( GEOMETRIC_REPRESENTATION_CONTEXT(3) 
GLOBAL_UNCERTAINTY_ASSIGNED_CONTEXT((#37)) GLOBAL_UNIT_ASSIGNED_CONTEXT(
(#34,#35,#36)) REPRESENTATION_CONTEXT('Context #1',
  '3D Context with UNIT and UNCERTAINTY') );
#34 = ( LENGTH_UNIT() NAMED_UNIT(*) SI_UNIT(.MILLI.,.METRE.) );
#35 = ( NAMED_UNIT(*) PLANE_ANGLE_UNIT() SI_UNIT($,.RADIAN.) );
#36 = ( NAMED_UNIT(*) SI_UNIT($,.STERADIAN.) SOLID_ANGLE_UNIT() );
#37 = UNCERTAINTY_MEASURE_WITH_UNIT(LENGTH_MEASURE(1.E-07),#34,
  'distance_accuracy_value','confusion accuracy');
#38 = PRODUCT_RELATED_PRODUCT_CATEGORY('part',$,(#25));
#39 = SHAPE_DEFINITION_REPRESENTATION(#40,#46);
#40 = PRODUCT_DEFINITION_SHAPE('','',#41);
#41 = PRODUCT_DEFINITION('design','',#42,#45);
#42 = PRODUCT_DEFINITION_FORMATION('','',#43);
#43 = PRODUCT('8080830352','8080830352','',(#44));
#44 = PRODUCT_CONTEXT('',#2,'mechanical');
#45 = PRODUCT_DEFINITION_CONTEXT('part definition',#2,'design');
#46 = SHAPE_REPRESENTATION('',(#11,#47,#51,#55,#59,#63,#67,#71,#75,#79,
    #83,#87),#91);
#47 = AXIS2_PLACEMENT_3D('',#48,#49,#50);
#48 = CARTESIAN_POINT('',(-3.05,-2.55,0.));
#49 = DIRECTION('',(0.,0.,1.));
#50 = DIRECTION('',(1.,0.,0.));
#51 = AXIS2_PLACEMENT_3D('',#52,#53,#54);
#52 = CARTESIAN_POINT('',(-3.05,-2.55,0.));
#53 = DIRECTION('',(0.,0.,1.));
#54 = DIRECTION('',(1.,0.,0.));
#55 = AXIS2_PLACEMENT_3D('',#56,#57,#58);
#56 = CARTESIAN_POINT('',(-1.7,-2.15,-1.E-03));
#57 = DIRECTION('',(0.,0.,1.));
#58 = DIRECTION('',(1.,0.,0.));
#59 = AXIS2_PLACEMENT_3D('',#60,#61,#62);
#60 = CARTESIAN_POINT('',(-3.05,-2.1125,0.));
#61 = DIRECTION('',(0.,0.,1.));
#62 = DIRECTION('',(1.,0.,0.));
#63 = AXIS2_PLACEMENT_3D('',#64,#65,#66);
#64 = CARTESIAN_POINT('',(-3.05,-0.8425,0.));
#65 = DIRECTION('',(0.,0.,1.));
#66 = DIRECTION('',(1.,0.,0.));
#67 = AXIS2_PLACEMENT_3D('',#68,#69,#70);
#68 = CARTESIAN_POINT('',(-3.05,0.4275,0.));
#69 = DIRECTION('',(0.,0.,1.));
#70 = DIRECTION('',(1.,0.,0.));
#71 = AXIS2_PLACEMENT_3D('',#72,#73,#74);
#72 = CARTESIAN_POINT('',(-3.05,1.6975,0.));
#73 = DIRECTION('',(0.,0.,1.));
#74 = DIRECTION('',(1.,0.,0.));
#75 = AXIS2_PLACEMENT_3D('',#76,#77,#78);
#76 = CARTESIAN_POINT('',(3.05,-1.6975,0.));
#77 = DIRECTION('',(0.,0.,1.));
#78 = DIRECTION('',(-1.,1.224646799147E-16,0.));
#79 = AXIS2_PLACEMENT_3D('',#80,#81,#82);
#80 = CARTESIAN_POINT('',(3.05,-0.4275,0.));
#81 = DIRECTION('',(0.,0.,1.));
#82 = DIRECTION('',(-1.,1.224646799147E-16,0.));
#83 = AXIS2_PLACEMENT_3D('',#84,#85,#86);
#84 = CARTESIAN_POINT('',(3.05,0.8425,0.));
#85 = DIRECTION('',(0.,0.,1.));
#86 = DIRECTION('',(-1.,1.224646799147E-16,0.));
#87 = AXIS2_PLACEMENT_3D('',#88,#89,#90);
#88 = CARTESIAN_POINT('',(3.05,2.1125,0.));
#89 = DIRECTION('',(0.,0.,1.));
#90 = DIRECTION('',(-1.,1.224646799147E-16,0.));
#91 = ( GEOMETRIC_REPRESENTATION_CONTEXT(3) 
GLOBAL_UNCERTAINTY_ASSIGNED_CONTEXT((#95)) GLOBAL_UNIT_ASSIGNED_CONTEXT(
(#92,#93,#94)) REPRESENTATION_CONTEXT('Context #1',
  '3D Context with UNIT and UNCERTAINTY') );
#92 = ( LENGTH_UNIT() NAMED_UNIT(*) SI_UNIT(.MILLI.,.METRE.) );
#93 = ( NAMED_UNIT(*) PLANE_ANGLE_UNIT() SI_UNIT($,.RADIAN.) );
#94 = ( NAMED_UNIT(*) SI_UNIT($,.STERADIAN.) SOLID_ANGLE_UNIT() );
#95 = UNCERTAINTY_MEASURE_WITH_UNIT(LENGTH_MEASURE(1.E-07),#92,
  'distance_accuracy_value','confusion accuracy');
#96 = MANIFOLD_SURFACE_SHAPE_REPRESENTATION('',(#11,#97),#116);
#97 = SHELL_BASED_SURFACE_MODEL('',(#98));
#98 = OPEN_SHELL('',(#99));
#99 = ADVANCED_FACE('',(#100),#111,.T.);
#100 = FACE_BOUND('',#101,.T.);
#101 = EDGE_LOOP('',(#102));
#102 = ORIENTED_EDGE('',*,*,#103,.T.);
#103 = EDGE_CURVE('',#104,#104,#106,.T.);
#104 = VERTEX_POINT('',#105);
#105 = CARTESIAN_POINT('',(1.397916666667,4.083333333333,0.701));
#106 = CIRCLE('',#107,0.38125);
#107 = AXIS2_PLACEMENT_3D('',#108,#109,#110);
#108 = CARTESIAN_POINT('',(1.016666666667,4.083333333333,0.701));
#109 = DIRECTION('',(0.,0.,1.));
#110 = DIRECTION('',(1.,0.,-0.));
#111 = PLANE('',#112);
#112 = AXIS2_PLACEMENT_3D('',#113,#114,#115);
#113 = CARTESIAN_POINT('',(1.016666666667,4.083333333333,0.701));
#114 = DIRECTION('',(-3.674708149377E-31,-1.102412444813E-30,1.));
#115 = DIRECTION('',(0.,1.,1.102412444813E-30));
#116 = ( GEOMETRIC_REPRESENTATION_CONTEXT(3) 
GLOBAL_UNCERTAINTY_ASSIGNED_CONTEXT((#120)) GLOBAL_UNIT_ASSIGNED_CONTEXT
((#117,#118,#119)) REPRESENTATION_CONTEXT('Context #1',
  '3D Context with UNIT and UNCERTAINTY') );
#117 = ( LENGTH_UNIT() NAMED_UNIT(*) SI_UNIT(.MILLI.,.METRE.) );
#118 = ( NAMED_UNIT(*) PLANE_ANGLE_UNIT() SI_UNIT($,.RADIAN.) );
#119 = ( NAMED_UNIT(*) SI_UNIT($,.STERADIAN.) SOLID_ANGLE_UNIT() );
#120 = UNCERTAINTY_MEASURE_WITH_UNIT(LENGTH_MEASURE(1.E-07),#117,
  'distance_accuracy_value','confusion accuracy');
#121 = SHAPE_DEFINITION_REPRESENTATION(#122,#96);
#122 = PRODUCT_DEFINITION_SHAPE('','',#123);
#123 = PRODUCT_DEFINITION('design','',#124,#127);
#124 = PRODUCT_DEFINITION_FORMATION('','',#125);
#125 = PRODUCT('Open CASCADE STEP translator 7.5 13.1',
  'Open CASCADE STEP translator 7.5 13.1','',(#126));
#126 = PRODUCT_CONTEXT('',#2,'mechanical');
#127 = PRODUCT_DEFINITION_CONTEXT('part definition',#2,'design');
#128 = CONTEXT_DEPENDENT_SHAPE_REPRESENTATION(#129,#131);
#129 = ( REPRESENTATION_RELATIONSHIP('','',#96,#46) 
REPRESENTATION_RELATIONSHIP_WITH_TRANSFORMATION(#130) 
SHAPE_REPRESENTATION_RELATIONSHIP() );
#130 = ITEM_DEFINED_TRANSFORMATION('','',#11,#47);
#131 = PRODUCT_DEFINITION_SHAPE('Placement','Placement of an item',#132
  );
#132 = NEXT_ASSEMBLY_USAGE_OCCURRENCE('136','125','',#41,#123,$);
#133 = PRODUCT_RELATED_PRODUCT_CATEGORY('part',$,(#125));
#134 = ADVANCED_BREP_SHAPE_REPRESENTATION('',(#11,#135),#330);
#135 = MANIFOLD_SOLID_BREP('',#136);
#136 = CLOSED_SHELL('',(#137,#177,#208,#243,#267,#284,#296,#321));
#137 = ADVANCED_FACE('',(#138),#172,.F.);
#138 = FACE_BOUND('',#139,.F.);
#139 = EDGE_LOOP('',(#140,#150,#158,#166));
#140 = ORIENTED_EDGE('',*,*,#141,.F.);
#141 = EDGE_CURVE('',#142,#144,#146,.T.);
#142 = VERTEX_POINT('',#143);
#143 = CARTESIAN_POINT('',(0.,0.,0.));
#144 = VERTEX_POINT('',#145);
#145 = CARTESIAN_POINT('',(0.,0.,0.8));
#146 = LINE('',#147,#148);
#147 = CARTESIAN_POINT('',(0.,0.,0.));
#148 = VECTOR('',#149,1.);
#149 = DIRECTION('',(0.,0.,1.));
#150 = ORIENTED_EDGE('',*,*,#151,.T.);
#151 = EDGE_CURVE('',#142,#152,#154,.T.);
#152 = VERTEX_POINT('',#153);
#153 = CARTESIAN_POINT('',(0.,5.1,0.));
#154 = LINE('',#155,#156);
#155 = CARTESIAN_POINT('',(0.,0.,0.));
#156 = VECTOR('',#157,1.);
#157 = DIRECTION('',(-0.,1.,0.));
#158 = ORIENTED_EDGE('',*,*,#159,.T.);
#159 = EDGE_CURVE('',#152,#160,#162,.T.);
#160 = VERTEX_POINT('',#161);
#161 = CARTESIAN_POINT('',(0.,5.1,0.8));
#162 = LINE('',#163,#164);
#163 = CARTESIAN_POINT('',(0.,5.1,0.));
#164 = VECTOR('',#165,1.);
#165 = DIRECTION('',(0.,0.,1.));
#166 = ORIENTED_EDGE('',*,*,#167,.F.);
#167 = EDGE_CURVE('',#144,#160,#168,.T.);
#168 = LINE('',#169,#170);
#169 = CARTESIAN_POINT('',(0.,0.,0.8));
#170 = VECTOR('',#171,1.);
#171 = DIRECTION('',(-0.,1.,0.));
#172 = PLANE('',#173);
#173 = AXIS2_PLACEMENT_3D('',#174,#175,#176);
#174 = CARTESIAN_POINT('',(0.,0.,0.));
#175 = DIRECTION('',(1.,0.,-0.));
#176 = DIRECTION('',(0.,0.,1.));
#177 = ADVANCED_FACE('',(#178),#203,.F.);
#178 = FACE_BOUND('',#179,.F.);
#179 = EDGE_LOOP('',(#180,#188,#189,#197));
#180 = ORIENTED_EDGE('',*,*,#181,.F.);
#181 = EDGE_CURVE('',#142,#182,#184,.T.);
#182 = VERTEX_POINT('',#183);
#183 = CARTESIAN_POINT('',(6.1,0.,0.));
#184 = LINE('',#185,#186);
#185 = CARTESIAN_POINT('',(0.,0.,0.));
#186 = VECTOR('',#187,1.);
#187 = DIRECTION('',(1.,0.,-0.));
#188 = ORIENTED_EDGE('',*,*,#141,.T.);
#189 = ORIENTED_EDGE('',*,*,#190,.T.);
#190 = EDGE_CURVE('',#144,#191,#193,.T.);
#191 = VERTEX_POINT('',#192);
#192 = CARTESIAN_POINT('',(6.1,0.,0.8));
#193 = LINE('',#194,#195);
#194 = CARTESIAN_POINT('',(0.,0.,0.8));
#195 = VECTOR('',#196,1.);
#196 = DIRECTION('',(1.,0.,-0.));
#197 = ORIENTED_EDGE('',*,*,#198,.F.);
#198 = EDGE_CURVE('',#182,#191,#199,.T.);
#199 = LINE('',#200,#201);
#200 = CARTESIAN_POINT('',(6.1,0.,0.));
#201 = VECTOR('',#202,1.);
#202 = DIRECTION('',(0.,0.,1.));
#203 = PLANE('',#204);
#204 = AXIS2_PLACEMENT_3D('',#205,#206,#207);
#205 = CARTESIAN_POINT('',(0.,0.,0.));
#206 = DIRECTION('',(-0.,1.,0.));
#207 = DIRECTION('',(0.,0.,1.));
#208 = ADVANCED_FACE('',(#209,#227),#238,.T.);
#209 = FACE_BOUND('',#210,.T.);
#210 = EDGE_LOOP('',(#211,#212,#213,#221));
#211 = ORIENTED_EDGE('',*,*,#167,.F.);
#212 = ORIENTED_EDGE('',*,*,#190,.T.);
#213 = ORIENTED_EDGE('',*,*,#214,.T.);
#214 = EDGE_CURVE('',#191,#215,#217,.T.);
#215 = VERTEX_POINT('',#216);
#216 = CARTESIAN_POINT('',(6.1,5.1,0.8));
#217 = LINE('',#218,#219);
#218 = CARTESIAN_POINT('',(6.1,0.,0.8));
#219 = VECTOR('',#220,1.);
#220 = DIRECTION('',(-0.,1.,0.));
#221 = ORIENTED_EDGE('',*,*,#222,.F.);
#222 = EDGE_CURVE('',#160,#215,#223,.T.);
#223 = LINE('',#224,#225);
#224 = CARTESIAN_POINT('',(0.,5.1,0.8));
#225 = VECTOR('',#226,1.);
#226 = DIRECTION('',(1.,0.,-0.));
#227 = FACE_BOUND('',#228,.T.);
#228 = EDGE_LOOP('',(#229));
#229 = ORIENTED_EDGE('',*,*,#230,.F.);
#230 = EDGE_CURVE('',#231,#231,#233,.T.);
#231 = VERTEX_POINT('',#232);
#232 = CARTESIAN_POINT('',(1.397916666667,4.083333333333,0.8));
#233 = CIRCLE('',#234,0.38125);
#234 = AXIS2_PLACEMENT_3D('',#235,#236,#237);
#235 = CARTESIAN_POINT('',(1.016666666667,4.083333333333,0.8));
#236 = DIRECTION('',(0.,0.,1.));
#237 = DIRECTION('',(1.,0.,-0.));
#238 = PLANE('',#239);
#239 = AXIS2_PLACEMENT_3D('',#240,#241,#242);
#240 = CARTESIAN_POINT('',(0.,0.,0.8));
#241 = DIRECTION('',(0.,0.,1.));
#242 = DIRECTION('',(1.,0.,-0.));
#243 = ADVANCED_FACE('',(#244),#262,.T.);
#244 = FACE_BOUND('',#245,.T.);
#245 = EDGE_LOOP('',(#246,#254,#255,#256));
#246 = ORIENTED_EDGE('',*,*,#247,.F.);
#247 = EDGE_CURVE('',#152,#248,#250,.T.);
#248 = VERTEX_POINT('',#249);
#249 = CARTESIAN_POINT('',(6.1,5.1,0.));
#250 = LINE('',#251,#252);
#251 = CARTESIAN_POINT('',(0.,5.1,0.));
#252 = VECTOR('',#253,1.);
#253 = DIRECTION('',(1.,0.,-0.));
#254 = ORIENTED_EDGE('',*,*,#159,.T.);
#255 = ORIENTED_EDGE('',*,*,#222,.T.);
#256 = ORIENTED_EDGE('',*,*,#257,.F.);
#257 = EDGE_CURVE('',#248,#215,#258,.T.);
#258 = LINE('',#259,#260);
#259 = CARTESIAN_POINT('',(6.1,5.1,0.));
#260 = VECTOR('',#261,1.);
#261 = DIRECTION('',(0.,0.,1.));
#262 = PLANE('',#263);
#263 = AXIS2_PLACEMENT_3D('',#264,#265,#266);
#264 = CARTESIAN_POINT('',(0.,5.1,0.));
#265 = DIRECTION('',(-0.,1.,0.));
#266 = DIRECTION('',(0.,0.,1.));
#267 = ADVANCED_FACE('',(#268),#279,.F.);
#268 = FACE_BOUND('',#269,.F.);
#269 = EDGE_LOOP('',(#270,#271,#272,#278));
#270 = ORIENTED_EDGE('',*,*,#151,.F.);
#271 = ORIENTED_EDGE('',*,*,#181,.T.);
#272 = ORIENTED_EDGE('',*,*,#273,.T.);
#273 = EDGE_CURVE('',#182,#248,#274,.T.);
#274 = LINE('',#275,#276);
#275 = CARTESIAN_POINT('',(6.1,0.,0.));
#276 = VECTOR('',#277,1.);
#277 = DIRECTION('',(-0.,1.,0.));
#278 = ORIENTED_EDGE('',*,*,#247,.F.);
#279 = PLANE('',#280);
#280 = AXIS2_PLACEMENT_3D('',#281,#282,#283);
#281 = CARTESIAN_POINT('',(0.,0.,0.));
#282 = DIRECTION('',(0.,0.,1.));
#283 = DIRECTION('',(1.,0.,-0.));
#284 = ADVANCED_FACE('',(#285),#291,.T.);
#285 = FACE_BOUND('',#286,.T.);
#286 = EDGE_LOOP('',(#287,#288,#289,#290));
#287 = ORIENTED_EDGE('',*,*,#198,.F.);
#288 = ORIENTED_EDGE('',*,*,#273,.T.);
#289 = ORIENTED_EDGE('',*,*,#257,.T.);
#290 = ORIENTED_EDGE('',*,*,#214,.F.);
#291 = PLANE('',#292);
#292 = AXIS2_PLACEMENT_3D('',#293,#294,#295);
#293 = CARTESIAN_POINT('',(6.1,0.,0.));
#294 = DIRECTION('',(1.,0.,-0.));
#295 = DIRECTION('',(0.,0.,1.));
#296 = ADVANCED_FACE('',(#297),#316,.F.);
#297 = FACE_BOUND('',#298,.F.);
#298 = EDGE_LOOP('',(#299,#300,#308,#315));
#299 = ORIENTED_EDGE('',*,*,#230,.F.);
#300 = ORIENTED_EDGE('',*,*,#301,.F.);
#301 = EDGE_CURVE('',#302,#231,#304,.T.);
#302 = VERTEX_POINT('',#303);
#303 = CARTESIAN_POINT('',(1.397916666667,4.083333333333,0.7));
#304 = LINE('',#305,#306);
#305 = CARTESIAN_POINT('',(1.397916666667,4.083333333333,0.7));
#306 = VECTOR('',#307,1.);
#307 = DIRECTION('',(0.,0.,1.));
#308 = ORIENTED_EDGE('',*,*,#309,.T.);
#309 = EDGE_CURVE('',#302,#302,#310,.T.);
#310 = CIRCLE('',#311,0.38125);
#311 = AXIS2_PLACEMENT_3D('',#312,#313,#314);
#312 = CARTESIAN_POINT('',(1.016666666667,4.083333333333,0.7));
#313 = DIRECTION('',(0.,0.,1.));
#314 = DIRECTION('',(1.,0.,-0.));
#315 = ORIENTED_EDGE('',*,*,#301,.T.);
#316 = CYLINDRICAL_SURFACE('',#317,0.38125);
#317 = AXIS2_PLACEMENT_3D('',#318,#319,#320);
#318 = CARTESIAN_POINT('',(1.016666666667,4.083333333333,0.7));
#319 = DIRECTION('',(0.,0.,1.));
#320 = DIRECTION('',(1.,0.,-0.));
#321 = ADVANCED_FACE('',(#322),#325,.T.);
#322 = FACE_BOUND('',#323,.F.);
#323 = EDGE_LOOP('',(#324));
#324 = ORIENTED_EDGE('',*,*,#309,.F.);
#325 = PLANE('',#326);
#326 = AXIS2_PLACEMENT_3D('',#327,#328,#329);
#327 = CARTESIAN_POINT('',(1.016666666667,4.083333333333,0.7));
#328 = DIRECTION('',(0.,0.,1.));
#329 = DIRECTION('',(1.,0.,-0.));
#330 = ( GEOMETRIC_REPRESENTATION_CONTEXT(3) 
GLOBAL_UNCERTAINTY_ASSIGNED_CONTEXT((#334)) GLOBAL_UNIT_ASSIGNED_CONTEXT
((#331,#332,#333)) REPRESENTATION_CONTEXT('Context #1',
  '3D Context with UNIT and UNCERTAINTY') );
#331 = ( LENGTH_UNIT() NAMED_UNIT(*) SI_UNIT(.MILLI.,.METRE.) );
#332 = ( NAMED_UNIT(*) PLANE_ANGLE_UNIT() SI_UNIT($,.RADIAN.) );
#333 = ( NAMED_UNIT(*) SI_UNIT($,.STERADIAN.) SOLID_ANGLE_UNIT() );
#334 = UNCERTAINTY_MEASURE_WITH_UNIT(LENGTH_MEASURE(1.E-07),#331,
  'distance_accuracy_value','confusion accuracy');
#335 = SHAPE_DEFINITION_REPRESENTATION(#336,#134);
#336 = PRODUCT_DEFINITION_SHAPE('','',#337);
#337 = PRODUCT_DEFINITION('design','',#338,#341);
#338 = PRODUCT_DEFINITION_FORMATION('','',#339);
#339 = PRODUCT('Body','Body','',(#340));
#340 = PRODUCT_CONTEXT('',#2,'mechanical');
#341 = PRODUCT_DEFINITION_CONTEXT('part definition',#2,'design');
#342 = CONTEXT_DEPENDENT_SHAPE_REPRESENTATION(#343,#345);
#343 = ( REPRESENTATION_RELATIONSHIP('','',#134,#46) 
REPRESENTATION_RELATIONSHIP_WITH_TRANSFORMATION(#344) 
SHAPE_REPRESENTATION_RELATIONSHIP() );
#344 = ITEM_DEFINED_TRANSFORMATION('','',#11,#51);
#345 = PRODUCT_DEFINITION_SHAPE('Placement','Placement of an item',#346
  );
#346 = NEXT_ASSEMBLY_USAGE_OCCURRENCE('137','126','',#41,#337,$);
#347 = PRODUCT_RELATED_PRODUCT_CATEGORY('part',$,(#339));
#348 = ADVANCED_BREP_SHAPE_REPRESENTATION('',(#11,#349),#532);
#349 = MANIFOLD_SOLID_BREP('',#350);
#350 = CLOSED_SHELL('',(#351,#391,#422,#453,#484,#506,#519));
#351 = ADVANCED_FACE('',(#352),#386,.F.);
#352 = FACE_BOUND('',#353,.F.);
#353 = EDGE_LOOP('',(#354,#364,#372,#380));
#354 = ORIENTED_EDGE('',*,*,#355,.T.);
#355 = EDGE_CURVE('',#356,#358,#360,.T.);
#356 = VERTEX_POINT('',#357);
#357 = CARTESIAN_POINT('',(0.,0.,0.));
#358 = VERTEX_POINT('',#359);
#359 = CARTESIAN_POINT('',(0.,0.,1.E-03));
#360 = LINE('',#361,#362);
#361 = CARTESIAN_POINT('',(0.,0.,0.));
#362 = VECTOR('',#363,1.);
#363 = DIRECTION('',(0.,0.,1.));
#364 = ORIENTED_EDGE('',*,*,#365,.T.);
#365 = EDGE_CURVE('',#358,#366,#368,.T.);
#366 = VERTEX_POINT('',#367);
#367 = CARTESIAN_POINT('',(3.4,0.,1.E-03));
#368 = LINE('',#369,#370);
#369 = CARTESIAN_POINT('',(0.,0.,1.E-03));
#370 = VECTOR('',#371,1.);
#371 = DIRECTION('',(1.,0.,0.));
#372 = ORIENTED_EDGE('',*,*,#373,.F.);
#373 = EDGE_CURVE('',#374,#366,#376,.T.);
#374 = VERTEX_POINT('',#375);
#375 = CARTESIAN_POINT('',(3.4,0.,0.));
#376 = LINE('',#377,#378);
#377 = CARTESIAN_POINT('',(3.4,0.,0.));
#378 = VECTOR('',#379,1.);
#379 = DIRECTION('',(0.,0.,1.));
#380 = ORIENTED_EDGE('',*,*,#381,.F.);
#381 = EDGE_CURVE('',#356,#374,#382,.T.);
#382 = LINE('',#383,#384);
#383 = CARTESIAN_POINT('',(0.,0.,0.));
#384 = VECTOR('',#385,1.);
#385 = DIRECTION('',(1.,0.,0.));
#386 = PLANE('',#387);
#387 = AXIS2_PLACEMENT_3D('',#388,#389,#390);
#388 = CARTESIAN_POINT('',(0.,0.,0.));
#389 = DIRECTION('',(0.,1.,0.));
#390 = DIRECTION('',(1.,0.,0.));
#391 = ADVANCED_FACE('',(#392),#417,.F.);
#392 = FACE_BOUND('',#393,.F.);
#393 = EDGE_LOOP('',(#394,#395,#403,#411));
#394 = ORIENTED_EDGE('',*,*,#373,.T.);
#395 = ORIENTED_EDGE('',*,*,#396,.T.);
#396 = EDGE_CURVE('',#366,#397,#399,.T.);
#397 = VERTEX_POINT('',#398);
#398 = CARTESIAN_POINT('',(3.4,4.3,1.E-03));
#399 = LINE('',#400,#401);
#400 = CARTESIAN_POINT('',(3.4,0.,1.E-03));
#401 = VECTOR('',#402,1.);
#402 = DIRECTION('',(0.,1.,0.));
#403 = ORIENTED_EDGE('',*,*,#404,.F.);
#404 = EDGE_CURVE('',#405,#397,#407,.T.);
#405 = VERTEX_POINT('',#406);
#406 = CARTESIAN_POINT('',(3.4,4.3,0.));
#407 = LINE('',#408,#409);
#408 = CARTESIAN_POINT('',(3.4,4.3,0.));
#409 = VECTOR('',#410,1.);
#410 = DIRECTION('',(0.,0.,1.));
#411 = ORIENTED_EDGE('',*,*,#412,.F.);
#412 = EDGE_CURVE('',#374,#405,#413,.T.);
#413 = LINE('',#414,#415);
#414 = CARTESIAN_POINT('',(3.4,0.,0.));
#415 = VECTOR('',#416,1.);
#416 = DIRECTION('',(0.,1.,0.));
#417 = PLANE('',#418);
#418 = AXIS2_PLACEMENT_3D('',#419,#420,#421);
#419 = CARTESIAN_POINT('',(3.4,0.,0.));
#420 = DIRECTION('',(-1.,0.,0.));
#421 = DIRECTION('',(0.,1.,0.));
#422 = ADVANCED_FACE('',(#423),#448,.F.);
#423 = FACE_BOUND('',#424,.F.);
#424 = EDGE_LOOP('',(#425,#426,#434,#442));
#425 = ORIENTED_EDGE('',*,*,#404,.T.);
#426 = ORIENTED_EDGE('',*,*,#427,.T.);
#427 = EDGE_CURVE('',#397,#428,#430,.T.);
#428 = VERTEX_POINT('',#429);
#429 = CARTESIAN_POINT('',(0.35,4.3,1.E-03));
#430 = LINE('',#431,#432);
#431 = CARTESIAN_POINT('',(3.4,4.3,1.E-03));
#432 = VECTOR('',#433,1.);
#433 = DIRECTION('',(-1.,0.,0.));
#434 = ORIENTED_EDGE('',*,*,#435,.F.);
#435 = EDGE_CURVE('',#436,#428,#438,.T.);
#436 = VERTEX_POINT('',#437);
#437 = CARTESIAN_POINT('',(0.35,4.3,0.));
#438 = LINE('',#439,#440);
#439 = CARTESIAN_POINT('',(0.35,4.3,0.));
#440 = VECTOR('',#441,1.);
#441 = DIRECTION('',(0.,0.,1.));
#442 = ORIENTED_EDGE('',*,*,#443,.F.);
#443 = EDGE_CURVE('',#405,#436,#444,.T.);
#444 = LINE('',#445,#446);
#445 = CARTESIAN_POINT('',(3.4,4.3,0.));
#446 = VECTOR('',#447,1.);
#447 = DIRECTION('',(-1.,0.,0.));
#448 = PLANE('',#449);
#449 = AXIS2_PLACEMENT_3D('',#450,#451,#452);
#450 = CARTESIAN_POINT('',(3.4,4.3,0.));
#451 = DIRECTION('',(0.,-1.,0.));
#452 = DIRECTION('',(-1.,0.,0.));
#453 = ADVANCED_FACE('',(#454),#479,.F.);
#454 = FACE_BOUND('',#455,.F.);
#455 = EDGE_LOOP('',(#456,#457,#465,#473));
#456 = ORIENTED_EDGE('',*,*,#435,.T.);
#457 = ORIENTED_EDGE('',*,*,#458,.T.);
#458 = EDGE_CURVE('',#428,#459,#461,.T.);
#459 = VERTEX_POINT('',#460);
#460 = CARTESIAN_POINT('',(0.,3.95,1.E-03));
#461 = LINE('',#462,#463);
#462 = CARTESIAN_POINT('',(0.35,4.3,1.E-03));
#463 = VECTOR('',#464,1.);
#464 = DIRECTION('',(-0.707106781187,-0.707106781187,0.));
#465 = ORIENTED_EDGE('',*,*,#466,.F.);
#466 = EDGE_CURVE('',#467,#459,#469,.T.);
#467 = VERTEX_POINT('',#468);
#468 = CARTESIAN_POINT('',(0.,3.95,0.));
#469 = LINE('',#470,#471);
#470 = CARTESIAN_POINT('',(0.,3.95,0.));
#471 = VECTOR('',#472,1.);
#472 = DIRECTION('',(0.,0.,1.));
#473 = ORIENTED_EDGE('',*,*,#474,.F.);
#474 = EDGE_CURVE('',#436,#467,#475,.T.);
#475 = LINE('',#476,#477);
#476 = CARTESIAN_POINT('',(0.35,4.3,0.));
#477 = VECTOR('',#478,1.);
#478 = DIRECTION('',(-0.707106781187,-0.707106781187,0.));
#479 = PLANE('',#480);
#480 = AXIS2_PLACEMENT_3D('',#481,#482,#483);
#481 = CARTESIAN_POINT('',(0.35,4.3,0.));
#482 = DIRECTION('',(0.707106781187,-0.707106781187,0.));
#483 = DIRECTION('',(-0.707106781187,-0.707106781187,0.));
#484 = ADVANCED_FACE('',(#485),#501,.F.);
#485 = FACE_BOUND('',#486,.F.);
#486 = EDGE_LOOP('',(#487,#488,#494,#495));
#487 = ORIENTED_EDGE('',*,*,#466,.T.);
#488 = ORIENTED_EDGE('',*,*,#489,.T.);
#489 = EDGE_CURVE('',#459,#358,#490,.T.);
#490 = LINE('',#491,#492);
#491 = CARTESIAN_POINT('',(0.,3.95,1.E-03));
#492 = VECTOR('',#493,1.);
#493 = DIRECTION('',(0.,-1.,0.));
#494 = ORIENTED_EDGE('',*,*,#355,.F.);
#495 = ORIENTED_EDGE('',*,*,#496,.F.);
#496 = EDGE_CURVE('',#467,#356,#497,.T.);
#497 = LINE('',#498,#499);
#498 = CARTESIAN_POINT('',(0.,3.95,0.));
#499 = VECTOR('',#500,1.);
#500 = DIRECTION('',(0.,-1.,0.));
#501 = PLANE('',#502);
#502 = AXIS2_PLACEMENT_3D('',#503,#504,#505);
#503 = CARTESIAN_POINT('',(0.,3.95,0.));
#504 = DIRECTION('',(1.,0.,-0.));
#505 = DIRECTION('',(0.,-1.,0.));
#506 = ADVANCED_FACE('',(#507),#514,.F.);
#507 = FACE_BOUND('',#508,.F.);
#508 = EDGE_LOOP('',(#509,#510,#511,#512,#513));
#509 = ORIENTED_EDGE('',*,*,#381,.T.);
#510 = ORIENTED_EDGE('',*,*,#412,.T.);
#511 = ORIENTED_EDGE('',*,*,#443,.T.);
#512 = ORIENTED_EDGE('',*,*,#474,.T.);
#513 = ORIENTED_EDGE('',*,*,#496,.T.);
#514 = PLANE('',#515);
#515 = AXIS2_PLACEMENT_3D('',#516,#517,#518);
#516 = CARTESIAN_POINT('',(1.724607708622,2.119320457403,0.));
#517 = DIRECTION('',(0.,0.,1.));
#518 = DIRECTION('',(1.,0.,-0.));
#519 = ADVANCED_FACE('',(#520),#527,.T.);
#520 = FACE_BOUND('',#521,.T.);
#521 = EDGE_LOOP('',(#522,#523,#524,#525,#526));
#522 = ORIENTED_EDGE('',*,*,#365,.T.);
#523 = ORIENTED_EDGE('',*,*,#396,.T.);
#524 = ORIENTED_EDGE('',*,*,#427,.T.);
#525 = ORIENTED_EDGE('',*,*,#458,.T.);
#526 = ORIENTED_EDGE('',*,*,#489,.T.);
#527 = PLANE('',#528);
#528 = AXIS2_PLACEMENT_3D('',#529,#530,#531);
#529 = CARTESIAN_POINT('',(1.724607708622,2.119320457403,1.E-03));
#530 = DIRECTION('',(0.,0.,1.));
#531 = DIRECTION('',(1.,0.,-0.));
#532 = ( GEOMETRIC_REPRESENTATION_CONTEXT(3) 
GLOBAL_UNCERTAINTY_ASSIGNED_CONTEXT((#536)) GLOBAL_UNIT_ASSIGNED_CONTEXT
((#533,#534,#535)) REPRESENTATION_CONTEXT('Context #1',
  '3D Context with UNIT and UNCERTAINTY') );
#533 = ( LENGTH_UNIT() NAMED_UNIT(*) SI_UNIT(.MILLI.,.METRE.) );
#534 = ( NAMED_UNIT(*) PLANE_ANGLE_UNIT() SI_UNIT($,.RADIAN.) );
#535 = ( NAMED_UNIT(*) SI_UNIT($,.STERADIAN.) SOLID_ANGLE_UNIT() );
#536 = UNCERTAINTY_MEASURE_WITH_UNIT(LENGTH_MEASURE(1.E-07),#533,
  'distance_accuracy_value','confusion accuracy');
#537 = SHAPE_DEFINITION_REPRESENTATION(#538,#348);
#538 = PRODUCT_DEFINITION_SHAPE('','',#539);
#539 = PRODUCT_DEFINITION('design','',#540,#543);
#540 = PRODUCT_DEFINITION_FORMATION('','',#541);
#541 = PRODUCT('Thermal Shape','Thermal Shape','',(#542));
#542 = PRODUCT_CONTEXT('',#2,'mechanical');
#543 = PRODUCT_DEFINITION_CONTEXT('part definition',#2,'design');
#544 = CONTEXT_DEPENDENT_SHAPE_REPRESENTATION(#545,#547);
#545 = ( REPRESENTATION_RELATIONSHIP('','',#348,#46) 
REPRESENTATION_RELATIONSHIP_WITH_TRANSFORMATION(#546) 
SHAPE_REPRESENTATION_RELATIONSHIP() );
#546 = ITEM_DEFINED_TRANSFORMATION('','',#11,#55);
#547 = PRODUCT_DEFINITION_SHAPE('Placement','Placement of an item',#548
  );
#548 = NEXT_ASSEMBLY_USAGE_OCCURRENCE('138','127','',#41,#539,$);
#549 = PRODUCT_RELATED_PRODUCT_CATEGORY('part',$,(#541));
#550 = ADVANCED_BREP_SHAPE_REPRESENTATION('',(#11,#551),#893);
#551 = MANIFOLD_SOLID_BREP('',#552);
#552 = CLOSED_SHELL('',(#553,#593,#624,#655,#686,#710,#734,#758,#782,
    #804,#828,#852,#869,#881));
#553 = ADVANCED_FACE('',(#554),#588,.F.);
#554 = FACE_BOUND('',#555,.F.);
#555 = EDGE_LOOP('',(#556,#566,#574,#582));
#556 = ORIENTED_EDGE('',*,*,#557,.F.);
#557 = EDGE_CURVE('',#558,#560,#562,.T.);
#558 = VERTEX_POINT('',#559);
#559 = CARTESIAN_POINT('',(-1.E-03,0.,0.));
#560 = VERTEX_POINT('',#561);
#561 = CARTESIAN_POINT('',(0.,0.,0.));
#562 = LINE('',#563,#564);
#563 = CARTESIAN_POINT('',(-1.E-03,0.,0.));
#564 = VECTOR('',#565,1.);
#565 = DIRECTION('',(1.,0.,0.));
#566 = ORIENTED_EDGE('',*,*,#567,.T.);
#567 = EDGE_CURVE('',#558,#568,#570,.T.);
#568 = VERTEX_POINT('',#569);
#569 = CARTESIAN_POINT('',(-1.E-03,0.,1.E-03));
#570 = LINE('',#571,#572);
#571 = CARTESIAN_POINT('',(-1.E-03,0.,0.));
#572 = VECTOR('',#573,1.);
#573 = DIRECTION('',(0.,0.,1.));
#574 = ORIENTED_EDGE('',*,*,#575,.T.);
#575 = EDGE_CURVE('',#568,#576,#578,.T.);
#576 = VERTEX_POINT('',#577);
#577 = CARTESIAN_POINT('',(-2.194425197111E-19,0.,1.E-03));
#578 = LINE('',#579,#580);
#579 = CARTESIAN_POINT('',(-1.E-03,0.,1.E-03));
#580 = VECTOR('',#581,1.);
#581 = DIRECTION('',(1.,0.,0.));
#582 = ORIENTED_EDGE('',*,*,#583,.F.);
#583 = EDGE_CURVE('',#560,#576,#584,.T.);
#584 = LINE('',#585,#586);
#585 = CARTESIAN_POINT('',(0.,0.,0.));
#586 = VECTOR('',#587,1.);
#587 = DIRECTION('',(-2.22044604925E-16,0.,1.));
#588 = PLANE('',#589);
#589 = AXIS2_PLACEMENT_3D('',#590,#591,#592);
#590 = CARTESIAN_POINT('',(-1.E-03,0.,0.));
#591 = DIRECTION('',(0.,1.,0.));
#592 = DIRECTION('',(1.,0.,0.));
#593 = ADVANCED_FACE('',(#594),#619,.F.);
#594 = FACE_BOUND('',#595,.F.);
#595 = EDGE_LOOP('',(#596,#604,#605,#613));
#596 = ORIENTED_EDGE('',*,*,#597,.T.);
#597 = EDGE_CURVE('',#598,#558,#600,.T.);
#598 = VERTEX_POINT('',#599);
#599 = CARTESIAN_POINT('',(-1.E-03,0.415,0.));
#600 = LINE('',#601,#602);
#601 = CARTESIAN_POINT('',(-1.E-03,0.415,0.));
#602 = VECTOR('',#603,1.);
#603 = DIRECTION('',(0.,-1.,0.));
#604 = ORIENTED_EDGE('',*,*,#557,.T.);
#605 = ORIENTED_EDGE('',*,*,#606,.F.);
#606 = EDGE_CURVE('',#607,#560,#609,.T.);
#607 = VERTEX_POINT('',#608);
#608 = CARTESIAN_POINT('',(0.,0.415,0.));
#609 = LINE('',#610,#611);
#610 = CARTESIAN_POINT('',(0.,0.415,0.));
#611 = VECTOR('',#612,1.);
#612 = DIRECTION('',(-0.,-1.,0.));
#613 = ORIENTED_EDGE('',*,*,#614,.T.);
#614 = EDGE_CURVE('',#607,#598,#615,.T.);
#615 = LINE('',#616,#617);
#616 = CARTESIAN_POINT('',(0.6,0.415,0.));
#617 = VECTOR('',#618,1.);
#618 = DIRECTION('',(-1.,0.,0.));
#619 = PLANE('',#620);
#620 = AXIS2_PLACEMENT_3D('',#621,#622,#623);
#621 = CARTESIAN_POINT('',(0.2995,0.2075,0.));
#622 = DIRECTION('',(0.,0.,1.));
#623 = DIRECTION('',(1.,0.,-0.));
#624 = ADVANCED_FACE('',(#625),#650,.F.);
#625 = FACE_BOUND('',#626,.F.);
#626 = EDGE_LOOP('',(#627,#635,#636,#644));
#627 = ORIENTED_EDGE('',*,*,#628,.F.);
#628 = EDGE_CURVE('',#560,#629,#631,.T.);
#629 = VERTEX_POINT('',#630);
#630 = CARTESIAN_POINT('',(0.6,0.,0.));
#631 = LINE('',#632,#633);
#632 = CARTESIAN_POINT('',(-1.E-03,0.,0.));
#633 = VECTOR('',#634,1.);
#634 = DIRECTION('',(1.,0.,0.));
#635 = ORIENTED_EDGE('',*,*,#583,.T.);
#636 = ORIENTED_EDGE('',*,*,#637,.T.);
#637 = EDGE_CURVE('',#576,#638,#640,.T.);
#638 = VERTEX_POINT('',#639);
#639 = CARTESIAN_POINT('',(0.6,0.,1.E-03));
#640 = LINE('',#641,#642);
#641 = CARTESIAN_POINT('',(-1.E-03,0.,1.E-03));
#642 = VECTOR('',#643,1.);
#643 = DIRECTION('',(1.,0.,0.));
#644 = ORIENTED_EDGE('',*,*,#645,.F.);
#645 = EDGE_CURVE('',#629,#638,#646,.T.);
#646 = LINE('',#647,#648);
#647 = CARTESIAN_POINT('',(0.6,0.,0.));
#648 = VECTOR('',#649,1.);
#649 = DIRECTION('',(0.,0.,1.));
#650 = PLANE('',#651);
#651 = AXIS2_PLACEMENT_3D('',#652,#653,#654);
#652 = CARTESIAN_POINT('',(-1.E-03,0.,0.));
#653 = DIRECTION('',(0.,1.,0.));
#654 = DIRECTION('',(1.,0.,0.));
#655 = ADVANCED_FACE('',(#656),#681,.F.);
#656 = FACE_BOUND('',#657,.F.);
#657 = EDGE_LOOP('',(#658,#659,#667,#675));
#658 = ORIENTED_EDGE('',*,*,#575,.F.);
#659 = ORIENTED_EDGE('',*,*,#660,.T.);
#660 = EDGE_CURVE('',#568,#661,#663,.T.);
#661 = VERTEX_POINT('',#662);
#662 = CARTESIAN_POINT('',(-1.E-03,0.,0.2));
#663 = LINE('',#664,#665);
#664 = CARTESIAN_POINT('',(-1.E-03,0.,0.));
#665 = VECTOR('',#666,1.);
#666 = DIRECTION('',(-2.22044604925E-16,0.,1.));
#667 = ORIENTED_EDGE('',*,*,#668,.F.);
#668 = EDGE_CURVE('',#669,#661,#671,.T.);
#669 = VERTEX_POINT('',#670);
#670 = CARTESIAN_POINT('',(-4.440892098501E-17,0.,0.2));
#671 = LINE('',#672,#673);
#672 = CARTESIAN_POINT('',(-4.440892098501E-17,0.,0.2));
#673 = VECTOR('',#674,1.);
#674 = DIRECTION('',(-1.,0.,0.));
#675 = ORIENTED_EDGE('',*,*,#676,.F.);
#676 = EDGE_CURVE('',#576,#669,#677,.T.);
#677 = LINE('',#678,#679);
#678 = CARTESIAN_POINT('',(0.,0.,0.));
#679 = VECTOR('',#680,1.);
#680 = DIRECTION('',(-2.22044604925E-16,0.,1.));
#681 = PLANE('',#682);
#682 = AXIS2_PLACEMENT_3D('',#683,#684,#685);
#683 = CARTESIAN_POINT('',(0.,0.,0.));
#684 = DIRECTION('',(0.,1.,0.));
#685 = DIRECTION('',(-2.22044604925E-16,0.,1.));
#686 = ADVANCED_FACE('',(#687),#705,.F.);
#687 = FACE_BOUND('',#688,.F.);
#688 = EDGE_LOOP('',(#689,#697,#703,#704));
#689 = ORIENTED_EDGE('',*,*,#690,.T.);
#690 = EDGE_CURVE('',#598,#691,#693,.T.);
#691 = VERTEX_POINT('',#692);
#692 = CARTESIAN_POINT('',(-1.E-03,0.415,1.E-03));
#693 = LINE('',#694,#695);
#694 = CARTESIAN_POINT('',(-1.E-03,0.415,0.));
#695 = VECTOR('',#696,1.);
#696 = DIRECTION('',(0.,0.,1.));
#697 = ORIENTED_EDGE('',*,*,#698,.T.);
#698 = EDGE_CURVE('',#691,#568,#699,.T.);
#699 = LINE('',#700,#701);
#700 = CARTESIAN_POINT('',(-1.E-03,0.415,1.E-03));
#701 = VECTOR('',#702,1.);
#702 = DIRECTION('',(0.,-1.,0.));
#703 = ORIENTED_EDGE('',*,*,#567,.F.);
#704 = ORIENTED_EDGE('',*,*,#597,.F.);
#705 = PLANE('',#706);
#706 = AXIS2_PLACEMENT_3D('',#707,#708,#709);
#707 = CARTESIAN_POINT('',(-1.E-03,0.415,0.));
#708 = DIRECTION('',(1.,0.,-0.));
#709 = DIRECTION('',(0.,-1.,0.));
#710 = ADVANCED_FACE('',(#711),#729,.F.);
#711 = FACE_BOUND('',#712,.F.);
#712 = EDGE_LOOP('',(#713,#714,#722,#728));
#713 = ORIENTED_EDGE('',*,*,#614,.F.);
#714 = ORIENTED_EDGE('',*,*,#715,.F.);
#715 = EDGE_CURVE('',#716,#607,#718,.T.);
#716 = VERTEX_POINT('',#717);
#717 = CARTESIAN_POINT('',(-1.110223024625E-19,0.415,1.E-03));
#718 = LINE('',#719,#720);
#719 = CARTESIAN_POINT('',(-4.440892098501E-17,0.415,0.2));
#720 = VECTOR('',#721,1.);
#721 = DIRECTION('',(2.22044604925E-16,0.,-1.));
#722 = ORIENTED_EDGE('',*,*,#723,.T.);
#723 = EDGE_CURVE('',#716,#691,#724,.T.);
#724 = LINE('',#725,#726);
#725 = CARTESIAN_POINT('',(0.6,0.415,1.E-03));
#726 = VECTOR('',#727,1.);
#727 = DIRECTION('',(-1.,0.,0.));
#728 = ORIENTED_EDGE('',*,*,#690,.F.);
#729 = PLANE('',#730);
#730 = AXIS2_PLACEMENT_3D('',#731,#732,#733);
#731 = CARTESIAN_POINT('',(0.6,0.415,0.));
#732 = DIRECTION('',(0.,-1.,0.));
#733 = DIRECTION('',(-1.,0.,0.));
#734 = ADVANCED_FACE('',(#735),#753,.F.);
#735 = FACE_BOUND('',#736,.F.);
#736 = EDGE_LOOP('',(#737,#738,#739,#747));
#737 = ORIENTED_EDGE('',*,*,#606,.T.);
#738 = ORIENTED_EDGE('',*,*,#628,.T.);
#739 = ORIENTED_EDGE('',*,*,#740,.T.);
#740 = EDGE_CURVE('',#629,#741,#743,.T.);
#741 = VERTEX_POINT('',#742);
#742 = CARTESIAN_POINT('',(0.6,0.415,0.));
#743 = LINE('',#744,#745);
#744 = CARTESIAN_POINT('',(0.6,0.,0.));
#745 = VECTOR('',#746,1.);
#746 = DIRECTION('',(0.,1.,0.));
#747 = ORIENTED_EDGE('',*,*,#748,.T.);
#748 = EDGE_CURVE('',#741,#607,#749,.T.);
#749 = LINE('',#750,#751);
#750 = CARTESIAN_POINT('',(0.6,0.415,0.));
#751 = VECTOR('',#752,1.);
#752 = DIRECTION('',(-1.,0.,0.));
#753 = PLANE('',#754);
#754 = AXIS2_PLACEMENT_3D('',#755,#756,#757);
#755 = CARTESIAN_POINT('',(0.2995,0.2075,0.));
#756 = DIRECTION('',(0.,0.,1.));
#757 = DIRECTION('',(1.,0.,-0.));
#758 = ADVANCED_FACE('',(#759),#777,.F.);
#759 = FACE_BOUND('',#760,.F.);
#760 = EDGE_LOOP('',(#761,#762,#770,#776));
#761 = ORIENTED_EDGE('',*,*,#645,.T.);
#762 = ORIENTED_EDGE('',*,*,#763,.T.);
#763 = EDGE_CURVE('',#638,#764,#766,.T.);
#764 = VERTEX_POINT('',#765);
#765 = CARTESIAN_POINT('',(0.6,0.415,1.E-03));
#766 = LINE('',#767,#768);
#767 = CARTESIAN_POINT('',(0.6,0.,1.E-03));
#768 = VECTOR('',#769,1.);
#769 = DIRECTION('',(0.,1.,0.));
#770 = ORIENTED_EDGE('',*,*,#771,.F.);
#771 = EDGE_CURVE('',#741,#764,#772,.T.);
#772 = LINE('',#773,#774);
#773 = CARTESIAN_POINT('',(0.6,0.415,0.));
#774 = VECTOR('',#775,1.);
#775 = DIRECTION('',(0.,0.,1.));
#776 = ORIENTED_EDGE('',*,*,#740,.F.);
#777 = PLANE('',#778);
#778 = AXIS2_PLACEMENT_3D('',#779,#780,#781);
#779 = CARTESIAN_POINT('',(0.6,0.,0.));
#780 = DIRECTION('',(-1.,0.,0.));
#781 = DIRECTION('',(0.,1.,0.));
#782 = ADVANCED_FACE('',(#783),#799,.T.);
#783 = FACE_BOUND('',#784,.T.);
#784 = EDGE_LOOP('',(#785,#791,#792,#793));
#785 = ORIENTED_EDGE('',*,*,#786,.T.);
#786 = EDGE_CURVE('',#716,#576,#787,.T.);
#787 = LINE('',#788,#789);
#788 = CARTESIAN_POINT('',(-1.110223024625E-19,0.2075,1.E-03));
#789 = VECTOR('',#790,1.);
#790 = DIRECTION('',(-0.,-1.,0.));
#791 = ORIENTED_EDGE('',*,*,#637,.T.);
#792 = ORIENTED_EDGE('',*,*,#763,.T.);
#793 = ORIENTED_EDGE('',*,*,#794,.T.);
#794 = EDGE_CURVE('',#764,#716,#795,.T.);
#795 = LINE('',#796,#797);
#796 = CARTESIAN_POINT('',(0.6,0.415,1.E-03));
#797 = VECTOR('',#798,1.);
#798 = DIRECTION('',(-1.,0.,0.));
#799 = PLANE('',#800);
#800 = AXIS2_PLACEMENT_3D('',#801,#802,#803);
#801 = CARTESIAN_POINT('',(0.2995,0.2075,1.E-03));
#802 = DIRECTION('',(0.,0.,1.));
#803 = DIRECTION('',(1.,0.,-0.));
#804 = ADVANCED_FACE('',(#805),#823,.F.);
#805 = FACE_BOUND('',#806,.F.);
#806 = EDGE_LOOP('',(#807,#808,#809,#817));
#807 = ORIENTED_EDGE('',*,*,#786,.T.);
#808 = ORIENTED_EDGE('',*,*,#676,.T.);
#809 = ORIENTED_EDGE('',*,*,#810,.T.);
#810 = EDGE_CURVE('',#669,#811,#813,.T.);
#811 = VERTEX_POINT('',#812);
#812 = CARTESIAN_POINT('',(-4.440892098501E-17,0.415,0.2));
#813 = LINE('',#814,#815);
#814 = CARTESIAN_POINT('',(-4.440892098501E-17,0.,0.2));
#815 = VECTOR('',#816,1.);
#816 = DIRECTION('',(0.,1.,0.));
#817 = ORIENTED_EDGE('',*,*,#818,.T.);
#818 = EDGE_CURVE('',#811,#716,#819,.T.);
#819 = LINE('',#820,#821);
#820 = CARTESIAN_POINT('',(-4.440892098501E-17,0.415,0.2));
#821 = VECTOR('',#822,1.);
#822 = DIRECTION('',(2.22044604925E-16,0.,-1.));
#823 = PLANE('',#824);
#824 = AXIS2_PLACEMENT_3D('',#825,#826,#827);
#825 = CARTESIAN_POINT('',(-2.22044604925E-17,0.2075,0.1));
#826 = DIRECTION('',(-1.,0.,-2.22044604925E-16));
#827 = DIRECTION('',(-2.22044604925E-16,0.,1.));
#828 = ADVANCED_FACE('',(#829),#847,.F.);
#829 = FACE_BOUND('',#830,.F.);
#830 = EDGE_LOOP('',(#831,#832,#840,#846));
#831 = ORIENTED_EDGE('',*,*,#668,.T.);
#832 = ORIENTED_EDGE('',*,*,#833,.T.);
#833 = EDGE_CURVE('',#661,#834,#836,.T.);
#834 = VERTEX_POINT('',#835);
#835 = CARTESIAN_POINT('',(-1.E-03,0.415,0.2));
#836 = LINE('',#837,#838);
#837 = CARTESIAN_POINT('',(-1.E-03,0.,0.2));
#838 = VECTOR('',#839,1.);
#839 = DIRECTION('',(0.,1.,0.));
#840 = ORIENTED_EDGE('',*,*,#841,.F.);
#841 = EDGE_CURVE('',#811,#834,#842,.T.);
#842 = LINE('',#843,#844);
#843 = CARTESIAN_POINT('',(-4.440892098501E-17,0.415,0.2));
#844 = VECTOR('',#845,1.);
#845 = DIRECTION('',(-1.,0.,0.));
#846 = ORIENTED_EDGE('',*,*,#810,.F.);
#847 = PLANE('',#848);
#848 = AXIS2_PLACEMENT_3D('',#849,#850,#851);
#849 = CARTESIAN_POINT('',(-4.440892098501E-17,0.,0.2));
#850 = DIRECTION('',(0.,0.,-1.));
#851 = DIRECTION('',(0.,1.,0.));
#852 = ADVANCED_FACE('',(#853),#864,.T.);
#853 = FACE_BOUND('',#854,.T.);
#854 = EDGE_LOOP('',(#855,#856,#857,#858));
#855 = ORIENTED_EDGE('',*,*,#698,.T.);
#856 = ORIENTED_EDGE('',*,*,#660,.T.);
#857 = ORIENTED_EDGE('',*,*,#833,.T.);
#858 = ORIENTED_EDGE('',*,*,#859,.T.);
#859 = EDGE_CURVE('',#834,#691,#860,.T.);
#860 = LINE('',#861,#862);
#861 = CARTESIAN_POINT('',(-1.E-03,0.415,0.2));
#862 = VECTOR('',#863,1.);
#863 = DIRECTION('',(2.22044604925E-16,0.,-1.));
#864 = PLANE('',#865);
#865 = AXIS2_PLACEMENT_3D('',#866,#867,#868);
#866 = CARTESIAN_POINT('',(-1.E-03,0.2075,0.1));
#867 = DIRECTION('',(-1.,0.,-2.22044604925E-16));
#868 = DIRECTION('',(-2.22044604925E-16,0.,1.));
#869 = ADVANCED_FACE('',(#870),#876,.F.);
#870 = FACE_BOUND('',#871,.F.);
#871 = EDGE_LOOP('',(#872,#873,#874,#875));
#872 = ORIENTED_EDGE('',*,*,#818,.F.);
#873 = ORIENTED_EDGE('',*,*,#841,.T.);
#874 = ORIENTED_EDGE('',*,*,#859,.T.);
#875 = ORIENTED_EDGE('',*,*,#723,.F.);
#876 = PLANE('',#877);
#877 = AXIS2_PLACEMENT_3D('',#878,#879,#880);
#878 = CARTESIAN_POINT('',(-4.440892098501E-17,0.415,0.2));
#879 = DIRECTION('',(-0.,-1.,-0.));
#880 = DIRECTION('',(2.22044604925E-16,0.,-1.));
#881 = ADVANCED_FACE('',(#882),#888,.F.);
#882 = FACE_BOUND('',#883,.F.);
#883 = EDGE_LOOP('',(#884,#885,#886,#887));
#884 = ORIENTED_EDGE('',*,*,#748,.F.);
#885 = ORIENTED_EDGE('',*,*,#771,.T.);
#886 = ORIENTED_EDGE('',*,*,#794,.T.);
#887 = ORIENTED_EDGE('',*,*,#715,.T.);
#888 = PLANE('',#889);
#889 = AXIS2_PLACEMENT_3D('',#890,#891,#892);
#890 = CARTESIAN_POINT('',(0.6,0.415,0.));
#891 = DIRECTION('',(0.,-1.,0.));
#892 = DIRECTION('',(-1.,0.,0.));
#893 = ( GEOMETRIC_REPRESENTATION_CONTEXT(3) 
GLOBAL_UNCERTAINTY_ASSIGNED_CONTEXT((#897)) GLOBAL_UNIT_ASSIGNED_CONTEXT
((#894,#895,#896)) REPRESENTATION_CONTEXT('Context #1',
  '3D Context with UNIT and UNCERTAINTY') );
#894 = ( LENGTH_UNIT() NAMED_UNIT(*) SI_UNIT(.MILLI.,.METRE.) );
#895 = ( NAMED_UNIT(*) PLANE_ANGLE_UNIT() SI_UNIT($,.RADIAN.) );
#896 = ( NAMED_UNIT(*) SI_UNIT($,.STERADIAN.) SOLID_ANGLE_UNIT() );
#897 = UNCERTAINTY_MEASURE_WITH_UNIT(LENGTH_MEASURE(1.E-07),#894,
  'distance_accuracy_value','confusion accuracy');
#898 = SHAPE_DEFINITION_REPRESENTATION(#899,#550);
#899 = PRODUCT_DEFINITION_SHAPE('','',#900);
#900 = PRODUCT_DEFINITION('design','',#901,#904);
#901 = PRODUCT_DEFINITION_FORMATION('','',#902);
#902 = PRODUCT('Pin Shape','Pin Shape','',(#903));
#903 = PRODUCT_CONTEXT('',#2,'mechanical');
#904 = PRODUCT_DEFINITION_CONTEXT('part definition',#2,'design');
#905 = CONTEXT_DEPENDENT_SHAPE_REPRESENTATION(#906,#908);
#906 = ( REPRESENTATION_RELATIONSHIP('','',#550,#46) 
REPRESENTATION_RELATIONSHIP_WITH_TRANSFORMATION(#907) 
SHAPE_REPRESENTATION_RELATIONSHIP() );
#907 = ITEM_DEFINED_TRANSFORMATION('','',#11,#59);
#908 = PRODUCT_DEFINITION_SHAPE('Placement','Placement of an item',#909
  );
#909 = NEXT_ASSEMBLY_USAGE_OCCURRENCE('139','128','',#41,#900,$);
#910 = PRODUCT_RELATED_PRODUCT_CATEGORY('part',$,(#902));
#911 = CONTEXT_DEPENDENT_SHAPE_REPRESENTATION(#912,#914);
#912 = ( REPRESENTATION_RELATIONSHIP('','',#550,#46) 
REPRESENTATION_RELATIONSHIP_WITH_TRANSFORMATION(#913) 
SHAPE_REPRESENTATION_RELATIONSHIP() );
#913 = ITEM_DEFINED_TRANSFORMATION('','',#11,#63);
#914 = PRODUCT_DEFINITION_SHAPE('Placement','Placement of an item',#915
  );
#915 = NEXT_ASSEMBLY_USAGE_OCCURRENCE('140','129','',#41,#900,$);
#916 = CONTEXT_DEPENDENT_SHAPE_REPRESENTATION(#917,#919);
#917 = ( REPRESENTATION_RELATIONSHIP('','',#550,#46) 
REPRESENTATION_RELATIONSHIP_WITH_TRANSFORMATION(#918) 
SHAPE_REPRESENTATION_RELATIONSHIP() );
#918 = ITEM_DEFINED_TRANSFORMATION('','',#11,#67);
#919 = PRODUCT_DEFINITION_SHAPE('Placement','Placement of an item',#920
  );
#920 = NEXT_ASSEMBLY_USAGE_OCCURRENCE('141','130','',#41,#900,$);
#921 = CONTEXT_DEPENDENT_SHAPE_REPRESENTATION(#922,#924);
#922 = ( REPRESENTATION_RELATIONSHIP('','',#550,#46) 
REPRESENTATION_RELATIONSHIP_WITH_TRANSFORMATION(#923) 
SHAPE_REPRESENTATION_RELATIONSHIP() );
#923 = ITEM_DEFINED_TRANSFORMATION('','',#11,#71);
#924 = PRODUCT_DEFINITION_SHAPE('Placement','Placement of an item',#925
  );
#925 = NEXT_ASSEMBLY_USAGE_OCCURRENCE('142','131','',#41,#900,$);
#926 = CONTEXT_DEPENDENT_SHAPE_REPRESENTATION(#927,#929);
#927 = ( REPRESENTATION_RELATIONSHIP('','',#550,#46) 
REPRESENTATION_RELATIONSHIP_WITH_TRANSFORMATION(#928) 
SHAPE_REPRESENTATION_RELATIONSHIP() );
#928 = ITEM_DEFINED_TRANSFORMATION('','',#11,#75);
#929 = PRODUCT_DEFINITION_SHAPE('Placement','Placement of an item',#930
  );
#930 = NEXT_ASSEMBLY_USAGE_OCCURRENCE('143','132','',#41,#900,$);
#931 = CONTEXT_DEPENDENT_SHAPE_REPRESENTATION(#932,#934);
#932 = ( REPRESENTATION_RELATIONSHIP('','',#550,#46) 
REPRESENTATION_RELATIONSHIP_WITH_TRANSFORMATION(#933) 
SHAPE_REPRESENTATION_RELATIONSHIP() );
#933 = ITEM_DEFINED_TRANSFORMATION('','',#11,#79);
#934 = PRODUCT_DEFINITION_SHAPE('Placement','Placement of an item',#935
  );
#935 = NEXT_ASSEMBLY_USAGE_OCCURRENCE('144','133','',#41,#900,$);
#936 = CONTEXT_DEPENDENT_SHAPE_REPRESENTATION(#937,#939);
#937 = ( REPRESENTATION_RELATIONSHIP('','',#550,#46) 
REPRESENTATION_RELATIONSHIP_WITH_TRANSFORMATION(#938) 
SHAPE_REPRESENTATION_RELATIONSHIP() );
#938 = ITEM_DEFINED_TRANSFORMATION('','',#11,#83);
#939 = PRODUCT_DEFINITION_SHAPE('Placement','Placement of an item',#940
  );
#940 = NEXT_ASSEMBLY_USAGE_OCCURRENCE('145','134','',#41,#900,$);
#941 = CONTEXT_DEPENDENT_SHAPE_REPRESENTATION(#942,#944);
#942 = ( REPRESENTATION_RELATIONSHIP('','',#550,#46) 
REPRESENTATION_RELATIONSHIP_WITH_TRANSFORMATION(#943) 
SHAPE_REPRESENTATION_RELATIONSHIP() );
#943 = ITEM_DEFINED_TRANSFORMATION('','',#11,#87);
#944 = PRODUCT_DEFINITION_SHAPE('Placement','Placement of an item',#945
  );
#945 = NEXT_ASSEMBLY_USAGE_OCCURRENCE('146','135','',#41,#900,$);
#946 = CONTEXT_DEPENDENT_SHAPE_REPRESENTATION(#947,#949);
#947 = ( REPRESENTATION_RELATIONSHIP('','',#46,#28) 
REPRESENTATION_RELATIONSHIP_WITH_TRANSFORMATION(#948) 
SHAPE_REPRESENTATION_RELATIONSHIP() );
#948 = ITEM_DEFINED_TRANSFORMATION('','',#11,#29);
#949 = PRODUCT_DEFINITION_SHAPE('Placement','Placement of an item',#950
  );
#950 = NEXT_ASSEMBLY_USAGE_OCCURRENCE('147','','',#23,#41,$);
#951 = PRODUCT_RELATED_PRODUCT_CATEGORY('part',$,(#43));
#952 = MECHANICAL_DESIGN_GEOMETRIC_PRESENTATION_REPRESENTATION('',(#953)
  ,#893);
#953 = STYLED_ITEM('color',(#954),#551);
#954 = PRESENTATION_STYLE_ASSIGNMENT((#955,#961));
#955 = SURFACE_STYLE_USAGE(.BOTH.,#956);
#956 = SURFACE_SIDE_STYLE('',(#957));
#957 = SURFACE_STYLE_FILL_AREA(#958);
#958 = FILL_AREA_STYLE('',(#959));
#959 = FILL_AREA_STYLE_COLOUR('',#960);
#960 = COLOUR_RGB('',0.800000010877,0.800000010877,0.800000010877);
#961 = CURVE_STYLE('',#962,POSITIVE_LENGTH_MEASURE(0.1),#960);
#962 = DRAUGHTING_PRE_DEFINED_CURVE_FONT('continuous');
#963 = MECHANICAL_DESIGN_GEOMETRIC_PRESENTATION_REPRESENTATION('',(#964)
  ,#532);
#964 = STYLED_ITEM('color',(#965),#349);
#965 = PRESENTATION_STYLE_ASSIGNMENT((#966,#971));
#966 = SURFACE_STYLE_USAGE(.BOTH.,#967);
#967 = SURFACE_SIDE_STYLE('',(#968));
#968 = SURFACE_STYLE_FILL_AREA(#969);
#969 = FILL_AREA_STYLE('',(#970));
#970 = FILL_AREA_STYLE_COLOUR('',#960);
#971 = CURVE_STYLE('',#972,POSITIVE_LENGTH_MEASURE(0.1),#960);
#972 = DRAUGHTING_PRE_DEFINED_CURVE_FONT('continuous');
#973 = MECHANICAL_DESIGN_GEOMETRIC_PRESENTATION_REPRESENTATION('',(#974)
  ,#330);
#974 = STYLED_ITEM('color',(#975),#135);
#975 = PRESENTATION_STYLE_ASSIGNMENT((#976,#982));
#976 = SURFACE_STYLE_USAGE(.BOTH.,#977);
#977 = SURFACE_SIDE_STYLE('',(#978));
#978 = SURFACE_STYLE_FILL_AREA(#979);
#979 = FILL_AREA_STYLE('',(#980));
#980 = FILL_AREA_STYLE_COLOUR('',#981);
#981 = COLOUR_RGB('',0.199999998682,0.199999998682,0.199999998682);
#982 = CURVE_STYLE('',#983,POSITIVE_LENGTH_MEASURE(0.1),#981);
#983 = DRAUGHTING_PRE_DEFINED_CURVE_FONT('continuous');
#984 = MECHANICAL_DESIGN_GEOMETRIC_PRESENTATION_REPRESENTATION('',(#985)
  ,#116);
#985 = STYLED_ITEM('color',(#986),#99);
#986 = PRESENTATION_STYLE_ASSIGNMENT((#987,#993));
#987 = SURFACE_STYLE_USAGE(.BOTH.,#988);
#988 = SURFACE_SIDE_STYLE('',(#989));
#989 = SURFACE_STYLE_FILL_AREA(#990);
#990 = FILL_AREA_STYLE('',(#991));
#991 = FILL_AREA_STYLE_COLOUR('',#992);
#992 = DRAUGHTING_PRE_DEFINED_COLOUR('white');
#993 = CURVE_STYLE('',#994,POSITIVE_LENGTH_MEASURE(0.1),#992);
#994 = DRAUGHTING_PRE_DEFINED_CURVE_FONT('continuous');
ENDSEC;
END-ISO-10303-21;
