ISO-10303-21;
HEADER;
FILE_DESCRIPTION(('Open CASCADE Model'),'2;1');
FILE_NAME('Open CASCADE Shape Model','2026-10-06T14:10:06',('Author'),(
    'Open CASCADE'),'Open CASCADE STEP processor 7.5','Open CASCADE 7.5'
  ,'Unknown');
FILE_SCHEMA(('AUTOMOTIVE_DESIGN { 1 0 10303 214 1 1 1 1 }'));
ENDSEC;
DATA;
#1 = APPLICATION_PROTOCOL_DEFINITION('international standard',
  'automotive_design',2000,#2);
#2 = APPLICATION_CONTEXT(
  'core data for automotive mechanical design processes');
#3 = SHAPE_DEFINITION_REPRESENTATION(#4,#10);
#4 = PRODUCT_DEFINITION_SHAPE('','',#5);
#5 = PRODUCT_DEFINITION('design','',#6,#9);
#6 = PRODUCT_DEFINITION_FORMATION('','',#7);
#7 = PRODUCT('PCB','PCB','',(#8));
#8 = PRODUCT_CONTEXT('',#2,'mechanical');
#9 = PRODUCT_DEFINITION_CONTEXT('part definition',#2,'design');
#10 = SHAPE_REPRESENTATION('',(#11),#15);
#11 = AXIS2_PLACEMENT_3D('',#12,#13,#14);
#12 = CARTESIAN_POINT('',(0.,0.,0.));
#13 = DIRECTION('',(0.,0.,1.));
#14 = DIRECTION('',(1.,0.,-0.));
#15 = ( GEOMETRIC_REPRESENTATION_CONTEXT(3) 
GLOBAL_UNCERTAINTY_ASSIGNED_CONTEXT((#19)) GLOBAL_UNIT_ASSIGNED_CONTEXT(
(#16,#17,#18)) REPRESENTATION_CONTEXT('Context #1',
  '3D Context with UNIT and UNCERTAINTY') );
#16 = ( LENGTH_UNIT() NAMED_UNIT(*) SI_UNIT(.MILLI.,.METRE.) );
#17 = ( NAMED_UNIT(*) PLANE_ANGLE_UNIT() SI_UNIT($,.RADIAN.) );
#18 = ( NAMED_UNIT(*) SI_UNIT($,.STERADIAN.) SOLID_ANGLE_UNIT() );
#19 = UNCERTAINTY_MEASURE_WITH_UNIT(LENGTH_MEASURE(1.E-07),#16,
  'distance_accuracy_value','confusion accuracy');
#20 = PRODUCT_RELATED_PRODUCT_CATEGORY('part',$,(#7));
#21 = SHAPE_DEFINITION_REPRESENTATION(#22,#28);
#22 = PRODUCT_DEFINITION_SHAPE('','',#23);
#23 = PRODUCT_DEFINITION('design','',#24,#27);
#24 = PRODUCT_DEFINITION_FORMATION('','',#25);
#25 = PRODUCT('Designator1','Designator1','',(#26));
#26 = PRODUCT_CONTEXT('',#2,'mechanical');
#27 = PRODUCT_DEFINITION_CONTEXT('part definition',#2,'design');
#28 = SHAPE_REPRESENTATION('',(#11,#29),#33);
#29 = AXIS2_PLACEMENT_3D('',#30,#31,#32);
#30 = CARTESIAN_POINT('',(0.,0.,0.));
#31 = DIRECTION('',(0.,0.,1.));
#32 = DIRECTION('',(1.,0.,0.));
#33 = ( GEOMETRIC_REPRESENTATION_CONTEXT(3) 
GLOBAL_UNCERTAINTY_ASSIGNED_CONTEXT((#37)) GLOBAL_UNIT_ASSIGNED_CONTEXT(
(#34,#35,#36)) REPRESENTATION_CONTEXT('Context #1',
  '3D Context with UNIT and UNCERTAINTY') );
#34 = ( LENGTH_UNIT() NAMED_UNIT(*) SI_UNIT(.MILLI.,.METRE.) );
#35 = ( NAMED_UNIT(*) PLANE_ANGLE_UNIT() SI_UNIT($,.RADIAN.) );
#36 = ( NAMED_UNIT(*) SI_UNIT($,.STERADIAN.) SOLID_ANGLE_UNIT() );
#37 = UNCERTAINTY_MEASURE_WITH_UNIT(LENGTH_MEASURE(1.E-07),#34,
  'distance_accuracy_value','confusion accuracy');
#38 = PRODUCT_RELATED_PRODUCT_CATEGORY('part',$,(#25));
#39 = SHAPE_DEFINITION_REPRESENTATION(#40,#46);
#40 = PRODUCT_DEFINITION_SHAPE('','',#41);
#41 = PRODUCT_DEFINITION('design','',#42,#45);
#42 = PRODUCT_DEFINITION_FORMATION('','',#43);
#43 = PRODUCT('9964279424','9964279424','',(#44));
#44 = PRODUCT_CONTEXT('',#2,'mechanical');
#45 = PRODUCT_DEFINITION_CONTEXT('part definition',#2,'design');
#46 = SHAPE_REPRESENTATION('',(#11,#47,#51),#55);
#47 = AXIS2_PLACEMENT_3D('',#48,#49,#50);
#48 = CARTESIAN_POINT('',(-0.315,-0.165,0.));
#49 = DIRECTION('',(0.,0.,1.));
#50 = DIRECTION('',(1.,0.,0.));
#51 = AXIS2_PLACEMENT_3D('',#52,#53,#54);
#52 = CARTESIAN_POINT('',(-0.315,-0.165,0.));
#53 = DIRECTION('',(0.,0.,1.));
#54 = DIRECTION('',(1.,0.,0.));
#55 = ( GEOMETRIC_REPRESENTATION_CONTEXT(3) 
GLOBAL_UNCERTAINTY_ASSIGNED_CONTEXT((#59)) GLOBAL_UNIT_ASSIGNED_CONTEXT(
(#56,#57,#58)) REPRESENTATION_CONTEXT('Context #1',
  '3D Context with UNIT and UNCERTAINTY') );
#56 = ( LENGTH_UNIT() NAMED_UNIT(*) SI_UNIT(.MILLI.,.METRE.) );
#57 = ( NAMED_UNIT(*) PLANE_ANGLE_UNIT() SI_UNIT($,.RADIAN.) );
#58 = ( NAMED_UNIT(*) SI_UNIT($,.STERADIAN.) SOLID_ANGLE_UNIT() );
#59 = UNCERTAINTY_MEASURE_WITH_UNIT(LENGTH_MEASURE(1.E-07),#56,
  'distance_accuracy_value','confusion accuracy');
#60 = SHAPE_REPRESENTATION('',(#11,#61,#515),#969);
#61 = MANIFOLD_SOLID_BREP('',#62);
#62 = CLOSED_SHELL('',(#63,#103,#136,#169,#202,#235,#252,#269,#300,#331,
    #348,#379,#396,#427,#445,#463,#491,#503));
#63 = ADVANCED_FACE('',(#64),#98,.F.);
#64 = FACE_BOUND('',#65,.F.);
#65 = EDGE_LOOP('',(#66,#76,#84,#92));
#66 = ORIENTED_EDGE('',*,*,#67,.F.);
#67 = EDGE_CURVE('',#68,#70,#72,.T.);
#68 = VERTEX_POINT('',#69);
#69 = CARTESIAN_POINT('',(-6.938893903907E-18,5.E-02,5.E-02));
#70 = VERTEX_POINT('',#71);
#71 = CARTESIAN_POINT('',(-6.938893903907E-18,5.E-02,0.28));
#72 = LINE('',#73,#74);
#73 = CARTESIAN_POINT('',(-6.938893903907E-18,5.E-02,0.));
#74 = VECTOR('',#75,1.);
#75 = DIRECTION('',(0.,0.,1.));
#76 = ORIENTED_EDGE('',*,*,#77,.T.);
#77 = EDGE_CURVE('',#68,#78,#80,.T.);
#78 = VERTEX_POINT('',#79);
#79 = CARTESIAN_POINT('',(-6.938893903907E-18,0.28,5.E-02));
#80 = LINE('',#81,#82);
#81 = CARTESIAN_POINT('',(-6.938893903907E-18,0.,5.E-02));
#82 = VECTOR('',#83,1.);
#83 = DIRECTION('',(-0.,1.,0.));
#84 = ORIENTED_EDGE('',*,*,#85,.T.);
#85 = EDGE_CURVE('',#78,#86,#88,.T.);
#86 = VERTEX_POINT('',#87);
#87 = CARTESIAN_POINT('',(-6.938893903907E-18,0.28,0.28));
#88 = LINE('',#89,#90);
#89 = CARTESIAN_POINT('',(-6.938893903907E-18,0.28,0.));
#90 = VECTOR('',#91,1.);
#91 = DIRECTION('',(0.,0.,1.));
#92 = ORIENTED_EDGE('',*,*,#93,.F.);
#93 = EDGE_CURVE('',#70,#86,#94,.T.);
#94 = LINE('',#95,#96);
#95 = CARTESIAN_POINT('',(-6.938893903907E-18,0.,0.28));
#96 = VECTOR('',#97,1.);
#97 = DIRECTION('',(-0.,1.,0.));
#98 = PLANE('',#99);
#99 = AXIS2_PLACEMENT_3D('',#100,#101,#102);
#100 = CARTESIAN_POINT('',(0.,0.,0.));
#101 = DIRECTION('',(1.,0.,-0.));
#102 = DIRECTION('',(0.,0.,1.));
#103 = ADVANCED_FACE('',(#104),#131,.T.);
#104 = FACE_BOUND('',#105,.T.);
#105 = EDGE_LOOP('',(#106,#107,#116,#124));
#106 = ORIENTED_EDGE('',*,*,#67,.F.);
#107 = ORIENTED_EDGE('',*,*,#108,.T.);
#108 = EDGE_CURVE('',#68,#109,#111,.T.);
#109 = VERTEX_POINT('',#110);
#110 = CARTESIAN_POINT('',(5.E-02,-6.938893903907E-18,5.E-02));
#111 = CIRCLE('',#112,5.E-02);
#112 = AXIS2_PLACEMENT_3D('',#113,#114,#115);
#113 = CARTESIAN_POINT('',(5.E-02,5.E-02,5.E-02));
#114 = DIRECTION('',(0.,0.,1.));
#115 = DIRECTION('',(-1.,0.,0.));
#116 = ORIENTED_EDGE('',*,*,#117,.T.);
#117 = EDGE_CURVE('',#109,#118,#120,.T.);
#118 = VERTEX_POINT('',#119);
#119 = CARTESIAN_POINT('',(5.E-02,-6.938893903907E-18,0.28));
#120 = LINE('',#121,#122);
#121 = CARTESIAN_POINT('',(5.E-02,-6.938893903907E-18,0.));
#122 = VECTOR('',#123,1.);
#123 = DIRECTION('',(0.,0.,1.));
#124 = ORIENTED_EDGE('',*,*,#125,.F.);
#125 = EDGE_CURVE('',#70,#118,#126,.T.);
#126 = CIRCLE('',#127,5.E-02);
#127 = AXIS2_PLACEMENT_3D('',#128,#129,#130);
#128 = CARTESIAN_POINT('',(5.E-02,5.E-02,0.28));
#129 = DIRECTION('',(0.,0.,1.));
#130 = DIRECTION('',(-1.,0.,0.));
#131 = CYLINDRICAL_SURFACE('',#132,5.E-02);
#132 = AXIS2_PLACEMENT_3D('',#133,#134,#135);
#133 = CARTESIAN_POINT('',(5.E-02,5.E-02,0.));
#134 = DIRECTION('',(0.,0.,1.));
#135 = DIRECTION('',(-1.,-0.,0.));
#136 = ADVANCED_FACE('',(#137),#164,.T.);
#137 = FACE_BOUND('',#138,.T.);
#138 = EDGE_LOOP('',(#139,#140,#149,#157));
#139 = ORIENTED_EDGE('',*,*,#77,.T.);
#140 = ORIENTED_EDGE('',*,*,#141,.F.);
#141 = EDGE_CURVE('',#142,#78,#144,.T.);
#142 = VERTEX_POINT('',#143);
#143 = CARTESIAN_POINT('',(5.E-02,0.28,0.));
#144 = CIRCLE('',#145,5.E-02);
#145 = AXIS2_PLACEMENT_3D('',#146,#147,#148);
#146 = CARTESIAN_POINT('',(5.E-02,0.28,5.E-02));
#147 = DIRECTION('',(0.,1.,-0.));
#148 = DIRECTION('',(-1.,0.,0.));
#149 = ORIENTED_EDGE('',*,*,#150,.F.);
#150 = EDGE_CURVE('',#151,#142,#153,.T.);
#151 = VERTEX_POINT('',#152);
#152 = CARTESIAN_POINT('',(5.E-02,5.E-02,0.));
#153 = LINE('',#154,#155);
#154 = CARTESIAN_POINT('',(5.E-02,0.,-6.938893903907E-18));
#155 = VECTOR('',#156,1.);
#156 = DIRECTION('',(-0.,1.,0.));
#157 = ORIENTED_EDGE('',*,*,#158,.T.);
#158 = EDGE_CURVE('',#151,#68,#159,.T.);
#159 = CIRCLE('',#160,5.E-02);
#160 = AXIS2_PLACEMENT_3D('',#161,#162,#163);
#161 = CARTESIAN_POINT('',(5.E-02,5.E-02,5.E-02));
#162 = DIRECTION('',(0.,1.,-0.));
#163 = DIRECTION('',(-1.,0.,0.));
#164 = CYLINDRICAL_SURFACE('',#165,5.E-02);
#165 = AXIS2_PLACEMENT_3D('',#166,#167,#168);
#166 = CARTESIAN_POINT('',(5.E-02,0.,5.E-02));
#167 = DIRECTION('',(-0.,1.,0.));
#168 = DIRECTION('',(-1.,-0.,0.));
#169 = ADVANCED_FACE('',(#170),#197,.T.);
#170 = FACE_BOUND('',#171,.T.);
#171 = EDGE_LOOP('',(#172,#181,#189,#196));
#172 = ORIENTED_EDGE('',*,*,#173,.F.);
#173 = EDGE_CURVE('',#174,#70,#176,.T.);
#174 = VERTEX_POINT('',#175);
#175 = CARTESIAN_POINT('',(5.E-02,5.E-02,0.33));
#176 = CIRCLE('',#177,5.E-02);
#177 = AXIS2_PLACEMENT_3D('',#178,#179,#180);
#178 = CARTESIAN_POINT('',(5.E-02,5.E-02,0.28));
#179 = DIRECTION('',(0.,-1.,0.));
#180 = DIRECTION('',(-1.,0.,0.));
#181 = ORIENTED_EDGE('',*,*,#182,.T.);
#182 = EDGE_CURVE('',#174,#183,#185,.T.);
#183 = VERTEX_POINT('',#184);
#184 = CARTESIAN_POINT('',(5.E-02,0.28,0.33));
#185 = LINE('',#186,#187);
#186 = CARTESIAN_POINT('',(5.E-02,0.,0.33));
#187 = VECTOR('',#188,1.);
#188 = DIRECTION('',(-0.,1.,0.));
#189 = ORIENTED_EDGE('',*,*,#190,.F.);
#190 = EDGE_CURVE('',#86,#183,#191,.T.);
#191 = CIRCLE('',#192,5.E-02);
#192 = AXIS2_PLACEMENT_3D('',#193,#194,#195);
#193 = CARTESIAN_POINT('',(5.E-02,0.28,0.28));
#194 = DIRECTION('',(-0.,1.,0.));
#195 = DIRECTION('',(-1.,-0.,0.));
#196 = ORIENTED_EDGE('',*,*,#93,.F.);
#197 = CYLINDRICAL_SURFACE('',#198,5.E-02);
#198 = AXIS2_PLACEMENT_3D('',#199,#200,#201);
#199 = CARTESIAN_POINT('',(5.E-02,0.,0.28));
#200 = DIRECTION('',(-0.,1.,0.));
#201 = DIRECTION('',(-1.,-0.,0.));
#202 = ADVANCED_FACE('',(#203),#230,.T.);
#203 = FACE_BOUND('',#204,.T.);
#204 = EDGE_LOOP('',(#205,#214,#222,#229));
#205 = ORIENTED_EDGE('',*,*,#206,.F.);
#206 = EDGE_CURVE('',#207,#86,#209,.T.);
#207 = VERTEX_POINT('',#208);
#208 = CARTESIAN_POINT('',(5.E-02,0.33,0.28));
#209 = CIRCLE('',#210,5.E-02);
#210 = AXIS2_PLACEMENT_3D('',#211,#212,#213);
#211 = CARTESIAN_POINT('',(5.E-02,0.28,0.28));
#212 = DIRECTION('',(0.,0.,1.));
#213 = DIRECTION('',(-1.,-0.,0.));
#214 = ORIENTED_EDGE('',*,*,#215,.F.);
#215 = EDGE_CURVE('',#216,#207,#218,.T.);
#216 = VERTEX_POINT('',#217);
#217 = CARTESIAN_POINT('',(5.E-02,0.33,5.E-02));
#218 = LINE('',#219,#220);
#219 = CARTESIAN_POINT('',(5.E-02,0.33,0.));
#220 = VECTOR('',#221,1.);
#221 = DIRECTION('',(0.,0.,1.));
#222 = ORIENTED_EDGE('',*,*,#223,.F.);
#223 = EDGE_CURVE('',#78,#216,#224,.T.);
#224 = CIRCLE('',#225,5.E-02);
#225 = AXIS2_PLACEMENT_3D('',#226,#227,#228);
#226 = CARTESIAN_POINT('',(5.E-02,0.28,5.E-02));
#227 = DIRECTION('',(0.,0.,-1.));
#228 = DIRECTION('',(-1.,0.,0.));
#229 = ORIENTED_EDGE('',*,*,#85,.T.);
#230 = CYLINDRICAL_SURFACE('',#231,5.E-02);
#231 = AXIS2_PLACEMENT_3D('',#232,#233,#234);
#232 = CARTESIAN_POINT('',(5.E-02,0.28,0.));
#233 = DIRECTION('',(0.,0.,1.));
#234 = DIRECTION('',(-1.,-0.,0.));
#235 = ADVANCED_FACE('',(#236),#247,.T.);
#236 = FACE_BOUND('',#237,.T.);
#237 = EDGE_LOOP('',(#238,#239,#246));
#238 = ORIENTED_EDGE('',*,*,#158,.F.);
#239 = ORIENTED_EDGE('',*,*,#240,.T.);
#240 = EDGE_CURVE('',#151,#109,#241,.T.);
#241 = CIRCLE('',#242,5.E-02);
#242 = AXIS2_PLACEMENT_3D('',#243,#244,#245);
#243 = CARTESIAN_POINT('',(5.E-02,5.E-02,5.E-02));
#244 = DIRECTION('',(-1.,6.123233995737E-17,0.));
#245 = DIRECTION('',(-6.123233995737E-17,-1.,0.));
#246 = ORIENTED_EDGE('',*,*,#108,.F.);
#247 = SPHERICAL_SURFACE('',#248,5.E-02);
#248 = AXIS2_PLACEMENT_3D('',#249,#250,#251);
#249 = CARTESIAN_POINT('',(5.E-02,5.E-02,5.E-02));
#250 = DIRECTION('',(0.,0.,1.));
#251 = DIRECTION('',(-1.,0.,0.));
#252 = ADVANCED_FACE('',(#253),#264,.T.);
#253 = FACE_BOUND('',#254,.T.);
#254 = EDGE_LOOP('',(#255,#256,#263));
#255 = ORIENTED_EDGE('',*,*,#125,.T.);
#256 = ORIENTED_EDGE('',*,*,#257,.F.);
#257 = EDGE_CURVE('',#174,#118,#258,.T.);
#258 = CIRCLE('',#259,5.E-02);
#259 = AXIS2_PLACEMENT_3D('',#260,#261,#262);
#260 = CARTESIAN_POINT('',(5.E-02,5.E-02,0.28));
#261 = DIRECTION('',(1.,-6.123233995737E-17,0.));
#262 = DIRECTION('',(-6.123233995737E-17,-1.,0.));
#263 = ORIENTED_EDGE('',*,*,#173,.T.);
#264 = SPHERICAL_SURFACE('',#265,5.E-02);
#265 = AXIS2_PLACEMENT_3D('',#266,#267,#268);
#266 = CARTESIAN_POINT('',(5.E-02,5.E-02,0.28));
#267 = DIRECTION('',(-0.,-0.,-1.));
#268 = DIRECTION('',(-1.,0.,0.));
#269 = ADVANCED_FACE('',(#270),#295,.F.);
#270 = FACE_BOUND('',#271,.F.);
#271 = EDGE_LOOP('',(#272,#280,#281,#289));
#272 = ORIENTED_EDGE('',*,*,#273,.F.);
#273 = EDGE_CURVE('',#109,#274,#276,.T.);
#274 = VERTEX_POINT('',#275);
#275 = CARTESIAN_POINT('',(0.1,-3.469446951954E-18,5.E-02));
#276 = LINE('',#277,#278);
#277 = CARTESIAN_POINT('',(0.,-6.938893903907E-18,5.E-02));
#278 = VECTOR('',#279,1.);
#279 = DIRECTION('',(1.,0.,-0.));
#280 = ORIENTED_EDGE('',*,*,#117,.T.);
#281 = ORIENTED_EDGE('',*,*,#282,.T.);
#282 = EDGE_CURVE('',#118,#283,#285,.T.);
#283 = VERTEX_POINT('',#284);
#284 = CARTESIAN_POINT('',(0.1,-3.469446951954E-18,0.28));
#285 = LINE('',#286,#287);
#286 = CARTESIAN_POINT('',(0.,-6.938893903907E-18,0.28));
#287 = VECTOR('',#288,1.);
#288 = DIRECTION('',(1.,0.,-0.));
#289 = ORIENTED_EDGE('',*,*,#290,.F.);
#290 = EDGE_CURVE('',#274,#283,#291,.T.);
#291 = LINE('',#292,#293);
#292 = CARTESIAN_POINT('',(0.1,0.,0.));
#293 = VECTOR('',#294,1.);
#294 = DIRECTION('',(0.,0.,1.));
#295 = PLANE('',#296);
#296 = AXIS2_PLACEMENT_3D('',#297,#298,#299);
#297 = CARTESIAN_POINT('',(0.,0.,0.));
#298 = DIRECTION('',(-0.,1.,0.));
#299 = DIRECTION('',(0.,0.,1.));
#300 = ADVANCED_FACE('',(#301),#326,.F.);
#301 = FACE_BOUND('',#302,.F.);
#302 = EDGE_LOOP('',(#303,#304,#312,#320));
#303 = ORIENTED_EDGE('',*,*,#150,.F.);
#304 = ORIENTED_EDGE('',*,*,#305,.T.);
#305 = EDGE_CURVE('',#151,#306,#308,.T.);
#306 = VERTEX_POINT('',#307);
#307 = CARTESIAN_POINT('',(0.1,5.E-02,-3.469446951954E-18));
#308 = LINE('',#309,#310);
#309 = CARTESIAN_POINT('',(0.,5.E-02,-6.938893903907E-18));
#310 = VECTOR('',#311,1.);
#311 = DIRECTION('',(1.,0.,-0.));
#312 = ORIENTED_EDGE('',*,*,#313,.T.);
#313 = EDGE_CURVE('',#306,#314,#316,.T.);
#314 = VERTEX_POINT('',#315);
#315 = CARTESIAN_POINT('',(0.1,0.28,-3.469446951954E-18));
#316 = LINE('',#317,#318);
#317 = CARTESIAN_POINT('',(0.1,0.,0.));
#318 = VECTOR('',#319,1.);
#319 = DIRECTION('',(-0.,1.,0.));
#320 = ORIENTED_EDGE('',*,*,#321,.F.);
#321 = EDGE_CURVE('',#142,#314,#322,.T.);
#322 = LINE('',#323,#324);
#323 = CARTESIAN_POINT('',(0.,0.28,-6.938893903907E-18));
#324 = VECTOR('',#325,1.);
#325 = DIRECTION('',(1.,0.,-0.));
#326 = PLANE('',#327);
#327 = AXIS2_PLACEMENT_3D('',#328,#329,#330);
#328 = CARTESIAN_POINT('',(0.,0.,0.));
#329 = DIRECTION('',(0.,0.,1.));
#330 = DIRECTION('',(1.,0.,-0.));
#331 = ADVANCED_FACE('',(#332),#343,.T.);
#332 = FACE_BOUND('',#333,.T.);
#333 = EDGE_LOOP('',(#334,#335,#342));
#334 = ORIENTED_EDGE('',*,*,#223,.T.);
#335 = ORIENTED_EDGE('',*,*,#336,.F.);
#336 = EDGE_CURVE('',#142,#216,#337,.T.);
#337 = CIRCLE('',#338,5.E-02);
#338 = AXIS2_PLACEMENT_3D('',#339,#340,#341);
#339 = CARTESIAN_POINT('',(5.E-02,0.28,5.E-02));
#340 = DIRECTION('',(1.,6.123233995737E-17,-0.));
#341 = DIRECTION('',(-6.123233995737E-17,1.,0.));
#342 = ORIENTED_EDGE('',*,*,#141,.T.);
#343 = SPHERICAL_SURFACE('',#344,5.E-02);
#344 = AXIS2_PLACEMENT_3D('',#345,#346,#347);
#345 = CARTESIAN_POINT('',(5.E-02,0.28,5.E-02));
#346 = DIRECTION('',(0.,0.,1.));
#347 = DIRECTION('',(-1.,0.,0.));
#348 = ADVANCED_FACE('',(#349),#374,.T.);
#349 = FACE_BOUND('',#350,.T.);
#350 = EDGE_LOOP('',(#351,#352,#360,#368));
#351 = ORIENTED_EDGE('',*,*,#182,.F.);
#352 = ORIENTED_EDGE('',*,*,#353,.T.);
#353 = EDGE_CURVE('',#174,#354,#356,.T.);
#354 = VERTEX_POINT('',#355);
#355 = CARTESIAN_POINT('',(0.1,5.E-02,0.33));
#356 = LINE('',#357,#358);
#357 = CARTESIAN_POINT('',(0.,5.E-02,0.33));
#358 = VECTOR('',#359,1.);
#359 = DIRECTION('',(1.,0.,-0.));
#360 = ORIENTED_EDGE('',*,*,#361,.T.);
#361 = EDGE_CURVE('',#354,#362,#364,.T.);
#362 = VERTEX_POINT('',#363);
#363 = CARTESIAN_POINT('',(0.1,0.28,0.33));
#364 = LINE('',#365,#366);
#365 = CARTESIAN_POINT('',(0.1,0.,0.33));
#366 = VECTOR('',#367,1.);
#367 = DIRECTION('',(-0.,1.,0.));
#368 = ORIENTED_EDGE('',*,*,#369,.F.);
#369 = EDGE_CURVE('',#183,#362,#370,.T.);
#370 = LINE('',#371,#372);
#371 = CARTESIAN_POINT('',(0.,0.28,0.33));
#372 = VECTOR('',#373,1.);
#373 = DIRECTION('',(1.,0.,-0.));
#374 = PLANE('',#375);
#375 = AXIS2_PLACEMENT_3D('',#376,#377,#378);
#376 = CARTESIAN_POINT('',(0.,0.,0.33));
#377 = DIRECTION('',(0.,0.,1.));
#378 = DIRECTION('',(1.,0.,-0.));
#379 = ADVANCED_FACE('',(#380),#391,.T.);
#380 = FACE_BOUND('',#381,.T.);
#381 = EDGE_LOOP('',(#382,#383,#390));
#382 = ORIENTED_EDGE('',*,*,#190,.T.);
#383 = ORIENTED_EDGE('',*,*,#384,.F.);
#384 = EDGE_CURVE('',#207,#183,#385,.T.);
#385 = CIRCLE('',#386,5.E-02);
#386 = AXIS2_PLACEMENT_3D('',#387,#388,#389);
#387 = CARTESIAN_POINT('',(5.E-02,0.28,0.28));
#388 = DIRECTION('',(1.,0.,6.123233995737E-17));
#389 = DIRECTION('',(-6.123233995737E-17,-0.,1.));
#390 = ORIENTED_EDGE('',*,*,#206,.T.);
#391 = SPHERICAL_SURFACE('',#392,5.E-02);
#392 = AXIS2_PLACEMENT_3D('',#393,#394,#395);
#393 = CARTESIAN_POINT('',(5.E-02,0.28,0.28));
#394 = DIRECTION('',(0.,-1.,-0.));
#395 = DIRECTION('',(-1.,-0.,0.));
#396 = ADVANCED_FACE('',(#397),#422,.T.);
#397 = FACE_BOUND('',#398,.T.);
#398 = EDGE_LOOP('',(#399,#407,#408,#416));
#399 = ORIENTED_EDGE('',*,*,#400,.F.);
#400 = EDGE_CURVE('',#216,#401,#403,.T.);
#401 = VERTEX_POINT('',#402);
#402 = CARTESIAN_POINT('',(0.1,0.33,5.E-02));
#403 = LINE('',#404,#405);
#404 = CARTESIAN_POINT('',(0.,0.33,5.E-02));
#405 = VECTOR('',#406,1.);
#406 = DIRECTION('',(1.,0.,-0.));
#407 = ORIENTED_EDGE('',*,*,#215,.T.);
#408 = ORIENTED_EDGE('',*,*,#409,.T.);
#409 = EDGE_CURVE('',#207,#410,#412,.T.);
#410 = VERTEX_POINT('',#411);
#411 = CARTESIAN_POINT('',(0.1,0.33,0.28));
#412 = LINE('',#413,#414);
#413 = CARTESIAN_POINT('',(0.,0.33,0.28));
#414 = VECTOR('',#415,1.);
#415 = DIRECTION('',(1.,0.,-0.));
#416 = ORIENTED_EDGE('',*,*,#417,.F.);
#417 = EDGE_CURVE('',#401,#410,#418,.T.);
#418 = LINE('',#419,#420);
#419 = CARTESIAN_POINT('',(0.1,0.33,0.));
#420 = VECTOR('',#421,1.);
#421 = DIRECTION('',(0.,0.,1.));
#422 = PLANE('',#423);
#423 = AXIS2_PLACEMENT_3D('',#424,#425,#426);
#424 = CARTESIAN_POINT('',(0.,0.33,0.));
#425 = DIRECTION('',(-0.,1.,0.));
#426 = DIRECTION('',(0.,0.,1.));
#427 = ADVANCED_FACE('',(#428),#440,.T.);
#428 = FACE_BOUND('',#429,.T.);
#429 = EDGE_LOOP('',(#430,#431,#432,#439));
#430 = ORIENTED_EDGE('',*,*,#240,.F.);
#431 = ORIENTED_EDGE('',*,*,#305,.T.);
#432 = ORIENTED_EDGE('',*,*,#433,.F.);
#433 = EDGE_CURVE('',#274,#306,#434,.T.);
#434 = CIRCLE('',#435,5.E-02);
#435 = AXIS2_PLACEMENT_3D('',#436,#437,#438);
#436 = CARTESIAN_POINT('',(0.1,5.E-02,5.E-02));
#437 = DIRECTION('',(1.,0.,0.));
#438 = DIRECTION('',(0.,-1.,0.));
#439 = ORIENTED_EDGE('',*,*,#273,.F.);
#440 = CYLINDRICAL_SURFACE('',#441,5.E-02);
#441 = AXIS2_PLACEMENT_3D('',#442,#443,#444);
#442 = CARTESIAN_POINT('',(0.,5.E-02,5.E-02));
#443 = DIRECTION('',(1.,0.,-0.));
#444 = DIRECTION('',(0.,-1.,0.));
#445 = ADVANCED_FACE('',(#446),#458,.T.);
#446 = FACE_BOUND('',#447,.T.);
#447 = EDGE_LOOP('',(#448,#449,#456,#457));
#448 = ORIENTED_EDGE('',*,*,#282,.T.);
#449 = ORIENTED_EDGE('',*,*,#450,.F.);
#450 = EDGE_CURVE('',#354,#283,#451,.T.);
#451 = CIRCLE('',#452,5.E-02);
#452 = AXIS2_PLACEMENT_3D('',#453,#454,#455);
#453 = CARTESIAN_POINT('',(0.1,5.E-02,0.28));
#454 = DIRECTION('',(1.,0.,0.));
#455 = DIRECTION('',(0.,-1.,0.));
#456 = ORIENTED_EDGE('',*,*,#353,.F.);
#457 = ORIENTED_EDGE('',*,*,#257,.T.);
#458 = CYLINDRICAL_SURFACE('',#459,5.E-02);
#459 = AXIS2_PLACEMENT_3D('',#460,#461,#462);
#460 = CARTESIAN_POINT('',(0.,5.E-02,0.28));
#461 = DIRECTION('',(1.,0.,-0.));
#462 = DIRECTION('',(0.,-1.,0.));
#463 = ADVANCED_FACE('',(#464),#486,.T.);
#464 = FACE_BOUND('',#465,.T.);
#465 = EDGE_LOOP('',(#466,#467,#468,#469,#476,#477,#484,#485));
#466 = ORIENTED_EDGE('',*,*,#290,.F.);
#467 = ORIENTED_EDGE('',*,*,#433,.T.);
#468 = ORIENTED_EDGE('',*,*,#313,.T.);
#469 = ORIENTED_EDGE('',*,*,#470,.T.);
#470 = EDGE_CURVE('',#314,#401,#471,.T.);
#471 = CIRCLE('',#472,5.E-02);
#472 = AXIS2_PLACEMENT_3D('',#473,#474,#475);
#473 = CARTESIAN_POINT('',(0.1,0.28,5.E-02));
#474 = DIRECTION('',(1.,0.,-0.));
#475 = DIRECTION('',(0.,1.,0.));
#476 = ORIENTED_EDGE('',*,*,#417,.T.);
#477 = ORIENTED_EDGE('',*,*,#478,.T.);
#478 = EDGE_CURVE('',#410,#362,#479,.T.);
#479 = CIRCLE('',#480,5.E-02);
#480 = AXIS2_PLACEMENT_3D('',#481,#482,#483);
#481 = CARTESIAN_POINT('',(0.1,0.28,0.28));
#482 = DIRECTION('',(1.,0.,-0.));
#483 = DIRECTION('',(0.,1.,0.));
#484 = ORIENTED_EDGE('',*,*,#361,.F.);
#485 = ORIENTED_EDGE('',*,*,#450,.T.);
#486 = PLANE('',#487);
#487 = AXIS2_PLACEMENT_3D('',#488,#489,#490);
#488 = CARTESIAN_POINT('',(0.1,0.,0.));
#489 = DIRECTION('',(1.,0.,-0.));
#490 = DIRECTION('',(0.,0.,1.));
#491 = ADVANCED_FACE('',(#492),#498,.T.);
#492 = FACE_BOUND('',#493,.T.);
#493 = EDGE_LOOP('',(#494,#495,#496,#497));
#494 = ORIENTED_EDGE('',*,*,#400,.T.);
#495 = ORIENTED_EDGE('',*,*,#470,.F.);
#496 = ORIENTED_EDGE('',*,*,#321,.F.);
#497 = ORIENTED_EDGE('',*,*,#336,.T.);
#498 = CYLINDRICAL_SURFACE('',#499,5.E-02);
#499 = AXIS2_PLACEMENT_3D('',#500,#501,#502);
#500 = CARTESIAN_POINT('',(0.,0.28,5.E-02));
#501 = DIRECTION('',(1.,0.,-0.));
#502 = DIRECTION('',(0.,1.,0.));
#503 = ADVANCED_FACE('',(#504),#510,.T.);
#504 = FACE_BOUND('',#505,.T.);
#505 = EDGE_LOOP('',(#506,#507,#508,#509));
#506 = ORIENTED_EDGE('',*,*,#409,.F.);
#507 = ORIENTED_EDGE('',*,*,#384,.T.);
#508 = ORIENTED_EDGE('',*,*,#369,.T.);
#509 = ORIENTED_EDGE('',*,*,#478,.F.);
#510 = CYLINDRICAL_SURFACE('',#511,5.E-02);
#511 = AXIS2_PLACEMENT_3D('',#512,#513,#514);
#512 = CARTESIAN_POINT('',(0.,0.28,0.28));
#513 = DIRECTION('',(1.,0.,-0.));
#514 = DIRECTION('',(0.,1.,0.));
#515 = MANIFOLD_SOLID_BREP('',#516);
#516 = CLOSED_SHELL('',(#517,#557,#590,#623,#656,#707,#724,#748,#779,
    #796,#820,#845,#869,#887,#905,#923,#947,#958));
#517 = ADVANCED_FACE('',(#518),#552,.F.);
#518 = FACE_BOUND('',#519,.F.);
#519 = EDGE_LOOP('',(#520,#530,#538,#546));
#520 = ORIENTED_EDGE('',*,*,#521,.F.);
#521 = EDGE_CURVE('',#522,#524,#526,.T.);
#522 = VERTEX_POINT('',#523);
#523 = CARTESIAN_POINT('',(0.53,-3.469446951954E-18,5.E-02));
#524 = VERTEX_POINT('',#525);
#525 = CARTESIAN_POINT('',(0.58,-6.938893903907E-18,5.E-02));
#526 = LINE('',#527,#528);
#527 = CARTESIAN_POINT('',(0.,-6.938893903907E-18,5.E-02));
#528 = VECTOR('',#529,1.);
#529 = DIRECTION('',(1.,0.,-0.));
#530 = ORIENTED_EDGE('',*,*,#531,.T.);
#531 = EDGE_CURVE('',#522,#532,#534,.T.);
#532 = VERTEX_POINT('',#533);
#533 = CARTESIAN_POINT('',(0.53,-3.469446951954E-18,0.28));
#534 = LINE('',#535,#536);
#535 = CARTESIAN_POINT('',(0.53,0.,0.));
#536 = VECTOR('',#537,1.);
#537 = DIRECTION('',(0.,0.,1.));
#538 = ORIENTED_EDGE('',*,*,#539,.T.);
#539 = EDGE_CURVE('',#532,#540,#542,.T.);
#540 = VERTEX_POINT('',#541);
#541 = CARTESIAN_POINT('',(0.58,-6.938893903907E-18,0.28));
#542 = LINE('',#543,#544);
#543 = CARTESIAN_POINT('',(0.,-6.938893903907E-18,0.28));
#544 = VECTOR('',#545,1.);
#545 = DIRECTION('',(1.,0.,-0.));
#546 = ORIENTED_EDGE('',*,*,#547,.F.);
#547 = EDGE_CURVE('',#524,#540,#548,.T.);
#548 = LINE('',#549,#550);
#549 = CARTESIAN_POINT('',(0.58,-6.938893903907E-18,0.));
#550 = VECTOR('',#551,1.);
#551 = DIRECTION('',(0.,0.,1.));
#552 = PLANE('',#553);
#553 = AXIS2_PLACEMENT_3D('',#554,#555,#556);
#554 = CARTESIAN_POINT('',(0.,0.,0.));
#555 = DIRECTION('',(-0.,1.,0.));
#556 = DIRECTION('',(0.,0.,1.));
#557 = ADVANCED_FACE('',(#558),#585,.T.);
#558 = FACE_BOUND('',#559,.T.);
#559 = EDGE_LOOP('',(#560,#569,#577,#584));
#560 = ORIENTED_EDGE('',*,*,#561,.T.);
#561 = EDGE_CURVE('',#522,#562,#564,.T.);
#562 = VERTEX_POINT('',#563);
#563 = CARTESIAN_POINT('',(0.53,5.E-02,-3.469446951954E-18));
#564 = CIRCLE('',#565,5.E-02);
#565 = AXIS2_PLACEMENT_3D('',#566,#567,#568);
#566 = CARTESIAN_POINT('',(0.53,5.E-02,5.E-02));
#567 = DIRECTION('',(1.,0.,0.));
#568 = DIRECTION('',(0.,-1.,0.));
#569 = ORIENTED_EDGE('',*,*,#570,.T.);
#570 = EDGE_CURVE('',#562,#571,#573,.T.);
#571 = VERTEX_POINT('',#572);
#572 = CARTESIAN_POINT('',(0.58,5.E-02,0.));
#573 = LINE('',#574,#575);
#574 = CARTESIAN_POINT('',(0.,5.E-02,-6.938893903907E-18));
#575 = VECTOR('',#576,1.);
#576 = DIRECTION('',(1.,0.,-0.));
#577 = ORIENTED_EDGE('',*,*,#578,.T.);
#578 = EDGE_CURVE('',#571,#524,#579,.T.);
#579 = CIRCLE('',#580,5.E-02);
#580 = AXIS2_PLACEMENT_3D('',#581,#582,#583);
#581 = CARTESIAN_POINT('',(0.58,5.E-02,5.E-02));
#582 = DIRECTION('',(-1.,-6.123233995737E-17,0.));
#583 = DIRECTION('',(6.123233995737E-17,-1.,-0.));
#584 = ORIENTED_EDGE('',*,*,#521,.F.);
#585 = CYLINDRICAL_SURFACE('',#586,5.E-02);
#586 = AXIS2_PLACEMENT_3D('',#587,#588,#589);
#587 = CARTESIAN_POINT('',(0.,5.E-02,5.E-02));
#588 = DIRECTION('',(1.,0.,-0.));
#589 = DIRECTION('',(0.,-1.,0.));
#590 = ADVANCED_FACE('',(#591),#618,.T.);
#591 = FACE_BOUND('',#592,.T.);
#592 = EDGE_LOOP('',(#593,#602,#603,#612));
#593 = ORIENTED_EDGE('',*,*,#594,.T.);
#594 = EDGE_CURVE('',#595,#540,#597,.T.);
#595 = VERTEX_POINT('',#596);
#596 = CARTESIAN_POINT('',(0.63,5.E-02,0.28));
#597 = CIRCLE('',#598,5.E-02);
#598 = AXIS2_PLACEMENT_3D('',#599,#600,#601);
#599 = CARTESIAN_POINT('',(0.58,5.E-02,0.28));
#600 = DIRECTION('',(0.,0.,-1.));
#601 = DIRECTION('',(1.,0.,0.));
#602 = ORIENTED_EDGE('',*,*,#547,.F.);
#603 = ORIENTED_EDGE('',*,*,#604,.F.);
#604 = EDGE_CURVE('',#605,#524,#607,.T.);
#605 = VERTEX_POINT('',#606);
#606 = CARTESIAN_POINT('',(0.63,5.E-02,5.E-02));
#607 = CIRCLE('',#608,5.E-02);
#608 = AXIS2_PLACEMENT_3D('',#609,#610,#611);
#609 = CARTESIAN_POINT('',(0.58,5.E-02,5.E-02));
#610 = DIRECTION('',(0.,0.,-1.));
#611 = DIRECTION('',(1.,0.,0.));
#612 = ORIENTED_EDGE('',*,*,#613,.T.);
#613 = EDGE_CURVE('',#605,#595,#614,.T.);
#614 = LINE('',#615,#616);
#615 = CARTESIAN_POINT('',(0.63,5.E-02,0.));
#616 = VECTOR('',#617,1.);
#617 = DIRECTION('',(0.,0.,1.));
#618 = CYLINDRICAL_SURFACE('',#619,5.E-02);
#619 = AXIS2_PLACEMENT_3D('',#620,#621,#622);
#620 = CARTESIAN_POINT('',(0.58,5.E-02,0.));
#621 = DIRECTION('',(0.,0.,1.));
#622 = DIRECTION('',(1.,0.,-0.));
#623 = ADVANCED_FACE('',(#624),#651,.T.);
#624 = FACE_BOUND('',#625,.T.);
#625 = EDGE_LOOP('',(#626,#627,#636,#644));
#626 = ORIENTED_EDGE('',*,*,#539,.T.);
#627 = ORIENTED_EDGE('',*,*,#628,.F.);
#628 = EDGE_CURVE('',#629,#540,#631,.T.);
#629 = VERTEX_POINT('',#630);
#630 = CARTESIAN_POINT('',(0.58,5.E-02,0.33));
#631 = CIRCLE('',#632,5.E-02);
#632 = AXIS2_PLACEMENT_3D('',#633,#634,#635);
#633 = CARTESIAN_POINT('',(0.58,5.E-02,0.28));
#634 = DIRECTION('',(1.,6.123233995737E-17,0.));
#635 = DIRECTION('',(6.123233995737E-17,-1.,0.));
#636 = ORIENTED_EDGE('',*,*,#637,.F.);
#637 = EDGE_CURVE('',#638,#629,#640,.T.);
#638 = VERTEX_POINT('',#639);
#639 = CARTESIAN_POINT('',(0.53,5.E-02,0.33));
#640 = LINE('',#641,#642);
#641 = CARTESIAN_POINT('',(0.,5.E-02,0.33));
#642 = VECTOR('',#643,1.);
#643 = DIRECTION('',(1.,0.,-0.));
#644 = ORIENTED_EDGE('',*,*,#645,.T.);
#645 = EDGE_CURVE('',#638,#532,#646,.T.);
#646 = CIRCLE('',#647,5.E-02);
#647 = AXIS2_PLACEMENT_3D('',#648,#649,#650);
#648 = CARTESIAN_POINT('',(0.53,5.E-02,0.28));
#649 = DIRECTION('',(1.,0.,0.));
#650 = DIRECTION('',(0.,-1.,0.));
#651 = CYLINDRICAL_SURFACE('',#652,5.E-02);
#652 = AXIS2_PLACEMENT_3D('',#653,#654,#655);
#653 = CARTESIAN_POINT('',(0.,5.E-02,0.28));
#654 = DIRECTION('',(1.,0.,-0.));
#655 = DIRECTION('',(0.,-1.,0.));
#656 = ADVANCED_FACE('',(#657),#702,.F.);
#657 = FACE_BOUND('',#658,.F.);
#658 = EDGE_LOOP('',(#659,#660,#661,#669,#678,#686,#695,#701));
#659 = ORIENTED_EDGE('',*,*,#531,.F.);
#660 = ORIENTED_EDGE('',*,*,#561,.T.);
#661 = ORIENTED_EDGE('',*,*,#662,.T.);
#662 = EDGE_CURVE('',#562,#663,#665,.T.);
#663 = VERTEX_POINT('',#664);
#664 = CARTESIAN_POINT('',(0.53,0.28,-3.469446951954E-18));
#665 = LINE('',#666,#667);
#666 = CARTESIAN_POINT('',(0.53,0.,0.));
#667 = VECTOR('',#668,1.);
#668 = DIRECTION('',(-0.,1.,0.));
#669 = ORIENTED_EDGE('',*,*,#670,.T.);
#670 = EDGE_CURVE('',#663,#671,#673,.T.);
#671 = VERTEX_POINT('',#672);
#672 = CARTESIAN_POINT('',(0.53,0.33,5.E-02));
#673 = CIRCLE('',#674,5.E-02);
#674 = AXIS2_PLACEMENT_3D('',#675,#676,#677);
#675 = CARTESIAN_POINT('',(0.53,0.28,5.E-02));
#676 = DIRECTION('',(1.,0.,-0.));
#677 = DIRECTION('',(0.,1.,0.));
#678 = ORIENTED_EDGE('',*,*,#679,.T.);
#679 = EDGE_CURVE('',#671,#680,#682,.T.);
#680 = VERTEX_POINT('',#681);
#681 = CARTESIAN_POINT('',(0.53,0.33,0.28));
#682 = LINE('',#683,#684);
#683 = CARTESIAN_POINT('',(0.53,0.33,0.));
#684 = VECTOR('',#685,1.);
#685 = DIRECTION('',(0.,0.,1.));
#686 = ORIENTED_EDGE('',*,*,#687,.T.);
#687 = EDGE_CURVE('',#680,#688,#690,.T.);
#688 = VERTEX_POINT('',#689);
#689 = CARTESIAN_POINT('',(0.53,0.28,0.33));
#690 = CIRCLE('',#691,5.E-02);
#691 = AXIS2_PLACEMENT_3D('',#692,#693,#694);
#692 = CARTESIAN_POINT('',(0.53,0.28,0.28));
#693 = DIRECTION('',(1.,0.,-0.));
#694 = DIRECTION('',(0.,1.,0.));
#695 = ORIENTED_EDGE('',*,*,#696,.F.);
#696 = EDGE_CURVE('',#638,#688,#697,.T.);
#697 = LINE('',#698,#699);
#698 = CARTESIAN_POINT('',(0.53,0.,0.33));
#699 = VECTOR('',#700,1.);
#700 = DIRECTION('',(-0.,1.,0.));
#701 = ORIENTED_EDGE('',*,*,#645,.T.);
#702 = PLANE('',#703);
#703 = AXIS2_PLACEMENT_3D('',#704,#705,#706);
#704 = CARTESIAN_POINT('',(0.53,0.,0.));
#705 = DIRECTION('',(1.,0.,-0.));
#706 = DIRECTION('',(0.,0.,1.));
#707 = ADVANCED_FACE('',(#708),#719,.T.);
#708 = FACE_BOUND('',#709,.T.);
#709 = EDGE_LOOP('',(#710,#711,#712));
#710 = ORIENTED_EDGE('',*,*,#604,.T.);
#711 = ORIENTED_EDGE('',*,*,#578,.F.);
#712 = ORIENTED_EDGE('',*,*,#713,.T.);
#713 = EDGE_CURVE('',#571,#605,#714,.T.);
#714 = CIRCLE('',#715,5.E-02);
#715 = AXIS2_PLACEMENT_3D('',#716,#717,#718);
#716 = CARTESIAN_POINT('',(0.58,5.E-02,5.E-02));
#717 = DIRECTION('',(0.,-1.,0.));
#718 = DIRECTION('',(1.,0.,0.));
#719 = SPHERICAL_SURFACE('',#720,5.E-02);
#720 = AXIS2_PLACEMENT_3D('',#721,#722,#723);
#721 = CARTESIAN_POINT('',(0.58,5.E-02,5.E-02));
#722 = DIRECTION('',(0.,0.,1.));
#723 = DIRECTION('',(1.,0.,-0.));
#724 = ADVANCED_FACE('',(#725),#743,.F.);
#725 = FACE_BOUND('',#726,.F.);
#726 = EDGE_LOOP('',(#727,#728,#729,#737));
#727 = ORIENTED_EDGE('',*,*,#662,.F.);
#728 = ORIENTED_EDGE('',*,*,#570,.T.);
#729 = ORIENTED_EDGE('',*,*,#730,.T.);
#730 = EDGE_CURVE('',#571,#731,#733,.T.);
#731 = VERTEX_POINT('',#732);
#732 = CARTESIAN_POINT('',(0.58,0.28,0.));
#733 = LINE('',#734,#735);
#734 = CARTESIAN_POINT('',(0.58,0.,-6.938893903907E-18));
#735 = VECTOR('',#736,1.);
#736 = DIRECTION('',(-0.,1.,0.));
#737 = ORIENTED_EDGE('',*,*,#738,.F.);
#738 = EDGE_CURVE('',#663,#731,#739,.T.);
#739 = LINE('',#740,#741);
#740 = CARTESIAN_POINT('',(0.,0.28,-6.938893903907E-18));
#741 = VECTOR('',#742,1.);
#742 = DIRECTION('',(1.,0.,-0.));
#743 = PLANE('',#744);
#744 = AXIS2_PLACEMENT_3D('',#745,#746,#747);
#745 = CARTESIAN_POINT('',(0.,0.,0.));
#746 = DIRECTION('',(0.,0.,1.));
#747 = DIRECTION('',(1.,0.,-0.));
#748 = ADVANCED_FACE('',(#749),#774,.T.);
#749 = FACE_BOUND('',#750,.T.);
#750 = EDGE_LOOP('',(#751,#752,#760,#768));
#751 = ORIENTED_EDGE('',*,*,#613,.F.);
#752 = ORIENTED_EDGE('',*,*,#753,.T.);
#753 = EDGE_CURVE('',#605,#754,#756,.T.);
#754 = VERTEX_POINT('',#755);
#755 = CARTESIAN_POINT('',(0.63,0.28,5.E-02));
#756 = LINE('',#757,#758);
#757 = CARTESIAN_POINT('',(0.63,0.,5.E-02));
#758 = VECTOR('',#759,1.);
#759 = DIRECTION('',(-0.,1.,0.));
#760 = ORIENTED_EDGE('',*,*,#761,.T.);
#761 = EDGE_CURVE('',#754,#762,#764,.T.);
#762 = VERTEX_POINT('',#763);
#763 = CARTESIAN_POINT('',(0.63,0.28,0.28));
#764 = LINE('',#765,#766);
#765 = CARTESIAN_POINT('',(0.63,0.28,0.));
#766 = VECTOR('',#767,1.);
#767 = DIRECTION('',(0.,0.,1.));
#768 = ORIENTED_EDGE('',*,*,#769,.F.);
#769 = EDGE_CURVE('',#595,#762,#770,.T.);
#770 = LINE('',#771,#772);
#771 = CARTESIAN_POINT('',(0.63,0.,0.28));
#772 = VECTOR('',#773,1.);
#773 = DIRECTION('',(-0.,1.,0.));
#774 = PLANE('',#775);
#775 = AXIS2_PLACEMENT_3D('',#776,#777,#778);
#776 = CARTESIAN_POINT('',(0.63,0.,0.));
#777 = DIRECTION('',(1.,0.,-0.));
#778 = DIRECTION('',(0.,0.,1.));
#779 = ADVANCED_FACE('',(#780),#791,.T.);
#780 = FACE_BOUND('',#781,.T.);
#781 = EDGE_LOOP('',(#782,#789,#790));
#782 = ORIENTED_EDGE('',*,*,#783,.F.);
#783 = EDGE_CURVE('',#629,#595,#784,.T.);
#784 = CIRCLE('',#785,5.E-02);
#785 = AXIS2_PLACEMENT_3D('',#786,#787,#788);
#786 = CARTESIAN_POINT('',(0.58,5.E-02,0.28));
#787 = DIRECTION('',(-0.,1.,0.));
#788 = DIRECTION('',(1.,0.,0.));
#789 = ORIENTED_EDGE('',*,*,#628,.T.);
#790 = ORIENTED_EDGE('',*,*,#594,.F.);
#791 = SPHERICAL_SURFACE('',#792,5.E-02);
#792 = AXIS2_PLACEMENT_3D('',#793,#794,#795);
#793 = CARTESIAN_POINT('',(0.58,5.E-02,0.28));
#794 = DIRECTION('',(-0.,-0.,-1.));
#795 = DIRECTION('',(1.,0.,0.));
#796 = ADVANCED_FACE('',(#797),#815,.T.);
#797 = FACE_BOUND('',#798,.T.);
#798 = EDGE_LOOP('',(#799,#800,#801,#809));
#799 = ORIENTED_EDGE('',*,*,#696,.F.);
#800 = ORIENTED_EDGE('',*,*,#637,.T.);
#801 = ORIENTED_EDGE('',*,*,#802,.T.);
#802 = EDGE_CURVE('',#629,#803,#805,.T.);
#803 = VERTEX_POINT('',#804);
#804 = CARTESIAN_POINT('',(0.58,0.28,0.33));
#805 = LINE('',#806,#807);
#806 = CARTESIAN_POINT('',(0.58,0.,0.33));
#807 = VECTOR('',#808,1.);
#808 = DIRECTION('',(-0.,1.,0.));
#809 = ORIENTED_EDGE('',*,*,#810,.F.);
#810 = EDGE_CURVE('',#688,#803,#811,.T.);
#811 = LINE('',#812,#813);
#812 = CARTESIAN_POINT('',(0.,0.28,0.33));
#813 = VECTOR('',#814,1.);
#814 = DIRECTION('',(1.,0.,-0.));
#815 = PLANE('',#816);
#816 = AXIS2_PLACEMENT_3D('',#817,#818,#819);
#817 = CARTESIAN_POINT('',(0.,0.,0.33));
#818 = DIRECTION('',(0.,0.,1.));
#819 = DIRECTION('',(1.,0.,-0.));
#820 = ADVANCED_FACE('',(#821),#840,.T.);
#821 = FACE_BOUND('',#822,.T.);
#822 = EDGE_LOOP('',(#823,#831,#832,#833));
#823 = ORIENTED_EDGE('',*,*,#824,.F.);
#824 = EDGE_CURVE('',#680,#825,#827,.T.);
#825 = VERTEX_POINT('',#826);
#826 = CARTESIAN_POINT('',(0.58,0.33,0.28));
#827 = LINE('',#828,#829);
#828 = CARTESIAN_POINT('',(0.,0.33,0.28));
#829 = VECTOR('',#830,1.);
#830 = DIRECTION('',(1.,0.,-0.));
#831 = ORIENTED_EDGE('',*,*,#687,.T.);
#832 = ORIENTED_EDGE('',*,*,#810,.T.);
#833 = ORIENTED_EDGE('',*,*,#834,.F.);
#834 = EDGE_CURVE('',#825,#803,#835,.T.);
#835 = CIRCLE('',#836,5.E-02);
#836 = AXIS2_PLACEMENT_3D('',#837,#838,#839);
#837 = CARTESIAN_POINT('',(0.58,0.28,0.28));
#838 = DIRECTION('',(1.,0.,-6.123233995737E-17));
#839 = DIRECTION('',(6.123233995737E-17,0.,1.));
#840 = CYLINDRICAL_SURFACE('',#841,5.E-02);
#841 = AXIS2_PLACEMENT_3D('',#842,#843,#844);
#842 = CARTESIAN_POINT('',(0.,0.28,0.28));
#843 = DIRECTION('',(1.,0.,-0.));
#844 = DIRECTION('',(0.,1.,0.));
#845 = ADVANCED_FACE('',(#846),#864,.T.);
#846 = FACE_BOUND('',#847,.T.);
#847 = EDGE_LOOP('',(#848,#856,#857,#858));
#848 = ORIENTED_EDGE('',*,*,#849,.F.);
#849 = EDGE_CURVE('',#671,#850,#852,.T.);
#850 = VERTEX_POINT('',#851);
#851 = CARTESIAN_POINT('',(0.58,0.33,5.E-02));
#852 = LINE('',#853,#854);
#853 = CARTESIAN_POINT('',(0.,0.33,5.E-02));
#854 = VECTOR('',#855,1.);
#855 = DIRECTION('',(1.,0.,-0.));
#856 = ORIENTED_EDGE('',*,*,#679,.T.);
#857 = ORIENTED_EDGE('',*,*,#824,.T.);
#858 = ORIENTED_EDGE('',*,*,#859,.F.);
#859 = EDGE_CURVE('',#850,#825,#860,.T.);
#860 = LINE('',#861,#862);
#861 = CARTESIAN_POINT('',(0.58,0.33,0.));
#862 = VECTOR('',#863,1.);
#863 = DIRECTION('',(0.,0.,1.));
#864 = PLANE('',#865);
#865 = AXIS2_PLACEMENT_3D('',#866,#867,#868);
#866 = CARTESIAN_POINT('',(0.,0.33,0.));
#867 = DIRECTION('',(-0.,1.,0.));
#868 = DIRECTION('',(0.,0.,1.));
#869 = ADVANCED_FACE('',(#870),#882,.T.);
#870 = FACE_BOUND('',#871,.T.);
#871 = EDGE_LOOP('',(#872,#873,#880,#881));
#872 = ORIENTED_EDGE('',*,*,#849,.T.);
#873 = ORIENTED_EDGE('',*,*,#874,.F.);
#874 = EDGE_CURVE('',#731,#850,#875,.T.);
#875 = CIRCLE('',#876,5.E-02);
#876 = AXIS2_PLACEMENT_3D('',#877,#878,#879);
#877 = CARTESIAN_POINT('',(0.58,0.28,5.E-02));
#878 = DIRECTION('',(1.,-6.123233995737E-17,0.));
#879 = DIRECTION('',(6.123233995737E-17,1.,0.));
#880 = ORIENTED_EDGE('',*,*,#738,.F.);
#881 = ORIENTED_EDGE('',*,*,#670,.T.);
#882 = CYLINDRICAL_SURFACE('',#883,5.E-02);
#883 = AXIS2_PLACEMENT_3D('',#884,#885,#886);
#884 = CARTESIAN_POINT('',(0.,0.28,5.E-02));
#885 = DIRECTION('',(1.,0.,-0.));
#886 = DIRECTION('',(0.,1.,0.));
#887 = ADVANCED_FACE('',(#888),#900,.T.);
#888 = FACE_BOUND('',#889,.T.);
#889 = EDGE_LOOP('',(#890,#891,#892,#899));
#890 = ORIENTED_EDGE('',*,*,#713,.F.);
#891 = ORIENTED_EDGE('',*,*,#730,.T.);
#892 = ORIENTED_EDGE('',*,*,#893,.T.);
#893 = EDGE_CURVE('',#731,#754,#894,.T.);
#894 = CIRCLE('',#895,5.E-02);
#895 = AXIS2_PLACEMENT_3D('',#896,#897,#898);
#896 = CARTESIAN_POINT('',(0.58,0.28,5.E-02));
#897 = DIRECTION('',(0.,-1.,0.));
#898 = DIRECTION('',(1.,0.,0.));
#899 = ORIENTED_EDGE('',*,*,#753,.F.);
#900 = CYLINDRICAL_SURFACE('',#901,5.E-02);
#901 = AXIS2_PLACEMENT_3D('',#902,#903,#904);
#902 = CARTESIAN_POINT('',(0.58,0.,5.E-02));
#903 = DIRECTION('',(-0.,1.,0.));
#904 = DIRECTION('',(1.,0.,-0.));
#905 = ADVANCED_FACE('',(#906),#918,.T.);
#906 = FACE_BOUND('',#907,.T.);
#907 = EDGE_LOOP('',(#908,#909,#916,#917));
#908 = ORIENTED_EDGE('',*,*,#769,.T.);
#909 = ORIENTED_EDGE('',*,*,#910,.T.);
#910 = EDGE_CURVE('',#762,#803,#911,.T.);
#911 = CIRCLE('',#912,5.E-02);
#912 = AXIS2_PLACEMENT_3D('',#913,#914,#915);
#913 = CARTESIAN_POINT('',(0.58,0.28,0.28));
#914 = DIRECTION('',(0.,-1.,-0.));
#915 = DIRECTION('',(1.,0.,0.));
#916 = ORIENTED_EDGE('',*,*,#802,.F.);
#917 = ORIENTED_EDGE('',*,*,#783,.T.);
#918 = CYLINDRICAL_SURFACE('',#919,5.E-02);
#919 = AXIS2_PLACEMENT_3D('',#920,#921,#922);
#920 = CARTESIAN_POINT('',(0.58,0.,0.28));
#921 = DIRECTION('',(-0.,1.,0.));
#922 = DIRECTION('',(1.,0.,-0.));
#923 = ADVANCED_FACE('',(#924),#942,.T.);
#924 = FACE_BOUND('',#925,.T.);
#925 = EDGE_LOOP('',(#926,#927,#934,#935));
#926 = ORIENTED_EDGE('',*,*,#761,.F.);
#927 = ORIENTED_EDGE('',*,*,#928,.T.);
#928 = EDGE_CURVE('',#754,#850,#929,.T.);
#929 = CIRCLE('',#930,5.E-02);
#930 = AXIS2_PLACEMENT_3D('',#931,#932,#933);
#931 = CARTESIAN_POINT('',(0.58,0.28,5.E-02));
#932 = DIRECTION('',(0.,0.,1.));
#933 = DIRECTION('',(1.,0.,-0.));
#934 = ORIENTED_EDGE('',*,*,#859,.T.);
#935 = ORIENTED_EDGE('',*,*,#936,.T.);
#936 = EDGE_CURVE('',#825,#762,#937,.T.);
#937 = CIRCLE('',#938,5.E-02);
#938 = AXIS2_PLACEMENT_3D('',#939,#940,#941);
#939 = CARTESIAN_POINT('',(0.58,0.28,0.28));
#940 = DIRECTION('',(0.,0.,-1.));
#941 = DIRECTION('',(1.,0.,0.));
#942 = CYLINDRICAL_SURFACE('',#943,5.E-02);
#943 = AXIS2_PLACEMENT_3D('',#944,#945,#946);
#944 = CARTESIAN_POINT('',(0.58,0.28,0.));
#945 = DIRECTION('',(0.,0.,1.));
#946 = DIRECTION('',(1.,0.,-0.));
#947 = ADVANCED_FACE('',(#948),#953,.T.);
#948 = FACE_BOUND('',#949,.T.);
#949 = EDGE_LOOP('',(#950,#951,#952));
#950 = ORIENTED_EDGE('',*,*,#936,.F.);
#951 = ORIENTED_EDGE('',*,*,#834,.T.);
#952 = ORIENTED_EDGE('',*,*,#910,.F.);
#953 = SPHERICAL_SURFACE('',#954,5.E-02);
#954 = AXIS2_PLACEMENT_3D('',#955,#956,#957);
#955 = CARTESIAN_POINT('',(0.58,0.28,0.28));
#956 = DIRECTION('',(0.,-1.,-0.));
#957 = DIRECTION('',(1.,0.,0.));
#958 = ADVANCED_FACE('',(#959),#964,.T.);
#959 = FACE_BOUND('',#960,.T.);
#960 = EDGE_LOOP('',(#961,#962,#963));
#961 = ORIENTED_EDGE('',*,*,#893,.F.);
#962 = ORIENTED_EDGE('',*,*,#874,.T.);
#963 = ORIENTED_EDGE('',*,*,#928,.F.);
#964 = SPHERICAL_SURFACE('',#965,5.E-02);
#965 = AXIS2_PLACEMENT_3D('',#966,#967,#968);
#966 = CARTESIAN_POINT('',(0.58,0.28,5.E-02));
#967 = DIRECTION('',(0.,0.,1.));
#968 = DIRECTION('',(1.,0.,-0.));
#969 = ( GEOMETRIC_REPRESENTATION_CONTEXT(3) 
GLOBAL_UNCERTAINTY_ASSIGNED_CONTEXT((#973)) GLOBAL_UNIT_ASSIGNED_CONTEXT
((#970,#971,#972)) REPRESENTATION_CONTEXT('Context #1',
  '3D Context with UNIT and UNCERTAINTY') );
#970 = ( LENGTH_UNIT() NAMED_UNIT(*) SI_UNIT(.MILLI.,.METRE.) );
#971 = ( NAMED_UNIT(*) PLANE_ANGLE_UNIT() SI_UNIT($,.RADIAN.) );
#972 = ( NAMED_UNIT(*) SI_UNIT($,.STERADIAN.) SOLID_ANGLE_UNIT() );
#973 = UNCERTAINTY_MEASURE_WITH_UNIT(LENGTH_MEASURE(1.E-07),#970,
  'distance_accuracy_value','confusion accuracy');
#974 = SHAPE_DEFINITION_REPRESENTATION(#975,#60);
#975 = PRODUCT_DEFINITION_SHAPE('','',#976);
#976 = PRODUCT_DEFINITION('design','',#977,#980);
#977 = PRODUCT_DEFINITION_FORMATION('','',#978);
#978 = PRODUCT('Terminal','Terminal','',(#979));
#979 = PRODUCT_CONTEXT('',#2,'mechanical');
#980 = PRODUCT_DEFINITION_CONTEXT('part definition',#2,'design');
#981 = CONTEXT_DEPENDENT_SHAPE_REPRESENTATION(#982,#984);
#982 = ( REPRESENTATION_RELATIONSHIP('','',#60,#46) 
REPRESENTATION_RELATIONSHIP_WITH_TRANSFORMATION(#983) 
SHAPE_REPRESENTATION_RELATIONSHIP() );
#983 = ITEM_DEFINED_TRANSFORMATION('','',#11,#47);
#984 = PRODUCT_DEFINITION_SHAPE('Placement','Placement of an item',#985
  );
#985 = NEXT_ASSEMBLY_USAGE_OCCURRENCE('15','13','',#41,#976,$);
#986 = PRODUCT_RELATED_PRODUCT_CATEGORY('part',$,(#978));
#987 = ADVANCED_BREP_SHAPE_REPRESENTATION('',(#11,#988),#1278);
#988 = MANIFOLD_SOLID_BREP('',#989);
#989 = CLOSED_SHELL('',(#990,#1030,#1063,#1122,#1147,#1198,#1215,#1232,
    #1249,#1266));
#990 = ADVANCED_FACE('',(#991),#1025,.F.);
#991 = FACE_BOUND('',#992,.F.);
#992 = EDGE_LOOP('',(#993,#1003,#1011,#1019));
#993 = ORIENTED_EDGE('',*,*,#994,.F.);
#994 = EDGE_CURVE('',#995,#997,#999,.T.);
#995 = VERTEX_POINT('',#996);
#996 = CARTESIAN_POINT('',(0.1,-3.469446951954E-18,5.E-02));
#997 = VERTEX_POINT('',#998);
#998 = CARTESIAN_POINT('',(0.53,-3.469446951954E-18,5.E-02));
#999 = LINE('',#1000,#1001);
#1000 = CARTESIAN_POINT('',(0.,-6.938893903907E-18,5.E-02));
#1001 = VECTOR('',#1002,1.);
#1002 = DIRECTION('',(1.,0.,-0.));
#1003 = ORIENTED_EDGE('',*,*,#1004,.T.);
#1004 = EDGE_CURVE('',#995,#1005,#1007,.T.);
#1005 = VERTEX_POINT('',#1006);
#1006 = CARTESIAN_POINT('',(0.1,-3.469446951954E-18,0.28));
#1007 = LINE('',#1008,#1009);
#1008 = CARTESIAN_POINT('',(0.1,0.,0.));
#1009 = VECTOR('',#1010,1.);
#1010 = DIRECTION('',(0.,0.,1.));
#1011 = ORIENTED_EDGE('',*,*,#1012,.T.);
#1012 = EDGE_CURVE('',#1005,#1013,#1015,.T.);
#1013 = VERTEX_POINT('',#1014);
#1014 = CARTESIAN_POINT('',(0.53,-3.469446951954E-18,0.28));
#1015 = LINE('',#1016,#1017);
#1016 = CARTESIAN_POINT('',(0.,-6.938893903907E-18,0.28));
#1017 = VECTOR('',#1018,1.);
#1018 = DIRECTION('',(1.,0.,-0.));
#1019 = ORIENTED_EDGE('',*,*,#1020,.F.);
#1020 = EDGE_CURVE('',#997,#1013,#1021,.T.);
#1021 = LINE('',#1022,#1023);
#1022 = CARTESIAN_POINT('',(0.53,0.,0.));
#1023 = VECTOR('',#1024,1.);
#1024 = DIRECTION('',(0.,0.,1.));
#1025 = PLANE('',#1026);
#1026 = AXIS2_PLACEMENT_3D('',#1027,#1028,#1029);
#1027 = CARTESIAN_POINT('',(0.,0.,0.));
#1028 = DIRECTION('',(-0.,1.,0.));
#1029 = DIRECTION('',(0.,0.,1.));
#1030 = ADVANCED_FACE('',(#1031),#1058,.T.);
#1031 = FACE_BOUND('',#1032,.T.);
#1032 = EDGE_LOOP('',(#1033,#1034,#1043,#1051));
#1033 = ORIENTED_EDGE('',*,*,#994,.F.);
#1034 = ORIENTED_EDGE('',*,*,#1035,.T.);
#1035 = EDGE_CURVE('',#995,#1036,#1038,.T.);
#1036 = VERTEX_POINT('',#1037);
#1037 = CARTESIAN_POINT('',(0.1,5.E-02,-3.469446951954E-18));
#1038 = CIRCLE('',#1039,5.E-02);
#1039 = AXIS2_PLACEMENT_3D('',#1040,#1041,#1042);
#1040 = CARTESIAN_POINT('',(0.1,5.E-02,5.E-02));
#1041 = DIRECTION('',(1.,0.,0.));
#1042 = DIRECTION('',(0.,-1.,0.));
#1043 = ORIENTED_EDGE('',*,*,#1044,.T.);
#1044 = EDGE_CURVE('',#1036,#1045,#1047,.T.);
#1045 = VERTEX_POINT('',#1046);
#1046 = CARTESIAN_POINT('',(0.53,5.E-02,-3.469446951954E-18));
#1047 = LINE('',#1048,#1049);
#1048 = CARTESIAN_POINT('',(0.,5.E-02,-6.938893903907E-18));
#1049 = VECTOR('',#1050,1.);
#1050 = DIRECTION('',(1.,0.,-0.));
#1051 = ORIENTED_EDGE('',*,*,#1052,.F.);
#1052 = EDGE_CURVE('',#997,#1045,#1053,.T.);
#1053 = CIRCLE('',#1054,5.E-02);
#1054 = AXIS2_PLACEMENT_3D('',#1055,#1056,#1057);
#1055 = CARTESIAN_POINT('',(0.53,5.E-02,5.E-02));
#1056 = DIRECTION('',(1.,0.,0.));
#1057 = DIRECTION('',(0.,-1.,0.));
#1058 = CYLINDRICAL_SURFACE('',#1059,5.E-02);
#1059 = AXIS2_PLACEMENT_3D('',#1060,#1061,#1062);
#1060 = CARTESIAN_POINT('',(0.,5.E-02,5.E-02));
#1061 = DIRECTION('',(1.,0.,-0.));
#1062 = DIRECTION('',(0.,-1.,0.));
#1063 = ADVANCED_FACE('',(#1064),#1117,.T.);
#1064 = FACE_BOUND('',#1065,.T.);
#1065 = EDGE_LOOP('',(#1066,#1067,#1068,#1076,#1085,#1093,#1102,#1110));
#1066 = ORIENTED_EDGE('',*,*,#1020,.F.);
#1067 = ORIENTED_EDGE('',*,*,#1052,.T.);
#1068 = ORIENTED_EDGE('',*,*,#1069,.T.);
#1069 = EDGE_CURVE('',#1045,#1070,#1072,.T.);
#1070 = VERTEX_POINT('',#1071);
#1071 = CARTESIAN_POINT('',(0.53,0.28,-3.469446951954E-18));
#1072 = LINE('',#1073,#1074);
#1073 = CARTESIAN_POINT('',(0.53,0.,0.));
#1074 = VECTOR('',#1075,1.);
#1075 = DIRECTION('',(-0.,1.,0.));
#1076 = ORIENTED_EDGE('',*,*,#1077,.T.);
#1077 = EDGE_CURVE('',#1070,#1078,#1080,.T.);
#1078 = VERTEX_POINT('',#1079);
#1079 = CARTESIAN_POINT('',(0.53,0.33,5.E-02));
#1080 = CIRCLE('',#1081,5.E-02);
#1081 = AXIS2_PLACEMENT_3D('',#1082,#1083,#1084);
#1082 = CARTESIAN_POINT('',(0.53,0.28,5.E-02));
#1083 = DIRECTION('',(1.,0.,-0.));
#1084 = DIRECTION('',(0.,1.,0.));
#1085 = ORIENTED_EDGE('',*,*,#1086,.T.);
#1086 = EDGE_CURVE('',#1078,#1087,#1089,.T.);
#1087 = VERTEX_POINT('',#1088);
#1088 = CARTESIAN_POINT('',(0.53,0.33,0.28));
#1089 = LINE('',#1090,#1091);
#1090 = CARTESIAN_POINT('',(0.53,0.33,0.));
#1091 = VECTOR('',#1092,1.);
#1092 = DIRECTION('',(0.,0.,1.));
#1093 = ORIENTED_EDGE('',*,*,#1094,.T.);
#1094 = EDGE_CURVE('',#1087,#1095,#1097,.T.);
#1095 = VERTEX_POINT('',#1096);
#1096 = CARTESIAN_POINT('',(0.53,0.28,0.33));
#1097 = CIRCLE('',#1098,5.E-02);
#1098 = AXIS2_PLACEMENT_3D('',#1099,#1100,#1101);
#1099 = CARTESIAN_POINT('',(0.53,0.28,0.28));
#1100 = DIRECTION('',(1.,0.,-0.));
#1101 = DIRECTION('',(0.,1.,0.));
#1102 = ORIENTED_EDGE('',*,*,#1103,.F.);
#1103 = EDGE_CURVE('',#1104,#1095,#1106,.T.);
#1104 = VERTEX_POINT('',#1105);
#1105 = CARTESIAN_POINT('',(0.53,5.E-02,0.33));
#1106 = LINE('',#1107,#1108);
#1107 = CARTESIAN_POINT('',(0.53,0.,0.33));
#1108 = VECTOR('',#1109,1.);
#1109 = DIRECTION('',(-0.,1.,0.));
#1110 = ORIENTED_EDGE('',*,*,#1111,.T.);
#1111 = EDGE_CURVE('',#1104,#1013,#1112,.T.);
#1112 = CIRCLE('',#1113,5.E-02);
#1113 = AXIS2_PLACEMENT_3D('',#1114,#1115,#1116);
#1114 = CARTESIAN_POINT('',(0.53,5.E-02,0.28));
#1115 = DIRECTION('',(1.,0.,0.));
#1116 = DIRECTION('',(0.,-1.,0.));
#1117 = PLANE('',#1118);
#1118 = AXIS2_PLACEMENT_3D('',#1119,#1120,#1121);
#1119 = CARTESIAN_POINT('',(0.53,0.,0.));
#1120 = DIRECTION('',(1.,0.,-0.));
#1121 = DIRECTION('',(0.,0.,1.));
#1122 = ADVANCED_FACE('',(#1123),#1142,.T.);
#1123 = FACE_BOUND('',#1124,.T.);
#1124 = EDGE_LOOP('',(#1125,#1126,#1127,#1135));
#1125 = ORIENTED_EDGE('',*,*,#1012,.T.);
#1126 = ORIENTED_EDGE('',*,*,#1111,.F.);
#1127 = ORIENTED_EDGE('',*,*,#1128,.F.);
#1128 = EDGE_CURVE('',#1129,#1104,#1131,.T.);
#1129 = VERTEX_POINT('',#1130);
#1130 = CARTESIAN_POINT('',(0.1,5.E-02,0.33));
#1131 = LINE('',#1132,#1133);
#1132 = CARTESIAN_POINT('',(0.,5.E-02,0.33));
#1133 = VECTOR('',#1134,1.);
#1134 = DIRECTION('',(1.,0.,-0.));
#1135 = ORIENTED_EDGE('',*,*,#1136,.T.);
#1136 = EDGE_CURVE('',#1129,#1005,#1137,.T.);
#1137 = CIRCLE('',#1138,5.E-02);
#1138 = AXIS2_PLACEMENT_3D('',#1139,#1140,#1141);
#1139 = CARTESIAN_POINT('',(0.1,5.E-02,0.28));
#1140 = DIRECTION('',(1.,0.,0.));
#1141 = DIRECTION('',(0.,-1.,0.));
#1142 = CYLINDRICAL_SURFACE('',#1143,5.E-02);
#1143 = AXIS2_PLACEMENT_3D('',#1144,#1145,#1146);
#1144 = CARTESIAN_POINT('',(0.,5.E-02,0.28));
#1145 = DIRECTION('',(1.,0.,-0.));
#1146 = DIRECTION('',(0.,-1.,0.));
#1147 = ADVANCED_FACE('',(#1148),#1193,.F.);
#1148 = FACE_BOUND('',#1149,.F.);
#1149 = EDGE_LOOP('',(#1150,#1151,#1152,#1160,#1169,#1177,#1186,#1192));
#1150 = ORIENTED_EDGE('',*,*,#1004,.F.);
#1151 = ORIENTED_EDGE('',*,*,#1035,.T.);
#1152 = ORIENTED_EDGE('',*,*,#1153,.T.);
#1153 = EDGE_CURVE('',#1036,#1154,#1156,.T.);
#1154 = VERTEX_POINT('',#1155);
#1155 = CARTESIAN_POINT('',(0.1,0.28,-3.469446951954E-18));
#1156 = LINE('',#1157,#1158);
#1157 = CARTESIAN_POINT('',(0.1,0.,0.));
#1158 = VECTOR('',#1159,1.);
#1159 = DIRECTION('',(-0.,1.,0.));
#1160 = ORIENTED_EDGE('',*,*,#1161,.T.);
#1161 = EDGE_CURVE('',#1154,#1162,#1164,.T.);
#1162 = VERTEX_POINT('',#1163);
#1163 = CARTESIAN_POINT('',(0.1,0.33,5.E-02));
#1164 = CIRCLE('',#1165,5.E-02);
#1165 = AXIS2_PLACEMENT_3D('',#1166,#1167,#1168);
#1166 = CARTESIAN_POINT('',(0.1,0.28,5.E-02));
#1167 = DIRECTION('',(1.,0.,-0.));
#1168 = DIRECTION('',(0.,1.,0.));
#1169 = ORIENTED_EDGE('',*,*,#1170,.T.);
#1170 = EDGE_CURVE('',#1162,#1171,#1173,.T.);
#1171 = VERTEX_POINT('',#1172);
#1172 = CARTESIAN_POINT('',(0.1,0.33,0.28));
#1173 = LINE('',#1174,#1175);
#1174 = CARTESIAN_POINT('',(0.1,0.33,0.));
#1175 = VECTOR('',#1176,1.);
#1176 = DIRECTION('',(0.,0.,1.));
#1177 = ORIENTED_EDGE('',*,*,#1178,.T.);
#1178 = EDGE_CURVE('',#1171,#1179,#1181,.T.);
#1179 = VERTEX_POINT('',#1180);
#1180 = CARTESIAN_POINT('',(0.1,0.28,0.33));
#1181 = CIRCLE('',#1182,5.E-02);
#1182 = AXIS2_PLACEMENT_3D('',#1183,#1184,#1185);
#1183 = CARTESIAN_POINT('',(0.1,0.28,0.28));
#1184 = DIRECTION('',(1.,0.,-0.));
#1185 = DIRECTION('',(0.,1.,0.));
#1186 = ORIENTED_EDGE('',*,*,#1187,.F.);
#1187 = EDGE_CURVE('',#1129,#1179,#1188,.T.);
#1188 = LINE('',#1189,#1190);
#1189 = CARTESIAN_POINT('',(0.1,0.,0.33));
#1190 = VECTOR('',#1191,1.);
#1191 = DIRECTION('',(-0.,1.,0.));
#1192 = ORIENTED_EDGE('',*,*,#1136,.T.);
#1193 = PLANE('',#1194);
#1194 = AXIS2_PLACEMENT_3D('',#1195,#1196,#1197);
#1195 = CARTESIAN_POINT('',(0.1,0.,0.));
#1196 = DIRECTION('',(1.,0.,-0.));
#1197 = DIRECTION('',(0.,0.,1.));
#1198 = ADVANCED_FACE('',(#1199),#1210,.F.);
#1199 = FACE_BOUND('',#1200,.F.);
#1200 = EDGE_LOOP('',(#1201,#1202,#1203,#1204));
#1201 = ORIENTED_EDGE('',*,*,#1153,.F.);
#1202 = ORIENTED_EDGE('',*,*,#1044,.T.);
#1203 = ORIENTED_EDGE('',*,*,#1069,.T.);
#1204 = ORIENTED_EDGE('',*,*,#1205,.F.);
#1205 = EDGE_CURVE('',#1154,#1070,#1206,.T.);
#1206 = LINE('',#1207,#1208);
#1207 = CARTESIAN_POINT('',(0.,0.28,-6.938893903907E-18));
#1208 = VECTOR('',#1209,1.);
#1209 = DIRECTION('',(1.,0.,-0.));
#1210 = PLANE('',#1211);
#1211 = AXIS2_PLACEMENT_3D('',#1212,#1213,#1214);
#1212 = CARTESIAN_POINT('',(0.,0.,0.));
#1213 = DIRECTION('',(0.,0.,1.));
#1214 = DIRECTION('',(1.,0.,-0.));
#1215 = ADVANCED_FACE('',(#1216),#1227,.T.);
#1216 = FACE_BOUND('',#1217,.T.);
#1217 = EDGE_LOOP('',(#1218,#1219,#1220,#1221));
#1218 = ORIENTED_EDGE('',*,*,#1187,.F.);
#1219 = ORIENTED_EDGE('',*,*,#1128,.T.);
#1220 = ORIENTED_EDGE('',*,*,#1103,.T.);
#1221 = ORIENTED_EDGE('',*,*,#1222,.F.);
#1222 = EDGE_CURVE('',#1179,#1095,#1223,.T.);
#1223 = LINE('',#1224,#1225);
#1224 = CARTESIAN_POINT('',(0.,0.28,0.33));
#1225 = VECTOR('',#1226,1.);
#1226 = DIRECTION('',(1.,0.,-0.));
#1227 = PLANE('',#1228);
#1228 = AXIS2_PLACEMENT_3D('',#1229,#1230,#1231);
#1229 = CARTESIAN_POINT('',(0.,0.,0.33));
#1230 = DIRECTION('',(0.,0.,1.));
#1231 = DIRECTION('',(1.,0.,-0.));
#1232 = ADVANCED_FACE('',(#1233),#1244,.T.);
#1233 = FACE_BOUND('',#1234,.T.);
#1234 = EDGE_LOOP('',(#1235,#1241,#1242,#1243));
#1235 = ORIENTED_EDGE('',*,*,#1236,.F.);
#1236 = EDGE_CURVE('',#1171,#1087,#1237,.T.);
#1237 = LINE('',#1238,#1239);
#1238 = CARTESIAN_POINT('',(0.,0.33,0.28));
#1239 = VECTOR('',#1240,1.);
#1240 = DIRECTION('',(1.,0.,-0.));
#1241 = ORIENTED_EDGE('',*,*,#1178,.T.);
#1242 = ORIENTED_EDGE('',*,*,#1222,.T.);
#1243 = ORIENTED_EDGE('',*,*,#1094,.F.);
#1244 = CYLINDRICAL_SURFACE('',#1245,5.E-02);
#1245 = AXIS2_PLACEMENT_3D('',#1246,#1247,#1248);
#1246 = CARTESIAN_POINT('',(0.,0.28,0.28));
#1247 = DIRECTION('',(1.,0.,-0.));
#1248 = DIRECTION('',(0.,1.,0.));
#1249 = ADVANCED_FACE('',(#1250),#1261,.T.);
#1250 = FACE_BOUND('',#1251,.T.);
#1251 = EDGE_LOOP('',(#1252,#1258,#1259,#1260));
#1252 = ORIENTED_EDGE('',*,*,#1253,.F.);
#1253 = EDGE_CURVE('',#1162,#1078,#1254,.T.);
#1254 = LINE('',#1255,#1256);
#1255 = CARTESIAN_POINT('',(0.,0.33,5.E-02));
#1256 = VECTOR('',#1257,1.);
#1257 = DIRECTION('',(1.,0.,-0.));
#1258 = ORIENTED_EDGE('',*,*,#1170,.T.);
#1259 = ORIENTED_EDGE('',*,*,#1236,.T.);
#1260 = ORIENTED_EDGE('',*,*,#1086,.F.);
#1261 = PLANE('',#1262);
#1262 = AXIS2_PLACEMENT_3D('',#1263,#1264,#1265);
#1263 = CARTESIAN_POINT('',(0.,0.33,0.));
#1264 = DIRECTION('',(-0.,1.,0.));
#1265 = DIRECTION('',(0.,0.,1.));
#1266 = ADVANCED_FACE('',(#1267),#1273,.T.);
#1267 = FACE_BOUND('',#1268,.T.);
#1268 = EDGE_LOOP('',(#1269,#1270,#1271,#1272));
#1269 = ORIENTED_EDGE('',*,*,#1253,.T.);
#1270 = ORIENTED_EDGE('',*,*,#1077,.F.);
#1271 = ORIENTED_EDGE('',*,*,#1205,.F.);
#1272 = ORIENTED_EDGE('',*,*,#1161,.T.);
#1273 = CYLINDRICAL_SURFACE('',#1274,5.E-02);
#1274 = AXIS2_PLACEMENT_3D('',#1275,#1276,#1277);
#1275 = CARTESIAN_POINT('',(0.,0.28,5.E-02));
#1276 = DIRECTION('',(1.,0.,-0.));
#1277 = DIRECTION('',(0.,1.,0.));
#1278 = ( GEOMETRIC_REPRESENTATION_CONTEXT(3) 
GLOBAL_UNCERTAINTY_ASSIGNED_CONTEXT((#1282)) 
GLOBAL_UNIT_ASSIGNED_CONTEXT((#1279,#1280,#1281)) REPRESENTATION_CONTEXT
('Context #1','3D Context with UNIT and UNCERTAINTY') );
#1279 = ( LENGTH_UNIT() NAMED_UNIT(*) SI_UNIT(.MILLI.,.METRE.) );
#1280 = ( NAMED_UNIT(*) PLANE_ANGLE_UNIT() SI_UNIT($,.RADIAN.) );
#1281 = ( NAMED_UNIT(*) SI_UNIT($,.STERADIAN.) SOLID_ANGLE_UNIT() );
#1282 = UNCERTAINTY_MEASURE_WITH_UNIT(LENGTH_MEASURE(1.E-07),#1279,
  'distance_accuracy_value','confusion accuracy');
#1283 = SHAPE_DEFINITION_REPRESENTATION(#1284,#987);
#1284 = PRODUCT_DEFINITION_SHAPE('','',#1285);
#1285 = PRODUCT_DEFINITION('design','',#1286,#1289);
#1286 = PRODUCT_DEFINITION_FORMATION('','',#1287);
#1287 = PRODUCT('Mid Body','Mid Body','',(#1288));
#1288 = PRODUCT_CONTEXT('',#2,'mechanical');
#1289 = PRODUCT_DEFINITION_CONTEXT('part definition',#2,'design');
#1290 = CONTEXT_DEPENDENT_SHAPE_REPRESENTATION(#1291,#1293);
#1291 = ( REPRESENTATION_RELATIONSHIP('','',#987,#46) 
REPRESENTATION_RELATIONSHIP_WITH_TRANSFORMATION(#1292) 
SHAPE_REPRESENTATION_RELATIONSHIP() );
#1292 = ITEM_DEFINED_TRANSFORMATION('','',#11,#51);
#1293 = PRODUCT_DEFINITION_SHAPE('Placement','Placement of an item',
  #1294);
#1294 = NEXT_ASSEMBLY_USAGE_OCCURRENCE('16','14','',#41,#1285,$);
#1295 = PRODUCT_RELATED_PRODUCT_CATEGORY('part',$,(#1287));
#1296 = CONTEXT_DEPENDENT_SHAPE_REPRESENTATION(#1297,#1299);
#1297 = ( REPRESENTATION_RELATIONSHIP('','',#46,#28) 
REPRESENTATION_RELATIONSHIP_WITH_TRANSFORMATION(#1298) 
SHAPE_REPRESENTATION_RELATIONSHIP() );
#1298 = ITEM_DEFINED_TRANSFORMATION('','',#11,#29);
#1299 = PRODUCT_DEFINITION_SHAPE('Placement','Placement of an item',
  #1300);
#1300 = NEXT_ASSEMBLY_USAGE_OCCURRENCE('17','','',#23,#41,$);
#1301 = PRODUCT_RELATED_PRODUCT_CATEGORY('part',$,(#43));
#1302 = MECHANICAL_DESIGN_GEOMETRIC_PRESENTATION_REPRESENTATION('',(
    #1303,#1313),#969);
#1303 = STYLED_ITEM('color',(#1304),#61);
#1304 = PRESENTATION_STYLE_ASSIGNMENT((#1305,#1311));
#1305 = SURFACE_STYLE_USAGE(.BOTH.,#1306);
#1306 = SURFACE_SIDE_STYLE('',(#1307));
#1307 = SURFACE_STYLE_FILL_AREA(#1308);
#1308 = FILL_AREA_STYLE('',(#1309));
#1309 = FILL_AREA_STYLE_COLOUR('',#1310);
#1310 = COLOUR_RGB('',0.800000010877,0.800000010877,0.800000010877);
#1311 = CURVE_STYLE('',#1312,POSITIVE_LENGTH_MEASURE(0.1),#1310);
#1312 = DRAUGHTING_PRE_DEFINED_CURVE_FONT('continuous');
#1313 = STYLED_ITEM('color',(#1314),#515);
#1314 = PRESENTATION_STYLE_ASSIGNMENT((#1315,#1320));
#1315 = SURFACE_STYLE_USAGE(.BOTH.,#1316);
#1316 = SURFACE_SIDE_STYLE('',(#1317));
#1317 = SURFACE_STYLE_FILL_AREA(#1318);
#1318 = FILL_AREA_STYLE('',(#1319));
#1319 = FILL_AREA_STYLE_COLOUR('',#1310);
#1320 = CURVE_STYLE('',#1321,POSITIVE_LENGTH_MEASURE(0.1),#1310);
#1321 = DRAUGHTING_PRE_DEFINED_CURVE_FONT('continuous');
#1322 = MECHANICAL_DESIGN_GEOMETRIC_PRESENTATION_REPRESENTATION('',(
    #1323),#1278);
#1323 = STYLED_ITEM('color',(#1324),#988);
#1324 = PRESENTATION_STYLE_ASSIGNMENT((#1325,#1331));
#1325 = SURFACE_STYLE_USAGE(.BOTH.,#1326);
#1326 = SURFACE_SIDE_STYLE('',(#1327));
#1327 = SURFACE_STYLE_FILL_AREA(#1328);
#1328 = FILL_AREA_STYLE('',(#1329));
#1329 = FILL_AREA_STYLE_COLOUR('',#1330);
#1330 = COLOUR_RGB('',0.721568617591,0.525490190653,4.313725586683E-02);
#1331 = CURVE_STYLE('',#1332,POSITIVE_LENGTH_MEASURE(0.1),#1330);
#1332 = DRAUGHTING_PRE_DEFINED_CURVE_FONT('continuous');
ENDSEC;
END-ISO-10303-21;
