ISO-10303-21;
HEADER;
FILE_DESCRIPTION (( 'STEP AP203' ),
    '1' );
FILE_NAME ('BAR3X20T1.step',
    '2026-03-22T05:37:19',
    ( '' ),
    ( '' ),
    'SwSTEP 2.0',
    'SolidWorks 2025',
    '' );
FILE_SCHEMA (( 'CONFIG_CONTROL_DESIGN' ));
ENDSEC;

DATA;
#1 = DIRECTION ( 'NONE',  ( 0.000000000000000000, 0.000000000000000000, 1.000000000000000000 ) ) ;
#2 = CARTESIAN_POINT ( 'NONE',  ( -9.799999999999997158, 0.000000000000000000, -1.499999999999999778 ) ) ;
#3 = ORIENTED_EDGE ( 'NONE', *, *, #485, .F. ) ;
#4 = DIRECTION ( 'NONE',  ( 0.000000000000000000, -1.000000000000000000, -1.084202172485504434E-15 ) ) ;
#5 = CARTESIAN_POINT ( 'NONE',  ( 9.799999999999998934, 0.8000000000000000444, -1.499999999999999778 ) ) ;
#6 = AXIS2_PLACEMENT_3D ( 'NONE', #274, #478, #67 ) ;
#7 = VERTEX_POINT ( 'NONE', #280 ) ;
#8 = EDGE_CURVE ( 'NONE', #466, #213, #534, .T. ) ;
#9 = EDGE_CURVE ( 'NONE', #342, #334, #76, .T. ) ;
#10 = DIRECTION ( 'NONE',  ( 0.000000000000000000, 1.000000000000000000, 0.000000000000000000 ) ) ;
#11 = CARTESIAN_POINT ( 'NONE',  ( 9.800000000000002487, 0.8000000000000000444, 1.300000000000000266 ) ) ;
#12 = VECTOR ( 'NONE', #19, 1000.000000000000000 ) ;
#13 = AXIS2_PLACEMENT_3D ( 'NONE', #253, #162, #207 ) ;
#14 = ORIENTED_EDGE ( 'NONE', *, *, #9, .F. ) ;
#15 = APPLICATION_CONTEXT ( 'configuration controlled 3d designs of mechanical parts and assemblies' ) ;
#16 = DIRECTION ( 'NONE',  ( 0.000000000000000000, -1.000000000000000000, 0.000000000000000000 ) ) ;
#17 = CARTESIAN_POINT ( 'NONE',  ( 9.800000000000002487, 1.000000000000000000, 1.500000000000000222 ) ) ;
#18 = ORIENTED_EDGE ( 'NONE', *, *, #9, .T. ) ;
#19 = DIRECTION ( 'NONE',  ( -0.000000000000000000, 1.000000000000000000, -0.000000000000000000 ) ) ;
#20 = PERSON_AND_ORGANIZATION ( #487, #35 ) ;
#21 = ORIENTED_EDGE ( 'NONE', *, *, #410, .F. ) ;
#22 = CARTESIAN_POINT ( 'NONE',  ( 10.00000000000000178, 1.000000000000000000, -1.300000000000000044 ) ) ;
#23 =( NAMED_UNIT ( * ) SI_UNIT ( $, .STERADIAN. ) SOLID_ANGLE_UNIT ( ) );
#24 = EDGE_LOOP ( 'NONE', ( #228, #361, #309, #60 ) ) ;
#25 = CARTESIAN_POINT ( 'NONE',  ( 10.00000000000000355, 1.000000000000000000, 1.299999999999999822 ) ) ;
#26 = AXIS2_PLACEMENT_3D ( 'NONE', #267, #433, #276 ) ;
#27 = APPROVAL_ROLE ( '' ) ;
#28 = ORIENTED_EDGE ( 'NONE', *, *, #117, .T. ) ;
#29 = APPROVAL ( #428, 'UNSPECIFIED' ) ;
#30 = DIRECTION ( 'NONE',  ( -0.000000000000000000, 0.000000000000000000, 1.000000000000000000 ) ) ;
#31 = PERSON_AND_ORGANIZATION ( #487, #35 ) ;
#32 = ORIENTED_EDGE ( 'NONE', *, *, #439, .F. ) ;
#33 = CARTESIAN_POINT ( 'NONE',  ( 10.00000000000000178, 0.000000000000000000, -1.300000000000000044 ) ) ;
#34 = ORIENTED_EDGE ( 'NONE', *, *, #109, .T. ) ;
#35 = ORGANIZATION ( 'UNSPECIFIED', 'UNSPECIFIED', '' ) ;
#36 = MANIFOLD_SOLID_BREP ( '\X2\570689d2\X0\1', #242 ) ;
#37 = AXIS2_PLACEMENT_3D ( 'NONE', #206, #369, #461 ) ;
#38 = ORIENTED_EDGE ( 'NONE', *, *, #330, .F. ) ;
#39 = VECTOR ( 'NONE', #237, 1000.000000000000000 ) ;
#40 = CC_DESIGN_DATE_AND_TIME_ASSIGNMENT ( #443, #438, ( #372 ) ) ;
#41 = DIRECTION ( 'NONE',  ( 0.000000000000000000, 0.000000000000000000, -1.000000000000000000 ) ) ;
#42 = CARTESIAN_POINT ( 'NONE',  ( -9.799999999999997158, 1.000000000000000000, -1.299999999999999822 ) ) ;
#43 = CARTESIAN_POINT ( 'NONE',  ( -9.999999999999998224, 1.000000000000000000, -1.499999999999999778 ) ) ;
#44 = CARTESIAN_POINT ( 'NONE',  ( 0.000000000000000000, 0.8000000000000000444, 1.300000000000000266 ) ) ;
#45 = DIRECTION ( 'NONE',  ( 0.000000000000000000, -1.000000000000000000, 0.000000000000000000 ) ) ;
#46 = LOCAL_TIME ( 13, 37, 19.00000000000000000, #198 ) ;
#47 = LINE ( 'NONE', #501, #479 ) ;
#48 = LINE ( 'NONE', #367, #409 ) ;
#49 = ORIENTED_EDGE ( 'NONE', *, *, #298, .F. ) ;
#50 = EDGE_CURVE ( 'NONE', #466, #155, #498, .T. ) ;
#51 = DIRECTION ( 'NONE',  ( 1.000000000000000000, 0.000000000000000000, 0.000000000000000000 ) ) ;
#52 = DIRECTION ( 'NONE',  ( 1.000000000000000000, 0.000000000000000000, 0.000000000000000000 ) ) ;
#53 = ORIENTED_EDGE ( 'NONE', *, *, #269, .F. ) ;
#54 = CARTESIAN_POINT ( 'NONE',  ( -9.799999999999997158, 0.000000000000000000, 1.300000000000000266 ) ) ;
#55 = APPROVAL_ROLE ( '' ) ;
#56 = VERTEX_POINT ( 'NONE', #313 ) ;
#57 = CARTESIAN_POINT ( 'NONE',  ( -9.799999999999997158, 0.8000000000000000444, 1.300000000000000266 ) ) ;
#58 = DATE_AND_TIME ( #475, #163 ) ;
#59 = ADVANCED_FACE ( 'NONE', ( #396 ), #70, .T. ) ;
#60 = ORIENTED_EDGE ( 'NONE', *, *, #411, .F. ) ;
#61 = DIRECTION ( 'NONE',  ( -0.000000000000000000, 1.000000000000000000, -0.000000000000000000 ) ) ;
#62 = PERSON_AND_ORGANIZATION ( #487, #35 ) ;
#63 = ORIENTED_EDGE ( 'NONE', *, *, #289, .T. ) ;
#64 = CARTESIAN_POINT ( 'NONE',  ( -9.999999999999998224, 1.000000000000000000, -1.299999999999999822 ) ) ;
#65 = AXIS2_PLACEMENT_3D ( 'NONE', #57, #145, #100 ) ;
#66 = APPROVAL_STATUS ( 'not_yet_approved' ) ;
#67 = DIRECTION ( 'NONE',  ( 8.673617379884035472E-15, 1.000000000000000000, 0.000000000000000000 ) ) ;
#68 = EDGE_CURVE ( 'NONE', #488, #155, #444, .T. ) ;
#69 = DIRECTION ( 'NONE',  ( -1.000000000000000000, 0.000000000000000000, 0.000000000000000000 ) ) ;
#70 = SPHERICAL_SURFACE ( 'NONE', #311, 0.2000000000000000111 ) ;
#71 = EDGE_CURVE ( 'NONE', #448, #358, #126, .T. ) ;
#72 = ADVANCED_FACE ( 'NONE', ( #249 ), #290, .T. ) ;
#73 = DIRECTION ( 'NONE',  ( 0.000000000000000000, 1.000000000000000000, 0.000000000000000000 ) ) ;
#74 = ORIENTED_EDGE ( 'NONE', *, *, #260, .F. ) ;
#75 = CIRCLE ( 'NONE', #371, 0.2000000000000005107 ) ;
#76 = CIRCLE ( 'NONE', #169, 0.2000000000000000944 ) ;
#77 = ORIENTED_EDGE ( 'NONE', *, *, #71, .T. ) ;
#78 = ADVANCED_FACE ( 'NONE', ( #336 ), #211, .T. ) ;
#79 = VECTOR ( 'NONE', #106, 1000.000000000000000 ) ;
#80 = AXIS2_PLACEMENT_3D ( 'NONE', #337, #45, #132 ) ;
#81 = DIRECTION ( 'NONE',  ( 0.000000000000000000, -1.000000000000000000, 0.000000000000000000 ) ) ;
#82 = CARTESIAN_POINT ( 'NONE',  ( 9.800000000000002487, 0.8000000000000000444, 1.500000000000000222 ) ) ;
#83 = CARTESIAN_POINT ( 'NONE',  ( 10.00000000000000178, 0.000000000000000000, -1.499999999999999778 ) ) ;
#84 = DIRECTION ( 'NONE',  ( -0.000000000000000000, -1.000000000000000000, -0.000000000000000000 ) ) ;
#85 = DIRECTION ( 'NONE',  ( 1.084202172485501673E-15, -1.084202172485504434E-15, 1.000000000000000000 ) ) ;
#86 = FACE_OUTER_BOUND ( 'NONE', #295, .T. ) ;
#87 = DIRECTION ( 'NONE',  ( 5.782411586589356653E-16, -0.000000000000000000, 1.000000000000000000 ) ) ;
#88 = DIRECTION ( 'NONE',  ( 0.000000000000000000, 0.000000000000000000, 1.000000000000000000 ) ) ;
#89 = EDGE_CURVE ( 'NONE', #7, #342, #524, .T. ) ;
#90 = VERTEX_POINT ( 'NONE', #122 ) ;
#91 = VECTOR ( 'NONE', #16, 1000.000000000000000 ) ;
#92 = CARTESIAN_POINT ( 'NONE',  ( -9.799999999999997158, 0.8000000000000000444, 1.300000000000000266 ) ) ;
#93 = DIRECTION ( 'NONE',  ( 1.000000000000000000, 0.000000000000000000, -5.782411586589359611E-16 ) ) ;
#94 = EDGE_LOOP ( 'NONE', ( #435, #318, #470, #266 ) ) ;
#95 = CARTESIAN_POINT ( 'NONE',  ( -9.999999999999998224, 0.000000000000000000, -1.499999999999999778 ) ) ;
#96 = ORIENTED_EDGE ( 'NONE', *, *, #214, .F. ) ;
#97 = LINE ( 'NONE', #22, #12 ) ;
#98 = LOCAL_TIME ( 13, 37, 19.00000000000000000, #348 ) ;
#99 = ORIENTED_EDGE ( 'NONE', *, *, #404, .F. ) ;
#100 = DIRECTION ( 'NONE',  ( 0.000000000000000000, 0.000000000000000000, 1.000000000000000000 ) ) ;
#101 = VERTEX_POINT ( 'NONE', #42 ) ;
#102 = LINE ( 'NONE', #513, #294 ) ;
#103 = DATE_AND_TIME ( #526, #196 ) ;
#104 = CIRCLE ( 'NONE', #199, 0.1999999999999999833 ) ;
#105 = DIRECTION ( 'NONE',  ( 0.000000000000000000, 0.000000000000000000, 1.000000000000000000 ) ) ;
#106 = DIRECTION ( 'NONE',  ( 0.000000000000000000, -1.000000000000000000, 0.000000000000000000 ) ) ;
#107 = VECTOR ( 'NONE', #30, 1000.000000000000000 ) ;
#108 = COORDINATED_UNIVERSAL_TIME_OFFSET ( 8, 0, .AHEAD. ) ;
#109 = EDGE_CURVE ( 'NONE', #213, #358, #272, .T. ) ;
#110 = ORIENTED_EDGE ( 'NONE', *, *, #218, .T. ) ;
#111 = VECTOR ( 'NONE', #167, 1000.000000000000000 ) ;
#112 = CIRCLE ( 'NONE', #179, 0.2000000000000000944 ) ;
#113 = DIRECTION ( 'NONE',  ( 1.000000000000000000, -0.000000000000000000, -0.000000000000000000 ) ) ;
#114 = ORIENTED_EDGE ( 'NONE', *, *, #117, .F. ) ;
#115 = ORIENTED_EDGE ( 'NONE', *, *, #260, .T. ) ;
#116 = ADVANCED_FACE ( 'NONE', ( #376 ), #419, .T. ) ;
#117 = EDGE_CURVE ( 'NONE', #56, #488, #104, .T. ) ;
#118 = VECTOR ( 'NONE', #166, 1000.000000000000000 ) ;
#119 = ORIENTED_EDGE ( 'NONE', *, *, #321, .F. ) ;
#120 = ADVANCED_FACE ( 'NONE', ( #412 ), #164, .F. ) ;
#121 = CIRCLE ( 'NONE', #481, 0.2000000000000000944 ) ;
#122 = CARTESIAN_POINT ( 'NONE',  ( 9.800000000000002487, 0.000000000000000000, 1.500000000000000222 ) ) ;
#123 = CARTESIAN_POINT ( 'NONE',  ( 9.800000000000002487, 0.8000000000000000444, 1.300000000000000266 ) ) ;
#124 = DIRECTION ( 'NONE',  ( 0.000000000000000000, 0.000000000000000000, 1.000000000000000000 ) ) ;
#125 = PRODUCT_DEFINITION_SHAPE ( 'NONE', 'NONE',  #312 ) ;
#126 = LINE ( 'NONE', #83, #118 ) ;
#127 = DIRECTION ( 'NONE',  ( -1.000000000000000000, 0.000000000000000000, 0.000000000000000000 ) ) ;
#128 = VERTEX_POINT ( 'NONE', #494 ) ;
#129 = AXIS2_PLACEMENT_3D ( 'NONE', #134, #455, #331 ) ;
#130 = FACE_OUTER_BOUND ( 'NONE', #225, .T. ) ;
#131 = VECTOR ( 'NONE', #88, 1000.000000000000000 ) ;
#132 = DIRECTION ( 'NONE',  ( 0.000000000000000000, 0.000000000000000000, -1.000000000000000000 ) ) ;
#133 = EDGE_LOOP ( 'NONE', ( #263, #18, #53 ) ) ;
#134 = CARTESIAN_POINT ( 'NONE',  ( -9.799999999999997158, 0.8000000000000000444, -1.299999999999999822 ) ) ;
#135 = DIRECTION ( 'NONE',  ( 1.000000000000000000, 0.000000000000000000, -0.000000000000000000 ) ) ;
#136 = CC_DESIGN_PERSON_AND_ORGANIZATION_ASSIGNMENT ( #301, #277, ( #372 ) ) ;
#137 = ORIENTED_EDGE ( 'NONE', *, *, #363, .T. ) ;
#138 = UNCERTAINTY_MEASURE_WITH_UNIT (LENGTH_MEASURE( 1.000000000000000082E-05 ), #268, 'distance_accuracy_value', 'NONE');
#139 = LINE ( 'NONE', #347, #79 ) ;
#140 = DIRECTION ( 'NONE',  ( 0.000000000000000000, 0.000000000000000000, 1.000000000000000000 ) ) ;
#141 = ORIENTED_EDGE ( 'NONE', *, *, #439, .T. ) ;
#142 = CARTESIAN_POINT ( 'NONE',  ( -9.999999999999998224, 1.000000000000000000, 1.300000000000000266 ) ) ;
#143 = COORDINATED_UNIVERSAL_TIME_OFFSET ( 8, 0, .AHEAD. ) ;
#144 = ORIENTED_EDGE ( 'NONE', *, *, #8, .F. ) ;
#145 = DIRECTION ( 'NONE',  ( 1.000000000000000000, -0.000000000000000000, -0.000000000000000000 ) ) ;
#146 =( NAMED_UNIT ( * ) PLANE_ANGLE_UNIT ( ) SI_UNIT ( $, .RADIAN. ) );
#147 = ORIENTED_EDGE ( 'NONE', *, *, #356, .T. ) ;
#148 = FACE_OUTER_BOUND ( 'NONE', #421, .T. ) ;
#149 = ADVANCED_FACE ( 'NONE', ( #465 ), #458, .T. ) ;
#150 = VECTOR ( 'NONE', #153, 1000.000000000000000 ) ;
#151 = EDGE_LOOP ( 'NONE', ( #77, #531, #368, #432 ) ) ;
#152 = LINE ( 'NONE', #95, #39 ) ;
#153 = DIRECTION ( 'NONE',  ( -5.782411586589356653E-16, 0.000000000000000000, -1.000000000000000000 ) ) ;
#154 = CARTESIAN_POINT ( 'NONE',  ( 9.800000000000002487, 0.000000000000000000, 1.300000000000000044 ) ) ;
#155 = VERTEX_POINT ( 'NONE', #252 ) ;
#156 = ADVANCED_FACE ( 'NONE', ( #327 ), #417, .T. ) ;
#157 = VECTOR ( 'NONE', #226, 1000.000000000000000 ) ;
#158 = VECTOR ( 'NONE', #398, 1000.000000000000000 ) ;
#159 = ORIENTED_EDGE ( 'NONE', *, *, #410, .T. ) ;
#160 = EDGE_CURVE ( 'NONE', #521, #56, #496, .T. ) ;
#161 = EDGE_CURVE ( 'NONE', #402, #473, #47, .T. ) ;
#162 = DIRECTION ( 'NONE',  ( 0.000000000000000000, -1.000000000000000000, 0.000000000000000000 ) ) ;
#163 = LOCAL_TIME ( 13, 37, 19.00000000000000000, #265 ) ;
#164 = PLANE ( 'NONE',  #333 ) ;
#165 = CARTESIAN_POINT ( 'NONE',  ( 9.800000000000000711, 0.8000000000000000444, -1.299999999999999822 ) ) ;
#166 = DIRECTION ( 'NONE',  ( -5.782411586589356653E-16, -0.000000000000000000, -1.000000000000000000 ) ) ;
#167 = DIRECTION ( 'NONE',  ( 0.000000000000000000, -0.000000000000000000, -1.000000000000000000 ) ) ;
#168 = ORIENTED_EDGE ( 'NONE', *, *, #50, .T. ) ;
#169 = AXIS2_PLACEMENT_3D ( 'NONE', #476, #393, #105 ) ;
#170 = CARTESIAN_POINT ( 'NONE',  ( -9.999999999999998224, 1.000000000000000000, 1.500000000000000222 ) ) ;
#171 = DIRECTION ( 'NONE',  ( 0.000000000000000000, 1.000000000000000000, 0.000000000000000000 ) ) ;
#172 = ORIENTED_EDGE ( 'NONE', *, *, #189, .F. ) ;
#173 = VECTOR ( 'NONE', #87, 1000.000000000000000 ) ;
#174 = DIRECTION ( 'NONE',  ( 0.000000000000000000, -0.000000000000000000, 1.000000000000000000 ) ) ;
#175 = ADVANCED_FACE ( 'NONE', ( #130 ), #296, .F. ) ;
#176 = CIRCLE ( 'NONE', #480, 0.2000000000000000944 ) ;
#177 = AXIS2_PLACEMENT_3D ( 'NONE', #165, #171, #413 ) ;
#178 = DIRECTION ( 'NONE',  ( -1.000000000000000000, -0.000000000000000000, -0.000000000000000000 ) ) ;
#179 = AXIS2_PLACEMENT_3D ( 'NONE', #194, #73, #401 ) ;
#180 = ORIENTED_EDGE ( 'NONE', *, *, #8, .T. ) ;
#181 = CYLINDRICAL_SURFACE ( 'NONE', #279, 0.2000000000000005107 ) ;
#182 = APPROVAL_DATE_TIME ( #386, #29 ) ;
#183 = ORIENTED_EDGE ( 'NONE', *, *, #364, .T. ) ;
#184 = LINE ( 'NONE', #142, #315 ) ;
#185 = ORIENTED_EDGE ( 'NONE', *, *, #317, .F. ) ;
#186 = DIRECTION ( 'NONE',  ( 0.000000000000000000, -0.000000000000000000, 1.000000000000000000 ) ) ;
#187 = LINE ( 'NONE', #17, #220 ) ;
#188 = ORIENTED_EDGE ( 'NONE', *, *, #355, .T. ) ;
#189 = EDGE_CURVE ( 'NONE', #521, #466, #176, .T. ) ;
#190 = CARTESIAN_POINT ( 'NONE',  ( 9.799999999999998934, 0.000000000000000000, -1.499999999999999778 ) ) ;
#191 = LINE ( 'NONE', #25, #319 ) ;
#192 = AXIS2_PLACEMENT_3D ( 'NONE', #292, #506, #453 ) ;
#193 = DIRECTION ( 'NONE',  ( 0.000000000000000000, 0.000000000000000000, 1.000000000000000000 ) ) ;
#194 = CARTESIAN_POINT ( 'NONE',  ( -9.799999999999997158, 0.8000000000000000444, -1.299999999999999822 ) ) ;
#195 = EDGE_CURVE ( 'NONE', #101, #7, #261, .T. ) ;
#196 = LOCAL_TIME ( 13, 37, 19.00000000000000000, #108 ) ;
#197 = ORIENTED_EDGE ( 'NONE', *, *, #250, .T. ) ;
#198 = COORDINATED_UNIVERSAL_TIME_OFFSET ( 8, 0, .AHEAD. ) ;
#199 = AXIS2_PLACEMENT_3D ( 'NONE', #247, #85, #4 ) ;
#200 = AXIS2_PLACEMENT_3D ( 'NONE', #254, #127, #495 ) ;
#201 = ADVANCED_FACE ( 'NONE', ( #148 ), #474, .T. ) ;
#202 = EDGE_LOOP ( 'NONE', ( #484, #28, #99 ) ) ;
#203 = CARTESIAN_POINT ( 'NONE',  ( 0.000000000000000000, 0.8000000000000000444, -1.299999999999999822 ) ) ;
#204 = CYLINDRICAL_SURFACE ( 'NONE', #80, 0.2000000000000000944 ) ;
#205 = EDGE_LOOP ( 'NONE', ( #197, #324, #115, #380 ) ) ;
#206 = CARTESIAN_POINT ( 'NONE',  ( 9.799999999999998934, 0.000000000000000000, -1.299999999999999822 ) ) ;
#207 = DIRECTION ( 'NONE',  ( 0.000000000000000000, 0.000000000000000000, -1.000000000000000000 ) ) ;
#208 = EDGE_CURVE ( 'NONE', #350, #424, #500, .T. ) ;
#209 = DIRECTION ( 'NONE',  ( -1.000000000000000000, 0.000000000000000000, 0.000000000000000000 ) ) ;
#210 = DIRECTION ( 'NONE',  ( 1.000000000000000000, -0.000000000000000000, 0.000000000000000000 ) ) ;
#211 = CYLINDRICAL_SURFACE ( 'NONE', #192, 0.2000000000000000944 ) ;
#212 = SPHERICAL_SURFACE ( 'NONE', #177, 0.2000000000000000111 ) ;
#213 = VERTEX_POINT ( 'NONE', #190 ) ;
#214 = EDGE_CURVE ( 'NONE', #358, #521, #97, .T. ) ;
#215 = DIRECTION ( 'NONE',  ( -0.000000000000000000, 1.000000000000000000, -0.000000000000000000 ) ) ;
#216 = FACE_OUTER_BOUND ( 'NONE', #222, .T. ) ;
#217 = ORIENTED_EDGE ( 'NONE', *, *, #218, .F. ) ;
#218 = EDGE_CURVE ( 'NONE', #424, #342, #184, .T. ) ;
#219 = DIRECTION ( 'NONE',  ( -1.000000000000000000, -0.000000000000000000, -0.000000000000000000 ) ) ;
#220 = VECTOR ( 'NONE', #399, 1000.000000000000000 ) ;
#221 = MECHANICAL_CONTEXT ( 'NONE', #15, 'mechanical' ) ;
#222 = EDGE_LOOP ( 'NONE', ( #188, #464, #183, #180 ) ) ;
#223 = CARTESIAN_POINT ( 'NONE',  ( -9.999999999999998224, 1.000000000000000000, -1.299999999999999822 ) ) ;
#224 = PERSON_AND_ORGANIZATION ( #487, #35 ) ;
#225 = EDGE_LOOP ( 'NONE', ( #74, #505, #21, #365, #346, #34, #306, #137 ) ) ;
#226 = DIRECTION ( 'NONE',  ( 1.000000000000000000, 0.000000000000000000, 0.000000000000000000 ) ) ;
#227 = PERSON_AND_ORGANIZATION_ROLE ( 'design_owner' ) ;
#228 = ORIENTED_EDGE ( 'NONE', *, *, #269, .T. ) ;
#229 = CIRCLE ( 'NONE', #65, 0.2000000000000000944 ) ;
#230 = DIRECTION ( 'NONE',  ( -1.000000000000000000, 0.000000000000000000, 1.084202172485501673E-15 ) ) ;
#231 = PERSON_AND_ORGANIZATION_ROLE ( 'creator' ) ;
#232 = EDGE_LOOP ( 'NONE', ( #509, #144, #172, #96 ) ) ;
#233 = LINE ( 'NONE', #64, #158 ) ;
#234 = PERSON_AND_ORGANIZATION ( #487, #35 ) ;
#235 = CARTESIAN_POINT ( 'NONE',  ( -9.799999999999997158, 0.8000000000000000444, 1.300000000000000266 ) ) ;
#236 = CC_DESIGN_PERSON_AND_ORGANIZATION_ASSIGNMENT ( #62, #520, ( #469 ) ) ;
#237 = DIRECTION ( 'NONE',  ( -1.000000000000000000, -0.000000000000000000, -0.000000000000000000 ) ) ;
#238 = ORIENTED_EDGE ( 'NONE', *, *, #317, .T. ) ;
#239 = CALENDAR_DATE ( 2026, 22, 3 ) ;
#240 = APPROVAL_PERSON_ORGANIZATION ( #224, #527, #345 ) ;
#241 = VECTOR ( 'NONE', #113, 1000.000000000000000 ) ;
#242 = CLOSED_SHELL ( 'NONE', ( #259, #508, #493, #120, #201, #175, #407, #72, #116, #149, #486, #397, #343, #489, #78, #59, #449, #156 ) ) ;
#243 = EDGE_CURVE ( 'NONE', #334, #350, #139, .T. ) ;
#244 = APPROVAL_DATE_TIME ( #483, #518 ) ;
#245 = VERTEX_POINT ( 'NONE', #388 ) ;
#246 = AXIS2_PLACEMENT_3D ( 'NONE', #54, #271, #307 ) ;
#247 = CARTESIAN_POINT ( 'NONE',  ( 9.800000000000002487, 0.8000000000000000444, 1.300000000000000044 ) ) ;
#248 = PLANE ( 'NONE',  #278 ) ;
#249 = FACE_OUTER_BOUND ( 'NONE', #302, .T. ) ;
#250 = EDGE_CURVE ( 'NONE', #460, #334, #102, .T. ) ;
#251 = FACE_OUTER_BOUND ( 'NONE', #288, .T. ) ;
#252 = CARTESIAN_POINT ( 'NONE',  ( 9.800000000000000711, 1.000000000000000000, -1.299999999999999822 ) ) ;
#253 = CARTESIAN_POINT ( 'NONE',  ( -9.799999999999997158, 1.000000000000000000, -1.299999999999999822 ) ) ;
#254 = CARTESIAN_POINT ( 'NONE',  ( -9.799999999999997158, 0.8000000000000000444, -1.299999999999999822 ) ) ;
#255 = ORIENTED_EDGE ( 'NONE', *, *, #195, .T. ) ;
#256 = CARTESIAN_POINT ( 'NONE',  ( 10.00000000000000355, 0.8000000000000000444, 1.500000000000000222 ) ) ;
#257 = PLANE ( 'NONE',  #452 ) ;
#258 = ORIENTED_EDGE ( 'NONE', *, *, #68, .F. ) ;
#259 = ADVANCED_FACE ( 'NONE', ( #303 ), #510, .F. ) ;
#260 = EDGE_CURVE ( 'NONE', #350, #90, #344, .T. ) ;
#261 = LINE ( 'NONE', #391, #107 ) ;
#262 = APPLICATION_PROTOCOL_DEFINITION ( 'international standard', 'config_control_design', 1994, #282 ) ;
#263 = ORIENTED_EDGE ( 'NONE', *, *, #89, .T. ) ;
#264 = CARTESIAN_POINT ( 'NONE',  ( 9.800000000000000711, 0.8000000000000000444, -1.299999999999999822 ) ) ;
#265 = COORDINATED_UNIVERSAL_TIME_OFFSET ( 8, 0, .AHEAD. ) ;
#266 = ORIENTED_EDGE ( 'NONE', *, *, #195, .F. ) ;
#267 = CARTESIAN_POINT ( 'NONE',  ( -9.799999999999997158, 0.8000000000000000444, -1.299999999999999822 ) ) ;
#268 =( LENGTH_UNIT ( ) NAMED_UNIT ( * ) SI_UNIT ( .MILLI., .METRE. ) );
#269 = EDGE_CURVE ( 'NONE', #7, #334, #229, .T. ) ;
#270 = EDGE_LOOP ( 'NONE', ( #515, #512, #304, #353 ) ) ;
#271 = DIRECTION ( 'NONE',  ( -0.000000000000000000, -1.000000000000000000, -0.000000000000000000 ) ) ;
#272 = CIRCLE ( 'NONE', #37, 0.2000000000000000944 ) ;
#273 = SECURITY_CLASSIFICATION_LEVEL ( 'unclassified' ) ;
#274 = CARTESIAN_POINT ( 'NONE',  ( 9.799999999999998934, 0.8000000000000000444, -1.299999999999999822 ) ) ;
#275 = AXIS2_PLACEMENT_3D ( 'NONE', #378, #10, #174 ) ;
#276 = DIRECTION ( 'NONE',  ( -1.000000000000000000, 0.000000000000000000, 0.000000000000000000 ) ) ;
#277 = PERSON_AND_ORGANIZATION_ROLE ( 'classification_officer' ) ;
#278 = AXIS2_PLACEMENT_3D ( 'NONE', #540, #379, #135 ) ;
#279 = AXIS2_PLACEMENT_3D ( 'NONE', #442, #354, #69 ) ;
#280 = CARTESIAN_POINT ( 'NONE',  ( -9.799999999999997158, 1.000000000000000000, 1.300000000000000266 ) ) ;
#281 = CC_DESIGN_DATE_AND_TIME_ASSIGNMENT ( #58, #357, ( #312 ) ) ;
#282 = APPLICATION_CONTEXT ( 'configuration controlled 3d designs of mechanical parts and assemblies' ) ;
#283 = DIRECTION ( 'NONE',  ( 0.000000000000000000, 0.000000000000000000, 1.000000000000000000 ) ) ;
#284 = ORIENTED_EDGE ( 'NONE', *, *, #330, .T. ) ;
#285 = LOCAL_TIME ( 13, 37, 19.00000000000000000, #143 ) ;
#286 = PRODUCT_RELATED_PRODUCT_CATEGORY ( 'detail', '', ( #415 ) ) ;
#287 = AXIS2_PLACEMENT_3D ( 'NONE', #92, #414, #51 ) ;
#288 = EDGE_LOOP ( 'NONE', ( #238, #258, #114, #329 ) ) ;
#289 = EDGE_CURVE ( 'NONE', #128, #245, #383, .T. ) ;
#290 = CYLINDRICAL_SURFACE ( 'NONE', #425, 0.2000000000000000944 ) ;
#291 = CARTESIAN_POINT ( 'NONE',  ( 10.00000000000000355, 0.000000000000000000, 1.299999999999999822 ) ) ;
#292 = CARTESIAN_POINT ( 'NONE',  ( 9.800000000000002487, 1.000000000000000000, 1.300000000000000044 ) ) ;
#293 = DIRECTION ( 'NONE',  ( 0.000000000000000000, 0.000000000000000000, -1.000000000000000000 ) ) ;
#294 = VECTOR ( 'NONE', #219, 1000.000000000000000 ) ;
#295 = EDGE_LOOP ( 'NONE', ( #440, #430, #14, #217 ) ) ;
#296 = PLANE ( 'NONE',  #275 ) ;
#297 = CARTESIAN_POINT ( 'NONE',  ( -9.999999999999998224, 0.000000000000000000, -1.499999999999999778 ) ) ;
#298 = EDGE_CURVE ( 'NONE', #101, #128, #517, .T. ) ;
#299 = ORIENTED_EDGE ( 'NONE', *, *, #50, .F. ) ;
#300 = DIRECTION ( 'NONE',  ( 0.000000000000000000, 0.000000000000000000, -1.000000000000000000 ) ) ;
#301 = PERSON_AND_ORGANIZATION ( #487, #35 ) ;
#302 = EDGE_LOOP ( 'NONE', ( #299, #320, #32, #38 ) ) ;
#303 = FACE_OUTER_BOUND ( 'NONE', #151, .T. ) ;
#304 = ORIENTED_EDGE ( 'NONE', *, *, #356, .F. ) ;
#305 = DIRECTION ( 'NONE',  ( -1.000000000000000000, 0.000000000000000000, 5.782411586589356653E-16 ) ) ;
#306 = ORIENTED_EDGE ( 'NONE', *, *, #71, .F. ) ;
#307 = DIRECTION ( 'NONE',  ( 0.000000000000000000, 0.000000000000000000, 1.000000000000000000 ) ) ;
#308 = APPLICATION_PROTOCOL_DEFINITION ( 'international standard', 'config_control_design', 1994, #15 ) ;
#309 = ORIENTED_EDGE ( 'NONE', *, *, #404, .T. ) ;
#310 = CARTESIAN_POINT ( 'NONE',  ( 9.800000000000000711, 0.8000000000000000444, -1.299999999999999822 ) ) ;
#311 = AXIS2_PLACEMENT_3D ( 'NONE', #235, #400, #193 ) ;
#312 = PRODUCT_DEFINITION ( 'UNKNOWN', '', #469, #339 ) ;
#313 = CARTESIAN_POINT ( 'NONE',  ( 10.00000000000000355, 0.8000000000000000444, 1.299999999999999822 ) ) ;
#314 = DIRECTION ( 'NONE',  ( 0.000000000000000000, -1.000000000000000000, 0.000000000000000000 ) ) ;
#315 = VECTOR ( 'NONE', #61, 1000.000000000000000 ) ;
#316 = AXIS2_PLACEMENT_3D ( 'NONE', #492, #497, #293 ) ;
#317 = EDGE_CURVE ( 'NONE', #521, #155, #75, .T. ) ;
#318 = ORIENTED_EDGE ( 'NONE', *, *, #384, .F. ) ;
#319 = VECTOR ( 'NONE', #314, 1000.000000000000000 ) ;
#320 = ORIENTED_EDGE ( 'NONE', *, *, #364, .F. ) ;
#321 = EDGE_CURVE ( 'NONE', #56, #448, #191, .T. ) ;
#322 = CARTESIAN_POINT ( 'NONE',  ( -9.799999999999997158, 0.000000000000000000, -1.299999999999999822 ) ) ;
#323 = APPROVAL_PERSON_ORGANIZATION ( #389, #29, #55 ) ;
#324 = ORIENTED_EDGE ( 'NONE', *, *, #243, .T. ) ;
#325 = DIRECTION ( 'NONE',  ( 0.000000000000000000, 0.000000000000000000, -1.000000000000000000 ) ) ;
#326 = FACE_OUTER_BOUND ( 'NONE', #270, .T. ) ;
#327 = FACE_OUTER_BOUND ( 'NONE', #24, .T. ) ;
#328 = LINE ( 'NONE', #297, #131 ) ;
#329 = ORIENTED_EDGE ( 'NONE', *, *, #160, .F. ) ;
#330 = EDGE_CURVE ( 'NONE', #155, #101, #233, .T. ) ;
#331 = DIRECTION ( 'NONE',  ( -1.000000000000000000, 0.000000000000000000, 0.000000000000000000 ) ) ;
#332 = DIRECTION ( 'NONE',  ( 5.782411586589356653E-16, -0.000000000000000000, 1.000000000000000000 ) ) ;
#333 = AXIS2_PLACEMENT_3D ( 'NONE', #170, #366, #535 ) ;
#334 = VERTEX_POINT ( 'NONE', #394 ) ;
#335 = CIRCLE ( 'NONE', #360, 0.2000000000000000944 ) ;
#336 = FACE_OUTER_BOUND ( 'NONE', #377, .T. ) ;
#337 = CARTESIAN_POINT ( 'NONE',  ( -9.799999999999997158, 1.000000000000000000, 1.300000000000000266 ) ) ;
#338 = ORIENTED_EDGE ( 'NONE', *, *, #68, .T. ) ;
#339 = DESIGN_CONTEXT ( 'detailed design', #282, 'design' ) ;
#340 = DIRECTION ( 'NONE',  ( 0.000000000000000000, 0.000000000000000000, 1.000000000000000000 ) ) ;
#341 = CARTESIAN_POINT ( 'NONE',  ( 10.00000000000000178, 0.8000000000000000444, -1.300000000000000044 ) ) ;
#342 = VERTEX_POINT ( 'NONE', #522 ) ;
#343 = ADVANCED_FACE ( 'NONE', ( #477 ), #181, .T. ) ;
#344 = LINE ( 'NONE', #471, #157 ) ;
#345 = APPROVAL_ROLE ( '' ) ;
#346 = ORIENTED_EDGE ( 'NONE', *, *, #355, .F. ) ;
#347 = CARTESIAN_POINT ( 'NONE',  ( -9.799999999999997158, 1.000000000000000000, 1.500000000000000222 ) ) ;
#348 = COORDINATED_UNIVERSAL_TIME_OFFSET ( 8, 0, .AHEAD. ) ;
#349 = APPROVAL_PERSON_ORGANIZATION ( #234, #518, #27 ) ;
#350 = VERTEX_POINT ( 'NONE', #525 ) ;
#351 = DIRECTION ( 'NONE',  ( 0.000000000000000000, 1.000000000000000000, 0.000000000000000000 ) ) ;
#352 = APPROVAL_DATE_TIME ( #103, #527 ) ;
#353 = ORIENTED_EDGE ( 'NONE', *, *, #161, .F. ) ;
#354 = DIRECTION ( 'NONE',  ( 0.000000000000000000, 0.000000000000000000, -1.000000000000000000 ) ) ;
#355 = EDGE_CURVE ( 'NONE', #213, #402, #152, .T. ) ;
#356 = EDGE_CURVE ( 'NONE', #473, #128, #112, .T. ) ;
#357 = DATE_TIME_ROLE ( 'creation_date' ) ;
#358 = VERTEX_POINT ( 'NONE', #33 ) ;
#359 = DIRECTION ( 'NONE',  ( -0.000000000000000000, -1.000000000000000000, -0.000000000000000000 ) ) ;
#360 = AXIS2_PLACEMENT_3D ( 'NONE', #322, #84, #124 ) ;
#361 = ORIENTED_EDGE ( 'NONE', *, *, #250, .F. ) ;
#362 = SHAPE_DEFINITION_REPRESENTATION ( #125, #385 ) ;
#363 = EDGE_CURVE ( 'NONE', #448, #90, #405, .T. ) ;
#364 = EDGE_CURVE ( 'NONE', #473, #466, #482, .T. ) ;
#365 = ORIENTED_EDGE ( 'NONE', *, *, #447, .T. ) ;
#366 = DIRECTION ( 'NONE',  ( 0.000000000000000000, 0.000000000000000000, -1.000000000000000000 ) ) ;
#367 = CARTESIAN_POINT ( 'NONE',  ( 10.00000000000000355, 1.000000000000000000, 1.300000000000000266 ) ) ;
#368 = ORIENTED_EDGE ( 'NONE', *, *, #160, .T. ) ;
#369 = DIRECTION ( 'NONE',  ( -0.000000000000000000, -1.000000000000000000, -0.000000000000000000 ) ) ;
#370 = FACE_OUTER_BOUND ( 'NONE', #537, .T. ) ;
#371 = AXIS2_PLACEMENT_3D ( 'NONE', #310, #437, #230 ) ;
#372 = SECURITY_CLASSIFICATION ( '', '', #273 ) ;
#373 = CARTESIAN_POINT ( 'NONE',  ( 9.799999999999998934, 1.000000000000000000, -1.299999999999999822 ) ) ;
#374 = CARTESIAN_POINT ( 'NONE',  ( -9.999999999999998224, 0.000000000000000000, 1.300000000000000266 ) ) ;
#375 = AXIS2_PLACEMENT_3D ( 'NONE', #154, #359, #283 ) ;
#376 = FACE_OUTER_BOUND ( 'NONE', #232, .T. ) ;
#377 = EDGE_LOOP ( 'NONE', ( #490, #119, #3, #408 ) ) ;
#378 = CARTESIAN_POINT ( 'NONE',  ( 0.000000000000000000, 0.000000000000000000, 0.000000000000000000 ) ) ;
#379 = DIRECTION ( 'NONE',  ( 0.000000000000000000, 0.000000000000000000, 1.000000000000000000 ) ) ;
#380 = ORIENTED_EDGE ( 'NONE', *, *, #533, .T. ) ;
#381 = AXIS2_PLACEMENT_3D ( 'NONE', #431, #305, #516 ) ;
#382 = CIRCLE ( 'NONE', #504, 0.2000000000000000944 ) ;
#383 = LINE ( 'NONE', #223, #91 ) ;
#384 = EDGE_CURVE ( 'NONE', #342, #128, #530, .T. ) ;
#385 = ADVANCED_BREP_SHAPE_REPRESENTATION ( 'BAR3X20T1', ( #36, #491 ), #429 ) ;
#386 = DATE_AND_TIME ( #392, #98 ) ;
#387 = ORIENTED_EDGE ( 'NONE', *, *, #189, .T. ) ;
#388 = CARTESIAN_POINT ( 'NONE',  ( -9.999999999999998224, 0.000000000000000000, -1.299999999999999822 ) ) ;
#389 = PERSON_AND_ORGANIZATION ( #487, #35 ) ;
#390 = EDGE_LOOP ( 'NONE', ( #141, #147, #49 ) ) ;
#391 = CARTESIAN_POINT ( 'NONE',  ( -9.799999999999997158, 1.000000000000000000, 1.500000000000000222 ) ) ;
#392 = CALENDAR_DATE ( 2026, 22, 3 ) ;
#393 = DIRECTION ( 'NONE',  ( 0.000000000000000000, 1.000000000000000000, -0.000000000000000000 ) ) ;
#394 = CARTESIAN_POINT ( 'NONE',  ( -9.799999999999997158, 0.8000000000000000444, 1.500000000000000222 ) ) ;
#395 = APPROVAL_STATUS ( 'not_yet_approved' ) ;
#396 = FACE_OUTER_BOUND ( 'NONE', #133, .T. ) ;
#397 = ADVANCED_FACE ( 'NONE', ( #86 ), #204, .T. ) ;
#398 = DIRECTION ( 'NONE',  ( -1.000000000000000000, 0.000000000000000000, 0.000000000000000000 ) ) ;
#399 = DIRECTION ( 'NONE',  ( -0.000000000000000000, 1.000000000000000000, -0.000000000000000000 ) ) ;
#400 = DIRECTION ( 'NONE',  ( 0.000000000000000000, 1.000000000000000000, -0.000000000000000000 ) ) ;
#401 = DIRECTION ( 'NONE',  ( 0.000000000000000000, 0.000000000000000000, 1.000000000000000000 ) ) ;
#402 = VERTEX_POINT ( 'NONE', #2 ) ;
#403 = CC_DESIGN_APPROVAL ( #29, ( #312 ) ) ;
#404 = EDGE_CURVE ( 'NONE', #460, #488, #121, .T. ) ;
#405 = CIRCLE ( 'NONE', #375, 0.2000000000000000944 ) ;
#406 = AXIS2_PLACEMENT_3D ( 'NONE', #373, #539, #300 ) ;
#407 = ADVANCED_FACE ( 'NONE', ( #326 ), #451, .T. ) ;
#408 = ORIENTED_EDGE ( 'NONE', *, *, #533, .F. ) ;
#409 = VECTOR ( 'NONE', #210, 1000.000000000000000 ) ;
#410 = EDGE_CURVE ( 'NONE', #245, #424, #328, .T. ) ;
#411 = EDGE_CURVE ( 'NONE', #7, #488, #48, .T. ) ;
#412 = FACE_OUTER_BOUND ( 'NONE', #205, .T. ) ;
#413 = DIRECTION ( 'NONE',  ( -1.000000000000000000, 0.000000000000000000, 8.673617379884013384E-15 ) ) ;
#414 = DIRECTION ( 'NONE',  ( 0.000000000000000000, -0.000000000000000000, 1.000000000000000000 ) ) ;
#415 = PRODUCT ( 'BAR3X20T1', 'BAR3X20T1', '', ( #221 ) ) ;
#416 = CARTESIAN_POINT ( 'NONE',  ( 9.800000000000000711, 0.8000000000000000444, -5.666763354857570368E-15 ) ) ;
#417 = CYLINDRICAL_SURFACE ( 'NONE', #457, 0.2000000000000000944 ) ;
#418 = CARTESIAN_POINT ( 'NONE',  ( -9.999999999999998224, 0.8000000000000000444, -1.499999999999999778 ) ) ;
#419 = CYLINDRICAL_SURFACE ( 'NONE', #406, 0.2000000000000000944 ) ;
#420 = DIRECTION ( 'NONE',  ( 0.000000000000000000, 0.000000000000000000, 1.000000000000000000 ) ) ;
#421 = EDGE_LOOP ( 'NONE', ( #255, #499, #338, #284 ) ) ;
#422 = DIRECTION ( 'NONE',  ( 1.000000000000000000, 0.000000000000000000, 0.000000000000000000 ) ) ;
#423 = DIRECTION ( 'NONE',  ( 0.000000000000000000, 0.000000000000000000, -1.000000000000000000 ) ) ;
#424 = VERTEX_POINT ( 'NONE', #374 ) ;
#425 = AXIS2_PLACEMENT_3D ( 'NONE', #203, #422, #325 ) ;
#426 = CC_DESIGN_PERSON_AND_ORGANIZATION_ASSIGNMENT ( #434, #514, ( #469 ) ) ;
#427 = DIRECTION ( 'NONE',  ( 0.000000000000000000, 1.000000000000000000, 0.000000000000000000 ) ) ;
#428 = APPROVAL_STATUS ( 'not_yet_approved' ) ;
#429 =( GEOMETRIC_REPRESENTATION_CONTEXT ( 3 ) GLOBAL_UNCERTAINTY_ASSIGNED_CONTEXT ( ( #138 ) ) GLOBAL_UNIT_ASSIGNED_CONTEXT ( ( #268, #146, #23 ) ) REPRESENTATION_CONTEXT ( 'NONE', 'WORKASPACE' ) );
#430 = ORIENTED_EDGE ( 'NONE', *, *, #243, .F. ) ;
#431 = CARTESIAN_POINT ( 'NONE',  ( 10.00000000000000178, 1.000000000000000000, -1.499999999999999778 ) ) ;
#432 = ORIENTED_EDGE ( 'NONE', *, *, #321, .T. ) ;
#433 = DIRECTION ( 'NONE',  ( -0.000000000000000000, -0.000000000000000000, 1.000000000000000000 ) ) ;
#434 = PERSON_AND_ORGANIZATION ( #487, #35 ) ;
#435 = ORIENTED_EDGE ( 'NONE', *, *, #298, .T. ) ;
#436 = VECTOR ( 'NONE', #81, 1000.000000000000000 ) ;
#437 = DIRECTION ( 'NONE',  ( 1.084202172485501673E-15, -0.000000000000000000, 1.000000000000000000 ) ) ;
#438 = DATE_TIME_ROLE ( 'classification_date' ) ;
#439 = EDGE_CURVE ( 'NONE', #101, #473, #441, .T. ) ;
#440 = ORIENTED_EDGE ( 'NONE', *, *, #208, .F. ) ;
#441 = CIRCLE ( 'NONE', #200, 0.2000000000000000944 ) ;
#442 = CARTESIAN_POINT ( 'NONE',  ( -9.799999999999997158, 0.8000000000000000444, 0.000000000000000000 ) ) ;
#443 = DATE_AND_TIME ( #472, #285 ) ;
#444 = LINE ( 'NONE', #528, #150 ) ;
#445 = CARTESIAN_POINT ( 'NONE',  ( 10.00000000000000178, 0.8000000000000000444, -1.499999999999999778 ) ) ;
#446 = ORIENTED_EDGE ( 'NONE', *, *, #384, .T. ) ;
#447 = EDGE_CURVE ( 'NONE', #245, #402, #335, .T. ) ;
#448 = VERTEX_POINT ( 'NONE', #291 ) ;
#449 = ADVANCED_FACE ( 'NONE', ( #536 ), #459, .T. ) ;
#450 = CARTESIAN_POINT ( 'NONE',  ( 9.799999999999998934, 1.000000000000000000, -1.499999999999999778 ) ) ;
#451 = CYLINDRICAL_SURFACE ( 'NONE', #13, 0.2000000000000000944 ) ;
#452 = AXIS2_PLACEMENT_3D ( 'NONE', #43, #52, #41 ) ;
#453 = DIRECTION ( 'NONE',  ( 0.000000000000000000, 0.000000000000000000, -1.000000000000000000 ) ) ;
#454 = CARTESIAN_POINT ( 'NONE',  ( 9.800000000000002487, 1.000000000000000000, 1.300000000000000266 ) ) ;
#455 = DIRECTION ( 'NONE',  ( 0.000000000000000000, 1.000000000000000000, 0.000000000000000000 ) ) ;
#456 = CYLINDRICAL_SURFACE ( 'NONE', #529, 0.2000000000000005107 ) ;
#457 = AXIS2_PLACEMENT_3D ( 'NONE', #44, #209, #1 ) ;
#458 = SPHERICAL_SURFACE ( 'NONE', #129, 0.2000000000000000111 ) ;
#459 = SPHERICAL_SURFACE ( 'NONE', #316, 0.2000000000000000111 ) ;
#460 = VERTEX_POINT ( 'NONE', #82 ) ;
#461 = DIRECTION ( 'NONE',  ( 0.000000000000000000, 0.000000000000000000, 1.000000000000000000 ) ) ;
#462 = CARTESIAN_POINT ( 'NONE',  ( -9.799999999999997158, 0.8000000000000000444, -1.499999999999999778 ) ) ;
#463 = CC_DESIGN_PERSON_AND_ORGANIZATION_ASSIGNMENT ( #20, #231, ( #312 ) ) ;
#464 = ORIENTED_EDGE ( 'NONE', *, *, #161, .T. ) ;
#465 = FACE_OUTER_BOUND ( 'NONE', #390, .T. ) ;
#466 = VERTEX_POINT ( 'NONE', #5 ) ;
#467 = CARTESIAN_POINT ( 'NONE',  ( 0.000000000000000000, 1.000000000000000000, 0.000000000000000000 ) ) ;
#468 = DIRECTION ( 'NONE',  ( 1.000000000000000000, 0.000000000000000000, 0.000000000000000000 ) ) ;
#469 = PRODUCT_DEFINITION_FORMATION_WITH_SPECIFIED_SOURCE ( 'ANY', '', #415, .NOT_KNOWN. ) ;
#470 = ORIENTED_EDGE ( 'NONE', *, *, #89, .F. ) ;
#471 = CARTESIAN_POINT ( 'NONE',  ( -9.999999999999998224, 0.000000000000000000, 1.500000000000000222 ) ) ;
#472 = CALENDAR_DATE ( 2026, 22, 3 ) ;
#473 = VERTEX_POINT ( 'NONE', #462 ) ;
#474 = PLANE ( 'NONE',  #532 ) ;
#475 = CALENDAR_DATE ( 2026, 22, 3 ) ;
#476 = CARTESIAN_POINT ( 'NONE',  ( -9.799999999999997158, 0.8000000000000000444, 1.300000000000000266 ) ) ;
#477 = FACE_OUTER_BOUND ( 'NONE', #94, .T. ) ;
#478 = DIRECTION ( 'NONE',  ( 1.000000000000000000, -8.673617379884037050E-15, 0.000000000000000000 ) ) ;
#479 = VECTOR ( 'NONE', #215, 1000.000000000000000 ) ;
#480 = AXIS2_PLACEMENT_3D ( 'NONE', #264, #351, #340 ) ;
#481 = AXIS2_PLACEMENT_3D ( 'NONE', #11, #178, #423 ) ;
#482 = LINE ( 'NONE', #445, #241 ) ;
#483 = DATE_AND_TIME ( #239, #46 ) ;
#484 = ORIENTED_EDGE ( 'NONE', *, *, #485, .T. ) ;
#485 = EDGE_CURVE ( 'NONE', #460, #56, #382, .T. ) ;
#486 = ADVANCED_FACE ( 'NONE', ( #370 ), #212, .T. ) ;
#487 = PERSON ( 'UNSPECIFIED', 'UNSPECIFIED', 'UNSPECIFIED', ('UNSPECIFIED'), ('UNSPECIFIED'), ('UNSPECIFIED') ) ;
#488 = VERTEX_POINT ( 'NONE', #454 ) ;
#489 = ADVANCED_FACE ( 'NONE', ( #251 ), #456, .T. ) ;
#490 = ORIENTED_EDGE ( 'NONE', *, *, #363, .F. ) ;
#491 = AXIS2_PLACEMENT_3D ( 'NONE', #511, #140, #468 ) ;
#492 = CARTESIAN_POINT ( 'NONE',  ( 9.800000000000002487, 0.8000000000000000444, 1.300000000000000266 ) ) ;
#493 = ADVANCED_FACE ( 'NONE', ( #503 ), #257, .F. ) ;
#494 = CARTESIAN_POINT ( 'NONE',  ( -9.999999999999998224, 0.8000000000000000444, -1.299999999999999822 ) ) ;
#495 = DIRECTION ( 'NONE',  ( 0.000000000000000000, 0.000000000000000000, 1.000000000000000000 ) ) ;
#496 = LINE ( 'NONE', #256, #173 ) ;
#497 = DIRECTION ( 'NONE',  ( 0.000000000000000000, 1.000000000000000000, 0.000000000000000000 ) ) ;
#498 = CIRCLE ( 'NONE', #6, 0.1999999999999999833 ) ;
#499 = ORIENTED_EDGE ( 'NONE', *, *, #411, .T. ) ;
#500 = CIRCLE ( 'NONE', #246, 0.2000000000000000944 ) ;
#501 = CARTESIAN_POINT ( 'NONE',  ( -9.799999999999997158, 1.000000000000000000, -1.499999999999999778 ) ) ;
#502 = CC_DESIGN_PERSON_AND_ORGANIZATION_ASSIGNMENT ( #31, #227, ( #415 ) ) ;
#503 = FACE_OUTER_BOUND ( 'NONE', #523, .T. ) ;
#504 = AXIS2_PLACEMENT_3D ( 'NONE', #123, #507, #420 ) ;
#505 = ORIENTED_EDGE ( 'NONE', *, *, #208, .T. ) ;
#506 = DIRECTION ( 'NONE',  ( 0.000000000000000000, -1.000000000000000000, 0.000000000000000000 ) ) ;
#507 = DIRECTION ( 'NONE',  ( -0.000000000000000000, 1.000000000000000000, 0.000000000000000000 ) ) ;
#508 = ADVANCED_FACE ( 'NONE', ( #216 ), #248, .F. ) ;
#509 = ORIENTED_EDGE ( 'NONE', *, *, #109, .F. ) ;
#510 = PLANE ( 'NONE',  #381 ) ;
#511 = CARTESIAN_POINT ( 'NONE',  ( 0.000000000000000000, 0.000000000000000000, 0.000000000000000000 ) ) ;
#512 = ORIENTED_EDGE ( 'NONE', *, *, #289, .F. ) ;
#513 = CARTESIAN_POINT ( 'NONE',  ( -9.999999999999998224, 0.8000000000000000444, 1.500000000000000222 ) ) ;
#514 = PERSON_AND_ORGANIZATION_ROLE ( 'creator' ) ;
#515 = ORIENTED_EDGE ( 'NONE', *, *, #447, .F. ) ;
#516 = DIRECTION ( 'NONE',  ( 5.782411586589356653E-16, 0.000000000000000000, 1.000000000000000000 ) ) ;
#517 = CIRCLE ( 'NONE', #26, 0.2000000000000005107 ) ;
#518 = APPROVAL ( #66, 'UNSPECIFIED' ) ;
#519 = CC_DESIGN_SECURITY_CLASSIFICATION ( #372, ( #469 ) ) ;
#520 = PERSON_AND_ORGANIZATION_ROLE ( 'design_supplier' ) ;
#521 = VERTEX_POINT ( 'NONE', #341 ) ;
#522 = CARTESIAN_POINT ( 'NONE',  ( -9.999999999999998224, 0.8000000000000000444, 1.300000000000000266 ) ) ;
#523 = EDGE_LOOP ( 'NONE', ( #159, #110, #446, #63 ) ) ;
#524 = CIRCLE ( 'NONE', #287, 0.2000000000000005107 ) ;
#525 = CARTESIAN_POINT ( 'NONE',  ( -9.799999999999997158, 0.000000000000000000, 1.500000000000000222 ) ) ;
#526 = CALENDAR_DATE ( 2026, 22, 3 ) ;
#527 = APPROVAL ( #395, 'UNSPECIFIED' ) ;
#528 = CARTESIAN_POINT ( 'NONE',  ( 9.800000000000000711, 1.000000000000000000, -1.499999999999999556 ) ) ;
#529 = AXIS2_PLACEMENT_3D ( 'NONE', #416, #332, #93 ) ;
#530 = LINE ( 'NONE', #418, #111 ) ;
#531 = ORIENTED_EDGE ( 'NONE', *, *, #214, .T. ) ;
#532 = AXIS2_PLACEMENT_3D ( 'NONE', #467, #427, #186 ) ;
#533 = EDGE_CURVE ( 'NONE', #90, #460, #187, .T. ) ;
#534 = LINE ( 'NONE', #450, #436 ) ;
#535 = DIRECTION ( 'NONE',  ( -1.000000000000000000, 0.000000000000000000, -0.000000000000000000 ) ) ;
#536 = FACE_OUTER_BOUND ( 'NONE', #202, .T. ) ;
#537 = EDGE_LOOP ( 'NONE', ( #387, #168, #185 ) ) ;
#538 = CC_DESIGN_APPROVAL ( #527, ( #469 ) ) ;
#539 = DIRECTION ( 'NONE',  ( 0.000000000000000000, -1.000000000000000000, 0.000000000000000000 ) ) ;
#540 = CARTESIAN_POINT ( 'NONE',  ( -9.999999999999998224, 1.000000000000000000, -1.499999999999999778 ) ) ;
#541 = CC_DESIGN_APPROVAL ( #518, ( #372 ) ) ;
ENDSEC;
END-ISO-10303-21;
