ISO-10303-21;
HEADER;
FILE_DESCRIPTION (( 'STEP AP203' ),
    '1' );
FILE_NAME ('BAR3X20T2.step',
    '2026-03-22T06:57:42',
    ( '' ),
    ( '' ),
    'SwSTEP 2.0',
    'SolidWorks 2025',
    '' );
FILE_SCHEMA (( 'CONFIG_CONTROL_DESIGN' ));
ENDSEC;

DATA;
#1 = EDGE_CURVE ( 'NONE', #511, #426, #109, .T. ) ;
#2 = CARTESIAN_POINT ( 'NONE',  ( -9.800000000000002487, 0.000000000000000000, 1.499999999999999778 ) ) ;
#3 = EDGE_LOOP ( 'NONE', ( #458, #134, #461 ) ) ;
#4 = DIRECTION ( 'NONE',  ( 0.000000000000000000, 0.000000000000000000, -1.000000000000000000 ) ) ;
#5 = EDGE_LOOP ( 'NONE', ( #419, #255, #251, #296 ) ) ;
#6 = DIRECTION ( 'NONE',  ( 0.000000000000000000, 1.000000000000000000, 0.000000000000000000 ) ) ;
#7 = DIRECTION ( 'NONE',  ( -1.000000000000000000, 0.000000000000000000, 8.673617379884013384E-15 ) ) ;
#8 = EDGE_LOOP ( 'NONE', ( #88, #295, #348, #22 ) ) ;
#9 = ORIENTED_EDGE ( 'NONE', *, *, #53, .F. ) ;
#10 = LINE ( 'NONE', #413, #129 ) ;
#11 = EDGE_CURVE ( 'NONE', #308, #314, #124, .T. ) ;
#12 = PERSON_AND_ORGANIZATION_ROLE ( 'design_owner' ) ;
#13 = CARTESIAN_POINT ( 'NONE',  ( 9.799999999999993605, 1.800000000000000044, -1.500000000000000222 ) ) ;
#14 = EDGE_CURVE ( 'NONE', #203, #415, #352, .T. ) ;
#15 = DIRECTION ( 'NONE',  ( 1.000000000000000000, 0.000000000000000000, 0.000000000000000000 ) ) ;
#16 = CC_DESIGN_PERSON_AND_ORGANIZATION_ASSIGNMENT ( #237, #72, ( #321 ) ) ;
#17 = DIRECTION ( 'NONE',  ( 0.000000000000000000, 0.000000000000000000, 1.000000000000000000 ) ) ;
#18 = AXIS2_PLACEMENT_3D ( 'NONE', #198, #280, #455 ) ;
#19 = ORGANIZATION ( 'UNSPECIFIED', 'UNSPECIFIED', '' ) ;
#20 = DIRECTION ( 'NONE',  ( -0.000000000000000000, 1.000000000000000000, -0.000000000000000000 ) ) ;
#21 = DIRECTION ( 'NONE',  ( 0.000000000000000000, 1.000000000000000000, 0.000000000000000000 ) ) ;
#22 = ORIENTED_EDGE ( 'NONE', *, *, #107, .T. ) ;
#23 = DIRECTION ( 'NONE',  ( 0.000000000000000000, 1.000000000000000000, 0.000000000000000000 ) ) ;
#24 = DATE_AND_TIME ( #226, #290 ) ;
#25 = ORIENTED_EDGE ( 'NONE', *, *, #220, .F. ) ;
#26 = CARTESIAN_POINT ( 'NONE',  ( -9.800000000000002487, 1.800000000000000044, 1.299999999999999822 ) ) ;
#27 = CIRCLE ( 'NONE', #104, 0.2000000000000000944 ) ;
#28 = CARTESIAN_POINT ( 'NONE',  ( -9.800000000000002487, 1.800000000000000044, -1.300000000000000266 ) ) ;
#29 = CARTESIAN_POINT ( 'NONE',  ( 9.999999999999996447, 2.000000000000000000, -1.300000000000000266 ) ) ;
#30 = CARTESIAN_POINT ( 'NONE',  ( -9.800000000000002487, 0.000000000000000000, -1.500000000000000222 ) ) ;
#31 = DIRECTION ( 'NONE',  ( 0.000000000000000000, -1.000000000000000000, 0.000000000000000000 ) ) ;
#32 = VECTOR ( 'NONE', #58, 1000.000000000000000 ) ;
#33 = EDGE_CURVE ( 'NONE', #40, #421, #496, .T. ) ;
#34 = VECTOR ( 'NONE', #20, 1000.000000000000000 ) ;
#35 = DIRECTION ( 'NONE',  ( -1.000000000000000000, 0.000000000000000000, 0.000000000000000000 ) ) ;
#36 = CYLINDRICAL_SURFACE ( 'NONE', #74, 0.2000000000000000944 ) ;
#37 = PRODUCT_RELATED_PRODUCT_CATEGORY ( 'detail', '', ( #464 ) ) ;
#38 = PRODUCT_DEFINITION ( 'UNKNOWN', '', #41, #54 ) ;
#39 = DIRECTION ( 'NONE',  ( -1.000000000000000000, 0.000000000000000000, 0.000000000000000000 ) ) ;
#40 = VERTEX_POINT ( 'NONE', #236 ) ;
#41 = PRODUCT_DEFINITION_FORMATION_WITH_SPECIFIED_SOURCE ( 'ANY', '', #464, .NOT_KNOWN. ) ;
#42 = CARTESIAN_POINT ( 'NONE',  ( -10.00000000000000355, 2.000000000000000000, 1.499999999999999778 ) ) ;
#43 = ORIENTED_EDGE ( 'NONE', *, *, #529, .F. ) ;
#44 = DIRECTION ( 'NONE',  ( -1.000000000000000000, -0.000000000000000000, -0.000000000000000000 ) ) ;
#45 = ORIENTED_EDGE ( 'NONE', *, *, #184, .T. ) ;
#46 = LINE ( 'NONE', #92, #195 ) ;
#47 = LINE ( 'NONE', #178, #303 ) ;
#48 = ORIENTED_EDGE ( 'NONE', *, *, #220, .T. ) ;
#49 = DIRECTION ( 'NONE',  ( 0.000000000000000000, 0.000000000000000000, -1.000000000000000000 ) ) ;
#50 = CIRCLE ( 'NONE', #235, 0.2000000000000000944 ) ;
#51 = DIRECTION ( 'NONE',  ( 1.000000000000000000, 0.000000000000000000, 0.000000000000000000 ) ) ;
#52 = SPHERICAL_SURFACE ( 'NONE', #531, 0.2000000000000000111 ) ;
#53 = EDGE_CURVE ( 'NONE', #541, #40, #405, .T. ) ;
#54 = DESIGN_CONTEXT ( 'detailed design', #117, 'design' ) ;
#55 =( NAMED_UNIT ( * ) PLANE_ANGLE_UNIT ( ) SI_UNIT ( $, .RADIAN. ) );
#56 = CC_DESIGN_PERSON_AND_ORGANIZATION_ASSIGNMENT ( #397, #62, ( #38 ) ) ;
#57 = DIRECTION ( 'NONE',  ( 0.000000000000000000, 0.000000000000000000, 1.000000000000000000 ) ) ;
#58 = DIRECTION ( 'NONE',  ( -0.000000000000000000, 1.000000000000000000, -0.000000000000000000 ) ) ;
#59 = DIRECTION ( 'NONE',  ( 1.000000000000000000, 0.000000000000000000, 0.000000000000000000 ) ) ;
#60 = VECTOR ( 'NONE', #438, 1000.000000000000000 ) ;
#61 = CARTESIAN_POINT ( 'NONE',  ( 9.999999999999996447, 0.000000000000000000, -1.500000000000000222 ) ) ;
#62 = PERSON_AND_ORGANIZATION_ROLE ( 'creator' ) ;
#63 = DIRECTION ( 'NONE',  ( 0.000000000000000000, -1.000000000000000000, 0.000000000000000000 ) ) ;
#64 = PERSON_AND_ORGANIZATION_ROLE ( 'design_supplier' ) ;
#65 = CARTESIAN_POINT ( 'NONE',  ( -9.800000000000002487, 1.800000000000000044, 1.499999999999999778 ) ) ;
#66 = AXIS2_PLACEMENT_3D ( 'NONE', #42, #250, #349 ) ;
#67 = CC_DESIGN_APPROVAL ( #347, ( #41 ) ) ;
#68 = EDGE_CURVE ( 'NONE', #426, #207, #247, .T. ) ;
#69 = DIRECTION ( 'NONE',  ( -1.000000000000000000, -0.000000000000000000, -0.000000000000000000 ) ) ;
#70 = COORDINATED_UNIVERSAL_TIME_OFFSET ( 8, 0, .AHEAD. ) ;
#71 = CARTESIAN_POINT ( 'NONE',  ( 9.999999999999996447, 2.000000000000000000, 1.299999999999999822 ) ) ;
#72 = PERSON_AND_ORGANIZATION_ROLE ( 'classification_officer' ) ;
#73 = CARTESIAN_POINT ( 'NONE',  ( 9.799999999999995381, 1.800000000000000044, -1.300000000000000266 ) ) ;
#74 = AXIS2_PLACEMENT_3D ( 'NONE', #156, #277, #368 ) ;
#75 = AXIS2_PLACEMENT_3D ( 'NONE', #432, #59, #336 ) ;
#76 = DIRECTION ( 'NONE',  ( 1.000000000000000000, -0.000000000000000000, 0.000000000000000000 ) ) ;
#77 = EDGE_CURVE ( 'NONE', #127, #299, #414, .T. ) ;
#78 = CARTESIAN_POINT ( 'NONE',  ( -9.800000000000002487, 1.800000000000000044, 0.000000000000000000 ) ) ;
#79 = ORIENTED_EDGE ( 'NONE', *, *, #388, .T. ) ;
#80 = DIRECTION ( 'NONE',  ( 0.000000000000000000, 1.000000000000000000, 0.000000000000000000 ) ) ;
#81 = ORIENTED_EDGE ( 'NONE', *, *, #534, .T. ) ;
#82 = ORIENTED_EDGE ( 'NONE', *, *, #14, .F. ) ;
#83 = AXIS2_PLACEMENT_3D ( 'NONE', #73, #326, #369 ) ;
#84 = ADVANCED_FACE ( 'NONE', ( #122 ), #36, .T. ) ;
#85 = AXIS2_PLACEMENT_3D ( 'NONE', #519, #254, #346 ) ;
#86 = FACE_OUTER_BOUND ( 'NONE', #5, .T. ) ;
#87 = ORIENTED_EDGE ( 'NONE', *, *, #1, .T. ) ;
#88 = ORIENTED_EDGE ( 'NONE', *, *, #98, .T. ) ;
#89 = CARTESIAN_POINT ( 'NONE',  ( -9.800000000000002487, 2.000000000000000000, 1.299999999999999822 ) ) ;
#90 = ADVANCED_FACE ( 'NONE', ( #115 ), #409, .T. ) ;
#91 = EDGE_LOOP ( 'NONE', ( #79, #45, #302 ) ) ;
#92 = CARTESIAN_POINT ( 'NONE',  ( -10.00000000000000355, 0.000000000000000000, -1.500000000000000222 ) ) ;
#93 = ORIENTED_EDGE ( 'NONE', *, *, #33, .F. ) ;
#94 = CARTESIAN_POINT ( 'NONE',  ( 9.799999999999993605, 0.000000000000000000, -1.500000000000000222 ) ) ;
#95 = CC_DESIGN_PERSON_AND_ORGANIZATION_ASSIGNMENT ( #234, #64, ( #41 ) ) ;
#96 = AXIS2_PLACEMENT_3D ( 'NONE', #491, #242, #35 ) ;
#97 = LOCAL_TIME ( 14, 57, 42.00000000000000000, #446 ) ;
#98 = EDGE_CURVE ( 'NONE', #127, #211, #328, .T. ) ;
#99 = APPROVAL_STATUS ( 'not_yet_approved' ) ;
#100 = LINE ( 'NONE', #142, #189 ) ;
#101 = DATE_AND_TIME ( #516, #196 ) ;
#102 = CARTESIAN_POINT ( 'NONE',  ( 0.000000000000000000, 0.000000000000000000, 0.000000000000000000 ) ) ;
#103 = CARTESIAN_POINT ( 'NONE',  ( 9.799999999999995381, 1.800000000000000044, 0.000000000000000000 ) ) ;
#104 = AXIS2_PLACEMENT_3D ( 'NONE', #218, #387, #395 ) ;
#105 = DIRECTION ( 'NONE',  ( 0.000000000000000000, 0.000000000000000000, 1.000000000000000000 ) ) ;
#106 = ORIENTED_EDGE ( 'NONE', *, *, #400, .F. ) ;
#107 = EDGE_CURVE ( 'NONE', #207, #127, #201, .T. ) ;
#108 = LINE ( 'NONE', #518, #34 ) ;
#109 = LINE ( 'NONE', #29, #32 ) ;
#110 = APPROVAL_DATE_TIME ( #522, #281 ) ;
#111 = CC_DESIGN_DATE_AND_TIME_ASSIGNMENT ( #24, #363, ( #38 ) ) ;
#112 = APPROVAL_DATE_TIME ( #318, #347 ) ;
#113 = AXIS2_PLACEMENT_3D ( 'NONE', #451, #39, #540 ) ;
#114 = AXIS2_PLACEMENT_3D ( 'NONE', #310, #105, #152 ) ;
#115 = FACE_OUTER_BOUND ( 'NONE', #499, .T. ) ;
#116 = APPROVAL_ROLE ( '' ) ;
#117 = APPLICATION_CONTEXT ( 'configuration controlled 3d designs of mechanical parts and assemblies' ) ;
#118 = DIRECTION ( 'NONE',  ( 1.000000000000000000, -8.673617379884032317E-15, 0.000000000000000000 ) ) ;
#119 = DIRECTION ( 'NONE',  ( -0.000000000000000000, 0.000000000000000000, 1.000000000000000000 ) ) ;
#120 = VECTOR ( 'NONE', #119, 1000.000000000000000 ) ;
#121 = AXIS2_PLACEMENT_3D ( 'NONE', #103, #147, #191 ) ;
#122 = FACE_OUTER_BOUND ( 'NONE', #175, .T. ) ;
#123 = ORIENTED_EDGE ( 'NONE', *, *, #482, .T. ) ;
#124 = LINE ( 'NONE', #410, #490 ) ;
#125 = ORIENTED_EDGE ( 'NONE', *, *, #524, .F. ) ;
#126 = DIRECTION ( 'NONE',  ( 0.000000000000000000, -0.000000000000000000, -1.000000000000000000 ) ) ;
#127 = VERTEX_POINT ( 'NONE', #370 ) ;
#128 = EDGE_LOOP ( 'NONE', ( #434, #339, #141, #228, #25, #260, #216, #266 ) ) ;
#129 = VECTOR ( 'NONE', #507, 1000.000000000000000 ) ;
#130 = AXIS2_PLACEMENT_3D ( 'NONE', #272, #270, #17 ) ;
#131 = CARTESIAN_POINT ( 'NONE',  ( -9.800000000000002487, 1.800000000000000044, -1.300000000000000266 ) ) ;
#132 = EDGE_CURVE ( 'NONE', #211, #514, #324, .T. ) ;
#133 = LINE ( 'NONE', #294, #213 ) ;
#134 = ORIENTED_EDGE ( 'NONE', *, *, #502, .T. ) ;
#135 = CARTESIAN_POINT ( 'NONE',  ( 9.799999999999995381, 1.800000000000000044, 1.299999999999999822 ) ) ;
#136 = ORIENTED_EDGE ( 'NONE', *, *, #350, .T. ) ;
#137 = ORIENTED_EDGE ( 'NONE', *, *, #224, .T. ) ;
#138 = CARTESIAN_POINT ( 'NONE',  ( -9.800000000000002487, 1.800000000000000044, -1.500000000000000222 ) ) ;
#139 = ADVANCED_FACE ( 'NONE', ( #535 ), #238, .T. ) ;
#140 = DIRECTION ( 'NONE',  ( -0.000000000000000000, 1.000000000000000000, -0.000000000000000000 ) ) ;
#141 = ORIENTED_EDGE ( 'NONE', *, *, #224, .F. ) ;
#142 = CARTESIAN_POINT ( 'NONE',  ( -10.00000000000000355, 2.000000000000000000, -1.300000000000000266 ) ) ;
#143 = AXIS2_PLACEMENT_3D ( 'NONE', #501, #160, #450 ) ;
#144 = APPROVAL_PERSON_ORGANIZATION ( #528, #347, #311 ) ;
#145 = CYLINDRICAL_SURFACE ( 'NONE', #169, 0.2000000000000000944 ) ;
#146 = CARTESIAN_POINT ( 'NONE',  ( 9.799999999999993605, 0.000000000000000000, 1.499999999999999778 ) ) ;
#147 = DIRECTION ( 'NONE',  ( 0.000000000000000000, -0.000000000000000000, 1.000000000000000000 ) ) ;
#148 = CARTESIAN_POINT ( 'NONE',  ( 9.999999999999996447, 0.000000000000000000, 1.299999999999999822 ) ) ;
#149 = ORIENTED_EDGE ( 'NONE', *, *, #482, .F. ) ;
#150 = VECTOR ( 'NONE', #161, 1000.000000000000000 ) ;
#151 = LOCAL_TIME ( 14, 57, 42.00000000000000000, #229 ) ;
#152 = DIRECTION ( 'NONE',  ( 1.000000000000000000, 0.000000000000000000, -0.000000000000000000 ) ) ;
#153 = VERTEX_POINT ( 'NONE', #30 ) ;
#154 = ADVANCED_FACE ( 'NONE', ( #192 ), #406, .T. ) ;
#155 = PERSON_AND_ORGANIZATION_ROLE ( 'creator' ) ;
#156 = CARTESIAN_POINT ( 'NONE',  ( 0.000000000000000000, 1.800000000000000044, -1.300000000000000266 ) ) ;
#157 = CIRCLE ( 'NONE', #337, 0.2000000000000005107 ) ;
#158 = VECTOR ( 'NONE', #445, 1000.000000000000000 ) ;
#159 = DIRECTION ( 'NONE',  ( 1.000000000000000000, 0.000000000000000000, 0.000000000000000000 ) ) ;
#160 = DIRECTION ( 'NONE',  ( -0.000000000000000000, -1.000000000000000000, -0.000000000000000000 ) ) ;
#161 = DIRECTION ( 'NONE',  ( 0.000000000000000000, -1.000000000000000000, 0.000000000000000000 ) ) ;
#162 = AXIS2_PLACEMENT_3D ( 'NONE', #246, #374, #515 ) ;
#163 = DIRECTION ( 'NONE',  ( -1.000000000000000000, 0.000000000000000000, 0.000000000000000000 ) ) ;
#164 = ORIENTED_EDGE ( 'NONE', *, *, #107, .F. ) ;
#165 = DIRECTION ( 'NONE',  ( -1.000000000000000000, 0.000000000000000000, 0.000000000000000000 ) ) ;
#166 = DIRECTION ( 'NONE',  ( 0.000000000000000000, 0.000000000000000000, 1.000000000000000000 ) ) ;
#167 = ORIENTED_EDGE ( 'NONE', *, *, #11, .T. ) ;
#168 = CIRCLE ( 'NONE', #483, 0.2000000000000000944 ) ;
#169 = AXIS2_PLACEMENT_3D ( 'NONE', #520, #63, #392 ) ;
#170 = CARTESIAN_POINT ( 'NONE',  ( 9.999999999999996447, 0.000000000000000000, -1.300000000000000266 ) ) ;
#171 = EDGE_CURVE ( 'NONE', #211, #378, #157, .T. ) ;
#172 = ORIENTED_EDGE ( 'NONE', *, *, #404, .T. ) ;
#173 = LINE ( 'NONE', #335, #366 ) ;
#174 = APPLICATION_PROTOCOL_DEFINITION ( 'international standard', 'config_control_design', 1994, #117 ) ;
#175 = EDGE_LOOP ( 'NONE', ( #205, #125, #298, #164 ) ) ;
#176 = LINE ( 'NONE', #504, #448 ) ;
#177 = UNCERTAINTY_MEASURE_WITH_UNIT (LENGTH_MEASURE( 1.000000000000000082E-05 ), #210, 'distance_accuracy_value', 'NONE');
#178 = CARTESIAN_POINT ( 'NONE',  ( -10.00000000000000355, 2.000000000000000000, 1.299999999999999822 ) ) ;
#179 = CIRCLE ( 'NONE', #261, 0.2000000000000005107 ) ;
#180 = MECHANICAL_CONTEXT ( 'NONE', #273, 'mechanical' ) ;
#181 = CARTESIAN_POINT ( 'NONE',  ( -10.00000000000000355, 0.000000000000000000, 1.299999999999999822 ) ) ;
#182 = CALENDAR_DATE ( 2026, 22, 3 ) ;
#183 = LINE ( 'NONE', #61, #158 ) ;
#184 = EDGE_CURVE ( 'NONE', #308, #207, #530, .T. ) ;
#185 = DATE_TIME_ROLE ( 'classification_date' ) ;
#186 = DIRECTION ( 'NONE',  ( 1.000000000000000000, -0.000000000000000000, -0.000000000000000000 ) ) ;
#187 = EDGE_LOOP ( 'NONE', ( #342, #468, #383 ) ) ;
#188 = AXIS2_PLACEMENT_3D ( 'NONE', #512, #6, #256 ) ;
#189 = VECTOR ( 'NONE', #305, 1000.000000000000000 ) ;
#190 = EDGE_CURVE ( 'NONE', #208, #471, #453, .T. ) ;
#191 = DIRECTION ( 'NONE',  ( 1.000000000000000000, 0.000000000000000000, 0.000000000000000000 ) ) ;
#192 = FACE_OUTER_BOUND ( 'NONE', #398, .T. ) ;
#193 = DIRECTION ( 'NONE',  ( 0.000000000000000000, 0.000000000000000000, -1.000000000000000000 ) ) ;
#194 = MANIFOLD_SOLID_BREP ( '\X2\570689d2\X0\1', #313 ) ;
#195 = VECTOR ( 'NONE', #44, 1000.000000000000000 ) ;
#196 = LOCAL_TIME ( 14, 57, 42.00000000000000000, #429 ) ;
#197 = CARTESIAN_POINT ( 'NONE',  ( 9.999999999999996447, 2.000000000000000000, 1.299999999999999822 ) ) ;
#198 = CARTESIAN_POINT ( 'NONE',  ( 9.799999999999995381, 2.000000000000000000, 1.299999999999999822 ) ) ;
#199 = ADVANCED_FACE ( 'NONE', ( #533 ), #493, .T. ) ;
#200 = EDGE_CURVE ( 'NONE', #426, #208, #173, .T. ) ;
#201 = LINE ( 'NONE', #456, #289 ) ;
#202 = CIRCLE ( 'NONE', #301, 0.2000000000000000944 ) ;
#203 = VERTEX_POINT ( 'NONE', #2 ) ;
#204 = CARTESIAN_POINT ( 'NONE',  ( 9.799999999999995381, 0.000000000000000000, 1.299999999999999822 ) ) ;
#205 = ORIENTED_EDGE ( 'NONE', *, *, #184, .F. ) ;
#206 = DIRECTION ( 'NONE',  ( -0.000000000000000000, -1.000000000000000000, -0.000000000000000000 ) ) ;
#207 = VERTEX_POINT ( 'NONE', #344 ) ;
#208 = VERTEX_POINT ( 'NONE', #217 ) ;
#209 = CARTESIAN_POINT ( 'NONE',  ( -10.00000000000000355, 1.800000000000000044, -1.300000000000000266 ) ) ;
#210 =( LENGTH_UNIT ( ) NAMED_UNIT ( * ) SI_UNIT ( .MILLI., .METRE. ) );
#211 = VERTEX_POINT ( 'NONE', #89 ) ;
#212 = VECTOR ( 'NONE', #126, 1000.000000000000000 ) ;
#213 = VECTOR ( 'NONE', #474, 1000.000000000000000 ) ;
#214 = FACE_OUTER_BOUND ( 'NONE', #508, .T. ) ;
#215 = DIRECTION ( 'NONE',  ( 0.000000000000000000, 0.000000000000000000, 1.000000000000000000 ) ) ;
#216 = ORIENTED_EDGE ( 'NONE', *, *, #404, .F. ) ;
#217 = CARTESIAN_POINT ( 'NONE',  ( 9.999999999999996447, 1.800000000000000044, 1.299999999999999822 ) ) ;
#218 = CARTESIAN_POINT ( 'NONE',  ( 9.799999999999993605, 0.000000000000000000, -1.300000000000000266 ) ) ;
#219 = FACE_OUTER_BOUND ( 'NONE', #338, .T. ) ;
#220 = EDGE_CURVE ( 'NONE', #314, #153, #46, .T. ) ;
#221 = DIRECTION ( 'NONE',  ( 0.000000000000000000, 0.000000000000000000, -1.000000000000000000 ) ) ;
#222 = AXIS2_PLACEMENT_3D ( 'NONE', #360, #23, #356 ) ;
#223 = CARTESIAN_POINT ( 'NONE',  ( 9.799999999999995381, 1.800000000000000044, 1.299999999999999822 ) ) ;
#224 = EDGE_CURVE ( 'NONE', #442, #415, #10, .T. ) ;
#225 = DIRECTION ( 'NONE',  ( 0.000000000000000000, 1.000000000000000000, 0.000000000000000000 ) ) ;
#226 = CALENDAR_DATE ( 2026, 22, 3 ) ;
#227 = FACE_OUTER_BOUND ( 'NONE', #187, .T. ) ;
#228 = ORIENTED_EDGE ( 'NONE', *, *, #332, .T. ) ;
#229 = COORDINATED_UNIVERSAL_TIME_OFFSET ( 8, 0, .AHEAD. ) ;
#230 = ADVANCED_FACE ( 'NONE', ( #459 ), #470, .T. ) ;
#231 = CYLINDRICAL_SURFACE ( 'NONE', #121, 0.2000000000000005107 ) ;
#232 = ORIENTED_EDGE ( 'NONE', *, *, #386, .T. ) ;
#233 = AXIS2_PLACEMENT_3D ( 'NONE', #492, #118, #278 ) ;
#234 = PERSON_AND_ORGANIZATION ( #361, #19 ) ;
#235 = AXIS2_PLACEMENT_3D ( 'NONE', #26, #186, #396 ) ;
#236 = CARTESIAN_POINT ( 'NONE',  ( 9.799999999999995381, 1.800000000000000044, 1.499999999999999778 ) ) ;
#237 = PERSON_AND_ORGANIZATION ( #361, #19 ) ;
#238 = CYLINDRICAL_SURFACE ( 'NONE', #319, 0.2000000000000005107 ) ;
#239 = APPROVAL_STATUS ( 'not_yet_approved' ) ;
#240 = CARTESIAN_POINT ( 'NONE',  ( 9.799999999999993605, 2.000000000000000000, 1.499999999999999778 ) ) ;
#241 = ADVANCED_FACE ( 'NONE', ( #214 ), #253, .T. ) ;
#242 = DIRECTION ( 'NONE',  ( -0.000000000000000000, -0.000000000000000000, 1.000000000000000000 ) ) ;
#243 = DIRECTION ( 'NONE',  ( 0.000000000000000000, -1.000000000000000000, 0.000000000000000000 ) ) ;
#244 = EDGE_CURVE ( 'NONE', #40, #514, #408, .T. ) ;
#245 = ORIENTED_EDGE ( 'NONE', *, *, #444, .F. ) ;
#246 = CARTESIAN_POINT ( 'NONE',  ( -9.800000000000002487, 2.000000000000000000, 1.299999999999999822 ) ) ;
#247 = CIRCLE ( 'NONE', #83, 0.2000000000000005107 ) ;
#248 = AXIS2_PLACEMENT_3D ( 'NONE', #258, #424, #51 ) ;
#249 = ORIENTED_EDGE ( 'NONE', *, *, #77, .T. ) ;
#250 = DIRECTION ( 'NONE',  ( 0.000000000000000000, 0.000000000000000000, -1.000000000000000000 ) ) ;
#251 = ORIENTED_EDGE ( 'NONE', *, *, #306, .T. ) ;
#252 = ORIENTED_EDGE ( 'NONE', *, *, #190, .T. ) ;
#253 = CYLINDRICAL_SURFACE ( 'NONE', #162, 0.2000000000000000944 ) ;
#254 = DIRECTION ( 'NONE',  ( -1.000000000000000000, 0.000000000000000000, 0.000000000000000000 ) ) ;
#255 = ORIENTED_EDGE ( 'NONE', *, *, #444, .T. ) ;
#256 = DIRECTION ( 'NONE',  ( 0.000000000000000000, -0.000000000000000000, 1.000000000000000000 ) ) ;
#257 = ADVANCED_BREP_SHAPE_REPRESENTATION ( 'BAR3X20T2', ( #194, #248 ), #523 ) ;
#258 = CARTESIAN_POINT ( 'NONE',  ( 0.000000000000000000, 0.000000000000000000, 0.000000000000000000 ) ) ;
#259 = EDGE_LOOP ( 'NONE', ( #486, #136, #106 ) ) ;
#260 = ORIENTED_EDGE ( 'NONE', *, *, #529, .T. ) ;
#261 = AXIS2_PLACEMENT_3D ( 'NONE', #223, #215, #15 ) ;
#262 = APPROVAL_ROLE ( '' ) ;
#263 = FACE_OUTER_BOUND ( 'NONE', #384, .T. ) ;
#264 = APPROVAL_DATE_TIME ( #101, #488 ) ;
#265 = DIRECTION ( 'NONE',  ( 0.000000000000000000, -0.000000000000000000, 1.000000000000000000 ) ) ;
#266 = ORIENTED_EDGE ( 'NONE', *, *, #279, .T. ) ;
#267 = PLANE ( 'NONE',  #85 ) ;
#268 = LINE ( 'NONE', #399, #60 ) ;
#269 = CALENDAR_DATE ( 2026, 22, 3 ) ;
#270 = DIRECTION ( 'NONE',  ( -0.000000000000000000, 1.000000000000000000, 0.000000000000000000 ) ) ;
#271 = ORIENTED_EDGE ( 'NONE', *, *, #350, .F. ) ;
#272 = CARTESIAN_POINT ( 'NONE',  ( 9.799999999999995381, 1.800000000000000044, -1.300000000000000266 ) ) ;
#273 = APPLICATION_CONTEXT ( 'configuration controlled 3d designs of mechanical parts and assemblies' ) ;
#274 = ORIENTED_EDGE ( 'NONE', *, *, #418, .F. ) ;
#275 = AXIS2_PLACEMENT_3D ( 'NONE', #390, #21, #7 ) ;
#276 = EDGE_CURVE ( 'NONE', #127, #317, #475, .T. ) ;
#277 = DIRECTION ( 'NONE',  ( 1.000000000000000000, 0.000000000000000000, 0.000000000000000000 ) ) ;
#278 = DIRECTION ( 'NONE',  ( 8.673617379884030739E-15, 1.000000000000000000, 0.000000000000000000 ) ) ;
#279 = EDGE_CURVE ( 'NONE', #471, #541, #454, .T. ) ;
#280 = DIRECTION ( 'NONE',  ( 0.000000000000000000, -1.000000000000000000, 0.000000000000000000 ) ) ;
#281 = APPROVAL ( #239, 'UNSPECIFIED' ) ;
#282 = CARTESIAN_POINT ( 'NONE',  ( -9.800000000000002487, 2.000000000000000000, 1.499999999999999778 ) ) ;
#283 = EDGE_CURVE ( 'NONE', #317, #299, #168, .T. ) ;
#284 = ORIENTED_EDGE ( 'NONE', *, *, #283, .F. ) ;
#285 = CARTESIAN_POINT ( 'NONE',  ( 9.799999999999995381, 1.800000000000000044, 1.299999999999999822 ) ) ;
#286 = EDGE_LOOP ( 'NONE', ( #48, #232, #469, #167 ) ) ;
#287 = ORIENTED_EDGE ( 'NONE', *, *, #323, .F. ) ;
#288 = DIRECTION ( 'NONE',  ( -1.000000000000000000, -0.000000000000000000, -0.000000000000000000 ) ) ;
#289 = VECTOR ( 'NONE', #322, 1000.000000000000000 ) ;
#290 = LOCAL_TIME ( 14, 57, 42.00000000000000000, #70 ) ;
#291 = ORIENTED_EDGE ( 'NONE', *, *, #132, .F. ) ;
#292 = EDGE_LOOP ( 'NONE', ( #249, #287, #465, #375 ) ) ;
#293 = CARTESIAN_POINT ( 'NONE',  ( -9.800000000000002487, 1.800000000000000044, -1.300000000000000266 ) ) ;
#294 = CARTESIAN_POINT ( 'NONE',  ( 9.999999999999996447, 1.800000000000000044, -1.500000000000000222 ) ) ;
#295 = ORIENTED_EDGE ( 'NONE', *, *, #132, .T. ) ;
#296 = ORIENTED_EDGE ( 'NONE', *, *, #53, .T. ) ;
#297 = DIRECTION ( 'NONE',  ( -0.000000000000000000, 1.000000000000000000, 0.000000000000000000 ) ) ;
#298 = ORIENTED_EDGE ( 'NONE', *, *, #276, .F. ) ;
#299 = VERTEX_POINT ( 'NONE', #209 ) ;
#300 = DIRECTION ( 'NONE',  ( 0.000000000000000000, 0.000000000000000000, 1.000000000000000000 ) ) ;
#301 = AXIS2_PLACEMENT_3D ( 'NONE', #417, #206, #422 ) ;
#302 = ORIENTED_EDGE ( 'NONE', *, *, #68, .F. ) ;
#303 = VECTOR ( 'NONE', #140, 1000.000000000000000 ) ;
#304 = CIRCLE ( 'NONE', #130, 0.2000000000000000944 ) ;
#305 = DIRECTION ( 'NONE',  ( 0.000000000000000000, -1.000000000000000000, 0.000000000000000000 ) ) ;
#306 = EDGE_CURVE ( 'NONE', #203, #541, #176, .T. ) ;
#307 = PLANE ( 'NONE',  #114 ) ;
#308 = VERTEX_POINT ( 'NONE', #13 ) ;
#309 = FACE_OUTER_BOUND ( 'NONE', #91, .T. ) ;
#310 = CARTESIAN_POINT ( 'NONE',  ( -10.00000000000000355, 2.000000000000000000, -1.500000000000000222 ) ) ;
#311 = APPROVAL_ROLE ( '' ) ;
#312 = PLANE ( 'NONE',  #497 ) ;
#313 = CLOSED_SHELL ( 'NONE', ( #538, #380, #494, #325, #230, #479, #440, #84, #154, #447, #498, #241, #139, #433, #199, #345, #341, #90 ) ) ;
#314 = VERTEX_POINT ( 'NONE', #94 ) ;
#315 = DIRECTION ( 'NONE',  ( 0.000000000000000000, 1.000000000000000000, -0.000000000000000000 ) ) ;
#316 = ORIENTED_EDGE ( 'NONE', *, *, #388, .F. ) ;
#317 = VERTEX_POINT ( 'NONE', #138 ) ;
#318 = DATE_AND_TIME ( #269, #353 ) ;
#319 = AXIS2_PLACEMENT_3D ( 'NONE', #78, #365, #163 ) ;
#320 = CARTESIAN_POINT ( 'NONE',  ( -10.00000000000000355, 1.800000000000000044, 1.499999999999999778 ) ) ;
#321 = SECURITY_CLASSIFICATION ( '', '', #439 ) ;
#322 = DIRECTION ( 'NONE',  ( -1.000000000000000000, 0.000000000000000000, 0.000000000000000000 ) ) ;
#323 = EDGE_CURVE ( 'NONE', #378, #299, #331, .T. ) ;
#324 = LINE ( 'NONE', #71, #382 ) ;
#325 = ADVANCED_FACE ( 'NONE', ( #86 ), #340, .F. ) ;
#326 = DIRECTION ( 'NONE',  ( -0.000000000000000000, -0.000000000000000000, 1.000000000000000000 ) ) ;
#327 = AXIS2_PLACEMENT_3D ( 'NONE', #135, #297, #49 ) ;
#328 = LINE ( 'NONE', #282, #120 ) ;
#329 = ORIENTED_EDGE ( 'NONE', *, *, #279, .F. ) ;
#330 = ORIENTED_EDGE ( 'NONE', *, *, #200, .T. ) ;
#331 = LINE ( 'NONE', #381, #212 ) ;
#332 = EDGE_CURVE ( 'NONE', #442, #153, #202, .T. ) ;
#333 = ORIENTED_EDGE ( 'NONE', *, *, #502, .F. ) ;
#334 = EDGE_LOOP ( 'NONE', ( #329, #379, #274, #9 ) ) ;
#335 = CARTESIAN_POINT ( 'NONE',  ( 9.999999999999996447, 1.800000000000000044, 1.499999999999999778 ) ) ;
#336 = DIRECTION ( 'NONE',  ( 0.000000000000000000, 0.000000000000000000, -1.000000000000000000 ) ) ;
#337 = AXIS2_PLACEMENT_3D ( 'NONE', #367, #532, #159 ) ;
#338 = EDGE_LOOP ( 'NONE', ( #505, #149, #284, #416 ) ) ;
#339 = ORIENTED_EDGE ( 'NONE', *, *, #14, .T. ) ;
#340 = PLANE ( 'NONE',  #66 ) ;
#341 = ADVANCED_FACE ( 'NONE', ( #376 ), #509, .T. ) ;
#342 = ORIENTED_EDGE ( 'NONE', *, *, #276, .T. ) ;
#343 = EDGE_LOOP ( 'NONE', ( #462, #403, #333, #412 ) ) ;
#344 = CARTESIAN_POINT ( 'NONE',  ( 9.799999999999995381, 2.000000000000000000, -1.300000000000000266 ) ) ;
#345 = ADVANCED_FACE ( 'NONE', ( #420 ), #52, .T. ) ;
#346 = DIRECTION ( 'NONE',  ( 0.000000000000000000, 0.000000000000000000, 1.000000000000000000 ) ) ;
#347 = APPROVAL ( #452, 'UNSPECIFIED' ) ;
#348 = ORIENTED_EDGE ( 'NONE', *, *, #457, .T. ) ;
#349 = DIRECTION ( 'NONE',  ( -1.000000000000000000, 0.000000000000000000, -0.000000000000000000 ) ) ;
#350 = EDGE_CURVE ( 'NONE', #378, #421, #517, .T. ) ;
#351 = FACE_OUTER_BOUND ( 'NONE', #391, .T. ) ;
#352 = CIRCLE ( 'NONE', #143, 0.2000000000000000944 ) ;
#353 = LOCAL_TIME ( 14, 57, 42.00000000000000000, #526 ) ;
#354 = LINE ( 'NONE', #521, #372 ) ;
#355 = APPLICATION_PROTOCOL_DEFINITION ( 'international standard', 'config_control_design', 1994, #273 ) ;
#356 = DIRECTION ( 'NONE',  ( 0.000000000000000000, 0.000000000000000000, 1.000000000000000000 ) ) ;
#357 = SHAPE_DEFINITION_REPRESENTATION ( #377, #257 ) ;
#358 = DIRECTION ( 'NONE',  ( -1.000000000000000000, 0.000000000000000000, 0.000000000000000000 ) ) ;
#359 = PERSON_AND_ORGANIZATION ( #361, #19 ) ;
#360 = CARTESIAN_POINT ( 'NONE',  ( 9.799999999999995381, 1.800000000000000044, 1.299999999999999822 ) ) ;
#361 = PERSON ( 'UNSPECIFIED', 'UNSPECIFIED', 'UNSPECIFIED', ('UNSPECIFIED'), ('UNSPECIFIED'), ('UNSPECIFIED') ) ;
#362 = CIRCLE ( 'NONE', #222, 0.2000000000000000944 ) ;
#363 = DATE_TIME_ROLE ( 'creation_date' ) ;
#364 = DIRECTION ( 'NONE',  ( 0.000000000000000000, 1.000000000000000000, 0.000000000000000000 ) ) ;
#365 = DIRECTION ( 'NONE',  ( 0.000000000000000000, 0.000000000000000000, -1.000000000000000000 ) ) ;
#366 = VECTOR ( 'NONE', #467, 1000.000000000000000 ) ;
#367 = CARTESIAN_POINT ( 'NONE',  ( -9.800000000000002487, 1.800000000000000044, 1.299999999999999822 ) ) ;
#368 = DIRECTION ( 'NONE',  ( 0.000000000000000000, 0.000000000000000000, -1.000000000000000000 ) ) ;
#369 = DIRECTION ( 'NONE',  ( -1.000000000000000000, 0.000000000000000000, 0.000000000000000000 ) ) ;
#370 = CARTESIAN_POINT ( 'NONE',  ( -9.800000000000002487, 2.000000000000000000, -1.300000000000000266 ) ) ;
#371 = AXIS2_PLACEMENT_3D ( 'NONE', #204, #385, #463 ) ;
#372 = VECTOR ( 'NONE', #221, 1000.000000000000000 ) ;
#373 = ORIENTED_EDGE ( 'NONE', *, *, #323, .T. ) ;
#374 = DIRECTION ( 'NONE',  ( 0.000000000000000000, -1.000000000000000000, 0.000000000000000000 ) ) ;
#375 = ORIENTED_EDGE ( 'NONE', *, *, #98, .F. ) ;
#376 = FACE_OUTER_BOUND ( 'NONE', #3, .T. ) ;
#377 = PRODUCT_DEFINITION_SHAPE ( 'NONE', 'NONE',  #38 ) ;
#378 = VERTEX_POINT ( 'NONE', #394 ) ;
#379 = ORIENTED_EDGE ( 'NONE', *, *, #190, .F. ) ;
#380 = ADVANCED_FACE ( 'NONE', ( #481 ), #307, .F. ) ;
#381 = CARTESIAN_POINT ( 'NONE',  ( -10.00000000000000355, 1.800000000000000044, -1.500000000000000222 ) ) ;
#382 = VECTOR ( 'NONE', #76, 1000.000000000000000 ) ;
#383 = ORIENTED_EDGE ( 'NONE', *, *, #77, .F. ) ;
#384 = EDGE_LOOP ( 'NONE', ( #137, #81, #373, #123 ) ) ;
#385 = DIRECTION ( 'NONE',  ( -0.000000000000000000, -1.000000000000000000, -0.000000000000000000 ) ) ;
#386 = EDGE_CURVE ( 'NONE', #153, #317, #108, .T. ) ;
#387 = DIRECTION ( 'NONE',  ( -0.000000000000000000, -1.000000000000000000, -0.000000000000000000 ) ) ;
#388 = EDGE_CURVE ( 'NONE', #426, #308, #304, .T. ) ;
#389 = CARTESIAN_POINT ( 'NONE',  ( -9.800000000000002487, 1.800000000000000044, 1.299999999999999822 ) ) ;
#390 = CARTESIAN_POINT ( 'NONE',  ( 9.799999999999995381, 1.800000000000000044, -1.300000000000000266 ) ) ;
#391 = EDGE_LOOP ( 'NONE', ( #172, #87, #330, #252 ) ) ;
#392 = DIRECTION ( 'NONE',  ( 0.000000000000000000, 0.000000000000000000, -1.000000000000000000 ) ) ;
#393 = APPROVAL_PERSON_ORGANIZATION ( #359, #281, #116 ) ;
#394 = CARTESIAN_POINT ( 'NONE',  ( -10.00000000000000355, 1.800000000000000044, 1.299999999999999822 ) ) ;
#395 = DIRECTION ( 'NONE',  ( 0.000000000000000000, 0.000000000000000000, 1.000000000000000000 ) ) ;
#396 = DIRECTION ( 'NONE',  ( 0.000000000000000000, 0.000000000000000000, 1.000000000000000000 ) ) ;
#397 = PERSON_AND_ORGANIZATION ( #361, #19 ) ;
#398 = EDGE_LOOP ( 'NONE', ( #43, #466, #316, #503 ) ) ;
#399 = CARTESIAN_POINT ( 'NONE',  ( -9.800000000000002487, 2.000000000000000000, 1.499999999999999778 ) ) ;
#400 = EDGE_CURVE ( 'NONE', #211, #421, #50, .T. ) ;
#401 = CARTESIAN_POINT ( 'NONE',  ( -10.00000000000000355, 0.000000000000000000, -1.300000000000000266 ) ) ;
#402 = VECTOR ( 'NONE', #69, 1000.000000000000000 ) ;
#403 = ORIENTED_EDGE ( 'NONE', *, *, #457, .F. ) ;
#404 = EDGE_CURVE ( 'NONE', #471, #511, #183, .T. ) ;
#405 = LINE ( 'NONE', #240, #436 ) ;
#406 = CYLINDRICAL_SURFACE ( 'NONE', #473, 0.2000000000000000944 ) ;
#407 = DATE_AND_TIME ( #443, #97 ) ;
#408 = CIRCLE ( 'NONE', #537, 0.2000000000000000944 ) ;
#409 = CYLINDRICAL_SURFACE ( 'NONE', #113, 0.2000000000000000944 ) ;
#410 = CARTESIAN_POINT ( 'NONE',  ( 9.799999999999993605, 2.000000000000000000, -1.500000000000000222 ) ) ;
#411 = DIRECTION ( 'NONE',  ( -0.000000000000000000, 1.000000000000000000, -0.000000000000000000 ) ) ;
#412 = ORIENTED_EDGE ( 'NONE', *, *, #200, .F. ) ;
#413 = CARTESIAN_POINT ( 'NONE',  ( -10.00000000000000355, 0.000000000000000000, -1.500000000000000222 ) ) ;
#414 = CIRCLE ( 'NONE', #96, 0.2000000000000005107 ) ;
#415 = VERTEX_POINT ( 'NONE', #181 ) ;
#416 = ORIENTED_EDGE ( 'NONE', *, *, #386, .F. ) ;
#417 = CARTESIAN_POINT ( 'NONE',  ( -9.800000000000002487, 0.000000000000000000, -1.300000000000000266 ) ) ;
#418 = EDGE_CURVE ( 'NONE', #40, #208, #362, .T. ) ;
#419 = ORIENTED_EDGE ( 'NONE', *, *, #33, .T. ) ;
#420 = FACE_OUTER_BOUND ( 'NONE', #259, .T. ) ;
#421 = VERTEX_POINT ( 'NONE', #65 ) ;
#422 = DIRECTION ( 'NONE',  ( 0.000000000000000000, 0.000000000000000000, 1.000000000000000000 ) ) ;
#423 = CC_DESIGN_PERSON_AND_ORGANIZATION_ASSIGNMENT ( #478, #12, ( #464 ) ) ;
#424 = DIRECTION ( 'NONE',  ( 0.000000000000000000, 0.000000000000000000, 1.000000000000000000 ) ) ;
#425 = AXIS2_PLACEMENT_3D ( 'NONE', #428, #315, #487 ) ;
#426 = VERTEX_POINT ( 'NONE', #441 ) ;
#427 = ORIENTED_EDGE ( 'NONE', *, *, #400, .T. ) ;
#428 = CARTESIAN_POINT ( 'NONE',  ( -9.800000000000002487, 1.800000000000000044, 1.299999999999999822 ) ) ;
#429 = COORDINATED_UNIVERSAL_TIME_OFFSET ( 8, 0, .AHEAD. ) ;
#430 = PLANE ( 'NONE',  #75 ) ;
#431 = CARTESIAN_POINT ( 'NONE',  ( 9.799999999999995381, 2.000000000000000000, 1.299999999999999822 ) ) ;
#432 = CARTESIAN_POINT ( 'NONE',  ( -10.00000000000000355, 2.000000000000000000, -1.500000000000000222 ) ) ;
#433 = ADVANCED_FACE ( 'NONE', ( #477 ), #231, .T. ) ;
#434 = ORIENTED_EDGE ( 'NONE', *, *, #306, .F. ) ;
#435 = SPHERICAL_SURFACE ( 'NONE', #275, 0.2000000000000000111 ) ;
#436 = VECTOR ( 'NONE', #411, 1000.000000000000000 ) ;
#437 = CC_DESIGN_APPROVAL ( #281, ( #321 ) ) ;
#438 = DIRECTION ( 'NONE',  ( 0.000000000000000000, -1.000000000000000000, 0.000000000000000000 ) ) ;
#439 = SECURITY_CLASSIFICATION_LEVEL ( 'unclassified' ) ;
#440 = ADVANCED_FACE ( 'NONE', ( #219 ), #145, .T. ) ;
#441 = CARTESIAN_POINT ( 'NONE',  ( 9.999999999999996447, 1.800000000000000044, -1.300000000000000266 ) ) ;
#442 = VERTEX_POINT ( 'NONE', #401 ) ;
#443 = CALENDAR_DATE ( 2026, 22, 3 ) ;
#444 = EDGE_CURVE ( 'NONE', #421, #203, #268, .T. ) ;
#445 = DIRECTION ( 'NONE',  ( -0.000000000000000000, -0.000000000000000000, -1.000000000000000000 ) ) ;
#446 = COORDINATED_UNIVERSAL_TIME_OFFSET ( 8, 0, .AHEAD. ) ;
#447 = ADVANCED_FACE ( 'NONE', ( #227 ), #525, .T. ) ;
#448 = VECTOR ( 'NONE', #472, 1000.000000000000000 ) ;
#449 = APPROVAL_PERSON_ORGANIZATION ( #513, #488, #262 ) ;
#450 = DIRECTION ( 'NONE',  ( 0.000000000000000000, 0.000000000000000000, 1.000000000000000000 ) ) ;
#451 = CARTESIAN_POINT ( 'NONE',  ( 0.000000000000000000, 1.800000000000000044, 1.299999999999999822 ) ) ;
#452 = APPROVAL_STATUS ( 'not_yet_approved' ) ;
#453 = LINE ( 'NONE', #197, #150 ) ;
#454 = CIRCLE ( 'NONE', #371, 0.2000000000000000944 ) ;
#455 = DIRECTION ( 'NONE',  ( 0.000000000000000000, 0.000000000000000000, -1.000000000000000000 ) ) ;
#456 = CARTESIAN_POINT ( 'NONE',  ( -10.00000000000000355, 2.000000000000000000, -1.300000000000000266 ) ) ;
#457 = EDGE_CURVE ( 'NONE', #514, #207, #354, .T. ) ;
#458 = ORIENTED_EDGE ( 'NONE', *, *, #418, .T. ) ;
#459 = FACE_OUTER_BOUND ( 'NONE', #8, .T. ) ;
#460 = CC_DESIGN_DATE_AND_TIME_ASSIGNMENT ( #407, #185, ( #321 ) ) ;
#461 = ORIENTED_EDGE ( 'NONE', *, *, #244, .F. ) ;
#462 = ORIENTED_EDGE ( 'NONE', *, *, #68, .T. ) ;
#463 = DIRECTION ( 'NONE',  ( 2.602085213965209379E-14, 0.000000000000000000, 1.000000000000000000 ) ) ;
#464 = PRODUCT ( 'BAR3X20T2', 'BAR3X20T2', '', ( #180 ) ) ;
#465 = ORIENTED_EDGE ( 'NONE', *, *, #171, .F. ) ;
#466 = ORIENTED_EDGE ( 'NONE', *, *, #11, .F. ) ;
#467 = DIRECTION ( 'NONE',  ( -0.000000000000000000, -0.000000000000000000, 1.000000000000000000 ) ) ;
#468 = ORIENTED_EDGE ( 'NONE', *, *, #283, .T. ) ;
#469 = ORIENTED_EDGE ( 'NONE', *, *, #524, .T. ) ;
#470 = PLANE ( 'NONE',  #188 ) ;
#471 = VERTEX_POINT ( 'NONE', #148 ) ;
#472 = DIRECTION ( 'NONE',  ( 1.000000000000000000, 0.000000000000000000, 0.000000000000000000 ) ) ;
#473 = AXIS2_PLACEMENT_3D ( 'NONE', #527, #31, #193 ) ;
#474 = DIRECTION ( 'NONE',  ( 1.000000000000000000, -0.000000000000000000, -0.000000000000000000 ) ) ;
#475 = CIRCLE ( 'NONE', #495, 0.2000000000000000944 ) ;
#476 = CC_DESIGN_SECURITY_CLASSIFICATION ( #321, ( #41 ) ) ;
#477 = FACE_OUTER_BOUND ( 'NONE', #343, .T. ) ;
#478 = PERSON_AND_ORGANIZATION ( #361, #19 ) ;
#479 = ADVANCED_FACE ( 'NONE', ( #480 ), #312, .F. ) ;
#480 = FACE_OUTER_BOUND ( 'NONE', #128, .T. ) ;
#481 = FACE_OUTER_BOUND ( 'NONE', #286, .T. ) ;
#482 = EDGE_CURVE ( 'NONE', #299, #442, #100, .T. ) ;
#483 = AXIS2_PLACEMENT_3D ( 'NONE', #293, #80, #300 ) ;
#484 = CC_DESIGN_APPROVAL ( #488, ( #38 ) ) ;
#485 = DIRECTION ( 'NONE',  ( 0.000000000000000000, 1.000000000000000000, -0.000000000000000000 ) ) ;
#486 = ORIENTED_EDGE ( 'NONE', *, *, #171, .T. ) ;
#487 = DIRECTION ( 'NONE',  ( 0.000000000000000000, 0.000000000000000000, 1.000000000000000000 ) ) ;
#488 = APPROVAL ( #99, 'UNSPECIFIED' ) ;
#489 = PERSON_AND_ORGANIZATION ( #361, #19 ) ;
#490 = VECTOR ( 'NONE', #243, 1000.000000000000000 ) ;
#491 = CARTESIAN_POINT ( 'NONE',  ( -9.800000000000002487, 1.800000000000000044, -1.300000000000000266 ) ) ;
#492 = CARTESIAN_POINT ( 'NONE',  ( 9.799999999999993605, 1.800000000000000044, -1.300000000000000266 ) ) ;
#493 = CYLINDRICAL_SURFACE ( 'NONE', #18, 0.2000000000000000944 ) ;
#494 = ADVANCED_FACE ( 'NONE', ( #263 ), #430, .F. ) ;
#495 = AXIS2_PLACEMENT_3D ( 'NONE', #131, #165, #166 ) ;
#496 = LINE ( 'NONE', #320, #402 ) ;
#497 = AXIS2_PLACEMENT_3D ( 'NONE', #102, #364, #265 ) ;
#498 = ADVANCED_FACE ( 'NONE', ( #309 ), #435, .T. ) ;
#499 = EDGE_LOOP ( 'NONE', ( #427, #93, #506, #291 ) ) ;
#500 = CC_DESIGN_PERSON_AND_ORGANIZATION_ASSIGNMENT ( #489, #155, ( #41 ) ) ;
#501 = CARTESIAN_POINT ( 'NONE',  ( -9.800000000000002487, 0.000000000000000000, 1.299999999999999822 ) ) ;
#502 = EDGE_CURVE ( 'NONE', #208, #514, #179, .T. ) ;
#503 = ORIENTED_EDGE ( 'NONE', *, *, #1, .F. ) ;
#504 = CARTESIAN_POINT ( 'NONE',  ( -10.00000000000000355, 0.000000000000000000, 1.499999999999999778 ) ) ;
#505 = ORIENTED_EDGE ( 'NONE', *, *, #332, .F. ) ;
#506 = ORIENTED_EDGE ( 'NONE', *, *, #244, .T. ) ;
#507 = DIRECTION ( 'NONE',  ( 0.000000000000000000, 0.000000000000000000, 1.000000000000000000 ) ) ;
#508 = EDGE_LOOP ( 'NONE', ( #82, #245, #271, #536 ) ) ;
#509 = SPHERICAL_SURFACE ( 'NONE', #327, 0.2000000000000000111 ) ;
#510 =( NAMED_UNIT ( * ) SI_UNIT ( $, .STERADIAN. ) SOLID_ANGLE_UNIT ( ) );
#511 = VERTEX_POINT ( 'NONE', #170 ) ;
#512 = CARTESIAN_POINT ( 'NONE',  ( 0.000000000000000000, 2.000000000000000000, 0.000000000000000000 ) ) ;
#513 = PERSON_AND_ORGANIZATION ( #361, #19 ) ;
#514 = VERTEX_POINT ( 'NONE', #431 ) ;
#515 = DIRECTION ( 'NONE',  ( 0.000000000000000000, 0.000000000000000000, -1.000000000000000000 ) ) ;
#516 = CALENDAR_DATE ( 2026, 22, 3 ) ;
#517 = CIRCLE ( 'NONE', #425, 0.2000000000000000944 ) ;
#518 = CARTESIAN_POINT ( 'NONE',  ( -9.800000000000002487, 2.000000000000000000, -1.500000000000000222 ) ) ;
#519 = CARTESIAN_POINT ( 'NONE',  ( 9.999999999999996447, 2.000000000000000000, -1.500000000000000222 ) ) ;
#520 = CARTESIAN_POINT ( 'NONE',  ( -9.800000000000002487, 2.000000000000000000, -1.300000000000000266 ) ) ;
#521 = CARTESIAN_POINT ( 'NONE',  ( 9.799999999999995381, 2.000000000000000000, -1.500000000000000222 ) ) ;
#522 = DATE_AND_TIME ( #182, #151 ) ;
#523 =( GEOMETRIC_REPRESENTATION_CONTEXT ( 3 ) GLOBAL_UNCERTAINTY_ASSIGNED_CONTEXT ( ( #177 ) ) GLOBAL_UNIT_ASSIGNED_CONTEXT ( ( #210, #55, #510 ) ) REPRESENTATION_CONTEXT ( 'NONE', 'WORKASPACE' ) );
#524 = EDGE_CURVE ( 'NONE', #317, #308, #133, .T. ) ;
#525 = SPHERICAL_SURFACE ( 'NONE', #539, 0.2000000000000000111 ) ;
#526 = COORDINATED_UNIVERSAL_TIME_OFFSET ( 8, 0, .AHEAD. ) ;
#527 = CARTESIAN_POINT ( 'NONE',  ( 9.799999999999993605, 2.000000000000000000, -1.300000000000000266 ) ) ;
#528 = PERSON_AND_ORGANIZATION ( #361, #19 ) ;
#529 = EDGE_CURVE ( 'NONE', #314, #511, #27, .T. ) ;
#530 = CIRCLE ( 'NONE', #233, 0.2000000000000000944 ) ;
#531 = AXIS2_PLACEMENT_3D ( 'NONE', #389, #485, #57 ) ;
#532 = DIRECTION ( 'NONE',  ( 0.000000000000000000, -0.000000000000000000, 1.000000000000000000 ) ) ;
#533 = FACE_OUTER_BOUND ( 'NONE', #334, .T. ) ;
#534 = EDGE_CURVE ( 'NONE', #415, #378, #47, .T. ) ;
#535 = FACE_OUTER_BOUND ( 'NONE', #292, .T. ) ;
#536 = ORIENTED_EDGE ( 'NONE', *, *, #534, .F. ) ;
#537 = AXIS2_PLACEMENT_3D ( 'NONE', #285, #288, #4 ) ;
#538 = ADVANCED_FACE ( 'NONE', ( #351 ), #267, .F. ) ;
#539 = AXIS2_PLACEMENT_3D ( 'NONE', #28, #225, #358 ) ;
#540 = DIRECTION ( 'NONE',  ( 0.000000000000000000, 0.000000000000000000, 1.000000000000000000 ) ) ;
#541 = VERTEX_POINT ( 'NONE', #146 ) ;
ENDSEC;
END-ISO-10303-21;
