ISO-10303-21;
HEADER;
FILE_DESCRIPTION (( 'STEP AP203' ),
    '1' );
FILE_NAME ('BAR3X6T2.step',
    '2026-03-22T06:39:02',
    ( '' ),
    ( '' ),
    'SwSTEP 2.0',
    'SolidWorks 2025',
    '' );
FILE_SCHEMA (( 'CONFIG_CONTROL_DESIGN' ));
ENDSEC;

DATA;
#1 = DIRECTION ( 'NONE',  ( 0.000000000000000000, 1.000000000000000000, 0.000000000000000000 ) ) ;
#2 = VERTEX_POINT ( 'NONE', #338 ) ;
#3 = ORIENTED_EDGE ( 'NONE', *, *, #43, .T. ) ;
#4 = LOCAL_TIME ( 14, 39, 2.000000000000000000, #402 ) ;
#5 = CARTESIAN_POINT ( 'NONE',  ( 3.000000000000000444, 1.800000000000000044, -1.299999999999999600 ) ) ;
#6 = DIRECTION ( 'NONE',  ( -1.000000000000000000, -0.000000000000000000, -0.000000000000000000 ) ) ;
#7 = PLANE ( 'NONE',  #243 ) ;
#8 = SPHERICAL_SURFACE ( 'NONE', #54, 0.2000000000000000111 ) ;
#9 = EDGE_CURVE ( 'NONE', #84, #111, #250, .T. ) ;
#10 = ADVANCED_FACE ( 'NONE', ( #501 ), #257, .T. ) ;
#11 = CARTESIAN_POINT ( 'NONE',  ( -2.799999999999998490, 2.000000000000000000, 1.300000000000000266 ) ) ;
#12 = VECTOR ( 'NONE', #453, 1000.000000000000000 ) ;
#13 = CARTESIAN_POINT ( 'NONE',  ( -2.799999999999998490, 2.000000000000000000, 1.500000000000000444 ) ) ;
#14 = APPROVAL ( #266, 'UNSPECIFIED' ) ;
#15 = APPROVAL_DATE_TIME ( #221, #14 ) ;
#16 = ORIENTED_EDGE ( 'NONE', *, *, #293, .T. ) ;
#17 = DATE_AND_TIME ( #314, #416 ) ;
#18 = CIRCLE ( 'NONE', #332, 0.2000000000000000944 ) ;
#19 = DIRECTION ( 'NONE',  ( 1.000000000000000000, 0.000000000000000000, -0.000000000000000000 ) ) ;
#20 = DIRECTION ( 'NONE',  ( 0.000000000000000000, 0.000000000000000000, 1.000000000000000000 ) ) ;
#21 = ORIENTED_EDGE ( 'NONE', *, *, #286, .T. ) ;
#22 = FACE_OUTER_BOUND ( 'NONE', #486, .T. ) ;
#23 = APPLICATION_PROTOCOL_DEFINITION ( 'international standard', 'config_control_design', 1994, #344 ) ;
#24 = DESIGN_CONTEXT ( 'detailed design', #344, 'design' ) ;
#25 = VERTEX_POINT ( 'NONE', #182 ) ;
#26 = LINE ( 'NONE', #360, #290 ) ;
#27 = DIRECTION ( 'NONE',  ( 0.000000000000000000, 0.000000000000000000, 1.000000000000000000 ) ) ;
#28 = VECTOR ( 'NONE', #253, 1000.000000000000000 ) ;
#29 = APPROVAL_ROLE ( '' ) ;
#30 = EDGE_LOOP ( 'NONE', ( #341, #126, #206, #177, #188, #259, #262, #433 ) ) ;
#31 = AXIS2_PLACEMENT_3D ( 'NONE', #388, #319, #67 ) ;
#32 = LINE ( 'NONE', #321, #421 ) ;
#33 = EDGE_CURVE ( 'NONE', #164, #84, #496, .T. ) ;
#34 = ORIENTED_EDGE ( 'NONE', *, *, #115, .F. ) ;
#35 = LINE ( 'NONE', #120, #392 ) ;
#36 = DIRECTION ( 'NONE',  ( 1.000000000000000000, 0.000000000000000000, -2.891205793294678326E-16 ) ) ;
#37 = DIRECTION ( 'NONE',  ( 2.891205793294678326E-16, 0.000000000000000000, 1.000000000000000000 ) ) ;
#38 = AXIS2_PLACEMENT_3D ( 'NONE', #128, #53, #208 ) ;
#39 = EDGE_CURVE ( 'NONE', #64, #25, #211, .T. ) ;
#40 = EDGE_LOOP ( 'NONE', ( #372, #106, #430, #534 ) ) ;
#41 = DIRECTION ( 'NONE',  ( 0.000000000000000000, 0.000000000000000000, 1.000000000000000000 ) ) ;
#42 = DIRECTION ( 'NONE',  ( 1.000000000000000000, 0.000000000000000000, -2.891205793294676847E-16 ) ) ;
#43 = EDGE_CURVE ( 'NONE', #25, #2, #499, .T. ) ;
#44 = DIRECTION ( 'NONE',  ( -1.000000000000000000, 0.000000000000000000, 0.000000000000000000 ) ) ;
#45 = CARTESIAN_POINT ( 'NONE',  ( 3.000000000000001332, 2.000000000000000000, 1.300000000000000266 ) ) ;
#46 = AXIS2_PLACEMENT_3D ( 'NONE', #327, #491, #245 ) ;
#47 = DIRECTION ( 'NONE',  ( 0.000000000000000000, 0.000000000000000000, 1.000000000000000000 ) ) ;
#48 = SPHERICAL_SURFACE ( 'NONE', #350, 0.2000000000000000111 ) ;
#49 = AXIS2_PLACEMENT_3D ( 'NONE', #378, #212, #508 ) ;
#50 = ORIENTED_EDGE ( 'NONE', *, *, #529, .T. ) ;
#51 = LOCAL_TIME ( 14, 39, 2.000000000000000000, #231 ) ;
#52 = CARTESIAN_POINT ( 'NONE',  ( 3.000000000000001332, 1.800000000000000044, 1.500000000000000444 ) ) ;
#53 = DIRECTION ( 'NONE',  ( -1.000000000000000000, 0.000000000000000000, 2.891205793294678326E-16 ) ) ;
#54 = AXIS2_PLACEMENT_3D ( 'NONE', #210, #137, #85 ) ;
#55 = CARTESIAN_POINT ( 'NONE',  ( 2.799999999999999822, 0.000000000000000000, -1.299999999999999600 ) ) ;
#56 = ORIENTED_EDGE ( 'NONE', *, *, #39, .T. ) ;
#57 = ADVANCED_FACE ( 'NONE', ( #509 ), #252, .F. ) ;
#58 = DIRECTION ( 'NONE',  ( -0.000000000000000000, 1.000000000000000000, -0.000000000000000000 ) ) ;
#59 = AXIS2_PLACEMENT_3D ( 'NONE', #227, #397, #190 ) ;
#60 = AXIS2_PLACEMENT_3D ( 'NONE', #199, #244, #158 ) ;
#61 = DATE_TIME_ROLE ( 'classification_date' ) ;
#62 = DIRECTION ( 'NONE',  ( -0.000000000000000000, 1.000000000000000000, -0.000000000000000000 ) ) ;
#63 = APPROVAL_ROLE ( '' ) ;
#64 = VERTEX_POINT ( 'NONE', #295 ) ;
#65 = PLANE ( 'NONE',  #59 ) ;
#66 = EDGE_LOOP ( 'NONE', ( #540, #458, #408, #270 ) ) ;
#67 = DIRECTION ( 'NONE',  ( 0.000000000000000000, -0.000000000000000000, 1.000000000000000000 ) ) ;
#68 = APPROVAL_STATUS ( 'not_yet_approved' ) ;
#69 = ORIENTED_EDGE ( 'NONE', *, *, #284, .T. ) ;
#70 = DIRECTION ( 'NONE',  ( -2.891205793294678326E-16, -0.000000000000000000, -1.000000000000000000 ) ) ;
#71 = CARTESIAN_POINT ( 'NONE',  ( 2.800000000000001155, 1.800000000000000044, 1.300000000000000266 ) ) ;
#72 = PERSON_AND_ORGANIZATION ( #522, #121 ) ;
#73 = ORIENTED_EDGE ( 'NONE', *, *, #475, .T. ) ;
#74 = CARTESIAN_POINT ( 'NONE',  ( -2.799999999999998490, 1.800000000000000044, 1.300000000000000266 ) ) ;
#75 = EDGE_CURVE ( 'NONE', #94, #132, #429, .T. ) ;
#76 = ADVANCED_FACE ( 'NONE', ( #255 ), #380, .T. ) ;
#77 = AXIS2_PLACEMENT_3D ( 'NONE', #347, #340, #502 ) ;
#78 = VERTEX_POINT ( 'NONE', #5 ) ;
#79 = DIRECTION ( 'NONE',  ( 4.336808689942015369E-15, 0.000000000000000000, 1.000000000000000000 ) ) ;
#80 = CARTESIAN_POINT ( 'NONE',  ( -2.799999999999998490, 2.000000000000000000, 1.500000000000000444 ) ) ;
#81 = CIRCLE ( 'NONE', #46, 0.2000000000000000944 ) ;
#82 = FACE_OUTER_BOUND ( 'NONE', #285, .T. ) ;
#83 = AXIS2_PLACEMENT_3D ( 'NONE', #471, #425, #301 ) ;
#84 = VERTEX_POINT ( 'NONE', #383 ) ;
#85 = DIRECTION ( 'NONE',  ( 0.000000000000000000, 0.000000000000000000, -1.000000000000000000 ) ) ;
#86 = ADVANCED_FACE ( 'NONE', ( #216 ), #503, .T. ) ;
#87 = DIRECTION ( 'NONE',  ( 0.000000000000000000, -1.000000000000000000, 0.000000000000000000 ) ) ;
#88 = SPHERICAL_SURFACE ( 'NONE', #174, 0.2000000000000000111 ) ;
#89 = DIRECTION ( 'NONE',  ( 0.000000000000000000, 1.000000000000000000, -0.000000000000000000 ) ) ;
#90 = DIRECTION ( 'NONE',  ( -0.000000000000000000, -1.000000000000000000, -0.000000000000000000 ) ) ;
#91 = ORIENTED_EDGE ( 'NONE', *, *, #305, .F. ) ;
#92 = CARTESIAN_POINT ( 'NONE',  ( 3.000000000000001332, 0.000000000000000000, 1.300000000000000266 ) ) ;
#93 = ADVANCED_FACE ( 'NONE', ( #173 ), #8, .T. ) ;
#94 = VERTEX_POINT ( 'NONE', #386 ) ;
#95 = CARTESIAN_POINT ( 'NONE',  ( 3.000000000000000444, 0.000000000000000000, -1.299999999999999600 ) ) ;
#96 = DIRECTION ( 'NONE',  ( 0.000000000000000000, 1.000000000000000000, -0.000000000000000000 ) ) ;
#97 = VECTOR ( 'NONE', #447, 1000.000000000000000 ) ;
#98 = DIRECTION ( 'NONE',  ( -0.000000000000000000, -1.000000000000000000, -0.000000000000000000 ) ) ;
#99 = EDGE_CURVE ( 'NONE', #526, #132, #18, .T. ) ;
#100 = CARTESIAN_POINT ( 'NONE',  ( 3.000000000000001332, 2.000000000000000000, 1.300000000000000266 ) ) ;
#101 = VECTOR ( 'NONE', #268, 1000.000000000000000 ) ;
#102 = PERSON_AND_ORGANIZATION ( #522, #121 ) ;
#103 = EDGE_LOOP ( 'NONE', ( #391, #308, #492, #232 ) ) ;
#104 = CYLINDRICAL_SURFACE ( 'NONE', #170, 0.2000000000000000944 ) ;
#105 = PERSON_AND_ORGANIZATION ( #522, #121 ) ;
#106 = ORIENTED_EDGE ( 'NONE', *, *, #196, .F. ) ;
#107 = CIRCLE ( 'NONE', #49, 0.2000000000000000944 ) ;
#108 = VECTOR ( 'NONE', #6, 1000.000000000000000 ) ;
#109 = CARTESIAN_POINT ( 'NONE',  ( 0.000000000000000000, 1.800000000000000044, -1.299999999999999600 ) ) ;
#110 = COORDINATED_UNIVERSAL_TIME_OFFSET ( 8, 0, .AHEAD. ) ;
#111 = VERTEX_POINT ( 'NONE', #362 ) ;
#112 = FACE_OUTER_BOUND ( 'NONE', #331, .T. ) ;
#113 = FACE_OUTER_BOUND ( 'NONE', #30, .T. ) ;
#114 = ORIENTED_EDGE ( 'NONE', *, *, #434, .F. ) ;
#115 = EDGE_CURVE ( 'NONE', #412, #164, #287, .T. ) ;
#116 = ADVANCED_FACE ( 'NONE', ( #472 ), #140, .T. ) ;
#117 = CARTESIAN_POINT ( 'NONE',  ( -2.999999999999999556, 1.800000000000000044, -1.299999999999999600 ) ) ;
#118 = ORIENTED_EDGE ( 'NONE', *, *, #459, .F. ) ;
#119 = EDGE_CURVE ( 'NONE', #162, #94, #197, .T. ) ;
#120 = CARTESIAN_POINT ( 'NONE',  ( -2.999999999999999556, 1.800000000000000044, -1.499999999999999556 ) ) ;
#121 = ORGANIZATION ( 'UNSPECIFIED', 'UNSPECIFIED', '' ) ;
#122 = CYLINDRICAL_SURFACE ( 'NONE', #219, 0.2000000000000000944 ) ;
#123 = DIRECTION ( 'NONE',  ( 0.000000000000000000, 0.000000000000000000, -1.000000000000000000 ) ) ;
#124 = ORIENTED_EDGE ( 'NONE', *, *, #233, .T. ) ;
#125 = VECTOR ( 'NONE', #58, 1000.000000000000000 ) ;
#126 = ORIENTED_EDGE ( 'NONE', *, *, #511, .T. ) ;
#127 = EDGE_CURVE ( 'NONE', #164, #449, #479, .T. ) ;
#128 = CARTESIAN_POINT ( 'NONE',  ( 3.000000000000000444, 2.000000000000000000, -1.499999999999999556 ) ) ;
#129 = CARTESIAN_POINT ( 'NONE',  ( 2.800000000000000266, 2.000000000000000000, -1.499999999999999556 ) ) ;
#130 = CIRCLE ( 'NONE', #224, 0.2000000000000000944 ) ;
#131 = CLOSED_SHELL ( 'NONE', ( #57, #247, #419, #382, #116, #241, #220, #166, #342, #460, #494, #376, #385, #76, #533, #86, #93, #10 ) ) ;
#132 = VERTEX_POINT ( 'NONE', #524 ) ;
#133 = DIRECTION ( 'NONE',  ( 0.000000000000000000, 0.000000000000000000, 1.000000000000000000 ) ) ;
#134 = ORIENTED_EDGE ( 'NONE', *, *, #434, .T. ) ;
#135 = CC_DESIGN_PERSON_AND_ORGANIZATION_ASSIGNMENT ( #518, #514, ( #400 ) ) ;
#136 = CARTESIAN_POINT ( 'NONE',  ( -2.799999999999999378, 1.800000000000000044, -1.299999999999999600 ) ) ;
#137 = DIRECTION ( 'NONE',  ( -0.000000000000000000, 1.000000000000000000, 0.000000000000000000 ) ) ;
#138 = CARTESIAN_POINT ( 'NONE',  ( -2.799999999999999378, 2.000000000000000000, -1.299999999999999600 ) ) ;
#139 = SECURITY_CLASSIFICATION ( '', '', #432 ) ;
#140 = PLANE ( 'NONE',  #31 ) ;
#141 = DATE_AND_TIME ( #322, #246 ) ;
#142 = EDGE_CURVE ( 'NONE', #412, #84, #467, .T. ) ;
#143 = DIRECTION ( 'NONE',  ( 0.000000000000000000, 1.000000000000000000, 0.000000000000000000 ) ) ;
#144 = VECTOR ( 'NONE', #326, 1000.000000000000000 ) ;
#145 = ORIENTED_EDGE ( 'NONE', *, *, #363, .T. ) ;
#146 = DIRECTION ( 'NONE',  ( 0.000000000000000000, 0.000000000000000000, 1.000000000000000000 ) ) ;
#147 = APPROVAL_STATUS ( 'not_yet_approved' ) ;
#148 = ORIENTED_EDGE ( 'NONE', *, *, #436, .F. ) ;
#149 = DIRECTION ( 'NONE',  ( 0.000000000000000000, 0.000000000000000000, 1.000000000000000000 ) ) ;
#150 = CC_DESIGN_APPROVAL ( #450, ( #330 ) ) ;
#151 = VECTOR ( 'NONE', #377, 1000.000000000000000 ) ;
#152 = ORIENTED_EDGE ( 'NONE', *, *, #405, .F. ) ;
#153 = CARTESIAN_POINT ( 'NONE',  ( -2.799999999999998490, 2.000000000000000000, 1.300000000000000266 ) ) ;
#154 = DIRECTION ( 'NONE',  ( 0.000000000000000000, 0.000000000000000000, -1.000000000000000000 ) ) ;
#155 = CC_DESIGN_PERSON_AND_ORGANIZATION_ASSIGNMENT ( #72, #407, ( #498 ) ) ;
#156 = CALENDAR_DATE ( 2026, 22, 3 ) ;
#157 = ORIENTED_EDGE ( 'NONE', *, *, #530, .T. ) ;
#158 = DIRECTION ( 'NONE',  ( -1.000000000000000000, 0.000000000000000000, -0.000000000000000000 ) ) ;
#159 = AXIS2_PLACEMENT_3D ( 'NONE', #279, #195, #489 ) ;
#160 = DIRECTION ( 'NONE',  ( 0.000000000000000000, -1.000000000000000000, 0.000000000000000000 ) ) ;
#161 = LINE ( 'NONE', #532, #163 ) ;
#162 = VERTEX_POINT ( 'NONE', #435 ) ;
#163 = VECTOR ( 'NONE', #37, 1000.000000000000000 ) ;
#164 = VERTEX_POINT ( 'NONE', #230 ) ;
#165 = EDGE_CURVE ( 'NONE', #78, #111, #482, .T. ) ;
#166 = ADVANCED_FACE ( 'NONE', ( #22 ), #104, .T. ) ;
#167 = AXIS2_PLACEMENT_3D ( 'NONE', #306, #516, #235 ) ;
#168 = DIRECTION ( 'NONE',  ( 1.000000000000000000, 0.000000000000000000, 0.000000000000000000 ) ) ;
#169 = DIRECTION ( 'NONE',  ( -1.000000000000000000, 0.000000000000000000, 0.000000000000000000 ) ) ;
#170 = AXIS2_PLACEMENT_3D ( 'NONE', #109, #354, #406 ) ;
#171 = DIRECTION ( 'NONE',  ( 0.000000000000000000, 0.000000000000000000, 1.000000000000000000 ) ) ;
#172 = DIRECTION ( 'NONE',  ( 0.000000000000000000, 0.000000000000000000, 1.000000000000000000 ) ) ;
#173 = FACE_OUTER_BOUND ( 'NONE', #222, .T. ) ;
#174 = AXIS2_PLACEMENT_3D ( 'NONE', #136, #464, #169 ) ;
#175 = CYLINDRICAL_SURFACE ( 'NONE', #77, 0.2000000000000000944 ) ;
#176 = AXIS2_PLACEMENT_3D ( 'NONE', #440, #365, #349 ) ;
#177 = ORIENTED_EDGE ( 'NONE', *, *, #459, .T. ) ;
#178 = VECTOR ( 'NONE', #87, 1000.000000000000000 ) ;
#179 = ORIENTED_EDGE ( 'NONE', *, *, #39, .F. ) ;
#180 = CARTESIAN_POINT ( 'NONE',  ( -2.799999999999999378, 0.000000000000000000, -1.499999999999999556 ) ) ;
#181 = EDGE_LOOP ( 'NONE', ( #118, #205, #320, #519 ) ) ;
#182 = CARTESIAN_POINT ( 'NONE',  ( 2.799999999999999822, 1.800000000000000044, -1.499999999999999556 ) ) ;
#183 = FACE_OUTER_BOUND ( 'NONE', #213, .T. ) ;
#184 = PERSON_AND_ORGANIZATION_ROLE ( 'classification_officer' ) ;
#185 = EDGE_LOOP ( 'NONE', ( #191, #157, #359, #280 ) ) ;
#186 = DIRECTION ( 'NONE',  ( -1.000000000000000000, -0.000000000000000000, -0.000000000000000000 ) ) ;
#187 = PERSON_AND_ORGANIZATION ( #522, #121 ) ;
#188 = ORIENTED_EDGE ( 'NONE', *, *, #529, .F. ) ;
#189 = LINE ( 'NONE', #52, #309 ) ;
#190 = DIRECTION ( 'NONE',  ( 0.000000000000000000, -0.000000000000000000, 1.000000000000000000 ) ) ;
#191 = ORIENTED_EDGE ( 'NONE', *, *, #324, .T. ) ;
#192 = FACE_OUTER_BOUND ( 'NONE', #181, .T. ) ;
#193 = CIRCLE ( 'NONE', #493, 0.2000000000000000944 ) ;
#194 = EDGE_LOOP ( 'NONE', ( #148, #538, #323, #152 ) ) ;
#195 = DIRECTION ( 'NONE',  ( -2.891205793294678326E-16, 0.000000000000000000, -1.000000000000000000 ) ) ;
#196 = EDGE_CURVE ( 'NONE', #132, #288, #348, .T. ) ;
#197 = LINE ( 'NONE', #484, #125 ) ;
#198 = ORIENTED_EDGE ( 'NONE', *, *, #33, .T. ) ;
#199 = CARTESIAN_POINT ( 'NONE',  ( -2.999999999999998668, 2.000000000000000000, 1.500000000000000444 ) ) ;
#200 = DIRECTION ( 'NONE',  ( -0.000000000000000000, -1.000000000000000000, -0.000000000000000000 ) ) ;
#201 = EDGE_CURVE ( 'NONE', #488, #64, #273, .T. ) ;
#202 = DIRECTION ( 'NONE',  ( -2.891205793294678326E-16, 0.000000000000000000, -1.000000000000000000 ) ) ;
#203 = LINE ( 'NONE', #283, #144 ) ;
#204 = VECTOR ( 'NONE', #298, 1000.000000000000000 ) ;
#205 = ORIENTED_EDGE ( 'NONE', *, *, #485, .F. ) ;
#206 = ORIENTED_EDGE ( 'NONE', *, *, #335, .F. ) ;
#207 = CC_DESIGN_DATE_AND_TIME_ASSIGNMENT ( #274, #61, ( #139 ) ) ;
#208 = DIRECTION ( 'NONE',  ( 2.891205793294678326E-16, 0.000000000000000000, 1.000000000000000000 ) ) ;
#209 =( GEOMETRIC_REPRESENTATION_CONTEXT ( 3 ) GLOBAL_UNCERTAINTY_ASSIGNED_CONTEXT ( ( #438 ) ) GLOBAL_UNIT_ASSIGNED_CONTEXT ( ( #296, #251, #256 ) ) REPRESENTATION_CONTEXT ( 'NONE', 'WORKASPACE' ) );
#210 = CARTESIAN_POINT ( 'NONE',  ( 2.800000000000001155, 1.800000000000000044, 1.300000000000000266 ) ) ;
#211 = LINE ( 'NONE', #333, #151 ) ;
#212 = DIRECTION ( 'NONE',  ( -0.000000000000000000, -1.000000000000000000, -0.000000000000000000 ) ) ;
#213 = EDGE_LOOP ( 'NONE', ( #297, #515, #34, #366 ) ) ;
#214 = CARTESIAN_POINT ( 'NONE',  ( 2.800000000000000711, 0.000000000000000000, 1.500000000000000444 ) ) ;
#215 = AXIS2_PLACEMENT_3D ( 'NONE', #424, #44, #171 ) ;
#216 = FACE_OUTER_BOUND ( 'NONE', #239, .T. ) ;
#217 = LINE ( 'NONE', #343, #204 ) ;
#218 = VECTOR ( 'NONE', #512, 1000.000000000000000 ) ;
#219 = AXIS2_PLACEMENT_3D ( 'NONE', #455, #160, #451 ) ;
#220 = ADVANCED_FACE ( 'NONE', ( #192 ), #223, .T. ) ;
#221 = DATE_AND_TIME ( #398, #4 ) ;
#222 = EDGE_LOOP ( 'NONE', ( #505, #198, #420 ) ) ;
#223 = CYLINDRICAL_SURFACE ( 'NONE', #500, 0.2000000000000000944 ) ;
#224 = AXIS2_PLACEMENT_3D ( 'NONE', #370, #200, #79 ) ;
#225 = PERSON_AND_ORGANIZATION_ROLE ( 'design_supplier' ) ;
#226 = ORIENTED_EDGE ( 'NONE', *, *, #530, .F. ) ;
#227 = CARTESIAN_POINT ( 'NONE',  ( 0.000000000000000000, 0.000000000000000000, 0.000000000000000000 ) ) ;
#228 = DATE_TIME_ROLE ( 'creation_date' ) ;
#229 = ORIENTED_EDGE ( 'NONE', *, *, #286, .F. ) ;
#230 = CARTESIAN_POINT ( 'NONE',  ( 3.000000000000001332, 1.800000000000000044, 1.300000000000000266 ) ) ;
#231 = COORDINATED_UNIVERSAL_TIME_OFFSET ( 8, 0, .AHEAD. ) ;
#232 = ORIENTED_EDGE ( 'NONE', *, *, #127, .T. ) ;
#233 = EDGE_CURVE ( 'NONE', #78, #25, #289, .T. ) ;
#234 = FACE_OUTER_BOUND ( 'NONE', #312, .T. ) ;
#235 = DIRECTION ( 'NONE',  ( -1.000000000000000000, 0.000000000000000000, 0.000000000000000000 ) ) ;
#236 = MECHANICAL_CONTEXT ( 'NONE', #428, 'mechanical' ) ;
#237 = VERTEX_POINT ( 'NONE', #439 ) ;
#238 = DIRECTION ( 'NONE',  ( 1.000000000000000000, 0.000000000000000000, 0.000000000000000000 ) ) ;
#239 = EDGE_LOOP ( 'NONE', ( #381, #452, #396 ) ) ;
#240 = DIRECTION ( 'NONE',  ( -0.000000000000000000, 1.000000000000000000, -0.000000000000000000 ) ) ;
#241 = ADVANCED_FACE ( 'NONE', ( #113 ), #65, .F. ) ;
#242 = EDGE_CURVE ( 'NONE', #536, #418, #541, .T. ) ;
#243 = AXIS2_PLACEMENT_3D ( 'NONE', #357, #299, #19 ) ;
#244 = DIRECTION ( 'NONE',  ( 0.000000000000000000, 0.000000000000000000, -1.000000000000000000 ) ) ;
#245 = DIRECTION ( 'NONE',  ( 2.168404344971007685E-15, 1.000000000000000000, 0.000000000000000000 ) ) ;
#246 = LOCAL_TIME ( 14, 39, 2.000000000000000000, #311 ) ;
#247 = ADVANCED_FACE ( 'NONE', ( #448 ), #7, .F. ) ;
#248 = VERTEX_POINT ( 'NONE', #95 ) ;
#249 = CC_DESIGN_PERSON_AND_ORGANIZATION_ASSIGNMENT ( #187, #184, ( #139 ) ) ;
#250 = LINE ( 'NONE', #129, #411 ) ;
#251 =( NAMED_UNIT ( * ) PLANE_ANGLE_UNIT ( ) SI_UNIT ( $, .RADIAN. ) );
#252 = PLANE ( 'NONE',  #38 ) ;
#253 = DIRECTION ( 'NONE',  ( 0.000000000000000000, -1.000000000000000000, 0.000000000000000000 ) ) ;
#254 = AXIS2_PLACEMENT_3D ( 'NONE', #422, #300, #42 ) ;
#255 = FACE_OUTER_BOUND ( 'NONE', #66, .T. ) ;
#256 =( NAMED_UNIT ( * ) SI_UNIT ( $, .STERADIAN. ) SOLID_ANGLE_UNIT ( ) );
#257 = CYLINDRICAL_SURFACE ( 'NONE', #215, 0.2000000000000000944 ) ;
#258 = FACE_OUTER_BOUND ( 'NONE', #315, .T. ) ;
#259 = ORIENTED_EDGE ( 'NONE', *, *, #436, .T. ) ;
#260 = DIRECTION ( 'NONE',  ( 0.000000000000000000, 0.000000000000000000, 1.000000000000000000 ) ) ;
#261 = LINE ( 'NONE', #384, #108 ) ;
#262 = ORIENTED_EDGE ( 'NONE', *, *, #364, .F. ) ;
#263 = EDGE_CURVE ( 'NONE', #78, #164, #189, .T. ) ;
#264 = AXIS2_PLACEMENT_3D ( 'NONE', #469, #96, #260 ) ;
#265 = CARTESIAN_POINT ( 'NONE',  ( 2.800000000000001155, 1.800000000000000044, 1.300000000000000266 ) ) ;
#266 = APPROVAL_STATUS ( 'not_yet_approved' ) ;
#267 = AXIS2_PLACEMENT_3D ( 'NONE', #517, #313, #277 ) ;
#268 = DIRECTION ( 'NONE',  ( 0.000000000000000000, -1.000000000000000000, 0.000000000000000000 ) ) ;
#269 = APPROVAL_DATE_TIME ( #525, #462 ) ;
#270 = ORIENTED_EDGE ( 'NONE', *, *, #263, .F. ) ;
#271 = DIRECTION ( 'NONE',  ( -0.000000000000000000, 1.000000000000000000, 0.000000000000000000 ) ) ;
#272 = CC_DESIGN_APPROVAL ( #462, ( #498 ) ) ;
#273 = LINE ( 'NONE', #442, #414 ) ;
#274 = DATE_AND_TIME ( #353, #537 ) ;
#275 = ORIENTED_EDGE ( 'NONE', *, *, #142, .T. ) ;
#276 = CARTESIAN_POINT ( 'NONE',  ( -2.799999999999998490, 0.000000000000000000, 1.500000000000000444 ) ) ;
#277 = DIRECTION ( 'NONE',  ( -1.000000000000000000, 0.000000000000000000, 0.000000000000000000 ) ) ;
#278 = ORIENTED_EDGE ( 'NONE', *, *, #394, .T. ) ;
#279 = CARTESIAN_POINT ( 'NONE',  ( -2.799999999999998934, 1.800000000000000044, 8.095376221225097144E-16 ) ) ;
#280 = ORIENTED_EDGE ( 'NONE', *, *, #446, .T. ) ;
#281 = FACE_OUTER_BOUND ( 'NONE', #194, .T. ) ;
#282 = DIRECTION ( 'NONE',  ( 0.000000000000000000, -0.000000000000000000, 1.000000000000000000 ) ) ;
#283 = CARTESIAN_POINT ( 'NONE',  ( -2.999999999999998668, 0.000000000000000000, 1.500000000000000444 ) ) ;
#284 = EDGE_CURVE ( 'NONE', #412, #132, #32, .T. ) ;
#285 = EDGE_LOOP ( 'NONE', ( #520, #399, #21, #403 ) ) ;
#286 = EDGE_CURVE ( 'NONE', #94, #418, #35, .T. ) ;
#287 = CIRCLE ( 'NONE', #361, 0.2000000000000000944 ) ;
#288 = VERTEX_POINT ( 'NONE', #276 ) ;
#289 = CIRCLE ( 'NONE', #379, 0.2000000000000000944 ) ;
#290 = VECTOR ( 'NONE', #240, 1000.000000000000000 ) ;
#291 = ORIENTED_EDGE ( 'NONE', *, *, #196, .T. ) ;
#292 = APPLICATION_PROTOCOL_DEFINITION ( 'international standard', 'config_control_design', 1994, #428 ) ;
#293 = EDGE_CURVE ( 'NONE', #536, #64, #426, .T. ) ;
#294 = CIRCLE ( 'NONE', #83, 0.2000000000000000944 ) ;
#295 = CARTESIAN_POINT ( 'NONE',  ( -2.799999999999999378, 1.800000000000000044, -1.499999999999999556 ) ) ;
#296 =( LENGTH_UNIT ( ) NAMED_UNIT ( * ) SI_UNIT ( .MILLI., .METRE. ) );
#297 = ORIENTED_EDGE ( 'NONE', *, *, #302, .F. ) ;
#298 = DIRECTION ( 'NONE',  ( -1.000000000000000000, 0.000000000000000000, 0.000000000000000000 ) ) ;
#299 = DIRECTION ( 'NONE',  ( 0.000000000000000000, 0.000000000000000000, 1.000000000000000000 ) ) ;
#300 = DIRECTION ( 'NONE',  ( 2.891205793294678326E-16, -0.000000000000000000, 1.000000000000000000 ) ) ;
#301 = DIRECTION ( 'NONE',  ( 0.000000000000000000, 0.000000000000000000, 1.000000000000000000 ) ) ;
#302 = EDGE_CURVE ( 'NONE', #449, #507, #130, .T. ) ;
#303 = DIRECTION ( 'NONE',  ( 2.891205793294678326E-16, -0.000000000000000000, 1.000000000000000000 ) ) ;
#304 = VECTOR ( 'NONE', #427, 1000.000000000000000 ) ;
#305 = EDGE_CURVE ( 'NONE', #526, #94, #193, .T. ) ;
#306 = CARTESIAN_POINT ( 'NONE',  ( 2.800000000000000266, 1.800000000000000044, -1.299999999999999600 ) ) ;
#307 = PERSON_AND_ORGANIZATION ( #522, #121 ) ;
#308 = ORIENTED_EDGE ( 'NONE', *, *, #405, .T. ) ;
#309 = VECTOR ( 'NONE', #303, 1000.000000000000000 ) ;
#310 = CARTESIAN_POINT ( 'NONE',  ( 2.800000000000000266, 1.800000000000000044, -1.299999999999999600 ) ) ;
#311 = COORDINATED_UNIVERSAL_TIME_OFFSET ( 8, 0, .AHEAD. ) ;
#312 = EDGE_LOOP ( 'NONE', ( #468, #229, #91, #351 ) ) ;
#313 = DIRECTION ( 'NONE',  ( -0.000000000000000000, -0.000000000000000000, 1.000000000000000000 ) ) ;
#314 = CALENDAR_DATE ( 2026, 22, 3 ) ;
#315 = EDGE_LOOP ( 'NONE', ( #16, #73, #461 ) ) ;
#316 = APPROVAL_PERSON_ORGANIZATION ( #444, #450, #29 ) ;
#317 = PRODUCT_DEFINITION_SHAPE ( 'NONE', 'NONE',  #498 ) ;
#318 = LINE ( 'NONE', #454, #528 ) ;
#319 = DIRECTION ( 'NONE',  ( 0.000000000000000000, 1.000000000000000000, 0.000000000000000000 ) ) ;
#320 = ORIENTED_EDGE ( 'NONE', *, *, #475, .F. ) ;
#321 = CARTESIAN_POINT ( 'NONE',  ( -2.999999999999998668, 1.800000000000000044, 1.500000000000000444 ) ) ;
#322 = CALENDAR_DATE ( 2026, 22, 3 ) ;
#323 = ORIENTED_EDGE ( 'NONE', *, *, #233, .F. ) ;
#324 = EDGE_CURVE ( 'NONE', #536, #526, #531, .T. ) ;
#325 = CYLINDRICAL_SURFACE ( 'NONE', #159, 0.2000000000000000944 ) ;
#326 = DIRECTION ( 'NONE',  ( 1.000000000000000000, 0.000000000000000000, 0.000000000000000000 ) ) ;
#327 = CARTESIAN_POINT ( 'NONE',  ( 2.799999999999999822, 1.800000000000000044, -1.299999999999999600 ) ) ;
#328 = PRODUCT_RELATED_PRODUCT_CATEGORY ( 'detail', '', ( #400 ) ) ;
#329 = EDGE_LOOP ( 'NONE', ( #336, #481, #275, #226 ) ) ;
#330 = PRODUCT_DEFINITION_FORMATION_WITH_SPECIFIED_SOURCE ( 'ANY', '', #400, .NOT_KNOWN. ) ;
#331 = EDGE_LOOP ( 'NONE', ( #69, #291, #145, #278 ) ) ;
#332 = AXIS2_PLACEMENT_3D ( 'NONE', #401, #431, #20 ) ;
#333 = CARTESIAN_POINT ( 'NONE',  ( 3.000000000000000444, 1.800000000000000044, -1.499999999999999556 ) ) ;
#334 = FACE_OUTER_BOUND ( 'NONE', #356, .T. ) ;
#335 = EDGE_CURVE ( 'NONE', #237, #162, #161, .T. ) ;
#336 = ORIENTED_EDGE ( 'NONE', *, *, #99, .T. ) ;
#337 = LINE ( 'NONE', #45, #304 ) ;
#338 = CARTESIAN_POINT ( 'NONE',  ( 2.799999999999999822, 0.000000000000000000, -1.499999999999999556 ) ) ;
#339 = CIRCLE ( 'NONE', #495, 0.2000000000000000944 ) ;
#340 = DIRECTION ( 'NONE',  ( 0.000000000000000000, -1.000000000000000000, 0.000000000000000000 ) ) ;
#341 = ORIENTED_EDGE ( 'NONE', *, *, #363, .F. ) ;
#342 = ADVANCED_FACE ( 'NONE', ( #281 ), #122, .T. ) ;
#343 = CARTESIAN_POINT ( 'NONE',  ( -2.999999999999999556, 2.000000000000000000, -1.299999999999999600 ) ) ;
#344 = APPLICATION_CONTEXT ( 'configuration controlled 3d designs of mechanical parts and assemblies' ) ;
#345 = CARTESIAN_POINT ( 'NONE',  ( 2.799999999999999822, 2.000000000000000000, -1.499999999999999556 ) ) ;
#346 = CC_DESIGN_PERSON_AND_ORGANIZATION_ASSIGNMENT ( #105, #225, ( #330 ) ) ;
#347 = CARTESIAN_POINT ( 'NONE',  ( 2.800000000000001155, 2.000000000000000000, 1.300000000000000266 ) ) ;
#348 = LINE ( 'NONE', #13, #218 ) ;
#349 = DIRECTION ( 'NONE',  ( 1.000000000000000000, 0.000000000000000000, 0.000000000000000000 ) ) ;
#350 = AXIS2_PLACEMENT_3D ( 'NONE', #510, #1, #539 ) ;
#351 = ORIENTED_EDGE ( 'NONE', *, *, #324, .F. ) ;
#352 = DIRECTION ( 'NONE',  ( 0.000000000000000000, -1.000000000000000000, 0.000000000000000000 ) ) ;
#353 = CALENDAR_DATE ( 2026, 22, 3 ) ;
#354 = DIRECTION ( 'NONE',  ( 1.000000000000000000, 0.000000000000000000, 0.000000000000000000 ) ) ;
#355 = APPROVAL_ROLE ( '' ) ;
#356 = EDGE_LOOP ( 'NONE', ( #124, #134, #445 ) ) ;
#357 = CARTESIAN_POINT ( 'NONE',  ( -2.999999999999999556, 2.000000000000000000, -1.499999999999999556 ) ) ;
#358 = DIRECTION ( 'NONE',  ( 0.000000000000000000, 0.000000000000000000, -1.000000000000000000 ) ) ;
#359 = ORIENTED_EDGE ( 'NONE', *, *, #9, .T. ) ;
#360 = CARTESIAN_POINT ( 'NONE',  ( 3.000000000000000444, 2.000000000000000000, -1.299999999999999600 ) ) ;
#361 = AXIS2_PLACEMENT_3D ( 'NONE', #71, #143, #27 ) ;
#362 = CARTESIAN_POINT ( 'NONE',  ( 2.800000000000000266, 2.000000000000000000, -1.299999999999999600 ) ) ;
#363 = EDGE_CURVE ( 'NONE', #288, #507, #203, .T. ) ;
#364 = EDGE_CURVE ( 'NONE', #449, #248, #318, .T. ) ;
#365 = DIRECTION ( 'NONE',  ( 0.000000000000000000, 0.000000000000000000, 1.000000000000000000 ) ) ;
#366 = ORIENTED_EDGE ( 'NONE', *, *, #394, .F. ) ;
#367 = DIRECTION ( 'NONE',  ( -2.891205793294678326E-16, -0.000000000000000000, -1.000000000000000000 ) ) ;
#368 = AXIS2_PLACEMENT_3D ( 'NONE', #153, #483, #123 ) ;
#369 = DIRECTION ( 'NONE',  ( -1.000000000000000000, -0.000000000000000000, -0.000000000000000000 ) ) ;
#370 = CARTESIAN_POINT ( 'NONE',  ( 2.800000000000001155, 0.000000000000000000, 1.300000000000000266 ) ) ;
#371 = FACE_OUTER_BOUND ( 'NONE', #40, .T. ) ;
#372 = ORIENTED_EDGE ( 'NONE', *, *, #511, .F. ) ;
#373 = EDGE_LOOP ( 'NONE', ( #50, #497, #56, #3 ) ) ;
#374 = APPROVAL_PERSON_ORGANIZATION ( #476, #462, #63 ) ;
#375 = CARTESIAN_POINT ( 'NONE',  ( 2.800000000000001155, 1.800000000000000044, 1.300000000000000266 ) ) ;
#376 = ADVANCED_FACE ( 'NONE', ( #371 ), #523, .T. ) ;
#377 = DIRECTION ( 'NONE',  ( 1.000000000000000000, -0.000000000000000000, -0.000000000000000000 ) ) ;
#378 = CARTESIAN_POINT ( 'NONE',  ( -2.799999999999999378, 0.000000000000000000, -1.299999999999999600 ) ) ;
#379 = AXIS2_PLACEMENT_3D ( 'NONE', #310, #271, #146 ) ;
#380 = CYLINDRICAL_SURFACE ( 'NONE', #254, 0.2000000000000000944 ) ;
#381 = ORIENTED_EDGE ( 'NONE', *, *, #305, .T. ) ;
#382 = ADVANCED_FACE ( 'NONE', ( #112 ), #527, .F. ) ;
#383 = CARTESIAN_POINT ( 'NONE',  ( 2.800000000000001155, 2.000000000000000000, 1.300000000000000266 ) ) ;
#384 = CARTESIAN_POINT ( 'NONE',  ( -2.999999999999999556, 0.000000000000000000, -1.499999999999999556 ) ) ;
#385 = ADVANCED_FACE ( 'NONE', ( #234 ), #325, .T. ) ;
#386 = CARTESIAN_POINT ( 'NONE',  ( -2.999999999999998668, 1.800000000000000044, 1.300000000000000266 ) ) ;
#387 = LINE ( 'NONE', #504, #28 ) ;
#388 = CARTESIAN_POINT ( 'NONE',  ( 0.000000000000000000, 2.000000000000000000, 0.000000000000000000 ) ) ;
#389 = MANIFOLD_SOLID_BREP ( '\X2\570689d2\X0\1', #131 ) ;
#390 = SHAPE_DEFINITION_REPRESENTATION ( #317, #473 ) ;
#391 = ORIENTED_EDGE ( 'NONE', *, *, #364, .T. ) ;
#392 = VECTOR ( 'NONE', #367, 1000.000000000000000 ) ;
#393 = CARTESIAN_POINT ( 'NONE',  ( -2.799999999999999378, 2.000000000000000000, -1.299999999999999600 ) ) ;
#394 = EDGE_CURVE ( 'NONE', #507, #412, #490, .T. ) ;
#395 = PERSON_AND_ORGANIZATION_ROLE ( 'creator' ) ;
#396 = ORIENTED_EDGE ( 'NONE', *, *, #99, .F. ) ;
#397 = DIRECTION ( 'NONE',  ( 0.000000000000000000, 1.000000000000000000, 0.000000000000000000 ) ) ;
#398 = CALENDAR_DATE ( 2026, 22, 3 ) ;
#399 = ORIENTED_EDGE ( 'NONE', *, *, #119, .T. ) ;
#400 = PRODUCT ( 'BAR3X6T2', 'BAR3X6T2', '', ( #236 ) ) ;
#401 = CARTESIAN_POINT ( 'NONE',  ( -2.799999999999998490, 1.800000000000000044, 1.300000000000000266 ) ) ;
#402 = COORDINATED_UNIVERSAL_TIME_OFFSET ( 8, 0, .AHEAD. ) ;
#403 = ORIENTED_EDGE ( 'NONE', *, *, #485, .T. ) ;
#404 = CARTESIAN_POINT ( 'NONE',  ( 2.800000000000000711, 2.000000000000000000, 1.500000000000000444 ) ) ;
#405 = EDGE_CURVE ( 'NONE', #248, #78, #26, .T. ) ;
#406 = DIRECTION ( 'NONE',  ( 0.000000000000000000, 0.000000000000000000, -1.000000000000000000 ) ) ;
#407 = PERSON_AND_ORGANIZATION_ROLE ( 'creator' ) ;
#408 = ORIENTED_EDGE ( 'NONE', *, *, #33, .F. ) ;
#409 = DIRECTION ( 'NONE',  ( -1.000000000000000000, 0.000000000000000000, 0.000000000000000000 ) ) ;
#410 = CC_DESIGN_DATE_AND_TIME_ASSIGNMENT ( #17, #228, ( #498 ) ) ;
#411 = VECTOR ( 'NONE', #463, 1000.000000000000000 ) ;
#412 = VERTEX_POINT ( 'NONE', #487 ) ;
#413 = PLANE ( 'NONE',  #470 ) ;
#414 = VECTOR ( 'NONE', #62, 1000.000000000000000 ) ;
#415 = CARTESIAN_POINT ( 'NONE',  ( -2.999999999999999556, 2.000000000000000000, -1.499999999999999556 ) ) ;
#416 = LOCAL_TIME ( 14, 39, 2.000000000000000000, #437 ) ;
#417 = CARTESIAN_POINT ( 'NONE',  ( -2.799999999999999378, 1.800000000000000044, -1.299999999999999600 ) ) ;
#418 = VERTEX_POINT ( 'NONE', #117 ) ;
#419 = ADVANCED_FACE ( 'NONE', ( #82 ), #413, .F. ) ;
#420 = ORIENTED_EDGE ( 'NONE', *, *, #142, .F. ) ;
#421 = VECTOR ( 'NONE', #369, 1000.000000000000000 ) ;
#422 = CARTESIAN_POINT ( 'NONE',  ( 2.800000000000000711, 1.800000000000000044, -8.095376221225102075E-16 ) ) ;
#423 = CARTESIAN_POINT ( 'NONE',  ( -2.799999999999998490, 0.000000000000000000, 1.300000000000000266 ) ) ;
#424 = CARTESIAN_POINT ( 'NONE',  ( 0.000000000000000000, 1.800000000000000044, 1.300000000000000266 ) ) ;
#425 = DIRECTION ( 'NONE',  ( 0.000000000000000000, 1.000000000000000000, 0.000000000000000000 ) ) ;
#426 = CIRCLE ( 'NONE', #465, 0.2000000000000000944 ) ;
#427 = DIRECTION ( 'NONE',  ( 1.000000000000000000, -0.000000000000000000, 0.000000000000000000 ) ) ;
#428 = APPLICATION_CONTEXT ( 'configuration controlled 3d designs of mechanical parts and assemblies' ) ;
#429 = CIRCLE ( 'NONE', #457, 0.2000000000000000944 ) ;
#430 = ORIENTED_EDGE ( 'NONE', *, *, #75, .F. ) ;
#431 = DIRECTION ( 'NONE',  ( 1.000000000000000000, -0.000000000000000000, -0.000000000000000000 ) ) ;
#432 = SECURITY_CLASSIFICATION_LEVEL ( 'unclassified' ) ;
#433 = ORIENTED_EDGE ( 'NONE', *, *, #302, .T. ) ;
#434 = EDGE_CURVE ( 'NONE', #25, #111, #81, .T. ) ;
#435 = CARTESIAN_POINT ( 'NONE',  ( -2.999999999999998668, 0.000000000000000000, 1.300000000000000266 ) ) ;
#436 = EDGE_CURVE ( 'NONE', #2, #248, #506, .T. ) ;
#437 = COORDINATED_UNIVERSAL_TIME_OFFSET ( 8, 0, .AHEAD. ) ;
#438 = UNCERTAINTY_MEASURE_WITH_UNIT (LENGTH_MEASURE( 1.000000000000000082E-05 ), #296, 'distance_accuracy_value', 'NONE');
#439 = CARTESIAN_POINT ( 'NONE',  ( -2.999999999999999556, 0.000000000000000000, -1.299999999999999600 ) ) ;
#440 = CARTESIAN_POINT ( 'NONE',  ( 0.000000000000000000, 0.000000000000000000, 0.000000000000000000 ) ) ;
#441 = ORIENTED_EDGE ( 'NONE', *, *, #446, .F. ) ;
#442 = CARTESIAN_POINT ( 'NONE',  ( -2.799999999999999378, 2.000000000000000000, -1.499999999999999556 ) ) ;
#443 = AXIS2_PLACEMENT_3D ( 'NONE', #55, #90, #133 ) ;
#444 = PERSON_AND_ORGANIZATION ( #522, #121 ) ;
#445 = ORIENTED_EDGE ( 'NONE', *, *, #165, .F. ) ;
#446 = EDGE_CURVE ( 'NONE', #111, #536, #217, .T. ) ;
#447 = DIRECTION ( 'NONE',  ( 2.891205793294678326E-16, -0.000000000000000000, 1.000000000000000000 ) ) ;
#448 = FACE_OUTER_BOUND ( 'NONE', #373, .T. ) ;
#449 = VERTEX_POINT ( 'NONE', #92 ) ;
#450 = APPROVAL ( #147, 'UNSPECIFIED' ) ;
#451 = DIRECTION ( 'NONE',  ( 0.000000000000000000, 0.000000000000000000, -1.000000000000000000 ) ) ;
#452 = ORIENTED_EDGE ( 'NONE', *, *, #75, .T. ) ;
#453 = DIRECTION ( 'NONE',  ( -0.000000000000000000, 1.000000000000000000, -0.000000000000000000 ) ) ;
#454 = CARTESIAN_POINT ( 'NONE',  ( 3.000000000000000444, 0.000000000000000000, -1.499999999999999556 ) ) ;
#455 = CARTESIAN_POINT ( 'NONE',  ( 2.799999999999999822, 2.000000000000000000, -1.299999999999999600 ) ) ;
#456 = CC_DESIGN_SECURITY_CLASSIFICATION ( #139, ( #330 ) ) ;
#457 = AXIS2_PLACEMENT_3D ( 'NONE', #466, #89, #47 ) ;
#458 = ORIENTED_EDGE ( 'NONE', *, *, #9, .F. ) ;
#459 = EDGE_CURVE ( 'NONE', #237, #488, #107, .T. ) ;
#460 = ADVANCED_FACE ( 'NONE', ( #258 ), #88, .T. ) ;
#461 = ORIENTED_EDGE ( 'NONE', *, *, #242, .F. ) ;
#462 = APPROVAL ( #68, 'UNSPECIFIED' ) ;
#463 = DIRECTION ( 'NONE',  ( -2.891205793294678326E-16, 0.000000000000000000, -1.000000000000000000 ) ) ;
#464 = DIRECTION ( 'NONE',  ( 0.000000000000000000, 1.000000000000000000, 0.000000000000000000 ) ) ;
#465 = AXIS2_PLACEMENT_3D ( 'NONE', #417, #409, #149 ) ;
#466 = CARTESIAN_POINT ( 'NONE',  ( -2.799999999999998490, 1.800000000000000044, 1.300000000000000266 ) ) ;
#467 = CIRCLE ( 'NONE', #474, 0.2000000000000000944 ) ;
#468 = ORIENTED_EDGE ( 'NONE', *, *, #242, .T. ) ;
#469 = CARTESIAN_POINT ( 'NONE',  ( -2.799999999999998490, 1.800000000000000044, 1.300000000000000266 ) ) ;
#470 = AXIS2_PLACEMENT_3D ( 'NONE', #415, #36, #202 ) ;
#471 = CARTESIAN_POINT ( 'NONE',  ( -2.799999999999999378, 1.800000000000000044, -1.299999999999999600 ) ) ;
#472 = FACE_OUTER_BOUND ( 'NONE', #185, .T. ) ;
#473 = ADVANCED_BREP_SHAPE_REPRESENTATION ( 'BAR3X6T2', ( #389, #176 ), #209 ) ;
#474 = AXIS2_PLACEMENT_3D ( 'NONE', #265, #186, #154 ) ;
#475 = EDGE_CURVE ( 'NONE', #64, #418, #294, .T. ) ;
#476 = PERSON_AND_ORGANIZATION ( #522, #121 ) ;
#477 = ORIENTED_EDGE ( 'NONE', *, *, #293, .F. ) ;
#478 = APPROVAL_DATE_TIME ( #141, #450 ) ;
#479 = LINE ( 'NONE', #100, #101 ) ;
#480 = APPROVAL_PERSON_ORGANIZATION ( #307, #14, #355 ) ;
#481 = ORIENTED_EDGE ( 'NONE', *, *, #284, .F. ) ;
#482 = CIRCLE ( 'NONE', #167, 0.2000000000000000944 ) ;
#483 = DIRECTION ( 'NONE',  ( 0.000000000000000000, -1.000000000000000000, 0.000000000000000000 ) ) ;
#484 = CARTESIAN_POINT ( 'NONE',  ( -2.999999999999998668, 2.000000000000000000, 1.300000000000000266 ) ) ;
#485 = EDGE_CURVE ( 'NONE', #418, #237, #387, .T. ) ;
#486 = EDGE_LOOP ( 'NONE', ( #114, #179, #477, #441 ) ) ;
#487 = CARTESIAN_POINT ( 'NONE',  ( 2.800000000000001155, 1.800000000000000044, 1.500000000000000444 ) ) ;
#488 = VERTEX_POINT ( 'NONE', #180 ) ;
#489 = DIRECTION ( 'NONE',  ( -1.000000000000000000, 0.000000000000000000, 2.891205793294676847E-16 ) ) ;
#490 = LINE ( 'NONE', #404, #12 ) ;
#491 = DIRECTION ( 'NONE',  ( 1.000000000000000000, -2.168404344971008079E-15, 0.000000000000000000 ) ) ;
#492 = ORIENTED_EDGE ( 'NONE', *, *, #263, .T. ) ;
#493 = AXIS2_PLACEMENT_3D ( 'NONE', #74, #282, #238 ) ;
#494 = ADVANCED_FACE ( 'NONE', ( #334 ), #48, .T. ) ;
#495 = AXIS2_PLACEMENT_3D ( 'NONE', #423, #98, #172 ) ;
#496 = CIRCLE ( 'NONE', #521, 0.2000000000000000944 ) ;
#497 = ORIENTED_EDGE ( 'NONE', *, *, #201, .T. ) ;
#498 = PRODUCT_DEFINITION ( 'UNKNOWN', '', #330, #24 ) ;
#499 = LINE ( 'NONE', #345, #178 ) ;
#500 = AXIS2_PLACEMENT_3D ( 'NONE', #393, #352, #358 ) ;
#501 = FACE_OUTER_BOUND ( 'NONE', #329, .T. ) ;
#502 = DIRECTION ( 'NONE',  ( 0.000000000000000000, 0.000000000000000000, -1.000000000000000000 ) ) ;
#503 = SPHERICAL_SURFACE ( 'NONE', #264, 0.2000000000000000111 ) ;
#504 = CARTESIAN_POINT ( 'NONE',  ( -2.999999999999999556, 2.000000000000000000, -1.299999999999999600 ) ) ;
#505 = ORIENTED_EDGE ( 'NONE', *, *, #115, .T. ) ;
#506 = CIRCLE ( 'NONE', #443, 0.2000000000000000944 ) ;
#507 = VERTEX_POINT ( 'NONE', #214 ) ;
#508 = DIRECTION ( 'NONE',  ( 0.000000000000000000, 0.000000000000000000, 1.000000000000000000 ) ) ;
#509 = FACE_OUTER_BOUND ( 'NONE', #103, .T. ) ;
#510 = CARTESIAN_POINT ( 'NONE',  ( 2.800000000000000266, 1.800000000000000044, -1.299999999999999600 ) ) ;
#511 = EDGE_CURVE ( 'NONE', #288, #162, #339, .T. ) ;
#512 = DIRECTION ( 'NONE',  ( 0.000000000000000000, -1.000000000000000000, 0.000000000000000000 ) ) ;
#513 = CC_DESIGN_APPROVAL ( #14, ( #139 ) ) ;
#514 = PERSON_AND_ORGANIZATION_ROLE ( 'design_owner' ) ;
#515 = ORIENTED_EDGE ( 'NONE', *, *, #127, .F. ) ;
#516 = DIRECTION ( 'NONE',  ( -0.000000000000000000, -0.000000000000000000, 1.000000000000000000 ) ) ;
#517 = CARTESIAN_POINT ( 'NONE',  ( -2.799999999999999378, 1.800000000000000044, -1.299999999999999600 ) ) ;
#518 = PERSON_AND_ORGANIZATION ( #522, #121 ) ;
#519 = ORIENTED_EDGE ( 'NONE', *, *, #201, .F. ) ;
#520 = ORIENTED_EDGE ( 'NONE', *, *, #335, .T. ) ;
#521 = AXIS2_PLACEMENT_3D ( 'NONE', #375, #41, #168 ) ;
#522 = PERSON ( 'UNSPECIFIED', 'UNSPECIFIED', 'UNSPECIFIED', ('UNSPECIFIED'), ('UNSPECIFIED'), ('UNSPECIFIED') ) ;
#523 = CYLINDRICAL_SURFACE ( 'NONE', #368, 0.2000000000000000944 ) ;
#524 = CARTESIAN_POINT ( 'NONE',  ( -2.799999999999998490, 1.800000000000000044, 1.500000000000000444 ) ) ;
#525 = DATE_AND_TIME ( #156, #51 ) ;
#526 = VERTEX_POINT ( 'NONE', #11 ) ;
#527 = PLANE ( 'NONE',  #60 ) ;
#528 = VECTOR ( 'NONE', #70, 1000.000000000000000 ) ;
#529 = EDGE_CURVE ( 'NONE', #2, #488, #261, .T. ) ;
#530 = EDGE_CURVE ( 'NONE', #526, #84, #337, .T. ) ;
#531 = LINE ( 'NONE', #80, #97 ) ;
#532 = CARTESIAN_POINT ( 'NONE',  ( -2.999999999999999556, 0.000000000000000000, -1.499999999999999556 ) ) ;
#533 = ADVANCED_FACE ( 'NONE', ( #183 ), #175, .T. ) ;
#534 = ORIENTED_EDGE ( 'NONE', *, *, #119, .F. ) ;
#535 = CC_DESIGN_PERSON_AND_ORGANIZATION_ASSIGNMENT ( #102, #395, ( #330 ) ) ;
#536 = VERTEX_POINT ( 'NONE', #138 ) ;
#537 = LOCAL_TIME ( 14, 39, 2.000000000000000000, #110 ) ;
#538 = ORIENTED_EDGE ( 'NONE', *, *, #43, .F. ) ;
#539 = DIRECTION ( 'NONE',  ( -1.000000000000000000, 0.000000000000000000, 2.168404344971008079E-15 ) ) ;
#540 = ORIENTED_EDGE ( 'NONE', *, *, #165, .T. ) ;
#541 = CIRCLE ( 'NONE', #267, 0.2000000000000000944 ) ;
ENDSEC;
END-ISO-10303-21;
