ISO-10303-21;
HEADER;
FILE_DESCRIPTION (( 'STEP AP203' ),
    '1' );
FILE_NAME ('BAR3X18T1.step',
    '2026-03-22T05:37:49',
    ( '' ),
    ( '' ),
    'SwSTEP 2.0',
    'SolidWorks 2025',
    '' );
FILE_SCHEMA (( 'CONFIG_CONTROL_DESIGN' ));
ENDSEC;

DATA;
#1 = APPROVAL_PERSON_ORGANIZATION ( #146, #357, #480 ) ;
#2 = CIRCLE ( 'NONE', #270, 0.2000000000000005107 ) ;
#3 = ADVANCED_FACE ( 'NONE', ( #131 ), #46, .T. ) ;
#4 = DIRECTION ( 'NONE',  ( 1.000000000000000000, -0.000000000000000000, 0.000000000000000000 ) ) ;
#5 = SPHERICAL_SURFACE ( 'NONE', #135, 0.2000000000000000111 ) ;
#6 = CIRCLE ( 'NONE', #128, 0.2000000000000005107 ) ;
#7 = PERSON ( 'UNSPECIFIED', 'UNSPECIFIED', 'UNSPECIFIED', ('UNSPECIFIED'), ('UNSPECIFIED'), ('UNSPECIFIED') ) ;
#8 = DIRECTION ( 'NONE',  ( 1.000000000000000000, 0.000000000000000000, 0.000000000000000000 ) ) ;
#9 = EDGE_LOOP ( 'NONE', ( #298, #218, #401 ) ) ;
#10 = VERTEX_POINT ( 'NONE', #432 ) ;
#11 = LINE ( 'NONE', #421, #158 ) ;
#12 = ORIENTED_EDGE ( 'NONE', *, *, #307, .T. ) ;
#13 = ADVANCED_FACE ( 'NONE', ( #52 ), #297, .F. ) ;
#14 = ADVANCED_FACE ( 'NONE', ( #471 ), #5, .T. ) ;
#15 = AXIS2_PLACEMENT_3D ( 'NONE', #94, #379, #474 ) ;
#16 = EDGE_CURVE ( 'NONE', #156, #179, #18, .T. ) ;
#17 = FACE_OUTER_BOUND ( 'NONE', #260, .T. ) ;
#18 = LINE ( 'NONE', #214, #436 ) ;
#19 = EDGE_CURVE ( 'NONE', #539, #483, #510, .T. ) ;
#20 = AXIS2_PLACEMENT_3D ( 'NONE', #196, #409, #162 ) ;
#21 = DIRECTION ( 'NONE',  ( 0.000000000000000000, 1.000000000000000000, 0.000000000000000000 ) ) ;
#22 = DIRECTION ( 'NONE',  ( 0.000000000000000000, 0.000000000000000000, -1.000000000000000000 ) ) ;
#23 = CARTESIAN_POINT ( 'NONE',  ( 8.799999999999998934, 0.000000000000000000, 1.299999999999999600 ) ) ;
#24 = MANIFOLD_SOLID_BREP ( '\X2\570689d2\X0\1', #180 ) ;
#25 = CARTESIAN_POINT ( 'NONE',  ( -8.799999999999998934, 0.8000000000000000444, 1.299999999999999600 ) ) ;
#26 = FACE_OUTER_BOUND ( 'NONE', #92, .T. ) ;
#27 = VERTEX_POINT ( 'NONE', #310 ) ;
#28 = ORIENTED_EDGE ( 'NONE', *, *, #458, .T. ) ;
#29 = CARTESIAN_POINT ( 'NONE',  ( 8.799999999999998934, 0.8000000000000000444, -1.300000000000000266 ) ) ;
#30 = AXIS2_PLACEMENT_3D ( 'NONE', #54, #139, #464 ) ;
#31 = DIRECTION ( 'NONE',  ( -0.000000000000000000, 1.000000000000000000, -0.000000000000000000 ) ) ;
#32 = EDGE_LOOP ( 'NONE', ( #467, #443, #240, #59 ) ) ;
#33 = CARTESIAN_POINT ( 'NONE',  ( 8.799999999999997158, 0.000000000000000000, -1.300000000000000266 ) ) ;
#34 = LINE ( 'NONE', #188, #103 ) ;
#35 = CIRCLE ( 'NONE', #295, 0.2000000000000005107 ) ;
#36 = CALENDAR_DATE ( 2026, 22, 3 ) ;
#37 = ORIENTED_EDGE ( 'NONE', *, *, #16, .F. ) ;
#38 = LINE ( 'NONE', #42, #293 ) ;
#39 = ORIENTED_EDGE ( 'NONE', *, *, #210, .T. ) ;
#40 = CC_DESIGN_DATE_AND_TIME_ASSIGNMENT ( #460, #122, ( #70 ) ) ;
#41 = DATE_AND_TIME ( #36, #309 ) ;
#42 = CARTESIAN_POINT ( 'NONE',  ( 8.799999999999997158, 1.000000000000000000, 1.499999999999999556 ) ) ;
#43 = AXIS2_PLACEMENT_3D ( 'NONE', #314, #481, #276 ) ;
#44 = ADVANCED_FACE ( 'NONE', ( #91 ), #221, .F. ) ;
#45 = LINE ( 'NONE', #222, #272 ) ;
#46 = CYLINDRICAL_SURFACE ( 'NONE', #511, 0.2000000000000000944 ) ;
#47 = LINE ( 'NONE', #217, #433 ) ;
#48 = DIRECTION ( 'NONE',  ( 0.000000000000000000, 0.000000000000000000, 1.000000000000000000 ) ) ;
#49 = PRODUCT_DEFINITION_SHAPE ( 'NONE', 'NONE',  #186 ) ;
#50 = ORIENTED_EDGE ( 'NONE', *, *, #356, .T. ) ;
#51 = DIRECTION ( 'NONE',  ( 0.000000000000000000, 1.000000000000000000, 0.000000000000000000 ) ) ;
#52 = FACE_OUTER_BOUND ( 'NONE', #361, .T. ) ;
#53 = ADVANCED_FACE ( 'NONE', ( #424 ), #134, .T. ) ;
#54 = CARTESIAN_POINT ( 'NONE',  ( -9.000000000000000000, 1.000000000000000000, -1.500000000000000444 ) ) ;
#55 = EDGE_CURVE ( 'NONE', #435, #10, #79, .T. ) ;
#56 = AXIS2_PLACEMENT_3D ( 'NONE', #289, #369, #536 ) ;
#57 = ORIENTED_EDGE ( 'NONE', *, *, #169, .T. ) ;
#58 = APPROVAL_DATE_TIME ( #434, #95 ) ;
#59 = ORIENTED_EDGE ( 'NONE', *, *, #142, .F. ) ;
#60 = CALENDAR_DATE ( 2026, 22, 3 ) ;
#61 = AXIS2_PLACEMENT_3D ( 'NONE', #501, #116, #453 ) ;
#62 = SPHERICAL_SURFACE ( 'NONE', #20, 0.2000000000000000111 ) ;
#63 = LINE ( 'NONE', #231, #420 ) ;
#64 = ADVANCED_FACE ( 'NONE', ( #456 ), #533, .T. ) ;
#65 = DIRECTION ( 'NONE',  ( 1.000000000000000000, -0.000000000000000000, -0.000000000000000000 ) ) ;
#66 = ADVANCED_FACE ( 'NONE', ( #69 ), #417, .F. ) ;
#67 = ORIENTED_EDGE ( 'NONE', *, *, #199, .T. ) ;
#68 = ORIENTED_EDGE ( 'NONE', *, *, #419, .F. ) ;
#69 = FACE_OUTER_BOUND ( 'NONE', #288, .T. ) ;
#70 = SECURITY_CLASSIFICATION ( '', '', #500 ) ;
#71 = FACE_OUTER_BOUND ( 'NONE', #400, .T. ) ;
#72 = ORIENTED_EDGE ( 'NONE', *, *, #169, .F. ) ;
#73 = CARTESIAN_POINT ( 'NONE',  ( 8.799999999999998934, 0.8000000000000000444, -1.300000000000000266 ) ) ;
#74 = AXIS2_PLACEMENT_3D ( 'NONE', #246, #499, #124 ) ;
#75 = LINE ( 'NONE', #534, #477 ) ;
#76 = PERSON_AND_ORGANIZATION_ROLE ( 'classification_officer' ) ;
#77 = ORIENTED_EDGE ( 'NONE', *, *, #101, .T. ) ;
#78 = CC_DESIGN_APPROVAL ( #344, ( #70 ) ) ;
#79 = LINE ( 'NONE', #362, #387 ) ;
#80 = DIRECTION ( 'NONE',  ( 1.000000000000000000, -8.673617379884037050E-15, 0.000000000000000000 ) ) ;
#81 = PERSON_AND_ORGANIZATION ( #7, #396 ) ;
#82 = ORIENTED_EDGE ( 'NONE', *, *, #490, .F. ) ;
#83 = DIRECTION ( 'NONE',  ( 0.000000000000000000, 0.000000000000000000, 1.000000000000000000 ) ) ;
#84 = CALENDAR_DATE ( 2026, 22, 3 ) ;
#85 = DIRECTION ( 'NONE',  ( -0.000000000000000000, -0.000000000000000000, 1.000000000000000000 ) ) ;
#86 = PERSON_AND_ORGANIZATION ( #7, #396 ) ;
#87 = VECTOR ( 'NONE', #363, 1000.000000000000000 ) ;
#88 = LINE ( 'NONE', #308, #100 ) ;
#89 =( GEOMETRIC_REPRESENTATION_CONTEXT ( 3 ) GLOBAL_UNCERTAINTY_ASSIGNED_CONTEXT ( ( #304 ) ) GLOBAL_UNIT_ASSIGNED_CONTEXT ( ( #531, #189, #399 ) ) REPRESENTATION_CONTEXT ( 'NONE', 'WORKASPACE' ) );
#90 = DIRECTION ( 'NONE',  ( 0.000000000000000000, 0.000000000000000000, 1.000000000000000000 ) ) ;
#91 = FACE_OUTER_BOUND ( 'NONE', #115, .T. ) ;
#92 = EDGE_LOOP ( 'NONE', ( #67, #234, #72 ) ) ;
#93 = DIRECTION ( 'NONE',  ( -1.000000000000000000, -0.000000000000000000, -0.000000000000000000 ) ) ;
#94 = CARTESIAN_POINT ( 'NONE',  ( 0.000000000000000000, 0.000000000000000000, 0.000000000000000000 ) ) ;
#95 = APPROVAL ( #438, 'UNSPECIFIED' ) ;
#96 = FACE_OUTER_BOUND ( 'NONE', #198, .T. ) ;
#97 = ORIENTED_EDGE ( 'NONE', *, *, #395, .T. ) ;
#98 = DIRECTION ( 'NONE',  ( -0.000000000000000000, -1.000000000000000000, -0.000000000000000000 ) ) ;
#99 = ORIENTED_EDGE ( 'NONE', *, *, #109, .T. ) ;
#100 = VECTOR ( 'NONE', #428, 1000.000000000000000 ) ;
#101 = EDGE_CURVE ( 'NONE', #27, #179, #347, .T. ) ;
#102 = COORDINATED_UNIVERSAL_TIME_OFFSET ( 8, 0, .AHEAD. ) ;
#103 = VECTOR ( 'NONE', #413, 1000.000000000000000 ) ;
#104 = PERSON_AND_ORGANIZATION ( #7, #396 ) ;
#105 = APPROVAL_ROLE ( '' ) ;
#106 = AXIS2_PLACEMENT_3D ( 'NONE', #449, #120, #206 ) ;
#107 = ADVANCED_FACE ( 'NONE', ( #323 ), #241, .T. ) ;
#108 = DIRECTION ( 'NONE',  ( 1.000000000000000000, 0.000000000000000000, 0.000000000000000000 ) ) ;
#109 = EDGE_CURVE ( 'NONE', #512, #123, #125, .T. ) ;
#110 = VERTEX_POINT ( 'NONE', #283 ) ;
#111 = ORIENTED_EDGE ( 'NONE', *, *, #490, .T. ) ;
#112 = EDGE_CURVE ( 'NONE', #425, #483, #6, .T. ) ;
#113 = LINE ( 'NONE', #476, #335 ) ;
#114 = DIRECTION ( 'NONE',  ( -0.000000000000000000, 1.000000000000000000, -0.000000000000000000 ) ) ;
#115 = EDGE_LOOP ( 'NONE', ( #333, #498, #99, #494 ) ) ;
#116 = DIRECTION ( 'NONE',  ( 0.000000000000000000, -1.000000000000000000, 0.000000000000000000 ) ) ;
#117 = CIRCLE ( 'NONE', #491, 0.2000000000000000944 ) ;
#118 = FACE_OUTER_BOUND ( 'NONE', #360, .T. ) ;
#119 = ORIENTED_EDGE ( 'NONE', *, *, #390, .T. ) ;
#120 = DIRECTION ( 'NONE',  ( 0.000000000000000000, -1.000000000000000000, 0.000000000000000000 ) ) ;
#121 = DIRECTION ( 'NONE',  ( 1.000000000000000000, 0.000000000000000000, 0.000000000000000000 ) ) ;
#122 = DATE_TIME_ROLE ( 'classification_date' ) ;
#123 = VERTEX_POINT ( 'NONE', #415 ) ;
#124 = DIRECTION ( 'NONE',  ( 0.000000000000000000, 0.000000000000000000, 1.000000000000000000 ) ) ;
#125 = LINE ( 'NONE', #489, #538 ) ;
#126 = PERSON_AND_ORGANIZATION_ROLE ( 'creator' ) ;
#127 = EDGE_CURVE ( 'NONE', #110, #483, #385, .T. ) ;
#128 = AXIS2_PLACEMENT_3D ( 'NONE', #412, #161, #402 ) ;
#129 = AXIS2_PLACEMENT_3D ( 'NONE', #378, #513, #258 ) ;
#130 = DIRECTION ( 'NONE',  ( -1.000000000000000000, -0.000000000000000000, -0.000000000000000000 ) ) ;
#131 = FACE_OUTER_BOUND ( 'NONE', #32, .T. ) ;
#132 = CC_DESIGN_PERSON_AND_ORGANIZATION_ASSIGNMENT ( #329, #208, ( #235 ) ) ;
#133 = DIRECTION ( 'NONE',  ( -0.000000000000000000, 0.000000000000000000, 1.000000000000000000 ) ) ;
#134 = CYLINDRICAL_SURFACE ( 'NONE', #253, 0.2000000000000000944 ) ;
#135 = AXIS2_PLACEMENT_3D ( 'NONE', #469, #173, #223 ) ;
#136 = VERTEX_POINT ( 'NONE', #291 ) ;
#137 = DIRECTION ( 'NONE',  ( 1.000000000000000000, 0.000000000000000000, 0.000000000000000000 ) ) ;
#138 = DIRECTION ( 'NONE',  ( 0.000000000000000000, 0.000000000000000000, -1.000000000000000000 ) ) ;
#139 = DIRECTION ( 'NONE',  ( 0.000000000000000000, 0.000000000000000000, 1.000000000000000000 ) ) ;
#140 = CARTESIAN_POINT ( 'NONE',  ( -8.799999999999998934, 1.000000000000000000, -1.300000000000000266 ) ) ;
#141 = AXIS2_PLACEMENT_3D ( 'NONE', #149, #191, #478 ) ;
#142 = EDGE_CURVE ( 'NONE', #444, #300, #38, .T. ) ;
#143 = AXIS2_PLACEMENT_3D ( 'NONE', #73, #85, #407 ) ;
#144 = CC_DESIGN_SECURITY_CLASSIFICATION ( #70, ( #235 ) ) ;
#145 = DIRECTION ( 'NONE',  ( 2.602085213965209379E-14, 0.000000000000000000, 1.000000000000000000 ) ) ;
#146 = PERSON_AND_ORGANIZATION ( #7, #396 ) ;
#147 = CC_DESIGN_DATE_AND_TIME_ASSIGNMENT ( #274, #522, ( #186 ) ) ;
#148 = DIRECTION ( 'NONE',  ( 0.000000000000000000, -0.000000000000000000, 1.000000000000000000 ) ) ;
#149 = CARTESIAN_POINT ( 'NONE',  ( 0.000000000000000000, 0.000000000000000000, 0.000000000000000000 ) ) ;
#150 = ORIENTED_EDGE ( 'NONE', *, *, #209, .T. ) ;
#151 = ORIENTED_EDGE ( 'NONE', *, *, #440, .T. ) ;
#152 = ADVANCED_FACE ( 'NONE', ( #371 ), #540, .T. ) ;
#153 = VECTOR ( 'NONE', #4, 1000.000000000000000 ) ;
#154 = AXIS2_PLACEMENT_3D ( 'NONE', #33, #286, #83 ) ;
#155 = DIRECTION ( 'NONE',  ( 0.000000000000000000, 0.000000000000000000, 1.000000000000000000 ) ) ;
#156 = VERTEX_POINT ( 'NONE', #250 ) ;
#157 = DIRECTION ( 'NONE',  ( -1.000000000000000000, 0.000000000000000000, -0.000000000000000000 ) ) ;
#158 = VECTOR ( 'NONE', #133, 1000.000000000000000 ) ;
#159 = LINE ( 'NONE', #243, #506 ) ;
#160 = ORIENTED_EDGE ( 'NONE', *, *, #112, .T. ) ;
#161 = DIRECTION ( 'NONE',  ( -0.000000000000000000, -0.000000000000000000, 1.000000000000000000 ) ) ;
#162 = DIRECTION ( 'NONE',  ( -1.000000000000000000, 0.000000000000000000, 0.000000000000000000 ) ) ;
#163 = ORIENTED_EDGE ( 'NONE', *, *, #211, .T. ) ;
#164 = DIRECTION ( 'NONE',  ( -0.000000000000000000, 1.000000000000000000, -0.000000000000000000 ) ) ;
#165 = ORIENTED_EDGE ( 'NONE', *, *, #55, .T. ) ;
#166 = DIRECTION ( 'NONE',  ( 0.000000000000000000, 0.000000000000000000, -1.000000000000000000 ) ) ;
#167 = COORDINATED_UNIVERSAL_TIME_OFFSET ( 8, 0, .AHEAD. ) ;
#168 = EDGE_CURVE ( 'NONE', #10, #425, #204, .T. ) ;
#169 = EDGE_CURVE ( 'NONE', #512, #10, #525, .T. ) ;
#170 = CC_DESIGN_APPROVAL ( #95, ( #186 ) ) ;
#171 = AXIS2_PLACEMENT_3D ( 'NONE', #172, #51, #90 ) ;
#172 = CARTESIAN_POINT ( 'NONE',  ( 8.799999999999998934, 0.8000000000000000444, 1.299999999999999600 ) ) ;
#173 = DIRECTION ( 'NONE',  ( 0.000000000000000000, 1.000000000000000000, -0.000000000000000000 ) ) ;
#174 = CIRCLE ( 'NONE', #338, 0.2000000000000000944 ) ;
#175 = CARTESIAN_POINT ( 'NONE',  ( -9.000000000000000000, 0.8000000000000000444, 1.499999999999999556 ) ) ;
#176 = ORIENTED_EDGE ( 'NONE', *, *, #55, .F. ) ;
#177 = ORIENTED_EDGE ( 'NONE', *, *, #109, .F. ) ;
#178 = LINE ( 'NONE', #303, #153 ) ;
#179 = VERTEX_POINT ( 'NONE', #252 ) ;
#180 = CLOSED_SHELL ( 'NONE', ( #44, #294, #254, #66, #516, #13, #53, #380, #107, #439, #502, #64, #336, #450, #3, #14, #152, #398 ) ) ;
#181 = FACE_OUTER_BOUND ( 'NONE', #488, .T. ) ;
#182 = DIRECTION ( 'NONE',  ( 0.000000000000000000, -0.000000000000000000, -1.000000000000000000 ) ) ;
#183 = APPROVAL_PERSON_ORGANIZATION ( #104, #95, #105 ) ;
#184 = ORIENTED_EDGE ( 'NONE', *, *, #302, .F. ) ;
#185 = CARTESIAN_POINT ( 'NONE',  ( 8.799999999999997158, 0.8000000000000000444, -1.500000000000000444 ) ) ;
#186 = PRODUCT_DEFINITION ( 'UNKNOWN', '', #235, #275 ) ;
#187 = ORIENTED_EDGE ( 'NONE', *, *, #348, .F. ) ;
#188 = CARTESIAN_POINT ( 'NONE',  ( -8.799999999999998934, 1.000000000000000000, 1.499999999999999556 ) ) ;
#189 =( NAMED_UNIT ( * ) PLANE_ANGLE_UNIT ( ) SI_UNIT ( $, .RADIAN. ) );
#190 = DIRECTION ( 'NONE',  ( -1.000000000000000000, 0.000000000000000000, 0.000000000000000000 ) ) ;
#191 = DIRECTION ( 'NONE',  ( 0.000000000000000000, 0.000000000000000000, 1.000000000000000000 ) ) ;
#192 = EDGE_LOOP ( 'NONE', ( #57, #176, #410, #177 ) ) ;
#193 = ORIENTED_EDGE ( 'NONE', *, *, #307, .F. ) ;
#194 = DIRECTION ( 'NONE',  ( -0.000000000000000000, -0.000000000000000000, 1.000000000000000000 ) ) ;
#195 = CIRCLE ( 'NONE', #242, 0.2000000000000000944 ) ;
#196 = CARTESIAN_POINT ( 'NONE',  ( -8.799999999999998934, 0.8000000000000000444, -1.300000000000000266 ) ) ;
#197 = PERSON_AND_ORGANIZATION_ROLE ( 'design_owner' ) ;
#198 = EDGE_LOOP ( 'NONE', ( #406, #111, #330, #386 ) ) ;
#199 = EDGE_CURVE ( 'NONE', #512, #532, #375, .T. ) ;
#200 = DIRECTION ( 'NONE',  ( -0.000000000000000000, 1.000000000000000000, 0.000000000000000000 ) ) ;
#201 = AXIS2_PLACEMENT_3D ( 'NONE', #441, #121, #22 ) ;
#202 = DIRECTION ( 'NONE',  ( 8.673617379884035472E-15, 1.000000000000000000, 0.000000000000000000 ) ) ;
#203 = ORIENTED_EDGE ( 'NONE', *, *, #290, .T. ) ;
#204 = LINE ( 'NONE', #331, #224 ) ;
#205 = VERTEX_POINT ( 'NONE', #327 ) ;
#206 = DIRECTION ( 'NONE',  ( 0.000000000000000000, 0.000000000000000000, -1.000000000000000000 ) ) ;
#207 = VECTOR ( 'NONE', #182, 1000.000000000000000 ) ;
#208 = PERSON_AND_ORGANIZATION_ROLE ( 'design_supplier' ) ;
#209 = EDGE_CURVE ( 'NONE', #300, #245, #349, .T. ) ;
#210 = EDGE_CURVE ( 'NONE', #123, #435, #2, .T. ) ;
#211 = EDGE_CURVE ( 'NONE', #205, #427, #299, .T. ) ;
#212 = CC_DESIGN_APPROVAL ( #357, ( #235 ) ) ;
#213 = CARTESIAN_POINT ( 'NONE',  ( 9.000000000000000000, 1.000000000000000000, 1.299999999999999600 ) ) ;
#214 = CARTESIAN_POINT ( 'NONE',  ( 9.000000000000000000, 0.000000000000000000, -1.500000000000000444 ) ) ;
#215 = LOCAL_TIME ( 13, 37, 49.00000000000000000, #167 ) ;
#216 = PRODUCT ( 'BAR3X18T1', 'BAR3X18T1', '', ( #482 ) ) ;
#217 = CARTESIAN_POINT ( 'NONE',  ( -9.000000000000000000, 0.000000000000000000, 1.499999999999999556 ) ) ;
#218 = ORIENTED_EDGE ( 'NONE', *, *, #127, .T. ) ;
#219 = ORIENTED_EDGE ( 'NONE', *, *, #19, .T. ) ;
#220 = CARTESIAN_POINT ( 'NONE',  ( -8.799999999999998934, 0.000000000000000000, -1.300000000000000266 ) ) ;
#221 = PLANE ( 'NONE',  #416 ) ;
#222 = CARTESIAN_POINT ( 'NONE',  ( -9.000000000000000000, 0.000000000000000000, -1.500000000000000444 ) ) ;
#223 = DIRECTION ( 'NONE',  ( 0.000000000000000000, 0.000000000000000000, 1.000000000000000000 ) ) ;
#224 = VECTOR ( 'NONE', #237, 1000.000000000000000 ) ;
#225 = EDGE_CURVE ( 'NONE', #123, #156, #382, .T. ) ;
#226 = APPROVAL_PERSON_ORGANIZATION ( #86, #344, #255 ) ;
#227 = ORIENTED_EDGE ( 'NONE', *, *, #19, .F. ) ;
#228 = DIRECTION ( 'NONE',  ( 0.000000000000000000, 1.000000000000000000, 0.000000000000000000 ) ) ;
#229 = COORDINATED_UNIVERSAL_TIME_OFFSET ( 8, 0, .AHEAD. ) ;
#230 = CARTESIAN_POINT ( 'NONE',  ( -9.000000000000000000, 1.000000000000000000, -1.300000000000000266 ) ) ;
#231 = CARTESIAN_POINT ( 'NONE',  ( 9.000000000000000000, 1.000000000000000000, -1.300000000000000266 ) ) ;
#232 = DIRECTION ( 'NONE',  ( -1.000000000000000000, 0.000000000000000000, 0.000000000000000000 ) ) ;
#233 = DIRECTION ( 'NONE',  ( -1.000000000000000000, 0.000000000000000000, 8.673617379884013384E-15 ) ) ;
#234 = ORIENTED_EDGE ( 'NONE', *, *, #355, .T. ) ;
#235 = PRODUCT_DEFINITION_FORMATION_WITH_SPECIFIED_SOURCE ( 'ANY', '', #216, .NOT_KNOWN. ) ;
#236 = ORIENTED_EDGE ( 'NONE', *, *, #318, .F. ) ;
#237 = DIRECTION ( 'NONE',  ( -1.000000000000000000, 0.000000000000000000, 0.000000000000000000 ) ) ;
#238 = EDGE_CURVE ( 'NONE', #539, #245, #195, .T. ) ;
#239 = DIRECTION ( 'NONE',  ( 0.000000000000000000, 0.000000000000000000, 1.000000000000000000 ) ) ;
#240 = ORIENTED_EDGE ( 'NONE', *, *, #266, .F. ) ;
#241 = CYLINDRICAL_SURFACE ( 'NONE', #61, 0.2000000000000000944 ) ;
#242 = AXIS2_PLACEMENT_3D ( 'NONE', #465, #384, #468 ) ;
#243 = CARTESIAN_POINT ( 'NONE',  ( -9.000000000000000000, 1.000000000000000000, 1.299999999999999600 ) ) ;
#244 = APPROVAL_DATE_TIME ( #41, #357 ) ;
#245 = VERTEX_POINT ( 'NONE', #509 ) ;
#246 = CARTESIAN_POINT ( 'NONE',  ( -8.799999999999998934, 0.8000000000000000444, -1.300000000000000266 ) ) ;
#247 = AXIS2_PLACEMENT_3D ( 'NONE', #529, #80, #202 ) ;
#248 = DIRECTION ( 'NONE',  ( 0.000000000000000000, -0.000000000000000000, 1.000000000000000000 ) ) ;
#249 = ORIENTED_EDGE ( 'NONE', *, *, #390, .F. ) ;
#250 = CARTESIAN_POINT ( 'NONE',  ( 9.000000000000000000, 0.000000000000000000, 1.299999999999999600 ) ) ;
#251 = CC_DESIGN_PERSON_AND_ORGANIZATION_ASSIGNMENT ( #271, #197, ( #216 ) ) ;
#252 = CARTESIAN_POINT ( 'NONE',  ( 9.000000000000000000, 0.000000000000000000, -1.300000000000000266 ) ) ;
#253 = AXIS2_PLACEMENT_3D ( 'NONE', #140, #528, #166 ) ;
#254 = ADVANCED_FACE ( 'NONE', ( #181 ), #518, .F. ) ;
#255 = APPROVAL_ROLE ( '' ) ;
#256 = CIRCLE ( 'NONE', #520, 0.2000000000000000944 ) ;
#257 = DIRECTION ( 'NONE',  ( 0.000000000000000000, 0.000000000000000000, 1.000000000000000000 ) ) ;
#258 = DIRECTION ( 'NONE',  ( -1.000000000000000000, 0.000000000000000000, 0.000000000000000000 ) ) ;
#259 = CARTESIAN_POINT ( 'NONE',  ( 9.000000000000000000, 1.000000000000000000, -1.500000000000000444 ) ) ;
#260 = EDGE_LOOP ( 'NONE', ( #160, #227, #524, #193 ) ) ;
#261 = CARTESIAN_POINT ( 'NONE',  ( -9.000000000000000000, 1.000000000000000000, -1.500000000000000444 ) ) ;
#262 = CARTESIAN_POINT ( 'NONE',  ( -9.000000000000000000, 0.8000000000000000444, -1.500000000000000444 ) ) ;
#263 = CARTESIAN_POINT ( 'NONE',  ( 8.799999999999998934, 0.8000000000000000444, 1.299999999999999600 ) ) ;
#264 = EDGE_CURVE ( 'NONE', #136, #435, #178, .T. ) ;
#265 = EDGE_LOOP ( 'NONE', ( #414, #381, #429, #249 ) ) ;
#266 = EDGE_CURVE ( 'NONE', #300, #123, #462, .T. ) ;
#267 = CC_DESIGN_PERSON_AND_ORGANIZATION_ASSIGNMENT ( #81, #126, ( #235 ) ) ;
#268 = DIRECTION ( 'NONE',  ( 0.000000000000000000, 0.000000000000000000, 1.000000000000000000 ) ) ;
#269 = EDGE_LOOP ( 'NONE', ( #50, #340, #278 ) ) ;
#270 = AXIS2_PLACEMENT_3D ( 'NONE', #473, #376, #470 ) ;
#271 = PERSON_AND_ORGANIZATION ( #7, #396 ) ;
#272 = VECTOR ( 'NONE', #296, 1000.000000000000000 ) ;
#273 = CARTESIAN_POINT ( 'NONE',  ( 9.000000000000000000, 0.8000000000000000444, -1.300000000000000266 ) ) ;
#274 = DATE_AND_TIME ( #391, #472 ) ;
#275 = DESIGN_CONTEXT ( 'detailed design', #517, 'design' ) ;
#276 = DIRECTION ( 'NONE',  ( 0.000000000000000000, 0.000000000000000000, 1.000000000000000000 ) ) ;
#277 = ORIENTED_EDGE ( 'NONE', *, *, #101, .F. ) ;
#278 = ORIENTED_EDGE ( 'NONE', *, *, #393, .F. ) ;
#279 = CYLINDRICAL_SURFACE ( 'NONE', #486, 0.2000000000000000944 ) ;
#280 = CARTESIAN_POINT ( 'NONE',  ( 0.000000000000000000, 1.000000000000000000, 0.000000000000000000 ) ) ;
#281 = AXIS2_PLACEMENT_3D ( 'NONE', #280, #228, #447 ) ;
#282 = ORIENTED_EDGE ( 'NONE', *, *, #355, .F. ) ;
#283 = CARTESIAN_POINT ( 'NONE',  ( -8.799999999999998934, 0.8000000000000000444, -1.500000000000000444 ) ) ;
#284 = CARTESIAN_POINT ( 'NONE',  ( 0.000000000000000000, 0.8000000000000000444, 1.299999999999999600 ) ) ;
#285 = ORIENTED_EDGE ( 'NONE', *, *, #348, .T. ) ;
#286 = DIRECTION ( 'NONE',  ( -0.000000000000000000, -1.000000000000000000, -0.000000000000000000 ) ) ;
#287 = CARTESIAN_POINT ( 'NONE',  ( -9.000000000000000000, 0.000000000000000000, 1.299999999999999600 ) ) ;
#288 = EDGE_LOOP ( 'NONE', ( #150, #97, #285, #346 ) ) ;
#289 = CARTESIAN_POINT ( 'NONE',  ( 8.799999999999998934, 0.8000000000000000444, 1.299999999999999600 ) ) ;
#290 = EDGE_CURVE ( 'NONE', #300, #435, #504, .T. ) ;
#291 = CARTESIAN_POINT ( 'NONE',  ( -8.799999999999998934, 1.000000000000000000, 1.299999999999999600 ) ) ;
#292 = PERSON_AND_ORGANIZATION ( #7, #396 ) ;
#293 = VECTOR ( 'NONE', #164, 1000.000000000000000 ) ;
#294 = ADVANCED_FACE ( 'NONE', ( #96 ), #339, .F. ) ;
#295 = AXIS2_PLACEMENT_3D ( 'NONE', #25, #248, #403 ) ;
#296 = DIRECTION ( 'NONE',  ( -1.000000000000000000, -0.000000000000000000, -0.000000000000000000 ) ) ;
#297 = PLANE ( 'NONE',  #15 ) ;
#298 = ORIENTED_EDGE ( 'NONE', *, *, #459, .T. ) ;
#299 = LINE ( 'NONE', #423, #405 ) ;
#300 = VERTEX_POINT ( 'NONE', #507 ) ;
#301 = AXIS2_PLACEMENT_3D ( 'NONE', #334, #457, #157 ) ;
#302 = EDGE_CURVE ( 'NONE', #532, #27, #88, .T. ) ;
#303 = CARTESIAN_POINT ( 'NONE',  ( 9.000000000000000000, 1.000000000000000000, 1.299999999999999600 ) ) ;
#304 = UNCERTAINTY_MEASURE_WITH_UNIT (LENGTH_MEASURE( 1.000000000000000082E-05 ), #531, 'distance_accuracy_value', 'NONE');
#305 = ORIENTED_EDGE ( 'NONE', *, *, #209, .F. ) ;
#306 = EDGE_CURVE ( 'NONE', #205, #370, #411, .T. ) ;
#307 = EDGE_CURVE ( 'NONE', #425, #136, #11, .T. ) ;
#308 = CARTESIAN_POINT ( 'NONE',  ( 8.799999999999997158, 1.000000000000000000, -1.500000000000000444 ) ) ;
#309 = LOCAL_TIME ( 13, 37, 49.00000000000000000, #325 ) ;
#310 = CARTESIAN_POINT ( 'NONE',  ( 8.799999999999997158, 0.000000000000000000, -1.500000000000000444 ) ) ;
#311 = AXIS2_PLACEMENT_3D ( 'NONE', #261, #137, #341 ) ;
#312 = PLANE ( 'NONE',  #281 ) ;
#313 = APPROVAL_STATUS ( 'not_yet_approved' ) ;
#314 = CARTESIAN_POINT ( 'NONE',  ( -8.799999999999998934, 0.000000000000000000, 1.299999999999999600 ) ) ;
#315 = APPLICATION_PROTOCOL_DEFINITION ( 'international standard', 'config_control_design', 1994, #505 ) ;
#316 = ORIENTED_EDGE ( 'NONE', *, *, #264, .T. ) ;
#317 = ORIENTED_EDGE ( 'NONE', *, *, #393, .T. ) ;
#318 = EDGE_CURVE ( 'NONE', #27, #370, #45, .T. ) ;
#319 = CARTESIAN_POINT ( 'NONE',  ( -8.799999999999998934, 1.000000000000000000, -1.300000000000000266 ) ) ;
#320 = DIRECTION ( 'NONE',  ( -0.000000000000000000, -1.000000000000000000, -0.000000000000000000 ) ) ;
#321 = ORIENTED_EDGE ( 'NONE', *, *, #266, .T. ) ;
#322 = CIRCLE ( 'NONE', #247, 0.1999999999999999833 ) ;
#323 = FACE_OUTER_BOUND ( 'NONE', #508, .T. ) ;
#324 = FACE_OUTER_BOUND ( 'NONE', #192, .T. ) ;
#325 = COORDINATED_UNIVERSAL_TIME_OFFSET ( 8, 0, .AHEAD. ) ;
#326 = ORIENTED_EDGE ( 'NONE', *, *, #168, .T. ) ;
#327 = CARTESIAN_POINT ( 'NONE',  ( -9.000000000000000000, 0.000000000000000000, -1.300000000000000266 ) ) ;
#328 = CARTESIAN_POINT ( 'NONE',  ( -8.799999999999998934, 0.000000000000000000, -1.500000000000000444 ) ) ;
#329 = PERSON_AND_ORGANIZATION ( #7, #396 ) ;
#330 = ORIENTED_EDGE ( 'NONE', *, *, #419, .T. ) ;
#331 = CARTESIAN_POINT ( 'NONE',  ( -9.000000000000000000, 1.000000000000000000, -1.300000000000000266 ) ) ;
#332 = APPROVAL_DATE_TIME ( #372, #344 ) ;
#333 = ORIENTED_EDGE ( 'NONE', *, *, #16, .T. ) ;
#334 = CARTESIAN_POINT ( 'NONE',  ( -9.000000000000000000, 1.000000000000000000, 1.499999999999999556 ) ) ;
#335 = VECTOR ( 'NONE', #114, 1000.000000000000000 ) ;
#336 = ADVANCED_FACE ( 'NONE', ( #17 ), #345, .T. ) ;
#337 = VECTOR ( 'NONE', #430, 1000.000000000000000 ) ;
#338 = AXIS2_PLACEMENT_3D ( 'NONE', #496, #65, #239 ) ;
#339 = PLANE ( 'NONE',  #30 ) ;
#340 = ORIENTED_EDGE ( 'NONE', *, *, #238, .T. ) ;
#341 = DIRECTION ( 'NONE',  ( 0.000000000000000000, 0.000000000000000000, -1.000000000000000000 ) ) ;
#342 = DIRECTION ( 'NONE',  ( 0.000000000000000000, -1.000000000000000000, 0.000000000000000000 ) ) ;
#343 = ORIENTED_EDGE ( 'NONE', *, *, #290, .F. ) ;
#344 = APPROVAL ( #493, 'UNSPECIFIED' ) ;
#345 = CYLINDRICAL_SURFACE ( 'NONE', #129, 0.2000000000000005107 ) ;
#346 = ORIENTED_EDGE ( 'NONE', *, *, #142, .T. ) ;
#347 = CIRCLE ( 'NONE', #154, 0.2000000000000000944 ) ;
#348 = EDGE_CURVE ( 'NONE', #368, #444, #47, .T. ) ;
#349 = LINE ( 'NONE', #175, #431 ) ;
#350 = DIRECTION ( 'NONE',  ( -0.000000000000000000, -0.000000000000000000, -1.000000000000000000 ) ) ;
#351 = PERSON_AND_ORGANIZATION_ROLE ( 'creator' ) ;
#352 = CYLINDRICAL_SURFACE ( 'NONE', #201, 0.2000000000000000944 ) ;
#353 = CARTESIAN_POINT ( 'NONE',  ( -9.000000000000000000, 0.8000000000000000444, 1.299999999999999600 ) ) ;
#354 = EDGE_LOOP ( 'NONE', ( #535, #448, #455, #82 ) ) ;
#355 = EDGE_CURVE ( 'NONE', #532, #10, #322, .T. ) ;
#356 = EDGE_CURVE ( 'NONE', #136, #539, #35, .T. ) ;
#357 = APPROVAL ( #313, 'UNSPECIFIED' ) ;
#358 = CARTESIAN_POINT ( 'NONE',  ( 8.799999999999998934, 1.000000000000000000, 1.299999999999999600 ) ) ;
#359 = AXIS2_PLACEMENT_3D ( 'NONE', #29, #200, #366 ) ;
#360 = EDGE_LOOP ( 'NONE', ( #282, #68, #388, #484 ) ) ;
#361 = EDGE_LOOP ( 'NONE', ( #187, #28, #514, #523, #236, #77, #37, #452 ) ) ;
#362 = CARTESIAN_POINT ( 'NONE',  ( 8.799999999999998934, 1.000000000000000000, -1.500000000000000444 ) ) ;
#363 = DIRECTION ( 'NONE',  ( 0.000000000000000000, -1.000000000000000000, 0.000000000000000000 ) ) ;
#364 = APPLICATION_PROTOCOL_DEFINITION ( 'international standard', 'config_control_design', 1994, #517 ) ;
#365 = ORIENTED_EDGE ( 'NONE', *, *, #264, .F. ) ;
#366 = DIRECTION ( 'NONE',  ( 0.000000000000000000, 0.000000000000000000, 1.000000000000000000 ) ) ;
#367 = CARTESIAN_POINT ( 'NONE',  ( 8.799999999999998934, 0.8000000000000000444, 0.000000000000000000 ) ) ;
#368 = VERTEX_POINT ( 'NONE', #451 ) ;
#369 = DIRECTION ( 'NONE',  ( -0.000000000000000000, 1.000000000000000000, 0.000000000000000000 ) ) ;
#370 = VERTEX_POINT ( 'NONE', #328 ) ;
#371 = FACE_OUTER_BOUND ( 'NONE', #527, .T. ) ;
#372 = DATE_AND_TIME ( #84, #408 ) ;
#373 = AXIS2_PLACEMENT_3D ( 'NONE', #404, #21, #233 ) ;
#374 = ADVANCED_BREP_SHAPE_REPRESENTATION ( 'BAR3X18T1', ( #24, #141 ), #89 ) ;
#375 = CIRCLE ( 'NONE', #359, 0.2000000000000000944 ) ;
#376 = DIRECTION ( 'NONE',  ( 0.000000000000000000, 0.000000000000000000, 1.000000000000000000 ) ) ;
#377 = ORIENTED_EDGE ( 'NONE', *, *, #199, .F. ) ;
#378 = CARTESIAN_POINT ( 'NONE',  ( -8.799999999999998934, 0.8000000000000000444, 0.000000000000000000 ) ) ;
#379 = DIRECTION ( 'NONE',  ( 0.000000000000000000, 1.000000000000000000, 0.000000000000000000 ) ) ;
#380 = ADVANCED_FACE ( 'NONE', ( #118 ), #352, .T. ) ;
#381 = ORIENTED_EDGE ( 'NONE', *, *, #395, .F. ) ;
#382 = LINE ( 'NONE', #213, #337 ) ;
#383 = EDGE_LOOP ( 'NONE', ( #12, #316, #165, #326 ) ) ;
#384 = DIRECTION ( 'NONE',  ( 0.000000000000000000, 1.000000000000000000, -0.000000000000000000 ) ) ;
#385 = CIRCLE ( 'NONE', #74, 0.2000000000000000944 ) ;
#386 = ORIENTED_EDGE ( 'NONE', *, *, #302, .T. ) ;
#387 = VECTOR ( 'NONE', #495, 1000.000000000000000 ) ;
#388 = ORIENTED_EDGE ( 'NONE', *, *, #459, .F. ) ;
#389 = CIRCLE ( 'NONE', #43, 0.2000000000000000944 ) ;
#390 = EDGE_CURVE ( 'NONE', #427, #539, #159, .T. ) ;
#391 = CALENDAR_DATE ( 2026, 22, 3 ) ;
#392 = CYLINDRICAL_SURFACE ( 'NONE', #530, 0.2000000000000005107 ) ;
#393 = EDGE_CURVE ( 'NONE', #136, #245, #174, .T. ) ;
#394 = DIRECTION ( 'NONE',  ( -0.000000000000000000, 1.000000000000000000, -0.000000000000000000 ) ) ;
#395 = EDGE_CURVE ( 'NONE', #245, #368, #34, .T. ) ;
#396 = ORGANIZATION ( 'UNSPECIFIED', 'UNSPECIFIED', '' ) ;
#397 = CARTESIAN_POINT ( 'NONE',  ( 8.799999999999997158, 0.000000000000000000, 1.499999999999999556 ) ) ;
#398 = ADVANCED_FACE ( 'NONE', ( #71 ), #279, .T. ) ;
#399 =( NAMED_UNIT ( * ) SI_UNIT ( $, .STERADIAN. ) SOLID_ANGLE_UNIT ( ) );
#400 = EDGE_LOOP ( 'NONE', ( #317, #305, #203, #365 ) ) ;
#401 = ORIENTED_EDGE ( 'NONE', *, *, #112, .F. ) ;
#402 = DIRECTION ( 'NONE',  ( -1.000000000000000000, 0.000000000000000000, 0.000000000000000000 ) ) ;
#403 = DIRECTION ( 'NONE',  ( 1.000000000000000000, 0.000000000000000000, 0.000000000000000000 ) ) ;
#404 = CARTESIAN_POINT ( 'NONE',  ( 8.799999999999998934, 0.8000000000000000444, -1.300000000000000266 ) ) ;
#405 = VECTOR ( 'NONE', #268, 1000.000000000000000 ) ;
#406 = ORIENTED_EDGE ( 'NONE', *, *, #318, .T. ) ;
#407 = DIRECTION ( 'NONE',  ( -1.000000000000000000, 0.000000000000000000, 0.000000000000000000 ) ) ;
#408 = LOCAL_TIME ( 13, 37, 49.00000000000000000, #537 ) ;
#409 = DIRECTION ( 'NONE',  ( 0.000000000000000000, 1.000000000000000000, 0.000000000000000000 ) ) ;
#410 = ORIENTED_EDGE ( 'NONE', *, *, #210, .F. ) ;
#411 = CIRCLE ( 'NONE', #463, 0.2000000000000000944 ) ;
#412 = CARTESIAN_POINT ( 'NONE',  ( -8.799999999999998934, 0.8000000000000000444, -1.300000000000000266 ) ) ;
#413 = DIRECTION ( 'NONE',  ( 0.000000000000000000, -1.000000000000000000, 0.000000000000000000 ) ) ;
#414 = ORIENTED_EDGE ( 'NONE', *, *, #458, .F. ) ;
#415 = CARTESIAN_POINT ( 'NONE',  ( 9.000000000000000000, 0.8000000000000000444, 1.299999999999999600 ) ) ;
#416 = AXIS2_PLACEMENT_3D ( 'NONE', #259, #519, #48 ) ;
#417 = PLANE ( 'NONE',  #301 ) ;
#418 = SHAPE_DEFINITION_REPRESENTATION ( #49, #374 ) ;
#419 = EDGE_CURVE ( 'NONE', #110, #532, #75, .T. ) ;
#420 = VECTOR ( 'NONE', #394, 1000.000000000000000 ) ;
#421 = CARTESIAN_POINT ( 'NONE',  ( -8.799999999999998934, 1.000000000000000000, 1.499999999999999556 ) ) ;
#422 = CARTESIAN_POINT ( 'NONE',  ( 8.799999999999998934, 1.000000000000000000, 1.299999999999999600 ) ) ;
#423 = CARTESIAN_POINT ( 'NONE',  ( -9.000000000000000000, 0.000000000000000000, -1.500000000000000444 ) ) ;
#424 = FACE_OUTER_BOUND ( 'NONE', #354, .T. ) ;
#425 = VERTEX_POINT ( 'NONE', #319 ) ;
#426 = DIRECTION ( 'NONE',  ( 0.000000000000000000, 0.000000000000000000, -1.000000000000000000 ) ) ;
#427 = VERTEX_POINT ( 'NONE', #287 ) ;
#428 = DIRECTION ( 'NONE',  ( 0.000000000000000000, -1.000000000000000000, 0.000000000000000000 ) ) ;
#429 = ORIENTED_EDGE ( 'NONE', *, *, #238, .F. ) ;
#430 = DIRECTION ( 'NONE',  ( 0.000000000000000000, -1.000000000000000000, 0.000000000000000000 ) ) ;
#431 = VECTOR ( 'NONE', #93, 1000.000000000000000 ) ;
#432 = CARTESIAN_POINT ( 'NONE',  ( 8.799999999999998934, 1.000000000000000000, -1.300000000000000266 ) ) ;
#433 = VECTOR ( 'NONE', #8, 1000.000000000000000 ) ;
#434 = DATE_AND_TIME ( #60, #445 ) ;
#435 = VERTEX_POINT ( 'NONE', #358 ) ;
#436 = VECTOR ( 'NONE', #350, 1000.000000000000000 ) ;
#437 = DIRECTION ( 'NONE',  ( 0.000000000000000000, 0.000000000000000000, 1.000000000000000000 ) ) ;
#438 = APPROVAL_STATUS ( 'not_yet_approved' ) ;
#439 = ADVANCED_FACE ( 'NONE', ( #446 ), #62, .T. ) ;
#440 = EDGE_CURVE ( 'NONE', #483, #205, #454, .T. ) ;
#441 = CARTESIAN_POINT ( 'NONE',  ( 0.000000000000000000, 0.8000000000000000444, -1.300000000000000266 ) ) ;
#442 = SPHERICAL_SURFACE ( 'NONE', #373, 0.2000000000000000111 ) ;
#443 = ORIENTED_EDGE ( 'NONE', *, *, #225, .F. ) ;
#444 = VERTEX_POINT ( 'NONE', #397 ) ;
#445 = LOCAL_TIME ( 13, 37, 49.00000000000000000, #102 ) ;
#446 = FACE_OUTER_BOUND ( 'NONE', #9, .T. ) ;
#447 = DIRECTION ( 'NONE',  ( 0.000000000000000000, -0.000000000000000000, 1.000000000000000000 ) ) ;
#448 = ORIENTED_EDGE ( 'NONE', *, *, #440, .F. ) ;
#449 = CARTESIAN_POINT ( 'NONE',  ( -8.799999999999998934, 1.000000000000000000, 1.299999999999999600 ) ) ;
#450 = ADVANCED_FACE ( 'NONE', ( #324 ), #392, .T. ) ;
#451 = CARTESIAN_POINT ( 'NONE',  ( -8.799999999999998934, 0.000000000000000000, 1.499999999999999556 ) ) ;
#452 = ORIENTED_EDGE ( 'NONE', *, *, #515, .T. ) ;
#453 = DIRECTION ( 'NONE',  ( 0.000000000000000000, 0.000000000000000000, -1.000000000000000000 ) ) ;
#454 = LINE ( 'NONE', #230, #87 ) ;
#455 = ORIENTED_EDGE ( 'NONE', *, *, #127, .F. ) ;
#456 = FACE_OUTER_BOUND ( 'NONE', #265, .T. ) ;
#457 = DIRECTION ( 'NONE',  ( 0.000000000000000000, 0.000000000000000000, -1.000000000000000000 ) ) ;
#458 = EDGE_CURVE ( 'NONE', #368, #427, #389, .T. ) ;
#459 = EDGE_CURVE ( 'NONE', #425, #110, #117, .T. ) ;
#460 = DATE_AND_TIME ( #497, #215 ) ;
#461 = CC_DESIGN_PERSON_AND_ORGANIZATION_ASSIGNMENT ( #521, #351, ( #186 ) ) ;
#462 = CIRCLE ( 'NONE', #171, 0.2000000000000000944 ) ;
#463 = AXIS2_PLACEMENT_3D ( 'NONE', #220, #98, #257 ) ;
#464 = DIRECTION ( 'NONE',  ( 1.000000000000000000, 0.000000000000000000, -0.000000000000000000 ) ) ;
#465 = CARTESIAN_POINT ( 'NONE',  ( -8.799999999999998934, 0.8000000000000000444, 1.299999999999999600 ) ) ;
#466 = ORIENTED_EDGE ( 'NONE', *, *, #503, .F. ) ;
#467 = ORIENTED_EDGE ( 'NONE', *, *, #515, .F. ) ;
#468 = DIRECTION ( 'NONE',  ( 0.000000000000000000, 0.000000000000000000, 1.000000000000000000 ) ) ;
#469 = CARTESIAN_POINT ( 'NONE',  ( -8.799999999999998934, 0.8000000000000000444, 1.299999999999999600 ) ) ;
#470 = DIRECTION ( 'NONE',  ( 1.000000000000000000, 0.000000000000000000, 0.000000000000000000 ) ) ;
#471 = FACE_OUTER_BOUND ( 'NONE', #269, .T. ) ;
#472 = LOCAL_TIME ( 13, 37, 49.00000000000000000, #229 ) ;
#473 = CARTESIAN_POINT ( 'NONE',  ( 8.799999999999998934, 0.8000000000000000444, 1.299999999999999600 ) ) ;
#474 = DIRECTION ( 'NONE',  ( 0.000000000000000000, -0.000000000000000000, 1.000000000000000000 ) ) ;
#475 = AXIS2_PLACEMENT_3D ( 'NONE', #263, #130, #426 ) ;
#476 = CARTESIAN_POINT ( 'NONE',  ( -8.799999999999998934, 1.000000000000000000, -1.500000000000000444 ) ) ;
#477 = VECTOR ( 'NONE', #492, 1000.000000000000000 ) ;
#478 = DIRECTION ( 'NONE',  ( 1.000000000000000000, 0.000000000000000000, 0.000000000000000000 ) ) ;
#479 = PRODUCT_RELATED_PRODUCT_CATEGORY ( 'detail', '', ( #216 ) ) ;
#480 = APPROVAL_ROLE ( '' ) ;
#481 = DIRECTION ( 'NONE',  ( -0.000000000000000000, -1.000000000000000000, -0.000000000000000000 ) ) ;
#482 = MECHANICAL_CONTEXT ( 'NONE', #505, 'mechanical' ) ;
#483 = VERTEX_POINT ( 'NONE', #485 ) ;
#484 = ORIENTED_EDGE ( 'NONE', *, *, #168, .F. ) ;
#485 = CARTESIAN_POINT ( 'NONE',  ( -9.000000000000000000, 0.8000000000000000444, -1.300000000000000266 ) ) ;
#486 = AXIS2_PLACEMENT_3D ( 'NONE', #284, #190, #437 ) ;
#487 = FACE_OUTER_BOUND ( 'NONE', #383, .T. ) ;
#488 = EDGE_LOOP ( 'NONE', ( #163, #119, #219, #151 ) ) ;
#489 = CARTESIAN_POINT ( 'NONE',  ( 9.000000000000000000, 0.8000000000000000444, 1.499999999999999556 ) ) ;
#490 = EDGE_CURVE ( 'NONE', #370, #110, #113, .T. ) ;
#491 = AXIS2_PLACEMENT_3D ( 'NONE', #526, #232, #155 ) ;
#492 = DIRECTION ( 'NONE',  ( 1.000000000000000000, -0.000000000000000000, -0.000000000000000000 ) ) ;
#493 = APPROVAL_STATUS ( 'not_yet_approved' ) ;
#494 = ORIENTED_EDGE ( 'NONE', *, *, #225, .T. ) ;
#495 = DIRECTION ( 'NONE',  ( 0.000000000000000000, 0.000000000000000000, -1.000000000000000000 ) ) ;
#496 = CARTESIAN_POINT ( 'NONE',  ( -8.799999999999998934, 0.8000000000000000444, 1.299999999999999600 ) ) ;
#497 = CALENDAR_DATE ( 2026, 22, 3 ) ;
#498 = ORIENTED_EDGE ( 'NONE', *, *, #503, .T. ) ;
#499 = DIRECTION ( 'NONE',  ( 0.000000000000000000, 1.000000000000000000, 0.000000000000000000 ) ) ;
#500 = SECURITY_CLASSIFICATION_LEVEL ( 'unclassified' ) ;
#501 = CARTESIAN_POINT ( 'NONE',  ( 8.799999999999997158, 1.000000000000000000, -1.300000000000000266 ) ) ;
#502 = ADVANCED_FACE ( 'NONE', ( #26 ), #442, .T. ) ;
#503 = EDGE_CURVE ( 'NONE', #179, #512, #63, .T. ) ;
#504 = CIRCLE ( 'NONE', #475, 0.2000000000000000944 ) ;
#505 = APPLICATION_CONTEXT ( 'configuration controlled 3d designs of mechanical parts and assemblies' ) ;
#506 = VECTOR ( 'NONE', #31, 1000.000000000000000 ) ;
#507 = CARTESIAN_POINT ( 'NONE',  ( 8.799999999999998934, 0.8000000000000000444, 1.499999999999999556 ) ) ;
#508 = EDGE_LOOP ( 'NONE', ( #277, #184, #377, #466 ) ) ;
#509 = CARTESIAN_POINT ( 'NONE',  ( -8.799999999999998934, 0.8000000000000000444, 1.499999999999999556 ) ) ;
#510 = LINE ( 'NONE', #262, #207 ) ;
#511 = AXIS2_PLACEMENT_3D ( 'NONE', #422, #342, #138 ) ;
#512 = VERTEX_POINT ( 'NONE', #273 ) ;
#513 = DIRECTION ( 'NONE',  ( 0.000000000000000000, 0.000000000000000000, -1.000000000000000000 ) ) ;
#514 = ORIENTED_EDGE ( 'NONE', *, *, #211, .F. ) ;
#515 = EDGE_CURVE ( 'NONE', #156, #444, #256, .T. ) ;
#516 = ADVANCED_FACE ( 'NONE', ( #487 ), #312, .T. ) ;
#517 = APPLICATION_CONTEXT ( 'configuration controlled 3d designs of mechanical parts and assemblies' ) ;
#518 = PLANE ( 'NONE',  #311 ) ;
#519 = DIRECTION ( 'NONE',  ( -1.000000000000000000, 0.000000000000000000, 0.000000000000000000 ) ) ;
#520 = AXIS2_PLACEMENT_3D ( 'NONE', #23, #320, #145 ) ;
#521 = PERSON_AND_ORGANIZATION ( #7, #396 ) ;
#522 = DATE_TIME_ROLE ( 'creation_date' ) ;
#523 = ORIENTED_EDGE ( 'NONE', *, *, #306, .T. ) ;
#524 = ORIENTED_EDGE ( 'NONE', *, *, #356, .F. ) ;
#525 = CIRCLE ( 'NONE', #143, 0.2000000000000005107 ) ;
#526 = CARTESIAN_POINT ( 'NONE',  ( -8.799999999999998934, 0.8000000000000000444, -1.300000000000000266 ) ) ;
#527 = EDGE_LOOP ( 'NONE', ( #321, #39, #343 ) ) ;
#528 = DIRECTION ( 'NONE',  ( 0.000000000000000000, -1.000000000000000000, 0.000000000000000000 ) ) ;
#529 = CARTESIAN_POINT ( 'NONE',  ( 8.799999999999997158, 0.8000000000000000444, -1.300000000000000266 ) ) ;
#530 = AXIS2_PLACEMENT_3D ( 'NONE', #367, #148, #108 ) ;
#531 =( LENGTH_UNIT ( ) NAMED_UNIT ( * ) SI_UNIT ( .MILLI., .METRE. ) );
#532 = VERTEX_POINT ( 'NONE', #185 ) ;
#533 = CYLINDRICAL_SURFACE ( 'NONE', #106, 0.2000000000000000944 ) ;
#534 = CARTESIAN_POINT ( 'NONE',  ( 9.000000000000000000, 0.8000000000000000444, -1.500000000000000444 ) ) ;
#535 = ORIENTED_EDGE ( 'NONE', *, *, #306, .F. ) ;
#536 = DIRECTION ( 'NONE',  ( 0.000000000000000000, 0.000000000000000000, -1.000000000000000000 ) ) ;
#537 = COORDINATED_UNIVERSAL_TIME_OFFSET ( 8, 0, .AHEAD. ) ;
#538 = VECTOR ( 'NONE', #194, 1000.000000000000000 ) ;
#539 = VERTEX_POINT ( 'NONE', #353 ) ;
#540 = SPHERICAL_SURFACE ( 'NONE', #56, 0.2000000000000000111 ) ;
#541 = CC_DESIGN_PERSON_AND_ORGANIZATION_ASSIGNMENT ( #292, #76, ( #70 ) ) ;
ENDSEC;
END-ISO-10303-21;
