ISO-10303-21;
HEADER;
FILE_DESCRIPTION (( 'STEP AP203' ),
    '1' );
FILE_NAME ('BAR3X8T2.step',
    '2026-03-22T06:55:15',
    ( '' ),
    ( '' ),
    'SwSTEP 2.0',
    'SolidWorks 2025',
    '' );
FILE_SCHEMA (( 'CONFIG_CONTROL_DESIGN' ));
ENDSEC;

DATA;
#1 = ADVANCED_FACE ( 'NONE', ( #294 ), #210, .F. ) ;
#2 = PLANE ( 'NONE',  #319 ) ;
#3 = ORIENTED_EDGE ( 'NONE', *, *, #148, .F. ) ;
#4 = DIRECTION ( 'NONE',  ( 2.891205793294678326E-16, 0.000000000000000000, 1.000000000000000000 ) ) ;
#5 = ADVANCED_FACE ( 'NONE', ( #373 ), #457, .T. ) ;
#6 = APPROVAL_DATE_TIME ( #64, #199 ) ;
#7 = ORIENTED_EDGE ( 'NONE', *, *, #395, .F. ) ;
#8 = LINE ( 'NONE', #178, #334 ) ;
#9 = SHAPE_DEFINITION_REPRESENTATION ( #75, #82 ) ;
#10 = VECTOR ( 'NONE', #223, 1000.000000000000000 ) ;
#11 = VERTEX_POINT ( 'NONE', #165 ) ;
#12 = DIRECTION ( 'NONE',  ( -0.000000000000000000, -0.000000000000000000, 1.000000000000000000 ) ) ;
#13 = ORIENTED_EDGE ( 'NONE', *, *, #431, .F. ) ;
#14 = CARTESIAN_POINT ( 'NONE',  ( -4.000000000000000000, 0.000000000000000000, 1.500000000000000000 ) ) ;
#15 = SECURITY_CLASSIFICATION ( '', '', #184 ) ;
#16 = PERSON_AND_ORGANIZATION_ROLE ( 'creator' ) ;
#17 = SPHERICAL_SURFACE ( 'NONE', #374, 0.2000000000000000111 ) ;
#18 = CC_DESIGN_PERSON_AND_ORGANIZATION_ASSIGNMENT ( #225, #16, ( #345 ) ) ;
#19 = ORIENTED_EDGE ( 'NONE', *, *, #518, .T. ) ;
#20 = DATE_AND_TIME ( #188, #313 ) ;
#21 = DIRECTION ( 'NONE',  ( 1.000000000000000000, 0.000000000000000000, 0.000000000000000000 ) ) ;
#22 = VERTEX_POINT ( 'NONE', #322 ) ;
#23 = LINE ( 'NONE', #432, #168 ) ;
#24 = EDGE_CURVE ( 'NONE', #406, #367, #526, .T. ) ;
#25 = DIRECTION ( 'NONE',  ( 2.891205793294678326E-16, -0.000000000000000000, 1.000000000000000000 ) ) ;
#26 = AXIS2_PLACEMENT_3D ( 'NONE', #58, #12, #221 ) ;
#27 = LINE ( 'NONE', #397, #478 ) ;
#28 = VECTOR ( 'NONE', #70, 1000.000000000000000 ) ;
#29 = CARTESIAN_POINT ( 'NONE',  ( 0.000000000000000000, 1.800000000000000044, -1.300000000000000044 ) ) ;
#30 = CARTESIAN_POINT ( 'NONE',  ( -4.000000000000000000, 1.800000000000000044, 1.300000000000000044 ) ) ;
#31 = VECTOR ( 'NONE', #136, 1000.000000000000000 ) ;
#32 = DIRECTION ( 'NONE',  ( 0.000000000000000000, 1.000000000000000000, 0.000000000000000000 ) ) ;
#33 = CARTESIAN_POINT ( 'NONE',  ( -3.799999999999999822, 1.800000000000000044, 1.300000000000000044 ) ) ;
#34 = CIRCLE ( 'NONE', #155, 0.2000000000000000944 ) ;
#35 = CYLINDRICAL_SURFACE ( 'NONE', #460, 0.2000000000000000944 ) ;
#36 = ADVANCED_FACE ( 'NONE', ( #282 ), #35, .T. ) ;
#37 = VECTOR ( 'NONE', #251, 1000.000000000000000 ) ;
#38 = CARTESIAN_POINT ( 'NONE',  ( 3.799999999999999378, 1.800000000000000044, -1.500000000000000000 ) ) ;
#39 = LOCAL_TIME ( 14, 55, 15.00000000000000000, #425 ) ;
#40 = ORIENTED_EDGE ( 'NONE', *, *, #483, .T. ) ;
#41 = EDGE_LOOP ( 'NONE', ( #396, #290, #380, #43 ) ) ;
#42 = DIRECTION ( 'NONE',  ( 0.000000000000000000, 0.000000000000000000, -1.000000000000000000 ) ) ;
#43 = ORIENTED_EDGE ( 'NONE', *, *, #387, .F. ) ;
#44 = DIRECTION ( 'NONE',  ( -1.000000000000000000, 0.000000000000000000, 0.000000000000000000 ) ) ;
#45 = CARTESIAN_POINT ( 'NONE',  ( -4.000000000000000000, 0.000000000000000000, -1.500000000000000000 ) ) ;
#46 = EDGE_CURVE ( 'NONE', #139, #353, #376, .T. ) ;
#47 = CALENDAR_DATE ( 2026, 22, 3 ) ;
#48 = ORIENTED_EDGE ( 'NONE', *, *, #24, .T. ) ;
#49 = CARTESIAN_POINT ( 'NONE',  ( 3.800000000000001155, 2.000000000000000000, 1.500000000000000000 ) ) ;
#50 = CARTESIAN_POINT ( 'NONE',  ( -4.000000000000000000, 1.800000000000000044, -1.500000000000000000 ) ) ;
#51 = VERTEX_POINT ( 'NONE', #330 ) ;
#52 = APPROVAL_STATUS ( 'not_yet_approved' ) ;
#53 = CARTESIAN_POINT ( 'NONE',  ( 3.799999999999999378, 2.000000000000000000, -1.500000000000000000 ) ) ;
#54 = CIRCLE ( 'NONE', #26, 0.2000000000000000944 ) ;
#55 = DIRECTION ( 'NONE',  ( 0.000000000000000000, 1.000000000000000000, 0.000000000000000000 ) ) ;
#56 = COORDINATED_UNIVERSAL_TIME_OFFSET ( 8, 0, .AHEAD. ) ;
#57 = ORIENTED_EDGE ( 'NONE', *, *, #464, .F. ) ;
#58 = CARTESIAN_POINT ( 'NONE',  ( -3.799999999999999822, 1.800000000000000044, -1.300000000000000044 ) ) ;
#59 = COORDINATED_UNIVERSAL_TIME_OFFSET ( 8, 0, .AHEAD. ) ;
#60 = PRODUCT_DEFINITION ( 'UNKNOWN', '', #345, #359 ) ;
#61 = CARTESIAN_POINT ( 'NONE',  ( 3.800000000000000711, 1.800000000000000044, 1.300000000000000044 ) ) ;
#62 =( GEOMETRIC_REPRESENTATION_CONTEXT ( 3 ) GLOBAL_UNCERTAINTY_ASSIGNED_CONTEXT ( ( #527 ) ) GLOBAL_UNIT_ASSIGNED_CONTEXT ( ( #534, #408, #285 ) ) REPRESENTATION_CONTEXT ( 'NONE', 'WORKASPACE' ) );
#63 = ORIENTED_EDGE ( 'NONE', *, *, #99, .T. ) ;
#64 = DATE_AND_TIME ( #470, #114 ) ;
#65 = DIRECTION ( 'NONE',  ( -6.505213034913023449E-15, 0.000000000000000000, 1.000000000000000000 ) ) ;
#66 = CARTESIAN_POINT ( 'NONE',  ( 3.800000000000001155, 0.000000000000000000, 1.500000000000000000 ) ) ;
#67 = ORIENTED_EDGE ( 'NONE', *, *, #46, .T. ) ;
#68 = LINE ( 'NONE', #364, #403 ) ;
#69 = ADVANCED_FACE ( 'NONE', ( #371 ), #286, .F. ) ;
#70 = DIRECTION ( 'NONE',  ( 2.891205793294678326E-16, -0.000000000000000000, 1.000000000000000000 ) ) ;
#71 = LINE ( 'NONE', #232, #467 ) ;
#72 = AXIS2_PLACEMENT_3D ( 'NONE', #97, #95, #255 ) ;
#73 = AXIS2_PLACEMENT_3D ( 'NONE', #485, #404, #479 ) ;
#74 = DIRECTION ( 'NONE',  ( 0.000000000000000000, -1.000000000000000000, 0.000000000000000000 ) ) ;
#75 = PRODUCT_DEFINITION_SHAPE ( 'NONE', 'NONE',  #60 ) ;
#76 = EDGE_CURVE ( 'NONE', #288, #490, #506, .T. ) ;
#77 = CARTESIAN_POINT ( 'NONE',  ( 3.800000000000000266, 1.800000000000000044, -1.098658201451977892E-15 ) ) ;
#78 = APPROVAL_PERSON_ORGANIZATION ( #465, #306, #193 ) ;
#79 = LINE ( 'NONE', #370, #37 ) ;
#80 = ORIENTED_EDGE ( 'NONE', *, *, #320, .F. ) ;
#81 = VECTOR ( 'NONE', #21, 1000.000000000000000 ) ;
#82 = ADVANCED_BREP_SHAPE_REPRESENTATION ( 'BAR3X8T2', ( #267, #410 ), #62 ) ;
#83 = EDGE_LOOP ( 'NONE', ( #171, #48, #228 ) ) ;
#84 = EDGE_CURVE ( 'NONE', #186, #22, #444, .T. ) ;
#85 = DIRECTION ( 'NONE',  ( -2.891205793294678326E-16, -0.000000000000000000, -1.000000000000000000 ) ) ;
#86 = AXIS2_PLACEMENT_3D ( 'NONE', #426, #392, #65 ) ;
#87 = PERSON_AND_ORGANIZATION_ROLE ( 'design_owner' ) ;
#88 = EDGE_LOOP ( 'NONE', ( #451, #249, #3, #453 ) ) ;
#89 = ORIENTED_EDGE ( 'NONE', *, *, #46, .F. ) ;
#90 = DIRECTION ( 'NONE',  ( 0.000000000000000000, 0.000000000000000000, 1.000000000000000000 ) ) ;
#91 = EDGE_LOOP ( 'NONE', ( #472, #208, #246 ) ) ;
#92 = ORIENTED_EDGE ( 'NONE', *, *, #354, .F. ) ;
#93 = EDGE_CURVE ( 'NONE', #143, #22, #365, .T. ) ;
#94 = CARTESIAN_POINT ( 'NONE',  ( 4.000000000000000000, 2.000000000000000000, -1.500000000000000000 ) ) ;
#95 = DIRECTION ( 'NONE',  ( -0.000000000000000000, -0.000000000000000000, 1.000000000000000000 ) ) ;
#96 = VERTEX_POINT ( 'NONE', #405 ) ;
#97 = CARTESIAN_POINT ( 'NONE',  ( 3.799999999999999822, 1.800000000000000044, -1.300000000000000044 ) ) ;
#98 = FACE_OUTER_BOUND ( 'NONE', #501, .T. ) ;
#99 = EDGE_CURVE ( 'NONE', #519, #367, #241, .T. ) ;
#100 = EDGE_LOOP ( 'NONE', ( #466, #295, #128, #126 ) ) ;
#101 = VECTOR ( 'NONE', #520, 1000.000000000000000 ) ;
#102 = DIRECTION ( 'NONE',  ( 0.000000000000000000, 0.000000000000000000, 1.000000000000000000 ) ) ;
#103 = VECTOR ( 'NONE', #357, 1000.000000000000000 ) ;
#104 = EDGE_LOOP ( 'NONE', ( #134, #327, #297 ) ) ;
#105 = CC_DESIGN_PERSON_AND_ORGANIZATION_ASSIGNMENT ( #300, #261, ( #15 ) ) ;
#106 = DIRECTION ( 'NONE',  ( 1.000000000000000000, -2.168404344971008079E-15, 0.000000000000000000 ) ) ;
#107 = DIRECTION ( 'NONE',  ( 0.000000000000000000, 0.000000000000000000, -1.000000000000000000 ) ) ;
#108 = ORIENTED_EDGE ( 'NONE', *, *, #160, .F. ) ;
#109 = PLANE ( 'NONE',  #218 ) ;
#110 = AXIS2_PLACEMENT_3D ( 'NONE', #341, #311, #159 ) ;
#111 = EDGE_CURVE ( 'NONE', #513, #96, #516, .T. ) ;
#112 = CARTESIAN_POINT ( 'NONE',  ( -3.799999999999999822, 1.800000000000000044, 1.300000000000000044 ) ) ;
#113 = CARTESIAN_POINT ( 'NONE',  ( 4.000000000000000000, 2.000000000000000000, -1.300000000000000044 ) ) ;
#114 = LOCAL_TIME ( 14, 55, 15.00000000000000000, #459 ) ;
#115 = SPHERICAL_SURFACE ( 'NONE', #189, 0.2000000000000000111 ) ;
#116 = DIRECTION ( 'NONE',  ( 1.000000000000000000, 0.000000000000000000, 0.000000000000000000 ) ) ;
#117 = CARTESIAN_POINT ( 'NONE',  ( 3.799999999999999378, 2.000000000000000000, -1.300000000000000044 ) ) ;
#118 = CARTESIAN_POINT ( 'NONE',  ( -4.000000000000000000, 2.000000000000000000, -1.500000000000000000 ) ) ;
#119 = EDGE_CURVE ( 'NONE', #139, #258, #310, .T. ) ;
#120 = DIRECTION ( 'NONE',  ( -1.000000000000000000, 0.000000000000000000, 2.891205793294678326E-16 ) ) ;
#121 = CYLINDRICAL_SURFACE ( 'NONE', #529, 0.2000000000000000944 ) ;
#122 = ORIENTED_EDGE ( 'NONE', *, *, #84, .T. ) ;
#123 = CLOSED_SHELL ( 'NONE', ( #1, #69, #296, #523, #197, #507, #537, #363, #533, #5, #190, #368, #284, #442, #36, #428, #244, #204 ) ) ;
#124 = CYLINDRICAL_SURFACE ( 'NONE', #512, 0.2000000000000000944 ) ;
#125 = DIRECTION ( 'NONE',  ( 0.000000000000000000, 1.000000000000000000, 0.000000000000000000 ) ) ;
#126 = ORIENTED_EDGE ( 'NONE', *, *, #488, .F. ) ;
#127 = MECHANICAL_CONTEXT ( 'NONE', #435, 'mechanical' ) ;
#128 = ORIENTED_EDGE ( 'NONE', *, *, #24, .F. ) ;
#129 = VERTEX_POINT ( 'NONE', #174 ) ;
#130 = COORDINATED_UNIVERSAL_TIME_OFFSET ( 8, 0, .AHEAD. ) ;
#131 = EDGE_LOOP ( 'NONE', ( #122, #379, #446, #539 ) ) ;
#132 = AXIS2_PLACEMENT_3D ( 'NONE', #495, #238, #407 ) ;
#133 = PERSON_AND_ORGANIZATION_ROLE ( 'design_supplier' ) ;
#134 = ORIENTED_EDGE ( 'NONE', *, *, #202, .T. ) ;
#135 = DIRECTION ( 'NONE',  ( 0.000000000000000000, 0.000000000000000000, 1.000000000000000000 ) ) ;
#136 = DIRECTION ( 'NONE',  ( 0.000000000000000000, -0.000000000000000000, -1.000000000000000000 ) ) ;
#137 = ORIENTED_EDGE ( 'NONE', *, *, #160, .T. ) ;
#138 = PERSON_AND_ORGANIZATION_ROLE ( 'creator' ) ;
#139 = VERTEX_POINT ( 'NONE', #503 ) ;
#140 = DIRECTION ( 'NONE',  ( 0.000000000000000000, 1.000000000000000000, 0.000000000000000000 ) ) ;
#141 = AXIS2_PLACEMENT_3D ( 'NONE', #447, #173, #333 ) ;
#142 = DATE_AND_TIME ( #423, #303 ) ;
#143 = VERTEX_POINT ( 'NONE', #417 ) ;
#144 = DIRECTION ( 'NONE',  ( -0.000000000000000000, 1.000000000000000000, 0.000000000000000000 ) ) ;
#145 = DATE_AND_TIME ( #381, #39 ) ;
#146 = DIRECTION ( 'NONE',  ( -1.000000000000000000, 0.000000000000000000, 0.000000000000000000 ) ) ;
#147 = EDGE_LOOP ( 'NONE', ( #80, #340, #430, #257, #92, #414, #89, #269 ) ) ;
#148 = EDGE_CURVE ( 'NONE', #51, #301, #34, .T. ) ;
#149 = ORIENTED_EDGE ( 'NONE', *, *, #231, .T. ) ;
#150 = DIRECTION ( 'NONE',  ( 1.000000000000000000, -0.000000000000000000, -0.000000000000000000 ) ) ;
#151 = CC_DESIGN_APPROVAL ( #306, ( #15 ) ) ;
#152 = DIRECTION ( 'NONE',  ( -0.000000000000000000, 0.000000000000000000, 1.000000000000000000 ) ) ;
#153 = VECTOR ( 'NONE', #150, 1000.000000000000000 ) ;
#154 = LINE ( 'NONE', #439, #175 ) ;
#155 = AXIS2_PLACEMENT_3D ( 'NONE', #298, #462, #135 ) ;
#156 = LINE ( 'NONE', #522, #469 ) ;
#157 = CC_DESIGN_PERSON_AND_ORGANIZATION_ASSIGNMENT ( #265, #133, ( #345 ) ) ;
#158 = CARTESIAN_POINT ( 'NONE',  ( -4.000000000000000000, 2.000000000000000000, -1.300000000000000044 ) ) ;
#159 = DIRECTION ( 'NONE',  ( 0.000000000000000000, 0.000000000000000000, 1.000000000000000000 ) ) ;
#160 = EDGE_CURVE ( 'NONE', #416, #463, #192, .T. ) ;
#161 = CARTESIAN_POINT ( 'NONE',  ( 3.800000000000000711, 1.800000000000000044, 1.300000000000000044 ) ) ;
#162 = DIRECTION ( 'NONE',  ( 1.000000000000000000, 0.000000000000000000, -0.000000000000000000 ) ) ;
#163 = CC_DESIGN_SECURITY_CLASSIFICATION ( #15, ( #345 ) ) ;
#164 = CARTESIAN_POINT ( 'NONE',  ( 0.000000000000000000, 0.000000000000000000, 0.000000000000000000 ) ) ;
#165 = CARTESIAN_POINT ( 'NONE',  ( -3.799999999999999822, 2.000000000000000000, -1.300000000000000044 ) ) ;
#166 = AXIS2_PLACEMENT_3D ( 'NONE', #352, #55, #268 ) ;
#167 = ORIENTED_EDGE ( 'NONE', *, *, #76, .F. ) ;
#168 = VECTOR ( 'NONE', #309, 1000.000000000000000 ) ;
#169 = ORIENTED_EDGE ( 'NONE', *, *, #119, .F. ) ;
#170 = AXIS2_PLACEMENT_3D ( 'NONE', #77, #25, #203 ) ;
#171 = ORIENTED_EDGE ( 'NONE', *, *, #438, .T. ) ;
#172 = DIRECTION ( 'NONE',  ( 1.000000000000000000, 0.000000000000000000, 0.000000000000000000 ) ) ;
#173 = DIRECTION ( 'NONE',  ( 0.000000000000000000, 0.000000000000000000, -1.000000000000000000 ) ) ;
#174 = CARTESIAN_POINT ( 'NONE',  ( 3.800000000000000711, 1.800000000000000044, 1.500000000000000000 ) ) ;
#175 = VECTOR ( 'NONE', #234, 1000.000000000000000 ) ;
#176 = DATE_TIME_ROLE ( 'creation_date' ) ;
#177 = ORIENTED_EDGE ( 'NONE', *, *, #231, .F. ) ;
#178 = CARTESIAN_POINT ( 'NONE',  ( 3.799999999999999822, 2.000000000000000000, -1.500000000000000000 ) ) ;
#179 = EDGE_CURVE ( 'NONE', #258, #129, #337, .T. ) ;
#180 = ORIENTED_EDGE ( 'NONE', *, *, #387, .T. ) ;
#181 = VECTOR ( 'NONE', #85, 1000.000000000000000 ) ;
#182 = EDGE_LOOP ( 'NONE', ( #169, #409, #7, #508 ) ) ;
#183 = DIRECTION ( 'NONE',  ( -2.891205793294678326E-16, 0.000000000000000000, -1.000000000000000000 ) ) ;
#184 = SECURITY_CLASSIFICATION_LEVEL ( 'unclassified' ) ;
#185 = CIRCLE ( 'NONE', #291, 0.2000000000000000944 ) ;
#186 = VERTEX_POINT ( 'NONE', #385 ) ;
#187 = DIRECTION ( 'NONE',  ( -1.000000000000000000, 0.000000000000000000, 0.000000000000000000 ) ) ;
#188 = CALENDAR_DATE ( 2026, 22, 3 ) ;
#189 = AXIS2_PLACEMENT_3D ( 'NONE', #112, #360, #271 ) ;
#190 = ADVANCED_FACE ( 'NONE', ( #382 ), #17, .T. ) ;
#191 = ORIENTED_EDGE ( 'NONE', *, *, #276, .F. ) ;
#192 = CIRCLE ( 'NONE', #72, 0.2000000000000000944 ) ;
#193 = APPROVAL_ROLE ( '' ) ;
#194 = CARTESIAN_POINT ( 'NONE',  ( 3.799999999999999378, 1.800000000000000044, -1.300000000000000044 ) ) ;
#195 = CARTESIAN_POINT ( 'NONE',  ( -3.799999999999999822, 2.000000000000000000, 1.300000000000000044 ) ) ;
#196 = CARTESIAN_POINT ( 'NONE',  ( 3.799999999999999822, 2.000000000000000000, -1.300000000000000044 ) ) ;
#197 = ADVANCED_FACE ( 'NONE', ( #304 ), #217, .T. ) ;
#198 = CYLINDRICAL_SURFACE ( 'NONE', #384, 0.2000000000000000944 ) ;
#199 = APPROVAL ( #328, 'UNSPECIFIED' ) ;
#200 = AXIS2_PLACEMENT_3D ( 'NONE', #497, #125, #44 ) ;
#201 = DIRECTION ( 'NONE',  ( 0.000000000000000000, 0.000000000000000000, -1.000000000000000000 ) ) ;
#202 = EDGE_CURVE ( 'NONE', #11, #51, #421, .T. ) ;
#203 = DIRECTION ( 'NONE',  ( 1.000000000000000000, 0.000000000000000000, -2.891205793294683257E-16 ) ) ;
#204 = ADVANCED_FACE ( 'NONE', ( #98 ), #219, .T. ) ;
#205 = CARTESIAN_POINT ( 'NONE',  ( -3.799999999999999822, 2.000000000000000000, -1.300000000000000044 ) ) ;
#206 = DIRECTION ( 'NONE',  ( 1.000000000000000000, -0.000000000000000000, -0.000000000000000000 ) ) ;
#207 = DIRECTION ( 'NONE',  ( 1.000000000000000000, 0.000000000000000000, 0.000000000000000000 ) ) ;
#208 = ORIENTED_EDGE ( 'NONE', *, *, #76, .T. ) ;
#209 = CIRCLE ( 'NONE', #390, 0.2000000000000000944 ) ;
#210 = PLANE ( 'NONE',  #220 ) ;
#211 = ORIENTED_EDGE ( 'NONE', *, *, #386, .T. ) ;
#212 = DIRECTION ( 'NONE',  ( 0.000000000000000000, 0.000000000000000000, -1.000000000000000000 ) ) ;
#213 = DIRECTION ( 'NONE',  ( -1.000000000000000000, -0.000000000000000000, -0.000000000000000000 ) ) ;
#214 = ORIENTED_EDGE ( 'NONE', *, *, #431, .T. ) ;
#215 = EDGE_LOOP ( 'NONE', ( #19, #149, #108 ) ) ;
#216 = DIRECTION ( 'NONE',  ( -0.000000000000000000, 1.000000000000000000, -0.000000000000000000 ) ) ;
#217 = PLANE ( 'NONE',  #166 ) ;
#218 = AXIS2_PLACEMENT_3D ( 'NONE', #514, #474, #107 ) ;
#219 = CYLINDRICAL_SURFACE ( 'NONE', #233, 0.2000000000000000944 ) ;
#220 = AXIS2_PLACEMENT_3D ( 'NONE', #94, #120, #4 ) ;
#221 = DIRECTION ( 'NONE',  ( -1.000000000000000000, 0.000000000000000000, 0.000000000000000000 ) ) ;
#222 = PERSON_AND_ORGANIZATION ( #272, #436 ) ;
#223 = DIRECTION ( 'NONE',  ( 0.000000000000000000, -1.000000000000000000, 0.000000000000000000 ) ) ;
#224 = FACE_OUTER_BOUND ( 'NONE', #131, .T. ) ;
#225 = PERSON_AND_ORGANIZATION ( #272, #436 ) ;
#226 = SPHERICAL_SURFACE ( 'NONE', #323, 0.2000000000000000111 ) ;
#227 = VECTOR ( 'NONE', #240, 1000.000000000000000 ) ;
#228 = ORIENTED_EDGE ( 'NONE', *, *, #99, .F. ) ;
#229 = DIRECTION ( 'NONE',  ( 1.000000000000000000, -0.000000000000000000, 0.000000000000000000 ) ) ;
#230 = DIRECTION ( 'NONE',  ( 1.000000000000000000, 0.000000000000000000, 0.000000000000000000 ) ) ;
#231 = EDGE_CURVE ( 'NONE', #513, #463, #283, .T. ) ;
#232 = CARTESIAN_POINT ( 'NONE',  ( -4.000000000000000000, 1.800000000000000044, 1.500000000000000000 ) ) ;
#233 = AXIS2_PLACEMENT_3D ( 'NONE', #509, #187, #383 ) ;
#234 = DIRECTION ( 'NONE',  ( -1.000000000000000000, -0.000000000000000000, -0.000000000000000000 ) ) ;
#235 = AXIS2_PLACEMENT_3D ( 'NONE', #487, #398, #116 ) ;
#236 = EDGE_CURVE ( 'NONE', #11, #301, #54, .T. ) ;
#237 = DIRECTION ( 'NONE',  ( 0.000000000000000000, 0.000000000000000000, -1.000000000000000000 ) ) ;
#238 = DIRECTION ( 'NONE',  ( -0.000000000000000000, -1.000000000000000000, -0.000000000000000000 ) ) ;
#239 = VERTEX_POINT ( 'NONE', #302 ) ;
#240 = DIRECTION ( 'NONE',  ( 0.000000000000000000, 0.000000000000000000, 1.000000000000000000 ) ) ;
#241 = CIRCLE ( 'NONE', #433, 0.2000000000000000944 ) ;
#242 = DIRECTION ( 'NONE',  ( 0.000000000000000000, -1.000000000000000000, 0.000000000000000000 ) ) ;
#243 = ORIENTED_EDGE ( 'NONE', *, *, #464, .T. ) ;
#244 = ADVANCED_FACE ( 'NONE', ( #263 ), #226, .T. ) ;
#245 = CC_DESIGN_APPROVAL ( #402, ( #345 ) ) ;
#246 = ORIENTED_EDGE ( 'NONE', *, *, #483, .F. ) ;
#247 = CC_DESIGN_DATE_AND_TIME_ASSIGNMENT ( #145, #176, ( #60 ) ) ;
#248 = PLANE ( 'NONE',  #141 ) ;
#249 = ORIENTED_EDGE ( 'NONE', *, *, #256, .F. ) ;
#250 = ORIENTED_EDGE ( 'NONE', *, *, #344, .F. ) ;
#251 = DIRECTION ( 'NONE',  ( -0.000000000000000000, 1.000000000000000000, -0.000000000000000000 ) ) ;
#252 = DIRECTION ( 'NONE',  ( 0.000000000000000000, 0.000000000000000000, 1.000000000000000000 ) ) ;
#253 = ORIENTED_EDGE ( 'NONE', *, *, #377, .F. ) ;
#254 = DATE_AND_TIME ( #47, #475 ) ;
#255 = DIRECTION ( 'NONE',  ( -1.000000000000000000, 0.000000000000000000, 0.000000000000000000 ) ) ;
#256 = EDGE_CURVE ( 'NONE', #301, #186, #511, .T. ) ;
#257 = ORIENTED_EDGE ( 'NONE', *, *, #412, .T. ) ;
#258 = VERTEX_POINT ( 'NONE', #66 ) ;
#259 = DIRECTION ( 'NONE',  ( 0.000000000000000000, 0.000000000000000000, -1.000000000000000000 ) ) ;
#260 = AXIS2_PLACEMENT_3D ( 'NONE', #468, #471, #102 ) ;
#261 = PERSON_AND_ORGANIZATION_ROLE ( 'classification_officer' ) ;
#262 = LINE ( 'NONE', #14, #81 ) ;
#263 = FACE_OUTER_BOUND ( 'NONE', #91, .T. ) ;
#264 = ORIENTED_EDGE ( 'NONE', *, *, #354, .T. ) ;
#265 = PERSON_AND_ORGANIZATION ( #272, #436 ) ;
#266 = PRODUCT_RELATED_PRODUCT_CATEGORY ( 'detail', '', ( #486 ) ) ;
#267 = MANIFOLD_SOLID_BREP ( '\X2\570689d2\X0\1', #123 ) ;
#268 = DIRECTION ( 'NONE',  ( 0.000000000000000000, -0.000000000000000000, 1.000000000000000000 ) ) ;
#269 = ORIENTED_EDGE ( 'NONE', *, *, #119, .T. ) ;
#270 = FACE_OUTER_BOUND ( 'NONE', #415, .T. ) ;
#271 = DIRECTION ( 'NONE',  ( 0.000000000000000000, 0.000000000000000000, 1.000000000000000000 ) ) ;
#272 = PERSON ( 'UNSPECIFIED', 'UNSPECIFIED', 'UNSPECIFIED', ('UNSPECIFIED'), ('UNSPECIFIED'), ('UNSPECIFIED') ) ;
#273 = CARTESIAN_POINT ( 'NONE',  ( 4.000000000000000000, 0.000000000000000000, -1.300000000000000044 ) ) ;
#274 = CARTESIAN_POINT ( 'NONE',  ( 4.000000000000000888, 1.800000000000000044, 1.500000000000000000 ) ) ;
#275 = CIRCLE ( 'NONE', #73, 0.2000000000000000944 ) ;
#276 = EDGE_CURVE ( 'NONE', #51, #513, #307, .T. ) ;
#277 = CYLINDRICAL_SURFACE ( 'NONE', #170, 0.1999999999999996503 ) ;
#278 = FACE_OUTER_BOUND ( 'NONE', #88, .T. ) ;
#279 = DIRECTION ( 'NONE',  ( 0.000000000000000000, 0.000000000000000000, 1.000000000000000000 ) ) ;
#280 = ORIENTED_EDGE ( 'NONE', *, *, #531, .T. ) ;
#281 = DIRECTION ( 'NONE',  ( 0.000000000000000000, 0.000000000000000000, -1.000000000000000000 ) ) ;
#282 = FACE_OUTER_BOUND ( 'NONE', #182, .T. ) ;
#283 = CIRCLE ( 'NONE', #524, 0.2000000000000000944 ) ;
#284 = ADVANCED_FACE ( 'NONE', ( #394 ), #338, .T. ) ;
#285 =( NAMED_UNIT ( * ) SI_UNIT ( $, .STERADIAN. ) SOLID_ANGLE_UNIT ( ) );
#286 = PLANE ( 'NONE',  #480 ) ;
#287 = CC_DESIGN_PERSON_AND_ORGANIZATION_ASSIGNMENT ( #372, #87, ( #486 ) ) ;
#288 = VERTEX_POINT ( 'NONE', #517 ) ;
#289 = CARTESIAN_POINT ( 'NONE',  ( 0.000000000000000000, 0.000000000000000000, 0.000000000000000000 ) ) ;
#290 = ORIENTED_EDGE ( 'NONE', *, *, #332, .F. ) ;
#291 = AXIS2_PLACEMENT_3D ( 'NONE', #161, #213, #281 ) ;
#292 = EDGE_LOOP ( 'NONE', ( #264, #491, #429, #456 ) ) ;
#293 = ORIENTED_EDGE ( 'NONE', *, *, #481, .F. ) ;
#294 = FACE_OUTER_BOUND ( 'NONE', #500, .T. ) ;
#295 = ORIENTED_EDGE ( 'NONE', *, *, #386, .F. ) ;
#296 = ADVANCED_FACE ( 'NONE', ( #224 ), #109, .F. ) ;
#297 = ORIENTED_EDGE ( 'NONE', *, *, #236, .F. ) ;
#298 = CARTESIAN_POINT ( 'NONE',  ( -3.799999999999999822, 1.800000000000000044, -1.300000000000000044 ) ) ;
#299 = AXIS2_PLACEMENT_3D ( 'NONE', #536, #279, #172 ) ;
#300 = PERSON_AND_ORGANIZATION ( #272, #436 ) ;
#301 = VERTEX_POINT ( 'NONE', #393 ) ;
#302 = CARTESIAN_POINT ( 'NONE',  ( -3.799999999999999822, 0.000000000000000000, -1.500000000000000000 ) ) ;
#303 = LOCAL_TIME ( 14, 55, 15.00000000000000000, #56 ) ;
#304 = FACE_OUTER_BOUND ( 'NONE', #347, .T. ) ;
#305 = AXIS2_PLACEMENT_3D ( 'NONE', #195, #74, #201 ) ;
#306 = APPROVAL ( #346, 'UNSPECIFIED' ) ;
#307 = LINE ( 'NONE', #424, #153 ) ;
#308 = ORIENTED_EDGE ( 'NONE', *, *, #377, .T. ) ;
#309 = DIRECTION ( 'NONE',  ( 0.000000000000000000, -1.000000000000000000, 0.000000000000000000 ) ) ;
#310 = CIRCLE ( 'NONE', #86, 0.2000000000000000944 ) ;
#311 = DIRECTION ( 'NONE',  ( -0.000000000000000000, -1.000000000000000000, -0.000000000000000000 ) ) ;
#312 = CARTESIAN_POINT ( 'NONE',  ( 3.800000000000000711, 1.800000000000000044, 1.300000000000000044 ) ) ;
#313 = LOCAL_TIME ( 14, 55, 15.00000000000000000, #59 ) ;
#314 = DIRECTION ( 'NONE',  ( 0.000000000000000000, 0.000000000000000000, 1.000000000000000000 ) ) ;
#315 = LINE ( 'NONE', #158, #103 ) ;
#316 = CARTESIAN_POINT ( 'NONE',  ( 3.800000000000000711, 2.000000000000000000, 1.300000000000000044 ) ) ;
#317 = CARTESIAN_POINT ( 'NONE',  ( -3.799999999999999822, 2.000000000000000000, 1.300000000000000044 ) ) ;
#318 = DIRECTION ( 'NONE',  ( 0.000000000000000000, 0.000000000000000000, 1.000000000000000000 ) ) ;
#319 = AXIS2_PLACEMENT_3D ( 'NONE', #164, #32, #413 ) ;
#320 = EDGE_CURVE ( 'NONE', #143, #258, #262, .T. ) ;
#321 = CARTESIAN_POINT ( 'NONE',  ( 4.000000000000000888, 2.000000000000000000, 1.300000000000000044 ) ) ;
#322 = CARTESIAN_POINT ( 'NONE',  ( -4.000000000000000000, 0.000000000000000000, 1.300000000000000044 ) ) ;
#323 = AXIS2_PLACEMENT_3D ( 'NONE', #61, #144, #348 ) ;
#324 = DIRECTION ( 'NONE',  ( 0.000000000000000000, 1.000000000000000000, -0.000000000000000000 ) ) ;
#325 = AXIS2_PLACEMENT_3D ( 'NONE', #535, #324, #252 ) ;
#326 = CIRCLE ( 'NONE', #235, 0.2000000000000000944 ) ;
#327 = ORIENTED_EDGE ( 'NONE', *, *, #148, .T. ) ;
#328 = APPROVAL_STATUS ( 'not_yet_approved' ) ;
#329 = ORIENTED_EDGE ( 'NONE', *, *, #202, .F. ) ;
#330 = CARTESIAN_POINT ( 'NONE',  ( -3.799999999999999822, 1.800000000000000044, -1.500000000000000000 ) ) ;
#331 = ORIENTED_EDGE ( 'NONE', *, *, #349, .F. ) ;
#332 = EDGE_CURVE ( 'NONE', #406, #301, #477, .T. ) ;
#333 = DIRECTION ( 'NONE',  ( -1.000000000000000000, 0.000000000000000000, -0.000000000000000000 ) ) ;
#334 = VECTOR ( 'NONE', #183, 1000.000000000000000 ) ;
#335 = APPROVAL_ROLE ( '' ) ;
#336 = ORIENTED_EDGE ( 'NONE', *, *, #355, .T. ) ;
#337 = LINE ( 'NONE', #49, #399 ) ;
#338 = CYLINDRICAL_SURFACE ( 'NONE', #358, 0.2000000000000000944 ) ;
#339 = ORIENTED_EDGE ( 'NONE', *, *, #518, .F. ) ;
#340 = ORIENTED_EDGE ( 'NONE', *, *, #93, .T. ) ;
#341 = CARTESIAN_POINT ( 'NONE',  ( 3.799999999999999378, 0.000000000000000000, -1.300000000000000044 ) ) ;
#342 = ORIENTED_EDGE ( 'NONE', *, *, #344, .T. ) ;
#343 = VECTOR ( 'NONE', #499, 1000.000000000000000 ) ;
#344 = EDGE_CURVE ( 'NONE', #490, #463, #8, .T. ) ;
#345 = PRODUCT_DEFINITION_FORMATION_WITH_SPECIFIED_SOURCE ( 'ANY', '', #486, .NOT_KNOWN. ) ;
#346 = APPROVAL_STATUS ( 'not_yet_approved' ) ;
#347 = EDGE_LOOP ( 'NONE', ( #180, #336, #342, #308 ) ) ;
#348 = DIRECTION ( 'NONE',  ( 0.000000000000000000, 0.000000000000000000, -1.000000000000000000 ) ) ;
#349 = EDGE_CURVE ( 'NONE', #96, #353, #420, .T. ) ;
#350 = DATE_TIME_ROLE ( 'classification_date' ) ;
#351 = CIRCLE ( 'NONE', #440, 0.2000000000000000944 ) ;
#352 = CARTESIAN_POINT ( 'NONE',  ( 0.000000000000000000, 2.000000000000000000, 0.000000000000000000 ) ) ;
#353 = VERTEX_POINT ( 'NONE', #273 ) ;
#354 = EDGE_CURVE ( 'NONE', #96, #239, #154, .T. ) ;
#355 = EDGE_CURVE ( 'NONE', #519, #490, #27, .T. ) ;
#356 = APPROVAL_PERSON_ORGANIZATION ( #496, #199, #455 ) ;
#357 = DIRECTION ( 'NONE',  ( -1.000000000000000000, 0.000000000000000000, 0.000000000000000000 ) ) ;
#358 = AXIS2_PLACEMENT_3D ( 'NONE', #389, #259, #146 ) ;
#359 = DESIGN_CONTEXT ( 'detailed design', #504, 'design' ) ;
#360 = DIRECTION ( 'NONE',  ( 0.000000000000000000, 1.000000000000000000, -0.000000000000000000 ) ) ;
#361 = FACE_OUTER_BOUND ( 'NONE', #100, .T. ) ;
#362 = DIRECTION ( 'NONE',  ( 0.000000000000000000, 1.000000000000000000, 0.000000000000000000 ) ) ;
#363 = ADVANCED_FACE ( 'NONE', ( #401 ), #198, .T. ) ;
#364 = CARTESIAN_POINT ( 'NONE',  ( -3.799999999999999822, 2.000000000000000000, -1.500000000000000000 ) ) ;
#365 = CIRCLE ( 'NONE', #132, 0.2000000000000000944 ) ;
#366 = CARTESIAN_POINT ( 'NONE',  ( 3.800000000000000711, 2.000000000000000000, 1.300000000000000044 ) ) ;
#367 = VERTEX_POINT ( 'NONE', #528 ) ;
#368 = ADVANCED_FACE ( 'NONE', ( #361 ), #482, .T. ) ;
#369 = EDGE_LOOP ( 'NONE', ( #331, #388, #339, #57 ) ) ;
#370 = CARTESIAN_POINT ( 'NONE',  ( -4.000000000000000000, 2.000000000000000000, 1.300000000000000044 ) ) ;
#371 = FACE_OUTER_BOUND ( 'NONE', #292, .T. ) ;
#372 = PERSON_AND_ORGANIZATION ( #272, #436 ) ;
#373 = FACE_OUTER_BOUND ( 'NONE', #104, .T. ) ;
#374 = AXIS2_PLACEMENT_3D ( 'NONE', #419, #140, #418 ) ;
#375 = DIRECTION ( 'NONE',  ( 0.000000000000000000, 0.000000000000000000, 1.000000000000000000 ) ) ;
#376 = LINE ( 'NONE', #448, #181 ) ;
#377 = EDGE_CURVE ( 'NONE', #463, #11, #315, .T. ) ;
#378 = FACE_OUTER_BOUND ( 'NONE', #476, .T. ) ;
#379 = ORIENTED_EDGE ( 'NONE', *, *, #488, .T. ) ;
#380 = ORIENTED_EDGE ( 'NONE', *, *, #438, .F. ) ;
#381 = CALENDAR_DATE ( 2026, 22, 3 ) ;
#382 = FACE_OUTER_BOUND ( 'NONE', #215, .T. ) ;
#383 = DIRECTION ( 'NONE',  ( 0.000000000000000000, 0.000000000000000000, 1.000000000000000000 ) ) ;
#384 = AXIS2_PLACEMENT_3D ( 'NONE', #29, #230, #530 ) ;
#385 = CARTESIAN_POINT ( 'NONE',  ( -4.000000000000000000, 0.000000000000000000, -1.300000000000000044 ) ) ;
#386 = EDGE_CURVE ( 'NONE', #367, #143, #23, .T. ) ;
#387 = EDGE_CURVE ( 'NONE', #11, #519, #156, .T. ) ;
#388 = ORIENTED_EDGE ( 'NONE', *, *, #111, .F. ) ;
#389 = CARTESIAN_POINT ( 'NONE',  ( -3.799999999999999822, 1.800000000000000044, 0.000000000000000000 ) ) ;
#390 = AXIS2_PLACEMENT_3D ( 'NONE', #443, #494, #375 ) ;
#391 = PERSON_AND_ORGANIZATION ( #272, #436 ) ;
#392 = DIRECTION ( 'NONE',  ( -0.000000000000000000, -1.000000000000000000, -0.000000000000000000 ) ) ;
#393 = CARTESIAN_POINT ( 'NONE',  ( -4.000000000000000000, 1.800000000000000044, -1.300000000000000044 ) ) ;
#394 = FACE_OUTER_BOUND ( 'NONE', #41, .T. ) ;
#395 = EDGE_CURVE ( 'NONE', #129, #288, #351, .T. ) ;
#396 = ORIENTED_EDGE ( 'NONE', *, *, #236, .T. ) ;
#397 = CARTESIAN_POINT ( 'NONE',  ( 4.000000000000000888, 2.000000000000000000, 1.300000000000000044 ) ) ;
#398 = DIRECTION ( 'NONE',  ( 0.000000000000000000, -0.000000000000000000, 1.000000000000000000 ) ) ;
#399 = VECTOR ( 'NONE', #216, 1000.000000000000000 ) ;
#400 = DIRECTION ( 'NONE',  ( -1.000000000000000000, -0.000000000000000000, -0.000000000000000000 ) ) ;
#401 = FACE_OUTER_BOUND ( 'NONE', #493, .T. ) ;
#402 = APPROVAL ( #52, 'UNSPECIFIED' ) ;
#403 = VECTOR ( 'NONE', #532, 1000.000000000000000 ) ;
#404 = DIRECTION ( 'NONE',  ( -0.000000000000000000, -1.000000000000000000, -0.000000000000000000 ) ) ;
#405 = CARTESIAN_POINT ( 'NONE',  ( 3.799999999999999378, 0.000000000000000000, -1.500000000000000000 ) ) ;
#406 = VERTEX_POINT ( 'NONE', #30 ) ;
#407 = DIRECTION ( 'NONE',  ( 0.000000000000000000, 0.000000000000000000, 1.000000000000000000 ) ) ;
#408 =( NAMED_UNIT ( * ) PLANE_ANGLE_UNIT ( ) SI_UNIT ( $, .RADIAN. ) );
#409 = ORIENTED_EDGE ( 'NONE', *, *, #531, .F. ) ;
#410 = AXIS2_PLACEMENT_3D ( 'NONE', #289, #90, #207 ) ;
#411 = FACE_OUTER_BOUND ( 'NONE', #147, .T. ) ;
#412 = EDGE_CURVE ( 'NONE', #186, #239, #275, .T. ) ;
#413 = DIRECTION ( 'NONE',  ( 0.000000000000000000, -0.000000000000000000, 1.000000000000000000 ) ) ;
#414 = ORIENTED_EDGE ( 'NONE', *, *, #349, .T. ) ;
#415 = EDGE_LOOP ( 'NONE', ( #137, #250, #167, #13 ) ) ;
#416 = VERTEX_POINT ( 'NONE', #489 ) ;
#417 = CARTESIAN_POINT ( 'NONE',  ( -3.799999999999999822, 0.000000000000000000, 1.500000000000000000 ) ) ;
#418 = DIRECTION ( 'NONE',  ( -1.000000000000000000, 0.000000000000000000, 2.168404344971008079E-15 ) ) ;
#419 = CARTESIAN_POINT ( 'NONE',  ( 3.799999999999999822, 1.800000000000000044, -1.300000000000000044 ) ) ;
#420 = CIRCLE ( 'NONE', #110, 0.2000000000000000944 ) ;
#421 = CIRCLE ( 'NONE', #260, 0.2000000000000000944 ) ;
#422 = DIRECTION ( 'NONE',  ( 2.168404344971007685E-15, 1.000000000000000000, 0.000000000000000000 ) ) ;
#423 = CALENDAR_DATE ( 2026, 22, 3 ) ;
#424 = CARTESIAN_POINT ( 'NONE',  ( 4.000000000000000000, 1.800000000000000044, -1.500000000000000000 ) ) ;
#425 = COORDINATED_UNIVERSAL_TIME_OFFSET ( 8, 0, .AHEAD. ) ;
#426 = CARTESIAN_POINT ( 'NONE',  ( 3.800000000000000711, 0.000000000000000000, 1.300000000000000044 ) ) ;
#427 = CARTESIAN_POINT ( 'NONE',  ( -4.000000000000000000, 2.000000000000000000, -1.300000000000000044 ) ) ;
#428 = ADVANCED_FACE ( 'NONE', ( #441 ), #115, .T. ) ;
#429 = ORIENTED_EDGE ( 'NONE', *, *, #276, .T. ) ;
#430 = ORIENTED_EDGE ( 'NONE', *, *, #84, .F. ) ;
#431 = EDGE_CURVE ( 'NONE', #416, #288, #434, .T. ) ;
#432 = CARTESIAN_POINT ( 'NONE',  ( -3.799999999999999822, 2.000000000000000000, 1.500000000000000000 ) ) ;
#433 = AXIS2_PLACEMENT_3D ( 'NONE', #33, #206, #318 ) ;
#434 = LINE ( 'NONE', #274, #28 ) ;
#435 = APPLICATION_CONTEXT ( 'configuration controlled 3d designs of mechanical parts and assemblies' ) ;
#436 = ORGANIZATION ( 'UNSPECIFIED', 'UNSPECIFIED', '' ) ;
#437 = DIRECTION ( 'NONE',  ( -0.000000000000000000, 1.000000000000000000, -0.000000000000000000 ) ) ;
#438 = EDGE_CURVE ( 'NONE', #519, #406, #326, .T. ) ;
#439 = CARTESIAN_POINT ( 'NONE',  ( -4.000000000000000000, 0.000000000000000000, -1.500000000000000000 ) ) ;
#440 = AXIS2_PLACEMENT_3D ( 'NONE', #312, #362, #314 ) ;
#441 = FACE_OUTER_BOUND ( 'NONE', #83, .T. ) ;
#442 = ADVANCED_FACE ( 'NONE', ( #270 ), #277, .T. ) ;
#443 = CARTESIAN_POINT ( 'NONE',  ( 3.799999999999999822, 1.800000000000000044, -1.300000000000000044 ) ) ;
#444 = LINE ( 'NONE', #45, #227 ) ;
#445 = EDGE_CURVE ( 'NONE', #239, #51, #68, .T. ) ;
#446 = ORIENTED_EDGE ( 'NONE', *, *, #332, .T. ) ;
#447 = CARTESIAN_POINT ( 'NONE',  ( -4.000000000000000000, 2.000000000000000000, 1.500000000000000000 ) ) ;
#448 = CARTESIAN_POINT ( 'NONE',  ( 4.000000000000000000, 0.000000000000000000, -1.500000000000000000 ) ) ;
#449 = APPLICATION_PROTOCOL_DEFINITION ( 'international standard', 'config_control_design', 1994, #435 ) ;
#450 = DIRECTION ( 'NONE',  ( 0.000000000000000000, -1.000000000000000000, 0.000000000000000000 ) ) ;
#451 = ORIENTED_EDGE ( 'NONE', *, *, #412, .F. ) ;
#452 = DIRECTION ( 'NONE',  ( 0.000000000000000000, -1.000000000000000000, 0.000000000000000000 ) ) ;
#453 = ORIENTED_EDGE ( 'NONE', *, *, #445, .F. ) ;
#454 = CC_DESIGN_PERSON_AND_ORGANIZATION_ASSIGNMENT ( #222, #138, ( #60 ) ) ;
#455 = APPROVAL_ROLE ( '' ) ;
#456 = ORIENTED_EDGE ( 'NONE', *, *, #111, .T. ) ;
#457 = SPHERICAL_SURFACE ( 'NONE', #200, 0.2000000000000000111 ) ;
#458 = ORIENTED_EDGE ( 'NONE', *, *, #320, .T. ) ;
#459 = COORDINATED_UNIVERSAL_TIME_OFFSET ( 8, 0, .AHEAD. ) ;
#460 = AXIS2_PLACEMENT_3D ( 'NONE', #316, #450, #212 ) ;
#461 = ORIENTED_EDGE ( 'NONE', *, *, #355, .F. ) ;
#462 = DIRECTION ( 'NONE',  ( 0.000000000000000000, 1.000000000000000000, 0.000000000000000000 ) ) ;
#463 = VERTEX_POINT ( 'NONE', #196 ) ;
#464 = EDGE_CURVE ( 'NONE', #353, #416, #525, .T. ) ;
#465 = PERSON_AND_ORGANIZATION ( #272, #436 ) ;
#466 = ORIENTED_EDGE ( 'NONE', *, *, #93, .F. ) ;
#467 = VECTOR ( 'NONE', #400, 1000.000000000000000 ) ;
#468 = CARTESIAN_POINT ( 'NONE',  ( -3.799999999999999822, 1.800000000000000044, -1.300000000000000044 ) ) ;
#469 = VECTOR ( 'NONE', #152, 1000.000000000000000 ) ;
#470 = CALENDAR_DATE ( 2026, 22, 3 ) ;
#471 = DIRECTION ( 'NONE',  ( -1.000000000000000000, 0.000000000000000000, 0.000000000000000000 ) ) ;
#472 = ORIENTED_EDGE ( 'NONE', *, *, #395, .T. ) ;
#473 = VECTOR ( 'NONE', #437, 1000.000000000000000 ) ;
#474 = DIRECTION ( 'NONE',  ( 1.000000000000000000, 0.000000000000000000, 0.000000000000000000 ) ) ;
#475 = LOCAL_TIME ( 14, 55, 15.00000000000000000, #130 ) ;
#476 = EDGE_LOOP ( 'NONE', ( #510, #211, #458, #502 ) ) ;
#477 = LINE ( 'NONE', #50, #31 ) ;
#478 = VECTOR ( 'NONE', #229, 1000.000000000000000 ) ;
#479 = DIRECTION ( 'NONE',  ( 0.000000000000000000, 0.000000000000000000, 1.000000000000000000 ) ) ;
#480 = AXIS2_PLACEMENT_3D ( 'NONE', #118, #541, #162 ) ;
#481 = EDGE_CURVE ( 'NONE', #129, #367, #71, .T. ) ;
#482 = CYLINDRICAL_SURFACE ( 'NONE', #305, 0.2000000000000000944 ) ;
#483 = EDGE_CURVE ( 'NONE', #129, #490, #185, .T. ) ;
#484 = CC_DESIGN_APPROVAL ( #199, ( #60 ) ) ;
#485 = CARTESIAN_POINT ( 'NONE',  ( -3.799999999999999822, 0.000000000000000000, -1.300000000000000044 ) ) ;
#486 = PRODUCT ( 'BAR3X8T2', 'BAR3X8T2', '', ( #127 ) ) ;
#487 = CARTESIAN_POINT ( 'NONE',  ( -3.799999999999999822, 1.800000000000000044, 1.300000000000000044 ) ) ;
#488 = EDGE_CURVE ( 'NONE', #22, #406, #79, .T. ) ;
#489 = CARTESIAN_POINT ( 'NONE',  ( 4.000000000000000000, 1.800000000000000044, -1.300000000000000044 ) ) ;
#490 = VERTEX_POINT ( 'NONE', #366 ) ;
#491 = ORIENTED_EDGE ( 'NONE', *, *, #445, .T. ) ;
#492 = LINE ( 'NONE', #321, #343 ) ;
#493 = EDGE_LOOP ( 'NONE', ( #177, #191, #329, #253 ) ) ;
#494 = DIRECTION ( 'NONE',  ( -0.000000000000000000, 1.000000000000000000, 0.000000000000000000 ) ) ;
#495 = CARTESIAN_POINT ( 'NONE',  ( -3.799999999999999822, 0.000000000000000000, 1.300000000000000044 ) ) ;
#496 = PERSON_AND_ORGANIZATION ( #272, #436 ) ;
#497 = CARTESIAN_POINT ( 'NONE',  ( -3.799999999999999822, 1.800000000000000044, -1.300000000000000044 ) ) ;
#498 = CC_DESIGN_DATE_AND_TIME_ASSIGNMENT ( #20, #350, ( #15 ) ) ;
#499 = DIRECTION ( 'NONE',  ( 0.000000000000000000, -1.000000000000000000, 0.000000000000000000 ) ) ;
#500 = EDGE_LOOP ( 'NONE', ( #67, #243, #214, #280 ) ) ;
#501 = EDGE_LOOP ( 'NONE', ( #63, #293, #40, #461 ) ) ;
#502 = ORIENTED_EDGE ( 'NONE', *, *, #179, .T. ) ;
#503 = CARTESIAN_POINT ( 'NONE',  ( 4.000000000000000888, 0.000000000000000000, 1.300000000000000044 ) ) ;
#504 = APPLICATION_CONTEXT ( 'configuration controlled 3d designs of mechanical parts and assemblies' ) ;
#505 = APPROVAL_DATE_TIME ( #254, #402 ) ;
#506 = CIRCLE ( 'NONE', #299, 0.2000000000000000944 ) ;
#507 = ADVANCED_FACE ( 'NONE', ( #411 ), #2, .F. ) ;
#508 = ORIENTED_EDGE ( 'NONE', *, *, #179, .F. ) ;
#509 = CARTESIAN_POINT ( 'NONE',  ( 0.000000000000000000, 1.800000000000000044, 1.300000000000000044 ) ) ;
#510 = ORIENTED_EDGE ( 'NONE', *, *, #481, .T. ) ;
#511 = LINE ( 'NONE', #427, #101 ) ;
#512 = AXIS2_PLACEMENT_3D ( 'NONE', #117, #242, #237 ) ;
#513 = VERTEX_POINT ( 'NONE', #38 ) ;
#514 = CARTESIAN_POINT ( 'NONE',  ( -4.000000000000000000, 2.000000000000000000, -1.500000000000000000 ) ) ;
#515 = APPROVAL_DATE_TIME ( #142, #306 ) ;
#516 = LINE ( 'NONE', #53, #10 ) ;
#517 = CARTESIAN_POINT ( 'NONE',  ( 4.000000000000000888, 1.800000000000000044, 1.300000000000000044 ) ) ;
#518 = EDGE_CURVE ( 'NONE', #416, #513, #209, .T. ) ;
#519 = VERTEX_POINT ( 'NONE', #317 ) ;
#520 = DIRECTION ( 'NONE',  ( 0.000000000000000000, -1.000000000000000000, 0.000000000000000000 ) ) ;
#521 = APPROVAL_PERSON_ORGANIZATION ( #391, #402, #335 ) ;
#522 = CARTESIAN_POINT ( 'NONE',  ( -3.799999999999999822, 2.000000000000000000, 1.500000000000000000 ) ) ;
#523 = ADVANCED_FACE ( 'NONE', ( #378 ), #248, .F. ) ;
#524 = AXIS2_PLACEMENT_3D ( 'NONE', #194, #106, #422 ) ;
#525 = LINE ( 'NONE', #113, #473 ) ;
#526 = CIRCLE ( 'NONE', #325, 0.2000000000000000944 ) ;
#527 = UNCERTAINTY_MEASURE_WITH_UNIT (LENGTH_MEASURE( 1.000000000000000082E-05 ), #534, 'distance_accuracy_value', 'NONE');
#528 = CARTESIAN_POINT ( 'NONE',  ( -3.799999999999999822, 1.800000000000000044, 1.500000000000000000 ) ) ;
#529 = AXIS2_PLACEMENT_3D ( 'NONE', #205, #452, #42 ) ;
#530 = DIRECTION ( 'NONE',  ( 0.000000000000000000, 0.000000000000000000, -1.000000000000000000 ) ) ;
#531 = EDGE_CURVE ( 'NONE', #288, #139, #492, .T. ) ;
#532 = DIRECTION ( 'NONE',  ( -0.000000000000000000, 1.000000000000000000, -0.000000000000000000 ) ) ;
#533 = ADVANCED_FACE ( 'NONE', ( #540 ), #124, .T. ) ;
#534 =( LENGTH_UNIT ( ) NAMED_UNIT ( * ) SI_UNIT ( .MILLI., .METRE. ) );
#535 = CARTESIAN_POINT ( 'NONE',  ( -3.799999999999999822, 1.800000000000000044, 1.300000000000000044 ) ) ;
#536 = CARTESIAN_POINT ( 'NONE',  ( 3.800000000000000711, 1.800000000000000044, 1.300000000000000044 ) ) ;
#537 = ADVANCED_FACE ( 'NONE', ( #278 ), #121, .T. ) ;
#538 = APPLICATION_PROTOCOL_DEFINITION ( 'international standard', 'config_control_design', 1994, #504 ) ;
#539 = ORIENTED_EDGE ( 'NONE', *, *, #256, .T. ) ;
#540 = FACE_OUTER_BOUND ( 'NONE', #369, .T. ) ;
#541 = DIRECTION ( 'NONE',  ( 0.000000000000000000, 0.000000000000000000, 1.000000000000000000 ) ) ;
ENDSEC;
END-ISO-10303-21;
