ISO-10303-21;
HEADER;
FILE_DESCRIPTION (( 'STEP AP203' ),
    '1' );
FILE_NAME ('BAR3X10T2.step',
    '2026-03-22T06:55:38',
    ( '' ),
    ( '' ),
    'SwSTEP 2.0',
    'SolidWorks 2025',
    '' );
FILE_SCHEMA (( 'CONFIG_CONTROL_DESIGN' ));
ENDSEC;

DATA;
#1 = EDGE_CURVE ( 'NONE', #371, #117, #367, .T. ) ;
#2 = VERTEX_POINT ( 'NONE', #212 ) ;
#3 = DIRECTION ( 'NONE',  ( -1.000000000000000000, -0.000000000000000000, -0.000000000000000000 ) ) ;
#4 = DIRECTION ( 'NONE',  ( 0.000000000000000000, 0.000000000000000000, 1.000000000000000000 ) ) ;
#5 = CARTESIAN_POINT ( 'NONE',  ( 4.800000000000002487, 1.800000000000000044, 1.499999999999999778 ) ) ;
#6 = AXIS2_PLACEMENT_3D ( 'NONE', #528, #38, #241 ) ;
#7 = DIRECTION ( 'NONE',  ( 1.000000000000000000, 0.000000000000000000, 0.000000000000000000 ) ) ;
#8 = CARTESIAN_POINT ( 'NONE',  ( 0.000000000000000000, 0.000000000000000000, 0.000000000000000000 ) ) ;
#9 = APPLICATION_CONTEXT ( 'configuration controlled 3d designs of mechanical parts and assemblies' ) ;
#10 = DIRECTION ( 'NONE',  ( 4.336808689942015369E-15, 1.000000000000000000, 0.000000000000000000 ) ) ;
#11 = DIRECTION ( 'NONE',  ( 1.000000000000000000, 0.000000000000000000, 0.000000000000000000 ) ) ;
#12 = COORDINATED_UNIVERSAL_TIME_OFFSET ( 8, 0, .AHEAD. ) ;
#13 = DIRECTION ( 'NONE',  ( 0.000000000000000000, 1.000000000000000000, -0.000000000000000000 ) ) ;
#14 = VECTOR ( 'NONE', #523, 1000.000000000000000 ) ;
#15 = PERSON_AND_ORGANIZATION ( #228, #537 ) ;
#16 = EDGE_CURVE ( 'NONE', #487, #111, #470, .T. ) ;
#17 = CARTESIAN_POINT ( 'NONE',  ( -4.999999999999996447, 0.000000000000000000, 1.299999999999999822 ) ) ;
#18 = CALENDAR_DATE ( 2026, 22, 3 ) ;
#19 = AXIS2_PLACEMENT_3D ( 'NONE', #379, #535, #525 ) ;
#20 = LINE ( 'NONE', #478, #230 ) ;
#21 = VECTOR ( 'NONE', #129, 1000.000000000000000 ) ;
#22 = AXIS2_PLACEMENT_3D ( 'NONE', #389, #174, #347 ) ;
#23 = EDGE_CURVE ( 'NONE', #415, #487, #46, .T. ) ;
#24 = ORIENTED_EDGE ( 'NONE', *, *, #346, .F. ) ;
#25 = EDGE_CURVE ( 'NONE', #75, #382, #490, .T. ) ;
#26 = AXIS2_PLACEMENT_3D ( 'NONE', #77, #387, #44 ) ;
#27 = ORIENTED_EDGE ( 'NONE', *, *, #334, .T. ) ;
#28 = ORIENTED_EDGE ( 'NONE', *, *, #443, .F. ) ;
#29 = CYLINDRICAL_SURFACE ( 'NONE', #333, 0.2000000000000000944 ) ;
#30 = CARTESIAN_POINT ( 'NONE',  ( 0.000000000000000000, 1.800000000000000044, 1.299999999999999822 ) ) ;
#31 = VERTEX_POINT ( 'NONE', #115 ) ;
#32 = VERTEX_POINT ( 'NONE', #539 ) ;
#33 = CARTESIAN_POINT ( 'NONE',  ( 5.000000000000002665, 2.000000000000000000, -1.300000000000000266 ) ) ;
#34 = EDGE_CURVE ( 'NONE', #410, #538, #63, .T. ) ;
#35 = ORIENTED_EDGE ( 'NONE', *, *, #190, .T. ) ;
#36 = EDGE_CURVE ( 'NONE', #371, #382, #479, .T. ) ;
#37 = ORIENTED_EDGE ( 'NONE', *, *, #69, .T. ) ;
#38 = DIRECTION ( 'NONE',  ( -2.891205793294678326E-16, 0.000000000000000000, 1.000000000000000000 ) ) ;
#39 = CYLINDRICAL_SURFACE ( 'NONE', #19, 0.2000000000000000944 ) ;
#40 = AXIS2_PLACEMENT_3D ( 'NONE', #137, #13, #62 ) ;
#41 = ADVANCED_FACE ( 'NONE', ( #102 ), #429, .T. ) ;
#42 = ORIENTED_EDGE ( 'NONE', *, *, #69, .F. ) ;
#43 = ORIENTED_EDGE ( 'NONE', *, *, #441, .T. ) ;
#44 = DIRECTION ( 'NONE',  ( 0.000000000000000000, 0.000000000000000000, -1.000000000000000000 ) ) ;
#45 = PLANE ( 'NONE',  #452 ) ;
#46 = LINE ( 'NONE', #297, #21 ) ;
#47 = DIRECTION ( 'NONE',  ( 1.000000000000000000, 0.000000000000000000, -0.000000000000000000 ) ) ;
#48 = CARTESIAN_POINT ( 'NONE',  ( 5.000000000000002665, 0.000000000000000000, -1.500000000000000222 ) ) ;
#49 = FACE_OUTER_BOUND ( 'NONE', #423, .T. ) ;
#50 = DIRECTION ( 'NONE',  ( 0.000000000000000000, 0.000000000000000000, 1.000000000000000000 ) ) ;
#51 = DIRECTION ( 'NONE',  ( -1.000000000000000000, 0.000000000000000000, 0.000000000000000000 ) ) ;
#52 = VECTOR ( 'NONE', #215, 1000.000000000000000 ) ;
#53 = COORDINATED_UNIVERSAL_TIME_OFFSET ( 8, 0, .AHEAD. ) ;
#54 = AXIS2_PLACEMENT_3D ( 'NONE', #57, #529, #4 ) ;
#55 = DIRECTION ( 'NONE',  ( 1.000000000000000000, 0.000000000000000000, 0.000000000000000000 ) ) ;
#56 = PRODUCT_DEFINITION_FORMATION_WITH_SPECIFIED_SOURCE ( 'ANY', '', #243, .NOT_KNOWN. ) ;
#57 = CARTESIAN_POINT ( 'NONE',  ( 4.800000000000003375, 1.800000000000000044, -1.300000000000000266 ) ) ;
#58 = DATE_AND_TIME ( #433, #358 ) ;
#59 = CARTESIAN_POINT ( 'NONE',  ( 0.000000000000000000, 0.000000000000000000, 0.000000000000000000 ) ) ;
#60 = ADVANCED_FACE ( 'NONE', ( #49 ), #473, .F. ) ;
#61 = PERSON_AND_ORGANIZATION ( #228, #537 ) ;
#62 = DIRECTION ( 'NONE',  ( 0.000000000000000000, 0.000000000000000000, 1.000000000000000000 ) ) ;
#63 = CIRCLE ( 'NONE', #439, 0.2000000000000000944 ) ;
#64 = COORDINATED_UNIVERSAL_TIME_OFFSET ( 8, 0, .AHEAD. ) ;
#65 = FACE_OUTER_BOUND ( 'NONE', #198, .T. ) ;
#66 =( GEOMETRIC_REPRESENTATION_CONTEXT ( 3 ) GLOBAL_UNCERTAINTY_ASSIGNED_CONTEXT ( ( #107 ) ) GLOBAL_UNIT_ASSIGNED_CONTEXT ( ( #283, #305, #265 ) ) REPRESENTATION_CONTEXT ( 'NONE', 'WORKASPACE' ) );
#67 = PRODUCT_DEFINITION ( 'UNKNOWN', '', #56, #184 ) ;
#68 = CLOSED_SHELL ( 'NONE', ( #434, #290, #154, #276, #521, #60, #209, #460, #353, #98, #271, #41, #147, #268, #482, #119, #229, #533 ) ) ;
#69 = EDGE_CURVE ( 'NONE', #31, #285, #236, .T. ) ;
#70 = VERTEX_POINT ( 'NONE', #5 ) ;
#71 = ORIENTED_EDGE ( 'NONE', *, *, #36, .T. ) ;
#72 = CARTESIAN_POINT ( 'NONE',  ( -4.799999999999997158, 0.000000000000000000, 1.299999999999999822 ) ) ;
#73 = CARTESIAN_POINT ( 'NONE',  ( -4.799999999999998046, 2.000000000000000000, -1.500000000000000222 ) ) ;
#74 = AXIS2_PLACEMENT_3D ( 'NONE', #168, #341, #213 ) ;
#75 = VERTEX_POINT ( 'NONE', #221 ) ;
#76 = CARTESIAN_POINT ( 'NONE',  ( -4.799999999999998046, 1.800000000000000044, -1.300000000000000266 ) ) ;
#77 = CARTESIAN_POINT ( 'NONE',  ( 4.800000000000002487, 1.800000000000000044, 1.299999999999999822 ) ) ;
#78 = CARTESIAN_POINT ( 'NONE',  ( 5.000000000000002665, 2.000000000000000000, -1.500000000000000222 ) ) ;
#79 = ORIENTED_EDGE ( 'NONE', *, *, #467, .T. ) ;
#80 = ORIENTED_EDGE ( 'NONE', *, *, #16, .F. ) ;
#81 = DIRECTION ( 'NONE',  ( 0.000000000000000000, 0.000000000000000000, 1.000000000000000000 ) ) ;
#82 = DIRECTION ( 'NONE',  ( 0.000000000000000000, 0.000000000000000000, -1.000000000000000000 ) ) ;
#83 = EDGE_CURVE ( 'NONE', #287, #285, #140, .T. ) ;
#84 = ORIENTED_EDGE ( 'NONE', *, *, #16, .T. ) ;
#85 = ORIENTED_EDGE ( 'NONE', *, *, #506, .T. ) ;
#86 = FACE_OUTER_BOUND ( 'NONE', #148, .T. ) ;
#87 = CARTESIAN_POINT ( 'NONE',  ( -4.999999999999996447, 1.800000000000000044, 1.499999999999999778 ) ) ;
#88 = AXIS2_PLACEMENT_3D ( 'NONE', #141, #437, #300 ) ;
#89 = EDGE_LOOP ( 'NONE', ( #193, #364, #204, #520 ) ) ;
#90 = CARTESIAN_POINT ( 'NONE',  ( 5.000000000000001776, 1.800000000000000044, 1.499999999999999778 ) ) ;
#91 = FACE_OUTER_BOUND ( 'NONE', #375, .T. ) ;
#92 = LINE ( 'NONE', #258, #272 ) ;
#93 = FACE_OUTER_BOUND ( 'NONE', #89, .T. ) ;
#94 = CARTESIAN_POINT ( 'NONE',  ( 5.000000000000002665, 0.000000000000000000, -1.300000000000000266 ) ) ;
#95 = DIRECTION ( 'NONE',  ( -2.891205793294678326E-16, 0.000000000000000000, -1.000000000000000000 ) ) ;
#96 = AXIS2_PLACEMENT_3D ( 'NONE', #503, #135, #261 ) ;
#97 = APPROVAL_STATUS ( 'not_yet_approved' ) ;
#98 = ADVANCED_FACE ( 'NONE', ( #222 ), #391, .T. ) ;
#99 = CC_DESIGN_APPROVAL ( #414, ( #56 ) ) ;
#100 = CARTESIAN_POINT ( 'NONE',  ( -4.799999999999997158, 2.000000000000000000, 1.299999999999999822 ) ) ;
#101 = VECTOR ( 'NONE', #466, 1000.000000000000000 ) ;
#102 = FACE_OUTER_BOUND ( 'NONE', #444, .T. ) ;
#103 = MECHANICAL_CONTEXT ( 'NONE', #9, 'mechanical' ) ;
#104 = DIRECTION ( 'NONE',  ( 2.891205793294678326E-16, -0.000000000000000000, -1.000000000000000000 ) ) ;
#105 = APPLICATION_PROTOCOL_DEFINITION ( 'international standard', 'config_control_design', 1994, #9 ) ;
#106 = AXIS2_PLACEMENT_3D ( 'NONE', #298, #462, #491 ) ;
#107 = UNCERTAINTY_MEASURE_WITH_UNIT (LENGTH_MEASURE( 1.000000000000000082E-05 ), #283, 'distance_accuracy_value', 'NONE');
#108 = CC_DESIGN_APPROVAL ( #471, ( #67 ) ) ;
#109 = EDGE_CURVE ( 'NONE', #382, #410, #92, .T. ) ;
#110 = CIRCLE ( 'NONE', #362, 0.2000000000000000944 ) ;
#111 = VERTEX_POINT ( 'NONE', #17 ) ;
#112 = ORIENTED_EDGE ( 'NONE', *, *, #34, .T. ) ;
#113 = SPHERICAL_SURFACE ( 'NONE', #146, 0.2000000000000000111 ) ;
#114 = ORIENTED_EDGE ( 'NONE', *, *, #170, .F. ) ;
#115 = CARTESIAN_POINT ( 'NONE',  ( 5.000000000000002665, 1.800000000000000044, -1.300000000000000266 ) ) ;
#116 = CARTESIAN_POINT ( 'NONE',  ( 4.800000000000002487, 2.000000000000000000, 1.299999999999999822 ) ) ;
#117 = VERTEX_POINT ( 'NONE', #264 ) ;
#118 = ORIENTED_EDGE ( 'NONE', *, *, #346, .T. ) ;
#119 = ADVANCED_FACE ( 'NONE', ( #435 ), #512, .T. ) ;
#120 = CARTESIAN_POINT ( 'NONE',  ( -4.799999999999998046, 2.000000000000000000, -1.300000000000000266 ) ) ;
#121 = CARTESIAN_POINT ( 'NONE',  ( 4.800000000000002487, 0.000000000000000000, -1.300000000000000266 ) ) ;
#122 = AXIS2_PLACEMENT_3D ( 'NONE', #30, #325, #196 ) ;
#123 = ORIENTED_EDGE ( 'NONE', *, *, #310, .F. ) ;
#124 = APPROVAL ( #312, 'UNSPECIFIED' ) ;
#125 = DIRECTION ( 'NONE',  ( -1.000000000000000000, 0.000000000000000000, 0.000000000000000000 ) ) ;
#126 = CARTESIAN_POINT ( 'NONE',  ( -4.999999999999996447, 2.000000000000000000, 1.299999999999999822 ) ) ;
#127 = CARTESIAN_POINT ( 'NONE',  ( -4.799999999999997158, 0.000000000000000000, 1.499999999999999778 ) ) ;
#128 = ORIENTED_EDGE ( 'NONE', *, *, #514, .T. ) ;
#129 = DIRECTION ( 'NONE',  ( 0.000000000000000000, -1.000000000000000000, 0.000000000000000000 ) ) ;
#130 = PLANE ( 'NONE',  #106 ) ;
#131 = CARTESIAN_POINT ( 'NONE',  ( 5.000000000000002665, 1.800000000000000044, -1.500000000000000222 ) ) ;
#132 = CARTESIAN_POINT ( 'NONE',  ( -4.999999999999997335, 2.000000000000000000, -1.500000000000000222 ) ) ;
#133 = LINE ( 'NONE', #131, #356 ) ;
#134 = VECTOR ( 'NONE', #255, 1000.000000000000000 ) ;
#135 = DIRECTION ( 'NONE',  ( 0.000000000000000000, 1.000000000000000000, 0.000000000000000000 ) ) ;
#136 = PERSON_AND_ORGANIZATION ( #228, #537 ) ;
#137 = CARTESIAN_POINT ( 'NONE',  ( -4.799999999999997158, 1.800000000000000044, 1.299999999999999822 ) ) ;
#138 = DATE_TIME_ROLE ( 'creation_date' ) ;
#139 = EDGE_CURVE ( 'NONE', #75, #415, #354, .T. ) ;
#140 = CIRCLE ( 'NONE', #510, 0.2000000000000000944 ) ;
#141 = CARTESIAN_POINT ( 'NONE',  ( -4.799999999999998046, 1.800000000000000044, -1.300000000000000266 ) ) ;
#142 = EDGE_CURVE ( 'NONE', #410, #111, #304, .T. ) ;
#143 = DIRECTION ( 'NONE',  ( -0.000000000000000000, -0.000000000000000000, 1.000000000000000000 ) ) ;
#144 = PERSON_AND_ORGANIZATION_ROLE ( 'design_supplier' ) ;
#145 = SPHERICAL_SURFACE ( 'NONE', #26, 0.2000000000000000111 ) ;
#146 = AXIS2_PLACEMENT_3D ( 'NONE', #251, #420, #163 ) ;
#147 = ADVANCED_FACE ( 'NONE', ( #224 ), #355, .T. ) ;
#148 = EDGE_LOOP ( 'NONE', ( #37, #238, #411, #322 ) ) ;
#149 = VECTOR ( 'NONE', #496, 1000.000000000000000 ) ;
#150 = EDGE_LOOP ( 'NONE', ( #71, #253, #497, #377 ) ) ;
#151 = DIRECTION ( 'NONE',  ( -0.000000000000000000, -1.000000000000000000, 0.000000000000000000 ) ) ;
#152 = LINE ( 'NONE', #73, #336 ) ;
#153 = DIRECTION ( 'NONE',  ( -1.301042606982604690E-14, 0.000000000000000000, 1.000000000000000000 ) ) ;
#154 = ADVANCED_FACE ( 'NONE', ( #469 ), #501, .F. ) ;
#155 = EDGE_LOOP ( 'NONE', ( #194, #484, #160, #281 ) ) ;
#156 = ORIENTED_EDGE ( 'NONE', *, *, #189, .T. ) ;
#157 = FACE_OUTER_BOUND ( 'NONE', #199, .T. ) ;
#158 = CARTESIAN_POINT ( 'NONE',  ( -4.999999999999997335, 0.000000000000000000, -1.300000000000000266 ) ) ;
#159 = AXIS2_PLACEMENT_3D ( 'NONE', #302, #432, #55 ) ;
#160 = ORIENTED_EDGE ( 'NONE', *, *, #363, .F. ) ;
#161 = AXIS2_PLACEMENT_3D ( 'NONE', #294, #417, #373 ) ;
#162 = DIRECTION ( 'NONE',  ( 0.000000000000000000, 0.000000000000000000, 1.000000000000000000 ) ) ;
#163 = DIRECTION ( 'NONE',  ( -1.000000000000000000, 0.000000000000000000, 4.336808689942024836E-15 ) ) ;
#164 = LINE ( 'NONE', #214, #472 ) ;
#165 = EDGE_LOOP ( 'NONE', ( #453, #323, #42 ) ) ;
#166 = AXIS2_PLACEMENT_3D ( 'NONE', #121, #455, #385 ) ;
#167 = EDGE_LOOP ( 'NONE', ( #35, #292, #123 ) ) ;
#168 = CARTESIAN_POINT ( 'NONE',  ( -4.799999999999997158, 1.800000000000000044, 1.299999999999999822 ) ) ;
#169 = DIRECTION ( 'NONE',  ( 1.000000000000000000, -0.000000000000000000, 0.000000000000000000 ) ) ;
#170 = EDGE_CURVE ( 'NONE', #287, #326, #351, .T. ) ;
#171 = ORIENTED_EDGE ( 'NONE', *, *, #519, .T. ) ;
#172 = FACE_OUTER_BOUND ( 'NONE', #461, .T. ) ;
#173 = VECTOR ( 'NONE', #210, 1000.000000000000000 ) ;
#174 = DIRECTION ( 'NONE',  ( 0.000000000000000000, 1.000000000000000000, 0.000000000000000000 ) ) ;
#175 = PERSON_AND_ORGANIZATION ( #228, #537 ) ;
#176 = AXIS2_PLACEMENT_3D ( 'NONE', #288, #81, #11 ) ;
#177 = LOCAL_TIME ( 14, 55, 38.00000000000000000, #505 ) ;
#178 = DIRECTION ( 'NONE',  ( 1.000000000000000000, -4.336808689942016158E-15, 0.000000000000000000 ) ) ;
#179 = EDGE_CURVE ( 'NONE', #527, #382, #260, .T. ) ;
#180 = DIRECTION ( 'NONE',  ( 0.000000000000000000, 0.000000000000000000, -1.000000000000000000 ) ) ;
#181 = DATE_AND_TIME ( #223, #504 ) ;
#182 = AXIS2_PLACEMENT_3D ( 'NONE', #59, #509, #267 ) ;
#183 = DIRECTION ( 'NONE',  ( 0.000000000000000000, 0.000000000000000000, 1.000000000000000000 ) ) ;
#184 = DESIGN_CONTEXT ( 'detailed design', #536, 'design' ) ;
#185 = APPROVAL_DATE_TIME ( #262, #414 ) ;
#186 = CARTESIAN_POINT ( 'NONE',  ( -4.799999999999997158, 1.800000000000000044, 1.299999999999999822 ) ) ;
#187 = PERSON_AND_ORGANIZATION ( #228, #537 ) ;
#188 = AXIS2_PLACEMENT_3D ( 'NONE', #72, #151, #327 ) ;
#189 = EDGE_CURVE ( 'NONE', #70, #233, #330, .T. ) ;
#190 = EDGE_CURVE ( 'NONE', #117, #75, #403, .T. ) ;
#191 = ORIENTED_EDGE ( 'NONE', *, *, #179, .T. ) ;
#192 = AXIS2_PLACEMENT_3D ( 'NONE', #100, #476, #180 ) ;
#193 = ORIENTED_EDGE ( 'NONE', *, *, #310, .T. ) ;
#194 = ORIENTED_EDGE ( 'NONE', *, *, #83, .F. ) ;
#195 = CARTESIAN_POINT ( 'NONE',  ( -4.799999999999998046, 1.800000000000000044, -1.300000000000000266 ) ) ;
#196 = DIRECTION ( 'NONE',  ( 0.000000000000000000, 0.000000000000000000, 1.000000000000000000 ) ) ;
#197 = SECURITY_CLASSIFICATION ( '', '', #303 ) ;
#198 = EDGE_LOOP ( 'NONE', ( #401, #383, #486, #445 ) ) ;
#199 = EDGE_LOOP ( 'NONE', ( #85, #203, #248, #79 ) ) ;
#200 = CARTESIAN_POINT ( 'NONE',  ( 4.800000000000002487, 0.000000000000000000, -1.500000000000000222 ) ) ;
#201 = CC_DESIGN_PERSON_AND_ORGANIZATION_ASSIGNMENT ( #15, #430, ( #197 ) ) ;
#202 = FACE_OUTER_BOUND ( 'NONE', #240, .T. ) ;
#203 = ORIENTED_EDGE ( 'NONE', *, *, #23, .T. ) ;
#204 = ORIENTED_EDGE ( 'NONE', *, *, #422, .T. ) ;
#205 = CARTESIAN_POINT ( 'NONE',  ( 4.800000000000002487, 1.800000000000000044, -1.500000000000000222 ) ) ;
#206 = DIRECTION ( 'NONE',  ( -1.000000000000000000, -0.000000000000000000, -0.000000000000000000 ) ) ;
#207 = VERTEX_POINT ( 'NONE', #94 ) ;
#208 = ORIENTED_EDGE ( 'NONE', *, *, #404, .F. ) ;
#209 = ADVANCED_FACE ( 'NONE', ( #65 ), #515, .T. ) ;
#210 = DIRECTION ( 'NONE',  ( 0.000000000000000000, -1.000000000000000000, 0.000000000000000000 ) ) ;
#211 = LINE ( 'NONE', #48, #101 ) ;
#212 = CARTESIAN_POINT ( 'NONE',  ( 5.000000000000001776, 0.000000000000000000, 1.299999999999999822 ) ) ;
#213 = DIRECTION ( 'NONE',  ( 0.000000000000000000, 0.000000000000000000, 1.000000000000000000 ) ) ;
#214 = CARTESIAN_POINT ( 'NONE',  ( 4.800000000000003375, 2.000000000000000000, 1.499999999999999778 ) ) ;
#215 = DIRECTION ( 'NONE',  ( 0.000000000000000000, -1.000000000000000000, 0.000000000000000000 ) ) ;
#216 = PERSON_AND_ORGANIZATION ( #228, #537 ) ;
#217 = VECTOR ( 'NONE', #485, 1000.000000000000000 ) ;
#218 = CARTESIAN_POINT ( 'NONE',  ( 4.800000000000002487, 1.800000000000000044, -1.300000000000000266 ) ) ;
#219 = DATE_AND_TIME ( #436, #366 ) ;
#220 = CC_DESIGN_PERSON_AND_ORGANIZATION_ASSIGNMENT ( #226, #438, ( #243 ) ) ;
#221 = CARTESIAN_POINT ( 'NONE',  ( -4.999999999999996447, 1.800000000000000044, 1.299999999999999822 ) ) ;
#222 = FACE_OUTER_BOUND ( 'NONE', #370, .T. ) ;
#223 = CALENDAR_DATE ( 2026, 22, 3 ) ;
#224 = FACE_OUTER_BOUND ( 'NONE', #150, .T. ) ;
#225 = EDGE_CURVE ( 'NONE', #277, #285, #20, .T. ) ;
#226 = PERSON_AND_ORGANIZATION ( #228, #537 ) ;
#227 = FACE_OUTER_BOUND ( 'NONE', #234, .T. ) ;
#228 = PERSON ( 'UNSPECIFIED', 'UNSPECIFIED', 'UNSPECIFIED', ('UNSPECIFIED'), ('UNSPECIFIED'), ('UNSPECIFIED') ) ;
#229 = ADVANCED_FACE ( 'NONE', ( #227 ), #145, .T. ) ;
#230 = VECTOR ( 'NONE', #104, 1000.000000000000000 ) ;
#231 = EDGE_CURVE ( 'NONE', #487, #32, #359, .T. ) ;
#232 = ORIENTED_EDGE ( 'NONE', *, *, #142, .F. ) ;
#233 = VERTEX_POINT ( 'NONE', #495 ) ;
#234 = EDGE_LOOP ( 'NONE', ( #156, #489, #522 ) ) ;
#235 = ORIENTED_EDGE ( 'NONE', *, *, #514, .F. ) ;
#236 = CIRCLE ( 'NONE', #402, 0.1999999999999996503 ) ;
#237 = FACE_OUTER_BOUND ( 'NONE', #340, .T. ) ;
#238 = ORIENTED_EDGE ( 'NONE', *, *, #225, .F. ) ;
#239 = ORIENTED_EDGE ( 'NONE', *, *, #249, .T. ) ;
#240 = EDGE_LOOP ( 'NONE', ( #235, #451, #278, #407 ) ) ;
#241 = DIRECTION ( 'NONE',  ( 1.000000000000000000, 0.000000000000000000, 2.891205793294683257E-16 ) ) ;
#242 = LINE ( 'NONE', #337, #149 ) ;
#243 = PRODUCT ( 'BAR3X10T2', 'BAR3X10T2', '', ( #103 ) ) ;
#244 = ORIENTED_EDGE ( 'NONE', *, *, #249, .F. ) ;
#245 = ORIENTED_EDGE ( 'NONE', *, *, #139, .F. ) ;
#246 = LINE ( 'NONE', #126, #345 ) ;
#247 = DIRECTION ( 'NONE',  ( 1.000000000000000000, -0.000000000000000000, -0.000000000000000000 ) ) ;
#248 = ORIENTED_EDGE ( 'NONE', *, *, #231, .T. ) ;
#249 = EDGE_CURVE ( 'NONE', #111, #75, #246, .T. ) ;
#250 = ORIENTED_EDGE ( 'NONE', *, *, #231, .F. ) ;
#251 = CARTESIAN_POINT ( 'NONE',  ( 4.800000000000003375, 1.800000000000000044, -1.300000000000000266 ) ) ;
#252 = DIRECTION ( 'NONE',  ( -0.000000000000000000, -1.000000000000000000, 0.000000000000000000 ) ) ;
#253 = ORIENTED_EDGE ( 'NONE', *, *, #25, .F. ) ;
#254 = CARTESIAN_POINT ( 'NONE',  ( 5.000000000000001776, 2.000000000000000000, 1.299999999999999822 ) ) ;
#255 = DIRECTION ( 'NONE',  ( -1.000000000000000000, -0.000000000000000000, -0.000000000000000000 ) ) ;
#256 = CARTESIAN_POINT ( 'NONE',  ( 4.800000000000002487, 2.000000000000000000, -1.500000000000000222 ) ) ;
#257 = CYLINDRICAL_SURFACE ( 'NONE', #122, 0.2000000000000000944 ) ;
#258 = CARTESIAN_POINT ( 'NONE',  ( -4.999999999999997335, 2.000000000000000000, -1.300000000000000266 ) ) ;
#259 = PERSON_AND_ORGANIZATION ( #228, #537 ) ;
#260 = CIRCLE ( 'NONE', #22, 0.2000000000000000944 ) ;
#261 = DIRECTION ( 'NONE',  ( 0.000000000000000000, 0.000000000000000000, 1.000000000000000000 ) ) ;
#262 = DATE_AND_TIME ( #350, #177 ) ;
#263 = AXIS2_PLACEMENT_3D ( 'NONE', #8, #50, #7 ) ;
#264 = CARTESIAN_POINT ( 'NONE',  ( -4.799999999999997158, 2.000000000000000000, 1.299999999999999822 ) ) ;
#265 =( NAMED_UNIT ( * ) SI_UNIT ( $, .STERADIAN. ) SOLID_ANGLE_UNIT ( ) );
#266 = EDGE_CURVE ( 'NONE', #31, #233, #282, .T. ) ;
#267 = DIRECTION ( 'NONE',  ( 0.000000000000000000, 0.000000000000000000, 1.000000000000000000 ) ) ;
#268 = ADVANCED_FACE ( 'NONE', ( #86 ), #335, .T. ) ;
#269 = VECTOR ( 'NONE', #450, 1000.000000000000000 ) ;
#270 = CARTESIAN_POINT ( 'NONE',  ( -4.799999999999998046, 2.000000000000000000, -1.300000000000000266 ) ) ;
#271 = ADVANCED_FACE ( 'NONE', ( #499 ), #113, .T. ) ;
#272 = VECTOR ( 'NONE', #349, 1000.000000000000000 ) ;
#273 = MANIFOLD_SOLID_BREP ( '\X2\570689d2\X0\1', #68 ) ;
#274 = CIRCLE ( 'NONE', #176, 0.1999999999999996503 ) ;
#275 = VECTOR ( 'NONE', #169, 1000.000000000000000 ) ;
#276 = ADVANCED_FACE ( 'NONE', ( #157 ), #130, .F. ) ;
#277 = VERTEX_POINT ( 'NONE', #116 ) ;
#278 = ORIENTED_EDGE ( 'NONE', *, *, #189, .F. ) ;
#279 = CARTESIAN_POINT ( 'NONE',  ( 4.800000000000003375, 2.000000000000000000, -1.300000000000000266 ) ) ;
#280 = ORIENTED_EDGE ( 'NONE', *, *, #25, .T. ) ;
#281 = ORIENTED_EDGE ( 'NONE', *, *, #483, .F. ) ;
#282 = LINE ( 'NONE', #90, #361 ) ;
#283 =( LENGTH_UNIT ( ) NAMED_UNIT ( * ) SI_UNIT ( .MILLI., .METRE. ) );
#284 = AXIS2_PLACEMENT_3D ( 'NONE', #428, #311, #398 ) ;
#285 = VERTEX_POINT ( 'NONE', #279 ) ;
#286 = EDGE_CURVE ( 'NONE', #233, #2, #412, .T. ) ;
#287 = VERTEX_POINT ( 'NONE', #205 ) ;
#288 = CARTESIAN_POINT ( 'NONE',  ( 4.800000000000002487, 1.800000000000000044, 1.299999999999999822 ) ) ;
#289 = CARTESIAN_POINT ( 'NONE',  ( 4.800000000000002487, 1.800000000000000044, 1.299999999999999822 ) ) ;
#290 = ADVANCED_FACE ( 'NONE', ( #378 ), #426, .F. ) ;
#291 = ORIENTED_EDGE ( 'NONE', *, *, #142, .T. ) ;
#292 = ORIENTED_EDGE ( 'NONE', *, *, #139, .T. ) ;
#293 = DIRECTION ( 'NONE',  ( -0.000000000000000000, 1.000000000000000000, -0.000000000000000000 ) ) ;
#294 = CARTESIAN_POINT ( 'NONE',  ( 0.000000000000000000, 1.800000000000000044, -1.300000000000000266 ) ) ;
#295 = CC_DESIGN_DATE_AND_TIME_ASSIGNMENT ( #307, #138, ( #67 ) ) ;
#296 = ORIENTED_EDGE ( 'NONE', *, *, #441, .F. ) ;
#297 = CARTESIAN_POINT ( 'NONE',  ( -4.799999999999997158, 2.000000000000000000, 1.499999999999999778 ) ) ;
#298 = CARTESIAN_POINT ( 'NONE',  ( -4.999999999999996447, 2.000000000000000000, 1.499999999999999778 ) ) ;
#299 = LINE ( 'NONE', #87, #134 ) ;
#300 = DIRECTION ( 'NONE',  ( -1.000000000000000000, 0.000000000000000000, 0.000000000000000000 ) ) ;
#301 = CARTESIAN_POINT ( 'NONE',  ( 4.800000000000002487, 0.000000000000000000, 1.299999999999999822 ) ) ;
#302 = CARTESIAN_POINT ( 'NONE',  ( -4.799999999999997158, 1.800000000000000044, 1.299999999999999822 ) ) ;
#303 = SECURITY_CLASSIFICATION_LEVEL ( 'unclassified' ) ;
#304 = LINE ( 'NONE', #306, #431 ) ;
#305 =( NAMED_UNIT ( * ) PLANE_ANGLE_UNIT ( ) SI_UNIT ( $, .RADIAN. ) );
#306 = CARTESIAN_POINT ( 'NONE',  ( -4.999999999999997335, 0.000000000000000000, -1.500000000000000222 ) ) ;
#307 = DATE_AND_TIME ( #18, #465 ) ;
#308 = CIRCLE ( 'NONE', #424, 0.2000000000000000944 ) ;
#309 = CC_DESIGN_APPROVAL ( #124, ( #197 ) ) ;
#310 = EDGE_CURVE ( 'NONE', #117, #415, #314, .T. ) ;
#311 = DIRECTION ( 'NONE',  ( -2.891205793294678326E-16, 0.000000000000000000, -1.000000000000000000 ) ) ;
#312 = APPROVAL_STATUS ( 'not_yet_approved' ) ;
#313 = DIRECTION ( 'NONE',  ( 0.000000000000000000, -1.000000000000000000, 0.000000000000000000 ) ) ;
#314 = CIRCLE ( 'NONE', #74, 0.2000000000000000944 ) ;
#315 = APPROVAL_PERSON_ORGANIZATION ( #61, #124, #394 ) ;
#316 = CC_DESIGN_PERSON_AND_ORGANIZATION_ASSIGNMENT ( #259, #144, ( #56 ) ) ;
#317 = SHAPE_DEFINITION_REPRESENTATION ( #530, #447 ) ;
#318 = VECTOR ( 'NONE', #408, 1000.000000000000000 ) ;
#319 = EDGE_LOOP ( 'NONE', ( #291, #239, #280, #343 ) ) ;
#320 = AXIS2_PLACEMENT_3D ( 'NONE', #301, #252, #153 ) ;
#321 = LINE ( 'NONE', #33, #217 ) ;
#322 = ORIENTED_EDGE ( 'NONE', *, *, #266, .F. ) ;
#323 = ORIENTED_EDGE ( 'NONE', *, *, #83, .T. ) ;
#324 = DIRECTION ( 'NONE',  ( 0.000000000000000000, 0.000000000000000000, 1.000000000000000000 ) ) ;
#325 = DIRECTION ( 'NONE',  ( -1.000000000000000000, 0.000000000000000000, 0.000000000000000000 ) ) ;
#326 = VERTEX_POINT ( 'NONE', #200 ) ;
#327 = DIRECTION ( 'NONE',  ( 0.000000000000000000, 0.000000000000000000, 1.000000000000000000 ) ) ;
#328 = LINE ( 'NONE', #446, #390 ) ;
#329 = CYLINDRICAL_SURFACE ( 'NONE', #161, 0.2000000000000000944 ) ;
#330 = CIRCLE ( 'NONE', #96, 0.2000000000000000944 ) ;
#331 = ORIENTED_EDGE ( 'NONE', *, *, #483, .T. ) ;
#332 = ORIENTED_EDGE ( 'NONE', *, *, #443, .T. ) ;
#333 = AXIS2_PLACEMENT_3D ( 'NONE', #454, #524, #372 ) ;
#334 = EDGE_CURVE ( 'NONE', #326, #538, #328, .T. ) ;
#335 = CYLINDRICAL_SURFACE ( 'NONE', #6, 0.1999999999999996503 ) ;
#336 = VECTOR ( 'NONE', #409, 1000.000000000000000 ) ;
#337 = CARTESIAN_POINT ( 'NONE',  ( -4.999999999999997335, 2.000000000000000000, -1.300000000000000266 ) ) ;
#338 = AXIS2_PLACEMENT_3D ( 'NONE', #78, #502, #342 ) ;
#339 = ORIENTED_EDGE ( 'NONE', *, *, #36, .F. ) ;
#340 = EDGE_LOOP ( 'NONE', ( #28, #114, #208, #24 ) ) ;
#341 = DIRECTION ( 'NONE',  ( 1.000000000000000000, -0.000000000000000000, -0.000000000000000000 ) ) ;
#342 = DIRECTION ( 'NONE',  ( -2.891205793294678326E-16, 0.000000000000000000, 1.000000000000000000 ) ) ;
#343 = ORIENTED_EDGE ( 'NONE', *, *, #109, .T. ) ;
#344 = PLANE ( 'NONE',  #338 ) ;
#345 = VECTOR ( 'NONE', #293, 1000.000000000000000 ) ;
#346 = EDGE_CURVE ( 'NONE', #207, #31, #321, .T. ) ;
#347 = DIRECTION ( 'NONE',  ( 0.000000000000000000, 0.000000000000000000, 1.000000000000000000 ) ) ;
#348 = PERSON_AND_ORGANIZATION_ROLE ( 'creator' ) ;
#349 = DIRECTION ( 'NONE',  ( 0.000000000000000000, -1.000000000000000000, 0.000000000000000000 ) ) ;
#350 = CALENDAR_DATE ( 2026, 22, 3 ) ;
#351 = LINE ( 'NONE', #256, #52 ) ;
#352 = DATE_TIME_ROLE ( 'classification_date' ) ;
#353 = ADVANCED_FACE ( 'NONE', ( #237 ), #29, .T. ) ;
#354 = CIRCLE ( 'NONE', #397, 0.2000000000000000944 ) ;
#355 = CYLINDRICAL_SURFACE ( 'NONE', #284, 0.1999999999999996503 ) ;
#356 = VECTOR ( 'NONE', #247, 1000.000000000000000 ) ;
#357 = APPROVAL_DATE_TIME ( #181, #124 ) ;
#358 = LOCAL_TIME ( 14, 55, 38.00000000000000000, #53 ) ;
#359 = LINE ( 'NONE', #540, #269 ) ;
#360 = EDGE_CURVE ( 'NONE', #538, #527, #152, .T. ) ;
#361 = VECTOR ( 'NONE', #458, 1000.000000000000000 ) ;
#362 = AXIS2_PLACEMENT_3D ( 'NONE', #289, #206, #82 ) ;
#363 = EDGE_CURVE ( 'NONE', #371, #527, #308, .T. ) ;
#364 = ORIENTED_EDGE ( 'NONE', *, *, #506, .F. ) ;
#365 = ORIENTED_EDGE ( 'NONE', *, *, #23, .F. ) ;
#366 = LOCAL_TIME ( 14, 55, 38.00000000000000000, #513 ) ;
#367 = LINE ( 'NONE', #416, #14 ) ;
#368 = DIRECTION ( 'NONE',  ( -1.000000000000000000, 0.000000000000000000, 0.000000000000000000 ) ) ;
#369 = CARTESIAN_POINT ( 'NONE',  ( -4.799999999999998046, 0.000000000000000000, -1.500000000000000222 ) ) ;
#370 = EDGE_LOOP ( 'NONE', ( #456, #191, #339 ) ) ;
#371 = VERTEX_POINT ( 'NONE', #120 ) ;
#372 = DIRECTION ( 'NONE',  ( 0.000000000000000000, 0.000000000000000000, -1.000000000000000000 ) ) ;
#373 = DIRECTION ( 'NONE',  ( 0.000000000000000000, 0.000000000000000000, -1.000000000000000000 ) ) ;
#374 = CC_DESIGN_PERSON_AND_ORGANIZATION_ASSIGNMENT ( #136, #475, ( #56 ) ) ;
#375 = EDGE_LOOP ( 'NONE', ( #448, #171, #406, #331 ) ) ;
#376 = AXIS2_PLACEMENT_3D ( 'NONE', #76, #457, #125 ) ;
#377 = ORIENTED_EDGE ( 'NONE', *, *, #1, .F. ) ;
#378 = FACE_OUTER_BOUND ( 'NONE', #418, .T. ) ;
#379 = CARTESIAN_POINT ( 'NONE',  ( 4.800000000000002487, 2.000000000000000000, 1.299999999999999822 ) ) ;
#380 = AXIS2_PLACEMENT_3D ( 'NONE', #270, #313, #440 ) ;
#381 = CC_DESIGN_DATE_AND_TIME_ASSIGNMENT ( #58, #352, ( #197 ) ) ;
#382 = VERTEX_POINT ( 'NONE', #488 ) ;
#383 = ORIENTED_EDGE ( 'NONE', *, *, #109, .F. ) ;
#384 = DIRECTION ( 'NONE',  ( 0.000000000000000000, 0.000000000000000000, 1.000000000000000000 ) ) ;
#385 = DIRECTION ( 'NONE',  ( 0.000000000000000000, 0.000000000000000000, 1.000000000000000000 ) ) ;
#386 = CARTESIAN_POINT ( 'NONE',  ( -4.999999999999997335, 1.800000000000000044, -1.500000000000000222 ) ) ;
#387 = DIRECTION ( 'NONE',  ( -0.000000000000000000, 1.000000000000000000, 0.000000000000000000 ) ) ;
#388 = DIRECTION ( 'NONE',  ( 0.000000000000000000, 0.000000000000000000, 1.000000000000000000 ) ) ;
#389 = CARTESIAN_POINT ( 'NONE',  ( -4.799999999999998046, 1.800000000000000044, -1.300000000000000266 ) ) ;
#390 = VECTOR ( 'NONE', #3, 1000.000000000000000 ) ;
#391 = SPHERICAL_SURFACE ( 'NONE', #88, 0.2000000000000000111 ) ;
#392 = CARTESIAN_POINT ( 'NONE',  ( 4.800000000000003375, 1.800000000000000044, -1.300000000000000266 ) ) ;
#393 = EDGE_CURVE ( 'NONE', #233, #277, #274, .T. ) ;
#394 = APPROVAL_ROLE ( '' ) ;
#395 = CC_DESIGN_PERSON_AND_ORGANIZATION_ASSIGNMENT ( #175, #348, ( #67 ) ) ;
#396 = APPROVAL_ROLE ( '' ) ;
#397 = AXIS2_PLACEMENT_3D ( 'NONE', #186, #507, #183 ) ;
#398 = DIRECTION ( 'NONE',  ( -1.000000000000000000, 0.000000000000000000, 2.891205793294683257E-16 ) ) ;
#399 = APPROVAL_DATE_TIME ( #219, #471 ) ;
#400 = APPROVAL_PERSON_ORGANIZATION ( #216, #471, #396 ) ;
#401 = ORIENTED_EDGE ( 'NONE', *, *, #34, .F. ) ;
#402 = AXIS2_PLACEMENT_3D ( 'NONE', #392, #143, #51 ) ;
#403 = CIRCLE ( 'NONE', #159, 0.1999999999999996503 ) ;
#404 = EDGE_CURVE ( 'NONE', #31, #287, #517, .T. ) ;
#405 = CIRCLE ( 'NONE', #166, 0.2000000000000000944 ) ;
#406 = ORIENTED_EDGE ( 'NONE', *, *, #225, .T. ) ;
#407 = ORIENTED_EDGE ( 'NONE', *, *, #467, .F. ) ;
#408 = DIRECTION ( 'NONE',  ( -2.891205793294678326E-16, -0.000000000000000000, -1.000000000000000000 ) ) ;
#409 = DIRECTION ( 'NONE',  ( -0.000000000000000000, 1.000000000000000000, -0.000000000000000000 ) ) ;
#410 = VERTEX_POINT ( 'NONE', #158 ) ;
#411 = ORIENTED_EDGE ( 'NONE', *, *, #393, .F. ) ;
#412 = LINE ( 'NONE', #254, #173 ) ;
#413 = FACE_OUTER_BOUND ( 'NONE', #155, .T. ) ;
#414 = APPROVAL ( #511, 'UNSPECIFIED' ) ;
#415 = VERTEX_POINT ( 'NONE', #459 ) ;
#416 = CARTESIAN_POINT ( 'NONE',  ( -4.799999999999997158, 2.000000000000000000, 1.499999999999999778 ) ) ;
#417 = DIRECTION ( 'NONE',  ( 1.000000000000000000, -0.000000000000000000, 0.000000000000000000 ) ) ;
#418 = EDGE_LOOP ( 'NONE', ( #27, #526, #531, #419 ) ) ;
#419 = ORIENTED_EDGE ( 'NONE', *, *, #170, .T. ) ;
#420 = DIRECTION ( 'NONE',  ( 0.000000000000000000, 1.000000000000000000, 0.000000000000000000 ) ) ;
#421 = LINE ( 'NONE', #463, #275 ) ;
#422 = EDGE_CURVE ( 'NONE', #70, #277, #110, .T. ) ;
#423 = EDGE_LOOP ( 'NONE', ( #250, #84, #232, #112, #494, #332, #296, #128 ) ) ;
#424 = AXIS2_PLACEMENT_3D ( 'NONE', #195, #368, #324 ) ;
#425 = APPROVAL_PERSON_ORGANIZATION ( #187, #414, #477 ) ;
#426 = PLANE ( 'NONE',  #480 ) ;
#427 = CARTESIAN_POINT ( 'NONE',  ( -4.799999999999998046, 1.800000000000000044, -1.500000000000000222 ) ) ;
#428 = CARTESIAN_POINT ( 'NONE',  ( -4.799999999999997158, 1.800000000000000044, 1.387778780781444887E-15 ) ) ;
#429 = CYLINDRICAL_SURFACE ( 'NONE', #192, 0.2000000000000000944 ) ;
#430 = PERSON_AND_ORGANIZATION_ROLE ( 'classification_officer' ) ;
#431 = VECTOR ( 'NONE', #468, 1000.000000000000000 ) ;
#432 = DIRECTION ( 'NONE',  ( 0.000000000000000000, -0.000000000000000000, 1.000000000000000000 ) ) ;
#433 = CALENDAR_DATE ( 2026, 22, 3 ) ;
#434 = ADVANCED_FACE ( 'NONE', ( #172 ), #344, .F. ) ;
#435 = FACE_OUTER_BOUND ( 'NONE', #167, .T. ) ;
#436 = CALENDAR_DATE ( 2026, 22, 3 ) ;
#437 = DIRECTION ( 'NONE',  ( 0.000000000000000000, 1.000000000000000000, 0.000000000000000000 ) ) ;
#438 = PERSON_AND_ORGANIZATION_ROLE ( 'design_owner' ) ;
#439 = AXIS2_PLACEMENT_3D ( 'NONE', #532, #449, #162 ) ;
#440 = DIRECTION ( 'NONE',  ( 0.000000000000000000, 0.000000000000000000, -1.000000000000000000 ) ) ;
#441 = EDGE_CURVE ( 'NONE', #2, #207, #211, .T. ) ;
#442 = CIRCLE ( 'NONE', #320, 0.2000000000000000944 ) ;
#443 = EDGE_CURVE ( 'NONE', #326, #207, #405, .T. ) ;
#444 = EDGE_LOOP ( 'NONE', ( #80, #365, #245, #244 ) ) ;
#445 = ORIENTED_EDGE ( 'NONE', *, *, #360, .F. ) ;
#446 = CARTESIAN_POINT ( 'NONE',  ( -4.999999999999997335, 0.000000000000000000, -1.500000000000000222 ) ) ;
#447 = ADVANCED_BREP_SHAPE_REPRESENTATION ( 'BAR3X10T2', ( #273, #263 ), #66 ) ;
#448 = ORIENTED_EDGE ( 'NONE', *, *, #1, .T. ) ;
#449 = DIRECTION ( 'NONE',  ( -0.000000000000000000, -1.000000000000000000, 0.000000000000000000 ) ) ;
#450 = DIRECTION ( 'NONE',  ( 1.000000000000000000, 0.000000000000000000, 0.000000000000000000 ) ) ;
#451 = ORIENTED_EDGE ( 'NONE', *, *, #286, .F. ) ;
#452 = AXIS2_PLACEMENT_3D ( 'NONE', #541, #500, #388 ) ;
#453 = ORIENTED_EDGE ( 'NONE', *, *, #404, .T. ) ;
#454 = CARTESIAN_POINT ( 'NONE',  ( 4.800000000000002487, 2.000000000000000000, -1.300000000000000266 ) ) ;
#455 = DIRECTION ( 'NONE',  ( -0.000000000000000000, -1.000000000000000000, 0.000000000000000000 ) ) ;
#456 = ORIENTED_EDGE ( 'NONE', *, *, #363, .T. ) ;
#457 = DIRECTION ( 'NONE',  ( -0.000000000000000000, -0.000000000000000000, 1.000000000000000000 ) ) ;
#458 = DIRECTION ( 'NONE',  ( -2.891205793294678326E-16, -0.000000000000000000, 1.000000000000000000 ) ) ;
#459 = CARTESIAN_POINT ( 'NONE',  ( -4.799999999999997158, 1.800000000000000044, 1.499999999999999778 ) ) ;
#460 = ADVANCED_FACE ( 'NONE', ( #413 ), #329, .T. ) ;
#461 = EDGE_LOOP ( 'NONE', ( #43, #118, #493, #498 ) ) ;
#462 = DIRECTION ( 'NONE',  ( 0.000000000000000000, 0.000000000000000000, -1.000000000000000000 ) ) ;
#463 = CARTESIAN_POINT ( 'NONE',  ( 5.000000000000001776, 2.000000000000000000, 1.299999999999999822 ) ) ;
#464 = DIRECTION ( 'NONE',  ( 1.000000000000000000, 0.000000000000000000, -2.891205793294678326E-16 ) ) ;
#465 = LOCAL_TIME ( 14, 55, 38.00000000000000000, #64 ) ;
#466 = DIRECTION ( 'NONE',  ( 2.891205793294678326E-16, -0.000000000000000000, -1.000000000000000000 ) ) ;
#467 = EDGE_CURVE ( 'NONE', #32, #70, #164, .T. ) ;
#468 = DIRECTION ( 'NONE',  ( 2.891205793294678326E-16, 0.000000000000000000, 1.000000000000000000 ) ) ;
#469 = FACE_OUTER_BOUND ( 'NONE', #319, .T. ) ;
#470 = CIRCLE ( 'NONE', #188, 0.2000000000000000944 ) ;
#471 = APPROVAL ( #97, 'UNSPECIFIED' ) ;
#472 = VECTOR ( 'NONE', #492, 1000.000000000000000 ) ;
#473 = PLANE ( 'NONE',  #182 ) ;
#474 = PRODUCT_RELATED_PRODUCT_CATEGORY ( 'detail', '', ( #243 ) ) ;
#475 = PERSON_AND_ORGANIZATION_ROLE ( 'creator' ) ;
#476 = DIRECTION ( 'NONE',  ( 0.000000000000000000, -1.000000000000000000, 0.000000000000000000 ) ) ;
#477 = APPROVAL_ROLE ( '' ) ;
#478 = CARTESIAN_POINT ( 'NONE',  ( 4.800000000000003375, 2.000000000000000000, -1.500000000000000222 ) ) ;
#479 = CIRCLE ( 'NONE', #376, 0.1999999999999996503 ) ;
#480 = AXIS2_PLACEMENT_3D ( 'NONE', #534, #384, #47 ) ;
#481 = EDGE_CURVE ( 'NONE', #527, #287, #133, .T. ) ;
#482 = ADVANCED_FACE ( 'NONE', ( #202 ), #39, .T. ) ;
#483 = EDGE_CURVE ( 'NONE', #285, #371, #242, .T. ) ;
#484 = ORIENTED_EDGE ( 'NONE', *, *, #481, .F. ) ;
#485 = DIRECTION ( 'NONE',  ( -0.000000000000000000, 1.000000000000000000, -0.000000000000000000 ) ) ;
#486 = ORIENTED_EDGE ( 'NONE', *, *, #179, .F. ) ;
#487 = VERTEX_POINT ( 'NONE', #127 ) ;
#488 = CARTESIAN_POINT ( 'NONE',  ( -4.999999999999997335, 1.800000000000000044, -1.300000000000000266 ) ) ;
#489 = ORIENTED_EDGE ( 'NONE', *, *, #393, .T. ) ;
#490 = LINE ( 'NONE', #386, #318 ) ;
#491 = DIRECTION ( 'NONE',  ( -1.000000000000000000, 0.000000000000000000, -0.000000000000000000 ) ) ;
#492 = DIRECTION ( 'NONE',  ( -0.000000000000000000, 1.000000000000000000, -0.000000000000000000 ) ) ;
#493 = ORIENTED_EDGE ( 'NONE', *, *, #266, .T. ) ;
#494 = ORIENTED_EDGE ( 'NONE', *, *, #334, .F. ) ;
#495 = CARTESIAN_POINT ( 'NONE',  ( 5.000000000000001776, 1.800000000000000044, 1.299999999999999822 ) ) ;
#496 = DIRECTION ( 'NONE',  ( -1.000000000000000000, 0.000000000000000000, 0.000000000000000000 ) ) ;
#497 = ORIENTED_EDGE ( 'NONE', *, *, #190, .F. ) ;
#498 = ORIENTED_EDGE ( 'NONE', *, *, #286, .T. ) ;
#499 = FACE_OUTER_BOUND ( 'NONE', #165, .T. ) ;
#500 = DIRECTION ( 'NONE',  ( 0.000000000000000000, 1.000000000000000000, -0.000000000000000000 ) ) ;
#501 = PLANE ( 'NONE',  #516 ) ;
#502 = DIRECTION ( 'NONE',  ( -1.000000000000000000, 0.000000000000000000, -2.891205793294678326E-16 ) ) ;
#503 = CARTESIAN_POINT ( 'NONE',  ( 4.800000000000002487, 1.800000000000000044, 1.299999999999999822 ) ) ;
#504 = LOCAL_TIME ( 14, 55, 38.00000000000000000, #12 ) ;
#505 = COORDINATED_UNIVERSAL_TIME_OFFSET ( 8, 0, .AHEAD. ) ;
#506 = EDGE_CURVE ( 'NONE', #70, #415, #299, .T. ) ;
#507 = DIRECTION ( 'NONE',  ( 0.000000000000000000, 1.000000000000000000, -0.000000000000000000 ) ) ;
#508 = APPLICATION_PROTOCOL_DEFINITION ( 'international standard', 'config_control_design', 1994, #536 ) ;
#509 = DIRECTION ( 'NONE',  ( 0.000000000000000000, 1.000000000000000000, -0.000000000000000000 ) ) ;
#510 = AXIS2_PLACEMENT_3D ( 'NONE', #218, #178, #10 ) ;
#511 = APPROVAL_STATUS ( 'not_yet_approved' ) ;
#512 = SPHERICAL_SURFACE ( 'NONE', #40, 0.2000000000000000111 ) ;
#513 = COORDINATED_UNIVERSAL_TIME_OFFSET ( 8, 0, .AHEAD. ) ;
#514 = EDGE_CURVE ( 'NONE', #2, #32, #442, .T. ) ;
#515 = CYLINDRICAL_SURFACE ( 'NONE', #380, 0.2000000000000000944 ) ;
#516 = AXIS2_PLACEMENT_3D ( 'NONE', #132, #464, #95 ) ;
#517 = CIRCLE ( 'NONE', #54, 0.2000000000000000944 ) ;
#518 = CC_DESIGN_SECURITY_CLASSIFICATION ( #197, ( #56 ) ) ;
#519 = EDGE_CURVE ( 'NONE', #117, #277, #421, .T. ) ;
#520 = ORIENTED_EDGE ( 'NONE', *, *, #519, .F. ) ;
#521 = ADVANCED_FACE ( 'NONE', ( #91 ), #45, .T. ) ;
#522 = ORIENTED_EDGE ( 'NONE', *, *, #422, .F. ) ;
#523 = DIRECTION ( 'NONE',  ( 2.891205793294678326E-16, 0.000000000000000000, 1.000000000000000000 ) ) ;
#524 = DIRECTION ( 'NONE',  ( 0.000000000000000000, -1.000000000000000000, 0.000000000000000000 ) ) ;
#525 = DIRECTION ( 'NONE',  ( 0.000000000000000000, 0.000000000000000000, -1.000000000000000000 ) ) ;
#526 = ORIENTED_EDGE ( 'NONE', *, *, #360, .T. ) ;
#527 = VERTEX_POINT ( 'NONE', #427 ) ;
#528 = CARTESIAN_POINT ( 'NONE',  ( 4.800000000000002487, 1.800000000000000044, 1.387778780781446070E-15 ) ) ;
#529 = DIRECTION ( 'NONE',  ( -0.000000000000000000, 1.000000000000000000, 0.000000000000000000 ) ) ;
#530 = PRODUCT_DEFINITION_SHAPE ( 'NONE', 'NONE',  #67 ) ;
#531 = ORIENTED_EDGE ( 'NONE', *, *, #481, .T. ) ;
#532 = CARTESIAN_POINT ( 'NONE',  ( -4.799999999999998046, 0.000000000000000000, -1.300000000000000266 ) ) ;
#533 = ADVANCED_FACE ( 'NONE', ( #93 ), #257, .T. ) ;
#534 = CARTESIAN_POINT ( 'NONE',  ( -4.999999999999997335, 2.000000000000000000, -1.500000000000000222 ) ) ;
#535 = DIRECTION ( 'NONE',  ( 0.000000000000000000, -1.000000000000000000, 0.000000000000000000 ) ) ;
#536 = APPLICATION_CONTEXT ( 'configuration controlled 3d designs of mechanical parts and assemblies' ) ;
#537 = ORGANIZATION ( 'UNSPECIFIED', 'UNSPECIFIED', '' ) ;
#538 = VERTEX_POINT ( 'NONE', #369 ) ;
#539 = CARTESIAN_POINT ( 'NONE',  ( 4.800000000000003375, 0.000000000000000000, 1.499999999999999778 ) ) ;
#540 = CARTESIAN_POINT ( 'NONE',  ( -4.999999999999996447, 0.000000000000000000, 1.499999999999999778 ) ) ;
#541 = CARTESIAN_POINT ( 'NONE',  ( 0.000000000000000000, 2.000000000000000000, 0.000000000000000000 ) ) ;
ENDSEC;
END-ISO-10303-21;
