ISO-10303-21;
HEADER;
FILE_DESCRIPTION (( 'STEP AP203' ),
    '1' );
FILE_NAME ('BAR3X4T2.step',
    '2026-03-22T06:38:41',
    ( '' ),
    ( '' ),
    'SwSTEP 2.0',
    'SolidWorks 2025',
    '' );
FILE_SCHEMA (( 'CONFIG_CONTROL_DESIGN' ));
ENDSEC;

DATA;
#1 = EDGE_LOOP ( 'NONE', ( #511, #166, #271, #210 ) ) ;
#2 =( NAMED_UNIT ( * ) PLANE_ANGLE_UNIT ( ) SI_UNIT ( $, .RADIAN. ) );
#3 = VECTOR ( 'NONE', #195, 1000.000000000000000 ) ;
#4 = DIRECTION ( 'NONE',  ( 0.000000000000000000, 0.000000000000000000, 1.000000000000000000 ) ) ;
#5 = EDGE_CURVE ( 'NONE', #128, #397, #308, .T. ) ;
#6 = ORIENTED_EDGE ( 'NONE', *, *, #329, .T. ) ;
#7 = FACE_OUTER_BOUND ( 'NONE', #136, .T. ) ;
#8 = ORIENTED_EDGE ( 'NONE', *, *, #405, .F. ) ;
#9 = CARTESIAN_POINT ( 'NONE',  ( -1.800000000000000044, 0.000000000000000000, -1.500000000000000222 ) ) ;
#10 = DIRECTION ( 'NONE',  ( 0.000000000000000000, -1.000000000000000000, 0.000000000000000000 ) ) ;
#11 = EDGE_CURVE ( 'NONE', #433, #140, #235, .T. ) ;
#12 = ORIENTED_EDGE ( 'NONE', *, *, #139, .F. ) ;
#13 = VECTOR ( 'NONE', #185, 1000.000000000000000 ) ;
#14 = DIRECTION ( 'NONE',  ( -2.891205793294678326E-16, 0.000000000000000000, -1.000000000000000000 ) ) ;
#15 = CIRCLE ( 'NONE', #161, 0.2000000000000000944 ) ;
#16 = CARTESIAN_POINT ( 'NONE',  ( -1.799999999999999156, 2.000000000000000000, 1.499999999999999778 ) ) ;
#17 = DIRECTION ( 'NONE',  ( 0.000000000000000000, 1.000000000000000000, -0.000000000000000000 ) ) ;
#18 = DIRECTION ( 'NONE',  ( -0.000000000000000000, 1.000000000000000000, -0.000000000000000000 ) ) ;
#19 = CARTESIAN_POINT ( 'NONE',  ( -1.799999999999999600, 1.800000000000000044, 5.204170427930419311E-16 ) ) ;
#20 = AXIS2_PLACEMENT_3D ( 'NONE', #53, #204, #500 ) ;
#21 = DIRECTION ( 'NONE',  ( 1.000000000000000000, -0.000000000000000000, -0.000000000000000000 ) ) ;
#22 = CIRCLE ( 'NONE', #473, 0.2000000000000000944 ) ;
#23 = ORIENTED_EDGE ( 'NONE', *, *, #355, .F. ) ;
#24 = CARTESIAN_POINT ( 'NONE',  ( 0.000000000000000000, 1.800000000000000044, -1.300000000000000266 ) ) ;
#25 = CIRCLE ( 'NONE', #323, 0.2000000000000000944 ) ;
#26 = FACE_OUTER_BOUND ( 'NONE', #474, .T. ) ;
#27 = ORIENTED_EDGE ( 'NONE', *, *, #486, .F. ) ;
#28 = FACE_OUTER_BOUND ( 'NONE', #227, .T. ) ;
#29 = CARTESIAN_POINT ( 'NONE',  ( 1.800000000000000711, 1.800000000000000044, 1.499999999999999778 ) ) ;
#30 = PERSON_AND_ORGANIZATION ( #57, #218 ) ;
#31 = LINE ( 'NONE', #69, #258 ) ;
#32 = CC_DESIGN_SECURITY_CLASSIFICATION ( #411, ( #199 ) ) ;
#33 = LINE ( 'NONE', #276, #244 ) ;
#34 = APPROVAL_STATUS ( 'not_yet_approved' ) ;
#35 = DIRECTION ( 'NONE',  ( 0.000000000000000000, -1.000000000000000000, 0.000000000000000000 ) ) ;
#36 = CALENDAR_DATE ( 2026, 22, 3 ) ;
#37 = FACE_OUTER_BOUND ( 'NONE', #434, .T. ) ;
#38 = MANIFOLD_SOLID_BREP ( '\X2\570689d2\X0\1', #221 ) ;
#39 = LOCAL_TIME ( 14, 38, 41.00000000000000000, #243 ) ;
#40 = PERSON_AND_ORGANIZATION_ROLE ( 'design_supplier' ) ;
#41 = CIRCLE ( 'NONE', #309, 0.2000000000000000944 ) ;
#42 = DIRECTION ( 'NONE',  ( 0.000000000000000000, -1.000000000000000000, 0.000000000000000000 ) ) ;
#43 = CC_DESIGN_PERSON_AND_ORGANIZATION_ASSIGNMENT ( #119, #481, ( #142 ) ) ;
#44 = APPLICATION_CONTEXT ( 'configuration controlled 3d designs of mechanical parts and assemblies' ) ;
#45 = VERTEX_POINT ( 'NONE', #29 ) ;
#46 = PLANE ( 'NONE',  #88 ) ;
#47 = EDGE_CURVE ( 'NONE', #140, #260, #425, .T. ) ;
#48 = AXIS2_PLACEMENT_3D ( 'NONE', #50, #89, #377 ) ;
#49 = SHAPE_DEFINITION_REPRESENTATION ( #223, #491 ) ;
#50 = CARTESIAN_POINT ( 'NONE',  ( 1.800000000000000044, 0.000000000000000000, -1.300000000000000266 ) ) ;
#51 = DIRECTION ( 'NONE',  ( -0.000000000000000000, -1.000000000000000000, -0.000000000000000000 ) ) ;
#52 = ORIENTED_EDGE ( 'NONE', *, *, #127, .F. ) ;
#53 = CARTESIAN_POINT ( 'NONE',  ( -2.000000000000000000, 2.000000000000000000, -1.500000000000000222 ) ) ;
#54 = AXIS2_PLACEMENT_3D ( 'NONE', #532, #488, #541 ) ;
#55 = FACE_OUTER_BOUND ( 'NONE', #464, .T. ) ;
#56 = ORIENTED_EDGE ( 'NONE', *, *, #108, .T. ) ;
#57 = PERSON ( 'UNSPECIFIED', 'UNSPECIFIED', 'UNSPECIFIED', ('UNSPECIFIED'), ('UNSPECIFIED'), ('UNSPECIFIED') ) ;
#58 = DIRECTION ( 'NONE',  ( 0.000000000000000000, 1.000000000000000000, 0.000000000000000000 ) ) ;
#59 = FACE_OUTER_BOUND ( 'NONE', #257, .T. ) ;
#60 = ORIENTED_EDGE ( 'NONE', *, *, #193, .F. ) ;
#61 = PLANE ( 'NONE',  #278 ) ;
#62 = ORIENTED_EDGE ( 'NONE', *, *, #139, .T. ) ;
#63 = CARTESIAN_POINT ( 'NONE',  ( -2.000000000000000000, 2.000000000000000000, -1.500000000000000222 ) ) ;
#64 = EDGE_CURVE ( 'NONE', #45, #302, #521, .T. ) ;
#65 = CARTESIAN_POINT ( 'NONE',  ( -1.800000000000000044, 2.000000000000000000, -1.500000000000000222 ) ) ;
#66 = APPROVAL ( #357, 'UNSPECIFIED' ) ;
#67 = DIRECTION ( 'NONE',  ( 0.000000000000000000, -0.000000000000000000, 1.000000000000000000 ) ) ;
#68 = VERTEX_POINT ( 'NONE', #232 ) ;
#69 = CARTESIAN_POINT ( 'NONE',  ( -2.000000000000000000, 1.800000000000000044, -1.500000000000000222 ) ) ;
#70 = ADVANCED_FACE ( 'NONE', ( #26 ), #154, .T. ) ;
#71 = ORIENTED_EDGE ( 'NONE', *, *, #196, .T. ) ;
#72 = ORIENTED_EDGE ( 'NONE', *, *, #376, .F. ) ;
#73 = AXIS2_PLACEMENT_3D ( 'NONE', #439, #363, #120 ) ;
#74 = CARTESIAN_POINT ( 'NONE',  ( -1.999999999999999112, 2.000000000000000000, 1.299999999999999822 ) ) ;
#75 = EDGE_CURVE ( 'NONE', #302, #68, #222, .T. ) ;
#76 = DIRECTION ( 'NONE',  ( 0.000000000000000000, 1.000000000000000000, 0.000000000000000000 ) ) ;
#77 = PERSON_AND_ORGANIZATION ( #57, #218 ) ;
#78 = SPHERICAL_SURFACE ( 'NONE', #490, 0.2000000000000000111 ) ;
#79 = APPROVAL_PERSON_ORGANIZATION ( #30, #385, #157 ) ;
#80 = LINE ( 'NONE', #245, #315 ) ;
#81 = CARTESIAN_POINT ( 'NONE',  ( -1.999999999999999112, 1.800000000000000044, 1.299999999999999822 ) ) ;
#82 = CARTESIAN_POINT ( 'NONE',  ( 1.800000000000000711, 2.000000000000000000, 1.299999999999999822 ) ) ;
#83 = AXIS2_PLACEMENT_3D ( 'NONE', #303, #106, #307 ) ;
#84 = PERSON_AND_ORGANIZATION_ROLE ( 'creator' ) ;
#85 = SECURITY_CLASSIFICATION_LEVEL ( 'unclassified' ) ;
#86 = EDGE_CURVE ( 'NONE', #328, #134, #143, .T. ) ;
#87 = EDGE_CURVE ( 'NONE', #467, #433, #389, .T. ) ;
#88 = AXIS2_PLACEMENT_3D ( 'NONE', #436, #441, #413 ) ;
#89 = DIRECTION ( 'NONE',  ( -0.000000000000000000, -1.000000000000000000, -0.000000000000000000 ) ) ;
#90 = ORIENTED_EDGE ( 'NONE', *, *, #355, .T. ) ;
#91 = CARTESIAN_POINT ( 'NONE',  ( -1.800000000000000044, 1.800000000000000044, -1.300000000000000266 ) ) ;
#92 = CARTESIAN_POINT ( 'NONE',  ( 2.000000000000000000, 1.800000000000000044, -1.300000000000000266 ) ) ;
#93 = ORIENTED_EDGE ( 'NONE', *, *, #486, .T. ) ;
#94 = CARTESIAN_POINT ( 'NONE',  ( 2.000000000000000000, 0.000000000000000000, -1.300000000000000266 ) ) ;
#95 = VERTEX_POINT ( 'NONE', #455 ) ;
#96 = CARTESIAN_POINT ( 'NONE',  ( 1.800000000000000044, 1.800000000000000044, -1.300000000000000266 ) ) ;
#97 = LINE ( 'NONE', #301, #443 ) ;
#98 = ORIENTED_EDGE ( 'NONE', *, *, #292, .T. ) ;
#99 = DIRECTION ( 'NONE',  ( 0.000000000000000000, 0.000000000000000000, -1.000000000000000000 ) ) ;
#100 = DIRECTION ( 'NONE',  ( 2.891205793294678326E-16, -0.000000000000000000, 1.000000000000000000 ) ) ;
#101 = DIRECTION ( 'NONE',  ( 0.000000000000000000, 1.000000000000000000, -0.000000000000000000 ) ) ;
#102 = EDGE_CURVE ( 'NONE', #502, #95, #159, .T. ) ;
#103 = CARTESIAN_POINT ( 'NONE',  ( 1.800000000000000044, 2.000000000000000000, -1.500000000000000222 ) ) ;
#104 = AXIS2_PLACEMENT_3D ( 'NONE', #356, #186, #386 ) ;
#105 = ORIENTED_EDGE ( 'NONE', *, *, #87, .F. ) ;
#106 = DIRECTION ( 'NONE',  ( 0.000000000000000000, -1.000000000000000000, 0.000000000000000000 ) ) ;
#107 = ORIENTED_EDGE ( 'NONE', *, *, #421, .T. ) ;
#108 = EDGE_CURVE ( 'NONE', #68, #128, #404, .T. ) ;
#109 = DIRECTION ( 'NONE',  ( -1.000000000000000000, 0.000000000000000000, 0.000000000000000000 ) ) ;
#110 = DIRECTION ( 'NONE',  ( -1.000000000000000000, -0.000000000000000000, -0.000000000000000000 ) ) ;
#111 = VECTOR ( 'NONE', #35, 1000.000000000000000 ) ;
#112 = EDGE_LOOP ( 'NONE', ( #254, #408, #12, #369 ) ) ;
#113 = CARTESIAN_POINT ( 'NONE',  ( -1.800000000000000044, 1.800000000000000044, -1.300000000000000266 ) ) ;
#114 = ORIENTED_EDGE ( 'NONE', *, *, #179, .T. ) ;
#115 = ORIENTED_EDGE ( 'NONE', *, *, #87, .T. ) ;
#116 = DATE_TIME_ROLE ( 'classification_date' ) ;
#117 = VECTOR ( 'NONE', #10, 1000.000000000000000 ) ;
#118 = DIRECTION ( 'NONE',  ( 1.000000000000000000, 0.000000000000000000, 0.000000000000000000 ) ) ;
#119 = PERSON_AND_ORGANIZATION ( #57, #218 ) ;
#120 = DIRECTION ( 'NONE',  ( 0.000000000000000000, 0.000000000000000000, 1.000000000000000000 ) ) ;
#121 = COORDINATED_UNIVERSAL_TIME_OFFSET ( 8, 0, .AHEAD. ) ;
#122 = DIRECTION ( 'NONE',  ( 0.000000000000000000, 0.000000000000000000, 1.000000000000000000 ) ) ;
#123 = DATE_AND_TIME ( #446, #39 ) ;
#124 = DIRECTION ( 'NONE',  ( 0.000000000000000000, -0.000000000000000000, 1.000000000000000000 ) ) ;
#125 = CIRCLE ( 'NONE', #54, 0.2000000000000000944 ) ;
#126 = APPROVAL_DATE_TIME ( #534, #66 ) ;
#127 = EDGE_CURVE ( 'NONE', #395, #397, #22, .T. ) ;
#128 = VERTEX_POINT ( 'NONE', #484 ) ;
#129 = CYLINDRICAL_SURFACE ( 'NONE', #485, 0.2000000000000000944 ) ;
#130 = CARTESIAN_POINT ( 'NONE',  ( 2.000000000000000000, 0.000000000000000000, -1.500000000000000222 ) ) ;
#131 = ORIENTED_EDGE ( 'NONE', *, *, #438, .T. ) ;
#132 = DIRECTION ( 'NONE',  ( 0.000000000000000000, 0.000000000000000000, 1.000000000000000000 ) ) ;
#133 = CC_DESIGN_PERSON_AND_ORGANIZATION_ASSIGNMENT ( #531, #319, ( #199 ) ) ;
#134 = VERTEX_POINT ( 'NONE', #92 ) ;
#135 = PLANE ( 'NONE',  #211 ) ;
#136 = EDGE_LOOP ( 'NONE', ( #107, #8, #52, #175 ) ) ;
#137 = LINE ( 'NONE', #333, #447 ) ;
#138 = DIRECTION ( 'NONE',  ( -1.000000000000000000, -0.000000000000000000, -0.000000000000000000 ) ) ;
#139 = EDGE_CURVE ( 'NONE', #502, #219, #451, .T. ) ;
#140 = VERTEX_POINT ( 'NONE', #279 ) ;
#141 = CARTESIAN_POINT ( 'NONE',  ( -1.800000000000000044, 0.000000000000000000, -1.300000000000000266 ) ) ;
#142 = PRODUCT ( 'BAR3X4T2', 'BAR3X4T2', '', ( #364 ) ) ;
#143 = LINE ( 'NONE', #470, #13 ) ;
#144 = AXIS2_PLACEMENT_3D ( 'NONE', #212, #293, #457 ) ;
#145 = ADVANCED_FACE ( 'NONE', ( #275 ), #46, .F. ) ;
#146 = DIRECTION ( 'NONE',  ( 1.000000000000000000, 0.000000000000000000, -2.891205793294676847E-16 ) ) ;
#147 = ORIENTED_EDGE ( 'NONE', *, *, #86, .F. ) ;
#148 = VECTOR ( 'NONE', #294, 1000.000000000000000 ) ;
#149 = ORIENTED_EDGE ( 'NONE', *, *, #338, .T. ) ;
#150 = EDGE_LOOP ( 'NONE', ( #513, #472, #372, #205 ) ) ;
#151 = CARTESIAN_POINT ( 'NONE',  ( -1.799999999999999156, 2.000000000000000000, 1.299999999999999822 ) ) ;
#152 = ORIENTED_EDGE ( 'NONE', *, *, #527, .F. ) ;
#153 = AXIS2_PLACEMENT_3D ( 'NONE', #285, #173, #418 ) ;
#154 = SPHERICAL_SURFACE ( 'NONE', #200, 0.2000000000000000111 ) ;
#155 = LINE ( 'NONE', #168, #299 ) ;
#156 = EDGE_CURVE ( 'NONE', #494, #395, #155, .T. ) ;
#157 = APPROVAL_ROLE ( '' ) ;
#158 = LINE ( 'NONE', #445, #518 ) ;
#159 = LINE ( 'NONE', #242, #111 ) ;
#160 = EDGE_CURVE ( 'NONE', #45, #502, #343, .T. ) ;
#161 = AXIS2_PLACEMENT_3D ( 'NONE', #382, #458, #264 ) ;
#162 = COORDINATED_UNIVERSAL_TIME_OFFSET ( 8, 0, .AHEAD. ) ;
#163 = EDGE_CURVE ( 'NONE', #476, #272, #33, .T. ) ;
#164 = CYLINDRICAL_SURFACE ( 'NONE', #144, 0.2000000000000000944 ) ;
#165 = LOCAL_TIME ( 14, 38, 41.00000000000000000, #362 ) ;
#166 = ORIENTED_EDGE ( 'NONE', *, *, #241, .T. ) ;
#167 = SPHERICAL_SURFACE ( 'NONE', #207, 0.2000000000000000111 ) ;
#168 = CARTESIAN_POINT ( 'NONE',  ( -1.799999999999999156, 2.000000000000000000, 1.499999999999999778 ) ) ;
#169 = ORIENTED_EDGE ( 'NONE', *, *, #329, .F. ) ;
#170 = AXIS2_PLACEMENT_3D ( 'NONE', #273, #76, #316 ) ;
#171 = DIRECTION ( 'NONE',  ( -1.000000000000000000, 0.000000000000000000, 0.000000000000000000 ) ) ;
#172 = ORIENTED_EDGE ( 'NONE', *, *, #11, .F. ) ;
#173 = DIRECTION ( 'NONE',  ( -0.000000000000000000, -1.000000000000000000, -0.000000000000000000 ) ) ;
#174 = CARTESIAN_POINT ( 'NONE',  ( -2.000000000000000000, 0.000000000000000000, -1.300000000000000266 ) ) ;
#175 = ORIENTED_EDGE ( 'NONE', *, *, #156, .F. ) ;
#176 = ADVANCED_FACE ( 'NONE', ( #399 ), #331, .T. ) ;
#177 = CARTESIAN_POINT ( 'NONE',  ( -1.800000000000000044, 2.000000000000000000, -1.300000000000000266 ) ) ;
#178 = DIRECTION ( 'NONE',  ( -0.000000000000000000, -1.000000000000000000, -0.000000000000000000 ) ) ;
#179 = EDGE_CURVE ( 'NONE', #95, #328, #530, .T. ) ;
#180 = ORIENTED_EDGE ( 'NONE', *, *, #298, .F. ) ;
#181 = AXIS2_PLACEMENT_3D ( 'NONE', #141, #178, #184 ) ;
#182 = LINE ( 'NONE', #103, #117 ) ;
#183 = DIRECTION ( 'NONE',  ( 0.000000000000000000, -1.000000000000000000, 0.000000000000000000 ) ) ;
#184 = DIRECTION ( 'NONE',  ( 0.000000000000000000, 0.000000000000000000, 1.000000000000000000 ) ) ;
#185 = DIRECTION ( 'NONE',  ( -0.000000000000000000, 1.000000000000000000, -0.000000000000000000 ) ) ;
#186 = DIRECTION ( 'NONE',  ( 1.000000000000000000, -0.000000000000000000, 0.000000000000000000 ) ) ;
#187 = AXIS2_PLACEMENT_3D ( 'NONE', #514, #426, #509 ) ;
#188 = APPROVAL ( #34, 'UNSPECIFIED' ) ;
#189 = ORIENTED_EDGE ( 'NONE', *, *, #527, .T. ) ;
#190 = DESIGN_CONTEXT ( 'detailed design', #523, 'design' ) ;
#191 = APPROVAL_STATUS ( 'not_yet_approved' ) ;
#192 = DIRECTION ( 'NONE',  ( -2.891205793294678326E-16, -0.000000000000000000, -1.000000000000000000 ) ) ;
#193 = EDGE_CURVE ( 'NONE', #260, #494, #373, .T. ) ;
#194 = DIRECTION ( 'NONE',  ( 0.000000000000000000, -1.000000000000000000, 0.000000000000000000 ) ) ;
#195 = DIRECTION ( 'NONE',  ( -2.891205793294678326E-16, -0.000000000000000000, -1.000000000000000000 ) ) ;
#196 = EDGE_CURVE ( 'NONE', #134, #502, #158, .T. ) ;
#197 = DIRECTION ( 'NONE',  ( 0.000000000000000000, 0.000000000000000000, 1.000000000000000000 ) ) ;
#198 = DIRECTION ( 'NONE',  ( 0.000000000000000000, 0.000000000000000000, -1.000000000000000000 ) ) ;
#199 = PRODUCT_DEFINITION_FORMATION_WITH_SPECIFIED_SOURCE ( 'ANY', '', #142, .NOT_KNOWN. ) ;
#200 = AXIS2_PLACEMENT_3D ( 'NONE', #313, #101, #263 ) ;
#201 = PERSON_AND_ORGANIZATION ( #57, #218 ) ;
#202 = CIRCLE ( 'NONE', #480, 0.2000000000000000944 ) ;
#203 = DATE_AND_TIME ( #449, #253 ) ;
#204 = DIRECTION ( 'NONE',  ( 0.000000000000000000, 0.000000000000000000, 1.000000000000000000 ) ) ;
#205 = ORIENTED_EDGE ( 'NONE', *, *, #5, .F. ) ;
#206 = CARTESIAN_POINT ( 'NONE',  ( 1.800000000000000044, 2.000000000000000000, -1.300000000000000266 ) ) ;
#207 = AXIS2_PLACEMENT_3D ( 'NONE', #330, #508, #99 ) ;
#208 =( LENGTH_UNIT ( ) NAMED_UNIT ( * ) SI_UNIT ( .MILLI., .METRE. ) );
#209 = DIRECTION ( 'NONE',  ( 0.000000000000000000, 0.000000000000000000, 1.000000000000000000 ) ) ;
#210 = ORIENTED_EDGE ( 'NONE', *, *, #193, .T. ) ;
#211 = AXIS2_PLACEMENT_3D ( 'NONE', #63, #506, #266 ) ;
#212 = CARTESIAN_POINT ( 'NONE',  ( 1.800000000000000044, 2.000000000000000000, -1.300000000000000266 ) ) ;
#213 = CARTESIAN_POINT ( 'NONE',  ( 1.800000000000000044, 1.800000000000000044, -1.300000000000000266 ) ) ;
#214 = ADVANCED_FACE ( 'NONE', ( #37 ), #478, .F. ) ;
#215 = ORIENTED_EDGE ( 'NONE', *, *, #75, .T. ) ;
#216 = DIRECTION ( 'NONE',  ( -1.000000000000000000, 0.000000000000000000, 0.000000000000000000 ) ) ;
#217 = CARTESIAN_POINT ( 'NONE',  ( 1.800000000000000711, 0.000000000000000000, 1.499999999999999778 ) ) ;
#218 = ORGANIZATION ( 'UNSPECIFIED', 'UNSPECIFIED', '' ) ;
#219 = VERTEX_POINT ( 'NONE', #82 ) ;
#220 = CARTESIAN_POINT ( 'NONE',  ( -1.800000000000000044, 1.800000000000000044, -1.300000000000000266 ) ) ;
#221 = CLOSED_SHELL ( 'NONE', ( #306, #503, #351, #145, #280, #214, #325, #427, #522, #400, #448, #462, #388, #270, #176, #70, #495, #237 ) ) ;
#222 = LINE ( 'NONE', #16, #504 ) ;
#223 = PRODUCT_DEFINITION_SHAPE ( 'NONE', 'NONE',  #479 ) ;
#224 = CIRCLE ( 'NONE', #435, 0.2000000000000000944 ) ;
#225 = PLANE ( 'NONE',  #187 ) ;
#226 = AXIS2_PLACEMENT_3D ( 'NONE', #290, #51, #4 ) ;
#227 = EDGE_LOOP ( 'NONE', ( #189, #230, #452 ) ) ;
#228 = CARTESIAN_POINT ( 'NONE',  ( 1.800000000000000044, 2.000000000000000000, -1.500000000000000222 ) ) ;
#229 = EDGE_LOOP ( 'NONE', ( #432, #269, #349, #383 ) ) ;
#230 = ORIENTED_EDGE ( 'NONE', *, *, #345, .T. ) ;
#231 = FACE_OUTER_BOUND ( 'NONE', #456, .T. ) ;
#232 = CARTESIAN_POINT ( 'NONE',  ( -1.799999999999999156, 0.000000000000000000, 1.499999999999999778 ) ) ;
#233 = UNCERTAINTY_MEASURE_WITH_UNIT (LENGTH_MEASURE( 1.000000000000000082E-05 ), #208, 'distance_accuracy_value', 'NONE');
#234 = AXIS2_PLACEMENT_3D ( 'NONE', #213, #378, #336 ) ;
#235 = LINE ( 'NONE', #428, #283 ) ;
#236 = APPLICATION_PROTOCOL_DEFINITION ( 'international standard', 'config_control_design', 1994, #523 ) ;
#237 = ADVANCED_FACE ( 'NONE', ( #321 ), #482, .T. ) ;
#238 = DIRECTION ( 'NONE',  ( 0.000000000000000000, -1.000000000000000000, 0.000000000000000000 ) ) ;
#239 = CC_DESIGN_APPROVAL ( #66, ( #199 ) ) ;
#240 = DIRECTION ( 'NONE',  ( -0.000000000000000000, -0.000000000000000000, 1.000000000000000000 ) ) ;
#241 = EDGE_CURVE ( 'NONE', #395, #219, #80, .T. ) ;
#242 = CARTESIAN_POINT ( 'NONE',  ( 2.000000000000000888, 2.000000000000000000, 1.299999999999999822 ) ) ;
#243 = COORDINATED_UNIVERSAL_TIME_OFFSET ( 8, 0, .AHEAD. ) ;
#244 = VECTOR ( 'NONE', #238, 1000.000000000000000 ) ;
#245 = CARTESIAN_POINT ( 'NONE',  ( 2.000000000000000888, 2.000000000000000000, 1.299999999999999822 ) ) ;
#246 = AXIS2_PLACEMENT_3D ( 'NONE', #252, #209, #359 ) ;
#247 = EDGE_LOOP ( 'NONE', ( #93, #115, #354, #267 ) ) ;
#248 = EDGE_CURVE ( 'NONE', #395, #302, #125, .T. ) ;
#249 = DIRECTION ( 'NONE',  ( 0.000000000000000000, 1.000000000000000000, 0.000000000000000000 ) ) ;
#250 = ORIENTED_EDGE ( 'NONE', *, *, #102, .T. ) ;
#251 = DIRECTION ( 'NONE',  ( 2.891205793294678326E-16, 0.000000000000000000, 1.000000000000000000 ) ) ;
#252 = CARTESIAN_POINT ( 'NONE',  ( 1.800000000000000711, 1.800000000000000044, 1.299999999999999822 ) ) ;
#253 = LOCAL_TIME ( 14, 38, 41.00000000000000000, #121 ) ;
#254 = ORIENTED_EDGE ( 'NONE', *, *, #391, .T. ) ;
#255 = FACE_OUTER_BOUND ( 'NONE', #150, .T. ) ;
#256 = DIRECTION ( 'NONE',  ( 0.000000000000000000, 0.000000000000000000, -1.000000000000000000 ) ) ;
#257 = EDGE_LOOP ( 'NONE', ( #180, #350, #459, #105 ) ) ;
#258 = VECTOR ( 'NONE', #192, 1000.000000000000000 ) ;
#259 = LINE ( 'NONE', #429, #148 ) ;
#260 = VERTEX_POINT ( 'NONE', #206 ) ;
#261 = CARTESIAN_POINT ( 'NONE',  ( -1.799999999999999156, 1.800000000000000044, 1.499999999999999778 ) ) ;
#262 = APPROVAL_PERSON_ORGANIZATION ( #322, #66, #489 ) ;
#263 = DIRECTION ( 'NONE',  ( 0.000000000000000000, 0.000000000000000000, 1.000000000000000000 ) ) ;
#264 = DIRECTION ( 'NONE',  ( 0.000000000000000000, 0.000000000000000000, 1.000000000000000000 ) ) ;
#265 = ORIENTED_EDGE ( 'NONE', *, *, #248, .F. ) ;
#266 = DIRECTION ( 'NONE',  ( -2.891205793294678326E-16, 0.000000000000000000, -1.000000000000000000 ) ) ;
#267 = ORIENTED_EDGE ( 'NONE', *, *, #289, .T. ) ;
#268 = CARTESIAN_POINT ( 'NONE',  ( -1.999999999999999112, 1.800000000000000044, 1.499999999999999778 ) ) ;
#269 = ORIENTED_EDGE ( 'NONE', *, *, #102, .F. ) ;
#270 = ADVANCED_FACE ( 'NONE', ( #371 ), #419, .T. ) ;
#271 = ORIENTED_EDGE ( 'NONE', *, *, #365, .T. ) ;
#272 = VERTEX_POINT ( 'NONE', #174 ) ;
#273 = CARTESIAN_POINT ( 'NONE',  ( 0.000000000000000000, 0.000000000000000000, 0.000000000000000000 ) ) ;
#274 = PERSON_AND_ORGANIZATION ( #57, #218 ) ;
#275 = FACE_OUTER_BOUND ( 'NONE', #392, .T. ) ;
#276 = CARTESIAN_POINT ( 'NONE',  ( -2.000000000000000000, 2.000000000000000000, -1.300000000000000266 ) ) ;
#277 = DIRECTION ( 'NONE',  ( 1.000000000000000000, 0.000000000000000000, 0.000000000000000000 ) ) ;
#278 = AXIS2_PLACEMENT_3D ( 'NONE', #387, #466, #67 ) ;
#279 = CARTESIAN_POINT ( 'NONE',  ( 1.800000000000000044, 1.800000000000000044, -1.500000000000000222 ) ) ;
#280 = ADVANCED_FACE ( 'NONE', ( #347 ), #61, .T. ) ;
#281 = PRODUCT_RELATED_PRODUCT_CATEGORY ( 'detail', '', ( #142 ) ) ;
#282 = AXIS2_PLACEMENT_3D ( 'NONE', #96, #58, #216 ) ;
#283 = VECTOR ( 'NONE', #21, 1000.000000000000000 ) ;
#284 = CC_DESIGN_PERSON_AND_ORGANIZATION_ASSIGNMENT ( #274, #84, ( #479 ) ) ;
#285 = CARTESIAN_POINT ( 'NONE',  ( 1.800000000000000711, 0.000000000000000000, 1.299999999999999822 ) ) ;
#286 = VECTOR ( 'NONE', #516, 1000.000000000000000 ) ;
#287 = ORIENTED_EDGE ( 'NONE', *, *, #298, .T. ) ;
#288 = FACE_OUTER_BOUND ( 'NONE', #247, .T. ) ;
#289 = EDGE_CURVE ( 'NONE', #140, #305, #182, .T. ) ;
#290 = CARTESIAN_POINT ( 'NONE',  ( -1.799999999999999156, 0.000000000000000000, 1.299999999999999822 ) ) ;
#291 = ORIENTED_EDGE ( 'NONE', *, *, #127, .T. ) ;
#292 = EDGE_CURVE ( 'NONE', #397, #302, #41, .T. ) ;
#293 = DIRECTION ( 'NONE',  ( 0.000000000000000000, -1.000000000000000000, 0.000000000000000000 ) ) ;
#294 = DIRECTION ( 'NONE',  ( 1.000000000000000000, 0.000000000000000000, 0.000000000000000000 ) ) ;
#295 = ORIENTED_EDGE ( 'NONE', *, *, #248, .T. ) ;
#296 = CARTESIAN_POINT ( 'NONE',  ( 1.800000000000000044, 0.000000000000000000, -1.500000000000000222 ) ) ;
#297 = EDGE_LOOP ( 'NONE', ( #295, #342, #90, #520 ) ) ;
#298 = EDGE_CURVE ( 'NONE', #272, #467, #407, .T. ) ;
#299 = VECTOR ( 'NONE', #526, 1000.000000000000000 ) ;
#300 = FACE_OUTER_BOUND ( 'NONE', #499, .T. ) ;
#301 = CARTESIAN_POINT ( 'NONE',  ( 1.800000000000000711, 2.000000000000000000, 1.499999999999999778 ) ) ;
#302 = VERTEX_POINT ( 'NONE', #261 ) ;
#303 = CARTESIAN_POINT ( 'NONE',  ( -1.800000000000000044, 2.000000000000000000, -1.300000000000000266 ) ) ;
#304 = LOCAL_TIME ( 14, 38, 41.00000000000000000, #487 ) ;
#305 = VERTEX_POINT ( 'NONE', #296 ) ;
#306 = ADVANCED_FACE ( 'NONE', ( #341 ), #225, .F. ) ;
#307 = DIRECTION ( 'NONE',  ( 0.000000000000000000, 0.000000000000000000, -1.000000000000000000 ) ) ;
#308 = LINE ( 'NONE', #74, #358 ) ;
#309 = AXIS2_PLACEMENT_3D ( 'NONE', #501, #17, #132 ) ;
#310 = VERTEX_POINT ( 'NONE', #217 ) ;
#311 = ORIENTED_EDGE ( 'NONE', *, *, #64, .T. ) ;
#312 = CIRCLE ( 'NONE', #515, 0.2000000000000000944 ) ;
#313 = CARTESIAN_POINT ( 'NONE',  ( -1.799999999999999156, 1.800000000000000044, 1.299999999999999822 ) ) ;
#314 = DATE_AND_TIME ( #324, #539 ) ;
#315 = VECTOR ( 'NONE', #403, 1000.000000000000000 ) ;
#316 = DIRECTION ( 'NONE',  ( 0.000000000000000000, -0.000000000000000000, 1.000000000000000000 ) ) ;
#317 = APPLICATION_PROTOCOL_DEFINITION ( 'international standard', 'config_control_design', 1994, #44 ) ;
#318 = CARTESIAN_POINT ( 'NONE',  ( -1.799999999999999156, 1.800000000000000044, 1.299999999999999822 ) ) ;
#319 = PERSON_AND_ORGANIZATION_ROLE ( 'creator' ) ;
#320 = CC_DESIGN_PERSON_AND_ORGANIZATION_ASSIGNMENT ( #201, #366, ( #411 ) ) ;
#321 = FACE_OUTER_BOUND ( 'NONE', #297, .T. ) ;
#322 = PERSON_AND_ORGANIZATION ( #57, #218 ) ;
#323 = AXIS2_PLACEMENT_3D ( 'NONE', #525, #240, #517 ) ;
#324 = CALENDAR_DATE ( 2026, 22, 3 ) ;
#325 = ADVANCED_FACE ( 'NONE', ( #59 ), #461, .T. ) ;
#326 = CC_DESIGN_APPROVAL ( #188, ( #411 ) ) ;
#327 = DIRECTION ( 'NONE',  ( -1.000000000000000000, 0.000000000000000000, 0.000000000000000000 ) ) ;
#328 = VERTEX_POINT ( 'NONE', #94 ) ;
#329 = EDGE_CURVE ( 'NONE', #68, #310, #259, .T. ) ;
#330 = CARTESIAN_POINT ( 'NONE',  ( 1.800000000000000711, 1.800000000000000044, 1.299999999999999822 ) ) ;
#331 = CYLINDRICAL_SURFACE ( 'NONE', #510, 0.2000000000000000944 ) ;
#332 = ORIENTED_EDGE ( 'NONE', *, *, #179, .F. ) ;
#333 = CARTESIAN_POINT ( 'NONE',  ( -2.000000000000000000, 0.000000000000000000, -1.500000000000000222 ) ) ;
#334 = DIRECTION ( 'NONE',  ( -2.891205793294678326E-16, 0.000000000000000000, -1.000000000000000000 ) ) ;
#335 = EDGE_LOOP ( 'NONE', ( #430, #62, #23 ) ) ;
#336 = DIRECTION ( 'NONE',  ( -1.000000000000000000, 0.000000000000000000, 0.000000000000000000 ) ) ;
#337 = APPROVAL_PERSON_ORGANIZATION ( #77, #188, #360 ) ;
#338 = EDGE_CURVE ( 'NONE', #310, #45, #97, .T. ) ;
#339 = ORIENTED_EDGE ( 'NONE', *, *, #47, .F. ) ;
#340 = PLANE ( 'NONE',  #20 ) ;
#341 = FACE_OUTER_BOUND ( 'NONE', #380, .T. ) ;
#342 = ORIENTED_EDGE ( 'NONE', *, *, #64, .F. ) ;
#343 = CIRCLE ( 'NONE', #367, 0.2000000000000000944 ) ;
#344 = DIRECTION ( 'NONE',  ( -0.000000000000000000, 1.000000000000000000, -0.000000000000000000 ) ) ;
#345 = EDGE_CURVE ( 'NONE', #433, #476, #224, .T. ) ;
#346 = ORIENTED_EDGE ( 'NONE', *, *, #537, .T. ) ;
#347 = FACE_OUTER_BOUND ( 'NONE', #1, .T. ) ;
#348 =( GEOMETRIC_REPRESENTATION_CONTEXT ( 3 ) GLOBAL_UNCERTAINTY_ASSIGNED_CONTEXT ( ( #233 ) ) GLOBAL_UNIT_ASSIGNED_CONTEXT ( ( #208, #2, #524 ) ) REPRESENTATION_CONTEXT ( 'NONE', 'WORKASPACE' ) );
#349 = ORIENTED_EDGE ( 'NONE', *, *, #160, .F. ) ;
#350 = ORIENTED_EDGE ( 'NONE', *, *, #163, .F. ) ;
#351 = ADVANCED_FACE ( 'NONE', ( #55 ), #135, .F. ) ;
#352 = ORIENTED_EDGE ( 'NONE', *, *, #391, .F. ) ;
#353 = CIRCLE ( 'NONE', #234, 0.2000000000000000944 ) ;
#354 = ORIENTED_EDGE ( 'NONE', *, *, #11, .T. ) ;
#355 = EDGE_CURVE ( 'NONE', #45, #219, #202, .T. ) ;
#356 = CARTESIAN_POINT ( 'NONE',  ( 1.800000000000000044, 1.800000000000000044, -1.300000000000000266 ) ) ;
#357 = APPROVAL_STATUS ( 'not_yet_approved' ) ;
#358 = VECTOR ( 'NONE', #18, 1000.000000000000000 ) ;
#359 = DIRECTION ( 'NONE',  ( 1.000000000000000000, 0.000000000000000000, 0.000000000000000000 ) ) ;
#360 = APPROVAL_ROLE ( '' ) ;
#361 = CARTESIAN_POINT ( 'NONE',  ( -2.000000000000000000, 2.000000000000000000, -1.300000000000000266 ) ) ;
#362 = COORDINATED_UNIVERSAL_TIME_OFFSET ( 8, 0, .AHEAD. ) ;
#363 = DIRECTION ( 'NONE',  ( -1.000000000000000000, 0.000000000000000000, 0.000000000000000000 ) ) ;
#364 = MECHANICAL_CONTEXT ( 'NONE', #44, 'mechanical' ) ;
#365 = EDGE_CURVE ( 'NONE', #219, #260, #512, .T. ) ;
#366 = PERSON_AND_ORGANIZATION_ROLE ( 'classification_officer' ) ;
#367 = AXIS2_PLACEMENT_3D ( 'NONE', #401, #249, #122 ) ;
#368 = DIRECTION ( 'NONE',  ( 0.000000000000000000, 0.000000000000000000, -1.000000000000000000 ) ) ;
#369 = ORIENTED_EDGE ( 'NONE', *, *, #196, .F. ) ;
#370 = FACE_OUTER_BOUND ( 'NONE', #335, .T. ) ;
#371 = FACE_OUTER_BOUND ( 'NONE', #112, .T. ) ;
#372 = ORIENTED_EDGE ( 'NONE', *, *, #292, .F. ) ;
#373 = LINE ( 'NONE', #361, #535 ) ;
#374 = AXIS2_PLACEMENT_3D ( 'NONE', #422, #100, #146 ) ;
#375 = EDGE_LOOP ( 'NONE', ( #424, #420, #72, #147 ) ) ;
#376 = EDGE_CURVE ( 'NONE', #134, #140, #15, .T. ) ;
#377 = DIRECTION ( 'NONE',  ( 0.000000000000000000, 0.000000000000000000, 1.000000000000000000 ) ) ;
#378 = DIRECTION ( 'NONE',  ( -0.000000000000000000, -0.000000000000000000, 1.000000000000000000 ) ) ;
#379 = CC_DESIGN_DATE_AND_TIME_ASSIGNMENT ( #314, #116, ( #411 ) ) ;
#380 = EDGE_LOOP ( 'NONE', ( #114, #417, #71, #250 ) ) ;
#381 = DIRECTION ( 'NONE',  ( 0.000000000000000000, 0.000000000000000000, -1.000000000000000000 ) ) ;
#382 = CARTESIAN_POINT ( 'NONE',  ( 1.800000000000000044, 1.800000000000000044, -1.300000000000000266 ) ) ;
#383 = ORIENTED_EDGE ( 'NONE', *, *, #338, .F. ) ;
#384 = DIRECTION ( 'NONE',  ( 0.000000000000000000, 0.000000000000000000, 1.000000000000000000 ) ) ;
#385 = APPROVAL ( #191, 'UNSPECIFIED' ) ;
#386 = DIRECTION ( 'NONE',  ( 0.000000000000000000, 0.000000000000000000, -1.000000000000000000 ) ) ;
#387 = CARTESIAN_POINT ( 'NONE',  ( 0.000000000000000000, 2.000000000000000000, 0.000000000000000000 ) ) ;
#388 = ADVANCED_FACE ( 'NONE', ( #7 ), #390, .T. ) ;
#389 = LINE ( 'NONE', #65, #286 ) ;
#390 = CYLINDRICAL_SURFACE ( 'NONE', #528, 0.2000000000000000944 ) ;
#391 = EDGE_CURVE ( 'NONE', #134, #260, #353, .T. ) ;
#392 = EDGE_LOOP ( 'NONE', ( #311, #215, #6, #149 ) ) ;
#393 = ORIENTED_EDGE ( 'NONE', *, *, #376, .T. ) ;
#394 = CYLINDRICAL_SURFACE ( 'NONE', #463, 0.2000000000000000944 ) ;
#395 = VERTEX_POINT ( 'NONE', #151 ) ;
#396 = VECTOR ( 'NONE', #251, 1000.000000000000000 ) ;
#397 = VERTEX_POINT ( 'NONE', #81 ) ;
#398 = DIRECTION ( 'NONE',  ( 0.000000000000000000, 1.000000000000000000, 0.000000000000000000 ) ) ;
#399 = FACE_OUTER_BOUND ( 'NONE', #229, .T. ) ;
#400 = ADVANCED_FACE ( 'NONE', ( #28 ), #78, .T. ) ;
#401 = CARTESIAN_POINT ( 'NONE',  ( 1.800000000000000711, 1.800000000000000044, 1.299999999999999822 ) ) ;
#402 = DATE_TIME_ROLE ( 'creation_date' ) ;
#403 = DIRECTION ( 'NONE',  ( 1.000000000000000000, -0.000000000000000000, 0.000000000000000000 ) ) ;
#404 = CIRCLE ( 'NONE', #226, 0.2000000000000000944 ) ;
#405 = EDGE_CURVE ( 'NONE', #397, #476, #31, .T. ) ;
#406 = FACE_OUTER_BOUND ( 'NONE', #375, .T. ) ;
#407 = CIRCLE ( 'NONE', #181, 0.2000000000000000944 ) ;
#408 = ORIENTED_EDGE ( 'NONE', *, *, #365, .F. ) ;
#409 = DIRECTION ( 'NONE',  ( 2.891205793294678326E-16, -0.000000000000000000, 1.000000000000000000 ) ) ;
#410 = ORIENTED_EDGE ( 'NONE', *, *, #444, .T. ) ;
#411 = SECURITY_CLASSIFICATION ( '', '', #85 ) ;
#412 = CARTESIAN_POINT ( 'NONE',  ( -2.000000000000000000, 1.800000000000000044, -1.300000000000000266 ) ) ;
#413 = DIRECTION ( 'NONE',  ( -1.000000000000000000, 0.000000000000000000, -0.000000000000000000 ) ) ;
#414 = ORIENTED_EDGE ( 'NONE', *, *, #47, .T. ) ;
#415 = DIRECTION ( 'NONE',  ( -1.000000000000000000, 0.000000000000000000, 2.891205793294676847E-16 ) ) ;
#416 = VECTOR ( 'NONE', #14, 1000.000000000000000 ) ;
#417 = ORIENTED_EDGE ( 'NONE', *, *, #86, .T. ) ;
#418 = DIRECTION ( 'NONE',  ( 0.000000000000000000, 0.000000000000000000, 1.000000000000000000 ) ) ;
#419 = CYLINDRICAL_SURFACE ( 'NONE', #374, 0.2000000000000000944 ) ;
#420 = ORIENTED_EDGE ( 'NONE', *, *, #289, .F. ) ;
#421 = EDGE_CURVE ( 'NONE', #494, #476, #25, .T. ) ;
#422 = CARTESIAN_POINT ( 'NONE',  ( 1.800000000000000488, 1.800000000000000044, -5.204170427930422269E-16 ) ) ;
#423 = AXIS2_PLACEMENT_3D ( 'NONE', #529, #197, #277 ) ;
#424 = ORIENTED_EDGE ( 'NONE', *, *, #537, .F. ) ;
#425 = CIRCLE ( 'NONE', #104, 0.2000000000000000944 ) ;
#426 = DIRECTION ( 'NONE',  ( -1.000000000000000000, 0.000000000000000000, 2.891205793294678326E-16 ) ) ;
#427 = ADVANCED_FACE ( 'NONE', ( #231 ), #394, .T. ) ;
#428 = CARTESIAN_POINT ( 'NONE',  ( 2.000000000000000000, 1.800000000000000044, -1.500000000000000222 ) ) ;
#429 = CARTESIAN_POINT ( 'NONE',  ( -1.999999999999999112, 0.000000000000000000, 1.499999999999999778 ) ) ;
#430 = ORIENTED_EDGE ( 'NONE', *, *, #160, .T. ) ;
#431 = VECTOR ( 'NONE', #110, 1000.000000000000000 ) ;
#432 = ORIENTED_EDGE ( 'NONE', *, *, #444, .F. ) ;
#433 = VERTEX_POINT ( 'NONE', #465 ) ;
#434 = EDGE_LOOP ( 'NONE', ( #169, #56, #507, #287, #27, #346, #332, #410 ) ) ;
#435 = AXIS2_PLACEMENT_3D ( 'NONE', #220, #471, #384 ) ;
#436 = CARTESIAN_POINT ( 'NONE',  ( -1.999999999999999112, 2.000000000000000000, 1.499999999999999778 ) ) ;
#437 = PERSON_AND_ORGANIZATION ( #57, #218 ) ;
#438 = EDGE_CURVE ( 'NONE', #272, #128, #540, .T. ) ;
#439 = CARTESIAN_POINT ( 'NONE',  ( 0.000000000000000000, 1.800000000000000044, 1.299999999999999822 ) ) ;
#440 = CIRCLE ( 'NONE', #153, 0.2000000000000000944 ) ;
#441 = DIRECTION ( 'NONE',  ( 0.000000000000000000, 0.000000000000000000, -1.000000000000000000 ) ) ;
#442 = CALENDAR_DATE ( 2026, 22, 3 ) ;
#443 = VECTOR ( 'NONE', #344, 1000.000000000000000 ) ;
#444 = EDGE_CURVE ( 'NONE', #95, #310, #440, .T. ) ;
#445 = CARTESIAN_POINT ( 'NONE',  ( 2.000000000000000888, 1.800000000000000044, 1.499999999999999778 ) ) ;
#446 = CALENDAR_DATE ( 2026, 22, 3 ) ;
#447 = VECTOR ( 'NONE', #450, 1000.000000000000000 ) ;
#448 = ADVANCED_FACE ( 'NONE', ( #300 ), #460, .T. ) ;
#449 = CALENDAR_DATE ( 2026, 22, 3 ) ;
#450 = DIRECTION ( 'NONE',  ( -1.000000000000000000, -0.000000000000000000, -0.000000000000000000 ) ) ;
#451 = CIRCLE ( 'NONE', #246, 0.2000000000000000944 ) ;
#452 = ORIENTED_EDGE ( 'NONE', *, *, #421, .F. ) ;
#453 = APPROVAL_DATE_TIME ( #203, #188 ) ;
#454 = CARTESIAN_POINT ( 'NONE',  ( -2.000000000000000000, 0.000000000000000000, -1.500000000000000222 ) ) ;
#455 = CARTESIAN_POINT ( 'NONE',  ( 2.000000000000000888, 0.000000000000000000, 1.299999999999999822 ) ) ;
#456 = EDGE_LOOP ( 'NONE', ( #339, #172, #152, #60 ) ) ;
#457 = DIRECTION ( 'NONE',  ( 0.000000000000000000, 0.000000000000000000, -1.000000000000000000 ) ) ;
#458 = DIRECTION ( 'NONE',  ( -0.000000000000000000, 1.000000000000000000, 0.000000000000000000 ) ) ;
#459 = ORIENTED_EDGE ( 'NONE', *, *, #345, .F. ) ;
#460 = SPHERICAL_SURFACE ( 'NONE', #282, 0.2000000000000000111 ) ;
#461 = CYLINDRICAL_SURFACE ( 'NONE', #83, 0.2000000000000000944 ) ;
#462 = ADVANCED_FACE ( 'NONE', ( #255 ), #129, .T. ) ;
#463 = AXIS2_PLACEMENT_3D ( 'NONE', #24, #505, #368 ) ;
#464 = EDGE_LOOP ( 'NONE', ( #131, #477, #519, #538 ) ) ;
#465 = CARTESIAN_POINT ( 'NONE',  ( -1.800000000000000044, 1.800000000000000044, -1.500000000000000222 ) ) ;
#466 = DIRECTION ( 'NONE',  ( 0.000000000000000000, 1.000000000000000000, 0.000000000000000000 ) ) ;
#467 = VERTEX_POINT ( 'NONE', #9 ) ;
#468 = CARTESIAN_POINT ( 'NONE',  ( 1.800000000000000711, 1.800000000000000044, 1.299999999999999822 ) ) ;
#469 = CC_DESIGN_APPROVAL ( #385, ( #479 ) ) ;
#470 = CARTESIAN_POINT ( 'NONE',  ( 2.000000000000000000, 2.000000000000000000, -1.300000000000000266 ) ) ;
#471 = DIRECTION ( 'NONE',  ( 0.000000000000000000, 1.000000000000000000, 0.000000000000000000 ) ) ;
#472 = ORIENTED_EDGE ( 'NONE', *, *, #75, .F. ) ;
#473 = AXIS2_PLACEMENT_3D ( 'NONE', #318, #124, #118 ) ;
#474 = EDGE_LOOP ( 'NONE', ( #291, #98, #265 ) ) ;
#475 = CC_DESIGN_PERSON_AND_ORGANIZATION_ASSIGNMENT ( #437, #40, ( #199 ) ) ;
#476 = VERTEX_POINT ( 'NONE', #412 ) ;
#477 = ORIENTED_EDGE ( 'NONE', *, *, #5, .T. ) ;
#478 = PLANE ( 'NONE',  #170 ) ;
#479 = PRODUCT_DEFINITION ( 'UNKNOWN', '', #199, #190 ) ;
#480 = AXIS2_PLACEMENT_3D ( 'NONE', #468, #138, #256 ) ;
#481 = PERSON_AND_ORGANIZATION_ROLE ( 'design_owner' ) ;
#482 = CYLINDRICAL_SURFACE ( 'NONE', #73, 0.2000000000000000944 ) ;
#483 = APPROVAL_DATE_TIME ( #533, #385 ) ;
#484 = CARTESIAN_POINT ( 'NONE',  ( -1.999999999999999112, 0.000000000000000000, 1.299999999999999822 ) ) ;
#485 = AXIS2_PLACEMENT_3D ( 'NONE', #536, #42, #381 ) ;
#486 = EDGE_CURVE ( 'NONE', #305, #467, #137, .T. ) ;
#487 = COORDINATED_UNIVERSAL_TIME_OFFSET ( 8, 0, .AHEAD. ) ;
#488 = DIRECTION ( 'NONE',  ( 1.000000000000000000, -0.000000000000000000, -0.000000000000000000 ) ) ;
#489 = APPROVAL_ROLE ( '' ) ;
#490 = AXIS2_PLACEMENT_3D ( 'NONE', #113, #398, #109 ) ;
#491 = ADVANCED_BREP_SHAPE_REPRESENTATION ( 'BAR3X4T2', ( #38, #423 ), #348 ) ;
#492 = CIRCLE ( 'NONE', #48, 0.2000000000000000944 ) ;
#493 = DIRECTION ( 'NONE',  ( 0.000000000000000000, 0.000000000000000000, 1.000000000000000000 ) ) ;
#494 = VERTEX_POINT ( 'NONE', #177 ) ;
#495 = ADVANCED_FACE ( 'NONE', ( #370 ), #167, .T. ) ;
#496 = CARTESIAN_POINT ( 'NONE',  ( 2.000000000000000888, 1.800000000000000044, 1.299999999999999822 ) ) ;
#497 = CARTESIAN_POINT ( 'NONE',  ( 1.800000000000000711, 2.000000000000000000, 1.299999999999999822 ) ) ;
#498 = CC_DESIGN_DATE_AND_TIME_ASSIGNMENT ( #123, #402, ( #479 ) ) ;
#499 = EDGE_LOOP ( 'NONE', ( #393, #414, #352 ) ) ;
#500 = DIRECTION ( 'NONE',  ( 1.000000000000000000, 0.000000000000000000, -0.000000000000000000 ) ) ;
#501 = CARTESIAN_POINT ( 'NONE',  ( -1.799999999999999156, 1.800000000000000044, 1.299999999999999822 ) ) ;
#502 = VERTEX_POINT ( 'NONE', #496 ) ;
#503 = ADVANCED_FACE ( 'NONE', ( #288 ), #340, .F. ) ;
#504 = VECTOR ( 'NONE', #183, 1000.000000000000000 ) ;
#505 = DIRECTION ( 'NONE',  ( 1.000000000000000000, 0.000000000000000000, 0.000000000000000000 ) ) ;
#506 = DIRECTION ( 'NONE',  ( 1.000000000000000000, 0.000000000000000000, -2.891205793294678326E-16 ) ) ;
#507 = ORIENTED_EDGE ( 'NONE', *, *, #438, .F. ) ;
#508 = DIRECTION ( 'NONE',  ( -0.000000000000000000, 1.000000000000000000, 0.000000000000000000 ) ) ;
#509 = DIRECTION ( 'NONE',  ( 2.891205793294678326E-16, 0.000000000000000000, 1.000000000000000000 ) ) ;
#510 = AXIS2_PLACEMENT_3D ( 'NONE', #497, #194, #198 ) ;
#511 = ORIENTED_EDGE ( 'NONE', *, *, #156, .T. ) ;
#512 = LINE ( 'NONE', #228, #416 ) ;
#513 = ORIENTED_EDGE ( 'NONE', *, *, #108, .F. ) ;
#514 = CARTESIAN_POINT ( 'NONE',  ( 2.000000000000000000, 2.000000000000000000, -1.500000000000000222 ) ) ;
#515 = AXIS2_PLACEMENT_3D ( 'NONE', #91, #327, #493 ) ;
#516 = DIRECTION ( 'NONE',  ( -0.000000000000000000, 1.000000000000000000, -0.000000000000000000 ) ) ;
#517 = DIRECTION ( 'NONE',  ( -1.000000000000000000, 0.000000000000000000, 0.000000000000000000 ) ) ;
#518 = VECTOR ( 'NONE', #409, 1000.000000000000000 ) ;
#519 = ORIENTED_EDGE ( 'NONE', *, *, #405, .T. ) ;
#520 = ORIENTED_EDGE ( 'NONE', *, *, #241, .F. ) ;
#521 = LINE ( 'NONE', #268, #431 ) ;
#522 = ADVANCED_FACE ( 'NONE', ( #406 ), #164, .T. ) ;
#523 = APPLICATION_CONTEXT ( 'configuration controlled 3d designs of mechanical parts and assemblies' ) ;
#524 =( NAMED_UNIT ( * ) SI_UNIT ( $, .STERADIAN. ) SOLID_ANGLE_UNIT ( ) );
#525 = CARTESIAN_POINT ( 'NONE',  ( -1.800000000000000044, 1.800000000000000044, -1.300000000000000266 ) ) ;
#526 = DIRECTION ( 'NONE',  ( 2.891205793294678326E-16, -0.000000000000000000, 1.000000000000000000 ) ) ;
#527 = EDGE_CURVE ( 'NONE', #494, #433, #312, .T. ) ;
#528 = AXIS2_PLACEMENT_3D ( 'NONE', #19, #334, #415 ) ;
#529 = CARTESIAN_POINT ( 'NONE',  ( 0.000000000000000000, 0.000000000000000000, 0.000000000000000000 ) ) ;
#530 = LINE ( 'NONE', #130, #3 ) ;
#531 = PERSON_AND_ORGANIZATION ( #57, #218 ) ;
#532 = CARTESIAN_POINT ( 'NONE',  ( -1.799999999999999156, 1.800000000000000044, 1.299999999999999822 ) ) ;
#533 = DATE_AND_TIME ( #442, #165 ) ;
#534 = DATE_AND_TIME ( #36, #304 ) ;
#535 = VECTOR ( 'NONE', #171, 1000.000000000000000 ) ;
#536 = CARTESIAN_POINT ( 'NONE',  ( -1.799999999999999156, 2.000000000000000000, 1.299999999999999822 ) ) ;
#537 = EDGE_CURVE ( 'NONE', #305, #328, #492, .T. ) ;
#538 = ORIENTED_EDGE ( 'NONE', *, *, #163, .T. ) ;
#539 = LOCAL_TIME ( 14, 38, 41.00000000000000000, #162 ) ;
#540 = LINE ( 'NONE', #454, #396 ) ;
#541 = DIRECTION ( 'NONE',  ( 0.000000000000000000, 0.000000000000000000, 1.000000000000000000 ) ) ;
ENDSEC;
END-ISO-10303-21;
