ISO-10303-21;
HEADER;
FILE_DESCRIPTION (( 'STEP AP203' ),
    '1' );
FILE_NAME ('BAR3X16T1.step',
    '2026-03-22T05:38:05',
    ( '' ),
    ( '' ),
    'SwSTEP 2.0',
    'SolidWorks 2025',
    '' );
FILE_SCHEMA (( 'CONFIG_CONTROL_DESIGN' ));
ENDSEC;

DATA;
#1 = ORIENTED_EDGE ( 'NONE', *, *, #515, .F. ) ;
#2 = CARTESIAN_POINT ( 'NONE',  ( -7.800000000000000711, 0.000000000000000000, 1.500000000000000000 ) ) ;
#3 = AXIS2_PLACEMENT_3D ( 'NONE', #231, #318, #233 ) ;
#4 = LINE ( 'NONE', #45, #157 ) ;
#5 = FACE_OUTER_BOUND ( 'NONE', #476, .T. ) ;
#6 = AXIS2_PLACEMENT_3D ( 'NONE', #475, #171, #465 ) ;
#7 = ORIENTED_EDGE ( 'NONE', *, *, #112, .T. ) ;
#8 = COORDINATED_UNIVERSAL_TIME_OFFSET ( 8, 0, .AHEAD. ) ;
#9 = AXIS2_PLACEMENT_3D ( 'NONE', #247, #409, #322 ) ;
#10 = CYLINDRICAL_SURFACE ( 'NONE', #6, 0.2000000000000000944 ) ;
#11 = EDGE_LOOP ( 'NONE', ( #142, #53, #227 ) ) ;
#12 = FACE_OUTER_BOUND ( 'NONE', #261, .T. ) ;
#13 = EDGE_LOOP ( 'NONE', ( #336, #345, #270, #507 ) ) ;
#14 = ADVANCED_FACE ( 'NONE', ( #5 ), #293, .F. ) ;
#15 = AXIS2_PLACEMENT_3D ( 'NONE', #55, #52, #430 ) ;
#16 = EDGE_CURVE ( 'NONE', #509, #188, #455, .T. ) ;
#17 = DIRECTION ( 'NONE',  ( 0.000000000000000000, 0.000000000000000000, -1.000000000000000000 ) ) ;
#18 = ADVANCED_FACE ( 'NONE', ( #218 ), #502, .T. ) ;
#19 = ORIENTED_EDGE ( 'NONE', *, *, #286, .T. ) ;
#20 = PERSON_AND_ORGANIZATION_ROLE ( 'creator' ) ;
#21 = AXIS2_PLACEMENT_3D ( 'NONE', #369, #240, #124 ) ;
#22 = CARTESIAN_POINT ( 'NONE',  ( -7.800000000000000711, 0.8000000000000000444, 1.500000000000000000 ) ) ;
#23 = EDGE_LOOP ( 'NONE', ( #508, #368, #297, #339 ) ) ;
#24 = APPROVAL_PERSON_ORGANIZATION ( #459, #136, #54 ) ;
#25 = FACE_OUTER_BOUND ( 'NONE', #23, .T. ) ;
#26 = ORIENTED_EDGE ( 'NONE', *, *, #73, .T. ) ;
#27 = AXIS2_PLACEMENT_3D ( 'NONE', #33, #154, #523 ) ;
#28 = CARTESIAN_POINT ( 'NONE',  ( -7.800000000000000711, 0.000000000000000000, -1.500000000000000000 ) ) ;
#29 = CARTESIAN_POINT ( 'NONE',  ( 8.000000000000000000, 0.8000000000000000444, 1.300000000000000044 ) ) ;
#30 = VECTOR ( 'NONE', #327, 1000.000000000000000 ) ;
#31 = APPROVAL_PERSON_ORGANIZATION ( #417, #72, #257 ) ;
#32 = CARTESIAN_POINT ( 'NONE',  ( -8.000000000000000000, 0.000000000000000000, -1.300000000000000044 ) ) ;
#33 = CARTESIAN_POINT ( 'NONE',  ( 7.800000000000001599, 1.000000000000000000, -1.300000000000000044 ) ) ;
#34 = ADVANCED_FACE ( 'NONE', ( #220 ), #10, .T. ) ;
#35 = CARTESIAN_POINT ( 'NONE',  ( -7.800000000000000711, 0.8000000000000000444, 1.300000000000000044 ) ) ;
#36 = PRODUCT ( 'BAR3X16T1', 'BAR3X16T1', '', ( #510 ) ) ;
#37 = DIRECTION ( 'NONE',  ( 0.000000000000000000, 1.000000000000000000, -0.000000000000000000 ) ) ;
#38 = ORIENTED_EDGE ( 'NONE', *, *, #477, .T. ) ;
#39 = CYLINDRICAL_SURFACE ( 'NONE', #226, 0.1999999999999996503 ) ;
#40 = ADVANCED_FACE ( 'NONE', ( #381 ), #377, .T. ) ;
#41 = CARTESIAN_POINT ( 'NONE',  ( -7.800000000000000711, 0.000000000000000000, -1.300000000000000044 ) ) ;
#42 = MANIFOLD_SOLID_BREP ( '\X2\570689d2\X0\1', #179 ) ;
#43 = DIRECTION ( 'NONE',  ( -1.000000000000000000, 0.000000000000000000, -0.000000000000000000 ) ) ;
#44 = CARTESIAN_POINT ( 'NONE',  ( -8.000000000000000000, 0.000000000000000000, 1.500000000000000000 ) ) ;
#45 = CARTESIAN_POINT ( 'NONE',  ( -8.000000000000000000, 1.000000000000000000, -1.300000000000000044 ) ) ;
#46 = PLANE ( 'NONE',  #482 ) ;
#47 = ORIENTED_EDGE ( 'NONE', *, *, #98, .T. ) ;
#48 = PLANE ( 'NONE',  #235 ) ;
#49 = AXIS2_PLACEMENT_3D ( 'NONE', #480, #271, #438 ) ;
#50 = DIRECTION ( 'NONE',  ( -1.000000000000000000, 0.000000000000000000, 0.000000000000000000 ) ) ;
#51 = PERSON_AND_ORGANIZATION_ROLE ( 'design_supplier' ) ;
#52 = DIRECTION ( 'NONE',  ( -0.000000000000000000, -1.000000000000000000, -0.000000000000000000 ) ) ;
#53 = ORIENTED_EDGE ( 'NONE', *, *, #263, .T. ) ;
#54 = APPROVAL_ROLE ( '' ) ;
#55 = CARTESIAN_POINT ( 'NONE',  ( -7.800000000000000711, 0.000000000000000000, 1.300000000000000044 ) ) ;
#56 = EDGE_LOOP ( 'NONE', ( #213, #513, #166, #149 ) ) ;
#57 = ADVANCED_FACE ( 'NONE', ( #12 ), #48, .T. ) ;
#58 = ORIENTED_EDGE ( 'NONE', *, *, #485, .F. ) ;
#59 = ORIENTED_EDGE ( 'NONE', *, *, #237, .F. ) ;
#60 = CALENDAR_DATE ( 2026, 22, 3 ) ;
#61 = DIRECTION ( 'NONE',  ( 0.000000000000000000, 0.000000000000000000, 1.000000000000000000 ) ) ;
#62 = VERTEX_POINT ( 'NONE', #22 ) ;
#63 = DIRECTION ( 'NONE',  ( 1.000000000000000000, -0.000000000000000000, 0.000000000000000000 ) ) ;
#64 = VERTEX_POINT ( 'NONE', #389 ) ;
#65 = LINE ( 'NONE', #156, #282 ) ;
#66 = DIRECTION ( 'NONE',  ( 0.000000000000000000, 0.000000000000000000, 1.000000000000000000 ) ) ;
#67 = CIRCLE ( 'NONE', #460, 0.2000000000000000944 ) ;
#68 = CARTESIAN_POINT ( 'NONE',  ( 8.000000000000000000, 1.000000000000000000, 1.300000000000000044 ) ) ;
#69 = ADVANCED_BREP_SHAPE_REPRESENTATION ( 'BAR3X16T1', ( #42, #319 ), #205 ) ;
#70 = EDGE_CURVE ( 'NONE', #314, #259, #139, .T. ) ;
#71 = DIRECTION ( 'NONE',  ( 1.000000000000000000, -0.000000000000000000, -0.000000000000000000 ) ) ;
#72 = APPROVAL ( #97, 'UNSPECIFIED' ) ;
#73 = EDGE_CURVE ( 'NONE', #314, #215, #421, .T. ) ;
#74 = AXIS2_PLACEMENT_3D ( 'NONE', #255, #461, #94 ) ;
#75 = CARTESIAN_POINT ( 'NONE',  ( 7.800000000000000711, 0.8000000000000000444, 1.300000000000000044 ) ) ;
#76 = CARTESIAN_POINT ( 'NONE',  ( 0.000000000000000000, 0.8000000000000000444, -1.300000000000000044 ) ) ;
#77 = PRODUCT_DEFINITION_SHAPE ( 'NONE', 'NONE',  #355 ) ;
#78 = VECTOR ( 'NONE', #330, 1000.000000000000000 ) ;
#79 = CYLINDRICAL_SURFACE ( 'NONE', #333, 0.1999999999999996503 ) ;
#80 = EDGE_LOOP ( 'NONE', ( #19, #249, #300, #512 ) ) ;
#81 = DIRECTION ( 'NONE',  ( 0.000000000000000000, 0.000000000000000000, 1.000000000000000000 ) ) ;
#82 = DIRECTION ( 'NONE',  ( 0.000000000000000000, -0.000000000000000000, 1.000000000000000000 ) ) ;
#83 = DIRECTION ( 'NONE',  ( 1.000000000000000000, -0.000000000000000000, -0.000000000000000000 ) ) ;
#84 = LINE ( 'NONE', #403, #78 ) ;
#85 = VECTOR ( 'NONE', #200, 1000.000000000000000 ) ;
#86 = PERSON_AND_ORGANIZATION ( #385, #505 ) ;
#87 = LINE ( 'NONE', #471, #252 ) ;
#88 = ADVANCED_FACE ( 'NONE', ( #131 ), #299, .F. ) ;
#89 = DIRECTION ( 'NONE',  ( 0.000000000000000000, 1.000000000000000000, -0.000000000000000000 ) ) ;
#90 = CARTESIAN_POINT ( 'NONE',  ( 0.000000000000000000, 0.8000000000000000444, 1.300000000000000044 ) ) ;
#91 = VECTOR ( 'NONE', #354, 1000.000000000000000 ) ;
#92 = ORIENTED_EDGE ( 'NONE', *, *, #399, .F. ) ;
#93 = APPLICATION_PROTOCOL_DEFINITION ( 'international standard', 'config_control_design', 1994, #342 ) ;
#94 = DIRECTION ( 'NONE',  ( 0.000000000000000000, 0.000000000000000000, 1.000000000000000000 ) ) ;
#95 = EDGE_CURVE ( 'NONE', #383, #222, #87, .T. ) ;
#96 = ORIENTED_EDGE ( 'NONE', *, *, #437, .T. ) ;
#97 = APPROVAL_STATUS ( 'not_yet_approved' ) ;
#98 = EDGE_CURVE ( 'NONE', #423, #219, #100, .T. ) ;
#99 = AXIS2_PLACEMENT_3D ( 'NONE', #76, #160, #288 ) ;
#100 = LINE ( 'NONE', #428, #169 ) ;
#101 = ORIENTED_EDGE ( 'NONE', *, *, #192, .T. ) ;
#102 = CARTESIAN_POINT ( 'NONE',  ( -7.800000000000000711, 1.000000000000000000, -1.300000000000000044 ) ) ;
#103 = ORIENTED_EDGE ( 'NONE', *, *, #244, .T. ) ;
#104 = CIRCLE ( 'NONE', #49, 0.1999999999999999833 ) ;
#105 = DIRECTION ( 'NONE',  ( 0.000000000000000000, 0.000000000000000000, 1.000000000000000000 ) ) ;
#106 = ORIENTED_EDGE ( 'NONE', *, *, #204, .T. ) ;
#107 = DIRECTION ( 'NONE',  ( -0.000000000000000000, 1.000000000000000000, -0.000000000000000000 ) ) ;
#108 = AXIS2_PLACEMENT_3D ( 'NONE', #41, #245, #201 ) ;
#109 = VERTEX_POINT ( 'NONE', #28 ) ;
#110 = AXIS2_PLACEMENT_3D ( 'NONE', #102, #133, #17 ) ;
#111 = DIRECTION ( 'NONE',  ( 0.000000000000000000, 0.000000000000000000, -1.000000000000000000 ) ) ;
#112 = EDGE_CURVE ( 'NONE', #256, #188, #392, .T. ) ;
#113 = CALENDAR_DATE ( 2026, 22, 3 ) ;
#114 = EDGE_CURVE ( 'NONE', #64, #62, #191, .T. ) ;
#115 = DIRECTION ( 'NONE',  ( 1.000000000000000000, 0.000000000000000000, 0.000000000000000000 ) ) ;
#116 = ADVANCED_FACE ( 'NONE', ( #25 ), #311, .T. ) ;
#117 = CIRCLE ( 'NONE', #412, 0.2000000000000000944 ) ;
#118 = DIRECTION ( 'NONE',  ( -0.000000000000000000, 1.000000000000000000, 0.000000000000000000 ) ) ;
#119 = LOCAL_TIME ( 13, 38, 5.000000000000000000, #394 ) ;
#120 = CARTESIAN_POINT ( 'NONE',  ( 7.800000000000000711, 0.8000000000000000444, -1.300000000000000044 ) ) ;
#121 = VECTOR ( 'NONE', #111, 1000.000000000000000 ) ;
#122 = ORIENTED_EDGE ( 'NONE', *, *, #439, .F. ) ;
#123 = CARTESIAN_POINT ( 'NONE',  ( -7.800000000000000711, 1.000000000000000000, -1.300000000000000044 ) ) ;
#124 = DIRECTION ( 'NONE',  ( -1.000000000000000000, 0.000000000000000000, -4.336808689942024836E-15 ) ) ;
#125 = AXIS2_PLACEMENT_3D ( 'NONE', #75, #495, #236 ) ;
#126 = PLANE ( 'NONE',  #9 ) ;
#127 = CC_DESIGN_APPROVAL ( #72, ( #260 ) ) ;
#128 = SPHERICAL_SURFACE ( 'NONE', #181, 0.2000000000000000111 ) ;
#129 = LINE ( 'NONE', #500, #440 ) ;
#130 = ADVANCED_FACE ( 'NONE', ( #486 ), #269, .T. ) ;
#131 = FACE_OUTER_BOUND ( 'NONE', #434, .T. ) ;
#132 = APPROVAL_DATE_TIME ( #370, #72 ) ;
#133 = DIRECTION ( 'NONE',  ( 0.000000000000000000, -1.000000000000000000, 0.000000000000000000 ) ) ;
#134 = LINE ( 'NONE', #458, #538 ) ;
#135 = DIRECTION ( 'NONE',  ( 0.000000000000000000, 0.000000000000000000, 1.000000000000000000 ) ) ;
#136 = APPROVAL ( #301, 'UNSPECIFIED' ) ;
#137 = DIRECTION ( 'NONE',  ( -1.301042606982604690E-14, 0.000000000000000000, 1.000000000000000000 ) ) ;
#138 = VERTEX_POINT ( 'NONE', #347 ) ;
#139 = LINE ( 'NONE', #506, #147 ) ;
#140 = AXIS2_PLACEMENT_3D ( 'NONE', #350, #522, #463 ) ;
#141 = VERTEX_POINT ( 'NONE', #196 ) ;
#142 = ORIENTED_EDGE ( 'NONE', *, *, #353, .T. ) ;
#143 = ORIENTED_EDGE ( 'NONE', *, *, #16, .T. ) ;
#144 = SHAPE_DEFINITION_REPRESENTATION ( #77, #69 ) ;
#145 = CARTESIAN_POINT ( 'NONE',  ( 7.800000000000000711, 0.8000000000000000444, 1.300000000000000044 ) ) ;
#146 = ORIENTED_EDGE ( 'NONE', *, *, #415, .F. ) ;
#147 = VECTOR ( 'NONE', #304, 1000.000000000000000 ) ;
#148 = CARTESIAN_POINT ( 'NONE',  ( -7.800000000000000711, 0.8000000000000000444, -1.500000000000000000 ) ) ;
#149 = ORIENTED_EDGE ( 'NONE', *, *, #95, .F. ) ;
#150 = PERSON_AND_ORGANIZATION ( #385, #505 ) ;
#151 = DIRECTION ( 'NONE',  ( 0.000000000000000000, 0.000000000000000000, 1.000000000000000000 ) ) ;
#152 = AXIS2_PLACEMENT_3D ( 'NONE', #532, #443, #529 ) ;
#153 = LOCAL_TIME ( 13, 38, 5.000000000000000000, #524 ) ;
#154 = DIRECTION ( 'NONE',  ( 0.000000000000000000, -1.000000000000000000, 0.000000000000000000 ) ) ;
#155 = CC_DESIGN_PERSON_AND_ORGANIZATION_ASSIGNMENT ( #86, #387, ( #355 ) ) ;
#156 = CARTESIAN_POINT ( 'NONE',  ( 8.000000000000000000, 1.000000000000000000, -1.300000000000000044 ) ) ;
#157 = VECTOR ( 'NONE', #366, 1000.000000000000000 ) ;
#158 = LINE ( 'NONE', #206, #494 ) ;
#159 = DIRECTION ( 'NONE',  ( -0.000000000000000000, 1.000000000000000000, -0.000000000000000000 ) ) ;
#160 = DIRECTION ( 'NONE',  ( 1.000000000000000000, 0.000000000000000000, 0.000000000000000000 ) ) ;
#161 = FACE_OUTER_BOUND ( 'NONE', #341, .T. ) ;
#162 = DIRECTION ( 'NONE',  ( -1.000000000000000000, -0.000000000000000000, -0.000000000000000000 ) ) ;
#163 = FACE_OUTER_BOUND ( 'NONE', #360, .T. ) ;
#164 = DIRECTION ( 'NONE',  ( -0.000000000000000000, 1.000000000000000000, -0.000000000000000000 ) ) ;
#165 = CC_DESIGN_PERSON_AND_ORGANIZATION_ASSIGNMENT ( #173, #349, ( #208 ) ) ;
#166 = ORIENTED_EDGE ( 'NONE', *, *, #380, .F. ) ;
#167 = CARTESIAN_POINT ( 'NONE',  ( 7.800000000000000711, 0.8000000000000000444, 1.300000000000000044 ) ) ;
#168 = EDGE_CURVE ( 'NONE', #423, #374, #372, .T. ) ;
#169 = VECTOR ( 'NONE', #187, 1000.000000000000000 ) ;
#170 = PERSON_AND_ORGANIZATION_ROLE ( 'design_owner' ) ;
#171 = DIRECTION ( 'NONE',  ( 0.000000000000000000, -1.000000000000000000, 0.000000000000000000 ) ) ;
#172 =( NAMED_UNIT ( * ) PLANE_ANGLE_UNIT ( ) SI_UNIT ( $, .RADIAN. ) );
#173 = PERSON_AND_ORGANIZATION ( #385, #505 ) ;
#174 = CIRCLE ( 'NONE', #140, 0.2000000000000000944 ) ;
#175 = VERTEX_POINT ( 'NONE', #148 ) ;
#176 = ORIENTED_EDGE ( 'NONE', *, *, #380, .T. ) ;
#177 = CARTESIAN_POINT ( 'NONE',  ( 0.000000000000000000, 1.000000000000000000, 0.000000000000000000 ) ) ;
#178 = ORIENTED_EDGE ( 'NONE', *, *, #73, .F. ) ;
#179 = CLOSED_SHELL ( 'NONE', ( #88, #306, #14, #511, #57, #302, #18, #382, #116, #225, #456, #130, #398, #484, #34, #274, #536, #40 ) ) ;
#180 = ORIENTED_EDGE ( 'NONE', *, *, #477, .F. ) ;
#181 = AXIS2_PLACEMENT_3D ( 'NONE', #167, #289, #287 ) ;
#182 = ORIENTED_EDGE ( 'NONE', *, *, #281, .T. ) ;
#183 = CALENDAR_DATE ( 2026, 22, 3 ) ;
#184 = CARTESIAN_POINT ( 'NONE',  ( 7.800000000000000711, 0.000000000000000000, 1.300000000000000044 ) ) ;
#185 = ORIENTED_EDGE ( 'NONE', *, *, #399, .T. ) ;
#186 = EDGE_CURVE ( 'NONE', #259, #423, #65, .T. ) ;
#187 = DIRECTION ( 'NONE',  ( -0.000000000000000000, -0.000000000000000000, 1.000000000000000000 ) ) ;
#188 = VERTEX_POINT ( 'NONE', #519 ) ;
#189 = DATE_AND_TIME ( #113, #153 ) ;
#190 = VECTOR ( 'NONE', #63, 1000.000000000000000 ) ;
#191 = LINE ( 'NONE', #396, #490 ) ;
#192 = EDGE_CURVE ( 'NONE', #62, #509, #313, .T. ) ;
#193 = CARTESIAN_POINT ( 'NONE',  ( -7.800000000000000711, 1.000000000000000000, 1.300000000000000044 ) ) ;
#194 = VECTOR ( 'NONE', #159, 1000.000000000000000 ) ;
#195 = CALENDAR_DATE ( 2026, 22, 3 ) ;
#196 = CARTESIAN_POINT ( 'NONE',  ( 7.800000000000001599, 0.000000000000000000, -1.500000000000000000 ) ) ;
#197 = CARTESIAN_POINT ( 'NONE',  ( -7.800000000000000711, 0.8000000000000000444, -1.300000000000000044 ) ) ;
#198 = LINE ( 'NONE', #498, #378 ) ;
#199 = CARTESIAN_POINT ( 'NONE',  ( 8.000000000000000000, 0.000000000000000000, 1.300000000000000044 ) ) ;
#200 = DIRECTION ( 'NONE',  ( 0.000000000000000000, -1.000000000000000000, 0.000000000000000000 ) ) ;
#201 = DIRECTION ( 'NONE',  ( 0.000000000000000000, 0.000000000000000000, 1.000000000000000000 ) ) ;
#202 = CARTESIAN_POINT ( 'NONE',  ( 8.000000000000000000, 1.000000000000000000, 1.300000000000000044 ) ) ;
#203 = EDGE_CURVE ( 'NONE', #374, #331, #104, .T. ) ;
#204 = EDGE_CURVE ( 'NONE', #141, #259, #395, .T. ) ;
#205 =( GEOMETRIC_REPRESENTATION_CONTEXT ( 3 ) GLOBAL_UNCERTAINTY_ASSIGNED_CONTEXT ( ( #221 ) ) GLOBAL_UNIT_ASSIGNED_CONTEXT ( ( #411, #172, #441 ) ) REPRESENTATION_CONTEXT ( 'NONE', 'WORKASPACE' ) );
#206 = CARTESIAN_POINT ( 'NONE',  ( -8.000000000000000000, 0.000000000000000000, -1.500000000000000000 ) ) ;
#207 = LINE ( 'NONE', #248, #388 ) ;
#208 = SECURITY_CLASSIFICATION ( '', '', #376 ) ;
#209 = ORIENTED_EDGE ( 'NONE', *, *, #320, .T. ) ;
#210 = PERSON_AND_ORGANIZATION ( #385, #505 ) ;
#211 = AXIS2_PLACEMENT_3D ( 'NONE', #478, #118, #151 ) ;
#212 = DIRECTION ( 'NONE',  ( -0.000000000000000000, 0.000000000000000000, 1.000000000000000000 ) ) ;
#213 = ORIENTED_EDGE ( 'NONE', *, *, #515, .T. ) ;
#214 = DIRECTION ( 'NONE',  ( 1.000000000000000000, 0.000000000000000000, 0.000000000000000000 ) ) ;
#215 = VERTEX_POINT ( 'NONE', #230 ) ;
#216 = DATE_TIME_ROLE ( 'creation_date' ) ;
#217 = AXIS2_PLACEMENT_3D ( 'NONE', #145, #105, #228 ) ;
#218 = FACE_OUTER_BOUND ( 'NONE', #332, .T. ) ;
#219 = VERTEX_POINT ( 'NONE', #29 ) ;
#220 = FACE_OUTER_BOUND ( 'NONE', #290, .T. ) ;
#221 = UNCERTAINTY_MEASURE_WITH_UNIT (LENGTH_MEASURE( 1.000000000000000082E-05 ), #411, 'distance_accuracy_value', 'NONE');
#222 = VERTEX_POINT ( 'NONE', #193 ) ;
#223 = PERSON_AND_ORGANIZATION ( #385, #505 ) ;
#224 = DIRECTION ( 'NONE',  ( 0.000000000000000000, -0.000000000000000000, 1.000000000000000000 ) ) ;
#225 = ADVANCED_FACE ( 'NONE', ( #442 ), #432, .T. ) ;
#226 = AXIS2_PLACEMENT_3D ( 'NONE', #250, #375, #408 ) ;
#227 = ORIENTED_EDGE ( 'NONE', *, *, #371, .F. ) ;
#228 = DIRECTION ( 'NONE',  ( 1.000000000000000000, 0.000000000000000000, 0.000000000000000000 ) ) ;
#229 = ORIENTED_EDGE ( 'NONE', *, *, #286, .F. ) ;
#230 = CARTESIAN_POINT ( 'NONE',  ( 7.800000000000001599, 0.000000000000000000, 1.500000000000000000 ) ) ;
#231 = CARTESIAN_POINT ( 'NONE',  ( -7.800000000000000711, 1.000000000000000000, 1.300000000000000044 ) ) ;
#232 = CIRCLE ( 'NONE', #276, 0.1999999999999996503 ) ;
#233 = DIRECTION ( 'NONE',  ( 0.000000000000000000, 0.000000000000000000, -1.000000000000000000 ) ) ;
#234 = APPROVAL_DATE_TIME ( #315, #530 ) ;
#235 = AXIS2_PLACEMENT_3D ( 'NONE', #177, #266, #224 ) ;
#236 = DIRECTION ( 'NONE',  ( 0.000000000000000000, 0.000000000000000000, -1.000000000000000000 ) ) ;
#237 = EDGE_CURVE ( 'NONE', #431, #331, #352, .T. ) ;
#238 = DIRECTION ( 'NONE',  ( 0.000000000000000000, 0.000000000000000000, 1.000000000000000000 ) ) ;
#239 = CIRCLE ( 'NONE', #258, 0.1999999999999996503 ) ;
#240 = DIRECTION ( 'NONE',  ( 0.000000000000000000, 1.000000000000000000, 0.000000000000000000 ) ) ;
#241 = CARTESIAN_POINT ( 'NONE',  ( -7.800000000000000711, 0.8000000000000000444, 0.000000000000000000 ) ) ;
#242 = ORIENTED_EDGE ( 'NONE', *, *, #337, .T. ) ;
#243 = FACE_OUTER_BOUND ( 'NONE', #268, .T. ) ;
#244 = EDGE_CURVE ( 'NONE', #222, #431, #275, .T. ) ;
#245 = DIRECTION ( 'NONE',  ( -0.000000000000000000, -1.000000000000000000, -0.000000000000000000 ) ) ;
#246 = AXIS2_PLACEMENT_3D ( 'NONE', #467, #214, #419 ) ;
#247 = CARTESIAN_POINT ( 'NONE',  ( 0.000000000000000000, 0.000000000000000000, 0.000000000000000000 ) ) ;
#248 = CARTESIAN_POINT ( 'NONE',  ( 7.800000000000001599, 1.000000000000000000, 1.500000000000000000 ) ) ;
#249 = ORIENTED_EDGE ( 'NONE', *, *, #356, .T. ) ;
#250 = CARTESIAN_POINT ( 'NONE',  ( 7.800000000000000711, 0.8000000000000000444, 0.000000000000000000 ) ) ;
#251 = CALENDAR_DATE ( 2026, 22, 3 ) ;
#252 = VECTOR ( 'NONE', #212, 1000.000000000000000 ) ;
#253 = ORIENTED_EDGE ( 'NONE', *, *, #98, .F. ) ;
#254 = ORIENTED_EDGE ( 'NONE', *, *, #203, .T. ) ;
#255 = CARTESIAN_POINT ( 'NONE',  ( 8.000000000000000000, 1.000000000000000000, -1.500000000000000000 ) ) ;
#256 = VERTEX_POINT ( 'NONE', #32 ) ;
#257 = APPROVAL_ROLE ( '' ) ;
#258 = AXIS2_PLACEMENT_3D ( 'NONE', #120, #413, #357 ) ;
#259 = VERTEX_POINT ( 'NONE', #528 ) ;
#260 = PRODUCT_DEFINITION_FORMATION_WITH_SPECIFIED_SOURCE ( 'ANY', '', #36, .NOT_KNOWN. ) ;
#261 = EDGE_LOOP ( 'NONE', ( #373, #103, #393, #242 ) ) ;
#262 = COORDINATED_UNIVERSAL_TIME_OFFSET ( 8, 0, .AHEAD. ) ;
#263 = EDGE_CURVE ( 'NONE', #219, #431, #535, .T. ) ;
#264 = CC_DESIGN_PERSON_AND_ORGANIZATION_ASSIGNMENT ( #223, #20, ( #260 ) ) ;
#265 = EDGE_CURVE ( 'NONE', #188, #138, #537, .T. ) ;
#266 = DIRECTION ( 'NONE',  ( 0.000000000000000000, 1.000000000000000000, 0.000000000000000000 ) ) ;
#267 = APPLICATION_CONTEXT ( 'configuration controlled 3d designs of mechanical parts and assemblies' ) ;
#268 = EDGE_LOOP ( 'NONE', ( #517, #101, #499, #96 ) ) ;
#269 = CYLINDRICAL_SURFACE ( 'NONE', #3, 0.2000000000000000944 ) ;
#270 = ORIENTED_EDGE ( 'NONE', *, *, #371, .T. ) ;
#271 = DIRECTION ( 'NONE',  ( 1.000000000000000000, 4.336808689942018525E-15, 0.000000000000000000 ) ) ;
#272 = CC_DESIGN_SECURITY_CLASSIFICATION ( #208, ( #260 ) ) ;
#273 = ORIENTED_EDGE ( 'NONE', *, *, #112, .F. ) ;
#274 = ADVANCED_FACE ( 'NONE', ( #321 ), #488, .T. ) ;
#275 = LINE ( 'NONE', #68, #190 ) ;
#276 = AXIS2_PLACEMENT_3D ( 'NONE', #420, #452, #291 ) ;
#277 = CARTESIAN_POINT ( 'NONE',  ( 8.000000000000000000, 0.8000000000000000444, -1.300000000000000044 ) ) ;
#278 = DIRECTION ( 'NONE',  ( -1.000000000000000000, -0.000000000000000000, -0.000000000000000000 ) ) ;
#279 = LOCAL_TIME ( 13, 38, 5.000000000000000000, #262 ) ;
#280 = CARTESIAN_POINT ( 'NONE',  ( -8.000000000000000000, 1.000000000000000000, -1.300000000000000044 ) ) ;
#281 = EDGE_CURVE ( 'NONE', #138, #520, #84, .T. ) ;
#282 = VECTOR ( 'NONE', #107, 1000.000000000000000 ) ;
#283 = FACE_OUTER_BOUND ( 'NONE', #410, .T. ) ;
#284 = CARTESIAN_POINT ( 'NONE',  ( -8.000000000000000000, 1.000000000000000000, 1.300000000000000044 ) ) ;
#285 = AXIS2_PLACEMENT_3D ( 'NONE', #489, #82, #533 ) ;
#286 = EDGE_CURVE ( 'NONE', #141, #109, #158, .T. ) ;
#287 = DIRECTION ( 'NONE',  ( 0.000000000000000000, 0.000000000000000000, -1.000000000000000000 ) ) ;
#288 = DIRECTION ( 'NONE',  ( 0.000000000000000000, 0.000000000000000000, -1.000000000000000000 ) ) ;
#289 = DIRECTION ( 'NONE',  ( -0.000000000000000000, 1.000000000000000000, 0.000000000000000000 ) ) ;
#290 = EDGE_LOOP ( 'NONE', ( #178, #58, #294, #436 ) ) ;
#291 = DIRECTION ( 'NONE',  ( -1.000000000000000000, 0.000000000000000000, 0.000000000000000000 ) ) ;
#292 = APPROVAL_DATE_TIME ( #469, #136 ) ;
#293 = PLANE ( 'NONE',  #246 ) ;
#294 = ORIENTED_EDGE ( 'NONE', *, *, #353, .F. ) ;
#295 = CARTESIAN_POINT ( 'NONE',  ( -8.000000000000000000, 0.8000000000000000444, -1.300000000000000044 ) ) ;
#296 = ORIENTED_EDGE ( 'NONE', *, *, #263, .F. ) ;
#297 = ORIENTED_EDGE ( 'NONE', *, *, #168, .F. ) ;
#298 = DIRECTION ( 'NONE',  ( 1.000000000000000000, 0.000000000000000000, 0.000000000000000000 ) ) ;
#299 = PLANE ( 'NONE',  #74 ) ;
#300 = ORIENTED_EDGE ( 'NONE', *, *, #451, .T. ) ;
#301 = APPROVAL_STATUS ( 'not_yet_approved' ) ;
#302 = ADVANCED_FACE ( 'NONE', ( #359 ), #126, .F. ) ;
#303 = CIRCLE ( 'NONE', #364, 0.2000000000000000944 ) ;
#304 = DIRECTION ( 'NONE',  ( -0.000000000000000000, -0.000000000000000000, -1.000000000000000000 ) ) ;
#305 = DESIGN_CONTEXT ( 'detailed design', #342, 'design' ) ;
#306 = ADVANCED_FACE ( 'NONE', ( #365 ), #46, .F. ) ;
#307 = ORIENTED_EDGE ( 'NONE', *, *, #168, .T. ) ;
#308 = ORIENTED_EDGE ( 'NONE', *, *, #485, .T. ) ;
#309 = EDGE_LOOP ( 'NONE', ( #146, #143, #273, #185, #229, #106, #348, #26 ) ) ;
#310 = AXIS2_PLACEMENT_3D ( 'NONE', #184, #344, #137 ) ;
#311 = CYLINDRICAL_SURFACE ( 'NONE', #27, 0.2000000000000000944 ) ;
#312 = EDGE_LOOP ( 'NONE', ( #481, #384, #1 ) ) ;
#313 = LINE ( 'NONE', #487, #91 ) ;
#314 = VERTEX_POINT ( 'NONE', #199 ) ;
#315 = DATE_AND_TIME ( #195, #119 ) ;
#316 = CIRCLE ( 'NONE', #152, 0.2000000000000000944 ) ;
#317 = DIRECTION ( 'NONE',  ( -1.000000000000000000, 0.000000000000000000, 0.000000000000000000 ) ) ;
#318 = DIRECTION ( 'NONE',  ( 0.000000000000000000, -1.000000000000000000, 0.000000000000000000 ) ) ;
#319 = AXIS2_PLACEMENT_3D ( 'NONE', #464, #135, #298 ) ;
#320 = EDGE_CURVE ( 'NONE', #423, #331, #239, .T. ) ;
#321 = FACE_OUTER_BOUND ( 'NONE', #323, .T. ) ;
#322 = DIRECTION ( 'NONE',  ( 0.000000000000000000, -0.000000000000000000, 1.000000000000000000 ) ) ;
#323 = EDGE_LOOP ( 'NONE', ( #176, #38, #429 ) ) ;
#324 = AXIS2_PLACEMENT_3D ( 'NONE', #90, #340, #61 ) ;
#325 = FACE_OUTER_BOUND ( 'NONE', #56, .T. ) ;
#326 = CARTESIAN_POINT ( 'NONE',  ( -7.800000000000000711, 0.8000000000000000444, -1.300000000000000044 ) ) ;
#327 = DIRECTION ( 'NONE',  ( -1.000000000000000000, 0.000000000000000000, 0.000000000000000000 ) ) ;
#328 = CIRCLE ( 'NONE', #285, 0.1999999999999996503 ) ;
#329 = FACE_OUTER_BOUND ( 'NONE', #11, .T. ) ;
#330 = DIRECTION ( 'NONE',  ( 0.000000000000000000, -0.000000000000000000, -1.000000000000000000 ) ) ;
#331 = VERTEX_POINT ( 'NONE', #447 ) ;
#332 = EDGE_LOOP ( 'NONE', ( #92, #122, #335, #445 ) ) ;
#333 = AXIS2_PLACEMENT_3D ( 'NONE', #241, #450, #407 ) ;
#334 = DIRECTION ( 'NONE',  ( 0.000000000000000000, 0.000000000000000000, 1.000000000000000000 ) ) ;
#335 = ORIENTED_EDGE ( 'NONE', *, *, #433, .F. ) ;
#336 = ORIENTED_EDGE ( 'NONE', *, *, #540, .T. ) ;
#337 = EDGE_CURVE ( 'NONE', #331, #383, #541, .T. ) ;
#338 = ORIENTED_EDGE ( 'NONE', *, *, #203, .F. ) ;
#339 = ORIENTED_EDGE ( 'NONE', *, *, #186, .F. ) ;
#340 = DIRECTION ( 'NONE',  ( -1.000000000000000000, 0.000000000000000000, 0.000000000000000000 ) ) ;
#341 = EDGE_LOOP ( 'NONE', ( #209, #59, #296, #253 ) ) ;
#342 = APPLICATION_CONTEXT ( 'configuration controlled 3d designs of mechanical parts and assemblies' ) ;
#343 = CARTESIAN_POINT ( 'NONE',  ( 7.800000000000000711, 1.000000000000000000, 1.300000000000000044 ) ) ;
#344 = DIRECTION ( 'NONE',  ( -0.000000000000000000, -1.000000000000000000, -0.000000000000000000 ) ) ;
#345 = ORIENTED_EDGE ( 'NONE', *, *, #114, .F. ) ;
#346 = AXIS2_PLACEMENT_3D ( 'NONE', #435, #400, #483 ) ;
#347 = CARTESIAN_POINT ( 'NONE',  ( -8.000000000000000000, 0.8000000000000000444, 1.300000000000000044 ) ) ;
#348 = ORIENTED_EDGE ( 'NONE', *, *, #70, .F. ) ;
#349 = PERSON_AND_ORGANIZATION_ROLE ( 'classification_officer' ) ;
#350 = CARTESIAN_POINT ( 'NONE',  ( -7.800000000000000711, 0.8000000000000000444, -1.300000000000000044 ) ) ;
#351 = CARTESIAN_POINT ( 'NONE',  ( -8.000000000000000000, 0.000000000000000000, -1.500000000000000000 ) ) ;
#352 = LINE ( 'NONE', #401, #121 ) ;
#353 = EDGE_CURVE ( 'NONE', #64, #219, #316, .T. ) ;
#354 = DIRECTION ( 'NONE',  ( 0.000000000000000000, -1.000000000000000000, 0.000000000000000000 ) ) ;
#355 = PRODUCT_DEFINITION ( 'UNKNOWN', '', #260, #305 ) ;
#356 = EDGE_CURVE ( 'NONE', #109, #175, #198, .T. ) ;
#357 = DIRECTION ( 'NONE',  ( -1.000000000000000000, 0.000000000000000000, 0.000000000000000000 ) ) ;
#358 = CARTESIAN_POINT ( 'NONE',  ( 7.800000000000001599, 0.8000000000000000444, -1.500000000000000000 ) ) ;
#359 = FACE_OUTER_BOUND ( 'NONE', #309, .T. ) ;
#360 = EDGE_LOOP ( 'NONE', ( #307, #254, #462 ) ) ;
#361 = DIRECTION ( 'NONE',  ( -0.000000000000000000, 1.000000000000000000, -0.000000000000000000 ) ) ;
#362 = LINE ( 'NONE', #44, #404 ) ;
#363 = DIRECTION ( 'NONE',  ( 0.000000000000000000, -1.000000000000000000, 0.000000000000000000 ) ) ;
#364 = AXIS2_PLACEMENT_3D ( 'NONE', #449, #83, #81 ) ;
#365 = FACE_OUTER_BOUND ( 'NONE', #80, .T. ) ;
#366 = DIRECTION ( 'NONE',  ( 0.000000000000000000, -1.000000000000000000, 0.000000000000000000 ) ) ;
#367 = CC_DESIGN_APPROVAL ( #136, ( #355 ) ) ;
#368 = ORIENTED_EDGE ( 'NONE', *, *, #531, .F. ) ;
#369 = CARTESIAN_POINT ( 'NONE',  ( 7.800000000000000711, 0.8000000000000000444, -1.300000000000000044 ) ) ;
#370 = DATE_AND_TIME ( #60, #279 ) ;
#371 = EDGE_CURVE ( 'NONE', #64, #431, #446, .T. ) ;
#372 = CIRCLE ( 'NONE', #211, 0.2000000000000000944 ) ;
#373 = ORIENTED_EDGE ( 'NONE', *, *, #95, .T. ) ;
#374 = VERTEX_POINT ( 'NONE', #358 ) ;
#375 = DIRECTION ( 'NONE',  ( 0.000000000000000000, -0.000000000000000000, 1.000000000000000000 ) ) ;
#376 = SECURITY_CLASSIFICATION_LEVEL ( 'unclassified' ) ;
#377 = CYLINDRICAL_SURFACE ( 'NONE', #324, 0.2000000000000000944 ) ;
#378 = VECTOR ( 'NONE', #164, 1000.000000000000000 ) ;
#379 = ORIENTED_EDGE ( 'NONE', *, *, #439, .T. ) ;
#380 = EDGE_CURVE ( 'NONE', #222, #138, #328, .T. ) ;
#381 = FACE_OUTER_BOUND ( 'NONE', #13, .T. ) ;
#382 = ADVANCED_FACE ( 'NONE', ( #283 ), #444, .T. ) ;
#383 = VERTEX_POINT ( 'NONE', #123 ) ;
#384 = ORIENTED_EDGE ( 'NONE', *, *, #433, .T. ) ;
#385 = PERSON ( 'UNSPECIFIED', 'UNSPECIFIED', 'UNSPECIFIED', ('UNSPECIFIED'), ('UNSPECIFIED'), ('UNSPECIFIED') ) ;
#386 = ORIENTED_EDGE ( 'NONE', *, *, #265, .T. ) ;
#387 = PERSON_AND_ORGANIZATION_ROLE ( 'creator' ) ;
#388 = VECTOR ( 'NONE', #361, 1000.000000000000000 ) ;
#389 = CARTESIAN_POINT ( 'NONE',  ( 7.800000000000000711, 0.8000000000000000444, 1.500000000000000000 ) ) ;
#390 = ORIENTED_EDGE ( 'NONE', *, *, #337, .F. ) ;
#391 = APPROVAL_ROLE ( '' ) ;
#392 = LINE ( 'NONE', #351, #518 ) ;
#393 = ORIENTED_EDGE ( 'NONE', *, *, #237, .T. ) ;
#394 = COORDINATED_UNIVERSAL_TIME_OFFSET ( 8, 0, .AHEAD. ) ;
#395 = CIRCLE ( 'NONE', #346, 0.2000000000000000944 ) ;
#396 = CARTESIAN_POINT ( 'NONE',  ( -8.000000000000000000, 0.8000000000000000444, 1.500000000000000000 ) ) ;
#397 = DATE_TIME_ROLE ( 'classification_date' ) ;
#398 = ADVANCED_FACE ( 'NONE', ( #325 ), #79, .T. ) ;
#399 = EDGE_CURVE ( 'NONE', #256, #109, #425, .T. ) ;
#400 = DIRECTION ( 'NONE',  ( -0.000000000000000000, -1.000000000000000000, -0.000000000000000000 ) ) ;
#401 = CARTESIAN_POINT ( 'NONE',  ( 7.800000000000000711, 1.000000000000000000, -1.500000000000000000 ) ) ;
#402 = AXIS2_PLACEMENT_3D ( 'NONE', #197, #527, #317 ) ;
#403 = CARTESIAN_POINT ( 'NONE',  ( -8.000000000000000000, 0.8000000000000000444, -1.500000000000000000 ) ) ;
#404 = VECTOR ( 'NONE', #115, 1000.000000000000000 ) ;
#405 = CARTESIAN_POINT ( 'NONE',  ( -8.000000000000000000, 1.000000000000000000, -1.500000000000000000 ) ) ;
#406 = SPHERICAL_SURFACE ( 'NONE', #21, 0.2000000000000000111 ) ;
#407 = DIRECTION ( 'NONE',  ( -1.000000000000000000, 0.000000000000000000, 0.000000000000000000 ) ) ;
#408 = DIRECTION ( 'NONE',  ( 1.000000000000000000, 0.000000000000000000, 0.000000000000000000 ) ) ;
#409 = DIRECTION ( 'NONE',  ( 0.000000000000000000, 1.000000000000000000, 0.000000000000000000 ) ) ;
#410 = EDGE_LOOP ( 'NONE', ( #338, #422, #468, #390 ) ) ;
#411 =( LENGTH_UNIT ( ) NAMED_UNIT ( * ) SI_UNIT ( .MILLI., .METRE. ) );
#412 = AXIS2_PLACEMENT_3D ( 'NONE', #326, #50, #493 ) ;
#413 = DIRECTION ( 'NONE',  ( -0.000000000000000000, -0.000000000000000000, 1.000000000000000000 ) ) ;
#414 = PRODUCT_RELATED_PRODUCT_CATEGORY ( 'detail', '', ( #36 ) ) ;
#415 = EDGE_CURVE ( 'NONE', #509, #215, #362, .T. ) ;
#416 = LINE ( 'NONE', #202, #85 ) ;
#417 = PERSON_AND_ORGANIZATION ( #385, #505 ) ;
#418 = APPROVAL_PERSON_ORGANIZATION ( #150, #530, #391 ) ;
#419 = DIRECTION ( 'NONE',  ( 0.000000000000000000, 0.000000000000000000, -1.000000000000000000 ) ) ;
#420 = CARTESIAN_POINT ( 'NONE',  ( -7.800000000000000711, 0.8000000000000000444, -1.300000000000000044 ) ) ;
#421 = CIRCLE ( 'NONE', #310, 0.2000000000000000944 ) ;
#422 = ORIENTED_EDGE ( 'NONE', *, *, #451, .F. ) ;
#423 = VERTEX_POINT ( 'NONE', #277 ) ;
#424 = ORIENTED_EDGE ( 'NONE', *, *, #70, .T. ) ;
#425 = CIRCLE ( 'NONE', #108, 0.2000000000000000944 ) ;
#426 = ORIENTED_EDGE ( 'NONE', *, *, #192, .F. ) ;
#427 = PERSON_AND_ORGANIZATION ( #385, #505 ) ;
#428 = CARTESIAN_POINT ( 'NONE',  ( 8.000000000000000000, 0.8000000000000000444, 1.500000000000000000 ) ) ;
#429 = ORIENTED_EDGE ( 'NONE', *, *, #540, .F. ) ;
#430 = DIRECTION ( 'NONE',  ( 0.000000000000000000, 0.000000000000000000, 1.000000000000000000 ) ) ;
#431 = VERTEX_POINT ( 'NONE', #343 ) ;
#432 = SPHERICAL_SURFACE ( 'NONE', #402, 0.2000000000000000111 ) ;
#433 = EDGE_CURVE ( 'NONE', #175, #520, #174, .T. ) ;
#434 = EDGE_LOOP ( 'NONE', ( #424, #491, #47, #308 ) ) ;
#435 = CARTESIAN_POINT ( 'NONE',  ( 7.800000000000001599, 0.000000000000000000, -1.300000000000000044 ) ) ;
#436 = ORIENTED_EDGE ( 'NONE', *, *, #437, .F. ) ;
#437 = EDGE_CURVE ( 'NONE', #215, #64, #207, .T. ) ;
#438 = DIRECTION ( 'NONE',  ( -4.336808689942017736E-15, 1.000000000000000000, 0.000000000000000000 ) ) ;
#439 = EDGE_CURVE ( 'NONE', #520, #256, #4, .T. ) ;
#440 = VECTOR ( 'NONE', #71, 1000.000000000000000 ) ;
#441 =( NAMED_UNIT ( * ) SI_UNIT ( $, .STERADIAN. ) SOLID_ANGLE_UNIT ( ) );
#442 = FACE_OUTER_BOUND ( 'NONE', #312, .T. ) ;
#443 = DIRECTION ( 'NONE',  ( 0.000000000000000000, 1.000000000000000000, 0.000000000000000000 ) ) ;
#444 = CYLINDRICAL_SURFACE ( 'NONE', #99, 0.2000000000000000944 ) ;
#445 = ORIENTED_EDGE ( 'NONE', *, *, #356, .F. ) ;
#446 = CIRCLE ( 'NONE', #125, 0.2000000000000000944 ) ;
#447 = CARTESIAN_POINT ( 'NONE',  ( 7.800000000000000711, 1.000000000000000000, -1.300000000000000044 ) ) ;
#448 = LOCAL_TIME ( 13, 38, 5.000000000000000000, #8 ) ;
#449 = CARTESIAN_POINT ( 'NONE',  ( -7.800000000000000711, 0.8000000000000000444, 1.300000000000000044 ) ) ;
#450 = DIRECTION ( 'NONE',  ( 0.000000000000000000, 0.000000000000000000, -1.000000000000000000 ) ) ;
#451 = EDGE_CURVE ( 'NONE', #175, #374, #129, .T. ) ;
#452 = DIRECTION ( 'NONE',  ( -0.000000000000000000, -0.000000000000000000, 1.000000000000000000 ) ) ;
#453 = CC_DESIGN_PERSON_AND_ORGANIZATION_ASSIGNMENT ( #427, #170, ( #36 ) ) ;
#454 = CC_DESIGN_PERSON_AND_ORGANIZATION_ASSIGNMENT ( #210, #51, ( #260 ) ) ;
#455 = CIRCLE ( 'NONE', #15, 0.2000000000000000944 ) ;
#456 = ADVANCED_FACE ( 'NONE', ( #163 ), #406, .T. ) ;
#457 = DIRECTION ( 'NONE',  ( 0.000000000000000000, 0.000000000000000000, 1.000000000000000000 ) ) ;
#458 = CARTESIAN_POINT ( 'NONE',  ( 7.800000000000001599, 1.000000000000000000, -1.500000000000000000 ) ) ;
#459 = PERSON_AND_ORGANIZATION ( #385, #505 ) ;
#460 = AXIS2_PLACEMENT_3D ( 'NONE', #497, #89, #334 ) ;
#461 = DIRECTION ( 'NONE',  ( -1.000000000000000000, 0.000000000000000000, 0.000000000000000000 ) ) ;
#462 = ORIENTED_EDGE ( 'NONE', *, *, #320, .F. ) ;
#463 = DIRECTION ( 'NONE',  ( 0.000000000000000000, 0.000000000000000000, 1.000000000000000000 ) ) ;
#464 = CARTESIAN_POINT ( 'NONE',  ( 0.000000000000000000, 0.000000000000000000, 0.000000000000000000 ) ) ;
#465 = DIRECTION ( 'NONE',  ( 0.000000000000000000, 0.000000000000000000, -1.000000000000000000 ) ) ;
#466 = ORIENTED_EDGE ( 'NONE', *, *, #265, .F. ) ;
#467 = CARTESIAN_POINT ( 'NONE',  ( -8.000000000000000000, 1.000000000000000000, -1.500000000000000000 ) ) ;
#468 = ORIENTED_EDGE ( 'NONE', *, *, #525, .F. ) ;
#469 = DATE_AND_TIME ( #183, #516 ) ;
#470 = AXIS2_PLACEMENT_3D ( 'NONE', #539, #534, #43 ) ;
#471 = CARTESIAN_POINT ( 'NONE',  ( -7.800000000000000711, 1.000000000000000000, 1.500000000000000000 ) ) ;
#472 = EDGE_LOOP ( 'NONE', ( #479, #426, #180, #466 ) ) ;
#473 = DATE_AND_TIME ( #251, #448 ) ;
#474 = CC_DESIGN_APPROVAL ( #530, ( #208 ) ) ;
#475 = CARTESIAN_POINT ( 'NONE',  ( 7.800000000000000711, 1.000000000000000000, 1.300000000000000044 ) ) ;
#476 = EDGE_LOOP ( 'NONE', ( #7, #386, #182, #379 ) ) ;
#477 = EDGE_CURVE ( 'NONE', #138, #62, #67, .T. ) ;
#478 = CARTESIAN_POINT ( 'NONE',  ( 7.800000000000000711, 0.8000000000000000444, -1.300000000000000044 ) ) ;
#479 = ORIENTED_EDGE ( 'NONE', *, *, #16, .F. ) ;
#480 = CARTESIAN_POINT ( 'NONE',  ( 7.800000000000001599, 0.8000000000000000444, -1.300000000000000044 ) ) ;
#481 = ORIENTED_EDGE ( 'NONE', *, *, #525, .T. ) ;
#482 = AXIS2_PLACEMENT_3D ( 'NONE', #405, #238, #492 ) ;
#483 = DIRECTION ( 'NONE',  ( 0.000000000000000000, 0.000000000000000000, 1.000000000000000000 ) ) ;
#484 = ADVANCED_FACE ( 'NONE', ( #161 ), #39, .T. ) ;
#485 = EDGE_CURVE ( 'NONE', #219, #314, #416, .T. ) ;
#486 = FACE_OUTER_BOUND ( 'NONE', #472, .T. ) ;
#487 = CARTESIAN_POINT ( 'NONE',  ( -7.800000000000000711, 1.000000000000000000, 1.500000000000000000 ) ) ;
#488 = SPHERICAL_SURFACE ( 'NONE', #526, 0.2000000000000000111 ) ;
#489 = CARTESIAN_POINT ( 'NONE',  ( -7.800000000000000711, 0.8000000000000000444, 1.300000000000000044 ) ) ;
#490 = VECTOR ( 'NONE', #278, 1000.000000000000000 ) ;
#491 = ORIENTED_EDGE ( 'NONE', *, *, #186, .T. ) ;
#492 = DIRECTION ( 'NONE',  ( 1.000000000000000000, 0.000000000000000000, -0.000000000000000000 ) ) ;
#493 = DIRECTION ( 'NONE',  ( 0.000000000000000000, 0.000000000000000000, 1.000000000000000000 ) ) ;
#494 = VECTOR ( 'NONE', #162, 1000.000000000000000 ) ;
#495 = DIRECTION ( 'NONE',  ( -1.000000000000000000, -0.000000000000000000, -0.000000000000000000 ) ) ;
#496 = CC_DESIGN_DATE_AND_TIME_ASSIGNMENT ( #473, #216, ( #355 ) ) ;
#497 = CARTESIAN_POINT ( 'NONE',  ( -7.800000000000000711, 0.8000000000000000444, 1.300000000000000044 ) ) ;
#498 = CARTESIAN_POINT ( 'NONE',  ( -7.800000000000000711, 1.000000000000000000, -1.500000000000000000 ) ) ;
#499 = ORIENTED_EDGE ( 'NONE', *, *, #415, .T. ) ;
#500 = CARTESIAN_POINT ( 'NONE',  ( 8.000000000000000000, 0.8000000000000000444, -1.500000000000000000 ) ) ;
#501 = COORDINATED_UNIVERSAL_TIME_OFFSET ( 8, 0, .AHEAD. ) ;
#502 = CYLINDRICAL_SURFACE ( 'NONE', #110, 0.2000000000000000944 ) ;
#503 = PLANE ( 'NONE',  #470 ) ;
#504 = APPLICATION_PROTOCOL_DEFINITION ( 'international standard', 'config_control_design', 1994, #267 ) ;
#505 = ORGANIZATION ( 'UNSPECIFIED', 'UNSPECIFIED', '' ) ;
#506 = CARTESIAN_POINT ( 'NONE',  ( 8.000000000000000000, 0.000000000000000000, -1.500000000000000000 ) ) ;
#507 = ORIENTED_EDGE ( 'NONE', *, *, #244, .F. ) ;
#508 = ORIENTED_EDGE ( 'NONE', *, *, #204, .F. ) ;
#509 = VERTEX_POINT ( 'NONE', #2 ) ;
#510 = MECHANICAL_CONTEXT ( 'NONE', #267, 'mechanical' ) ;
#511 = ADVANCED_FACE ( 'NONE', ( #243 ), #503, .F. ) ;
#512 = ORIENTED_EDGE ( 'NONE', *, *, #531, .T. ) ;
#513 = ORIENTED_EDGE ( 'NONE', *, *, #281, .F. ) ;
#514 = CC_DESIGN_DATE_AND_TIME_ASSIGNMENT ( #189, #397, ( #208 ) ) ;
#515 = EDGE_CURVE ( 'NONE', #383, #520, #232, .T. ) ;
#516 = LOCAL_TIME ( 13, 38, 5.000000000000000000, #501 ) ;
#517 = ORIENTED_EDGE ( 'NONE', *, *, #114, .T. ) ;
#518 = VECTOR ( 'NONE', #66, 1000.000000000000000 ) ;
#519 = CARTESIAN_POINT ( 'NONE',  ( -8.000000000000000000, 0.000000000000000000, 1.300000000000000044 ) ) ;
#520 = VERTEX_POINT ( 'NONE', #295 ) ;
#521 = APPROVAL_STATUS ( 'not_yet_approved' ) ;
#522 = DIRECTION ( 'NONE',  ( 0.000000000000000000, 1.000000000000000000, 0.000000000000000000 ) ) ;
#523 = DIRECTION ( 'NONE',  ( 0.000000000000000000, 0.000000000000000000, -1.000000000000000000 ) ) ;
#524 = COORDINATED_UNIVERSAL_TIME_OFFSET ( 8, 0, .AHEAD. ) ;
#525 = EDGE_CURVE ( 'NONE', #383, #175, #117, .T. ) ;
#526 = AXIS2_PLACEMENT_3D ( 'NONE', #35, #37, #457 ) ;
#527 = DIRECTION ( 'NONE',  ( 0.000000000000000000, 1.000000000000000000, 0.000000000000000000 ) ) ;
#528 = CARTESIAN_POINT ( 'NONE',  ( 8.000000000000000000, 0.000000000000000000, -1.300000000000000044 ) ) ;
#529 = DIRECTION ( 'NONE',  ( 0.000000000000000000, 0.000000000000000000, 1.000000000000000000 ) ) ;
#530 = APPROVAL ( #521, 'UNSPECIFIED' ) ;
#531 = EDGE_CURVE ( 'NONE', #374, #141, #134, .T. ) ;
#532 = CARTESIAN_POINT ( 'NONE',  ( 7.800000000000000711, 0.8000000000000000444, 1.300000000000000044 ) ) ;
#533 = DIRECTION ( 'NONE',  ( 1.000000000000000000, 0.000000000000000000, 0.000000000000000000 ) ) ;
#534 = DIRECTION ( 'NONE',  ( 0.000000000000000000, 0.000000000000000000, -1.000000000000000000 ) ) ;
#535 = CIRCLE ( 'NONE', #217, 0.1999999999999996503 ) ;
#536 = ADVANCED_FACE ( 'NONE', ( #329 ), #128, .T. ) ;
#537 = LINE ( 'NONE', #284, #194 ) ;
#538 = VECTOR ( 'NONE', #363, 1000.000000000000000 ) ;
#539 = CARTESIAN_POINT ( 'NONE',  ( -8.000000000000000000, 1.000000000000000000, 1.500000000000000000 ) ) ;
#540 = EDGE_CURVE ( 'NONE', #222, #62, #303, .T. ) ;
#541 = LINE ( 'NONE', #280, #30 ) ;
ENDSEC;
END-ISO-10303-21;
