ISO-10303-21;
HEADER;
FILE_DESCRIPTION (( 'STEP AP203' ),
    '1' );
FILE_NAME ('BAR3X16T2.step',
    '2026-03-22T06:57:25',
    ( '' ),
    ( '' ),
    'SwSTEP 2.0',
    'SolidWorks 2025',
    '' );
FILE_SCHEMA (( 'CONFIG_CONTROL_DESIGN' ));
ENDSEC;

DATA;
#1 = EDGE_CURVE ( 'NONE', #63, #102, #468, .T. ) ;
#2 = ORIENTED_EDGE ( 'NONE', *, *, #26, .T. ) ;
#3 =( LENGTH_UNIT ( ) NAMED_UNIT ( * ) SI_UNIT ( .MILLI., .METRE. ) );
#4 = VECTOR ( 'NONE', #520, 1000.000000000000000 ) ;
#5 = CARTESIAN_POINT ( 'NONE',  ( 0.000000000000000000, 0.000000000000000000, 0.000000000000000000 ) ) ;
#6 = PERSON_AND_ORGANIZATION ( #449, #423 ) ;
#7 = VERTEX_POINT ( 'NONE', #139 ) ;
#8 = EDGE_LOOP ( 'NONE', ( #275, #414, #151, #156 ) ) ;
#9 = CYLINDRICAL_SURFACE ( 'NONE', #512, 0.2000000000000000944 ) ;
#10 = EDGE_CURVE ( 'NONE', #289, #329, #218, .T. ) ;
#11 = ADVANCED_FACE ( 'NONE', ( #179 ), #175, .F. ) ;
#12 = VECTOR ( 'NONE', #528, 1000.000000000000000 ) ;
#13 = ORIENTED_EDGE ( 'NONE', *, *, #53, .T. ) ;
#14 = EDGE_CURVE ( 'NONE', #308, #35, #354, .T. ) ;
#15 = EDGE_CURVE ( 'NONE', #63, #357, #431, .T. ) ;
#16 = CARTESIAN_POINT ( 'NONE',  ( -7.800000000000000711, 1.800000000000000044, 1.300000000000000044 ) ) ;
#17 = DIRECTION ( 'NONE',  ( 1.000000000000000000, 0.000000000000000000, 0.000000000000000000 ) ) ;
#18 = AXIS2_PLACEMENT_3D ( 'NONE', #342, #132, #30 ) ;
#19 = CARTESIAN_POINT ( 'NONE',  ( -8.000000000000000000, 2.000000000000000000, 1.500000000000000000 ) ) ;
#20 = LOCAL_TIME ( 14, 57, 25.00000000000000000, #409 ) ;
#21 = ORIENTED_EDGE ( 'NONE', *, *, #453, .T. ) ;
#22 = APPROVAL ( #469, 'UNSPECIFIED' ) ;
#23 = DIRECTION ( 'NONE',  ( -1.000000000000000000, 0.000000000000000000, 0.000000000000000000 ) ) ;
#24 = EDGE_LOOP ( 'NONE', ( #405, #456, #385 ) ) ;
#25 = CARTESIAN_POINT ( 'NONE',  ( 8.000000000000000000, 2.000000000000000000, -1.500000000000000000 ) ) ;
#26 = EDGE_CURVE ( 'NONE', #268, #341, #56, .T. ) ;
#27 = CARTESIAN_POINT ( 'NONE',  ( -7.800000000000000711, 0.000000000000000000, -1.500000000000000000 ) ) ;
#28 = AXIS2_PLACEMENT_3D ( 'NONE', #5, #504, #340 ) ;
#29 = PERSON_AND_ORGANIZATION ( #449, #423 ) ;
#30 = DIRECTION ( 'NONE',  ( 0.000000000000000000, 0.000000000000000000, 1.000000000000000000 ) ) ;
#31 = LINE ( 'NONE', #191, #266 ) ;
#32 = ADVANCED_FACE ( 'NONE', ( #473 ), #254, .T. ) ;
#33 = ORIENTED_EDGE ( 'NONE', *, *, #202, .F. ) ;
#34 = DIRECTION ( 'NONE',  ( 0.000000000000000000, 1.000000000000000000, 0.000000000000000000 ) ) ;
#35 = VERTEX_POINT ( 'NONE', #351 ) ;
#36 = VECTOR ( 'NONE', #158, 1000.000000000000000 ) ;
#37 = DIRECTION ( 'NONE',  ( -1.000000000000000000, 0.000000000000000000, 0.000000000000000000 ) ) ;
#38 = DIRECTION ( 'NONE',  ( 0.000000000000000000, 0.000000000000000000, 1.000000000000000000 ) ) ;
#39 = EDGE_LOOP ( 'NONE', ( #451, #52, #73, #239 ) ) ;
#40 = DIRECTION ( 'NONE',  ( 1.000000000000000000, -0.000000000000000000, -0.000000000000000000 ) ) ;
#41 = CARTESIAN_POINT ( 'NONE',  ( 7.800000000000001599, 0.000000000000000000, -1.500000000000000000 ) ) ;
#42 = ORIENTED_EDGE ( 'NONE', *, *, #51, .F. ) ;
#43 = CARTESIAN_POINT ( 'NONE',  ( 8.000000000000000000, 2.000000000000000000, 1.300000000000000044 ) ) ;
#44 = ORIENTED_EDGE ( 'NONE', *, *, #422, .F. ) ;
#45 = CARTESIAN_POINT ( 'NONE',  ( 7.800000000000000711, 1.800000000000000044, -1.300000000000000044 ) ) ;
#46 = AXIS2_PLACEMENT_3D ( 'NONE', #45, #486, #320 ) ;
#47 = EDGE_LOOP ( 'NONE', ( #286, #495, #326, #262 ) ) ;
#48 = CYLINDRICAL_SURFACE ( 'NONE', #346, 0.2000000000000000944 ) ;
#49 = DIRECTION ( 'NONE',  ( 0.000000000000000000, -1.000000000000000000, 0.000000000000000000 ) ) ;
#50 = PRODUCT_DEFINITION ( 'UNKNOWN', '', #116, #176 ) ;
#51 = EDGE_CURVE ( 'NONE', #63, #7, #99, .T. ) ;
#52 = ORIENTED_EDGE ( 'NONE', *, *, #53, .F. ) ;
#53 = EDGE_CURVE ( 'NONE', #246, #35, #432, .T. ) ;
#54 = VECTOR ( 'NONE', #478, 1000.000000000000000 ) ;
#55 = CALENDAR_DATE ( 2026, 22, 3 ) ;
#56 = LINE ( 'NONE', #222, #519 ) ;
#57 = ORIENTED_EDGE ( 'NONE', *, *, #26, .F. ) ;
#58 = DIRECTION ( 'NONE',  ( -4.336808689942015369E-15, 1.000000000000000000, 0.000000000000000000 ) ) ;
#59 = AXIS2_PLACEMENT_3D ( 'NONE', #25, #186, #311 ) ;
#60 = CARTESIAN_POINT ( 'NONE',  ( 0.000000000000000000, 2.000000000000000000, 0.000000000000000000 ) ) ;
#61 = PRODUCT ( 'BAR3X16T2', 'BAR3X16T2', '', ( #368 ) ) ;
#62 = CYLINDRICAL_SURFACE ( 'NONE', #69, 0.2000000000000000944 ) ;
#63 = VERTEX_POINT ( 'NONE', #142 ) ;
#64 = ADVANCED_FACE ( 'NONE', ( #387 ), #9, .T. ) ;
#65 = DIRECTION ( 'NONE',  ( -0.000000000000000000, -0.000000000000000000, 1.000000000000000000 ) ) ;
#66 = APPROVAL_ROLE ( '' ) ;
#67 = DIRECTION ( 'NONE',  ( 0.000000000000000000, 0.000000000000000000, 1.000000000000000000 ) ) ;
#68 = CARTESIAN_POINT ( 'NONE',  ( 8.000000000000000000, 2.000000000000000000, -1.300000000000000044 ) ) ;
#69 = AXIS2_PLACEMENT_3D ( 'NONE', #273, #100, #230 ) ;
#70 = ORIENTED_EDGE ( 'NONE', *, *, #258, .T. ) ;
#71 = CARTESIAN_POINT ( 'NONE',  ( 8.000000000000000000, 1.800000000000000044, 1.300000000000000044 ) ) ;
#72 = DATE_AND_TIME ( #78, #324 ) ;
#73 = ORIENTED_EDGE ( 'NONE', *, *, #534, .F. ) ;
#74 = SPHERICAL_SURFACE ( 'NONE', #516, 0.2000000000000000111 ) ;
#75 = PERSON_AND_ORGANIZATION ( #449, #423 ) ;
#76 = EDGE_LOOP ( 'NONE', ( #333, #57, #44, #378 ) ) ;
#77 = LINE ( 'NONE', #153, #36 ) ;
#78 = CALENDAR_DATE ( 2026, 22, 3 ) ;
#79 = ORIENTED_EDGE ( 'NONE', *, *, #534, .T. ) ;
#80 = AXIS2_PLACEMENT_3D ( 'NONE', #272, #461, #253 ) ;
#81 = CARTESIAN_POINT ( 'NONE',  ( 0.000000000000000000, 1.800000000000000044, -1.300000000000000044 ) ) ;
#82 = LINE ( 'NONE', #291, #533 ) ;
#83 = ORIENTED_EDGE ( 'NONE', *, *, #10, .T. ) ;
#84 = DIRECTION ( 'NONE',  ( 0.000000000000000000, -1.000000000000000000, 0.000000000000000000 ) ) ;
#85 = CARTESIAN_POINT ( 'NONE',  ( -7.800000000000000711, 2.000000000000000000, 1.300000000000000044 ) ) ;
#86 = VERTEX_POINT ( 'NONE', #511 ) ;
#87 = VERTEX_POINT ( 'NONE', #303 ) ;
#88 = DIRECTION ( 'NONE',  ( -0.000000000000000000, 1.000000000000000000, -0.000000000000000000 ) ) ;
#89 = AXIS2_PLACEMENT_3D ( 'NONE', #438, #231, #358 ) ;
#90 = SECURITY_CLASSIFICATION ( '', '', #221 ) ;
#91 = ADVANCED_FACE ( 'NONE', ( #93 ), #257, .T. ) ;
#92 = CARTESIAN_POINT ( 'NONE',  ( 7.800000000000000711, 1.800000000000000044, 1.300000000000000044 ) ) ;
#93 = FACE_OUTER_BOUND ( 'NONE', #165, .T. ) ;
#94 = CIRCLE ( 'NONE', #103, 0.2000000000000000944 ) ;
#95 = COORDINATED_UNIVERSAL_TIME_OFFSET ( 8, 0, .AHEAD. ) ;
#96 = ORIENTED_EDGE ( 'NONE', *, *, #15, .F. ) ;
#97 = AXIS2_PLACEMENT_3D ( 'NONE', #331, #124, #240 ) ;
#98 = DIRECTION ( 'NONE',  ( 0.000000000000000000, 1.000000000000000000, -0.000000000000000000 ) ) ;
#99 = CIRCLE ( 'NONE', #143, 0.2000000000000000944 ) ;
#100 = DIRECTION ( 'NONE',  ( 0.000000000000000000, -1.000000000000000000, 0.000000000000000000 ) ) ;
#101 = DIRECTION ( 'NONE',  ( 0.000000000000000000, 0.000000000000000000, -1.000000000000000000 ) ) ;
#102 = VERTEX_POINT ( 'NONE', #263 ) ;
#103 = AXIS2_PLACEMENT_3D ( 'NONE', #144, #361, #58 ) ;
#104 = ADVANCED_FACE ( 'NONE', ( #392 ), #433, .F. ) ;
#105 = FACE_OUTER_BOUND ( 'NONE', #485, .T. ) ;
#106 = EDGE_CURVE ( 'NONE', #499, #490, #319, .T. ) ;
#107 = PRODUCT_DEFINITION_SHAPE ( 'NONE', 'NONE',  #50 ) ;
#108 = DIRECTION ( 'NONE',  ( 1.000000000000000000, -0.000000000000000000, -0.000000000000000000 ) ) ;
#109 = APPROVAL_DATE_TIME ( #152, #137 ) ;
#110 = LINE ( 'NONE', #483, #510 ) ;
#111 = LINE ( 'NONE', #355, #4 ) ;
#112 = DIRECTION ( 'NONE',  ( -0.000000000000000000, 1.000000000000000000, -0.000000000000000000 ) ) ;
#113 = DIRECTION ( 'NONE',  ( 0.000000000000000000, 0.000000000000000000, 1.000000000000000000 ) ) ;
#114 = CIRCLE ( 'NONE', #500, 0.2000000000000000944 ) ;
#115 = EDGE_LOOP ( 'NONE', ( #79, #185, #131 ) ) ;
#116 = PRODUCT_DEFINITION_FORMATION_WITH_SPECIFIED_SOURCE ( 'ANY', '', #61, .NOT_KNOWN. ) ;
#117 = CARTESIAN_POINT ( 'NONE',  ( 7.800000000000001599, 0.000000000000000000, 1.500000000000000000 ) ) ;
#118 = ORIENTED_EDGE ( 'NONE', *, *, #344, .F. ) ;
#119 = CC_DESIGN_DATE_AND_TIME_ASSIGNMENT ( #72, #238, ( #50 ) ) ;
#120 = DIRECTION ( 'NONE',  ( 0.000000000000000000, 0.000000000000000000, -1.000000000000000000 ) ) ;
#121 = COORDINATED_UNIVERSAL_TIME_OFFSET ( 8, 0, .AHEAD. ) ;
#122 = ORIENTED_EDGE ( 'NONE', *, *, #51, .T. ) ;
#123 = AXIS2_PLACEMENT_3D ( 'NONE', #349, #465, #215 ) ;
#124 = DIRECTION ( 'NONE',  ( -0.000000000000000000, -0.000000000000000000, 1.000000000000000000 ) ) ;
#125 = EDGE_CURVE ( 'NONE', #268, #136, #94, .T. ) ;
#126 = ORIENTED_EDGE ( 'NONE', *, *, #496, .F. ) ;
#127 = CARTESIAN_POINT ( 'NONE',  ( -7.800000000000000711, 1.800000000000000044, -1.500000000000000000 ) ) ;
#128 = ORIENTED_EDGE ( 'NONE', *, *, #1, .T. ) ;
#129 = DIRECTION ( 'NONE',  ( 0.000000000000000000, 0.000000000000000000, 1.000000000000000000 ) ) ;
#130 = FACE_OUTER_BOUND ( 'NONE', #76, .T. ) ;
#131 = ORIENTED_EDGE ( 'NONE', *, *, #471, .F. ) ;
#132 = DIRECTION ( 'NONE',  ( -0.000000000000000000, -1.000000000000000000, -0.000000000000000000 ) ) ;
#133 = EDGE_CURVE ( 'NONE', #86, #7, #111, .T. ) ;
#134 = CARTESIAN_POINT ( 'NONE',  ( -8.000000000000000000, 1.800000000000000044, 1.500000000000000000 ) ) ;
#135 = AXIS2_PLACEMENT_3D ( 'NONE', #81, #233, #190 ) ;
#136 = VERTEX_POINT ( 'NONE', #316 ) ;
#137 = APPROVAL ( #189, 'UNSPECIFIED' ) ;
#138 = CALENDAR_DATE ( 2026, 22, 3 ) ;
#139 = CARTESIAN_POINT ( 'NONE',  ( 7.800000000000000711, 2.000000000000000000, 1.300000000000000044 ) ) ;
#140 = ORIENTED_EDGE ( 'NONE', *, *, #513, .T. ) ;
#141 = AXIS2_PLACEMENT_3D ( 'NONE', #406, #497, #501 ) ;
#142 = CARTESIAN_POINT ( 'NONE',  ( 7.800000000000000711, 1.800000000000000044, 1.500000000000000000 ) ) ;
#143 = AXIS2_PLACEMENT_3D ( 'NONE', #424, #178, #515 ) ;
#144 = CARTESIAN_POINT ( 'NONE',  ( 7.800000000000001599, 1.800000000000000044, -1.300000000000000044 ) ) ;
#145 = VECTOR ( 'NONE', #395, 1000.000000000000000 ) ;
#146 = ADVANCED_FACE ( 'NONE', ( #522 ), #484, .F. ) ;
#147 = CARTESIAN_POINT ( 'NONE',  ( 8.000000000000000000, 1.800000000000000044, -1.500000000000000000 ) ) ;
#148 = CARTESIAN_POINT ( 'NONE',  ( 8.000000000000000000, 0.000000000000000000, -1.500000000000000000 ) ) ;
#149 = CARTESIAN_POINT ( 'NONE',  ( 8.000000000000000000, 1.800000000000000044, 1.500000000000000000 ) ) ;
#150 = DIRECTION ( 'NONE',  ( 0.000000000000000000, 0.000000000000000000, 1.000000000000000000 ) ) ;
#151 = ORIENTED_EDGE ( 'NONE', *, *, #322, .T. ) ;
#152 = DATE_AND_TIME ( #271, #300 ) ;
#153 = CARTESIAN_POINT ( 'NONE',  ( 7.800000000000000711, 2.000000000000000000, -1.500000000000000000 ) ) ;
#154 = CARTESIAN_POINT ( 'NONE',  ( 7.800000000000000711, 1.800000000000000044, 1.300000000000000044 ) ) ;
#155 = PERSON_AND_ORGANIZATION_ROLE ( 'creator' ) ;
#156 = ORIENTED_EDGE ( 'NONE', *, *, #455, .T. ) ;
#157 = LOCAL_TIME ( 14, 57, 25.00000000000000000, #95 ) ;
#158 = DIRECTION ( 'NONE',  ( 0.000000000000000000, 0.000000000000000000, -1.000000000000000000 ) ) ;
#159 = EDGE_LOOP ( 'NONE', ( #369, #197, #13, #243 ) ) ;
#160 = EDGE_CURVE ( 'NONE', #308, #268, #264, .T. ) ;
#161 = FACE_OUTER_BOUND ( 'NONE', #163, .T. ) ;
#162 = CARTESIAN_POINT ( 'NONE',  ( 0.000000000000000000, 0.000000000000000000, 0.000000000000000000 ) ) ;
#163 = EDGE_LOOP ( 'NONE', ( #514, #192, #458, #521, #33, #21, #374, #236 ) ) ;
#164 = CARTESIAN_POINT ( 'NONE',  ( 7.800000000000000711, 1.800000000000000044, 1.300000000000000044 ) ) ;
#165 = EDGE_LOOP ( 'NONE', ( #536, #538, #122, #502 ) ) ;
#166 = CIRCLE ( 'NONE', #46, 0.2000000000000000944 ) ;
#167 = CARTESIAN_POINT ( 'NONE',  ( -7.800000000000000711, 2.000000000000000000, 1.500000000000000000 ) ) ;
#168 = PLANE ( 'NONE',  #28 ) ;
#169 = APPROVAL_DATE_TIME ( #389, #22 ) ;
#170 = EDGE_LOOP ( 'NONE', ( #427, #207, #417, #440 ) ) ;
#171 = PERSON_AND_ORGANIZATION ( #449, #423 ) ;
#172 = DIRECTION ( 'NONE',  ( 0.000000000000000000, 0.000000000000000000, 1.000000000000000000 ) ) ;
#173 = DIRECTION ( 'NONE',  ( 0.000000000000000000, -1.000000000000000000, 0.000000000000000000 ) ) ;
#174 = CIRCLE ( 'NONE', #18, 0.2000000000000000944 ) ;
#175 = PLANE ( 'NONE',  #123 ) ;
#176 = DESIGN_CONTEXT ( 'detailed design', #314, 'design' ) ;
#177 = EDGE_CURVE ( 'NONE', #479, #86, #269, .T. ) ;
#178 = DIRECTION ( 'NONE',  ( -1.000000000000000000, -0.000000000000000000, -0.000000000000000000 ) ) ;
#179 = FACE_OUTER_BOUND ( 'NONE', #372, .T. ) ;
#180 = APPROVAL_PERSON_ORGANIZATION ( #248, #241, #206 ) ;
#181 = DIRECTION ( 'NONE',  ( -1.000000000000000000, 0.000000000000000000, -0.000000000000000000 ) ) ;
#182 = ORIENTED_EDGE ( 'NONE', *, *, #491, .F. ) ;
#183 = EDGE_CURVE ( 'NONE', #505, #136, #288, .T. ) ;
#184 = CYLINDRICAL_SURFACE ( 'NONE', #89, 0.1999999999999996503 ) ;
#185 = ORIENTED_EDGE ( 'NONE', *, *, #492, .T. ) ;
#186 = DIRECTION ( 'NONE',  ( -1.000000000000000000, 0.000000000000000000, 0.000000000000000000 ) ) ;
#187 = CIRCLE ( 'NONE', #97, 0.1999999999999996503 ) ;
#188 = FACE_OUTER_BOUND ( 'NONE', #47, .T. ) ;
#189 = APPROVAL_STATUS ( 'not_yet_approved' ) ;
#190 = DIRECTION ( 'NONE',  ( 0.000000000000000000, 0.000000000000000000, -1.000000000000000000 ) ) ;
#191 = CARTESIAN_POINT ( 'NONE',  ( -7.800000000000000711, 2.000000000000000000, -1.500000000000000000 ) ) ;
#192 = ORIENTED_EDGE ( 'NONE', *, *, #220, .T. ) ;
#193 = DIRECTION ( 'NONE',  ( -1.000000000000000000, 0.000000000000000000, -4.336808689942024836E-15 ) ) ;
#194 = APPLICATION_PROTOCOL_DEFINITION ( 'international standard', 'config_control_design', 1994, #506 ) ;
#195 = EDGE_LOOP ( 'NONE', ( #284, #228, #42 ) ) ;
#196 = AXIS2_PLACEMENT_3D ( 'NONE', #403, #525, #129 ) ;
#197 = ORIENTED_EDGE ( 'NONE', *, *, #439, .T. ) ;
#198 = ADVANCED_FACE ( 'NONE', ( #401 ), #363, .T. ) ;
#199 = ADVANCED_FACE ( 'NONE', ( #188 ), #184, .T. ) ;
#200 = DIRECTION ( 'NONE',  ( 0.000000000000000000, 0.000000000000000000, 1.000000000000000000 ) ) ;
#201 = ORIENTED_EDGE ( 'NONE', *, *, #302, .T. ) ;
#202 = EDGE_CURVE ( 'NONE', #341, #217, #313, .T. ) ;
#203 = CARTESIAN_POINT ( 'NONE',  ( -7.800000000000000711, 2.000000000000000000, -1.300000000000000044 ) ) ;
#204 = ADVANCED_FACE ( 'NONE', ( #105 ), #62, .T. ) ;
#205 = LINE ( 'NONE', #419, #277 ) ;
#206 = APPROVAL_ROLE ( '' ) ;
#207 = ORIENTED_EDGE ( 'NONE', *, *, #434, .F. ) ;
#208 = CARTESIAN_POINT ( 'NONE',  ( 7.800000000000000711, 0.000000000000000000, 1.300000000000000044 ) ) ;
#209 = FACE_OUTER_BOUND ( 'NONE', #24, .T. ) ;
#210 = PERSON_AND_ORGANIZATION ( #449, #423 ) ;
#211 = ORIENTED_EDGE ( 'NONE', *, *, #496, .T. ) ;
#212 = AXIS2_PLACEMENT_3D ( 'NONE', #154, #371, #294 ) ;
#213 = CC_DESIGN_APPROVAL ( #241, ( #50 ) ) ;
#214 = PERSON_AND_ORGANIZATION_ROLE ( 'design_supplier' ) ;
#215 = DIRECTION ( 'NONE',  ( 1.000000000000000000, 0.000000000000000000, -0.000000000000000000 ) ) ;
#216 = CARTESIAN_POINT ( 'NONE',  ( -8.000000000000000000, 2.000000000000000000, 1.300000000000000044 ) ) ;
#217 = VERTEX_POINT ( 'NONE', #27 ) ;
#218 = LINE ( 'NONE', #223, #359 ) ;
#219 =( GEOMETRIC_REPRESENTATION_CONTEXT ( 3 ) GLOBAL_UNCERTAINTY_ASSIGNED_CONTEXT ( ( #356 ) ) GLOBAL_UNIT_ASSIGNED_CONTEXT ( ( #3, #334, #418 ) ) REPRESENTATION_CONTEXT ( 'NONE', 'WORKASPACE' ) );
#220 = EDGE_CURVE ( 'NONE', #289, #87, #362, .T. ) ;
#221 = SECURITY_CLASSIFICATION_LEVEL ( 'unclassified' ) ;
#222 = CARTESIAN_POINT ( 'NONE',  ( 7.800000000000001599, 2.000000000000000000, -1.500000000000000000 ) ) ;
#223 = CARTESIAN_POINT ( 'NONE',  ( -8.000000000000000000, 0.000000000000000000, 1.500000000000000000 ) ) ;
#224 = EDGE_CURVE ( 'NONE', #490, #505, #444, .T. ) ;
#225 = CARTESIAN_POINT ( 'NONE',  ( 0.000000000000000000, 1.800000000000000044, 1.300000000000000044 ) ) ;
#226 = AXIS2_PLACEMENT_3D ( 'NONE', #318, #40, #67 ) ;
#227 = DIRECTION ( 'NONE',  ( 0.000000000000000000, 1.000000000000000000, 0.000000000000000000 ) ) ;
#228 = ORIENTED_EDGE ( 'NONE', *, *, #386, .T. ) ;
#229 = CC_DESIGN_PERSON_AND_ORGANIZATION_ASSIGNMENT ( #494, #155, ( #50 ) ) ;
#230 = DIRECTION ( 'NONE',  ( 0.000000000000000000, 0.000000000000000000, -1.000000000000000000 ) ) ;
#231 = DIRECTION ( 'NONE',  ( 0.000000000000000000, -0.000000000000000000, 1.000000000000000000 ) ) ;
#232 = PERSON_AND_ORGANIZATION_ROLE ( 'creator' ) ;
#233 = DIRECTION ( 'NONE',  ( 1.000000000000000000, 0.000000000000000000, 0.000000000000000000 ) ) ;
#234 = CC_DESIGN_SECURITY_CLASSIFICATION ( #90, ( #116 ) ) ;
#235 = DIRECTION ( 'NONE',  ( -0.000000000000000000, 1.000000000000000000, -0.000000000000000000 ) ) ;
#236 = ORIENTED_EDGE ( 'NONE', *, *, #491, .T. ) ;
#237 = FACE_OUTER_BOUND ( 'NONE', #159, .T. ) ;
#238 = DATE_TIME_ROLE ( 'creation_date' ) ;
#239 = ORIENTED_EDGE ( 'NONE', *, *, #177, .F. ) ;
#240 = DIRECTION ( 'NONE',  ( -1.000000000000000000, 0.000000000000000000, 0.000000000000000000 ) ) ;
#241 = APPROVAL ( #531, 'UNSPECIFIED' ) ;
#242 = VECTOR ( 'NONE', #517, 1000.000000000000000 ) ;
#243 = ORIENTED_EDGE ( 'NONE', *, *, #344, .T. ) ;
#244 = FACE_OUTER_BOUND ( 'NONE', #39, .T. ) ;
#245 = VECTOR ( 'NONE', #112, 1000.000000000000000 ) ;
#246 = VERTEX_POINT ( 'NONE', #404 ) ;
#247 = DIRECTION ( 'NONE',  ( 0.000000000000000000, -1.000000000000000000, 0.000000000000000000 ) ) ;
#248 = PERSON_AND_ORGANIZATION ( #449, #423 ) ;
#249 = ORIENTED_EDGE ( 'NONE', *, *, #258, .F. ) ;
#250 = LINE ( 'NONE', #293, #245 ) ;
#251 = CARTESIAN_POINT ( 'NONE',  ( -7.800000000000000711, 0.000000000000000000, 1.500000000000000000 ) ) ;
#252 = ORIENTED_EDGE ( 'NONE', *, *, #14, .T. ) ;
#253 = DIRECTION ( 'NONE',  ( 1.000000000000000000, 0.000000000000000000, 0.000000000000000000 ) ) ;
#254 = SPHERICAL_SURFACE ( 'NONE', #353, 0.2000000000000000111 ) ;
#255 = VECTOR ( 'NONE', #84, 1000.000000000000000 ) ;
#256 = DIRECTION ( 'NONE',  ( 0.000000000000000000, -0.000000000000000000, -1.000000000000000000 ) ) ;
#257 = CYLINDRICAL_SURFACE ( 'NONE', #304, 0.2000000000000000944 ) ;
#258 = EDGE_CURVE ( 'NONE', #217, #308, #31, .T. ) ;
#259 = CARTESIAN_POINT ( 'NONE',  ( -7.800000000000000711, 1.800000000000000044, -1.300000000000000044 ) ) ;
#260 = MANIFOLD_SOLID_BREP ( '\X2\570689d2\X0\1', #477 ) ;
#261 = CIRCLE ( 'NONE', #446, 0.2000000000000000944 ) ;
#262 = ORIENTED_EDGE ( 'NONE', *, *, #513, .F. ) ;
#263 = CARTESIAN_POINT ( 'NONE',  ( -7.800000000000000711, 1.800000000000000044, 1.500000000000000000 ) ) ;
#264 = LINE ( 'NONE', #147, #462 ) ;
#265 = ORIENTED_EDGE ( 'NONE', *, *, #396, .F. ) ;
#266 = VECTOR ( 'NONE', #365, 1000.000000000000000 ) ;
#267 = DIRECTION ( 'NONE',  ( -0.000000000000000000, 0.000000000000000000, 1.000000000000000000 ) ) ;
#268 = VERTEX_POINT ( 'NONE', #529 ) ;
#269 = LINE ( 'NONE', #435, #309 ) ;
#270 = EDGE_CURVE ( 'NONE', #390, #217, #114, .T. ) ;
#271 = CALENDAR_DATE ( 2026, 22, 3 ) ;
#272 = CARTESIAN_POINT ( 'NONE',  ( -7.800000000000000711, 1.800000000000000044, 1.300000000000000044 ) ) ;
#273 = CARTESIAN_POINT ( 'NONE',  ( 7.800000000000000711, 2.000000000000000000, 1.300000000000000044 ) ) ;
#274 = ADVANCED_FACE ( 'NONE', ( #336 ), #530, .T. ) ;
#275 = ORIENTED_EDGE ( 'NONE', *, *, #177, .T. ) ;
#276 = LINE ( 'NONE', #216, #411 ) ;
#277 = VECTOR ( 'NONE', #489, 1000.000000000000000 ) ;
#278 = CC_DESIGN_APPROVAL ( #137, ( #116 ) ) ;
#279 = FACE_OUTER_BOUND ( 'NONE', #195, .T. ) ;
#280 = CALENDAR_DATE ( 2026, 22, 3 ) ;
#281 = EDGE_LOOP ( 'NONE', ( #407, #410, #140, #201 ) ) ;
#282 = CC_DESIGN_PERSON_AND_ORGANIZATION_ASSIGNMENT ( #75, #498, ( #61 ) ) ;
#283 = CARTESIAN_POINT ( 'NONE',  ( -7.800000000000000711, 1.800000000000000044, -1.300000000000000044 ) ) ;
#284 = ORIENTED_EDGE ( 'NONE', *, *, #15, .T. ) ;
#285 = CARTESIAN_POINT ( 'NONE',  ( 7.800000000000000711, 1.800000000000000044, -1.300000000000000044 ) ) ;
#286 = ORIENTED_EDGE ( 'NONE', *, *, #183, .T. ) ;
#287 = DIRECTION ( 'NONE',  ( 0.000000000000000000, 0.000000000000000000, -1.000000000000000000 ) ) ;
#288 = CIRCLE ( 'NONE', #337, 0.1999999999999996503 ) ;
#289 = VERTEX_POINT ( 'NONE', #251 ) ;
#290 = CARTESIAN_POINT ( 'NONE',  ( 8.000000000000000000, 0.000000000000000000, 1.300000000000000044 ) ) ;
#291 = CARTESIAN_POINT ( 'NONE',  ( -8.000000000000000000, 2.000000000000000000, -1.300000000000000044 ) ) ;
#292 = ORIENTED_EDGE ( 'NONE', *, *, #434, .T. ) ;
#293 = CARTESIAN_POINT ( 'NONE',  ( 7.800000000000001599, 2.000000000000000000, 1.500000000000000000 ) ) ;
#294 = DIRECTION ( 'NONE',  ( 0.000000000000000000, 0.000000000000000000, -1.000000000000000000 ) ) ;
#295 = EDGE_LOOP ( 'NONE', ( #445, #338, #265, #382 ) ) ;
#296 = DIRECTION ( 'NONE',  ( 0.000000000000000000, -1.000000000000000000, 0.000000000000000000 ) ) ;
#297 = ADVANCED_BREP_SHAPE_REPRESENTATION ( 'BAR3X16T2', ( #260, #518 ), #219 ) ;
#298 = APPROVAL_ROLE ( '' ) ;
#299 = ORIENTED_EDGE ( 'NONE', *, *, #396, .T. ) ;
#300 = LOCAL_TIME ( 14, 57, 25.00000000000000000, #527 ) ;
#301 = ADVANCED_FACE ( 'NONE', ( #244 ), #452, .T. ) ;
#302 = EDGE_CURVE ( 'NONE', #357, #499, #457, .T. ) ;
#303 = CARTESIAN_POINT ( 'NONE',  ( -8.000000000000000000, 0.000000000000000000, 1.300000000000000044 ) ) ;
#304 = AXIS2_PLACEMENT_3D ( 'NONE', #225, #482, #474 ) ;
#305 = DATE_AND_TIME ( #138, #394 ) ;
#306 = EDGE_CURVE ( 'NONE', #390, #87, #205, .T. ) ;
#307 = DIRECTION ( 'NONE',  ( 0.000000000000000000, 0.000000000000000000, 1.000000000000000000 ) ) ;
#308 = VERTEX_POINT ( 'NONE', #127 ) ;
#309 = VECTOR ( 'NONE', #267, 1000.000000000000000 ) ;
#310 = CARTESIAN_POINT ( 'NONE',  ( -7.800000000000000711, 0.000000000000000000, -1.300000000000000044 ) ) ;
#311 = DIRECTION ( 'NONE',  ( 0.000000000000000000, 0.000000000000000000, 1.000000000000000000 ) ) ;
#312 = CC_DESIGN_PERSON_AND_ORGANIZATION_ASSIGNMENT ( #442, #232, ( #116 ) ) ;
#313 = LINE ( 'NONE', #476, #54 ) ;
#314 = APPLICATION_CONTEXT ( 'configuration controlled 3d designs of mechanical parts and assemblies' ) ;
#315 = CIRCLE ( 'NONE', #80, 0.1999999999999996503 ) ;
#316 = CARTESIAN_POINT ( 'NONE',  ( 7.800000000000000711, 2.000000000000000000, -1.300000000000000044 ) ) ;
#317 = EDGE_CURVE ( 'NONE', #479, #35, #187, .T. ) ;
#318 = CARTESIAN_POINT ( 'NONE',  ( -7.800000000000000711, 1.800000000000000044, 1.300000000000000044 ) ) ;
#319 = LINE ( 'NONE', #148, #145 ) ;
#320 = DIRECTION ( 'NONE',  ( 0.000000000000000000, 0.000000000000000000, 1.000000000000000000 ) ) ;
#321 = CARTESIAN_POINT ( 'NONE',  ( -7.800000000000000711, 1.800000000000000044, -1.300000000000000044 ) ) ;
#322 = EDGE_CURVE ( 'NONE', #7, #136, #77, .T. ) ;
#323 = AXIS2_PLACEMENT_3D ( 'NONE', #377, #416, #120 ) ;
#324 = LOCAL_TIME ( 14, 57, 25.00000000000000000, #121 ) ;
#325 = DIRECTION ( 'NONE',  ( 0.000000000000000000, -1.000000000000000000, 0.000000000000000000 ) ) ;
#326 = ORIENTED_EDGE ( 'NONE', *, *, #386, .F. ) ;
#327 = SPHERICAL_SURFACE ( 'NONE', #488, 0.2000000000000000111 ) ;
#328 = APPLICATION_PROTOCOL_DEFINITION ( 'international standard', 'config_control_design', 1994, #314 ) ;
#329 = VERTEX_POINT ( 'NONE', #117 ) ;
#330 = CC_DESIGN_PERSON_AND_ORGANIZATION_ASSIGNMENT ( #210, #214, ( #116 ) ) ;
#331 = CARTESIAN_POINT ( 'NONE',  ( -7.800000000000000711, 1.800000000000000044, -1.300000000000000044 ) ) ;
#332 = DIRECTION ( 'NONE',  ( 1.000000000000000000, 0.000000000000000000, 0.000000000000000000 ) ) ;
#333 = ORIENTED_EDGE ( 'NONE', *, *, #453, .F. ) ;
#334 =( NAMED_UNIT ( * ) PLANE_ANGLE_UNIT ( ) SI_UNIT ( $, .RADIAN. ) );
#335 = AXIS2_PLACEMENT_3D ( 'NONE', #85, #381, #287 ) ;
#336 = FACE_OUTER_BOUND ( 'NONE', #170, .T. ) ;
#337 = AXIS2_PLACEMENT_3D ( 'NONE', #441, #65, #23 ) ;
#338 = ORIENTED_EDGE ( 'NONE', *, *, #160, .F. ) ;
#339 = CYLINDRICAL_SURFACE ( 'NONE', #135, 0.2000000000000000944 ) ;
#340 = DIRECTION ( 'NONE',  ( 0.000000000000000000, -0.000000000000000000, 1.000000000000000000 ) ) ;
#341 = VERTEX_POINT ( 'NONE', #41 ) ;
#342 = CARTESIAN_POINT ( 'NONE',  ( 7.800000000000001599, 0.000000000000000000, -1.300000000000000044 ) ) ;
#343 = CARTESIAN_POINT ( 'NONE',  ( -8.000000000000000000, 1.800000000000000044, -1.500000000000000000 ) ) ;
#344 = EDGE_CURVE ( 'NONE', #35, #390, #82, .T. ) ;
#345 = DIRECTION ( 'NONE',  ( 0.000000000000000000, 0.000000000000000000, -1.000000000000000000 ) ) ;
#346 = AXIS2_PLACEMENT_3D ( 'NONE', #459, #296, #539 ) ;
#347 = AXIS2_PLACEMENT_3D ( 'NONE', #259, #426, #470 ) ;
#348 = COORDINATED_UNIVERSAL_TIME_OFFSET ( 8, 0, .AHEAD. ) ;
#349 = CARTESIAN_POINT ( 'NONE',  ( -8.000000000000000000, 2.000000000000000000, -1.500000000000000000 ) ) ;
#350 = ORIENTED_EDGE ( 'NONE', *, *, #270, .F. ) ;
#351 = CARTESIAN_POINT ( 'NONE',  ( -8.000000000000000000, 1.800000000000000044, -1.300000000000000044 ) ) ;
#352 = VECTOR ( 'NONE', #235, 1000.000000000000000 ) ;
#353 = AXIS2_PLACEMENT_3D ( 'NONE', #16, #98, #172 ) ;
#354 = CIRCLE ( 'NONE', #347, 0.2000000000000000944 ) ;
#355 = CARTESIAN_POINT ( 'NONE',  ( 8.000000000000000000, 2.000000000000000000, 1.300000000000000044 ) ) ;
#356 = UNCERTAINTY_MEASURE_WITH_UNIT (LENGTH_MEASURE( 1.000000000000000082E-05 ), #3, 'distance_accuracy_value', 'NONE');
#357 = VERTEX_POINT ( 'NONE', #71 ) ;
#358 = DIRECTION ( 'NONE',  ( 1.000000000000000000, 0.000000000000000000, 0.000000000000000000 ) ) ;
#359 = VECTOR ( 'NONE', #17, 1000.000000000000000 ) ;
#360 = ADVANCED_FACE ( 'NONE', ( #237 ), #412, .F. ) ;
#361 = DIRECTION ( 'NONE',  ( 1.000000000000000000, 4.336808689942016158E-15, 0.000000000000000000 ) ) ;
#362 = CIRCLE ( 'NONE', #370, 0.2000000000000000944 ) ;
#363 = PLANE ( 'NONE',  #430 ) ;
#364 = LINE ( 'NONE', #149, #12 ) ;
#365 = DIRECTION ( 'NONE',  ( -0.000000000000000000, 1.000000000000000000, -0.000000000000000000 ) ) ;
#366 = ORIENTED_EDGE ( 'NONE', *, *, #14, .F. ) ;
#367 = CARTESIAN_POINT ( 'NONE',  ( -8.000000000000000000, 0.000000000000000000, -1.300000000000000044 ) ) ;
#368 = MECHANICAL_CONTEXT ( 'NONE', #506, 'mechanical' ) ;
#369 = ORIENTED_EDGE ( 'NONE', *, *, #306, .T. ) ;
#370 = AXIS2_PLACEMENT_3D ( 'NONE', #398, #524, #150 ) ;
#371 = DIRECTION ( 'NONE',  ( -0.000000000000000000, 1.000000000000000000, 0.000000000000000000 ) ) ;
#372 = EDGE_LOOP ( 'NONE', ( #391, #70, #532, #2 ) ) ;
#373 = DIRECTION ( 'NONE',  ( 1.000000000000000000, 0.000000000000000000, 0.000000000000000000 ) ) ;
#374 = ORIENTED_EDGE ( 'NONE', *, *, #106, .F. ) ;
#375 = CARTESIAN_POINT ( 'NONE',  ( 8.000000000000000000, 1.800000000000000044, -1.300000000000000044 ) ) ;
#376 = ADVANCED_FACE ( 'NONE', ( #408 ), #74, .T. ) ;
#377 = CARTESIAN_POINT ( 'NONE',  ( -8.000000000000000000, 2.000000000000000000, -1.500000000000000000 ) ) ;
#378 = ORIENTED_EDGE ( 'NONE', *, *, #224, .F. ) ;
#379 = DIRECTION ( 'NONE',  ( -1.301042606982604690E-14, 0.000000000000000000, 1.000000000000000000 ) ) ;
#380 = AXIS2_PLACEMENT_3D ( 'NONE', #164, #200, #373 ) ;
#381 = DIRECTION ( 'NONE',  ( 0.000000000000000000, -1.000000000000000000, 0.000000000000000000 ) ) ;
#382 = ORIENTED_EDGE ( 'NONE', *, *, #455, .F. ) ;
#383 = VECTOR ( 'NONE', #256, 1000.000000000000000 ) ;
#384 = DATE_TIME_ROLE ( 'classification_date' ) ;
#385 = ORIENTED_EDGE ( 'NONE', *, *, #183, .F. ) ;
#386 = EDGE_CURVE ( 'NONE', #357, #7, #402, .T. ) ;
#387 = FACE_OUTER_BOUND ( 'NONE', #460, .T. ) ;
#388 = ADVANCED_FACE ( 'NONE', ( #209 ), #327, .T. ) ;
#389 = DATE_AND_TIME ( #55, #157 ) ;
#390 = VERTEX_POINT ( 'NONE', #367 ) ;
#391 = ORIENTED_EDGE ( 'NONE', *, *, #202, .T. ) ;
#392 = FACE_OUTER_BOUND ( 'NONE', #420, .T. ) ;
#393 = CIRCLE ( 'NONE', #226, 0.2000000000000000944 ) ;
#394 = LOCAL_TIME ( 14, 57, 25.00000000000000000, #348 ) ;
#395 = DIRECTION ( 'NONE',  ( -0.000000000000000000, -0.000000000000000000, -1.000000000000000000 ) ) ;
#396 = EDGE_CURVE ( 'NONE', #479, #308, #261, .T. ) ;
#397 = ADVANCED_FACE ( 'NONE', ( #279 ), #493, .T. ) ;
#398 = CARTESIAN_POINT ( 'NONE',  ( -7.800000000000000711, 0.000000000000000000, 1.300000000000000044 ) ) ;
#399 = ORIENTED_EDGE ( 'NONE', *, *, #317, .F. ) ;
#400 = ADVANCED_FACE ( 'NONE', ( #161 ), #168, .F. ) ;
#401 = FACE_OUTER_BOUND ( 'NONE', #8, .T. ) ;
#402 = CIRCLE ( 'NONE', #380, 0.1999999999999996503 ) ;
#403 = CARTESIAN_POINT ( 'NONE',  ( -7.800000000000000711, 1.800000000000000044, 1.300000000000000044 ) ) ;
#404 = CARTESIAN_POINT ( 'NONE',  ( -8.000000000000000000, 1.800000000000000044, 1.300000000000000044 ) ) ;
#405 = ORIENTED_EDGE ( 'NONE', *, *, #422, .T. ) ;
#406 = CARTESIAN_POINT ( 'NONE',  ( -7.800000000000000711, 1.800000000000000044, 0.000000000000000000 ) ) ;
#407 = ORIENTED_EDGE ( 'NONE', *, *, #106, .T. ) ;
#408 = FACE_OUTER_BOUND ( 'NONE', #454, .T. ) ;
#409 = COORDINATED_UNIVERSAL_TIME_OFFSET ( 8, 0, .AHEAD. ) ;
#410 = ORIENTED_EDGE ( 'NONE', *, *, #224, .T. ) ;
#411 = VECTOR ( 'NONE', #88, 1000.000000000000000 ) ;
#412 = PLANE ( 'NONE',  #323 ) ;
#413 = AXIS2_PLACEMENT_3D ( 'NONE', #92, #429, #307 ) ;
#414 = ORIENTED_EDGE ( 'NONE', *, *, #133, .T. ) ;
#415 = ADVANCED_FACE ( 'NONE', ( #130 ), #48, .T. ) ;
#416 = DIRECTION ( 'NONE',  ( 1.000000000000000000, 0.000000000000000000, 0.000000000000000000 ) ) ;
#417 = ORIENTED_EDGE ( 'NONE', *, *, #492, .F. ) ;
#418 =( NAMED_UNIT ( * ) SI_UNIT ( $, .STERADIAN. ) SOLID_ANGLE_UNIT ( ) );
#419 = CARTESIAN_POINT ( 'NONE',  ( -8.000000000000000000, 0.000000000000000000, -1.500000000000000000 ) ) ;
#420 = EDGE_LOOP ( 'NONE', ( #128, #292, #83, #211 ) ) ;
#421 = VECTOR ( 'NONE', #325, 1000.000000000000000 ) ;
#422 = EDGE_CURVE ( 'NONE', #505, #268, #166, .T. ) ;
#423 = ORGANIZATION ( 'UNSPECIFIED', 'UNSPECIFIED', '' ) ;
#424 = CARTESIAN_POINT ( 'NONE',  ( 7.800000000000000711, 1.800000000000000044, 1.300000000000000044 ) ) ;
#425 = FACE_OUTER_BOUND ( 'NONE', #295, .T. ) ;
#426 = DIRECTION ( 'NONE',  ( 0.000000000000000000, 1.000000000000000000, 0.000000000000000000 ) ) ;
#427 = ORIENTED_EDGE ( 'NONE', *, *, #220, .F. ) ;
#428 = PERSON_AND_ORGANIZATION_ROLE ( 'classification_officer' ) ;
#429 = DIRECTION ( 'NONE',  ( 0.000000000000000000, 1.000000000000000000, 0.000000000000000000 ) ) ;
#430 = AXIS2_PLACEMENT_3D ( 'NONE', #60, #227, #526 ) ;
#431 = CIRCLE ( 'NONE', #413, 0.2000000000000000944 ) ;
#432 = LINE ( 'NONE', #343, #383 ) ;
#433 = PLANE ( 'NONE',  #467 ) ;
#434 = EDGE_CURVE ( 'NONE', #102, #289, #443, .T. ) ;
#435 = CARTESIAN_POINT ( 'NONE',  ( -7.800000000000000711, 2.000000000000000000, 1.500000000000000000 ) ) ;
#436 = CIRCLE ( 'NONE', #196, 0.2000000000000000944 ) ;
#437 = APPROVAL_PERSON_ORGANIZATION ( #29, #137, #66 ) ;
#438 = CARTESIAN_POINT ( 'NONE',  ( 7.800000000000000711, 1.800000000000000044, 0.000000000000000000 ) ) ;
#439 = EDGE_CURVE ( 'NONE', #87, #246, #276, .T. ) ;
#440 = ORIENTED_EDGE ( 'NONE', *, *, #439, .F. ) ;
#441 = CARTESIAN_POINT ( 'NONE',  ( 7.800000000000000711, 1.800000000000000044, -1.300000000000000044 ) ) ;
#442 = PERSON_AND_ORGANIZATION ( #449, #423 ) ;
#443 = LINE ( 'NONE', #167, #255 ) ;
#444 = LINE ( 'NONE', #68, #352 ) ;
#445 = ORIENTED_EDGE ( 'NONE', *, *, #125, .F. ) ;
#446 = AXIS2_PLACEMENT_3D ( 'NONE', #321, #487, #113 ) ;
#447 = APPROVAL_PERSON_ORGANIZATION ( #171, #22, #298 ) ;
#448 = CARTESIAN_POINT ( 'NONE',  ( 8.000000000000000000, 0.000000000000000000, -1.300000000000000044 ) ) ;
#449 = PERSON ( 'UNSPECIFIED', 'UNSPECIFIED', 'UNSPECIFIED', ('UNSPECIFIED'), ('UNSPECIFIED'), ('UNSPECIFIED') ) ;
#450 = APPROVAL_DATE_TIME ( #541, #241 ) ;
#451 = ORIENTED_EDGE ( 'NONE', *, *, #317, .T. ) ;
#452 = CYLINDRICAL_SURFACE ( 'NONE', #141, 0.1999999999999996503 ) ;
#453 = EDGE_CURVE ( 'NONE', #341, #490, #174, .T. ) ;
#454 = EDGE_LOOP ( 'NONE', ( #299, #252, #399 ) ) ;
#455 = EDGE_CURVE ( 'NONE', #136, #479, #110, .T. ) ;
#456 = ORIENTED_EDGE ( 'NONE', *, *, #125, .T. ) ;
#457 = LINE ( 'NONE', #43, #421 ) ;
#458 = ORIENTED_EDGE ( 'NONE', *, *, #306, .F. ) ;
#459 = CARTESIAN_POINT ( 'NONE',  ( 7.800000000000001599, 2.000000000000000000, -1.300000000000000044 ) ) ;
#460 = EDGE_LOOP ( 'NONE', ( #350, #118, #366, #249 ) ) ;
#461 = DIRECTION ( 'NONE',  ( 0.000000000000000000, -0.000000000000000000, 1.000000000000000000 ) ) ;
#462 = VECTOR ( 'NONE', #108, 1000.000000000000000 ) ;
#463 = SHAPE_DEFINITION_REPRESENTATION ( #107, #297 ) ;
#464 = CC_DESIGN_APPROVAL ( #22, ( #90 ) ) ;
#465 = DIRECTION ( 'NONE',  ( 0.000000000000000000, 0.000000000000000000, 1.000000000000000000 ) ) ;
#466 = CC_DESIGN_DATE_AND_TIME_ASSIGNMENT ( #305, #384, ( #90 ) ) ;
#467 = AXIS2_PLACEMENT_3D ( 'NONE', #19, #101, #181 ) ;
#468 = LINE ( 'NONE', #134, #242 ) ;
#469 = APPROVAL_STATUS ( 'not_yet_approved' ) ;
#470 = DIRECTION ( 'NONE',  ( 0.000000000000000000, 0.000000000000000000, 1.000000000000000000 ) ) ;
#471 = EDGE_CURVE ( 'NONE', #86, #102, #393, .T. ) ;
#472 = CIRCLE ( 'NONE', #480, 0.2000000000000000944 ) ;
#473 = FACE_OUTER_BOUND ( 'NONE', #115, .T. ) ;
#474 = DIRECTION ( 'NONE',  ( 0.000000000000000000, 0.000000000000000000, 1.000000000000000000 ) ) ;
#475 = ADVANCED_FACE ( 'NONE', ( #425 ), #339, .T. ) ;
#476 = CARTESIAN_POINT ( 'NONE',  ( -8.000000000000000000, 0.000000000000000000, -1.500000000000000000 ) ) ;
#477 = CLOSED_SHELL ( 'NONE', ( #146, #11, #360, #104, #198, #400, #64, #475, #415, #376, #388, #274, #301, #199, #204, #32, #397, #91 ) ) ;
#478 = DIRECTION ( 'NONE',  ( -1.000000000000000000, -0.000000000000000000, -0.000000000000000000 ) ) ;
#479 = VERTEX_POINT ( 'NONE', #203 ) ;
#480 = AXIS2_PLACEMENT_3D ( 'NONE', #208, #503, #379 ) ;
#481 = CC_DESIGN_PERSON_AND_ORGANIZATION_ASSIGNMENT ( #6, #428, ( #90 ) ) ;
#482 = DIRECTION ( 'NONE',  ( -1.000000000000000000, 0.000000000000000000, 0.000000000000000000 ) ) ;
#483 = CARTESIAN_POINT ( 'NONE',  ( -8.000000000000000000, 2.000000000000000000, -1.300000000000000044 ) ) ;
#484 = PLANE ( 'NONE',  #59 ) ;
#485 = EDGE_LOOP ( 'NONE', ( #182, #523, #96, #126 ) ) ;
#486 = DIRECTION ( 'NONE',  ( -0.000000000000000000, 1.000000000000000000, 0.000000000000000000 ) ) ;
#487 = DIRECTION ( 'NONE',  ( -1.000000000000000000, 0.000000000000000000, 0.000000000000000000 ) ) ;
#488 = AXIS2_PLACEMENT_3D ( 'NONE', #285, #540, #193 ) ;
#489 = DIRECTION ( 'NONE',  ( 0.000000000000000000, 0.000000000000000000, 1.000000000000000000 ) ) ;
#490 = VERTEX_POINT ( 'NONE', #448 ) ;
#491 = EDGE_CURVE ( 'NONE', #499, #329, #472, .T. ) ;
#492 = EDGE_CURVE ( 'NONE', #246, #102, #436, .T. ) ;
#493 = SPHERICAL_SURFACE ( 'NONE', #212, 0.2000000000000000111 ) ;
#494 = PERSON_AND_ORGANIZATION ( #449, #423 ) ;
#495 = ORIENTED_EDGE ( 'NONE', *, *, #322, .F. ) ;
#496 = EDGE_CURVE ( 'NONE', #329, #63, #250, .T. ) ;
#497 = DIRECTION ( 'NONE',  ( 0.000000000000000000, 0.000000000000000000, -1.000000000000000000 ) ) ;
#498 = PERSON_AND_ORGANIZATION_ROLE ( 'design_owner' ) ;
#499 = VERTEX_POINT ( 'NONE', #290 ) ;
#500 = AXIS2_PLACEMENT_3D ( 'NONE', #310, #535, #537 ) ;
#501 = DIRECTION ( 'NONE',  ( -1.000000000000000000, 0.000000000000000000, 0.000000000000000000 ) ) ;
#502 = ORIENTED_EDGE ( 'NONE', *, *, #133, .F. ) ;
#503 = DIRECTION ( 'NONE',  ( -0.000000000000000000, -1.000000000000000000, -0.000000000000000000 ) ) ;
#504 = DIRECTION ( 'NONE',  ( 0.000000000000000000, 1.000000000000000000, 0.000000000000000000 ) ) ;
#505 = VERTEX_POINT ( 'NONE', #375 ) ;
#506 = APPLICATION_CONTEXT ( 'configuration controlled 3d designs of mechanical parts and assemblies' ) ;
#507 = DIRECTION ( 'NONE',  ( -1.000000000000000000, 0.000000000000000000, 0.000000000000000000 ) ) ;
#508 = CARTESIAN_POINT ( 'NONE',  ( -7.800000000000000711, 2.000000000000000000, -1.300000000000000044 ) ) ;
#509 = PRODUCT_RELATED_PRODUCT_CATEGORY ( 'detail', '', ( #61 ) ) ;
#510 = VECTOR ( 'NONE', #507, 1000.000000000000000 ) ;
#511 = CARTESIAN_POINT ( 'NONE',  ( -7.800000000000000711, 2.000000000000000000, 1.300000000000000044 ) ) ;
#512 = AXIS2_PLACEMENT_3D ( 'NONE', #508, #173, #345 ) ;
#513 = EDGE_CURVE ( 'NONE', #505, #357, #364, .T. ) ;
#514 = ORIENTED_EDGE ( 'NONE', *, *, #10, .F. ) ;
#515 = DIRECTION ( 'NONE',  ( 0.000000000000000000, 0.000000000000000000, -1.000000000000000000 ) ) ;
#516 = AXIS2_PLACEMENT_3D ( 'NONE', #283, #34, #37 ) ;
#517 = DIRECTION ( 'NONE',  ( -1.000000000000000000, -0.000000000000000000, -0.000000000000000000 ) ) ;
#518 = AXIS2_PLACEMENT_3D ( 'NONE', #162, #38, #332 ) ;
#519 = VECTOR ( 'NONE', #49, 1000.000000000000000 ) ;
#520 = DIRECTION ( 'NONE',  ( 1.000000000000000000, -0.000000000000000000, 0.000000000000000000 ) ) ;
#521 = ORIENTED_EDGE ( 'NONE', *, *, #270, .T. ) ;
#522 = FACE_OUTER_BOUND ( 'NONE', #281, .T. ) ;
#523 = ORIENTED_EDGE ( 'NONE', *, *, #302, .F. ) ;
#524 = DIRECTION ( 'NONE',  ( -0.000000000000000000, -1.000000000000000000, -0.000000000000000000 ) ) ;
#525 = DIRECTION ( 'NONE',  ( 0.000000000000000000, 1.000000000000000000, -0.000000000000000000 ) ) ;
#526 = DIRECTION ( 'NONE',  ( 0.000000000000000000, -0.000000000000000000, 1.000000000000000000 ) ) ;
#527 = COORDINATED_UNIVERSAL_TIME_OFFSET ( 8, 0, .AHEAD. ) ;
#528 = DIRECTION ( 'NONE',  ( -0.000000000000000000, -0.000000000000000000, 1.000000000000000000 ) ) ;
#529 = CARTESIAN_POINT ( 'NONE',  ( 7.800000000000001599, 1.800000000000000044, -1.500000000000000000 ) ) ;
#530 = CYLINDRICAL_SURFACE ( 'NONE', #335, 0.2000000000000000944 ) ;
#531 = APPROVAL_STATUS ( 'not_yet_approved' ) ;
#532 = ORIENTED_EDGE ( 'NONE', *, *, #160, .T. ) ;
#533 = VECTOR ( 'NONE', #247, 1000.000000000000000 ) ;
#534 = EDGE_CURVE ( 'NONE', #86, #246, #315, .T. ) ;
#535 = DIRECTION ( 'NONE',  ( -0.000000000000000000, -1.000000000000000000, -0.000000000000000000 ) ) ;
#536 = ORIENTED_EDGE ( 'NONE', *, *, #471, .T. ) ;
#537 = DIRECTION ( 'NONE',  ( 0.000000000000000000, 0.000000000000000000, 1.000000000000000000 ) ) ;
#538 = ORIENTED_EDGE ( 'NONE', *, *, #1, .F. ) ;
#539 = DIRECTION ( 'NONE',  ( 0.000000000000000000, 0.000000000000000000, -1.000000000000000000 ) ) ;
#540 = DIRECTION ( 'NONE',  ( 0.000000000000000000, 1.000000000000000000, 0.000000000000000000 ) ) ;
#541 = DATE_AND_TIME ( #280, #20 ) ;
ENDSEC;
END-ISO-10303-21;
