ISO-10303-21;
HEADER;
FILE_DESCRIPTION (( 'STEP AP203' ),
    '1' );
FILE_NAME ('BAR3X12T1.step',
    '2026-03-22T05:38:40',
    ( '' ),
    ( '' ),
    'SwSTEP 2.0',
    'SolidWorks 2025',
    '' );
FILE_SCHEMA (( 'CONFIG_CONTROL_DESIGN' ));
ENDSEC;

DATA;
#1 = ORIENTED_EDGE ( 'NONE', *, *, #343, .T. ) ;
#2 = DIRECTION ( 'NONE',  ( -1.000000000000000000, -0.000000000000000000, -0.000000000000000000 ) ) ;
#3 = DIRECTION ( 'NONE',  ( 0.000000000000000000, 0.000000000000000000, -1.000000000000000000 ) ) ;
#4 = CIRCLE ( 'NONE', #177, 0.2000000000000000944 ) ;
#5 = EDGE_CURVE ( 'NONE', #379, #128, #307, .T. ) ;
#6 = DIRECTION ( 'NONE',  ( 0.000000000000000000, 0.000000000000000000, -1.000000000000000000 ) ) ;
#7 = CARTESIAN_POINT ( 'NONE',  ( -5.799999999999999822, 1.000000000000000000, 1.300000000000000044 ) ) ;
#8 = APPROVAL_ROLE ( '' ) ;
#9 = CC_DESIGN_APPROVAL ( #297, ( #429 ) ) ;
#10 = EDGE_CURVE ( 'NONE', #283, #60, #94, .T. ) ;
#11 = EDGE_CURVE ( 'NONE', #128, #529, #114, .T. ) ;
#12 = FACE_OUTER_BOUND ( 'NONE', #88, .T. ) ;
#13 = UNCERTAINTY_MEASURE_WITH_UNIT (LENGTH_MEASURE( 1.000000000000000082E-05 ), #116, 'distance_accuracy_value', 'NONE');
#14 = ORIENTED_EDGE ( 'NONE', *, *, #528, .T. ) ;
#15 = CARTESIAN_POINT ( 'NONE',  ( -5.999999999999999112, 1.000000000000000000, 1.500000000000000000 ) ) ;
#16 = CARTESIAN_POINT ( 'NONE',  ( 0.000000000000000000, 1.000000000000000000, 0.000000000000000000 ) ) ;
#17 = CARTESIAN_POINT ( 'NONE',  ( 5.800000000000002487, 0.000000000000000000, 1.500000000000000000 ) ) ;
#18 = CARTESIAN_POINT ( 'NONE',  ( -5.999999999999999112, 0.8000000000000000444, 1.300000000000000044 ) ) ;
#19 = FACE_OUTER_BOUND ( 'NONE', #134, .T. ) ;
#20 = VECTOR ( 'NONE', #192, 1000.000000000000000 ) ;
#21 = EDGE_CURVE ( 'NONE', #471, #325, #416, .T. ) ;
#22 = FACE_OUTER_BOUND ( 'NONE', #270, .T. ) ;
#23 = SPHERICAL_SURFACE ( 'NONE', #507, 0.2000000000000000111 ) ;
#24 = AXIS2_PLACEMENT_3D ( 'NONE', #434, #475, #67 ) ;
#25 = SPHERICAL_SURFACE ( 'NONE', #367, 0.2000000000000000111 ) ;
#26 = DIRECTION ( 'NONE',  ( -1.000000000000000000, 0.000000000000000000, 0.000000000000000000 ) ) ;
#27 = EDGE_LOOP ( 'NONE', ( #473, #363, #186, #198 ) ) ;
#28 = LOCAL_TIME ( 13, 38, 40.00000000000000000, #165 ) ;
#29 = CC_DESIGN_DATE_AND_TIME_ASSIGNMENT ( #464, #136, ( #231 ) ) ;
#30 = ORIENTED_EDGE ( 'NONE', *, *, #492, .F. ) ;
#31 =( NAMED_UNIT ( * ) SI_UNIT ( $, .STERADIAN. ) SOLID_ANGLE_UNIT ( ) );
#32 = VECTOR ( 'NONE', #369, 1000.000000000000000 ) ;
#33 = ORIENTED_EDGE ( 'NONE', *, *, #199, .T. ) ;
#34 = AXIS2_PLACEMENT_3D ( 'NONE', #16, #480, #275 ) ;
#35 = DIRECTION ( 'NONE',  ( 0.000000000000000000, 0.000000000000000000, 1.000000000000000000 ) ) ;
#36 = COORDINATED_UNIVERSAL_TIME_OFFSET ( 8, 0, .AHEAD. ) ;
#37 = ORIENTED_EDGE ( 'NONE', *, *, #148, .F. ) ;
#38 = LINE ( 'NONE', #405, #32 ) ;
#39 = EDGE_CURVE ( 'NONE', #529, #228, #346, .T. ) ;
#40 = ORIENTED_EDGE ( 'NONE', *, *, #396, .T. ) ;
#41 = FACE_OUTER_BOUND ( 'NONE', #244, .T. ) ;
#42 = DATE_AND_TIME ( #299, #181 ) ;
#43 = DIRECTION ( 'NONE',  ( 0.000000000000000000, -1.000000000000000000, 0.000000000000000000 ) ) ;
#44 = ORIENTED_EDGE ( 'NONE', *, *, #11, .F. ) ;
#45 = CALENDAR_DATE ( 2026, 22, 3 ) ;
#46 = EDGE_CURVE ( 'NONE', #406, #522, #500, .T. ) ;
#47 = CARTESIAN_POINT ( 'NONE',  ( -5.999999999999999112, 0.8000000000000000444, -1.500000000000000000 ) ) ;
#48 = DIRECTION ( 'NONE',  ( 0.000000000000000000, 0.000000000000000000, 1.000000000000000000 ) ) ;
#49 = CIRCLE ( 'NONE', #392, 0.2000000000000000944 ) ;
#50 = LINE ( 'NONE', #393, #108 ) ;
#51 = PERSON_AND_ORGANIZATION ( #68, #124 ) ;
#52 = CYLINDRICAL_SURFACE ( 'NONE', #476, 0.2000000000000000944 ) ;
#53 = AXIS2_PLACEMENT_3D ( 'NONE', #517, #277, #109 ) ;
#54 = ORIENTED_EDGE ( 'NONE', *, *, #21, .F. ) ;
#55 = DIRECTION ( 'NONE',  ( -1.000000000000000000, 0.000000000000000000, 0.000000000000000000 ) ) ;
#56 = APPLICATION_CONTEXT ( 'configuration controlled 3d designs of mechanical parts and assemblies' ) ;
#57 = MANIFOLD_SOLID_BREP ( '\X2\570689d2\X0\1', #439 ) ;
#58 = CARTESIAN_POINT ( 'NONE',  ( -5.799999999999999822, 0.8000000000000000444, 1.300000000000000044 ) ) ;
#59 = AXIS2_PLACEMENT_3D ( 'NONE', #333, #498, #210 ) ;
#60 = VERTEX_POINT ( 'NONE', #217 ) ;
#61 = DIRECTION ( 'NONE',  ( 0.000000000000000000, 1.000000000000000000, 0.000000000000000000 ) ) ;
#62 = VECTOR ( 'NONE', #182, 1000.000000000000000 ) ;
#63 = DIRECTION ( 'NONE',  ( 0.000000000000000000, 0.000000000000000000, -1.000000000000000000 ) ) ;
#64 = DIRECTION ( 'NONE',  ( 0.000000000000000000, 0.000000000000000000, -1.000000000000000000 ) ) ;
#65 = CARTESIAN_POINT ( 'NONE',  ( 6.000000000000000888, 1.000000000000000000, -1.500000000000000000 ) ) ;
#66 = ORIENTED_EDGE ( 'NONE', *, *, #467, .T. ) ;
#67 = DIRECTION ( 'NONE',  ( 0.000000000000000000, 0.000000000000000000, 1.000000000000000000 ) ) ;
#68 = PERSON ( 'UNSPECIFIED', 'UNSPECIFIED', 'UNSPECIFIED', ('UNSPECIFIED'), ('UNSPECIFIED'), ('UNSPECIFIED') ) ;
#69 = DIRECTION ( 'NONE',  ( -0.000000000000000000, -0.000000000000000000, 1.000000000000000000 ) ) ;
#70 = PRODUCT_DEFINITION_SHAPE ( 'NONE', 'NONE',  #231 ) ;
#71 = CARTESIAN_POINT ( 'NONE',  ( -5.799999999999999822, 1.000000000000000000, -1.300000000000000044 ) ) ;
#72 = CIRCLE ( 'NONE', #408, 0.1999999999999999833 ) ;
#73 = VERTEX_POINT ( 'NONE', #176 ) ;
#74 = ADVANCED_FACE ( 'NONE', ( #174 ), #341, .F. ) ;
#75 = CC_DESIGN_PERSON_AND_ORGANIZATION_ASSIGNMENT ( #373, #541, ( #429 ) ) ;
#76 = ORIENTED_EDGE ( 'NONE', *, *, #10, .T. ) ;
#77 = CARTESIAN_POINT ( 'NONE',  ( -5.999999999999999112, 1.000000000000000000, -1.500000000000000000 ) ) ;
#78 = ORIENTED_EDGE ( 'NONE', *, *, #456, .T. ) ;
#79 = CARTESIAN_POINT ( 'NONE',  ( 5.800000000000001599, 0.8000000000000000444, 0.000000000000000000 ) ) ;
#80 = AXIS2_PLACEMENT_3D ( 'NONE', #164, #289, #162 ) ;
#81 = ORIENTED_EDGE ( 'NONE', *, *, #229, .T. ) ;
#82 = ADVANCED_FACE ( 'NONE', ( #377 ), #537, .T. ) ;
#83 = PERSON_AND_ORGANIZATION_ROLE ( 'design_supplier' ) ;
#84 = VERTEX_POINT ( 'NONE', #303 ) ;
#85 = CALENDAR_DATE ( 2026, 22, 3 ) ;
#86 = CARTESIAN_POINT ( 'NONE',  ( 5.800000000000002487, 1.000000000000000000, 1.500000000000000000 ) ) ;
#87 = AXIS2_PLACEMENT_3D ( 'NONE', #448, #539, #284 ) ;
#88 = EDGE_LOOP ( 'NONE', ( #322, #288, #355, #335 ) ) ;
#89 = EDGE_CURVE ( 'NONE', #228, #488, #460, .T. ) ;
#90 = DATE_AND_TIME ( #462, #461 ) ;
#91 = CYLINDRICAL_SURFACE ( 'NONE', #503, 0.1999999999999996503 ) ;
#92 = APPROVAL_ROLE ( '' ) ;
#93 = ORIENTED_EDGE ( 'NONE', *, *, #349, .F. ) ;
#94 = LINE ( 'NONE', #259, #308 ) ;
#95 = VECTOR ( 'NONE', #359, 1000.000000000000000 ) ;
#96 = APPLICATION_CONTEXT ( 'configuration controlled 3d designs of mechanical parts and assemblies' ) ;
#97 = APPROVAL ( #169, 'UNSPECIFIED' ) ;
#98 = CARTESIAN_POINT ( 'NONE',  ( -5.999999999999999112, 0.000000000000000000, 1.500000000000000000 ) ) ;
#99 = ORIENTED_EDGE ( 'NONE', *, *, #139, .T. ) ;
#100 = LINE ( 'NONE', #432, #62 ) ;
#101 = EDGE_LOOP ( 'NONE', ( #397, #490, #93, #268 ) ) ;
#102 = AXIS2_PLACEMENT_3D ( 'NONE', #398, #508, #189 ) ;
#103 = DIRECTION ( 'NONE',  ( 0.000000000000000000, 0.000000000000000000, -1.000000000000000000 ) ) ;
#104 = DIRECTION ( 'NONE',  ( -1.000000000000000000, 0.000000000000000000, 0.000000000000000000 ) ) ;
#105 = DIRECTION ( 'NONE',  ( -0.000000000000000000, 1.000000000000000000, 0.000000000000000000 ) ) ;
#106 = ADVANCED_FACE ( 'NONE', ( #381 ), #338, .T. ) ;
#107 = FACE_OUTER_BOUND ( 'NONE', #170, .T. ) ;
#108 = VECTOR ( 'NONE', #225, 1000.000000000000000 ) ;
#109 = DIRECTION ( 'NONE',  ( -1.000000000000000000, 0.000000000000000000, 0.000000000000000000 ) ) ;
#110 = CARTESIAN_POINT ( 'NONE',  ( -5.799999999999999822, 0.8000000000000000444, -1.500000000000000000 ) ) ;
#111 = ORIENTED_EDGE ( 'NONE', *, *, #280, .F. ) ;
#112 = CYLINDRICAL_SURFACE ( 'NONE', #496, 0.2000000000000000944 ) ;
#113 = ADVANCED_FACE ( 'NONE', ( #263 ), #91, .T. ) ;
#114 = CIRCLE ( 'NONE', #216, 0.2000000000000000944 ) ;
#115 = ORIENTED_EDGE ( 'NONE', *, *, #309, .F. ) ;
#116 =( LENGTH_UNIT ( ) NAMED_UNIT ( * ) SI_UNIT ( .MILLI., .METRE. ) );
#117 = VERTEX_POINT ( 'NONE', #344 ) ;
#118 = DIRECTION ( 'NONE',  ( 0.000000000000000000, 0.000000000000000000, -1.000000000000000000 ) ) ;
#119 = EDGE_LOOP ( 'NONE', ( #1, #465, #201 ) ) ;
#120 =( NAMED_UNIT ( * ) PLANE_ANGLE_UNIT ( ) SI_UNIT ( $, .RADIAN. ) );
#121 = ORIENTED_EDGE ( 'NONE', *, *, #21, .T. ) ;
#122 = CARTESIAN_POINT ( 'NONE',  ( 6.000000000000000888, 0.8000000000000000444, 1.300000000000000044 ) ) ;
#123 = ADVANCED_FACE ( 'NONE', ( #138 ), #472, .T. ) ;
#124 = ORGANIZATION ( 'UNSPECIFIED', 'UNSPECIFIED', '' ) ;
#125 = APPROVAL_DATE_TIME ( #90, #131 ) ;
#126 = ORIENTED_EDGE ( 'NONE', *, *, #492, .T. ) ;
#127 = CARTESIAN_POINT ( 'NONE',  ( -5.999999999999999112, 0.000000000000000000, 1.300000000000000044 ) ) ;
#128 = VERTEX_POINT ( 'NONE', #482 ) ;
#129 = ADVANCED_FACE ( 'NONE', ( #153 ), #317, .T. ) ;
#130 = CARTESIAN_POINT ( 'NONE',  ( 5.800000000000001599, 1.000000000000000000, 1.300000000000000044 ) ) ;
#131 = APPROVAL ( #387, 'UNSPECIFIED' ) ;
#132 = CC_DESIGN_APPROVAL ( #97, ( #422 ) ) ;
#133 = PERSON_AND_ORGANIZATION ( #68, #124 ) ;
#134 = EDGE_LOOP ( 'NONE', ( #44, #447, #161, #314 ) ) ;
#135 = CIRCLE ( 'NONE', #206, 0.2000000000000000944 ) ;
#136 = DATE_TIME_ROLE ( 'creation_date' ) ;
#137 = CARTESIAN_POINT ( 'NONE',  ( 5.800000000000001599, 0.8000000000000000444, 1.300000000000000044 ) ) ;
#138 = FACE_OUTER_BOUND ( 'NONE', #414, .T. ) ;
#139 = EDGE_CURVE ( 'NONE', #212, #379, #431, .T. ) ;
#140 = PLANE ( 'NONE',  #345 ) ;
#141 = CIRCLE ( 'NONE', #59, 0.2000000000000000944 ) ;
#142 = CARTESIAN_POINT ( 'NONE',  ( 5.800000000000002487, 0.000000000000000000, -1.500000000000000000 ) ) ;
#143 = DESIGN_CONTEXT ( 'detailed design', #56, 'design' ) ;
#144 = VERTEX_POINT ( 'NONE', #110 ) ;
#145 = DIRECTION ( 'NONE',  ( -1.000000000000000000, 0.000000000000000000, 0.000000000000000000 ) ) ;
#146 = LINE ( 'NONE', #185, #264 ) ;
#147 = ORIENTED_EDGE ( 'NONE', *, *, #11, .T. ) ;
#148 = EDGE_CURVE ( 'NONE', #471, #250, #100, .T. ) ;
#149 = CARTESIAN_POINT ( 'NONE',  ( -5.799999999999999822, 0.8000000000000000444, 1.300000000000000044 ) ) ;
#150 = PLANE ( 'NONE',  #209 ) ;
#151 = CIRCLE ( 'NONE', #24, 0.2000000000000000944 ) ;
#152 = DIRECTION ( 'NONE',  ( 0.000000000000000000, 0.000000000000000000, 1.000000000000000000 ) ) ;
#153 = FACE_OUTER_BOUND ( 'NONE', #409, .T. ) ;
#154 = ORIENTED_EDGE ( 'NONE', *, *, #229, .F. ) ;
#155 = CARTESIAN_POINT ( 'NONE',  ( -5.999999999999999112, 0.8000000000000000444, 1.500000000000000000 ) ) ;
#156 = ORIENTED_EDGE ( 'NONE', *, *, #207, .F. ) ;
#157 = LINE ( 'NONE', #323, #267 ) ;
#158 = CC_DESIGN_PERSON_AND_ORGANIZATION_ASSIGNMENT ( #495, #532, ( #422 ) ) ;
#159 = ORIENTED_EDGE ( 'NONE', *, *, #5, .T. ) ;
#160 = CARTESIAN_POINT ( 'NONE',  ( 5.800000000000001599, 0.8000000000000000444, 1.300000000000000044 ) ) ;
#161 = ORIENTED_EDGE ( 'NONE', *, *, #366, .F. ) ;
#162 = DIRECTION ( 'NONE',  ( 1.000000000000000000, 0.000000000000000000, 0.000000000000000000 ) ) ;
#163 = ORIENTED_EDGE ( 'NONE', *, *, #528, .F. ) ;
#164 = CARTESIAN_POINT ( 'NONE',  ( 0.000000000000000000, 0.000000000000000000, 0.000000000000000000 ) ) ;
#165 = COORDINATED_UNIVERSAL_TIME_OFFSET ( 8, 0, .AHEAD. ) ;
#166 = ORIENTED_EDGE ( 'NONE', *, *, #366, .T. ) ;
#167 = CARTESIAN_POINT ( 'NONE',  ( 5.800000000000001599, 0.8000000000000000444, 1.500000000000000000 ) ) ;
#168 = CIRCLE ( 'NONE', #384, 0.2000000000000000944 ) ;
#169 = APPROVAL_STATUS ( 'not_yet_approved' ) ;
#170 = EDGE_LOOP ( 'NONE', ( #99, #442, #331, #445 ) ) ;
#171 = EDGE_CURVE ( 'NONE', #144, #488, #135, .T. ) ;
#172 = PERSON_AND_ORGANIZATION ( #68, #124 ) ;
#173 = VECTOR ( 'NONE', #26, 1000.000000000000000 ) ;
#174 = FACE_OUTER_BOUND ( 'NONE', #351, .T. ) ;
#175 = VECTOR ( 'NONE', #195, 1000.000000000000000 ) ;
#176 = CARTESIAN_POINT ( 'NONE',  ( 6.000000000000000888, 0.8000000000000000444, -1.300000000000000044 ) ) ;
#177 = AXIS2_PLACEMENT_3D ( 'NONE', #526, #489, #118 ) ;
#178 = DIRECTION ( 'NONE',  ( -1.000000000000000000, 0.000000000000000000, 0.000000000000000000 ) ) ;
#179 = DIRECTION ( 'NONE',  ( -0.000000000000000000, 1.000000000000000000, -0.000000000000000000 ) ) ;
#180 = ADVANCED_FACE ( 'NONE', ( #12 ), #150, .F. ) ;
#181 = LOCAL_TIME ( 13, 38, 40.00000000000000000, #219 ) ;
#182 = DIRECTION ( 'NONE',  ( 0.000000000000000000, -1.000000000000000000, 0.000000000000000000 ) ) ;
#183 = PERSON_AND_ORGANIZATION ( #68, #124 ) ;
#184 = AXIS2_PLACEMENT_3D ( 'NONE', #137, #48, #457 ) ;
#185 = CARTESIAN_POINT ( 'NONE',  ( -5.799999999999999822, 1.000000000000000000, 1.500000000000000000 ) ) ;
#186 = ORIENTED_EDGE ( 'NONE', *, *, #287, .T. ) ;
#187 = CARTESIAN_POINT ( 'NONE',  ( 5.800000000000001599, 1.000000000000000000, -1.500000000000000000 ) ) ;
#188 = VECTOR ( 'NONE', #179, 1000.000000000000000 ) ;
#189 = DIRECTION ( 'NONE',  ( 0.000000000000000000, 0.000000000000000000, -1.000000000000000000 ) ) ;
#190 = ADVANCED_FACE ( 'NONE', ( #347 ), #140, .F. ) ;
#191 = DIRECTION ( 'NONE',  ( -0.000000000000000000, 1.000000000000000000, 0.000000000000000000 ) ) ;
#192 = DIRECTION ( 'NONE',  ( 1.000000000000000000, 0.000000000000000000, 0.000000000000000000 ) ) ;
#193 = CYLINDRICAL_SURFACE ( 'NONE', #450, 0.2000000000000000944 ) ;
#194 = VECTOR ( 'NONE', #224, 1000.000000000000000 ) ;
#195 = DIRECTION ( 'NONE',  ( -0.000000000000000000, -0.000000000000000000, -1.000000000000000000 ) ) ;
#196 = AXIS2_PLACEMENT_3D ( 'NONE', #15, #234, #394 ) ;
#197 = DIRECTION ( 'NONE',  ( 0.000000000000000000, 1.000000000000000000, 0.000000000000000000 ) ) ;
#198 = ORIENTED_EDGE ( 'NONE', *, *, #148, .T. ) ;
#199 = EDGE_CURVE ( 'NONE', #212, #325, #50, .T. ) ;
#200 = CARTESIAN_POINT ( 'NONE',  ( -5.799999999999999822, 0.8000000000000000444, -1.300000000000000044 ) ) ;
#201 = ORIENTED_EDGE ( 'NONE', *, *, #455, .F. ) ;
#202 = FACE_OUTER_BOUND ( 'NONE', #329, .T. ) ;
#203 = ORIENTED_EDGE ( 'NONE', *, *, #240, .F. ) ;
#204 = VECTOR ( 'NONE', #321, 1000.000000000000000 ) ;
#205 = CYLINDRICAL_SURFACE ( 'NONE', #378, 0.1999999999999996503 ) ;
#206 = AXIS2_PLACEMENT_3D ( 'NONE', #320, #426, #233 ) ;
#207 = EDGE_CURVE ( 'NONE', #375, #73, #235, .T. ) ;
#208 = ORIENTED_EDGE ( 'NONE', *, *, #449, .T. ) ;
#209 = AXIS2_PLACEMENT_3D ( 'NONE', #278, #513, #63 ) ;
#210 = DIRECTION ( 'NONE',  ( 0.000000000000000000, 0.000000000000000000, 1.000000000000000000 ) ) ;
#211 = PERSON_AND_ORGANIZATION ( #68, #124 ) ;
#212 = VERTEX_POINT ( 'NONE', #7 ) ;
#213 = DIRECTION ( 'NONE',  ( -4.336808689942017736E-15, 1.000000000000000000, 0.000000000000000000 ) ) ;
#214 = AXIS2_PLACEMENT_3D ( 'NONE', #237, #191, #64 ) ;
#215 = PERSON_AND_ORGANIZATION_ROLE ( 'creator' ) ;
#216 = AXIS2_PLACEMENT_3D ( 'NONE', #504, #499, #306 ) ;
#217 = CARTESIAN_POINT ( 'NONE',  ( -5.799999999999999822, 0.000000000000000000, -1.500000000000000000 ) ) ;
#218 = ADVANCED_FACE ( 'NONE', ( #22 ), #425, .T. ) ;
#219 = COORDINATED_UNIVERSAL_TIME_OFFSET ( 8, 0, .AHEAD. ) ;
#220 = DIRECTION ( 'NONE',  ( 0.000000000000000000, -0.000000000000000000, -1.000000000000000000 ) ) ;
#221 = DIRECTION ( 'NONE',  ( 0.000000000000000000, -1.000000000000000000, 0.000000000000000000 ) ) ;
#222 = SECURITY_CLASSIFICATION_LEVEL ( 'unclassified' ) ;
#223 = ORIENTED_EDGE ( 'NONE', *, *, #247, .T. ) ;
#224 = DIRECTION ( 'NONE',  ( -0.000000000000000000, 1.000000000000000000, -0.000000000000000000 ) ) ;
#225 = DIRECTION ( 'NONE',  ( 1.000000000000000000, -0.000000000000000000, 0.000000000000000000 ) ) ;
#226 = APPLICATION_PROTOCOL_DEFINITION ( 'international standard', 'config_control_design', 1994, #56 ) ;
#227 = DIRECTION ( 'NONE',  ( -0.000000000000000000, 0.000000000000000000, 1.000000000000000000 ) ) ;
#228 = VERTEX_POINT ( 'NONE', #18 ) ;
#229 = EDGE_CURVE ( 'NONE', #128, #406, #470, .T. ) ;
#230 = DIRECTION ( 'NONE',  ( 0.000000000000000000, -0.000000000000000000, 1.000000000000000000 ) ) ;
#231 = PRODUCT_DEFINITION ( 'UNKNOWN', '', #422, #143 ) ;
#232 = APPROVAL_PERSON_ORGANIZATION ( #172, #97, #92 ) ;
#233 = DIRECTION ( 'NONE',  ( 0.000000000000000000, 0.000000000000000000, 1.000000000000000000 ) ) ;
#234 = DIRECTION ( 'NONE',  ( 0.000000000000000000, 0.000000000000000000, -1.000000000000000000 ) ) ;
#235 = LINE ( 'NONE', #310, #251 ) ;
#236 = EDGE_LOOP ( 'NONE', ( #163, #266, #511, #156 ) ) ;
#237 = CARTESIAN_POINT ( 'NONE',  ( 5.800000000000001599, 0.8000000000000000444, 1.300000000000000044 ) ) ;
#238 = DIRECTION ( 'NONE',  ( 0.000000000000000000, 0.000000000000000000, 1.000000000000000000 ) ) ;
#239 = DIRECTION ( 'NONE',  ( 0.000000000000000000, 0.000000000000000000, 1.000000000000000000 ) ) ;
#240 = EDGE_CURVE ( 'NONE', #117, #60, #382, .T. ) ;
#241 = LINE ( 'NONE', #428, #388 ) ;
#242 = CIRCLE ( 'NONE', #479, 0.2000000000000000944 ) ;
#243 = LINE ( 'NONE', #187, #204 ) ;
#244 = EDGE_LOOP ( 'NONE', ( #76, #126, #248, #66 ) ) ;
#245 = MECHANICAL_CONTEXT ( 'NONE', #96, 'mechanical' ) ;
#246 = VERTEX_POINT ( 'NONE', #354 ) ;
#247 = EDGE_CURVE ( 'NONE', #438, #212, #146, .T. ) ;
#248 = ORIENTED_EDGE ( 'NONE', *, *, #441, .T. ) ;
#249 = DIRECTION ( 'NONE',  ( 1.000000000000000000, 0.000000000000000000, -0.000000000000000000 ) ) ;
#250 = VERTEX_POINT ( 'NONE', #313 ) ;
#251 = VECTOR ( 'NONE', #395, 1000.000000000000000 ) ;
#252 = DIRECTION ( 'NONE',  ( -0.000000000000000000, -1.000000000000000000, -0.000000000000000000 ) ) ;
#253 = APPROVAL_DATE_TIME ( #42, #297 ) ;
#254 = ORIENTED_EDGE ( 'NONE', *, *, #485, .F. ) ;
#255 = DIRECTION ( 'NONE',  ( 0.000000000000000000, 0.000000000000000000, 1.000000000000000000 ) ) ;
#256 = VECTOR ( 'NONE', #69, 1000.000000000000000 ) ;
#257 = CC_DESIGN_DATE_AND_TIME_ASSIGNMENT ( #337, #293, ( #429 ) ) ;
#258 = ADVANCED_FACE ( 'NONE', ( #107 ), #52, .T. ) ;
#259 = CARTESIAN_POINT ( 'NONE',  ( -5.999999999999999112, 0.000000000000000000, -1.500000000000000000 ) ) ;
#260 = CARTESIAN_POINT ( 'NONE',  ( 0.000000000000000000, 0.000000000000000000, 0.000000000000000000 ) ) ;
#261 = AXIS2_PLACEMENT_3D ( 'NONE', #58, #272, #386 ) ;
#262 = DATE_AND_TIME ( #45, #370 ) ;
#263 = FACE_OUTER_BOUND ( 'NONE', #101, .T. ) ;
#264 = VECTOR ( 'NONE', #227, 1000.000000000000000 ) ;
#265 = APPROVAL_DATE_TIME ( #262, #97 ) ;
#266 = ORIENTED_EDGE ( 'NONE', *, *, #467, .F. ) ;
#267 = VECTOR ( 'NONE', #512, 1000.000000000000000 ) ;
#268 = ORIENTED_EDGE ( 'NONE', *, *, #247, .F. ) ;
#269 = DIRECTION ( 'NONE',  ( -0.000000000000000000, -1.000000000000000000, -0.000000000000000000 ) ) ;
#270 = EDGE_LOOP ( 'NONE', ( #203, #417, #411, #30 ) ) ;
#271 = FACE_OUTER_BOUND ( 'NONE', #368, .T. ) ;
#272 = DIRECTION ( 'NONE',  ( 0.000000000000000000, 1.000000000000000000, -0.000000000000000000 ) ) ;
#273 = CARTESIAN_POINT ( 'NONE',  ( 5.800000000000001599, 0.8000000000000000444, -1.300000000000000044 ) ) ;
#274 = AXIS2_PLACEMENT_3D ( 'NONE', #149, #230, #364 ) ;
#275 = DIRECTION ( 'NONE',  ( 0.000000000000000000, -0.000000000000000000, 1.000000000000000000 ) ) ;
#276 = ORIENTED_EDGE ( 'NONE', *, *, #343, .F. ) ;
#277 = DIRECTION ( 'NONE',  ( -0.000000000000000000, -0.000000000000000000, 1.000000000000000000 ) ) ;
#278 = CARTESIAN_POINT ( 'NONE',  ( -5.999999999999999112, 1.000000000000000000, -1.500000000000000000 ) ) ;
#279 = FACE_OUTER_BOUND ( 'NONE', #318, .T. ) ;
#280 = EDGE_CURVE ( 'NONE', #250, #375, #435, .T. ) ;
#281 = ORIENTED_EDGE ( 'NONE', *, *, #46, .T. ) ;
#282 = DIRECTION ( 'NONE',  ( 0.000000000000000000, -1.000000000000000000, 0.000000000000000000 ) ) ;
#283 = VERTEX_POINT ( 'NONE', #142 ) ;
#284 = DIRECTION ( 'NONE',  ( -1.000000000000000000, 0.000000000000000000, 0.000000000000000000 ) ) ;
#285 = EDGE_LOOP ( 'NONE', ( #40, #159, #81, #281 ) ) ;
#286 = CARTESIAN_POINT ( 'NONE',  ( -5.999999999999999112, 0.000000000000000000, -1.500000000000000000 ) ) ;
#287 = EDGE_CURVE ( 'NONE', #73, #471, #350, .T. ) ;
#288 = ORIENTED_EDGE ( 'NONE', *, *, #39, .T. ) ;
#289 = DIRECTION ( 'NONE',  ( 0.000000000000000000, 0.000000000000000000, 1.000000000000000000 ) ) ;
#290 = ORIENTED_EDGE ( 'NONE', *, *, #349, .T. ) ;
#291 = CC_DESIGN_APPROVAL ( #131, ( #231 ) ) ;
#292 = DIRECTION ( 'NONE',  ( -1.301042606982604690E-14, 0.000000000000000000, 1.000000000000000000 ) ) ;
#293 = DATE_TIME_ROLE ( 'classification_date' ) ;
#294 = ORIENTED_EDGE ( 'NONE', *, *, #441, .F. ) ;
#295 = AXIS2_PLACEMENT_3D ( 'NONE', #424, #311, #519 ) ;
#296 = CARTESIAN_POINT ( 'NONE',  ( -5.999999999999999112, 0.8000000000000000444, -1.300000000000000044 ) ) ;
#297 = APPROVAL ( #458, 'UNSPECIFIED' ) ;
#298 = ADVANCED_FACE ( 'NONE', ( #402 ), #25, .T. ) ;
#299 = CALENDAR_DATE ( 2026, 22, 3 ) ;
#300 = CARTESIAN_POINT ( 'NONE',  ( -5.999999999999999112, 1.000000000000000000, 1.300000000000000044 ) ) ;
#301 = CARTESIAN_POINT ( 'NONE',  ( 0.000000000000000000, 0.8000000000000000444, -1.300000000000000044 ) ) ;
#302 = CIRCLE ( 'NONE', #401, 0.2000000000000000944 ) ;
#303 = CARTESIAN_POINT ( 'NONE',  ( 5.800000000000001599, 1.000000000000000000, -1.300000000000000044 ) ) ;
#304 = EDGE_CURVE ( 'NONE', #488, #117, #241, .T. ) ;
#305 = CALENDAR_DATE ( 2026, 22, 3 ) ;
#306 = DIRECTION ( 'NONE',  ( 0.000000000000000000, 0.000000000000000000, 1.000000000000000000 ) ) ;
#307 = LINE ( 'NONE', #420, #534 ) ;
#308 = VECTOR ( 'NONE', #2, 1000.000000000000000 ) ;
#309 = EDGE_CURVE ( 'NONE', #73, #84, #524, .T. ) ;
#310 = CARTESIAN_POINT ( 'NONE',  ( 6.000000000000000888, 1.000000000000000000, -1.300000000000000044 ) ) ;
#311 = DIRECTION ( 'NONE',  ( 1.000000000000000000, -0.000000000000000000, -0.000000000000000000 ) ) ;
#312 = PLANE ( 'NONE',  #196 ) ;
#313 = CARTESIAN_POINT ( 'NONE',  ( 6.000000000000000888, 0.000000000000000000, 1.300000000000000044 ) ) ;
#314 = ORIENTED_EDGE ( 'NONE', *, *, #39, .F. ) ;
#315 = CARTESIAN_POINT ( 'NONE',  ( -5.999999999999999112, 1.000000000000000000, -1.300000000000000044 ) ) ;
#316 =( GEOMETRIC_REPRESENTATION_CONTEXT ( 3 ) GLOBAL_UNCERTAINTY_ASSIGNED_CONTEXT ( ( #13 ) ) GLOBAL_UNIT_ASSIGNED_CONTEXT ( ( #116, #120, #31 ) ) REPRESENTATION_CONTEXT ( 'NONE', 'WORKASPACE' ) );
#317 = PLANE ( 'NONE',  #34 ) ;
#318 = EDGE_LOOP ( 'NONE', ( #390, #497, #115 ) ) ;
#319 = FACE_OUTER_BOUND ( 'NONE', #285, .T. ) ;
#320 = CARTESIAN_POINT ( 'NONE',  ( -5.799999999999999822, 0.8000000000000000444, -1.300000000000000044 ) ) ;
#321 = DIRECTION ( 'NONE',  ( 0.000000000000000000, 0.000000000000000000, -1.000000000000000000 ) ) ;
#322 = ORIENTED_EDGE ( 'NONE', *, *, #485, .T. ) ;
#323 = CARTESIAN_POINT ( 'NONE',  ( 6.000000000000000888, 0.8000000000000000444, -1.500000000000000000 ) ) ;
#324 = ADVANCED_FACE ( 'NONE', ( #271 ), #487, .T. ) ;
#325 = VERTEX_POINT ( 'NONE', #399 ) ;
#326 = DIRECTION ( 'NONE',  ( 0.000000000000000000, 1.000000000000000000, 0.000000000000000000 ) ) ;
#327 = ORIENTED_EDGE ( 'NONE', *, *, #10, .F. ) ;
#328 = APPLICATION_PROTOCOL_DEFINITION ( 'international standard', 'config_control_design', 1994, #96 ) ;
#329 = EDGE_LOOP ( 'NONE', ( #433, #427, #54, #483 ) ) ;
#330 = COORDINATED_UNIVERSAL_TIME_OFFSET ( 8, 0, .AHEAD. ) ;
#331 = ORIENTED_EDGE ( 'NONE', *, *, #540, .T. ) ;
#332 = CIRCLE ( 'NONE', #87, 0.1999999999999996503 ) ;
#333 = CARTESIAN_POINT ( 'NONE',  ( 5.800000000000002487, 0.000000000000000000, -1.300000000000000044 ) ) ;
#334 = ADVANCED_FACE ( 'NONE', ( #279 ), #23, .T. ) ;
#335 = ORIENTED_EDGE ( 'NONE', *, *, #304, .T. ) ;
#336 = CARTESIAN_POINT ( 'NONE',  ( 5.800000000000002487, 1.000000000000000000, -1.500000000000000000 ) ) ;
#337 = DATE_AND_TIME ( #305, #28 ) ;
#338 = CYLINDRICAL_SURFACE ( 'NONE', #352, 0.2000000000000000944 ) ;
#339 = CC_DESIGN_SECURITY_CLASSIFICATION ( #429, ( #422 ) ) ;
#340 = PERSON_AND_ORGANIZATION ( #68, #124 ) ;
#341 = PLANE ( 'NONE',  #530 ) ;
#342 = EDGE_CURVE ( 'NONE', #84, #438, #436, .T. ) ;
#343 = EDGE_CURVE ( 'NONE', #438, #144, #168, .T. ) ;
#344 = CARTESIAN_POINT ( 'NONE',  ( -5.999999999999999112, 0.000000000000000000, -1.300000000000000044 ) ) ;
#345 = AXIS2_PLACEMENT_3D ( 'NONE', #65, #104, #238 ) ;
#346 = LINE ( 'NONE', #300, #194 ) ;
#347 = FACE_OUTER_BOUND ( 'NONE', #27, .T. ) ;
#348 = PERSON_AND_ORGANIZATION_ROLE ( 'design_owner' ) ;
#349 = EDGE_CURVE ( 'NONE', #212, #228, #468, .T. ) ;
#350 = LINE ( 'NONE', #437, #256 ) ;
#351 = EDGE_LOOP ( 'NONE', ( #154, #147, #254, #451, #327, #14, #111, #78 ) ) ;
#352 = AXIS2_PLACEMENT_3D ( 'NONE', #301, #463, #6 ) ;
#353 = CARTESIAN_POINT ( 'NONE',  ( 5.800000000000002487, 1.000000000000000000, -1.300000000000000044 ) ) ;
#354 = CARTESIAN_POINT ( 'NONE',  ( 5.800000000000002487, 0.8000000000000000444, -1.500000000000000000 ) ) ;
#355 = ORIENTED_EDGE ( 'NONE', *, *, #89, .T. ) ;
#356 = CARTESIAN_POINT ( 'NONE',  ( 5.800000000000001599, 0.8000000000000000444, -1.300000000000000044 ) ) ;
#357 = DIRECTION ( 'NONE',  ( -1.000000000000000000, 0.000000000000000000, 0.000000000000000000 ) ) ;
#358 = CC_DESIGN_PERSON_AND_ORGANIZATION_ASSIGNMENT ( #183, #348, ( #400 ) ) ;
#359 = DIRECTION ( 'NONE',  ( -1.000000000000000000, -0.000000000000000000, -0.000000000000000000 ) ) ;
#360 = LOCAL_TIME ( 13, 38, 40.00000000000000000, #36 ) ;
#361 = CARTESIAN_POINT ( 'NONE',  ( -5.799999999999999822, 0.000000000000000000, -1.300000000000000044 ) ) ;
#362 = CARTESIAN_POINT ( 'NONE',  ( -5.799999999999999822, 0.8000000000000000444, -1.300000000000000044 ) ) ;
#363 = ORIENTED_EDGE ( 'NONE', *, *, #207, .T. ) ;
#364 = DIRECTION ( 'NONE',  ( 1.000000000000000000, 0.000000000000000000, 0.000000000000000000 ) ) ;
#365 = ADVANCED_FACE ( 'NONE', ( #319 ), #312, .F. ) ;
#366 = EDGE_CURVE ( 'NONE', #228, #379, #151, .T. ) ;
#367 = AXIS2_PLACEMENT_3D ( 'NONE', #362, #197, #145 ) ;
#368 = EDGE_LOOP ( 'NONE', ( #208, #121, #404 ) ) ;
#369 = DIRECTION ( 'NONE',  ( -0.000000000000000000, 1.000000000000000000, -0.000000000000000000 ) ) ;
#370 = LOCAL_TIME ( 13, 38, 40.00000000000000000, #330 ) ;
#371 = ORIENTED_EDGE ( 'NONE', *, *, #418, .T. ) ;
#372 = ORIENTED_EDGE ( 'NONE', *, *, #342, .T. ) ;
#373 = PERSON_AND_ORGANIZATION ( #68, #124 ) ;
#374 = ADVANCED_FACE ( 'NONE', ( #19 ), #193, .T. ) ;
#375 = VERTEX_POINT ( 'NONE', #521 ) ;
#376 = DIRECTION ( 'NONE',  ( 0.000000000000000000, 0.000000000000000000, 1.000000000000000000 ) ) ;
#377 = FACE_OUTER_BOUND ( 'NONE', #453, .T. ) ;
#378 = AXIS2_PLACEMENT_3D ( 'NONE', #79, #415, #491 ) ;
#379 = VERTEX_POINT ( 'NONE', #391 ) ;
#380 = CC_DESIGN_PERSON_AND_ORGANIZATION_ASSIGNMENT ( #340, #215, ( #231 ) ) ;
#381 = FACE_OUTER_BOUND ( 'NONE', #501, .T. ) ;
#382 = CIRCLE ( 'NONE', #515, 0.2000000000000000944 ) ;
#383 = DIRECTION ( 'NONE',  ( 0.000000000000000000, 1.000000000000000000, 0.000000000000000000 ) ) ;
#384 = AXIS2_PLACEMENT_3D ( 'NONE', #200, #55, #152 ) ;
#385 = DIRECTION ( 'NONE',  ( 0.000000000000000000, -0.000000000000000000, 1.000000000000000000 ) ) ;
#386 = DIRECTION ( 'NONE',  ( 0.000000000000000000, 0.000000000000000000, 1.000000000000000000 ) ) ;
#387 = APPROVAL_STATUS ( 'not_yet_approved' ) ;
#388 = VECTOR ( 'NONE', #403, 1000.000000000000000 ) ;
#389 = DIRECTION ( 'NONE',  ( 0.000000000000000000, 0.000000000000000000, 1.000000000000000000 ) ) ;
#390 = ORIENTED_EDGE ( 'NONE', *, *, #423, .T. ) ;
#391 = CARTESIAN_POINT ( 'NONE',  ( -5.799999999999999822, 0.8000000000000000444, 1.500000000000000000 ) ) ;
#392 = AXIS2_PLACEMENT_3D ( 'NONE', #356, #105, #239 ) ;
#393 = CARTESIAN_POINT ( 'NONE',  ( 6.000000000000000888, 1.000000000000000000, 1.300000000000000044 ) ) ;
#394 = DIRECTION ( 'NONE',  ( -1.000000000000000000, 0.000000000000000000, -0.000000000000000000 ) ) ;
#395 = DIRECTION ( 'NONE',  ( -0.000000000000000000, 1.000000000000000000, -0.000000000000000000 ) ) ;
#396 = EDGE_CURVE ( 'NONE', #522, #379, #478, .T. ) ;
#397 = ORIENTED_EDGE ( 'NONE', *, *, #455, .T. ) ;
#398 = CARTESIAN_POINT ( 'NONE',  ( -5.799999999999999822, 1.000000000000000000, -1.300000000000000044 ) ) ;
#399 = CARTESIAN_POINT ( 'NONE',  ( 5.800000000000001599, 1.000000000000000000, 1.300000000000000044 ) ) ;
#400 = PRODUCT ( 'BAR3X12T1', 'BAR3X12T1', '', ( #245 ) ) ;
#401 = AXIS2_PLACEMENT_3D ( 'NONE', #160, #326, #35 ) ;
#402 = FACE_OUTER_BOUND ( 'NONE', #119, .T. ) ;
#403 = DIRECTION ( 'NONE',  ( 0.000000000000000000, -1.000000000000000000, 0.000000000000000000 ) ) ;
#404 = ORIENTED_EDGE ( 'NONE', *, *, #540, .F. ) ;
#405 = CARTESIAN_POINT ( 'NONE',  ( -5.799999999999999822, 1.000000000000000000, -1.500000000000000000 ) ) ;
#406 = VERTEX_POINT ( 'NONE', #17 ) ;
#407 = CARTESIAN_POINT ( 'NONE',  ( 5.800000000000002487, 0.8000000000000000444, -1.300000000000000044 ) ) ;
#408 = AXIS2_PLACEMENT_3D ( 'NONE', #407, #410, #213 ) ;
#409 = EDGE_LOOP ( 'NONE', ( #223, #33, #371, #372 ) ) ;
#410 = DIRECTION ( 'NONE',  ( 1.000000000000000000, 4.336808689942018525E-15, 0.000000000000000000 ) ) ;
#411 = ORIENTED_EDGE ( 'NONE', *, *, #171, .F. ) ;
#412 = LINE ( 'NONE', #286, #502 ) ;
#413 = SHAPE_DEFINITION_REPRESENTATION ( #70, #505 ) ;
#414 = EDGE_LOOP ( 'NONE', ( #290, #166, #486 ) ) ;
#415 = DIRECTION ( 'NONE',  ( 0.000000000000000000, -0.000000000000000000, 1.000000000000000000 ) ) ;
#416 = CIRCLE ( 'NONE', #184, 0.1999999999999996503 ) ;
#417 = ORIENTED_EDGE ( 'NONE', *, *, #304, .F. ) ;
#418 = EDGE_CURVE ( 'NONE', #325, #84, #243, .T. ) ;
#419 = CARTESIAN_POINT ( 'NONE',  ( -5.799999999999999822, 0.8000000000000000444, 0.000000000000000000 ) ) ;
#420 = CARTESIAN_POINT ( 'NONE',  ( -5.799999999999999822, 1.000000000000000000, 1.500000000000000000 ) ) ;
#421 = ORIENTED_EDGE ( 'NONE', *, *, #46, .F. ) ;
#422 = PRODUCT_DEFINITION_FORMATION_WITH_SPECIFIED_SOURCE ( 'ANY', '', #400, .NOT_KNOWN. ) ;
#423 = EDGE_CURVE ( 'NONE', #73, #246, #49, .T. ) ;
#424 = CARTESIAN_POINT ( 'NONE',  ( -5.799999999999999822, 0.8000000000000000444, 1.300000000000000044 ) ) ;
#425 = CYLINDRICAL_SURFACE ( 'NONE', #102, 0.2000000000000000944 ) ;
#426 = DIRECTION ( 'NONE',  ( 0.000000000000000000, 1.000000000000000000, 0.000000000000000000 ) ) ;
#427 = ORIENTED_EDGE ( 'NONE', *, *, #418, .F. ) ;
#428 = CARTESIAN_POINT ( 'NONE',  ( -5.999999999999999112, 1.000000000000000000, -1.300000000000000044 ) ) ;
#429 = SECURITY_CLASSIFICATION ( '', '', #222 ) ;
#430 = ADVANCED_FACE ( 'NONE', ( #484 ), #112, .T. ) ;
#431 = CIRCLE ( 'NONE', #295, 0.2000000000000000944 ) ;
#432 = CARTESIAN_POINT ( 'NONE',  ( 6.000000000000000888, 1.000000000000000000, 1.300000000000000044 ) ) ;
#433 = ORIENTED_EDGE ( 'NONE', *, *, #309, .T. ) ;
#434 = CARTESIAN_POINT ( 'NONE',  ( -5.799999999999999822, 0.8000000000000000444, 1.300000000000000044 ) ) ;
#435 = LINE ( 'NONE', #510, #175 ) ;
#436 = LINE ( 'NONE', #315, #173 ) ;
#437 = CARTESIAN_POINT ( 'NONE',  ( 6.000000000000000888, 0.8000000000000000444, 1.500000000000000000 ) ) ;
#438 = VERTEX_POINT ( 'NONE', #71 ) ;
#439 = CLOSED_SHELL ( 'NONE', ( #190, #520, #180, #365, #129, #74, #218, #106, #430, #298, #334, #374, #113, #474, #82, #123, #324, #258 ) ) ;
#440 = DIRECTION ( 'NONE',  ( 0.000000000000000000, 0.000000000000000000, -1.000000000000000000 ) ) ;
#441 = EDGE_CURVE ( 'NONE', #144, #246, #157, .T. ) ;
#442 = ORIENTED_EDGE ( 'NONE', *, *, #396, .F. ) ;
#443 = VECTOR ( 'NONE', #220, 1000.000000000000000 ) ;
#444 = LINE ( 'NONE', #336, #536 ) ;
#445 = ORIENTED_EDGE ( 'NONE', *, *, #199, .F. ) ;
#446 = PLANE ( 'NONE',  #527 ) ;
#447 = ORIENTED_EDGE ( 'NONE', *, *, #5, .F. ) ;
#448 = CARTESIAN_POINT ( 'NONE',  ( -5.799999999999999822, 0.8000000000000000444, -1.300000000000000044 ) ) ;
#449 = EDGE_CURVE ( 'NONE', #522, #471, #302, .T. ) ;
#450 = AXIS2_PLACEMENT_3D ( 'NONE', #514, #523, #103 ) ;
#451 = ORIENTED_EDGE ( 'NONE', *, *, #240, .T. ) ;
#452 = APPROVAL_ROLE ( '' ) ;
#453 = EDGE_LOOP ( 'NONE', ( #493, #37, #531, #421 ) ) ;
#454 = COORDINATED_UNIVERSAL_TIME_OFFSET ( 8, 0, .AHEAD. ) ;
#455 = EDGE_CURVE ( 'NONE', #438, #488, #332, .T. ) ;
#456 = EDGE_CURVE ( 'NONE', #250, #406, #242, .T. ) ;
#457 = DIRECTION ( 'NONE',  ( 1.000000000000000000, 0.000000000000000000, 0.000000000000000000 ) ) ;
#458 = APPROVAL_STATUS ( 'not_yet_approved' ) ;
#459 = PRODUCT_RELATED_PRODUCT_CATEGORY ( 'detail', '', ( #400 ) ) ;
#460 = LINE ( 'NONE', #47, #443 ) ;
#461 = LOCAL_TIME ( 13, 38, 40.00000000000000000, #454 ) ;
#462 = CALENDAR_DATE ( 2026, 22, 3 ) ;
#463 = DIRECTION ( 'NONE',  ( 1.000000000000000000, 0.000000000000000000, 0.000000000000000000 ) ) ;
#464 = DATE_AND_TIME ( #85, #360 ) ;
#465 = ORIENTED_EDGE ( 'NONE', *, *, #171, .T. ) ;
#466 = APPROVAL_PERSON_ORGANIZATION ( #133, #297, #452 ) ;
#467 = EDGE_CURVE ( 'NONE', #246, #283, #444, .T. ) ;
#468 = CIRCLE ( 'NONE', #274, 0.1999999999999996503 ) ;
#469 = AXIS2_PLACEMENT_3D ( 'NONE', #130, #43, #506 ) ;
#470 = LINE ( 'NONE', #98, #20 ) ;
#471 = VERTEX_POINT ( 'NONE', #122 ) ;
#472 = SPHERICAL_SURFACE ( 'NONE', #261, 0.2000000000000000111 ) ;
#473 = ORIENTED_EDGE ( 'NONE', *, *, #280, .T. ) ;
#474 = ADVANCED_FACE ( 'NONE', ( #202 ), #205, .T. ) ;
#475 = DIRECTION ( 'NONE',  ( 0.000000000000000000, 1.000000000000000000, -0.000000000000000000 ) ) ;
#476 = AXIS2_PLACEMENT_3D ( 'NONE', #477, #357, #389 ) ;
#477 = CARTESIAN_POINT ( 'NONE',  ( 0.000000000000000000, 0.8000000000000000444, 1.300000000000000044 ) ) ;
#478 = LINE ( 'NONE', #155, #95 ) ;
#479 = AXIS2_PLACEMENT_3D ( 'NONE', #494, #252, #292 ) ;
#480 = DIRECTION ( 'NONE',  ( 0.000000000000000000, 1.000000000000000000, 0.000000000000000000 ) ) ;
#481 = DIRECTION ( 'NONE',  ( -1.000000000000000000, 0.000000000000000000, -4.336808689942024836E-15 ) ) ;
#482 = CARTESIAN_POINT ( 'NONE',  ( -5.799999999999999822, 0.000000000000000000, 1.500000000000000000 ) ) ;
#483 = ORIENTED_EDGE ( 'NONE', *, *, #287, .F. ) ;
#484 = FACE_OUTER_BOUND ( 'NONE', #236, .T. ) ;
#485 = EDGE_CURVE ( 'NONE', #117, #529, #412, .T. ) ;
#486 = ORIENTED_EDGE ( 'NONE', *, *, #139, .F. ) ;
#487 = SPHERICAL_SURFACE ( 'NONE', #214, 0.2000000000000000111 ) ;
#488 = VERTEX_POINT ( 'NONE', #296 ) ;
#489 = DIRECTION ( 'NONE',  ( -1.000000000000000000, -0.000000000000000000, -0.000000000000000000 ) ) ;
#490 = ORIENTED_EDGE ( 'NONE', *, *, #89, .F. ) ;
#491 = DIRECTION ( 'NONE',  ( 1.000000000000000000, 0.000000000000000000, 0.000000000000000000 ) ) ;
#492 = EDGE_CURVE ( 'NONE', #60, #144, #38, .T. ) ;
#493 = ORIENTED_EDGE ( 'NONE', *, *, #456, .F. ) ;
#494 = CARTESIAN_POINT ( 'NONE',  ( 5.800000000000001599, 0.000000000000000000, 1.300000000000000044 ) ) ;
#495 = PERSON_AND_ORGANIZATION ( #68, #124 ) ;
#496 = AXIS2_PLACEMENT_3D ( 'NONE', #353, #282, #440 ) ;
#497 = ORIENTED_EDGE ( 'NONE', *, *, #509, .T. ) ;
#498 = DIRECTION ( 'NONE',  ( -0.000000000000000000, -1.000000000000000000, -0.000000000000000000 ) ) ;
#499 = DIRECTION ( 'NONE',  ( -0.000000000000000000, -1.000000000000000000, -0.000000000000000000 ) ) ;
#500 = LINE ( 'NONE', #86, #188 ) ;
#501 = EDGE_LOOP ( 'NONE', ( #525, #294, #276, #533 ) ) ;
#502 = VECTOR ( 'NONE', #255, 1000.000000000000000 ) ;
#503 = AXIS2_PLACEMENT_3D ( 'NONE', #419, #3, #178 ) ;
#504 = CARTESIAN_POINT ( 'NONE',  ( -5.799999999999999822, 0.000000000000000000, 1.300000000000000044 ) ) ;
#505 = ADVANCED_BREP_SHAPE_REPRESENTATION ( 'BAR3X12T1', ( #57, #80 ), #316 ) ;
#506 = DIRECTION ( 'NONE',  ( 0.000000000000000000, 0.000000000000000000, -1.000000000000000000 ) ) ;
#507 = AXIS2_PLACEMENT_3D ( 'NONE', #273, #61, #481 ) ;
#508 = DIRECTION ( 'NONE',  ( 0.000000000000000000, -1.000000000000000000, 0.000000000000000000 ) ) ;
#509 = EDGE_CURVE ( 'NONE', #246, #84, #72, .T. ) ;
#510 = CARTESIAN_POINT ( 'NONE',  ( 6.000000000000000888, 0.000000000000000000, -1.500000000000000000 ) ) ;
#511 = ORIENTED_EDGE ( 'NONE', *, *, #423, .F. ) ;
#512 = DIRECTION ( 'NONE',  ( 1.000000000000000000, -0.000000000000000000, -0.000000000000000000 ) ) ;
#513 = DIRECTION ( 'NONE',  ( 1.000000000000000000, 0.000000000000000000, 0.000000000000000000 ) ) ;
#514 = CARTESIAN_POINT ( 'NONE',  ( -5.799999999999999822, 1.000000000000000000, 1.300000000000000044 ) ) ;
#515 = AXIS2_PLACEMENT_3D ( 'NONE', #361, #269, #516 ) ;
#516 = DIRECTION ( 'NONE',  ( 0.000000000000000000, 0.000000000000000000, 1.000000000000000000 ) ) ;
#517 = CARTESIAN_POINT ( 'NONE',  ( 5.800000000000001599, 0.8000000000000000444, -1.300000000000000044 ) ) ;
#518 = APPROVAL_PERSON_ORGANIZATION ( #51, #131, #8 ) ;
#519 = DIRECTION ( 'NONE',  ( 0.000000000000000000, 0.000000000000000000, 1.000000000000000000 ) ) ;
#520 = ADVANCED_FACE ( 'NONE', ( #41 ), #446, .F. ) ;
#521 = CARTESIAN_POINT ( 'NONE',  ( 6.000000000000000888, 0.000000000000000000, -1.300000000000000044 ) ) ;
#522 = VERTEX_POINT ( 'NONE', #167 ) ;
#523 = DIRECTION ( 'NONE',  ( 0.000000000000000000, -1.000000000000000000, 0.000000000000000000 ) ) ;
#524 = CIRCLE ( 'NONE', #53, 0.1999999999999996503 ) ;
#525 = ORIENTED_EDGE ( 'NONE', *, *, #509, .F. ) ;
#526 = CARTESIAN_POINT ( 'NONE',  ( 5.800000000000001599, 0.8000000000000000444, 1.300000000000000044 ) ) ;
#527 = AXIS2_PLACEMENT_3D ( 'NONE', #77, #376, #249 ) ;
#528 = EDGE_CURVE ( 'NONE', #283, #375, #141, .T. ) ;
#529 = VERTEX_POINT ( 'NONE', #127 ) ;
#530 = AXIS2_PLACEMENT_3D ( 'NONE', #260, #383, #385 ) ;
#531 = ORIENTED_EDGE ( 'NONE', *, *, #449, .F. ) ;
#532 = PERSON_AND_ORGANIZATION_ROLE ( 'creator' ) ;
#533 = ORIENTED_EDGE ( 'NONE', *, *, #342, .F. ) ;
#534 = VECTOR ( 'NONE', #221, 1000.000000000000000 ) ;
#535 = DIRECTION ( 'NONE',  ( 0.000000000000000000, -1.000000000000000000, 0.000000000000000000 ) ) ;
#536 = VECTOR ( 'NONE', #535, 1000.000000000000000 ) ;
#537 = CYLINDRICAL_SURFACE ( 'NONE', #469, 0.2000000000000000944 ) ;
#538 = CC_DESIGN_PERSON_AND_ORGANIZATION_ASSIGNMENT ( #211, #83, ( #422 ) ) ;
#539 = DIRECTION ( 'NONE',  ( -0.000000000000000000, -0.000000000000000000, 1.000000000000000000 ) ) ;
#540 = EDGE_CURVE ( 'NONE', #522, #325, #4, .T. ) ;
#541 = PERSON_AND_ORGANIZATION_ROLE ( 'classification_officer' ) ;
ENDSEC;
END-ISO-10303-21;
