ISO-10303-21;
HEADER;
FILE_DESCRIPTION (( 'STEP AP203' ),
    '1' );
FILE_NAME ('BAR3X14T2.step',
    '2026-03-22T06:56:24',
    ( '' ),
    ( '' ),
    'SwSTEP 2.0',
    'SolidWorks 2025',
    '' );
FILE_SCHEMA (( 'CONFIG_CONTROL_DESIGN' ));
ENDSEC;

DATA;
#1 = EDGE_CURVE ( 'NONE', #9, #211, #142, .T. ) ;
#2 = ORIENTED_EDGE ( 'NONE', *, *, #402, .T. ) ;
#3 = AXIS2_PLACEMENT_3D ( 'NONE', #148, #221, #107 ) ;
#4 = DIRECTION ( 'NONE',  ( -1.000000000000000000, 0.000000000000000000, 0.000000000000000000 ) ) ;
#5 = CARTESIAN_POINT ( 'NONE',  ( 6.799999999999998046, 1.800000000000000044, 1.499999999999999778 ) ) ;
#6 = ORIENTED_EDGE ( 'NONE', *, *, #435, .T. ) ;
#7 = DIRECTION ( 'NONE',  ( 0.000000000000000000, -1.000000000000000000, 0.000000000000000000 ) ) ;
#8 = VERTEX_POINT ( 'NONE', #333 ) ;
#9 = VERTEX_POINT ( 'NONE', #5 ) ;
#10 = UNCERTAINTY_MEASURE_WITH_UNIT (LENGTH_MEASURE( 1.000000000000000082E-05 ), #112, 'distance_accuracy_value', 'NONE');
#11 = FACE_OUTER_BOUND ( 'NONE', #498, .T. ) ;
#12 = ORIENTED_EDGE ( 'NONE', *, *, #204, .F. ) ;
#13 = ORIENTED_EDGE ( 'NONE', *, *, #31, .T. ) ;
#14 = LINE ( 'NONE', #456, #488 ) ;
#15 = ORIENTED_EDGE ( 'NONE', *, *, #97, .F. ) ;
#16 = ORIENTED_EDGE ( 'NONE', *, *, #324, .T. ) ;
#17 = DIRECTION ( 'NONE',  ( 0.000000000000000000, 0.000000000000000000, -1.000000000000000000 ) ) ;
#18 = DIRECTION ( 'NONE',  ( -1.000000000000000000, -0.000000000000000000, -0.000000000000000000 ) ) ;
#19 = CARTESIAN_POINT ( 'NONE',  ( -6.800000000000002487, 1.800000000000000044, 1.299999999999999822 ) ) ;
#20 = EDGE_CURVE ( 'NONE', #9, #379, #30, .T. ) ;
#21 = AXIS2_PLACEMENT_3D ( 'NONE', #65, #234, #17 ) ;
#22 = CYLINDRICAL_SURFACE ( 'NONE', #100, 0.1999999999999996503 ) ;
#23 = DIRECTION ( 'NONE',  ( -0.000000000000000000, 1.000000000000000000, -0.000000000000000000 ) ) ;
#24 = CIRCLE ( 'NONE', #416, 0.2000000000000000944 ) ;
#25 = FACE_OUTER_BOUND ( 'NONE', #376, .T. ) ;
#26 = DIRECTION ( 'NONE',  ( 1.000000000000000000, 0.000000000000000000, 0.000000000000000000 ) ) ;
#27 = AXIS2_PLACEMENT_3D ( 'NONE', #393, #472, #222 ) ;
#28 = DIRECTION ( 'NONE',  ( 1.000000000000000000, 0.000000000000000000, -0.000000000000000000 ) ) ;
#29 = DIRECTION ( 'NONE',  ( 0.000000000000000000, 0.000000000000000000, -1.000000000000000000 ) ) ;
#30 = CIRCLE ( 'NONE', #154, 0.2000000000000000944 ) ;
#31 = EDGE_CURVE ( 'NONE', #460, #83, #250, .T. ) ;
#32 = ORGANIZATION ( 'UNSPECIFIED', 'UNSPECIFIED', '' ) ;
#33 = APPROVAL_DATE_TIME ( #164, #36 ) ;
#34 = EDGE_LOOP ( 'NONE', ( #173, #341, #255, #500 ) ) ;
#35 = PERSON_AND_ORGANIZATION_ROLE ( 'creator' ) ;
#36 = APPROVAL ( #71, 'UNSPECIFIED' ) ;
#37 = ORIENTED_EDGE ( 'NONE', *, *, #358, .F. ) ;
#38 = CARTESIAN_POINT ( 'NONE',  ( -6.800000000000002487, 2.000000000000000000, 1.299999999999999822 ) ) ;
#39 = ORIENTED_EDGE ( 'NONE', *, *, #455, .F. ) ;
#40 = APPROVAL_PERSON_ORGANIZATION ( #367, #36, #199 ) ;
#41 = ORIENTED_EDGE ( 'NONE', *, *, #204, .T. ) ;
#42 = DIRECTION ( 'NONE',  ( 0.000000000000000000, 0.000000000000000000, -1.000000000000000000 ) ) ;
#43 = VECTOR ( 'NONE', #7, 1000.000000000000000 ) ;
#44 = ORIENTED_EDGE ( 'NONE', *, *, #481, .T. ) ;
#45 = EDGE_LOOP ( 'NONE', ( #175, #16, #51, #90 ) ) ;
#46 = VECTOR ( 'NONE', #23, 1000.000000000000000 ) ;
#47 = CARTESIAN_POINT ( 'NONE',  ( 6.799999999999998046, 0.000000000000000000, 1.299999999999999822 ) ) ;
#48 = CARTESIAN_POINT ( 'NONE',  ( 6.999999999999997335, 2.000000000000000000, 1.299999999999999822 ) ) ;
#49 = EDGE_LOOP ( 'NONE', ( #385, #137, #15, #454 ) ) ;
#50 = FACE_OUTER_BOUND ( 'NONE', #513, .T. ) ;
#51 = ORIENTED_EDGE ( 'NONE', *, *, #358, .T. ) ;
#52 = ORIENTED_EDGE ( 'NONE', *, *, #539, .T. ) ;
#53 = DIRECTION ( 'NONE',  ( -2.891205793294678326E-16, -0.000000000000000000, 1.000000000000000000 ) ) ;
#54 = DIRECTION ( 'NONE',  ( 0.000000000000000000, -1.000000000000000000, 0.000000000000000000 ) ) ;
#55 = ADVANCED_FACE ( 'NONE', ( #178 ), #214, .T. ) ;
#56 = CARTESIAN_POINT ( 'NONE',  ( -6.800000000000002487, 0.000000000000000000, 1.299999999999999822 ) ) ;
#57 = CARTESIAN_POINT ( 'NONE',  ( -7.000000000000001776, 1.800000000000000044, -1.500000000000000222 ) ) ;
#58 = APPROVAL_PERSON_ORGANIZATION ( #239, #130, #203 ) ;
#59 = DIRECTION ( 'NONE',  ( -0.000000000000000000, 1.000000000000000000, -0.000000000000000000 ) ) ;
#60 = DIRECTION ( 'NONE',  ( 0.000000000000000000, 0.000000000000000000, 1.000000000000000000 ) ) ;
#61 = DIRECTION ( 'NONE',  ( -1.000000000000000000, 0.000000000000000000, 0.000000000000000000 ) ) ;
#62 = DIRECTION ( 'NONE',  ( 0.000000000000000000, 0.000000000000000000, 1.000000000000000000 ) ) ;
#63 = DIRECTION ( 'NONE',  ( -1.000000000000000000, 0.000000000000000000, -0.000000000000000000 ) ) ;
#64 = EDGE_CURVE ( 'NONE', #183, #211, #127, .T. ) ;
#65 = CARTESIAN_POINT ( 'NONE',  ( 0.000000000000000000, 1.800000000000000044, -1.300000000000000266 ) ) ;
#66 = VECTOR ( 'NONE', #499, 1000.000000000000000 ) ;
#67 = FACE_OUTER_BOUND ( 'NONE', #461, .T. ) ;
#68 = AXIS2_PLACEMENT_3D ( 'NONE', #270, #145, #61 ) ;
#69 = VECTOR ( 'NONE', #529, 1000.000000000000000 ) ;
#70 = EDGE_CURVE ( 'NONE', #95, #369, #414, .T. ) ;
#71 = APPROVAL_STATUS ( 'not_yet_approved' ) ;
#72 = DATE_AND_TIME ( #450, #290 ) ;
#73 = CALENDAR_DATE ( 2026, 22, 3 ) ;
#74 = PRODUCT_DEFINITION ( 'UNKNOWN', '', #489, #356 ) ;
#75 = AXIS2_PLACEMENT_3D ( 'NONE', #398, #348, #442 ) ;
#76 = EDGE_CURVE ( 'NONE', #401, #372, #386, .T. ) ;
#77 = DIRECTION ( 'NONE',  ( 0.000000000000000000, 1.000000000000000000, -0.000000000000000000 ) ) ;
#78 = APPROVAL_STATUS ( 'not_yet_approved' ) ;
#79 = ORIENTED_EDGE ( 'NONE', *, *, #70, .F. ) ;
#80 = FACE_OUTER_BOUND ( 'NONE', #34, .T. ) ;
#81 = DIRECTION ( 'NONE',  ( 0.000000000000000000, 0.000000000000000000, -1.000000000000000000 ) ) ;
#82 = CC_DESIGN_APPROVAL ( #36, ( #489 ) ) ;
#83 = VERTEX_POINT ( 'NONE', #485 ) ;
#84 = ADVANCED_FACE ( 'NONE', ( #316 ), #530, .F. ) ;
#85 = CARTESIAN_POINT ( 'NONE',  ( 6.799999999999998046, 0.000000000000000000, -1.500000000000000222 ) ) ;
#86 = VECTOR ( 'NONE', #152, 1000.000000000000000 ) ;
#87 = CARTESIAN_POINT ( 'NONE',  ( 6.799999999999998934, 1.800000000000000044, 1.299999999999999822 ) ) ;
#88 = ORIENTED_EDGE ( 'NONE', *, *, #240, .T. ) ;
#89 = LINE ( 'NONE', #309, #319 ) ;
#90 = ORIENTED_EDGE ( 'NONE', *, *, #478, .T. ) ;
#91 = VECTOR ( 'NONE', #433, 1000.000000000000000 ) ;
#92 = ORIENTED_EDGE ( 'NONE', *, *, #70, .T. ) ;
#93 = CIRCLE ( 'NONE', #113, 0.2000000000000000944 ) ;
#94 = CARTESIAN_POINT ( 'NONE',  ( -6.800000000000002487, 1.800000000000000044, -1.300000000000000266 ) ) ;
#95 = VERTEX_POINT ( 'NONE', #271 ) ;
#96 = ORIENTED_EDGE ( 'NONE', *, *, #191, .T. ) ;
#97 = EDGE_CURVE ( 'NONE', #460, #379, #403, .T. ) ;
#98 = CARTESIAN_POINT ( 'NONE',  ( -7.000000000000001776, 0.000000000000000000, 1.299999999999999822 ) ) ;
#99 = ORIENTED_EDGE ( 'NONE', *, *, #162, .F. ) ;
#100 = AXIS2_PLACEMENT_3D ( 'NONE', #484, #196, #267 ) ;
#101 = DIRECTION ( 'NONE',  ( 0.000000000000000000, 0.000000000000000000, 1.000000000000000000 ) ) ;
#102 = CARTESIAN_POINT ( 'NONE',  ( 0.000000000000000000, 0.000000000000000000, 0.000000000000000000 ) ) ;
#103 = CARTESIAN_POINT ( 'NONE',  ( -6.800000000000002487, 1.800000000000000044, -1.500000000000000222 ) ) ;
#104 = CARTESIAN_POINT ( 'NONE',  ( 6.999999999999998224, 2.000000000000000000, -1.500000000000000222 ) ) ;
#105 = ORIENTED_EDGE ( 'NONE', *, *, #171, .F. ) ;
#106 = LOCAL_TIME ( 14, 56, 24.00000000000000000, #163 ) ;
#107 = DIRECTION ( 'NONE',  ( -1.000000000000000000, 0.000000000000000000, 0.000000000000000000 ) ) ;
#108 = EDGE_CURVE ( 'NONE', #9, #460, #274, .T. ) ;
#109 = LINE ( 'NONE', #275, #389 ) ;
#110 = DIRECTION ( 'NONE',  ( -1.000000000000000000, 0.000000000000000000, 0.000000000000000000 ) ) ;
#111 = AXIS2_PLACEMENT_3D ( 'NONE', #338, #464, #507 ) ;
#112 =( LENGTH_UNIT ( ) NAMED_UNIT ( * ) SI_UNIT ( .MILLI., .METRE. ) );
#113 = AXIS2_PLACEMENT_3D ( 'NONE', #207, #325, #124 ) ;
#114 = PRODUCT_RELATED_PRODUCT_CATEGORY ( 'detail', '', ( #119 ) ) ;
#115 = ADVANCED_FACE ( 'NONE', ( #354 ), #149, .T. ) ;
#116 = SECURITY_CLASSIFICATION ( '', '', #326 ) ;
#117 = PERSON_AND_ORGANIZATION_ROLE ( 'creator' ) ;
#118 = EDGE_LOOP ( 'NONE', ( #259, #289, #44, #92 ) ) ;
#119 = PRODUCT ( 'BAR3X14T2', 'BAR3X14T2', '', ( #318 ) ) ;
#120 = APPROVAL_ROLE ( '' ) ;
#121 = PERSON_AND_ORGANIZATION ( #243, #32 ) ;
#122 = PERSON_AND_ORGANIZATION_ROLE ( 'classification_officer' ) ;
#123 = EDGE_CURVE ( 'NONE', #209, #176, #303, .T. ) ;
#124 = DIRECTION ( 'NONE',  ( 0.000000000000000000, 0.000000000000000000, 1.000000000000000000 ) ) ;
#125 = PERSON_AND_ORGANIZATION_ROLE ( 'design_supplier' ) ;
#126 = ORIENTED_EDGE ( 'NONE', *, *, #264, .T. ) ;
#127 = CIRCLE ( 'NONE', #111, 0.2000000000000000944 ) ;
#128 = SPHERICAL_SURFACE ( 'NONE', #444, 0.2000000000000000111 ) ;
#129 = ORIENTED_EDGE ( 'NONE', *, *, #171, .T. ) ;
#130 = APPROVAL ( #400, 'UNSPECIFIED' ) ;
#131 = VERTEX_POINT ( 'NONE', #223 ) ;
#132 = ADVANCED_FACE ( 'NONE', ( #313 ), #487, .F. ) ;
#133 = CYLINDRICAL_SURFACE ( 'NONE', #252, 0.2000000000000000944 ) ;
#134 = ORIENTED_EDGE ( 'NONE', *, *, #97, .T. ) ;
#135 = CIRCLE ( 'NONE', #364, 0.2000000000000000944 ) ;
#136 = ADVANCED_FACE ( 'NONE', ( #67 ), #310, .T. ) ;
#137 = ORIENTED_EDGE ( 'NONE', *, *, #481, .F. ) ;
#138 = DIRECTION ( 'NONE',  ( 0.000000000000000000, 0.000000000000000000, -1.000000000000000000 ) ) ;
#139 = ORIENTED_EDGE ( 'NONE', *, *, #361, .T. ) ;
#140 = ORIENTED_EDGE ( 'NONE', *, *, #20, .F. ) ;
#141 = LINE ( 'NONE', #256, #397 ) ;
#142 = LINE ( 'NONE', #426, #360 ) ;
#143 = ADVANCED_FACE ( 'NONE', ( #231 ), #434, .T. ) ;
#144 = VERTEX_POINT ( 'NONE', #522 ) ;
#145 = DIRECTION ( 'NONE',  ( 0.000000000000000000, 1.000000000000000000, 0.000000000000000000 ) ) ;
#146 = EDGE_LOOP ( 'NONE', ( #423, #41, #139, #52 ) ) ;
#147 = AXIS2_PLACEMENT_3D ( 'NONE', #159, #225, #63 ) ;
#148 = CARTESIAN_POINT ( 'NONE',  ( -6.800000000000002487, 1.800000000000000044, -1.300000000000000266 ) ) ;
#149 = CYLINDRICAL_SURFACE ( 'NONE', #523, 0.2000000000000000944 ) ;
#150 = CIRCLE ( 'NONE', #27, 0.1999999999999996503 ) ;
#151 = DIRECTION ( 'NONE',  ( 0.000000000000000000, 0.000000000000000000, 1.000000000000000000 ) ) ;
#152 = DIRECTION ( 'NONE',  ( 0.000000000000000000, -0.000000000000000000, -1.000000000000000000 ) ) ;
#153 = DIRECTION ( 'NONE',  ( -0.000000000000000000, -1.000000000000000000, 0.000000000000000000 ) ) ;
#154 = AXIS2_PLACEMENT_3D ( 'NONE', #87, #254, #288 ) ;
#155 = LINE ( 'NONE', #387, #301 ) ;
#156 = CARTESIAN_POINT ( 'NONE',  ( 6.799999999999998046, 2.000000000000000000, -1.300000000000000266 ) ) ;
#157 = CARTESIAN_POINT ( 'NONE',  ( 6.999999999999997335, 1.800000000000000044, 1.299999999999999822 ) ) ;
#158 = DIRECTION ( 'NONE',  ( 0.000000000000000000, -1.000000000000000000, 0.000000000000000000 ) ) ;
#159 = CARTESIAN_POINT ( 'NONE',  ( -7.000000000000001776, 2.000000000000000000, 1.499999999999999778 ) ) ;
#160 = CARTESIAN_POINT ( 'NONE',  ( 6.799999999999998046, 1.800000000000000044, 1.299999999999999822 ) ) ;
#161 = DIRECTION ( 'NONE',  ( 1.000000000000000000, -0.000000000000000000, 0.000000000000000000 ) ) ;
#162 = EDGE_CURVE ( 'NONE', #541, #363, #285, .T. ) ;
#163 = COORDINATED_UNIVERSAL_TIME_OFFSET ( 8, 0, .AHEAD. ) ;
#164 = DATE_AND_TIME ( #73, #106 ) ;
#165 = AXIS2_PLACEMENT_3D ( 'NONE', #430, #353, #428 ) ;
#166 = DATE_TIME_ROLE ( 'creation_date' ) ;
#167 = EDGE_CURVE ( 'NONE', #176, #95, #536, .T. ) ;
#168 = ORIENTED_EDGE ( 'NONE', *, *, #427, .T. ) ;
#169 = DIRECTION ( 'NONE',  ( 0.000000000000000000, 0.000000000000000000, -1.000000000000000000 ) ) ;
#170 = DIRECTION ( 'NONE',  ( 0.000000000000000000, -1.000000000000000000, 0.000000000000000000 ) ) ;
#171 = EDGE_CURVE ( 'NONE', #401, #144, #141, .T. ) ;
#172 = VECTOR ( 'NONE', #381, 1000.000000000000000 ) ;
#173 = ORIENTED_EDGE ( 'NONE', *, *, #345, .F. ) ;
#174 = DIRECTION ( 'NONE',  ( 0.000000000000000000, 0.000000000000000000, 1.000000000000000000 ) ) ;
#175 = ORIENTED_EDGE ( 'NONE', *, *, #1, .T. ) ;
#176 = VERTEX_POINT ( 'NONE', #377 ) ;
#177 = DIRECTION ( 'NONE',  ( 0.000000000000000000, 1.000000000000000000, 0.000000000000000000 ) ) ;
#178 = FACE_OUTER_BOUND ( 'NONE', #251, .T. ) ;
#179 = ORIENTED_EDGE ( 'NONE', *, *, #361, .F. ) ;
#180 = SPHERICAL_SURFACE ( 'NONE', #277, 0.2000000000000000111 ) ;
#181 = CC_DESIGN_PERSON_AND_ORGANIZATION_ASSIGNMENT ( #495, #317, ( #119 ) ) ;
#182 = ORIENTED_EDGE ( 'NONE', *, *, #191, .F. ) ;
#183 = VERTEX_POINT ( 'NONE', #38 ) ;
#184 = CARTESIAN_POINT ( 'NONE',  ( 6.999999999999998224, 0.000000000000000000, -1.500000000000000222 ) ) ;
#185 = ORIENTED_EDGE ( 'NONE', *, *, #167, .F. ) ;
#186 = LINE ( 'NONE', #525, #91 ) ;
#187 = APPROVAL_PERSON_ORGANIZATION ( #121, #531, #120 ) ;
#188 = LINE ( 'NONE', #349, #504 ) ;
#189 = CARTESIAN_POINT ( 'NONE',  ( -6.800000000000002487, 1.800000000000000044, 1.299999999999999822 ) ) ;
#190 = PLANE ( 'NONE',  #514 ) ;
#191 = EDGE_CURVE ( 'NONE', #330, #410, #219, .T. ) ;
#192 = SPHERICAL_SURFACE ( 'NONE', #68, 0.2000000000000000111 ) ;
#193 = CARTESIAN_POINT ( 'NONE',  ( -6.800000000000002487, 1.800000000000000044, -1.300000000000000266 ) ) ;
#194 = CLOSED_SHELL ( 'NONE', ( #132, #446, #84, #518, #327, #533, #55, #470, #115, #445, #197, #314, #375, #143, #283, #136, #244, #493 ) ) ;
#195 = AXIS2_PLACEMENT_3D ( 'NONE', #480, #527, #110 ) ;
#196 = DIRECTION ( 'NONE',  ( 0.000000000000000000, -0.000000000000000000, -1.000000000000000000 ) ) ;
#197 = ADVANCED_FACE ( 'NONE', ( #11 ), #128, .T. ) ;
#198 = CARTESIAN_POINT ( 'NONE',  ( 6.799999999999994493, 0.000000000000000000, 1.499999999999999778 ) ) ;
#199 = APPROVAL_ROLE ( '' ) ;
#200 = AXIS2_PLACEMENT_3D ( 'NONE', #216, #380, #287 ) ;
#201 = COORDINATED_UNIVERSAL_TIME_OFFSET ( 8, 0, .AHEAD. ) ;
#202 = LOCAL_TIME ( 14, 56, 24.00000000000000000, #238 ) ;
#203 = APPROVAL_ROLE ( '' ) ;
#204 = EDGE_CURVE ( 'NONE', #363, #8, #253, .T. ) ;
#205 = PERSON_AND_ORGANIZATION ( #243, #32 ) ;
#206 = ORIENTED_EDGE ( 'NONE', *, *, #273, .F. ) ;
#207 = CARTESIAN_POINT ( 'NONE',  ( -6.800000000000002487, 0.000000000000000000, -1.300000000000000266 ) ) ;
#208 = ORIENTED_EDGE ( 'NONE', *, *, #224, .F. ) ;
#209 = VERTEX_POINT ( 'NONE', #291 ) ;
#210 = CARTESIAN_POINT ( 'NONE',  ( -6.800000000000002487, 2.000000000000000000, 1.299999999999999822 ) ) ;
#211 = VERTEX_POINT ( 'NONE', #506 ) ;
#212 = EDGE_LOOP ( 'NONE', ( #417, #134, #140 ) ) ;
#213 = DIRECTION ( 'NONE',  ( -0.000000000000000000, -1.000000000000000000, 0.000000000000000000 ) ) ;
#214 = CYLINDRICAL_SURFACE ( 'NONE', #352, 0.2000000000000000944 ) ;
#215 = ORIENTED_EDGE ( 'NONE', *, *, #384, .F. ) ;
#216 = CARTESIAN_POINT ( 'NONE',  ( 6.799999999999998046, 1.800000000000000044, -1.300000000000000266 ) ) ;
#217 = ORIENTED_EDGE ( 'NONE', *, *, #539, .F. ) ;
#218 = ORIENTED_EDGE ( 'NONE', *, *, #76, .F. ) ;
#219 = LINE ( 'NONE', #298, #66 ) ;
#220 = CARTESIAN_POINT ( 'NONE',  ( -6.800000000000002487, 2.000000000000000000, -1.300000000000000266 ) ) ;
#221 = DIRECTION ( 'NONE',  ( -0.000000000000000000, -0.000000000000000000, 1.000000000000000000 ) ) ;
#222 = DIRECTION ( 'NONE',  ( 1.000000000000000000, 0.000000000000000000, 0.000000000000000000 ) ) ;
#223 = CARTESIAN_POINT ( 'NONE',  ( -7.000000000000001776, 0.000000000000000000, -1.300000000000000266 ) ) ;
#224 = EDGE_CURVE ( 'NONE', #369, #401, #406, .T. ) ;
#225 = DIRECTION ( 'NONE',  ( 0.000000000000000000, 0.000000000000000000, -1.000000000000000000 ) ) ;
#226 = VECTOR ( 'NONE', #161, 1000.000000000000000 ) ;
#227 = CARTESIAN_POINT ( 'NONE',  ( -6.800000000000002487, 0.000000000000000000, -1.500000000000000222 ) ) ;
#228 = PLANE ( 'NONE',  #147 ) ;
#229 = AXIS2_PLACEMENT_3D ( 'NONE', #193, #391, #394 ) ;
#230 = FACE_OUTER_BOUND ( 'NONE', #371, .T. ) ;
#231 = FACE_OUTER_BOUND ( 'NONE', #49, .T. ) ;
#232 = CARTESIAN_POINT ( 'NONE',  ( -6.800000000000002487, 0.000000000000000000, 1.499999999999999778 ) ) ;
#233 = CC_DESIGN_DATE_AND_TIME_ASSIGNMENT ( #362, #166, ( #74 ) ) ;
#234 = DIRECTION ( 'NONE',  ( 1.000000000000000000, -0.000000000000000000, 0.000000000000000000 ) ) ;
#235 = CARTESIAN_POINT ( 'NONE',  ( -7.000000000000001776, 2.000000000000000000, -1.500000000000000222 ) ) ;
#236 = AXIS2_PLACEMENT_3D ( 'NONE', #436, #247, #538 ) ;
#237 = DIRECTION ( 'NONE',  ( -1.000000000000000000, 0.000000000000000000, 0.000000000000000000 ) ) ;
#238 = COORDINATED_UNIVERSAL_TIME_OFFSET ( 8, 0, .AHEAD. ) ;
#239 = PERSON_AND_ORGANIZATION ( #243, #32 ) ;
#240 = EDGE_CURVE ( 'NONE', #144, #95, #526, .T. ) ;
#241 = CC_DESIGN_DATE_AND_TIME_ASSIGNMENT ( #72, #321, ( #116 ) ) ;
#242 = AXIS2_PLACEMENT_3D ( 'NONE', #104, #439, #475 ) ;
#243 = PERSON ( 'UNSPECIFIED', 'UNSPECIFIED', 'UNSPECIFIED', ('UNSPECIFIED'), ('UNSPECIFIED'), ('UNSPECIFIED') ) ;
#244 = ADVANCED_FACE ( 'NONE', ( #383 ), #180, .T. ) ;
#245 = AXIS2_PLACEMENT_3D ( 'NONE', #413, #509, #42 ) ;
#246 = DIRECTION ( 'NONE',  ( 1.000000000000000000, -0.000000000000000000, -0.000000000000000000 ) ) ;
#247 = DIRECTION ( 'NONE',  ( 0.000000000000000000, 0.000000000000000000, 1.000000000000000000 ) ) ;
#248 = ORIENTED_EDGE ( 'NONE', *, *, #427, .F. ) ;
#249 =( GEOMETRIC_REPRESENTATION_CONTEXT ( 3 ) GLOBAL_UNCERTAINTY_ASSIGNED_CONTEXT ( ( #10 ) ) GLOBAL_UNIT_ASSIGNED_CONTEXT ( ( #112, #476, #268 ) ) REPRESENTATION_CONTEXT ( 'NONE', 'WORKASPACE' ) );
#250 = LINE ( 'NONE', #48, #477 ) ;
#251 = EDGE_LOOP ( 'NONE', ( #206, #217, #218, #331 ) ) ;
#252 = AXIS2_PLACEMENT_3D ( 'NONE', #210, #294, #138 ) ;
#253 = LINE ( 'NONE', #337, #431 ) ;
#254 = DIRECTION ( 'NONE',  ( -1.000000000000000000, 0.000000000000000000, -4.336808689942016158E-15 ) ) ;
#255 = ORIENTED_EDGE ( 'NONE', *, *, #108, .F. ) ;
#256 = CARTESIAN_POINT ( 'NONE',  ( 6.999999999999998224, 1.800000000000000044, -1.500000000000000222 ) ) ;
#257 = ORIENTED_EDGE ( 'NONE', *, *, #162, .T. ) ;
#258 = ORIENTED_EDGE ( 'NONE', *, *, #20, .T. ) ;
#259 = ORIENTED_EDGE ( 'NONE', *, *, #384, .T. ) ;
#260 = DIRECTION ( 'NONE',  ( -0.000000000000000000, -1.000000000000000000, 0.000000000000000000 ) ) ;
#261 = DIRECTION ( 'NONE',  ( 0.000000000000000000, 1.000000000000000000, -0.000000000000000000 ) ) ;
#262 = ORIENTED_EDGE ( 'NONE', *, *, #273, .T. ) ;
#263 = MANIFOLD_SOLID_BREP ( '\X2\570689d2\X0\1', #194 ) ;
#264 = EDGE_CURVE ( 'NONE', #176, #460, #14, .T. ) ;
#265 = DIRECTION ( 'NONE',  ( 0.000000000000000000, 0.000000000000000000, 1.000000000000000000 ) ) ;
#266 = CARTESIAN_POINT ( 'NONE',  ( 6.999999999999998224, 2.000000000000000000, -1.300000000000000266 ) ) ;
#267 = DIRECTION ( 'NONE',  ( -1.000000000000000000, 0.000000000000000000, 0.000000000000000000 ) ) ;
#268 =( NAMED_UNIT ( * ) SI_UNIT ( $, .STERADIAN. ) SOLID_ANGLE_UNIT ( ) );
#269 = AXIS2_PLACEMENT_3D ( 'NONE', #312, #515, #28 ) ;
#270 = CARTESIAN_POINT ( 'NONE',  ( -6.800000000000002487, 1.800000000000000044, -1.300000000000000266 ) ) ;
#271 = CARTESIAN_POINT ( 'NONE',  ( 6.799999999999999822, 2.000000000000000000, -1.300000000000000266 ) ) ;
#272 = CARTESIAN_POINT ( 'NONE',  ( 0.000000000000000000, 1.800000000000000044, 1.299999999999999822 ) ) ;
#273 = EDGE_CURVE ( 'NONE', #131, #410, #93, .T. ) ;
#274 = CIRCLE ( 'NONE', #374, 0.2000000000000000944 ) ;
#275 = CARTESIAN_POINT ( 'NONE',  ( -7.000000000000001776, 0.000000000000000000, -1.500000000000000222 ) ) ;
#276 = DIRECTION ( 'NONE',  ( 0.000000000000000000, 0.000000000000000000, 1.000000000000000000 ) ) ;
#277 = AXIS2_PLACEMENT_3D ( 'NONE', #370, #425, #169 ) ;
#278 = LOCAL_TIME ( 14, 56, 24.00000000000000000, #282 ) ;
#279 = PERSON_AND_ORGANIZATION ( #243, #32 ) ;
#280 = VECTOR ( 'NONE', #418, 1000.000000000000000 ) ;
#281 = CALENDAR_DATE ( 2026, 22, 3 ) ;
#282 = COORDINATED_UNIVERSAL_TIME_OFFSET ( 8, 0, .AHEAD. ) ;
#283 = ADVANCED_FACE ( 'NONE', ( #80 ), #340, .T. ) ;
#284 = FACE_OUTER_BOUND ( 'NONE', #118, .T. ) ;
#285 = CIRCLE ( 'NONE', #320, 0.2000000000000000944 ) ;
#286 = ORIENTED_EDGE ( 'NONE', *, *, #335, .T. ) ;
#287 = DIRECTION ( 'NONE',  ( 8.673617379884030739E-15, 1.000000000000000000, 0.000000000000000000 ) ) ;
#288 = DIRECTION ( 'NONE',  ( 4.336808689942015369E-15, 0.000000000000000000, -1.000000000000000000 ) ) ;
#289 = ORIENTED_EDGE ( 'NONE', *, *, #486, .T. ) ;
#290 = LOCAL_TIME ( 14, 56, 24.00000000000000000, #492 ) ;
#291 = CARTESIAN_POINT ( 'NONE',  ( 6.999999999999998224, 0.000000000000000000, -1.300000000000000266 ) ) ;
#292 = ORIENTED_EDGE ( 'NONE', *, *, #486, .F. ) ;
#293 = EDGE_LOOP ( 'NONE', ( #2, #342, #126, #13 ) ) ;
#294 = DIRECTION ( 'NONE',  ( 0.000000000000000000, -1.000000000000000000, 0.000000000000000000 ) ) ;
#295 = EDGE_LOOP ( 'NONE', ( #339, #105, #208, #79 ) ) ;
#296 = AXIS2_PLACEMENT_3D ( 'NONE', #396, #350, #429 ) ;
#297 = ORIENTED_EDGE ( 'NONE', *, *, #64, .F. ) ;
#298 = CARTESIAN_POINT ( 'NONE',  ( -7.000000000000001776, 0.000000000000000000, -1.500000000000000222 ) ) ;
#299 = ORIENTED_EDGE ( 'NONE', *, *, #1, .F. ) ;
#300 = ORIENTED_EDGE ( 'NONE', *, *, #123, .F. ) ;
#301 = VECTOR ( 'NONE', #344, 1000.000000000000000 ) ;
#302 = LINE ( 'NONE', #57, #86 ) ;
#303 = LINE ( 'NONE', #266, #46 ) ;
#304 = FACE_OUTER_BOUND ( 'NONE', #473, .T. ) ;
#305 = CARTESIAN_POINT ( 'NONE',  ( -6.800000000000002487, 2.000000000000000000, -1.300000000000000266 ) ) ;
#306 = DIRECTION ( 'NONE',  ( 0.000000000000000000, 0.000000000000000000, 1.000000000000000000 ) ) ;
#307 = APPLICATION_PROTOCOL_DEFINITION ( 'international standard', 'config_control_design', 1994, #308 ) ;
#308 = APPLICATION_CONTEXT ( 'configuration controlled 3d designs of mechanical parts and assemblies' ) ;
#309 = CARTESIAN_POINT ( 'NONE',  ( -7.000000000000001776, 0.000000000000000000, 1.499999999999999778 ) ) ;
#310 = SPHERICAL_SURFACE ( 'NONE', #315, 0.2000000000000000111 ) ;
#311 = LINE ( 'NONE', #517, #226 ) ;
#312 = CARTESIAN_POINT ( 'NONE',  ( -7.000000000000001776, 2.000000000000000000, -1.500000000000000222 ) ) ;
#313 = FACE_OUTER_BOUND ( 'NONE', #293, .T. ) ;
#314 = ADVANCED_FACE ( 'NONE', ( #50 ), #133, .T. ) ;
#315 = AXIS2_PLACEMENT_3D ( 'NONE', #189, #261, #62 ) ;
#316 = FACE_OUTER_BOUND ( 'NONE', #146, .T. ) ;
#317 = PERSON_AND_ORGANIZATION_ROLE ( 'design_owner' ) ;
#318 = MECHANICAL_CONTEXT ( 'NONE', #308, 'mechanical' ) ;
#319 = VECTOR ( 'NONE', #482, 1000.000000000000000 ) ;
#320 = AXIS2_PLACEMENT_3D ( 'NONE', #56, #153, #306 ) ;
#321 = DATE_TIME_ROLE ( 'classification_date' ) ;
#322 = AXIS2_PLACEMENT_3D ( 'NONE', #94, #4, #497 ) ;
#323 = SHAPE_DEFINITION_REPRESENTATION ( #491, #520 ) ;
#324 = EDGE_CURVE ( 'NONE', #211, #541, #467, .T. ) ;
#325 = DIRECTION ( 'NONE',  ( -0.000000000000000000, -1.000000000000000000, 0.000000000000000000 ) ) ;
#326 = SECURITY_CLASSIFICATION_LEVEL ( 'unclassified' ) ;
#327 = ADVANCED_FACE ( 'NONE', ( #284 ), #421, .T. ) ;
#328 = ORIENTED_EDGE ( 'NONE', *, *, #455, .T. ) ;
#329 = DIRECTION ( 'NONE',  ( -0.000000000000000000, 1.000000000000000000, -0.000000000000000000 ) ) ;
#330 = VERTEX_POINT ( 'NONE', #85 ) ;
#331 = ORIENTED_EDGE ( 'NONE', *, *, #335, .F. ) ;
#332 = LINE ( 'NONE', #502, #280 ) ;
#333 = CARTESIAN_POINT ( 'NONE',  ( -7.000000000000001776, 1.800000000000000044, 1.299999999999999822 ) ) ;
#334 = ORIENTED_EDGE ( 'NONE', *, *, #224, .T. ) ;
#335 = EDGE_CURVE ( 'NONE', #410, #401, #332, .T. ) ;
#336 = CC_DESIGN_SECURITY_CLASSIFICATION ( #116, ( #489 ) ) ;
#337 = CARTESIAN_POINT ( 'NONE',  ( -7.000000000000001776, 2.000000000000000000, 1.299999999999999822 ) ) ;
#338 = CARTESIAN_POINT ( 'NONE',  ( -6.800000000000002487, 1.800000000000000044, 1.299999999999999822 ) ) ;
#339 = ORIENTED_EDGE ( 'NONE', *, *, #240, .F. ) ;
#340 = CYLINDRICAL_SURFACE ( 'NONE', #245, 0.2000000000000000944 ) ;
#341 = ORIENTED_EDGE ( 'NONE', *, *, #31, .F. ) ;
#342 = ORIENTED_EDGE ( 'NONE', *, *, #123, .T. ) ;
#343 = CC_DESIGN_PERSON_AND_ORGANIZATION_ASSIGNMENT ( #490, #117, ( #489 ) ) ;
#344 = DIRECTION ( 'NONE',  ( -0.000000000000000000, 0.000000000000000000, 1.000000000000000000 ) ) ;
#345 = EDGE_CURVE ( 'NONE', #83, #503, #24, .T. ) ;
#346 = VECTOR ( 'NONE', #524, 1000.000000000000000 ) ;
#347 = PLANE ( 'NONE',  #269 ) ;
#348 = DIRECTION ( 'NONE',  ( 0.000000000000000000, 0.000000000000000000, 1.000000000000000000 ) ) ;
#349 = CARTESIAN_POINT ( 'NONE',  ( 6.799999999999998046, 2.000000000000000000, 1.499999999999999778 ) ) ;
#350 = DIRECTION ( 'NONE',  ( -2.891205793294678326E-16, 0.000000000000000000, 1.000000000000000000 ) ) ;
#351 = CARTESIAN_POINT ( 'NONE',  ( -7.000000000000001776, 2.000000000000000000, -1.300000000000000266 ) ) ;
#352 = AXIS2_PLACEMENT_3D ( 'NONE', #220, #170, #81 ) ;
#353 = DIRECTION ( 'NONE',  ( -0.000000000000000000, 1.000000000000000000, 0.000000000000000000 ) ) ;
#354 = FACE_OUTER_BOUND ( 'NONE', #468, .T. ) ;
#355 = FACE_OUTER_BOUND ( 'NONE', #405, .T. ) ;
#356 = DESIGN_CONTEXT ( 'detailed design', #448, 'design' ) ;
#357 = FACE_OUTER_BOUND ( 'NONE', #469, .T. ) ;
#358 = EDGE_CURVE ( 'NONE', #541, #503, #89, .T. ) ;
#359 = DIRECTION ( 'NONE',  ( 0.000000000000000000, 1.000000000000000000, -0.000000000000000000 ) ) ;
#360 = VECTOR ( 'NONE', #18, 1000.000000000000000 ) ;
#361 = EDGE_CURVE ( 'NONE', #8, #372, #302, .T. ) ;
#362 = DATE_AND_TIME ( #281, #537 ) ;
#363 = VERTEX_POINT ( 'NONE', #98 ) ;
#364 = AXIS2_PLACEMENT_3D ( 'NONE', #474, #260, #101 ) ;
#365 = DATE_AND_TIME ( #449, #202 ) ;
#366 = EDGE_CURVE ( 'NONE', #176, #144, #392, .T. ) ;
#367 = PERSON_AND_ORGANIZATION ( #243, #32 ) ;
#368 = EDGE_CURVE ( 'NONE', #369, #372, #415, .T. ) ;
#369 = VERTEX_POINT ( 'NONE', #305 ) ;
#370 = CARTESIAN_POINT ( 'NONE',  ( 6.799999999999998046, 1.800000000000000044, 1.299999999999999822 ) ) ;
#371 = EDGE_LOOP ( 'NONE', ( #96, #286, #129, #168 ) ) ;
#372 = VERTEX_POINT ( 'NONE', #395 ) ;
#373 = CARTESIAN_POINT ( 'NONE',  ( -6.800000000000002487, 2.000000000000000000, 1.499999999999999778 ) ) ;
#374 = AXIS2_PLACEMENT_3D ( 'NONE', #160, #516, #60 ) ;
#375 = ADVANCED_FACE ( 'NONE', ( #25 ), #22, .T. ) ;
#376 = EDGE_LOOP ( 'NONE', ( #511, #179, #419, #215 ) ) ;
#377 = CARTESIAN_POINT ( 'NONE',  ( 6.999999999999998224, 1.800000000000000044, -1.300000000000000266 ) ) ;
#378 = ORIENTED_EDGE ( 'NONE', *, *, #402, .F. ) ;
#379 = VERTEX_POINT ( 'NONE', #438 ) ;
#380 = DIRECTION ( 'NONE',  ( 1.000000000000000000, -8.673617379884032317E-15, 0.000000000000000000 ) ) ;
#381 = DIRECTION ( 'NONE',  ( -1.000000000000000000, 0.000000000000000000, 0.000000000000000000 ) ) ;
#382 = ORIENTED_EDGE ( 'NONE', *, *, #366, .T. ) ;
#383 = FACE_OUTER_BOUND ( 'NONE', #212, .T. ) ;
#384 = EDGE_CURVE ( 'NONE', #369, #183, #155, .T. ) ;
#385 = ORIENTED_EDGE ( 'NONE', *, *, #167, .T. ) ;
#386 = CIRCLE ( 'NONE', #229, 0.2000000000000000944 ) ;
#387 = CARTESIAN_POINT ( 'NONE',  ( -6.800000000000002487, 2.000000000000000000, 1.499999999999999778 ) ) ;
#388 = DIRECTION ( 'NONE',  ( 0.000000000000000000, 0.000000000000000000, -1.000000000000000000 ) ) ;
#389 = VECTOR ( 'NONE', #265, 1000.000000000000000 ) ;
#390 = FACE_OUTER_BOUND ( 'NONE', #295, .T. ) ;
#391 = DIRECTION ( 'NONE',  ( 0.000000000000000000, 1.000000000000000000, 0.000000000000000000 ) ) ;
#392 = CIRCLE ( 'NONE', #165, 0.2000000000000000944 ) ;
#393 = CARTESIAN_POINT ( 'NONE',  ( -6.800000000000002487, 1.800000000000000044, 1.299999999999999822 ) ) ;
#394 = DIRECTION ( 'NONE',  ( 0.000000000000000000, 0.000000000000000000, 1.000000000000000000 ) ) ;
#395 = CARTESIAN_POINT ( 'NONE',  ( -7.000000000000001776, 1.800000000000000044, -1.300000000000000266 ) ) ;
#396 = CARTESIAN_POINT ( 'NONE',  ( 6.799999999999998934, 1.800000000000000044, 1.966019939440380848E-15 ) ) ;
#397 = VECTOR ( 'NONE', #246, 1000.000000000000000 ) ;
#398 = CARTESIAN_POINT ( 'NONE',  ( 6.799999999999998046, 1.800000000000000044, 1.299999999999999822 ) ) ;
#399 = APPLICATION_PROTOCOL_DEFINITION ( 'international standard', 'config_control_design', 1994, #448 ) ;
#400 = APPROVAL_STATUS ( 'not_yet_approved' ) ;
#401 = VERTEX_POINT ( 'NONE', #103 ) ;
#402 = EDGE_CURVE ( 'NONE', #83, #209, #479, .T. ) ;
#403 = CIRCLE ( 'NONE', #75, 0.1999999999999996503 ) ;
#404 = DATE_AND_TIME ( #535, #278 ) ;
#405 = EDGE_LOOP ( 'NONE', ( #510, #299, #258, #292 ) ) ;
#406 = CIRCLE ( 'NONE', #322, 0.2000000000000000944 ) ;
#407 = DIRECTION ( 'NONE',  ( -1.000000000000000000, 0.000000000000000000, 4.336808689942024836E-15 ) ) ;
#408 = ORIENTED_EDGE ( 'NONE', *, *, #366, .F. ) ;
#409 = CC_DESIGN_APPROVAL ( #531, ( #74 ) ) ;
#410 = VERTEX_POINT ( 'NONE', #227 ) ;
#411 = CC_DESIGN_PERSON_AND_ORGANIZATION_ASSIGNMENT ( #452, #125, ( #489 ) ) ;
#412 = EDGE_CURVE ( 'NONE', #183, #8, #150, .T. ) ;
#413 = CARTESIAN_POINT ( 'NONE',  ( 6.799999999999998046, 2.000000000000000000, 1.299999999999999822 ) ) ;
#414 = LINE ( 'NONE', #422, #172 ) ;
#415 = CIRCLE ( 'NONE', #3, 0.1999999999999996503 ) ;
#416 = AXIS2_PLACEMENT_3D ( 'NONE', #47, #213, #463 ) ;
#417 = ORIENTED_EDGE ( 'NONE', *, *, #108, .T. ) ;
#418 = DIRECTION ( 'NONE',  ( -0.000000000000000000, 1.000000000000000000, -0.000000000000000000 ) ) ;
#419 = ORIENTED_EDGE ( 'NONE', *, *, #412, .F. ) ;
#420 = ORIENTED_EDGE ( 'NONE', *, *, #76, .T. ) ;
#421 = PLANE ( 'NONE',  #519 ) ;
#422 = CARTESIAN_POINT ( 'NONE',  ( -7.000000000000001776, 2.000000000000000000, -1.300000000000000266 ) ) ;
#423 = ORIENTED_EDGE ( 'NONE', *, *, #465, .T. ) ;
#424 = CC_DESIGN_PERSON_AND_ORGANIZATION_ASSIGNMENT ( #205, #35, ( #74 ) ) ;
#425 = DIRECTION ( 'NONE',  ( -0.000000000000000000, 1.000000000000000000, 0.000000000000000000 ) ) ;
#426 = CARTESIAN_POINT ( 'NONE',  ( -7.000000000000001776, 1.800000000000000044, 1.499999999999999778 ) ) ;
#427 = EDGE_CURVE ( 'NONE', #144, #330, #186, .T. ) ;
#428 = DIRECTION ( 'NONE',  ( 0.000000000000000000, 0.000000000000000000, 1.000000000000000000 ) ) ;
#429 = DIRECTION ( 'NONE',  ( 1.000000000000000000, 0.000000000000000000, 2.891205793294692624E-16 ) ) ;
#430 = CARTESIAN_POINT ( 'NONE',  ( 6.799999999999998934, 1.800000000000000044, -1.300000000000000266 ) ) ;
#431 = VECTOR ( 'NONE', #329, 1000.000000000000000 ) ;
#432 = VECTOR ( 'NONE', #532, 1000.000000000000000 ) ;
#433 = DIRECTION ( 'NONE',  ( 0.000000000000000000, -1.000000000000000000, 0.000000000000000000 ) ) ;
#434 = CYLINDRICAL_SURFACE ( 'NONE', #296, 0.1999999999999996503 ) ;
#435 = EDGE_CURVE ( 'NONE', #8, #211, #494, .T. ) ;
#436 = CARTESIAN_POINT ( 'NONE',  ( 0.000000000000000000, 0.000000000000000000, 0.000000000000000000 ) ) ;
#437 = ORIENTED_EDGE ( 'NONE', *, *, #345, .T. ) ;
#438 = CARTESIAN_POINT ( 'NONE',  ( 6.799999999999998934, 2.000000000000000000, 1.299999999999999822 ) ) ;
#439 = DIRECTION ( 'NONE',  ( -1.000000000000000000, 0.000000000000000000, -2.891205793294678326E-16 ) ) ;
#440 = FACE_OUTER_BOUND ( 'NONE', #45, .T. ) ;
#441 = CYLINDRICAL_SURFACE ( 'NONE', #21, 0.2000000000000000944 ) ;
#442 = DIRECTION ( 'NONE',  ( 1.000000000000000000, 0.000000000000000000, 0.000000000000000000 ) ) ;
#443 = LINE ( 'NONE', #447, #432 ) ;
#444 = AXIS2_PLACEMENT_3D ( 'NONE', #459, #177, #407 ) ;
#445 = ADVANCED_FACE ( 'NONE', ( #357 ), #192, .T. ) ;
#446 = ADVANCED_FACE ( 'NONE', ( #230 ), #347, .F. ) ;
#447 = CARTESIAN_POINT ( 'NONE',  ( 6.799999999999999822, 2.000000000000000000, -1.500000000000000222 ) ) ;
#448 = APPLICATION_CONTEXT ( 'configuration controlled 3d designs of mechanical parts and assemblies' ) ;
#449 = CALENDAR_DATE ( 2026, 22, 3 ) ;
#450 = CALENDAR_DATE ( 2026, 22, 3 ) ;
#451 = APPROVAL_DATE_TIME ( #404, #531 ) ;
#452 = PERSON_AND_ORGANIZATION ( #243, #32 ) ;
#453 = CARTESIAN_POINT ( 'NONE',  ( 0.000000000000000000, 2.000000000000000000, 0.000000000000000000 ) ) ;
#454 = ORIENTED_EDGE ( 'NONE', *, *, #264, .F. ) ;
#455 = EDGE_CURVE ( 'NONE', #330, #209, #135, .T. ) ;
#456 = CARTESIAN_POINT ( 'NONE',  ( 6.999999999999997335, 1.800000000000000044, 1.499999999999999778 ) ) ;
#457 = AXIS2_PLACEMENT_3D ( 'NONE', #272, #237, #151 ) ;
#458 = ORIENTED_EDGE ( 'NONE', *, *, #324, .F. ) ;
#459 = CARTESIAN_POINT ( 'NONE',  ( 6.799999999999998934, 1.800000000000000044, -1.300000000000000266 ) ) ;
#460 = VERTEX_POINT ( 'NONE', #157 ) ;
#461 = EDGE_LOOP ( 'NONE', ( #501, #6, #297 ) ) ;
#462 = AXIS2_PLACEMENT_3D ( 'NONE', #19, #512, #521 ) ;
#463 = DIRECTION ( 'NONE',  ( 5.204170427930418759E-14, 0.000000000000000000, 1.000000000000000000 ) ) ;
#464 = DIRECTION ( 'NONE',  ( 1.000000000000000000, -0.000000000000000000, -0.000000000000000000 ) ) ;
#465 = EDGE_CURVE ( 'NONE', #131, #363, #109, .T. ) ;
#466 = ORIENTED_EDGE ( 'NONE', *, *, #465, .F. ) ;
#467 = LINE ( 'NONE', #373, #43 ) ;
#468 = EDGE_LOOP ( 'NONE', ( #39, #248, #408, #300 ) ) ;
#469 = EDGE_LOOP ( 'NONE', ( #334, #420, #505 ) ) ;
#470 = ADVANCED_FACE ( 'NONE', ( #390 ), #441, .T. ) ;
#471 = CC_DESIGN_APPROVAL ( #130, ( #116 ) ) ;
#472 = DIRECTION ( 'NONE',  ( 0.000000000000000000, -0.000000000000000000, 1.000000000000000000 ) ) ;
#473 = EDGE_LOOP ( 'NONE', ( #37, #257, #466, #262, #182, #328, #378, #437 ) ) ;
#474 = CARTESIAN_POINT ( 'NONE',  ( 6.799999999999998046, 0.000000000000000000, -1.300000000000000266 ) ) ;
#475 = DIRECTION ( 'NONE',  ( -2.891205793294678326E-16, 0.000000000000000000, 1.000000000000000000 ) ) ;
#476 =( NAMED_UNIT ( * ) PLANE_ANGLE_UNIT ( ) SI_UNIT ( $, .RADIAN. ) );
#477 = VECTOR ( 'NONE', #54, 1000.000000000000000 ) ;
#478 = EDGE_CURVE ( 'NONE', #503, #9, #188, .T. ) ;
#479 = LINE ( 'NONE', #184, #69 ) ;
#480 = CARTESIAN_POINT ( 'NONE',  ( 6.799999999999999822, 1.800000000000000044, -1.300000000000000266 ) ) ;
#481 = EDGE_CURVE ( 'NONE', #379, #95, #443, .T. ) ;
#482 = DIRECTION ( 'NONE',  ( 1.000000000000000000, 0.000000000000000000, 0.000000000000000000 ) ) ;
#483 = CYLINDRICAL_SURFACE ( 'NONE', #457, 0.2000000000000000944 ) ;
#484 = CARTESIAN_POINT ( 'NONE',  ( -6.800000000000002487, 1.800000000000000044, 0.000000000000000000 ) ) ;
#485 = CARTESIAN_POINT ( 'NONE',  ( 6.999999999999997335, 0.000000000000000000, 1.299999999999999822 ) ) ;
#486 = EDGE_CURVE ( 'NONE', #183, #379, #311, .T. ) ;
#487 = PLANE ( 'NONE',  #242 ) ;
#488 = VECTOR ( 'NONE', #53, 1000.000000000000000 ) ;
#489 = PRODUCT_DEFINITION_FORMATION_WITH_SPECIFIED_SOURCE ( 'ANY', '', #119, .NOT_KNOWN. ) ;
#490 = PERSON_AND_ORGANIZATION ( #243, #32 ) ;
#491 = PRODUCT_DEFINITION_SHAPE ( 'NONE', 'NONE',  #74 ) ;
#492 = COORDINATED_UNIVERSAL_TIME_OFFSET ( 8, 0, .AHEAD. ) ;
#493 = ADVANCED_FACE ( 'NONE', ( #355 ), #483, .T. ) ;
#494 = CIRCLE ( 'NONE', #462, 0.2000000000000000944 ) ;
#495 = PERSON_AND_ORGANIZATION ( #243, #32 ) ;
#496 = CC_DESIGN_PERSON_AND_ORGANIZATION_ASSIGNMENT ( #279, #122, ( #116 ) ) ;
#497 = DIRECTION ( 'NONE',  ( 0.000000000000000000, 0.000000000000000000, 1.000000000000000000 ) ) ;
#498 = EDGE_LOOP ( 'NONE', ( #382, #88, #185 ) ) ;
#499 = DIRECTION ( 'NONE',  ( -1.000000000000000000, -0.000000000000000000, -0.000000000000000000 ) ) ;
#500 = ORIENTED_EDGE ( 'NONE', *, *, #478, .F. ) ;
#501 = ORIENTED_EDGE ( 'NONE', *, *, #412, .T. ) ;
#502 = CARTESIAN_POINT ( 'NONE',  ( -6.800000000000002487, 2.000000000000000000, -1.500000000000000222 ) ) ;
#503 = VERTEX_POINT ( 'NONE', #198 ) ;
#504 = VECTOR ( 'NONE', #59, 1000.000000000000000 ) ;
#505 = ORIENTED_EDGE ( 'NONE', *, *, #368, .F. ) ;
#506 = CARTESIAN_POINT ( 'NONE',  ( -6.800000000000002487, 1.800000000000000044, 1.499999999999999778 ) ) ;
#507 = DIRECTION ( 'NONE',  ( 0.000000000000000000, 0.000000000000000000, 1.000000000000000000 ) ) ;
#508 = ORIENTED_EDGE ( 'NONE', *, *, #435, .F. ) ;
#509 = DIRECTION ( 'NONE',  ( 0.000000000000000000, -1.000000000000000000, 0.000000000000000000 ) ) ;
#510 = ORIENTED_EDGE ( 'NONE', *, *, #64, .T. ) ;
#511 = ORIENTED_EDGE ( 'NONE', *, *, #368, .T. ) ;
#512 = DIRECTION ( 'NONE',  ( 0.000000000000000000, 1.000000000000000000, -0.000000000000000000 ) ) ;
#513 = EDGE_LOOP ( 'NONE', ( #99, #458, #508, #12 ) ) ;
#514 = AXIS2_PLACEMENT_3D ( 'NONE', #102, #359, #276 ) ;
#515 = DIRECTION ( 'NONE',  ( 0.000000000000000000, 0.000000000000000000, 1.000000000000000000 ) ) ;
#516 = DIRECTION ( 'NONE',  ( 0.000000000000000000, 1.000000000000000000, 0.000000000000000000 ) ) ;
#517 = CARTESIAN_POINT ( 'NONE',  ( 6.999999999999997335, 2.000000000000000000, 1.299999999999999822 ) ) ;
#518 = ADVANCED_FACE ( 'NONE', ( #440 ), #228, .F. ) ;
#519 = AXIS2_PLACEMENT_3D ( 'NONE', #453, #77, #174 ) ;
#520 = ADVANCED_BREP_SHAPE_REPRESENTATION ( 'BAR3X14T2', ( #263, #236 ), #249 ) ;
#521 = DIRECTION ( 'NONE',  ( 0.000000000000000000, 0.000000000000000000, 1.000000000000000000 ) ) ;
#522 = CARTESIAN_POINT ( 'NONE',  ( 6.799999999999998046, 1.800000000000000044, -1.500000000000000222 ) ) ;
#523 = AXIS2_PLACEMENT_3D ( 'NONE', #156, #158, #388 ) ;
#524 = DIRECTION ( 'NONE',  ( 0.000000000000000000, -1.000000000000000000, 0.000000000000000000 ) ) ;
#525 = CARTESIAN_POINT ( 'NONE',  ( 6.799999999999998046, 2.000000000000000000, -1.500000000000000222 ) ) ;
#526 = CIRCLE ( 'NONE', #200, 0.2000000000000000944 ) ;
#527 = DIRECTION ( 'NONE',  ( -0.000000000000000000, -0.000000000000000000, 1.000000000000000000 ) ) ;
#528 = LINE ( 'NONE', #351, #346 ) ;
#529 = DIRECTION ( 'NONE',  ( 2.891205793294678326E-16, -0.000000000000000000, -1.000000000000000000 ) ) ;
#530 = PLANE ( 'NONE',  #534 ) ;
#531 = APPROVAL ( #78, 'UNSPECIFIED' ) ;
#532 = DIRECTION ( 'NONE',  ( 2.891205793294678326E-16, -0.000000000000000000, -1.000000000000000000 ) ) ;
#533 = ADVANCED_FACE ( 'NONE', ( #304 ), #190, .F. ) ;
#534 = AXIS2_PLACEMENT_3D ( 'NONE', #235, #26, #29 ) ;
#535 = CALENDAR_DATE ( 2026, 22, 3 ) ;
#536 = CIRCLE ( 'NONE', #195, 0.1999999999999996503 ) ;
#537 = LOCAL_TIME ( 14, 56, 24.00000000000000000, #201 ) ;
#538 = DIRECTION ( 'NONE',  ( 1.000000000000000000, 0.000000000000000000, 0.000000000000000000 ) ) ;
#539 = EDGE_CURVE ( 'NONE', #372, #131, #528, .T. ) ;
#540 = APPROVAL_DATE_TIME ( #365, #130 ) ;
#541 = VERTEX_POINT ( 'NONE', #232 ) ;
ENDSEC;
END-ISO-10303-21;
