ISO-10303-21;
HEADER;
FILE_DESCRIPTION (( 'STEP AP203' ),
    '1' );
FILE_NAME ('BAR3X6T1.step',
    '2026-03-22T05:39:43',
    ( '' ),
    ( '' ),
    'SwSTEP 2.0',
    'SolidWorks 2025',
    '' );
FILE_SCHEMA (( 'CONFIG_CONTROL_DESIGN' ));
ENDSEC;

DATA;
#1 = CIRCLE ( 'NONE', #383, 0.2000000000000000944 ) ;
#2 = CARTESIAN_POINT ( 'NONE',  ( -2.799999999999998490, 0.8000000000000000444, 8.095376221225095172E-16 ) ) ;
#3 = EDGE_CURVE ( 'NONE', #229, #220, #56, .T. ) ;
#4 = ORIENTED_EDGE ( 'NONE', *, *, #477, .F. ) ;
#5 = DIRECTION ( 'NONE',  ( -1.000000000000000000, 0.000000000000000000, 0.000000000000000000 ) ) ;
#6 = CARTESIAN_POINT ( 'NONE',  ( -2.799999999999998046, 0.8000000000000000444, 1.500000000000000222 ) ) ;
#7 = VERTEX_POINT ( 'NONE', #115 ) ;
#8 = CARTESIAN_POINT ( 'NONE',  ( -2.799999999999998934, 1.000000000000000000, -1.299999999999999822 ) ) ;
#9 = FACE_OUTER_BOUND ( 'NONE', #401, .T. ) ;
#10 = VERTEX_POINT ( 'NONE', #291 ) ;
#11 = CARTESIAN_POINT ( 'NONE',  ( 0.000000000000000000, 0.000000000000000000, 0.000000000000000000 ) ) ;
#12 = CIRCLE ( 'NONE', #435, 0.2000000000000000944 ) ;
#13 = LINE ( 'NONE', #366, #415 ) ;
#14 = COORDINATED_UNIVERSAL_TIME_OFFSET ( 8, 0, .AHEAD. ) ;
#15 = ADVANCED_FACE ( 'NONE', ( #528 ), #36, .T. ) ;
#16 = ORIENTED_EDGE ( 'NONE', *, *, #246, .F. ) ;
#17 = PLANE ( 'NONE',  #173 ) ;
#18 = CARTESIAN_POINT ( 'NONE',  ( 3.000000000000000888, 1.000000000000000000, 1.300000000000000266 ) ) ;
#19 = PERSON_AND_ORGANIZATION ( #216, #239 ) ;
#20 = ORIENTED_EDGE ( 'NONE', *, *, #376, .T. ) ;
#21 = DIRECTION ( 'NONE',  ( -0.000000000000000000, 1.000000000000000000, 0.000000000000000000 ) ) ;
#22 = CARTESIAN_POINT ( 'NONE',  ( 2.800000000000000711, 0.8000000000000000444, -1.299999999999999822 ) ) ;
#23 = ORIENTED_EDGE ( 'NONE', *, *, #338, .F. ) ;
#24 = LINE ( 'NONE', #197, #458 ) ;
#25 = CC_DESIGN_APPROVAL ( #37, ( #368 ) ) ;
#26 = CARTESIAN_POINT ( 'NONE',  ( -2.999999999999999112, 1.000000000000000000, -1.499999999999999778 ) ) ;
#27 = FACE_OUTER_BOUND ( 'NONE', #82, .T. ) ;
#28 = DIRECTION ( 'NONE',  ( 0.000000000000000000, -1.000000000000000000, 0.000000000000000000 ) ) ;
#29 = CARTESIAN_POINT ( 'NONE',  ( -2.999999999999999112, 0.000000000000000000, -1.499999999999999778 ) ) ;
#30 = EDGE_CURVE ( 'NONE', #10, #124, #486, .T. ) ;
#31 = CIRCLE ( 'NONE', #84, 0.2000000000000000944 ) ;
#32 = EDGE_CURVE ( 'NONE', #274, #313, #225, .T. ) ;
#33 = MANIFOLD_SOLID_BREP ( '\X2\570689d2\X0\1', #160 ) ;
#34 = DIRECTION ( 'NONE',  ( 1.000000000000000000, 0.000000000000000000, 0.000000000000000000 ) ) ;
#35 = VECTOR ( 'NONE', #283, 1000.000000000000000 ) ;
#36 = SPHERICAL_SURFACE ( 'NONE', #378, 0.2000000000000000111 ) ;
#37 = APPROVAL ( #312, 'UNSPECIFIED' ) ;
#38 = EDGE_LOOP ( 'NONE', ( #394, #20, #305, #179 ) ) ;
#39 = LINE ( 'NONE', #526, #452 ) ;
#40 = DIRECTION ( 'NONE',  ( -1.000000000000000000, 0.000000000000000000, 2.891205793294676847E-16 ) ) ;
#41 = CC_DESIGN_PERSON_AND_ORGANIZATION_ASSIGNMENT ( #231, #141, ( #449 ) ) ;
#42 = ORIENTED_EDGE ( 'NONE', *, *, #332, .T. ) ;
#43 = AXIS2_PLACEMENT_3D ( 'NONE', #265, #222, #95 ) ;
#44 = PLANE ( 'NONE',  #266 ) ;
#45 = EDGE_CURVE ( 'NONE', #333, #479, #322, .T. ) ;
#46 = ORIENTED_EDGE ( 'NONE', *, *, #459, .T. ) ;
#47 = FACE_OUTER_BOUND ( 'NONE', #90, .T. ) ;
#48 = AXIS2_PLACEMENT_3D ( 'NONE', #465, #541, #511 ) ;
#49 = ORIENTED_EDGE ( 'NONE', *, *, #30, .F. ) ;
#50 = CARTESIAN_POINT ( 'NONE',  ( -2.799999999999998046, 0.8000000000000000444, 1.300000000000000266 ) ) ;
#51 = FACE_OUTER_BOUND ( 'NONE', #512, .T. ) ;
#52 = SHAPE_DEFINITION_REPRESENTATION ( #73, #385 ) ;
#53 = ORIENTED_EDGE ( 'NONE', *, *, #453, .F. ) ;
#54 = CARTESIAN_POINT ( 'NONE',  ( 0.000000000000000000, 1.000000000000000000, 0.000000000000000000 ) ) ;
#55 = EDGE_CURVE ( 'NONE', #136, #7, #330, .T. ) ;
#56 = CIRCLE ( 'NONE', #293, 0.2000000000000000944 ) ;
#57 = CALENDAR_DATE ( 2026, 22, 3 ) ;
#58 = CC_DESIGN_DATE_AND_TIME_ASSIGNMENT ( #521, #267, ( #368 ) ) ;
#59 = ORIENTED_EDGE ( 'NONE', *, *, #288, .F. ) ;
#60 = DIRECTION ( 'NONE',  ( 0.000000000000000000, 0.000000000000000000, -1.000000000000000000 ) ) ;
#61 = AXIS2_PLACEMENT_3D ( 'NONE', #22, #520, #280 ) ;
#62 = CARTESIAN_POINT ( 'NONE',  ( 2.800000000000000266, 0.8000000000000000444, -1.299999999999999822 ) ) ;
#63 = SECURITY_CLASSIFICATION_LEVEL ( 'unclassified' ) ;
#64 = VERTEX_POINT ( 'NONE', #446 ) ;
#65 = FACE_OUTER_BOUND ( 'NONE', #217, .T. ) ;
#66 = CARTESIAN_POINT ( 'NONE',  ( -2.799999999999998046, 0.8000000000000000444, 1.300000000000000266 ) ) ;
#67 = ADVANCED_FACE ( 'NONE', ( #72 ), #155, .T. ) ;
#68 = APPROVAL_ROLE ( '' ) ;
#69 = ORIENTED_EDGE ( 'NONE', *, *, #532, .F. ) ;
#70 = DIRECTION ( 'NONE',  ( -1.000000000000000000, 0.000000000000000000, 0.000000000000000000 ) ) ;
#71 = DIRECTION ( 'NONE',  ( -2.891205793294678326E-16, -0.000000000000000000, -1.000000000000000000 ) ) ;
#72 = FACE_OUTER_BOUND ( 'NONE', #362, .T. ) ;
#73 = PRODUCT_DEFINITION_SHAPE ( 'NONE', 'NONE',  #287 ) ;
#74 = FACE_OUTER_BOUND ( 'NONE', #425, .T. ) ;
#75 = PLANE ( 'NONE',  #318 ) ;
#76 = AXIS2_PLACEMENT_3D ( 'NONE', #2, #172, #40 ) ;
#77 = LINE ( 'NONE', #29, #106 ) ;
#78 = AXIS2_PLACEMENT_3D ( 'NONE', #384, #508, #388 ) ;
#79 = EDGE_CURVE ( 'NONE', #169, #136, #208, .T. ) ;
#80 = CIRCLE ( 'NONE', #94, 0.2000000000000000944 ) ;
#81 = ORIENTED_EDGE ( 'NONE', *, *, #251, .F. ) ;
#82 = EDGE_LOOP ( 'NONE', ( #507, #23, #16, #132 ) ) ;
#83 = CARTESIAN_POINT ( 'NONE',  ( 0.000000000000000000, 0.8000000000000000444, -1.299999999999999822 ) ) ;
#84 = AXIS2_PLACEMENT_3D ( 'NONE', #481, #232, #525 ) ;
#85 = APPROVAL ( #463, 'UNSPECIFIED' ) ;
#86 = DIRECTION ( 'NONE',  ( 0.000000000000000000, 1.000000000000000000, 0.000000000000000000 ) ) ;
#87 = EDGE_LOOP ( 'NONE', ( #46, #142, #96, #281 ) ) ;
#88 = EDGE_CURVE ( 'NONE', #504, #380, #1, .T. ) ;
#89 = CARTESIAN_POINT ( 'NONE',  ( 3.000000000000000888, 1.000000000000000000, -1.299999999999999822 ) ) ;
#90 = EDGE_LOOP ( 'NONE', ( #42, #346, #118, #278 ) ) ;
#91 = PLANE ( 'NONE',  #426 ) ;
#92 = CALENDAR_DATE ( 2026, 22, 3 ) ;
#93 = ORIENTED_EDGE ( 'NONE', *, *, #535, .F. ) ;
#94 = AXIS2_PLACEMENT_3D ( 'NONE', #50, #221, #390 ) ;
#95 = DIRECTION ( 'NONE',  ( 0.000000000000000000, 0.000000000000000000, -1.000000000000000000 ) ) ;
#96 = ORIENTED_EDGE ( 'NONE', *, *, #338, .T. ) ;
#97 = FACE_OUTER_BOUND ( 'NONE', #236, .T. ) ;
#98 = ADVANCED_FACE ( 'NONE', ( #371 ), #75, .F. ) ;
#99 = CARTESIAN_POINT ( 'NONE',  ( 3.000000000000000888, 0.8000000000000000444, 1.300000000000000266 ) ) ;
#100 = APPROVAL_DATE_TIME ( #300, #85 ) ;
#101 = ORIENTED_EDGE ( 'NONE', *, *, #107, .T. ) ;
#102 = DIRECTION ( 'NONE',  ( 1.000000000000000000, -2.168404344971009262E-15, 0.000000000000000000 ) ) ;
#103 = VECTOR ( 'NONE', #252, 1000.000000000000000 ) ;
#104 = ORIENTED_EDGE ( 'NONE', *, *, #147, .F. ) ;
#105 = CARTESIAN_POINT ( 'NONE',  ( 2.800000000000000711, 0.8000000000000000444, 1.300000000000000266 ) ) ;
#106 = VECTOR ( 'NONE', #203, 1000.000000000000000 ) ;
#107 = EDGE_CURVE ( 'NONE', #489, #64, #39, .T. ) ;
#108 = LINE ( 'NONE', #314, #183 ) ;
#109 = PERSON_AND_ORGANIZATION_ROLE ( 'classification_officer' ) ;
#110 = ORIENTED_EDGE ( 'NONE', *, *, #201, .F. ) ;
#111 = CIRCLE ( 'NONE', #524, 0.2000000000000000944 ) ;
#112 = CARTESIAN_POINT ( 'NONE',  ( -2.799999999999998046, 1.000000000000000000, 1.300000000000000266 ) ) ;
#113 = DIRECTION ( 'NONE',  ( 0.000000000000000000, 0.000000000000000000, 1.000000000000000000 ) ) ;
#114 = ADVANCED_FACE ( 'NONE', ( #212 ), #158, .T. ) ;
#115 = CARTESIAN_POINT ( 'NONE',  ( 2.800000000000001155, 0.000000000000000000, 1.500000000000000222 ) ) ;
#116 = FACE_OUTER_BOUND ( 'NONE', #168, .T. ) ;
#117 = CARTESIAN_POINT ( 'NONE',  ( 2.800000000000000711, 1.000000000000000000, -1.499999999999999778 ) ) ;
#118 = ORIENTED_EDGE ( 'NONE', *, *, #369, .T. ) ;
#119 = DIRECTION ( 'NONE',  ( 0.000000000000000000, -0.000000000000000000, 1.000000000000000000 ) ) ;
#120 = VECTOR ( 'NONE', #427, 1000.000000000000000 ) ;
#121 = LOCAL_TIME ( 13, 39, 43.00000000000000000, #14 ) ;
#122 = DIRECTION ( 'NONE',  ( 1.000000000000000000, 0.000000000000000000, 0.000000000000000000 ) ) ;
#123 = CARTESIAN_POINT ( 'NONE',  ( -2.799999999999998046, 0.000000000000000000, 1.500000000000000222 ) ) ;
#124 = VERTEX_POINT ( 'NONE', #406 ) ;
#125 = DIRECTION ( 'NONE',  ( -0.000000000000000000, -0.000000000000000000, -1.000000000000000000 ) ) ;
#126 = VERTEX_POINT ( 'NONE', #202 ) ;
#127 = LINE ( 'NONE', #469, #165 ) ;
#128 = PRODUCT_DEFINITION_FORMATION_WITH_SPECIFIED_SOURCE ( 'ANY', '', #449, .NOT_KNOWN. ) ;
#129 = ORIENTED_EDGE ( 'NONE', *, *, #440, .F. ) ;
#130 = EDGE_CURVE ( 'NONE', #313, #504, #324, .T. ) ;
#131 = CARTESIAN_POINT ( 'NONE',  ( 3.000000000000000888, 1.000000000000000000, 1.300000000000000266 ) ) ;
#132 = ORIENTED_EDGE ( 'NONE', *, *, #447, .F. ) ;
#133 = DIRECTION ( 'NONE',  ( -0.000000000000000000, -1.000000000000000000, -0.000000000000000000 ) ) ;
#134 = VERTEX_POINT ( 'NONE', #494 ) ;
#135 = CARTESIAN_POINT ( 'NONE',  ( -2.799999999999998934, 0.8000000000000000444, -1.299999999999999822 ) ) ;
#136 = VERTEX_POINT ( 'NONE', #123 ) ;
#137 = AXIS2_PLACEMENT_3D ( 'NONE', #398, #21, #471 ) ;
#138 = DIRECTION ( 'NONE',  ( 0.000000000000000000, 0.000000000000000000, -1.000000000000000000 ) ) ;
#139 = PRODUCT_RELATED_PRODUCT_CATEGORY ( 'detail', '', ( #449 ) ) ;
#140 = DIRECTION ( 'NONE',  ( -0.000000000000000000, 1.000000000000000000, -0.000000000000000000 ) ) ;
#141 = PERSON_AND_ORGANIZATION_ROLE ( 'design_owner' ) ;
#142 = ORIENTED_EDGE ( 'NONE', *, *, #418, .T. ) ;
#143 = DIRECTION ( 'NONE',  ( 1.000000000000000000, 0.000000000000000000, 0.000000000000000000 ) ) ;
#144 = DIRECTION ( 'NONE',  ( 1.000000000000000000, 0.000000000000000000, -2.891205793294678326E-16 ) ) ;
#145 = PERSON_AND_ORGANIZATION ( #216, #239 ) ;
#146 = ORIENTED_EDGE ( 'NONE', *, *, #369, .F. ) ;
#147 = EDGE_CURVE ( 'NONE', #136, #126, #111, .T. ) ;
#148 = DIRECTION ( 'NONE',  ( -0.000000000000000000, -0.000000000000000000, 1.000000000000000000 ) ) ;
#149 = DIRECTION ( 'NONE',  ( -6.505213034913023449E-15, 0.000000000000000000, 1.000000000000000000 ) ) ;
#150 = PERSON_AND_ORGANIZATION ( #216, #239 ) ;
#151 = ORIENTED_EDGE ( 'NONE', *, *, #3, .F. ) ;
#152 = EDGE_CURVE ( 'NONE', #479, #124, #176, .T. ) ;
#153 = DIRECTION ( 'NONE',  ( -0.000000000000000000, -0.000000000000000000, 1.000000000000000000 ) ) ;
#154 = ADVANCED_FACE ( 'NONE', ( #500 ), #177, .T. ) ;
#155 = CYLINDRICAL_SURFACE ( 'NONE', #244, 0.2000000000000000944 ) ;
#156 = CARTESIAN_POINT ( 'NONE',  ( -2.799999999999998934, 0.8000000000000000444, -1.299999999999999822 ) ) ;
#157 = CARTESIAN_POINT ( 'NONE',  ( 2.800000000000000711, 0.8000000000000000444, 1.300000000000000266 ) ) ;
#158 = CYLINDRICAL_SURFACE ( 'NONE', #411, 0.2000000000000000944 ) ;
#159 = CARTESIAN_POINT ( 'NONE',  ( -2.799999999999998934, 1.000000000000000000, -1.499999999999999778 ) ) ;
#160 = CLOSED_SHELL ( 'NONE', ( #164, #98, #337, #505, #243, #326, #498, #67, #154, #15, #450, #492, #213, #345, #114, #408, #538, #189 ) ) ;
#161 = CARTESIAN_POINT ( 'NONE',  ( -2.799999999999998046, 1.000000000000000000, 1.500000000000000222 ) ) ;
#162 = EDGE_CURVE ( 'NONE', #355, #169, #127, .T. ) ;
#163 = VECTOR ( 'NONE', #71, 1000.000000000000000 ) ;
#164 = ADVANCED_FACE ( 'NONE', ( #9 ), #381, .F. ) ;
#165 = VECTOR ( 'NONE', #294, 1000.000000000000000 ) ;
#166 = CARTESIAN_POINT ( 'NONE',  ( -2.999999999999999112, 1.000000000000000000, -1.299999999999999822 ) ) ;
#167 = ORIENTED_EDGE ( 'NONE', *, *, #288, .T. ) ;
#168 = EDGE_LOOP ( 'NONE', ( #249, #174, #389, #374 ) ) ;
#169 = VERTEX_POINT ( 'NONE', #6 ) ;
#170 = CARTESIAN_POINT ( 'NONE',  ( 3.000000000000000888, 0.8000000000000000444, -1.299999999999999822 ) ) ;
#171 = EDGE_CURVE ( 'NONE', #7, #355, #181, .T. ) ;
#172 = DIRECTION ( 'NONE',  ( -2.891205793294678326E-16, 0.000000000000000000, -1.000000000000000000 ) ) ;
#173 = AXIS2_PLACEMENT_3D ( 'NONE', #282, #60, #187 ) ;
#174 = ORIENTED_EDGE ( 'NONE', *, *, #79, .T. ) ;
#175 = CARTESIAN_POINT ( 'NONE',  ( 2.800000000000000711, 1.000000000000000000, -1.299999999999999822 ) ) ;
#176 = CIRCLE ( 'NONE', #480, 0.2000000000000000944 ) ;
#177 = CYLINDRICAL_SURFACE ( 'NONE', #43, 0.2000000000000000944 ) ;
#178 = CALENDAR_DATE ( 2026, 22, 3 ) ;
#179 = ORIENTED_EDGE ( 'NONE', *, *, #45, .T. ) ;
#180 =( NAMED_UNIT ( * ) PLANE_ANGLE_UNIT ( ) SI_UNIT ( $, .RADIAN. ) );
#181 = LINE ( 'NONE', #339, #120 ) ;
#182 = ORIENTED_EDGE ( 'NONE', *, *, #441, .F. ) ;
#183 = VECTOR ( 'NONE', #153, 1000.000000000000000 ) ;
#184 = LINE ( 'NONE', #117, #35 ) ;
#185 = CC_DESIGN_DATE_AND_TIME_ASSIGNMENT ( #360, #235, ( #287 ) ) ;
#186 = ORIENTED_EDGE ( 'NONE', *, *, #79, .F. ) ;
#187 = DIRECTION ( 'NONE',  ( -1.000000000000000000, 0.000000000000000000, -0.000000000000000000 ) ) ;
#188 = DIRECTION ( 'NONE',  ( 1.000000000000000000, -0.000000000000000000, -0.000000000000000000 ) ) ;
#189 = ADVANCED_FACE ( 'NONE', ( #47 ), #302, .T. ) ;
#190 = EDGE_LOOP ( 'NONE', ( #470, #350, #233 ) ) ;
#191 = CARTESIAN_POINT ( 'NONE',  ( -2.999999999999999112, 0.000000000000000000, -1.499999999999999778 ) ) ;
#192 = CARTESIAN_POINT ( 'NONE',  ( 2.800000000000000711, 0.8000000000000000444, 0.000000000000000000 ) ) ;
#193 = DESIGN_CONTEXT ( 'detailed design', #533, 'design' ) ;
#194 = APPROVAL_DATE_TIME ( #431, #396 ) ;
#195 = EDGE_LOOP ( 'NONE', ( #501, #397, #146 ) ) ;
#196 = CC_DESIGN_SECURITY_CLASSIFICATION ( #368, ( #128 ) ) ;
#197 = CARTESIAN_POINT ( 'NONE',  ( -2.799999999999998046, 1.000000000000000000, 1.500000000000000222 ) ) ;
#198 = CARTESIAN_POINT ( 'NONE',  ( 2.800000000000000266, 1.000000000000000000, -1.499999999999999778 ) ) ;
#199 = VECTOR ( 'NONE', #462, 1000.000000000000000 ) ;
#200 = LINE ( 'NONE', #321, #392 ) ;
#201 = EDGE_CURVE ( 'NONE', #380, #489, #327, .T. ) ;
#202 = CARTESIAN_POINT ( 'NONE',  ( -2.999999999999998224, 0.000000000000000000, 1.300000000000000266 ) ) ;
#203 = DIRECTION ( 'NONE',  ( 2.891205793294678326E-16, 0.000000000000000000, 1.000000000000000000 ) ) ;
#204 = AXIS2_PLACEMENT_3D ( 'NONE', #238, #412, #482 ) ;
#205 = AXIS2_PLACEMENT_3D ( 'NONE', #156, #148, #70 ) ;
#206 = CIRCLE ( 'NONE', #253, 0.2000000000000000944 ) ;
#207 = CC_DESIGN_PERSON_AND_ORGANIZATION_ASSIGNMENT ( #150, #109, ( #368 ) ) ;
#208 = LINE ( 'NONE', #161, #103 ) ;
#209 = ORIENTED_EDGE ( 'NONE', *, *, #433, .T. ) ;
#210 = ORIENTED_EDGE ( 'NONE', *, *, #152, .F. ) ;
#211 = VERTEX_POINT ( 'NONE', #99 ) ;
#212 = FACE_OUTER_BOUND ( 'NONE', #422, .T. ) ;
#213 = ADVANCED_FACE ( 'NONE', ( #51 ), #270, .T. ) ;
#214 = CARTESIAN_POINT ( 'NONE',  ( -2.999999999999998224, 0.8000000000000000444, 1.300000000000000266 ) ) ;
#215 = DIRECTION ( 'NONE',  ( -0.000000000000000000, -1.000000000000000000, -0.000000000000000000 ) ) ;
#216 = PERSON ( 'UNSPECIFIED', 'UNSPECIFIED', 'UNSPECIFIED', ('UNSPECIFIED'), ('UNSPECIFIED'), ('UNSPECIFIED') ) ;
#217 = EDGE_LOOP ( 'NONE', ( #329, #296, #110, #515 ) ) ;
#218 = DIRECTION ( 'NONE',  ( 0.000000000000000000, 1.000000000000000000, 0.000000000000000000 ) ) ;
#219 = APPLICATION_PROTOCOL_DEFINITION ( 'international standard', 'config_control_design', 1994, #533 ) ;
#220 = VERTEX_POINT ( 'NONE', #214 ) ;
#221 = DIRECTION ( 'NONE',  ( 0.000000000000000000, 1.000000000000000000, -0.000000000000000000 ) ) ;
#222 = DIRECTION ( 'NONE',  ( 0.000000000000000000, -1.000000000000000000, 0.000000000000000000 ) ) ;
#223 = ORIENTED_EDGE ( 'NONE', *, *, #490, .F. ) ;
#224 = DIRECTION ( 'NONE',  ( 0.000000000000000000, 0.000000000000000000, 1.000000000000000000 ) ) ;
#225 = CIRCLE ( 'NONE', #204, 0.2000000000000000944 ) ;
#226 = LINE ( 'NONE', #18, #436 ) ;
#227 = PERSON_AND_ORGANIZATION ( #216, #239 ) ;
#228 = AXIS2_PLACEMENT_3D ( 'NONE', #11, #347, #143 ) ;
#229 = VERTEX_POINT ( 'NONE', #430 ) ;
#230 = VECTOR ( 'NONE', #320, 1000.000000000000000 ) ;
#231 = PERSON_AND_ORGANIZATION ( #216, #239 ) ;
#232 = DIRECTION ( 'NONE',  ( -0.000000000000000000, -1.000000000000000000, -0.000000000000000000 ) ) ;
#233 = ORIENTED_EDGE ( 'NONE', *, *, #332, .F. ) ;
#234 = DIRECTION ( 'NONE',  ( 1.000000000000000000, 0.000000000000000000, 0.000000000000000000 ) ) ;
#235 = DATE_TIME_ROLE ( 'creation_date' ) ;
#236 = EDGE_LOOP ( 'NONE', ( #104, #186, #93, #301 ) ) ;
#237 = DIRECTION ( 'NONE',  ( -1.000000000000000000, -0.000000000000000000, -0.000000000000000000 ) ) ;
#238 = CARTESIAN_POINT ( 'NONE',  ( 2.800000000000000711, 0.8000000000000000444, -1.299999999999999822 ) ) ;
#239 = ORGANIZATION ( 'UNSPECIFIED', 'UNSPECIFIED', '' ) ;
#240 = SPHERICAL_SURFACE ( 'NONE', #275, 0.2000000000000000111 ) ;
#241 = DIRECTION ( 'NONE',  ( 0.000000000000000000, 0.000000000000000000, -1.000000000000000000 ) ) ;
#242 = CARTESIAN_POINT ( 'NONE',  ( 2.800000000000000266, 0.000000000000000000, -1.499999999999999778 ) ) ;
#243 = ADVANCED_FACE ( 'NONE', ( #377 ), #91, .T. ) ;
#244 = AXIS2_PLACEMENT_3D ( 'NONE', #83, #34, #451 ) ;
#245 = APPLICATION_CONTEXT ( 'configuration controlled 3d designs of mechanical parts and assemblies' ) ;
#246 = EDGE_CURVE ( 'NONE', #211, #256, #307, .T. ) ;
#247 = VECTOR ( 'NONE', #328, 1000.000000000000000 ) ;
#248 = DIRECTION ( 'NONE',  ( -1.000000000000000000, 0.000000000000000000, 0.000000000000000000 ) ) ;
#249 = ORIENTED_EDGE ( 'NONE', *, *, #162, .T. ) ;
#250 = ORIENTED_EDGE ( 'NONE', *, *, #30, .T. ) ;
#251 = EDGE_CURVE ( 'NONE', #211, #10, #461, .T. ) ;
#252 = DIRECTION ( 'NONE',  ( 0.000000000000000000, -1.000000000000000000, 0.000000000000000000 ) ) ;
#253 = AXIS2_PLACEMENT_3D ( 'NONE', #348, #517, #149 ) ;
#254 = AXIS2_PLACEMENT_3D ( 'NONE', #192, #119, #234 ) ;
#255 = CARTESIAN_POINT ( 'NONE',  ( 3.000000000000000888, 1.000000000000000000, -1.499999999999999778 ) ) ;
#256 = VERTEX_POINT ( 'NONE', #344 ) ;
#257 = FACE_OUTER_BOUND ( 'NONE', #272, .T. ) ;
#258 = CC_DESIGN_PERSON_AND_ORGANIZATION_ASSIGNMENT ( #386, #349, ( #128 ) ) ;
#259 = AXIS2_PLACEMENT_3D ( 'NONE', #299, #460, #340 ) ;
#260 = ORIENTED_EDGE ( 'NONE', *, *, #453, .T. ) ;
#261 = CARTESIAN_POINT ( 'NONE',  ( 0.000000000000000000, 0.000000000000000000, 0.000000000000000000 ) ) ;
#262 =( GEOMETRIC_REPRESENTATION_CONTEXT ( 3 ) GLOBAL_UNCERTAINTY_ASSIGNED_CONTEXT ( ( #409 ) ) GLOBAL_UNIT_ASSIGNED_CONTEXT ( ( #358, #180, #343 ) ) REPRESENTATION_CONTEXT ( 'NONE', 'WORKASPACE' ) );
#263 = APPROVAL_STATUS ( 'not_yet_approved' ) ;
#264 = EDGE_LOOP ( 'NONE', ( #209, #382, #336 ) ) ;
#265 = CARTESIAN_POINT ( 'NONE',  ( 2.800000000000000266, 1.000000000000000000, -1.299999999999999822 ) ) ;
#266 = AXIS2_PLACEMENT_3D ( 'NONE', #261, #218, #331 ) ;
#267 = DATE_TIME_ROLE ( 'classification_date' ) ;
#268 = ORIENTED_EDGE ( 'NONE', *, *, #402, .T. ) ;
#269 = CARTESIAN_POINT ( 'NONE',  ( -2.799999999999998934, 1.000000000000000000, -1.299999999999999822 ) ) ;
#270 = CYLINDRICAL_SURFACE ( 'NONE', #76, 0.2000000000000000944 ) ;
#271 = CALENDAR_DATE ( 2026, 22, 3 ) ;
#272 = EDGE_LOOP ( 'NONE', ( #464, #429, #4, #387, #223, #474, #49, #319 ) ) ;
#273 = DIRECTION ( 'NONE',  ( 0.000000000000000000, 0.000000000000000000, -1.000000000000000000 ) ) ;
#274 = VERTEX_POINT ( 'NONE', #170 ) ;
#275 = AXIS2_PLACEMENT_3D ( 'NONE', #66, #448, #113 ) ;
#276 = DIRECTION ( 'NONE',  ( 0.000000000000000000, 1.000000000000000000, 0.000000000000000000 ) ) ;
#277 = LINE ( 'NONE', #443, #163 ) ;
#278 = ORIENTED_EDGE ( 'NONE', *, *, #418, .F. ) ;
#279 = DIRECTION ( 'NONE',  ( 0.000000000000000000, -1.000000000000000000, 0.000000000000000000 ) ) ;
#280 = DIRECTION ( 'NONE',  ( -1.000000000000000000, 0.000000000000000000, 2.168404344971008079E-15 ) ) ;
#281 = ORIENTED_EDGE ( 'NONE', *, *, #130, .T. ) ;
#282 = CARTESIAN_POINT ( 'NONE',  ( -2.999999999999998224, 1.000000000000000000, 1.500000000000000222 ) ) ;
#283 = DIRECTION ( 'NONE',  ( 0.000000000000000000, 0.000000000000000000, -1.000000000000000000 ) ) ;
#284 = DIRECTION ( 'NONE',  ( 0.000000000000000000, -1.000000000000000000, 0.000000000000000000 ) ) ;
#285 = CC_DESIGN_APPROVAL ( #396, ( #287 ) ) ;
#286 = DIRECTION ( 'NONE',  ( 2.168404344971008868E-15, 1.000000000000000000, 0.000000000000000000 ) ) ;
#287 = PRODUCT_DEFINITION ( 'UNKNOWN', '', #128, #193 ) ;
#288 = EDGE_CURVE ( 'NONE', #124, #274, #298, .T. ) ;
#289 = DIRECTION ( 'NONE',  ( 1.000000000000000000, 0.000000000000000000, 0.000000000000000000 ) ) ;
#290 = ORIENTED_EDGE ( 'NONE', *, *, #45, .F. ) ;
#291 = CARTESIAN_POINT ( 'NONE',  ( 3.000000000000000888, 0.000000000000000000, 1.300000000000000266 ) ) ;
#292 = CARTESIAN_POINT ( 'NONE',  ( -2.999999999999998224, 0.000000000000000000, 1.500000000000000222 ) ) ;
#293 = AXIS2_PLACEMENT_3D ( 'NONE', #496, #454, #122 ) ;
#294 = DIRECTION ( 'NONE',  ( -1.000000000000000000, -0.000000000000000000, -0.000000000000000000 ) ) ;
#295 = VECTOR ( 'NONE', #403, 1000.000000000000000 ) ;
#296 = ORIENTED_EDGE ( 'NONE', *, *, #107, .F. ) ;
#297 = CC_DESIGN_PERSON_AND_ORGANIZATION_ASSIGNMENT ( #145, #466, ( #128 ) ) ;
#298 = LINE ( 'NONE', #89, #495 ) ;
#299 = CARTESIAN_POINT ( 'NONE',  ( 0.000000000000000000, 0.8000000000000000444, 1.300000000000000266 ) ) ;
#300 = DATE_AND_TIME ( #57, #121 ) ;
#301 = ORIENTED_EDGE ( 'NONE', *, *, #402, .F. ) ;
#302 = CYLINDRICAL_SURFACE ( 'NONE', #259, 0.2000000000000000944 ) ;
#303 = LOCAL_TIME ( 13, 39, 43.00000000000000000, #518 ) ;
#304 = DATE_AND_TIME ( #178, #493 ) ;
#305 = ORIENTED_EDGE ( 'NONE', *, *, #440, .T. ) ;
#306 = CARTESIAN_POINT ( 'NONE',  ( -2.799999999999998046, 0.000000000000000000, 1.300000000000000266 ) ) ;
#307 = CIRCLE ( 'NONE', #48, 0.2000000000000000944 ) ;
#308 = CALENDAR_DATE ( 2026, 22, 3 ) ;
#309 = ORIENTED_EDGE ( 'NONE', *, *, #130, .F. ) ;
#310 = APPLICATION_PROTOCOL_DEFINITION ( 'international standard', 'config_control_design', 1994, #245 ) ;
#311 = PLANE ( 'NONE',  #351 ) ;
#312 = APPROVAL_STATUS ( 'not_yet_approved' ) ;
#313 = VERTEX_POINT ( 'NONE', #175 ) ;
#314 = CARTESIAN_POINT ( 'NONE',  ( 3.000000000000000888, 0.8000000000000000444, 1.500000000000000222 ) ) ;
#315 = COORDINATED_UNIVERSAL_TIME_OFFSET ( 8, 0, .AHEAD. ) ;
#316 = ORIENTED_EDGE ( 'NONE', *, *, #201, .T. ) ;
#317 = CYLINDRICAL_SURFACE ( 'NONE', #254, 0.2000000000000000944 ) ;
#318 = AXIS2_PLACEMENT_3D ( 'NONE', #26, #365, #373 ) ;
#319 = ORIENTED_EDGE ( 'NONE', *, *, #441, .T. ) ;
#320 = DIRECTION ( 'NONE',  ( -1.000000000000000000, -0.000000000000000000, -0.000000000000000000 ) ) ;
#321 = CARTESIAN_POINT ( 'NONE',  ( -2.999999999999998224, 1.000000000000000000, 1.300000000000000266 ) ) ;
#322 = LINE ( 'NONE', #198, #529 ) ;
#323 = DIRECTION ( 'NONE',  ( -2.891205793294678326E-16, 0.000000000000000000, -1.000000000000000000 ) ) ;
#324 = LINE ( 'NONE', #166, #247 ) ;
#325 = AXIS2_PLACEMENT_3D ( 'NONE', #157, #237, #273 ) ;
#326 = ADVANCED_FACE ( 'NONE', ( #257 ), #44, .F. ) ;
#327 = CIRCLE ( 'NONE', #421, 0.2000000000000000944 ) ;
#328 = DIRECTION ( 'NONE',  ( -1.000000000000000000, 0.000000000000000000, 0.000000000000000000 ) ) ;
#329 = ORIENTED_EDGE ( 'NONE', *, *, #379, .F. ) ;
#330 = LINE ( 'NONE', #292, #499 ) ;
#331 = DIRECTION ( 'NONE',  ( 0.000000000000000000, -0.000000000000000000, 1.000000000000000000 ) ) ;
#332 = EDGE_CURVE ( 'NONE', #229, #169, #491, .T. ) ;
#333 = VERTEX_POINT ( 'NONE', #514 ) ;
#334 = DIRECTION ( 'NONE',  ( 0.000000000000000000, -0.000000000000000000, 1.000000000000000000 ) ) ;
#335 = CIRCLE ( 'NONE', #531, 0.2000000000000000944 ) ;
#336 = ORIENTED_EDGE ( 'NONE', *, *, #32, .F. ) ;
#337 = ADVANCED_FACE ( 'NONE', ( #74 ), #311, .F. ) ;
#338 = EDGE_CURVE ( 'NONE', #256, #313, #184, .T. ) ;
#339 = CARTESIAN_POINT ( 'NONE',  ( 2.800000000000001155, 1.000000000000000000, 1.500000000000000222 ) ) ;
#340 = DIRECTION ( 'NONE',  ( 0.000000000000000000, 0.000000000000000000, 1.000000000000000000 ) ) ;
#341 = APPROVAL_ROLE ( '' ) ;
#342 = ORIENTED_EDGE ( 'NONE', *, *, #251, .T. ) ;
#343 =( NAMED_UNIT ( * ) SI_UNIT ( $, .STERADIAN. ) SOLID_ANGLE_UNIT ( ) );
#344 = CARTESIAN_POINT ( 'NONE',  ( 2.800000000000000711, 1.000000000000000000, 1.300000000000000266 ) ) ;
#345 = ADVANCED_FACE ( 'NONE', ( #27 ), #317, .T. ) ;
#346 = ORIENTED_EDGE ( 'NONE', *, *, #162, .F. ) ;
#347 = DIRECTION ( 'NONE',  ( 0.000000000000000000, 0.000000000000000000, 1.000000000000000000 ) ) ;
#348 = CARTESIAN_POINT ( 'NONE',  ( 2.800000000000000711, 0.000000000000000000, 1.300000000000000266 ) ) ;
#349 = PERSON_AND_ORGANIZATION_ROLE ( 'design_supplier' ) ;
#350 = ORIENTED_EDGE ( 'NONE', *, *, #535, .T. ) ;
#351 = AXIS2_PLACEMENT_3D ( 'NONE', #472, #144, #323 ) ;
#352 = FACE_OUTER_BOUND ( 'NONE', #195, .T. ) ;
#353 = DIRECTION ( 'NONE',  ( 1.000000000000000000, -0.000000000000000000, 0.000000000000000000 ) ) ;
#354 = PERSON_AND_ORGANIZATION ( #216, #239 ) ;
#355 = VERTEX_POINT ( 'NONE', #484 ) ;
#356 = CC_DESIGN_PERSON_AND_ORGANIZATION_ASSIGNMENT ( #354, #428, ( #287 ) ) ;
#357 = AXIS2_PLACEMENT_3D ( 'NONE', #255, #5, #503 ) ;
#358 =( LENGTH_UNIT ( ) NAMED_UNIT ( * ) SI_UNIT ( .MILLI., .METRE. ) );
#359 = CARTESIAN_POINT ( 'NONE',  ( 2.800000000000000711, 0.8000000000000000444, -1.299999999999999822 ) ) ;
#360 = DATE_AND_TIME ( #308, #303 ) ;
#361 = CC_DESIGN_APPROVAL ( #85, ( #128 ) ) ;
#362 = EDGE_LOOP ( 'NONE', ( #467, #129, #442, #309 ) ) ;
#363 = DIRECTION ( 'NONE',  ( 2.891205793294678326E-16, -0.000000000000000000, 1.000000000000000000 ) ) ;
#364 = EDGE_CURVE ( 'NONE', #333, #313, #485, .T. ) ;
#365 = DIRECTION ( 'NONE',  ( 0.000000000000000000, 0.000000000000000000, 1.000000000000000000 ) ) ;
#366 = CARTESIAN_POINT ( 'NONE',  ( 3.000000000000000888, 0.8000000000000000444, -1.499999999999999778 ) ) ;
#367 = CARTESIAN_POINT ( 'NONE',  ( -2.799999999999998934, 0.8000000000000000444, -1.299999999999999822 ) ) ;
#368 = SECURITY_CLASSIFICATION ( '', '', #63 ) ;
#369 = EDGE_CURVE ( 'NONE', #355, #256, #410, .T. ) ;
#370 = AXIS2_PLACEMENT_3D ( 'NONE', #112, #279, #138 ) ;
#371 = FACE_OUTER_BOUND ( 'NONE', #38, .T. ) ;
#372 = LOCAL_TIME ( 13, 39, 43.00000000000000000, #400 ) ;
#373 = DIRECTION ( 'NONE',  ( 1.000000000000000000, 0.000000000000000000, -0.000000000000000000 ) ) ;
#374 = ORIENTED_EDGE ( 'NONE', *, *, #171, .T. ) ;
#375 = DIRECTION ( 'NONE',  ( 0.000000000000000000, 0.000000000000000000, 1.000000000000000000 ) ) ;
#376 = EDGE_CURVE ( 'NONE', #134, #380, #434, .T. ) ;
#377 = FACE_OUTER_BOUND ( 'NONE', #87, .T. ) ;
#378 = AXIS2_PLACEMENT_3D ( 'NONE', #367, #457, #248 ) ;
#379 = EDGE_CURVE ( 'NONE', #64, #134, #31, .T. ) ;
#380 = VERTEX_POINT ( 'NONE', #395 ) ;
#381 = PLANE ( 'NONE',  #357 ) ;
#382 = ORIENTED_EDGE ( 'NONE', *, *, #364, .T. ) ;
#383 = AXIS2_PLACEMENT_3D ( 'NONE', #522, #413, #404 ) ;
#384 = CARTESIAN_POINT ( 'NONE',  ( -2.799999999999998046, 0.8000000000000000444, 1.300000000000000266 ) ) ;
#385 = ADVANCED_BREP_SHAPE_REPRESENTATION ( 'BAR3X6T1', ( #33, #228 ), #262 ) ;
#386 = PERSON_AND_ORGANIZATION ( #216, #239 ) ;
#387 = ORIENTED_EDGE ( 'NONE', *, *, #379, .T. ) ;
#388 = DIRECTION ( 'NONE',  ( 0.000000000000000000, 0.000000000000000000, 1.000000000000000000 ) ) ;
#389 = ORIENTED_EDGE ( 'NONE', *, *, #55, .T. ) ;
#390 = DIRECTION ( 'NONE',  ( 0.000000000000000000, 0.000000000000000000, 1.000000000000000000 ) ) ;
#391 = DIRECTION ( 'NONE',  ( -0.000000000000000000, 1.000000000000000000, 0.000000000000000000 ) ) ;
#392 = VECTOR ( 'NONE', #487, 1000.000000000000000 ) ;
#393 = COORDINATED_UNIVERSAL_TIME_OFFSET ( 8, 0, .AHEAD. ) ;
#394 = ORIENTED_EDGE ( 'NONE', *, *, #490, .T. ) ;
#395 = CARTESIAN_POINT ( 'NONE',  ( -2.799999999999998934, 0.8000000000000000444, -1.499999999999999778 ) ) ;
#396 = APPROVAL ( #263, 'UNSPECIFIED' ) ;
#397 = ORIENTED_EDGE ( 'NONE', *, *, #246, .T. ) ;
#398 = CARTESIAN_POINT ( 'NONE',  ( 2.800000000000000711, 0.8000000000000000444, 1.300000000000000266 ) ) ;
#399 = FACE_OUTER_BOUND ( 'NONE', #190, .T. ) ;
#400 = COORDINATED_UNIVERSAL_TIME_OFFSET ( 8, 0, .AHEAD. ) ;
#401 = EDGE_LOOP ( 'NONE', ( #250, #167, #437, #342 ) ) ;
#402 = EDGE_CURVE ( 'NONE', #126, #220, #200, .T. ) ;
#403 = DIRECTION ( 'NONE',  ( -0.000000000000000000, 1.000000000000000000, -0.000000000000000000 ) ) ;
#404 = DIRECTION ( 'NONE',  ( 0.000000000000000000, 0.000000000000000000, 1.000000000000000000 ) ) ;
#405 = DIRECTION ( 'NONE',  ( 0.000000000000000000, 0.000000000000000000, 1.000000000000000000 ) ) ;
#406 = CARTESIAN_POINT ( 'NONE',  ( 3.000000000000000888, 0.000000000000000000, -1.299999999999999822 ) ) ;
#407 = CARTESIAN_POINT ( 'NONE',  ( -2.999999999999999112, 0.8000000000000000444, -1.299999999999999822 ) ) ;
#408 = ADVANCED_FACE ( 'NONE', ( #399 ), #240, .T. ) ;
#409 = UNCERTAINTY_MEASURE_WITH_UNIT (LENGTH_MEASURE( 1.000000000000000082E-05 ), #358, 'distance_accuracy_value', 'NONE');
#410 = CIRCLE ( 'NONE', #325, 0.2000000000000000944 ) ;
#411 = AXIS2_PLACEMENT_3D ( 'NONE', #537, #28, #241 ) ;
#412 = DIRECTION ( 'NONE',  ( -0.000000000000000000, -0.000000000000000000, 1.000000000000000000 ) ) ;
#413 = DIRECTION ( 'NONE',  ( -1.000000000000000000, 0.000000000000000000, 0.000000000000000000 ) ) ;
#414 = ORIENTED_EDGE ( 'NONE', *, *, #534, .T. ) ;
#415 = VECTOR ( 'NONE', #188, 1000.000000000000000 ) ;
#416 = ORIENTED_EDGE ( 'NONE', *, *, #171, .F. ) ;
#417 = DIRECTION ( 'NONE',  ( 0.000000000000000000, 0.000000000000000000, 1.000000000000000000 ) ) ;
#418 = EDGE_CURVE ( 'NONE', #229, #256, #226, .T. ) ;
#419 = ORIENTED_EDGE ( 'NONE', *, *, #477, .T. ) ;
#420 = DIRECTION ( 'NONE',  ( 0.000000000000000000, 0.000000000000000000, 1.000000000000000000 ) ) ;
#421 = AXIS2_PLACEMENT_3D ( 'NONE', #135, #86, #420 ) ;
#422 = EDGE_LOOP ( 'NONE', ( #182, #81, #69, #416 ) ) ;
#423 = APPROVAL_PERSON_ORGANIZATION ( #227, #37, #341 ) ;
#424 = DIRECTION ( 'NONE',  ( 0.000000000000000000, 1.000000000000000000, 0.000000000000000000 ) ) ;
#425 = EDGE_LOOP ( 'NONE', ( #419, #268, #260, #101 ) ) ;
#426 = AXIS2_PLACEMENT_3D ( 'NONE', #54, #424, #334 ) ;
#427 = DIRECTION ( 'NONE',  ( -0.000000000000000000, 1.000000000000000000, -0.000000000000000000 ) ) ;
#428 = PERSON_AND_ORGANIZATION_ROLE ( 'creator' ) ;
#429 = ORIENTED_EDGE ( 'NONE', *, *, #147, .T. ) ;
#430 = CARTESIAN_POINT ( 'NONE',  ( -2.799999999999998046, 1.000000000000000000, 1.300000000000000266 ) ) ;
#431 = DATE_AND_TIME ( #271, #445 ) ;
#432 = ORIENTED_EDGE ( 'NONE', *, *, #534, .F. ) ;
#433 = EDGE_CURVE ( 'NONE', #274, #333, #335, .T. ) ;
#434 = LINE ( 'NONE', #159, #295 ) ;
#435 = AXIS2_PLACEMENT_3D ( 'NONE', #105, #276, #224 ) ;
#436 = VECTOR ( 'NONE', #353, 1000.000000000000000 ) ;
#437 = ORIENTED_EDGE ( 'NONE', *, *, #447, .T. ) ;
#438 = CYLINDRICAL_SURFACE ( 'NONE', #370, 0.2000000000000000944 ) ;
#439 = SPHERICAL_SURFACE ( 'NONE', #61, 0.2000000000000000111 ) ;
#440 = EDGE_CURVE ( 'NONE', #380, #333, #13, .T. ) ;
#441 = EDGE_CURVE ( 'NONE', #10, #7, #206, .T. ) ;
#442 = ORIENTED_EDGE ( 'NONE', *, *, #88, .F. ) ;
#443 = CARTESIAN_POINT ( 'NONE',  ( -2.999999999999999112, 0.8000000000000000444, -1.499999999999999778 ) ) ;
#444 = CARTESIAN_POINT ( 'NONE',  ( 3.000000000000000888, 0.000000000000000000, -1.499999999999999778 ) ) ;
#445 = LOCAL_TIME ( 13, 39, 43.00000000000000000, #393 ) ;
#446 = CARTESIAN_POINT ( 'NONE',  ( -2.999999999999999112, 0.000000000000000000, -1.299999999999999822 ) ) ;
#447 = EDGE_CURVE ( 'NONE', #274, #211, #108, .T. ) ;
#448 = DIRECTION ( 'NONE',  ( 0.000000000000000000, 1.000000000000000000, -0.000000000000000000 ) ) ;
#449 = PRODUCT ( 'BAR3X6T1', 'BAR3X6T1', '', ( #468 ) ) ;
#450 = ADVANCED_FACE ( 'NONE', ( #527 ), #439, .T. ) ;
#451 = DIRECTION ( 'NONE',  ( 0.000000000000000000, 0.000000000000000000, -1.000000000000000000 ) ) ;
#452 = VECTOR ( 'NONE', #536, 1000.000000000000000 ) ;
#453 = EDGE_CURVE ( 'NONE', #220, #489, #277, .T. ) ;
#454 = DIRECTION ( 'NONE',  ( 0.000000000000000000, -0.000000000000000000, 1.000000000000000000 ) ) ;
#455 = EDGE_LOOP ( 'NONE', ( #210, #290, #497, #59 ) ) ;
#456 = VECTOR ( 'NONE', #125, 1000.000000000000000 ) ;
#457 = DIRECTION ( 'NONE',  ( 0.000000000000000000, 1.000000000000000000, 0.000000000000000000 ) ) ;
#458 = VECTOR ( 'NONE', #363, 1000.000000000000000 ) ;
#459 = EDGE_CURVE ( 'NONE', #504, #229, #24, .T. ) ;
#460 = DIRECTION ( 'NONE',  ( -1.000000000000000000, 0.000000000000000000, 0.000000000000000000 ) ) ;
#461 = LINE ( 'NONE', #131, #199 ) ;
#462 = DIRECTION ( 'NONE',  ( 0.000000000000000000, -1.000000000000000000, 0.000000000000000000 ) ) ;
#463 = APPROVAL_STATUS ( 'not_yet_approved' ) ;
#464 = ORIENTED_EDGE ( 'NONE', *, *, #55, .F. ) ;
#465 = CARTESIAN_POINT ( 'NONE',  ( 2.800000000000000711, 0.8000000000000000444, 1.300000000000000266 ) ) ;
#466 = PERSON_AND_ORGANIZATION_ROLE ( 'creator' ) ;
#467 = ORIENTED_EDGE ( 'NONE', *, *, #364, .F. ) ;
#468 = MECHANICAL_CONTEXT ( 'NONE', #245, 'mechanical' ) ;
#469 = CARTESIAN_POINT ( 'NONE',  ( -2.999999999999998224, 0.8000000000000000444, 1.500000000000000222 ) ) ;
#470 = ORIENTED_EDGE ( 'NONE', *, *, #3, .T. ) ;
#471 = DIRECTION ( 'NONE',  ( 0.000000000000000000, 0.000000000000000000, -1.000000000000000000 ) ) ;
#472 = CARTESIAN_POINT ( 'NONE',  ( -2.999999999999999112, 1.000000000000000000, -1.499999999999999778 ) ) ;
#473 = APPROVAL_ROLE ( '' ) ;
#474 = ORIENTED_EDGE ( 'NONE', *, *, #152, .T. ) ;
#475 = DIRECTION ( 'NONE',  ( 0.000000000000000000, -1.000000000000000000, 0.000000000000000000 ) ) ;
#476 = APPROVAL_PERSON_ORGANIZATION ( #19, #85, #68 ) ;
#477 = EDGE_CURVE ( 'NONE', #64, #126, #77, .T. ) ;
#478 = PERSON_AND_ORGANIZATION ( #216, #239 ) ;
#479 = VERTEX_POINT ( 'NONE', #242 ) ;
#480 = AXIS2_PLACEMENT_3D ( 'NONE', #506, #133, #417 ) ;
#481 = CARTESIAN_POINT ( 'NONE',  ( -2.799999999999998934, 0.000000000000000000, -1.299999999999999822 ) ) ;
#482 = DIRECTION ( 'NONE',  ( -1.000000000000000000, 0.000000000000000000, 0.000000000000000000 ) ) ;
#483 = CYLINDRICAL_SURFACE ( 'NONE', #488, 0.2000000000000000944 ) ;
#484 = CARTESIAN_POINT ( 'NONE',  ( 2.800000000000000711, 0.8000000000000000444, 1.500000000000000222 ) ) ;
#485 = CIRCLE ( 'NONE', #539, 0.1999999999999999833 ) ;
#486 = LINE ( 'NONE', #444, #456 ) ;
#487 = DIRECTION ( 'NONE',  ( -0.000000000000000000, 1.000000000000000000, -0.000000000000000000 ) ) ;
#488 = AXIS2_PLACEMENT_3D ( 'NONE', #269, #475, #523 ) ;
#489 = VERTEX_POINT ( 'NONE', #407 ) ;
#490 = EDGE_CURVE ( 'NONE', #479, #134, #516, .T. ) ;
#491 = CIRCLE ( 'NONE', #78, 0.2000000000000000944 ) ;
#492 = ADVANCED_FACE ( 'NONE', ( #97 ), #438, .T. ) ;
#493 = LOCAL_TIME ( 13, 39, 43.00000000000000000, #315 ) ;
#494 = CARTESIAN_POINT ( 'NONE',  ( -2.799999999999998934, 0.000000000000000000, -1.499999999999999778 ) ) ;
#495 = VECTOR ( 'NONE', #140, 1000.000000000000000 ) ;
#496 = CARTESIAN_POINT ( 'NONE',  ( -2.799999999999998046, 0.8000000000000000444, 1.300000000000000266 ) ) ;
#497 = ORIENTED_EDGE ( 'NONE', *, *, #433, .F. ) ;
#498 = ADVANCED_FACE ( 'NONE', ( #65 ), #483, .T. ) ;
#499 = VECTOR ( 'NONE', #289, 1000.000000000000000 ) ;
#500 = FACE_OUTER_BOUND ( 'NONE', #455, .T. ) ;
#501 = ORIENTED_EDGE ( 'NONE', *, *, #532, .T. ) ;
#502 = APPROVAL_PERSON_ORGANIZATION ( #478, #396, #473 ) ;
#503 = DIRECTION ( 'NONE',  ( 0.000000000000000000, 0.000000000000000000, 1.000000000000000000 ) ) ;
#504 = VERTEX_POINT ( 'NONE', #8 ) ;
#505 = ADVANCED_FACE ( 'NONE', ( #116 ), #17, .F. ) ;
#506 = CARTESIAN_POINT ( 'NONE',  ( 2.800000000000000266, 0.000000000000000000, -1.299999999999999822 ) ) ;
#507 = ORIENTED_EDGE ( 'NONE', *, *, #32, .T. ) ;
#508 = DIRECTION ( 'NONE',  ( 1.000000000000000000, -0.000000000000000000, -0.000000000000000000 ) ) ;
#509 = APPROVAL_DATE_TIME ( #304, #37 ) ;
#510 = EDGE_LOOP ( 'NONE', ( #519, #316, #432 ) ) ;
#511 = DIRECTION ( 'NONE',  ( 1.000000000000000000, 0.000000000000000000, 0.000000000000000000 ) ) ;
#512 = EDGE_LOOP ( 'NONE', ( #414, #53, #151, #540 ) ) ;
#513 = SPHERICAL_SURFACE ( 'NONE', #137, 0.2000000000000000111 ) ;
#514 = CARTESIAN_POINT ( 'NONE',  ( 2.800000000000000266, 0.8000000000000000444, -1.499999999999999778 ) ) ;
#515 = ORIENTED_EDGE ( 'NONE', *, *, #376, .F. ) ;
#516 = LINE ( 'NONE', #191, #230 ) ;
#517 = DIRECTION ( 'NONE',  ( -0.000000000000000000, -1.000000000000000000, -0.000000000000000000 ) ) ;
#518 = COORDINATED_UNIVERSAL_TIME_OFFSET ( 8, 0, .AHEAD. ) ;
#519 = ORIENTED_EDGE ( 'NONE', *, *, #88, .T. ) ;
#520 = DIRECTION ( 'NONE',  ( 0.000000000000000000, 1.000000000000000000, 0.000000000000000000 ) ) ;
#521 = DATE_AND_TIME ( #92, #372 ) ;
#522 = CARTESIAN_POINT ( 'NONE',  ( -2.799999999999998934, 0.8000000000000000444, -1.299999999999999822 ) ) ;
#523 = DIRECTION ( 'NONE',  ( 0.000000000000000000, 0.000000000000000000, -1.000000000000000000 ) ) ;
#524 = AXIS2_PLACEMENT_3D ( 'NONE', #306, #215, #375 ) ;
#525 = DIRECTION ( 'NONE',  ( 0.000000000000000000, 0.000000000000000000, 1.000000000000000000 ) ) ;
#526 = CARTESIAN_POINT ( 'NONE',  ( -2.999999999999999112, 1.000000000000000000, -1.299999999999999822 ) ) ;
#527 = FACE_OUTER_BOUND ( 'NONE', #264, .T. ) ;
#528 = FACE_OUTER_BOUND ( 'NONE', #510, .T. ) ;
#529 = VECTOR ( 'NONE', #284, 1000.000000000000000 ) ;
#530 = CIRCLE ( 'NONE', #205, 0.2000000000000000944 ) ;
#531 = AXIS2_PLACEMENT_3D ( 'NONE', #359, #391, #405 ) ;
#532 = EDGE_CURVE ( 'NONE', #355, #211, #12, .T. ) ;
#533 = APPLICATION_CONTEXT ( 'configuration controlled 3d designs of mechanical parts and assemblies' ) ;
#534 = EDGE_CURVE ( 'NONE', #504, #489, #530, .T. ) ;
#535 = EDGE_CURVE ( 'NONE', #220, #169, #80, .T. ) ;
#536 = DIRECTION ( 'NONE',  ( 0.000000000000000000, -1.000000000000000000, 0.000000000000000000 ) ) ;
#537 = CARTESIAN_POINT ( 'NONE',  ( 2.800000000000000711, 1.000000000000000000, 1.300000000000000266 ) ) ;
#538 = ADVANCED_FACE ( 'NONE', ( #352 ), #513, .T. ) ;
#539 = AXIS2_PLACEMENT_3D ( 'NONE', #62, #102, #286 ) ;
#540 = ORIENTED_EDGE ( 'NONE', *, *, #459, .F. ) ;
#541 = DIRECTION ( 'NONE',  ( 0.000000000000000000, 0.000000000000000000, 1.000000000000000000 ) ) ;
ENDSEC;
END-ISO-10303-21;
