ISO-10303-21;
HEADER;
FILE_DESCRIPTION (( 'STEP AP203' ),
    '1' );
FILE_NAME ('BAR3X8T1.step',
    '2026-03-22T05:39:27',
    ( '' ),
    ( '' ),
    'SwSTEP 2.0',
    'SolidWorks 2025',
    '' );
FILE_SCHEMA (( 'CONFIG_CONTROL_DESIGN' ));
ENDSEC;

DATA;
#1 = CLOSED_SHELL ( 'NONE', ( #97, #152, #465, #378, #198, #43, #453, #417, #533, #49, #482, #149, #337, #187, #251, #284, #518, #407 ) ) ;
#2 = CARTESIAN_POINT ( 'NONE',  ( -3.799999999999999822, 0.000000000000000000, 1.299999999999999822 ) ) ;
#3 = DIRECTION ( 'NONE',  ( 0.000000000000000000, -1.000000000000000000, 0.000000000000000000 ) ) ;
#4 = EDGE_CURVE ( 'NONE', #334, #107, #203, .T. ) ;
#5 = CARTESIAN_POINT ( 'NONE',  ( -4.000000000000000888, 1.000000000000000000, -1.500000000000000222 ) ) ;
#6 = EDGE_LOOP ( 'NONE', ( #340, #46, #397 ) ) ;
#7 = DIRECTION ( 'NONE',  ( -0.000000000000000000, 1.000000000000000000, 0.000000000000000000 ) ) ;
#8 = CARTESIAN_POINT ( 'NONE',  ( 3.799999999999999378, 0.000000000000000000, 1.499999999999999778 ) ) ;
#9 = EDGE_LOOP ( 'NONE', ( #527, #272, #288, #92 ) ) ;
#10 = SPHERICAL_SURFACE ( 'NONE', #131, 0.2000000000000000111 ) ;
#11 = DIRECTION ( 'NONE',  ( 1.000000000000000000, 0.000000000000000000, 0.000000000000000000 ) ) ;
#12 = EDGE_CURVE ( 'NONE', #306, #129, #377, .T. ) ;
#13 = ORIENTED_EDGE ( 'NONE', *, *, #207, .F. ) ;
#14 =( NAMED_UNIT ( * ) PLANE_ANGLE_UNIT ( ) SI_UNIT ( $, .RADIAN. ) );
#15 = DIRECTION ( 'NONE',  ( -0.000000000000000000, -0.000000000000000000, 1.000000000000000000 ) ) ;
#16 = DESIGN_CONTEXT ( 'detailed design', #432, 'design' ) ;
#17 = ORIENTED_EDGE ( 'NONE', *, *, #359, .T. ) ;
#18 = DIRECTION ( 'NONE',  ( 0.000000000000000000, 0.000000000000000000, 1.000000000000000000 ) ) ;
#19 = APPROVAL ( #164, 'UNSPECIFIED' ) ;
#20 = DIRECTION ( 'NONE',  ( 0.000000000000000000, 0.000000000000000000, 1.000000000000000000 ) ) ;
#21 = ORIENTED_EDGE ( 'NONE', *, *, #247, .F. ) ;
#22 = LINE ( 'NONE', #138, #508 ) ;
#23 = DIRECTION ( 'NONE',  ( 0.000000000000000000, 0.000000000000000000, -1.000000000000000000 ) ) ;
#24 = ORGANIZATION ( 'UNSPECIFIED', 'UNSPECIFIED', '' ) ;
#25 = DIRECTION ( 'NONE',  ( 0.000000000000000000, 0.000000000000000000, 1.000000000000000000 ) ) ;
#26 = DATE_AND_TIME ( #238, #41 ) ;
#27 = CARTESIAN_POINT ( 'NONE',  ( 0.000000000000000000, 0.8000000000000000444, -1.300000000000000266 ) ) ;
#28 = CARTESIAN_POINT ( 'NONE',  ( 3.799999999999998934, 0.8000000000000000444, 1.499999999999999778 ) ) ;
#29 = AXIS2_PLACEMENT_3D ( 'NONE', #263, #3, #296 ) ;
#30 = CIRCLE ( 'NONE', #329, 0.2000000000000000944 ) ;
#31 = COORDINATED_UNIVERSAL_TIME_OFFSET ( 8, 0, .AHEAD. ) ;
#32 = CARTESIAN_POINT ( 'NONE',  ( -3.800000000000000711, 1.000000000000000000, -1.300000000000000266 ) ) ;
#33 = AXIS2_PLACEMENT_3D ( 'NONE', #75, #536, #370 ) ;
#34 = COORDINATED_UNIVERSAL_TIME_OFFSET ( 8, 0, .AHEAD. ) ;
#35 = EDGE_CURVE ( 'NONE', #63, #84, #386, .T. ) ;
#36 = CARTESIAN_POINT ( 'NONE',  ( -3.800000000000000711, 0.8000000000000000444, -1.300000000000000266 ) ) ;
#37 = VECTOR ( 'NONE', #15, 1000.000000000000000 ) ;
#38 = EDGE_LOOP ( 'NONE', ( #83, #59, #478, #82 ) ) ;
#39 = CARTESIAN_POINT ( 'NONE',  ( 0.000000000000000000, 0.000000000000000000, 0.000000000000000000 ) ) ;
#40 = EDGE_LOOP ( 'NONE', ( #485, #461, #17, #214 ) ) ;
#41 = LOCAL_TIME ( 13, 39, 27.00000000000000000, #242 ) ;
#42 = FACE_OUTER_BOUND ( 'NONE', #404, .T. ) ;
#43 = ADVANCED_FACE ( 'NONE', ( #42 ), #160, .F. ) ;
#44 = AXIS2_PLACEMENT_3D ( 'NONE', #179, #431, #57 ) ;
#45 = DIRECTION ( 'NONE',  ( 1.000000000000000000, -0.000000000000000000, 0.000000000000000000 ) ) ;
#46 = ORIENTED_EDGE ( 'NONE', *, *, #4, .T. ) ;
#47 = AXIS2_PLACEMENT_3D ( 'NONE', #513, #333, #424 ) ;
#48 = DIRECTION ( 'NONE',  ( -0.000000000000000000, 1.000000000000000000, -0.000000000000000000 ) ) ;
#49 = ADVANCED_FACE ( 'NONE', ( #322 ), #496, .T. ) ;
#50 = CARTESIAN_POINT ( 'NONE',  ( 3.799999999999999378, 1.000000000000000000, 1.499999999999999778 ) ) ;
#51 = ORIENTED_EDGE ( 'NONE', *, *, #507, .T. ) ;
#52 = DIRECTION ( 'NONE',  ( 0.000000000000000000, 0.000000000000000000, 1.000000000000000000 ) ) ;
#53 = CARTESIAN_POINT ( 'NONE',  ( -3.799999999999999822, 0.8000000000000000444, 1.299999999999999822 ) ) ;
#54 = VECTOR ( 'NONE', #279, 1000.000000000000000 ) ;
#55 = EDGE_LOOP ( 'NONE', ( #234, #176, #353, #297 ) ) ;
#56 = FACE_OUTER_BOUND ( 'NONE', #480, .T. ) ;
#57 = DIRECTION ( 'NONE',  ( 1.000000000000000000, 0.000000000000000000, 0.000000000000000000 ) ) ;
#58 = EDGE_CURVE ( 'NONE', #416, #180, #172, .T. ) ;
#59 = ORIENTED_EDGE ( 'NONE', *, *, #467, .F. ) ;
#60 = DIRECTION ( 'NONE',  ( 0.000000000000000000, 0.000000000000000000, -1.000000000000000000 ) ) ;
#61 = CARTESIAN_POINT ( 'NONE',  ( 3.999999999999999112, 1.000000000000000000, 1.299999999999999822 ) ) ;
#62 = VECTOR ( 'NONE', #96, 1000.000000000000000 ) ;
#63 = VERTEX_POINT ( 'NONE', #28 ) ;
#64 = PRODUCT_DEFINITION ( 'UNKNOWN', '', #117, #16 ) ;
#65 = DIRECTION ( 'NONE',  ( 0.000000000000000000, 0.000000000000000000, 1.000000000000000000 ) ) ;
#66 = ORIENTED_EDGE ( 'NONE', *, *, #116, .T. ) ;
#67 = DIRECTION ( 'NONE',  ( 0.000000000000000000, 1.000000000000000000, 0.000000000000000000 ) ) ;
#68 = DATE_TIME_ROLE ( 'classification_date' ) ;
#69 = CARTESIAN_POINT ( 'NONE',  ( -4.000000000000000000, 0.8000000000000000444, 1.499999999999999778 ) ) ;
#70 = PLANE ( 'NONE',  #428 ) ;
#71 = CALENDAR_DATE ( 2026, 22, 3 ) ;
#72 = CARTESIAN_POINT ( 'NONE',  ( -4.000000000000000000, 0.000000000000000000, 1.299999999999999822 ) ) ;
#73 = MANIFOLD_SOLID_BREP ( '\X2\570689d2\X0\1', #1 ) ;
#74 = LOCAL_TIME ( 13, 39, 27.00000000000000000, #34 ) ;
#75 = CARTESIAN_POINT ( 'NONE',  ( -3.799999999999999822, 0.8000000000000000444, 1.299999999999999822 ) ) ;
#76 = DIRECTION ( 'NONE',  ( 0.000000000000000000, 0.000000000000000000, 1.000000000000000000 ) ) ;
#77 = UNCERTAINTY_MEASURE_WITH_UNIT (LENGTH_MEASURE( 1.000000000000000082E-05 ), #350, 'distance_accuracy_value', 'NONE');
#78 = EDGE_CURVE ( 'NONE', #230, #389, #125, .T. ) ;
#79 = VECTOR ( 'NONE', #113, 1000.000000000000000 ) ;
#80 = CARTESIAN_POINT ( 'NONE',  ( -4.000000000000000888, 1.000000000000000000, -1.300000000000000266 ) ) ;
#81 = ORIENTED_EDGE ( 'NONE', *, *, #367, .F. ) ;
#82 = ORIENTED_EDGE ( 'NONE', *, *, #89, .F. ) ;
#83 = ORIENTED_EDGE ( 'NONE', *, *, #229, .F. ) ;
#84 = VERTEX_POINT ( 'NONE', #451 ) ;
#85 = AXIS2_PLACEMENT_3D ( 'NONE', #141, #446, #185 ) ;
#86 = CARTESIAN_POINT ( 'NONE',  ( 3.799999999999998934, 0.8000000000000000444, -1.300000000000000266 ) ) ;
#87 = VECTOR ( 'NONE', #308, 1000.000000000000000 ) ;
#88 = EDGE_LOOP ( 'NONE', ( #470, #184, #295, #140 ) ) ;
#89 = EDGE_CURVE ( 'NONE', #434, #334, #458, .T. ) ;
#90 = DIRECTION ( 'NONE',  ( -1.000000000000000000, -0.000000000000000000, -0.000000000000000000 ) ) ;
#91 = CYLINDRICAL_SURFACE ( 'NONE', #499, 0.2000000000000000944 ) ;
#92 = ORIENTED_EDGE ( 'NONE', *, *, #211, .T. ) ;
#93 = CC_DESIGN_APPROVAL ( #457, ( #117 ) ) ;
#94 = CARTESIAN_POINT ( 'NONE',  ( 3.799999999999998490, 0.8000000000000000444, -1.500000000000000222 ) ) ;
#95 = ORIENTED_EDGE ( 'NONE', *, *, #419, .F. ) ;
#96 = DIRECTION ( 'NONE',  ( -0.000000000000000000, 1.000000000000000000, -0.000000000000000000 ) ) ;
#97 = ADVANCED_FACE ( 'NONE', ( #327 ), #70, .F. ) ;
#98 = DIRECTION ( 'NONE',  ( 0.000000000000000000, 1.000000000000000000, -0.000000000000000000 ) ) ;
#99 = ORIENTED_EDGE ( 'NONE', *, *, #78, .F. ) ;
#100 = LINE ( 'NONE', #192, #531 ) ;
#101 = FACE_OUTER_BOUND ( 'NONE', #191, .T. ) ;
#102 = ORIENTED_EDGE ( 'NONE', *, *, #174, .F. ) ;
#103 = APPLICATION_PROTOCOL_DEFINITION ( 'international standard', 'config_control_design', 1994, #321 ) ;
#104 = PERSON_AND_ORGANIZATION_ROLE ( 'creator' ) ;
#105 = DIRECTION ( 'NONE',  ( 0.000000000000000000, 0.000000000000000000, -1.000000000000000000 ) ) ;
#106 = AXIS2_PLACEMENT_3D ( 'NONE', #265, #435, #60 ) ;
#107 = VERTEX_POINT ( 'NONE', #195 ) ;
#108 = DIRECTION ( 'NONE',  ( 0.000000000000000000, 0.000000000000000000, -1.000000000000000000 ) ) ;
#109 = DIRECTION ( 'NONE',  ( 2.891205793294678326E-16, 0.000000000000000000, 1.000000000000000000 ) ) ;
#110 = DIRECTION ( 'NONE',  ( -0.000000000000000000, -0.000000000000000000, 1.000000000000000000 ) ) ;
#111 = DIRECTION ( 'NONE',  ( -0.000000000000000000, 1.000000000000000000, 0.000000000000000000 ) ) ;
#112 = PERSON_AND_ORGANIZATION ( #346, #24 ) ;
#113 = DIRECTION ( 'NONE',  ( 1.000000000000000000, -0.000000000000000000, -0.000000000000000000 ) ) ;
#114 = ORIENTED_EDGE ( 'NONE', *, *, #247, .T. ) ;
#115 = LINE ( 'NONE', #360, #37 ) ;
#116 = EDGE_CURVE ( 'NONE', #416, #348, #501, .T. ) ;
#117 = PRODUCT_DEFINITION_FORMATION_WITH_SPECIFIED_SOURCE ( 'ANY', '', #273, .NOT_KNOWN. ) ;
#118 = EDGE_CURVE ( 'NONE', #129, #230, #200, .T. ) ;
#119 = PERSON_AND_ORGANIZATION_ROLE ( 'design_supplier' ) ;
#120 = CC_DESIGN_PERSON_AND_ORGANIZATION_ASSIGNMENT ( #201, #277, ( #425 ) ) ;
#121 = AXIS2_PLACEMENT_3D ( 'NONE', #53, #98, #468 ) ;
#122 = VERTEX_POINT ( 'NONE', #244 ) ;
#123 =( GEOMETRIC_REPRESENTATION_CONTEXT ( 3 ) GLOBAL_UNCERTAINTY_ASSIGNED_CONTEXT ( ( #77 ) ) GLOBAL_UNIT_ASSIGNED_CONTEXT ( ( #350, #14, #311 ) ) REPRESENTATION_CONTEXT ( 'NONE', 'WORKASPACE' ) );
#124 = DIRECTION ( 'NONE',  ( -1.000000000000000000, 0.000000000000000000, 0.000000000000000000 ) ) ;
#125 = CIRCLE ( 'NONE', #405, 0.2000000000000000944 ) ;
#126 = DIRECTION ( 'NONE',  ( 2.168404344971008868E-15, 1.000000000000000000, 0.000000000000000000 ) ) ;
#127 = ORIENTED_EDGE ( 'NONE', *, *, #396, .T. ) ;
#128 = DIRECTION ( 'NONE',  ( 0.000000000000000000, 0.000000000000000000, 1.000000000000000000 ) ) ;
#129 = VERTEX_POINT ( 'NONE', #286 ) ;
#130 = EDGE_CURVE ( 'NONE', #230, #423, #462, .T. ) ;
#131 = AXIS2_PLACEMENT_3D ( 'NONE', #512, #111, #108 ) ;
#132 = SPHERICAL_SURFACE ( 'NONE', #121, 0.2000000000000000111 ) ;
#133 = ORIENTED_EDGE ( 'NONE', *, *, #505, .T. ) ;
#134 = DIRECTION ( 'NONE',  ( 1.000000000000000000, 0.000000000000000000, -0.000000000000000000 ) ) ;
#135 = ORIENTED_EDGE ( 'NONE', *, *, #78, .T. ) ;
#136 = DIRECTION ( 'NONE',  ( -0.000000000000000000, 1.000000000000000000, -0.000000000000000000 ) ) ;
#137 = ORIENTED_EDGE ( 'NONE', *, *, #58, .T. ) ;
#138 = CARTESIAN_POINT ( 'NONE',  ( -3.799999999999999822, 1.000000000000000000, 1.499999999999999778 ) ) ;
#139 = DIRECTION ( 'NONE',  ( 0.000000000000000000, 0.000000000000000000, 1.000000000000000000 ) ) ;
#140 = ORIENTED_EDGE ( 'NONE', *, *, #267, .F. ) ;
#141 = CARTESIAN_POINT ( 'NONE',  ( 3.799999999999998934, 0.8000000000000000444, -1.300000000000000266 ) ) ;
#142 = EDGE_CURVE ( 'NONE', #328, #129, #30, .T. ) ;
#143 = AXIS2_PLACEMENT_3D ( 'NONE', #5, #139, #134 ) ;
#144 = CARTESIAN_POINT ( 'NONE',  ( 3.799999999999998934, 0.8000000000000000444, 1.299999999999999822 ) ) ;
#145 = ORIENTED_EDGE ( 'NONE', *, *, #324, .T. ) ;
#146 = PERSON_AND_ORGANIZATION ( #346, #24 ) ;
#147 = DIRECTION ( 'NONE',  ( -0.000000000000000000, -1.000000000000000000, -0.000000000000000000 ) ) ;
#148 = ORIENTED_EDGE ( 'NONE', *, *, #342, .T. ) ;
#149 = ADVANCED_FACE ( 'NONE', ( #380 ), #376, .T. ) ;
#150 = APPROVAL_ROLE ( '' ) ;
#151 = LINE ( 'NONE', #69, #87 ) ;
#152 = ADVANCED_FACE ( 'NONE', ( #289 ), #471, .F. ) ;
#153 = DIRECTION ( 'NONE',  ( 0.000000000000000000, -0.000000000000000000, 1.000000000000000000 ) ) ;
#154 = DIRECTION ( 'NONE',  ( 0.000000000000000000, -1.000000000000000000, 0.000000000000000000 ) ) ;
#155 = APPLICATION_PROTOCOL_DEFINITION ( 'international standard', 'config_control_design', 1994, #432 ) ;
#156 = FACE_OUTER_BOUND ( 'NONE', #412, .T. ) ;
#157 = ORIENTED_EDGE ( 'NONE', *, *, #351, .T. ) ;
#158 = FACE_OUTER_BOUND ( 'NONE', #55, .T. ) ;
#159 = AXIS2_PLACEMENT_3D ( 'NONE', #248, #365, #415 ) ;
#160 = PLANE ( 'NONE',  #463 ) ;
#161 = EDGE_CURVE ( 'NONE', #348, #328, #418, .T. ) ;
#162 = DATE_AND_TIME ( #456, #168 ) ;
#163 = AXIS2_PLACEMENT_3D ( 'NONE', #490, #430, #384 ) ;
#164 = APPROVAL_STATUS ( 'not_yet_approved' ) ;
#165 = CC_DESIGN_PERSON_AND_ORGANIZATION_ASSIGNMENT ( #146, #205, ( #273 ) ) ;
#166 = VECTOR ( 'NONE', #136, 1000.000000000000000 ) ;
#167 = VERTEX_POINT ( 'NONE', #218 ) ;
#168 = LOCAL_TIME ( 13, 39, 27.00000000000000000, #31 ) ;
#169 = ORIENTED_EDGE ( 'NONE', *, *, #505, .F. ) ;
#170 = ORIENTED_EDGE ( 'NONE', *, *, #500, .F. ) ;
#171 = VECTOR ( 'NONE', #90, 1000.000000000000000 ) ;
#172 = CIRCLE ( 'NONE', #362, 0.2000000000000000944 ) ;
#173 = CARTESIAN_POINT ( 'NONE',  ( 3.799999999999998490, 0.000000000000000000, -1.500000000000000222 ) ) ;
#174 = EDGE_CURVE ( 'NONE', #303, #437, #250, .T. ) ;
#175 = DIRECTION ( 'NONE',  ( 0.000000000000000000, -0.000000000000000000, 1.000000000000000000 ) ) ;
#176 = ORIENTED_EDGE ( 'NONE', *, *, #467, .T. ) ;
#177 = AXIS2_PLACEMENT_3D ( 'NONE', #32, #366, #406 ) ;
#178 = PLANE ( 'NONE',  #498 ) ;
#179 = CARTESIAN_POINT ( 'NONE',  ( 3.799999999999998934, 0.8000000000000000444, 0.000000000000000000 ) ) ;
#180 = VERTEX_POINT ( 'NONE', #8 ) ;
#181 = CARTESIAN_POINT ( 'NONE',  ( -3.800000000000000711, 0.8000000000000000444, -1.500000000000000222 ) ) ;
#182 = ORIENTED_EDGE ( 'NONE', *, *, #336, .F. ) ;
#183 = LINE ( 'NONE', #318, #79 ) ;
#184 = ORIENTED_EDGE ( 'NONE', *, *, #351, .F. ) ;
#185 = DIRECTION ( 'NONE',  ( -1.000000000000000000, 0.000000000000000000, 2.168404344971008079E-15 ) ) ;
#186 = DIRECTION ( 'NONE',  ( 0.000000000000000000, 0.000000000000000000, -1.000000000000000000 ) ) ;
#187 = ADVANCED_FACE ( 'NONE', ( #294 ), #472, .T. ) ;
#188 = DIRECTION ( 'NONE',  ( 1.000000000000000000, 0.000000000000000000, 0.000000000000000000 ) ) ;
#189 = APPROVAL_ROLE ( '' ) ;
#190 = DIRECTION ( 'NONE',  ( -2.891205793294678326E-16, 0.000000000000000000, -1.000000000000000000 ) ) ;
#191 = EDGE_LOOP ( 'NONE', ( #21, #169, #429, #170 ) ) ;
#192 = CARTESIAN_POINT ( 'NONE',  ( -4.000000000000000888, 1.000000000000000000, -1.300000000000000266 ) ) ;
#193 = DIRECTION ( 'NONE',  ( 0.000000000000000000, 0.000000000000000000, 1.000000000000000000 ) ) ;
#194 = LOCAL_TIME ( 13, 39, 27.00000000000000000, #483 ) ;
#195 = CARTESIAN_POINT ( 'NONE',  ( -3.799999999999999822, 0.8000000000000000444, 1.499999999999999778 ) ) ;
#196 = VECTOR ( 'NONE', #109, 1000.000000000000000 ) ;
#197 = DIRECTION ( 'NONE',  ( -1.000000000000000000, 0.000000000000000000, 0.000000000000000000 ) ) ;
#198 = ADVANCED_FACE ( 'NONE', ( #216 ), #178, .T. ) ;
#199 = VECTOR ( 'NONE', #124, 1000.000000000000000 ) ;
#200 = LINE ( 'NONE', #80, #199 ) ;
#201 = PERSON_AND_ORGANIZATION ( #346, #24 ) ;
#202 = CARTESIAN_POINT ( 'NONE',  ( 3.799999999999998934, 0.8000000000000000444, 1.299999999999999822 ) ) ;
#203 = CIRCLE ( 'NONE', #33, 0.2000000000000000944 ) ;
#204 = CC_DESIGN_PERSON_AND_ORGANIZATION_ASSIGNMENT ( #112, #449, ( #117 ) ) ;
#205 = PERSON_AND_ORGANIZATION_ROLE ( 'design_owner' ) ;
#206 = CIRCLE ( 'NONE', #335, 0.2000000000000000944 ) ;
#207 = EDGE_CURVE ( 'NONE', #423, #374, #253, .T. ) ;
#208 = DIRECTION ( 'NONE',  ( -1.000000000000000000, 0.000000000000000000, 0.000000000000000000 ) ) ;
#209 = CC_DESIGN_SECURITY_CLASSIFICATION ( #425, ( #117 ) ) ;
#210 = ORIENTED_EDGE ( 'NONE', *, *, #142, .F. ) ;
#211 = EDGE_CURVE ( 'NONE', #306, #303, #339, .T. ) ;
#212 = VECTOR ( 'NONE', #48, 1000.000000000000000 ) ;
#213 = CARTESIAN_POINT ( 'NONE',  ( 3.799999999999998490, 1.000000000000000000, -1.500000000000000222 ) ) ;
#214 = ORIENTED_EDGE ( 'NONE', *, *, #118, .T. ) ;
#215 = CC_DESIGN_DATE_AND_TIME_ASSIGNMENT ( #368, #494, ( #64 ) ) ;
#216 = FACE_OUTER_BOUND ( 'NONE', #40, .T. ) ;
#217 = ORIENTED_EDGE ( 'NONE', *, *, #89, .T. ) ;
#218 = CARTESIAN_POINT ( 'NONE',  ( -4.000000000000000888, 0.000000000000000000, -1.300000000000000266 ) ) ;
#219 = VERTEX_POINT ( 'NONE', #181 ) ;
#220 = CARTESIAN_POINT ( 'NONE',  ( -3.800000000000000711, 0.8000000000000000444, -1.300000000000000266 ) ) ;
#221 = CARTESIAN_POINT ( 'NONE',  ( -3.800000000000000711, 1.000000000000000000, -1.300000000000000266 ) ) ;
#222 = ORIENTED_EDGE ( 'NONE', *, *, #243, .T. ) ;
#223 = DIRECTION ( 'NONE',  ( 1.000000000000000000, 0.000000000000000000, 0.000000000000000000 ) ) ;
#224 = CARTESIAN_POINT ( 'NONE',  ( 3.799999999999998934, 1.000000000000000000, 1.299999999999999822 ) ) ;
#225 = ORIENTED_EDGE ( 'NONE', *, *, #444, .T. ) ;
#226 = CYLINDRICAL_SURFACE ( 'NONE', #106, 0.2000000000000000944 ) ;
#227 = DIRECTION ( 'NONE',  ( -1.000000000000000000, 0.000000000000000000, 2.891205793294683257E-16 ) ) ;
#228 = AXIS2_PLACEMENT_3D ( 'NONE', #202, #76, #241 ) ;
#229 = EDGE_CURVE ( 'NONE', #122, #434, #304, .T. ) ;
#230 = VERTEX_POINT ( 'NONE', #221 ) ;
#231 = CARTESIAN_POINT ( 'NONE',  ( 0.000000000000000000, 0.000000000000000000, 0.000000000000000000 ) ) ;
#232 = APPROVAL_DATE_TIME ( #440, #19 ) ;
#233 = CARTESIAN_POINT ( 'NONE',  ( -4.000000000000000888, 0.8000000000000000444, -1.300000000000000266 ) ) ;
#234 = ORIENTED_EDGE ( 'NONE', *, *, #367, .T. ) ;
#235 = FACE_OUTER_BOUND ( 'NONE', #420, .T. ) ;
#236 = CARTESIAN_POINT ( 'NONE',  ( 3.799999999999998490, 0.000000000000000000, -1.300000000000000266 ) ) ;
#237 = CARTESIAN_POINT ( 'NONE',  ( 3.999999999999999112, 1.000000000000000000, -1.500000000000000222 ) ) ;
#238 = CALENDAR_DATE ( 2026, 22, 3 ) ;
#239 = LINE ( 'NONE', #347, #271 ) ;
#240 = CARTESIAN_POINT ( 'NONE',  ( -4.000000000000000000, 1.000000000000000000, 1.299999999999999822 ) ) ;
#241 = DIRECTION ( 'NONE',  ( 1.000000000000000000, 0.000000000000000000, 0.000000000000000000 ) ) ;
#242 = COORDINATED_UNIVERSAL_TIME_OFFSET ( 8, 0, .AHEAD. ) ;
#243 = EDGE_CURVE ( 'NONE', #334, #389, #338, .T. ) ;
#244 = CARTESIAN_POINT ( 'NONE',  ( -3.799999999999999822, 0.000000000000000000, 1.499999999999999778 ) ) ;
#245 = ORIENTED_EDGE ( 'NONE', *, *, #444, .F. ) ;
#246 = ORIENTED_EDGE ( 'NONE', *, *, #142, .T. ) ;
#247 = EDGE_CURVE ( 'NONE', #167, #437, #354, .T. ) ;
#248 = CARTESIAN_POINT ( 'NONE',  ( 3.799999999999998934, 0.8000000000000000444, 1.299999999999999822 ) ) ;
#249 = EDGE_LOOP ( 'NONE', ( #264, #260, #99 ) ) ;
#250 = LINE ( 'NONE', #509, #171 ) ;
#251 = ADVANCED_FACE ( 'NONE', ( #427 ), #91, .T. ) ;
#252 = EDGE_LOOP ( 'NONE', ( #290, #383, #245 ) ) ;
#253 = LINE ( 'NONE', #385, #540 ) ;
#254 = VECTOR ( 'NONE', #474, 1000.000000000000000 ) ;
#255 = ORIENTED_EDGE ( 'NONE', *, *, #130, .F. ) ;
#256 = DIRECTION ( 'NONE',  ( -0.000000000000000000, -1.000000000000000000, -0.000000000000000000 ) ) ;
#257 = ORIENTED_EDGE ( 'NONE', *, *, #12, .F. ) ;
#258 = LINE ( 'NONE', #50, #166 ) ;
#259 = AXIS2_PLACEMENT_3D ( 'NONE', #436, #515, #20 ) ;
#260 = ORIENTED_EDGE ( 'NONE', *, *, #537, .T. ) ;
#261 = CARTESIAN_POINT ( 'NONE',  ( -3.800000000000000711, 1.000000000000000000, -1.500000000000000222 ) ) ;
#262 = VECTOR ( 'NONE', #371, 1000.000000000000000 ) ;
#263 = CARTESIAN_POINT ( 'NONE',  ( -3.799999999999999822, 1.000000000000000000, 1.299999999999999822 ) ) ;
#264 = ORIENTED_EDGE ( 'NONE', *, *, #336, .T. ) ;
#265 = CARTESIAN_POINT ( 'NONE',  ( 3.799999999999998490, 1.000000000000000000, -1.300000000000000266 ) ) ;
#266 = CYLINDRICAL_SURFACE ( 'NONE', #410, 0.2000000000000000944 ) ;
#267 = EDGE_CURVE ( 'NONE', #180, #63, #258, .T. ) ;
#268 = ORIENTED_EDGE ( 'NONE', *, *, #326, .F. ) ;
#269 = CALENDAR_DATE ( 2026, 22, 3 ) ;
#270 = CYLINDRICAL_SURFACE ( 'NONE', #177, 0.2000000000000000944 ) ;
#271 = VECTOR ( 'NONE', #364, 1000.000000000000000 ) ;
#272 = ORIENTED_EDGE ( 'NONE', *, *, #500, .T. ) ;
#273 = PRODUCT ( 'BAR3X8T1', 'BAR3X8T1', '', ( #345 ) ) ;
#274 = CARTESIAN_POINT ( 'NONE',  ( -4.000000000000000000, 1.000000000000000000, 1.499999999999999778 ) ) ;
#275 = DIRECTION ( 'NONE',  ( -1.000000000000000000, 0.000000000000000000, 0.000000000000000000 ) ) ;
#276 = FACE_OUTER_BOUND ( 'NONE', #387, .T. ) ;
#277 = PERSON_AND_ORGANIZATION_ROLE ( 'classification_officer' ) ;
#278 = CYLINDRICAL_SURFACE ( 'NONE', #469, 0.2000000000000000944 ) ;
#279 = DIRECTION ( 'NONE',  ( -0.000000000000000000, -0.000000000000000000, -1.000000000000000000 ) ) ;
#280 = APPROVAL_DATE_TIME ( #162, #409 ) ;
#281 = FACE_OUTER_BOUND ( 'NONE', #539, .T. ) ;
#282 = VECTOR ( 'NONE', #23, 1000.000000000000000 ) ;
#283 = SECURITY_CLASSIFICATION_LEVEL ( 'unclassified' ) ;
#284 = ADVANCED_FACE ( 'NONE', ( #382 ), #132, .T. ) ;
#285 = CARTESIAN_POINT ( 'NONE',  ( -3.800000000000000711, 0.8000000000000000444, -1.300000000000000266 ) ) ;
#286 = CARTESIAN_POINT ( 'NONE',  ( 3.799999999999998934, 1.000000000000000000, -1.300000000000000266 ) ) ;
#287 = ORIENTED_EDGE ( 'NONE', *, *, #243, .F. ) ;
#288 = ORIENTED_EDGE ( 'NONE', *, *, #419, .T. ) ;
#289 = FACE_OUTER_BOUND ( 'NONE', #9, .T. ) ;
#290 = ORIENTED_EDGE ( 'NONE', *, *, #35, .T. ) ;
#291 = AXIS2_PLACEMENT_3D ( 'NONE', #316, #481, #223 ) ;
#292 = ADVANCED_BREP_SHAPE_REPRESENTATION ( 'BAR3X8T1', ( #73, #344 ), #123 ) ;
#293 = DIRECTION ( 'NONE',  ( -0.000000000000000000, -0.000000000000000000, 1.000000000000000000 ) ) ;
#294 = FACE_OUTER_BOUND ( 'NONE', #464, .T. ) ;
#295 = ORIENTED_EDGE ( 'NONE', *, *, #35, .F. ) ;
#296 = DIRECTION ( 'NONE',  ( 0.000000000000000000, 0.000000000000000000, -1.000000000000000000 ) ) ;
#297 = ORIENTED_EDGE ( 'NONE', *, *, #267, .T. ) ;
#298 = CC_DESIGN_APPROVAL ( #409, ( #64 ) ) ;
#299 = DIRECTION ( 'NONE',  ( 0.000000000000000000, -1.000000000000000000, 0.000000000000000000 ) ) ;
#300 = AXIS2_PLACEMENT_3D ( 'NONE', #236, #147, #193 ) ;
#301 = CARTESIAN_POINT ( 'NONE',  ( 3.999999999999999112, 1.000000000000000000, -1.300000000000000266 ) ) ;
#302 = AXIS2_PLACEMENT_3D ( 'NONE', #388, #190, #227 ) ;
#303 = VERTEX_POINT ( 'NONE', #173 ) ;
#304 = CIRCLE ( 'NONE', #398, 0.2000000000000000944 ) ;
#305 = DIRECTION ( 'NONE',  ( -1.000000000000000000, -0.000000000000000000, -0.000000000000000000 ) ) ;
#306 = VERTEX_POINT ( 'NONE', #94 ) ;
#307 = CARTESIAN_POINT ( 'NONE',  ( 3.799999999999998934, 0.8000000000000000444, -1.300000000000000266 ) ) ;
#308 = DIRECTION ( 'NONE',  ( -1.000000000000000000, -0.000000000000000000, -0.000000000000000000 ) ) ;
#309 = CC_DESIGN_PERSON_AND_ORGANIZATION_ASSIGNMENT ( #317, #104, ( #64 ) ) ;
#310 = ORIENTED_EDGE ( 'NONE', *, *, #459, .F. ) ;
#311 =( NAMED_UNIT ( * ) SI_UNIT ( $, .STERADIAN. ) SOLID_ANGLE_UNIT ( ) );
#312 = COORDINATED_UNIVERSAL_TIME_OFFSET ( 8, 0, .AHEAD. ) ;
#313 = DIRECTION ( 'NONE',  ( 0.000000000000000000, 0.000000000000000000, 1.000000000000000000 ) ) ;
#314 = CIRCLE ( 'NONE', #228, 0.2000000000000000944 ) ;
#315 = DIRECTION ( 'NONE',  ( -6.505213034913023449E-15, 0.000000000000000000, 1.000000000000000000 ) ) ;
#316 = CARTESIAN_POINT ( 'NONE',  ( -3.799999999999999822, 0.8000000000000000444, 1.299999999999999822 ) ) ;
#317 = PERSON_AND_ORGANIZATION ( #346, #24 ) ;
#318 = CARTESIAN_POINT ( 'NONE',  ( 3.999999999999999112, 0.8000000000000000444, -1.500000000000000222 ) ) ;
#319 = CARTESIAN_POINT ( 'NONE',  ( 3.799999999999998934, 0.000000000000000000, 1.299999999999999822 ) ) ;
#320 = DIRECTION ( 'NONE',  ( -1.000000000000000000, 0.000000000000000000, -0.000000000000000000 ) ) ;
#321 = APPLICATION_CONTEXT ( 'configuration controlled 3d designs of mechanical parts and assemblies' ) ;
#322 = FACE_OUTER_BOUND ( 'NONE', #249, .T. ) ;
#323 = CALENDAR_DATE ( 2026, 22, 3 ) ;
#324 = EDGE_CURVE ( 'NONE', #423, #107, #422, .T. ) ;
#325 = VECTOR ( 'NONE', #492, 1000.000000000000000 ) ;
#326 = EDGE_CURVE ( 'NONE', #167, #434, #488, .T. ) ;
#327 = FACE_OUTER_BOUND ( 'NONE', #445, .T. ) ;
#328 = VERTEX_POINT ( 'NONE', #395 ) ;
#329 = AXIS2_PLACEMENT_3D ( 'NONE', #86, #293, #331 ) ;
#330 = PRODUCT_RELATED_PRODUCT_CATEGORY ( 'detail', '', ( #273 ) ) ;
#331 = DIRECTION ( 'NONE',  ( -1.000000000000000000, 0.000000000000000000, 0.000000000000000000 ) ) ;
#332 = AXIS2_PLACEMENT_3D ( 'NONE', #504, #361, #126 ) ;
#333 = DIRECTION ( 'NONE',  ( -0.000000000000000000, -1.000000000000000000, -0.000000000000000000 ) ) ;
#334 = VERTEX_POINT ( 'NONE', #479 ) ;
#335 = AXIS2_PLACEMENT_3D ( 'NONE', #220, #67, #52 ) ;
#336 = EDGE_CURVE ( 'NONE', #230, #219, #502, .T. ) ;
#337 = ADVANCED_FACE ( 'NONE', ( #519 ), #455, .T. ) ;
#338 = LINE ( 'NONE', #506, #254 ) ;
#339 = LINE ( 'NONE', #213, #349 ) ;
#340 = ORIENTED_EDGE ( 'NONE', *, *, #516, .T. ) ;
#341 = DIRECTION ( 'NONE',  ( 0.000000000000000000, 1.000000000000000000, 0.000000000000000000 ) ) ;
#342 = EDGE_CURVE ( 'NONE', #303, #348, #538, .T. ) ;
#343 = ORIENTED_EDGE ( 'NONE', *, *, #442, .F. ) ;
#344 = AXIS2_PLACEMENT_3D ( 'NONE', #231, #18, #188 ) ;
#345 = MECHANICAL_CONTEXT ( 'NONE', #321, 'mechanical' ) ;
#346 = PERSON ( 'UNSPECIFIED', 'UNSPECIFIED', 'UNSPECIFIED', ('UNSPECIFIED'), ('UNSPECIFIED'), ('UNSPECIFIED') ) ;
#347 = CARTESIAN_POINT ( 'NONE',  ( -4.000000000000000000, 0.000000000000000000, 1.499999999999999778 ) ) ;
#348 = VERTEX_POINT ( 'NONE', #357 ) ;
#349 = VECTOR ( 'NONE', #421, 1000.000000000000000 ) ;
#350 =( LENGTH_UNIT ( ) NAMED_UNIT ( * ) SI_UNIT ( .MILLI., .METRE. ) );
#351 = EDGE_CURVE ( 'NONE', #84, #416, #352, .T. ) ;
#352 = LINE ( 'NONE', #61, #325 ) ;
#353 = ORIENTED_EDGE ( 'NONE', *, *, #442, .T. ) ;
#354 = CIRCLE ( 'NONE', #47, 0.2000000000000000944 ) ;
#355 = LINE ( 'NONE', #261, #62 ) ;
#356 = PERSON_AND_ORGANIZATION ( #346, #24 ) ;
#357 = CARTESIAN_POINT ( 'NONE',  ( 3.999999999999999112, 0.000000000000000000, -1.300000000000000266 ) ) ;
#358 = ORIENTED_EDGE ( 'NONE', *, *, #326, .T. ) ;
#359 = EDGE_CURVE ( 'NONE', #374, #129, #392, .T. ) ;
#360 = CARTESIAN_POINT ( 'NONE',  ( 3.999999999999999112, 0.8000000000000000444, 1.499999999999999778 ) ) ;
#361 = DIRECTION ( 'NONE',  ( 1.000000000000000000, -2.168404344971009262E-15, 0.000000000000000000 ) ) ;
#362 = AXIS2_PLACEMENT_3D ( 'NONE', #319, #529, #315 ) ;
#363 = PERSON_AND_ORGANIZATION ( #346, #24 ) ;
#364 = DIRECTION ( 'NONE',  ( 1.000000000000000000, 0.000000000000000000, 0.000000000000000000 ) ) ;
#365 = DIRECTION ( 'NONE',  ( 0.000000000000000000, 1.000000000000000000, 0.000000000000000000 ) ) ;
#366 = DIRECTION ( 'NONE',  ( 0.000000000000000000, -1.000000000000000000, 0.000000000000000000 ) ) ;
#367 = EDGE_CURVE ( 'NONE', #63, #107, #151, .T. ) ;
#368 = DATE_AND_TIME ( #71, #74 ) ;
#369 = CIRCLE ( 'NONE', #438, 0.2000000000000000944 ) ;
#370 = DIRECTION ( 'NONE',  ( 0.000000000000000000, 0.000000000000000000, 1.000000000000000000 ) ) ;
#371 = DIRECTION ( 'NONE',  ( 2.891205793294678326E-16, -0.000000000000000000, 1.000000000000000000 ) ) ;
#372 = APPROVAL_PERSON_ORGANIZATION ( #356, #457, #522 ) ;
#373 = AXIS2_PLACEMENT_3D ( 'NONE', #274, #484, #320 ) ;
#374 = VERTEX_POINT ( 'NONE', #224 ) ;
#375 = CARTESIAN_POINT ( 'NONE',  ( 0.000000000000000000, 1.000000000000000000, 0.000000000000000000 ) ) ;
#376 = CYLINDRICAL_SURFACE ( 'NONE', #29, 0.2000000000000000944 ) ;
#377 = CIRCLE ( 'NONE', #332, 0.1999999999999999833 ) ;
#378 = ADVANCED_FACE ( 'NONE', ( #158 ), #523, .F. ) ;
#379 = ORIENTED_EDGE ( 'NONE', *, *, #507, .F. ) ;
#380 = FACE_OUTER_BOUND ( 'NONE', #38, .T. ) ;
#381 = CIRCLE ( 'NONE', #391, 0.2000000000000000944 ) ;
#382 = FACE_OUTER_BOUND ( 'NONE', #6, .T. ) ;
#383 = ORIENTED_EDGE ( 'NONE', *, *, #459, .T. ) ;
#384 = DIRECTION ( 'NONE',  ( -2.891205793294678326E-16, 0.000000000000000000, -1.000000000000000000 ) ) ;
#385 = CARTESIAN_POINT ( 'NONE',  ( 3.999999999999999112, 1.000000000000000000, 1.299999999999999822 ) ) ;
#386 = CIRCLE ( 'NONE', #159, 0.2000000000000000944 ) ;
#387 = EDGE_LOOP ( 'NONE', ( #426, #411, #379, #520 ) ) ;
#388 = CARTESIAN_POINT ( 'NONE',  ( -3.800000000000000266, 0.8000000000000000444, 1.098658201451977892E-15 ) ) ;
#389 = VERTEX_POINT ( 'NONE', #233 ) ;
#390 = CC_DESIGN_PERSON_AND_ORGANIZATION_ASSIGNMENT ( #363, #119, ( #117 ) ) ;
#391 = AXIS2_PLACEMENT_3D ( 'NONE', #144, #305, #105 ) ;
#392 = LINE ( 'NONE', #495, #282 ) ;
#393 = ORIENTED_EDGE ( 'NONE', *, *, #116, .F. ) ;
#394 = SHAPE_DEFINITION_REPRESENTATION ( #443, #292 ) ;
#395 = CARTESIAN_POINT ( 'NONE',  ( 3.999999999999999112, 0.8000000000000000444, -1.300000000000000266 ) ) ;
#396 = EDGE_CURVE ( 'NONE', #328, #84, #115, .T. ) ;
#397 = ORIENTED_EDGE ( 'NONE', *, *, #324, .F. ) ;
#398 = AXIS2_PLACEMENT_3D ( 'NONE', #2, #256, #128 ) ;
#399 = PLANE ( 'NONE',  #163 ) ;
#400 = CARTESIAN_POINT ( 'NONE',  ( -4.000000000000000888, 0.000000000000000000, -1.500000000000000222 ) ) ;
#401 = DIRECTION ( 'NONE',  ( -1.000000000000000000, 0.000000000000000000, 0.000000000000000000 ) ) ;
#402 = CC_DESIGN_APPROVAL ( #19, ( #425 ) ) ;
#403 = CARTESIAN_POINT ( 'NONE',  ( -3.800000000000000711, 0.000000000000000000, -1.500000000000000222 ) ) ;
#404 = EDGE_LOOP ( 'NONE', ( #343, #511, #268, #114, #102, #148, #393, #137 ) ) ;
#405 = AXIS2_PLACEMENT_3D ( 'NONE', #285, #110, #275 ) ;
#406 = DIRECTION ( 'NONE',  ( 0.000000000000000000, 0.000000000000000000, -1.000000000000000000 ) ) ;
#407 = ADVANCED_FACE ( 'NONE', ( #281 ), #266, .T. ) ;
#408 = APPROVAL_DATE_TIME ( #491, #457 ) ;
#409 = APPROVAL ( #454, 'UNSPECIFIED' ) ;
#410 = AXIS2_PLACEMENT_3D ( 'NONE', #447, #197, #313 ) ;
#411 = ORIENTED_EDGE ( 'NONE', *, *, #211, .F. ) ;
#412 = EDGE_LOOP ( 'NONE', ( #257, #95, #182, #414 ) ) ;
#413 = CARTESIAN_POINT ( 'NONE',  ( -3.799999999999999822, 1.000000000000000000, 1.499999999999999778 ) ) ;
#414 = ORIENTED_EDGE ( 'NONE', *, *, #118, .F. ) ;
#415 = DIRECTION ( 'NONE',  ( 0.000000000000000000, 0.000000000000000000, 1.000000000000000000 ) ) ;
#416 = VERTEX_POINT ( 'NONE', #526 ) ;
#417 = ADVANCED_FACE ( 'NONE', ( #156 ), #278, .T. ) ;
#418 = LINE ( 'NONE', #301, #212 ) ;
#419 = EDGE_CURVE ( 'NONE', #219, #306, #183, .T. ) ;
#420 = EDGE_LOOP ( 'NONE', ( #358, #217, #222, #133 ) ) ;
#421 = DIRECTION ( 'NONE',  ( 0.000000000000000000, -1.000000000000000000, 0.000000000000000000 ) ) ;
#422 = CIRCLE ( 'NONE', #460, 0.2000000000000000944 ) ;
#423 = VERTEX_POINT ( 'NONE', #450 ) ;
#424 = DIRECTION ( 'NONE',  ( 0.000000000000000000, 0.000000000000000000, 1.000000000000000000 ) ) ;
#425 = SECURITY_CLASSIFICATION ( '', '', #283 ) ;
#426 = ORIENTED_EDGE ( 'NONE', *, *, #342, .F. ) ;
#427 = FACE_OUTER_BOUND ( 'NONE', #88, .T. ) ;
#428 = AXIS2_PLACEMENT_3D ( 'NONE', #237, #401, #25 ) ;
#429 = ORIENTED_EDGE ( 'NONE', *, *, #537, .F. ) ;
#430 = DIRECTION ( 'NONE',  ( 1.000000000000000000, 0.000000000000000000, -2.891205793294678326E-16 ) ) ;
#431 = DIRECTION ( 'NONE',  ( 0.000000000000000000, -0.000000000000000000, 1.000000000000000000 ) ) ;
#432 = APPLICATION_CONTEXT ( 'configuration controlled 3d designs of mechanical parts and assemblies' ) ;
#433 = CC_DESIGN_DATE_AND_TIME_ASSIGNMENT ( #26, #68, ( #425 ) ) ;
#434 = VERTEX_POINT ( 'NONE', #72 ) ;
#435 = DIRECTION ( 'NONE',  ( 0.000000000000000000, -1.000000000000000000, 0.000000000000000000 ) ) ;
#436 = CARTESIAN_POINT ( 'NONE',  ( -3.800000000000000711, 0.8000000000000000444, -1.300000000000000266 ) ) ;
#437 = VERTEX_POINT ( 'NONE', #403 ) ;
#438 = AXIS2_PLACEMENT_3D ( 'NONE', #307, #7, #439 ) ;
#439 = DIRECTION ( 'NONE',  ( 0.000000000000000000, 0.000000000000000000, 1.000000000000000000 ) ) ;
#440 = DATE_AND_TIME ( #269, #194 ) ;
#441 = DIRECTION ( 'NONE',  ( 1.000000000000000000, -0.000000000000000000, -0.000000000000000000 ) ) ;
#442 = EDGE_CURVE ( 'NONE', #122, #180, #239, .T. ) ;
#443 = PRODUCT_DEFINITION_SHAPE ( 'NONE', 'NONE',  #64 ) ;
#444 = EDGE_CURVE ( 'NONE', #63, #374, #381, .T. ) ;
#445 = EDGE_LOOP ( 'NONE', ( #66, #517, #127, #157 ) ) ;
#446 = DIRECTION ( 'NONE',  ( 0.000000000000000000, 1.000000000000000000, 0.000000000000000000 ) ) ;
#447 = CARTESIAN_POINT ( 'NONE',  ( 0.000000000000000000, 0.8000000000000000444, 1.299999999999999822 ) ) ;
#448 = DIRECTION ( 'NONE',  ( -0.000000000000000000, 1.000000000000000000, -0.000000000000000000 ) ) ;
#449 = PERSON_AND_ORGANIZATION_ROLE ( 'creator' ) ;
#450 = CARTESIAN_POINT ( 'NONE',  ( -3.799999999999999822, 1.000000000000000000, 1.299999999999999822 ) ) ;
#451 = CARTESIAN_POINT ( 'NONE',  ( 3.999999999999999112, 0.8000000000000000444, 1.299999999999999822 ) ) ;
#452 = APPROVAL_PERSON_ORGANIZATION ( #487, #19, #150 ) ;
#453 = ADVANCED_FACE ( 'NONE', ( #101 ), #270, .T. ) ;
#454 = APPROVAL_STATUS ( 'not_yet_approved' ) ;
#455 = CYLINDRICAL_SURFACE ( 'NONE', #302, 0.1999999999999996503 ) ;
#456 = CALENDAR_DATE ( 2026, 22, 3 ) ;
#457 = APPROVAL ( #532, 'UNSPECIFIED' ) ;
#458 = LINE ( 'NONE', #240, #503 ) ;
#459 = EDGE_CURVE ( 'NONE', #84, #374, #314, .T. ) ;
#460 = AXIS2_PLACEMENT_3D ( 'NONE', #528, #441, #65 ) ;
#461 = ORIENTED_EDGE ( 'NONE', *, *, #207, .T. ) ;
#462 = LINE ( 'NONE', #413, #262 ) ;
#463 = AXIS2_PLACEMENT_3D ( 'NONE', #39, #524, #153 ) ;
#464 = EDGE_LOOP ( 'NONE', ( #246, #514, #310, #476 ) ) ;
#465 = ADVANCED_FACE ( 'NONE', ( #235 ), #399, .F. ) ;
#466 = ORIENTED_EDGE ( 'NONE', *, *, #12, .T. ) ;
#467 = EDGE_CURVE ( 'NONE', #107, #122, #22, .T. ) ;
#468 = DIRECTION ( 'NONE',  ( 0.000000000000000000, 0.000000000000000000, 1.000000000000000000 ) ) ;
#469 = AXIS2_PLACEMENT_3D ( 'NONE', #27, #11, #186 ) ;
#470 = ORIENTED_EDGE ( 'NONE', *, *, #58, .F. ) ;
#471 = PLANE ( 'NONE',  #143 ) ;
#472 = CYLINDRICAL_SURFACE ( 'NONE', #44, 0.2000000000000000944 ) ;
#473 = EDGE_LOOP ( 'NONE', ( #135, #287, #534, #255 ) ) ;
#474 = DIRECTION ( 'NONE',  ( -2.891205793294678326E-16, -0.000000000000000000, -1.000000000000000000 ) ) ;
#475 = LOCAL_TIME ( 13, 39, 27.00000000000000000, #312 ) ;
#476 = ORIENTED_EDGE ( 'NONE', *, *, #396, .F. ) ;
#477 = DIRECTION ( 'NONE',  ( 0.000000000000000000, 0.000000000000000000, -1.000000000000000000 ) ) ;
#478 = ORIENTED_EDGE ( 'NONE', *, *, #4, .F. ) ;
#479 = CARTESIAN_POINT ( 'NONE',  ( -4.000000000000000000, 0.8000000000000000444, 1.299999999999999822 ) ) ;
#480 = EDGE_LOOP ( 'NONE', ( #51, #466, #210 ) ) ;
#481 = DIRECTION ( 'NONE',  ( 0.000000000000000000, -0.000000000000000000, 1.000000000000000000 ) ) ;
#482 = ADVANCED_FACE ( 'NONE', ( #56 ), #525, .T. ) ;
#483 = COORDINATED_UNIVERSAL_TIME_OFFSET ( 8, 0, .AHEAD. ) ;
#484 = DIRECTION ( 'NONE',  ( 0.000000000000000000, 0.000000000000000000, -1.000000000000000000 ) ) ;
#485 = ORIENTED_EDGE ( 'NONE', *, *, #130, .T. ) ;
#486 = CIRCLE ( 'NONE', #291, 0.2000000000000000944 ) ;
#487 = PERSON_AND_ORGANIZATION ( #346, #24 ) ;
#488 = LINE ( 'NONE', #400, #196 ) ;
#489 = DIRECTION ( 'NONE',  ( 0.000000000000000000, 1.000000000000000000, 0.000000000000000000 ) ) ;
#490 = CARTESIAN_POINT ( 'NONE',  ( -4.000000000000000888, 1.000000000000000000, -1.500000000000000222 ) ) ;
#491 = DATE_AND_TIME ( #323, #475 ) ;
#492 = DIRECTION ( 'NONE',  ( 0.000000000000000000, -1.000000000000000000, 0.000000000000000000 ) ) ;
#493 = CARTESIAN_POINT ( 'NONE',  ( 3.999999999999999112, 0.000000000000000000, -1.500000000000000222 ) ) ;
#494 = DATE_TIME_ROLE ( 'creation_date' ) ;
#495 = CARTESIAN_POINT ( 'NONE',  ( 3.799999999999998934, 1.000000000000000000, -1.500000000000000222 ) ) ;
#496 = SPHERICAL_SURFACE ( 'NONE', #530, 0.2000000000000000111 ) ;
#497 = PERSON_AND_ORGANIZATION ( #346, #24 ) ;
#498 = AXIS2_PLACEMENT_3D ( 'NONE', #375, #341, #175 ) ;
#499 = AXIS2_PLACEMENT_3D ( 'NONE', #510, #541, #477 ) ;
#500 = EDGE_CURVE ( 'NONE', #437, #219, #355, .T. ) ;
#501 = LINE ( 'NONE', #493, #54 ) ;
#502 = CIRCLE ( 'NONE', #259, 0.2000000000000000944 ) ;
#503 = VECTOR ( 'NONE', #448, 1000.000000000000000 ) ;
#504 = CARTESIAN_POINT ( 'NONE',  ( 3.799999999999998490, 0.8000000000000000444, -1.300000000000000266 ) ) ;
#505 = EDGE_CURVE ( 'NONE', #389, #167, #100, .T. ) ;
#506 = CARTESIAN_POINT ( 'NONE',  ( -4.000000000000000888, 0.8000000000000000444, -1.500000000000000222 ) ) ;
#507 = EDGE_CURVE ( 'NONE', #328, #306, #369, .T. ) ;
#508 = VECTOR ( 'NONE', #299, 1000.000000000000000 ) ;
#509 = CARTESIAN_POINT ( 'NONE',  ( -4.000000000000000888, 0.000000000000000000, -1.500000000000000222 ) ) ;
#510 = CARTESIAN_POINT ( 'NONE',  ( 3.799999999999998934, 1.000000000000000000, 1.299999999999999822 ) ) ;
#511 = ORIENTED_EDGE ( 'NONE', *, *, #229, .T. ) ;
#512 = CARTESIAN_POINT ( 'NONE',  ( 3.799999999999998934, 0.8000000000000000444, 1.299999999999999822 ) ) ;
#513 = CARTESIAN_POINT ( 'NONE',  ( -3.800000000000000711, 0.000000000000000000, -1.300000000000000266 ) ) ;
#514 = ORIENTED_EDGE ( 'NONE', *, *, #359, .F. ) ;
#515 = DIRECTION ( 'NONE',  ( -1.000000000000000000, 0.000000000000000000, 0.000000000000000000 ) ) ;
#516 = EDGE_CURVE ( 'NONE', #423, #334, #486, .T. ) ;
#517 = ORIENTED_EDGE ( 'NONE', *, *, #161, .T. ) ;
#518 = ADVANCED_FACE ( 'NONE', ( #521 ), #10, .T. ) ;
#519 = FACE_OUTER_BOUND ( 'NONE', #473, .T. ) ;
#520 = ORIENTED_EDGE ( 'NONE', *, *, #161, .F. ) ;
#521 = FACE_OUTER_BOUND ( 'NONE', #252, .T. ) ;
#522 = APPROVAL_ROLE ( '' ) ;
#523 = PLANE ( 'NONE',  #373 ) ;
#524 = DIRECTION ( 'NONE',  ( 0.000000000000000000, 1.000000000000000000, 0.000000000000000000 ) ) ;
#525 = SPHERICAL_SURFACE ( 'NONE', #85, 0.2000000000000000111 ) ;
#526 = CARTESIAN_POINT ( 'NONE',  ( 3.999999999999999112, 0.000000000000000000, 1.299999999999999822 ) ) ;
#527 = ORIENTED_EDGE ( 'NONE', *, *, #174, .T. ) ;
#528 = CARTESIAN_POINT ( 'NONE',  ( -3.799999999999999822, 0.8000000000000000444, 1.299999999999999822 ) ) ;
#529 = DIRECTION ( 'NONE',  ( -0.000000000000000000, -1.000000000000000000, -0.000000000000000000 ) ) ;
#530 = AXIS2_PLACEMENT_3D ( 'NONE', #36, #489, #208 ) ;
#531 = VECTOR ( 'NONE', #154, 1000.000000000000000 ) ;
#532 = APPROVAL_STATUS ( 'not_yet_approved' ) ;
#533 = ADVANCED_FACE ( 'NONE', ( #276 ), #226, .T. ) ;
#534 = ORIENTED_EDGE ( 'NONE', *, *, #516, .F. ) ;
#535 = APPROVAL_PERSON_ORGANIZATION ( #497, #409, #189 ) ;
#536 = DIRECTION ( 'NONE',  ( 0.000000000000000000, 1.000000000000000000, -0.000000000000000000 ) ) ;
#537 = EDGE_CURVE ( 'NONE', #219, #389, #206, .T. ) ;
#538 = CIRCLE ( 'NONE', #300, 0.2000000000000000944 ) ;
#539 = EDGE_LOOP ( 'NONE', ( #145, #81, #225, #13 ) ) ;
#540 = VECTOR ( 'NONE', #45, 1000.000000000000000 ) ;
#541 = DIRECTION ( 'NONE',  ( 0.000000000000000000, -1.000000000000000000, 0.000000000000000000 ) ) ;
ENDSEC;
END-ISO-10303-21;
