ISO-10303-21;
HEADER;
FILE_DESCRIPTION (( 'STEP AP203' ),
    '1' );
FILE_NAME ('BAR3X10T1.step',
    '2026-03-22T05:39:10',
    ( '' ),
    ( '' ),
    'SwSTEP 2.0',
    'SolidWorks 2025',
    '' );
FILE_SCHEMA (( 'CONFIG_CONTROL_DESIGN' ));
ENDSEC;

DATA;
#1 = CIRCLE ( 'NONE', #526, 0.2000000000000000944 ) ;
#2 = DIRECTION ( 'NONE',  ( -1.000000000000000000, 0.000000000000000000, 0.000000000000000000 ) ) ;
#3 = EDGE_CURVE ( 'NONE', #139, #509, #109, .T. ) ;
#4 = ORIENTED_EDGE ( 'NONE', *, *, #125, .F. ) ;
#5 = DIRECTION ( 'NONE',  ( 0.000000000000000000, 0.000000000000000000, -1.000000000000000000 ) ) ;
#6 = EDGE_LOOP ( 'NONE', ( #131, #517, #151, #171, #281, #442, #293, #391 ) ) ;
#7 = EDGE_CURVE ( 'NONE', #431, #358, #371, .T. ) ;
#8 = CARTESIAN_POINT ( 'NONE',  ( 5.000000000000000888, 0.8000000000000000444, 1.500000000000000222 ) ) ;
#9 = DIRECTION ( 'NONE',  ( 0.000000000000000000, 1.000000000000000000, 0.000000000000000000 ) ) ;
#10 = VECTOR ( 'NONE', #326, 1000.000000000000000 ) ;
#11 = PERSON_AND_ORGANIZATION ( #128, #373 ) ;
#12 = APPLICATION_CONTEXT ( 'configuration controlled 3d designs of mechanical parts and assemblies' ) ;
#13 = DIRECTION ( 'NONE',  ( 0.000000000000000000, 0.000000000000000000, 1.000000000000000000 ) ) ;
#14 = ADVANCED_FACE ( 'NONE', ( #70 ), #114, .T. ) ;
#15 = VERTEX_POINT ( 'NONE', #153 ) ;
#16 = DIRECTION ( 'NONE',  ( -1.000000000000000000, -0.000000000000000000, -0.000000000000000000 ) ) ;
#17 = ORIENTED_EDGE ( 'NONE', *, *, #353, .F. ) ;
#18 = PERSON_AND_ORGANIZATION_ROLE ( 'design_owner' ) ;
#19 = APPROVAL_DATE_TIME ( #307, #447 ) ;
#20 = ORIENTED_EDGE ( 'NONE', *, *, #516, .F. ) ;
#21 = APPROVAL ( #96, 'UNSPECIFIED' ) ;
#22 = DIRECTION ( 'NONE',  ( -1.000000000000000000, 0.000000000000000000, 0.000000000000000000 ) ) ;
#23 = ORIENTED_EDGE ( 'NONE', *, *, #194, .T. ) ;
#24 = CARTESIAN_POINT ( 'NONE',  ( -4.799999999999999822, 0.000000000000000000, 1.500000000000000222 ) ) ;
#25 = AXIS2_PLACEMENT_3D ( 'NONE', #121, #494, #80 ) ;
#26 = SHAPE_DEFINITION_REPRESENTATION ( #329, #347 ) ;
#27 = ORIENTED_EDGE ( 'NONE', *, *, #197, .F. ) ;
#28 = CARTESIAN_POINT ( 'NONE',  ( -4.799999999999999822, 1.000000000000000000, -1.299999999999999822 ) ) ;
#29 = LOCAL_TIME ( 13, 39, 10.00000000000000000, #54 ) ;
#30 = VECTOR ( 'NONE', #104, 1000.000000000000000 ) ;
#31 = ORIENTED_EDGE ( 'NONE', *, *, #532, .F. ) ;
#32 = AXIS2_PLACEMENT_3D ( 'NONE', #534, #451, #120 ) ;
#33 = EDGE_CURVE ( 'NONE', #59, #509, #135, .T. ) ;
#34 = DIRECTION ( 'NONE',  ( 0.000000000000000000, 0.000000000000000000, -1.000000000000000000 ) ) ;
#35 = LINE ( 'NONE', #335, #290 ) ;
#36 = ORIENTED_EDGE ( 'NONE', *, *, #250, .T. ) ;
#37 = CARTESIAN_POINT ( 'NONE',  ( 4.800000000000001599, 0.000000000000000000, 1.300000000000000266 ) ) ;
#38 = LINE ( 'NONE', #160, #10 ) ;
#39 = CARTESIAN_POINT ( 'NONE',  ( -4.799999999999999822, 1.000000000000000000, 1.300000000000000266 ) ) ;
#40 = DIRECTION ( 'NONE',  ( 0.000000000000000000, 0.000000000000000000, 1.000000000000000000 ) ) ;
#41 = CARTESIAN_POINT ( 'NONE',  ( -4.799999999999999822, 0.8000000000000000444, 1.300000000000000266 ) ) ;
#42 = LINE ( 'NONE', #291, #411 ) ;
#43 = AXIS2_PLACEMENT_3D ( 'NONE', #328, #78, #497 ) ;
#44 = DIRECTION ( 'NONE',  ( 0.000000000000000000, 0.000000000000000000, 1.000000000000000000 ) ) ;
#45 =( GEOMETRIC_REPRESENTATION_CONTEXT ( 3 ) GLOBAL_UNCERTAINTY_ASSIGNED_CONTEXT ( ( #487 ) ) GLOBAL_UNIT_ASSIGNED_CONTEXT ( ( #228, #525, #141 ) ) REPRESENTATION_CONTEXT ( 'NONE', 'WORKASPACE' ) );
#46 = EDGE_CURVE ( 'NONE', #275, #453, #81, .T. ) ;
#47 = FACE_OUTER_BOUND ( 'NONE', #207, .T. ) ;
#48 = EDGE_CURVE ( 'NONE', #129, #199, #401, .T. ) ;
#49 = EDGE_LOOP ( 'NONE', ( #377, #23, #297, #299 ) ) ;
#50 = LINE ( 'NONE', #8, #262 ) ;
#51 = ORIENTED_EDGE ( 'NONE', *, *, #46, .F. ) ;
#52 = VECTOR ( 'NONE', #5, 1000.000000000000000 ) ;
#53 = CARTESIAN_POINT ( 'NONE',  ( -4.999999999999999112, 0.8000000000000000444, 1.500000000000000222 ) ) ;
#54 = COORDINATED_UNIVERSAL_TIME_OFFSET ( 8, 0, .AHEAD. ) ;
#55 = CARTESIAN_POINT ( 'NONE',  ( -4.799999999999999822, 0.000000000000000000, 1.300000000000000266 ) ) ;
#56 = CIRCLE ( 'NONE', #361, 0.2000000000000000944 ) ;
#57 = ORIENTED_EDGE ( 'NONE', *, *, #320, .T. ) ;
#58 = FACE_OUTER_BOUND ( 'NONE', #486, .T. ) ;
#59 = VERTEX_POINT ( 'NONE', #493 ) ;
#60 = CARTESIAN_POINT ( 'NONE',  ( 0.000000000000000000, 0.000000000000000000, 0.000000000000000000 ) ) ;
#61 = COORDINATED_UNIVERSAL_TIME_OFFSET ( 8, 0, .AHEAD. ) ;
#62 = CC_DESIGN_PERSON_AND_ORGANIZATION_ASSIGNMENT ( #11, #466, ( #155 ) ) ;
#63 = ORIENTED_EDGE ( 'NONE', *, *, #178, .T. ) ;
#64 = CARTESIAN_POINT ( 'NONE',  ( -4.799999999999999822, 1.000000000000000000, -1.499999999999999778 ) ) ;
#65 = CC_DESIGN_DATE_AND_TIME_ASSIGNMENT ( #283, #188, ( #208 ) ) ;
#66 = EDGE_LOOP ( 'NONE', ( #193, #308, #227, #254 ) ) ;
#67 = CARTESIAN_POINT ( 'NONE',  ( 4.800000000000000711, 1.000000000000000000, -1.499999999999999778 ) ) ;
#68 = VERTEX_POINT ( 'NONE', #241 ) ;
#69 = DIRECTION ( 'NONE',  ( 0.000000000000000000, 0.000000000000000000, -1.000000000000000000 ) ) ;
#70 = FACE_OUTER_BOUND ( 'NONE', #106, .T. ) ;
#71 = ADVANCED_FACE ( 'NONE', ( #531 ), #321, .T. ) ;
#72 = DIRECTION ( 'NONE',  ( 0.000000000000000000, -1.000000000000000000, 0.000000000000000000 ) ) ;
#73 = APPROVAL_PERSON_ORGANIZATION ( #397, #508, #229 ) ;
#74 = VECTOR ( 'NONE', #152, 1000.000000000000000 ) ;
#75 = CARTESIAN_POINT ( 'NONE',  ( -4.999999999999999112, 1.000000000000000000, 1.500000000000000222 ) ) ;
#76 = DIRECTION ( 'NONE',  ( 0.000000000000000000, 0.000000000000000000, -1.000000000000000000 ) ) ;
#77 = FACE_OUTER_BOUND ( 'NONE', #142, .T. ) ;
#78 = DIRECTION ( 'NONE',  ( -0.000000000000000000, 1.000000000000000000, 0.000000000000000000 ) ) ;
#79 = DIRECTION ( 'NONE',  ( 0.000000000000000000, 0.000000000000000000, 1.000000000000000000 ) ) ;
#80 = DIRECTION ( 'NONE',  ( 0.000000000000000000, 0.000000000000000000, 1.000000000000000000 ) ) ;
#81 = LINE ( 'NONE', #244, #192 ) ;
#82 = PLANE ( 'NONE',  #256 ) ;
#83 = CARTESIAN_POINT ( 'NONE',  ( -4.799999999999999822, 0.000000000000000000, -1.499999999999999778 ) ) ;
#84 = DIRECTION ( 'NONE',  ( 1.000000000000000000, 0.000000000000000000, 0.000000000000000000 ) ) ;
#85 = VERTEX_POINT ( 'NONE', #448 ) ;
#86 = ADVANCED_FACE ( 'NONE', ( #77 ), #445, .F. ) ;
#87 = EDGE_CURVE ( 'NONE', #384, #97, #382, .T. ) ;
#88 = DIRECTION ( 'NONE',  ( 1.000000000000000000, 0.000000000000000000, 0.000000000000000000 ) ) ;
#89 = ORIENTED_EDGE ( 'NONE', *, *, #144, .F. ) ;
#90 = CYLINDRICAL_SURFACE ( 'NONE', #468, 0.2000000000000000944 ) ;
#91 = DATE_AND_TIME ( #390, #29 ) ;
#92 = DIRECTION ( 'NONE',  ( -1.000000000000000000, 0.000000000000000000, 0.000000000000000000 ) ) ;
#93 = FACE_OUTER_BOUND ( 'NONE', #475, .T. ) ;
#94 = CIRCLE ( 'NONE', #472, 0.2000000000000000944 ) ;
#95 = CIRCLE ( 'NONE', #243, 0.2000000000000000944 ) ;
#96 = APPROVAL_STATUS ( 'not_yet_approved' ) ;
#97 = VERTEX_POINT ( 'NONE', #157 ) ;
#98 = EDGE_CURVE ( 'NONE', #139, #59, #95, .T. ) ;
#99 = PERSON_AND_ORGANIZATION_ROLE ( 'design_supplier' ) ;
#100 = ORIENTED_EDGE ( 'NONE', *, *, #3, .T. ) ;
#101 = LINE ( 'NONE', #360, #123 ) ;
#102 = EDGE_CURVE ( 'NONE', #15, #369, #38, .T. ) ;
#103 = ORIENTED_EDGE ( 'NONE', *, *, #406, .F. ) ;
#104 = DIRECTION ( 'NONE',  ( -1.000000000000000000, 0.000000000000000000, 0.000000000000000000 ) ) ;
#105 = AXIS2_PLACEMENT_3D ( 'NONE', #75, #34, #366 ) ;
#106 = EDGE_LOOP ( 'NONE', ( #57, #311, #422 ) ) ;
#107 = DESIGN_CONTEXT ( 'detailed design', #206, 'design' ) ;
#108 = EDGE_CURVE ( 'NONE', #431, #126, #318, .T. ) ;
#109 = CIRCLE ( 'NONE', #202, 0.1999999999999996503 ) ;
#110 = VERTEX_POINT ( 'NONE', #201 ) ;
#111 = DIRECTION ( 'NONE',  ( -0.000000000000000000, 1.000000000000000000, -0.000000000000000000 ) ) ;
#112 = CARTESIAN_POINT ( 'NONE',  ( 4.800000000000001599, 0.8000000000000000444, -1.299999999999999822 ) ) ;
#113 = LOCAL_TIME ( 13, 39, 10.00000000000000000, #150 ) ;
#114 = SPHERICAL_SURFACE ( 'NONE', #342, 0.2000000000000000111 ) ;
#115 = CALENDAR_DATE ( 2026, 22, 3 ) ;
#116 = CC_DESIGN_PERSON_AND_ORGANIZATION_ASSIGNMENT ( #388, #18, ( #417 ) ) ;
#117 = DIRECTION ( 'NONE',  ( -0.000000000000000000, 1.000000000000000000, 0.000000000000000000 ) ) ;
#118 = DIRECTION ( 'NONE',  ( 0.000000000000000000, -1.000000000000000000, 0.000000000000000000 ) ) ;
#119 = AXIS2_PLACEMENT_3D ( 'NONE', #39, #118, #540 ) ;
#120 = DIRECTION ( 'NONE',  ( 0.000000000000000000, 0.000000000000000000, -1.000000000000000000 ) ) ;
#121 = CARTESIAN_POINT ( 'NONE',  ( -4.799999999999999822, 0.8000000000000000444, 1.300000000000000266 ) ) ;
#122 = DIRECTION ( 'NONE',  ( 0.000000000000000000, -1.000000000000000000, 0.000000000000000000 ) ) ;
#123 = VECTOR ( 'NONE', #143, 1000.000000000000000 ) ;
#124 = DIRECTION ( 'NONE',  ( 1.000000000000000000, 0.000000000000000000, 0.000000000000000000 ) ) ;
#125 = EDGE_CURVE ( 'NONE', #199, #139, #42, .T. ) ;
#126 = VERTEX_POINT ( 'NONE', #83 ) ;
#127 = CARTESIAN_POINT ( 'NONE',  ( 4.800000000000001599, 0.8000000000000000444, 1.500000000000000222 ) ) ;
#128 = PERSON ( 'UNSPECIFIED', 'UNSPECIFIED', 'UNSPECIFIED', ('UNSPECIFIED'), ('UNSPECIFIED'), ('UNSPECIFIED') ) ;
#129 = VERTEX_POINT ( 'NONE', #246 ) ;
#130 = CYLINDRICAL_SURFACE ( 'NONE', #327, 0.1999999999999996503 ) ;
#131 = ORIENTED_EDGE ( 'NONE', *, *, #181, .F. ) ;
#132 = CARTESIAN_POINT ( 'NONE',  ( -4.799999999999999822, 1.000000000000000000, 1.300000000000000266 ) ) ;
#133 = APPROVAL_ROLE ( '' ) ;
#134 = CARTESIAN_POINT ( 'NONE',  ( -4.999999999999999112, 1.000000000000000000, -1.499999999999999778 ) ) ;
#135 = CIRCLE ( 'NONE', #172, 0.1999999999999999833 ) ;
#136 = AXIS2_PLACEMENT_3D ( 'NONE', #134, #13, #512 ) ;
#137 = DIRECTION ( 'NONE',  ( 0.000000000000000000, 1.000000000000000000, 0.000000000000000000 ) ) ;
#138 = APPROVAL_PERSON_ORGANIZATION ( #310, #447, #216 ) ;
#139 = VERTEX_POINT ( 'NONE', #414 ) ;
#140 = CC_DESIGN_PERSON_AND_ORGANIZATION_ASSIGNMENT ( #303, #469, ( #258 ) ) ;
#141 =( NAMED_UNIT ( * ) SI_UNIT ( $, .STERADIAN. ) SOLID_ANGLE_UNIT ( ) );
#142 = EDGE_LOOP ( 'NONE', ( #185, #273, #145, #351 ) ) ;
#143 = DIRECTION ( 'NONE',  ( 0.000000000000000000, -0.000000000000000000, -1.000000000000000000 ) ) ;
#144 = EDGE_CURVE ( 'NONE', #110, #129, #286, .T. ) ;
#145 = ORIENTED_EDGE ( 'NONE', *, *, #181, .T. ) ;
#146 = CARTESIAN_POINT ( 'NONE',  ( -4.999999999999999112, 1.000000000000000000, -1.299999999999999822 ) ) ;
#147 = ORIENTED_EDGE ( 'NONE', *, *, #349, .F. ) ;
#148 = AXIS2_PLACEMENT_3D ( 'NONE', #380, #379, #339 ) ;
#149 = VECTOR ( 'NONE', #161, 1000.000000000000000 ) ;
#150 = COORDINATED_UNIVERSAL_TIME_OFFSET ( 8, 0, .AHEAD. ) ;
#151 = ORIENTED_EDGE ( 'NONE', *, *, #7, .F. ) ;
#152 = DIRECTION ( 'NONE',  ( 0.000000000000000000, -1.000000000000000000, 0.000000000000000000 ) ) ;
#153 = CARTESIAN_POINT ( 'NONE',  ( -4.799999999999999822, 1.000000000000000000, -1.299999999999999822 ) ) ;
#154 = ORIENTED_EDGE ( 'NONE', *, *, #260, .F. ) ;
#155 = PRODUCT_DEFINITION ( 'UNKNOWN', '', #258, #107 ) ;
#156 = CARTESIAN_POINT ( 'NONE',  ( 4.800000000000001599, 0.8000000000000000444, 1.300000000000000266 ) ) ;
#157 = CARTESIAN_POINT ( 'NONE',  ( 4.800000000000001599, 1.000000000000000000, 1.300000000000000266 ) ) ;
#158 = CARTESIAN_POINT ( 'NONE',  ( 4.800000000000000711, 0.000000000000000000, 1.500000000000000222 ) ) ;
#159 = EDGE_CURVE ( 'NONE', #183, #126, #537, .T. ) ;
#160 = CARTESIAN_POINT ( 'NONE',  ( -4.799999999999999822, 1.000000000000000000, 1.500000000000000222 ) ) ;
#161 = DIRECTION ( 'NONE',  ( -1.000000000000000000, -0.000000000000000000, -0.000000000000000000 ) ) ;
#162 = AXIS2_PLACEMENT_3D ( 'NONE', #156, #323, #124 ) ;
#163 = ORIENTED_EDGE ( 'NONE', *, *, #250, .F. ) ;
#164 = CARTESIAN_POINT ( 'NONE',  ( 5.000000000000000888, 0.000000000000000000, -1.299999999999999822 ) ) ;
#165 = EDGE_CURVE ( 'NONE', #344, #431, #459, .T. ) ;
#166 = DIRECTION ( 'NONE',  ( 0.000000000000000000, -1.000000000000000000, 0.000000000000000000 ) ) ;
#167 = ORIENTED_EDGE ( 'NONE', *, *, #125, .T. ) ;
#168 = DIRECTION ( 'NONE',  ( -0.000000000000000000, -1.000000000000000000, -0.000000000000000000 ) ) ;
#169 = ORIENTED_EDGE ( 'NONE', *, *, #415, .T. ) ;
#170 = FACE_OUTER_BOUND ( 'NONE', #319, .T. ) ;
#171 = ORIENTED_EDGE ( 'NONE', *, *, #108, .T. ) ;
#172 = AXIS2_PLACEMENT_3D ( 'NONE', #196, #322, #404 ) ;
#173 = DIRECTION ( 'NONE',  ( -1.000000000000000000, 0.000000000000000000, 4.336808689942024836E-15 ) ) ;
#174 = DIRECTION ( 'NONE',  ( -0.000000000000000000, -1.000000000000000000, -0.000000000000000000 ) ) ;
#175 = ORIENTED_EDGE ( 'NONE', *, *, #498, .F. ) ;
#176 = FACE_OUTER_BOUND ( 'NONE', #438, .T. ) ;
#177 = PRODUCT_RELATED_PRODUCT_CATEGORY ( 'detail', '', ( #417 ) ) ;
#178 = EDGE_CURVE ( 'NONE', #369, #275, #456, .T. ) ;
#179 = APPROVAL_PERSON_ORGANIZATION ( #259, #21, #133 ) ;
#180 = ORIENTED_EDGE ( 'NONE', *, *, #313, .T. ) ;
#181 = EDGE_CURVE ( 'NONE', #453, #264, #446, .T. ) ;
#182 = FACE_OUTER_BOUND ( 'NONE', #49, .T. ) ;
#183 = VERTEX_POINT ( 'NONE', #408 ) ;
#184 = PLANE ( 'NONE',  #333 ) ;
#185 = ORIENTED_EDGE ( 'NONE', *, *, #336, .T. ) ;
#186 = CIRCLE ( 'NONE', #25, 0.2000000000000000944 ) ;
#187 = LINE ( 'NONE', #350, #426 ) ;
#188 = DATE_TIME_ROLE ( 'classification_date' ) ;
#189 = ORIENTED_EDGE ( 'NONE', *, *, #336, .F. ) ;
#190 = PLANE ( 'NONE',  #309 ) ;
#191 = CIRCLE ( 'NONE', #289, 0.2000000000000000944 ) ;
#192 = VECTOR ( 'NONE', #538, 1000.000000000000000 ) ;
#193 = ORIENTED_EDGE ( 'NONE', *, *, #108, .F. ) ;
#194 = EDGE_CURVE ( 'NONE', #358, #68, #35, .T. ) ;
#195 = CARTESIAN_POINT ( 'NONE',  ( 0.000000000000000000, 0.8000000000000000444, -1.299999999999999822 ) ) ;
#196 = CARTESIAN_POINT ( 'NONE',  ( 4.800000000000000711, 0.8000000000000000444, -1.299999999999999822 ) ) ;
#197 = EDGE_CURVE ( 'NONE', #384, #110, #56, .T. ) ;
#198 = DIRECTION ( 'NONE',  ( -0.000000000000000000, -1.000000000000000000, -0.000000000000000000 ) ) ;
#199 = VERTEX_POINT ( 'NONE', #164 ) ;
#200 = CARTESIAN_POINT ( 'NONE',  ( 5.000000000000000888, 1.000000000000000000, -1.499999999999999778 ) ) ;
#201 = CARTESIAN_POINT ( 'NONE',  ( 5.000000000000000888, 0.8000000000000000444, 1.300000000000000266 ) ) ;
#202 = AXIS2_PLACEMENT_3D ( 'NONE', #112, #277, #490 ) ;
#203 = ADVANCED_FACE ( 'NONE', ( #332 ), #410, .T. ) ;
#204 = DIRECTION ( 'NONE',  ( -1.000000000000000000, 0.000000000000000000, 0.000000000000000000 ) ) ;
#205 = CIRCLE ( 'NONE', #231, 0.1999999999999996503 ) ;
#206 = APPLICATION_CONTEXT ( 'configuration controlled 3d designs of mechanical parts and assemblies' ) ;
#207 = EDGE_LOOP ( 'NONE', ( #100, #147, #163, #17 ) ) ;
#208 = SECURITY_CLASSIFICATION ( '', '', #263 ) ;
#209 = CARTESIAN_POINT ( 'NONE',  ( -4.999999999999999112, 0.000000000000000000, -1.499999999999999778 ) ) ;
#210 = LINE ( 'NONE', #53, #441 ) ;
#211 = ADVANCED_FACE ( 'NONE', ( #240 ), #405, .T. ) ;
#212 = ORIENTED_EDGE ( 'NONE', *, *, #313, .F. ) ;
#213 = DIRECTION ( 'NONE',  ( -1.000000000000000000, 0.000000000000000000, 0.000000000000000000 ) ) ;
#214 = ORIENTED_EDGE ( 'NONE', *, *, #516, .T. ) ;
#215 = CARTESIAN_POINT ( 'NONE',  ( 4.800000000000000711, 1.000000000000000000, 1.500000000000000222 ) ) ;
#216 = APPROVAL_ROLE ( '' ) ;
#217 = CIRCLE ( 'NONE', #261, 0.2000000000000000944 ) ;
#218 = AXIS2_PLACEMENT_3D ( 'NONE', #41, #292, #325 ) ;
#219 = DIRECTION ( 'NONE',  ( 0.000000000000000000, -0.000000000000000000, 1.000000000000000000 ) ) ;
#220 = COORDINATED_UNIVERSAL_TIME_OFFSET ( 8, 0, .AHEAD. ) ;
#221 = EDGE_LOOP ( 'NONE', ( #103, #51, #315, #355 ) ) ;
#222 = DIRECTION ( 'NONE',  ( -1.000000000000000000, 0.000000000000000000, 0.000000000000000000 ) ) ;
#223 = ADVANCED_FACE ( 'NONE', ( #416 ), #452, .F. ) ;
#224 = ORIENTED_EDGE ( 'NONE', *, *, #87, .F. ) ;
#225 = EDGE_LOOP ( 'NONE', ( #180, #175, #522, #251 ) ) ;
#226 = SPHERICAL_SURFACE ( 'NONE', #376, 0.2000000000000000111 ) ;
#227 = ORIENTED_EDGE ( 'NONE', *, *, #415, .F. ) ;
#228 =( LENGTH_UNIT ( ) NAMED_UNIT ( * ) SI_UNIT ( .MILLI., .METRE. ) );
#229 = APPROVAL_ROLE ( '' ) ;
#230 = ORIENTED_EDGE ( 'NONE', *, *, #3, .F. ) ;
#231 = AXIS2_PLACEMENT_3D ( 'NONE', #462, #252, #213 ) ;
#232 = CARTESIAN_POINT ( 'NONE',  ( -4.799999999999999822, 0.8000000000000000444, -1.299999999999999822 ) ) ;
#233 = CC_DESIGN_APPROVAL ( #508, ( #208 ) ) ;
#234 = DIRECTION ( 'NONE',  ( 0.000000000000000000, 1.000000000000000000, -0.000000000000000000 ) ) ;
#235 = AXIS2_PLACEMENT_3D ( 'NONE', #28, #72, #274 ) ;
#236 = DIRECTION ( 'NONE',  ( -0.000000000000000000, -0.000000000000000000, -1.000000000000000000 ) ) ;
#237 = FACE_OUTER_BOUND ( 'NONE', #407, .T. ) ;
#238 = ADVANCED_FACE ( 'NONE', ( #237 ), #502, .T. ) ;
#239 = CARTESIAN_POINT ( 'NONE',  ( -4.799999999999999822, 0.8000000000000000444, 1.300000000000000266 ) ) ;
#240 = FACE_OUTER_BOUND ( 'NONE', #221, .T. ) ;
#241 = CARTESIAN_POINT ( 'NONE',  ( -4.999999999999999112, 0.8000000000000000444, 1.300000000000000266 ) ) ;
#242 = CARTESIAN_POINT ( 'NONE',  ( -4.799999999999999822, 0.8000000000000000444, 0.000000000000000000 ) ) ;
#243 = AXIS2_PLACEMENT_3D ( 'NONE', #324, #117, #409 ) ;
#244 = CARTESIAN_POINT ( 'NONE',  ( -4.799999999999999822, 1.000000000000000000, 1.500000000000000222 ) ) ;
#245 = CARTESIAN_POINT ( 'NONE',  ( 0.000000000000000000, 0.000000000000000000, 0.000000000000000000 ) ) ;
#246 = CARTESIAN_POINT ( 'NONE',  ( 5.000000000000000888, 0.000000000000000000, 1.300000000000000266 ) ) ;
#247 = DIRECTION ( 'NONE',  ( 0.000000000000000000, 1.000000000000000000, 0.000000000000000000 ) ) ;
#248 = EDGE_LOOP ( 'NONE', ( #304, #36, #224 ) ) ;
#249 = DIRECTION ( 'NONE',  ( 0.000000000000000000, 0.000000000000000000, 1.000000000000000000 ) ) ;
#250 = EDGE_CURVE ( 'NONE', #110, #97, #354, .T. ) ;
#251 = ORIENTED_EDGE ( 'NONE', *, *, #102, .F. ) ;
#252 = DIRECTION ( 'NONE',  ( -0.000000000000000000, -0.000000000000000000, 1.000000000000000000 ) ) ;
#253 = ADVANCED_FACE ( 'NONE', ( #491 ), #282, .T. ) ;
#254 = ORIENTED_EDGE ( 'NONE', *, *, #458, .F. ) ;
#255 = FACE_OUTER_BOUND ( 'NONE', #338, .T. ) ;
#256 = AXIS2_PLACEMENT_3D ( 'NONE', #245, #413, #378 ) ;
#257 = DIRECTION ( 'NONE',  ( 0.000000000000000000, 0.000000000000000000, 1.000000000000000000 ) ) ;
#258 = PRODUCT_DEFINITION_FORMATION_WITH_SPECIFIED_SOURCE ( 'ANY', '', #417, .NOT_KNOWN. ) ;
#259 = PERSON_AND_ORGANIZATION ( #128, #373 ) ;
#260 = EDGE_CURVE ( 'NONE', #129, #264, #285, .T. ) ;
#261 = AXIS2_PLACEMENT_3D ( 'NONE', #55, #174, #343 ) ;
#262 = VECTOR ( 'NONE', #385, 1000.000000000000000 ) ;
#263 = SECURITY_CLASSIFICATION_LEVEL ( 'unclassified' ) ;
#264 = VERTEX_POINT ( 'NONE', #158 ) ;
#265 = FACE_OUTER_BOUND ( 'NONE', #66, .T. ) ;
#266 = PERSON_AND_ORGANIZATION_ROLE ( 'classification_officer' ) ;
#267 = ORIENTED_EDGE ( 'NONE', *, *, #492, .F. ) ;
#268 = APPLICATION_PROTOCOL_DEFINITION ( 'international standard', 'config_control_design', 1994, #12 ) ;
#269 = EDGE_CURVE ( 'NONE', #68, #275, #186, .T. ) ;
#270 = ORIENTED_EDGE ( 'NONE', *, *, #102, .T. ) ;
#271 = FACE_OUTER_BOUND ( 'NONE', #317, .T. ) ;
#272 = APPROVAL_DATE_TIME ( #357, #508 ) ;
#273 = ORIENTED_EDGE ( 'NONE', *, *, #46, .T. ) ;
#274 = DIRECTION ( 'NONE',  ( 0.000000000000000000, 0.000000000000000000, -1.000000000000000000 ) ) ;
#275 = VERTEX_POINT ( 'NONE', #288 ) ;
#276 = CARTESIAN_POINT ( 'NONE',  ( 5.000000000000000888, 0.8000000000000000444, -1.499999999999999778 ) ) ;
#277 = DIRECTION ( 'NONE',  ( -0.000000000000000000, -0.000000000000000000, 1.000000000000000000 ) ) ;
#278 = ADVANCED_FACE ( 'NONE', ( #455 ), #82, .F. ) ;
#279 = CARTESIAN_POINT ( 'NONE',  ( -4.999999999999999112, 1.000000000000000000, -1.299999999999999822 ) ) ;
#280 = ADVANCED_FACE ( 'NONE', ( #47 ), #130, .T. ) ;
#281 = ORIENTED_EDGE ( 'NONE', *, *, #159, .F. ) ;
#282 = SPHERICAL_SURFACE ( 'NONE', #43, 0.2000000000000000111 ) ;
#283 = DATE_AND_TIME ( #314, #306 ) ;
#284 = ORIENTED_EDGE ( 'NONE', *, *, #159, .T. ) ;
#285 = CIRCLE ( 'NONE', #424, 0.2000000000000000944 ) ;
#286 = LINE ( 'NONE', #370, #334 ) ;
#287 = DIRECTION ( 'NONE',  ( -0.000000000000000000, -1.000000000000000000, -0.000000000000000000 ) ) ;
#288 = CARTESIAN_POINT ( 'NONE',  ( -4.799999999999999822, 0.8000000000000000444, 1.500000000000000222 ) ) ;
#289 = AXIS2_PLACEMENT_3D ( 'NONE', #341, #168, #257 ) ;
#290 = VECTOR ( 'NONE', #372, 1000.000000000000000 ) ;
#291 = CARTESIAN_POINT ( 'NONE',  ( 5.000000000000000888, 1.000000000000000000, -1.299999999999999822 ) ) ;
#292 = DIRECTION ( 'NONE',  ( 1.000000000000000000, -0.000000000000000000, -0.000000000000000000 ) ) ;
#293 = ORIENTED_EDGE ( 'NONE', *, *, #48, .F. ) ;
#294 = CARTESIAN_POINT ( 'NONE',  ( -4.999999999999999112, 0.000000000000000000, 1.300000000000000266 ) ) ;
#295 = ADVANCED_FACE ( 'NONE', ( #58 ), #90, .T. ) ;
#296 = CARTESIAN_POINT ( 'NONE',  ( 4.800000000000001599, 0.8000000000000000444, 0.000000000000000000 ) ) ;
#297 = ORIENTED_EDGE ( 'NONE', *, *, #498, .T. ) ;
#298 = SPHERICAL_SURFACE ( 'NONE', #501, 0.2000000000000000111 ) ;
#299 = ORIENTED_EDGE ( 'NONE', *, *, #165, .T. ) ;
#300 = CARTESIAN_POINT ( 'NONE',  ( 4.800000000000001599, 1.000000000000000000, -1.499999999999999778 ) ) ;
#301 = ADVANCED_FACE ( 'NONE', ( #170 ), #429, .F. ) ;
#302 = AXIS2_PLACEMENT_3D ( 'NONE', #200, #204, #44 ) ;
#303 = PERSON_AND_ORGANIZATION ( #128, #373 ) ;
#304 = ORIENTED_EDGE ( 'NONE', *, *, #197, .T. ) ;
#305 = DIRECTION ( 'NONE',  ( 0.000000000000000000, 0.000000000000000000, 1.000000000000000000 ) ) ;
#306 = LOCAL_TIME ( 13, 39, 10.00000000000000000, #61 ) ;
#307 = DATE_AND_TIME ( #421, #541 ) ;
#308 = ORIENTED_EDGE ( 'NONE', *, *, #165, .F. ) ;
#309 = AXIS2_PLACEMENT_3D ( 'NONE', #435, #396, #437 ) ;
#310 = PERSON_AND_ORGANIZATION ( #128, #373 ) ;
#311 = ORIENTED_EDGE ( 'NONE', *, *, #269, .T. ) ;
#312 = DIRECTION ( 'NONE',  ( 1.000000000000000000, 0.000000000000000000, 0.000000000000000000 ) ) ;
#313 = EDGE_CURVE ( 'NONE', #15, #344, #205, .T. ) ;
#314 = CALENDAR_DATE ( 2026, 22, 3 ) ;
#315 = ORIENTED_EDGE ( 'NONE', *, *, #269, .F. ) ;
#316 = LINE ( 'NONE', #276, #402 ) ;
#317 = EDGE_LOOP ( 'NONE', ( #270, #214, #460, #348 ) ) ;
#318 = CIRCLE ( 'NONE', #403, 0.2000000000000000944 ) ;
#319 = EDGE_LOOP ( 'NONE', ( #284, #434, #399, #527 ) ) ;
#320 = EDGE_CURVE ( 'NONE', #369, #68, #398, .T. ) ;
#321 = CYLINDRICAL_SURFACE ( 'NONE', #528, 0.2000000000000000944 ) ;
#322 = DIRECTION ( 'NONE',  ( 1.000000000000000000, -4.336808689942018525E-15, 0.000000000000000000 ) ) ;
#323 = DIRECTION ( 'NONE',  ( 0.000000000000000000, 0.000000000000000000, 1.000000000000000000 ) ) ;
#324 = CARTESIAN_POINT ( 'NONE',  ( 4.800000000000001599, 0.8000000000000000444, -1.299999999999999822 ) ) ;
#325 = DIRECTION ( 'NONE',  ( 0.000000000000000000, 0.000000000000000000, 1.000000000000000000 ) ) ;
#326 = DIRECTION ( 'NONE',  ( -0.000000000000000000, 0.000000000000000000, 1.000000000000000000 ) ) ;
#327 = AXIS2_PLACEMENT_3D ( 'NONE', #296, #219, #88 ) ;
#328 = CARTESIAN_POINT ( 'NONE',  ( 4.800000000000001599, 0.8000000000000000444, 1.300000000000000266 ) ) ;
#329 = PRODUCT_DEFINITION_SHAPE ( 'NONE', 'NONE',  #155 ) ;
#330 = EDGE_LOOP ( 'NONE', ( #505, #31, #464, #4 ) ) ;
#331 = CC_DESIGN_APPROVAL ( #21, ( #258 ) ) ;
#332 = FACE_OUTER_BOUND ( 'NONE', #225, .T. ) ;
#333 = AXIS2_PLACEMENT_3D ( 'NONE', #352, #439, #69 ) ;
#334 = VECTOR ( 'NONE', #166, 1000.000000000000000 ) ;
#335 = CARTESIAN_POINT ( 'NONE',  ( -4.999999999999999112, 1.000000000000000000, 1.300000000000000266 ) ) ;
#336 = EDGE_CURVE ( 'NONE', #384, #275, #210, .T. ) ;
#337 = CARTESIAN_POINT ( 'NONE',  ( -4.999999999999999112, 0.8000000000000000444, -1.299999999999999822 ) ) ;
#338 = EDGE_LOOP ( 'NONE', ( #524, #364, #230 ) ) ;
#339 = DIRECTION ( 'NONE',  ( 0.000000000000000000, 0.000000000000000000, -1.000000000000000000 ) ) ;
#340 = APPROVAL_STATUS ( 'not_yet_approved' ) ;
#341 = CARTESIAN_POINT ( 'NONE',  ( 4.800000000000000711, 0.000000000000000000, -1.299999999999999822 ) ) ;
#342 = AXIS2_PLACEMENT_3D ( 'NONE', #239, #234, #79 ) ;
#343 = DIRECTION ( 'NONE',  ( 0.000000000000000000, 0.000000000000000000, 1.000000000000000000 ) ) ;
#344 = VERTEX_POINT ( 'NONE', #337 ) ;
#345 = CARTESIAN_POINT ( 'NONE',  ( 0.000000000000000000, 0.8000000000000000444, 1.300000000000000266 ) ) ;
#346 = AXIS2_PLACEMENT_3D ( 'NONE', #60, #484, #312 ) ;
#347 = ADVANCED_BREP_SHAPE_REPRESENTATION ( 'BAR3X10T1', ( #394, #346 ), #45 ) ;
#348 = ORIENTED_EDGE ( 'NONE', *, *, #477, .T. ) ;
#349 = EDGE_CURVE ( 'NONE', #97, #509, #425, .T. ) ;
#350 = CARTESIAN_POINT ( 'NONE',  ( 5.000000000000000888, 1.000000000000000000, 1.300000000000000266 ) ) ;
#351 = ORIENTED_EDGE ( 'NONE', *, *, #375, .T. ) ;
#352 = CARTESIAN_POINT ( 'NONE',  ( -4.999999999999999112, 1.000000000000000000, -1.499999999999999778 ) ) ;
#353 = EDGE_CURVE ( 'NONE', #139, #110, #50, .T. ) ;
#354 = CIRCLE ( 'NONE', #162, 0.1999999999999996503 ) ;
#355 = ORIENTED_EDGE ( 'NONE', *, *, #194, .F. ) ;
#356 = DIRECTION ( 'NONE',  ( 1.000000000000000000, -0.000000000000000000, 0.000000000000000000 ) ) ;
#357 = DATE_AND_TIME ( #115, #113 ) ;
#358 = VERTEX_POINT ( 'NONE', #294 ) ;
#359 = VECTOR ( 'NONE', #111, 1000.000000000000000 ) ;
#360 = CARTESIAN_POINT ( 'NONE',  ( -4.999999999999999112, 0.8000000000000000444, -1.499999999999999778 ) ) ;
#361 = AXIS2_PLACEMENT_3D ( 'NONE', #374, #247, #504 ) ;
#362 = ADVANCED_FACE ( 'NONE', ( #176 ), #383, .T. ) ;
#363 = ORIENTED_EDGE ( 'NONE', *, *, #477, .F. ) ;
#364 = ORIENTED_EDGE ( 'NONE', *, *, #33, .T. ) ;
#365 = DIRECTION ( 'NONE',  ( 1.000000000000000000, 0.000000000000000000, 0.000000000000000000 ) ) ;
#366 = DIRECTION ( 'NONE',  ( -1.000000000000000000, 0.000000000000000000, -0.000000000000000000 ) ) ;
#367 = EDGE_CURVE ( 'NONE', #15, #85, #1, .T. ) ;
#368 = DIRECTION ( 'NONE',  ( 0.000000000000000000, -1.000000000000000000, 0.000000000000000000 ) ) ;
#369 = VERTEX_POINT ( 'NONE', #132 ) ;
#370 = CARTESIAN_POINT ( 'NONE',  ( 5.000000000000000888, 1.000000000000000000, 1.300000000000000266 ) ) ;
#371 = LINE ( 'NONE', #530, #513 ) ;
#372 = DIRECTION ( 'NONE',  ( -0.000000000000000000, 1.000000000000000000, -0.000000000000000000 ) ) ;
#373 = ORGANIZATION ( 'UNSPECIFIED', 'UNSPECIFIED', '' ) ;
#374 = CARTESIAN_POINT ( 'NONE',  ( 4.800000000000001599, 0.8000000000000000444, 1.300000000000000266 ) ) ;
#375 = EDGE_CURVE ( 'NONE', #264, #384, #461, .T. ) ;
#376 = AXIS2_PLACEMENT_3D ( 'NONE', #232, #393, #22 ) ;
#377 = ORIENTED_EDGE ( 'NONE', *, *, #7, .T. ) ;
#378 = DIRECTION ( 'NONE',  ( 0.000000000000000000, -0.000000000000000000, 1.000000000000000000 ) ) ;
#379 = DIRECTION ( 'NONE',  ( 0.000000000000000000, -1.000000000000000000, 0.000000000000000000 ) ) ;
#380 = CARTESIAN_POINT ( 'NONE',  ( 4.800000000000001599, 1.000000000000000000, 1.300000000000000266 ) ) ;
#381 = APPROVAL_DATE_TIME ( #91, #21 ) ;
#382 = CIRCLE ( 'NONE', #32, 0.2000000000000000944 ) ;
#383 = CYLINDRICAL_SURFACE ( 'NONE', #148, 0.2000000000000000944 ) ;
#384 = VERTEX_POINT ( 'NONE', #127 ) ;
#385 = DIRECTION ( 'NONE',  ( -0.000000000000000000, -0.000000000000000000, 1.000000000000000000 ) ) ;
#386 = ADVANCED_FACE ( 'NONE', ( #255 ), #298, .T. ) ;
#387 = ORIENTED_EDGE ( 'NONE', *, *, #367, .F. ) ;
#388 = PERSON_AND_ORGANIZATION ( #128, #373 ) ;
#389 = CC_DESIGN_PERSON_AND_ORGANIZATION_ASSIGNMENT ( #430, #266, ( #208 ) ) ;
#390 = CALENDAR_DATE ( 2026, 22, 3 ) ;
#391 = ORIENTED_EDGE ( 'NONE', *, *, #260, .T. ) ;
#392 = EDGE_CURVE ( 'NONE', #183, #199, #191, .T. ) ;
#393 = DIRECTION ( 'NONE',  ( 0.000000000000000000, 1.000000000000000000, 0.000000000000000000 ) ) ;
#394 = MANIFOLD_SOLID_BREP ( '\X2\570689d2\X0\1', #440 ) ;
#395 = ORIENTED_EDGE ( 'NONE', *, *, #33, .F. ) ;
#396 = DIRECTION ( 'NONE',  ( 0.000000000000000000, 1.000000000000000000, 0.000000000000000000 ) ) ;
#397 = PERSON_AND_ORGANIZATION ( #128, #373 ) ;
#398 = CIRCLE ( 'NONE', #539, 0.1999999999999996503 ) ;
#399 = ORIENTED_EDGE ( 'NONE', *, *, #492, .T. ) ;
#400 = APPLICATION_PROTOCOL_DEFINITION ( 'international standard', 'config_control_design', 1994, #206 ) ;
#401 = LINE ( 'NONE', #500, #483 ) ;
#402 = VECTOR ( 'NONE', #443, 1000.000000000000000 ) ;
#403 = AXIS2_PLACEMENT_3D ( 'NONE', #495, #287, #40 ) ;
#404 = DIRECTION ( 'NONE',  ( 4.336808689942017736E-15, 1.000000000000000000, 0.000000000000000000 ) ) ;
#405 = CYLINDRICAL_SURFACE ( 'NONE', #119, 0.2000000000000000944 ) ;
#406 = EDGE_CURVE ( 'NONE', #453, #358, #217, .T. ) ;
#407 = EDGE_LOOP ( 'NONE', ( #395, #267, #387, #363 ) ) ;
#408 = CARTESIAN_POINT ( 'NONE',  ( 4.800000000000000711, 0.000000000000000000, -1.499999999999999778 ) ) ;
#409 = DIRECTION ( 'NONE',  ( 0.000000000000000000, 0.000000000000000000, 1.000000000000000000 ) ) ;
#410 = CYLINDRICAL_SURFACE ( 'NONE', #496, 0.1999999999999996503 ) ;
#411 = VECTOR ( 'NONE', #457, 1000.000000000000000 ) ;
#412 = DIRECTION ( 'NONE',  ( 0.000000000000000000, 0.000000000000000000, 1.000000000000000000 ) ) ;
#413 = DIRECTION ( 'NONE',  ( 0.000000000000000000, 1.000000000000000000, 0.000000000000000000 ) ) ;
#414 = CARTESIAN_POINT ( 'NONE',  ( 5.000000000000000888, 0.8000000000000000444, -1.299999999999999822 ) ) ;
#415 = EDGE_CURVE ( 'NONE', #85, #344, #94, .T. ) ;
#416 = FACE_OUTER_BOUND ( 'NONE', #436, .T. ) ;
#417 = PRODUCT ( 'BAR3X10T1', 'BAR3X10T1', '', ( #521 ) ) ;
#418 = DIRECTION ( 'NONE',  ( 1.000000000000000000, 0.000000000000000000, 0.000000000000000000 ) ) ;
#419 = ORIENTED_EDGE ( 'NONE', *, *, #48, .T. ) ;
#420 = DIRECTION ( 'NONE',  ( 0.000000000000000000, -0.000000000000000000, 1.000000000000000000 ) ) ;
#421 = CALENDAR_DATE ( 2026, 22, 3 ) ;
#422 = ORIENTED_EDGE ( 'NONE', *, *, #178, .F. ) ;
#423 = CARTESIAN_POINT ( 'NONE',  ( 4.800000000000001599, 0.8000000000000000444, -1.299999999999999822 ) ) ;
#424 = AXIS2_PLACEMENT_3D ( 'NONE', #37, #198, #535 ) ;
#425 = LINE ( 'NONE', #300, #52 ) ;
#426 = VECTOR ( 'NONE', #356, 1000.000000000000000 ) ;
#427 = PERSON_AND_ORGANIZATION ( #128, #373 ) ;
#428 = VECTOR ( 'NONE', #84, 1000.000000000000000 ) ;
#429 = PLANE ( 'NONE',  #136 ) ;
#430 = PERSON_AND_ORGANIZATION ( #128, #373 ) ;
#431 = VERTEX_POINT ( 'NONE', #471 ) ;
#432 = LINE ( 'NONE', #64, #359 ) ;
#433 = ADVANCED_FACE ( 'NONE', ( #93 ), #226, .T. ) ;
#434 = ORIENTED_EDGE ( 'NONE', *, *, #458, .T. ) ;
#435 = CARTESIAN_POINT ( 'NONE',  ( 0.000000000000000000, 1.000000000000000000, 0.000000000000000000 ) ) ;
#436 = EDGE_LOOP ( 'NONE', ( #419, #167, #482, #479 ) ) ;
#437 = DIRECTION ( 'NONE',  ( 0.000000000000000000, -0.000000000000000000, 1.000000000000000000 ) ) ;
#438 = EDGE_LOOP ( 'NONE', ( #154, #89, #27, #480 ) ) ;
#439 = DIRECTION ( 'NONE',  ( 1.000000000000000000, 0.000000000000000000, 0.000000000000000000 ) ) ;
#440 = CLOSED_SHELL ( 'NONE', ( #223, #301, #474, #86, #463, #278, #450, #238, #71, #433, #386, #211, #203, #280, #362, #14, #253, #295 ) ) ;
#441 = VECTOR ( 'NONE', #16, 1000.000000000000000 ) ;
#442 = ORIENTED_EDGE ( 'NONE', *, *, #392, .T. ) ;
#443 = DIRECTION ( 'NONE',  ( 1.000000000000000000, -0.000000000000000000, -0.000000000000000000 ) ) ;
#444 = LOCAL_TIME ( 13, 39, 10.00000000000000000, #511 ) ;
#445 = PLANE ( 'NONE',  #105 ) ;
#446 = LINE ( 'NONE', #449, #428 ) ;
#447 = APPROVAL ( #340, 'UNSPECIFIED' ) ;
#448 = CARTESIAN_POINT ( 'NONE',  ( -4.799999999999999822, 0.8000000000000000444, -1.499999999999999778 ) ) ;
#449 = CARTESIAN_POINT ( 'NONE',  ( -4.999999999999999112, 0.000000000000000000, 1.500000000000000222 ) ) ;
#450 = ADVANCED_FACE ( 'NONE', ( #265 ), #529, .T. ) ;
#451 = DIRECTION ( 'NONE',  ( -1.000000000000000000, -0.000000000000000000, -0.000000000000000000 ) ) ;
#452 = PLANE ( 'NONE',  #302 ) ;
#453 = VERTEX_POINT ( 'NONE', #24 ) ;
#454 = VECTOR ( 'NONE', #506, 1000.000000000000000 ) ;
#455 = FACE_OUTER_BOUND ( 'NONE', #6, .T. ) ;
#456 = CIRCLE ( 'NONE', #218, 0.2000000000000000944 ) ;
#457 = DIRECTION ( 'NONE',  ( -0.000000000000000000, 1.000000000000000000, -0.000000000000000000 ) ) ;
#458 = EDGE_CURVE ( 'NONE', #126, #85, #432, .T. ) ;
#459 = LINE ( 'NONE', #279, #503 ) ;
#460 = ORIENTED_EDGE ( 'NONE', *, *, #349, .T. ) ;
#461 = LINE ( 'NONE', #215, #454 ) ;
#462 = CARTESIAN_POINT ( 'NONE',  ( -4.799999999999999822, 0.8000000000000000444, -1.299999999999999822 ) ) ;
#463 = ADVANCED_FACE ( 'NONE', ( #271 ), #190, .T. ) ;
#464 = ORIENTED_EDGE ( 'NONE', *, *, #98, .F. ) ;
#465 = CARTESIAN_POINT ( 'NONE',  ( -4.799999999999999822, 0.8000000000000000444, 1.300000000000000266 ) ) ;
#466 = PERSON_AND_ORGANIZATION_ROLE ( 'creator' ) ;
#467 = CARTESIAN_POINT ( 'NONE',  ( -4.799999999999999822, 0.8000000000000000444, -1.299999999999999822 ) ) ;
#468 = AXIS2_PLACEMENT_3D ( 'NONE', #345, #222, #249 ) ;
#469 = PERSON_AND_ORGANIZATION_ROLE ( 'creator' ) ;
#470 = ORIENTED_EDGE ( 'NONE', *, *, #87, .T. ) ;
#471 = CARTESIAN_POINT ( 'NONE',  ( -4.999999999999999112, 0.000000000000000000, -1.299999999999999822 ) ) ;
#472 = AXIS2_PLACEMENT_3D ( 'NONE', #514, #137, #305 ) ;
#473 = CALENDAR_DATE ( 2026, 22, 3 ) ;
#474 = ADVANCED_FACE ( 'NONE', ( #182 ), #184, .F. ) ;
#475 = EDGE_LOOP ( 'NONE', ( #520, #169, #212 ) ) ;
#476 = CARTESIAN_POINT ( 'NONE',  ( 4.800000000000001599, 1.000000000000000000, -1.299999999999999822 ) ) ;
#477 = EDGE_CURVE ( 'NONE', #509, #15, #523, .T. ) ;
#478 = DATE_TIME_ROLE ( 'creation_date' ) ;
#479 = ORIENTED_EDGE ( 'NONE', *, *, #144, .T. ) ;
#480 = ORIENTED_EDGE ( 'NONE', *, *, #375, .F. ) ;
#481 = LINE ( 'NONE', #67, #74 ) ;
#482 = ORIENTED_EDGE ( 'NONE', *, *, #353, .T. ) ;
#483 = VECTOR ( 'NONE', #236, 1000.000000000000000 ) ;
#484 = DIRECTION ( 'NONE',  ( 0.000000000000000000, 0.000000000000000000, 1.000000000000000000 ) ) ;
#485 = APPROVAL_STATUS ( 'not_yet_approved' ) ;
#486 = EDGE_LOOP ( 'NONE', ( #63, #189, #470, #20 ) ) ;
#487 = UNCERTAINTY_MEASURE_WITH_UNIT (LENGTH_MEASURE( 1.000000000000000082E-05 ), #228, 'distance_accuracy_value', 'NONE');
#488 = DIRECTION ( 'NONE',  ( 0.000000000000000000, 0.000000000000000000, -1.000000000000000000 ) ) ;
#489 = CC_DESIGN_PERSON_AND_ORGANIZATION_ASSIGNMENT ( #427, #99, ( #258 ) ) ;
#490 = DIRECTION ( 'NONE',  ( -1.000000000000000000, 0.000000000000000000, 0.000000000000000000 ) ) ;
#491 = FACE_OUTER_BOUND ( 'NONE', #248, .T. ) ;
#492 = EDGE_CURVE ( 'NONE', #85, #59, #316, .T. ) ;
#493 = CARTESIAN_POINT ( 'NONE',  ( 4.800000000000000711, 0.8000000000000000444, -1.499999999999999778 ) ) ;
#494 = DIRECTION ( 'NONE',  ( 0.000000000000000000, 1.000000000000000000, -0.000000000000000000 ) ) ;
#495 = CARTESIAN_POINT ( 'NONE',  ( -4.799999999999999822, 0.000000000000000000, -1.299999999999999822 ) ) ;
#496 = AXIS2_PLACEMENT_3D ( 'NONE', #242, #76, #2 ) ;
#497 = DIRECTION ( 'NONE',  ( 0.000000000000000000, 0.000000000000000000, -1.000000000000000000 ) ) ;
#498 = EDGE_CURVE ( 'NONE', #68, #344, #101, .T. ) ;
#499 = CC_DESIGN_APPROVAL ( #447, ( #155 ) ) ;
#500 = CARTESIAN_POINT ( 'NONE',  ( 5.000000000000000888, 0.000000000000000000, -1.499999999999999778 ) ) ;
#501 = AXIS2_PLACEMENT_3D ( 'NONE', #423, #9, #173 ) ;
#502 = CYLINDRICAL_SURFACE ( 'NONE', #515, 0.2000000000000000944 ) ;
#503 = VECTOR ( 'NONE', #368, 1000.000000000000000 ) ;
#504 = DIRECTION ( 'NONE',  ( 0.000000000000000000, 0.000000000000000000, 1.000000000000000000 ) ) ;
#505 = ORIENTED_EDGE ( 'NONE', *, *, #392, .F. ) ;
#506 = DIRECTION ( 'NONE',  ( -0.000000000000000000, 1.000000000000000000, -0.000000000000000000 ) ) ;
#507 = CC_DESIGN_DATE_AND_TIME_ASSIGNMENT ( #519, #478, ( #155 ) ) ;
#508 = APPROVAL ( #485, 'UNSPECIFIED' ) ;
#509 = VERTEX_POINT ( 'NONE', #476 ) ;
#510 = DIRECTION ( 'NONE',  ( 0.000000000000000000, 0.000000000000000000, 1.000000000000000000 ) ) ;
#511 = COORDINATED_UNIVERSAL_TIME_OFFSET ( 8, 0, .AHEAD. ) ;
#512 = DIRECTION ( 'NONE',  ( 1.000000000000000000, 0.000000000000000000, -0.000000000000000000 ) ) ;
#513 = VECTOR ( 'NONE', #412, 1000.000000000000000 ) ;
#514 = CARTESIAN_POINT ( 'NONE',  ( -4.799999999999999822, 0.8000000000000000444, -1.299999999999999822 ) ) ;
#515 = AXIS2_PLACEMENT_3D ( 'NONE', #195, #365, #533 ) ;
#516 = EDGE_CURVE ( 'NONE', #369, #97, #187, .T. ) ;
#517 = ORIENTED_EDGE ( 'NONE', *, *, #406, .T. ) ;
#518 = CC_DESIGN_SECURITY_CLASSIFICATION ( #208, ( #258 ) ) ;
#519 = DATE_AND_TIME ( #473, #444 ) ;
#520 = ORIENTED_EDGE ( 'NONE', *, *, #367, .T. ) ;
#521 = MECHANICAL_CONTEXT ( 'NONE', #12, 'mechanical' ) ;
#522 = ORIENTED_EDGE ( 'NONE', *, *, #320, .F. ) ;
#523 = LINE ( 'NONE', #146, #30 ) ;
#524 = ORIENTED_EDGE ( 'NONE', *, *, #98, .T. ) ;
#525 =( NAMED_UNIT ( * ) PLANE_ANGLE_UNIT ( ) SI_UNIT ( $, .RADIAN. ) );
#526 = AXIS2_PLACEMENT_3D ( 'NONE', #467, #92, #510 ) ;
#527 = ORIENTED_EDGE ( 'NONE', *, *, #532, .T. ) ;
#528 = AXIS2_PLACEMENT_3D ( 'NONE', #536, #122, #488 ) ;
#529 = CYLINDRICAL_SURFACE ( 'NONE', #235, 0.2000000000000000944 ) ;
#530 = CARTESIAN_POINT ( 'NONE',  ( -4.999999999999999112, 0.000000000000000000, -1.499999999999999778 ) ) ;
#531 = FACE_OUTER_BOUND ( 'NONE', #330, .T. ) ;
#532 = EDGE_CURVE ( 'NONE', #59, #183, #481, .T. ) ;
#533 = DIRECTION ( 'NONE',  ( 0.000000000000000000, 0.000000000000000000, -1.000000000000000000 ) ) ;
#534 = CARTESIAN_POINT ( 'NONE',  ( 4.800000000000001599, 0.8000000000000000444, 1.300000000000000266 ) ) ;
#535 = DIRECTION ( 'NONE',  ( 1.301042606982604690E-14, 0.000000000000000000, 1.000000000000000000 ) ) ;
#536 = CARTESIAN_POINT ( 'NONE',  ( 4.800000000000000711, 1.000000000000000000, -1.299999999999999822 ) ) ;
#537 = LINE ( 'NONE', #209, #149 ) ;
#538 = DIRECTION ( 'NONE',  ( 0.000000000000000000, -1.000000000000000000, 0.000000000000000000 ) ) ;
#539 = AXIS2_PLACEMENT_3D ( 'NONE', #465, #420, #418 ) ;
#540 = DIRECTION ( 'NONE',  ( 0.000000000000000000, 0.000000000000000000, -1.000000000000000000 ) ) ;
#541 = LOCAL_TIME ( 13, 39, 10.00000000000000000, #220 ) ;
ENDSEC;
END-ISO-10303-21;
