ISO-10303-21;
HEADER;
FILE_DESCRIPTION (( 'STEP AP203' ),
    '1' );
FILE_NAME ('BAR3X14T1.step',
    '2026-03-22T05:38:24',
    ( '' ),
    ( '' ),
    'SwSTEP 2.0',
    'SolidWorks 2025',
    '' );
FILE_SCHEMA (( 'CONFIG_CONTROL_DESIGN' ));
ENDSEC;

DATA;
#1 = CARTESIAN_POINT ( 'NONE',  ( -6.999999999999997335, 0.000000000000000000, -1.500000000000000000 ) ) ;
#2 = ORIENTED_EDGE ( 'NONE', *, *, #467, .T. ) ;
#3 = CIRCLE ( 'NONE', #48, 0.2000000000000000944 ) ;
#4 = ADVANCED_FACE ( 'NONE', ( #225 ), #153, .F. ) ;
#5 = DIRECTION ( 'NONE',  ( 0.000000000000000000, -1.000000000000000000, 0.000000000000000000 ) ) ;
#6 = EDGE_LOOP ( 'NONE', ( #471, #325, #8, #134 ) ) ;
#7 = CARTESIAN_POINT ( 'NONE',  ( 7.000000000000002665, 1.000000000000000000, -1.500000000000000000 ) ) ;
#8 = ORIENTED_EDGE ( 'NONE', *, *, #462, .T. ) ;
#9 = CC_DESIGN_PERSON_AND_ORGANIZATION_ASSIGNMENT ( #56, #53, ( #137 ) ) ;
#10 = ORIENTED_EDGE ( 'NONE', *, *, #364, .F. ) ;
#11 = DIRECTION ( 'NONE',  ( 0.000000000000000000, 0.000000000000000000, 1.000000000000000000 ) ) ;
#12 = ADVANCED_FACE ( 'NONE', ( #236 ), #234, .T. ) ;
#13 = ORIENTED_EDGE ( 'NONE', *, *, #197, .T. ) ;
#14 = CIRCLE ( 'NONE', #456, 0.1999999999999996503 ) ;
#15 = DIRECTION ( 'NONE',  ( 1.000000000000000000, -0.000000000000000000, 0.000000000000000000 ) ) ;
#16 = CARTESIAN_POINT ( 'NONE',  ( -6.799999999999998046, 1.000000000000000000, -1.300000000000000044 ) ) ;
#17 = COORDINATED_UNIVERSAL_TIME_OFFSET ( 8, 0, .AHEAD. ) ;
#18 = DIRECTION ( 'NONE',  ( 0.000000000000000000, 1.000000000000000000, 0.000000000000000000 ) ) ;
#19 = CIRCLE ( 'NONE', #315, 0.2000000000000000944 ) ;
#20 = DIRECTION ( 'NONE',  ( -0.000000000000000000, -1.000000000000000000, -0.000000000000000000 ) ) ;
#21 = ADVANCED_FACE ( 'NONE', ( #341 ), #511, .T. ) ;
#22 = VERTEX_POINT ( 'NONE', #347 ) ;
#23 = AXIS2_PLACEMENT_3D ( 'NONE', #112, #279, #318 ) ;
#24 = DIRECTION ( 'NONE',  ( 0.000000000000000000, 1.000000000000000000, -0.000000000000000000 ) ) ;
#25 = AXIS2_PLACEMENT_3D ( 'NONE', #359, #445, #533 ) ;
#26 = EDGE_CURVE ( 'NONE', #35, #435, #349, .T. ) ;
#27 = ORIENTED_EDGE ( 'NONE', *, *, #405, .F. ) ;
#28 = CARTESIAN_POINT ( 'NONE',  ( -6.999999999999997335, 1.000000000000000000, -1.500000000000000000 ) ) ;
#29 = CARTESIAN_POINT ( 'NONE',  ( -6.799999999999998046, 1.000000000000000000, 1.500000000000000000 ) ) ;
#30 = CC_DESIGN_PERSON_AND_ORGANIZATION_ASSIGNMENT ( #264, #346, ( #297 ) ) ;
#31 = DIRECTION ( 'NONE',  ( 0.000000000000000000, 0.000000000000000000, 1.000000000000000000 ) ) ;
#32 = CARTESIAN_POINT ( 'NONE',  ( -6.799999999999998046, 0.8000000000000000444, -1.300000000000000044 ) ) ;
#33 = DIRECTION ( 'NONE',  ( 0.000000000000000000, -1.000000000000000000, 0.000000000000000000 ) ) ;
#34 = AXIS2_PLACEMENT_3D ( 'NONE', #190, #392, #230 ) ;
#35 = VERTEX_POINT ( 'NONE', #185 ) ;
#36 = LOCAL_TIME ( 13, 38, 24.00000000000000000, #17 ) ;
#37 = DIRECTION ( 'NONE',  ( 0.000000000000000000, 0.000000000000000000, 1.000000000000000000 ) ) ;
#38 = VERTEX_POINT ( 'NONE', #57 ) ;
#39 = AXIS2_PLACEMENT_3D ( 'NONE', #517, #24, #105 ) ;
#40 = LINE ( 'NONE', #136, #537 ) ;
#41 = ORIENTED_EDGE ( 'NONE', *, *, #132, .T. ) ;
#42 = DIRECTION ( 'NONE',  ( -1.000000000000000000, 0.000000000000000000, 0.000000000000000000 ) ) ;
#43 = ORIENTED_EDGE ( 'NONE', *, *, #382, .T. ) ;
#44 = EDGE_CURVE ( 'NONE', #493, #255, #337, .T. ) ;
#45 = VECTOR ( 'NONE', #464, 1000.000000000000000 ) ;
#46 = LINE ( 'NONE', #496, #45 ) ;
#47 = ORIENTED_EDGE ( 'NONE', *, *, #115, .F. ) ;
#48 = AXIS2_PLACEMENT_3D ( 'NONE', #155, #311, #31 ) ;
#49 = LINE ( 'NONE', #165, #215 ) ;
#50 = ORIENTED_EDGE ( 'NONE', *, *, #508, .F. ) ;
#51 = VERTEX_POINT ( 'NONE', #519 ) ;
#52 = DESIGN_CONTEXT ( 'detailed design', #363, 'design' ) ;
#53 = PERSON_AND_ORGANIZATION_ROLE ( 'creator' ) ;
#54 = ORIENTED_EDGE ( 'NONE', *, *, #405, .T. ) ;
#55 = VECTOR ( 'NONE', #65, 1000.000000000000000 ) ;
#56 = PERSON_AND_ORGANIZATION ( #322, #283 ) ;
#57 = CARTESIAN_POINT ( 'NONE',  ( -6.799999999999998046, 0.8000000000000000444, 1.500000000000000000 ) ) ;
#58 = UNCERTAINTY_MEASURE_WITH_UNIT (LENGTH_MEASURE( 1.000000000000000082E-05 ), #156, 'distance_accuracy_value', 'NONE');
#59 = APPROVAL_DATE_TIME ( #184, #224 ) ;
#60 = DIRECTION ( 'NONE',  ( 1.000000000000000000, 0.000000000000000000, 0.000000000000000000 ) ) ;
#61 = AXIS2_PLACEMENT_3D ( 'NONE', #440, #351, #245 ) ;
#62 = ADVANCED_FACE ( 'NONE', ( #145 ), #480, .F. ) ;
#63 = DIRECTION ( 'NONE',  ( 0.000000000000000000, 0.000000000000000000, -1.000000000000000000 ) ) ;
#64 = CARTESIAN_POINT ( 'NONE',  ( -6.999999999999997335, 1.000000000000000000, -1.500000000000000000 ) ) ;
#65 = DIRECTION ( 'NONE',  ( 0.000000000000000000, -1.000000000000000000, 0.000000000000000000 ) ) ;
#66 = DIRECTION ( 'NONE',  ( -1.000000000000000000, 0.000000000000000000, 0.000000000000000000 ) ) ;
#67 = LINE ( 'NONE', #393, #336 ) ;
#68 = CIRCLE ( 'NONE', #339, 0.2000000000000000944 ) ;
#69 = DIRECTION ( 'NONE',  ( -0.000000000000000000, 1.000000000000000000, 0.000000000000000000 ) ) ;
#70 = ADVANCED_FACE ( 'NONE', ( #381 ), #343, .T. ) ;
#71 = FACE_OUTER_BOUND ( 'NONE', #196, .T. ) ;
#72 = VECTOR ( 'NONE', #130, 1000.000000000000000 ) ;
#73 = ADVANCED_FACE ( 'NONE', ( #303 ), #101, .T. ) ;
#74 = SECURITY_CLASSIFICATION ( '', '', #108 ) ;
#75 = DIRECTION ( 'NONE',  ( 1.000000000000000000, 0.000000000000000000, 0.000000000000000000 ) ) ;
#76 = CIRCLE ( 'NONE', #375, 0.2000000000000000944 ) ;
#77 = CARTESIAN_POINT ( 'NONE',  ( 7.000000000000002665, 1.000000000000000000, 1.300000000000000044 ) ) ;
#78 = ORIENTED_EDGE ( 'NONE', *, *, #420, .F. ) ;
#79 = DIRECTION ( 'NONE',  ( -0.000000000000000000, 1.000000000000000000, 0.000000000000000000 ) ) ;
#80 = AXIS2_PLACEMENT_3D ( 'NONE', #528, #79, #449 ) ;
#81 = ADVANCED_FACE ( 'NONE', ( #360 ), #194, .T. ) ;
#82 = CARTESIAN_POINT ( 'NONE',  ( 6.800000000000003375, 0.8000000000000000444, -1.300000000000000044 ) ) ;
#83 = ORIENTED_EDGE ( 'NONE', *, *, #88, .T. ) ;
#84 = CARTESIAN_POINT ( 'NONE',  ( -6.799999999999998046, 0.8000000000000000444, -1.500000000000000000 ) ) ;
#85 = ORIENTED_EDGE ( 'NONE', *, *, #253, .T. ) ;
#86 = CARTESIAN_POINT ( 'NONE',  ( 7.000000000000002665, 0.8000000000000000444, 1.300000000000000044 ) ) ;
#87 = ORIENTED_EDGE ( 'NONE', *, *, #512, .T. ) ;
#88 = EDGE_CURVE ( 'NONE', #51, #296, #284, .T. ) ;
#89 = DIRECTION ( 'NONE',  ( 0.000000000000000000, -1.000000000000000000, 0.000000000000000000 ) ) ;
#90 = ORIENTED_EDGE ( 'NONE', *, *, #102, .T. ) ;
#91 = LINE ( 'NONE', #344, #55 ) ;
#92 = AXIS2_PLACEMENT_3D ( 'NONE', #32, #531, #117 ) ;
#93 = DIRECTION ( 'NONE',  ( 0.000000000000000000, 0.000000000000000000, -1.000000000000000000 ) ) ;
#94 = ORIENTED_EDGE ( 'NONE', *, *, #498, .T. ) ;
#95 = CALENDAR_DATE ( 2026, 22, 3 ) ;
#96 = ORIENTED_EDGE ( 'NONE', *, *, #132, .F. ) ;
#97 = CIRCLE ( 'NONE', #395, 0.2000000000000000944 ) ;
#98 = APPROVAL_ROLE ( '' ) ;
#99 = DIRECTION ( 'NONE',  ( 0.000000000000000000, 1.000000000000000000, 0.000000000000000000 ) ) ;
#100 = VECTOR ( 'NONE', #124, 1000.000000000000000 ) ;
#101 = CYLINDRICAL_SURFACE ( 'NONE', #527, 0.2000000000000000944 ) ;
#102 = EDGE_CURVE ( 'NONE', #435, #419, #3, .T. ) ;
#103 = DIRECTION ( 'NONE',  ( 0.000000000000000000, 0.000000000000000000, 1.000000000000000000 ) ) ;
#104 = PERSON_AND_ORGANIZATION_ROLE ( 'design_supplier' ) ;
#105 = DIRECTION ( 'NONE',  ( 0.000000000000000000, 0.000000000000000000, 1.000000000000000000 ) ) ;
#106 = ORIENTED_EDGE ( 'NONE', *, *, #201, .F. ) ;
#107 = CC_DESIGN_APPROVAL ( #224, ( #297 ) ) ;
#108 = SECURITY_CLASSIFICATION_LEVEL ( 'unclassified' ) ;
#109 = CARTESIAN_POINT ( 'NONE',  ( -6.799999999999998046, 0.8000000000000000444, -1.300000000000000044 ) ) ;
#110 = CARTESIAN_POINT ( 'NONE',  ( 7.000000000000002665, 1.000000000000000000, 1.300000000000000044 ) ) ;
#111 = APPROVAL ( #383, 'UNSPECIFIED' ) ;
#112 = CARTESIAN_POINT ( 'NONE',  ( -6.799999999999998046, 0.8000000000000000444, 0.000000000000000000 ) ) ;
#113 = DIRECTION ( 'NONE',  ( -1.000000000000000000, 0.000000000000000000, 0.000000000000000000 ) ) ;
#114 = AXIS2_PLACEMENT_3D ( 'NONE', #304, #529, #385 ) ;
#115 = EDGE_CURVE ( 'NONE', #370, #35, #488, .T. ) ;
#116 = AXIS2_PLACEMENT_3D ( 'NONE', #406, #538, #292 ) ;
#117 = DIRECTION ( 'NONE',  ( 0.000000000000000000, 0.000000000000000000, 1.000000000000000000 ) ) ;
#118 = CARTESIAN_POINT ( 'NONE',  ( -6.799999999999998046, 1.000000000000000000, 1.300000000000000044 ) ) ;
#119 = VECTOR ( 'NONE', #452, 1000.000000000000000 ) ;
#120 = CARTESIAN_POINT ( 'NONE',  ( 7.000000000000002665, 0.8000000000000000444, 1.500000000000000000 ) ) ;
#121 = ORIENTED_EDGE ( 'NONE', *, *, #115, .T. ) ;
#122 = VECTOR ( 'NONE', #33, 1000.000000000000000 ) ;
#123 = ADVANCED_FACE ( 'NONE', ( #161 ), #401, .F. ) ;
#124 = DIRECTION ( 'NONE',  ( 1.000000000000000000, 0.000000000000000000, 0.000000000000000000 ) ) ;
#125 = CARTESIAN_POINT ( 'NONE',  ( 7.000000000000002665, 0.000000000000000000, -1.300000000000000044 ) ) ;
#126 = ORIENTED_EDGE ( 'NONE', *, *, #513, .T. ) ;
#127 = CC_DESIGN_PERSON_AND_ORGANIZATION_ASSIGNMENT ( #479, #104, ( #137 ) ) ;
#128 = DIRECTION ( 'NONE',  ( -1.000000000000000000, -0.000000000000000000, -0.000000000000000000 ) ) ;
#129 = EDGE_LOOP ( 'NONE', ( #47, #502, #495, #366 ) ) ;
#130 = DIRECTION ( 'NONE',  ( -1.000000000000000000, -0.000000000000000000, -0.000000000000000000 ) ) ;
#131 = EDGE_LOOP ( 'NONE', ( #299, #96, #417, #466 ) ) ;
#132 = EDGE_CURVE ( 'NONE', #291, #491, #482, .T. ) ;
#133 = DIRECTION ( 'NONE',  ( 0.000000000000000000, 1.000000000000000000, 0.000000000000000000 ) ) ;
#134 = ORIENTED_EDGE ( 'NONE', *, *, #44, .T. ) ;
#135 = CARTESIAN_POINT ( 'NONE',  ( 7.000000000000002665, 1.000000000000000000, -1.300000000000000044 ) ) ;
#136 = CARTESIAN_POINT ( 'NONE',  ( -6.799999999999998046, 1.000000000000000000, 1.500000000000000000 ) ) ;
#137 = PRODUCT_DEFINITION_FORMATION_WITH_SPECIFIED_SOURCE ( 'ANY', '', #367, .NOT_KNOWN. ) ;
#138 = ORIENTED_EDGE ( 'NONE', *, *, #143, .T. ) ;
#139 = EDGE_CURVE ( 'NONE', #168, #419, #487, .T. ) ;
#140 = EDGE_LOOP ( 'NONE', ( #94, #208, #321 ) ) ;
#141 = DIRECTION ( 'NONE',  ( -1.000000000000000000, 0.000000000000000000, 0.000000000000000000 ) ) ;
#142 = AXIS2_PLACEMENT_3D ( 'NONE', #211, #220, #295 ) ;
#143 = EDGE_CURVE ( 'NONE', #22, #370, #76, .T. ) ;
#144 = PERSON_AND_ORGANIZATION_ROLE ( 'classification_officer' ) ;
#145 = FACE_OUTER_BOUND ( 'NONE', #465, .T. ) ;
#146 = LOCAL_TIME ( 13, 38, 24.00000000000000000, #233 ) ;
#147 = DATE_AND_TIME ( #95, #146 ) ;
#148 = ORIENTED_EDGE ( 'NONE', *, *, #197, .F. ) ;
#149 = APPLICATION_PROTOCOL_DEFINITION ( 'international standard', 'config_control_design', 1994, #151 ) ;
#150 = ORIENTED_EDGE ( 'NONE', *, *, #362, .T. ) ;
#151 = APPLICATION_CONTEXT ( 'configuration controlled 3d designs of mechanical parts and assemblies' ) ;
#152 = COORDINATED_UNIVERSAL_TIME_OFFSET ( 8, 0, .AHEAD. ) ;
#153 = PLANE ( 'NONE',  #403 ) ;
#154 = FACE_OUTER_BOUND ( 'NONE', #163, .T. ) ;
#155 = CARTESIAN_POINT ( 'NONE',  ( -6.799999999999998046, 0.8000000000000000444, -1.300000000000000044 ) ) ;
#156 =( LENGTH_UNIT ( ) NAMED_UNIT ( * ) SI_UNIT ( .MILLI., .METRE. ) );
#157 = PLANE ( 'NONE',  #390 ) ;
#158 = PERSON_AND_ORGANIZATION ( #322, #283 ) ;
#159 = VECTOR ( 'NONE', #15, 1000.000000000000000 ) ;
#160 = CARTESIAN_POINT ( 'NONE',  ( 6.800000000000003375, 0.000000000000000000, 1.300000000000000044 ) ) ;
#161 = FACE_OUTER_BOUND ( 'NONE', #6, .T. ) ;
#162 = ADVANCED_FACE ( 'NONE', ( #198 ), #204, .T. ) ;
#163 = EDGE_LOOP ( 'NONE', ( #530, #433, #379, #411 ) ) ;
#164 = DIRECTION ( 'NONE',  ( 0.000000000000000000, 0.000000000000000000, 1.000000000000000000 ) ) ;
#165 = CARTESIAN_POINT ( 'NONE',  ( -6.999999999999997335, 0.000000000000000000, -1.500000000000000000 ) ) ;
#166 = ORIENTED_EDGE ( 'NONE', *, *, #483, .F. ) ;
#167 = DIRECTION ( 'NONE',  ( -1.000000000000000000, 0.000000000000000000, 4.336808689942024836E-15 ) ) ;
#168 = VERTEX_POINT ( 'NONE', #447 ) ;
#169 = CARTESIAN_POINT ( 'NONE',  ( -6.999999999999997335, 1.000000000000000000, 1.300000000000000044 ) ) ;
#170 = EDGE_LOOP ( 'NONE', ( #212, #10, #173, #459 ) ) ;
#171 = VECTOR ( 'NONE', #355, 1000.000000000000000 ) ;
#172 = FACE_OUTER_BOUND ( 'NONE', #252, .T. ) ;
#173 = ORIENTED_EDGE ( 'NONE', *, *, #300, .F. ) ;
#174 = DIRECTION ( 'NONE',  ( 0.000000000000000000, 0.000000000000000000, 1.000000000000000000 ) ) ;
#175 = DIRECTION ( 'NONE',  ( 0.000000000000000000, 0.000000000000000000, 1.000000000000000000 ) ) ;
#176 = ORIENTED_EDGE ( 'NONE', *, *, #483, .T. ) ;
#177 = VECTOR ( 'NONE', #384, 1000.000000000000000 ) ;
#178 = CYLINDRICAL_SURFACE ( 'NONE', #507, 0.2000000000000000944 ) ;
#179 = EDGE_LOOP ( 'NONE', ( #54, #522, #541, #87 ) ) ;
#180 = AXIS2_PLACEMENT_3D ( 'NONE', #195, #113, #174 ) ;
#181 = CIRCLE ( 'NONE', #191, 0.1999999999999996503 ) ;
#182 = DIRECTION ( 'NONE',  ( 0.000000000000000000, 1.000000000000000000, -0.000000000000000000 ) ) ;
#183 = ADVANCED_BREP_SHAPE_REPRESENTATION ( 'BAR3X14T1', ( #396, #331 ), #534 ) ;
#184 = DATE_AND_TIME ( #475, #335 ) ;
#185 = CARTESIAN_POINT ( 'NONE',  ( 6.800000000000003375, 1.000000000000000000, -1.300000000000000044 ) ) ;
#186 = LINE ( 'NONE', #135, #438 ) ;
#187 = EDGE_CURVE ( 'NONE', #22, #291, #275, .T. ) ;
#188 = DIRECTION ( 'NONE',  ( 0.000000000000000000, 0.000000000000000000, 1.000000000000000000 ) ) ;
#189 = CALENDAR_DATE ( 2026, 22, 3 ) ;
#190 = CARTESIAN_POINT ( 'NONE',  ( 6.800000000000003375, 0.8000000000000000444, 0.000000000000000000 ) ) ;
#191 = AXIS2_PLACEMENT_3D ( 'NONE', #404, #37, #413 ) ;
#192 = DIRECTION ( 'NONE',  ( 1.000000000000000000, -0.000000000000000000, -0.000000000000000000 ) ) ;
#193 = VERTEX_POINT ( 'NONE', #489 ) ;
#194 = SPHERICAL_SURFACE ( 'NONE', #80, 0.2000000000000000111 ) ;
#195 = CARTESIAN_POINT ( 'NONE',  ( 0.000000000000000000, 0.8000000000000000444, 1.300000000000000044 ) ) ;
#196 = EDGE_LOOP ( 'NONE', ( #150, #329, #13, #217 ) ) ;
#197 = EDGE_CURVE ( 'NONE', #193, #415, #281, .T. ) ;
#198 = FACE_OUTER_BOUND ( 'NONE', #461, .T. ) ;
#199 = PERSON_AND_ORGANIZATION_ROLE ( 'design_owner' ) ;
#200 = PLANE ( 'NONE',  #25 ) ;
#201 = EDGE_CURVE ( 'NONE', #435, #247, #394, .T. ) ;
#202 = DIRECTION ( 'NONE',  ( 0.000000000000000000, -0.000000000000000000, 1.000000000000000000 ) ) ;
#203 = AXIS2_PLACEMENT_3D ( 'NONE', #388, #182, #309 ) ;
#204 = CYLINDRICAL_SURFACE ( 'NONE', #23, 0.1999999999999996503 ) ;
#205 = CC_DESIGN_DATE_AND_TIME_ASSIGNMENT ( #342, #229, ( #297 ) ) ;
#206 = AXIS2_PLACEMENT_3D ( 'NONE', #240, #20, #277 ) ;
#207 = CARTESIAN_POINT ( 'NONE',  ( 6.800000000000002487, 0.8000000000000000444, -1.500000000000000000 ) ) ;
#208 = ORIENTED_EDGE ( 'NONE', *, *, #526, .T. ) ;
#209 = CIRCLE ( 'NONE', #142, 0.1999999999999996503 ) ;
#210 = EDGE_CURVE ( 'NONE', #419, #493, #256, .T. ) ;
#211 = CARTESIAN_POINT ( 'NONE',  ( 6.800000000000003375, 0.8000000000000000444, -1.300000000000000044 ) ) ;
#212 = ORIENTED_EDGE ( 'NONE', *, *, #356, .T. ) ;
#213 = CARTESIAN_POINT ( 'NONE',  ( 6.800000000000003375, 1.000000000000000000, 1.300000000000000044 ) ) ;
#214 = EDGE_LOOP ( 'NONE', ( #90, #334, #450 ) ) ;
#215 = VECTOR ( 'NONE', #128, 1000.000000000000000 ) ;
#216 = CARTESIAN_POINT ( 'NONE',  ( -6.999999999999997335, 0.8000000000000000444, 1.300000000000000044 ) ) ;
#217 = ORIENTED_EDGE ( 'NONE', *, *, #446, .T. ) ;
#218 = AXIS2_PLACEMENT_3D ( 'NONE', #241, #535, #484 ) ;
#219 = ADVANCED_FACE ( 'NONE', ( #243 ), #157, .T. ) ;
#220 = DIRECTION ( 'NONE',  ( -0.000000000000000000, -0.000000000000000000, 1.000000000000000000 ) ) ;
#221 = ORIENTED_EDGE ( 'NONE', *, *, #486, .T. ) ;
#222 = EDGE_LOOP ( 'NONE', ( #468, #380, #327, #166 ) ) ;
#223 = AXIS2_PLACEMENT_3D ( 'NONE', #109, #18, #66 ) ;
#224 = APPROVAL ( #421, 'UNSPECIFIED' ) ;
#225 = FACE_OUTER_BOUND ( 'NONE', #179, .T. ) ;
#226 = DATE_AND_TIME ( #425, #36 ) ;
#227 = EDGE_LOOP ( 'NONE', ( #138, #121, #267 ) ) ;
#228 = ADVANCED_FACE ( 'NONE', ( #71 ), #200, .F. ) ;
#229 = DATE_TIME_ROLE ( 'creation_date' ) ;
#230 = DIRECTION ( 'NONE',  ( 1.000000000000000000, 0.000000000000000000, 0.000000000000000000 ) ) ;
#231 = FACE_OUTER_BOUND ( 'NONE', #426, .T. ) ;
#232 = LINE ( 'NONE', #386, #338 ) ;
#233 = COORDINATED_UNIVERSAL_TIME_OFFSET ( 8, 0, .AHEAD. ) ;
#234 = SPHERICAL_SURFACE ( 'NONE', #203, 0.2000000000000000111 ) ;
#235 = DIRECTION ( 'NONE',  ( 0.000000000000000000, -0.000000000000000000, -1.000000000000000000 ) ) ;
#236 = FACE_OUTER_BOUND ( 'NONE', #140, .T. ) ;
#237 = AXIS2_PLACEMENT_3D ( 'NONE', #330, #350, #429 ) ;
#238 = EDGE_CURVE ( 'NONE', #491, #415, #68, .T. ) ;
#239 = CARTESIAN_POINT ( 'NONE',  ( -6.999999999999997335, 0.000000000000000000, 1.500000000000000000 ) ) ;
#240 = CARTESIAN_POINT ( 'NONE',  ( -6.799999999999998046, 0.000000000000000000, -1.300000000000000044 ) ) ;
#241 = CARTESIAN_POINT ( 'NONE',  ( 6.800000000000002487, 0.8000000000000000444, -1.300000000000000044 ) ) ;
#242 = CC_DESIGN_SECURITY_CLASSIFICATION ( #74, ( #137 ) ) ;
#243 = FACE_OUTER_BOUND ( 'NONE', #258, .T. ) ;
#244 = DIRECTION ( 'NONE',  ( -0.000000000000000000, -0.000000000000000000, 1.000000000000000000 ) ) ;
#245 = DIRECTION ( 'NONE',  ( 0.000000000000000000, 0.000000000000000000, 1.000000000000000000 ) ) ;
#246 = DIRECTION ( 'NONE',  ( 0.000000000000000000, 0.000000000000000000, -1.000000000000000000 ) ) ;
#247 = VERTEX_POINT ( 'NONE', #118 ) ;
#248 = VECTOR ( 'NONE', #235, 1000.000000000000000 ) ;
#249 = DIRECTION ( 'NONE',  ( -0.000000000000000000, -1.000000000000000000, -0.000000000000000000 ) ) ;
#250 = ORIENTED_EDGE ( 'NONE', *, *, #486, .F. ) ;
#251 = CYLINDRICAL_SURFACE ( 'NONE', #276, 0.2000000000000000944 ) ;
#252 = EDGE_LOOP ( 'NONE', ( #306, #176, #448, #41 ) ) ;
#253 = EDGE_CURVE ( 'NONE', #402, #430, #509, .T. ) ;
#254 = LINE ( 'NONE', #169, #119 ) ;
#255 = VERTEX_POINT ( 'NONE', #333 ) ;
#256 = CIRCLE ( 'NONE', #92, 0.2000000000000000944 ) ;
#257 = EDGE_LOOP ( 'NONE', ( #78, #457, #539, #436 ) ) ;
#258 = EDGE_LOOP ( 'NONE', ( #378, #221, #282, #376 ) ) ;
#259 = CALENDAR_DATE ( 2026, 22, 3 ) ;
#260 = DIRECTION ( 'NONE',  ( 0.000000000000000000, -0.000000000000000000, 1.000000000000000000 ) ) ;
#261 = FACE_OUTER_BOUND ( 'NONE', #131, .T. ) ;
#262 = CARTESIAN_POINT ( 'NONE',  ( -6.999999999999997335, 1.000000000000000000, -1.300000000000000044 ) ) ;
#263 = DIRECTION ( 'NONE',  ( 1.000000000000000000, 0.000000000000000000, 0.000000000000000000 ) ) ;
#264 = PERSON_AND_ORGANIZATION ( #322, #283 ) ;
#265 = VERTEX_POINT ( 'NONE', #216 ) ;
#266 = CYLINDRICAL_SURFACE ( 'NONE', #180, 0.2000000000000000944 ) ;
#267 = ORIENTED_EDGE ( 'NONE', *, *, #356, .F. ) ;
#268 = ADVANCED_FACE ( 'NONE', ( #494 ), #492, .T. ) ;
#269 = DATE_AND_TIME ( #259, #503 ) ;
#270 = ORIENTED_EDGE ( 'NONE', *, *, #238, .T. ) ;
#271 = ADVANCED_FACE ( 'NONE', ( #172 ), #377, .F. ) ;
#272 = CC_DESIGN_APPROVAL ( #278, ( #74 ) ) ;
#273 = CARTESIAN_POINT ( 'NONE',  ( -6.799999999999998046, 0.8000000000000000444, 1.300000000000000044 ) ) ;
#274 = CIRCLE ( 'NONE', #39, 0.2000000000000000944 ) ;
#275 = LINE ( 'NONE', #120, #398 ) ;
#276 = AXIS2_PLACEMENT_3D ( 'NONE', #458, #89, #246 ) ;
#277 = DIRECTION ( 'NONE',  ( 0.000000000000000000, 0.000000000000000000, 1.000000000000000000 ) ) ;
#278 = APPROVAL ( #470, 'UNSPECIFIED' ) ;
#279 = DIRECTION ( 'NONE',  ( 0.000000000000000000, 0.000000000000000000, -1.000000000000000000 ) ) ;
#280 = CARTESIAN_POINT ( 'NONE',  ( 6.800000000000003375, 0.8000000000000000444, 1.300000000000000044 ) ) ;
#281 = LINE ( 'NONE', #239, #100 ) ;
#282 = ORIENTED_EDGE ( 'NONE', *, *, #364, .T. ) ;
#283 = ORGANIZATION ( 'UNSPECIFIED', 'UNSPECIFIED', '' ) ;
#284 = CIRCLE ( 'NONE', #61, 0.2000000000000000944 ) ;
#285 = DIRECTION ( 'NONE',  ( 0.000000000000000000, 0.000000000000000000, -1.000000000000000000 ) ) ;
#286 = VERTEX_POINT ( 'NONE', #326 ) ;
#287 = SPHERICAL_SURFACE ( 'NONE', #414, 0.2000000000000000111 ) ;
#288 = ORIENTED_EDGE ( 'NONE', *, *, #300, .T. ) ;
#289 = CARTESIAN_POINT ( 'NONE',  ( -6.799999999999998046, 0.000000000000000000, 1.300000000000000044 ) ) ;
#290 = ADVANCED_FACE ( 'NONE', ( #501 ), #251, .T. ) ;
#291 = VERTEX_POINT ( 'NONE', #86 ) ;
#292 = DIRECTION ( 'NONE',  ( -1.000000000000000000, 0.000000000000000000, 0.000000000000000000 ) ) ;
#293 = ORIENTED_EDGE ( 'NONE', *, *, #307, .T. ) ;
#294 = CARTESIAN_POINT ( 'NONE',  ( -6.999999999999997335, 0.8000000000000000444, -1.300000000000000044 ) ) ;
#295 = DIRECTION ( 'NONE',  ( -1.000000000000000000, 0.000000000000000000, 0.000000000000000000 ) ) ;
#296 = VERTEX_POINT ( 'NONE', #125 ) ;
#297 = PRODUCT_DEFINITION ( 'UNKNOWN', '', #137, #52 ) ;
#298 = AXIS2_PLACEMENT_3D ( 'NONE', #7, #42, #175 ) ;
#299 = ORIENTED_EDGE ( 'NONE', *, *, #238, .F. ) ;
#300 = EDGE_CURVE ( 'NONE', #291, #430, #181, .T. ) ;
#301 = CARTESIAN_POINT ( 'NONE',  ( 0.000000000000000000, 0.000000000000000000, 0.000000000000000000 ) ) ;
#302 = PERSON_AND_ORGANIZATION ( #322, #283 ) ;
#303 = FACE_OUTER_BOUND ( 'NONE', #129, .T. ) ;
#304 = CARTESIAN_POINT ( 'NONE',  ( -6.799999999999998046, 0.8000000000000000444, 1.300000000000000044 ) ) ;
#305 = APPROVAL_DATE_TIME ( #147, #111 ) ;
#306 = ORIENTED_EDGE ( 'NONE', *, *, #508, .T. ) ;
#307 = EDGE_CURVE ( 'NONE', #435, #493, #319, .T. ) ;
#308 = MECHANICAL_CONTEXT ( 'NONE', #151, 'mechanical' ) ;
#309 = DIRECTION ( 'NONE',  ( 0.000000000000000000, 0.000000000000000000, 1.000000000000000000 ) ) ;
#310 = CARTESIAN_POINT ( 'NONE',  ( -6.999999999999997335, 0.8000000000000000444, -1.500000000000000000 ) ) ;
#311 = DIRECTION ( 'NONE',  ( -1.000000000000000000, 0.000000000000000000, 0.000000000000000000 ) ) ;
#312 = CC_DESIGN_PERSON_AND_ORGANIZATION_ASSIGNMENT ( #158, #199, ( #367 ) ) ;
#313 = CARTESIAN_POINT ( 'NONE',  ( 0.000000000000000000, 1.000000000000000000, 0.000000000000000000 ) ) ;
#314 = DIRECTION ( 'NONE',  ( -0.000000000000000000, -1.000000000000000000, -0.000000000000000000 ) ) ;
#315 = AXIS2_PLACEMENT_3D ( 'NONE', #368, #133, #460 ) ;
#316 = DIRECTION ( 'NONE',  ( 0.000000000000000000, 0.000000000000000000, -1.000000000000000000 ) ) ;
#317 = APPROVAL_PERSON_ORGANIZATION ( #302, #111, #505 ) ;
#318 = DIRECTION ( 'NONE',  ( -1.000000000000000000, 0.000000000000000000, 0.000000000000000000 ) ) ;
#319 = CIRCLE ( 'NONE', #116, 0.1999999999999996503 ) ;
#320 = DIRECTION ( 'NONE',  ( 0.000000000000000000, -1.000000000000000000, 0.000000000000000000 ) ) ;
#321 = ORIENTED_EDGE ( 'NONE', *, *, #467, .F. ) ;
#322 = PERSON ( 'UNSPECIFIED', 'UNSPECIFIED', 'UNSPECIFIED', ('UNSPECIFIED'), ('UNSPECIFIED'), ('UNSPECIFIED') ) ;
#323 = DIRECTION ( 'NONE',  ( 0.000000000000000000, 1.000000000000000000, 0.000000000000000000 ) ) ;
#324 = PRODUCT_DEFINITION_SHAPE ( 'NONE', 'NONE',  #297 ) ;
#325 = ORIENTED_EDGE ( 'NONE', *, *, #391, .T. ) ;
#326 = CARTESIAN_POINT ( 'NONE',  ( -6.999999999999997335, 0.000000000000000000, 1.300000000000000044 ) ) ;
#327 = ORIENTED_EDGE ( 'NONE', *, *, #143, .F. ) ;
#328 = LINE ( 'NONE', #490, #72 ) ;
#329 = ORIENTED_EDGE ( 'NONE', *, *, #345, .T. ) ;
#330 = CARTESIAN_POINT ( 'NONE',  ( -6.799999999999998046, 1.000000000000000000, -1.300000000000000044 ) ) ;
#331 = AXIS2_PLACEMENT_3D ( 'NONE', #477, #103, #263 ) ;
#332 = VECTOR ( 'NONE', #141, 1000.000000000000000 ) ;
#333 = CARTESIAN_POINT ( 'NONE',  ( -6.999999999999997335, 0.000000000000000000, -1.300000000000000044 ) ) ;
#334 = ORIENTED_EDGE ( 'NONE', *, *, #210, .T. ) ;
#335 = LOCAL_TIME ( 13, 38, 24.00000000000000000, #514 ) ;
#336 = VECTOR ( 'NONE', #192, 1000.000000000000000 ) ;
#337 = LINE ( 'NONE', #524, #177 ) ;
#338 = VECTOR ( 'NONE', #412, 1000.000000000000000 ) ;
#339 = AXIS2_PLACEMENT_3D ( 'NONE', #160, #314, #485 ) ;
#340 = APPROVAL_DATE_TIME ( #226, #278 ) ;
#341 = FACE_OUTER_BOUND ( 'NONE', #170, .T. ) ;
#342 = DATE_AND_TIME ( #189, #469 ) ;
#343 = SPHERICAL_SURFACE ( 'NONE', #223, 0.2000000000000000111 ) ;
#344 = CARTESIAN_POINT ( 'NONE',  ( 6.800000000000002487, 1.000000000000000000, -1.500000000000000000 ) ) ;
#345 = EDGE_CURVE ( 'NONE', #38, #193, #40, .T. ) ;
#346 = PERSON_AND_ORGANIZATION_ROLE ( 'creator' ) ;
#347 = CARTESIAN_POINT ( 'NONE',  ( 7.000000000000002665, 0.8000000000000000444, -1.300000000000000044 ) ) ;
#348 = DIRECTION ( 'NONE',  ( -0.000000000000000000, -0.000000000000000000, -1.000000000000000000 ) ) ;
#349 = LINE ( 'NONE', #262, #332 ) ;
#350 = DIRECTION ( 'NONE',  ( 0.000000000000000000, -1.000000000000000000, 0.000000000000000000 ) ) ;
#351 = DIRECTION ( 'NONE',  ( -0.000000000000000000, -1.000000000000000000, -0.000000000000000000 ) ) ;
#352 = PRODUCT_RELATED_PRODUCT_CATEGORY ( 'detail', '', ( #367 ) ) ;
#353 = LINE ( 'NONE', #110, #159 ) ;
#354 = ORIENTED_EDGE ( 'NONE', *, *, #420, .T. ) ;
#355 = DIRECTION ( 'NONE',  ( -0.000000000000000000, 0.000000000000000000, 1.000000000000000000 ) ) ;
#356 = EDGE_CURVE ( 'NONE', #22, #35, #209, .T. ) ;
#357 = APPLICATION_PROTOCOL_DEFINITION ( 'international standard', 'config_control_design', 1994, #363 ) ;
#358 = CIRCLE ( 'NONE', #206, 0.2000000000000000944 ) ;
#359 = CARTESIAN_POINT ( 'NONE',  ( -6.999999999999997335, 1.000000000000000000, 1.500000000000000000 ) ) ;
#360 = FACE_OUTER_BOUND ( 'NONE', #372, .T. ) ;
#361 = DIRECTION ( 'NONE',  ( -0.000000000000000000, 1.000000000000000000, -0.000000000000000000 ) ) ;
#362 = EDGE_CURVE ( 'NONE', #402, #38, #328, .T. ) ;
#363 = APPLICATION_CONTEXT ( 'configuration controlled 3d designs of mechanical parts and assemblies' ) ;
#364 = EDGE_CURVE ( 'NONE', #430, #35, #46, .T. ) ;
#365 = FACE_OUTER_BOUND ( 'NONE', #227, .T. ) ;
#366 = ORIENTED_EDGE ( 'NONE', *, *, #26, .F. ) ;
#367 = PRODUCT ( 'BAR3X14T1', 'BAR3X14T1', '', ( #308 ) ) ;
#368 = CARTESIAN_POINT ( 'NONE',  ( 6.800000000000003375, 0.8000000000000000444, 1.300000000000000044 ) ) ;
#369 = CC_DESIGN_DATE_AND_TIME_ASSIGNMENT ( #269, #387, ( #74 ) ) ;
#370 = VERTEX_POINT ( 'NONE', #207 ) ;
#371 = LINE ( 'NONE', #1, #516 ) ;
#372 = EDGE_LOOP ( 'NONE', ( #43, #288, #476 ) ) ;
#373 = APPROVAL_PERSON_ORGANIZATION ( #432, #278, #98 ) ;
#374 = CARTESIAN_POINT ( 'NONE',  ( 6.800000000000002487, 1.000000000000000000, -1.300000000000000044 ) ) ;
#375 = AXIS2_PLACEMENT_3D ( 'NONE', #536, #69, #164 ) ;
#376 = ORIENTED_EDGE ( 'NONE', *, *, #26, .T. ) ;
#377 = PLANE ( 'NONE',  #298 ) ;
#378 = ORIENTED_EDGE ( 'NONE', *, *, #201, .T. ) ;
#379 = ORIENTED_EDGE ( 'NONE', *, *, #210, .F. ) ;
#380 = ORIENTED_EDGE ( 'NONE', *, *, #512, .F. ) ;
#381 = FACE_OUTER_BOUND ( 'NONE', #214, .T. ) ;
#382 = EDGE_CURVE ( 'NONE', #402, #291, #19, .T. ) ;
#383 = APPROVAL_STATUS ( 'not_yet_approved' ) ;
#384 = DIRECTION ( 'NONE',  ( 0.000000000000000000, -1.000000000000000000, 0.000000000000000000 ) ) ;
#385 = DIRECTION ( 'NONE',  ( 0.000000000000000000, 0.000000000000000000, 1.000000000000000000 ) ) ;
#386 = CARTESIAN_POINT ( 'NONE',  ( 6.800000000000002487, 1.000000000000000000, 1.500000000000000000 ) ) ;
#387 = DATE_TIME_ROLE ( 'classification_date' ) ;
#388 = CARTESIAN_POINT ( 'NONE',  ( -6.799999999999998046, 0.8000000000000000444, 1.300000000000000044 ) ) ;
#389 = DIRECTION ( 'NONE',  ( -0.000000000000000000, 1.000000000000000000, -0.000000000000000000 ) ) ;
#390 = AXIS2_PLACEMENT_3D ( 'NONE', #313, #443, #202 ) ;
#391 = EDGE_CURVE ( 'NONE', #286, #265, #254, .T. ) ;
#392 = DIRECTION ( 'NONE',  ( 0.000000000000000000, -0.000000000000000000, 1.000000000000000000 ) ) ;
#393 = CARTESIAN_POINT ( 'NONE',  ( 7.000000000000002665, 0.8000000000000000444, -1.500000000000000000 ) ) ;
#394 = LINE ( 'NONE', #29, #171 ) ;
#395 = AXIS2_PLACEMENT_3D ( 'NONE', #289, #249, #410 ) ;
#396 = MANIFOLD_SOLID_BREP ( '\X2\570689d2\X0\1', #497 ) ;
#397 = CARTESIAN_POINT ( 'NONE',  ( -6.799999999999998046, 1.000000000000000000, -1.500000000000000000 ) ) ;
#398 = VECTOR ( 'NONE', #244, 1000.000000000000000 ) ;
#399 = DIRECTION ( 'NONE',  ( -1.000000000000000000, -0.000000000000000000, -0.000000000000000000 ) ) ;
#400 = ADVANCED_FACE ( 'NONE', ( #365 ), #287, .T. ) ;
#401 = PLANE ( 'NONE',  #472 ) ;
#402 = VERTEX_POINT ( 'NONE', #416 ) ;
#403 = AXIS2_PLACEMENT_3D ( 'NONE', #64, #188, #515 ) ;
#404 = CARTESIAN_POINT ( 'NONE',  ( 6.800000000000003375, 0.8000000000000000444, 1.300000000000000044 ) ) ;
#405 = EDGE_CURVE ( 'NONE', #51, #168, #49, .T. ) ;
#406 = CARTESIAN_POINT ( 'NONE',  ( -6.799999999999998046, 0.8000000000000000444, -1.300000000000000044 ) ) ;
#407 = CIRCLE ( 'NONE', #114, 0.2000000000000000944 ) ;
#408 = ORIENTED_EDGE ( 'NONE', *, *, #498, .F. ) ;
#409 = AXIS2_PLACEMENT_3D ( 'NONE', #374, #5, #93 ) ;
#410 = DIRECTION ( 'NONE',  ( 0.000000000000000000, 0.000000000000000000, 1.000000000000000000 ) ) ;
#411 = ORIENTED_EDGE ( 'NONE', *, *, #139, .F. ) ;
#412 = DIRECTION ( 'NONE',  ( -0.000000000000000000, 1.000000000000000000, -0.000000000000000000 ) ) ;
#413 = DIRECTION ( 'NONE',  ( 1.000000000000000000, 0.000000000000000000, 0.000000000000000000 ) ) ;
#414 = AXIS2_PLACEMENT_3D ( 'NONE', #82, #323, #167 ) ;
#415 = VERTEX_POINT ( 'NONE', #455 ) ;
#416 = CARTESIAN_POINT ( 'NONE',  ( 6.800000000000003375, 0.8000000000000000444, 1.500000000000000000 ) ) ;
#417 = ORIENTED_EDGE ( 'NONE', *, *, #382, .F. ) ;
#418 =( NAMED_UNIT ( * ) SI_UNIT ( $, .STERADIAN. ) SOLID_ANGLE_UNIT ( ) );
#419 = VERTEX_POINT ( 'NONE', #84 ) ;
#420 = EDGE_CURVE ( 'NONE', #193, #286, #97, .T. ) ;
#421 = APPROVAL_STATUS ( 'not_yet_approved' ) ;
#422 = ORIENTED_EDGE ( 'NONE', *, *, #362, .F. ) ;
#423 = APPROVAL_PERSON_ORGANIZATION ( #532, #224, #518 ) ;
#424 = CARTESIAN_POINT ( 'NONE',  ( 6.800000000000003375, 1.000000000000000000, 1.300000000000000044 ) ) ;
#425 = CALENDAR_DATE ( 2026, 22, 3 ) ;
#426 = EDGE_LOOP ( 'NONE', ( #2, #422, #85, #250 ) ) ;
#427 = COORDINATED_UNIVERSAL_TIME_OFFSET ( 8, 0, .AHEAD. ) ;
#428 = CARTESIAN_POINT ( 'NONE',  ( 0.000000000000000000, 0.8000000000000000444, -1.300000000000000044 ) ) ;
#429 = DIRECTION ( 'NONE',  ( 0.000000000000000000, 0.000000000000000000, -1.000000000000000000 ) ) ;
#430 = VERTEX_POINT ( 'NONE', #213 ) ;
#431 = EDGE_CURVE ( 'NONE', #255, #286, #371, .T. ) ;
#432 = PERSON_AND_ORGANIZATION ( #322, #283 ) ;
#433 = ORIENTED_EDGE ( 'NONE', *, *, #44, .F. ) ;
#434 = CARTESIAN_POINT ( 'NONE',  ( 7.000000000000002665, 0.000000000000000000, 1.300000000000000044 ) ) ;
#435 = VERTEX_POINT ( 'NONE', #16 ) ;
#436 = ORIENTED_EDGE ( 'NONE', *, *, #391, .F. ) ;
#437 = LINE ( 'NONE', #521, #504 ) ;
#438 = VECTOR ( 'NONE', #389, 1000.000000000000000 ) ;
#439 = AXIS2_PLACEMENT_3D ( 'NONE', #280, #399, #285 ) ;
#440 = CARTESIAN_POINT ( 'NONE',  ( 6.800000000000002487, 0.000000000000000000, -1.300000000000000044 ) ) ;
#441 =( NAMED_UNIT ( * ) PLANE_ANGLE_UNIT ( ) SI_UNIT ( $, .RADIAN. ) );
#442 = ADVANCED_FACE ( 'NONE', ( #261 ), #178, .T. ) ;
#443 = DIRECTION ( 'NONE',  ( 0.000000000000000000, 1.000000000000000000, 0.000000000000000000 ) ) ;
#444 = CC_DESIGN_APPROVAL ( #111, ( #137 ) ) ;
#445 = DIRECTION ( 'NONE',  ( 0.000000000000000000, 0.000000000000000000, -1.000000000000000000 ) ) ;
#446 = EDGE_CURVE ( 'NONE', #415, #402, #232, .T. ) ;
#447 = CARTESIAN_POINT ( 'NONE',  ( -6.799999999999998046, 0.000000000000000000, -1.500000000000000000 ) ) ;
#448 = ORIENTED_EDGE ( 'NONE', *, *, #187, .T. ) ;
#449 = DIRECTION ( 'NONE',  ( 0.000000000000000000, 0.000000000000000000, -1.000000000000000000 ) ) ;
#450 = ORIENTED_EDGE ( 'NONE', *, *, #307, .F. ) ;
#451 = CC_DESIGN_PERSON_AND_ORGANIZATION_ASSIGNMENT ( #523, #144, ( #74 ) ) ;
#452 = DIRECTION ( 'NONE',  ( -0.000000000000000000, 1.000000000000000000, -0.000000000000000000 ) ) ;
#453 = ORIENTED_EDGE ( 'NONE', *, *, #462, .F. ) ;
#454 = ADVANCED_FACE ( 'NONE', ( #154 ), #525, .T. ) ;
#455 = CARTESIAN_POINT ( 'NONE',  ( 6.800000000000002487, 0.000000000000000000, 1.500000000000000000 ) ) ;
#456 = AXIS2_PLACEMENT_3D ( 'NONE', #273, #481, #463 ) ;
#457 = ORIENTED_EDGE ( 'NONE', *, *, #345, .F. ) ;
#458 = CARTESIAN_POINT ( 'NONE',  ( -6.799999999999998046, 1.000000000000000000, 1.300000000000000044 ) ) ;
#459 = ORIENTED_EDGE ( 'NONE', *, *, #187, .F. ) ;
#460 = DIRECTION ( 'NONE',  ( 0.000000000000000000, 0.000000000000000000, 1.000000000000000000 ) ) ;
#461 = EDGE_LOOP ( 'NONE', ( #293, #453, #408, #106 ) ) ;
#462 = EDGE_CURVE ( 'NONE', #265, #493, #500, .T. ) ;
#463 = DIRECTION ( 'NONE',  ( 1.000000000000000000, 0.000000000000000000, 0.000000000000000000 ) ) ;
#464 = DIRECTION ( 'NONE',  ( 0.000000000000000000, 0.000000000000000000, -1.000000000000000000 ) ) ;
#465 = EDGE_LOOP ( 'NONE', ( #148, #354, #499, #126, #27, #83, #50, #270 ) ) ;
#466 = ORIENTED_EDGE ( 'NONE', *, *, #446, .F. ) ;
#467 = EDGE_CURVE ( 'NONE', #247, #38, #407, .T. ) ;
#468 = ORIENTED_EDGE ( 'NONE', *, *, #88, .F. ) ;
#469 = LOCAL_TIME ( 13, 38, 24.00000000000000000, #427 ) ;
#470 = APPROVAL_STATUS ( 'not_yet_approved' ) ;
#471 = ORIENTED_EDGE ( 'NONE', *, *, #431, .T. ) ;
#472 = AXIS2_PLACEMENT_3D ( 'NONE', #28, #75, #316 ) ;
#473 = ADVANCED_FACE ( 'NONE', ( #231 ), #266, .T. ) ;
#474 = DIRECTION ( 'NONE',  ( 0.000000000000000000, -1.000000000000000000, 0.000000000000000000 ) ) ;
#475 = CALENDAR_DATE ( 2026, 22, 3 ) ;
#476 = ORIENTED_EDGE ( 'NONE', *, *, #253, .F. ) ;
#477 = CARTESIAN_POINT ( 'NONE',  ( 0.000000000000000000, 0.000000000000000000, 0.000000000000000000 ) ) ;
#478 = AXIS2_PLACEMENT_3D ( 'NONE', #301, #99, #260 ) ;
#479 = PERSON_AND_ORGANIZATION ( #322, #283 ) ;
#480 = PLANE ( 'NONE',  #478 ) ;
#481 = DIRECTION ( 'NONE',  ( 0.000000000000000000, -0.000000000000000000, 1.000000000000000000 ) ) ;
#482 = LINE ( 'NONE', #77, #122 ) ;
#483 = EDGE_CURVE ( 'NONE', #296, #22, #186, .T. ) ;
#484 = DIRECTION ( 'NONE',  ( 4.336808689942017736E-15, 1.000000000000000000, 0.000000000000000000 ) ) ;
#485 = DIRECTION ( 'NONE',  ( 1.301042606982604690E-14, 0.000000000000000000, 1.000000000000000000 ) ) ;
#486 = EDGE_CURVE ( 'NONE', #247, #430, #353, .T. ) ;
#487 = LINE ( 'NONE', #397, #520 ) ;
#488 = CIRCLE ( 'NONE', #218, 0.1999999999999999833 ) ;
#489 = CARTESIAN_POINT ( 'NONE',  ( -6.799999999999998046, 0.000000000000000000, 1.500000000000000000 ) ) ;
#490 = CARTESIAN_POINT ( 'NONE',  ( -6.999999999999997335, 0.8000000000000000444, 1.500000000000000000 ) ) ;
#491 = VERTEX_POINT ( 'NONE', #434 ) ;
#492 = CYLINDRICAL_SURFACE ( 'NONE', #409, 0.2000000000000000944 ) ;
#493 = VERTEX_POINT ( 'NONE', #294 ) ;
#494 = FACE_OUTER_BOUND ( 'NONE', #222, .T. ) ;
#495 = ORIENTED_EDGE ( 'NONE', *, *, #102, .F. ) ;
#496 = CARTESIAN_POINT ( 'NONE',  ( 6.800000000000003375, 1.000000000000000000, -1.500000000000000000 ) ) ;
#497 = CLOSED_SHELL ( 'NONE', ( #271, #4, #123, #228, #219, #62, #454, #73, #268, #70, #400, #290, #162, #21, #442, #12, #81, #473 ) ) ;
#498 = EDGE_CURVE ( 'NONE', #247, #265, #14, .T. ) ;
#499 = ORIENTED_EDGE ( 'NONE', *, *, #431, .F. ) ;
#500 = LINE ( 'NONE', #310, #248 ) ;
#501 = FACE_OUTER_BOUND ( 'NONE', #257, .T. ) ;
#502 = ORIENTED_EDGE ( 'NONE', *, *, #540, .F. ) ;
#503 = LOCAL_TIME ( 13, 38, 24.00000000000000000, #152 ) ;
#504 = VECTOR ( 'NONE', #348, 1000.000000000000000 ) ;
#505 = APPROVAL_ROLE ( '' ) ;
#506 = DIRECTION ( 'NONE',  ( 0.000000000000000000, 0.000000000000000000, -1.000000000000000000 ) ) ;
#507 = AXIS2_PLACEMENT_3D ( 'NONE', #424, #474, #63 ) ;
#508 = EDGE_CURVE ( 'NONE', #491, #296, #437, .T. ) ;
#509 = CIRCLE ( 'NONE', #439, 0.2000000000000000944 ) ;
#510 = SHAPE_DEFINITION_REPRESENTATION ( #324, #183 ) ;
#511 = CYLINDRICAL_SURFACE ( 'NONE', #34, 0.1999999999999996503 ) ;
#512 = EDGE_CURVE ( 'NONE', #370, #51, #91, .T. ) ;
#513 = EDGE_CURVE ( 'NONE', #255, #168, #358, .T. ) ;
#514 = COORDINATED_UNIVERSAL_TIME_OFFSET ( 8, 0, .AHEAD. ) ;
#515 = DIRECTION ( 'NONE',  ( 1.000000000000000000, 0.000000000000000000, -0.000000000000000000 ) ) ;
#516 = VECTOR ( 'NONE', #11, 1000.000000000000000 ) ;
#517 = CARTESIAN_POINT ( 'NONE',  ( -6.799999999999998046, 0.8000000000000000444, 1.300000000000000044 ) ) ;
#518 = APPROVAL_ROLE ( '' ) ;
#519 = CARTESIAN_POINT ( 'NONE',  ( 6.800000000000002487, 0.000000000000000000, -1.500000000000000000 ) ) ;
#520 = VECTOR ( 'NONE', #361, 1000.000000000000000 ) ;
#521 = CARTESIAN_POINT ( 'NONE',  ( 7.000000000000002665, 0.000000000000000000, -1.500000000000000000 ) ) ;
#522 = ORIENTED_EDGE ( 'NONE', *, *, #139, .T. ) ;
#523 = PERSON_AND_ORGANIZATION ( #322, #283 ) ;
#524 = CARTESIAN_POINT ( 'NONE',  ( -6.999999999999997335, 1.000000000000000000, -1.300000000000000044 ) ) ;
#525 = CYLINDRICAL_SURFACE ( 'NONE', #237, 0.2000000000000000944 ) ;
#526 = EDGE_CURVE ( 'NONE', #265, #38, #274, .T. ) ;
#527 = AXIS2_PLACEMENT_3D ( 'NONE', #428, #60, #506 ) ;
#528 = CARTESIAN_POINT ( 'NONE',  ( 6.800000000000003375, 0.8000000000000000444, 1.300000000000000044 ) ) ;
#529 = DIRECTION ( 'NONE',  ( 1.000000000000000000, -0.000000000000000000, -0.000000000000000000 ) ) ;
#530 = ORIENTED_EDGE ( 'NONE', *, *, #513, .F. ) ;
#531 = DIRECTION ( 'NONE',  ( 0.000000000000000000, 1.000000000000000000, 0.000000000000000000 ) ) ;
#532 = PERSON_AND_ORGANIZATION ( #322, #283 ) ;
#533 = DIRECTION ( 'NONE',  ( -1.000000000000000000, 0.000000000000000000, -0.000000000000000000 ) ) ;
#534 =( GEOMETRIC_REPRESENTATION_CONTEXT ( 3 ) GLOBAL_UNCERTAINTY_ASSIGNED_CONTEXT ( ( #58 ) ) GLOBAL_UNIT_ASSIGNED_CONTEXT ( ( #156, #441, #418 ) ) REPRESENTATION_CONTEXT ( 'NONE', 'WORKASPACE' ) );
#535 = DIRECTION ( 'NONE',  ( 1.000000000000000000, -4.336808689942018525E-15, 0.000000000000000000 ) ) ;
#536 = CARTESIAN_POINT ( 'NONE',  ( 6.800000000000003375, 0.8000000000000000444, -1.300000000000000044 ) ) ;
#537 = VECTOR ( 'NONE', #320, 1000.000000000000000 ) ;
#538 = DIRECTION ( 'NONE',  ( -0.000000000000000000, -0.000000000000000000, 1.000000000000000000 ) ) ;
#539 = ORIENTED_EDGE ( 'NONE', *, *, #526, .F. ) ;
#540 = EDGE_CURVE ( 'NONE', #419, #370, #67, .T. ) ;
#541 = ORIENTED_EDGE ( 'NONE', *, *, #540, .T. ) ;
ENDSEC;
END-ISO-10303-21;
