ISO-10303-21;
HEADER;
FILE_DESCRIPTION (( 'STEP AP203' ),
    '1' );
FILE_NAME ('BAR3X4T1.step',
    '2026-03-22T05:40:05',
    ( '' ),
    ( '' ),
    'SwSTEP 2.0',
    'SolidWorks 2025',
    '' );
FILE_SCHEMA (( 'CONFIG_CONTROL_DESIGN' ));
ENDSEC;

DATA;
#1 = DIRECTION ( 'NONE',  ( 1.000000000000000000, 0.000000000000000000, 0.000000000000000000 ) ) ;
#2 = SPHERICAL_SURFACE ( 'NONE', #430, 0.2000000000000000111 ) ;
#3 = EDGE_CURVE ( 'NONE', #515, #235, #406, .T. ) ;
#4 = PERSON_AND_ORGANIZATION_ROLE ( 'creator' ) ;
#5 = CARTESIAN_POINT ( 'NONE',  ( 1.800000000000000044, 1.000000000000000000, -1.300000000000000266 ) ) ;
#6 = DIRECTION ( 'NONE',  ( 0.000000000000000000, 0.000000000000000000, 1.000000000000000000 ) ) ;
#7 = ADVANCED_FACE ( 'NONE', ( #358 ), #160, .T. ) ;
#8 = LOCAL_TIME ( 13, 40, 5.000000000000000000, #502 ) ;
#9 = CARTESIAN_POINT ( 'NONE',  ( 2.000000000000000000, 1.000000000000000000, -1.300000000000000266 ) ) ;
#10 = EDGE_LOOP ( 'NONE', ( #472, #230, #323, #204 ) ) ;
#11 = DIRECTION ( 'NONE',  ( -0.000000000000000000, -0.000000000000000000, 1.000000000000000000 ) ) ;
#12 = EDGE_LOOP ( 'NONE', ( #70, #26, #420, #149 ) ) ;
#13 = CYLINDRICAL_SURFACE ( 'NONE', #302, 0.2000000000000000944 ) ;
#14 = ORIENTED_EDGE ( 'NONE', *, *, #137, .F. ) ;
#15 = EDGE_CURVE ( 'NONE', #392, #17, #442, .T. ) ;
#16 = CARTESIAN_POINT ( 'NONE',  ( 2.000000000000000888, 0.000000000000000000, 1.299999999999999822 ) ) ;
#17 = VERTEX_POINT ( 'NONE', #483 ) ;
#18 = PERSON_AND_ORGANIZATION ( #350, #492 ) ;
#19 = DIRECTION ( 'NONE',  ( 0.000000000000000000, 1.000000000000000000, -0.000000000000000000 ) ) ;
#20 = VECTOR ( 'NONE', #159, 1000.000000000000000 ) ;
#21 = ORIENTED_EDGE ( 'NONE', *, *, #179, .F. ) ;
#22 = EDGE_CURVE ( 'NONE', #314, #515, #497, .T. ) ;
#23 = ADVANCED_FACE ( 'NONE', ( #119 ), #200, .F. ) ;
#24 = APPROVAL_STATUS ( 'not_yet_approved' ) ;
#25 = CARTESIAN_POINT ( 'NONE',  ( 1.800000000000000711, 1.000000000000000000, 1.499999999999999778 ) ) ;
#26 = ORIENTED_EDGE ( 'NONE', *, *, #402, .F. ) ;
#27 = CARTESIAN_POINT ( 'NONE',  ( 2.000000000000000000, 0.8000000000000000444, -1.500000000000000222 ) ) ;
#28 = ORIENTED_EDGE ( 'NONE', *, *, #3, .T. ) ;
#29 = LOCAL_TIME ( 13, 40, 5.000000000000000000, #337 ) ;
#30 = ADVANCED_BREP_SHAPE_REPRESENTATION ( 'BAR3X4T1', ( #220, #306 ), #475 ) ;
#31 = LINE ( 'NONE', #27, #255 ) ;
#32 = EDGE_LOOP ( 'NONE', ( #513, #474, #192, #417 ) ) ;
#33 = DIRECTION ( 'NONE',  ( 0.000000000000000000, 0.000000000000000000, 1.000000000000000000 ) ) ;
#34 = ORIENTED_EDGE ( 'NONE', *, *, #446, .F. ) ;
#35 = PRODUCT_DEFINITION_SHAPE ( 'NONE', 'NONE',  #233 ) ;
#36 = DIRECTION ( 'NONE',  ( 0.000000000000000000, -1.000000000000000000, 0.000000000000000000 ) ) ;
#37 = CC_DESIGN_SECURITY_CLASSIFICATION ( #105, ( #97 ) ) ;
#38 = CARTESIAN_POINT ( 'NONE',  ( 1.800000000000000044, 0.8000000000000000444, -1.300000000000000266 ) ) ;
#39 = APPROVAL ( #24, 'UNSPECIFIED' ) ;
#40 = CARTESIAN_POINT ( 'NONE',  ( 1.800000000000000711, 0.8000000000000000444, 1.299999999999999822 ) ) ;
#41 = AXIS2_PLACEMENT_3D ( 'NONE', #375, #128, #215 ) ;
#42 = DIRECTION ( 'NONE',  ( -2.891205793294678326E-16, 0.000000000000000000, -1.000000000000000000 ) ) ;
#43 = AXIS2_PLACEMENT_3D ( 'NONE', #95, #11, #135 ) ;
#44 = CARTESIAN_POINT ( 'NONE',  ( -1.800000000000000044, 1.000000000000000000, -1.300000000000000266 ) ) ;
#45 = AXIS2_PLACEMENT_3D ( 'NONE', #101, #425, #512 ) ;
#46 = DIRECTION ( 'NONE',  ( 1.000000000000000000, 0.000000000000000000, 0.000000000000000000 ) ) ;
#47 = SPHERICAL_SURFACE ( 'NONE', #186, 0.2000000000000000111 ) ;
#48 = ORIENTED_EDGE ( 'NONE', *, *, #393, .T. ) ;
#49 = ADVANCED_FACE ( 'NONE', ( #237 ), #401, .F. ) ;
#50 = CYLINDRICAL_SURFACE ( 'NONE', #61, 0.2000000000000000944 ) ;
#51 = ORIENTED_EDGE ( 'NONE', *, *, #78, .T. ) ;
#52 = CC_DESIGN_APPROVAL ( #368, ( #97 ) ) ;
#53 = CARTESIAN_POINT ( 'NONE',  ( 1.800000000000000044, 1.000000000000000000, -1.500000000000000222 ) ) ;
#54 = VERTEX_POINT ( 'NONE', #239 ) ;
#55 = CARTESIAN_POINT ( 'NONE',  ( -1.999999999999999112, 1.000000000000000000, 1.299999999999999822 ) ) ;
#56 = EDGE_CURVE ( 'NONE', #318, #433, #165, .T. ) ;
#57 = EDGE_LOOP ( 'NONE', ( #381, #14, #194, #21 ) ) ;
#58 = AXIS2_PLACEMENT_3D ( 'NONE', #115, #531, #167 ) ;
#59 = DIRECTION ( 'NONE',  ( 0.000000000000000000, 1.000000000000000000, 0.000000000000000000 ) ) ;
#60 = ORIENTED_EDGE ( 'NONE', *, *, #344, .T. ) ;
#61 = AXIS2_PLACEMENT_3D ( 'NONE', #256, #340, #141 ) ;
#62 = DATE_AND_TIME ( #511, #336 ) ;
#63 = AXIS2_PLACEMENT_3D ( 'NONE', #69, #410, #42 ) ;
#64 = EDGE_CURVE ( 'NONE', #510, #367, #201, .T. ) ;
#65 = CARTESIAN_POINT ( 'NONE',  ( -1.799999999999999156, 1.000000000000000000, 1.299999999999999822 ) ) ;
#66 = ORIENTED_EDGE ( 'NONE', *, *, #206, .T. ) ;
#67 = CARTESIAN_POINT ( 'NONE',  ( -1.799999999999999156, 0.8000000000000000444, 1.299999999999999822 ) ) ;
#68 = ORIENTED_EDGE ( 'NONE', *, *, #22, .F. ) ;
#69 = CARTESIAN_POINT ( 'NONE',  ( -2.000000000000000000, 1.000000000000000000, -1.500000000000000222 ) ) ;
#70 = ORIENTED_EDGE ( 'NONE', *, *, #517, .F. ) ;
#71 = CARTESIAN_POINT ( 'NONE',  ( 0.000000000000000000, 0.000000000000000000, 0.000000000000000000 ) ) ;
#72 = SPHERICAL_SURFACE ( 'NONE', #533, 0.2000000000000000111 ) ;
#73 = CARTESIAN_POINT ( 'NONE',  ( 1.800000000000000044, 1.000000000000000000, -1.500000000000000222 ) ) ;
#74 = DIRECTION ( 'NONE',  ( -2.891205793294678326E-16, -0.000000000000000000, -1.000000000000000000 ) ) ;
#75 = DIRECTION ( 'NONE',  ( 0.000000000000000000, -0.000000000000000000, 1.000000000000000000 ) ) ;
#76 = ADVANCED_FACE ( 'NONE', ( #91 ), #47, .T. ) ;
#77 = VERTEX_POINT ( 'NONE', #409 ) ;
#78 = EDGE_CURVE ( 'NONE', #505, #318, #482, .T. ) ;
#79 = CARTESIAN_POINT ( 'NONE',  ( 1.800000000000000711, 0.000000000000000000, 1.299999999999999822 ) ) ;
#80 = VECTOR ( 'NONE', #436, 1000.000000000000000 ) ;
#81 = DIRECTION ( 'NONE',  ( 0.000000000000000000, 0.000000000000000000, -1.000000000000000000 ) ) ;
#82 = FACE_OUTER_BOUND ( 'NONE', #386, .T. ) ;
#83 = DATE_TIME_ROLE ( 'classification_date' ) ;
#84 = DIRECTION ( 'NONE',  ( -0.000000000000000000, -1.000000000000000000, -0.000000000000000000 ) ) ;
#85 = CLOSED_SHELL ( 'NONE', ( #271, #118, #540, #23, #414, #49, #136, #175, #7, #107, #180, #298, #419, #407, #249, #458, #76, #454 ) ) ;
#86 = SECURITY_CLASSIFICATION_LEVEL ( 'unclassified' ) ;
#87 = DIRECTION ( 'NONE',  ( 0.000000000000000000, 0.000000000000000000, 1.000000000000000000 ) ) ;
#88 = CIRCLE ( 'NONE', #532, 0.2000000000000000944 ) ;
#89 = CIRCLE ( 'NONE', #126, 0.2000000000000000944 ) ;
#90 = PERSON_AND_ORGANIZATION ( #350, #492 ) ;
#91 = FACE_OUTER_BOUND ( 'NONE', #426, .T. ) ;
#92 = EDGE_LOOP ( 'NONE', ( #66, #447, #185 ) ) ;
#93 = DIRECTION ( 'NONE',  ( -1.000000000000000000, -0.000000000000000000, -0.000000000000000000 ) ) ;
#94 = EDGE_LOOP ( 'NONE', ( #269, #142, #276, #435 ) ) ;
#95 = CARTESIAN_POINT ( 'NONE',  ( 1.800000000000000044, 0.8000000000000000444, -1.300000000000000266 ) ) ;
#96 = ORIENTED_EDGE ( 'NONE', *, *, #273, .T. ) ;
#97 = PRODUCT_DEFINITION_FORMATION_WITH_SPECIFIED_SOURCE ( 'ANY', '', #121, .NOT_KNOWN. ) ;
#98 = FACE_OUTER_BOUND ( 'NONE', #486, .T. ) ;
#99 = EDGE_LOOP ( 'NONE', ( #259, #145, #349, #240 ) ) ;
#100 = APPROVAL_ROLE ( '' ) ;
#101 = CARTESIAN_POINT ( 'NONE',  ( 2.000000000000000000, 1.000000000000000000, -1.500000000000000222 ) ) ;
#102 = ORIENTED_EDGE ( 'NONE', *, *, #307, .T. ) ;
#103 = LINE ( 'NONE', #268, #317 ) ;
#104 = VERTEX_POINT ( 'NONE', #5 ) ;
#105 = SECURITY_CLASSIFICATION ( '', '', #86 ) ;
#106 = DIRECTION ( 'NONE',  ( 0.000000000000000000, 0.000000000000000000, 1.000000000000000000 ) ) ;
#107 = ADVANCED_FACE ( 'NONE', ( #286 ), #457, .T. ) ;
#108 = EDGE_LOOP ( 'NONE', ( #139, #437, #469 ) ) ;
#109 = DIRECTION ( 'NONE',  ( 1.000000000000000000, 0.000000000000000000, -2.891205793294676847E-16 ) ) ;
#110 = DIRECTION ( 'NONE',  ( 0.000000000000000000, -1.000000000000000000, 0.000000000000000000 ) ) ;
#111 = DESIGN_CONTEXT ( 'detailed design', #520, 'design' ) ;
#112 = VECTOR ( 'NONE', #168, 1000.000000000000000 ) ;
#113 = APPROVAL_STATUS ( 'not_yet_approved' ) ;
#114 = CARTESIAN_POINT ( 'NONE',  ( -1.799999999999999156, 0.8000000000000000444, 1.299999999999999822 ) ) ;
#115 = CARTESIAN_POINT ( 'NONE',  ( 1.800000000000000044, 0.8000000000000000444, -1.300000000000000266 ) ) ;
#116 = VECTOR ( 'NONE', #338, 1000.000000000000000 ) ;
#117 = FACE_OUTER_BOUND ( 'NONE', #57, .T. ) ;
#118 = ADVANCED_FACE ( 'NONE', ( #370 ), #328, .F. ) ;
#119 = FACE_OUTER_BOUND ( 'NONE', #445, .T. ) ;
#120 = VERTEX_POINT ( 'NONE', #332 ) ;
#121 = PRODUCT ( 'BAR3X4T1', 'BAR3X4T1', '', ( #387 ) ) ;
#122 = CC_DESIGN_PERSON_AND_ORGANIZATION_ASSIGNMENT ( #476, #378, ( #121 ) ) ;
#123 = EDGE_CURVE ( 'NONE', #510, #433, #250, .T. ) ;
#124 = CYLINDRICAL_SURFACE ( 'NONE', #211, 0.2000000000000000944 ) ;
#125 = FACE_OUTER_BOUND ( 'NONE', #12, .T. ) ;
#126 = AXIS2_PLACEMENT_3D ( 'NONE', #320, #19, #287 ) ;
#127 = CARTESIAN_POINT ( 'NONE',  ( 1.800000000000000044, 0.8000000000000000444, -1.500000000000000222 ) ) ;
#128 = DIRECTION ( 'NONE',  ( -0.000000000000000000, -0.000000000000000000, 1.000000000000000000 ) ) ;
#129 = CARTESIAN_POINT ( 'NONE',  ( -1.999999999999999112, 0.000000000000000000, 1.499999999999999778 ) ) ;
#130 = AXIS2_PLACEMENT_3D ( 'NONE', #539, #535, #294 ) ;
#131 = VECTOR ( 'NONE', #330, 1000.000000000000000 ) ;
#132 = DIRECTION ( 'NONE',  ( 0.000000000000000000, 0.000000000000000000, 1.000000000000000000 ) ) ;
#133 = AXIS2_PLACEMENT_3D ( 'NONE', #263, #59, #503 ) ;
#134 = COORDINATED_UNIVERSAL_TIME_OFFSET ( 8, 0, .AHEAD. ) ;
#135 = DIRECTION ( 'NONE',  ( -1.000000000000000000, 0.000000000000000000, 0.000000000000000000 ) ) ;
#136 = ADVANCED_FACE ( 'NONE', ( #450 ), #413, .T. ) ;
#137 = EDGE_CURVE ( 'NONE', #423, #392, #376, .T. ) ;
#138 = CARTESIAN_POINT ( 'NONE',  ( 1.800000000000000044, 0.000000000000000000, -1.300000000000000266 ) ) ;
#139 = ORIENTED_EDGE ( 'NONE', *, *, #123, .T. ) ;
#140 = CIRCLE ( 'NONE', #266, 0.2000000000000000944 ) ;
#141 = DIRECTION ( 'NONE',  ( 0.000000000000000000, 0.000000000000000000, -1.000000000000000000 ) ) ;
#142 = ORIENTED_EDGE ( 'NONE', *, *, #333, .T. ) ;
#143 = AXIS2_PLACEMENT_3D ( 'NONE', #504, #93, #300 ) ;
#144 = DIRECTION ( 'NONE',  ( 0.000000000000000000, 0.000000000000000000, 1.000000000000000000 ) ) ;
#145 = ORIENTED_EDGE ( 'NONE', *, *, #307, .F. ) ;
#146 = CARTESIAN_POINT ( 'NONE',  ( -2.000000000000000000, 0.8000000000000000444, -1.300000000000000266 ) ) ;
#147 = ORIENTED_EDGE ( 'NONE', *, *, #325, .T. ) ;
#148 = CARTESIAN_POINT ( 'NONE',  ( -1.799999999999999156, 1.000000000000000000, 1.499999999999999778 ) ) ;
#149 = ORIENTED_EDGE ( 'NONE', *, *, #285, .F. ) ;
#150 = DATE_AND_TIME ( #319, #522 ) ;
#151 = AXIS2_PLACEMENT_3D ( 'NONE', #196, #485, #109 ) ;
#152 = LINE ( 'NONE', #202, #20 ) ;
#153 = ORIENTED_EDGE ( 'NONE', *, *, #327, .F. ) ;
#154 = DATE_AND_TIME ( #390, #29 ) ;
#155 = CARTESIAN_POINT ( 'NONE',  ( -1.800000000000000044, 0.8000000000000000444, -1.500000000000000222 ) ) ;
#156 = CARTESIAN_POINT ( 'NONE',  ( -1.799999999999999156, 1.000000000000000000, 1.499999999999999778 ) ) ;
#157 = EDGE_CURVE ( 'NONE', #17, #384, #489, .T. ) ;
#158 = VECTOR ( 'NONE', #36, 1000.000000000000000 ) ;
#159 = DIRECTION ( 'NONE',  ( -2.891205793294678326E-16, -0.000000000000000000, -1.000000000000000000 ) ) ;
#160 = CYLINDRICAL_SURFACE ( 'NONE', #527, 0.2000000000000000944 ) ;
#161 = AXIS2_PLACEMENT_3D ( 'NONE', #288, #283, #132 ) ;
#162 = DIRECTION ( 'NONE',  ( -2.891205793294678326E-16, 0.000000000000000000, -1.000000000000000000 ) ) ;
#163 = CIRCLE ( 'NONE', #43, 0.2000000000000000944 ) ;
#164 = VECTOR ( 'NONE', #440, 1000.000000000000000 ) ;
#165 = LINE ( 'NONE', #282, #112 ) ;
#166 = CC_DESIGN_DATE_AND_TIME_ASSIGNMENT ( #150, #431, ( #233 ) ) ;
#167 = DIRECTION ( 'NONE',  ( 0.000000000000000000, 0.000000000000000000, 1.000000000000000000 ) ) ;
#168 = DIRECTION ( 'NONE',  ( -0.000000000000000000, 1.000000000000000000, -0.000000000000000000 ) ) ;
#169 = VECTOR ( 'NONE', #427, 1000.000000000000000 ) ;
#170 = DIRECTION ( 'NONE',  ( -1.000000000000000000, 0.000000000000000000, 0.000000000000000000 ) ) ;
#171 = ORIENTED_EDGE ( 'NONE', *, *, #495, .T. ) ;
#172 = APPROVAL_PERSON_ORGANIZATION ( #467, #368, #100 ) ;
#173 =( LENGTH_UNIT ( ) NAMED_UNIT ( * ) SI_UNIT ( .MILLI., .METRE. ) );
#174 = LINE ( 'NONE', #408, #131 ) ;
#175 = ADVANCED_FACE ( 'NONE', ( #125 ), #124, .T. ) ;
#176 = APPROVAL_ROLE ( '' ) ;
#177 = DIRECTION ( 'NONE',  ( 0.000000000000000000, 0.000000000000000000, -1.000000000000000000 ) ) ;
#178 = AXIS2_PLACEMENT_3D ( 'NONE', #403, #162, #357 ) ;
#179 = EDGE_CURVE ( 'NONE', #488, #346, #174, .T. ) ;
#180 = ADVANCED_FACE ( 'NONE', ( #493 ), #2, .T. ) ;
#181 = AXIS2_PLACEMENT_3D ( 'NONE', #225, #187, #144 ) ;
#182 = DIRECTION ( 'NONE',  ( -0.000000000000000000, -1.000000000000000000, -0.000000000000000000 ) ) ;
#183 = ORIENTED_EDGE ( 'NONE', *, *, #405, .F. ) ;
#184 = LINE ( 'NONE', #383, #538 ) ;
#185 = ORIENTED_EDGE ( 'NONE', *, *, #449, .F. ) ;
#186 = AXIS2_PLACEMENT_3D ( 'NONE', #40, #377, #498 ) ;
#187 = DIRECTION ( 'NONE',  ( 0.000000000000000000, 1.000000000000000000, 0.000000000000000000 ) ) ;
#188 = ORIENTED_EDGE ( 'NONE', *, *, #157, .T. ) ;
#189 = CARTESIAN_POINT ( 'NONE',  ( 2.000000000000000888, 1.000000000000000000, 1.299999999999999822 ) ) ;
#190 = ORIENTED_EDGE ( 'NONE', *, *, #216, .T. ) ;
#191 = CYLINDRICAL_SURFACE ( 'NONE', #151, 0.2000000000000000944 ) ;
#192 = ORIENTED_EDGE ( 'NONE', *, *, #441, .F. ) ;
#193 = DIRECTION ( 'NONE',  ( 1.000000000000000000, -0.000000000000000000, 0.000000000000000000 ) ) ;
#194 = ORIENTED_EDGE ( 'NONE', *, *, #241, .T. ) ;
#195 = VECTOR ( 'NONE', #74, 1000.000000000000000 ) ;
#196 = CARTESIAN_POINT ( 'NONE',  ( 1.800000000000000488, 0.8000000000000000444, -5.204170427930422269E-16 ) ) ;
#197 = ORIENTED_EDGE ( 'NONE', *, *, #213, .F. ) ;
#198 = EDGE_CURVE ( 'NONE', #343, #384, #140, .T. ) ;
#199 = FACE_OUTER_BOUND ( 'NONE', #92, .T. ) ;
#200 = PLANE ( 'NONE',  #428 ) ;
#201 = CIRCLE ( 'NONE', #41, 0.2000000000000000944 ) ;
#202 = CARTESIAN_POINT ( 'NONE',  ( 2.000000000000000000, 0.000000000000000000, -1.500000000000000222 ) ) ;
#203 = ORIENTED_EDGE ( 'NONE', *, *, #516, .F. ) ;
#204 = ORIENTED_EDGE ( 'NONE', *, *, #495, .F. ) ;
#205 = UNCERTAINTY_MEASURE_WITH_UNIT (LENGTH_MEASURE( 1.000000000000000082E-05 ), #173, 'distance_accuracy_value', 'NONE');
#206 = EDGE_CURVE ( 'NONE', #488, #77, #278, .T. ) ;
#207 = DIRECTION ( 'NONE',  ( 0.000000000000000000, 1.000000000000000000, 0.000000000000000000 ) ) ;
#208 = CARTESIAN_POINT ( 'NONE',  ( -1.800000000000000044, 0.8000000000000000444, -1.300000000000000266 ) ) ;
#209 = EDGE_LOOP ( 'NONE', ( #96, #153, #197, #500 ) ) ;
#210 = CIRCLE ( 'NONE', #181, 0.2000000000000000944 ) ;
#211 = AXIS2_PLACEMENT_3D ( 'NONE', #214, #448, #81 ) ;
#212 = CARTESIAN_POINT ( 'NONE',  ( -1.999999999999999112, 0.8000000000000000444, 1.499999999999999778 ) ) ;
#213 = EDGE_CURVE ( 'NONE', #54, #346, #529, .T. ) ;
#214 = CARTESIAN_POINT ( 'NONE',  ( 0.000000000000000000, 0.8000000000000000444, -1.300000000000000266 ) ) ;
#215 = DIRECTION ( 'NONE',  ( -1.000000000000000000, 0.000000000000000000, 0.000000000000000000 ) ) ;
#216 = EDGE_CURVE ( 'NONE', #235, #339, #88, .T. ) ;
#217 = ORIENTED_EDGE ( 'NONE', *, *, #446, .T. ) ;
#218 = PERSON_AND_ORGANIZATION ( #350, #492 ) ;
#219 = DIRECTION ( 'NONE',  ( 0.000000000000000000, -1.000000000000000000, 0.000000000000000000 ) ) ;
#220 = MANIFOLD_SOLID_BREP ( '\X2\570689d2\X0\1', #85 ) ;
#221 = ORIENTED_EDGE ( 'NONE', *, *, #285, .T. ) ;
#222 = PERSON_AND_ORGANIZATION_ROLE ( 'classification_officer' ) ;
#223 = CARTESIAN_POINT ( 'NONE',  ( 2.000000000000000000, 0.000000000000000000, -1.300000000000000266 ) ) ;
#224 = ORIENTED_EDGE ( 'NONE', *, *, #369, .T. ) ;
#225 = CARTESIAN_POINT ( 'NONE',  ( 1.800000000000000711, 0.8000000000000000444, 1.299999999999999822 ) ) ;
#226 = ORIENTED_EDGE ( 'NONE', *, *, #22, .T. ) ;
#227 = CARTESIAN_POINT ( 'NONE',  ( -2.000000000000000000, 1.000000000000000000, -1.300000000000000266 ) ) ;
#228 = ORIENTED_EDGE ( 'NONE', *, *, #516, .T. ) ;
#229 = DIRECTION ( 'NONE',  ( 0.000000000000000000, 0.000000000000000000, 1.000000000000000000 ) ) ;
#230 = ORIENTED_EDGE ( 'NONE', *, *, #477, .F. ) ;
#231 = DIRECTION ( 'NONE',  ( 0.000000000000000000, 0.000000000000000000, 1.000000000000000000 ) ) ;
#232 = ORIENTED_EDGE ( 'NONE', *, *, #216, .F. ) ;
#233 = PRODUCT_DEFINITION ( 'UNKNOWN', '', #97, #111 ) ;
#234 = PLANE ( 'NONE',  #400 ) ;
#235 = VERTEX_POINT ( 'NONE', #461 ) ;
#236 = CARTESIAN_POINT ( 'NONE',  ( -2.000000000000000000, 0.000000000000000000, -1.500000000000000222 ) ) ;
#237 = FACE_OUTER_BOUND ( 'NONE', #463, .T. ) ;
#238 = CARTESIAN_POINT ( 'NONE',  ( -2.000000000000000000, 0.000000000000000000, -1.300000000000000266 ) ) ;
#239 = CARTESIAN_POINT ( 'NONE',  ( 2.000000000000000888, 0.8000000000000000444, 1.299999999999999822 ) ) ;
#240 = ORIENTED_EDGE ( 'NONE', *, *, #56, .F. ) ;
#241 = EDGE_CURVE ( 'NONE', #423, #346, #295, .T. ) ;
#242 = APPROVAL_PERSON_ORGANIZATION ( #397, #39, #523 ) ;
#243 = DIRECTION ( 'NONE',  ( 0.000000000000000000, 0.000000000000000000, -1.000000000000000000 ) ) ;
#244 = DIRECTION ( 'NONE',  ( 0.000000000000000000, 1.000000000000000000, 0.000000000000000000 ) ) ;
#245 = DIRECTION ( 'NONE',  ( 0.000000000000000000, 1.000000000000000000, 0.000000000000000000 ) ) ;
#246 = APPROVAL ( #251, 'UNSPECIFIED' ) ;
#247 = AXIS2_PLACEMENT_3D ( 'NONE', #254, #491, #252 ) ;
#248 = DIRECTION ( 'NONE',  ( 0.000000000000000000, 0.000000000000000000, 1.000000000000000000 ) ) ;
#249 = ADVANCED_FACE ( 'NONE', ( #98 ), #50, .T. ) ;
#250 = CIRCLE ( 'NONE', #161, 0.2000000000000000944 ) ;
#251 = APPROVAL_STATUS ( 'not_yet_approved' ) ;
#252 = DIRECTION ( 'NONE',  ( 1.000000000000000000, 0.000000000000000000, -0.000000000000000000 ) ) ;
#253 = CALENDAR_DATE ( 2026, 22, 3 ) ;
#254 = CARTESIAN_POINT ( 'NONE',  ( -2.000000000000000000, 1.000000000000000000, -1.500000000000000222 ) ) ;
#255 = VECTOR ( 'NONE', #313, 1000.000000000000000 ) ;
#256 = CARTESIAN_POINT ( 'NONE',  ( 1.800000000000000711, 1.000000000000000000, 1.299999999999999822 ) ) ;
#257 = ORIENTED_EDGE ( 'NONE', *, *, #402, .T. ) ;
#258 = FACE_OUTER_BOUND ( 'NONE', #94, .T. ) ;
#259 = ORIENTED_EDGE ( 'NONE', *, *, #78, .F. ) ;
#260 = FACE_OUTER_BOUND ( 'NONE', #32, .T. ) ;
#261 = ORIENTED_EDGE ( 'NONE', *, *, #393, .F. ) ;
#262 = PRODUCT_RELATED_PRODUCT_CATEGORY ( 'detail', '', ( #121 ) ) ;
#263 = CARTESIAN_POINT ( 'NONE',  ( -1.800000000000000044, 0.8000000000000000444, -1.300000000000000266 ) ) ;
#264 = EDGE_CURVE ( 'NONE', #433, #367, #365, .T. ) ;
#265 = ORIENTED_EDGE ( 'NONE', *, *, #362, .F. ) ;
#266 = AXIS2_PLACEMENT_3D ( 'NONE', #79, #84, #248 ) ;
#267 = APPLICATION_PROTOCOL_DEFINITION ( 'international standard', 'config_control_design', 1994, #520 ) ;
#268 = CARTESIAN_POINT ( 'NONE',  ( 2.000000000000000888, 0.8000000000000000444, 1.499999999999999778 ) ) ;
#269 = ORIENTED_EDGE ( 'NONE', *, *, #405, .T. ) ;
#270 = DIRECTION ( 'NONE',  ( 1.000000000000000000, 0.000000000000000000, 0.000000000000000000 ) ) ;
#271 = ADVANCED_FACE ( 'NONE', ( #258 ), #345, .F. ) ;
#272 = DIRECTION ( 'NONE',  ( 1.000000000000000000, -0.000000000000000000, -0.000000000000000000 ) ) ;
#273 = EDGE_CURVE ( 'NONE', #314, #104, #163, .T. ) ;
#274 = CARTESIAN_POINT ( 'NONE',  ( -1.999999999999999112, 1.000000000000000000, 1.499999999999999778 ) ) ;
#275 = DIRECTION ( 'NONE',  ( 0.000000000000000000, 1.000000000000000000, -0.000000000000000000 ) ) ;
#276 = ORIENTED_EDGE ( 'NONE', *, *, #382, .T. ) ;
#277 = DIRECTION ( 'NONE',  ( -0.000000000000000000, 1.000000000000000000, -0.000000000000000000 ) ) ;
#278 = CIRCLE ( 'NONE', #508, 0.2000000000000000944 ) ;
#279 = DIRECTION ( 'NONE',  ( 0.000000000000000000, 0.000000000000000000, -1.000000000000000000 ) ) ;
#280 = CYLINDRICAL_SURFACE ( 'NONE', #443, 0.2000000000000000944 ) ;
#281 = DIRECTION ( 'NONE',  ( 0.000000000000000000, 1.000000000000000000, 0.000000000000000000 ) ) ;
#282 = CARTESIAN_POINT ( 'NONE',  ( -1.800000000000000044, 1.000000000000000000, -1.500000000000000222 ) ) ;
#283 = DIRECTION ( 'NONE',  ( -1.000000000000000000, 0.000000000000000000, 0.000000000000000000 ) ) ;
#284 = AXIS2_PLACEMENT_3D ( 'NONE', #451, #193, #316 ) ;
#285 = EDGE_CURVE ( 'NONE', #104, #510, #418, .T. ) ;
#286 = FACE_OUTER_BOUND ( 'NONE', #108, .T. ) ;
#287 = DIRECTION ( 'NONE',  ( 0.000000000000000000, 0.000000000000000000, 1.000000000000000000 ) ) ;
#288 = CARTESIAN_POINT ( 'NONE',  ( -1.800000000000000044, 0.8000000000000000444, -1.300000000000000266 ) ) ;
#289 = ORIENTED_EDGE ( 'NONE', *, *, #517, .T. ) ;
#290 = VECTOR ( 'NONE', #321, 1000.000000000000000 ) ;
#291 = DIRECTION ( 'NONE',  ( 1.000000000000000000, 0.000000000000000000, 0.000000000000000000 ) ) ;
#292 = AXIS2_PLACEMENT_3D ( 'NONE', #453, #87, #46 ) ;
#293 = PERSON_AND_ORGANIZATION ( #350, #492 ) ;
#294 = DIRECTION ( 'NONE',  ( 0.000000000000000000, 0.000000000000000000, 1.000000000000000000 ) ) ;
#295 = CIRCLE ( 'NONE', #143, 0.2000000000000000944 ) ;
#296 = LOCAL_TIME ( 13, 40, 5.000000000000000000, #134 ) ;
#297 = SHAPE_DEFINITION_REPRESENTATION ( #35, #30 ) ;
#298 = ADVANCED_FACE ( 'NONE', ( #260 ), #13, .T. ) ;
#299 = LINE ( 'NONE', #189, #462 ) ;
#300 = DIRECTION ( 'NONE',  ( 0.000000000000000000, 0.000000000000000000, -1.000000000000000000 ) ) ;
#301 = ORIENTED_EDGE ( 'NONE', *, *, #369, .F. ) ;
#302 = AXIS2_PLACEMENT_3D ( 'NONE', #65, #388, #177 ) ;
#303 = CARTESIAN_POINT ( 'NONE',  ( -1.799999999999999156, 0.000000000000000000, 1.299999999999999822 ) ) ;
#304 = ORIENTED_EDGE ( 'NONE', *, *, #198, .T. ) ;
#305 = CC_DESIGN_PERSON_AND_ORGANIZATION_ASSIGNMENT ( #293, #460, ( #97 ) ) ;
#306 = AXIS2_PLACEMENT_3D ( 'NONE', #71, #6, #270 ) ;
#307 = EDGE_CURVE ( 'NONE', #367, #505, #184, .T. ) ;
#308 = DIRECTION ( 'NONE',  ( 0.000000000000000000, 0.000000000000000000, 1.000000000000000000 ) ) ;
#309 = EDGE_LOOP ( 'NONE', ( #217, #521, #257, #28 ) ) ;
#310 = LINE ( 'NONE', #55, #372 ) ;
#311 = ORIENTED_EDGE ( 'NONE', *, *, #327, .T. ) ;
#312 = CC_DESIGN_PERSON_AND_ORGANIZATION_ASSIGNMENT ( #18, #353, ( #233 ) ) ;
#313 = DIRECTION ( 'NONE',  ( 1.000000000000000000, -0.000000000000000000, -0.000000000000000000 ) ) ;
#314 = VERTEX_POINT ( 'NONE', #468 ) ;
#315 = CIRCLE ( 'NONE', #284, 0.2000000000000000944 ) ;
#316 = DIRECTION ( 'NONE',  ( 0.000000000000000000, 0.000000000000000000, -1.000000000000000000 ) ) ;
#317 = VECTOR ( 'NONE', #432, 1000.000000000000000 ) ;
#318 = VERTEX_POINT ( 'NONE', #380 ) ;
#319 = CALENDAR_DATE ( 2026, 22, 3 ) ;
#320 = CARTESIAN_POINT ( 'NONE',  ( -1.799999999999999156, 0.8000000000000000444, 1.299999999999999822 ) ) ;
#321 = DIRECTION ( 'NONE',  ( 0.000000000000000000, -1.000000000000000000, 0.000000000000000000 ) ) ;
#322 = FACE_OUTER_BOUND ( 'NONE', #389, .T. ) ;
#323 = ORIENTED_EDGE ( 'NONE', *, *, #206, .F. ) ;
#324 = LINE ( 'NONE', #359, #164 ) ;
#325 = EDGE_CURVE ( 'NONE', #120, #77, #310, .T. ) ;
#326 = ORIENTED_EDGE ( 'NONE', *, *, #15, .T. ) ;
#327 = EDGE_CURVE ( 'NONE', #346, #104, #385, .T. ) ;
#328 = PLANE ( 'NONE',  #247 ) ;
#329 = CC_DESIGN_APPROVAL ( #39, ( #233 ) ) ;
#330 = DIRECTION ( 'NONE',  ( 1.000000000000000000, -0.000000000000000000, 0.000000000000000000 ) ) ;
#331 = APPROVAL_DATE_TIME ( #415, #246 ) ;
#332 = CARTESIAN_POINT ( 'NONE',  ( -1.999999999999999112, 0.000000000000000000, 1.299999999999999822 ) ) ;
#333 = EDGE_CURVE ( 'NONE', #339, #314, #421, .T. ) ;
#334 = DATE_AND_TIME ( #379, #8 ) ;
#335 = CARTESIAN_POINT ( 'NONE',  ( -1.799999999999999156, 0.8000000000000000444, 1.499999999999999778 ) ) ;
#336 = LOCAL_TIME ( 13, 40, 5.000000000000000000, #480 ) ;
#337 = COORDINATED_UNIVERSAL_TIME_OFFSET ( 8, 0, .AHEAD. ) ;
#338 = DIRECTION ( 'NONE',  ( -2.891205793294678326E-16, 0.000000000000000000, -1.000000000000000000 ) ) ;
#339 = VERTEX_POINT ( 'NONE', #223 ) ;
#340 = DIRECTION ( 'NONE',  ( 0.000000000000000000, -1.000000000000000000, 0.000000000000000000 ) ) ;
#341 = AXIS2_PLACEMENT_3D ( 'NONE', #208, #207, #170 ) ;
#342 = CC_DESIGN_DATE_AND_TIME_ASSIGNMENT ( #334, #83, ( #105 ) ) ;
#343 = VERTEX_POINT ( 'NONE', #16 ) ;
#344 = EDGE_CURVE ( 'NONE', #17, #120, #438, .T. ) ;
#345 = PLANE ( 'NONE',  #45 ) ;
#346 = VERTEX_POINT ( 'NONE', #464 ) ;
#347 = APPLICATION_PROTOCOL_DEFINITION ( 'international standard', 'config_control_design', 1994, #490 ) ;
#348 = DIRECTION ( 'NONE',  ( 0.000000000000000000, -1.000000000000000000, 0.000000000000000000 ) ) ;
#349 = ORIENTED_EDGE ( 'NONE', *, *, #264, .F. ) ;
#350 = PERSON ( 'UNSPECIFIED', 'UNSPECIFIED', 'UNSPECIFIED', ('UNSPECIFIED'), ('UNSPECIFIED'), ('UNSPECIFIED') ) ;
#351 = LINE ( 'NONE', #148, #80 ) ;
#352 = ORIENTED_EDGE ( 'NONE', *, *, #213, .T. ) ;
#353 = PERSON_AND_ORGANIZATION_ROLE ( 'creator' ) ;
#354 = DIRECTION ( 'NONE',  ( 0.000000000000000000, -0.000000000000000000, 1.000000000000000000 ) ) ;
#355 = ORIENTED_EDGE ( 'NONE', *, *, #241, .F. ) ;
#356 = VECTOR ( 'NONE', #277, 1000.000000000000000 ) ;
#357 = DIRECTION ( 'NONE',  ( -1.000000000000000000, 0.000000000000000000, 2.891205793294676847E-16 ) ) ;
#358 = FACE_OUTER_BOUND ( 'NONE', #399, .T. ) ;
#359 = CARTESIAN_POINT ( 'NONE',  ( -2.000000000000000000, 0.000000000000000000, -1.500000000000000222 ) ) ;
#360 = DIRECTION ( 'NONE',  ( -1.000000000000000000, 0.000000000000000000, -0.000000000000000000 ) ) ;
#361 = AXIS2_PLACEMENT_3D ( 'NONE', #528, #281, #75 ) ;
#362 = EDGE_CURVE ( 'NONE', #54, #343, #299, .T. ) ;
#363 = CARTESIAN_POINT ( 'NONE',  ( 0.000000000000000000, 1.000000000000000000, 0.000000000000000000 ) ) ;
#364 = ORIENTED_EDGE ( 'NONE', *, *, #273, .F. ) ;
#365 = CIRCLE ( 'NONE', #133, 0.2000000000000000944 ) ;
#366 = APPROVAL_PERSON_ORGANIZATION ( #90, #246, #176 ) ;
#367 = VERTEX_POINT ( 'NONE', #146 ) ;
#368 = APPROVAL ( #113, 'UNSPECIFIED' ) ;
#369 = EDGE_CURVE ( 'NONE', #423, #54, #210, .T. ) ;
#370 = FACE_OUTER_BOUND ( 'NONE', #309, .T. ) ;
#371 = DIRECTION ( 'NONE',  ( -1.000000000000000000, -0.000000000000000000, -0.000000000000000000 ) ) ;
#372 = VECTOR ( 'NONE', #471, 1000.000000000000000 ) ;
#373 = ORIENTED_EDGE ( 'NONE', *, *, #333, .F. ) ;
#374 =( NAMED_UNIT ( * ) PLANE_ANGLE_UNIT ( ) SI_UNIT ( $, .RADIAN. ) );
#375 = CARTESIAN_POINT ( 'NONE',  ( -1.800000000000000044, 0.8000000000000000444, -1.300000000000000266 ) ) ;
#376 = LINE ( 'NONE', #212, #537 ) ;
#377 = DIRECTION ( 'NONE',  ( -0.000000000000000000, 1.000000000000000000, 0.000000000000000000 ) ) ;
#378 = PERSON_AND_ORGANIZATION_ROLE ( 'design_owner' ) ;
#379 = CALENDAR_DATE ( 2026, 22, 3 ) ;
#380 = CARTESIAN_POINT ( 'NONE',  ( -1.800000000000000044, 0.000000000000000000, -1.500000000000000222 ) ) ;
#381 = ORIENTED_EDGE ( 'NONE', *, *, #449, .T. ) ;
#382 = EDGE_CURVE ( 'NONE', #314, #54, #103, .T. ) ;
#383 = CARTESIAN_POINT ( 'NONE',  ( -2.000000000000000000, 1.000000000000000000, -1.300000000000000266 ) ) ;
#384 = VERTEX_POINT ( 'NONE', #391 ) ;
#385 = LINE ( 'NONE', #53, #116 ) ;
#386 = EDGE_LOOP ( 'NONE', ( #48, #147, #404, #102 ) ) ;
#387 = MECHANICAL_CONTEXT ( 'NONE', #490, 'mechanical' ) ;
#388 = DIRECTION ( 'NONE',  ( 0.000000000000000000, -1.000000000000000000, 0.000000000000000000 ) ) ;
#389 = EDGE_LOOP ( 'NONE', ( #171, #494, #311, #221 ) ) ;
#390 = CALENDAR_DATE ( 2026, 22, 3 ) ;
#391 = CARTESIAN_POINT ( 'NONE',  ( 1.800000000000000711, 0.000000000000000000, 1.499999999999999778 ) ) ;
#392 = VERTEX_POINT ( 'NONE', #335 ) ;
#393 = EDGE_CURVE ( 'NONE', #505, #120, #459, .T. ) ;
#394 = APPROVAL_DATE_TIME ( #154, #39 ) ;
#395 = LINE ( 'NONE', #25, #356 ) ;
#396 = ORIENTED_EDGE ( 'NONE', *, *, #137, .T. ) ;
#397 = PERSON_AND_ORGANIZATION ( #350, #492 ) ;
#398 = DIRECTION ( 'NONE',  ( 2.891205793294678326E-16, 0.000000000000000000, 1.000000000000000000 ) ) ;
#399 = EDGE_LOOP ( 'NONE', ( #232, #466, #68, #373 ) ) ;
#400 = AXIS2_PLACEMENT_3D ( 'NONE', #363, #245, #354 ) ;
#401 = PLANE ( 'NONE',  #361 ) ;
#402 = EDGE_CURVE ( 'NONE', #433, #515, #31, .T. ) ;
#403 = CARTESIAN_POINT ( 'NONE',  ( -1.799999999999999600, 0.8000000000000000444, 5.204170427930419311E-16 ) ) ;
#404 = ORIENTED_EDGE ( 'NONE', *, *, #477, .T. ) ;
#405 = EDGE_CURVE ( 'NONE', #343, #339, #152, .T. ) ;
#406 = LINE ( 'NONE', #73, #158 ) ;
#407 = ADVANCED_FACE ( 'NONE', ( #514 ), #191, .T. ) ;
#408 = CARTESIAN_POINT ( 'NONE',  ( 2.000000000000000888, 1.000000000000000000, 1.299999999999999822 ) ) ;
#409 = CARTESIAN_POINT ( 'NONE',  ( -1.999999999999999112, 0.8000000000000000444, 1.299999999999999822 ) ) ;
#410 = DIRECTION ( 'NONE',  ( 1.000000000000000000, 0.000000000000000000, -2.891205793294678326E-16 ) ) ;
#411 = CARTESIAN_POINT ( 'NONE',  ( -1.799999999999999156, 0.8000000000000000444, 1.299999999999999822 ) ) ;
#412 = APPROVAL_DATE_TIME ( #62, #368 ) ;
#413 = CYLINDRICAL_SURFACE ( 'NONE', #499, 0.2000000000000000944 ) ;
#414 = ADVANCED_FACE ( 'NONE', ( #322 ), #234, .T. ) ;
#415 = DATE_AND_TIME ( #253, #296 ) ;
#416 = DIRECTION ( 'NONE',  ( 0.000000000000000000, -1.000000000000000000, 0.000000000000000000 ) ) ;
#417 = ORIENTED_EDGE ( 'NONE', *, *, #325, .F. ) ;
#418 = LINE ( 'NONE', #227, #169 ) ;
#419 = ADVANCED_FACE ( 'NONE', ( #434 ), #473, .T. ) ;
#420 = ORIENTED_EDGE ( 'NONE', *, *, #123, .F. ) ;
#421 = LINE ( 'NONE', #9, #536 ) ;
#422 = AXIS2_PLACEMENT_3D ( 'NONE', #67, #272, #33 ) ;
#423 = VERTEX_POINT ( 'NONE', #524 ) ;
#424 = VECTOR ( 'NONE', #398, 1000.000000000000000 ) ;
#425 = DIRECTION ( 'NONE',  ( -1.000000000000000000, 0.000000000000000000, 2.891205793294678326E-16 ) ) ;
#426 = EDGE_LOOP ( 'NONE', ( #224, #352, #355 ) ) ;
#427 = DIRECTION ( 'NONE',  ( -1.000000000000000000, 0.000000000000000000, 0.000000000000000000 ) ) ;
#428 = AXIS2_PLACEMENT_3D ( 'NONE', #274, #279, #360 ) ;
#429 = EDGE_LOOP ( 'NONE', ( #226, #289, #364 ) ) ;
#430 = AXIS2_PLACEMENT_3D ( 'NONE', #38, #244, #452 ) ;
#431 = DATE_TIME_ROLE ( 'creation_date' ) ;
#432 = DIRECTION ( 'NONE',  ( 2.891205793294678326E-16, -0.000000000000000000, 1.000000000000000000 ) ) ;
#433 = VERTEX_POINT ( 'NONE', #155 ) ;
#434 = FACE_OUTER_BOUND ( 'NONE', #10, .T. ) ;
#435 = ORIENTED_EDGE ( 'NONE', *, *, #362, .T. ) ;
#436 = DIRECTION ( 'NONE',  ( 2.891205793294678326E-16, -0.000000000000000000, 1.000000000000000000 ) ) ;
#437 = ORIENTED_EDGE ( 'NONE', *, *, #264, .T. ) ;
#438 = CIRCLE ( 'NONE', #484, 0.2000000000000000944 ) ;
#439 = VECTOR ( 'NONE', #1, 1000.000000000000000 ) ;
#440 = DIRECTION ( 'NONE',  ( -1.000000000000000000, -0.000000000000000000, -0.000000000000000000 ) ) ;
#441 = EDGE_CURVE ( 'NONE', #77, #392, #89, .T. ) ;
#442 = LINE ( 'NONE', #156, #290 ) ;
#443 = AXIS2_PLACEMENT_3D ( 'NONE', #487, #481, #231 ) ;
#444 = LINE ( 'NONE', #526, #195 ) ;
#445 = EDGE_LOOP ( 'NONE', ( #396, #326, #188, #228 ) ) ;
#446 = EDGE_CURVE ( 'NONE', #235, #318, #324, .T. ) ;
#447 = ORIENTED_EDGE ( 'NONE', *, *, #441, .T. ) ;
#448 = DIRECTION ( 'NONE',  ( 1.000000000000000000, 0.000000000000000000, 0.000000000000000000 ) ) ;
#449 = EDGE_CURVE ( 'NONE', #488, #392, #456, .T. ) ;
#450 = FACE_OUTER_BOUND ( 'NONE', #99, .T. ) ;
#451 = CARTESIAN_POINT ( 'NONE',  ( 1.800000000000000044, 0.8000000000000000444, -1.300000000000000266 ) ) ;
#452 = DIRECTION ( 'NONE',  ( -1.000000000000000000, 0.000000000000000000, 0.000000000000000000 ) ) ;
#453 = CARTESIAN_POINT ( 'NONE',  ( 1.800000000000000711, 0.8000000000000000444, 1.299999999999999822 ) ) ;
#454 = ADVANCED_FACE ( 'NONE', ( #117 ), #280, .T. ) ;
#455 = PERSON_AND_ORGANIZATION ( #350, #492 ) ;
#456 = CIRCLE ( 'NONE', #422, 0.2000000000000000944 ) ;
#457 = SPHERICAL_SURFACE ( 'NONE', #341, 0.2000000000000000111 ) ;
#458 = ADVANCED_FACE ( 'NONE', ( #199 ), #72, .T. ) ;
#459 = LINE ( 'NONE', #236, #424 ) ;
#460 = PERSON_AND_ORGANIZATION_ROLE ( 'design_supplier' ) ;
#461 = CARTESIAN_POINT ( 'NONE',  ( 1.800000000000000044, 0.000000000000000000, -1.500000000000000222 ) ) ;
#462 = VECTOR ( 'NONE', #348, 1000.000000000000000 ) ;
#463 = EDGE_LOOP ( 'NONE', ( #479, #60, #261, #51, #34, #190, #183, #304 ) ) ;
#464 = CARTESIAN_POINT ( 'NONE',  ( 1.800000000000000711, 1.000000000000000000, 1.299999999999999822 ) ) ;
#465 = CC_DESIGN_APPROVAL ( #246, ( #105 ) ) ;
#466 = ORIENTED_EDGE ( 'NONE', *, *, #3, .F. ) ;
#467 = PERSON_AND_ORGANIZATION ( #350, #492 ) ;
#468 = CARTESIAN_POINT ( 'NONE',  ( 2.000000000000000000, 0.8000000000000000444, -1.300000000000000266 ) ) ;
#469 = ORIENTED_EDGE ( 'NONE', *, *, #64, .F. ) ;
#470 = CC_DESIGN_PERSON_AND_ORGANIZATION_ASSIGNMENT ( #218, #222, ( #105 ) ) ;
#471 = DIRECTION ( 'NONE',  ( -0.000000000000000000, 1.000000000000000000, -0.000000000000000000 ) ) ;
#472 = ORIENTED_EDGE ( 'NONE', *, *, #64, .T. ) ;
#473 = CYLINDRICAL_SURFACE ( 'NONE', #178, 0.2000000000000000944 ) ;
#474 = ORIENTED_EDGE ( 'NONE', *, *, #15, .F. ) ;
#475 =( GEOMETRIC_REPRESENTATION_CONTEXT ( 3 ) GLOBAL_UNCERTAINTY_ASSIGNED_CONTEXT ( ( #205 ) ) GLOBAL_UNIT_ASSIGNED_CONTEXT ( ( #173, #374, #541 ) ) REPRESENTATION_CONTEXT ( 'NONE', 'WORKASPACE' ) );
#476 = PERSON_AND_ORGANIZATION ( #350, #492 ) ;
#477 = EDGE_CURVE ( 'NONE', #77, #367, #444, .T. ) ;
#478 = PLANE ( 'NONE',  #63 ) ;
#479 = ORIENTED_EDGE ( 'NONE', *, *, #157, .F. ) ;
#480 = COORDINATED_UNIVERSAL_TIME_OFFSET ( 8, 0, .AHEAD. ) ;
#481 = DIRECTION ( 'NONE',  ( -1.000000000000000000, 0.000000000000000000, 0.000000000000000000 ) ) ;
#482 = CIRCLE ( 'NONE', #130, 0.2000000000000000944 ) ;
#483 = CARTESIAN_POINT ( 'NONE',  ( -1.799999999999999156, 0.000000000000000000, 1.499999999999999778 ) ) ;
#484 = AXIS2_PLACEMENT_3D ( 'NONE', #303, #509, #229 ) ;
#485 = DIRECTION ( 'NONE',  ( 2.891205793294678326E-16, -0.000000000000000000, 1.000000000000000000 ) ) ;
#486 = EDGE_LOOP ( 'NONE', ( #507, #265, #301, #203 ) ) ;
#487 = CARTESIAN_POINT ( 'NONE',  ( 0.000000000000000000, 0.8000000000000000444, 1.299999999999999822 ) ) ;
#488 = VERTEX_POINT ( 'NONE', #519 ) ;
#489 = LINE ( 'NONE', #129, #439 ) ;
#490 = APPLICATION_CONTEXT ( 'configuration controlled 3d designs of mechanical parts and assemblies' ) ;
#491 = DIRECTION ( 'NONE',  ( 0.000000000000000000, 0.000000000000000000, 1.000000000000000000 ) ) ;
#492 = ORGANIZATION ( 'UNSPECIFIED', 'UNSPECIFIED', '' ) ;
#493 = FACE_OUTER_BOUND ( 'NONE', #429, .T. ) ;
#494 = ORIENTED_EDGE ( 'NONE', *, *, #179, .T. ) ;
#495 = EDGE_CURVE ( 'NONE', #510, #488, #351, .T. ) ;
#496 = DIRECTION ( 'NONE',  ( 0.000000000000000000, -0.000000000000000000, 1.000000000000000000 ) ) ;
#497 = CIRCLE ( 'NONE', #58, 0.2000000000000000944 ) ;
#498 = DIRECTION ( 'NONE',  ( 0.000000000000000000, 0.000000000000000000, -1.000000000000000000 ) ) ;
#499 = AXIS2_PLACEMENT_3D ( 'NONE', #44, #416, #243 ) ;
#500 = ORIENTED_EDGE ( 'NONE', *, *, #382, .F. ) ;
#501 = CC_DESIGN_PERSON_AND_ORGANIZATION_ASSIGNMENT ( #455, #4, ( #97 ) ) ;
#502 = COORDINATED_UNIVERSAL_TIME_OFFSET ( 8, 0, .AHEAD. ) ;
#503 = DIRECTION ( 'NONE',  ( 0.000000000000000000, 0.000000000000000000, 1.000000000000000000 ) ) ;
#504 = CARTESIAN_POINT ( 'NONE',  ( 1.800000000000000711, 0.8000000000000000444, 1.299999999999999822 ) ) ;
#505 = VERTEX_POINT ( 'NONE', #238 ) ;
#506 = DIRECTION ( 'NONE',  ( -0.000000000000000000, 1.000000000000000000, -0.000000000000000000 ) ) ;
#507 = ORIENTED_EDGE ( 'NONE', *, *, #198, .F. ) ;
#508 = AXIS2_PLACEMENT_3D ( 'NONE', #411, #496, #291 ) ;
#509 = DIRECTION ( 'NONE',  ( -0.000000000000000000, -1.000000000000000000, -0.000000000000000000 ) ) ;
#510 = VERTEX_POINT ( 'NONE', #530 ) ;
#511 = CALENDAR_DATE ( 2026, 22, 3 ) ;
#512 = DIRECTION ( 'NONE',  ( 2.891205793294678326E-16, 0.000000000000000000, 1.000000000000000000 ) ) ;
#513 = ORIENTED_EDGE ( 'NONE', *, *, #344, .F. ) ;
#514 = FACE_OUTER_BOUND ( 'NONE', #209, .T. ) ;
#515 = VERTEX_POINT ( 'NONE', #127 ) ;
#516 = EDGE_CURVE ( 'NONE', #384, #423, #395, .T. ) ;
#517 = EDGE_CURVE ( 'NONE', #515, #104, #315, .T. ) ;
#518 = COORDINATED_UNIVERSAL_TIME_OFFSET ( 8, 0, .AHEAD. ) ;
#519 = CARTESIAN_POINT ( 'NONE',  ( -1.799999999999999156, 1.000000000000000000, 1.299999999999999822 ) ) ;
#520 = APPLICATION_CONTEXT ( 'configuration controlled 3d designs of mechanical parts and assemblies' ) ;
#521 = ORIENTED_EDGE ( 'NONE', *, *, #56, .T. ) ;
#522 = LOCAL_TIME ( 13, 40, 5.000000000000000000, #518 ) ;
#523 = APPROVAL_ROLE ( '' ) ;
#524 = CARTESIAN_POINT ( 'NONE',  ( 1.800000000000000711, 0.8000000000000000444, 1.499999999999999778 ) ) ;
#525 = DIRECTION ( 'NONE',  ( 0.000000000000000000, 0.000000000000000000, -1.000000000000000000 ) ) ;
#526 = CARTESIAN_POINT ( 'NONE',  ( -2.000000000000000000, 0.8000000000000000444, -1.500000000000000222 ) ) ;
#527 = AXIS2_PLACEMENT_3D ( 'NONE', #534, #110, #525 ) ;
#528 = CARTESIAN_POINT ( 'NONE',  ( 0.000000000000000000, 0.000000000000000000, 0.000000000000000000 ) ) ;
#529 = CIRCLE ( 'NONE', #292, 0.2000000000000000944 ) ;
#530 = CARTESIAN_POINT ( 'NONE',  ( -1.800000000000000044, 1.000000000000000000, -1.300000000000000266 ) ) ;
#531 = DIRECTION ( 'NONE',  ( -0.000000000000000000, 1.000000000000000000, 0.000000000000000000 ) ) ;
#532 = AXIS2_PLACEMENT_3D ( 'NONE', #138, #182, #308 ) ;
#533 = AXIS2_PLACEMENT_3D ( 'NONE', #114, #275, #106 ) ;
#534 = CARTESIAN_POINT ( 'NONE',  ( 1.800000000000000044, 1.000000000000000000, -1.300000000000000266 ) ) ;
#535 = DIRECTION ( 'NONE',  ( -0.000000000000000000, -1.000000000000000000, -0.000000000000000000 ) ) ;
#536 = VECTOR ( 'NONE', #506, 1000.000000000000000 ) ;
#537 = VECTOR ( 'NONE', #371, 1000.000000000000000 ) ;
#538 = VECTOR ( 'NONE', #219, 1000.000000000000000 ) ;
#539 = CARTESIAN_POINT ( 'NONE',  ( -1.800000000000000044, 0.000000000000000000, -1.300000000000000266 ) ) ;
#540 = ADVANCED_FACE ( 'NONE', ( #82 ), #478, .F. ) ;
#541 =( NAMED_UNIT ( * ) SI_UNIT ( $, .STERADIAN. ) SOLID_ANGLE_UNIT ( ) );
ENDSEC;
END-ISO-10303-21;
