ISO-10303-21;
HEADER;
FILE_DESCRIPTION (( 'STEP AP203' ),
    '1' );
FILE_NAME ('BAR3X12T2.step',
    '2026-03-22T06:56:08',
    ( '' ),
    ( '' ),
    'SwSTEP 2.0',
    'SolidWorks 2025',
    '' );
FILE_SCHEMA (( 'CONFIG_CONTROL_DESIGN' ));
ENDSEC;

DATA;
#1 = ADVANCED_FACE ( 'NONE', ( #83 ), #467, .T. ) ;
#2 = DATE_AND_TIME ( #369, #175 ) ;
#3 = VERTEX_POINT ( 'NONE', #383 ) ;
#4 = EDGE_CURVE ( 'NONE', #159, #530, #72, .T. ) ;
#5 = ORIENTED_EDGE ( 'NONE', *, *, #136, .T. ) ;
#6 = DIRECTION ( 'NONE',  ( -1.000000000000000000, 0.000000000000000000, 0.000000000000000000 ) ) ;
#7 = CIRCLE ( 'NONE', #319, 0.2000000000000000944 ) ;
#8 = DIRECTION ( 'NONE',  ( 0.000000000000000000, 0.000000000000000000, 1.000000000000000000 ) ) ;
#9 = EDGE_CURVE ( 'NONE', #159, #86, #352, .T. ) ;
#10 = LINE ( 'NONE', #301, #430 ) ;
#11 = ORIENTED_EDGE ( 'NONE', *, *, #185, .F. ) ;
#12 = CIRCLE ( 'NONE', #443, 0.2000000000000000944 ) ;
#13 = CARTESIAN_POINT ( 'NONE',  ( 5.799999999999999822, 1.800000000000000044, 1.300000000000000044 ) ) ;
#14 = FACE_OUTER_BOUND ( 'NONE', #417, .T. ) ;
#15 = EDGE_CURVE ( 'NONE', #212, #246, #126, .T. ) ;
#16 = APPLICATION_CONTEXT ( 'configuration controlled 3d designs of mechanical parts and assemblies' ) ;
#17 = ORIENTED_EDGE ( 'NONE', *, *, #131, .T. ) ;
#18 = CARTESIAN_POINT ( 'NONE',  ( -5.800000000000000711, 1.800000000000000044, 1.500000000000000000 ) ) ;
#19 = CARTESIAN_POINT ( 'NONE',  ( 5.800000000000000711, 2.000000000000000000, -1.500000000000000000 ) ) ;
#20 = AXIS2_PLACEMENT_3D ( 'NONE', #281, #164, #277 ) ;
#21 = LINE ( 'NONE', #308, #373 ) ;
#22 = DIRECTION ( 'NONE',  ( -2.891205793294678326E-16, 0.000000000000000000, 1.000000000000000000 ) ) ;
#23 = PRODUCT ( 'BAR3X12T2', 'BAR3X12T2', '', ( #442 ) ) ;
#24 = CARTESIAN_POINT ( 'NONE',  ( -5.800000000000000711, 1.800000000000000044, -1.300000000000000044 ) ) ;
#25 = PLANE ( 'NONE',  #378 ) ;
#26 = ORIENTED_EDGE ( 'NONE', *, *, #88, .F. ) ;
#27 = CC_DESIGN_PERSON_AND_ORGANIZATION_ASSIGNMENT ( #166, #244, ( #160 ) ) ;
#28 = DIRECTION ( 'NONE',  ( -0.000000000000000000, 0.000000000000000000, 1.000000000000000000 ) ) ;
#29 = AXIS2_PLACEMENT_3D ( 'NONE', #322, #531, #537 ) ;
#30 = ORIENTED_EDGE ( 'NONE', *, *, #342, .F. ) ;
#31 = VERTEX_POINT ( 'NONE', #299 ) ;
#32 = DIRECTION ( 'NONE',  ( -1.000000000000000000, 0.000000000000000000, 0.000000000000000000 ) ) ;
#33 = EDGE_CURVE ( 'NONE', #246, #3, #522, .T. ) ;
#34 = ORIENTED_EDGE ( 'NONE', *, *, #188, .F. ) ;
#35 = EDGE_CURVE ( 'NONE', #215, #86, #183, .T. ) ;
#36 = CARTESIAN_POINT ( 'NONE',  ( -5.800000000000000711, 2.000000000000000000, 1.300000000000000044 ) ) ;
#37 = ORIENTED_EDGE ( 'NONE', *, *, #357, .F. ) ;
#38 = CARTESIAN_POINT ( 'NONE',  ( 5.800000000000001599, 1.800000000000000044, -1.300000000000000044 ) ) ;
#39 = DIRECTION ( 'NONE',  ( 0.000000000000000000, -1.000000000000000000, 0.000000000000000000 ) ) ;
#40 = EDGE_CURVE ( 'NONE', #135, #276, #217, .T. ) ;
#41 = ORIENTED_EDGE ( 'NONE', *, *, #538, .F. ) ;
#42 = LOCAL_TIME ( 14, 56, 8.000000000000000000, #208 ) ;
#43 = ORIENTED_EDGE ( 'NONE', *, *, #424, .T. ) ;
#44 = VECTOR ( 'NONE', #515, 1000.000000000000000 ) ;
#45 = AXIS2_PLACEMENT_3D ( 'NONE', #214, #211, #127 ) ;
#46 = EDGE_LOOP ( 'NONE', ( #51, #436, #239 ) ) ;
#47 = AXIS2_PLACEMENT_3D ( 'NONE', #227, #477, #91 ) ;
#48 = EDGE_CURVE ( 'NONE', #159, #489, #482, .T. ) ;
#49 = ORIENTED_EDGE ( 'NONE', *, *, #93, .T. ) ;
#50 = VECTOR ( 'NONE', #112, 1000.000000000000000 ) ;
#51 = ORIENTED_EDGE ( 'NONE', *, *, #365, .T. ) ;
#52 = UNCERTAINTY_MEASURE_WITH_UNIT (LENGTH_MEASURE( 1.000000000000000082E-05 ), #141, 'distance_accuracy_value', 'NONE');
#53 = FACE_OUTER_BOUND ( 'NONE', #64, .T. ) ;
#54 = VECTOR ( 'NONE', #99, 1000.000000000000000 ) ;
#55 = FACE_OUTER_BOUND ( 'NONE', #505, .T. ) ;
#56 = CARTESIAN_POINT ( 'NONE',  ( -5.800000000000000711, 2.000000000000000000, -1.300000000000000044 ) ) ;
#57 = CYLINDRICAL_SURFACE ( 'NONE', #307, 0.2000000000000000944 ) ;
#58 = CARTESIAN_POINT ( 'NONE',  ( -5.800000000000000711, 1.800000000000000044, 1.300000000000000044 ) ) ;
#59 = AXIS2_PLACEMENT_3D ( 'NONE', #181, #274, #511 ) ;
#60 = LOCAL_TIME ( 14, 56, 8.000000000000000000, #122 ) ;
#61 = DIRECTION ( 'NONE',  ( 0.000000000000000000, 0.000000000000000000, 1.000000000000000000 ) ) ;
#62 = CARTESIAN_POINT ( 'NONE',  ( -6.000000000000000000, 2.000000000000000000, -1.500000000000000000 ) ) ;
#63 = ADVANCED_FACE ( 'NONE', ( #53 ), #146, .F. ) ;
#64 = EDGE_LOOP ( 'NONE', ( #241, #201, #536, #487 ) ) ;
#65 = DIRECTION ( 'NONE',  ( 0.000000000000000000, 0.000000000000000000, 1.000000000000000000 ) ) ;
#66 = DIRECTION ( 'NONE',  ( 0.000000000000000000, -0.000000000000000000, -1.000000000000000000 ) ) ;
#67 = ORIENTED_EDGE ( 'NONE', *, *, #448, .T. ) ;
#68 = CYLINDRICAL_SURFACE ( 'NONE', #29, 0.2000000000000000944 ) ;
#69 = EDGE_LOOP ( 'NONE', ( #453, #192, #370, #111 ) ) ;
#70 = ADVANCED_FACE ( 'NONE', ( #14 ), #25, .F. ) ;
#71 = CYLINDRICAL_SURFACE ( 'NONE', #331, 0.2000000000000000944 ) ;
#72 = CIRCLE ( 'NONE', #363, 0.2000000000000000944 ) ;
#73 = CARTESIAN_POINT ( 'NONE',  ( -5.800000000000000711, 1.800000000000000044, 0.000000000000000000 ) ) ;
#74 = VECTOR ( 'NONE', #394, 1000.000000000000000 ) ;
#75 = PERSON_AND_ORGANIZATION_ROLE ( 'creator' ) ;
#76 = CARTESIAN_POINT ( 'NONE',  ( 5.999999999999999112, 0.000000000000000000, 1.300000000000000044 ) ) ;
#77 = VECTOR ( 'NONE', #196, 1000.000000000000000 ) ;
#78 = CARTESIAN_POINT ( 'NONE',  ( -5.800000000000000711, 0.000000000000000000, -1.300000000000000044 ) ) ;
#79 = PERSON_AND_ORGANIZATION ( #338, #85 ) ;
#80 = AXIS2_PLACEMENT_3D ( 'NONE', #273, #187, #224 ) ;
#81 = PRODUCT_RELATED_PRODUCT_CATEGORY ( 'detail', '', ( #23 ) ) ;
#82 = VECTOR ( 'NONE', #518, 1000.000000000000000 ) ;
#83 = FACE_OUTER_BOUND ( 'NONE', #195, .T. ) ;
#84 = ADVANCED_FACE ( 'NONE', ( #432 ), #356, .F. ) ;
#85 = ORGANIZATION ( 'UNSPECIFIED', 'UNSPECIFIED', '' ) ;
#86 = VERTEX_POINT ( 'NONE', #361 ) ;
#87 = APPROVAL_PERSON_ORGANIZATION ( #411, #253, #153 ) ;
#88 = EDGE_CURVE ( 'NONE', #3, #135, #416, .T. ) ;
#89 = CARTESIAN_POINT ( 'NONE',  ( -5.800000000000000711, 1.800000000000000044, -1.300000000000000044 ) ) ;
#90 = VERTEX_POINT ( 'NONE', #95 ) ;
#91 = DIRECTION ( 'NONE',  ( -1.000000000000000000, 0.000000000000000000, 0.000000000000000000 ) ) ;
#92 = EDGE_LOOP ( 'NONE', ( #17, #49, #26 ) ) ;
#93 = EDGE_CURVE ( 'NONE', #31, #135, #171, .T. ) ;
#94 = DIRECTION ( 'NONE',  ( 0.000000000000000000, 1.000000000000000000, -0.000000000000000000 ) ) ;
#95 = CARTESIAN_POINT ( 'NONE',  ( -5.800000000000000711, 0.000000000000000000, 1.500000000000000000 ) ) ;
#96 = PERSON_AND_ORGANIZATION_ROLE ( 'design_owner' ) ;
#97 = DIRECTION ( 'NONE',  ( 0.000000000000000000, 1.000000000000000000, 0.000000000000000000 ) ) ;
#98 = DIRECTION ( 'NONE',  ( -0.000000000000000000, -1.000000000000000000, 0.000000000000000000 ) ) ;
#99 = DIRECTION ( 'NONE',  ( 1.000000000000000000, 0.000000000000000000, 0.000000000000000000 ) ) ;
#100 = CARTESIAN_POINT ( 'NONE',  ( -5.800000000000000711, 2.000000000000000000, 1.500000000000000000 ) ) ;
#101 = CIRCLE ( 'NONE', #124, 0.2000000000000000944 ) ;
#102 = ADVANCED_FACE ( 'NONE', ( #269 ), #438, .T. ) ;
#103 = EDGE_CURVE ( 'NONE', #407, #215, #395, .T. ) ;
#104 = SPHERICAL_SURFACE ( 'NONE', #165, 0.2000000000000000111 ) ;
#105 = DIRECTION ( 'NONE',  ( 1.000000000000000000, 0.000000000000000000, 0.000000000000000000 ) ) ;
#106 = AXIS2_PLACEMENT_3D ( 'NONE', #143, #61, #193 ) ;
#107 = ORIENTED_EDGE ( 'NONE', *, *, #283, .T. ) ;
#108 = FACE_OUTER_BOUND ( 'NONE', #278, .T. ) ;
#109 = CARTESIAN_POINT ( 'NONE',  ( -5.800000000000000711, 1.800000000000000044, -1.500000000000000000 ) ) ;
#110 = EDGE_CURVE ( 'NONE', #276, #159, #180, .T. ) ;
#111 = ORIENTED_EDGE ( 'NONE', *, *, #48, .F. ) ;
#112 = DIRECTION ( 'NONE',  ( -2.891205793294678326E-16, -0.000000000000000000, 1.000000000000000000 ) ) ;
#113 = APPROVAL_STATUS ( 'not_yet_approved' ) ;
#114 = ORIENTED_EDGE ( 'NONE', *, *, #9, .F. ) ;
#115 = CYLINDRICAL_SURFACE ( 'NONE', #404, 0.2000000000000000944 ) ;
#116 = ORIENTED_EDGE ( 'NONE', *, *, #93, .F. ) ;
#117 = SPHERICAL_SURFACE ( 'NONE', #524, 0.2000000000000000111 ) ;
#118 = AXIS2_PLACEMENT_3D ( 'NONE', #150, #527, #350 ) ;
#119 = SECURITY_CLASSIFICATION_LEVEL ( 'unclassified' ) ;
#120 = ORIENTED_EDGE ( 'NONE', *, *, #399, .F. ) ;
#121 = CARTESIAN_POINT ( 'NONE',  ( 5.799999999999999822, 2.000000000000000000, 1.300000000000000044 ) ) ;
#122 = COORDINATED_UNIVERSAL_TIME_OFFSET ( 8, 0, .AHEAD. ) ;
#123 = CC_DESIGN_PERSON_AND_ORGANIZATION_ASSIGNMENT ( #162, #75, ( #158 ) ) ;
#124 = AXIS2_PLACEMENT_3D ( 'NONE', #261, #426, #345 ) ;
#125 = PERSON_AND_ORGANIZATION ( #338, #85 ) ;
#126 = CIRCLE ( 'NONE', #323, 0.2000000000000000944 ) ;
#127 = DIRECTION ( 'NONE',  ( 0.000000000000000000, 0.000000000000000000, -1.000000000000000000 ) ) ;
#128 = AXIS2_PLACEMENT_3D ( 'NONE', #440, #302, #65 ) ;
#129 = EDGE_CURVE ( 'NONE', #384, #238, #232, .T. ) ;
#130 = ORIENTED_EDGE ( 'NONE', *, *, #170, .T. ) ;
#131 = EDGE_CURVE ( 'NONE', #3, #31, #351, .T. ) ;
#132 = EDGE_LOOP ( 'NONE', ( #321, #340, #116, #205 ) ) ;
#133 = EDGE_LOOP ( 'NONE', ( #315, #484, #114 ) ) ;
#134 = DIRECTION ( 'NONE',  ( -1.000000000000000000, -0.000000000000000000, -0.000000000000000000 ) ) ;
#135 = VERTEX_POINT ( 'NONE', #485 ) ;
#136 = EDGE_CURVE ( 'NONE', #90, #407, #101, .T. ) ;
#137 = DIRECTION ( 'NONE',  ( -1.000000000000000000, 0.000000000000000000, -2.891205793294678326E-16 ) ) ;
#138 = AXIS2_PLACEMENT_3D ( 'NONE', #403, #526, #149 ) ;
#139 = DIRECTION ( 'NONE',  ( 1.000000000000000000, -0.000000000000000000, 0.000000000000000000 ) ) ;
#140 = DIRECTION ( 'NONE',  ( -1.000000000000000000, 0.000000000000000000, -0.000000000000000000 ) ) ;
#141 =( LENGTH_UNIT ( ) NAMED_UNIT ( * ) SI_UNIT ( .MILLI., .METRE. ) );
#142 = CARTESIAN_POINT ( 'NONE',  ( -6.000000000000000000, 0.000000000000000000, 1.500000000000000000 ) ) ;
#143 = CARTESIAN_POINT ( 'NONE',  ( -6.000000000000000000, 2.000000000000000000, -1.500000000000000000 ) ) ;
#144 = EDGE_CURVE ( 'NONE', #489, #215, #502, .T. ) ;
#145 = CARTESIAN_POINT ( 'NONE',  ( 5.999999999999999112, 2.000000000000000000, 1.300000000000000044 ) ) ;
#146 = PLANE ( 'NONE',  #106 ) ;
#147 = AXIS2_PLACEMENT_3D ( 'NONE', #510, #305, #475 ) ;
#148 = ORIENTED_EDGE ( 'NONE', *, *, #88, .T. ) ;
#149 = DIRECTION ( 'NONE',  ( 0.000000000000000000, 0.000000000000000000, -1.000000000000000000 ) ) ;
#150 = CARTESIAN_POINT ( 'NONE',  ( -5.800000000000000711, 1.800000000000000044, 1.300000000000000044 ) ) ;
#151 = EDGE_LOOP ( 'NONE', ( #67, #34, #148, #508 ) ) ;
#152 = DIRECTION ( 'NONE',  ( -4.336808689942015369E-15, 1.000000000000000000, 0.000000000000000000 ) ) ;
#153 = APPROVAL_ROLE ( '' ) ;
#154 = ORIENTED_EDGE ( 'NONE', *, *, #342, .T. ) ;
#155 = CARTESIAN_POINT ( 'NONE',  ( 0.000000000000000000, 1.800000000000000044, 1.300000000000000044 ) ) ;
#156 = APPROVAL_ROLE ( '' ) ;
#157 = AXIS2_PLACEMENT_3D ( 'NONE', #78, #250, #364 ) ;
#158 = PRODUCT_DEFINITION_FORMATION_WITH_SPECIFIED_SOURCE ( 'ANY', '', #23, .NOT_KNOWN. ) ;
#159 = VERTEX_POINT ( 'NONE', #56 ) ;
#160 = SECURITY_CLASSIFICATION ( '', '', #119 ) ;
#161 = CARTESIAN_POINT ( 'NONE',  ( -6.000000000000000000, 1.800000000000000044, 1.300000000000000044 ) ) ;
#162 = PERSON_AND_ORGANIZATION ( #338, #85 ) ;
#163 = EDGE_LOOP ( 'NONE', ( #169, #41, #420, #362 ) ) ;
#164 = DIRECTION ( 'NONE',  ( 0.000000000000000000, 1.000000000000000000, -0.000000000000000000 ) ) ;
#165 = AXIS2_PLACEMENT_3D ( 'NONE', #24, #389, #343 ) ;
#166 = PERSON_AND_ORGANIZATION ( #338, #85 ) ;
#167 = EDGE_CURVE ( 'NONE', #418, #384, #435, .T. ) ;
#168 = DIRECTION ( 'NONE',  ( 0.000000000000000000, 1.000000000000000000, -0.000000000000000000 ) ) ;
#169 = ORIENTED_EDGE ( 'NONE', *, *, #298, .F. ) ;
#170 = EDGE_CURVE ( 'NONE', #215, #341, #237, .T. ) ;
#171 = CIRCLE ( 'NONE', #516, 0.1999999999999996503 ) ;
#172 = EDGE_LOOP ( 'NONE', ( #326, #255, #422, #313 ) ) ;
#173 = DIRECTION ( 'NONE',  ( -0.000000000000000000, -0.000000000000000000, 1.000000000000000000 ) ) ;
#174 = ORIENTED_EDGE ( 'NONE', *, *, #448, .F. ) ;
#175 = LOCAL_TIME ( 14, 56, 8.000000000000000000, #532 ) ;
#176 = SPHERICAL_SURFACE ( 'NONE', #380, 0.2000000000000000111 ) ;
#177 = ORIENTED_EDGE ( 'NONE', *, *, #129, .T. ) ;
#178 = CC_DESIGN_DATE_AND_TIME_ASSIGNMENT ( #286, #289, ( #160 ) ) ;
#179 = DIRECTION ( 'NONE',  ( 0.000000000000000000, 0.000000000000000000, -1.000000000000000000 ) ) ;
#180 = LINE ( 'NONE', #441, #291 ) ;
#181 = CARTESIAN_POINT ( 'NONE',  ( 0.000000000000000000, 0.000000000000000000, 0.000000000000000000 ) ) ;
#182 = DIRECTION ( 'NONE',  ( 0.000000000000000000, 0.000000000000000000, 1.000000000000000000 ) ) ;
#183 = LINE ( 'NONE', #190, #297 ) ;
#184 = SPHERICAL_SURFACE ( 'NONE', #118, 0.2000000000000000111 ) ;
#185 = EDGE_CURVE ( 'NONE', #280, #407, #493, .T. ) ;
#186 = CARTESIAN_POINT ( 'NONE',  ( -5.800000000000000711, 0.000000000000000000, -1.500000000000000000 ) ) ;
#187 = DIRECTION ( 'NONE',  ( -2.891205793294678326E-16, 0.000000000000000000, 1.000000000000000000 ) ) ;
#188 = EDGE_CURVE ( 'NONE', #3, #341, #496, .T. ) ;
#189 = FACE_OUTER_BOUND ( 'NONE', #231, .T. ) ;
#190 = CARTESIAN_POINT ( 'NONE',  ( -6.000000000000000000, 1.800000000000000044, -1.500000000000000000 ) ) ;
#191 = ADVANCED_FACE ( 'NONE', ( #108 ), #329, .T. ) ;
#192 = ORIENTED_EDGE ( 'NONE', *, *, #35, .F. ) ;
#193 = DIRECTION ( 'NONE',  ( 1.000000000000000000, 0.000000000000000000, -0.000000000000000000 ) ) ;
#194 = DIRECTION ( 'NONE',  ( 0.000000000000000000, -1.000000000000000000, 0.000000000000000000 ) ) ;
#195 = EDGE_LOOP ( 'NONE', ( #284, #37, #258, #464 ) ) ;
#196 = DIRECTION ( 'NONE',  ( -1.000000000000000000, -0.000000000000000000, -0.000000000000000000 ) ) ;
#197 = EDGE_CURVE ( 'NONE', #445, #418, #368, .T. ) ;
#198 = ORIENTED_EDGE ( 'NONE', *, *, #48, .T. ) ;
#199 = VECTOR ( 'NONE', #229, 1000.000000000000000 ) ;
#200 = DIRECTION ( 'NONE',  ( 0.000000000000000000, 0.000000000000000000, 1.000000000000000000 ) ) ;
#201 = ORIENTED_EDGE ( 'NONE', *, *, #473, .T. ) ;
#202 = CYLINDRICAL_SURFACE ( 'NONE', #480, 0.1999999999999996503 ) ;
#203 = COORDINATED_UNIVERSAL_TIME_OFFSET ( 8, 0, .AHEAD. ) ;
#204 = AXIS2_PLACEMENT_3D ( 'NONE', #58, #168, #243 ) ;
#205 = ORIENTED_EDGE ( 'NONE', *, *, #283, .F. ) ;
#206 = FACE_OUTER_BOUND ( 'NONE', #233, .T. ) ;
#207 = ADVANCED_FACE ( 'NONE', ( #374 ), #68, .T. ) ;
#208 = COORDINATED_UNIVERSAL_TIME_OFFSET ( 8, 0, .AHEAD. ) ;
#209 = CIRCLE ( 'NONE', #366, 0.2000000000000000944 ) ;
#210 = CALENDAR_DATE ( 2026, 22, 3 ) ;
#211 = DIRECTION ( 'NONE',  ( 1.000000000000000000, -0.000000000000000000, 0.000000000000000000 ) ) ;
#212 = VERTEX_POINT ( 'NONE', #76 ) ;
#213 = CARTESIAN_POINT ( 'NONE',  ( -5.800000000000000711, 1.800000000000000044, -1.300000000000000044 ) ) ;
#214 = CARTESIAN_POINT ( 'NONE',  ( 0.000000000000000000, 1.800000000000000044, -1.300000000000000044 ) ) ;
#215 = VERTEX_POINT ( 'NONE', #161 ) ;
#216 = DIRECTION ( 'NONE',  ( 0.000000000000000000, -1.000000000000000000, 0.000000000000000000 ) ) ;
#217 = LINE ( 'NONE', #19, #271 ) ;
#218 = FACE_OUTER_BOUND ( 'NONE', #92, .T. ) ;
#219 = CARTESIAN_POINT ( 'NONE',  ( 5.800000000000001599, 0.000000000000000000, -1.300000000000000044 ) ) ;
#220 = ADVANCED_FACE ( 'NONE', ( #206 ), #71, .T. ) ;
#221 = PERSON_AND_ORGANIZATION ( #338, #85 ) ;
#222 = ORIENTED_EDGE ( 'NONE', *, *, #185, .T. ) ;
#223 = DIRECTION ( 'NONE',  ( 0.000000000000000000, 0.000000000000000000, 1.000000000000000000 ) ) ;
#224 = DIRECTION ( 'NONE',  ( 1.000000000000000000, 0.000000000000000000, 2.891205793294683257E-16 ) ) ;
#225 = LINE ( 'NONE', #306, #500 ) ;
#226 = VECTOR ( 'NONE', #390, 1000.000000000000000 ) ;
#227 = CARTESIAN_POINT ( 'NONE',  ( 5.800000000000000711, 1.800000000000000044, -1.300000000000000044 ) ) ;
#228 = DIRECTION ( 'NONE',  ( 0.000000000000000000, 0.000000000000000000, -1.000000000000000000 ) ) ;
#229 = DIRECTION ( 'NONE',  ( 0.000000000000000000, -1.000000000000000000, 0.000000000000000000 ) ) ;
#230 = CIRCLE ( 'NONE', #128, 0.2000000000000000944 ) ;
#231 = EDGE_LOOP ( 'NONE', ( #333, #533, #234, #254 ) ) ;
#232 = LINE ( 'NONE', #314, #44 ) ;
#233 = EDGE_LOOP ( 'NONE', ( #495, #30, #499, #447 ) ) ;
#234 = ORIENTED_EDGE ( 'NONE', *, *, #365, .F. ) ;
#235 = CC_DESIGN_PERSON_AND_ORGANIZATION_ASSIGNMENT ( #471, #96, ( #23 ) ) ;
#236 = CARTESIAN_POINT ( 'NONE',  ( 5.799999999999999822, 0.000000000000000000, 1.500000000000000000 ) ) ;
#237 = CIRCLE ( 'NONE', #204, 0.2000000000000000944 ) ;
#238 = VERTEX_POINT ( 'NONE', #405 ) ;
#239 = ORIENTED_EDGE ( 'NONE', *, *, #381, .F. ) ;
#240 = DIRECTION ( 'NONE',  ( 0.000000000000000000, -1.000000000000000000, 0.000000000000000000 ) ) ;
#241 = ORIENTED_EDGE ( 'NONE', *, *, #444, .T. ) ;
#242 = VECTOR ( 'NONE', #139, 1000.000000000000000 ) ;
#243 = DIRECTION ( 'NONE',  ( 0.000000000000000000, 0.000000000000000000, 1.000000000000000000 ) ) ;
#244 = PERSON_AND_ORGANIZATION_ROLE ( 'classification_officer' ) ;
#245 = ADVANCED_FACE ( 'NONE', ( #414 ), #202, .T. ) ;
#246 = VERTEX_POINT ( 'NONE', #236 ) ;
#247 = EDGE_CURVE ( 'NONE', #445, #276, #7, .T. ) ;
#248 = LINE ( 'NONE', #540, #50 ) ;
#249 = AXIS2_PLACEMENT_3D ( 'NONE', #303, #470, #429 ) ;
#250 = DIRECTION ( 'NONE',  ( -0.000000000000000000, -1.000000000000000000, 0.000000000000000000 ) ) ;
#251 = APPROVAL_DATE_TIME ( #535, #528 ) ;
#252 = VECTOR ( 'NONE', #28, 1000.000000000000000 ) ;
#253 = APPROVAL ( #282, 'UNSPECIFIED' ) ;
#254 = ORIENTED_EDGE ( 'NONE', *, *, #129, .F. ) ;
#255 = ORIENTED_EDGE ( 'NONE', *, *, #486, .F. ) ;
#256 = DIRECTION ( 'NONE',  ( 0.000000000000000000, 0.000000000000000000, 1.000000000000000000 ) ) ;
#257 = ADVANCED_FACE ( 'NONE', ( #451 ), #117, .T. ) ;
#258 = ORIENTED_EDGE ( 'NONE', *, *, #4, .F. ) ;
#259 = AXIS2_PLACEMENT_3D ( 'NONE', #219, #98, #266 ) ;
#260 = FACE_OUTER_BOUND ( 'NONE', #492, .T. ) ;
#261 = CARTESIAN_POINT ( 'NONE',  ( -5.800000000000000711, 0.000000000000000000, 1.300000000000000044 ) ) ;
#262 = CARTESIAN_POINT ( 'NONE',  ( 5.800000000000000711, 1.800000000000000044, -1.300000000000000044 ) ) ;
#263 = CARTESIAN_POINT ( 'NONE',  ( -6.000000000000000000, 2.000000000000000000, 1.300000000000000044 ) ) ;
#264 = APPLICATION_PROTOCOL_DEFINITION ( 'international standard', 'config_control_design', 1994, #347 ) ;
#265 = DIRECTION ( 'NONE',  ( 0.000000000000000000, 0.000000000000000000, 1.000000000000000000 ) ) ;
#266 = DIRECTION ( 'NONE',  ( 0.000000000000000000, 0.000000000000000000, 1.000000000000000000 ) ) ;
#267 = FACE_OUTER_BOUND ( 'NONE', #287, .T. ) ;
#268 = CARTESIAN_POINT ( 'NONE',  ( 6.000000000000000000, 0.000000000000000000, -1.500000000000000000 ) ) ;
#269 = FACE_OUTER_BOUND ( 'NONE', #132, .T. ) ;
#270 = CC_DESIGN_APPROVAL ( #253, ( #158 ) ) ;
#271 = VECTOR ( 'NONE', #311, 1000.000000000000000 ) ;
#272 = CARTESIAN_POINT ( 'NONE',  ( 5.800000000000001599, 1.800000000000000044, -1.500000000000000000 ) ) ;
#273 = CARTESIAN_POINT ( 'NONE',  ( 5.799999999999999822, 1.800000000000000044, 1.676899360110913262E-15 ) ) ;
#274 = DIRECTION ( 'NONE',  ( 0.000000000000000000, 0.000000000000000000, 1.000000000000000000 ) ) ;
#275 = CC_DESIGN_PERSON_AND_ORGANIZATION_ASSIGNMENT ( #79, #325, ( #158 ) ) ;
#276 = VERTEX_POINT ( 'NONE', #454 ) ;
#277 = DIRECTION ( 'NONE',  ( 0.000000000000000000, 0.000000000000000000, 1.000000000000000000 ) ) ;
#278 = EDGE_LOOP ( 'NONE', ( #198, #318, #294, #459 ) ) ;
#279 = DIRECTION ( 'NONE',  ( 0.000000000000000000, 0.000000000000000000, 1.000000000000000000 ) ) ;
#280 = VERTEX_POINT ( 'NONE', #490 ) ;
#281 = CARTESIAN_POINT ( 'NONE',  ( 0.000000000000000000, 2.000000000000000000, 0.000000000000000000 ) ) ;
#282 = APPROVAL_STATUS ( 'not_yet_approved' ) ;
#283 = EDGE_CURVE ( 'NONE', #238, #31, #248, .T. ) ;
#284 = ORIENTED_EDGE ( 'NONE', *, *, #247, .F. ) ;
#285 = DIRECTION ( 'NONE',  ( 0.000000000000000000, -0.000000000000000000, -1.000000000000000000 ) ) ;
#286 = DATE_AND_TIME ( #498, #295 ) ;
#287 = EDGE_LOOP ( 'NONE', ( #222, #501, #396, #293 ) ) ;
#288 = FACE_OUTER_BOUND ( 'NONE', #172, .T. ) ;
#289 = DATE_TIME_ROLE ( 'classification_date' ) ;
#290 = SHAPE_DEFINITION_REPRESENTATION ( #400, #462 ) ;
#291 = VECTOR ( 'NONE', #398, 1000.000000000000000 ) ;
#292 = ADVANCED_FACE ( 'NONE', ( #288 ), #115, .T. ) ;
#293 = ORIENTED_EDGE ( 'NONE', *, *, #538, .T. ) ;
#294 = ORIENTED_EDGE ( 'NONE', *, *, #40, .T. ) ;
#295 = LOCAL_TIME ( 14, 56, 8.000000000000000000, #328 ) ;
#296 = DIRECTION ( 'NONE',  ( -0.000000000000000000, -1.000000000000000000, 0.000000000000000000 ) ) ;
#297 = VECTOR ( 'NONE', #66, 1000.000000000000000 ) ;
#298 = EDGE_CURVE ( 'NONE', #280, #377, #391, .T. ) ;
#299 = CARTESIAN_POINT ( 'NONE',  ( 5.999999999999999112, 1.800000000000000044, 1.300000000000000044 ) ) ;
#300 = ORIENTED_EDGE ( 'NONE', *, *, #424, .F. ) ;
#301 = CARTESIAN_POINT ( 'NONE',  ( -5.800000000000000711, 2.000000000000000000, -1.500000000000000000 ) ) ;
#302 = DIRECTION ( 'NONE',  ( 1.000000000000000000, -0.000000000000000000, -0.000000000000000000 ) ) ;
#303 = CARTESIAN_POINT ( 'NONE',  ( -5.800000000000000711, 1.800000000000000044, 1.300000000000000044 ) ) ;
#304 = CARTESIAN_POINT ( 'NONE',  ( 5.800000000000001599, 0.000000000000000000, -1.500000000000000000 ) ) ;
#305 = DIRECTION ( 'NONE',  ( 0.000000000000000000, 1.000000000000000000, 0.000000000000000000 ) ) ;
#306 = CARTESIAN_POINT ( 'NONE',  ( 5.999999999999999112, 2.000000000000000000, 1.300000000000000044 ) ) ;
#307 = AXIS2_PLACEMENT_3D ( 'NONE', #509, #425, #179 ) ;
#308 = CARTESIAN_POINT ( 'NONE',  ( -6.000000000000000000, 0.000000000000000000, -1.500000000000000000 ) ) ;
#309 = CARTESIAN_POINT ( 'NONE',  ( 5.799999999999999822, 2.000000000000000000, 1.500000000000000000 ) ) ;
#310 = DIRECTION ( 'NONE',  ( -0.000000000000000000, 1.000000000000000000, 0.000000000000000000 ) ) ;
#311 = DIRECTION ( 'NONE',  ( 2.891205793294678326E-16, -0.000000000000000000, -1.000000000000000000 ) ) ;
#312 = CARTESIAN_POINT ( 'NONE',  ( -5.800000000000000711, 2.000000000000000000, 1.300000000000000044 ) ) ;
#313 = ORIENTED_EDGE ( 'NONE', *, *, #33, .F. ) ;
#314 = CARTESIAN_POINT ( 'NONE',  ( 6.000000000000000000, 2.000000000000000000, -1.300000000000000044 ) ) ;
#315 = ORIENTED_EDGE ( 'NONE', *, *, #4, .T. ) ;
#316 = DIRECTION ( 'NONE',  ( 0.000000000000000000, 1.000000000000000000, 0.000000000000000000 ) ) ;
#317 = PERSON_AND_ORGANIZATION ( #338, #85 ) ;
#318 = ORIENTED_EDGE ( 'NONE', *, *, #359, .T. ) ;
#319 = AXIS2_PLACEMENT_3D ( 'NONE', #38, #534, #152 ) ;
#320 = DIRECTION ( 'NONE',  ( 0.000000000000000000, -1.000000000000000000, 0.000000000000000000 ) ) ;
#321 = ORIENTED_EDGE ( 'NONE', *, *, #381, .T. ) ;
#322 = CARTESIAN_POINT ( 'NONE',  ( -5.800000000000000711, 2.000000000000000000, -1.300000000000000044 ) ) ;
#323 = AXIS2_PLACEMENT_3D ( 'NONE', #503, #296, #256 ) ;
#324 = AXIS2_PLACEMENT_3D ( 'NONE', #89, #173, #336 ) ;
#325 = PERSON_AND_ORGANIZATION_ROLE ( 'design_supplier' ) ;
#326 = ORIENTED_EDGE ( 'NONE', *, *, #15, .F. ) ;
#327 = DIRECTION ( 'NONE',  ( 0.000000000000000000, 0.000000000000000000, -1.000000000000000000 ) ) ;
#328 = COORDINATED_UNIVERSAL_TIME_OFFSET ( 8, 0, .AHEAD. ) ;
#329 = PLANE ( 'NONE',  #20 ) ;
#330 = APPROVAL_DATE_TIME ( #497, #332 ) ;
#331 = AXIS2_PLACEMENT_3D ( 'NONE', #36, #240, #327 ) ;
#332 = APPROVAL ( #494, 'UNSPECIFIED' ) ;
#333 = ORIENTED_EDGE ( 'NONE', *, *, #167, .F. ) ;
#334 = ORIENTED_EDGE ( 'NONE', *, *, #15, .T. ) ;
#335 = ADVANCED_FACE ( 'NONE', ( #449 ), #415, .T. ) ;
#336 = DIRECTION ( 'NONE',  ( -1.000000000000000000, 0.000000000000000000, 0.000000000000000000 ) ) ;
#337 = ADVANCED_FACE ( 'NONE', ( #353 ), #104, .T. ) ;
#338 = PERSON ( 'UNSPECIFIED', 'UNSPECIFIED', 'UNSPECIFIED', ('UNSPECIFIED'), ('UNSPECIFIED'), ('UNSPECIFIED') ) ;
#339 = CC_DESIGN_SECURITY_CLASSIFICATION ( #160, ( #158 ) ) ;
#340 = ORIENTED_EDGE ( 'NONE', *, *, #40, .F. ) ;
#341 = VERTEX_POINT ( 'NONE', #18 ) ;
#342 = EDGE_CURVE ( 'NONE', #341, #90, #431, .T. ) ;
#343 = DIRECTION ( 'NONE',  ( -1.000000000000000000, 0.000000000000000000, 0.000000000000000000 ) ) ;
#344 = CARTESIAN_POINT ( 'NONE',  ( -6.000000000000000000, 0.000000000000000000, 1.300000000000000044 ) ) ;
#345 = DIRECTION ( 'NONE',  ( 0.000000000000000000, 0.000000000000000000, 1.000000000000000000 ) ) ;
#346 = PRODUCT_DEFINITION ( 'UNKNOWN', '', #158, #427 ) ;
#347 = APPLICATION_CONTEXT ( 'configuration controlled 3d designs of mechanical parts and assemblies' ) ;
#348 = LINE ( 'NONE', #145, #242 ) ;
#349 = CARTESIAN_POINT ( 'NONE',  ( 6.000000000000000000, 2.000000000000000000, -1.500000000000000000 ) ) ;
#350 = DIRECTION ( 'NONE',  ( 0.000000000000000000, 0.000000000000000000, 1.000000000000000000 ) ) ;
#351 = CIRCLE ( 'NONE', #147, 0.2000000000000000944 ) ;
#352 = CIRCLE ( 'NONE', #324, 0.1999999999999996503 ) ;
#353 = FACE_OUTER_BOUND ( 'NONE', #133, .T. ) ;
#354 = DIRECTION ( 'NONE',  ( -0.000000000000000000, 1.000000000000000000, -0.000000000000000000 ) ) ;
#355 = CARTESIAN_POINT ( 'NONE',  ( 6.000000000000000000, 0.000000000000000000, -1.300000000000000044 ) ) ;
#356 = PLANE ( 'NONE',  #385 ) ;
#357 = EDGE_CURVE ( 'NONE', #530, #445, #437, .T. ) ;
#358 = PLANE ( 'NONE',  #421 ) ;
#359 = EDGE_CURVE ( 'NONE', #489, #135, #348, .T. ) ;
#360 = ORIENTED_EDGE ( 'NONE', *, *, #486, .T. ) ;
#361 = CARTESIAN_POINT ( 'NONE',  ( -6.000000000000000000, 1.800000000000000044, -1.300000000000000044 ) ) ;
#362 = ORIENTED_EDGE ( 'NONE', *, *, #473, .F. ) ;
#363 = AXIS2_PLACEMENT_3D ( 'NONE', #213, #6, #8 ) ;
#364 = DIRECTION ( 'NONE',  ( 0.000000000000000000, 0.000000000000000000, 1.000000000000000000 ) ) ;
#365 = EDGE_CURVE ( 'NONE', #238, #445, #12, .T. ) ;
#366 = AXIS2_PLACEMENT_3D ( 'NONE', #481, #97, #265 ) ;
#367 = CARTESIAN_POINT ( 'NONE',  ( -6.000000000000000000, 0.000000000000000000, -1.500000000000000000 ) ) ;
#368 = LINE ( 'NONE', #446, #413 ) ;
#369 = CALENDAR_DATE ( 2026, 22, 3 ) ;
#370 = ORIENTED_EDGE ( 'NONE', *, *, #144, .F. ) ;
#371 = CARTESIAN_POINT ( 'NONE',  ( 5.800000000000000711, 1.800000000000000044, -1.300000000000000044 ) ) ;
#372 = DATE_TIME_ROLE ( 'creation_date' ) ;
#373 = VECTOR ( 'NONE', #134, 1000.000000000000000 ) ;
#374 = FACE_OUTER_BOUND ( 'NONE', #163, .T. ) ;
#375 = CC_DESIGN_DATE_AND_TIME_ASSIGNMENT ( #456, #372, ( #346 ) ) ;
#376 = PERSON_AND_ORGANIZATION_ROLE ( 'creator' ) ;
#377 = VERTEX_POINT ( 'NONE', #186 ) ;
#378 = AXIS2_PLACEMENT_3D ( 'NONE', #478, #228, #140 ) ;
#379 = ADVANCED_FACE ( 'NONE', ( #189 ), #57, .T. ) ;
#380 = AXIS2_PLACEMENT_3D ( 'NONE', #13, #428, #507 ) ;
#381 = EDGE_CURVE ( 'NONE', #238, #276, #519, .T. ) ;
#382 = EDGE_LOOP ( 'NONE', ( #43, #177, #107, #360 ) ) ;
#383 = CARTESIAN_POINT ( 'NONE',  ( 5.799999999999999822, 1.800000000000000044, 1.500000000000000000 ) ) ;
#384 = VERTEX_POINT ( 'NONE', #355 ) ;
#385 = AXIS2_PLACEMENT_3D ( 'NONE', #349, #137, #22 ) ;
#386 = CARTESIAN_POINT ( 'NONE',  ( 0.000000000000000000, 0.000000000000000000, 0.000000000000000000 ) ) ;
#387 = CARTESIAN_POINT ( 'NONE',  ( 5.799999999999999822, 1.800000000000000044, 1.300000000000000044 ) ) ;
#388 = ADVANCED_FACE ( 'NONE', ( #55 ), #397, .F. ) ;
#389 = DIRECTION ( 'NONE',  ( 0.000000000000000000, 1.000000000000000000, 0.000000000000000000 ) ) ;
#390 = DIRECTION ( 'NONE',  ( -0.000000000000000000, 1.000000000000000000, -0.000000000000000000 ) ) ;
#391 = CIRCLE ( 'NONE', #157, 0.2000000000000000944 ) ;
#392 = MANIFOLD_SOLID_BREP ( '\X2\570689d2\X0\1', #472 ) ;
#393 = APPROVAL_PERSON_ORGANIZATION ( #221, #332, #539 ) ;
#394 = DIRECTION ( 'NONE',  ( 2.891205793294678326E-16, -0.000000000000000000, -1.000000000000000000 ) ) ;
#395 = LINE ( 'NONE', #263, #529 ) ;
#396 = ORIENTED_EDGE ( 'NONE', *, *, #35, .T. ) ;
#397 = PLANE ( 'NONE',  #506 ) ;
#398 = DIRECTION ( 'NONE',  ( -1.000000000000000000, 0.000000000000000000, 0.000000000000000000 ) ) ;
#399 = EDGE_CURVE ( 'NONE', #90, #246, #521, .T. ) ;
#400 = PRODUCT_DEFINITION_SHAPE ( 'NONE', 'NONE',  #346 ) ;
#401 = LINE ( 'NONE', #523, #199 ) ;
#402 = VECTOR ( 'NONE', #216, 1000.000000000000000 ) ;
#403 = CARTESIAN_POINT ( 'NONE',  ( 5.799999999999999822, 1.800000000000000044, 1.300000000000000044 ) ) ;
#404 = AXIS2_PLACEMENT_3D ( 'NONE', #121, #320, #455 ) ;
#405 = CARTESIAN_POINT ( 'NONE',  ( 6.000000000000000000, 1.800000000000000044, -1.300000000000000044 ) ) ;
#406 = DIRECTION ( 'NONE',  ( 1.000000000000000000, 0.000000000000000000, 0.000000000000000000 ) ) ;
#407 = VERTEX_POINT ( 'NONE', #344 ) ;
#408 = DIRECTION ( 'NONE',  ( -1.000000000000000000, 0.000000000000000000, -4.336808689942024836E-15 ) ) ;
#409 = ORIENTED_EDGE ( 'NONE', *, *, #188, .T. ) ;
#410 = CARTESIAN_POINT ( 'NONE',  ( -6.000000000000000000, 1.800000000000000044, 1.500000000000000000 ) ) ;
#411 = PERSON_AND_ORGANIZATION ( #338, #85 ) ;
#412 = ORIENTED_EDGE ( 'NONE', *, *, #444, .F. ) ;
#413 = VECTOR ( 'NONE', #39, 1000.000000000000000 ) ;
#414 = FACE_OUTER_BOUND ( 'NONE', #69, .T. ) ;
#415 = CYLINDRICAL_SURFACE ( 'NONE', #458, 0.2000000000000000944 ) ;
#416 = CIRCLE ( 'NONE', #138, 0.2000000000000000944 ) ;
#417 = EDGE_LOOP ( 'NONE', ( #409, #154, #450, #463 ) ) ;
#418 = VERTEX_POINT ( 'NONE', #304 ) ;
#419 = CC_DESIGN_APPROVAL ( #332, ( #346 ) ) ;
#420 = ORIENTED_EDGE ( 'NONE', *, *, #433, .F. ) ;
#421 = AXIS2_PLACEMENT_3D ( 'NONE', #62, #406, #517 ) ;
#422 = ORIENTED_EDGE ( 'NONE', *, *, #131, .F. ) ;
#423 = ORIENTED_EDGE ( 'NONE', *, *, #144, .T. ) ;
#424 = EDGE_CURVE ( 'NONE', #212, #384, #514, .T. ) ;
#425 = DIRECTION ( 'NONE',  ( 0.000000000000000000, -1.000000000000000000, 0.000000000000000000 ) ) ;
#426 = DIRECTION ( 'NONE',  ( -0.000000000000000000, -1.000000000000000000, 0.000000000000000000 ) ) ;
#427 = DESIGN_CONTEXT ( 'detailed design', #347, 'design' ) ;
#428 = DIRECTION ( 'NONE',  ( -0.000000000000000000, 1.000000000000000000, 0.000000000000000000 ) ) ;
#429 = DIRECTION ( 'NONE',  ( 1.000000000000000000, 0.000000000000000000, 0.000000000000000000 ) ) ;
#430 = VECTOR ( 'NONE', #466, 1000.000000000000000 ) ;
#431 = LINE ( 'NONE', #469, #402 ) ;
#432 = FACE_OUTER_BOUND ( 'NONE', #382, .T. ) ;
#433 = EDGE_CURVE ( 'NONE', #530, #86, #209, .T. ) ;
#434 =( NAMED_UNIT ( * ) PLANE_ANGLE_UNIT ( ) SI_UNIT ( $, .RADIAN. ) );
#435 = CIRCLE ( 'NONE', #259, 0.2000000000000000944 ) ;
#436 = ORIENTED_EDGE ( 'NONE', *, *, #247, .T. ) ;
#437 = LINE ( 'NONE', #474, #82 ) ;
#438 = CYLINDRICAL_SURFACE ( 'NONE', #80, 0.1999999999999996503 ) ;
#439 = CC_DESIGN_APPROVAL ( #528, ( #160 ) ) ;
#440 = CARTESIAN_POINT ( 'NONE',  ( -5.800000000000000711, 1.800000000000000044, 1.300000000000000044 ) ) ;
#441 = CARTESIAN_POINT ( 'NONE',  ( -6.000000000000000000, 2.000000000000000000, -1.300000000000000044 ) ) ;
#442 = MECHANICAL_CONTEXT ( 'NONE', #16, 'mechanical' ) ;
#443 = AXIS2_PLACEMENT_3D ( 'NONE', #262, #310, #223 ) ;
#444 = EDGE_CURVE ( 'NONE', #418, #377, #21, .T. ) ;
#445 = VERTEX_POINT ( 'NONE', #272 ) ;
#446 = CARTESIAN_POINT ( 'NONE',  ( 5.800000000000001599, 2.000000000000000000, -1.500000000000000000 ) ) ;
#447 = ORIENTED_EDGE ( 'NONE', *, *, #103, .F. ) ;
#448 = EDGE_CURVE ( 'NONE', #489, #341, #230, .T. ) ;
#449 = FACE_OUTER_BOUND ( 'NONE', #151, .T. ) ;
#450 = ORIENTED_EDGE ( 'NONE', *, *, #399, .T. ) ;
#451 = FACE_OUTER_BOUND ( 'NONE', #46, .T. ) ;
#452 = APPROVAL_DATE_TIME ( #2, #253 ) ;
#453 = ORIENTED_EDGE ( 'NONE', *, *, #9, .T. ) ;
#454 = CARTESIAN_POINT ( 'NONE',  ( 5.800000000000000711, 2.000000000000000000, -1.300000000000000044 ) ) ;
#455 = DIRECTION ( 'NONE',  ( 0.000000000000000000, 0.000000000000000000, -1.000000000000000000 ) ) ;
#456 = DATE_AND_TIME ( #210, #460 ) ;
#457 = ADVANCED_FACE ( 'NONE', ( #218 ), #176, .T. ) ;
#458 = AXIS2_PLACEMENT_3D ( 'NONE', #155, #488, #279 ) ;
#459 = ORIENTED_EDGE ( 'NONE', *, *, #110, .T. ) ;
#460 = LOCAL_TIME ( 14, 56, 8.000000000000000000, #203 ) ;
#461 = APPROVAL_PERSON_ORGANIZATION ( #317, #528, #156 ) ;
#462 = ADVANCED_BREP_SHAPE_REPRESENTATION ( 'BAR3X12T2', ( #392, #59 ), #513 ) ;
#463 = ORIENTED_EDGE ( 'NONE', *, *, #33, .T. ) ;
#464 = ORIENTED_EDGE ( 'NONE', *, *, #110, .F. ) ;
#465 = CC_DESIGN_PERSON_AND_ORGANIZATION_ASSIGNMENT ( #125, #376, ( #346 ) ) ;
#466 = DIRECTION ( 'NONE',  ( -0.000000000000000000, 1.000000000000000000, -0.000000000000000000 ) ) ;
#467 = CYLINDRICAL_SURFACE ( 'NONE', #45, 0.2000000000000000944 ) ;
#468 = VECTOR ( 'NONE', #200, 1000.000000000000000 ) ;
#469 = CARTESIAN_POINT ( 'NONE',  ( -5.800000000000000711, 2.000000000000000000, 1.500000000000000000 ) ) ;
#470 = DIRECTION ( 'NONE',  ( 0.000000000000000000, -0.000000000000000000, 1.000000000000000000 ) ) ;
#471 = PERSON_AND_ORGANIZATION ( #338, #85 ) ;
#472 = CLOSED_SHELL ( 'NONE', ( #84, #63, #512, #70, #191, #388, #207, #1, #379, #337, #257, #220, #245, #102, #292, #476, #457, #335 ) ) ;
#473 = EDGE_CURVE ( 'NONE', #377, #530, #10, .T. ) ;
#474 = CARTESIAN_POINT ( 'NONE',  ( 6.000000000000000000, 1.800000000000000044, -1.500000000000000000 ) ) ;
#475 = DIRECTION ( 'NONE',  ( 0.000000000000000000, 0.000000000000000000, 1.000000000000000000 ) ) ;
#476 = ADVANCED_FACE ( 'NONE', ( #260 ), #184, .T. ) ;
#477 = DIRECTION ( 'NONE',  ( -0.000000000000000000, -0.000000000000000000, 1.000000000000000000 ) ) ;
#478 = CARTESIAN_POINT ( 'NONE',  ( -6.000000000000000000, 2.000000000000000000, 1.500000000000000000 ) ) ;
#479 =( NAMED_UNIT ( * ) SI_UNIT ( $, .STERADIAN. ) SOLID_ANGLE_UNIT ( ) );
#480 = AXIS2_PLACEMENT_3D ( 'NONE', #73, #285, #32 ) ;
#481 = CARTESIAN_POINT ( 'NONE',  ( -5.800000000000000711, 1.800000000000000044, -1.300000000000000044 ) ) ;
#482 = LINE ( 'NONE', #100, #252 ) ;
#483 = APPLICATION_PROTOCOL_DEFINITION ( 'international standard', 'config_control_design', 1994, #16 ) ;
#484 = ORIENTED_EDGE ( 'NONE', *, *, #433, .T. ) ;
#485 = CARTESIAN_POINT ( 'NONE',  ( 5.799999999999999822, 2.000000000000000000, 1.300000000000000044 ) ) ;
#486 = EDGE_CURVE ( 'NONE', #31, #212, #225, .T. ) ;
#487 = ORIENTED_EDGE ( 'NONE', *, *, #197, .T. ) ;
#488 = DIRECTION ( 'NONE',  ( -1.000000000000000000, 0.000000000000000000, 0.000000000000000000 ) ) ;
#489 = VERTEX_POINT ( 'NONE', #312 ) ;
#490 = CARTESIAN_POINT ( 'NONE',  ( -6.000000000000000000, 0.000000000000000000, -1.300000000000000044 ) ) ;
#491 = CALENDAR_DATE ( 2026, 22, 3 ) ;
#492 = EDGE_LOOP ( 'NONE', ( #423, #130, #174 ) ) ;
#493 = LINE ( 'NONE', #367, #468 ) ;
#494 = APPROVAL_STATUS ( 'not_yet_approved' ) ;
#495 = ORIENTED_EDGE ( 'NONE', *, *, #136, .F. ) ;
#496 = LINE ( 'NONE', #410, #77 ) ;
#497 = DATE_AND_TIME ( #491, #42 ) ;
#498 = CALENDAR_DATE ( 2026, 22, 3 ) ;
#499 = ORIENTED_EDGE ( 'NONE', *, *, #170, .F. ) ;
#500 = VECTOR ( 'NONE', #194, 1000.000000000000000 ) ;
#501 = ORIENTED_EDGE ( 'NONE', *, *, #103, .T. ) ;
#502 = CIRCLE ( 'NONE', #249, 0.1999999999999996503 ) ;
#503 = CARTESIAN_POINT ( 'NONE',  ( 5.799999999999999822, 0.000000000000000000, 1.300000000000000044 ) ) ;
#504 = ORIENTED_EDGE ( 'NONE', *, *, #167, .T. ) ;
#505 = EDGE_LOOP ( 'NONE', ( #120, #5, #11, #525, #412, #504, #300, #334 ) ) ;
#506 = AXIS2_PLACEMENT_3D ( 'NONE', #386, #94, #182 ) ;
#507 = DIRECTION ( 'NONE',  ( 0.000000000000000000, 0.000000000000000000, -1.000000000000000000 ) ) ;
#508 = ORIENTED_EDGE ( 'NONE', *, *, #359, .F. ) ;
#509 = CARTESIAN_POINT ( 'NONE',  ( 5.800000000000001599, 2.000000000000000000, -1.300000000000000044 ) ) ;
#510 = CARTESIAN_POINT ( 'NONE',  ( 5.799999999999999822, 1.800000000000000044, 1.300000000000000044 ) ) ;
#511 = DIRECTION ( 'NONE',  ( 1.000000000000000000, 0.000000000000000000, 0.000000000000000000 ) ) ;
#512 = ADVANCED_FACE ( 'NONE', ( #267 ), #358, .F. ) ;
#513 =( GEOMETRIC_REPRESENTATION_CONTEXT ( 3 ) GLOBAL_UNCERTAINTY_ASSIGNED_CONTEXT ( ( #52 ) ) GLOBAL_UNIT_ASSIGNED_CONTEXT ( ( #141, #434, #479 ) ) REPRESENTATION_CONTEXT ( 'NONE', 'WORKASPACE' ) );
#514 = LINE ( 'NONE', #268, #74 ) ;
#515 = DIRECTION ( 'NONE',  ( -0.000000000000000000, 1.000000000000000000, -0.000000000000000000 ) ) ;
#516 = AXIS2_PLACEMENT_3D ( 'NONE', #387, #520, #105 ) ;
#517 = DIRECTION ( 'NONE',  ( 0.000000000000000000, 0.000000000000000000, -1.000000000000000000 ) ) ;
#518 = DIRECTION ( 'NONE',  ( 1.000000000000000000, -0.000000000000000000, -0.000000000000000000 ) ) ;
#519 = CIRCLE ( 'NONE', #47, 0.1999999999999996503 ) ;
#520 = DIRECTION ( 'NONE',  ( 0.000000000000000000, 0.000000000000000000, 1.000000000000000000 ) ) ;
#521 = LINE ( 'NONE', #142, #54 ) ;
#522 = LINE ( 'NONE', #309, #226 ) ;
#523 = CARTESIAN_POINT ( 'NONE',  ( -6.000000000000000000, 2.000000000000000000, -1.300000000000000044 ) ) ;
#524 = AXIS2_PLACEMENT_3D ( 'NONE', #371, #316, #408 ) ;
#525 = ORIENTED_EDGE ( 'NONE', *, *, #298, .T. ) ;
#526 = DIRECTION ( 'NONE',  ( -1.000000000000000000, -0.000000000000000000, -0.000000000000000000 ) ) ;
#527 = DIRECTION ( 'NONE',  ( 0.000000000000000000, 1.000000000000000000, -0.000000000000000000 ) ) ;
#528 = APPROVAL ( #113, 'UNSPECIFIED' ) ;
#529 = VECTOR ( 'NONE', #354, 1000.000000000000000 ) ;
#530 = VERTEX_POINT ( 'NONE', #109 ) ;
#531 = DIRECTION ( 'NONE',  ( 0.000000000000000000, -1.000000000000000000, 0.000000000000000000 ) ) ;
#532 = COORDINATED_UNIVERSAL_TIME_OFFSET ( 8, 0, .AHEAD. ) ;
#533 = ORIENTED_EDGE ( 'NONE', *, *, #197, .F. ) ;
#534 = DIRECTION ( 'NONE',  ( 1.000000000000000000, 4.336808689942016158E-15, 0.000000000000000000 ) ) ;
#535 = DATE_AND_TIME ( #541, #60 ) ;
#536 = ORIENTED_EDGE ( 'NONE', *, *, #357, .T. ) ;
#537 = DIRECTION ( 'NONE',  ( 0.000000000000000000, 0.000000000000000000, -1.000000000000000000 ) ) ;
#538 = EDGE_CURVE ( 'NONE', #86, #280, #401, .T. ) ;
#539 = APPROVAL_ROLE ( '' ) ;
#540 = CARTESIAN_POINT ( 'NONE',  ( 5.999999999999999112, 1.800000000000000044, 1.500000000000000000 ) ) ;
#541 = CALENDAR_DATE ( 2026, 22, 3 ) ;
ENDSEC;
END-ISO-10303-21;
