ISO-10303-21;
HEADER;
FILE_DESCRIPTION (( 'STEP AP203' ),
    '1' );
FILE_NAME ('BAR3X18T2.step',
    '2026-03-22T06:57:01',
    ( '' ),
    ( '' ),
    'SwSTEP 2.0',
    'SolidWorks 2025',
    '' );
FILE_SCHEMA (( 'CONFIG_CONTROL_DESIGN' ));
ENDSEC;

DATA;
#1 = ADVANCED_FACE ( 'NONE', ( #273 ), #478, .F. ) ;
#2 = DIRECTION ( 'NONE',  ( 0.000000000000000000, 0.000000000000000000, 1.000000000000000000 ) ) ;
#3 = PERSON_AND_ORGANIZATION ( #286, #201 ) ;
#4 =( NAMED_UNIT ( * ) SI_UNIT ( $, .STERADIAN. ) SOLID_ANGLE_UNIT ( ) );
#5 = CIRCLE ( 'NONE', #426, 0.2000000000000005107 ) ;
#6 = CARTESIAN_POINT ( 'NONE',  ( 8.799999999999998934, 1.800000000000000044, 1.299999999999999600 ) ) ;
#7 = DIRECTION ( 'NONE',  ( -0.000000000000000000, -1.000000000000000000, -0.000000000000000000 ) ) ;
#8 = ORIENTED_EDGE ( 'NONE', *, *, #472, .F. ) ;
#9 = CARTESIAN_POINT ( 'NONE',  ( 8.799999999999998934, 1.800000000000000044, 1.299999999999999600 ) ) ;
#10 = ADVANCED_FACE ( 'NONE', ( #137 ), #351, .T. ) ;
#11 = CARTESIAN_POINT ( 'NONE',  ( 9.000000000000000000, 1.800000000000000044, 1.299999999999999600 ) ) ;
#12 = VERTEX_POINT ( 'NONE', #98 ) ;
#13 = ORIENTED_EDGE ( 'NONE', *, *, #92, .T. ) ;
#14 = SPHERICAL_SURFACE ( 'NONE', #261, 0.2000000000000000111 ) ;
#15 = APPROVAL_PERSON_ORGANIZATION ( #121, #371, #296 ) ;
#16 = EDGE_LOOP ( 'NONE', ( #182, #187, #226 ) ) ;
#17 = CIRCLE ( 'NONE', #440, 0.2000000000000000944 ) ;
#18 = CARTESIAN_POINT ( 'NONE',  ( 0.000000000000000000, 1.800000000000000044, 1.299999999999999600 ) ) ;
#19 = ORIENTED_EDGE ( 'NONE', *, *, #345, .F. ) ;
#20 = AXIS2_PLACEMENT_3D ( 'NONE', #132, #299, #174 ) ;
#21 = PRODUCT_DEFINITION ( 'UNKNOWN', '', #183, #318 ) ;
#22 = VECTOR ( 'NONE', #76, 1000.000000000000000 ) ;
#23 = DIRECTION ( 'NONE',  ( 1.000000000000000000, -8.673617379884032317E-15, 0.000000000000000000 ) ) ;
#24 = FACE_OUTER_BOUND ( 'NONE', #480, .T. ) ;
#25 = DIRECTION ( 'NONE',  ( 0.000000000000000000, 1.000000000000000000, 0.000000000000000000 ) ) ;
#26 = AXIS2_PLACEMENT_3D ( 'NONE', #93, #52, #391 ) ;
#27 = CARTESIAN_POINT ( 'NONE',  ( -9.000000000000000000, 2.000000000000000000, 1.299999999999999600 ) ) ;
#28 = APPLICATION_PROTOCOL_DEFINITION ( 'international standard', 'config_control_design', 1994, #455 ) ;
#29 = PRODUCT ( 'BAR3X18T2', 'BAR3X18T2', '', ( #376 ) ) ;
#30 = FACE_OUTER_BOUND ( 'NONE', #148, .T. ) ;
#31 = APPROVAL_STATUS ( 'not_yet_approved' ) ;
#32 = ADVANCED_FACE ( 'NONE', ( #104 ), #279, .F. ) ;
#33 = FACE_OUTER_BOUND ( 'NONE', #520, .T. ) ;
#34 = CARTESIAN_POINT ( 'NONE',  ( 8.799999999999997158, 2.000000000000000000, -1.300000000000000266 ) ) ;
#35 = DIRECTION ( 'NONE',  ( -0.000000000000000000, -1.000000000000000000, -0.000000000000000000 ) ) ;
#36 = EDGE_CURVE ( 'NONE', #124, #383, #515, .T. ) ;
#37 = DIRECTION ( 'NONE',  ( 0.000000000000000000, 1.000000000000000000, -0.000000000000000000 ) ) ;
#38 = CC_DESIGN_SECURITY_CLASSIFICATION ( #253, ( #183 ) ) ;
#39 = ORIENTED_EDGE ( 'NONE', *, *, #506, .T. ) ;
#40 = DIRECTION ( 'NONE',  ( 0.000000000000000000, 0.000000000000000000, 1.000000000000000000 ) ) ;
#41 = DATE_AND_TIME ( #252, #501 ) ;
#42 = CALENDAR_DATE ( 2026, 22, 3 ) ;
#43 = PLANE ( 'NONE',  #75 ) ;
#44 = ORIENTED_EDGE ( 'NONE', *, *, #399, .F. ) ;
#45 = LINE ( 'NONE', #499, #292 ) ;
#46 = ORIENTED_EDGE ( 'NONE', *, *, #445, .T. ) ;
#47 = CARTESIAN_POINT ( 'NONE',  ( -9.000000000000000000, 1.800000000000000044, -1.500000000000000444 ) ) ;
#48 = EDGE_LOOP ( 'NONE', ( #482, #216, #302, #479 ) ) ;
#49 = AXIS2_PLACEMENT_3D ( 'NONE', #234, #441, #180 ) ;
#50 = ORIENTED_EDGE ( 'NONE', *, *, #65, .T. ) ;
#51 = EDGE_CURVE ( 'NONE', #464, #260, #55, .T. ) ;
#52 = DIRECTION ( 'NONE',  ( 0.000000000000000000, 1.000000000000000000, 0.000000000000000000 ) ) ;
#53 = VERTEX_POINT ( 'NONE', #370 ) ;
#54 = CARTESIAN_POINT ( 'NONE',  ( -8.799999999999998934, 1.800000000000000044, -1.300000000000000266 ) ) ;
#55 = LINE ( 'NONE', #394, #283 ) ;
#56 = DIRECTION ( 'NONE',  ( -1.000000000000000000, -0.000000000000000000, -0.000000000000000000 ) ) ;
#57 = ORIENTED_EDGE ( 'NONE', *, *, #317, .T. ) ;
#58 = AXIS2_PLACEMENT_3D ( 'NONE', #238, #325, #153 ) ;
#59 = ORIENTED_EDGE ( 'NONE', *, *, #150, .F. ) ;
#60 = ADVANCED_FACE ( 'NONE', ( #33 ), #115, .T. ) ;
#61 = VECTOR ( 'NONE', #432, 1000.000000000000000 ) ;
#62 = ORIENTED_EDGE ( 'NONE', *, *, #267, .T. ) ;
#63 = CARTESIAN_POINT ( 'NONE',  ( -9.000000000000000000, 2.000000000000000000, -1.500000000000000444 ) ) ;
#64 = LINE ( 'NONE', #236, #79 ) ;
#65 = EDGE_CURVE ( 'NONE', #260, #96, #290, .T. ) ;
#66 = AXIS2_PLACEMENT_3D ( 'NONE', #185, #347, #319 ) ;
#67 = LINE ( 'NONE', #403, #300 ) ;
#68 = DIRECTION ( 'NONE',  ( -1.000000000000000000, 0.000000000000000000, 0.000000000000000000 ) ) ;
#69 = DIRECTION ( 'NONE',  ( 0.000000000000000000, 0.000000000000000000, 1.000000000000000000 ) ) ;
#70 = AXIS2_PLACEMENT_3D ( 'NONE', #18, #517, #528 ) ;
#71 = FACE_OUTER_BOUND ( 'NONE', #470, .T. ) ;
#72 = CARTESIAN_POINT ( 'NONE',  ( -8.799999999999998934, 1.800000000000000044, -1.300000000000000266 ) ) ;
#73 = PERSON_AND_ORGANIZATION_ROLE ( 'creator' ) ;
#74 = DIRECTION ( 'NONE',  ( -1.000000000000000000, 0.000000000000000000, 0.000000000000000000 ) ) ;
#75 = AXIS2_PLACEMENT_3D ( 'NONE', #473, #297, #168 ) ;
#76 = DIRECTION ( 'NONE',  ( -0.000000000000000000, -0.000000000000000000, 1.000000000000000000 ) ) ;
#77 = DIRECTION ( 'NONE',  ( 0.000000000000000000, -1.000000000000000000, 0.000000000000000000 ) ) ;
#78 = APPROVAL ( #31, 'UNSPECIFIED' ) ;
#79 = VECTOR ( 'NONE', #81, 1000.000000000000000 ) ;
#80 = FACE_OUTER_BOUND ( 'NONE', #122, .T. ) ;
#81 = DIRECTION ( 'NONE',  ( -1.000000000000000000, 0.000000000000000000, 0.000000000000000000 ) ) ;
#82 = LOCAL_TIME ( 14, 57, 1.000000000000000000, #369 ) ;
#83 = EDGE_LOOP ( 'NONE', ( #343, #224, #264 ) ) ;
#84 = ADVANCED_FACE ( 'NONE', ( #112 ), #492, .T. ) ;
#85 = CYLINDRICAL_SURFACE ( 'NONE', #190, 0.2000000000000000944 ) ;
#86 = CIRCLE ( 'NONE', #243, 0.2000000000000005107 ) ;
#87 = ORIENTED_EDGE ( 'NONE', *, *, #538, .T. ) ;
#88 = CARTESIAN_POINT ( 'NONE',  ( -8.799999999999998934, 2.000000000000000000, 1.499999999999999556 ) ) ;
#89 = AXIS2_PLACEMENT_3D ( 'NONE', #188, #270, #352 ) ;
#90 = VECTOR ( 'NONE', #144, 1000.000000000000000 ) ;
#91 = EDGE_LOOP ( 'NONE', ( #354, #8, #139, #258 ) ) ;
#92 = EDGE_CURVE ( 'NONE', #467, #268, #109, .T. ) ;
#93 = CARTESIAN_POINT ( 'NONE',  ( 8.799999999999998934, 1.800000000000000044, 1.299999999999999600 ) ) ;
#94 = AXIS2_PLACEMENT_3D ( 'NONE', #249, #37, #254 ) ;
#95 = CYLINDRICAL_SURFACE ( 'NONE', #70, 0.2000000000000000944 ) ;
#96 = VERTEX_POINT ( 'NONE', #360 ) ;
#97 = DIRECTION ( 'NONE',  ( 0.000000000000000000, 0.000000000000000000, -1.000000000000000000 ) ) ;
#98 = CARTESIAN_POINT ( 'NONE',  ( -9.000000000000000000, 1.800000000000000044, -1.300000000000000266 ) ) ;
#99 = ORIENTED_EDGE ( 'NONE', *, *, #192, .T. ) ;
#100 = DIRECTION ( 'NONE',  ( 0.000000000000000000, 0.000000000000000000, -1.000000000000000000 ) ) ;
#101 = CC_DESIGN_PERSON_AND_ORGANIZATION_ASSIGNMENT ( #166, #448, ( #253 ) ) ;
#102 = VERTEX_POINT ( 'NONE', #151 ) ;
#103 = AXIS2_PLACEMENT_3D ( 'NONE', #147, #512, #100 ) ;
#104 = FACE_OUTER_BOUND ( 'NONE', #232, .T. ) ;
#105 = ADVANCED_FACE ( 'NONE', ( #486 ), #208, .T. ) ;
#106 = EDGE_CURVE ( 'NONE', #53, #102, #17, .T. ) ;
#107 = DIRECTION ( 'NONE',  ( 0.000000000000000000, 0.000000000000000000, -1.000000000000000000 ) ) ;
#108 = FACE_OUTER_BOUND ( 'NONE', #474, .T. ) ;
#109 = CIRCLE ( 'NONE', #175, 0.2000000000000000944 ) ;
#110 = CARTESIAN_POINT ( 'NONE',  ( 9.000000000000000000, 2.000000000000000000, 1.299999999999999600 ) ) ;
#111 = CALENDAR_DATE ( 2026, 22, 3 ) ;
#112 = FACE_OUTER_BOUND ( 'NONE', #439, .T. ) ;
#113 = CIRCLE ( 'NONE', #20, 0.2000000000000000944 ) ;
#114 = DIRECTION ( 'NONE',  ( 0.000000000000000000, -1.000000000000000000, 0.000000000000000000 ) ) ;
#115 = SPHERICAL_SURFACE ( 'NONE', #355, 0.2000000000000000111 ) ;
#116 = APPROVAL_DATE_TIME ( #493, #78 ) ;
#117 = ADVANCED_FACE ( 'NONE', ( #239 ), #494, .T. ) ;
#118 = DIRECTION ( 'NONE',  ( 8.673617379884030739E-15, 1.000000000000000000, 0.000000000000000000 ) ) ;
#119 = DIRECTION ( 'NONE',  ( -0.000000000000000000, 1.000000000000000000, -0.000000000000000000 ) ) ;
#120 = EDGE_CURVE ( 'NONE', #341, #218, #86, .T. ) ;
#121 = PERSON_AND_ORGANIZATION ( #286, #201 ) ;
#122 = EDGE_LOOP ( 'NONE', ( #141, #509, #44, #465 ) ) ;
#123 = CARTESIAN_POINT ( 'NONE',  ( -8.799999999999998934, 1.800000000000000044, -1.500000000000000444 ) ) ;
#124 = VERTEX_POINT ( 'NONE', #330 ) ;
#125 = ORIENTED_EDGE ( 'NONE', *, *, #345, .T. ) ;
#126 = DIRECTION ( 'NONE',  ( 0.000000000000000000, 0.000000000000000000, 1.000000000000000000 ) ) ;
#127 = ORIENTED_EDGE ( 'NONE', *, *, #222, .T. ) ;
#128 = ORIENTED_EDGE ( 'NONE', *, *, #51, .T. ) ;
#129 = CARTESIAN_POINT ( 'NONE',  ( -8.799999999999998934, 2.000000000000000000, 1.299999999999999600 ) ) ;
#130 = EDGE_CURVE ( 'NONE', #423, #218, #406, .T. ) ;
#131 = ORIENTED_EDGE ( 'NONE', *, *, #436, .F. ) ;
#132 = CARTESIAN_POINT ( 'NONE',  ( -8.799999999999998934, 1.800000000000000044, 1.299999999999999600 ) ) ;
#133 = ORIENTED_EDGE ( 'NONE', *, *, #436, .T. ) ;
#134 = APPROVAL_PERSON_ORGANIZATION ( #410, #78, #536 ) ;
#135 = EDGE_CURVE ( 'NONE', #271, #383, #365, .T. ) ;
#136 = CARTESIAN_POINT ( 'NONE',  ( -8.799999999999998934, 2.000000000000000000, -1.300000000000000266 ) ) ;
#137 = FACE_OUTER_BOUND ( 'NONE', #91, .T. ) ;
#138 = ORIENTED_EDGE ( 'NONE', *, *, #36, .T. ) ;
#139 = ORIENTED_EDGE ( 'NONE', *, *, #92, .F. ) ;
#140 = DIRECTION ( 'NONE',  ( 0.000000000000000000, 1.000000000000000000, 0.000000000000000000 ) ) ;
#141 = ORIENTED_EDGE ( 'NONE', *, *, #262, .F. ) ;
#142 = EDGE_LOOP ( 'NONE', ( #138, #274, #223, #462 ) ) ;
#143 = VECTOR ( 'NONE', #213, 1000.000000000000000 ) ;
#144 = DIRECTION ( 'NONE',  ( -0.000000000000000000, 1.000000000000000000, -0.000000000000000000 ) ) ;
#145 = VECTOR ( 'NONE', #516, 1000.000000000000000 ) ;
#146 = CC_DESIGN_PERSON_AND_ORGANIZATION_ASSIGNMENT ( #378, #241, ( #183 ) ) ;
#147 = CARTESIAN_POINT ( 'NONE',  ( 0.000000000000000000, 1.800000000000000044, -1.300000000000000266 ) ) ;
#148 = EDGE_LOOP ( 'NONE', ( #395, #46, #388, #62 ) ) ;
#149 = VECTOR ( 'NONE', #463, 1000.000000000000000 ) ;
#150 = EDGE_CURVE ( 'NONE', #420, #311, #282, .T. ) ;
#151 = CARTESIAN_POINT ( 'NONE',  ( 8.799999999999998934, 2.000000000000000000, 1.299999999999999600 ) ) ;
#152 = DIRECTION ( 'NONE',  ( 0.000000000000000000, 0.000000000000000000, 1.000000000000000000 ) ) ;
#153 = DIRECTION ( 'NONE',  ( -1.000000000000000000, 0.000000000000000000, -0.000000000000000000 ) ) ;
#154 = DIRECTION ( 'NONE',  ( 0.000000000000000000, 0.000000000000000000, 1.000000000000000000 ) ) ;
#155 = VECTOR ( 'NONE', #400, 1000.000000000000000 ) ;
#156 = DIRECTION ( 'NONE',  ( 0.000000000000000000, 0.000000000000000000, -1.000000000000000000 ) ) ;
#157 = SHAPE_DEFINITION_REPRESENTATION ( #159, #405 ) ;
#158 = PERSON_AND_ORGANIZATION_ROLE ( 'design_owner' ) ;
#159 = PRODUCT_DEFINITION_SHAPE ( 'NONE', 'NONE',  #21 ) ;
#160 = EDGE_CURVE ( 'NONE', #271, #337, #67, .T. ) ;
#161 = COORDINATED_UNIVERSAL_TIME_OFFSET ( 8, 0, .AHEAD. ) ;
#162 = CARTESIAN_POINT ( 'NONE',  ( 8.799999999999997158, 1.800000000000000044, -1.300000000000000266 ) ) ;
#163 = CALENDAR_DATE ( 2026, 22, 3 ) ;
#164 =( LENGTH_UNIT ( ) NAMED_UNIT ( * ) SI_UNIT ( .MILLI., .METRE. ) );
#165 = CARTESIAN_POINT ( 'NONE',  ( 8.799999999999998934, 2.000000000000000000, -1.500000000000000444 ) ) ;
#166 = PERSON_AND_ORGANIZATION ( #286, #201 ) ;
#167 = ADVANCED_FACE ( 'NONE', ( #30 ), #200, .F. ) ;
#168 = DIRECTION ( 'NONE',  ( 0.000000000000000000, 0.000000000000000000, -1.000000000000000000 ) ) ;
#169 = AXIS2_PLACEMENT_3D ( 'NONE', #334, #247, #126 ) ;
#170 = CYLINDRICAL_SURFACE ( 'NONE', #438, 0.2000000000000000944 ) ;
#171 = ORIENTED_EDGE ( 'NONE', *, *, #331, .T. ) ;
#172 = DIRECTION ( 'NONE',  ( 0.000000000000000000, 1.000000000000000000, 0.000000000000000000 ) ) ;
#173 = ORIENTED_EDGE ( 'NONE', *, *, #331, .F. ) ;
#174 = DIRECTION ( 'NONE',  ( 0.000000000000000000, 0.000000000000000000, 1.000000000000000000 ) ) ;
#175 = AXIS2_PLACEMENT_3D ( 'NONE', #72, #74, #69 ) ;
#176 = LINE ( 'NONE', #165, #276 ) ;
#177 = ORIENTED_EDGE ( 'NONE', *, *, #130, .T. ) ;
#178 = CC_DESIGN_PERSON_AND_ORGANIZATION_ASSIGNMENT ( #207, #158, ( #29 ) ) ;
#179 = LINE ( 'NONE', #310, #90 ) ;
#180 = DIRECTION ( 'NONE',  ( -1.000000000000000000, 0.000000000000000000, 0.000000000000000000 ) ) ;
#181 = VERTEX_POINT ( 'NONE', #447 ) ;
#182 = ORIENTED_EDGE ( 'NONE', *, *, #120, .T. ) ;
#183 = PRODUCT_DEFINITION_FORMATION_WITH_SPECIFIED_SOURCE ( 'ANY', '', #29, .NOT_KNOWN. ) ;
#184 = LINE ( 'NONE', #488, #197 ) ;
#185 = CARTESIAN_POINT ( 'NONE',  ( 9.000000000000000000, 2.000000000000000000, -1.500000000000000444 ) ) ;
#186 = EDGE_CURVE ( 'NONE', #341, #102, #324, .T. ) ;
#187 = ORIENTED_EDGE ( 'NONE', *, *, #336, .T. ) ;
#188 = CARTESIAN_POINT ( 'NONE',  ( 8.799999999999998934, 1.800000000000000044, 0.000000000000000000 ) ) ;
#189 = DIRECTION ( 'NONE',  ( 0.000000000000000000, -1.000000000000000000, 0.000000000000000000 ) ) ;
#190 = AXIS2_PLACEMENT_3D ( 'NONE', #219, #374, #418 ) ;
#191 = DIRECTION ( 'NONE',  ( 0.000000000000000000, 0.000000000000000000, 1.000000000000000000 ) ) ;
#192 = EDGE_CURVE ( 'NONE', #337, #433, #289, .T. ) ;
#193 = MANIFOLD_SOLID_BREP ( '\X2\570689d2\X0\1', #401 ) ;
#194 = DIRECTION ( 'NONE',  ( -0.000000000000000000, -0.000000000000000000, -1.000000000000000000 ) ) ;
#195 = ADVANCED_FACE ( 'NONE', ( #533 ), #508, .T. ) ;
#196 = CARTESIAN_POINT ( 'NONE',  ( -8.799999999999998934, 1.800000000000000044, -1.300000000000000266 ) ) ;
#197 = VECTOR ( 'NONE', #56, 1000.000000000000000 ) ;
#198 = CARTESIAN_POINT ( 'NONE',  ( -8.799999999999998934, 1.800000000000000044, 0.000000000000000000 ) ) ;
#199 = DIRECTION ( 'NONE',  ( -0.000000000000000000, -0.000000000000000000, 1.000000000000000000 ) ) ;
#200 = PLANE ( 'NONE',  #58 ) ;
#201 = ORGANIZATION ( 'UNSPECIFIED', 'UNSPECIFIED', '' ) ;
#202 = APPROVAL_ROLE ( '' ) ;
#203 = PERSON_AND_ORGANIZATION ( #286, #201 ) ;
#204 = VECTOR ( 'NONE', #367, 1000.000000000000000 ) ;
#205 = AXIS2_PLACEMENT_3D ( 'NONE', #198, #107, #453 ) ;
#206 = DIRECTION ( 'NONE',  ( 1.000000000000000000, 0.000000000000000000, 0.000000000000000000 ) ) ;
#207 = PERSON_AND_ORGANIZATION ( #286, #201 ) ;
#208 = CYLINDRICAL_SURFACE ( 'NONE', #205, 0.2000000000000005107 ) ;
#209 = CARTESIAN_POINT ( 'NONE',  ( 9.000000000000000000, 1.800000000000000044, 1.499999999999999556 ) ) ;
#210 = ADVANCED_FACE ( 'NONE', ( #327 ), #43, .F. ) ;
#211 = DIRECTION ( 'NONE',  ( 0.000000000000000000, 0.000000000000000000, 1.000000000000000000 ) ) ;
#212 = ADVANCED_FACE ( 'NONE', ( #460 ), #496, .F. ) ;
#213 = DIRECTION ( 'NONE',  ( -0.000000000000000000, 1.000000000000000000, -0.000000000000000000 ) ) ;
#214 = APPROVAL_STATUS ( 'not_yet_approved' ) ;
#215 = APPROVAL_DATE_TIME ( #461, #371 ) ;
#216 = ORIENTED_EDGE ( 'NONE', *, *, #321, .F. ) ;
#217 = LINE ( 'NONE', #88, #149 ) ;
#218 = VERTEX_POINT ( 'NONE', #307 ) ;
#219 = CARTESIAN_POINT ( 'NONE',  ( 8.799999999999998934, 2.000000000000000000, 1.299999999999999600 ) ) ;
#220 = ORIENTED_EDGE ( 'NONE', *, *, #65, .F. ) ;
#221 = CARTESIAN_POINT ( 'NONE',  ( -8.799999999999998934, 1.800000000000000044, 1.299999999999999600 ) ) ;
#222 = EDGE_CURVE ( 'NONE', #96, #124, #45, .T. ) ;
#223 = ORIENTED_EDGE ( 'NONE', *, *, #269, .F. ) ;
#224 = ORIENTED_EDGE ( 'NONE', *, *, #269, .T. ) ;
#225 = CARTESIAN_POINT ( 'NONE',  ( -8.799999999999998934, 1.800000000000000044, -1.300000000000000266 ) ) ;
#226 = ORIENTED_EDGE ( 'NONE', *, *, #317, .F. ) ;
#227 = CARTESIAN_POINT ( 'NONE',  ( -8.799999999999998934, 2.000000000000000000, 1.299999999999999600 ) ) ;
#228 = FACE_OUTER_BOUND ( 'NONE', #142, .T. ) ;
#229 = DIRECTION ( 'NONE',  ( 1.000000000000000000, 0.000000000000000000, -0.000000000000000000 ) ) ;
#230 = AXIS2_PLACEMENT_3D ( 'NONE', #162, #23, #118 ) ;
#231 = ORIENTED_EDGE ( 'NONE', *, *, #495, .F. ) ;
#232 = EDGE_LOOP ( 'NONE', ( #99, #397, #398, #514 ) ) ;
#233 =( GEOMETRIC_REPRESENTATION_CONTEXT ( 3 ) GLOBAL_UNCERTAINTY_ASSIGNED_CONTEXT ( ( #521 ) ) GLOBAL_UNIT_ASSIGNED_CONTEXT ( ( #164, #497, #4 ) ) REPRESENTATION_CONTEXT ( 'NONE', 'WORKASPACE' ) );
#234 = CARTESIAN_POINT ( 'NONE',  ( 8.799999999999998934, 1.800000000000000044, -1.300000000000000266 ) ) ;
#235 = EDGE_CURVE ( 'NONE', #467, #341, #217, .T. ) ;
#236 = CARTESIAN_POINT ( 'NONE',  ( -9.000000000000000000, 2.000000000000000000, -1.300000000000000266 ) ) ;
#237 = CIRCLE ( 'NONE', #518, 0.2000000000000000944 ) ;
#238 = CARTESIAN_POINT ( 'NONE',  ( -9.000000000000000000, 2.000000000000000000, 1.499999999999999556 ) ) ;
#239 = FACE_OUTER_BOUND ( 'NONE', #541, .T. ) ;
#240 = CC_DESIGN_DATE_AND_TIME_ASSIGNMENT ( #41, #332, ( #253 ) ) ;
#241 = PERSON_AND_ORGANIZATION_ROLE ( 'design_supplier' ) ;
#242 = DATE_TIME_ROLE ( 'creation_date' ) ;
#243 = AXIS2_PLACEMENT_3D ( 'NONE', #489, #407, #206 ) ;
#244 = DIRECTION ( 'NONE',  ( -1.000000000000000000, -0.000000000000000000, -0.000000000000000000 ) ) ;
#245 = DIRECTION ( 'NONE',  ( -0.000000000000000000, -1.000000000000000000, -0.000000000000000000 ) ) ;
#246 = EDGE_CURVE ( 'NONE', #102, #383, #176, .T. ) ;
#247 = DIRECTION ( 'NONE',  ( -0.000000000000000000, 1.000000000000000000, 0.000000000000000000 ) ) ;
#248 = CIRCLE ( 'NONE', #358, 0.2000000000000000944 ) ;
#249 = CARTESIAN_POINT ( 'NONE',  ( -8.799999999999998934, 1.800000000000000044, 1.299999999999999600 ) ) ;
#250 = ORIENTED_EDGE ( 'NONE', *, *, #186, .F. ) ;
#251 = CARTESIAN_POINT ( 'NONE',  ( 9.000000000000000000, 0.000000000000000000, 1.299999999999999600 ) ) ;
#252 = CALENDAR_DATE ( 2026, 22, 3 ) ;
#253 = SECURITY_CLASSIFICATION ( '', '', #368 ) ;
#254 = DIRECTION ( 'NONE',  ( 0.000000000000000000, 0.000000000000000000, 1.000000000000000000 ) ) ;
#255 = ORIENTED_EDGE ( 'NONE', *, *, #412, .F. ) ;
#256 = DIRECTION ( 'NONE',  ( 0.000000000000000000, 0.000000000000000000, -1.000000000000000000 ) ) ;
#257 = EDGE_LOOP ( 'NONE', ( #13, #476, #255 ) ) ;
#258 = ORIENTED_EDGE ( 'NONE', *, *, #506, .F. ) ;
#259 = DIRECTION ( 'NONE',  ( 0.000000000000000000, 0.000000000000000000, -1.000000000000000000 ) ) ;
#260 = VERTEX_POINT ( 'NONE', #251 ) ;
#261 = AXIS2_PLACEMENT_3D ( 'NONE', #225, #265, #346 ) ;
#262 = EDGE_CURVE ( 'NONE', #260, #311, #237, .T. ) ;
#263 = CARTESIAN_POINT ( 'NONE',  ( 0.000000000000000000, 0.000000000000000000, 0.000000000000000000 ) ) ;
#264 = ORIENTED_EDGE ( 'NONE', *, *, #106, .F. ) ;
#265 = DIRECTION ( 'NONE',  ( 0.000000000000000000, 1.000000000000000000, 0.000000000000000000 ) ) ;
#266 = ORIENTED_EDGE ( 'NONE', *, *, #336, .F. ) ;
#267 = EDGE_CURVE ( 'NONE', #311, #53, #427, .T. ) ;
#268 = VERTEX_POINT ( 'NONE', #123 ) ;
#269 = EDGE_CURVE ( 'NONE', #464, #102, #424, .T. ) ;
#270 = DIRECTION ( 'NONE',  ( 0.000000000000000000, -0.000000000000000000, 1.000000000000000000 ) ) ;
#271 = VERTEX_POINT ( 'NONE', #502 ) ;
#272 = CARTESIAN_POINT ( 'NONE',  ( -8.799999999999998934, 2.000000000000000000, 1.499999999999999556 ) ) ;
#273 = FACE_OUTER_BOUND ( 'NONE', #385, .T. ) ;
#274 = ORIENTED_EDGE ( 'NONE', *, *, #246, .F. ) ;
#275 = AXIS2_PLACEMENT_3D ( 'NONE', #63, #191, #229 ) ;
#276 = VECTOR ( 'NONE', #259, 1000.000000000000000 ) ;
#277 = ORIENTED_EDGE ( 'NONE', *, *, #160, .F. ) ;
#278 = CC_DESIGN_DATE_AND_TIME_ASSIGNMENT ( #326, #242, ( #21 ) ) ;
#279 = PLANE ( 'NONE',  #275 ) ;
#280 = DIRECTION ( 'NONE',  ( 0.000000000000000000, -1.000000000000000000, 0.000000000000000000 ) ) ;
#281 = CIRCLE ( 'NONE', #362, 0.2000000000000000944 ) ;
#282 = LINE ( 'NONE', #444, #531 ) ;
#283 = VECTOR ( 'NONE', #189, 1000.000000000000000 ) ;
#284 = CARTESIAN_POINT ( 'NONE',  ( -8.799999999999998934, 0.000000000000000000, -1.500000000000000444 ) ) ;
#285 = DIRECTION ( 'NONE',  ( 1.000000000000000000, -0.000000000000000000, 0.000000000000000000 ) ) ;
#286 = PERSON ( 'UNSPECIFIED', 'UNSPECIFIED', 'UNSPECIFIED', ('UNSPECIFIED'), ('UNSPECIFIED'), ('UNSPECIFIED') ) ;
#287 = APPLICATION_PROTOCOL_DEFINITION ( 'international standard', 'config_control_design', 1994, #429 ) ;
#288 = AXIS2_PLACEMENT_3D ( 'NONE', #6, #211, #339 ) ;
#289 = LINE ( 'NONE', #451, #204 ) ;
#290 = LINE ( 'NONE', #320, #409 ) ;
#291 = ADVANCED_FACE ( 'NONE', ( #80 ), #85, .T. ) ;
#292 = VECTOR ( 'NONE', #119, 1000.000000000000000 ) ;
#293 = DIRECTION ( 'NONE',  ( 1.000000000000000000, 0.000000000000000000, 0.000000000000000000 ) ) ;
#294 = SPHERICAL_SURFACE ( 'NONE', #94, 0.2000000000000000111 ) ;
#295 = DIRECTION ( 'NONE',  ( 0.000000000000000000, -0.000000000000000000, -1.000000000000000000 ) ) ;
#296 = APPROVAL_ROLE ( '' ) ;
#297 = DIRECTION ( 'NONE',  ( 1.000000000000000000, 0.000000000000000000, 0.000000000000000000 ) ) ;
#298 = VERTEX_POINT ( 'NONE', #377 ) ;
#299 = DIRECTION ( 'NONE',  ( 0.000000000000000000, 1.000000000000000000, -0.000000000000000000 ) ) ;
#300 = VECTOR ( 'NONE', #526, 1000.000000000000000 ) ;
#301 = APPROVAL ( #214, 'UNSPECIFIED' ) ;
#302 = ORIENTED_EDGE ( 'NONE', *, *, #120, .F. ) ;
#303 = ORIENTED_EDGE ( 'NONE', *, *, #309, .F. ) ;
#304 = LINE ( 'NONE', #468, #449 ) ;
#305 = ORIENTED_EDGE ( 'NONE', *, *, #495, .T. ) ;
#306 = AXIS2_PLACEMENT_3D ( 'NONE', #54, #140, #477 ) ;
#307 = CARTESIAN_POINT ( 'NONE',  ( -9.000000000000000000, 1.800000000000000044, 1.299999999999999600 ) ) ;
#308 = LOCAL_TIME ( 14, 57, 1.000000000000000000, #161 ) ;
#309 = EDGE_CURVE ( 'NONE', #124, #271, #380, .T. ) ;
#310 = CARTESIAN_POINT ( 'NONE',  ( -8.799999999999998934, 2.000000000000000000, -1.500000000000000444 ) ) ;
#311 = VERTEX_POINT ( 'NONE', #466 ) ;
#312 = CARTESIAN_POINT ( 'NONE',  ( -8.799999999999998934, 0.000000000000000000, -1.300000000000000266 ) ) ;
#313 = CIRCLE ( 'NONE', #382, 0.2000000000000000944 ) ;
#314 = CARTESIAN_POINT ( 'NONE',  ( 9.000000000000000000, 1.800000000000000044, -1.500000000000000444 ) ) ;
#315 = AXIS2_PLACEMENT_3D ( 'NONE', #9, #422, #256 ) ;
#316 = ORIENTED_EDGE ( 'NONE', *, *, #262, .T. ) ;
#317 = EDGE_CURVE ( 'NONE', #341, #298, #458, .T. ) ;
#318 = DESIGN_CONTEXT ( 'detailed design', #455, 'design' ) ;
#319 = DIRECTION ( 'NONE',  ( 0.000000000000000000, 0.000000000000000000, 1.000000000000000000 ) ) ;
#320 = CARTESIAN_POINT ( 'NONE',  ( 9.000000000000000000, 0.000000000000000000, -1.500000000000000444 ) ) ;
#321 = EDGE_CURVE ( 'NONE', #218, #12, #540, .T. ) ;
#322 = CYLINDRICAL_SURFACE ( 'NONE', #404, 0.2000000000000000944 ) ;
#323 = CC_DESIGN_APPROVAL ( #301, ( #253 ) ) ;
#324 = LINE ( 'NONE', #110, #504 ) ;
#325 = DIRECTION ( 'NONE',  ( 0.000000000000000000, 0.000000000000000000, -1.000000000000000000 ) ) ;
#326 = DATE_AND_TIME ( #111, #392 ) ;
#327 = FACE_OUTER_BOUND ( 'NONE', #386, .T. ) ;
#328 = PERSON_AND_ORGANIZATION_ROLE ( 'creator' ) ;
#329 = CALENDAR_DATE ( 2026, 22, 3 ) ;
#330 = CARTESIAN_POINT ( 'NONE',  ( 9.000000000000000000, 1.800000000000000044, -1.300000000000000266 ) ) ;
#331 = EDGE_CURVE ( 'NONE', #420, #423, #248, .T. ) ;
#332 = DATE_TIME_ROLE ( 'classification_date' ) ;
#333 = ORIENTED_EDGE ( 'NONE', *, *, #36, .F. ) ;
#334 = CARTESIAN_POINT ( 'NONE',  ( 8.799999999999998934, 1.800000000000000044, -1.300000000000000266 ) ) ;
#335 = AXIS2_PLACEMENT_3D ( 'NONE', #221, #384, #40 ) ;
#336 = EDGE_CURVE ( 'NONE', #218, #298, #113, .T. ) ;
#337 = VERTEX_POINT ( 'NONE', #505 ) ;
#338 = ORIENTED_EDGE ( 'NONE', *, *, #513, .T. ) ;
#339 = DIRECTION ( 'NONE',  ( 1.000000000000000000, 0.000000000000000000, 0.000000000000000000 ) ) ;
#340 = ORIENTED_EDGE ( 'NONE', *, *, #222, .F. ) ;
#341 = VERTEX_POINT ( 'NONE', #129 ) ;
#342 = CARTESIAN_POINT ( 'NONE',  ( 8.799999999999997158, 2.000000000000000000, 1.499999999999999556 ) ) ;
#343 = ORIENTED_EDGE ( 'NONE', *, *, #399, .T. ) ;
#344 = CARTESIAN_POINT ( 'NONE',  ( 8.799999999999998934, 0.000000000000000000, 1.299999999999999600 ) ) ;
#345 = EDGE_CURVE ( 'NONE', #181, #423, #304, .T. ) ;
#346 = DIRECTION ( 'NONE',  ( -1.000000000000000000, 0.000000000000000000, 0.000000000000000000 ) ) ;
#347 = DIRECTION ( 'NONE',  ( -1.000000000000000000, 0.000000000000000000, 0.000000000000000000 ) ) ;
#348 = ORIENTED_EDGE ( 'NONE', *, *, #349, .F. ) ;
#349 = EDGE_CURVE ( 'NONE', #53, #298, #184, .T. ) ;
#350 = AXIS2_PLACEMENT_3D ( 'NONE', #524, #363, #456 ) ;
#351 = CYLINDRICAL_SURFACE ( 'NONE', #103, 0.2000000000000000944 ) ;
#352 = DIRECTION ( 'NONE',  ( 1.000000000000000000, 0.000000000000000000, 0.000000000000000000 ) ) ;
#353 = CC_DESIGN_PERSON_AND_ORGANIZATION_ASSIGNMENT ( #203, #73, ( #21 ) ) ;
#354 = ORIENTED_EDGE ( 'NONE', *, *, #135, .F. ) ;
#355 = AXIS2_PLACEMENT_3D ( 'NONE', #491, #25, #356 ) ;
#356 = DIRECTION ( 'NONE',  ( -1.000000000000000000, 0.000000000000000000, 8.673617379884013384E-15 ) ) ;
#357 = ADVANCED_FACE ( 'NONE', ( #228 ), #359, .T. ) ;
#358 = AXIS2_PLACEMENT_3D ( 'NONE', #414, #7, #2 ) ;
#359 = CYLINDRICAL_SURFACE ( 'NONE', #89, 0.2000000000000005107 ) ;
#360 = CARTESIAN_POINT ( 'NONE',  ( 9.000000000000000000, 0.000000000000000000, -1.300000000000000266 ) ) ;
#361 = CARTESIAN_POINT ( 'NONE',  ( -9.000000000000000000, 0.000000000000000000, 1.299999999999999600 ) ) ;
#362 = AXIS2_PLACEMENT_3D ( 'NONE', #413, #245, #372 ) ;
#363 = DIRECTION ( 'NONE',  ( 0.000000000000000000, 1.000000000000000000, 0.000000000000000000 ) ) ;
#364 = COORDINATED_UNIVERSAL_TIME_OFFSET ( 8, 0, .AHEAD. ) ;
#365 = CIRCLE ( 'NONE', #230, 0.2000000000000000944 ) ;
#366 = APPROVAL_STATUS ( 'not_yet_approved' ) ;
#367 = DIRECTION ( 'NONE',  ( -1.000000000000000000, -0.000000000000000000, -0.000000000000000000 ) ) ;
#368 = SECURITY_CLASSIFICATION_LEVEL ( 'unclassified' ) ;
#369 = COORDINATED_UNIVERSAL_TIME_OFFSET ( 8, 0, .AHEAD. ) ;
#370 = CARTESIAN_POINT ( 'NONE',  ( 8.799999999999998934, 1.800000000000000044, 1.499999999999999556 ) ) ;
#371 = APPROVAL ( #366, 'UNSPECIFIED' ) ;
#372 = DIRECTION ( 'NONE',  ( 0.000000000000000000, 0.000000000000000000, 1.000000000000000000 ) ) ;
#373 = APPROVAL_PERSON_ORGANIZATION ( #3, #301, #202 ) ;
#374 = DIRECTION ( 'NONE',  ( 0.000000000000000000, -1.000000000000000000, 0.000000000000000000 ) ) ;
#375 = PERSON_AND_ORGANIZATION ( #286, #201 ) ;
#376 = MECHANICAL_CONTEXT ( 'NONE', #429, 'mechanical' ) ;
#377 = CARTESIAN_POINT ( 'NONE',  ( -8.799999999999998934, 1.800000000000000044, 1.499999999999999556 ) ) ;
#378 = PERSON_AND_ORGANIZATION ( #286, #201 ) ;
#379 = PRODUCT_RELATED_PRODUCT_CATEGORY ( 'detail', '', ( #29 ) ) ;
#380 = CIRCLE ( 'NONE', #169, 0.2000000000000000944 ) ;
#381 = DIRECTION ( 'NONE',  ( 0.000000000000000000, -0.000000000000000000, 1.000000000000000000 ) ) ;
#382 = AXIS2_PLACEMENT_3D ( 'NONE', #312, #525, #154 ) ;
#383 = VERTEX_POINT ( 'NONE', #402 ) ;
#384 = DIRECTION ( 'NONE',  ( 1.000000000000000000, -0.000000000000000000, -0.000000000000000000 ) ) ;
#385 = EDGE_LOOP ( 'NONE', ( #50, #127, #338, #128 ) ) ;
#386 = EDGE_LOOP ( 'NONE', ( #125, #177, #519, #305 ) ) ;
#387 = ADVANCED_FACE ( 'NONE', ( #24 ), #322, .T. ) ;
#388 = ORIENTED_EDGE ( 'NONE', *, *, #150, .T. ) ;
#389 = CARTESIAN_POINT ( 'NONE',  ( -8.799999999999998934, 0.000000000000000000, 1.499999999999999556 ) ) ;
#390 = ORIENTED_EDGE ( 'NONE', *, *, #186, .T. ) ;
#391 = DIRECTION ( 'NONE',  ( 0.000000000000000000, 0.000000000000000000, 1.000000000000000000 ) ) ;
#392 = LOCAL_TIME ( 14, 57, 1.000000000000000000, #532 ) ;
#393 = ORIENTED_EDGE ( 'NONE', *, *, #246, .T. ) ;
#394 = CARTESIAN_POINT ( 'NONE',  ( 9.000000000000000000, 2.000000000000000000, 1.299999999999999600 ) ) ;
#395 = ORIENTED_EDGE ( 'NONE', *, *, #349, .T. ) ;
#396 = CIRCLE ( 'NONE', #26, 0.2000000000000000944 ) ;
#397 = ORIENTED_EDGE ( 'NONE', *, *, #459, .T. ) ;
#398 = ORIENTED_EDGE ( 'NONE', *, *, #472, .T. ) ;
#399 = EDGE_CURVE ( 'NONE', #53, #464, #396, .T. ) ;
#400 = DIRECTION ( 'NONE',  ( -0.000000000000000000, 1.000000000000000000, -0.000000000000000000 ) ) ;
#401 = CLOSED_SHELL ( 'NONE', ( #1, #32, #210, #167, #84, #212, #117, #10, #535, #452, #60, #387, #105, #357, #291, #527, #195, #431 ) ) ;
#402 = CARTESIAN_POINT ( 'NONE',  ( 8.799999999999998934, 2.000000000000000000, -1.300000000000000266 ) ) ;
#403 = CARTESIAN_POINT ( 'NONE',  ( 8.799999999999997158, 2.000000000000000000, -1.500000000000000444 ) ) ;
#404 = AXIS2_PLACEMENT_3D ( 'NONE', #227, #446, #97 ) ;
#405 = ADVANCED_BREP_SHAPE_REPRESENTATION ( 'BAR3X18T2', ( #193, #417 ), #233 ) ;
#406 = LINE ( 'NONE', #27, #155 ) ;
#407 = DIRECTION ( 'NONE',  ( 0.000000000000000000, -0.000000000000000000, 1.000000000000000000 ) ) ;
#408 = COORDINATED_UNIVERSAL_TIME_OFFSET ( 8, 0, .AHEAD. ) ;
#409 = VECTOR ( 'NONE', #194, 1000.000000000000000 ) ;
#410 = PERSON_AND_ORGANIZATION ( #286, #201 ) ;
#411 = DIRECTION ( 'NONE',  ( 0.000000000000000000, 0.000000000000000000, -1.000000000000000000 ) ) ;
#412 = EDGE_CURVE ( 'NONE', #467, #12, #5, .T. ) ;
#413 = CARTESIAN_POINT ( 'NONE',  ( 8.799999999999997158, 0.000000000000000000, -1.300000000000000266 ) ) ;
#414 = CARTESIAN_POINT ( 'NONE',  ( -8.799999999999998934, 0.000000000000000000, 1.299999999999999600 ) ) ;
#415 = FACE_OUTER_BOUND ( 'NONE', #16, .T. ) ;
#416 = ORIENTED_EDGE ( 'NONE', *, *, #135, .T. ) ;
#417 = AXIS2_PLACEMENT_3D ( 'NONE', #450, #457, #490 ) ;
#418 = DIRECTION ( 'NONE',  ( 0.000000000000000000, 0.000000000000000000, -1.000000000000000000 ) ) ;
#419 = DIRECTION ( 'NONE',  ( 0.000000000000000000, 0.000000000000000000, -1.000000000000000000 ) ) ;
#420 = VERTEX_POINT ( 'NONE', #389 ) ;
#421 = AXIS2_PLACEMENT_3D ( 'NONE', #537, #77, #411 ) ;
#422 = DIRECTION ( 'NONE',  ( -0.000000000000000000, 1.000000000000000000, 0.000000000000000000 ) ) ;
#423 = VERTEX_POINT ( 'NONE', #361 ) ;
#424 = CIRCLE ( 'NONE', #288, 0.2000000000000005107 ) ;
#425 = DIRECTION ( 'NONE',  ( 2.602085213965209379E-14, 0.000000000000000000, 1.000000000000000000 ) ) ;
#426 = AXIS2_PLACEMENT_3D ( 'NONE', #196, #199, #68 ) ;
#427 = LINE ( 'NONE', #342, #143 ) ;
#428 = ORIENTED_EDGE ( 'NONE', *, *, #130, .F. ) ;
#429 = APPLICATION_CONTEXT ( 'configuration controlled 3d designs of mechanical parts and assemblies' ) ;
#430 = AXIS2_PLACEMENT_3D ( 'NONE', #263, #172, #381 ) ;
#431 = ADVANCED_FACE ( 'NONE', ( #108 ), #95, .T. ) ;
#432 = DIRECTION ( 'NONE',  ( 1.000000000000000000, -0.000000000000000000, -0.000000000000000000 ) ) ;
#433 = VERTEX_POINT ( 'NONE', #284 ) ;
#434 = ORIENTED_EDGE ( 'NONE', *, *, #481, .F. ) ;
#435 = ORIENTED_EDGE ( 'NONE', *, *, #445, .F. ) ;
#436 = EDGE_CURVE ( 'NONE', #181, #433, #313, .T. ) ;
#437 = LINE ( 'NONE', #272, #145 ) ;
#438 = AXIS2_PLACEMENT_3D ( 'NONE', #34, #114, #419 ) ;
#439 = EDGE_LOOP ( 'NONE', ( #442, #390, #393, #39 ) ) ;
#440 = AXIS2_PLACEMENT_3D ( 'NONE', #529, #244, #156 ) ;
#441 = DIRECTION ( 'NONE',  ( -0.000000000000000000, -0.000000000000000000, 1.000000000000000000 ) ) ;
#442 = ORIENTED_EDGE ( 'NONE', *, *, #235, .T. ) ;
#443 = CARTESIAN_POINT ( 'NONE',  ( -9.000000000000000000, 2.000000000000000000, -1.300000000000000266 ) ) ;
#444 = CARTESIAN_POINT ( 'NONE',  ( -9.000000000000000000, 0.000000000000000000, 1.499999999999999556 ) ) ;
#445 = EDGE_CURVE ( 'NONE', #298, #420, #437, .T. ) ;
#446 = DIRECTION ( 'NONE',  ( 0.000000000000000000, -1.000000000000000000, 0.000000000000000000 ) ) ;
#447 = CARTESIAN_POINT ( 'NONE',  ( -9.000000000000000000, 0.000000000000000000, -1.300000000000000266 ) ) ;
#448 = PERSON_AND_ORGANIZATION_ROLE ( 'classification_officer' ) ;
#449 = VECTOR ( 'NONE', #152, 1000.000000000000000 ) ;
#450 = CARTESIAN_POINT ( 'NONE',  ( 0.000000000000000000, 0.000000000000000000, 0.000000000000000000 ) ) ;
#451 = CARTESIAN_POINT ( 'NONE',  ( -9.000000000000000000, 0.000000000000000000, -1.500000000000000444 ) ) ;
#452 = ADVANCED_FACE ( 'NONE', ( #510 ), #14, .T. ) ;
#453 = DIRECTION ( 'NONE',  ( -1.000000000000000000, 0.000000000000000000, 0.000000000000000000 ) ) ;
#454 = LINE ( 'NONE', #209, #22 ) ;
#455 = APPLICATION_CONTEXT ( 'configuration controlled 3d designs of mechanical parts and assemblies' ) ;
#456 = DIRECTION ( 'NONE',  ( 0.000000000000000000, -0.000000000000000000, 1.000000000000000000 ) ) ;
#457 = DIRECTION ( 'NONE',  ( 0.000000000000000000, 0.000000000000000000, 1.000000000000000000 ) ) ;
#458 = CIRCLE ( 'NONE', #335, 0.2000000000000000944 ) ;
#459 = EDGE_CURVE ( 'NONE', #433, #268, #179, .T. ) ;
#460 = FACE_OUTER_BOUND ( 'NONE', #522, .T. ) ;
#461 = DATE_AND_TIME ( #42, #82 ) ;
#462 = ORIENTED_EDGE ( 'NONE', *, *, #513, .F. ) ;
#463 = DIRECTION ( 'NONE',  ( -0.000000000000000000, 0.000000000000000000, 1.000000000000000000 ) ) ;
#464 = VERTEX_POINT ( 'NONE', #11 ) ;
#465 = ORIENTED_EDGE ( 'NONE', *, *, #267, .F. ) ;
#466 = CARTESIAN_POINT ( 'NONE',  ( 8.799999999999997158, 0.000000000000000000, 1.499999999999999556 ) ) ;
#467 = VERTEX_POINT ( 'NONE', #136 ) ;
#468 = CARTESIAN_POINT ( 'NONE',  ( -9.000000000000000000, 0.000000000000000000, -1.500000000000000444 ) ) ;
#469 = ORIENTED_EDGE ( 'NONE', *, *, #309, .T. ) ;
#470 = EDGE_LOOP ( 'NONE', ( #503, #277, #303, #340 ) ) ;
#471 = CIRCLE ( 'NONE', #306, 0.2000000000000000944 ) ;
#472 = EDGE_CURVE ( 'NONE', #268, #271, #475, .T. ) ;
#473 = CARTESIAN_POINT ( 'NONE',  ( -9.000000000000000000, 2.000000000000000000, -1.500000000000000444 ) ) ;
#474 = EDGE_LOOP ( 'NONE', ( #57, #348, #498, #250 ) ) ;
#475 = LINE ( 'NONE', #314, #61 ) ;
#476 = ORIENTED_EDGE ( 'NONE', *, *, #481, .T. ) ;
#477 = DIRECTION ( 'NONE',  ( 0.000000000000000000, 0.000000000000000000, 1.000000000000000000 ) ) ;
#478 = PLANE ( 'NONE',  #66 ) ;
#479 = ORIENTED_EDGE ( 'NONE', *, *, #235, .F. ) ;
#480 = EDGE_LOOP ( 'NONE', ( #173, #435, #266, #428 ) ) ;
#481 = EDGE_CURVE ( 'NONE', #268, #12, #471, .T. ) ;
#482 = ORIENTED_EDGE ( 'NONE', *, *, #412, .T. ) ;
#483 = ORIENTED_EDGE ( 'NONE', *, *, #192, .F. ) ;
#484 = VECTOR ( 'NONE', #295, 1000.000000000000000 ) ;
#485 = LINE ( 'NONE', #443, #507 ) ;
#486 = FACE_OUTER_BOUND ( 'NONE', #48, .T. ) ;
#487 = LOCAL_TIME ( 14, 57, 1.000000000000000000, #364 ) ;
#488 = CARTESIAN_POINT ( 'NONE',  ( -9.000000000000000000, 1.800000000000000044, 1.499999999999999556 ) ) ;
#489 = CARTESIAN_POINT ( 'NONE',  ( -8.799999999999998934, 1.800000000000000044, 1.299999999999999600 ) ) ;
#490 = DIRECTION ( 'NONE',  ( 1.000000000000000000, 0.000000000000000000, 0.000000000000000000 ) ) ;
#491 = CARTESIAN_POINT ( 'NONE',  ( 8.799999999999998934, 1.800000000000000044, -1.300000000000000266 ) ) ;
#492 = PLANE ( 'NONE',  #350 ) ;
#493 = DATE_AND_TIME ( #329, #308 ) ;
#494 = CYLINDRICAL_SURFACE ( 'NONE', #421, 0.2000000000000000944 ) ;
#495 = EDGE_CURVE ( 'NONE', #12, #181, #485, .T. ) ;
#496 = PLANE ( 'NONE',  #430 ) ;
#497 =( NAMED_UNIT ( * ) PLANE_ANGLE_UNIT ( ) SI_UNIT ( $, .RADIAN. ) );
#498 = ORIENTED_EDGE ( 'NONE', *, *, #106, .T. ) ;
#499 = CARTESIAN_POINT ( 'NONE',  ( 9.000000000000000000, 2.000000000000000000, -1.300000000000000266 ) ) ;
#500 = ORIENTED_EDGE ( 'NONE', *, *, #459, .F. ) ;
#501 = LOCAL_TIME ( 14, 57, 1.000000000000000000, #408 ) ;
#502 = CARTESIAN_POINT ( 'NONE',  ( 8.799999999999997158, 1.800000000000000044, -1.500000000000000444 ) ) ;
#503 = ORIENTED_EDGE ( 'NONE', *, *, #538, .F. ) ;
#504 = VECTOR ( 'NONE', #285, 1000.000000000000000 ) ;
#505 = CARTESIAN_POINT ( 'NONE',  ( 8.799999999999997158, 0.000000000000000000, -1.500000000000000444 ) ) ;
#506 = EDGE_CURVE ( 'NONE', #383, #467, #64, .T. ) ;
#507 = VECTOR ( 'NONE', #280, 1000.000000000000000 ) ;
#508 = SPHERICAL_SURFACE ( 'NONE', #315, 0.2000000000000000111 ) ;
#509 = ORIENTED_EDGE ( 'NONE', *, *, #51, .F. ) ;
#510 = FACE_OUTER_BOUND ( 'NONE', #257, .T. ) ;
#511 = CC_DESIGN_APPROVAL ( #78, ( #183 ) ) ;
#512 = DIRECTION ( 'NONE',  ( 1.000000000000000000, 0.000000000000000000, 0.000000000000000000 ) ) ;
#513 = EDGE_CURVE ( 'NONE', #124, #464, #454, .T. ) ;
#514 = ORIENTED_EDGE ( 'NONE', *, *, #160, .T. ) ;
#515 = CIRCLE ( 'NONE', #49, 0.2000000000000005107 ) ;
#516 = DIRECTION ( 'NONE',  ( 0.000000000000000000, -1.000000000000000000, 0.000000000000000000 ) ) ;
#517 = DIRECTION ( 'NONE',  ( -1.000000000000000000, 0.000000000000000000, 0.000000000000000000 ) ) ;
#518 = AXIS2_PLACEMENT_3D ( 'NONE', #344, #35, #425 ) ;
#519 = ORIENTED_EDGE ( 'NONE', *, *, #321, .T. ) ;
#520 = EDGE_LOOP ( 'NONE', ( #469, #416, #333 ) ) ;
#521 = UNCERTAINTY_MEASURE_WITH_UNIT (LENGTH_MEASURE( 1.000000000000000082E-05 ), #164, 'distance_accuracy_value', 'NONE');
#522 = EDGE_LOOP ( 'NONE', ( #59, #171, #19, #133, #483, #87, #220, #316 ) ) ;
#523 = CC_DESIGN_PERSON_AND_ORGANIZATION_ASSIGNMENT ( #375, #328, ( #183 ) ) ;
#524 = CARTESIAN_POINT ( 'NONE',  ( 0.000000000000000000, 2.000000000000000000, 0.000000000000000000 ) ) ;
#525 = DIRECTION ( 'NONE',  ( -0.000000000000000000, -1.000000000000000000, -0.000000000000000000 ) ) ;
#526 = DIRECTION ( 'NONE',  ( 0.000000000000000000, -1.000000000000000000, 0.000000000000000000 ) ) ;
#527 = ADVANCED_FACE ( 'NONE', ( #415 ), #294, .T. ) ;
#528 = DIRECTION ( 'NONE',  ( 0.000000000000000000, 0.000000000000000000, 1.000000000000000000 ) ) ;
#529 = CARTESIAN_POINT ( 'NONE',  ( 8.799999999999998934, 1.800000000000000044, 1.299999999999999600 ) ) ;
#530 = DATE_AND_TIME ( #163, #487 ) ;
#531 = VECTOR ( 'NONE', #293, 1000.000000000000000 ) ;
#532 = COORDINATED_UNIVERSAL_TIME_OFFSET ( 8, 0, .AHEAD. ) ;
#533 = FACE_OUTER_BOUND ( 'NONE', #83, .T. ) ;
#534 = APPROVAL_DATE_TIME ( #530, #301 ) ;
#535 = ADVANCED_FACE ( 'NONE', ( #71 ), #170, .T. ) ;
#536 = APPROVAL_ROLE ( '' ) ;
#537 = CARTESIAN_POINT ( 'NONE',  ( -8.799999999999998934, 2.000000000000000000, -1.300000000000000266 ) ) ;
#538 = EDGE_CURVE ( 'NONE', #337, #96, #281, .T. ) ;
#539 = CC_DESIGN_APPROVAL ( #371, ( #21 ) ) ;
#540 = LINE ( 'NONE', #47, #484 ) ;
#541 = EDGE_LOOP ( 'NONE', ( #131, #231, #434, #500 ) ) ;
ENDSEC;
END-ISO-10303-21;
