ISO-10303-21;
HEADER;
FILE_DESCRIPTION (( 'STEP AP214' ),
    '1' );
FILE_NAME ('BAR4X4T2.step',
    '2026-03-22T07:20:17',
    ( '' ),
    ( '' ),
    'SwSTEP 2.0',
    'SolidWorks 2025',
    '' );
FILE_SCHEMA (( 'AUTOMOTIVE_DESIGN' ));
ENDSEC;

DATA;
#1 = DIRECTION ( 'NONE',  ( 0.000000000000000000, 0.000000000000000000, -1.000000000000000000 ) ) ;
#2 = VERTEX_POINT ( 'NONE', #318 ) ;
#3 = DIRECTION ( 'NONE',  ( 0.000000000000000000, 0.000000000000000000, 1.000000000000000000 ) ) ;
#4 = DIRECTION ( 'NONE',  ( 0.000000000000000000, -1.000000000000000000, 0.000000000000000000 ) ) ;
#5 = EDGE_CURVE ( 'NONE', #191, #197, #165, .T. ) ;
#6 = FACE_OUTER_BOUND ( 'NONE', #263, .T. ) ;
#7 = AXIS2_PLACEMENT_3D ( 'NONE', #10, #395, #467 ) ;
#8 = DIRECTION ( 'NONE',  ( -1.000000000000000000, 0.000000000000000000, 0.000000000000000000 ) ) ;
#9 =( NAMED_UNIT ( * ) SI_UNIT ( $, .STERADIAN. ) SOLID_ANGLE_UNIT ( ) );
#10 = CARTESIAN_POINT ( 'NONE',  ( 0.000000000000000000, 2.000000000000000000, 0.000000000000000000 ) ) ;
#11 = VERTEX_POINT ( 'NONE', #85 ) ;
#12 = PRODUCT_DEFINITION_CONTEXT ( 'detailed design', #187, 'design' ) ;
#13 = CARTESIAN_POINT ( 'NONE',  ( 1.799999999999999156, 2.000000000000000000, -1.800000000000000044 ) ) ;
#14 = ORIENTED_EDGE ( 'NONE', *, *, #471, .F. ) ;
#15 = VECTOR ( 'NONE', #73, 1000.000000000000000 ) ;
#16 = EDGE_CURVE ( 'NONE', #225, #443, #454, .T. ) ;
#17 = DIRECTION ( 'NONE',  ( 0.000000000000000000, 0.000000000000000000, 1.000000000000000000 ) ) ;
#18 = EDGE_LOOP ( 'NONE', ( #449, #212, #277, #290 ) ) ;
#19 = DIRECTION ( 'NONE',  ( 0.000000000000000000, -1.000000000000000000, 0.000000000000000000 ) ) ;
#20 = DIRECTION ( 'NONE',  ( -1.000000000000000000, 0.000000000000000000, -0.000000000000000000 ) ) ;
#21 = EDGE_LOOP ( 'NONE', ( #205, #71, #479, #26 ) ) ;
#22 = VECTOR ( 'NONE', #375, 1000.000000000000000 ) ;
#23 = DIRECTION ( 'NONE',  ( -1.000000000000000000, 0.000000000000000000, 0.000000000000000000 ) ) ;
#24 = ORIENTED_EDGE ( 'NONE', *, *, #463, .F. ) ;
#25 = CARTESIAN_POINT ( 'NONE',  ( 0.000000000000000000, 1.800000000000000044, -1.800000000000000044 ) ) ;
#26 = ORIENTED_EDGE ( 'NONE', *, *, #316, .T. ) ;
#27 = CARTESIAN_POINT ( 'NONE',  ( -2.000000000000000888, 1.800000000000000044, 2.000000000000000000 ) ) ;
#28 = ORIENTED_EDGE ( 'NONE', *, *, #238, .F. ) ;
#29 = CARTESIAN_POINT ( 'NONE',  ( -1.800000000000000711, 1.800000000000000044, -1.800000000000000044 ) ) ;
#30 = EDGE_CURVE ( 'NONE', #260, #154, #234, .T. ) ;
#31 = CIRCLE ( 'NONE', #193, 0.2000000000000000944 ) ;
#32 = ORIENTED_EDGE ( 'NONE', *, *, #439, .T. ) ;
#33 = CARTESIAN_POINT ( 'NONE',  ( 1.999999999999999112, 0.000000000000000000, -1.800000000000000044 ) ) ;
#34 = EDGE_CURVE ( 'NONE', #74, #154, #148, .T. ) ;
#35 = DIRECTION ( 'NONE',  ( -1.000000000000000000, 0.000000000000000000, 0.000000000000000000 ) ) ;
#36 = DIRECTION ( 'NONE',  ( -1.000000000000000000, 0.000000000000000000, 0.000000000000000000 ) ) ;
#37 = DIRECTION ( 'NONE',  ( 0.000000000000000000, 0.000000000000000000, 1.000000000000000000 ) ) ;
#38 = CIRCLE ( 'NONE', #105, 0.2000000000000000944 ) ;
#39 = DIRECTION ( 'NONE',  ( 1.000000000000000000, 0.000000000000000000, 0.000000000000000000 ) ) ;
#40 = CARTESIAN_POINT ( 'NONE',  ( 1.999999999999999112, 1.800000000000000044, -2.000000000000000000 ) ) ;
#41 = CYLINDRICAL_SURFACE ( 'NONE', #108, 0.2000000000000000944 ) ;
#42 = ORIENTED_EDGE ( 'NONE', *, *, #342, .T. ) ;
#43 = ADVANCED_FACE ( 'NONE', ( #6 ), #118, .T. ) ;
#44 = PRODUCT_CONTEXT ( 'NONE', #444, 'mechanical' ) ;
#45 = DIRECTION ( 'NONE',  ( 1.000000000000000000, -0.000000000000000000, -0.000000000000000000 ) ) ;
#46 = PRODUCT_RELATED_PRODUCT_CATEGORY ( 'part', '', ( #133 ) ) ;
#47 = CARTESIAN_POINT ( 'NONE',  ( -1.800000000000000711, 1.800000000000000044, 2.000000000000000000 ) ) ;
#48 = AXIS2_PLACEMENT_3D ( 'NONE', #13, #469, #49 ) ;
#49 = DIRECTION ( 'NONE',  ( 0.000000000000000000, 0.000000000000000000, -1.000000000000000000 ) ) ;
#50 = ORIENTED_EDGE ( 'NONE', *, *, #272, .F. ) ;
#51 = CARTESIAN_POINT ( 'NONE',  ( 0.000000000000000000, 0.000000000000000000, 0.000000000000000000 ) ) ;
#52 = CARTESIAN_POINT ( 'NONE',  ( 1.799999999999999156, 1.800000000000000044, 1.800000000000000044 ) ) ;
#53 = EDGE_CURVE ( 'NONE', #62, #2, #426, .T. ) ;
#54 =( NAMED_UNIT ( * ) PLANE_ANGLE_UNIT ( ) SI_UNIT ( $, .RADIAN. ) );
#55 = AXIS2_PLACEMENT_3D ( 'NONE', #52, #330, #252 ) ;
#56 = VECTOR ( 'NONE', #313, 1000.000000000000000 ) ;
#57 = DIRECTION ( 'NONE',  ( 0.000000000000000000, 1.000000000000000000, -0.000000000000000000 ) ) ;
#58 = ORIENTED_EDGE ( 'NONE', *, *, #439, .F. ) ;
#59 = VECTOR ( 'NONE', #209, 1000.000000000000000 ) ;
#60 = CIRCLE ( 'NONE', #303, 0.2000000000000000944 ) ;
#61 = CARTESIAN_POINT ( 'NONE',  ( 1.799999999999999156, 1.800000000000000044, 2.000000000000000000 ) ) ;
#62 = VERTEX_POINT ( 'NONE', #77 ) ;
#63 = EDGE_CURVE ( 'NONE', #398, #305, #132, .T. ) ;
#64 = CARTESIAN_POINT ( 'NONE',  ( 1.799999999999999156, 1.800000000000000044, -2.000000000000000000 ) ) ;
#65 = ORIENTED_EDGE ( 'NONE', *, *, #34, .F. ) ;
#66 = FACE_OUTER_BOUND ( 'NONE', #393, .T. ) ;
#67 = EDGE_LOOP ( 'NONE', ( #137, #315, #195, #243 ) ) ;
#68 = CARTESIAN_POINT ( 'NONE',  ( 1.799999999999999156, 1.800000000000000044, -1.800000000000000044 ) ) ;
#69 = EDGE_LOOP ( 'NONE', ( #81, #221, #348, #411 ) ) ;
#70 = CARTESIAN_POINT ( 'NONE',  ( -1.800000000000000711, 2.000000000000000000, -2.000000000000000000 ) ) ;
#71 = ORIENTED_EDGE ( 'NONE', *, *, #289, .T. ) ;
#72 = EDGE_CURVE ( 'NONE', #427, #305, #156, .T. ) ;
#73 = DIRECTION ( 'NONE',  ( 0.000000000000000000, 0.000000000000000000, -1.000000000000000000 ) ) ;
#74 = VERTEX_POINT ( 'NONE', #206 ) ;
#75 = VECTOR ( 'NONE', #465, 1000.000000000000000 ) ;
#76 = DIRECTION ( 'NONE',  ( 0.000000000000000000, 0.000000000000000000, 1.000000000000000000 ) ) ;
#77 = CARTESIAN_POINT ( 'NONE',  ( 1.999999999999999112, 1.800000000000000044, 1.800000000000000044 ) ) ;
#78 = CARTESIAN_POINT ( 'NONE',  ( 1.799999999999999156, 1.800000000000000044, -1.800000000000000044 ) ) ;
#79 = VERTEX_POINT ( 'NONE', #356 ) ;
#80 = DIRECTION ( 'NONE',  ( -0.000000000000000000, 1.000000000000000000, -0.000000000000000000 ) ) ;
#81 = ORIENTED_EDGE ( 'NONE', *, *, #264, .T. ) ;
#82 = VECTOR ( 'NONE', #45, 1000.000000000000000 ) ;
#83 = DIRECTION ( 'NONE',  ( 1.000000000000000000, -0.000000000000000000, -0.000000000000000000 ) ) ;
#84 = EDGE_CURVE ( 'NONE', #253, #434, #452, .T. ) ;
#85 = CARTESIAN_POINT ( 'NONE',  ( -1.800000000000000711, 0.000000000000000000, 2.000000000000000000 ) ) ;
#86 = AXIS2_PLACEMENT_3D ( 'NONE', #239, #353, #160 ) ;
#87 = LINE ( 'NONE', #345, #388 ) ;
#88 = ORIENTED_EDGE ( 'NONE', *, *, #139, .F. ) ;
#89 = FACE_OUTER_BOUND ( 'NONE', #227, .T. ) ;
#90 = EDGE_CURVE ( 'NONE', #101, #62, #361, .T. ) ;
#91 = DIRECTION ( 'NONE',  ( -0.000000000000000000, 1.000000000000000000, -0.000000000000000000 ) ) ;
#92 = AXIS2_PLACEMENT_3D ( 'NONE', #341, #445, #450 ) ;
#93 = DIRECTION ( 'NONE',  ( 0.000000000000000000, -0.000000000000000000, 1.000000000000000000 ) ) ;
#94 = CYLINDRICAL_SURFACE ( 'NONE', #166, 0.2000000000000000944 ) ;
#95 = SPHERICAL_SURFACE ( 'NONE', #55, 0.2000000000000000111 ) ;
#96 = DIRECTION ( 'NONE',  ( -1.000000000000000000, 0.000000000000000000, 0.000000000000000000 ) ) ;
#97 = ADVANCED_FACE ( 'NONE', ( #120 ), #275, .T. ) ;
#98 = VECTOR ( 'NONE', #185, 1000.000000000000000 ) ;
#99 = ADVANCED_FACE ( 'NONE', ( #437 ), #95, .T. ) ;
#100 = DIRECTION ( 'NONE',  ( 0.000000000000000000, -1.000000000000000000, 0.000000000000000000 ) ) ;
#101 = VERTEX_POINT ( 'NONE', #61 ) ;
#102 = CARTESIAN_POINT ( 'NONE',  ( -1.800000000000000711, 1.800000000000000044, -1.800000000000000044 ) ) ;
#103 = ORIENTED_EDGE ( 'NONE', *, *, #53, .T. ) ;
#104 = CARTESIAN_POINT ( 'NONE',  ( 1.799999999999999156, 2.000000000000000000, -2.000000000000000000 ) ) ;
#105 = AXIS2_PLACEMENT_3D ( 'NONE', #208, #363, #171 ) ;
#106 = VECTOR ( 'NONE', #241, 1000.000000000000000 ) ;
#107 = ORIENTED_EDGE ( 'NONE', *, *, #244, .F. ) ;
#108 = AXIS2_PLACEMENT_3D ( 'NONE', #488, #121, #204 ) ;
#109 = DIRECTION ( 'NONE',  ( 0.000000000000000000, 0.000000000000000000, 1.000000000000000000 ) ) ;
#110 = ORIENTED_EDGE ( 'NONE', *, *, #84, .F. ) ;
#111 = EDGE_CURVE ( 'NONE', #335, #2, #283, .T. ) ;
#112 = PLANE ( 'NONE',  #370 ) ;
#113 = ORIENTED_EDGE ( 'NONE', *, *, #215, .T. ) ;
#114 = FACE_OUTER_BOUND ( 'NONE', #230, .T. ) ;
#115 = ORIENTED_EDGE ( 'NONE', *, *, #111, .F. ) ;
#116 = VECTOR ( 'NONE', #408, 1000.000000000000000 ) ;
#117 = SURFACE_STYLE_FILL_AREA ( #389 ) ;
#118 = CYLINDRICAL_SURFACE ( 'NONE', #349, 0.2000000000000000944 ) ;
#119 = SURFACE_STYLE_USAGE ( .BOTH. , #317 ) ;
#120 = FACE_OUTER_BOUND ( 'NONE', #414, .T. ) ;
#121 = DIRECTION ( 'NONE',  ( -1.000000000000000000, 0.000000000000000000, 0.000000000000000000 ) ) ;
#122 = ORIENTED_EDGE ( 'NONE', *, *, #129, .F. ) ;
#123 = VECTOR ( 'NONE', #247, 1000.000000000000000 ) ;
#124 = DIRECTION ( 'NONE',  ( -0.000000000000000000, 1.000000000000000000, 0.000000000000000000 ) ) ;
#125 = CIRCLE ( 'NONE', #142, 0.2000000000000000944 ) ;
#126 =( GEOMETRIC_REPRESENTATION_CONTEXT ( 3 ) GLOBAL_UNCERTAINTY_ASSIGNED_CONTEXT ( ( #176 ) ) GLOBAL_UNIT_ASSIGNED_CONTEXT ( ( #198, #490, #269 ) ) REPRESENTATION_CONTEXT ( 'NONE', 'WORKASPACE' ) );
#127 = ADVANCED_FACE ( 'NONE', ( #89 ), #404, .T. ) ;
#128 = FACE_OUTER_BOUND ( 'NONE', #18, .T. ) ;
#129 = EDGE_CURVE ( 'NONE', #434, #79, #447, .T. ) ;
#130 = CARTESIAN_POINT ( 'NONE',  ( -1.800000000000000711, 1.800000000000000044, 1.800000000000000044 ) ) ;
#131 = FACE_OUTER_BOUND ( 'NONE', #475, .T. ) ;
#132 = CIRCLE ( 'NONE', #299, 0.2000000000000000944 ) ;
#133 = PRODUCT ( 'BAR4X4T2', 'BAR4X4T2', '', ( #44 ) ) ;
#134 = CARTESIAN_POINT ( 'NONE',  ( -1.800000000000000711, 1.800000000000000044, 1.800000000000000044 ) ) ;
#135 = ORIENTED_EDGE ( 'NONE', *, *, #5, .T. ) ;
#136 = PLANE ( 'NONE',  #357 ) ;
#137 = ORIENTED_EDGE ( 'NONE', *, *, #183, .T. ) ;
#138 = ADVANCED_BREP_SHAPE_REPRESENTATION ( 'BAR4X4T2', ( #402, #483 ), #320 ) ;
#139 = EDGE_CURVE ( 'NONE', #74, #144, #322, .T. ) ;
#140 = FACE_OUTER_BOUND ( 'NONE', #69, .T. ) ;
#141 = CARTESIAN_POINT ( 'NONE',  ( 1.999999999999999112, 0.000000000000000000, 1.800000000000000044 ) ) ;
#142 = AXIS2_PLACEMENT_3D ( 'NONE', #29, #453, #76 ) ;
#143 = DIRECTION ( 'NONE',  ( 1.000000000000000000, 0.000000000000000000, 0.000000000000000000 ) ) ;
#144 = VERTEX_POINT ( 'NONE', #360 ) ;
#145 = CARTESIAN_POINT ( 'NONE',  ( 1.799999999999999156, 2.000000000000000000, -2.000000000000000000 ) ) ;
#146 = ORIENTED_EDGE ( 'NONE', *, *, #394, .T. ) ;
#147 = EDGE_CURVE ( 'NONE', #144, #191, #167, .T. ) ;
#148 = CIRCLE ( 'NONE', #480, 0.2000000000000000944 ) ;
#149 = ORIENTED_EDGE ( 'NONE', *, *, #481, .F. ) ;
#150 = VECTOR ( 'NONE', #39, 1000.000000000000000 ) ;
#151 = LINE ( 'NONE', #27, #116 ) ;
#152 = ORIENTED_EDGE ( 'NONE', *, *, #264, .F. ) ;
#153 = EDGE_CURVE ( 'NONE', #11, #144, #237, .T. ) ;
#154 = VERTEX_POINT ( 'NONE', #218 ) ;
#155 = EDGE_CURVE ( 'NONE', #101, #2, #38, .T. ) ;
#156 = LINE ( 'NONE', #40, #82 ) ;
#157 = VECTOR ( 'NONE', #413, 1000.000000000000000 ) ;
#158 = DIRECTION ( 'NONE',  ( 0.000000000000000000, -0.000000000000000000, 1.000000000000000000 ) ) ;
#159 = CARTESIAN_POINT ( 'NONE',  ( -1.800000000000000711, 1.800000000000000044, 1.800000000000000044 ) ) ;
#160 = DIRECTION ( 'NONE',  ( 0.000000000000000000, 0.000000000000000000, -1.000000000000000000 ) ) ;
#161 = ORIENTED_EDGE ( 'NONE', *, *, #153, .F. ) ;
#162 = DIRECTION ( 'NONE',  ( 0.000000000000000000, 0.000000000000000000, 1.000000000000000000 ) ) ;
#163 = ADVANCED_FACE ( 'NONE', ( #140 ), #94, .T. ) ;
#164 = ORIENTED_EDGE ( 'NONE', *, *, #244, .T. ) ;
#165 = CIRCLE ( 'NONE', #378, 0.2000000000000000944 ) ;
#166 = AXIS2_PLACEMENT_3D ( 'NONE', #464, #397, #170 ) ;
#167 = LINE ( 'NONE', #470, #466 ) ;
#168 = AXIS2_PLACEMENT_3D ( 'NONE', #130, #93, #285 ) ;
#169 = DIRECTION ( 'NONE',  ( 0.000000000000000000, 0.000000000000000000, 1.000000000000000000 ) ) ;
#170 = DIRECTION ( 'NONE',  ( 1.000000000000000000, 0.000000000000000000, 0.000000000000000000 ) ) ;
#171 = DIRECTION ( 'NONE',  ( 0.000000000000000000, 0.000000000000000000, -1.000000000000000000 ) ) ;
#172 = VECTOR ( 'NONE', #35, 1000.000000000000000 ) ;
#173 = CARTESIAN_POINT ( 'NONE',  ( -1.800000000000000711, 0.000000000000000000, 1.800000000000000044 ) ) ;
#174 = ORIENTED_EDGE ( 'NONE', *, *, #16, .F. ) ;
#175 = COLOUR_RGB ( '',0.8980392156862745390, 0.9215686274509803377, 0.9294117647058823817 ) ;
#176 = UNCERTAINTY_MEASURE_WITH_UNIT (LENGTH_MEASURE( 1.000000000000000082E-05 ), #198, 'distance_accuracy_value', 'NONE');
#177 = ADVANCED_FACE ( 'NONE', ( #128 ), #327, .T. ) ;
#178 = APPLICATION_PROTOCOL_DEFINITION ( 'draft international standard', 'automotive_design', 1998, #187 ) ;
#179 = LINE ( 'NONE', #323, #75 ) ;
#180 = FACE_OUTER_BOUND ( 'NONE', #459, .T. ) ;
#181 = SPHERICAL_SURFACE ( 'NONE', #396, 0.2000000000000000111 ) ;
#182 = ORIENTED_EDGE ( 'NONE', *, *, #374, .T. ) ;
#183 = EDGE_CURVE ( 'NONE', #434, #335, #282, .T. ) ;
#184 = VECTOR ( 'NONE', #19, 1000.000000000000000 ) ;
#185 = DIRECTION ( 'NONE',  ( 0.000000000000000000, -1.000000000000000000, 0.000000000000000000 ) ) ;
#186 = ORIENTED_EDGE ( 'NONE', *, *, #153, .T. ) ;
#187 = APPLICATION_CONTEXT ( 'automotive_design' ) ;
#188 = CARTESIAN_POINT ( 'NONE',  ( -1.800000000000000711, 2.000000000000000000, -1.800000000000000044 ) ) ;
#189 = ORIENTED_EDGE ( 'NONE', *, *, #272, .T. ) ;
#190 = PLANE ( 'NONE',  #92 ) ;
#191 = VERTEX_POINT ( 'NONE', #324 ) ;
#192 = ADVANCED_FACE ( 'NONE', ( #245 ), #286, .T. ) ;
#193 = AXIS2_PLACEMENT_3D ( 'NONE', #457, #83, #162 ) ;
#194 = FACE_OUTER_BOUND ( 'NONE', #343, .T. ) ;
#195 = ORIENTED_EDGE ( 'NONE', *, *, #331, .T. ) ;
#196 = CARTESIAN_POINT ( 'NONE',  ( 1.999999999999999112, 1.800000000000000044, -1.800000000000000044 ) ) ;
#197 = VERTEX_POINT ( 'NONE', #47 ) ;
#198 =( LENGTH_UNIT ( ) NAMED_UNIT ( * ) SI_UNIT ( .MILLI., .METRE. ) );
#199 = ORIENTED_EDGE ( 'NONE', *, *, #147, .T. ) ;
#200 = AXIS2_PLACEMENT_3D ( 'NONE', #424, #291, #401 ) ;
#201 = CARTESIAN_POINT ( 'NONE',  ( 1.799999999999999156, 0.000000000000000000, 2.000000000000000000 ) ) ;
#202 = CARTESIAN_POINT ( 'NONE',  ( 1.799999999999999156, 2.000000000000000000, 1.800000000000000044 ) ) ;
#203 = ADVANCED_FACE ( 'NONE', ( #250 ), #136, .F. ) ;
#204 = DIRECTION ( 'NONE',  ( 0.000000000000000000, 0.000000000000000000, 1.000000000000000000 ) ) ;
#205 = ORIENTED_EDGE ( 'NONE', *, *, #30, .T. ) ;
#206 = CARTESIAN_POINT ( 'NONE',  ( -2.000000000000000888, 0.000000000000000000, -1.800000000000000044 ) ) ;
#207 = DIRECTION ( 'NONE',  ( -0.000000000000000000, 1.000000000000000000, -0.000000000000000000 ) ) ;
#208 = CARTESIAN_POINT ( 'NONE',  ( 1.799999999999999156, 1.800000000000000044, 1.800000000000000044 ) ) ;
#209 = DIRECTION ( 'NONE',  ( 0.000000000000000000, -1.000000000000000000, 0.000000000000000000 ) ) ;
#210 = DIRECTION ( 'NONE',  ( -0.000000000000000000, -1.000000000000000000, -0.000000000000000000 ) ) ;
#211 = CARTESIAN_POINT ( 'NONE',  ( 1.999999999999999112, 2.000000000000000000, 1.800000000000000044 ) ) ;
#212 = ORIENTED_EDGE ( 'NONE', *, *, #316, .F. ) ;
#213 = AXIS2_PLACEMENT_3D ( 'NONE', #350, #489, #456 ) ;
#214 = CARTESIAN_POINT ( 'NONE',  ( -1.800000000000000711, 1.800000000000000044, -1.800000000000000044 ) ) ;
#215 = EDGE_CURVE ( 'NONE', #398, #62, #179, .T. ) ;
#216 = PRESENTATION_LAYER_ASSIGNMENT (  '', '', ( #429 ) ) ;
#217 = ADVANCED_FACE ( 'NONE', ( #131 ), #372, .T. ) ;
#218 = CARTESIAN_POINT ( 'NONE',  ( -1.800000000000000711, 0.000000000000000000, -2.000000000000000000 ) ) ;
#219 = FACE_OUTER_BOUND ( 'NONE', #268, .T. ) ;
#220 = EDGE_CURVE ( 'NONE', #62, #225, #482, .T. ) ;
#221 = ORIENTED_EDGE ( 'NONE', *, *, #331, .F. ) ;
#222 = CARTESIAN_POINT ( 'NONE',  ( 1.799999999999999156, 0.000000000000000000, 1.800000000000000044 ) ) ;
#223 = ORIENTED_EDGE ( 'NONE', *, *, #374, .F. ) ;
#224 = LINE ( 'NONE', #70, #246 ) ;
#225 = VERTEX_POINT ( 'NONE', #141 ) ;
#226 = DIRECTION ( 'NONE',  ( -0.000000000000000000, 1.000000000000000000, -0.000000000000000000 ) ) ;
#227 = EDGE_LOOP ( 'NONE', ( #346, #135, #223 ) ) ;
#228 = ADVANCED_FACE ( 'NONE', ( #472 ), #257, .T. ) ;
#229 = CARTESIAN_POINT ( 'NONE',  ( -2.000000000000000888, 2.000000000000000000, -2.000000000000000000 ) ) ;
#230 = EDGE_LOOP ( 'NONE', ( #266, #186, #88, #376, #368, #468, #174, #42 ) ) ;
#231 = VECTOR ( 'NONE', #359, 1000.000000000000000 ) ;
#232 = CARTESIAN_POINT ( 'NONE',  ( -2.000000000000000888, 2.000000000000000000, -1.800000000000000044 ) ) ;
#233 = DIRECTION ( 'NONE',  ( 0.000000000000000000, 1.000000000000000000, 0.000000000000000000 ) ) ;
#234 = LINE ( 'NONE', #307, #56 ) ;
#235 = DIRECTION ( 'NONE',  ( -1.000000000000000000, 0.000000000000000000, 0.000000000000000000 ) ) ;
#236 = DIRECTION ( 'NONE',  ( 0.000000000000000000, 1.000000000000000000, -0.000000000000000000 ) ) ;
#237 = CIRCLE ( 'NONE', #261, 0.2000000000000000944 ) ;
#238 = EDGE_CURVE ( 'NONE', #434, #427, #473, .T. ) ;
#239 = CARTESIAN_POINT ( 'NONE',  ( 1.799999999999999156, 1.800000000000000044, -1.800000000000000044 ) ) ;
#240 = MECHANICAL_DESIGN_GEOMETRIC_PRESENTATION_REPRESENTATION (  '', ( #429 ), #126 ) ;
#241 = DIRECTION ( 'NONE',  ( -0.000000000000000000, -0.000000000000000000, -1.000000000000000000 ) ) ;
#242 = SHAPE_DEFINITION_REPRESENTATION ( #300, #138 ) ;
#243 = ORIENTED_EDGE ( 'NONE', *, *, #84, .T. ) ;
#244 = EDGE_CURVE ( 'NONE', #191, #79, #297, .T. ) ;
#245 = FACE_OUTER_BOUND ( 'NONE', #67, .T. ) ;
#246 = VECTOR ( 'NONE', #226, 1000.000000000000000 ) ;
#247 = DIRECTION ( 'NONE',  ( 1.000000000000000000, -0.000000000000000000, 0.000000000000000000 ) ) ;
#248 = ORIENTED_EDGE ( 'NONE', *, *, #63, .T. ) ;
#249 =( LENGTH_UNIT ( ) NAMED_UNIT ( * ) SI_UNIT ( .MILLI., .METRE. ) );
#250 = FACE_OUTER_BOUND ( 'NONE', #251, .T. ) ;
#251 = EDGE_LOOP ( 'NONE', ( #371, #373, #113, #409 ) ) ;
#252 = DIRECTION ( 'NONE',  ( 0.000000000000000000, 0.000000000000000000, -1.000000000000000000 ) ) ;
#253 = VERTEX_POINT ( 'NONE', #448 ) ;
#254 = ADVANCED_FACE ( 'NONE', ( #180 ), #181, .T. ) ;
#255 = DIRECTION ( 'NONE',  ( -0.000000000000000000, -0.000000000000000000, 1.000000000000000000 ) ) ;
#256 = CIRCLE ( 'NONE', #86, 0.2000000000000000944 ) ;
#257 = CYLINDRICAL_SURFACE ( 'NONE', #435, 0.2000000000000000944 ) ;
#258 = ORIENTED_EDGE ( 'NONE', *, *, #72, .F. ) ;
#259 = FACE_OUTER_BOUND ( 'NONE', #21, .T. ) ;
#260 = VERTEX_POINT ( 'NONE', #332 ) ;
#261 = AXIS2_PLACEMENT_3D ( 'NONE', #173, #210, #407 ) ;
#262 = DIRECTION ( 'NONE',  ( -0.000000000000000000, -1.000000000000000000, -0.000000000000000000 ) ) ;
#263 = EDGE_LOOP ( 'NONE', ( #491, #352, #485, #24 ) ) ;
#264 = EDGE_CURVE ( 'NONE', #398, #253, #334, .T. ) ;
#265 = DIRECTION ( 'NONE',  ( 0.000000000000000000, 1.000000000000000000, 0.000000000000000000 ) ) ;
#266 = ORIENTED_EDGE ( 'NONE', *, *, #394, .F. ) ;
#267 = CARTESIAN_POINT ( 'NONE',  ( -2.000000000000000888, 2.000000000000000000, 2.000000000000000000 ) ) ;
#268 = EDGE_LOOP ( 'NONE', ( #189, #337, #146, #390 ) ) ;
#269 =( NAMED_UNIT ( * ) SI_UNIT ( $, .STERADIAN. ) SOLID_ANGLE_UNIT ( ) );
#270 = DIRECTION ( 'NONE',  ( -0.000000000000000000, -1.000000000000000000, -0.000000000000000000 ) ) ;
#271 = AXIS2_PLACEMENT_3D ( 'NONE', #188, #100, #338 ) ;
#272 = EDGE_CURVE ( 'NONE', #101, #197, #151, .T. ) ;
#273 = CARTESIAN_POINT ( 'NONE',  ( 1.799999999999999156, 1.800000000000000044, -1.800000000000000044 ) ) ;
#274 = CARTESIAN_POINT ( 'NONE',  ( -1.800000000000000711, 1.800000000000000044, 0.000000000000000000 ) ) ;
#275 = CYLINDRICAL_SURFACE ( 'NONE', #200, 0.2000000000000000944 ) ;
#276 = LINE ( 'NONE', #486, #150 ) ;
#277 = ORIENTED_EDGE ( 'NONE', *, *, #63, .F. ) ;
#278 = FACE_OUTER_BOUND ( 'NONE', #287, .T. ) ;
#279 = EDGE_CURVE ( 'NONE', #197, #11, #336, .T. ) ;
#280 = DIRECTION ( 'NONE',  ( 0.000000000000000000, 0.000000000000000000, -1.000000000000000000 ) ) ;
#281 = ADVANCED_FACE ( 'NONE', ( #259 ), #304, .F. ) ;
#282 = LINE ( 'NONE', #432, #231 ) ;
#283 = LINE ( 'NONE', #211, #123 ) ;
#284 = ORIENTED_EDGE ( 'NONE', *, *, #391, .F. ) ;
#285 = DIRECTION ( 'NONE',  ( 1.000000000000000000, 0.000000000000000000, 0.000000000000000000 ) ) ;
#286 = PLANE ( 'NONE',  #7 ) ;
#287 = EDGE_LOOP ( 'NONE', ( #382, #107, #14, #310 ) ) ;
#288 = CARTESIAN_POINT ( 'NONE',  ( 1.999999999999999112, 2.000000000000000000, -2.000000000000000000 ) ) ;
#289 = EDGE_CURVE ( 'NONE', #154, #427, #224, .T. ) ;
#290 = ORIENTED_EDGE ( 'NONE', *, *, #355, .F. ) ;
#291 = DIRECTION ( 'NONE',  ( 0.000000000000000000, -1.000000000000000000, 0.000000000000000000 ) ) ;
#292 = DIRECTION ( 'NONE',  ( -0.000000000000000000, -0.000000000000000000, 1.000000000000000000 ) ) ;
#293 = AXIS2_PLACEMENT_3D ( 'NONE', #102, #415, #109 ) ;
#294 = CIRCLE ( 'NONE', #168, 0.2000000000000000944 ) ;
#295 = CARTESIAN_POINT ( 'NONE',  ( -2.000000000000000888, 1.800000000000000044, -2.000000000000000000 ) ) ;
#296 = ORIENTED_EDGE ( 'NONE', *, *, #147, .F. ) ;
#297 = LINE ( 'NONE', #295, #157 ) ;
#298 = EDGE_LOOP ( 'NONE', ( #284, #258, #28, #110 ) ) ;
#299 = AXIS2_PLACEMENT_3D ( 'NONE', #273, #124, #431 ) ;
#300 = PRODUCT_DEFINITION_SHAPE ( 'NONE', 'NONE',  #319 ) ;
#301 = DIRECTION ( 'NONE',  ( -1.000000000000000000, 0.000000000000000000, 0.000000000000000000 ) ) ;
#302 = ORIENTED_EDGE ( 'NONE', *, *, #90, .T. ) ;
#303 = AXIS2_PLACEMENT_3D ( 'NONE', #222, #262, #3 ) ;
#304 = PLANE ( 'NONE',  #455 ) ;
#305 = VERTEX_POINT ( 'NONE', #64 ) ;
#306 = ADVANCED_FACE ( 'NONE', ( #66 ), #190, .F. ) ;
#307 = CARTESIAN_POINT ( 'NONE',  ( -2.000000000000000888, 0.000000000000000000, -2.000000000000000000 ) ) ;
#308 = ADVANCED_FACE ( 'NONE', ( #219 ), #112, .F. ) ;
#309 = LINE ( 'NONE', #403, #461 ) ;
#310 = ORIENTED_EDGE ( 'NONE', *, *, #183, .F. ) ;
#311 = AXIS2_PLACEMENT_3D ( 'NONE', #68, #292, #301 ) ;
#312 = CARTESIAN_POINT ( 'NONE',  ( -1.800000000000000711, 1.800000000000000044, -2.000000000000000000 ) ) ;
#313 = DIRECTION ( 'NONE',  ( -1.000000000000000000, -0.000000000000000000, -0.000000000000000000 ) ) ;
#314 = FILL_AREA_STYLE_COLOUR ( '', #175 ) ;
#315 = ORIENTED_EDGE ( 'NONE', *, *, #111, .T. ) ;
#316 = EDGE_CURVE ( 'NONE', #305, #260, #333, .T. ) ;
#317 = SURFACE_SIDE_STYLE ('',( #117 ) ) ;
#318 = CARTESIAN_POINT ( 'NONE',  ( 1.799999999999999156, 2.000000000000000000, 1.800000000000000044 ) ) ;
#319 = PRODUCT_DEFINITION ( 'UNKNOWN', '', #344, #12 ) ;
#320 =( GEOMETRIC_REPRESENTATION_CONTEXT ( 3 ) GLOBAL_UNCERTAINTY_ASSIGNED_CONTEXT ( ( #399 ) ) GLOBAL_UNIT_ASSIGNED_CONTEXT ( ( #249, #54, #9 ) ) REPRESENTATION_CONTEXT ( 'NONE', 'WORKASPACE' ) );
#321 = AXIS2_PLACEMENT_3D ( 'NONE', #274, #1, #235 ) ;
#322 = LINE ( 'NONE', #433, #340 ) ;
#323 = CARTESIAN_POINT ( 'NONE',  ( 1.999999999999999112, 1.800000000000000044, 2.000000000000000000 ) ) ;
#324 = CARTESIAN_POINT ( 'NONE',  ( -2.000000000000000888, 1.800000000000000044, 1.800000000000000044 ) ) ;
#325 = EDGE_LOOP ( 'NONE', ( #248, #477, #152 ) ) ;
#326 = AXIS2_PLACEMENT_3D ( 'NONE', #134, #57, #438 ) ;
#327 = CYLINDRICAL_SURFACE ( 'NONE', #48, 0.2000000000000000944 ) ;
#328 = CIRCLE ( 'NONE', #484, 0.2000000000000000944 ) ;
#329 = ORIENTED_EDGE ( 'NONE', *, *, #238, .T. ) ;
#330 = DIRECTION ( 'NONE',  ( -0.000000000000000000, 1.000000000000000000, 0.000000000000000000 ) ) ;
#331 = EDGE_CURVE ( 'NONE', #2, #253, #417, .T. ) ;
#332 = CARTESIAN_POINT ( 'NONE',  ( 1.799999999999999156, 0.000000000000000000, -2.000000000000000000 ) ) ;
#333 = LINE ( 'NONE', #145, #98 ) ;
#334 = CIRCLE ( 'NONE', #311, 0.2000000000000000944 ) ;
#335 = VERTEX_POINT ( 'NONE', #474 ) ;
#336 = LINE ( 'NONE', #442, #184 ) ;
#337 = ORIENTED_EDGE ( 'NONE', *, *, #279, .T. ) ;
#338 = DIRECTION ( 'NONE',  ( 0.000000000000000000, 0.000000000000000000, -1.000000000000000000 ) ) ;
#339 = EDGE_LOOP ( 'NONE', ( #302, #103, #451 ) ) ;
#340 = VECTOR ( 'NONE', #366, 1000.000000000000000 ) ;
#341 = CARTESIAN_POINT ( 'NONE',  ( -2.000000000000000888, 2.000000000000000000, -2.000000000000000000 ) ) ;
#342 = EDGE_CURVE ( 'NONE', #225, #416, #60, .T. ) ;
#343 = EDGE_LOOP ( 'NONE', ( #182, #50, #487, #115 ) ) ;
#344 = PRODUCT_DEFINITION_FORMATION_WITH_SPECIFIED_SOURCE ( 'ANY', '', #133, .NOT_KNOWN. ) ;
#345 = CARTESIAN_POINT ( 'NONE',  ( 1.999999999999999112, 2.000000000000000000, -1.800000000000000044 ) ) ;
#346 = ORIENTED_EDGE ( 'NONE', *, *, #471, .T. ) ;
#347 = FACE_OUTER_BOUND ( 'NONE', #325, .T. ) ;
#348 = ORIENTED_EDGE ( 'NONE', *, *, #53, .F. ) ;
#349 = AXIS2_PLACEMENT_3D ( 'NONE', #202, #4, #280 ) ;
#350 = CARTESIAN_POINT ( 'NONE',  ( 1.799999999999999156, 1.800000000000000044, 1.800000000000000044 ) ) ;
#351 = DIRECTION ( 'NONE',  ( 0.000000000000000000, 1.000000000000000000, 0.000000000000000000 ) ) ;
#352 = ORIENTED_EDGE ( 'NONE', *, *, #220, .F. ) ;
#353 = DIRECTION ( 'NONE',  ( 1.000000000000000000, -0.000000000000000000, 0.000000000000000000 ) ) ;
#354 = DIRECTION ( 'NONE',  ( 0.000000000000000000, 0.000000000000000000, 1.000000000000000000 ) ) ;
#355 = EDGE_CURVE ( 'NONE', #443, #398, #87, .T. ) ;
#356 = CARTESIAN_POINT ( 'NONE',  ( -2.000000000000000888, 1.800000000000000044, -1.800000000000000044 ) ) ;
#357 = AXIS2_PLACEMENT_3D ( 'NONE', #288, #8, #17 ) ;
#358 = EDGE_CURVE ( 'NONE', #260, #443, #328, .T. ) ;
#359 = DIRECTION ( 'NONE',  ( -0.000000000000000000, 0.000000000000000000, 1.000000000000000000 ) ) ;
#360 = CARTESIAN_POINT ( 'NONE',  ( -2.000000000000000888, 0.000000000000000000, 1.800000000000000044 ) ) ;
#361 = CIRCLE ( 'NONE', #213, 0.2000000000000000944 ) ;
#362 = APPLICATION_PROTOCOL_DEFINITION ( 'draft international standard', 'automotive_design', 1998, #444 ) ;
#363 = DIRECTION ( 'NONE',  ( -1.000000000000000000, -0.000000000000000000, -0.000000000000000000 ) ) ;
#364 = ORIENTED_EDGE ( 'NONE', *, *, #139, .T. ) ;
#365 = ADVANCED_FACE ( 'NONE', ( #194 ), #41, .T. ) ;
#366 = DIRECTION ( 'NONE',  ( 0.000000000000000000, 0.000000000000000000, 1.000000000000000000 ) ) ;
#367 = DIRECTION ( 'NONE',  ( 0.000000000000000000, 0.000000000000000000, -1.000000000000000000 ) ) ;
#368 = ORIENTED_EDGE ( 'NONE', *, *, #30, .F. ) ;
#369 = CARTESIAN_POINT ( 'NONE',  ( -1.800000000000000711, 1.800000000000000044, -1.800000000000000044 ) ) ;
#370 = AXIS2_PLACEMENT_3D ( 'NONE', #267, #367, #20 ) ;
#371 = ORIENTED_EDGE ( 'NONE', *, *, #16, .T. ) ;
#372 = CYLINDRICAL_SURFACE ( 'NONE', #271, 0.2000000000000000944 ) ;
#373 = ORIENTED_EDGE ( 'NONE', *, *, #355, .T. ) ;
#374 = EDGE_CURVE ( 'NONE', #335, #197, #31, .T. ) ;
#375 = DIRECTION ( 'NONE',  ( 0.000000000000000000, -1.000000000000000000, 0.000000000000000000 ) ) ;
#376 = ORIENTED_EDGE ( 'NONE', *, *, #34, .T. ) ;
#377 = CLOSED_SHELL ( 'NONE', ( #203, #281, #306, #308, #192, #428, #217, #228, #177, #254, #458, #97, #405, #163, #43, #127, #99, #365 ) ) ;
#378 = AXIS2_PLACEMENT_3D ( 'NONE', #159, #236, #354 ) ;
#379 = CARTESIAN_POINT ( 'NONE',  ( -1.800000000000000711, 2.000000000000000000, -1.800000000000000044 ) ) ;
#380 = ORIENTED_EDGE ( 'NONE', *, *, #481, .T. ) ;
#381 = CARTESIAN_POINT ( 'NONE',  ( 1.799999999999999156, 0.000000000000000000, -1.800000000000000044 ) ) ;
#382 = ORIENTED_EDGE ( 'NONE', *, *, #129, .T. ) ;
#383 = PRESENTATION_STYLE_ASSIGNMENT (( #119 ) ) ;
#384 = CARTESIAN_POINT ( 'NONE',  ( 1.999999999999999112, 0.000000000000000000, -2.000000000000000000 ) ) ;
#385 = CYLINDRICAL_SURFACE ( 'NONE', #321, 0.2000000000000000944 ) ;
#386 = AXIS2_PLACEMENT_3D ( 'NONE', #387, #422, #460 ) ;
#387 = CARTESIAN_POINT ( 'NONE',  ( 1.799999999999999156, 1.800000000000000044, 1.800000000000000044 ) ) ;
#388 = VECTOR ( 'NONE', #80, 1000.000000000000000 ) ;
#389 = FILL_AREA_STYLE ('',( #314 ) ) ;
#390 = ORIENTED_EDGE ( 'NONE', *, *, #463, .T. ) ;
#391 = EDGE_CURVE ( 'NONE', #305, #253, #256, .T. ) ;
#392 = LINE ( 'NONE', #400, #59 ) ;
#393 = EDGE_LOOP ( 'NONE', ( #364, #199, #164, #380 ) ) ;
#394 = EDGE_CURVE ( 'NONE', #11, #416, #276, .T. ) ;
#395 = DIRECTION ( 'NONE',  ( 0.000000000000000000, 1.000000000000000000, 0.000000000000000000 ) ) ;
#396 = AXIS2_PLACEMENT_3D ( 'NONE', #369, #265, #23 ) ;
#397 = DIRECTION ( 'NONE',  ( 0.000000000000000000, -0.000000000000000000, 1.000000000000000000 ) ) ;
#398 = VERTEX_POINT ( 'NONE', #196 ) ;
#399 = UNCERTAINTY_MEASURE_WITH_UNIT (LENGTH_MEASURE( 1.000000000000000082E-05 ), #249, 'distance_accuracy_value', 'NONE');
#400 = CARTESIAN_POINT ( 'NONE',  ( -2.000000000000000888, 2.000000000000000000, -1.800000000000000044 ) ) ;
#401 = DIRECTION ( 'NONE',  ( 0.000000000000000000, 0.000000000000000000, -1.000000000000000000 ) ) ;
#402 = MANIFOLD_SOLID_BREP ( '\X2\570689d2\X0\1', #377 ) ;
#403 = CARTESIAN_POINT ( 'NONE',  ( 1.799999999999999156, 2.000000000000000000, 2.000000000000000000 ) ) ;
#404 = SPHERICAL_SURFACE ( 'NONE', #326, 0.2000000000000000111 ) ;
#405 = ADVANCED_FACE ( 'NONE', ( #278 ), #385, .T. ) ;
#406 = AXIS2_PLACEMENT_3D ( 'NONE', #78, #233, #36 ) ;
#407 = DIRECTION ( 'NONE',  ( 0.000000000000000000, 0.000000000000000000, 1.000000000000000000 ) ) ;
#408 = DIRECTION ( 'NONE',  ( -1.000000000000000000, -0.000000000000000000, -0.000000000000000000 ) ) ;
#409 = ORIENTED_EDGE ( 'NONE', *, *, #220, .T. ) ;
#410 = DIRECTION ( 'NONE',  ( 1.000000000000000000, 0.000000000000000000, -0.000000000000000000 ) ) ;
#411 = ORIENTED_EDGE ( 'NONE', *, *, #215, .F. ) ;
#412 = AXIS2_PLACEMENT_3D ( 'NONE', #214, #255, #96 ) ;
#413 = DIRECTION ( 'NONE',  ( 0.000000000000000000, -0.000000000000000000, -1.000000000000000000 ) ) ;
#414 = EDGE_LOOP ( 'NONE', ( #161, #418, #446, #296 ) ) ;
#415 = DIRECTION ( 'NONE',  ( -1.000000000000000000, 0.000000000000000000, 0.000000000000000000 ) ) ;
#416 = VERTEX_POINT ( 'NONE', #201 ) ;
#417 = LINE ( 'NONE', #104, #15 ) ;
#418 = ORIENTED_EDGE ( 'NONE', *, *, #279, .F. ) ;
#419 = PLANE ( 'NONE',  #462 ) ;
#420 = CARTESIAN_POINT ( 'NONE',  ( -1.800000000000000711, 0.000000000000000000, -1.800000000000000044 ) ) ;
#421 = SPHERICAL_SURFACE ( 'NONE', #406, 0.2000000000000000111 ) ;
#422 = DIRECTION ( 'NONE',  ( 0.000000000000000000, 0.000000000000000000, 1.000000000000000000 ) ) ;
#423 = DIRECTION ( 'NONE',  ( 0.000000000000000000, 0.000000000000000000, 1.000000000000000000 ) ) ;
#424 = CARTESIAN_POINT ( 'NONE',  ( -1.800000000000000711, 2.000000000000000000, 1.800000000000000044 ) ) ;
#425 = DIRECTION ( 'NONE',  ( -0.000000000000000000, -1.000000000000000000, -0.000000000000000000 ) ) ;
#426 = CIRCLE ( 'NONE', #386, 0.2000000000000000944 ) ;
#427 = VERTEX_POINT ( 'NONE', #312 ) ;
#428 = ADVANCED_FACE ( 'NONE', ( #114 ), #419, .F. ) ;
#429 = STYLED_ITEM ( 'NONE', ( #383 ), #402 ) ;
#430 = CARTESIAN_POINT ( 'NONE',  ( 0.000000000000000000, 0.000000000000000000, 0.000000000000000000 ) ) ;
#431 = DIRECTION ( 'NONE',  ( 0.000000000000000000, 0.000000000000000000, 1.000000000000000000 ) ) ;
#432 = CARTESIAN_POINT ( 'NONE',  ( -1.800000000000000711, 2.000000000000000000, 2.000000000000000000 ) ) ;
#433 = CARTESIAN_POINT ( 'NONE',  ( -2.000000000000000888, 0.000000000000000000, -2.000000000000000000 ) ) ;
#434 = VERTEX_POINT ( 'NONE', #379 ) ;
#435 = AXIS2_PLACEMENT_3D ( 'NONE', #25, #143, #478 ) ;
#436 = DIRECTION ( 'NONE',  ( 1.000000000000000000, 0.000000000000000000, 0.000000000000000000 ) ) ;
#437 = FACE_OUTER_BOUND ( 'NONE', #339, .T. ) ;
#438 = DIRECTION ( 'NONE',  ( 0.000000000000000000, 0.000000000000000000, 1.000000000000000000 ) ) ;
#439 = EDGE_CURVE ( 'NONE', #427, #79, #125, .T. ) ;
#440 = CARTESIAN_POINT ( 'NONE',  ( 1.999999999999999112, 2.000000000000000000, 1.800000000000000044 ) ) ;
#441 = ORIENTED_EDGE ( 'NONE', *, *, #289, .F. ) ;
#442 = CARTESIAN_POINT ( 'NONE',  ( -1.800000000000000711, 2.000000000000000000, 2.000000000000000000 ) ) ;
#443 = VERTEX_POINT ( 'NONE', #33 ) ;
#444 = APPLICATION_CONTEXT ( 'automotive_design' ) ;
#445 = DIRECTION ( 'NONE',  ( 1.000000000000000000, 0.000000000000000000, 0.000000000000000000 ) ) ;
#446 = ORIENTED_EDGE ( 'NONE', *, *, #5, .F. ) ;
#447 = CIRCLE ( 'NONE', #412, 0.2000000000000000944 ) ;
#448 = CARTESIAN_POINT ( 'NONE',  ( 1.799999999999999156, 2.000000000000000000, -1.800000000000000044 ) ) ;
#449 = ORIENTED_EDGE ( 'NONE', *, *, #358, .F. ) ;
#450 = DIRECTION ( 'NONE',  ( 0.000000000000000000, 0.000000000000000000, -1.000000000000000000 ) ) ;
#451 = ORIENTED_EDGE ( 'NONE', *, *, #155, .F. ) ;
#452 = LINE ( 'NONE', #232, #172 ) ;
#453 = DIRECTION ( 'NONE',  ( 0.000000000000000000, 1.000000000000000000, 0.000000000000000000 ) ) ;
#454 = LINE ( 'NONE', #384, #106 ) ;
#455 = AXIS2_PLACEMENT_3D ( 'NONE', #229, #476, #410 ) ;
#456 = DIRECTION ( 'NONE',  ( 0.000000000000000000, 0.000000000000000000, 1.000000000000000000 ) ) ;
#457 = CARTESIAN_POINT ( 'NONE',  ( -1.800000000000000711, 1.800000000000000044, 1.800000000000000044 ) ) ;
#458 = ADVANCED_FACE ( 'NONE', ( #347 ), #421, .T. ) ;
#459 = EDGE_LOOP ( 'NONE', ( #329, #32, #122 ) ) ;
#460 = DIRECTION ( 'NONE',  ( 1.000000000000000000, 0.000000000000000000, 0.000000000000000000 ) ) ;
#461 = VECTOR ( 'NONE', #207, 1000.000000000000000 ) ;
#462 = AXIS2_PLACEMENT_3D ( 'NONE', #430, #351, #158 ) ;
#463 = EDGE_CURVE ( 'NONE', #416, #101, #309, .T. ) ;
#464 = CARTESIAN_POINT ( 'NONE',  ( 1.799999999999999156, 1.800000000000000044, 0.000000000000000000 ) ) ;
#465 = DIRECTION ( 'NONE',  ( -0.000000000000000000, -0.000000000000000000, 1.000000000000000000 ) ) ;
#466 = VECTOR ( 'NONE', #91, 1000.000000000000000 ) ;
#467 = DIRECTION ( 'NONE',  ( 0.000000000000000000, -0.000000000000000000, 1.000000000000000000 ) ) ;
#468 = ORIENTED_EDGE ( 'NONE', *, *, #358, .T. ) ;
#469 = DIRECTION ( 'NONE',  ( 0.000000000000000000, -1.000000000000000000, 0.000000000000000000 ) ) ;
#470 = CARTESIAN_POINT ( 'NONE',  ( -2.000000000000000888, 2.000000000000000000, 1.800000000000000044 ) ) ;
#471 = EDGE_CURVE ( 'NONE', #335, #191, #294, .T. ) ;
#472 = FACE_OUTER_BOUND ( 'NONE', #298, .T. ) ;
#473 = CIRCLE ( 'NONE', #293, 0.2000000000000000944 ) ;
#474 = CARTESIAN_POINT ( 'NONE',  ( -1.800000000000000711, 2.000000000000000000, 1.800000000000000044 ) ) ;
#475 = EDGE_LOOP ( 'NONE', ( #65, #149, #58, #441 ) ) ;
#476 = DIRECTION ( 'NONE',  ( 0.000000000000000000, 0.000000000000000000, 1.000000000000000000 ) ) ;
#477 = ORIENTED_EDGE ( 'NONE', *, *, #391, .T. ) ;
#478 = DIRECTION ( 'NONE',  ( 0.000000000000000000, 0.000000000000000000, -1.000000000000000000 ) ) ;
#479 = ORIENTED_EDGE ( 'NONE', *, *, #72, .T. ) ;
#480 = AXIS2_PLACEMENT_3D ( 'NONE', #420, #270, #37 ) ;
#481 = EDGE_CURVE ( 'NONE', #79, #74, #392, .T. ) ;
#482 = LINE ( 'NONE', #440, #22 ) ;
#483 = AXIS2_PLACEMENT_3D ( 'NONE', #51, #169, #436 ) ;
#484 = AXIS2_PLACEMENT_3D ( 'NONE', #381, #425, #423 ) ;
#485 = ORIENTED_EDGE ( 'NONE', *, *, #90, .F. ) ;
#486 = CARTESIAN_POINT ( 'NONE',  ( -2.000000000000000888, 0.000000000000000000, 2.000000000000000000 ) ) ;
#487 = ORIENTED_EDGE ( 'NONE', *, *, #155, .T. ) ;
#488 = CARTESIAN_POINT ( 'NONE',  ( 0.000000000000000000, 1.800000000000000044, 1.800000000000000044 ) ) ;
#489 = DIRECTION ( 'NONE',  ( 0.000000000000000000, 1.000000000000000000, 0.000000000000000000 ) ) ;
#490 =( NAMED_UNIT ( * ) PLANE_ANGLE_UNIT ( ) SI_UNIT ( $, .RADIAN. ) );
#491 = ORIENTED_EDGE ( 'NONE', *, *, #342, .F. ) ;
ENDSEC;
END-ISO-10303-21;
