ISO-10303-21;
HEADER;
FILE_DESCRIPTION (( 'STEP AP214' ),
    '1' );
FILE_NAME ('BAR4X16T1.step',
    '2026-03-22T07:23:00',
    ( '' ),
    ( '' ),
    'SwSTEP 2.0',
    'SolidWorks 2025',
    '' );
FILE_SCHEMA (( 'AUTOMOTIVE_DESIGN' ));
ENDSEC;

DATA;
#1 = EDGE_LOOP ( 'NONE', ( #166, #452, #376, #33 ) ) ;
#2 = CARTESIAN_POINT ( 'NONE',  ( -7.799999999999998934, 1.000000000000000000, -1.800000000000000044 ) ) ;
#3 = ADVANCED_FACE ( 'NONE', ( #92 ), #8, .T. ) ;
#4 = EDGE_CURVE ( 'NONE', #414, #204, #319, .T. ) ;
#5 = ORIENTED_EDGE ( 'NONE', *, *, #444, .F. ) ;
#6 = CARTESIAN_POINT ( 'NONE',  ( 7.799999999999999822, 0.000000000000000000, -1.800000000000000044 ) ) ;
#7 = EDGE_CURVE ( 'NONE', #79, #313, #387, .T. ) ;
#8 = CYLINDRICAL_SURFACE ( 'NONE', #426, 0.2000000000000000944 ) ;
#9 = ORIENTED_EDGE ( 'NONE', *, *, #460, .F. ) ;
#10 = CYLINDRICAL_SURFACE ( 'NONE', #456, 0.2000000000000000944 ) ;
#11 = VECTOR ( 'NONE', #212, 1000.000000000000000 ) ;
#12 = DIRECTION ( 'NONE',  ( -0.000000000000000000, 1.000000000000000000, -0.000000000000000000 ) ) ;
#13 = CARTESIAN_POINT ( 'NONE',  ( 8.000000000000000000, 1.000000000000000000, -2.000000000000000000 ) ) ;
#14 = DIRECTION ( 'NONE',  ( -0.000000000000000000, -1.000000000000000000, -0.000000000000000000 ) ) ;
#15 = DIRECTION ( 'NONE',  ( 0.000000000000000000, 0.000000000000000000, 1.000000000000000000 ) ) ;
#16 = EDGE_LOOP ( 'NONE', ( #412, #123, #260, #384 ) ) ;
#17 = LINE ( 'NONE', #168, #197 ) ;
#18 =( GEOMETRIC_REPRESENTATION_CONTEXT ( 3 ) GLOBAL_UNCERTAINTY_ASSIGNED_CONTEXT ( ( #290 ) ) GLOBAL_UNIT_ASSIGNED_CONTEXT ( ( #48, #28, #61 ) ) REPRESENTATION_CONTEXT ( 'NONE', 'WORKASPACE' ) );
#19 = EDGE_CURVE ( 'NONE', #356, #239, #107, .T. ) ;
#20 = PLANE ( 'NONE',  #132 ) ;
#21 = DIRECTION ( 'NONE',  ( 0.000000000000000000, 0.000000000000000000, -1.000000000000000000 ) ) ;
#22 = AXIS2_PLACEMENT_3D ( 'NONE', #282, #391, #427 ) ;
#23 = CARTESIAN_POINT ( 'NONE',  ( 8.000000000000000000, 1.000000000000000000, 1.800000000000000044 ) ) ;
#24 = DIRECTION ( 'NONE',  ( 0.000000000000000000, 0.000000000000000000, -1.000000000000000000 ) ) ;
#25 = APPLICATION_CONTEXT ( 'automotive_design' ) ;
#26 = AXIS2_PLACEMENT_3D ( 'NONE', #339, #312, #486 ) ;
#27 =( NAMED_UNIT ( * ) PLANE_ANGLE_UNIT ( ) SI_UNIT ( $, .RADIAN. ) );
#28 =( NAMED_UNIT ( * ) PLANE_ANGLE_UNIT ( ) SI_UNIT ( $, .RADIAN. ) );
#29 = FACE_OUTER_BOUND ( 'NONE', #269, .T. ) ;
#30 = LINE ( 'NONE', #470, #330 ) ;
#31 = CARTESIAN_POINT ( 'NONE',  ( -7.999999999999998224, 0.8000000000000000444, -1.800000000000000044 ) ) ;
#32 = AXIS2_PLACEMENT_3D ( 'NONE', #467, #237, #129 ) ;
#33 = ORIENTED_EDGE ( 'NONE', *, *, #235, .T. ) ;
#34 = DIRECTION ( 'NONE',  ( 0.000000000000000000, 1.000000000000000000, 0.000000000000000000 ) ) ;
#35 = EDGE_LOOP ( 'NONE', ( #55, #469, #425, #410 ) ) ;
#36 = DIRECTION ( 'NONE',  ( 0.000000000000000000, -0.000000000000000000, 1.000000000000000000 ) ) ;
#37 = EDGE_LOOP ( 'NONE', ( #306, #466, #283, #159 ) ) ;
#38 = CARTESIAN_POINT ( 'NONE',  ( -7.999999999999998224, 0.8000000000000000444, 1.800000000000000044 ) ) ;
#39 = EDGE_CURVE ( 'NONE', #120, #414, #473, .T. ) ;
#40 = CLOSED_SHELL ( 'NONE', ( #443, #82, #189, #345, #216, #286, #355, #477, #186, #462, #392, #267, #234, #181, #246, #180, #98, #3 ) ) ;
#41 = ORIENTED_EDGE ( 'NONE', *, *, #460, .T. ) ;
#42 = CARTESIAN_POINT ( 'NONE',  ( 8.000000000000000000, 0.8000000000000000444, -1.800000000000000044 ) ) ;
#43 = EDGE_CURVE ( 'NONE', #393, #359, #380, .T. ) ;
#44 = DIRECTION ( 'NONE',  ( 0.000000000000000000, -0.000000000000000000, -1.000000000000000000 ) ) ;
#45 = VECTOR ( 'NONE', #124, 1000.000000000000000 ) ;
#46 = ORIENTED_EDGE ( 'NONE', *, *, #146, .T. ) ;
#47 = VECTOR ( 'NONE', #233, 1000.000000000000000 ) ;
#48 =( LENGTH_UNIT ( ) NAMED_UNIT ( * ) SI_UNIT ( .MILLI., .METRE. ) );
#49 = VERTEX_POINT ( 'NONE', #100 ) ;
#50 = DIRECTION ( 'NONE',  ( 0.000000000000000000, 0.000000000000000000, 1.000000000000000000 ) ) ;
#51 = APPLICATION_PROTOCOL_DEFINITION ( 'draft international standard', 'automotive_design', 1998, #439 ) ;
#52 = CARTESIAN_POINT ( 'NONE',  ( 0.000000000000000000, 0.8000000000000000444, 1.800000000000000044 ) ) ;
#53 = AXIS2_PLACEMENT_3D ( 'NONE', #465, #432, #50 ) ;
#54 = CARTESIAN_POINT ( 'NONE',  ( -7.799999999999998934, 0.000000000000000000, -1.800000000000000044 ) ) ;
#55 = ORIENTED_EDGE ( 'NONE', *, *, #7, .F. ) ;
#56 = CARTESIAN_POINT ( 'NONE',  ( 0.000000000000000000, 0.8000000000000000444, -1.800000000000000044 ) ) ;
#57 = AXIS2_PLACEMENT_3D ( 'NONE', #250, #478, #104 ) ;
#58 = EDGE_CURVE ( 'NONE', #204, #239, #122, .T. ) ;
#59 = EDGE_CURVE ( 'NONE', #388, #300, #184, .T. ) ;
#60 = DIRECTION ( 'NONE',  ( 1.000000000000000000, 0.000000000000000000, 0.000000000000000000 ) ) ;
#61 =( NAMED_UNIT ( * ) SI_UNIT ( $, .STERADIAN. ) SOLID_ANGLE_UNIT ( ) );
#62 = SURFACE_STYLE_FILL_AREA ( #438 ) ;
#63 = MANIFOLD_SOLID_BREP ( '\X2\570689d2\X0\1', #40 ) ;
#64 = DIRECTION ( 'NONE',  ( 4.336808689942017736E-15, 1.000000000000000000, 0.000000000000000000 ) ) ;
#65 = CARTESIAN_POINT ( 'NONE',  ( -7.799999999999998934, 0.8000000000000000444, 1.800000000000000044 ) ) ;
#66 = FACE_OUTER_BOUND ( 'NONE', #35, .T. ) ;
#67 = AXIS2_PLACEMENT_3D ( 'NONE', #297, #182, #335 ) ;
#68 = CARTESIAN_POINT ( 'NONE',  ( 7.800000000000000711, 0.8000000000000000444, 1.800000000000000044 ) ) ;
#69 = CARTESIAN_POINT ( 'NONE',  ( -7.799999999999998934, 0.8000000000000000444, -2.000000000000000000 ) ) ;
#70 = DIRECTION ( 'NONE',  ( -0.000000000000000000, 1.000000000000000000, 0.000000000000000000 ) ) ;
#71 = VECTOR ( 'NONE', #196, 1000.000000000000000 ) ;
#72 = SPHERICAL_SURFACE ( 'NONE', #172, 0.2000000000000000111 ) ;
#73 = PRODUCT_CONTEXT ( 'NONE', #439, 'mechanical' ) ;
#74 = ORIENTED_EDGE ( 'NONE', *, *, #7, .T. ) ;
#75 = CARTESIAN_POINT ( 'NONE',  ( 0.000000000000000000, 1.000000000000000000, 0.000000000000000000 ) ) ;
#76 = EDGE_CURVE ( 'NONE', #374, #359, #84, .T. ) ;
#77 = EDGE_LOOP ( 'NONE', ( #133, #125, #167 ) ) ;
#78 = DIRECTION ( 'NONE',  ( -0.000000000000000000, -1.000000000000000000, -0.000000000000000000 ) ) ;
#79 = VERTEX_POINT ( 'NONE', #293 ) ;
#80 = FACE_OUTER_BOUND ( 'NONE', #346, .T. ) ;
#81 = ORIENTED_EDGE ( 'NONE', *, *, #112, .T. ) ;
#82 = ADVANCED_FACE ( 'NONE', ( #247 ), #289, .F. ) ;
#83 = CARTESIAN_POINT ( 'NONE',  ( -7.999999999999998224, 1.000000000000000000, 1.800000000000000044 ) ) ;
#84 = CIRCLE ( 'NONE', #481, 0.2000000000000000944 ) ;
#85 = VERTEX_POINT ( 'NONE', #108 ) ;
#86 = CARTESIAN_POINT ( 'NONE',  ( 7.799999999999999822, 1.000000000000000000, -2.000000000000000000 ) ) ;
#87 = ORIENTED_EDGE ( 'NONE', *, *, #76, .F. ) ;
#88 = ORIENTED_EDGE ( 'NONE', *, *, #19, .T. ) ;
#89 = CIRCLE ( 'NONE', #263, 0.2000000000000000944 ) ;
#90 = ORIENTED_EDGE ( 'NONE', *, *, #58, .T. ) ;
#91 = CIRCLE ( 'NONE', #203, 0.1999999999999999833 ) ;
#92 = FACE_OUTER_BOUND ( 'NONE', #16, .T. ) ;
#93 = CIRCLE ( 'NONE', #53, 0.2000000000000000944 ) ;
#94 = EDGE_LOOP ( 'NONE', ( #41, #81, #303, #243 ) ) ;
#95 = CARTESIAN_POINT ( 'NONE',  ( -7.799999999999998934, 1.000000000000000000, 2.000000000000000000 ) ) ;
#96 = VECTOR ( 'NONE', #455, 1000.000000000000000 ) ;
#97 = EDGE_CURVE ( 'NONE', #120, #49, #249, .T. ) ;
#98 = ADVANCED_FACE ( 'NONE', ( #102 ), #105, .T. ) ;
#99 = CARTESIAN_POINT ( 'NONE',  ( -7.999999999999998224, 0.000000000000000000, -2.000000000000000000 ) ) ;
#100 = CARTESIAN_POINT ( 'NONE',  ( -7.999999999999998224, 0.000000000000000000, 1.800000000000000044 ) ) ;
#101 = DIRECTION ( 'NONE',  ( 0.000000000000000000, 0.000000000000000000, -1.000000000000000000 ) ) ;
#102 = FACE_OUTER_BOUND ( 'NONE', #487, .T. ) ;
#103 = PRODUCT_DEFINITION_CONTEXT ( 'detailed design', #25, 'design' ) ;
#104 = DIRECTION ( 'NONE',  ( 1.000000000000000000, 0.000000000000000000, 0.000000000000000000 ) ) ;
#105 = SPHERICAL_SURFACE ( 'NONE', #418, 0.2000000000000000111 ) ;
#106 = FACE_OUTER_BOUND ( 'NONE', #1, .T. ) ;
#107 = CIRCLE ( 'NONE', #22, 0.1999999999999996503 ) ;
#108 = CARTESIAN_POINT ( 'NONE',  ( 8.000000000000000000, 0.000000000000000000, -1.800000000000000044 ) ) ;
#109 = CARTESIAN_POINT ( 'NONE',  ( 7.799999999999999822, 1.000000000000000000, -1.800000000000000044 ) ) ;
#110 = ORIENTED_EDGE ( 'NONE', *, *, #272, .F. ) ;
#111 = LINE ( 'NONE', #365, #185 ) ;
#112 = EDGE_CURVE ( 'NONE', #388, #359, #399, .T. ) ;
#113 = ORIENTED_EDGE ( 'NONE', *, *, #58, .F. ) ;
#114 = CYLINDRICAL_SURFACE ( 'NONE', #302, 0.2000000000000000944 ) ;
#115 = PRESENTATION_LAYER_ASSIGNMENT (  '', '', ( #294 ) ) ;
#116 = EDGE_LOOP ( 'NONE', ( #118, #320, #5, #454 ) ) ;
#117 = DIRECTION ( 'NONE',  ( -1.000000000000000000, -0.000000000000000000, -0.000000000000000000 ) ) ;
#118 = ORIENTED_EDGE ( 'NONE', *, *, #219, .F. ) ;
#119 = CARTESIAN_POINT ( 'NONE',  ( 7.800000000000000711, 1.000000000000000000, 1.800000000000000044 ) ) ;
#120 = VERTEX_POINT ( 'NONE', #251 ) ;
#121 = PLANE ( 'NONE',  #156 ) ;
#122 = CIRCLE ( 'NONE', #231, 0.2000000000000000944 ) ;
#123 = ORIENTED_EDGE ( 'NONE', *, *, #406, .F. ) ;
#124 = DIRECTION ( 'NONE',  ( -1.000000000000000000, 0.000000000000000000, 0.000000000000000000 ) ) ;
#125 = ORIENTED_EDGE ( 'NONE', *, *, #219, .T. ) ;
#126 = DIRECTION ( 'NONE',  ( -1.000000000000000000, 0.000000000000000000, 0.000000000000000000 ) ) ;
#127 = EDGE_LOOP ( 'NONE', ( #227, #490, #232, #383 ) ) ;
#128 = LINE ( 'NONE', #95, #430 ) ;
#129 = DIRECTION ( 'NONE',  ( 1.301042606982604690E-14, 0.000000000000000000, 1.000000000000000000 ) ) ;
#130 = EDGE_CURVE ( 'NONE', #204, #154, #254, .T. ) ;
#131 = EDGE_CURVE ( 'NONE', #85, #276, #30, .T. ) ;
#132 = AXIS2_PLACEMENT_3D ( 'NONE', #75, #445, #337 ) ;
#133 = ORIENTED_EDGE ( 'NONE', *, *, #165, .T. ) ;
#134 = FACE_OUTER_BOUND ( 'NONE', #116, .T. ) ;
#135 = CARTESIAN_POINT ( 'NONE',  ( 7.800000000000000711, 0.8000000000000000444, 1.800000000000000044 ) ) ;
#136 = LINE ( 'NONE', #287, #428 ) ;
#137 = DIRECTION ( 'NONE',  ( 0.000000000000000000, 0.000000000000000000, -1.000000000000000000 ) ) ;
#138 = CARTESIAN_POINT ( 'NONE',  ( -7.799999999999998934, 0.8000000000000000444, 2.000000000000000000 ) ) ;
#139 = CIRCLE ( 'NONE', #26, 0.2000000000000000944 ) ;
#140 = PLANE ( 'NONE',  #305 ) ;
#141 = DIRECTION ( 'NONE',  ( -1.000000000000000000, -0.000000000000000000, -0.000000000000000000 ) ) ;
#142 = CARTESIAN_POINT ( 'NONE',  ( 7.799999999999999822, 0.000000000000000000, -2.000000000000000000 ) ) ;
#143 = AXIS2_PLACEMENT_3D ( 'NONE', #442, #323, #436 ) ;
#144 = CARTESIAN_POINT ( 'NONE',  ( 7.799999999999999822, 0.8000000000000000444, -2.000000000000000000 ) ) ;
#145 = EDGE_CURVE ( 'NONE', #300, #200, #401, .T. ) ;
#146 = EDGE_CURVE ( 'NONE', #222, #313, #326, .T. ) ;
#147 = CARTESIAN_POINT ( 'NONE',  ( 7.800000000000000711, 1.000000000000000000, 1.800000000000000044 ) ) ;
#148 = EDGE_LOOP ( 'NONE', ( #408, #449, #416, #190 ) ) ;
#149 = DIRECTION ( 'NONE',  ( 0.000000000000000000, 0.000000000000000000, 1.000000000000000000 ) ) ;
#150 = ORIENTED_EDGE ( 'NONE', *, *, #39, .T. ) ;
#151 = CARTESIAN_POINT ( 'NONE',  ( -7.999999999999998224, 0.8000000000000000444, 2.000000000000000000 ) ) ;
#152 = AXIS2_PLACEMENT_3D ( 'NONE', #68, #174, #60 ) ;
#153 = CARTESIAN_POINT ( 'NONE',  ( 7.799999999999999822, 0.000000000000000000, 2.000000000000000000 ) ) ;
#154 = VERTEX_POINT ( 'NONE', #144 ) ;
#155 = CARTESIAN_POINT ( 'NONE',  ( -7.799999999999998934, 1.000000000000000000, -1.800000000000000044 ) ) ;
#156 = AXIS2_PLACEMENT_3D ( 'NONE', #350, #228, #193 ) ;
#157 = ORIENTED_EDGE ( 'NONE', *, *, #358, .T. ) ;
#158 = LINE ( 'NONE', #83, #435 ) ;
#159 = ORIENTED_EDGE ( 'NONE', *, *, #329, .T. ) ;
#160 = DIRECTION ( 'NONE',  ( -0.000000000000000000, -1.000000000000000000, -0.000000000000000000 ) ) ;
#161 = EDGE_CURVE ( 'NONE', #276, #378, #344, .T. ) ;
#162 = ORIENTED_EDGE ( 'NONE', *, *, #165, .F. ) ;
#163 = ORIENTED_EDGE ( 'NONE', *, *, #358, .F. ) ;
#164 = FACE_OUTER_BOUND ( 'NONE', #37, .T. ) ;
#165 = EDGE_CURVE ( 'NONE', #276, #154, #468, .T. ) ;
#166 = ORIENTED_EDGE ( 'NONE', *, *, #97, .T. ) ;
#167 = ORIENTED_EDGE ( 'NONE', *, *, #161, .F. ) ;
#168 = CARTESIAN_POINT ( 'NONE',  ( -7.799999999999998934, 1.000000000000000000, 2.000000000000000000 ) ) ;
#169 = CARTESIAN_POINT ( 'NONE',  ( 7.800000000000000711, 0.8000000000000000444, 1.800000000000000044 ) ) ;
#170 = FACE_OUTER_BOUND ( 'NONE', #457, .T. ) ;
#171 = PRESENTATION_STYLE_ASSIGNMENT (( #220 ) ) ;
#172 = AXIS2_PLACEMENT_3D ( 'NONE', #474, #409, #370 ) ;
#173 = DIRECTION ( 'NONE',  ( 0.000000000000000000, -1.000000000000000000, 0.000000000000000000 ) ) ;
#174 = DIRECTION ( 'NONE',  ( 0.000000000000000000, 0.000000000000000000, 1.000000000000000000 ) ) ;
#175 = LINE ( 'NONE', #248, #273 ) ;
#176 = AXIS2_PLACEMENT_3D ( 'NONE', #13, #386, #15 ) ;
#177 = DIRECTION ( 'NONE',  ( 0.000000000000000000, 0.000000000000000000, 1.000000000000000000 ) ) ;
#178 = EDGE_CURVE ( 'NONE', #207, #414, #175, .T. ) ;
#179 = DIRECTION ( 'NONE',  ( -0.000000000000000000, 1.000000000000000000, 0.000000000000000000 ) ) ;
#180 = ADVANCED_FACE ( 'NONE', ( #215 ), #72, .T. ) ;
#181 = ADVANCED_FACE ( 'NONE', ( #448 ), #398, .T. ) ;
#182 = DIRECTION ( 'NONE',  ( -0.000000000000000000, -0.000000000000000000, 1.000000000000000000 ) ) ;
#183 = CARTESIAN_POINT ( 'NONE',  ( -7.999999999999998224, 1.000000000000000000, -2.000000000000000000 ) ) ;
#184 = CIRCLE ( 'NONE', #245, 0.1999999999999996503 ) ;
#185 = VECTOR ( 'NONE', #24, 1000.000000000000000 ) ;
#186 = ADVANCED_FACE ( 'NONE', ( #29 ), #440, .T. ) ;
#187 = ORIENTED_EDGE ( 'NONE', *, *, #4, .F. ) ;
#188 = DIRECTION ( 'NONE',  ( -1.000000000000000000, 0.000000000000000000, 4.336808689942024836E-15 ) ) ;
#189 = ADVANCED_FACE ( 'NONE', ( #106 ), #140, .F. ) ;
#190 = ORIENTED_EDGE ( 'NONE', *, *, #390, .F. ) ;
#191 = LINE ( 'NONE', #151, #324 ) ;
#192 = ORIENTED_EDGE ( 'NONE', *, *, #178, .T. ) ;
#193 = DIRECTION ( 'NONE',  ( -1.000000000000000000, 0.000000000000000000, -0.000000000000000000 ) ) ;
#194 = AXIS2_PLACEMENT_3D ( 'NONE', #54, #14, #177 ) ;
#195 = ORIENTED_EDGE ( 'NONE', *, *, #59, .F. ) ;
#196 = DIRECTION ( 'NONE',  ( 0.000000000000000000, -1.000000000000000000, 0.000000000000000000 ) ) ;
#197 = VECTOR ( 'NONE', #325, 1000.000000000000000 ) ;
#198 = EDGE_LOOP ( 'NONE', ( #464, #229, #279 ) ) ;
#199 = LINE ( 'NONE', #415, #268 ) ;
#200 = VERTEX_POINT ( 'NONE', #138 ) ;
#201 = ORIENTED_EDGE ( 'NONE', *, *, #131, .F. ) ;
#202 = AXIS2_PLACEMENT_3D ( 'NONE', #328, #173, #472 ) ;
#203 = AXIS2_PLACEMENT_3D ( 'NONE', #291, #483, #64 ) ;
#204 = VERTEX_POINT ( 'NONE', #69 ) ;
#205 = ORIENTED_EDGE ( 'NONE', *, *, #39, .F. ) ;
#206 = SPHERICAL_SURFACE ( 'NONE', #369, 0.2000000000000000111 ) ;
#207 = VERTEX_POINT ( 'NONE', #142 ) ;
#208 = VECTOR ( 'NONE', #482, 1000.000000000000000 ) ;
#209 = DIRECTION ( 'NONE',  ( 1.000000000000000000, 0.000000000000000000, 0.000000000000000000 ) ) ;
#210 = DIRECTION ( 'NONE',  ( 0.000000000000000000, 0.000000000000000000, 1.000000000000000000 ) ) ;
#211 =( LENGTH_UNIT ( ) NAMED_UNIT ( * ) SI_UNIT ( .MILLI., .METRE. ) );
#212 = DIRECTION ( 'NONE',  ( 0.000000000000000000, -1.000000000000000000, 0.000000000000000000 ) ) ;
#213 = DIRECTION ( 'NONE',  ( 0.000000000000000000, 0.000000000000000000, -1.000000000000000000 ) ) ;
#214 = AXIS2_PLACEMENT_3D ( 'NONE', #433, #396, #210 ) ;
#215 = FACE_OUTER_BOUND ( 'NONE', #198, .T. ) ;
#216 = ADVANCED_FACE ( 'NONE', ( #295 ), #20, .T. ) ;
#217 = DIRECTION ( 'NONE',  ( 0.000000000000000000, 0.000000000000000000, 1.000000000000000000 ) ) ;
#218 = DIRECTION ( 'NONE',  ( 0.000000000000000000, 0.000000000000000000, 1.000000000000000000 ) ) ;
#219 = EDGE_CURVE ( 'NONE', #154, #378, #91, .T. ) ;
#220 = SURFACE_STYLE_USAGE ( .BOTH. , #244 ) ;
#221 = DIRECTION ( 'NONE',  ( 0.000000000000000000, 0.000000000000000000, -1.000000000000000000 ) ) ;
#222 = VERTEX_POINT ( 'NONE', #362 ) ;
#223 = CARTESIAN_POINT ( 'NONE',  ( 7.800000000000000711, 1.000000000000000000, -1.800000000000000044 ) ) ;
#224 = ORIENTED_EDGE ( 'NONE', *, *, #310, .F. ) ;
#225 = SPHERICAL_SURFACE ( 'NONE', #309, 0.2000000000000000111 ) ;
#226 = AXIS2_PLACEMENT_3D ( 'NONE', #437, #372, #292 ) ;
#227 = ORIENTED_EDGE ( 'NONE', *, *, #161, .T. ) ;
#228 = DIRECTION ( 'NONE',  ( 0.000000000000000000, 0.000000000000000000, -1.000000000000000000 ) ) ;
#229 = ORIENTED_EDGE ( 'NONE', *, *, #145, .T. ) ;
#230 = LINE ( 'NONE', #86, #71 ) ;
#231 = AXIS2_PLACEMENT_3D ( 'NONE', #367, #333, #217 ) ;
#232 = ORIENTED_EDGE ( 'NONE', *, *, #43, .F. ) ;
#233 = DIRECTION ( 'NONE',  ( -0.000000000000000000, -0.000000000000000000, -1.000000000000000000 ) ) ;
#234 = ADVANCED_FACE ( 'NONE', ( #170 ), #434, .T. ) ;
#235 = EDGE_CURVE ( 'NONE', #239, #120, #253, .T. ) ;
#236 = AXIS2_PLACEMENT_3D ( 'NONE', #299, #288, #407 ) ;
#237 = DIRECTION ( 'NONE',  ( -0.000000000000000000, -1.000000000000000000, -0.000000000000000000 ) ) ;
#238 = ORIENTED_EDGE ( 'NONE', *, *, #43, .T. ) ;
#239 = VERTEX_POINT ( 'NONE', #31 ) ;
#240 = EDGE_LOOP ( 'NONE', ( #274, #90, #258 ) ) ;
#241 = PRODUCT_DEFINITION_FORMATION_WITH_SPECIFIED_SOURCE ( 'ANY', '', #385, .NOT_KNOWN. ) ;
#242 = AXIS2_PLACEMENT_3D ( 'NONE', #6, #78, #149 ) ;
#243 = ORIENTED_EDGE ( 'NONE', *, *, #277, .T. ) ;
#244 = SURFACE_SIDE_STYLE ('',( #62 ) ) ;
#245 = AXIS2_PLACEMENT_3D ( 'NONE', #65, #476, #361 ) ;
#246 = ADVANCED_FACE ( 'NONE', ( #66 ), #400, .T. ) ;
#247 = FACE_OUTER_BOUND ( 'NONE', #349, .T. ) ;
#248 = CARTESIAN_POINT ( 'NONE',  ( -7.999999999999998224, 0.000000000000000000, -2.000000000000000000 ) ) ;
#249 = LINE ( 'NONE', #99, #489 ) ;
#250 = CARTESIAN_POINT ( 'NONE',  ( 7.800000000000000711, 0.8000000000000000444, 0.000000000000000000 ) ) ;
#251 = CARTESIAN_POINT ( 'NONE',  ( -7.999999999999998224, 0.000000000000000000, -1.800000000000000044 ) ) ;
#252 = EDGE_CURVE ( 'NONE', #359, #378, #111, .T. ) ;
#253 = LINE ( 'NONE', #402, #11 ) ;
#254 = LINE ( 'NONE', #371, #441 ) ;
#255 = FACE_OUTER_BOUND ( 'NONE', #148, .T. ) ;
#256 = EDGE_LOOP ( 'NONE', ( #340, #316, #317, #150, #373, #157, #224, #74 ) ) ;
#257 = CARTESIAN_POINT ( 'NONE',  ( 7.800000000000000711, 0.8000000000000000444, -1.800000000000000044 ) ) ;
#258 = ORIENTED_EDGE ( 'NONE', *, *, #19, .F. ) ;
#259 = FACE_OUTER_BOUND ( 'NONE', #256, .T. ) ;
#260 = ORIENTED_EDGE ( 'NONE', *, *, #76, .T. ) ;
#261 = CIRCLE ( 'NONE', #242, 0.2000000000000000944 ) ;
#262 = CARTESIAN_POINT ( 'NONE',  ( -7.999999999999998224, 0.8000000000000000444, -2.000000000000000000 ) ) ;
#263 = AXIS2_PLACEMENT_3D ( 'NONE', #461, #491, #308 ) ;
#264 = CIRCLE ( 'NONE', #475, 0.2000000000000000944 ) ;
#265 = ORIENTED_EDGE ( 'NONE', *, *, #357, .T. ) ;
#266 = CARTESIAN_POINT ( 'NONE',  ( -7.799999999999998934, 1.000000000000000000, 1.800000000000000044 ) ) ;
#267 = ADVANCED_FACE ( 'NONE', ( #255 ), #404, .T. ) ;
#268 = VECTOR ( 'NONE', #488, 1000.000000000000000 ) ;
#269 = EDGE_LOOP ( 'NONE', ( #163, #342, #162, #201 ) ) ;
#270 = EDGE_CURVE ( 'NONE', #313, #374, #136, .T. ) ;
#271 = FACE_OUTER_BOUND ( 'NONE', #77, .T. ) ;
#272 = EDGE_CURVE ( 'NONE', #300, #239, #417, .T. ) ;
#273 = VECTOR ( 'NONE', #334, 1000.000000000000000 ) ;
#274 = ORIENTED_EDGE ( 'NONE', *, *, #444, .T. ) ;
#275 = DIRECTION ( 'NONE',  ( 0.000000000000000000, 1.000000000000000000, 0.000000000000000000 ) ) ;
#276 = VERTEX_POINT ( 'NONE', #42 ) ;
#277 = EDGE_CURVE ( 'NONE', #378, #356, #413, .T. ) ;
#278 = FACE_OUTER_BOUND ( 'NONE', #240, .T. ) ;
#279 = ORIENTED_EDGE ( 'NONE', *, *, #405, .F. ) ;
#280 = PRODUCT_DEFINITION_SHAPE ( 'NONE', 'NONE',  #327 ) ;
#281 = AXIS2_PLACEMENT_3D ( 'NONE', #109, #480, #101 ) ;
#282 = CARTESIAN_POINT ( 'NONE',  ( -7.799999999999998934, 0.8000000000000000444, -1.800000000000000044 ) ) ;
#283 = ORIENTED_EDGE ( 'NONE', *, *, #322, .T. ) ;
#284 = DIRECTION ( 'NONE',  ( 0.000000000000000000, 1.000000000000000000, 0.000000000000000000 ) ) ;
#285 = DIRECTION ( 'NONE',  ( -0.000000000000000000, 1.000000000000000000, -0.000000000000000000 ) ) ;
#286 = ADVANCED_FACE ( 'NONE', ( #259 ), #377, .F. ) ;
#287 = CARTESIAN_POINT ( 'NONE',  ( 7.799999999999999822, 1.000000000000000000, 2.000000000000000000 ) ) ;
#288 = DIRECTION ( 'NONE',  ( 0.000000000000000000, 0.000000000000000000, 1.000000000000000000 ) ) ;
#289 = PLANE ( 'NONE',  #143 ) ;
#290 = UNCERTAINTY_MEASURE_WITH_UNIT (LENGTH_MEASURE( 1.000000000000000082E-05 ), #48, 'distance_accuracy_value', 'NONE');
#291 = CARTESIAN_POINT ( 'NONE',  ( 7.799999999999999822, 0.8000000000000000444, -1.800000000000000044 ) ) ;
#292 = DIRECTION ( 'NONE',  ( -1.000000000000000000, 0.000000000000000000, 0.000000000000000000 ) ) ;
#293 = CARTESIAN_POINT ( 'NONE',  ( 8.000000000000000000, 0.000000000000000000, 1.800000000000000044 ) ) ;
#294 = STYLED_ITEM ( 'NONE', ( #171 ), #63 ) ;
#295 = FACE_OUTER_BOUND ( 'NONE', #94, .T. ) ;
#296 = APPLICATION_PROTOCOL_DEFINITION ( 'draft international standard', 'automotive_design', 1998, #25 ) ;
#297 = CARTESIAN_POINT ( 'NONE',  ( 7.800000000000000711, 0.8000000000000000444, -1.800000000000000044 ) ) ;
#298 = DIRECTION ( 'NONE',  ( 0.000000000000000000, -1.000000000000000000, 0.000000000000000000 ) ) ;
#299 = CARTESIAN_POINT ( 'NONE',  ( 0.000000000000000000, 0.000000000000000000, 0.000000000000000000 ) ) ;
#300 = VERTEX_POINT ( 'NONE', #38 ) ;
#301 = LINE ( 'NONE', #458, #47 ) ;
#302 = AXIS2_PLACEMENT_3D ( 'NONE', #2, #343, #420 ) ;
#303 = ORIENTED_EDGE ( 'NONE', *, *, #252, .T. ) ;
#304 = CARTESIAN_POINT ( 'NONE',  ( -7.799999999999998934, 0.000000000000000000, -2.000000000000000000 ) ) ;
#305 = AXIS2_PLACEMENT_3D ( 'NONE', #183, #368, #221 ) ;
#306 = ORIENTED_EDGE ( 'NONE', *, *, #310, .T. ) ;
#307 = EDGE_CURVE ( 'NONE', #154, #207, #230, .T. ) ;
#308 = DIRECTION ( 'NONE',  ( 0.000000000000000000, 0.000000000000000000, 1.000000000000000000 ) ) ;
#309 = AXIS2_PLACEMENT_3D ( 'NONE', #314, #34, #188 ) ;
#310 = EDGE_CURVE ( 'NONE', #79, #85, #301, .T. ) ;
#311 = ORIENTED_EDGE ( 'NONE', *, *, #406, .T. ) ;
#312 = DIRECTION ( 'NONE',  ( 1.000000000000000000, -0.000000000000000000, -0.000000000000000000 ) ) ;
#313 = VERTEX_POINT ( 'NONE', #153 ) ;
#314 = CARTESIAN_POINT ( 'NONE',  ( 7.800000000000000711, 0.8000000000000000444, -1.800000000000000044 ) ) ;
#315 = MECHANICAL_DESIGN_GEOMETRIC_PRESENTATION_REPRESENTATION (  '', ( #294 ), #451 ) ;
#316 = ORIENTED_EDGE ( 'NONE', *, *, #421, .T. ) ;
#317 = ORIENTED_EDGE ( 'NONE', *, *, #97, .F. ) ;
#318 = DIRECTION ( 'NONE',  ( 0.000000000000000000, 0.000000000000000000, 1.000000000000000000 ) ) ;
#319 = LINE ( 'NONE', #352, #336 ) ;
#320 = ORIENTED_EDGE ( 'NONE', *, *, #130, .F. ) ;
#321 = DIRECTION ( 'NONE',  ( -0.000000000000000000, 0.000000000000000000, 1.000000000000000000 ) ) ;
#322 = EDGE_CURVE ( 'NONE', #276, #393, #450, .T. ) ;
#323 = DIRECTION ( 'NONE',  ( 0.000000000000000000, 0.000000000000000000, 1.000000000000000000 ) ) ;
#324 = VECTOR ( 'NONE', #117, 1000.000000000000000 ) ;
#325 = DIRECTION ( 'NONE',  ( 0.000000000000000000, -1.000000000000000000, 0.000000000000000000 ) ) ;
#326 = LINE ( 'NONE', #446, #208 ) ;
#327 = PRODUCT_DEFINITION ( 'UNKNOWN', '', #241, #103 ) ;
#328 = CARTESIAN_POINT ( 'NONE',  ( -7.799999999999998934, 1.000000000000000000, 1.800000000000000044 ) ) ;
#329 = EDGE_CURVE ( 'NONE', #393, #79, #199, .T. ) ;
#330 = VECTOR ( 'NONE', #285, 1000.000000000000000 ) ;
#331 =( NAMED_UNIT ( * ) SI_UNIT ( $, .STERADIAN. ) SOLID_ANGLE_UNIT ( ) );
#332 = DIRECTION ( 'NONE',  ( -0.000000000000000000, 1.000000000000000000, -0.000000000000000000 ) ) ;
#333 = DIRECTION ( 'NONE',  ( 0.000000000000000000, 1.000000000000000000, 0.000000000000000000 ) ) ;
#334 = DIRECTION ( 'NONE',  ( -1.000000000000000000, -0.000000000000000000, -0.000000000000000000 ) ) ;
#335 = DIRECTION ( 'NONE',  ( -1.000000000000000000, 0.000000000000000000, 0.000000000000000000 ) ) ;
#336 = VECTOR ( 'NONE', #12, 1000.000000000000000 ) ;
#337 = DIRECTION ( 'NONE',  ( 0.000000000000000000, -0.000000000000000000, 1.000000000000000000 ) ) ;
#338 = ORIENTED_EDGE ( 'NONE', *, *, #235, .F. ) ;
#339 = CARTESIAN_POINT ( 'NONE',  ( -7.799999999999998934, 0.8000000000000000444, 1.800000000000000044 ) ) ;
#340 = ORIENTED_EDGE ( 'NONE', *, *, #146, .F. ) ;
#341 = DIRECTION ( 'NONE',  ( -0.000000000000000000, 1.000000000000000000, -0.000000000000000000 ) ) ;
#342 = ORIENTED_EDGE ( 'NONE', *, *, #307, .F. ) ;
#343 = DIRECTION ( 'NONE',  ( 0.000000000000000000, -1.000000000000000000, 0.000000000000000000 ) ) ;
#344 = CIRCLE ( 'NONE', #67, 0.1999999999999996503 ) ;
#345 = ADVANCED_FACE ( 'NONE', ( #80 ), #121, .F. ) ;
#346 = EDGE_LOOP ( 'NONE', ( #311, #381, #46, #485 ) ) ;
#347 = VECTOR ( 'NONE', #44, 1000.000000000000000 ) ;
#348 = CARTESIAN_POINT ( 'NONE',  ( -7.999999999999998224, 1.000000000000000000, -1.800000000000000044 ) ) ;
#349 = EDGE_LOOP ( 'NONE', ( #192, #351, #459, #431 ) ) ;
#350 = CARTESIAN_POINT ( 'NONE',  ( -7.999999999999998224, 1.000000000000000000, 2.000000000000000000 ) ) ;
#351 = ORIENTED_EDGE ( 'NONE', *, *, #4, .T. ) ;
#352 = CARTESIAN_POINT ( 'NONE',  ( -7.799999999999998934, 1.000000000000000000, -2.000000000000000000 ) ) ;
#353 = DIRECTION ( 'NONE',  ( -1.000000000000000000, 0.000000000000000000, 0.000000000000000000 ) ) ;
#354 = PLANE ( 'NONE',  #176 ) ;
#355 = ADVANCED_FACE ( 'NONE', ( #411 ), #114, .T. ) ;
#356 = VERTEX_POINT ( 'NONE', #155 ) ;
#357 = EDGE_CURVE ( 'NONE', #374, #393, #89, .T. ) ;
#358 = EDGE_CURVE ( 'NONE', #207, #85, #261, .T. ) ;
#359 = VERTEX_POINT ( 'NONE', #119 ) ;
#360 = DIRECTION ( 'NONE',  ( 0.000000000000000000, 0.000000000000000000, -1.000000000000000000 ) ) ;
#361 = DIRECTION ( 'NONE',  ( 1.000000000000000000, 0.000000000000000000, 0.000000000000000000 ) ) ;
#362 = CARTESIAN_POINT ( 'NONE',  ( -7.799999999999998934, 0.000000000000000000, 2.000000000000000000 ) ) ;
#363 = FILL_AREA_STYLE_COLOUR ( '', #394 ) ;
#364 = UNCERTAINTY_MEASURE_WITH_UNIT (LENGTH_MEASURE( 1.000000000000000082E-05 ), #211, 'distance_accuracy_value', 'NONE');
#365 = CARTESIAN_POINT ( 'NONE',  ( 7.800000000000000711, 1.000000000000000000, -2.000000000000000000 ) ) ;
#366 = AXIS2_PLACEMENT_3D ( 'NONE', #257, #179, #218 ) ;
#367 = CARTESIAN_POINT ( 'NONE',  ( -7.799999999999998934, 0.8000000000000000444, -1.800000000000000044 ) ) ;
#368 = DIRECTION ( 'NONE',  ( 1.000000000000000000, 0.000000000000000000, 0.000000000000000000 ) ) ;
#369 = AXIS2_PLACEMENT_3D ( 'NONE', #424, #284, #126 ) ;
#370 = DIRECTION ( 'NONE',  ( 0.000000000000000000, 0.000000000000000000, 1.000000000000000000 ) ) ;
#371 = CARTESIAN_POINT ( 'NONE',  ( 8.000000000000000000, 0.8000000000000000444, -2.000000000000000000 ) ) ;
#372 = DIRECTION ( 'NONE',  ( 0.000000000000000000, 0.000000000000000000, -1.000000000000000000 ) ) ;
#373 = ORIENTED_EDGE ( 'NONE', *, *, #178, .F. ) ;
#374 = VERTEX_POINT ( 'NONE', #379 ) ;
#375 = CARTESIAN_POINT ( 'NONE',  ( 8.000000000000000000, 0.8000000000000000444, 1.800000000000000044 ) ) ;
#376 = ORIENTED_EDGE ( 'NONE', *, *, #272, .T. ) ;
#377 = PLANE ( 'NONE',  #423 ) ;
#378 = VERTEX_POINT ( 'NONE', #223 ) ;
#379 = CARTESIAN_POINT ( 'NONE',  ( 7.800000000000000711, 0.8000000000000000444, 2.000000000000000000 ) ) ;
#380 = CIRCLE ( 'NONE', #152, 0.1999999999999996503 ) ;
#381 = ORIENTED_EDGE ( 'NONE', *, *, #479, .T. ) ;
#382 = CARTESIAN_POINT ( 'NONE',  ( 8.000000000000000000, 0.8000000000000000444, 2.000000000000000000 ) ) ;
#383 = ORIENTED_EDGE ( 'NONE', *, *, #322, .F. ) ;
#384 = ORIENTED_EDGE ( 'NONE', *, *, #112, .F. ) ;
#385 = PRODUCT ( 'BAR4X16T1', 'BAR4X16T1', '', ( #73 ) ) ;
#386 = DIRECTION ( 'NONE',  ( -1.000000000000000000, 0.000000000000000000, 0.000000000000000000 ) ) ;
#387 = CIRCLE ( 'NONE', #32, 0.2000000000000000944 ) ;
#388 = VERTEX_POINT ( 'NONE', #266 ) ;
#389 = CARTESIAN_POINT ( 'NONE',  ( -7.799999999999998934, 0.000000000000000000, 1.800000000000000044 ) ) ;
#390 = EDGE_CURVE ( 'NONE', #49, #300, #158, .T. ) ;
#391 = DIRECTION ( 'NONE',  ( -0.000000000000000000, -0.000000000000000000, 1.000000000000000000 ) ) ;
#392 = ADVANCED_FACE ( 'NONE', ( #271 ), #225, .T. ) ;
#393 = VERTEX_POINT ( 'NONE', #375 ) ;
#394 = COLOUR_RGB ( '',0.8980392156862745390, 0.9215686274509803377, 0.9294117647058823817 ) ;
#395 = AXIS2_PLACEMENT_3D ( 'NONE', #147, #298, #21 ) ;
#396 = DIRECTION ( 'NONE',  ( 0.000000000000000000, 1.000000000000000000, -0.000000000000000000 ) ) ;
#397 = DIRECTION ( 'NONE',  ( 0.000000000000000000, 0.000000000000000000, 1.000000000000000000 ) ) ;
#398 = CYLINDRICAL_SURFACE ( 'NONE', #57, 0.1999999999999996503 ) ;
#399 = LINE ( 'NONE', #23, #463 ) ;
#400 = CYLINDRICAL_SURFACE ( 'NONE', #395, 0.2000000000000000944 ) ;
#401 = CIRCLE ( 'NONE', #214, 0.2000000000000000944 ) ;
#402 = CARTESIAN_POINT ( 'NONE',  ( -7.999999999999998224, 1.000000000000000000, -1.800000000000000044 ) ) ;
#403 = DIRECTION ( 'NONE',  ( 1.000000000000000000, -0.000000000000000000, -0.000000000000000000 ) ) ;
#404 = CYLINDRICAL_SURFACE ( 'NONE', #202, 0.2000000000000000944 ) ;
#405 = EDGE_CURVE ( 'NONE', #388, #200, #139, .T. ) ;
#406 = EDGE_CURVE ( 'NONE', #374, #200, #191, .T. ) ;
#407 = DIRECTION ( 'NONE',  ( 1.000000000000000000, 0.000000000000000000, 0.000000000000000000 ) ) ;
#408 = ORIENTED_EDGE ( 'NONE', *, *, #421, .F. ) ;
#409 = DIRECTION ( 'NONE',  ( 0.000000000000000000, 1.000000000000000000, -0.000000000000000000 ) ) ;
#410 = ORIENTED_EDGE ( 'NONE', *, *, #270, .F. ) ;
#411 = FACE_OUTER_BOUND ( 'NONE', #419, .T. ) ;
#412 = ORIENTED_EDGE ( 'NONE', *, *, #405, .T. ) ;
#413 = LINE ( 'NONE', #348, #45 ) ;
#414 = VERTEX_POINT ( 'NONE', #304 ) ;
#415 = CARTESIAN_POINT ( 'NONE',  ( 8.000000000000000000, 1.000000000000000000, 1.800000000000000044 ) ) ;
#416 = ORIENTED_EDGE ( 'NONE', *, *, #145, .F. ) ;
#417 = LINE ( 'NONE', #262, #347 ) ;
#418 = AXIS2_PLACEMENT_3D ( 'NONE', #169, #70, #213 ) ;
#419 = EDGE_LOOP ( 'NONE', ( #205, #338, #113, #187 ) ) ;
#420 = DIRECTION ( 'NONE',  ( 0.000000000000000000, 0.000000000000000000, -1.000000000000000000 ) ) ;
#421 = EDGE_CURVE ( 'NONE', #222, #49, #264, .T. ) ;
#422 = DIRECTION ( 'NONE',  ( 0.000000000000000000, 0.000000000000000000, 1.000000000000000000 ) ) ;
#423 = AXIS2_PLACEMENT_3D ( 'NONE', #453, #275, #36 ) ;
#424 = CARTESIAN_POINT ( 'NONE',  ( -7.799999999999998934, 0.8000000000000000444, -1.800000000000000044 ) ) ;
#425 = ORIENTED_EDGE ( 'NONE', *, *, #357, .F. ) ;
#426 = AXIS2_PLACEMENT_3D ( 'NONE', #52, #353, #422 ) ;
#427 = DIRECTION ( 'NONE',  ( -1.000000000000000000, 0.000000000000000000, 0.000000000000000000 ) ) ;
#428 = VECTOR ( 'NONE', #332, 1000.000000000000000 ) ;
#429 = ADVANCED_BREP_SHAPE_REPRESENTATION ( 'BAR4X16T1', ( #63, #236 ), #18 ) ;
#430 = VECTOR ( 'NONE', #321, 1000.000000000000000 ) ;
#431 = ORIENTED_EDGE ( 'NONE', *, *, #307, .T. ) ;
#432 = DIRECTION ( 'NONE',  ( -1.000000000000000000, 0.000000000000000000, 0.000000000000000000 ) ) ;
#433 = CARTESIAN_POINT ( 'NONE',  ( -7.799999999999998934, 0.8000000000000000444, 1.800000000000000044 ) ) ;
#434 = CYLINDRICAL_SURFACE ( 'NONE', #226, 0.1999999999999996503 ) ;
#435 = VECTOR ( 'NONE', #341, 1000.000000000000000 ) ;
#436 = DIRECTION ( 'NONE',  ( 1.000000000000000000, 0.000000000000000000, -0.000000000000000000 ) ) ;
#437 = CARTESIAN_POINT ( 'NONE',  ( -7.799999999999998934, 0.8000000000000000444, 0.000000000000000000 ) ) ;
#438 = FILL_AREA_STYLE ('',( #363 ) ) ;
#439 = APPLICATION_CONTEXT ( 'automotive_design' ) ;
#440 = CYLINDRICAL_SURFACE ( 'NONE', #281, 0.2000000000000000944 ) ;
#441 = VECTOR ( 'NONE', #403, 1000.000000000000000 ) ;
#442 = CARTESIAN_POINT ( 'NONE',  ( -7.999999999999998224, 1.000000000000000000, -2.000000000000000000 ) ) ;
#443 = ADVANCED_FACE ( 'NONE', ( #164 ), #354, .F. ) ;
#444 = EDGE_CURVE ( 'NONE', #356, #204, #93, .T. ) ;
#445 = DIRECTION ( 'NONE',  ( 0.000000000000000000, 1.000000000000000000, 0.000000000000000000 ) ) ;
#446 = CARTESIAN_POINT ( 'NONE',  ( -7.999999999999998224, 0.000000000000000000, 2.000000000000000000 ) ) ;
#447 = PRODUCT_RELATED_PRODUCT_CATEGORY ( 'part', '', ( #385 ) ) ;
#448 = FACE_OUTER_BOUND ( 'NONE', #127, .T. ) ;
#449 = ORIENTED_EDGE ( 'NONE', *, *, #479, .F. ) ;
#450 = LINE ( 'NONE', #382, #96 ) ;
#451 =( GEOMETRIC_REPRESENTATION_CONTEXT ( 3 ) GLOBAL_UNCERTAINTY_ASSIGNED_CONTEXT ( ( #364 ) ) GLOBAL_UNIT_ASSIGNED_CONTEXT ( ( #211, #27, #331 ) ) REPRESENTATION_CONTEXT ( 'NONE', 'WORKASPACE' ) );
#452 = ORIENTED_EDGE ( 'NONE', *, *, #390, .T. ) ;
#453 = CARTESIAN_POINT ( 'NONE',  ( 0.000000000000000000, 0.000000000000000000, 0.000000000000000000 ) ) ;
#454 = ORIENTED_EDGE ( 'NONE', *, *, #277, .F. ) ;
#455 = DIRECTION ( 'NONE',  ( -0.000000000000000000, -0.000000000000000000, 1.000000000000000000 ) ) ;
#456 = AXIS2_PLACEMENT_3D ( 'NONE', #56, #209, #360 ) ;
#457 = EDGE_LOOP ( 'NONE', ( #88, #110, #195, #9 ) ) ;
#458 = CARTESIAN_POINT ( 'NONE',  ( 8.000000000000000000, 0.000000000000000000, -2.000000000000000000 ) ) ;
#459 = ORIENTED_EDGE ( 'NONE', *, *, #130, .T. ) ;
#460 = EDGE_CURVE ( 'NONE', #356, #388, #128, .T. ) ;
#461 = CARTESIAN_POINT ( 'NONE',  ( 7.800000000000000711, 0.8000000000000000444, 1.800000000000000044 ) ) ;
#462 = ADVANCED_FACE ( 'NONE', ( #278 ), #206, .T. ) ;
#463 = VECTOR ( 'NONE', #471, 1000.000000000000000 ) ;
#464 = ORIENTED_EDGE ( 'NONE', *, *, #59, .T. ) ;
#465 = CARTESIAN_POINT ( 'NONE',  ( -7.799999999999998934, 0.8000000000000000444, -1.800000000000000044 ) ) ;
#466 = ORIENTED_EDGE ( 'NONE', *, *, #131, .T. ) ;
#467 = CARTESIAN_POINT ( 'NONE',  ( 7.800000000000000711, 0.000000000000000000, 1.800000000000000044 ) ) ;
#468 = CIRCLE ( 'NONE', #366, 0.2000000000000000944 ) ;
#469 = ORIENTED_EDGE ( 'NONE', *, *, #329, .F. ) ;
#470 = CARTESIAN_POINT ( 'NONE',  ( 8.000000000000000000, 1.000000000000000000, -1.800000000000000044 ) ) ;
#471 = DIRECTION ( 'NONE',  ( 1.000000000000000000, -0.000000000000000000, 0.000000000000000000 ) ) ;
#472 = DIRECTION ( 'NONE',  ( 0.000000000000000000, 0.000000000000000000, -1.000000000000000000 ) ) ;
#473 = CIRCLE ( 'NONE', #194, 0.2000000000000000944 ) ;
#474 = CARTESIAN_POINT ( 'NONE',  ( -7.799999999999998934, 0.8000000000000000444, 1.800000000000000044 ) ) ;
#475 = AXIS2_PLACEMENT_3D ( 'NONE', #389, #160, #318 ) ;
#476 = DIRECTION ( 'NONE',  ( 0.000000000000000000, -0.000000000000000000, 1.000000000000000000 ) ) ;
#477 = ADVANCED_FACE ( 'NONE', ( #134 ), #10, .T. ) ;
#478 = DIRECTION ( 'NONE',  ( 0.000000000000000000, -0.000000000000000000, 1.000000000000000000 ) ) ;
#479 = EDGE_CURVE ( 'NONE', #200, #222, #17, .T. ) ;
#480 = DIRECTION ( 'NONE',  ( 0.000000000000000000, -1.000000000000000000, 0.000000000000000000 ) ) ;
#481 = AXIS2_PLACEMENT_3D ( 'NONE', #135, #141, #137 ) ;
#482 = DIRECTION ( 'NONE',  ( 1.000000000000000000, 0.000000000000000000, 0.000000000000000000 ) ) ;
#483 = DIRECTION ( 'NONE',  ( 1.000000000000000000, -4.336808689942018525E-15, 0.000000000000000000 ) ) ;
#484 = SHAPE_DEFINITION_REPRESENTATION ( #280, #429 ) ;
#485 = ORIENTED_EDGE ( 'NONE', *, *, #270, .T. ) ;
#486 = DIRECTION ( 'NONE',  ( 0.000000000000000000, 0.000000000000000000, 1.000000000000000000 ) ) ;
#487 = EDGE_LOOP ( 'NONE', ( #265, #238, #87 ) ) ;
#488 = DIRECTION ( 'NONE',  ( 0.000000000000000000, -1.000000000000000000, 0.000000000000000000 ) ) ;
#489 = VECTOR ( 'NONE', #397, 1000.000000000000000 ) ;
#490 = ORIENTED_EDGE ( 'NONE', *, *, #252, .F. ) ;
#491 = DIRECTION ( 'NONE',  ( 0.000000000000000000, 1.000000000000000000, 0.000000000000000000 ) ) ;
ENDSEC;
END-ISO-10303-21;
