ISO-10303-21;
HEADER;
FILE_DESCRIPTION (( 'STEP AP203' ),
    '1' );
FILE_NAME ('BAR4X20T2.step',
    '2026-03-22T07:17:16',
    ( '' ),
    ( '' ),
    'SwSTEP 2.0',
    'SolidWorks 2025',
    '' );
FILE_SCHEMA (( 'CONFIG_CONTROL_DESIGN' ));
ENDSEC;

DATA;
#1 = CARTESIAN_POINT ( 'NONE',  ( 9.799999999999998934, 1.800000000000000044, -2.000000000000000000 ) ) ;
#2 = VECTOR ( 'NONE', #346, 1000.000000000000000 ) ;
#3 = ORIENTED_EDGE ( 'NONE', *, *, #306, .T. ) ;
#4 = APPROVAL ( #518, 'UNSPECIFIED' ) ;
#5 = DIRECTION ( 'NONE',  ( 0.000000000000000000, 0.000000000000000000, 1.000000000000000000 ) ) ;
#6 = ORIENTED_EDGE ( 'NONE', *, *, #155, .F. ) ;
#7 = FACE_OUTER_BOUND ( 'NONE', #413, .T. ) ;
#8 = ORIENTED_EDGE ( 'NONE', *, *, #110, .T. ) ;
#9 = MANIFOLD_SOLID_BREP ( '\X2\570689d2\X0\1', #131 ) ;
#10 = EDGE_CURVE ( 'NONE', #246, #253, #436, .T. ) ;
#11 = DIRECTION ( 'NONE',  ( -1.000000000000000000, 0.000000000000000000, 8.673617379884013384E-15 ) ) ;
#12 = EDGE_LOOP ( 'NONE', ( #287, #6, #105, #92 ) ) ;
#13 = FACE_OUTER_BOUND ( 'NONE', #74, .T. ) ;
#14 = CC_DESIGN_APPROVAL ( #349, ( #314 ) ) ;
#15 = AXIS2_PLACEMENT_3D ( 'NONE', #455, #37, #414 ) ;
#16 = ADVANCED_FACE ( 'NONE', ( #154 ), #308, .T. ) ;
#17 = ORIENTED_EDGE ( 'NONE', *, *, #334, .F. ) ;
#18 = CARTESIAN_POINT ( 'NONE',  ( 10.00000000000000178, 0.000000000000000000, -1.800000000000000044 ) ) ;
#19 = DIRECTION ( 'NONE',  ( 0.000000000000000000, -1.000000000000000000, 0.000000000000000000 ) ) ;
#20 = AXIS2_PLACEMENT_3D ( 'NONE', #321, #125, #540 ) ;
#21 = CARTESIAN_POINT ( 'NONE',  ( -9.999999999999998224, 0.000000000000000000, -1.800000000000000044 ) ) ;
#22 = CARTESIAN_POINT ( 'NONE',  ( 9.800000000000000711, 1.800000000000000044, 1.800000000000000044 ) ) ;
#23 = CARTESIAN_POINT ( 'NONE',  ( -9.799999999999997158, 2.000000000000000000, 2.000000000000000000 ) ) ;
#24 = CARTESIAN_POINT ( 'NONE',  ( 10.00000000000000178, 2.000000000000000000, 1.800000000000000044 ) ) ;
#25 = CARTESIAN_POINT ( 'NONE',  ( 0.000000000000000000, 2.000000000000000000, 0.000000000000000000 ) ) ;
#26 = DIRECTION ( 'NONE',  ( 0.000000000000000000, -1.000000000000000000, 0.000000000000000000 ) ) ;
#27 = LOCAL_TIME ( 15, 17, 16.00000000000000000, #363 ) ;
#28 = CARTESIAN_POINT ( 'NONE',  ( -9.999999999999998224, 2.000000000000000000, 1.800000000000000044 ) ) ;
#29 = ORIENTED_EDGE ( 'NONE', *, *, #251, .F. ) ;
#30 = CARTESIAN_POINT ( 'NONE',  ( 9.800000000000000711, 0.000000000000000000, 1.800000000000000044 ) ) ;
#31 = EDGE_LOOP ( 'NONE', ( #203, #174, #428 ) ) ;
#32 = EDGE_CURVE ( 'NONE', #510, #38, #344, .T. ) ;
#33 = CALENDAR_DATE ( 2026, 22, 3 ) ;
#34 = CARTESIAN_POINT ( 'NONE',  ( 9.799999999999998934, 1.800000000000000044, -1.800000000000000044 ) ) ;
#35 = ORIENTED_EDGE ( 'NONE', *, *, #209, .T. ) ;
#36 = SHAPE_DEFINITION_REPRESENTATION ( #54, #75 ) ;
#37 = DIRECTION ( 'NONE',  ( 0.000000000000000000, 1.000000000000000000, 0.000000000000000000 ) ) ;
#38 = VERTEX_POINT ( 'NONE', #231 ) ;
#39 = ADVANCED_FACE ( 'NONE', ( #392 ), #481, .T. ) ;
#40 = VECTOR ( 'NONE', #370, 1000.000000000000000 ) ;
#41 = CARTESIAN_POINT ( 'NONE',  ( -9.799999999999997158, 2.000000000000000000, 1.800000000000000044 ) ) ;
#42 = ORIENTED_EDGE ( 'NONE', *, *, #324, .F. ) ;
#43 = AXIS2_PLACEMENT_3D ( 'NONE', #315, #239, #190 ) ;
#44 = CIRCLE ( 'NONE', #238, 0.2000000000000000944 ) ;
#45 = CIRCLE ( 'NONE', #295, 0.2000000000000000944 ) ;
#46 = APPROVAL ( #210, 'UNSPECIFIED' ) ;
#47 = CARTESIAN_POINT ( 'NONE',  ( -9.799999999999997158, 1.800000000000000044, -1.800000000000000044 ) ) ;
#48 = VERTEX_POINT ( 'NONE', #103 ) ;
#49 = AXIS2_PLACEMENT_3D ( 'NONE', #151, #270, #65 ) ;
#50 = CARTESIAN_POINT ( 'NONE',  ( -9.799999999999997158, 1.800000000000000044, 1.800000000000000044 ) ) ;
#51 = AXIS2_PLACEMENT_3D ( 'NONE', #193, #391, #189 ) ;
#52 = VERTEX_POINT ( 'NONE', #197 ) ;
#53 = PLANE ( 'NONE',  #345 ) ;
#54 = PRODUCT_DEFINITION_SHAPE ( 'NONE', 'NONE',  #292 ) ;
#55 = ORIENTED_EDGE ( 'NONE', *, *, #132, .F. ) ;
#56 = EDGE_CURVE ( 'NONE', #78, #220, #272, .T. ) ;
#57 = DIRECTION ( 'NONE',  ( -0.000000000000000000, -0.000000000000000000, 1.000000000000000000 ) ) ;
#58 = VERTEX_POINT ( 'NONE', #519 ) ;
#59 = DIRECTION ( 'NONE',  ( 0.000000000000000000, 0.000000000000000000, 1.000000000000000000 ) ) ;
#60 = EDGE_LOOP ( 'NONE', ( #94, #224, #338, #55 ) ) ;
#61 = EDGE_CURVE ( 'NONE', #505, #134, #446, .T. ) ;
#62 = CARTESIAN_POINT ( 'NONE',  ( -9.999999999999998224, 0.000000000000000000, -2.000000000000000000 ) ) ;
#63 = EDGE_LOOP ( 'NONE', ( #88, #176, #181, #206 ) ) ;
#64 = DIRECTION ( 'NONE',  ( -0.000000000000000000, 1.000000000000000000, -0.000000000000000000 ) ) ;
#65 = DIRECTION ( 'NONE',  ( -1.000000000000000000, 0.000000000000000000, -0.000000000000000000 ) ) ;
#66 =( NAMED_UNIT ( * ) PLANE_ANGLE_UNIT ( ) SI_UNIT ( $, .RADIAN. ) );
#67 = DIRECTION ( 'NONE',  ( 1.000000000000000000, 0.000000000000000000, 0.000000000000000000 ) ) ;
#68 = CARTESIAN_POINT ( 'NONE',  ( 10.00000000000000178, 1.800000000000000044, 2.000000000000000000 ) ) ;
#69 = LINE ( 'NONE', #24, #187 ) ;
#70 = VECTOR ( 'NONE', #166, 1000.000000000000000 ) ;
#71 = DIRECTION ( 'NONE',  ( 1.000000000000000000, 0.000000000000000000, 0.000000000000000000 ) ) ;
#72 = VECTOR ( 'NONE', #441, 1000.000000000000000 ) ;
#73 = CARTESIAN_POINT ( 'NONE',  ( -9.799999999999997158, 0.000000000000000000, 1.800000000000000044 ) ) ;
#74 = EDGE_LOOP ( 'NONE', ( #491, #369, #262, #167 ) ) ;
#75 = ADVANCED_BREP_SHAPE_REPRESENTATION ( 'BAR4X20T2', ( #9, #51 ), #196 ) ;
#76 = DATE_AND_TIME ( #244, #371 ) ;
#77 = DIRECTION ( 'NONE',  ( 0.000000000000000000, 0.000000000000000000, 1.000000000000000000 ) ) ;
#78 = VERTEX_POINT ( 'NONE', #233 ) ;
#79 = SPHERICAL_SURFACE ( 'NONE', #15, 0.2000000000000000111 ) ;
#80 = ADVANCED_FACE ( 'NONE', ( #438 ), #521, .T. ) ;
#81 = FACE_OUTER_BOUND ( 'NONE', #164, .T. ) ;
#82 = ORIENTED_EDGE ( 'NONE', *, *, #150, .F. ) ;
#83 = AXIS2_PLACEMENT_3D ( 'NONE', #73, #169, #115 ) ;
#84 = DIRECTION ( 'NONE',  ( -0.000000000000000000, -0.000000000000000000, -1.000000000000000000 ) ) ;
#85 = ORIENTED_EDGE ( 'NONE', *, *, #283, .T. ) ;
#86 = CIRCLE ( 'NONE', #389, 0.2000000000000000944 ) ;
#87 = DIRECTION ( 'NONE',  ( -0.000000000000000000, 1.000000000000000000, 0.000000000000000000 ) ) ;
#88 = ORIENTED_EDGE ( 'NONE', *, *, #251, .T. ) ;
#89 = VECTOR ( 'NONE', #194, 1000.000000000000000 ) ;
#90 = DIRECTION ( 'NONE',  ( -1.000000000000000000, 0.000000000000000000, 0.000000000000000000 ) ) ;
#91 = ADVANCED_FACE ( 'NONE', ( #101 ), #435, .T. ) ;
#92 = ORIENTED_EDGE ( 'NONE', *, *, #506, .F. ) ;
#93 = DIRECTION ( 'NONE',  ( -1.000000000000000000, 0.000000000000000000, 0.000000000000000000 ) ) ;
#94 = ORIENTED_EDGE ( 'NONE', *, *, #195, .T. ) ;
#95 = ORIENTED_EDGE ( 'NONE', *, *, #56, .T. ) ;
#96 = ADVANCED_FACE ( 'NONE', ( #440 ), #354, .F. ) ;
#97 = CARTESIAN_POINT ( 'NONE',  ( -9.799999999999997158, 2.000000000000000000, -2.000000000000000000 ) ) ;
#98 = ORIENTED_EDGE ( 'NONE', *, *, #496, .T. ) ;
#99 = CC_DESIGN_PERSON_AND_ORGANIZATION_ASSIGNMENT ( #310, #234, ( #222 ) ) ;
#100 = LINE ( 'NONE', #23, #374 ) ;
#101 = FACE_OUTER_BOUND ( 'NONE', #139, .T. ) ;
#102 = COORDINATED_UNIVERSAL_TIME_OFFSET ( 8, 0, .AHEAD. ) ;
#103 = CARTESIAN_POINT ( 'NONE',  ( -9.799999999999997158, 0.000000000000000000, 2.000000000000000000 ) ) ;
#104 = CALENDAR_DATE ( 2026, 22, 3 ) ;
#105 = ORIENTED_EDGE ( 'NONE', *, *, #482, .F. ) ;
#106 = EDGE_CURVE ( 'NONE', #510, #260, #186, .T. ) ;
#107 = DIRECTION ( 'NONE',  ( 0.000000000000000000, 1.000000000000000000, 0.000000000000000000 ) ) ;
#108 = DIRECTION ( 'NONE',  ( -0.000000000000000000, 1.000000000000000000, 0.000000000000000000 ) ) ;
#109 = CC_DESIGN_APPROVAL ( #46, ( #328 ) ) ;
#110 = EDGE_CURVE ( 'NONE', #78, #38, #490, .T. ) ;
#111 = LINE ( 'NONE', #412, #229 ) ;
#112 = AXIS2_PLACEMENT_3D ( 'NONE', #388, #475, #396 ) ;
#113 = AXIS2_PLACEMENT_3D ( 'NONE', #291, #500, #133 ) ;
#114 = AXIS2_PLACEMENT_3D ( 'NONE', #22, #479, #67 ) ;
#115 = DIRECTION ( 'NONE',  ( 0.000000000000000000, 0.000000000000000000, 1.000000000000000000 ) ) ;
#116 = EDGE_LOOP ( 'NONE', ( #35, #8, #274 ) ) ;
#117 = VECTOR ( 'NONE', #191, 1000.000000000000000 ) ;
#118 = APPROVAL_ROLE ( '' ) ;
#119 = CC_DESIGN_PERSON_AND_ORGANIZATION_ASSIGNMENT ( #168, #165, ( #292 ) ) ;
#120 = CARTESIAN_POINT ( 'NONE',  ( -9.799999999999997158, 2.000000000000000000, -1.800000000000000044 ) ) ;
#121 = ORIENTED_EDGE ( 'NONE', *, *, #283, .F. ) ;
#122 = CALENDAR_DATE ( 2026, 22, 3 ) ;
#123 = DIRECTION ( 'NONE',  ( 0.000000000000000000, 0.000000000000000000, 1.000000000000000000 ) ) ;
#124 = VERTEX_POINT ( 'NONE', #235 ) ;
#125 = DIRECTION ( 'NONE',  ( 1.000000000000000000, -0.000000000000000000, -0.000000000000000000 ) ) ;
#126 = VERTEX_POINT ( 'NONE', #399 ) ;
#127 = DIRECTION ( 'NONE',  ( 0.000000000000000000, -0.000000000000000000, 1.000000000000000000 ) ) ;
#128 = EDGE_LOOP ( 'NONE', ( #423, #85, #421, #471, #265, #3, #465, #537 ) ) ;
#129 = CARTESIAN_POINT ( 'NONE',  ( -9.999999999999998224, 0.000000000000000000, 2.000000000000000000 ) ) ;
#130 = ORIENTED_EDGE ( 'NONE', *, *, #179, .T. ) ;
#131 = CLOSED_SHELL ( 'NONE', ( #285, #360, #144, #96, #539, #382, #236, #453, #80, #263, #429, #356, #333, #16, #91, #299, #39, #202 ) ) ;
#132 = EDGE_CURVE ( 'NONE', #246, #38, #69, .T. ) ;
#133 = DIRECTION ( 'NONE',  ( -1.000000000000000000, 0.000000000000000000, 0.000000000000000000 ) ) ;
#134 = VERTEX_POINT ( 'NONE', #433 ) ;
#135 = CYLINDRICAL_SURFACE ( 'NONE', #470, 0.2000000000000000944 ) ;
#136 = ORIENTED_EDGE ( 'NONE', *, *, #533, .F. ) ;
#137 = DIRECTION ( 'NONE',  ( -1.000000000000000000, 0.000000000000000000, 0.000000000000000000 ) ) ;
#138 = EDGE_CURVE ( 'NONE', #52, #134, #313, .T. ) ;
#139 = EDGE_LOOP ( 'NONE', ( #226, #376, #218, #302 ) ) ;
#140 = MECHANICAL_CONTEXT ( 'NONE', #188, 'mechanical' ) ;
#141 = CIRCLE ( 'NONE', #113, 0.2000000000000005107 ) ;
#142 = VECTOR ( 'NONE', #249, 1000.000000000000000 ) ;
#143 = VERTEX_POINT ( 'NONE', #357 ) ;
#144 = ADVANCED_FACE ( 'NONE', ( #524 ), #402, .F. ) ;
#145 = AXIS2_PLACEMENT_3D ( 'NONE', #182, #173, #372 ) ;
#146 = CARTESIAN_POINT ( 'NONE',  ( 10.00000000000000178, 2.000000000000000000, 1.800000000000000044 ) ) ;
#147 = CARTESIAN_POINT ( 'NONE',  ( -9.999999999999998224, 1.800000000000000044, -2.000000000000000000 ) ) ;
#148 = CARTESIAN_POINT ( 'NONE',  ( -9.799999999999997158, 0.000000000000000000, -1.800000000000000044 ) ) ;
#149 = EDGE_CURVE ( 'NONE', #220, #462, #45, .T. ) ;
#150 = EDGE_CURVE ( 'NONE', #126, #253, #406, .T. ) ;
#151 = CARTESIAN_POINT ( 'NONE',  ( -9.999999999999998224, 2.000000000000000000, 2.000000000000000000 ) ) ;
#152 = LINE ( 'NONE', #147, #72 ) ;
#153 = DIRECTION ( 'NONE',  ( 0.000000000000000000, 0.000000000000000000, 1.000000000000000000 ) ) ;
#154 = FACE_OUTER_BOUND ( 'NONE', #305, .T. ) ;
#155 = EDGE_CURVE ( 'NONE', #300, #505, #364, .T. ) ;
#156 = APPROVAL_PERSON_ORGANIZATION ( #199, #349, #534 ) ;
#157 = CIRCLE ( 'NONE', #340, 0.2000000000000000944 ) ;
#158 = DIRECTION ( 'NONE',  ( -0.000000000000000000, 1.000000000000000000, -0.000000000000000000 ) ) ;
#159 = ORIENTED_EDGE ( 'NONE', *, *, #306, .F. ) ;
#160 = AXIS2_PLACEMENT_3D ( 'NONE', #204, #71, #366 ) ;
#161 = DATE_AND_TIME ( #415, #27 ) ;
#162 = VECTOR ( 'NONE', #516, 1000.000000000000000 ) ;
#163 = LINE ( 'NONE', #362, #142 ) ;
#164 = EDGE_LOOP ( 'NONE', ( #294, #290, #327, #95 ) ) ;
#165 = PERSON_AND_ORGANIZATION_ROLE ( 'creator' ) ;
#166 = DIRECTION ( 'NONE',  ( 0.000000000000000000, -1.000000000000000000, 0.000000000000000000 ) ) ;
#167 = ORIENTED_EDGE ( 'NONE', *, *, #477, .T. ) ;
#168 = PERSON_AND_ORGANIZATION ( #394, #517 ) ;
#169 = DIRECTION ( 'NONE',  ( -0.000000000000000000, -1.000000000000000000, -0.000000000000000000 ) ) ;
#170 = VECTOR ( 'NONE', #180, 1000.000000000000000 ) ;
#171 = DIRECTION ( 'NONE',  ( 2.602085213965209379E-14, 0.000000000000000000, 1.000000000000000000 ) ) ;
#172 = VECTOR ( 'NONE', #422, 1000.000000000000000 ) ;
#173 = DIRECTION ( 'NONE',  ( 1.000000000000000000, 0.000000000000000000, 0.000000000000000000 ) ) ;
#174 = ORIENTED_EDGE ( 'NONE', *, *, #289, .T. ) ;
#175 = DIRECTION ( 'NONE',  ( 0.000000000000000000, 0.000000000000000000, 1.000000000000000000 ) ) ;
#176 = ORIENTED_EDGE ( 'NONE', *, *, #132, .T. ) ;
#177 = DIRECTION ( 'NONE',  ( 0.000000000000000000, 0.000000000000000000, -1.000000000000000000 ) ) ;
#178 = ORIENTED_EDGE ( 'NONE', *, *, #247, .F. ) ;
#179 = EDGE_CURVE ( 'NONE', #462, #510, #163, .T. ) ;
#180 = DIRECTION ( 'NONE',  ( -1.000000000000000000, 0.000000000000000000, 0.000000000000000000 ) ) ;
#181 = ORIENTED_EDGE ( 'NONE', *, *, #522, .T. ) ;
#182 = CARTESIAN_POINT ( 'NONE',  ( 0.000000000000000000, 1.800000000000000044, -1.800000000000000044 ) ) ;
#183 = ORIENTED_EDGE ( 'NONE', *, *, #496, .F. ) ;
#184 = DIRECTION ( 'NONE',  ( 0.000000000000000000, -1.000000000000000000, 0.000000000000000000 ) ) ;
#185 = CIRCLE ( 'NONE', #444, 0.2000000000000000944 ) ;
#186 = LINE ( 'NONE', #268, #162 ) ;
#187 = VECTOR ( 'NONE', #442, 1000.000000000000000 ) ;
#188 = APPLICATION_CONTEXT ( 'configuration controlled 3d designs of mechanical parts and assemblies' ) ;
#189 = DIRECTION ( 'NONE',  ( 1.000000000000000000, 0.000000000000000000, 0.000000000000000000 ) ) ;
#190 = DIRECTION ( 'NONE',  ( 1.000000000000000000, 0.000000000000000000, 0.000000000000000000 ) ) ;
#191 = DIRECTION ( 'NONE',  ( 0.000000000000000000, -1.000000000000000000, 0.000000000000000000 ) ) ;
#192 = CARTESIAN_POINT ( 'NONE',  ( -9.799999999999997158, 1.800000000000000044, 1.800000000000000044 ) ) ;
#193 = CARTESIAN_POINT ( 'NONE',  ( 0.000000000000000000, 0.000000000000000000, 0.000000000000000000 ) ) ;
#194 = DIRECTION ( 'NONE',  ( -1.000000000000000000, -0.000000000000000000, -0.000000000000000000 ) ) ;
#195 = EDGE_CURVE ( 'NONE', #246, #260, #255, .T. ) ;
#196 =( GEOMETRIC_REPRESENTATION_CONTEXT ( 3 ) GLOBAL_UNCERTAINTY_ASSIGNED_CONTEXT ( ( #474 ) ) GLOBAL_UNIT_ASSIGNED_CONTEXT ( ( #273, #66, #341 ) ) REPRESENTATION_CONTEXT ( 'NONE', 'WORKASPACE' ) );
#197 = CARTESIAN_POINT ( 'NONE',  ( 9.799999999999998934, 0.000000000000000000, -2.000000000000000000 ) ) ;
#198 = APPROVAL_PERSON_ORGANIZATION ( #350, #4, #476 ) ;
#199 = PERSON_AND_ORGANIZATION ( #394, #517 ) ;
#200 = CARTESIAN_POINT ( 'NONE',  ( -9.999999999999998224, 2.000000000000000000, -1.800000000000000044 ) ) ;
#201 = LOCAL_TIME ( 15, 17, 16.00000000000000000, #530 ) ;
#202 = ADVANCED_FACE ( 'NONE', ( #211 ), #213, .T. ) ;
#203 = ORIENTED_EDGE ( 'NONE', *, *, #443, .T. ) ;
#204 = CARTESIAN_POINT ( 'NONE',  ( -9.999999999999998224, 2.000000000000000000, -2.000000000000000000 ) ) ;
#205 = AXIS2_PLACEMENT_3D ( 'NONE', #192, #311, #232 ) ;
#206 = ORIENTED_EDGE ( 'NONE', *, *, #324, .T. ) ;
#207 = DATE_TIME_ROLE ( 'classification_date' ) ;
#208 = DIRECTION ( 'NONE',  ( -1.000000000000000000, 0.000000000000000000, 0.000000000000000000 ) ) ;
#209 = EDGE_CURVE ( 'NONE', #510, #78, #390, .T. ) ;
#210 = APPROVAL_STATUS ( 'not_yet_approved' ) ;
#211 = FACE_OUTER_BOUND ( 'NONE', #60, .T. ) ;
#212 = ORIENTED_EDGE ( 'NONE', *, *, #502, .T. ) ;
#213 = CYLINDRICAL_SURFACE ( 'NONE', #463, 0.2000000000000000944 ) ;
#214 = ORIENTED_EDGE ( 'NONE', *, *, #397, .T. ) ;
#215 = AXIS2_PLACEMENT_3D ( 'NONE', #216, #259, #11 ) ;
#216 = CARTESIAN_POINT ( 'NONE',  ( 9.800000000000000711, 1.800000000000000044, -1.800000000000000044 ) ) ;
#217 = AXIS2_PLACEMENT_3D ( 'NONE', #148, #309, #153 ) ;
#218 = ORIENTED_EDGE ( 'NONE', *, *, #209, .F. ) ;
#219 = CARTESIAN_POINT ( 'NONE',  ( -9.799999999999997158, 1.800000000000000044, 0.000000000000000000 ) ) ;
#220 = VERTEX_POINT ( 'NONE', #531 ) ;
#221 = LOCAL_TIME ( 15, 17, 16.00000000000000000, #250 ) ;
#222 = PRODUCT ( 'BAR4X20T2', 'BAR4X20T2', '', ( #140 ) ) ;
#223 = CARTESIAN_POINT ( 'NONE',  ( 0.000000000000000000, 0.000000000000000000, 0.000000000000000000 ) ) ;
#224 = ORIENTED_EDGE ( 'NONE', *, *, #106, .F. ) ;
#225 = CARTESIAN_POINT ( 'NONE',  ( -9.999999999999998224, 2.000000000000000000, -1.800000000000000044 ) ) ;
#226 = ORIENTED_EDGE ( 'NONE', *, *, #149, .F. ) ;
#227 = DIRECTION ( 'NONE',  ( 0.000000000000000000, 1.000000000000000000, -0.000000000000000000 ) ) ;
#228 = ORIENTED_EDGE ( 'NONE', *, *, #334, .T. ) ;
#229 = VECTOR ( 'NONE', #158, 1000.000000000000000 ) ;
#230 = DIRECTION ( 'NONE',  ( 1.000000000000000000, -0.000000000000000000, -0.000000000000000000 ) ) ;
#231 = CARTESIAN_POINT ( 'NONE',  ( 9.800000000000000711, 2.000000000000000000, 1.800000000000000044 ) ) ;
#232 = DIRECTION ( 'NONE',  ( 1.000000000000000000, 0.000000000000000000, 0.000000000000000000 ) ) ;
#233 = CARTESIAN_POINT ( 'NONE',  ( 10.00000000000000178, 1.800000000000000044, 1.800000000000000044 ) ) ;
#234 = PERSON_AND_ORGANIZATION_ROLE ( 'design_owner' ) ;
#235 = CARTESIAN_POINT ( 'NONE',  ( 10.00000000000000178, 1.800000000000000044, -1.800000000000000044 ) ) ;
#236 = ADVANCED_FACE ( 'NONE', ( #498 ), #493, .T. ) ;
#237 = LINE ( 'NONE', #386, #2 ) ;
#238 = AXIS2_PLACEMENT_3D ( 'NONE', #511, #137, #264 ) ;
#239 = DIRECTION ( 'NONE',  ( 0.000000000000000000, -0.000000000000000000, 1.000000000000000000 ) ) ;
#240 = DIRECTION ( 'NONE',  ( -0.000000000000000000, -1.000000000000000000, -0.000000000000000000 ) ) ;
#241 = VECTOR ( 'NONE', #64, 1000.000000000000000 ) ;
#242 = CARTESIAN_POINT ( 'NONE',  ( 10.00000000000000178, 2.000000000000000000, -2.000000000000000000 ) ) ;
#243 = ORIENTED_EDGE ( 'NONE', *, *, #439, .F. ) ;
#244 = CALENDAR_DATE ( 2026, 22, 3 ) ;
#245 = FACE_OUTER_BOUND ( 'NONE', #469, .T. ) ;
#246 = VERTEX_POINT ( 'NONE', #41 ) ;
#247 = EDGE_CURVE ( 'NONE', #532, #124, #111, .T. ) ;
#248 = DATE_AND_TIME ( #33, #221 ) ;
#249 = DIRECTION ( 'NONE',  ( -0.000000000000000000, 1.000000000000000000, -0.000000000000000000 ) ) ;
#250 = COORDINATED_UNIVERSAL_TIME_OFFSET ( 8, 0, .AHEAD. ) ;
#251 = EDGE_CURVE ( 'NONE', #58, #246, #536, .T. ) ;
#252 = LINE ( 'NONE', #468, #420 ) ;
#253 = VERTEX_POINT ( 'NONE', #286 ) ;
#254 = AXIS2_PLACEMENT_3D ( 'NONE', #280, #408, #175 ) ;
#255 = CIRCLE ( 'NONE', #20, 0.2000000000000000944 ) ;
#256 = PRODUCT_RELATED_PRODUCT_CATEGORY ( 'detail', '', ( #222 ) ) ;
#257 = CYLINDRICAL_SURFACE ( 'NONE', #145, 0.2000000000000000944 ) ;
#258 = ORIENTED_EDGE ( 'NONE', *, *, #110, .F. ) ;
#259 = DIRECTION ( 'NONE',  ( 0.000000000000000000, 1.000000000000000000, 0.000000000000000000 ) ) ;
#260 = VERTEX_POINT ( 'NONE', #451 ) ;
#261 = LINE ( 'NONE', #296, #400 ) ;
#262 = ORIENTED_EDGE ( 'NONE', *, *, #485, .T. ) ;
#263 = ADVANCED_FACE ( 'NONE', ( #288 ), #79, .T. ) ;
#264 = DIRECTION ( 'NONE',  ( 0.000000000000000000, 0.000000000000000000, 1.000000000000000000 ) ) ;
#265 = ORIENTED_EDGE ( 'NONE', *, *, #138, .F. ) ;
#266 = CC_DESIGN_APPROVAL ( #4, ( #292 ) ) ;
#267 = FACE_OUTER_BOUND ( 'NONE', #63, .T. ) ;
#268 = CARTESIAN_POINT ( 'NONE',  ( -9.999999999999998224, 1.800000000000000044, 2.000000000000000000 ) ) ;
#269 = DESIGN_CONTEXT ( 'detailed design', #503, 'design' ) ;
#270 = DIRECTION ( 'NONE',  ( 0.000000000000000000, 0.000000000000000000, -1.000000000000000000 ) ) ;
#271 = LINE ( 'NONE', #275, #117 ) ;
#272 = LINE ( 'NONE', #146, #486 ) ;
#273 =( LENGTH_UNIT ( ) NAMED_UNIT ( * ) SI_UNIT ( .MILLI., .METRE. ) );
#274 = ORIENTED_EDGE ( 'NONE', *, *, #32, .F. ) ;
#275 = CARTESIAN_POINT ( 'NONE',  ( 9.799999999999998934, 2.000000000000000000, -2.000000000000000000 ) ) ;
#276 = CARTESIAN_POINT ( 'NONE',  ( 9.800000000000000711, 2.000000000000000000, 1.800000000000000044 ) ) ;
#277 = AXIS2_PLACEMENT_3D ( 'NONE', #47, #57, #90 ) ;
#278 = DIRECTION ( 'NONE',  ( 0.000000000000000000, 0.000000000000000000, 1.000000000000000000 ) ) ;
#279 = DATE_AND_TIME ( #122, #201 ) ;
#280 = CARTESIAN_POINT ( 'NONE',  ( -9.799999999999997158, 1.800000000000000044, 1.800000000000000044 ) ) ;
#281 = AXIS2_PLACEMENT_3D ( 'NONE', #434, #353, #355 ) ;
#282 = COORDINATED_UNIVERSAL_TIME_OFFSET ( 8, 0, .AHEAD. ) ;
#283 = EDGE_CURVE ( 'NONE', #48, #126, #483, .T. ) ;
#284 = DIRECTION ( 'NONE',  ( 0.000000000000000000, -1.000000000000000000, 0.000000000000000000 ) ) ;
#285 = ADVANCED_FACE ( 'NONE', ( #81 ), #325, .F. ) ;
#286 = CARTESIAN_POINT ( 'NONE',  ( -9.999999999999998224, 1.800000000000000044, 1.800000000000000044 ) ) ;
#287 = ORIENTED_EDGE ( 'NONE', *, *, #61, .F. ) ;
#288 = FACE_OUTER_BOUND ( 'NONE', #460, .T. ) ;
#289 = EDGE_CURVE ( 'NONE', #332, #143, #157, .T. ) ;
#290 = ORIENTED_EDGE ( 'NONE', *, *, #247, .T. ) ;
#291 = CARTESIAN_POINT ( 'NONE',  ( 9.800000000000000711, 1.800000000000000044, -1.800000000000000044 ) ) ;
#292 = PRODUCT_DEFINITION ( 'UNKNOWN', '', #328, #269 ) ;
#293 = LINE ( 'NONE', #225, #170 ) ;
#294 = ORIENTED_EDGE ( 'NONE', *, *, #342, .T. ) ;
#295 = AXIS2_PLACEMENT_3D ( 'NONE', #30, #240, #171 ) ;
#296 = CARTESIAN_POINT ( 'NONE',  ( -9.999999999999998224, 0.000000000000000000, -2.000000000000000000 ) ) ;
#297 = ORIENTED_EDGE ( 'NONE', *, *, #289, .F. ) ;
#298 = DIRECTION ( 'NONE',  ( 0.000000000000000000, 1.000000000000000000, 0.000000000000000000 ) ) ;
#299 = ADVANCED_FACE ( 'NONE', ( #245 ), #445, .T. ) ;
#300 = VERTEX_POINT ( 'NONE', #489 ) ;
#301 = CARTESIAN_POINT ( 'NONE',  ( 9.799999999999998934, 0.000000000000000000, -1.800000000000000044 ) ) ;
#302 = ORIENTED_EDGE ( 'NONE', *, *, #179, .F. ) ;
#303 = AXIS2_PLACEMENT_3D ( 'NONE', #430, #87, #59 ) ;
#304 = LINE ( 'NONE', #97, #241 ) ;
#305 = EDGE_LOOP ( 'NONE', ( #373, #541, #258, #136 ) ) ;
#306 = EDGE_CURVE ( 'NONE', #52, #532, #185, .T. ) ;
#307 = VECTOR ( 'NONE', #312, 1000.000000000000000 ) ;
#308 = CYLINDRICAL_SURFACE ( 'NONE', #43, 0.2000000000000005107 ) ;
#309 = DIRECTION ( 'NONE',  ( -0.000000000000000000, -1.000000000000000000, -0.000000000000000000 ) ) ;
#310 = PERSON_AND_ORGANIZATION ( #394, #517 ) ;
#311 = DIRECTION ( 'NONE',  ( 0.000000000000000000, -0.000000000000000000, 1.000000000000000000 ) ) ;
#312 = DIRECTION ( 'NONE',  ( -0.000000000000000000, -0.000000000000000000, 1.000000000000000000 ) ) ;
#313 = LINE ( 'NONE', #62, #89 ) ;
#314 = SECURITY_CLASSIFICATION ( '', '', #367 ) ;
#315 = CARTESIAN_POINT ( 'NONE',  ( 9.800000000000000711, 1.800000000000000044, 0.000000000000000000 ) ) ;
#316 = AXIS2_PLACEMENT_3D ( 'NONE', #219, #509, #93 ) ;
#317 = DIRECTION ( 'NONE',  ( 1.000000000000000000, -8.673617379884032317E-15, 0.000000000000000000 ) ) ;
#318 = VERTEX_POINT ( 'NONE', #375 ) ;
#319 = DIRECTION ( 'NONE',  ( -0.000000000000000000, 1.000000000000000000, -0.000000000000000000 ) ) ;
#320 = APPROVAL_DATE_TIME ( #279, #349 ) ;
#321 = CARTESIAN_POINT ( 'NONE',  ( -9.799999999999997158, 1.800000000000000044, 1.800000000000000044 ) ) ;
#322 = ORIENTED_EDGE ( 'NONE', *, *, #439, .T. ) ;
#323 = PERSON_AND_ORGANIZATION ( #394, #517 ) ;
#324 = EDGE_CURVE ( 'NONE', #143, #58, #293, .T. ) ;
#325 = PLANE ( 'NONE',  #385 ) ;
#326 = DIRECTION ( 'NONE',  ( 0.000000000000000000, 0.000000000000000000, -1.000000000000000000 ) ) ;
#327 = ORIENTED_EDGE ( 'NONE', *, *, #533, .T. ) ;
#328 = PRODUCT_DEFINITION_FORMATION_WITH_SPECIFIED_SOURCE ( 'ANY', '', #222, .NOT_KNOWN. ) ;
#329 = DIRECTION ( 'NONE',  ( -0.000000000000000000, -1.000000000000000000, -0.000000000000000000 ) ) ;
#330 = ORIENTED_EDGE ( 'NONE', *, *, #150, .T. ) ;
#331 = CARTESIAN_POINT ( 'NONE',  ( -9.799999999999997158, 2.000000000000000000, 1.800000000000000044 ) ) ;
#332 = VERTEX_POINT ( 'NONE', #1 ) ;
#333 = ADVANCED_FACE ( 'NONE', ( #7 ), #464, .T. ) ;
#334 = EDGE_CURVE ( 'NONE', #253, #260, #86, .T. ) ;
#335 = DIRECTION ( 'NONE',  ( 1.000000000000000000, 0.000000000000000000, -0.000000000000000000 ) ) ;
#336 = ORIENTED_EDGE ( 'NONE', *, *, #443, .F. ) ;
#337 = CARTESIAN_POINT ( 'NONE',  ( -9.999999999999998224, 2.000000000000000000, -2.000000000000000000 ) ) ;
#338 = ORIENTED_EDGE ( 'NONE', *, *, #32, .T. ) ;
#339 = AXIS2_PLACEMENT_3D ( 'NONE', #120, #284, #326 ) ;
#340 = AXIS2_PLACEMENT_3D ( 'NONE', #34, #317, #368 ) ;
#341 =( NAMED_UNIT ( * ) SI_UNIT ( $, .STERADIAN. ) SOLID_ANGLE_UNIT ( ) );
#342 = EDGE_CURVE ( 'NONE', #220, #532, #252, .T. ) ;
#343 = EDGE_LOOP ( 'NONE', ( #417, #212, #381, #130 ) ) ;
#344 = CIRCLE ( 'NONE', #112, 0.2000000000000000944 ) ;
#345 = AXIS2_PLACEMENT_3D ( 'NONE', #223, #298, #127 ) ;
#346 = DIRECTION ( 'NONE',  ( 0.000000000000000000, 0.000000000000000000, -1.000000000000000000 ) ) ;
#347 = DIRECTION ( 'NONE',  ( 0.000000000000000000, 0.000000000000000000, -1.000000000000000000 ) ) ;
#348 = AXIS2_PLACEMENT_3D ( 'NONE', #276, #19, #525 ) ;
#349 = APPROVAL ( #492, 'UNSPECIFIED' ) ;
#350 = PERSON_AND_ORGANIZATION ( #394, #517 ) ;
#351 = DIRECTION ( 'NONE',  ( 0.000000000000000000, 0.000000000000000000, -1.000000000000000000 ) ) ;
#352 = CC_DESIGN_SECURITY_CLASSIFICATION ( #314, ( #328 ) ) ;
#353 = DIRECTION ( 'NONE',  ( 0.000000000000000000, 1.000000000000000000, 0.000000000000000000 ) ) ;
#354 = PLANE ( 'NONE',  #49 ) ;
#355 = DIRECTION ( 'NONE',  ( 0.000000000000000000, 0.000000000000000000, 1.000000000000000000 ) ) ;
#356 = ADVANCED_FACE ( 'NONE', ( #418 ), #135, .T. ) ;
#357 = CARTESIAN_POINT ( 'NONE',  ( 9.800000000000000711, 2.000000000000000000, -1.800000000000000044 ) ) ;
#358 = APPROVAL_DATE_TIME ( #76, #46 ) ;
#359 = DIRECTION ( 'NONE',  ( 0.000000000000000000, -1.000000000000000000, 0.000000000000000000 ) ) ;
#360 = ADVANCED_FACE ( 'NONE', ( #13 ), #507, .F. ) ;
#361 = PERSON_AND_ORGANIZATION_ROLE ( 'classification_officer' ) ;
#362 = CARTESIAN_POINT ( 'NONE',  ( 9.799999999999998934, 2.000000000000000000, 2.000000000000000000 ) ) ;
#363 = COORDINATED_UNIVERSAL_TIME_OFFSET ( 8, 0, .AHEAD. ) ;
#364 = LINE ( 'NONE', #200, #70 ) ;
#365 = DATE_TIME_ROLE ( 'creation_date' ) ;
#366 = DIRECTION ( 'NONE',  ( 0.000000000000000000, 0.000000000000000000, -1.000000000000000000 ) ) ;
#367 = SECURITY_CLASSIFICATION_LEVEL ( 'unclassified' ) ;
#368 = DIRECTION ( 'NONE',  ( 8.673617379884030739E-15, 1.000000000000000000, 0.000000000000000000 ) ) ;
#369 = ORIENTED_EDGE ( 'NONE', *, *, #506, .T. ) ;
#370 = DIRECTION ( 'NONE',  ( -0.000000000000000000, 0.000000000000000000, 1.000000000000000000 ) ) ;
#371 = LOCAL_TIME ( 15, 17, 16.00000000000000000, #282 ) ;
#372 = DIRECTION ( 'NONE',  ( 0.000000000000000000, 0.000000000000000000, -1.000000000000000000 ) ) ;
#373 = ORIENTED_EDGE ( 'NONE', *, *, #377, .T. ) ;
#374 = VECTOR ( 'NONE', #184, 1000.000000000000000 ) ;
#375 = CARTESIAN_POINT ( 'NONE',  ( -9.799999999999997158, 1.800000000000000044, -2.000000000000000000 ) ) ;
#376 = ORIENTED_EDGE ( 'NONE', *, *, #56, .F. ) ;
#377 = EDGE_CURVE ( 'NONE', #124, #143, #141, .T. ) ;
#378 = SPHERICAL_SURFACE ( 'NONE', #215, 0.2000000000000000111 ) ;
#379 = ORIENTED_EDGE ( 'NONE', *, *, #403, .F. ) ;
#380 = DIRECTION ( 'NONE',  ( 0.000000000000000000, 0.000000000000000000, 1.000000000000000000 ) ) ;
#381 = ORIENTED_EDGE ( 'NONE', *, *, #457, .T. ) ;
#382 = ADVANCED_FACE ( 'NONE', ( #427 ), #53, .F. ) ;
#383 = FACE_OUTER_BOUND ( 'NONE', #494, .T. ) ;
#384 = ORIENTED_EDGE ( 'NONE', *, *, #485, .F. ) ;
#385 = AXIS2_PLACEMENT_3D ( 'NONE', #242, #416, #278 ) ;
#386 = CARTESIAN_POINT ( 'NONE',  ( 9.800000000000000711, 2.000000000000000000, -2.000000000000000000 ) ) ;
#387 = CC_DESIGN_DATE_AND_TIME_ASSIGNMENT ( #248, #207, ( #314 ) ) ;
#388 = CARTESIAN_POINT ( 'NONE',  ( 9.800000000000000711, 1.800000000000000044, 1.800000000000000044 ) ) ;
#389 = AXIS2_PLACEMENT_3D ( 'NONE', #50, #227, #5 ) ;
#390 = CIRCLE ( 'NONE', #458, 0.2000000000000000944 ) ;
#391 = DIRECTION ( 'NONE',  ( 0.000000000000000000, 0.000000000000000000, 1.000000000000000000 ) ) ;
#392 = FACE_OUTER_BOUND ( 'NONE', #116, .T. ) ;
#393 = AXIS2_PLACEMENT_3D ( 'NONE', #484, #26, #347 ) ;
#394 = PERSON ( 'UNSPECIFIED', 'UNSPECIFIED', 'UNSPECIFIED', ('UNSPECIFIED'), ('UNSPECIFIED'), ('UNSPECIFIED') ) ;
#395 = CARTESIAN_POINT ( 'NONE',  ( 9.799999999999998934, 0.000000000000000000, 2.000000000000000000 ) ) ;
#396 = DIRECTION ( 'NONE',  ( 0.000000000000000000, 0.000000000000000000, -1.000000000000000000 ) ) ;
#397 = EDGE_CURVE ( 'NONE', #505, #126, #261, .T. ) ;
#398 = APPLICATION_PROTOCOL_DEFINITION ( 'international standard', 'config_control_design', 1994, #503 ) ;
#399 = CARTESIAN_POINT ( 'NONE',  ( -9.999999999999998224, 0.000000000000000000, 1.800000000000000044 ) ) ;
#400 = VECTOR ( 'NONE', #380, 1000.000000000000000 ) ;
#401 = CARTESIAN_POINT ( 'NONE',  ( 9.800000000000000711, 1.800000000000000044, 2.000000000000000000 ) ) ;
#402 = PLANE ( 'NONE',  #160 ) ;
#403 = EDGE_CURVE ( 'NONE', #58, #300, #487, .T. ) ;
#404 = PERSON_AND_ORGANIZATION ( #394, #517 ) ;
#405 = CIRCLE ( 'NONE', #281, 0.2000000000000000944 ) ;
#406 = LINE ( 'NONE', #28, #488 ) ;
#407 = DATE_AND_TIME ( #104, #501 ) ;
#408 = DIRECTION ( 'NONE',  ( 0.000000000000000000, 1.000000000000000000, -0.000000000000000000 ) ) ;
#409 = CC_DESIGN_PERSON_AND_ORGANIZATION_ASSIGNMENT ( #404, #361, ( #314 ) ) ;
#410 = ORIENTED_EDGE ( 'NONE', *, *, #477, .F. ) ;
#411 = PERSON_AND_ORGANIZATION_ROLE ( 'creator' ) ;
#412 = CARTESIAN_POINT ( 'NONE',  ( 10.00000000000000178, 2.000000000000000000, -1.800000000000000044 ) ) ;
#413 = EDGE_LOOP ( 'NONE', ( #452, #183, #513, #29 ) ) ;
#414 = DIRECTION ( 'NONE',  ( -1.000000000000000000, 0.000000000000000000, 0.000000000000000000 ) ) ;
#415 = CALENDAR_DATE ( 2026, 22, 3 ) ;
#416 = DIRECTION ( 'NONE',  ( -1.000000000000000000, 0.000000000000000000, 0.000000000000000000 ) ) ;
#417 = ORIENTED_EDGE ( 'NONE', *, *, #106, .T. ) ;
#418 = FACE_OUTER_BOUND ( 'NONE', #499, .T. ) ;
#419 = AXIS2_PLACEMENT_3D ( 'NONE', #478, #108, #351 ) ;
#420 = VECTOR ( 'NONE', #84, 1000.000000000000000 ) ;
#421 = ORIENTED_EDGE ( 'NONE', *, *, #397, .F. ) ;
#422 = DIRECTION ( 'NONE',  ( 1.000000000000000000, 0.000000000000000000, 0.000000000000000000 ) ) ;
#423 = ORIENTED_EDGE ( 'NONE', *, *, #457, .F. ) ;
#424 = VECTOR ( 'NONE', #230, 1000.000000000000000 ) ;
#425 = DIRECTION ( 'NONE',  ( 0.000000000000000000, -1.000000000000000000, 0.000000000000000000 ) ) ;
#426 = EDGE_LOOP ( 'NONE', ( #159, #410, #336, #178 ) ) ;
#427 = FACE_OUTER_BOUND ( 'NONE', #128, .T. ) ;
#428 = ORIENTED_EDGE ( 'NONE', *, *, #377, .F. ) ;
#429 = ADVANCED_FACE ( 'NONE', ( #466 ), #378, .T. ) ;
#430 = CARTESIAN_POINT ( 'NONE',  ( 9.800000000000000711, 1.800000000000000044, -1.800000000000000044 ) ) ;
#431 = ORIENTED_EDGE ( 'NONE', *, *, #155, .T. ) ;
#432 = CC_DESIGN_PERSON_AND_ORGANIZATION_ASSIGNMENT ( #527, #450, ( #328 ) ) ;
#433 = CARTESIAN_POINT ( 'NONE',  ( -9.799999999999997158, 0.000000000000000000, -2.000000000000000000 ) ) ;
#434 = CARTESIAN_POINT ( 'NONE',  ( -9.799999999999997158, 1.800000000000000044, -1.800000000000000044 ) ) ;
#435 = CYLINDRICAL_SURFACE ( 'NONE', #348, 0.2000000000000000944 ) ;
#436 = CIRCLE ( 'NONE', #205, 0.2000000000000005107 ) ;
#437 = LINE ( 'NONE', #523, #424 ) ;
#438 = FACE_OUTER_BOUND ( 'NONE', #426, .T. ) ;
#439 = EDGE_CURVE ( 'NONE', #58, #318, #44, .T. ) ;
#440 = FACE_OUTER_BOUND ( 'NONE', #343, .T. ) ;
#441 = DIRECTION ( 'NONE',  ( 0.000000000000000000, -0.000000000000000000, -1.000000000000000000 ) ) ;
#442 = DIRECTION ( 'NONE',  ( 1.000000000000000000, -0.000000000000000000, 0.000000000000000000 ) ) ;
#443 = EDGE_CURVE ( 'NONE', #124, #332, #538, .T. ) ;
#444 = AXIS2_PLACEMENT_3D ( 'NONE', #301, #329, #459 ) ;
#445 = SPHERICAL_SURFACE ( 'NONE', #254, 0.2000000000000000111 ) ;
#446 = CIRCLE ( 'NONE', #217, 0.2000000000000000944 ) ;
#447 = CC_DESIGN_PERSON_AND_ORGANIZATION_ASSIGNMENT ( #497, #411, ( #328 ) ) ;
#448 = AXIS2_PLACEMENT_3D ( 'NONE', #25, #107, #520 ) ;
#449 = CARTESIAN_POINT ( 'NONE',  ( -9.799999999999997158, 2.000000000000000000, 2.000000000000000000 ) ) ;
#450 = PERSON_AND_ORGANIZATION_ROLE ( 'design_supplier' ) ;
#451 = CARTESIAN_POINT ( 'NONE',  ( -9.799999999999997158, 1.800000000000000044, 2.000000000000000000 ) ) ;
#452 = ORIENTED_EDGE ( 'NONE', *, *, #403, .T. ) ;
#453 = ADVANCED_FACE ( 'NONE', ( #383 ), #257, .T. ) ;
#454 = APPROVAL_DATE_TIME ( #407, #4 ) ;
#455 = CARTESIAN_POINT ( 'NONE',  ( -9.799999999999997158, 1.800000000000000044, -1.800000000000000044 ) ) ;
#456 = ORIENTED_EDGE ( 'NONE', *, *, #482, .T. ) ;
#457 = EDGE_CURVE ( 'NONE', #48, #462, #504, .T. ) ;
#458 = AXIS2_PLACEMENT_3D ( 'NONE', #535, #495, #123 ) ;
#459 = DIRECTION ( 'NONE',  ( 0.000000000000000000, 0.000000000000000000, 1.000000000000000000 ) ) ;
#460 = EDGE_LOOP ( 'NONE', ( #322, #456, #379 ) ) ;
#461 = DIRECTION ( 'NONE',  ( 0.000000000000000000, 0.000000000000000000, 1.000000000000000000 ) ) ;
#462 = VERTEX_POINT ( 'NONE', #395 ) ;
#463 = AXIS2_PLACEMENT_3D ( 'NONE', #528, #208, #77 ) ;
#464 = CYLINDRICAL_SURFACE ( 'NONE', #316, 0.2000000000000005107 ) ;
#465 = ORIENTED_EDGE ( 'NONE', *, *, #342, .F. ) ;
#466 = FACE_OUTER_BOUND ( 'NONE', #31, .T. ) ;
#467 = ORIENTED_EDGE ( 'NONE', *, *, #502, .F. ) ;
#468 = CARTESIAN_POINT ( 'NONE',  ( 10.00000000000000178, 0.000000000000000000, -2.000000000000000000 ) ) ;
#469 = EDGE_LOOP ( 'NONE', ( #512, #228, #529 ) ) ;
#470 = AXIS2_PLACEMENT_3D ( 'NONE', #331, #425, #177 ) ;
#471 = ORIENTED_EDGE ( 'NONE', *, *, #61, .T. ) ;
#472 = APPROVAL_PERSON_ORGANIZATION ( #323, #46, #118 ) ;
#473 = APPLICATION_PROTOCOL_DEFINITION ( 'international standard', 'config_control_design', 1994, #188 ) ;
#474 = UNCERTAINTY_MEASURE_WITH_UNIT (LENGTH_MEASURE( 1.000000000000000082E-05 ), #273, 'distance_accuracy_value', 'NONE');
#475 = DIRECTION ( 'NONE',  ( -1.000000000000000000, -0.000000000000000000, -0.000000000000000000 ) ) ;
#476 = APPROVAL_ROLE ( '' ) ;
#477 = EDGE_CURVE ( 'NONE', #332, #52, #271, .T. ) ;
#478 = CARTESIAN_POINT ( 'NONE',  ( 9.800000000000000711, 1.800000000000000044, 1.800000000000000044 ) ) ;
#479 = DIRECTION ( 'NONE',  ( 0.000000000000000000, 0.000000000000000000, 1.000000000000000000 ) ) ;
#480 = PLANE ( 'NONE',  #448 ) ;
#481 = SPHERICAL_SURFACE ( 'NONE', #419, 0.2000000000000000111 ) ;
#482 = EDGE_CURVE ( 'NONE', #318, #300, #405, .T. ) ;
#483 = CIRCLE ( 'NONE', #83, 0.2000000000000000944 ) ;
#484 = CARTESIAN_POINT ( 'NONE',  ( 9.799999999999998934, 2.000000000000000000, -1.800000000000000044 ) ) ;
#485 = EDGE_CURVE ( 'NONE', #318, #332, #437, .T. ) ;
#486 = VECTOR ( 'NONE', #359, 1000.000000000000000 ) ;
#487 = CIRCLE ( 'NONE', #277, 0.2000000000000005107 ) ;
#488 = VECTOR ( 'NONE', #319, 1000.000000000000000 ) ;
#489 = CARTESIAN_POINT ( 'NONE',  ( -9.999999999999998224, 1.800000000000000044, -1.800000000000000044 ) ) ;
#490 = CIRCLE ( 'NONE', #114, 0.2000000000000005107 ) ;
#491 = ORIENTED_EDGE ( 'NONE', *, *, #138, .T. ) ;
#492 = APPROVAL_STATUS ( 'not_yet_approved' ) ;
#493 = CYLINDRICAL_SURFACE ( 'NONE', #339, 0.2000000000000000944 ) ;
#494 = EDGE_LOOP ( 'NONE', ( #297, #384, #243, #42 ) ) ;
#495 = DIRECTION ( 'NONE',  ( 0.000000000000000000, 1.000000000000000000, 0.000000000000000000 ) ) ;
#496 = EDGE_CURVE ( 'NONE', #253, #300, #152, .T. ) ;
#497 = PERSON_AND_ORGANIZATION ( #394, #517 ) ;
#498 = FACE_OUTER_BOUND ( 'NONE', #12, .T. ) ;
#499 = EDGE_LOOP ( 'NONE', ( #121, #467, #17, #82 ) ) ;
#500 = DIRECTION ( 'NONE',  ( -0.000000000000000000, -0.000000000000000000, 1.000000000000000000 ) ) ;
#501 = LOCAL_TIME ( 15, 17, 16.00000000000000000, #102 ) ;
#502 = EDGE_CURVE ( 'NONE', #260, #48, #100, .T. ) ;
#503 = APPLICATION_CONTEXT ( 'configuration controlled 3d designs of mechanical parts and assemblies' ) ;
#504 = LINE ( 'NONE', #129, #172 ) ;
#505 = VERTEX_POINT ( 'NONE', #21 ) ;
#506 = EDGE_CURVE ( 'NONE', #134, #318, #304, .T. ) ;
#507 = PLANE ( 'NONE',  #514 ) ;
#508 = EDGE_LOOP ( 'NONE', ( #214, #330, #98, #431 ) ) ;
#509 = DIRECTION ( 'NONE',  ( 0.000000000000000000, 0.000000000000000000, -1.000000000000000000 ) ) ;
#510 = VERTEX_POINT ( 'NONE', #401 ) ;
#511 = CARTESIAN_POINT ( 'NONE',  ( -9.799999999999997158, 1.800000000000000044, -1.800000000000000044 ) ) ;
#512 = ORIENTED_EDGE ( 'NONE', *, *, #10, .T. ) ;
#513 = ORIENTED_EDGE ( 'NONE', *, *, #10, .F. ) ;
#514 = AXIS2_PLACEMENT_3D ( 'NONE', #337, #461, #335 ) ;
#515 = LINE ( 'NONE', #68, #307 ) ;
#516 = DIRECTION ( 'NONE',  ( -1.000000000000000000, -0.000000000000000000, -0.000000000000000000 ) ) ;
#517 = ORGANIZATION ( 'UNSPECIFIED', 'UNSPECIFIED', '' ) ;
#518 = APPROVAL_STATUS ( 'not_yet_approved' ) ;
#519 = CARTESIAN_POINT ( 'NONE',  ( -9.799999999999997158, 2.000000000000000000, -1.800000000000000044 ) ) ;
#520 = DIRECTION ( 'NONE',  ( 0.000000000000000000, -0.000000000000000000, 1.000000000000000000 ) ) ;
#521 = CYLINDRICAL_SURFACE ( 'NONE', #393, 0.2000000000000000944 ) ;
#522 = EDGE_CURVE ( 'NONE', #38, #143, #237, .T. ) ;
#523 = CARTESIAN_POINT ( 'NONE',  ( 10.00000000000000178, 1.800000000000000044, -2.000000000000000000 ) ) ;
#524 = FACE_OUTER_BOUND ( 'NONE', #508, .T. ) ;
#525 = DIRECTION ( 'NONE',  ( 0.000000000000000000, 0.000000000000000000, -1.000000000000000000 ) ) ;
#526 = CC_DESIGN_DATE_AND_TIME_ASSIGNMENT ( #161, #365, ( #292 ) ) ;
#527 = PERSON_AND_ORGANIZATION ( #394, #517 ) ;
#528 = CARTESIAN_POINT ( 'NONE',  ( 0.000000000000000000, 1.800000000000000044, 1.800000000000000044 ) ) ;
#529 = ORIENTED_EDGE ( 'NONE', *, *, #195, .F. ) ;
#530 = COORDINATED_UNIVERSAL_TIME_OFFSET ( 8, 0, .AHEAD. ) ;
#531 = CARTESIAN_POINT ( 'NONE',  ( 10.00000000000000178, 0.000000000000000000, 1.800000000000000044 ) ) ;
#532 = VERTEX_POINT ( 'NONE', #18 ) ;
#533 = EDGE_CURVE ( 'NONE', #124, #78, #515, .T. ) ;
#534 = APPROVAL_ROLE ( '' ) ;
#535 = CARTESIAN_POINT ( 'NONE',  ( 9.800000000000000711, 1.800000000000000044, 1.800000000000000044 ) ) ;
#536 = LINE ( 'NONE', #449, #40 ) ;
#537 = ORIENTED_EDGE ( 'NONE', *, *, #149, .T. ) ;
#538 = CIRCLE ( 'NONE', #303, 0.2000000000000000944 ) ;
#539 = ADVANCED_FACE ( 'NONE', ( #267 ), #480, .T. ) ;
#540 = DIRECTION ( 'NONE',  ( 0.000000000000000000, 0.000000000000000000, 1.000000000000000000 ) ) ;
#541 = ORIENTED_EDGE ( 'NONE', *, *, #522, .F. ) ;
ENDSEC;
END-ISO-10303-21;
