ISO-10303-21;
HEADER;
FILE_DESCRIPTION (( 'STEP AP214' ),
    '1' );
FILE_NAME ('BAR4X4T1.step',
    '2026-03-22T07:20:56',
    ( '' ),
    ( '' ),
    'SwSTEP 2.0',
    'SolidWorks 2025',
    '' );
FILE_SCHEMA (( 'AUTOMOTIVE_DESIGN' ));
ENDSEC;

DATA;
#1 = DIRECTION ( 'NONE',  ( 0.000000000000000000, 0.000000000000000000, 1.000000000000000000 ) ) ;
#2 = SPHERICAL_SURFACE ( 'NONE', #201, 0.2000000000000000111 ) ;
#3 = ORIENTED_EDGE ( 'NONE', *, *, #317, .F. ) ;
#4 = CIRCLE ( 'NONE', #155, 0.2000000000000000944 ) ;
#5 = FACE_OUTER_BOUND ( 'NONE', #41, .T. ) ;
#6 = ORIENTED_EDGE ( 'NONE', *, *, #337, .T. ) ;
#7 = EDGE_CURVE ( 'NONE', #141, #45, #455, .T. ) ;
#8 = FACE_OUTER_BOUND ( 'NONE', #441, .T. ) ;
#9 = VECTOR ( 'NONE', #426, 1000.000000000000000 ) ;
#10 = FACE_OUTER_BOUND ( 'NONE', #249, .T. ) ;
#11 = EDGE_CURVE ( 'NONE', #141, #345, #479, .T. ) ;
#12 = FILL_AREA_STYLE_COLOUR ( '', #259 ) ;
#13 = ORIENTED_EDGE ( 'NONE', *, *, #240, .F. ) ;
#14 = CARTESIAN_POINT ( 'NONE',  ( 1.999999999999999112, 1.000000000000000000, 1.800000000000000044 ) ) ;
#15 = CIRCLE ( 'NONE', #274, 0.2000000000000000944 ) ;
#16 = ORIENTED_EDGE ( 'NONE', *, *, #288, .T. ) ;
#17 = FACE_OUTER_BOUND ( 'NONE', #368, .T. ) ;
#18 = ORIENTED_EDGE ( 'NONE', *, *, #74, .F. ) ;
#19 = AXIS2_PLACEMENT_3D ( 'NONE', #408, #224, #32 ) ;
#20 = DIRECTION ( 'NONE',  ( -1.000000000000000000, -0.000000000000000000, -0.000000000000000000 ) ) ;
#21 = EDGE_CURVE ( 'NONE', #169, #95, #220, .T. ) ;
#22 = DIRECTION ( 'NONE',  ( -1.000000000000000000, 0.000000000000000000, 0.000000000000000000 ) ) ;
#23 = FACE_OUTER_BOUND ( 'NONE', #341, .T. ) ;
#24 = DIRECTION ( 'NONE',  ( 0.000000000000000000, 0.000000000000000000, 1.000000000000000000 ) ) ;
#25 = SPHERICAL_SURFACE ( 'NONE', #444, 0.2000000000000000111 ) ;
#26 = EDGE_LOOP ( 'NONE', ( #56, #230, #171 ) ) ;
#27 = ADVANCED_FACE ( 'NONE', ( #99 ), #138, .T. ) ;
#28 = CLOSED_SHELL ( 'NONE', ( #416, #116, #374, #466, #188, #402, #476, #102, #152, #427, #244, #388, #27, #81, #279, #295, #89, #197 ) ) ;
#29 = CARTESIAN_POINT ( 'NONE',  ( -1.800000000000000711, 1.000000000000000000, 1.800000000000000044 ) ) ;
#30 = CARTESIAN_POINT ( 'NONE',  ( 1.999999999999999112, 0.8000000000000000444, 2.000000000000000000 ) ) ;
#31 = PRODUCT_DEFINITION_FORMATION_WITH_SPECIFIED_SOURCE ( 'ANY', '', #315, .NOT_KNOWN. ) ;
#32 = DIRECTION ( 'NONE',  ( 1.000000000000000000, 0.000000000000000000, 0.000000000000000000 ) ) ;
#33 = VECTOR ( 'NONE', #216, 1000.000000000000000 ) ;
#34 = LINE ( 'NONE', #151, #205 ) ;
#35 = DIRECTION ( 'NONE',  ( 1.000000000000000000, 0.000000000000000000, 0.000000000000000000 ) ) ;
#36 = CARTESIAN_POINT ( 'NONE',  ( 0.000000000000000000, 0.8000000000000000444, 1.800000000000000044 ) ) ;
#37 = VECTOR ( 'NONE', #414, 1000.000000000000000 ) ;
#38 = ORIENTED_EDGE ( 'NONE', *, *, #325, .T. ) ;
#39 = DIRECTION ( 'NONE',  ( 0.000000000000000000, 0.000000000000000000, 1.000000000000000000 ) ) ;
#40 = CARTESIAN_POINT ( 'NONE',  ( 1.799999999999999156, 0.000000000000000000, 1.800000000000000044 ) ) ;
#41 = EDGE_LOOP ( 'NONE', ( #239, #394, #142, #194 ) ) ;
#42 = DIRECTION ( 'NONE',  ( 0.000000000000000000, 1.000000000000000000, 0.000000000000000000 ) ) ;
#43 = EDGE_LOOP ( 'NONE', ( #305, #196, #38, #100 ) ) ;
#44 = PLANE ( 'NONE',  #87 ) ;
#45 = VERTEX_POINT ( 'NONE', #144 ) ;
#46 = CARTESIAN_POINT ( 'NONE',  ( -1.800000000000000711, 0.8000000000000000444, 1.800000000000000044 ) ) ;
#47 = STYLED_ITEM ( 'NONE', ( #198 ), #364 ) ;
#48 = DIRECTION ( 'NONE',  ( 0.000000000000000000, 1.000000000000000000, -0.000000000000000000 ) ) ;
#49 = EDGE_CURVE ( 'NONE', #454, #86, #62, .T. ) ;
#50 = DIRECTION ( 'NONE',  ( -1.000000000000000000, 0.000000000000000000, 0.000000000000000000 ) ) ;
#51 = CIRCLE ( 'NONE', #226, 0.2000000000000000944 ) ;
#52 = DIRECTION ( 'NONE',  ( 1.000000000000000000, -0.000000000000000000, -0.000000000000000000 ) ) ;
#53 = EDGE_LOOP ( 'NONE', ( #6, #67, #247, #411 ) ) ;
#54 = CARTESIAN_POINT ( 'NONE',  ( 1.999999999999999112, 0.8000000000000000444, -1.800000000000000044 ) ) ;
#55 = CIRCLE ( 'NONE', #191, 0.2000000000000000944 ) ;
#56 = ORIENTED_EDGE ( 'NONE', *, *, #74, .T. ) ;
#57 = EDGE_CURVE ( 'NONE', #299, #396, #328, .T. ) ;
#58 = DIRECTION ( 'NONE',  ( -1.000000000000000000, 0.000000000000000000, 0.000000000000000000 ) ) ;
#59 = ORIENTED_EDGE ( 'NONE', *, *, #57, .F. ) ;
#60 = AXIS2_PLACEMENT_3D ( 'NONE', #458, #307, #184 ) ;
#61 = CARTESIAN_POINT ( 'NONE',  ( -2.000000000000000888, 1.000000000000000000, -2.000000000000000000 ) ) ;
#62 = LINE ( 'NONE', #30, #489 ) ;
#63 =( NAMED_UNIT ( * ) PLANE_ANGLE_UNIT ( ) SI_UNIT ( $, .RADIAN. ) );
#64 = DIRECTION ( 'NONE',  ( -1.000000000000000000, 0.000000000000000000, 0.000000000000000000 ) ) ;
#65 = EDGE_CURVE ( 'NONE', #396, #297, #360, .T. ) ;
#66 = CARTESIAN_POINT ( 'NONE',  ( -1.800000000000000711, 0.8000000000000000444, -1.800000000000000044 ) ) ;
#67 = ORIENTED_EDGE ( 'NONE', *, *, #110, .F. ) ;
#68 = PRODUCT_CONTEXT ( 'NONE', #271, 'mechanical' ) ;
#69 = DIRECTION ( 'NONE',  ( -1.000000000000000000, 0.000000000000000000, 0.000000000000000000 ) ) ;
#70 = CARTESIAN_POINT ( 'NONE',  ( 1.799999999999999156, 0.000000000000000000, -1.800000000000000044 ) ) ;
#71 = DIRECTION ( 'NONE',  ( -0.000000000000000000, 0.000000000000000000, 1.000000000000000000 ) ) ;
#72 = CIRCLE ( 'NONE', #267, 0.2000000000000000944 ) ;
#73 = ORIENTED_EDGE ( 'NONE', *, *, #261, .T. ) ;
#74 = EDGE_CURVE ( 'NONE', #396, #169, #4, .T. ) ;
#75 = DIRECTION ( 'NONE',  ( 0.000000000000000000, 0.000000000000000000, 1.000000000000000000 ) ) ;
#76 = LINE ( 'NONE', #114, #277 ) ;
#77 = ORIENTED_EDGE ( 'NONE', *, *, #393, .F. ) ;
#78 = CIRCLE ( 'NONE', #241, 0.2000000000000000944 ) ;
#79 = CARTESIAN_POINT ( 'NONE',  ( -1.800000000000000711, 1.000000000000000000, -2.000000000000000000 ) ) ;
#80 = ORIENTED_EDGE ( 'NONE', *, *, #329, .T. ) ;
#81 = ADVANCED_FACE ( 'NONE', ( #108 ), #264, .T. ) ;
#82 = CARTESIAN_POINT ( 'NONE',  ( -2.000000000000000888, 1.000000000000000000, -2.000000000000000000 ) ) ;
#83 = ORIENTED_EDGE ( 'NONE', *, *, #380, .F. ) ;
#84 = CIRCLE ( 'NONE', #357, 0.2000000000000000944 ) ;
#85 = DIRECTION ( 'NONE',  ( -0.000000000000000000, 1.000000000000000000, -0.000000000000000000 ) ) ;
#86 = VERTEX_POINT ( 'NONE', #183 ) ;
#87 = AXIS2_PLACEMENT_3D ( 'NONE', #82, #117, #300 ) ;
#88 = DIRECTION ( 'NONE',  ( 0.000000000000000000, 0.000000000000000000, 1.000000000000000000 ) ) ;
#89 = ADVANCED_FACE ( 'NONE', ( #173 ), #2, .T. ) ;
#90 = CARTESIAN_POINT ( 'NONE',  ( 1.799999999999999156, 0.8000000000000000444, 1.800000000000000044 ) ) ;
#91 = DIRECTION ( 'NONE',  ( 0.000000000000000000, 1.000000000000000000, 0.000000000000000000 ) ) ;
#92 = DIRECTION ( 'NONE',  ( 0.000000000000000000, 0.000000000000000000, 1.000000000000000000 ) ) ;
#93 = ORIENTED_EDGE ( 'NONE', *, *, #293, .F. ) ;
#94 = CARTESIAN_POINT ( 'NONE',  ( -1.800000000000000711, 0.8000000000000000444, 1.800000000000000044 ) ) ;
#95 = VERTEX_POINT ( 'NONE', #475 ) ;
#96 = EDGE_CURVE ( 'NONE', #86, #262, #78, .T. ) ;
#97 = DIRECTION ( 'NONE',  ( -1.000000000000000000, 0.000000000000000000, 0.000000000000000000 ) ) ;
#98 = CIRCLE ( 'NONE', #112, 0.2000000000000000944 ) ;
#99 = FACE_OUTER_BOUND ( 'NONE', #403, .T. ) ;
#100 = ORIENTED_EDGE ( 'NONE', *, *, #288, .F. ) ;
#101 = FACE_OUTER_BOUND ( 'NONE', #121, .T. ) ;
#102 = ADVANCED_FACE ( 'NONE', ( #448 ), #379, .T. ) ;
#103 = DIRECTION ( 'NONE',  ( 0.000000000000000000, 0.000000000000000000, -1.000000000000000000 ) ) ;
#104 = FACE_OUTER_BOUND ( 'NONE', #473, .T. ) ;
#105 = ORIENTED_EDGE ( 'NONE', *, *, #253, .F. ) ;
#106 = AXIS2_PLACEMENT_3D ( 'NONE', #203, #278, #461 ) ;
#107 = CARTESIAN_POINT ( 'NONE',  ( -1.800000000000000711, 0.8000000000000000444, -1.800000000000000044 ) ) ;
#108 = FACE_OUTER_BOUND ( 'NONE', #53, .T. ) ;
#109 = DIRECTION ( 'NONE',  ( 0.000000000000000000, 0.000000000000000000, 1.000000000000000000 ) ) ;
#110 = EDGE_CURVE ( 'NONE', #262, #299, #413, .T. ) ;
#111 = CARTESIAN_POINT ( 'NONE',  ( 1.799999999999999156, 0.8000000000000000444, 1.800000000000000044 ) ) ;
#112 = AXIS2_PLACEMENT_3D ( 'NONE', #46, #52, #92 ) ;
#113 = ORIENTED_EDGE ( 'NONE', *, *, #240, .T. ) ;
#114 = CARTESIAN_POINT ( 'NONE',  ( -2.000000000000000888, 1.000000000000000000, 1.800000000000000044 ) ) ;
#115 = VERTEX_POINT ( 'NONE', #193 ) ;
#116 = ADVANCED_FACE ( 'NONE', ( #5 ), #44, .F. ) ;
#117 = DIRECTION ( 'NONE',  ( 0.000000000000000000, 0.000000000000000000, 1.000000000000000000 ) ) ;
#118 = ORIENTED_EDGE ( 'NONE', *, *, #166, .T. ) ;
#119 = CARTESIAN_POINT ( 'NONE',  ( 0.000000000000000000, 0.000000000000000000, 0.000000000000000000 ) ) ;
#120 = PLANE ( 'NONE',  #480 ) ;
#121 = EDGE_LOOP ( 'NONE', ( #296, #405, #233, #180 ) ) ;
#122 = PRODUCT_RELATED_PRODUCT_CATEGORY ( 'part', '', ( #315 ) ) ;
#123 = MECHANICAL_DESIGN_GEOMETRIC_PRESENTATION_REPRESENTATION (  '', ( #47 ), #467 ) ;
#124 = CARTESIAN_POINT ( 'NONE',  ( 1.799999999999999156, 0.8000000000000000444, -1.800000000000000044 ) ) ;
#125 = DIRECTION ( 'NONE',  ( -1.000000000000000000, 0.000000000000000000, 0.000000000000000000 ) ) ;
#126 = AXIS2_PLACEMENT_3D ( 'NONE', #119, #75, #35 ) ;
#127 = SPHERICAL_SURFACE ( 'NONE', #199, 0.2000000000000000111 ) ;
#128 = LINE ( 'NONE', #276, #351 ) ;
#129 = ORIENTED_EDGE ( 'NONE', *, *, #146, .T. ) ;
#130 = FILL_AREA_STYLE ('',( #12 ) ) ;
#131 = ORIENTED_EDGE ( 'NONE', *, *, #409, .F. ) ;
#132 = DIRECTION ( 'NONE',  ( 0.000000000000000000, -0.000000000000000000, 1.000000000000000000 ) ) ;
#133 = ORIENTED_EDGE ( 'NONE', *, *, #491, .T. ) ;
#134 = CARTESIAN_POINT ( 'NONE',  ( -1.800000000000000711, 1.000000000000000000, 1.800000000000000044 ) ) ;
#135 = EDGE_LOOP ( 'NONE', ( #332, #3, #154, #437 ) ) ;
#136 = EDGE_CURVE ( 'NONE', #282, #169, #268, .T. ) ;
#137 = FACE_OUTER_BOUND ( 'NONE', #432, .T. ) ;
#138 = CYLINDRICAL_SURFACE ( 'NONE', #347, 0.2000000000000000944 ) ;
#139 =( NAMED_UNIT ( * ) SI_UNIT ( $, .STERADIAN. ) SOLID_ANGLE_UNIT ( ) );
#140 = CIRCLE ( 'NONE', #302, 0.2000000000000000944 ) ;
#141 = VERTEX_POINT ( 'NONE', #410 ) ;
#142 = ORIENTED_EDGE ( 'NONE', *, *, #21, .T. ) ;
#143 = DIRECTION ( 'NONE',  ( 0.000000000000000000, 0.000000000000000000, -1.000000000000000000 ) ) ;
#144 = CARTESIAN_POINT ( 'NONE',  ( -2.000000000000000888, 0.000000000000000000, 1.800000000000000044 ) ) ;
#145 = APPLICATION_PROTOCOL_DEFINITION ( 'draft international standard', 'automotive_design', 1998, #271 ) ;
#146 = EDGE_CURVE ( 'NONE', #396, #449, #447, .T. ) ;
#147 = DIRECTION ( 'NONE',  ( -0.000000000000000000, 1.000000000000000000, 0.000000000000000000 ) ) ;
#148 = VECTOR ( 'NONE', #85, 1000.000000000000000 ) ;
#149 = DIRECTION ( 'NONE',  ( 0.000000000000000000, 0.000000000000000000, -1.000000000000000000 ) ) ;
#150 = DIRECTION ( 'NONE',  ( -0.000000000000000000, -1.000000000000000000, -0.000000000000000000 ) ) ;
#151 = CARTESIAN_POINT ( 'NONE',  ( 1.799999999999999156, 1.000000000000000000, 2.000000000000000000 ) ) ;
#152 = ADVANCED_FACE ( 'NONE', ( #153 ), #343, .T. ) ;
#153 = FACE_OUTER_BOUND ( 'NONE', #359, .T. ) ;
#154 = ORIENTED_EDGE ( 'NONE', *, *, #452, .F. ) ;
#155 = AXIS2_PLACEMENT_3D ( 'NONE', #485, #64, #24 ) ;
#156 = CYLINDRICAL_SURFACE ( 'NONE', #482, 0.2000000000000000944 ) ;
#157 = CARTESIAN_POINT ( 'NONE',  ( 1.799999999999999156, 1.000000000000000000, -2.000000000000000000 ) ) ;
#158 = ORIENTED_EDGE ( 'NONE', *, *, #483, .F. ) ;
#159 = DIRECTION ( 'NONE',  ( 0.000000000000000000, 0.000000000000000000, 1.000000000000000000 ) ) ;
#160 = AXIS2_PLACEMENT_3D ( 'NONE', #29, #474, #143 ) ;
#161 =( LENGTH_UNIT ( ) NAMED_UNIT ( * ) SI_UNIT ( .MILLI., .METRE. ) );
#162 = EDGE_CURVE ( 'NONE', #45, #115, #76, .T. ) ;
#163 = DIRECTION ( 'NONE',  ( 0.000000000000000000, 0.000000000000000000, 1.000000000000000000 ) ) ;
#164 = CARTESIAN_POINT ( 'NONE',  ( -2.000000000000000888, 0.8000000000000000444, -2.000000000000000000 ) ) ;
#165 = VERTEX_POINT ( 'NONE', #232 ) ;
#166 = EDGE_CURVE ( 'NONE', #95, #299, #433, .T. ) ;
#167 = AXIS2_PLACEMENT_3D ( 'NONE', #61, #436, #298 ) ;
#168 = CARTESIAN_POINT ( 'NONE',  ( 1.799999999999999156, 1.000000000000000000, -1.800000000000000044 ) ) ;
#169 = VERTEX_POINT ( 'NONE', #346 ) ;
#170 = CARTESIAN_POINT ( 'NONE',  ( 0.000000000000000000, 0.000000000000000000, 0.000000000000000000 ) ) ;
#171 = ORIENTED_EDGE ( 'NONE', *, *, #65, .F. ) ;
#172 = DIRECTION ( 'NONE',  ( 0.000000000000000000, -1.000000000000000000, 0.000000000000000000 ) ) ;
#173 = FACE_OUTER_BOUND ( 'NONE', #269, .T. ) ;
#174 = EDGE_CURVE ( 'NONE', #372, #345, #339, .T. ) ;
#175 = UNCERTAINTY_MEASURE_WITH_UNIT (LENGTH_MEASURE( 1.000000000000000082E-05 ), #227, 'distance_accuracy_value', 'NONE');
#176 = CARTESIAN_POINT ( 'NONE',  ( 1.999999999999999112, 0.000000000000000000, 1.800000000000000044 ) ) ;
#177 = ORIENTED_EDGE ( 'NONE', *, *, #49, .T. ) ;
#178 = CARTESIAN_POINT ( 'NONE',  ( -2.000000000000000888, 1.000000000000000000, 2.000000000000000000 ) ) ;
#179 = VERTEX_POINT ( 'NONE', #385 ) ;
#180 = ORIENTED_EDGE ( 'NONE', *, *, #229, .T. ) ;
#181 = CARTESIAN_POINT ( 'NONE',  ( -2.000000000000000888, 1.000000000000000000, -1.800000000000000044 ) ) ;
#182 = EDGE_LOOP ( 'NONE', ( #470, #118, #309 ) ) ;
#183 = CARTESIAN_POINT ( 'NONE',  ( 1.999999999999999112, 0.8000000000000000444, 1.800000000000000044 ) ) ;
#184 = DIRECTION ( 'NONE',  ( 0.000000000000000000, 0.000000000000000000, -1.000000000000000000 ) ) ;
#185 = ORIENTED_EDGE ( 'NONE', *, *, #304, .T. ) ;
#186 = SHAPE_DEFINITION_REPRESENTATION ( #423, #450 ) ;
#187 = DIRECTION ( 'NONE',  ( 0.000000000000000000, 0.000000000000000000, 1.000000000000000000 ) ) ;
#188 = ADVANCED_FACE ( 'NONE', ( #311 ), #120, .T. ) ;
#189 = LINE ( 'NONE', #310, #37 ) ;
#190 = CARTESIAN_POINT ( 'NONE',  ( 1.799999999999999156, 1.000000000000000000, -1.800000000000000044 ) ) ;
#191 = AXIS2_PLACEMENT_3D ( 'NONE', #318, #242, #88 ) ;
#192 = ORIENTED_EDGE ( 'NONE', *, *, #110, .T. ) ;
#193 = CARTESIAN_POINT ( 'NONE',  ( -2.000000000000000888, 0.8000000000000000444, 1.800000000000000044 ) ) ;
#194 = ORIENTED_EDGE ( 'NONE', *, *, #409, .T. ) ;
#195 = DIRECTION ( 'NONE',  ( 0.000000000000000000, 0.000000000000000000, 1.000000000000000000 ) ) ;
#196 = ORIENTED_EDGE ( 'NONE', *, *, #462, .F. ) ;
#197 = ADVANCED_FACE ( 'NONE', ( #225 ), #273, .T. ) ;
#198 = PRESENTATION_STYLE_ASSIGNMENT (( #320 ) ) ;
#199 = AXIS2_PLACEMENT_3D ( 'NONE', #124, #389, #125 ) ;
#200 = CARTESIAN_POINT ( 'NONE',  ( -2.000000000000000888, 0.8000000000000000444, -1.800000000000000044 ) ) ;
#201 = AXIS2_PLACEMENT_3D ( 'NONE', #415, #147, #149 ) ;
#202 = DIRECTION ( 'NONE',  ( 0.000000000000000000, -1.000000000000000000, 0.000000000000000000 ) ) ;
#203 = CARTESIAN_POINT ( 'NONE',  ( 1.799999999999999156, 1.000000000000000000, 1.800000000000000044 ) ) ;
#204 = ORIENTED_EDGE ( 'NONE', *, *, #162, .T. ) ;
#205 = VECTOR ( 'NONE', #336, 1000.000000000000000 ) ;
#206 = DIRECTION ( 'NONE',  ( 0.000000000000000000, -0.000000000000000000, 1.000000000000000000 ) ) ;
#207 = PRODUCT_DEFINITION ( 'UNKNOWN', '', #31, #425 ) ;
#208 = ORIENTED_EDGE ( 'NONE', *, *, #65, .T. ) ;
#209 = UNCERTAINTY_MEASURE_WITH_UNIT (LENGTH_MEASURE( 1.000000000000000082E-05 ), #161, 'distance_accuracy_value', 'NONE');
#210 = CARTESIAN_POINT ( 'NONE',  ( -1.800000000000000711, 1.000000000000000000, 2.000000000000000000 ) ) ;
#211 = AXIS2_PLACEMENT_3D ( 'NONE', #190, #270, #265 ) ;
#212 = DIRECTION ( 'NONE',  ( -0.000000000000000000, -1.000000000000000000, -0.000000000000000000 ) ) ;
#213 = CARTESIAN_POINT ( 'NONE',  ( -2.000000000000000888, 0.8000000000000000444, 2.000000000000000000 ) ) ;
#214 = EDGE_CURVE ( 'NONE', #386, #282, #51, .T. ) ;
#215 = ORIENTED_EDGE ( 'NONE', *, *, #21, .F. ) ;
#216 = DIRECTION ( 'NONE',  ( -0.000000000000000000, -0.000000000000000000, -1.000000000000000000 ) ) ;
#217 = ORIENTED_EDGE ( 'NONE', *, *, #380, .T. ) ;
#218 = APPLICATION_CONTEXT ( 'automotive_design' ) ;
#219 = PLANE ( 'NONE',  #438 ) ;
#220 = LINE ( 'NONE', #291, #221 ) ;
#221 = VECTOR ( 'NONE', #362, 1000.000000000000000 ) ;
#222 = ORIENTED_EDGE ( 'NONE', *, *, #325, .F. ) ;
#223 = DIRECTION ( 'NONE',  ( -1.000000000000000000, 0.000000000000000000, -0.000000000000000000 ) ) ;
#224 = DIRECTION ( 'NONE',  ( 0.000000000000000000, -0.000000000000000000, 1.000000000000000000 ) ) ;
#225 = FACE_OUTER_BOUND ( 'NONE', #43, .T. ) ;
#226 = AXIS2_PLACEMENT_3D ( 'NONE', #340, #375, #1 ) ;
#227 =( LENGTH_UNIT ( ) NAMED_UNIT ( * ) SI_UNIT ( .MILLI., .METRE. ) );
#228 = DIRECTION ( 'NONE',  ( -0.000000000000000000, 1.000000000000000000, -0.000000000000000000 ) ) ;
#229 = EDGE_CURVE ( 'NONE', #345, #165, #34, .T. ) ;
#230 = ORIENTED_EDGE ( 'NONE', *, *, #452, .T. ) ;
#231 = FACE_OUTER_BOUND ( 'NONE', #135, .T. ) ;
#232 = CARTESIAN_POINT ( 'NONE',  ( 1.799999999999999156, 0.8000000000000000444, 2.000000000000000000 ) ) ;
#233 = ORIENTED_EDGE ( 'NONE', *, *, #11, .T. ) ;
#234 = CARTESIAN_POINT ( 'NONE',  ( -1.800000000000000711, 1.000000000000000000, -1.800000000000000044 ) ) ;
#235 = DIRECTION ( 'NONE',  ( 0.000000000000000000, 0.000000000000000000, 1.000000000000000000 ) ) ;
#236 = VECTOR ( 'NONE', #172, 1000.000000000000000 ) ;
#237 = VERTEX_POINT ( 'NONE', #306 ) ;
#238 = DIRECTION ( 'NONE',  ( -0.000000000000000000, -1.000000000000000000, -0.000000000000000000 ) ) ;
#239 = ORIENTED_EDGE ( 'NONE', *, *, #393, .T. ) ;
#240 = EDGE_CURVE ( 'NONE', #386, #45, #338, .T. ) ;
#241 = AXIS2_PLACEMENT_3D ( 'NONE', #111, #109, #419 ) ;
#242 = DIRECTION ( 'NONE',  ( -0.000000000000000000, 1.000000000000000000, 0.000000000000000000 ) ) ;
#243 = LINE ( 'NONE', #316, #9 ) ;
#244 = ADVANCED_FACE ( 'NONE', ( #349 ), #127, .T. ) ;
#245 = AXIS2_PLACEMENT_3D ( 'NONE', #255, #212, #407 ) ;
#246 = DIRECTION ( 'NONE',  ( 0.000000000000000000, 1.000000000000000000, -0.000000000000000000 ) ) ;
#247 = ORIENTED_EDGE ( 'NONE', *, *, #96, .F. ) ;
#248 = CARTESIAN_POINT ( 'NONE',  ( -1.800000000000000711, 0.8000000000000000444, 1.800000000000000044 ) ) ;
#249 = EDGE_LOOP ( 'NONE', ( #443, #93, #312, #350 ) ) ;
#250 = AXIS2_PLACEMENT_3D ( 'NONE', #469, #206, #358 ) ;
#251 = FACE_OUTER_BOUND ( 'NONE', #26, .T. ) ;
#252 = CARTESIAN_POINT ( 'NONE',  ( -1.800000000000000711, 0.8000000000000000444, 0.000000000000000000 ) ) ;
#253 = EDGE_CURVE ( 'NONE', #449, #237, #98, .T. ) ;
#254 = DIRECTION ( 'NONE',  ( 0.000000000000000000, 0.000000000000000000, 1.000000000000000000 ) ) ;
#255 = CARTESIAN_POINT ( 'NONE',  ( -1.800000000000000711, 0.000000000000000000, 1.800000000000000044 ) ) ;
#256 = PLANE ( 'NONE',  #319 ) ;
#257 = ORIENTED_EDGE ( 'NONE', *, *, #162, .F. ) ;
#258 = ORIENTED_EDGE ( 'NONE', *, *, #293, .T. ) ;
#259 = COLOUR_RGB ( '',0.8980392156862745390, 0.9215686274509803377, 0.9294117647058823817 ) ;
#260 = LINE ( 'NONE', #294, #327 ) ;
#261 = EDGE_CURVE ( 'NONE', #115, #237, #335, .T. ) ;
#262 = VERTEX_POINT ( 'NONE', #463 ) ;
#263 = DIRECTION ( 'NONE',  ( 0.000000000000000000, 1.000000000000000000, 0.000000000000000000 ) ) ;
#264 = CYLINDRICAL_SURFACE ( 'NONE', #19, 0.2000000000000000944 ) ;
#265 = DIRECTION ( 'NONE',  ( 0.000000000000000000, 0.000000000000000000, -1.000000000000000000 ) ) ;
#266 = DIRECTION ( 'NONE',  ( 0.000000000000000000, 0.000000000000000000, -1.000000000000000000 ) ) ;
#267 = AXIS2_PLACEMENT_3D ( 'NONE', #431, #354, #50 ) ;
#268 = LINE ( 'NONE', #79, #148 ) ;
#269 = EDGE_LOOP ( 'NONE', ( #185, #321, #222 ) ) ;
#270 = DIRECTION ( 'NONE',  ( 0.000000000000000000, -1.000000000000000000, 0.000000000000000000 ) ) ;
#271 = APPLICATION_CONTEXT ( 'automotive_design' ) ;
#272 = ORIENTED_EDGE ( 'NONE', *, *, #11, .F. ) ;
#273 = CYLINDRICAL_SURFACE ( 'NONE', #331, 0.2000000000000000944 ) ;
#274 = AXIS2_PLACEMENT_3D ( 'NONE', #90, #395, #281 ) ;
#275 = ORIENTED_EDGE ( 'NONE', *, *, #166, .F. ) ;
#276 = CARTESIAN_POINT ( 'NONE',  ( -2.000000000000000888, 1.000000000000000000, -1.800000000000000044 ) ) ;
#277 = VECTOR ( 'NONE', #228, 1000.000000000000000 ) ;
#278 = DIRECTION ( 'NONE',  ( 0.000000000000000000, -1.000000000000000000, 0.000000000000000000 ) ) ;
#279 = ADVANCED_FACE ( 'NONE', ( #10 ), #429, .T. ) ;
#280 = CARTESIAN_POINT ( 'NONE',  ( 1.799999999999999156, 0.000000000000000000, -2.000000000000000000 ) ) ;
#281 = DIRECTION ( 'NONE',  ( 0.000000000000000000, 0.000000000000000000, -1.000000000000000000 ) ) ;
#282 = VERTEX_POINT ( 'NONE', #392 ) ;
#283 = AXIS2_PLACEMENT_3D ( 'NONE', #303, #456, #266 ) ;
#284 = SURFACE_STYLE_FILL_AREA ( #130 ) ;
#285 = ORIENTED_EDGE ( 'NONE', *, *, #317, .T. ) ;
#286 = DIRECTION ( 'NONE',  ( 0.000000000000000000, -1.000000000000000000, 0.000000000000000000 ) ) ;
#287 = ORIENTED_EDGE ( 'NONE', *, *, #214, .T. ) ;
#288 = EDGE_CURVE ( 'NONE', #449, #262, #243, .T. ) ;
#289 = CIRCLE ( 'NONE', #477, 0.2000000000000000944 ) ;
#290 = CARTESIAN_POINT ( 'NONE',  ( -2.000000000000000888, 0.000000000000000000, -1.800000000000000044 ) ) ;
#291 = CARTESIAN_POINT ( 'NONE',  ( 1.999999999999999112, 0.8000000000000000444, -2.000000000000000000 ) ) ;
#292 = LINE ( 'NONE', #210, #236 ) ;
#293 = EDGE_CURVE ( 'NONE', #86, #372, #355, .T. ) ;
#294 = CARTESIAN_POINT ( 'NONE',  ( -2.000000000000000888, 0.000000000000000000, -2.000000000000000000 ) ) ;
#295 = ADVANCED_FACE ( 'NONE', ( #8 ), #428, .T. ) ;
#296 = ORIENTED_EDGE ( 'NONE', *, *, #462, .T. ) ;
#297 = VERTEX_POINT ( 'NONE', #200 ) ;
#298 = DIRECTION ( 'NONE',  ( 0.000000000000000000, 0.000000000000000000, -1.000000000000000000 ) ) ;
#299 = VERTEX_POINT ( 'NONE', #168 ) ;
#300 = DIRECTION ( 'NONE',  ( 1.000000000000000000, 0.000000000000000000, -0.000000000000000000 ) ) ;
#301 = VECTOR ( 'NONE', #488, 1000.000000000000000 ) ;
#302 = AXIS2_PLACEMENT_3D ( 'NONE', #70, #150, #39 ) ;
#303 = CARTESIAN_POINT ( 'NONE',  ( 0.000000000000000000, 0.8000000000000000444, -1.800000000000000044 ) ) ;
#304 = EDGE_CURVE ( 'NONE', #165, #86, #289, .T. ) ;
#305 = ORIENTED_EDGE ( 'NONE', *, *, #253, .T. ) ;
#306 = CARTESIAN_POINT ( 'NONE',  ( -1.800000000000000711, 0.8000000000000000444, 2.000000000000000000 ) ) ;
#307 = DIRECTION ( 'NONE',  ( 1.000000000000000000, -0.000000000000000000, 0.000000000000000000 ) ) ;
#308 = VECTOR ( 'NONE', #481, 1000.000000000000000 ) ;
#309 = ORIENTED_EDGE ( 'NONE', *, *, #337, .F. ) ;
#310 = CARTESIAN_POINT ( 'NONE',  ( 1.999999999999999112, 1.000000000000000000, -1.800000000000000044 ) ) ;
#311 = FACE_OUTER_BOUND ( 'NONE', #457, .T. ) ;
#312 = ORIENTED_EDGE ( 'NONE', *, *, #304, .F. ) ;
#313 = CARTESIAN_POINT ( 'NONE',  ( 1.799999999999999156, 0.8000000000000000444, 1.800000000000000044 ) ) ;
#314 = VECTOR ( 'NONE', #163, 1000.000000000000000 ) ;
#315 = PRODUCT ( 'BAR4X4T1', 'BAR4X4T1', '', ( #68 ) ) ;
#316 = CARTESIAN_POINT ( 'NONE',  ( 1.999999999999999112, 1.000000000000000000, 1.800000000000000044 ) ) ;
#317 = EDGE_CURVE ( 'NONE', #297, #386, #128, .T. ) ;
#318 = CARTESIAN_POINT ( 'NONE',  ( 1.799999999999999156, 0.8000000000000000444, -1.800000000000000044 ) ) ;
#319 = AXIS2_PLACEMENT_3D ( 'NONE', #178, #330, #223 ) ;
#320 = SURFACE_STYLE_USAGE ( .BOTH. , #387 ) ;
#321 = ORIENTED_EDGE ( 'NONE', *, *, #96, .T. ) ;
#322 = DIRECTION ( 'NONE',  ( 0.000000000000000000, -1.000000000000000000, 0.000000000000000000 ) ) ;
#323 = ORIENTED_EDGE ( 'NONE', *, *, #261, .F. ) ;
#324 = DIRECTION ( 'NONE',  ( 0.000000000000000000, 1.000000000000000000, 0.000000000000000000 ) ) ;
#325 = EDGE_CURVE ( 'NONE', #165, #262, #15, .T. ) ;
#326 = ORIENTED_EDGE ( 'NONE', *, *, #146, .F. ) ;
#327 = VECTOR ( 'NONE', #20, 1000.000000000000000 ) ;
#328 = LINE ( 'NONE', #181, #370 ) ;
#329 = EDGE_CURVE ( 'NONE', #115, #297, #352, .T. ) ;
#330 = DIRECTION ( 'NONE',  ( 0.000000000000000000, 0.000000000000000000, -1.000000000000000000 ) ) ;
#331 = AXIS2_PLACEMENT_3D ( 'NONE', #36, #422, #187 ) ;
#332 = ORIENTED_EDGE ( 'NONE', *, *, #214, .F. ) ;
#333 = DIRECTION ( 'NONE',  ( 0.000000000000000000, 1.000000000000000000, 0.000000000000000000 ) ) ;
#334 = ORIENTED_EDGE ( 'NONE', *, *, #366, .F. ) ;
#335 = CIRCLE ( 'NONE', #486, 0.2000000000000000944 ) ;
#336 = DIRECTION ( 'NONE',  ( -0.000000000000000000, 1.000000000000000000, -0.000000000000000000 ) ) ;
#337 = EDGE_CURVE ( 'NONE', #454, #299, #72, .T. ) ;
#338 = LINE ( 'NONE', #490, #314 ) ;
#339 = CIRCLE ( 'NONE', #400, 0.2000000000000000944 ) ;
#340 = CARTESIAN_POINT ( 'NONE',  ( -1.800000000000000711, 0.000000000000000000, -1.800000000000000044 ) ) ;
#341 = EDGE_LOOP ( 'NONE', ( #217, #133, #177, #258 ) ) ;
#342 = PRESENTATION_LAYER_ASSIGNMENT (  '', '', ( #47 ) ) ;
#343 = CYLINDRICAL_SURFACE ( 'NONE', #211, 0.2000000000000000944 ) ;
#344 = EDGE_CURVE ( 'NONE', #454, #95, #55, .T. ) ;
#345 = VERTEX_POINT ( 'NONE', #465 ) ;
#346 = CARTESIAN_POINT ( 'NONE',  ( -1.800000000000000711, 0.8000000000000000444, -2.000000000000000000 ) ) ;
#347 = AXIS2_PLACEMENT_3D ( 'NONE', #252, #103, #22 ) ;
#348 = ORIENTED_EDGE ( 'NONE', *, *, #430, .F. ) ;
#349 = FACE_OUTER_BOUND ( 'NONE', #182, .T. ) ;
#350 = ORIENTED_EDGE ( 'NONE', *, *, #229, .F. ) ;
#351 = VECTOR ( 'NONE', #322, 1000.000000000000000 ) ;
#352 = LINE ( 'NONE', #164, #397 ) ;
#353 = VECTOR ( 'NONE', #71, 1000.000000000000000 ) ;
#354 = DIRECTION ( 'NONE',  ( -0.000000000000000000, -0.000000000000000000, 1.000000000000000000 ) ) ;
#355 = LINE ( 'NONE', #14, #412 ) ;
#356 = VERTEX_POINT ( 'NONE', #280 ) ;
#357 = AXIS2_PLACEMENT_3D ( 'NONE', #66, #333, #401 ) ;
#358 = DIRECTION ( 'NONE',  ( 1.000000000000000000, 0.000000000000000000, 0.000000000000000000 ) ) ;
#359 = EDGE_LOOP ( 'NONE', ( #158, #131, #371, #424 ) ) ;
#360 = CIRCLE ( 'NONE', #471, 0.2000000000000000944 ) ;
#361 = CARTESIAN_POINT ( 'NONE',  ( 1.999999999999999112, 1.000000000000000000, -2.000000000000000000 ) ) ;
#362 = DIRECTION ( 'NONE',  ( 1.000000000000000000, -0.000000000000000000, -0.000000000000000000 ) ) ;
#363 =( GEOMETRIC_REPRESENTATION_CONTEXT ( 3 ) GLOBAL_UNCERTAINTY_ASSIGNED_CONTEXT ( ( #175 ) ) GLOBAL_UNIT_ASSIGNED_CONTEXT ( ( #227, #487, #378 ) ) REPRESENTATION_CONTEXT ( 'NONE', 'WORKASPACE' ) );
#364 = MANIFOLD_SOLID_BREP ( '\X2\570689d2\X0\1', #28 ) ;
#365 = CARTESIAN_POINT ( 'NONE',  ( -1.800000000000000711, 0.8000000000000000444, -1.800000000000000044 ) ) ;
#366 = EDGE_CURVE ( 'NONE', #449, #115, #460, .T. ) ;
#367 = PLANE ( 'NONE',  #167 ) ;
#368 = EDGE_LOOP ( 'NONE', ( #113, #204, #80, #285 ) ) ;
#369 = LINE ( 'NONE', #484, #33 ) ;
#370 = VECTOR ( 'NONE', #439, 1000.000000000000000 ) ;
#371 = ORIENTED_EDGE ( 'NONE', *, *, #344, .F. ) ;
#372 = VERTEX_POINT ( 'NONE', #176 ) ;
#373 = DIRECTION ( 'NONE',  ( -0.000000000000000000, -0.000000000000000000, 1.000000000000000000 ) ) ;
#374 = ADVANCED_FACE ( 'NONE', ( #17 ), #367, .F. ) ;
#375 = DIRECTION ( 'NONE',  ( -0.000000000000000000, -1.000000000000000000, -0.000000000000000000 ) ) ;
#376 = DIRECTION ( 'NONE',  ( 0.000000000000000000, 0.000000000000000000, -1.000000000000000000 ) ) ;
#377 = DIRECTION ( 'NONE',  ( 0.000000000000000000, -0.000000000000000000, 1.000000000000000000 ) ) ;
#378 =( NAMED_UNIT ( * ) SI_UNIT ( $, .STERADIAN. ) SOLID_ANGLE_UNIT ( ) );
#379 = CYLINDRICAL_SURFACE ( 'NONE', #283, 0.2000000000000000944 ) ;
#380 = EDGE_CURVE ( 'NONE', #372, #179, #369, .T. ) ;
#381 = ORIENTED_EDGE ( 'NONE', *, *, #7, .T. ) ;
#382 = AXIS2_PLACEMENT_3D ( 'NONE', #361, #97, #254 ) ;
#383 = CARTESIAN_POINT ( 'NONE',  ( 0.000000000000000000, 1.000000000000000000, 0.000000000000000000 ) ) ;
#384 = ORIENTED_EDGE ( 'NONE', *, *, #7, .F. ) ;
#385 = CARTESIAN_POINT ( 'NONE',  ( 1.999999999999999112, 0.000000000000000000, -1.800000000000000044 ) ) ;
#386 = VERTEX_POINT ( 'NONE', #290 ) ;
#387 = SURFACE_SIDE_STYLE ('',( #284 ) ) ;
#388 = ADVANCED_FACE ( 'NONE', ( #104 ), #472, .T. ) ;
#389 = DIRECTION ( 'NONE',  ( 0.000000000000000000, 1.000000000000000000, 0.000000000000000000 ) ) ;
#390 = VECTOR ( 'NONE', #286, 1000.000000000000000 ) ;
#391 = DIRECTION ( 'NONE',  ( 0.000000000000000000, -0.000000000000000000, -1.000000000000000000 ) ) ;
#392 = CARTESIAN_POINT ( 'NONE',  ( -1.800000000000000711, 0.000000000000000000, -2.000000000000000000 ) ) ;
#393 = EDGE_CURVE ( 'NONE', #356, #282, #260, .T. ) ;
#394 = ORIENTED_EDGE ( 'NONE', *, *, #136, .T. ) ;
#395 = DIRECTION ( 'NONE',  ( -1.000000000000000000, -0.000000000000000000, -0.000000000000000000 ) ) ;
#396 = VERTEX_POINT ( 'NONE', #478 ) ;
#397 = VECTOR ( 'NONE', #391, 1000.000000000000000 ) ;
#398 = LINE ( 'NONE', #213, #464 ) ;
#399 = ORIENTED_EDGE ( 'NONE', *, *, #174, .T. ) ;
#400 = AXIS2_PLACEMENT_3D ( 'NONE', #40, #238, #235 ) ;
#401 = DIRECTION ( 'NONE',  ( 0.000000000000000000, 0.000000000000000000, 1.000000000000000000 ) ) ;
#402 = ADVANCED_FACE ( 'NONE', ( #137 ), #219, .F. ) ;
#403 = EDGE_LOOP ( 'NONE', ( #208, #435, #334, #326 ) ) ;
#404 = DIRECTION ( 'NONE',  ( -0.000000000000000000, -0.000000000000000000, 1.000000000000000000 ) ) ;
#405 = ORIENTED_EDGE ( 'NONE', *, *, #430, .T. ) ;
#406 = PLANE ( 'NONE',  #382 ) ;
#407 = DIRECTION ( 'NONE',  ( 0.000000000000000000, 0.000000000000000000, 1.000000000000000000 ) ) ;
#408 = CARTESIAN_POINT ( 'NONE',  ( 1.799999999999999156, 0.8000000000000000444, 0.000000000000000000 ) ) ;
#409 = EDGE_CURVE ( 'NONE', #95, #356, #445, .T. ) ;
#410 = CARTESIAN_POINT ( 'NONE',  ( -1.800000000000000711, 0.000000000000000000, 2.000000000000000000 ) ) ;
#411 = ORIENTED_EDGE ( 'NONE', *, *, #49, .F. ) ;
#412 = VECTOR ( 'NONE', #202, 1000.000000000000000 ) ;
#413 = LINE ( 'NONE', #157, #301 ) ;
#414 = DIRECTION ( 'NONE',  ( -0.000000000000000000, 1.000000000000000000, -0.000000000000000000 ) ) ;
#415 = CARTESIAN_POINT ( 'NONE',  ( 1.799999999999999156, 0.8000000000000000444, 1.800000000000000044 ) ) ;
#416 = ADVANCED_FACE ( 'NONE', ( #23 ), #406, .F. ) ;
#417 = ORIENTED_EDGE ( 'NONE', *, *, #483, .T. ) ;
#418 = DIRECTION ( 'NONE',  ( 0.000000000000000000, -1.000000000000000000, 0.000000000000000000 ) ) ;
#419 = DIRECTION ( 'NONE',  ( 1.000000000000000000, 0.000000000000000000, 0.000000000000000000 ) ) ;
#420 = ORIENTED_EDGE ( 'NONE', *, *, #57, .T. ) ;
#421 = AXIS2_PLACEMENT_3D ( 'NONE', #248, #48, #159 ) ;
#422 = DIRECTION ( 'NONE',  ( -1.000000000000000000, 0.000000000000000000, 0.000000000000000000 ) ) ;
#423 = PRODUCT_DEFINITION_SHAPE ( 'NONE', 'NONE',  #207 ) ;
#424 = ORIENTED_EDGE ( 'NONE', *, *, #491, .F. ) ;
#425 = PRODUCT_DEFINITION_CONTEXT ( 'detailed design', #218, 'design' ) ;
#426 = DIRECTION ( 'NONE',  ( 1.000000000000000000, -0.000000000000000000, 0.000000000000000000 ) ) ;
#427 = ADVANCED_FACE ( 'NONE', ( #251 ), #25, .T. ) ;
#428 = SPHERICAL_SURFACE ( 'NONE', #421, 0.2000000000000000111 ) ;
#429 = CYLINDRICAL_SURFACE ( 'NONE', #106, 0.2000000000000000944 ) ;
#430 = EDGE_CURVE ( 'NONE', #237, #141, #292, .T. ) ;
#431 = CARTESIAN_POINT ( 'NONE',  ( 1.799999999999999156, 0.8000000000000000444, -1.800000000000000044 ) ) ;
#432 = EDGE_LOOP ( 'NONE', ( #272, #381, #13, #287, #77, #417, #83, #399 ) ) ;
#433 = CIRCLE ( 'NONE', #60, 0.2000000000000000944 ) ;
#434 = DIRECTION ( 'NONE',  ( 0.000000000000000000, 0.000000000000000000, 1.000000000000000000 ) ) ;
#435 = ORIENTED_EDGE ( 'NONE', *, *, #329, .F. ) ;
#436 = DIRECTION ( 'NONE',  ( 1.000000000000000000, 0.000000000000000000, 0.000000000000000000 ) ) ;
#437 = ORIENTED_EDGE ( 'NONE', *, *, #136, .F. ) ;
#438 = AXIS2_PLACEMENT_3D ( 'NONE', #170, #324, #132 ) ;
#439 = DIRECTION ( 'NONE',  ( -1.000000000000000000, 0.000000000000000000, 0.000000000000000000 ) ) ;
#440 = DIRECTION ( 'NONE',  ( -1.000000000000000000, -0.000000000000000000, -0.000000000000000000 ) ) ;
#441 = EDGE_LOOP ( 'NONE', ( #459, #73, #105 ) ) ;
#442 = CARTESIAN_POINT ( 'NONE',  ( 1.799999999999999156, 1.000000000000000000, -2.000000000000000000 ) ) ;
#443 = ORIENTED_EDGE ( 'NONE', *, *, #174, .F. ) ;
#444 = AXIS2_PLACEMENT_3D ( 'NONE', #107, #263, #58 ) ;
#445 = LINE ( 'NONE', #442, #390 ) ;
#446 = CARTESIAN_POINT ( 'NONE',  ( -2.000000000000000888, 0.000000000000000000, 2.000000000000000000 ) ) ;
#447 = LINE ( 'NONE', #453, #353 ) ;
#448 = FACE_OUTER_BOUND ( 'NONE', #468, .T. ) ;
#449 = VERTEX_POINT ( 'NONE', #134 ) ;
#450 = ADVANCED_BREP_SHAPE_REPRESENTATION ( 'BAR4X4T1', ( #364, #126 ), #363 ) ;
#451 = APPLICATION_PROTOCOL_DEFINITION ( 'draft international standard', 'automotive_design', 1998, #218 ) ;
#452 = EDGE_CURVE ( 'NONE', #169, #297, #84, .T. ) ;
#453 = CARTESIAN_POINT ( 'NONE',  ( -1.800000000000000711, 1.000000000000000000, 2.000000000000000000 ) ) ;
#454 = VERTEX_POINT ( 'NONE', #54 ) ;
#455 = CIRCLE ( 'NONE', #245, 0.2000000000000000944 ) ;
#456 = DIRECTION ( 'NONE',  ( 1.000000000000000000, 0.000000000000000000, 0.000000000000000000 ) ) ;
#457 = EDGE_LOOP ( 'NONE', ( #129, #16, #192, #420 ) ) ;
#458 = CARTESIAN_POINT ( 'NONE',  ( 1.799999999999999156, 0.8000000000000000444, -1.800000000000000044 ) ) ;
#459 = ORIENTED_EDGE ( 'NONE', *, *, #366, .T. ) ;
#460 = CIRCLE ( 'NONE', #250, 0.2000000000000000944 ) ;
#461 = DIRECTION ( 'NONE',  ( 0.000000000000000000, 0.000000000000000000, -1.000000000000000000 ) ) ;
#462 = EDGE_CURVE ( 'NONE', #165, #237, #398, .T. ) ;
#463 = CARTESIAN_POINT ( 'NONE',  ( 1.799999999999999156, 1.000000000000000000, 1.800000000000000044 ) ) ;
#464 = VECTOR ( 'NONE', #440, 1000.000000000000000 ) ;
#465 = CARTESIAN_POINT ( 'NONE',  ( 1.799999999999999156, 0.000000000000000000, 2.000000000000000000 ) ) ;
#466 = ADVANCED_FACE ( 'NONE', ( #101 ), #256, .F. ) ;
#467 =( GEOMETRIC_REPRESENTATION_CONTEXT ( 3 ) GLOBAL_UNCERTAINTY_ASSIGNED_CONTEXT ( ( #209 ) ) GLOBAL_UNIT_ASSIGNED_CONTEXT ( ( #161, #63, #139 ) ) REPRESENTATION_CONTEXT ( 'NONE', 'WORKASPACE' ) );
#468 = EDGE_LOOP ( 'NONE', ( #275, #215, #18, #59 ) ) ;
#469 = CARTESIAN_POINT ( 'NONE',  ( -1.800000000000000711, 0.8000000000000000444, 1.800000000000000044 ) ) ;
#470 = ORIENTED_EDGE ( 'NONE', *, *, #344, .T. ) ;
#471 = AXIS2_PLACEMENT_3D ( 'NONE', #365, #373, #69 ) ;
#472 = CYLINDRICAL_SURFACE ( 'NONE', #160, 0.2000000000000000944 ) ;
#473 = EDGE_LOOP ( 'NONE', ( #384, #348, #323, #257 ) ) ;
#474 = DIRECTION ( 'NONE',  ( 0.000000000000000000, -1.000000000000000000, 0.000000000000000000 ) ) ;
#475 = CARTESIAN_POINT ( 'NONE',  ( 1.799999999999999156, 0.8000000000000000444, -2.000000000000000000 ) ) ;
#476 = ADVANCED_FACE ( 'NONE', ( #231 ), #156, .T. ) ;
#477 = AXIS2_PLACEMENT_3D ( 'NONE', #313, #91, #434 ) ;
#478 = CARTESIAN_POINT ( 'NONE',  ( -1.800000000000000711, 1.000000000000000000, -1.800000000000000044 ) ) ;
#479 = LINE ( 'NONE', #446, #308 ) ;
#480 = AXIS2_PLACEMENT_3D ( 'NONE', #383, #42, #377 ) ;
#481 = DIRECTION ( 'NONE',  ( 1.000000000000000000, 0.000000000000000000, 0.000000000000000000 ) ) ;
#482 = AXIS2_PLACEMENT_3D ( 'NONE', #234, #418, #376 ) ;
#483 = EDGE_CURVE ( 'NONE', #356, #179, #140, .T. ) ;
#484 = CARTESIAN_POINT ( 'NONE',  ( 1.999999999999999112, 0.000000000000000000, -2.000000000000000000 ) ) ;
#485 = CARTESIAN_POINT ( 'NONE',  ( -1.800000000000000711, 0.8000000000000000444, -1.800000000000000044 ) ) ;
#486 = AXIS2_PLACEMENT_3D ( 'NONE', #94, #246, #195 ) ;
#487 =( NAMED_UNIT ( * ) PLANE_ANGLE_UNIT ( ) SI_UNIT ( $, .RADIAN. ) );
#488 = DIRECTION ( 'NONE',  ( 0.000000000000000000, 0.000000000000000000, -1.000000000000000000 ) ) ;
#489 = VECTOR ( 'NONE', #404, 1000.000000000000000 ) ;
#490 = CARTESIAN_POINT ( 'NONE',  ( -2.000000000000000888, 0.000000000000000000, -2.000000000000000000 ) ) ;
#491 = EDGE_CURVE ( 'NONE', #179, #454, #189, .T. ) ;
ENDSEC;
END-ISO-10303-21;
