ISO-10303-21;
HEADER;
FILE_DESCRIPTION (( 'STEP AP203' ),
    '1' );
FILE_NAME ('BAR4X8T2.step',
    '2026-03-22T07:19:23',
    ( '' ),
    ( '' ),
    'SwSTEP 2.0',
    'SolidWorks 2025',
    '' );
FILE_SCHEMA (( 'CONFIG_CONTROL_DESIGN' ));
ENDSEC;

DATA;
#1 = ADVANCED_FACE ( 'NONE', ( #541 ), #414, .T. ) ;
#2 =( NAMED_UNIT ( * ) SI_UNIT ( $, .STERADIAN. ) SOLID_ANGLE_UNIT ( ) );
#3 = PLANE ( 'NONE',  #380 ) ;
#4 = EDGE_CURVE ( 'NONE', #251, #286, #222, .T. ) ;
#5 = CALENDAR_DATE ( 2026, 22, 3 ) ;
#6 = DIRECTION ( 'NONE',  ( 0.000000000000000000, -1.000000000000000000, 0.000000000000000000 ) ) ;
#7 = EDGE_CURVE ( 'NONE', #10, #530, #41, .T. ) ;
#8 = CYLINDRICAL_SURFACE ( 'NONE', #465, 0.2000000000000000944 ) ;
#9 = FACE_OUTER_BOUND ( 'NONE', #96, .T. ) ;
#10 = VERTEX_POINT ( 'NONE', #539 ) ;
#11 = EDGE_CURVE ( 'NONE', #530, #24, #168, .T. ) ;
#12 = PERSON_AND_ORGANIZATION ( #273, #464 ) ;
#13 = FACE_OUTER_BOUND ( 'NONE', #529, .T. ) ;
#14 = DATE_AND_TIME ( #311, #537 ) ;
#15 = DIRECTION ( 'NONE',  ( -0.000000000000000000, -1.000000000000000000, -0.000000000000000000 ) ) ;
#16 = AXIS2_PLACEMENT_3D ( 'NONE', #90, #434, #46 ) ;
#17 = ORIENTED_EDGE ( 'NONE', *, *, #80, .F. ) ;
#18 = EDGE_LOOP ( 'NONE', ( #410, #402, #364, #201 ) ) ;
#19 = LOCAL_TIME ( 15, 19, 23.00000000000000000, #472 ) ;
#20 = EDGE_CURVE ( 'NONE', #157, #63, #392, .T. ) ;
#21 = DIRECTION ( 'NONE',  ( 0.000000000000000000, 0.000000000000000000, 1.000000000000000000 ) ) ;
#22 = ORIENTED_EDGE ( 'NONE', *, *, #7, .F. ) ;
#23 = DIRECTION ( 'NONE',  ( 4.336808689942017736E-16, -0.000000000000000000, 1.000000000000000000 ) ) ;
#24 = VERTEX_POINT ( 'NONE', #417 ) ;
#25 = AXIS2_PLACEMENT_3D ( 'NONE', #120, #87, #34 ) ;
#26 = DIRECTION ( 'NONE',  ( -0.000000000000000000, -1.000000000000000000, -0.000000000000000000 ) ) ;
#27 = ORIENTED_EDGE ( 'NONE', *, *, #103, .T. ) ;
#28 = ADVANCED_FACE ( 'NONE', ( #297 ), #3, .F. ) ;
#29 = DIRECTION ( 'NONE',  ( 0.000000000000000000, -0.000000000000000000, 1.000000000000000000 ) ) ;
#30 = ORIENTED_EDGE ( 'NONE', *, *, #20, .T. ) ;
#31 = CARTESIAN_POINT ( 'NONE',  ( 3.999999999999998224, 0.000000000000000000, -1.999999999999999556 ) ) ;
#32 = VERTEX_POINT ( 'NONE', #213 ) ;
#33 = ORIENTED_EDGE ( 'NONE', *, *, #183, .T. ) ;
#34 = DIRECTION ( 'NONE',  ( 0.000000000000000000, 0.000000000000000000, 1.000000000000000000 ) ) ;
#35 =( NAMED_UNIT ( * ) PLANE_ANGLE_UNIT ( ) SI_UNIT ( $, .RADIAN. ) );
#36 = DIRECTION ( 'NONE',  ( 1.000000000000000000, 0.000000000000000000, 0.000000000000000000 ) ) ;
#37 = CC_DESIGN_PERSON_AND_ORGANIZATION_ASSIGNMENT ( #347, #274, ( #211 ) ) ;
#38 = AXIS2_PLACEMENT_3D ( 'NONE', #412, #459, #78 ) ;
#39 = DIRECTION ( 'NONE',  ( 0.000000000000000000, -1.000000000000000000, 0.000000000000000000 ) ) ;
#40 = COORDINATED_UNIVERSAL_TIME_OFFSET ( 8, 0, .AHEAD. ) ;
#41 = LINE ( 'NONE', #165, #186 ) ;
#42 = EDGE_CURVE ( 'NONE', #286, #99, #376, .T. ) ;
#43 = PERSON_AND_ORGANIZATION_ROLE ( 'creator' ) ;
#44 = CARTESIAN_POINT ( 'NONE',  ( 3.799999999999998046, 2.000000000000000000, 1.800000000000000488 ) ) ;
#45 = APPROVAL_STATUS ( 'not_yet_approved' ) ;
#46 = DIRECTION ( 'NONE',  ( 1.000000000000000000, 0.000000000000000000, 0.000000000000000000 ) ) ;
#47 = AXIS2_PLACEMENT_3D ( 'NONE', #474, #230, #61 ) ;
#48 = EDGE_LOOP ( 'NONE', ( #467, #241, #524, #391 ) ) ;
#49 = CALENDAR_DATE ( 2026, 22, 3 ) ;
#50 = LINE ( 'NONE', #94, #401 ) ;
#51 = APPROVAL_DATE_TIME ( #176, #338 ) ;
#52 = AXIS2_PLACEMENT_3D ( 'NONE', #336, #334, #416 ) ;
#53 = CARTESIAN_POINT ( 'NONE',  ( 3.999999999999998224, 2.000000000000000000, -1.999999999999999556 ) ) ;
#54 = ORIENTED_EDGE ( 'NONE', *, *, #516, .F. ) ;
#55 = PRODUCT_DEFINITION ( 'UNKNOWN', '', #211, #227 ) ;
#56 = VECTOR ( 'NONE', #400, 1000.000000000000000 ) ;
#57 = CALENDAR_DATE ( 2026, 22, 3 ) ;
#58 = DIRECTION ( 'NONE',  ( 1.000000000000000000, -0.000000000000000000, 0.000000000000000000 ) ) ;
#59 = ADVANCED_FACE ( 'NONE', ( #379 ), #453, .T. ) ;
#60 = CIRCLE ( 'NONE', #38, 0.2000000000000000944 ) ;
#61 = DIRECTION ( 'NONE',  ( 0.000000000000000000, 0.000000000000000000, -1.000000000000000000 ) ) ;
#62 = FACE_OUTER_BOUND ( 'NONE', #18, .T. ) ;
#63 = VERTEX_POINT ( 'NONE', #457 ) ;
#64 = DIRECTION ( 'NONE',  ( 0.000000000000000000, 1.000000000000000000, -0.000000000000000000 ) ) ;
#65 = EDGE_CURVE ( 'NONE', #405, #237, #60, .T. ) ;
#66 = ORIENTED_EDGE ( 'NONE', *, *, #318, .T. ) ;
#67 = AXIS2_PLACEMENT_3D ( 'NONE', #315, #427, #390 ) ;
#68 = DIRECTION ( 'NONE',  ( 0.000000000000000000, 0.000000000000000000, 1.000000000000000000 ) ) ;
#69 = ORIENTED_EDGE ( 'NONE', *, *, #516, .T. ) ;
#70 = CARTESIAN_POINT ( 'NONE',  ( -4.000000000000001776, 2.000000000000000000, -1.999999999999999556 ) ) ;
#71 = ORIENTED_EDGE ( 'NONE', *, *, #394, .T. ) ;
#72 = EDGE_LOOP ( 'NONE', ( #194, #490, #320 ) ) ;
#73 = CARTESIAN_POINT ( 'NONE',  ( 3.799999999999998046, 0.000000000000000000, 1.800000000000000488 ) ) ;
#74 = EDGE_LOOP ( 'NONE', ( #69, #478, #295, #268 ) ) ;
#75 = EDGE_LOOP ( 'NONE', ( #521, #27, #102, #310 ) ) ;
#76 = EDGE_CURVE ( 'NONE', #405, #150, #204, .T. ) ;
#77 = PERSON_AND_ORGANIZATION ( #273, #464 ) ;
#78 = DIRECTION ( 'NONE',  ( 1.000000000000000000, 0.000000000000000000, 0.000000000000000000 ) ) ;
#79 = CARTESIAN_POINT ( 'NONE',  ( 3.799999999999998046, 1.800000000000000044, -1.799999999999999600 ) ) ;
#80 = EDGE_CURVE ( 'NONE', #232, #251, #215, .T. ) ;
#81 = CYLINDRICAL_SURFACE ( 'NONE', #362, 0.2000000000000000944 ) ;
#82 = AXIS2_PLACEMENT_3D ( 'NONE', #121, #461, #258 ) ;
#83 = DIRECTION ( 'NONE',  ( -0.000000000000000000, 1.000000000000000000, -0.000000000000000000 ) ) ;
#84 = EDGE_CURVE ( 'NONE', #237, #32, #383, .T. ) ;
#85 = APPROVAL_ROLE ( '' ) ;
#86 = VECTOR ( 'NONE', #302, 1000.000000000000000 ) ;
#87 = DIRECTION ( 'NONE',  ( 1.000000000000000000, -0.000000000000000000, -0.000000000000000000 ) ) ;
#88 = DIRECTION ( 'NONE',  ( 0.000000000000000000, 0.000000000000000000, -1.000000000000000000 ) ) ;
#89 = APPROVAL_DATE_TIME ( #314, #197 ) ;
#90 = CARTESIAN_POINT ( 'NONE',  ( 3.799999999999998046, 1.800000000000000044, 1.800000000000000488 ) ) ;
#91 = ADVANCED_BREP_SHAPE_REPRESENTATION ( 'BAR4X8T2', ( #221, #138 ), #128 ) ;
#92 = CARTESIAN_POINT ( 'NONE',  ( 3.799999999999998046, 2.000000000000000000, 1.800000000000000488 ) ) ;
#93 = SHAPE_DEFINITION_REPRESENTATION ( #154, #91 ) ;
#94 = CARTESIAN_POINT ( 'NONE',  ( -4.000000000000001776, 2.000000000000000000, -1.799999999999999600 ) ) ;
#95 = LINE ( 'NONE', #389, #460 ) ;
#96 = EDGE_LOOP ( 'NONE', ( #480, #535, #476, #292 ) ) ;
#97 = VECTOR ( 'NONE', #483, 1000.000000000000000 ) ;
#98 = DIRECTION ( 'NONE',  ( 0.000000000000000000, 0.000000000000000000, 1.000000000000000000 ) ) ;
#99 = VERTEX_POINT ( 'NONE', #266 ) ;
#100 = ADVANCED_FACE ( 'NONE', ( #341 ), #418, .T. ) ;
#101 = CARTESIAN_POINT ( 'NONE',  ( 3.999999999999998224, 0.000000000000000000, -1.799999999999999600 ) ) ;
#102 = ORIENTED_EDGE ( 'NONE', *, *, #343, .T. ) ;
#103 = EDGE_CURVE ( 'NONE', #150, #157, #220, .T. ) ;
#104 = DIRECTION ( 'NONE',  ( 0.000000000000000000, 0.000000000000000000, 1.000000000000000000 ) ) ;
#105 = ORIENTED_EDGE ( 'NONE', *, *, #159, .T. ) ;
#106 = ORIENTED_EDGE ( 'NONE', *, *, #394, .F. ) ;
#107 = APPROVAL_PERSON_ORGANIZATION ( #125, #522, #85 ) ;
#108 = FACE_OUTER_BOUND ( 'NONE', #189, .T. ) ;
#109 = VERTEX_POINT ( 'NONE', #172 ) ;
#110 = DIRECTION ( 'NONE',  ( -1.000000000000000000, -0.000000000000000000, -0.000000000000000000 ) ) ;
#111 = ORIENTED_EDGE ( 'NONE', *, *, #325, .F. ) ;
#112 = VERTEX_POINT ( 'NONE', #163 ) ;
#113 = DIRECTION ( 'NONE',  ( 0.000000000000000000, -0.000000000000000000, 1.000000000000000000 ) ) ;
#114 = ADVANCED_FACE ( 'NONE', ( #335 ), #81, .T. ) ;
#115 = ORIENTED_EDGE ( 'NONE', *, *, #325, .T. ) ;
#116 = ORIENTED_EDGE ( 'NONE', *, *, #103, .F. ) ;
#117 = CARTESIAN_POINT ( 'NONE',  ( -4.000000000000000000, 2.000000000000000000, 2.000000000000000444 ) ) ;
#118 = CIRCLE ( 'NONE', #158, 0.2000000000000000944 ) ;
#119 = SPHERICAL_SURFACE ( 'NONE', #429, 0.2000000000000000111 ) ;
#120 = CARTESIAN_POINT ( 'NONE',  ( -3.799999999999999822, 1.800000000000000044, 1.800000000000000488 ) ) ;
#121 = CARTESIAN_POINT ( 'NONE',  ( 3.799999999999998046, 1.800000000000000044, -1.799999999999999600 ) ) ;
#122 = EDGE_CURVE ( 'NONE', #32, #440, #510, .T. ) ;
#123 = DIRECTION ( 'NONE',  ( 0.000000000000000000, 0.000000000000000000, 1.000000000000000000 ) ) ;
#124 = CIRCLE ( 'NONE', #52, 0.2000000000000000944 ) ;
#125 = PERSON_AND_ORGANIZATION ( #273, #464 ) ;
#126 = AXIS2_PLACEMENT_3D ( 'NONE', #294, #527, #21 ) ;
#127 = DIRECTION ( 'NONE',  ( -1.000000000000000000, -0.000000000000000000, -0.000000000000000000 ) ) ;
#128 =( GEOMETRIC_REPRESENTATION_CONTEXT ( 3 ) GLOBAL_UNCERTAINTY_ASSIGNED_CONTEXT ( ( #518 ) ) GLOBAL_UNIT_ASSIGNED_CONTEXT ( ( #413, #35, #2 ) ) REPRESENTATION_CONTEXT ( 'NONE', 'WORKASPACE' ) );
#129 = DIRECTION ( 'NONE',  ( -1.000000000000000000, 0.000000000000000000, 0.000000000000000000 ) ) ;
#130 = AXIS2_PLACEMENT_3D ( 'NONE', #181, #15, #98 ) ;
#131 = CARTESIAN_POINT ( 'NONE',  ( -3.800000000000001599, 2.000000000000000000, -1.999999999999999556 ) ) ;
#132 = CARTESIAN_POINT ( 'NONE',  ( -4.000000000000000000, 1.800000000000000044, 1.800000000000000488 ) ) ;
#133 = ADVANCED_FACE ( 'NONE', ( #514 ), #277, .T. ) ;
#134 = CARTESIAN_POINT ( 'NONE',  ( 0.000000000000000000, 2.000000000000000000, 0.000000000000000000 ) ) ;
#135 = VECTOR ( 'NONE', #515, 1000.000000000000000 ) ;
#136 = ORIENTED_EDGE ( 'NONE', *, *, #210, .F. ) ;
#137 = CC_DESIGN_PERSON_AND_ORGANIZATION_ASSIGNMENT ( #12, #43, ( #55 ) ) ;
#138 = AXIS2_PLACEMENT_3D ( 'NONE', #216, #497, #533 ) ;
#139 = DIRECTION ( 'NONE',  ( 0.000000000000000000, 0.000000000000000000, 1.000000000000000000 ) ) ;
#140 = AXIS2_PLACEMENT_3D ( 'NONE', #344, #36, #386 ) ;
#141 = PERSON_AND_ORGANIZATION_ROLE ( 'design_supplier' ) ;
#142 = PLANE ( 'NONE',  #214 ) ;
#143 = APPROVAL_DATE_TIME ( #353, #522 ) ;
#144 = PLANE ( 'NONE',  #193 ) ;
#145 = LINE ( 'NONE', #372, #97 ) ;
#146 = ORIENTED_EDGE ( 'NONE', *, *, #281, .T. ) ;
#147 = DIRECTION ( 'NONE',  ( 1.000000000000000000, -2.168404344971008079E-15, 0.000000000000000000 ) ) ;
#148 = ORIENTED_EDGE ( 'NONE', *, *, #509, .T. ) ;
#149 = DIRECTION ( 'NONE',  ( 0.000000000000000000, 1.000000000000000000, -0.000000000000000000 ) ) ;
#150 = VERTEX_POINT ( 'NONE', #313 ) ;
#151 = AXIS2_PLACEMENT_3D ( 'NONE', #519, #319, #404 ) ;
#152 = CC_DESIGN_PERSON_AND_ORGANIZATION_ASSIGNMENT ( #469, #357, ( #175 ) ) ;
#153 = CARTESIAN_POINT ( 'NONE',  ( 3.799999999999998046, 1.800000000000000044, 1.800000000000000488 ) ) ;
#154 = PRODUCT_DEFINITION_SHAPE ( 'NONE', 'NONE',  #55 ) ;
#155 = EDGE_LOOP ( 'NONE', ( #245, #71, #200, #488 ) ) ;
#156 = CC_DESIGN_APPROVAL ( #197, ( #175 ) ) ;
#157 = VERTEX_POINT ( 'NONE', #346 ) ;
#158 = AXIS2_PLACEMENT_3D ( 'NONE', #470, #271, #425 ) ;
#159 = EDGE_CURVE ( 'NONE', #440, #530, #118, .T. ) ;
#160 = DIRECTION ( 'NONE',  ( 0.000000000000000000, 1.000000000000000000, 0.000000000000000000 ) ) ;
#161 = EDGE_LOOP ( 'NONE', ( #496, #66, #54 ) ) ;
#162 = FACE_OUTER_BOUND ( 'NONE', #48, .T. ) ;
#163 = CARTESIAN_POINT ( 'NONE',  ( -3.800000000000001599, 2.000000000000000000, -1.799999999999999600 ) ) ;
#164 = DIRECTION ( 'NONE',  ( -1.000000000000000000, 0.000000000000000000, 2.168404344971008079E-15 ) ) ;
#165 = CARTESIAN_POINT ( 'NONE',  ( -4.000000000000001776, 0.000000000000000000, -1.999999999999999556 ) ) ;
#166 = ADVANCED_FACE ( 'NONE', ( #466 ), #142, .T. ) ;
#167 = APPLICATION_PROTOCOL_DEFINITION ( 'international standard', 'config_control_design', 1994, #435 ) ;
#168 = LINE ( 'NONE', #131, #354 ) ;
#169 = DIRECTION ( 'NONE',  ( 1.000000000000000000, 0.000000000000000000, -4.336808689942017736E-16 ) ) ;
#170 = DIRECTION ( 'NONE',  ( -4.336808689942017736E-16, -0.000000000000000000, -1.000000000000000000 ) ) ;
#171 = DIRECTION ( 'NONE',  ( 0.000000000000000000, 0.000000000000000000, -1.000000000000000000 ) ) ;
#172 = CARTESIAN_POINT ( 'NONE',  ( 3.999999999999998224, 1.800000000000000044, -1.799999999999999600 ) ) ;
#173 = ADVANCED_FACE ( 'NONE', ( #188 ), #144, .F. ) ;
#174 = CARTESIAN_POINT ( 'NONE',  ( 3.999999999999998224, 1.800000000000000044, 2.000000000000000444 ) ) ;
#175 = SECURITY_CLASSIFICATION ( '', '', #505 ) ;
#176 = DATE_AND_TIME ( #187, #19 ) ;
#177 = DIRECTION ( 'NONE',  ( 0.000000000000000000, 0.000000000000000000, -1.000000000000000000 ) ) ;
#178 = ORIENTED_EDGE ( 'NONE', *, *, #249, .F. ) ;
#179 = CC_DESIGN_DATE_AND_TIME_ASSIGNMENT ( #14, #219, ( #55 ) ) ;
#180 = VECTOR ( 'NONE', #110, 1000.000000000000000 ) ;
#181 = CARTESIAN_POINT ( 'NONE',  ( 3.799999999999998046, 0.000000000000000000, -1.799999999999999600 ) ) ;
#182 = VERTEX_POINT ( 'NONE', #267 ) ;
#183 = EDGE_CURVE ( 'NONE', #99, #112, #50, .T. ) ;
#184 = PERSON_AND_ORGANIZATION ( #273, #464 ) ;
#185 = DIRECTION ( 'NONE',  ( 0.000000000000000000, -0.000000000000000000, 1.000000000000000000 ) ) ;
#186 = VECTOR ( 'NONE', #340, 1000.000000000000000 ) ;
#187 = CALENDAR_DATE ( 2026, 22, 3 ) ;
#188 = FACE_OUTER_BOUND ( 'NONE', #373, .T. ) ;
#189 = EDGE_LOOP ( 'NONE', ( #444, #349, #407 ) ) ;
#190 = DIRECTION ( 'NONE',  ( 2.168404344971007685E-15, 1.000000000000000000, 0.000000000000000000 ) ) ;
#191 = CARTESIAN_POINT ( 'NONE',  ( 3.999999999999998224, 1.800000000000000044, -1.999999999999999556 ) ) ;
#192 = ORIENTED_EDGE ( 'NONE', *, *, #210, .T. ) ;
#193 = AXIS2_PLACEMENT_3D ( 'NONE', #53, #506, #139 ) ;
#194 = ORIENTED_EDGE ( 'NONE', *, *, #420, .T. ) ;
#195 = CYLINDRICAL_SURFACE ( 'NONE', #350, 0.2000000000000000944 ) ;
#196 = ORIENTED_EDGE ( 'NONE', *, *, #240, .T. ) ;
#197 = APPROVAL ( #224, 'UNSPECIFIED' ) ;
#198 = DIRECTION ( 'NONE',  ( 0.000000000000000000, 0.000000000000000000, 1.000000000000000000 ) ) ;
#199 = AXIS2_PLACEMENT_3D ( 'NONE', #439, #64, #68 ) ;
#200 = ORIENTED_EDGE ( 'NONE', *, *, #84, .T. ) ;
#201 = ORIENTED_EDGE ( 'NONE', *, *, #240, .F. ) ;
#202 = FACE_OUTER_BOUND ( 'NONE', #207, .T. ) ;
#203 = ORIENTED_EDGE ( 'NONE', *, *, #205, .T. ) ;
#204 = CIRCLE ( 'NONE', #25, 0.2000000000000000944 ) ;
#205 = EDGE_CURVE ( 'NONE', #112, #32, #511, .T. ) ;
#206 = SPHERICAL_SURFACE ( 'NONE', #479, 0.2000000000000000111 ) ;
#207 = EDGE_LOOP ( 'NONE', ( #399, #30, #437, #105, #22, #371, #517, #115 ) ) ;
#208 = CARTESIAN_POINT ( 'NONE',  ( 3.999999999999998224, 0.000000000000000000, 1.800000000000000488 ) ) ;
#209 = CARTESIAN_POINT ( 'NONE',  ( 3.799999999999998046, 2.000000000000000000, 2.000000000000000444 ) ) ;
#210 = EDGE_CURVE ( 'NONE', #112, #24, #540, .T. ) ;
#211 = PRODUCT_DEFINITION_FORMATION_WITH_SPECIFIED_SOURCE ( 'ANY', '', #293, .NOT_KNOWN. ) ;
#212 = AXIS2_PLACEMENT_3D ( 'NONE', #477, #406, #113 ) ;
#213 = CARTESIAN_POINT ( 'NONE',  ( -4.000000000000001776, 1.800000000000000044, -1.799999999999999600 ) ) ;
#214 = AXIS2_PLACEMENT_3D ( 'NONE', #134, #507, #185 ) ;
#215 = LINE ( 'NONE', #209, #86 ) ;
#216 = CARTESIAN_POINT ( 'NONE',  ( 0.000000000000000000, 0.000000000000000000, 0.000000000000000000 ) ) ;
#217 = CARTESIAN_POINT ( 'NONE',  ( 3.799999999999998046, 2.000000000000000000, -1.799999999999999600 ) ) ;
#218 = EDGE_CURVE ( 'NONE', #440, #63, #473, .T. ) ;
#219 = DATE_TIME_ROLE ( 'creation_date' ) ;
#220 = LINE ( 'NONE', #385, #452 ) ;
#221 = MANIFOLD_SOLID_BREP ( '\X2\570689d2\X0\1', #330 ) ;
#222 = CIRCLE ( 'NONE', #442, 0.2000000000000000944 ) ;
#223 = CARTESIAN_POINT ( 'NONE',  ( 3.799999999999998046, 0.000000000000000000, 2.000000000000000444 ) ) ;
#224 = APPROVAL_STATUS ( 'not_yet_approved' ) ;
#225 = DIRECTION ( 'NONE',  ( -1.000000000000000000, 0.000000000000000000, 0.000000000000000000 ) ) ;
#226 = EDGE_CURVE ( 'NONE', #182, #286, #486, .T. ) ;
#227 = DESIGN_CONTEXT ( 'detailed design', #435, 'design' ) ;
#228 = VECTOR ( 'NONE', #495, 1000.000000000000000 ) ;
#229 = COORDINATED_UNIVERSAL_TIME_OFFSET ( 8, 0, .AHEAD. ) ;
#230 = DIRECTION ( 'NONE',  ( -0.000000000000000000, 1.000000000000000000, 0.000000000000000000 ) ) ;
#231 = VECTOR ( 'NONE', #489, 1000.000000000000000 ) ;
#232 = VERTEX_POINT ( 'NONE', #223 ) ;
#233 = LINE ( 'NONE', #513, #238 ) ;
#234 = CIRCLE ( 'NONE', #130, 0.2000000000000000944 ) ;
#235 = CARTESIAN_POINT ( 'NONE',  ( -4.000000000000001776, 2.000000000000000000, -1.799999999999999600 ) ) ;
#236 = CARTESIAN_POINT ( 'NONE',  ( -3.799999999999999822, 2.000000000000000000, 1.800000000000000488 ) ) ;
#237 = VERTEX_POINT ( 'NONE', #132 ) ;
#238 = VECTOR ( 'NONE', #463, 1000.000000000000000 ) ;
#239 = CARTESIAN_POINT ( 'NONE',  ( 3.799999999999998046, 1.800000000000000044, 0.000000000000000000 ) ) ;
#240 = EDGE_CURVE ( 'NONE', #405, #286, #95, .T. ) ;
#241 = ORIENTED_EDGE ( 'NONE', *, *, #122, .F. ) ;
#242 = VECTOR ( 'NONE', #170, 1000.000000000000000 ) ;
#243 = ORIENTED_EDGE ( 'NONE', *, *, #420, .F. ) ;
#244 = FACE_OUTER_BOUND ( 'NONE', #74, .T. ) ;
#245 = ORIENTED_EDGE ( 'NONE', *, *, #218, .T. ) ;
#246 = ORIENTED_EDGE ( 'NONE', *, *, #500, .F. ) ;
#247 = FACE_OUTER_BOUND ( 'NONE', #155, .T. ) ;
#248 = EDGE_LOOP ( 'NONE', ( #487, #447, #136, #370 ) ) ;
#249 = EDGE_CURVE ( 'NONE', #10, #323, #234, .T. ) ;
#250 = EDGE_LOOP ( 'NONE', ( #192, #534, #367 ) ) ;
#251 = VERTEX_POINT ( 'NONE', #307 ) ;
#252 = CARTESIAN_POINT ( 'NONE',  ( 3.799999999999998046, 2.000000000000000000, -1.999999999999999556 ) ) ;
#253 = CARTESIAN_POINT ( 'NONE',  ( 3.799999999999998046, 1.800000000000000044, 1.800000000000000488 ) ) ;
#254 = CARTESIAN_POINT ( 'NONE',  ( 3.999999999999998224, 2.000000000000000000, -1.799999999999999600 ) ) ;
#255 = DIRECTION ( 'NONE',  ( -4.336808689942017736E-16, 0.000000000000000000, -1.000000000000000000 ) ) ;
#256 = CIRCLE ( 'NONE', #525, 0.2000000000000000944 ) ;
#257 = CIRCLE ( 'NONE', #502, 0.2000000000000000944 ) ;
#258 = DIRECTION ( 'NONE',  ( 0.000000000000000000, 0.000000000000000000, 1.000000000000000000 ) ) ;
#259 = CARTESIAN_POINT ( 'NONE',  ( -3.799999999999999822, 0.000000000000000000, 1.800000000000000488 ) ) ;
#260 = CC_DESIGN_PERSON_AND_ORGANIZATION_ASSIGNMENT ( #77, #382, ( #293 ) ) ;
#261 = AXIS2_PLACEMENT_3D ( 'NONE', #44, #501, #298 ) ;
#262 = DIRECTION ( 'NONE',  ( 0.000000000000000000, -1.000000000000000000, 0.000000000000000000 ) ) ;
#263 = CARTESIAN_POINT ( 'NONE',  ( -4.000000000000001776, 1.800000000000000044, -1.999999999999999556 ) ) ;
#264 = ADVANCED_FACE ( 'NONE', ( #13 ), #8, .T. ) ;
#265 = APPROVAL_PERSON_ORGANIZATION ( #184, #338, #345 ) ;
#266 = CARTESIAN_POINT ( 'NONE',  ( 3.799999999999998046, 2.000000000000000000, -1.799999999999999600 ) ) ;
#267 = CARTESIAN_POINT ( 'NONE',  ( 3.999999999999998224, 1.800000000000000044, 1.800000000000000488 ) ) ;
#268 = ORIENTED_EDGE ( 'NONE', *, *, #281, .F. ) ;
#269 = COORDINATED_UNIVERSAL_TIME_OFFSET ( 8, 0, .AHEAD. ) ;
#270 = AXIS2_PLACEMENT_3D ( 'NONE', #259, #305, #123 ) ;
#271 = DIRECTION ( 'NONE',  ( -0.000000000000000000, -1.000000000000000000, -0.000000000000000000 ) ) ;
#272 = EDGE_CURVE ( 'NONE', #182, #498, #233, .T. ) ;
#273 = PERSON ( 'UNSPECIFIED', 'UNSPECIFIED', 'UNSPECIFIED', ('UNSPECIFIED'), ('UNSPECIFIED'), ('UNSPECIFIED') ) ;
#274 = PERSON_AND_ORGANIZATION_ROLE ( 'creator' ) ;
#275 = DIRECTION ( 'NONE',  ( -0.000000000000000000, -0.000000000000000000, 1.000000000000000000 ) ) ;
#276 = DATE_AND_TIME ( #49, #423 ) ;
#277 = SPHERICAL_SURFACE ( 'NONE', #47, 0.2000000000000000111 ) ;
#278 = AXIS2_PLACEMENT_3D ( 'NONE', #523, #149, #198 ) ;
#279 = CC_DESIGN_SECURITY_CLASSIFICATION ( #175, ( #211 ) ) ;
#280 = CARTESIAN_POINT ( 'NONE',  ( -3.800000000000001599, 1.800000000000000044, -1.799999999999999600 ) ) ;
#281 = EDGE_CURVE ( 'NONE', #109, #182, #351, .T. ) ;
#282 = LINE ( 'NONE', #395, #135 ) ;
#283 = ORIENTED_EDGE ( 'NONE', *, *, #42, .T. ) ;
#284 = AXIS2_PLACEMENT_3D ( 'NONE', #448, #359, #104 ) ;
#285 = EDGE_LOOP ( 'NONE', ( #111, #363, #243, #17 ) ) ;
#286 = VERTEX_POINT ( 'NONE', #92 ) ;
#287 = SPHERICAL_SURFACE ( 'NONE', #199, 0.2000000000000000111 ) ;
#288 = ADVANCED_FACE ( 'NONE', ( #9 ), #348, .F. ) ;
#289 = ORIENTED_EDGE ( 'NONE', *, *, #65, .F. ) ;
#290 = VECTOR ( 'NONE', #432, 1000.000000000000000 ) ;
#291 = CARTESIAN_POINT ( 'NONE',  ( -4.000000000000001776, 0.000000000000000000, -1.799999999999999600 ) ) ;
#292 = ORIENTED_EDGE ( 'NONE', *, *, #500, .T. ) ;
#293 = PRODUCT ( 'BAR4X8T2', 'BAR4X8T2', '', ( #451 ) ) ;
#294 = CARTESIAN_POINT ( 'NONE',  ( -3.800000000000001599, 1.800000000000000044, -1.799999999999999600 ) ) ;
#295 = ORIENTED_EDGE ( 'NONE', *, *, #226, .F. ) ;
#296 = APPLICATION_PROTOCOL_DEFINITION ( 'international standard', 'config_control_design', 1994, #494 ) ;
#297 = FACE_OUTER_BOUND ( 'NONE', #75, .T. ) ;
#298 = DIRECTION ( 'NONE',  ( 0.000000000000000000, 0.000000000000000000, -1.000000000000000000 ) ) ;
#299 = DIRECTION ( 'NONE',  ( -4.336808689942017736E-16, 0.000000000000000000, -1.000000000000000000 ) ) ;
#300 = DIRECTION ( 'NONE',  ( 0.000000000000000000, 0.000000000000000000, -1.000000000000000000 ) ) ;
#301 = AXIS2_PLACEMENT_3D ( 'NONE', #73, #26, #441 ) ;
#302 = DIRECTION ( 'NONE',  ( -0.000000000000000000, 1.000000000000000000, -0.000000000000000000 ) ) ;
#303 = AXIS2_PLACEMENT_3D ( 'NONE', #217, #39, #88 ) ;
#304 = DIRECTION ( 'NONE',  ( 0.000000000000000000, -1.000000000000000000, 0.000000000000000000 ) ) ;
#305 = DIRECTION ( 'NONE',  ( -0.000000000000000000, -1.000000000000000000, -0.000000000000000000 ) ) ;
#306 = EDGE_CURVE ( 'NONE', #112, #405, #331, .T. ) ;
#307 = CARTESIAN_POINT ( 'NONE',  ( 3.799999999999998046, 1.800000000000000044, 2.000000000000000444 ) ) ;
#308 = EDGE_CURVE ( 'NONE', #24, #332, #475, .T. ) ;
#309 = DIRECTION ( 'NONE',  ( 0.000000000000000000, -1.000000000000000000, 0.000000000000000000 ) ) ;
#310 = ORIENTED_EDGE ( 'NONE', *, *, #80, .T. ) ;
#311 = CALENDAR_DATE ( 2026, 22, 3 ) ;
#312 = VECTOR ( 'NONE', #317, 1000.000000000000000 ) ;
#313 = CARTESIAN_POINT ( 'NONE',  ( -3.799999999999999822, 1.800000000000000044, 2.000000000000000444 ) ) ;
#314 = DATE_AND_TIME ( #57, #378 ) ;
#315 = CARTESIAN_POINT ( 'NONE',  ( -3.800000000000001599, 1.800000000000000044, -1.799999999999999600 ) ) ;
#316 = COORDINATED_UNIVERSAL_TIME_OFFSET ( 8, 0, .AHEAD. ) ;
#317 = DIRECTION ( 'NONE',  ( 0.000000000000000000, -1.000000000000000000, 0.000000000000000000 ) ) ;
#318 = EDGE_CURVE ( 'NONE', #332, #99, #257, .T. ) ;
#319 = DIRECTION ( 'NONE',  ( 0.000000000000000000, 0.000000000000000000, 1.000000000000000000 ) ) ;
#320 = ORIENTED_EDGE ( 'NONE', *, *, #4, .F. ) ;
#321 = APPROVAL_PERSON_ORGANIZATION ( #422, #197, #426 ) ;
#322 = PLANE ( 'NONE',  #212 ) ;
#323 = VERTEX_POINT ( 'NONE', #101 ) ;
#324 = CIRCLE ( 'NONE', #82, 0.2000000000000000944 ) ;
#325 = EDGE_CURVE ( 'NONE', #498, #232, #528, .T. ) ;
#326 = CARTESIAN_POINT ( 'NONE',  ( -3.799999999999999822, 2.000000000000000000, 2.000000000000000444 ) ) ;
#327 = ORIENTED_EDGE ( 'NONE', *, *, #306, .T. ) ;
#328 = DIRECTION ( 'NONE',  ( 0.000000000000000000, 0.000000000000000000, 1.000000000000000000 ) ) ;
#329 = EDGE_LOOP ( 'NONE', ( #178, #246, #484, #532 ) ) ;
#330 = CLOSED_SHELL ( 'NONE', ( #173, #288, #446, #28, #166, #365, #450, #1, #59, #526, #454, #264, #114, #415, #100, #408, #133, #398 ) ) ;
#331 = LINE ( 'NONE', #326, #538 ) ;
#332 = VERTEX_POINT ( 'NONE', #436 ) ;
#333 = CC_DESIGN_APPROVAL ( #338, ( #211 ) ) ;
#334 = DIRECTION ( 'NONE',  ( -0.000000000000000000, -0.000000000000000000, 1.000000000000000000 ) ) ;
#335 = FACE_OUTER_BOUND ( 'NONE', #449, .T. ) ;
#336 = CARTESIAN_POINT ( 'NONE',  ( 3.799999999999998046, 1.800000000000000044, -1.799999999999999600 ) ) ;
#337 = DIRECTION ( 'NONE',  ( 0.000000000000000000, 0.000000000000000000, -1.000000000000000000 ) ) ;
#338 = APPROVAL ( #45, 'UNSPECIFIED' ) ;
#339 = DIRECTION ( 'NONE',  ( 0.000000000000000000, 1.000000000000000000, 0.000000000000000000 ) ) ;
#340 = DIRECTION ( 'NONE',  ( -1.000000000000000000, -0.000000000000000000, -0.000000000000000000 ) ) ;
#341 = FACE_OUTER_BOUND ( 'NONE', #285, .T. ) ;
#342 = LINE ( 'NONE', #252, #455 ) ;
#343 = EDGE_CURVE ( 'NONE', #157, #232, #282, .T. ) ;
#344 = CARTESIAN_POINT ( 'NONE',  ( 0.000000000000000000, 1.800000000000000044, -1.799999999999999600 ) ) ;
#345 = APPROVAL_ROLE ( '' ) ;
#346 = CARTESIAN_POINT ( 'NONE',  ( -3.799999999999999822, 0.000000000000000000, 2.000000000000000444 ) ) ;
#347 = PERSON_AND_ORGANIZATION ( #273, #464 ) ;
#348 = PLANE ( 'NONE',  #151 ) ;
#349 = ORIENTED_EDGE ( 'NONE', *, *, #381, .T. ) ;
#350 = AXIS2_PLACEMENT_3D ( 'NONE', #239, #29, #369 ) ;
#351 = LINE ( 'NONE', #174, #397 ) ;
#352 = CC_DESIGN_PERSON_AND_ORGANIZATION_ASSIGNMENT ( #512, #141, ( #211 ) ) ;
#353 = DATE_AND_TIME ( #5, #438 ) ;
#354 = VECTOR ( 'NONE', #83, 1000.000000000000000 ) ;
#355 = CARTESIAN_POINT ( 'NONE',  ( -4.000000000000001776, 0.000000000000000000, -1.999999999999999556 ) ) ;
#356 = EDGE_CURVE ( 'NONE', #498, #323, #366, .T. ) ;
#357 = PERSON_AND_ORGANIZATION_ROLE ( 'classification_officer' ) ;
#358 = DIRECTION ( 'NONE',  ( -1.000000000000000000, 0.000000000000000000, 0.000000000000000000 ) ) ;
#359 = DIRECTION ( 'NONE',  ( -1.000000000000000000, 0.000000000000000000, 0.000000000000000000 ) ) ;
#360 = ORIENTED_EDGE ( 'NONE', *, *, #306, .F. ) ;
#361 = CARTESIAN_POINT ( 'NONE',  ( 3.799999999999998046, 1.800000000000000044, -1.799999999999999600 ) ) ;
#362 = AXIS2_PLACEMENT_3D ( 'NONE', #493, #255, #393 ) ;
#363 = ORIENTED_EDGE ( 'NONE', *, *, #272, .F. ) ;
#364 = ORIENTED_EDGE ( 'NONE', *, *, #4, .T. ) ;
#365 = ADVANCED_FACE ( 'NONE', ( #202 ), #322, .F. ) ;
#366 = LINE ( 'NONE', #31, #56 ) ;
#367 = ORIENTED_EDGE ( 'NONE', *, *, #205, .F. ) ;
#368 = AXIS2_PLACEMENT_3D ( 'NONE', #70, #169, #299 ) ;
#369 = DIRECTION ( 'NONE',  ( 1.000000000000000000, 0.000000000000000000, 0.000000000000000000 ) ) ;
#370 = ORIENTED_EDGE ( 'NONE', *, *, #183, .F. ) ;
#371 = ORIENTED_EDGE ( 'NONE', *, *, #249, .T. ) ;
#372 = CARTESIAN_POINT ( 'NONE',  ( -4.000000000000000000, 2.000000000000000000, 1.800000000000000488 ) ) ;
#373 = EDGE_LOOP ( 'NONE', ( #403, #148, #146, #491 ) ) ;
#374 = ORIENTED_EDGE ( 'NONE', *, *, #84, .F. ) ;
#375 = LINE ( 'NONE', #254, #228 ) ;
#376 = LINE ( 'NONE', #419, #433 ) ;
#377 = EDGE_CURVE ( 'NONE', #24, #32, #508, .T. ) ;
#378 = LOCAL_TIME ( 15, 19, 23.00000000000000000, #229 ) ;
#379 = FACE_OUTER_BOUND ( 'NONE', #329, .T. ) ;
#380 = AXIS2_PLACEMENT_3D ( 'NONE', #117, #300, #462 ) ;
#381 = EDGE_CURVE ( 'NONE', #237, #150, #431, .T. ) ;
#382 = PERSON_AND_ORGANIZATION_ROLE ( 'design_owner' ) ;
#383 = LINE ( 'NONE', #263, #242 ) ;
#384 = FACE_OUTER_BOUND ( 'NONE', #250, .T. ) ;
#385 = CARTESIAN_POINT ( 'NONE',  ( -3.799999999999999822, 2.000000000000000000, 2.000000000000000444 ) ) ;
#386 = DIRECTION ( 'NONE',  ( 0.000000000000000000, 0.000000000000000000, -1.000000000000000000 ) ) ;
#387 = CARTESIAN_POINT ( 'NONE',  ( -3.799999999999999822, 2.000000000000000000, 1.800000000000000488 ) ) ;
#388 = EDGE_LOOP ( 'NONE', ( #327, #196, #283, #33 ) ) ;
#389 = CARTESIAN_POINT ( 'NONE',  ( 3.999999999999998224, 2.000000000000000000, 1.800000000000000488 ) ) ;
#390 = DIRECTION ( 'NONE',  ( 0.000000000000000000, 0.000000000000000000, 1.000000000000000000 ) ) ;
#391 = ORIENTED_EDGE ( 'NONE', *, *, #11, .F. ) ;
#392 = CIRCLE ( 'NONE', #270, 0.2000000000000000944 ) ;
#393 = DIRECTION ( 'NONE',  ( -1.000000000000000000, 0.000000000000000000, 4.336808689942019215E-16 ) ) ;
#394 = EDGE_CURVE ( 'NONE', #63, #237, #145, .T. ) ;
#395 = CARTESIAN_POINT ( 'NONE',  ( -4.000000000000000000, 0.000000000000000000, 2.000000000000000444 ) ) ;
#396 = CARTESIAN_POINT ( 'NONE',  ( -4.000000000000000000, 1.800000000000000044, 2.000000000000000444 ) ) ;
#397 = VECTOR ( 'NONE', #421, 1000.000000000000000 ) ;
#398 = ADVANCED_FACE ( 'NONE', ( #62 ), #531, .T. ) ;
#399 = ORIENTED_EDGE ( 'NONE', *, *, #343, .F. ) ;
#400 = DIRECTION ( 'NONE',  ( -0.000000000000000000, -0.000000000000000000, -1.000000000000000000 ) ) ;
#401 = VECTOR ( 'NONE', #225, 1000.000000000000000 ) ;
#402 = ORIENTED_EDGE ( 'NONE', *, *, #424, .F. ) ;
#403 = ORIENTED_EDGE ( 'NONE', *, *, #356, .T. ) ;
#404 = DIRECTION ( 'NONE',  ( 1.000000000000000000, 0.000000000000000000, -0.000000000000000000 ) ) ;
#405 = VERTEX_POINT ( 'NONE', #236 ) ;
#406 = DIRECTION ( 'NONE',  ( 0.000000000000000000, 1.000000000000000000, 0.000000000000000000 ) ) ;
#407 = ORIENTED_EDGE ( 'NONE', *, *, #76, .F. ) ;
#408 = ADVANCED_FACE ( 'NONE', ( #108 ), #287, .T. ) ;
#409 = CARTESIAN_POINT ( 'NONE',  ( -3.800000000000001599, 0.000000000000000000, -1.999999999999999556 ) ) ;
#410 = ORIENTED_EDGE ( 'NONE', *, *, #76, .T. ) ;
#411 = CARTESIAN_POINT ( 'NONE',  ( -3.800000000000001599, 2.000000000000000000, -1.799999999999999600 ) ) ;
#412 = CARTESIAN_POINT ( 'NONE',  ( -3.799999999999999822, 1.800000000000000044, 1.800000000000000488 ) ) ;
#413 =( LENGTH_UNIT ( ) NAMED_UNIT ( * ) SI_UNIT ( .MILLI., .METRE. ) );
#414 = CYLINDRICAL_SURFACE ( 'NONE', #140, 0.2000000000000000944 ) ;
#415 = ADVANCED_FACE ( 'NONE', ( #244 ), #195, .T. ) ;
#416 = DIRECTION ( 'NONE',  ( -1.000000000000000000, 0.000000000000000000, 0.000000000000000000 ) ) ;
#417 = CARTESIAN_POINT ( 'NONE',  ( -3.800000000000001599, 1.800000000000000044, -1.999999999999999556 ) ) ;
#418 = CYLINDRICAL_SURFACE ( 'NONE', #261, 0.2000000000000000944 ) ;
#419 = CARTESIAN_POINT ( 'NONE',  ( 3.799999999999998046, 2.000000000000000000, -1.999999999999999556 ) ) ;
#420 = EDGE_CURVE ( 'NONE', #251, #182, #256, .T. ) ;
#421 = DIRECTION ( 'NONE',  ( -0.000000000000000000, -0.000000000000000000, 1.000000000000000000 ) ) ;
#422 = PERSON_AND_ORGANIZATION ( #273, #464 ) ;
#423 = LOCAL_TIME ( 15, 19, 23.00000000000000000, #269 ) ;
#424 = EDGE_CURVE ( 'NONE', #251, #150, #485, .T. ) ;
#425 = DIRECTION ( 'NONE',  ( 0.000000000000000000, 0.000000000000000000, 1.000000000000000000 ) ) ;
#426 = APPROVAL_ROLE ( '' ) ;
#427 = DIRECTION ( 'NONE',  ( -1.000000000000000000, 0.000000000000000000, 0.000000000000000000 ) ) ;
#428 = ORIENTED_EDGE ( 'NONE', *, *, #381, .F. ) ;
#429 = AXIS2_PLACEMENT_3D ( 'NONE', #492, #456, #129 ) ;
#430 = DATE_TIME_ROLE ( 'classification_date' ) ;
#431 = CIRCLE ( 'NONE', #278, 0.2000000000000000944 ) ;
#432 = DIRECTION ( 'NONE',  ( 4.336808689942017736E-16, 0.000000000000000000, 1.000000000000000000 ) ) ;
#433 = VECTOR ( 'NONE', #337, 1000.000000000000000 ) ;
#434 = DIRECTION ( 'NONE',  ( 0.000000000000000000, 0.000000000000000000, 1.000000000000000000 ) ) ;
#435 = APPLICATION_CONTEXT ( 'configuration controlled 3d designs of mechanical parts and assemblies' ) ;
#436 = CARTESIAN_POINT ( 'NONE',  ( 3.799999999999998046, 1.800000000000000044, -1.999999999999999556 ) ) ;
#437 = ORIENTED_EDGE ( 'NONE', *, *, #218, .F. ) ;
#438 = LOCAL_TIME ( 15, 19, 23.00000000000000000, #40 ) ;
#439 = CARTESIAN_POINT ( 'NONE',  ( -3.799999999999999822, 1.800000000000000044, 1.800000000000000488 ) ) ;
#440 = VERTEX_POINT ( 'NONE', #291 ) ;
#441 = DIRECTION ( 'NONE',  ( 4.336808689942015369E-15, 0.000000000000000000, 1.000000000000000000 ) ) ;
#442 = AXIS2_PLACEMENT_3D ( 'NONE', #253, #127, #504 ) ;
#443 = PRODUCT_RELATED_PRODUCT_CATEGORY ( 'detail', '', ( #293 ) ) ;
#444 = ORIENTED_EDGE ( 'NONE', *, *, #65, .T. ) ;
#445 = PLANE ( 'NONE',  #368 ) ;
#446 = ADVANCED_FACE ( 'NONE', ( #247 ), #445, .F. ) ;
#447 = ORIENTED_EDGE ( 'NONE', *, *, #308, .F. ) ;
#448 = CARTESIAN_POINT ( 'NONE',  ( 0.000000000000000000, 1.800000000000000044, 1.800000000000000488 ) ) ;
#449 = EDGE_LOOP ( 'NONE', ( #203, #374, #289, #360 ) ) ;
#450 = ADVANCED_FACE ( 'NONE', ( #162 ), #536, .T. ) ;
#451 = MECHANICAL_CONTEXT ( 'NONE', #494, 'mechanical' ) ;
#452 = VECTOR ( 'NONE', #6, 1000.000000000000000 ) ;
#453 = CYLINDRICAL_SURFACE ( 'NONE', #303, 0.2000000000000000944 ) ;
#454 = ADVANCED_FACE ( 'NONE', ( #503 ), #206, .T. ) ;
#455 = VECTOR ( 'NONE', #304, 1000.000000000000000 ) ;
#456 = DIRECTION ( 'NONE',  ( 0.000000000000000000, 1.000000000000000000, 0.000000000000000000 ) ) ;
#457 = CARTESIAN_POINT ( 'NONE',  ( -4.000000000000000000, 0.000000000000000000, 1.800000000000000488 ) ) ;
#458 = APPROVAL_STATUS ( 'not_yet_approved' ) ;
#459 = DIRECTION ( 'NONE',  ( 0.000000000000000000, -0.000000000000000000, 1.000000000000000000 ) ) ;
#460 = VECTOR ( 'NONE', #58, 1000.000000000000000 ) ;
#461 = DIRECTION ( 'NONE',  ( -0.000000000000000000, 1.000000000000000000, 0.000000000000000000 ) ) ;
#462 = DIRECTION ( 'NONE',  ( -1.000000000000000000, 0.000000000000000000, -0.000000000000000000 ) ) ;
#463 = DIRECTION ( 'NONE',  ( 0.000000000000000000, -1.000000000000000000, 0.000000000000000000 ) ) ;
#464 = ORGANIZATION ( 'UNSPECIFIED', 'UNSPECIFIED', '' ) ;
#465 = AXIS2_PLACEMENT_3D ( 'NONE', #387, #309, #177 ) ;
#466 = FACE_OUTER_BOUND ( 'NONE', #388, .T. ) ;
#467 = ORIENTED_EDGE ( 'NONE', *, *, #159, .F. ) ;
#468 = AXIS2_PLACEMENT_3D ( 'NONE', #280, #275, #358 ) ;
#469 = PERSON_AND_ORGANIZATION ( #273, #464 ) ;
#470 = CARTESIAN_POINT ( 'NONE',  ( -3.800000000000001599, 0.000000000000000000, -1.799999999999999600 ) ) ;
#471 = EDGE_CURVE ( 'NONE', #109, #332, #324, .T. ) ;
#472 = COORDINATED_UNIVERSAL_TIME_OFFSET ( 8, 0, .AHEAD. ) ;
#473 = LINE ( 'NONE', #355, #290 ) ;
#474 = CARTESIAN_POINT ( 'NONE',  ( 3.799999999999998046, 1.800000000000000044, 1.800000000000000488 ) ) ;
#475 = LINE ( 'NONE', #191, #231 ) ;
#476 = ORIENTED_EDGE ( 'NONE', *, *, #308, .T. ) ;
#477 = CARTESIAN_POINT ( 'NONE',  ( 0.000000000000000000, 0.000000000000000000, 0.000000000000000000 ) ) ;
#478 = ORIENTED_EDGE ( 'NONE', *, *, #42, .F. ) ;
#479 = AXIS2_PLACEMENT_3D ( 'NONE', #79, #339, #164 ) ;
#480 = ORIENTED_EDGE ( 'NONE', *, *, #7, .T. ) ;
#481 = CC_DESIGN_DATE_AND_TIME_ASSIGNMENT ( #276, #430, ( #175 ) ) ;
#482 = CC_DESIGN_APPROVAL ( #522, ( #55 ) ) ;
#483 = DIRECTION ( 'NONE',  ( -0.000000000000000000, 1.000000000000000000, -0.000000000000000000 ) ) ;
#484 = ORIENTED_EDGE ( 'NONE', *, *, #471, .F. ) ;
#485 = LINE ( 'NONE', #396, #180 ) ;
#486 = CIRCLE ( 'NONE', #16, 0.2000000000000000944 ) ;
#487 = ORIENTED_EDGE ( 'NONE', *, *, #318, .F. ) ;
#488 = ORIENTED_EDGE ( 'NONE', *, *, #122, .T. ) ;
#489 = DIRECTION ( 'NONE',  ( 1.000000000000000000, -0.000000000000000000, -0.000000000000000000 ) ) ;
#490 = ORIENTED_EDGE ( 'NONE', *, *, #226, .T. ) ;
#491 = ORIENTED_EDGE ( 'NONE', *, *, #272, .T. ) ;
#492 = CARTESIAN_POINT ( 'NONE',  ( -3.800000000000001599, 1.800000000000000044, -1.799999999999999600 ) ) ;
#493 = CARTESIAN_POINT ( 'NONE',  ( -3.800000000000000711, 1.800000000000000044, 1.647987302177967134E-15 ) ) ;
#494 = APPLICATION_CONTEXT ( 'configuration controlled 3d designs of mechanical parts and assemblies' ) ;
#495 = DIRECTION ( 'NONE',  ( -0.000000000000000000, 1.000000000000000000, -0.000000000000000000 ) ) ;
#496 = ORIENTED_EDGE ( 'NONE', *, *, #471, .T. ) ;
#497 = DIRECTION ( 'NONE',  ( 0.000000000000000000, 0.000000000000000000, 1.000000000000000000 ) ) ;
#498 = VERTEX_POINT ( 'NONE', #208 ) ;
#499 = AXIS2_PLACEMENT_3D ( 'NONE', #411, #262, #171 ) ;
#500 = EDGE_CURVE ( 'NONE', #332, #10, #342, .T. ) ;
#501 = DIRECTION ( 'NONE',  ( 0.000000000000000000, -1.000000000000000000, 0.000000000000000000 ) ) ;
#502 = AXIS2_PLACEMENT_3D ( 'NONE', #361, #147, #190 ) ;
#503 = FACE_OUTER_BOUND ( 'NONE', #161, .T. ) ;
#504 = DIRECTION ( 'NONE',  ( 0.000000000000000000, 0.000000000000000000, -1.000000000000000000 ) ) ;
#505 = SECURITY_CLASSIFICATION_LEVEL ( 'unclassified' ) ;
#506 = DIRECTION ( 'NONE',  ( -1.000000000000000000, 0.000000000000000000, 0.000000000000000000 ) ) ;
#507 = DIRECTION ( 'NONE',  ( 0.000000000000000000, 1.000000000000000000, 0.000000000000000000 ) ) ;
#508 = CIRCLE ( 'NONE', #126, 0.2000000000000000944 ) ;
#509 = EDGE_CURVE ( 'NONE', #323, #109, #375, .T. ) ;
#510 = LINE ( 'NONE', #235, #312 ) ;
#511 = CIRCLE ( 'NONE', #468, 0.2000000000000000944 ) ;
#512 = PERSON_AND_ORGANIZATION ( #273, #464 ) ;
#513 = CARTESIAN_POINT ( 'NONE',  ( 3.999999999999998224, 2.000000000000000000, 1.800000000000000488 ) ) ;
#514 = FACE_OUTER_BOUND ( 'NONE', #72, .T. ) ;
#515 = DIRECTION ( 'NONE',  ( 1.000000000000000000, 0.000000000000000000, 0.000000000000000000 ) ) ;
#516 = EDGE_CURVE ( 'NONE', #109, #99, #124, .T. ) ;
#517 = ORIENTED_EDGE ( 'NONE', *, *, #356, .F. ) ;
#518 = UNCERTAINTY_MEASURE_WITH_UNIT (LENGTH_MEASURE( 1.000000000000000082E-05 ), #413, 'distance_accuracy_value', 'NONE');
#519 = CARTESIAN_POINT ( 'NONE',  ( -4.000000000000001776, 2.000000000000000000, -1.999999999999999556 ) ) ;
#520 = ORIENTED_EDGE ( 'NONE', *, *, #20, .F. ) ;
#521 = ORIENTED_EDGE ( 'NONE', *, *, #424, .T. ) ;
#522 = APPROVAL ( #458, 'UNSPECIFIED' ) ;
#523 = CARTESIAN_POINT ( 'NONE',  ( -3.799999999999999822, 1.800000000000000044, 1.800000000000000488 ) ) ;
#524 = ORIENTED_EDGE ( 'NONE', *, *, #377, .F. ) ;
#525 = AXIS2_PLACEMENT_3D ( 'NONE', #153, #160, #328 ) ;
#526 = ADVANCED_FACE ( 'NONE', ( #384 ), #119, .T. ) ;
#527 = DIRECTION ( 'NONE',  ( 0.000000000000000000, 1.000000000000000000, 0.000000000000000000 ) ) ;
#528 = CIRCLE ( 'NONE', #301, 0.2000000000000000944 ) ;
#529 = EDGE_LOOP ( 'NONE', ( #520, #116, #428, #106 ) ) ;
#530 = VERTEX_POINT ( 'NONE', #409 ) ;
#531 = CYLINDRICAL_SURFACE ( 'NONE', #284, 0.2000000000000000944 ) ;
#532 = ORIENTED_EDGE ( 'NONE', *, *, #509, .F. ) ;
#533 = DIRECTION ( 'NONE',  ( 1.000000000000000000, 0.000000000000000000, 0.000000000000000000 ) ) ;
#534 = ORIENTED_EDGE ( 'NONE', *, *, #377, .T. ) ;
#535 = ORIENTED_EDGE ( 'NONE', *, *, #11, .T. ) ;
#536 = CYLINDRICAL_SURFACE ( 'NONE', #499, 0.2000000000000000944 ) ;
#537 = LOCAL_TIME ( 15, 19, 23.00000000000000000, #316 ) ;
#538 = VECTOR ( 'NONE', #23, 1000.000000000000000 ) ;
#539 = CARTESIAN_POINT ( 'NONE',  ( 3.799999999999998046, 0.000000000000000000, -1.999999999999999556 ) ) ;
#540 = CIRCLE ( 'NONE', #67, 0.2000000000000000944 ) ;
#541 = FACE_OUTER_BOUND ( 'NONE', #248, .T. ) ;
ENDSEC;
END-ISO-10303-21;
