ISO-10303-21;
HEADER;
FILE_DESCRIPTION (( 'STEP AP203' ),
    '1' );
FILE_NAME ('BAR4X6T2.step',
    '2026-03-22T07:19:40',
    ( '' ),
    ( '' ),
    'SwSTEP 2.0',
    'SolidWorks 2025',
    '' );
FILE_SCHEMA (( 'CONFIG_CONTROL_DESIGN' ));
ENDSEC;

DATA;
#1 = ADVANCED_FACE ( 'NONE', ( #32 ), #243, .T. ) ;
#2 = SHAPE_DEFINITION_REPRESENTATION ( #413, #396 ) ;
#3 = CARTESIAN_POINT ( 'NONE',  ( 3.000000000000001332, 2.000000000000000000, 1.800000000000000044 ) ) ;
#4 = PERSON_AND_ORGANIZATION ( #468, #184 ) ;
#5 = DIRECTION ( 'NONE',  ( 1.000000000000000000, -0.000000000000000000, 0.000000000000000000 ) ) ;
#6 = CC_DESIGN_DATE_AND_TIME_ASSIGNMENT ( #382, #342, ( #47 ) ) ;
#7 = ORIENTED_EDGE ( 'NONE', *, *, #529, .F. ) ;
#8 = CIRCLE ( 'NONE', #129, 0.2000000000000000944 ) ;
#9 = APPROVAL_ROLE ( '' ) ;
#10 = CYLINDRICAL_SURFACE ( 'NONE', #417, 0.2000000000000000944 ) ;
#11 = CYLINDRICAL_SURFACE ( 'NONE', #21, 0.2000000000000000944 ) ;
#12 = VERTEX_POINT ( 'NONE', #33 ) ;
#13 = CARTESIAN_POINT ( 'NONE',  ( -2.799999999999999378, 1.800000000000000044, 1.800000000000000044 ) ) ;
#14 = ORIENTED_EDGE ( 'NONE', *, *, #411, .T. ) ;
#15 = APPROVAL_PERSON_ORGANIZATION ( #254, #357, #291 ) ;
#16 = CARTESIAN_POINT ( 'NONE',  ( -2.999999999999999556, 2.000000000000000000, 1.800000000000000044 ) ) ;
#17 = EDGE_CURVE ( 'NONE', #436, #455, #145, .T. ) ;
#18 = EDGE_LOOP ( 'NONE', ( #245, #354, #172, #475 ) ) ;
#19 = ADVANCED_FACE ( 'NONE', ( #284 ), #195, .F. ) ;
#20 = EDGE_CURVE ( 'NONE', #50, #230, #305, .T. ) ;
#21 = AXIS2_PLACEMENT_3D ( 'NONE', #438, #433, #302 ) ;
#22 = DIRECTION ( 'NONE',  ( 1.000000000000000000, 0.000000000000000000, -4.336808689942019215E-16 ) ) ;
#23 = VERTEX_POINT ( 'NONE', #328 ) ;
#24 = FACE_OUTER_BOUND ( 'NONE', #153, .T. ) ;
#25 = VERTEX_POINT ( 'NONE', #495 ) ;
#26 = VECTOR ( 'NONE', #86, 1000.000000000000000 ) ;
#27 = DIRECTION ( 'NONE',  ( 0.000000000000000000, -0.000000000000000000, 1.000000000000000000 ) ) ;
#28 = ORIENTED_EDGE ( 'NONE', *, *, #518, .F. ) ;
#29 = VECTOR ( 'NONE', #252, 1000.000000000000000 ) ;
#30 =( NAMED_UNIT ( * ) SI_UNIT ( $, .STERADIAN. ) SOLID_ANGLE_UNIT ( ) );
#31 = DIRECTION ( 'NONE',  ( 0.000000000000000000, 0.000000000000000000, 1.000000000000000000 ) ) ;
#32 = FACE_OUTER_BOUND ( 'NONE', #480, .T. ) ;
#33 = CARTESIAN_POINT ( 'NONE',  ( 2.799999999999998934, 0.000000000000000000, -2.000000000000000000 ) ) ;
#34 = EDGE_CURVE ( 'NONE', #517, #434, #122, .T. ) ;
#35 = EDGE_LOOP ( 'NONE', ( #181, #336, #134, #132 ) ) ;
#36 = AXIS2_PLACEMENT_3D ( 'NONE', #516, #90, #98 ) ;
#37 = CARTESIAN_POINT ( 'NONE',  ( -2.799999999999999378, 1.800000000000000044, 1.800000000000000044 ) ) ;
#38 = FACE_OUTER_BOUND ( 'NONE', #439, .T. ) ;
#39 = AXIS2_PLACEMENT_3D ( 'NONE', #188, #363, #534 ) ;
#40 = APPROVAL_DATE_TIME ( #165, #357 ) ;
#41 = CARTESIAN_POINT ( 'NONE',  ( 3.000000000000001332, 2.000000000000000000, 1.800000000000000044 ) ) ;
#42 = APPROVAL_DATE_TIME ( #213, #94 ) ;
#43 = ADVANCED_FACE ( 'NONE', ( #235 ), #407, .F. ) ;
#44 = FACE_OUTER_BOUND ( 'NONE', #461, .T. ) ;
#45 = CARTESIAN_POINT ( 'NONE',  ( -2.799999999999999378, 2.000000000000000000, 1.800000000000000044 ) ) ;
#46 = EDGE_LOOP ( 'NONE', ( #478, #91, #53, #257, #296, #96, #349, #402 ) ) ;
#47 = SECURITY_CLASSIFICATION ( '', '', #464 ) ;
#48 = PLANE ( 'NONE',  #512 ) ;
#49 = CARTESIAN_POINT ( 'NONE',  ( 2.999999999999999556, 0.000000000000000000, -2.000000000000000000 ) ) ;
#50 = VERTEX_POINT ( 'NONE', #189 ) ;
#51 = DIRECTION ( 'NONE',  ( 1.000000000000000000, -2.168404344971008079E-15, 0.000000000000000000 ) ) ;
#52 = EDGE_CURVE ( 'NONE', #230, #155, #452, .T. ) ;
#53 = ORIENTED_EDGE ( 'NONE', *, *, #427, .F. ) ;
#54 = EDGE_CURVE ( 'NONE', #12, #436, #525, .T. ) ;
#55 = DIRECTION ( 'NONE',  ( 1.000000000000000000, 0.000000000000000000, 0.000000000000000000 ) ) ;
#56 = EDGE_LOOP ( 'NONE', ( #535, #523, #161, #442 ) ) ;
#57 = AXIS2_PLACEMENT_3D ( 'NONE', #521, #92, #131 ) ;
#58 = PRODUCT_RELATED_PRODUCT_CATEGORY ( 'detail', '', ( #282 ) ) ;
#59 = DIRECTION ( 'NONE',  ( 0.000000000000000000, 0.000000000000000000, 1.000000000000000000 ) ) ;
#60 = ORIENTED_EDGE ( 'NONE', *, *, #106, .T. ) ;
#61 = EDGE_LOOP ( 'NONE', ( #85, #270, #186, #359 ) ) ;
#62 =( NAMED_UNIT ( * ) PLANE_ANGLE_UNIT ( ) SI_UNIT ( $, .RADIAN. ) );
#63 = AXIS2_PLACEMENT_3D ( 'NONE', #144, #70, #414 ) ;
#64 = CARTESIAN_POINT ( 'NONE',  ( -2.799999999999999378, 0.000000000000000000, 1.800000000000000044 ) ) ;
#65 = ORIENTED_EDGE ( 'NONE', *, *, #17, .F. ) ;
#66 = MECHANICAL_CONTEXT ( 'NONE', #373, 'mechanical' ) ;
#67 = EDGE_CURVE ( 'NONE', #23, #110, #483, .T. ) ;
#68 = CARTESIAN_POINT ( 'NONE',  ( 2.799999999999999822, 0.000000000000000000, 2.000000000000000000 ) ) ;
#69 = MANIFOLD_SOLID_BREP ( '\X2\570689d2\X0\1', #379 ) ;
#70 = DIRECTION ( 'NONE',  ( 0.000000000000000000, 1.000000000000000000, 0.000000000000000000 ) ) ;
#71 = CARTESIAN_POINT ( 'NONE',  ( -3.000000000000000444, 2.000000000000000000, -1.800000000000000044 ) ) ;
#72 = COORDINATED_UNIVERSAL_TIME_OFFSET ( 8, 0, .AHEAD. ) ;
#73 = LINE ( 'NONE', #168, #311 ) ;
#74 = ORIENTED_EDGE ( 'NONE', *, *, #109, .T. ) ;
#75 = COORDINATED_UNIVERSAL_TIME_OFFSET ( 8, 0, .AHEAD. ) ;
#76 = DIRECTION ( 'NONE',  ( 1.000000000000000000, 0.000000000000000000, 0.000000000000000000 ) ) ;
#77 = VECTOR ( 'NONE', #81, 1000.000000000000000 ) ;
#78 = ORIENTED_EDGE ( 'NONE', *, *, #227, .F. ) ;
#79 = AXIS2_PLACEMENT_3D ( 'NONE', #482, #408, #236 ) ;
#80 = ADVANCED_FACE ( 'NONE', ( #449 ), #241, .T. ) ;
#81 = DIRECTION ( 'NONE',  ( 0.000000000000000000, -1.000000000000000000, 0.000000000000000000 ) ) ;
#82 = CIRCLE ( 'NONE', #125, 0.2000000000000000944 ) ;
#83 = DATE_TIME_ROLE ( 'creation_date' ) ;
#84 = CARTESIAN_POINT ( 'NONE',  ( 2.800000000000001155, 2.000000000000000000, 1.800000000000000044 ) ) ;
#85 = ORIENTED_EDGE ( 'NONE', *, *, #427, .T. ) ;
#86 = DIRECTION ( 'NONE',  ( 1.000000000000000000, 0.000000000000000000, 0.000000000000000000 ) ) ;
#87 = AXIS2_PLACEMENT_3D ( 'NONE', #435, #51, #221 ) ;
#88 = LINE ( 'NONE', #171, #299 ) ;
#89 = ORIENTED_EDGE ( 'NONE', *, *, #208, .F. ) ;
#90 = DIRECTION ( 'NONE',  ( -1.000000000000000000, 0.000000000000000000, 0.000000000000000000 ) ) ;
#91 = ORIENTED_EDGE ( 'NONE', *, *, #34, .T. ) ;
#92 = DIRECTION ( 'NONE',  ( 0.000000000000000000, -1.000000000000000000, 0.000000000000000000 ) ) ;
#93 = ORIENTED_EDGE ( 'NONE', *, *, #351, .F. ) ;
#94 = APPROVAL ( #289, 'UNSPECIFIED' ) ;
#95 = CARTESIAN_POINT ( 'NONE',  ( 2.800000000000000266, 1.800000000000000044, -1.214306433183765163E-15 ) ) ;
#96 = ORIENTED_EDGE ( 'NONE', *, *, #366, .T. ) ;
#97 = AXIS2_PLACEMENT_3D ( 'NONE', #13, #312, #173 ) ;
#98 = DIRECTION ( 'NONE',  ( 0.000000000000000000, 0.000000000000000000, 1.000000000000000000 ) ) ;
#99 = ORIENTED_EDGE ( 'NONE', *, *, #146, .F. ) ;
#100 = CARTESIAN_POINT ( 'NONE',  ( 2.799999999999999378, 1.800000000000000044, -1.800000000000000044 ) ) ;
#101 = CARTESIAN_POINT ( 'NONE',  ( 2.999999999999999556, 2.000000000000000000, -1.800000000000000044 ) ) ;
#102 = CARTESIAN_POINT ( 'NONE',  ( -3.000000000000000444, 2.000000000000000000, -2.000000000000000000 ) ) ;
#103 = AXIS2_PLACEMENT_3D ( 'NONE', #185, #272, #485 ) ;
#104 = DIRECTION ( 'NONE',  ( -1.000000000000000000, 0.000000000000000000, 2.168404344971008079E-15 ) ) ;
#105 = AXIS2_PLACEMENT_3D ( 'NONE', #64, #112, #31 ) ;
#106 = EDGE_CURVE ( 'NONE', #202, #301, #224, .T. ) ;
#107 = CARTESIAN_POINT ( 'NONE',  ( 0.000000000000000000, 0.000000000000000000, 0.000000000000000000 ) ) ;
#108 = CARTESIAN_POINT ( 'NONE',  ( -2.800000000000000266, 2.000000000000000000, -2.000000000000000000 ) ) ;
#109 = EDGE_CURVE ( 'NONE', #50, #25, #322, .T. ) ;
#110 = VERTEX_POINT ( 'NONE', #447 ) ;
#111 = CC_DESIGN_APPROVAL ( #94, ( #538 ) ) ;
#112 = DIRECTION ( 'NONE',  ( -0.000000000000000000, -1.000000000000000000, -0.000000000000000000 ) ) ;
#113 = APPROVAL_DATE_TIME ( #156, #135 ) ;
#114 = DIRECTION ( 'NONE',  ( -2.168404344971008868E-16, -0.000000000000000000, -1.000000000000000000 ) ) ;
#115 = ORIENTED_EDGE ( 'NONE', *, *, #459, .F. ) ;
#116 = COORDINATED_UNIVERSAL_TIME_OFFSET ( 8, 0, .AHEAD. ) ;
#117 = CARTESIAN_POINT ( 'NONE',  ( -2.999999999999999556, 1.800000000000000044, 1.800000000000000044 ) ) ;
#118 = VERTEX_POINT ( 'NONE', #68 ) ;
#119 = CALENDAR_DATE ( 2026, 22, 3 ) ;
#120 = LINE ( 'NONE', #3, #187 ) ;
#121 = ORIENTED_EDGE ( 'NONE', *, *, #206, .T. ) ;
#122 = CIRCLE ( 'NONE', #105, 0.2000000000000000944 ) ;
#123 = ADVANCED_FACE ( 'NONE', ( #239 ), #416, .T. ) ;
#124 = LINE ( 'NONE', #333, #271 ) ;
#125 = AXIS2_PLACEMENT_3D ( 'NONE', #258, #340, #505 ) ;
#126 = DIRECTION ( 'NONE',  ( 0.000000000000000000, 0.000000000000000000, -1.000000000000000000 ) ) ;
#127 = LINE ( 'NONE', #395, #253 ) ;
#128 = ORIENTED_EDGE ( 'NONE', *, *, #52, .F. ) ;
#129 = AXIS2_PLACEMENT_3D ( 'NONE', #100, #492, #274 ) ;
#130 = EDGE_CURVE ( 'NONE', #25, #273, #381, .T. ) ;
#131 = DIRECTION ( 'NONE',  ( 0.000000000000000000, 0.000000000000000000, -1.000000000000000000 ) ) ;
#132 = ORIENTED_EDGE ( 'NONE', *, *, #146, .T. ) ;
#133 = FACE_OUTER_BOUND ( 'NONE', #290, .T. ) ;
#134 = ORIENTED_EDGE ( 'NONE', *, *, #338, .T. ) ;
#135 = APPROVAL ( #536, 'UNSPECIFIED' ) ;
#136 = FACE_OUTER_BOUND ( 'NONE', #56, .T. ) ;
#137 = ORIENTED_EDGE ( 'NONE', *, *, #67, .F. ) ;
#138 = CIRCLE ( 'NONE', #450, 0.2000000000000000944 ) ;
#139 = APPROVAL_PERSON_ORGANIZATION ( #425, #135, #502 ) ;
#140 = ORIENTED_EDGE ( 'NONE', *, *, #432, .T. ) ;
#141 = AXIS2_PLACEMENT_3D ( 'NONE', #509, #383, #337 ) ;
#142 = DIRECTION ( 'NONE',  ( 0.000000000000000000, 0.000000000000000000, 1.000000000000000000 ) ) ;
#143 = CARTESIAN_POINT ( 'NONE',  ( -3.000000000000000444, 0.000000000000000000, -2.000000000000000000 ) ) ;
#144 = CARTESIAN_POINT ( 'NONE',  ( 2.800000000000001155, 1.800000000000000044, 1.800000000000000044 ) ) ;
#145 = LINE ( 'NONE', #108, #150 ) ;
#146 = EDGE_CURVE ( 'NONE', #372, #12, #457, .T. ) ;
#147 = LOCAL_TIME ( 15, 19, 40.00000000000000000, #158 ) ;
#148 = DIRECTION ( 'NONE',  ( -0.000000000000000000, -0.000000000000000000, 1.000000000000000000 ) ) ;
#149 = VECTOR ( 'NONE', #418, 1000.000000000000000 ) ;
#150 = VECTOR ( 'NONE', #321, 1000.000000000000000 ) ;
#151 = FACE_OUTER_BOUND ( 'NONE', #220, .T. ) ;
#152 = VECTOR ( 'NONE', #229, 1000.000000000000000 ) ;
#153 = EDGE_LOOP ( 'NONE', ( #429, #250, #404, #410 ) ) ;
#154 = FACE_OUTER_BOUND ( 'NONE', #46, .T. ) ;
#155 = VERTEX_POINT ( 'NONE', #499 ) ;
#156 = DATE_AND_TIME ( #386, #487 ) ;
#157 = DIRECTION ( 'NONE',  ( -1.000000000000000000, 0.000000000000000000, 0.000000000000000000 ) ) ;
#158 = COORDINATED_UNIVERSAL_TIME_OFFSET ( 8, 0, .AHEAD. ) ;
#159 = AXIS2_PLACEMENT_3D ( 'NONE', #412, #279, #486 ) ;
#160 = DIRECTION ( 'NONE',  ( 0.000000000000000000, 1.000000000000000000, 0.000000000000000000 ) ) ;
#161 = ORIENTED_EDGE ( 'NONE', *, *, #459, .T. ) ;
#162 = DIRECTION ( 'NONE',  ( 4.336808689942017736E-16, -0.000000000000000000, 1.000000000000000000 ) ) ;
#163 = ORIENTED_EDGE ( 'NONE', *, *, #507, .F. ) ;
#164 = EDGE_CURVE ( 'NONE', #511, #514, #120, .T. ) ;
#165 = DATE_AND_TIME ( #539, #405 ) ;
#166 = CARTESIAN_POINT ( 'NONE',  ( 2.800000000000001155, 1.800000000000000044, 2.000000000000000000 ) ) ;
#167 = ORIENTED_EDGE ( 'NONE', *, *, #190, .T. ) ;
#168 = CARTESIAN_POINT ( 'NONE',  ( 3.000000000000001332, 1.800000000000000044, 2.000000000000000000 ) ) ;
#169 = ORIENTED_EDGE ( 'NONE', *, *, #130, .T. ) ;
#170 = VECTOR ( 'NONE', #199, 1000.000000000000000 ) ;
#171 = CARTESIAN_POINT ( 'NONE',  ( 2.800000000000001599, 2.000000000000000000, 2.000000000000000000 ) ) ;
#172 = ORIENTED_EDGE ( 'NONE', *, *, #208, .T. ) ;
#173 = DIRECTION ( 'NONE',  ( 0.000000000000000000, 0.000000000000000000, 1.000000000000000000 ) ) ;
#174 = ORIENTED_EDGE ( 'NONE', *, *, #34, .F. ) ;
#175 =( GEOMETRIC_REPRESENTATION_CONTEXT ( 3 ) GLOBAL_UNCERTAINTY_ASSIGNED_CONTEXT ( ( #179 ) ) GLOBAL_UNIT_ASSIGNED_CONTEXT ( ( #320, #62, #30 ) ) REPRESENTATION_CONTEXT ( 'NONE', 'WORKASPACE' ) );
#176 = PRODUCT_DEFINITION ( 'UNKNOWN', '', #538, #473 ) ;
#177 = DIRECTION ( 'NONE',  ( -0.000000000000000000, 1.000000000000000000, -0.000000000000000000 ) ) ;
#178 = ORIENTED_EDGE ( 'NONE', *, *, #309, .T. ) ;
#179 = UNCERTAINTY_MEASURE_WITH_UNIT (LENGTH_MEASURE( 1.000000000000000082E-05 ), #320, 'distance_accuracy_value', 'NONE');
#180 = CARTESIAN_POINT ( 'NONE',  ( -3.000000000000000444, 0.000000000000000000, -2.000000000000000000 ) ) ;
#181 = ORIENTED_EDGE ( 'NONE', *, *, #54, .T. ) ;
#182 = CYLINDRICAL_SURFACE ( 'NONE', #36, 0.2000000000000000944 ) ;
#183 = EDGE_LOOP ( 'NONE', ( #232, #99, #303, #137 ) ) ;
#184 = ORGANIZATION ( 'UNSPECIFIED', 'UNSPECIFIED', '' ) ;
#185 = CARTESIAN_POINT ( 'NONE',  ( -2.799999999999999378, 1.800000000000000044, 1.800000000000000044 ) ) ;
#186 = ORIENTED_EDGE ( 'NONE', *, *, #307, .T. ) ;
#187 = VECTOR ( 'NONE', #467, 1000.000000000000000 ) ;
#188 = CARTESIAN_POINT ( 'NONE',  ( 2.800000000000001155, 2.000000000000000000, 1.800000000000000044 ) ) ;
#189 = CARTESIAN_POINT ( 'NONE',  ( -2.800000000000000266, 2.000000000000000000, -1.800000000000000044 ) ) ;
#190 = EDGE_CURVE ( 'NONE', #344, #50, #423, .T. ) ;
#191 = PLANE ( 'NONE',  #360 ) ;
#192 = DIRECTION ( 'NONE',  ( 0.000000000000000000, 1.000000000000000000, -0.000000000000000000 ) ) ;
#193 = CARTESIAN_POINT ( 'NONE',  ( -2.800000000000000266, 1.800000000000000044, -2.000000000000000000 ) ) ;
#194 = ADVANCED_FACE ( 'NONE', ( #38 ), #335, .F. ) ;
#195 = PLANE ( 'NONE',  #159 ) ;
#196 = DIRECTION ( 'NONE',  ( -0.000000000000000000, -1.000000000000000000, -0.000000000000000000 ) ) ;
#197 = AXIS2_PLACEMENT_3D ( 'NONE', #304, #217, #219 ) ;
#198 = CARTESIAN_POINT ( 'NONE',  ( -2.800000000000000266, 1.800000000000000044, -1.800000000000000044 ) ) ;
#199 = DIRECTION ( 'NONE',  ( -1.000000000000000000, -0.000000000000000000, -0.000000000000000000 ) ) ;
#200 = CIRCLE ( 'NONE', #496, 0.2000000000000000944 ) ;
#201 = CARTESIAN_POINT ( 'NONE',  ( -2.999999999999999556, 0.000000000000000000, 2.000000000000000000 ) ) ;
#202 = VERTEX_POINT ( 'NONE', #117 ) ;
#203 = AXIS2_PLACEMENT_3D ( 'NONE', #275, #192, #530 ) ;
#204 = PERSON_AND_ORGANIZATION_ROLE ( 'design_owner' ) ;
#205 = AXIS2_PLACEMENT_3D ( 'NONE', #369, #148, #326 ) ;
#206 = EDGE_CURVE ( 'NONE', #517, #118, #454, .T. ) ;
#207 = SPHERICAL_SURFACE ( 'NONE', #214, 0.2000000000000000111 ) ;
#208 = EDGE_CURVE ( 'NONE', #110, #511, #73, .T. ) ;
#209 = EDGE_CURVE ( 'NONE', #25, #202, #329, .T. ) ;
#210 = PERSON_AND_ORGANIZATION ( #468, #184 ) ;
#211 = FACE_OUTER_BOUND ( 'NONE', #356, .T. ) ;
#212 = AXIS2_PLACEMENT_3D ( 'NONE', #426, #293, #540 ) ;
#213 = DATE_AND_TIME ( #119, #285 ) ;
#214 = AXIS2_PLACEMENT_3D ( 'NONE', #420, #504, #295 ) ;
#215 = DIRECTION ( 'NONE',  ( 0.000000000000000000, -0.000000000000000000, 1.000000000000000000 ) ) ;
#216 = AXIS2_PLACEMENT_3D ( 'NONE', #488, #526, #234 ) ;
#217 = DIRECTION ( 'NONE',  ( -0.000000000000000000, -1.000000000000000000, -0.000000000000000000 ) ) ;
#218 = VECTOR ( 'NONE', #281, 1000.000000000000000 ) ;
#219 = DIRECTION ( 'NONE',  ( 0.000000000000000000, 0.000000000000000000, 1.000000000000000000 ) ) ;
#220 = EDGE_LOOP ( 'NONE', ( #527, #466, #28, #93 ) ) ;
#221 = DIRECTION ( 'NONE',  ( 2.168404344971007685E-15, 1.000000000000000000, 0.000000000000000000 ) ) ;
#222 = EDGE_LOOP ( 'NONE', ( #74, #169, #310, #167 ) ) ;
#223 = CIRCLE ( 'NONE', #348, 0.2000000000000000944 ) ;
#224 = CIRCLE ( 'NONE', #203, 0.2000000000000000944 ) ;
#225 = LINE ( 'NONE', #180, #330 ) ;
#226 = ORIENTED_EDGE ( 'NONE', *, *, #20, .F. ) ;
#227 = EDGE_CURVE ( 'NONE', #455, #230, #138, .T. ) ;
#228 = CIRCLE ( 'NONE', #87, 0.2000000000000000944 ) ;
#229 = DIRECTION ( 'NONE',  ( -4.336808689942017736E-16, -0.000000000000000000, -1.000000000000000000 ) ) ;
#230 = VERTEX_POINT ( 'NONE', #298 ) ;
#231 = DIRECTION ( 'NONE',  ( 0.000000000000000000, 1.000000000000000000, 0.000000000000000000 ) ) ;
#232 = ORIENTED_EDGE ( 'NONE', *, *, #366, .F. ) ;
#233 = AXIS2_PLACEMENT_3D ( 'NONE', #368, #240, #371 ) ;
#234 = DIRECTION ( 'NONE',  ( 1.000000000000000000, 0.000000000000000000, 0.000000000000000000 ) ) ;
#235 = FACE_OUTER_BOUND ( 'NONE', #61, .T. ) ;
#236 = DIRECTION ( 'NONE',  ( 0.000000000000000000, -0.000000000000000000, 1.000000000000000000 ) ) ;
#237 = CARTESIAN_POINT ( 'NONE',  ( -3.000000000000000444, 2.000000000000000000, -2.000000000000000000 ) ) ;
#238 = CC_DESIGN_PERSON_AND_ORGANIZATION_ASSIGNMENT ( #4, #331, ( #176 ) ) ;
#239 = FACE_OUTER_BOUND ( 'NONE', #183, .T. ) ;
#240 = DIRECTION ( 'NONE',  ( -1.000000000000000000, -0.000000000000000000, -0.000000000000000000 ) ) ;
#241 = SPHERICAL_SURFACE ( 'NONE', #378, 0.2000000000000000111 ) ;
#242 = APPROVAL_STATUS ( 'not_yet_approved' ) ;
#243 = SPHERICAL_SURFACE ( 'NONE', #353, 0.2000000000000000111 ) ;
#244 = CARTESIAN_POINT ( 'NONE',  ( -2.799999999999999378, 2.000000000000000000, 2.000000000000000000 ) ) ;
#245 = ORIENTED_EDGE ( 'NONE', *, *, #409, .T. ) ;
#246 = PERSON_AND_ORGANIZATION_ROLE ( 'design_supplier' ) ;
#247 = ADVANCED_FACE ( 'NONE', ( #44 ), #207, .T. ) ;
#248 = LOCAL_TIME ( 15, 19, 40.00000000000000000, #380 ) ;
#249 = DIRECTION ( 'NONE',  ( 0.000000000000000000, 0.000000000000000000, 1.000000000000000000 ) ) ;
#250 = ORIENTED_EDGE ( 'NONE', *, *, #307, .F. ) ;
#251 = EDGE_CURVE ( 'NONE', #301, #517, #460, .T. ) ;
#252 = DIRECTION ( 'NONE',  ( 0.000000000000000000, -1.000000000000000000, 0.000000000000000000 ) ) ;
#253 = VECTOR ( 'NONE', #469, 1000.000000000000000 ) ;
#254 = PERSON_AND_ORGANIZATION ( #468, #184 ) ;
#255 = ADVANCED_FACE ( 'NONE', ( #211 ), #10, .T. ) ;
#256 = LINE ( 'NONE', #428, #170 ) ;
#257 = ORIENTED_EDGE ( 'NONE', *, *, #484, .T. ) ;
#258 = CARTESIAN_POINT ( 'NONE',  ( 2.800000000000001155, 0.000000000000000000, 1.800000000000000044 ) ) ;
#259 = CIRCLE ( 'NONE', #103, 0.2000000000000000944 ) ;
#260 = DIRECTION ( 'NONE',  ( -0.000000000000000000, 1.000000000000000000, -0.000000000000000000 ) ) ;
#261 = VECTOR ( 'NONE', #157, 1000.000000000000000 ) ;
#262 = VERTEX_POINT ( 'NONE', #166 ) ;
#263 = LINE ( 'NONE', #49, #152 ) ;
#264 = ORIENTED_EDGE ( 'NONE', *, *, #268, .F. ) ;
#265 = CYLINDRICAL_SURFACE ( 'NONE', #463, 0.2000000000000000944 ) ;
#266 = EDGE_CURVE ( 'NONE', #514, #118, #82, .T. ) ;
#267 = ORIENTED_EDGE ( 'NONE', *, *, #484, .F. ) ;
#268 = EDGE_CURVE ( 'NONE', #273, #344, #124, .T. ) ;
#269 = CARTESIAN_POINT ( 'NONE',  ( 0.000000000000000000, 1.800000000000000044, -1.800000000000000044 ) ) ;
#270 = ORIENTED_EDGE ( 'NONE', *, *, #324, .T. ) ;
#271 = VECTOR ( 'NONE', #465, 1000.000000000000000 ) ;
#272 = DIRECTION ( 'NONE',  ( 1.000000000000000000, -0.000000000000000000, -0.000000000000000000 ) ) ;
#273 = VERTEX_POINT ( 'NONE', #84 ) ;
#274 = DIRECTION ( 'NONE',  ( -1.000000000000000000, 0.000000000000000000, 0.000000000000000000 ) ) ;
#275 = CARTESIAN_POINT ( 'NONE',  ( -2.799999999999999378, 1.800000000000000044, 1.800000000000000044 ) ) ;
#276 = CIRCLE ( 'NONE', #233, 0.2000000000000000944 ) ;
#277 = FACE_OUTER_BOUND ( 'NONE', #222, .T. ) ;
#278 = AXIS2_PLACEMENT_3D ( 'NONE', #237, #533, #365 ) ;
#279 = DIRECTION ( 'NONE',  ( -1.000000000000000000, 0.000000000000000000, 4.336808689942017736E-16 ) ) ;
#280 = DIRECTION ( 'NONE',  ( 0.000000000000000000, 0.000000000000000000, 1.000000000000000000 ) ) ;
#281 = DIRECTION ( 'NONE',  ( 2.168404344971008868E-16, -0.000000000000000000, 1.000000000000000000 ) ) ;
#282 = PRODUCT ( 'BAR4X6T2', 'BAR4X6T2', '', ( #66 ) ) ;
#283 = PERSON_AND_ORGANIZATION ( #468, #184 ) ;
#284 = FACE_OUTER_BOUND ( 'NONE', #18, .T. ) ;
#285 = LOCAL_TIME ( 15, 19, 40.00000000000000000, #116 ) ;
#286 = APPLICATION_PROTOCOL_DEFINITION ( 'international standard', 'config_control_design', 1994, #391 ) ;
#287 = DIRECTION ( 'NONE',  ( 0.000000000000000000, 1.000000000000000000, 0.000000000000000000 ) ) ;
#288 = VECTOR ( 'NONE', #5, 1000.000000000000000 ) ;
#289 = APPROVAL_STATUS ( 'not_yet_approved' ) ;
#290 = EDGE_LOOP ( 'NONE', ( #393, #60, #163 ) ) ;
#291 = APPROVAL_ROLE ( '' ) ;
#292 = EDGE_CURVE ( 'NONE', #262, #301, #256, .T. ) ;
#293 = DIRECTION ( 'NONE',  ( 0.000000000000000000, 0.000000000000000000, -1.000000000000000000 ) ) ;
#294 = PERSON_AND_ORGANIZATION ( #468, #184 ) ;
#295 = DIRECTION ( 'NONE',  ( 0.000000000000000000, 0.000000000000000000, -1.000000000000000000 ) ) ;
#296 = ORIENTED_EDGE ( 'NONE', *, *, #54, .F. ) ;
#297 = CC_DESIGN_PERSON_AND_ORGANIZATION_ASSIGNMENT ( #210, #422, ( #47 ) ) ;
#298 = CARTESIAN_POINT ( 'NONE',  ( -3.000000000000000444, 1.800000000000000044, -1.800000000000000044 ) ) ;
#299 = VECTOR ( 'NONE', #177, 1000.000000000000000 ) ;
#300 = CARTESIAN_POINT ( 'NONE',  ( 2.799999999999998934, 2.000000000000000000, -2.000000000000000000 ) ) ;
#301 = VERTEX_POINT ( 'NONE', #375 ) ;
#302 = DIRECTION ( 'NONE',  ( -1.000000000000000000, 0.000000000000000000, 2.168404344971009608E-16 ) ) ;
#303 = ORIENTED_EDGE ( 'NONE', *, *, #432, .F. ) ;
#305 = CIRCLE ( 'NONE', #205, 0.2000000000000000944 ) ;
#304 = CARTESIAN_POINT ( 'NONE',  ( 2.799999999999998934, 0.000000000000000000, -1.800000000000000044 ) ) ;
#306 = ORIENTED_EDGE ( 'NONE', *, *, #324, .F. ) ;
#307 = EDGE_CURVE ( 'NONE', #202, #230, #537, .T. ) ;
#308 = FACE_OUTER_BOUND ( 'NONE', #506, .T. ) ;
#309 = EDGE_CURVE ( 'NONE', #50, #455, #481, .T. ) ;
#310 = ORIENTED_EDGE ( 'NONE', *, *, #268, .T. ) ;
#311 = VECTOR ( 'NONE', #162, 1000.000000000000000 ) ;
#312 = DIRECTION ( 'NONE',  ( 0.000000000000000000, 1.000000000000000000, -0.000000000000000000 ) ) ;
#313 = ORIENTED_EDGE ( 'NONE', *, *, #529, .T. ) ;
#314 = APPROVAL_PERSON_ORGANIZATION ( #456, #94, #9 ) ;
#315 = ADVANCED_FACE ( 'NONE', ( #136 ), #182, .T. ) ;
#316 = CARTESIAN_POINT ( 'NONE',  ( -2.800000000000000266, 0.000000000000000000, -2.000000000000000000 ) ) ;
#317 = ORIENTED_EDGE ( 'NONE', *, *, #477, .F. ) ;
#318 = DIRECTION ( 'NONE',  ( 0.000000000000000000, 0.000000000000000000, 1.000000000000000000 ) ) ;
#319 = DIRECTION ( 'NONE',  ( -1.000000000000000000, -0.000000000000000000, -0.000000000000000000 ) ) ;
#320 =( LENGTH_UNIT ( ) NAMED_UNIT ( * ) SI_UNIT ( .MILLI., .METRE. ) );
#321 = DIRECTION ( 'NONE',  ( -0.000000000000000000, 1.000000000000000000, -0.000000000000000000 ) ) ;
#322 = LINE ( 'NONE', #489, #218 ) ;
#323 = VECTOR ( 'NONE', #114, 1000.000000000000000 ) ;
#324 = EDGE_CURVE ( 'NONE', #434, #202, #392, .T. ) ;
#325 = CARTESIAN_POINT ( 'NONE',  ( 0.000000000000000000, 2.000000000000000000, 0.000000000000000000 ) ) ;
#326 = DIRECTION ( 'NONE',  ( -1.000000000000000000, 0.000000000000000000, 0.000000000000000000 ) ) ;
#327 = CARTESIAN_POINT ( 'NONE',  ( 3.000000000000001332, 1.800000000000000044, 1.800000000000000044 ) ) ;
#328 = CARTESIAN_POINT ( 'NONE',  ( 2.999999999999999556, 0.000000000000000000, -1.800000000000000044 ) ) ;
#329 = CIRCLE ( 'NONE', #385, 0.2000000000000000944 ) ;
#330 = VECTOR ( 'NONE', #401, 1000.000000000000000 ) ;
#331 = PERSON_AND_ORGANIZATION_ROLE ( 'creator' ) ;
#332 = ADVANCED_FACE ( 'NONE', ( #24 ), #11, .T. ) ;
#333 = CARTESIAN_POINT ( 'NONE',  ( 2.799999999999999378, 2.000000000000000000, -2.000000000000000000 ) ) ;
#334 = CALENDAR_DATE ( 2026, 22, 3 ) ;
#335 = PLANE ( 'NONE',  #212 ) ;
#336 = ORIENTED_EDGE ( 'NONE', *, *, #17, .T. ) ;
#337 = DIRECTION ( 'NONE',  ( 0.000000000000000000, 0.000000000000000000, -1.000000000000000000 ) ) ;
#338 = EDGE_CURVE ( 'NONE', #455, #372, #127, .T. ) ;
#339 = ORIENTED_EDGE ( 'NONE', *, *, #309, .F. ) ;
#340 = DIRECTION ( 'NONE',  ( -0.000000000000000000, -1.000000000000000000, -0.000000000000000000 ) ) ;
#341 = EDGE_LOOP ( 'NONE', ( #313, #264, #317, #89 ) ) ;
#342 = DATE_TIME_ROLE ( 'classification_date' ) ;
#343 = DIRECTION ( 'NONE',  ( 0.000000000000000000, -1.000000000000000000, 0.000000000000000000 ) ) ;
#344 = VERTEX_POINT ( 'NONE', #355 ) ;
#345 = SPHERICAL_SURFACE ( 'NONE', #97, 0.2000000000000000111 ) ;
#346 = ORIENTED_EDGE ( 'NONE', *, *, #411, .F. ) ;
#347 = FACE_OUTER_BOUND ( 'NONE', #520, .T. ) ;
#348 = AXIS2_PLACEMENT_3D ( 'NONE', #406, #196, #318 ) ;
#349 = ORIENTED_EDGE ( 'NONE', *, *, #409, .F. ) ;
#350 = ADVANCED_FACE ( 'NONE', ( #347 ), #519, .T. ) ;
#351 = EDGE_CURVE ( 'NONE', #118, #262, #88, .T. ) ;
#353 = AXIS2_PLACEMENT_3D ( 'NONE', #198, #287, #362 ) ;
#352 = CARTESIAN_POINT ( 'NONE',  ( -2.800000000000000266, 1.800000000000000044, -1.800000000000000044 ) ) ;
#354 = ORIENTED_EDGE ( 'NONE', *, *, #67, .T. ) ;
#355 = CARTESIAN_POINT ( 'NONE',  ( 2.799999999999999378, 2.000000000000000000, -1.800000000000000044 ) ) ;
#356 = EDGE_LOOP ( 'NONE', ( #174, #541, #424, #306 ) ) ;
#357 = APPROVAL ( #242, 'UNSPECIFIED' ) ;
#358 = CARTESIAN_POINT ( 'NONE',  ( -2.999999999999999556, 0.000000000000000000, 1.800000000000000044 ) ) ;
#359 = ORIENTED_EDGE ( 'NONE', *, *, #52, .T. ) ;
#360 = AXIS2_PLACEMENT_3D ( 'NONE', #325, #231, #27 ) ;
#361 = CARTESIAN_POINT ( 'NONE',  ( -2.799999999999999378, 0.000000000000000000, 2.000000000000000000 ) ) ;
#362 = DIRECTION ( 'NONE',  ( -1.000000000000000000, 0.000000000000000000, 0.000000000000000000 ) ) ;
#363 = DIRECTION ( 'NONE',  ( 0.000000000000000000, -1.000000000000000000, 0.000000000000000000 ) ) ;
#364 = DIRECTION ( 'NONE',  ( 0.000000000000000000, 1.000000000000000000, 0.000000000000000000 ) ) ;
#365 = DIRECTION ( 'NONE',  ( -2.168404344971008868E-16, 0.000000000000000000, -1.000000000000000000 ) ) ;
#366 = EDGE_CURVE ( 'NONE', #12, #23, #508, .T. ) ;
#367 = ADVANCED_FACE ( 'NONE', ( #133 ), #345, .T. ) ;
#368 = CARTESIAN_POINT ( 'NONE',  ( 2.800000000000001155, 1.800000000000000044, 1.800000000000000044 ) ) ;
#369 = CARTESIAN_POINT ( 'NONE',  ( -2.800000000000000266, 1.800000000000000044, -1.800000000000000044 ) ) ;
#370 = VECTOR ( 'NONE', #260, 1000.000000000000000 ) ;
#371 = DIRECTION ( 'NONE',  ( 0.000000000000000000, 0.000000000000000000, -1.000000000000000000 ) ) ;
#372 = VERTEX_POINT ( 'NONE', #510 ) ;
#373 = APPLICATION_CONTEXT ( 'configuration controlled 3d designs of mechanical parts and assemblies' ) ;
#374 = CALENDAR_DATE ( 2026, 22, 3 ) ;
#375 = CARTESIAN_POINT ( 'NONE',  ( -2.799999999999999378, 1.800000000000000044, 2.000000000000000000 ) ) ;
#376 = AXIS2_PLACEMENT_3D ( 'NONE', #107, #280, #446 ) ;
#377 = CARTESIAN_POINT ( 'NONE',  ( -3.000000000000000444, 2.000000000000000000, -1.800000000000000044 ) ) ;
#378 = AXIS2_PLACEMENT_3D ( 'NONE', #443, #364, #104 ) ;
#379 = CLOSED_SHELL ( 'NONE', ( #19, #445, #43, #194, #501, #503, #350, #415, #123, #1, #80, #255, #332, #394, #462, #367, #247, #315 ) ) ;
#380 = COORDINATED_UNIVERSAL_TIME_OFFSET ( 8, 0, .AHEAD. ) ;
#381 = LINE ( 'NONE', #41, #288 ) ;
#382 = DATE_AND_TIME ( #334, #248 ) ;
#383 = DIRECTION ( 'NONE',  ( 0.000000000000000000, -1.000000000000000000, 0.000000000000000000 ) ) ;
#384 = ORIENTED_EDGE ( 'NONE', *, *, #351, .T. ) ;
#385 = AXIS2_PLACEMENT_3D ( 'NONE', #37, #215, #76 ) ;
#386 = CALENDAR_DATE ( 2026, 22, 3 ) ;
#387 = CC_DESIGN_APPROVAL ( #135, ( #176 ) ) ;
#388 = CARTESIAN_POINT ( 'NONE',  ( -2.800000000000000266, 1.800000000000000044, -1.800000000000000044 ) ) ;
#389 = DIRECTION ( 'NONE',  ( 0.000000000000000000, 0.000000000000000000, 1.000000000000000000 ) ) ;
#390 = ORIENTED_EDGE ( 'NONE', *, *, #227, .T. ) ;
#391 = APPLICATION_CONTEXT ( 'configuration controlled 3d designs of mechanical parts and assemblies' ) ;
#392 = LINE ( 'NONE', #16, #370 ) ;
#393 = ORIENTED_EDGE ( 'NONE', *, *, #209, .T. ) ;
#394 = ADVANCED_FACE ( 'NONE', ( #513 ), #265, .T. ) ;
#395 = CARTESIAN_POINT ( 'NONE',  ( 2.999999999999999556, 1.800000000000000044, -2.000000000000000000 ) ) ;
#396 = ADVANCED_BREP_SHAPE_REPRESENTATION ( 'BAR4X6T2', ( #69, #376 ), #175 ) ;
#397 = EDGE_LOOP ( 'NONE', ( #140, #14, #7 ) ) ;
#398 = CC_DESIGN_PERSON_AND_ORGANIZATION_ASSIGNMENT ( #294, #246, ( #538 ) ) ;
#399 = CARTESIAN_POINT ( 'NONE',  ( 2.799999999999999378, 1.800000000000000044, -1.800000000000000044 ) ) ;
#400 = ORIENTED_EDGE ( 'NONE', *, *, #190, .F. ) ;
#401 = DIRECTION ( 'NONE',  ( 2.168404344971008868E-16, 0.000000000000000000, 1.000000000000000000 ) ) ;
#402 = ORIENTED_EDGE ( 'NONE', *, *, #266, .T. ) ;
#403 = DIRECTION ( 'NONE',  ( 1.000000000000000000, 0.000000000000000000, -0.000000000000000000 ) ) ;
#404 = ORIENTED_EDGE ( 'NONE', *, *, #209, .F. ) ;
#405 = LOCAL_TIME ( 15, 19, 40.00000000000000000, #72 ) ;
#406 = CARTESIAN_POINT ( 'NONE',  ( -2.800000000000000266, 0.000000000000000000, -1.800000000000000044 ) ) ;
#407 = PLANE ( 'NONE',  #278 ) ;
#408 = DIRECTION ( 'NONE',  ( 0.000000000000000000, 1.000000000000000000, 0.000000000000000000 ) ) ;
#409 = EDGE_CURVE ( 'NONE', #514, #23, #263, .T. ) ;
#410 = ORIENTED_EDGE ( 'NONE', *, *, #109, .F. ) ;
#411 = EDGE_CURVE ( 'NONE', #372, #344, #228, .T. ) ;
#412 = CARTESIAN_POINT ( 'NONE',  ( 2.999999999999999556, 2.000000000000000000, -2.000000000000000000 ) ) ;
#413 = PRODUCT_DEFINITION_SHAPE ( 'NONE', 'NONE',  #176 ) ;
#414 = DIRECTION ( 'NONE',  ( 0.000000000000000000, 0.000000000000000000, 1.000000000000000000 ) ) ;
#415 = ADVANCED_FACE ( 'NONE', ( #308 ), #474, .T. ) ;
#416 = CYLINDRICAL_SURFACE ( 'NONE', #141, 0.2000000000000000944 ) ;
#417 = AXIS2_PLACEMENT_3D ( 'NONE', #45, #343, #126 ) ;
#418 = DIRECTION ( 'NONE',  ( 0.000000000000000000, -1.000000000000000000, 0.000000000000000000 ) ) ;
#419 = DATE_AND_TIME ( #374, #147 ) ;
#420 = CARTESIAN_POINT ( 'NONE',  ( 2.800000000000001155, 1.800000000000000044, 1.800000000000000044 ) ) ;
#421 = ORIENTED_EDGE ( 'NONE', *, *, #251, .T. ) ;
#422 = PERSON_AND_ORGANIZATION_ROLE ( 'classification_officer' ) ;
#423 = LINE ( 'NONE', #377, #261 ) ;
#424 = ORIENTED_EDGE ( 'NONE', *, *, #106, .F. ) ;
#425 = PERSON_AND_ORGANIZATION ( #468, #184 ) ;
#426 = CARTESIAN_POINT ( 'NONE',  ( -2.999999999999999556, 2.000000000000000000, 2.000000000000000000 ) ) ;
#427 = EDGE_CURVE ( 'NONE', #155, #434, #225, .T. ) ;
#428 = CARTESIAN_POINT ( 'NONE',  ( -2.999999999999999556, 1.800000000000000044, 2.000000000000000000 ) ) ;
#429 = ORIENTED_EDGE ( 'NONE', *, *, #20, .T. ) ;
#430 = CC_DESIGN_APPROVAL ( #357, ( #47 ) ) ;
#431 = FACE_OUTER_BOUND ( 'NONE', #35, .T. ) ;
#432 = EDGE_CURVE ( 'NONE', #110, #372, #200, .T. ) ;
#433 = DIRECTION ( 'NONE',  ( -2.168404344971008868E-16, 0.000000000000000000, -1.000000000000000000 ) ) ;
#434 = VERTEX_POINT ( 'NONE', #358 ) ;
#435 = CARTESIAN_POINT ( 'NONE',  ( 2.799999999999998934, 1.800000000000000044, -1.800000000000000044 ) ) ;
#436 = VERTEX_POINT ( 'NONE', #316 ) ;
#437 = CC_DESIGN_PERSON_AND_ORGANIZATION_ASSIGNMENT ( #283, #204, ( #282 ) ) ;
#438 = CARTESIAN_POINT ( 'NONE',  ( -2.799999999999999822, 1.800000000000000044, 6.071532165918824830E-16 ) ) ;
#439 = EDGE_LOOP ( 'NONE', ( #470, #421, #121, #384 ) ) ;
#440 = DIRECTION ( 'NONE',  ( -0.000000000000000000, 1.000000000000000000, 0.000000000000000000 ) ) ;
#441 = ORIENTED_EDGE ( 'NONE', *, *, #477, .T. ) ;
#442 = ORIENTED_EDGE ( 'NONE', *, *, #130, .F. ) ;
#443 = CARTESIAN_POINT ( 'NONE',  ( 2.799999999999999378, 1.800000000000000044, -1.800000000000000044 ) ) ;
#444 = VECTOR ( 'NONE', #319, 1000.000000000000000 ) ;
#445 = ADVANCED_FACE ( 'NONE', ( #431 ), #48, .F. ) ;
#446 = DIRECTION ( 'NONE',  ( 1.000000000000000000, 0.000000000000000000, 0.000000000000000000 ) ) ;
#447 = CARTESIAN_POINT ( 'NONE',  ( 2.999999999999999556, 1.800000000000000044, -1.800000000000000044 ) ) ;
#448 = CC_DESIGN_PERSON_AND_ORGANIZATION_ASSIGNMENT ( #497, #453, ( #538 ) ) ;
#449 = FACE_OUTER_BOUND ( 'NONE', #397, .T. ) ;
#450 = AXIS2_PLACEMENT_3D ( 'NONE', #388, #160, #249 ) ;
#451 = AXIS2_PLACEMENT_3D ( 'NONE', #269, #55, #479 ) ;
#452 = LINE ( 'NONE', #71, #149 ) ;
#453 = PERSON_AND_ORGANIZATION_ROLE ( 'creator' ) ;
#454 = LINE ( 'NONE', #201, #26 ) ;
#455 = VERTEX_POINT ( 'NONE', #193 ) ;
#456 = PERSON_AND_ORGANIZATION ( #468, #184 ) ;
#457 = LINE ( 'NONE', #300, #29 ) ;
#458 = CIRCLE ( 'NONE', #216, 0.2000000000000000944 ) ;
#459 = EDGE_CURVE ( 'NONE', #262, #273, #276, .T. ) ;
#460 = LINE ( 'NONE', #244, #77 ) ;
#461 = EDGE_LOOP ( 'NONE', ( #472, #441, #115 ) ) ;
#462 = ADVANCED_FACE ( 'NONE', ( #151 ), #524, .T. ) ;
#463 = AXIS2_PLACEMENT_3D ( 'NONE', #95, #471, #22 ) ;
#464 = SECURITY_CLASSIFICATION_LEVEL ( 'unclassified' ) ;
#465 = DIRECTION ( 'NONE',  ( -4.336808689942017736E-16, 0.000000000000000000, -1.000000000000000000 ) ) ;
#466 = ORIENTED_EDGE ( 'NONE', *, *, #164, .F. ) ;
#467 = DIRECTION ( 'NONE',  ( 0.000000000000000000, -1.000000000000000000, 0.000000000000000000 ) ) ;
#468 = PERSON ( 'UNSPECIFIED', 'UNSPECIFIED', 'UNSPECIFIED', ('UNSPECIFIED'), ('UNSPECIFIED'), ('UNSPECIFIED') ) ;
#469 = DIRECTION ( 'NONE',  ( 1.000000000000000000, -0.000000000000000000, -0.000000000000000000 ) ) ;
#470 = ORIENTED_EDGE ( 'NONE', *, *, #292, .T. ) ;
#471 = DIRECTION ( 'NONE',  ( 4.336808689942017736E-16, -0.000000000000000000, 1.000000000000000000 ) ) ;
#472 = ORIENTED_EDGE ( 'NONE', *, *, #518, .T. ) ;
#473 = DESIGN_CONTEXT ( 'detailed design', #391, 'design' ) ;
#474 = CYLINDRICAL_SURFACE ( 'NONE', #451, 0.2000000000000000944 ) ;
#475 = ORIENTED_EDGE ( 'NONE', *, *, #164, .T. ) ;
#476 = DIRECTION ( 'NONE',  ( -1.000000000000000000, 0.000000000000000000, 0.000000000000000000 ) ) ;
#477 = EDGE_CURVE ( 'NONE', #511, #273, #458, .T. ) ;
#478 = ORIENTED_EDGE ( 'NONE', *, *, #206, .F. ) ;
#479 = DIRECTION ( 'NONE',  ( 0.000000000000000000, 0.000000000000000000, -1.000000000000000000 ) ) ;
#480 = EDGE_LOOP ( 'NONE', ( #178, #390, #226 ) ) ;
#481 = CIRCLE ( 'NONE', #490, 0.2000000000000000944 ) ;
#482 = CARTESIAN_POINT ( 'NONE',  ( 0.000000000000000000, 0.000000000000000000, 0.000000000000000000 ) ) ;
#483 = LINE ( 'NONE', #101, #515 ) ;
#484 = EDGE_CURVE ( 'NONE', #155, #436, #223, .T. ) ;
#485 = DIRECTION ( 'NONE',  ( 0.000000000000000000, 0.000000000000000000, 1.000000000000000000 ) ) ;
#486 = DIRECTION ( 'NONE',  ( 4.336808689942017736E-16, 0.000000000000000000, 1.000000000000000000 ) ) ;
#487 = LOCAL_TIME ( 15, 19, 40.00000000000000000, #75 ) ;
#488 = CARTESIAN_POINT ( 'NONE',  ( 2.800000000000001155, 1.800000000000000044, 1.800000000000000044 ) ) ;
#489 = CARTESIAN_POINT ( 'NONE',  ( -2.799999999999999378, 2.000000000000000000, 2.000000000000000000 ) ) ;
#490 = AXIS2_PLACEMENT_3D ( 'NONE', #352, #476, #389 ) ;
#491 = CC_DESIGN_DATE_AND_TIME_ASSIGNMENT ( #419, #83, ( #176 ) ) ;
#492 = DIRECTION ( 'NONE',  ( -0.000000000000000000, -0.000000000000000000, 1.000000000000000000 ) ) ;
#493 = DIRECTION ( 'NONE',  ( -0.000000000000000000, 1.000000000000000000, -0.000000000000000000 ) ) ;
#494 = CARTESIAN_POINT ( 'NONE',  ( 3.000000000000001332, 0.000000000000000000, 1.800000000000000044 ) ) ;
#495 = CARTESIAN_POINT ( 'NONE',  ( -2.799999999999999378, 2.000000000000000000, 1.800000000000000044 ) ) ;
#496 = AXIS2_PLACEMENT_3D ( 'NONE', #399, #440, #59 ) ;
#497 = PERSON_AND_ORGANIZATION ( #468, #184 ) ;
#498 = CARTESIAN_POINT ( 'NONE',  ( -3.000000000000000444, 1.800000000000000044, -2.000000000000000000 ) ) ;
#499 = CARTESIAN_POINT ( 'NONE',  ( -3.000000000000000444, 0.000000000000000000, -1.800000000000000044 ) ) ;
#500 = ORIENTED_EDGE ( 'NONE', *, *, #338, .F. ) ;
#501 = ADVANCED_FACE ( 'NONE', ( #277 ), #191, .T. ) ;
#502 = APPROVAL_ROLE ( '' ) ;
#503 = ADVANCED_FACE ( 'NONE', ( #154 ), #532, .F. ) ;
#504 = DIRECTION ( 'NONE',  ( -0.000000000000000000, 1.000000000000000000, 0.000000000000000000 ) ) ;
#505 = DIRECTION ( 'NONE',  ( 1.951563910473907035E-14, 0.000000000000000000, 1.000000000000000000 ) ) ;
#506 = EDGE_LOOP ( 'NONE', ( #346, #500, #339, #400 ) ) ;
#507 = EDGE_CURVE ( 'NONE', #25, #301, #259, .T. ) ;
#508 = CIRCLE ( 'NONE', #197, 0.2000000000000000944 ) ;
#509 = CARTESIAN_POINT ( 'NONE',  ( 2.799999999999998934, 2.000000000000000000, -1.800000000000000044 ) ) ;
#510 = CARTESIAN_POINT ( 'NONE',  ( 2.799999999999998934, 1.800000000000000044, -2.000000000000000000 ) ) ;
#511 = VERTEX_POINT ( 'NONE', #327 ) ;
#512 = AXIS2_PLACEMENT_3D ( 'NONE', #102, #142, #403 ) ;
#513 = FACE_OUTER_BOUND ( 'NONE', #341, .T. ) ;
#514 = VERTEX_POINT ( 'NONE', #494 ) ;
#515 = VECTOR ( 'NONE', #493, 1000.000000000000000 ) ;
#516 = CARTESIAN_POINT ( 'NONE',  ( 0.000000000000000000, 1.800000000000000044, 1.800000000000000044 ) ) ;
#517 = VERTEX_POINT ( 'NONE', #361 ) ;
#518 = EDGE_CURVE ( 'NONE', #262, #511, #522, .T. ) ;
#519 = CYLINDRICAL_SURFACE ( 'NONE', #57, 0.2000000000000000944 ) ;
#520 = EDGE_LOOP ( 'NONE', ( #267, #128, #78, #65 ) ) ;
#521 = CARTESIAN_POINT ( 'NONE',  ( -2.800000000000000266, 2.000000000000000000, -1.800000000000000044 ) ) ;
#522 = CIRCLE ( 'NONE', #63, 0.2000000000000000944 ) ;
#523 = ORIENTED_EDGE ( 'NONE', *, *, #292, .F. ) ;
#524 = CYLINDRICAL_SURFACE ( 'NONE', #39, 0.2000000000000000944 ) ;
#525 = LINE ( 'NONE', #143, #444 ) ;
#526 = DIRECTION ( 'NONE',  ( 0.000000000000000000, 0.000000000000000000, 1.000000000000000000 ) ) ;
#527 = ORIENTED_EDGE ( 'NONE', *, *, #266, .F. ) ;
#528 = APPLICATION_PROTOCOL_DEFINITION ( 'international standard', 'config_control_design', 1994, #373 ) ;
#529 = EDGE_CURVE ( 'NONE', #110, #344, #8, .T. ) ;
#530 = DIRECTION ( 'NONE',  ( 0.000000000000000000, 0.000000000000000000, 1.000000000000000000 ) ) ;
#531 = CC_DESIGN_SECURITY_CLASSIFICATION ( #47, ( #538 ) ) ;
#532 = PLANE ( 'NONE',  #79 ) ;
#533 = DIRECTION ( 'NONE',  ( 1.000000000000000000, 0.000000000000000000, -2.168404344971008868E-16 ) ) ;
#534 = DIRECTION ( 'NONE',  ( 0.000000000000000000, 0.000000000000000000, -1.000000000000000000 ) ) ;
#535 = ORIENTED_EDGE ( 'NONE', *, *, #507, .T. ) ;
#536 = APPROVAL_STATUS ( 'not_yet_approved' ) ;
#537 = LINE ( 'NONE', #498, #323 ) ;
#538 = PRODUCT_DEFINITION_FORMATION_WITH_SPECIFIED_SOURCE ( 'ANY', '', #282, .NOT_KNOWN. ) ;
#539 = CALENDAR_DATE ( 2026, 22, 3 ) ;
#540 = DIRECTION ( 'NONE',  ( -1.000000000000000000, 0.000000000000000000, -0.000000000000000000 ) ) ;
#541 = ORIENTED_EDGE ( 'NONE', *, *, #251, .F. ) ;
ENDSEC;
END-ISO-10303-21;
