ISO-10303-21;
HEADER;
FILE_DESCRIPTION (( 'STEP AP203' ),
    '1' );
FILE_NAME ('BAR4X10T2.step',
    '2026-03-22T07:19:03',
    ( '' ),
    ( '' ),
    'SwSTEP 2.0',
    'SolidWorks 2025',
    '' );
FILE_SCHEMA (( 'CONFIG_CONTROL_DESIGN' ));
ENDSEC;

DATA;
#1 = ORIENTED_EDGE ( 'NONE', *, *, #96, .F. ) ;
#2 = FACE_OUTER_BOUND ( 'NONE', #458, .T. ) ;
#3 = CIRCLE ( 'NONE', #476, 0.2000000000000000944 ) ;
#4 = DATE_AND_TIME ( #424, #348 ) ;
#5 = DIRECTION ( 'NONE',  ( 0.000000000000000000, 0.000000000000000000, 1.000000000000000000 ) ) ;
#6 = EDGE_CURVE ( 'NONE', #437, #104, #167, .T. ) ;
#7 = SECURITY_CLASSIFICATION_LEVEL ( 'unclassified' ) ;
#8 = CIRCLE ( 'NONE', #82, 0.1999999999999996503 ) ;
#9 = CARTESIAN_POINT ( 'NONE',  ( -4.800000000000000711, 2.000000000000000000, 1.800000000000000488 ) ) ;
#10 = DATE_TIME_ROLE ( 'classification_date' ) ;
#11 = DIRECTION ( 'NONE',  ( 1.000000000000000000, 0.000000000000000000, 0.000000000000000000 ) ) ;
#12 = APPROVAL ( #58, 'UNSPECIFIED' ) ;
#13 = EDGE_CURVE ( 'NONE', #395, #319, #382, .T. ) ;
#14 = DIRECTION ( 'NONE',  ( 0.000000000000000000, 0.000000000000000000, 1.000000000000000000 ) ) ;
#15 = LINE ( 'NONE', #65, #284 ) ;
#16 = EDGE_CURVE ( 'NONE', #361, #322, #530, .T. ) ;
#17 = ORIENTED_EDGE ( 'NONE', *, *, #535, .T. ) ;
#18 = CIRCLE ( 'NONE', #515, 0.2000000000000000944 ) ;
#19 = CARTESIAN_POINT ( 'NONE',  ( 5.000000000000000000, 2.000000000000000000, -1.799999999999999600 ) ) ;
#20 = ORIENTED_EDGE ( 'NONE', *, *, #364, .F. ) ;
#21 = AXIS2_PLACEMENT_3D ( 'NONE', #410, #454, #493 ) ;
#22 = LINE ( 'NONE', #108, #237 ) ;
#23 = LOCAL_TIME ( 15, 19, 3.000000000000000000, #55 ) ;
#24 = EDGE_LOOP ( 'NONE', ( #406, #271, #160, #44 ) ) ;
#25 = PRODUCT_DEFINITION_SHAPE ( 'NONE', 'NONE',  #441 ) ;
#26 = DIRECTION ( 'NONE',  ( 0.000000000000000000, -0.000000000000000000, 1.000000000000000000 ) ) ;
#27 = EDGE_LOOP ( 'NONE', ( #323, #447, #67, #538 ) ) ;
#28 = LINE ( 'NONE', #19, #51 ) ;
#29 = EDGE_CURVE ( 'NONE', #279, #319, #367, .T. ) ;
#30 = VERTEX_POINT ( 'NONE', #452 ) ;
#31 = CIRCLE ( 'NONE', #310, 0.1999999999999996503 ) ;
#32 = DIRECTION ( 'NONE',  ( 1.000000000000000000, -4.336808689942016158E-15, 0.000000000000000000 ) ) ;
#33 = DIRECTION ( 'NONE',  ( -0.000000000000000000, 0.000000000000000000, 1.000000000000000000 ) ) ;
#34 = AXIS2_PLACEMENT_3D ( 'NONE', #289, #244, #126 ) ;
#35 = DIRECTION ( 'NONE',  ( -1.000000000000000000, 0.000000000000000000, 0.000000000000000000 ) ) ;
#36 = CYLINDRICAL_SURFACE ( 'NONE', #121, 0.2000000000000000944 ) ;
#37 = EDGE_CURVE ( 'NONE', #455, #442, #456, .T. ) ;
#38 = SPHERICAL_SURFACE ( 'NONE', #118, 0.2000000000000000111 ) ;
#39 = CARTESIAN_POINT ( 'NONE',  ( -4.800000000000000711, 2.000000000000000000, 2.000000000000000444 ) ) ;
#40 = ADVANCED_FACE ( 'NONE', ( #327 ), #503, .T. ) ;
#41 = DIRECTION ( 'NONE',  ( 0.000000000000000000, -1.000000000000000000, 0.000000000000000000 ) ) ;
#42 = CC_DESIGN_APPROVAL ( #12, ( #180 ) ) ;
#43 = CARTESIAN_POINT ( 'NONE',  ( 5.000000000000000000, 1.800000000000000044, -1.999999999999999556 ) ) ;
#44 = ORIENTED_EDGE ( 'NONE', *, *, #518, .F. ) ;
#45 = ORIENTED_EDGE ( 'NONE', *, *, #172, .F. ) ;
#46 = DATE_TIME_ROLE ( 'creation_date' ) ;
#47 = ORIENTED_EDGE ( 'NONE', *, *, #321, .F. ) ;
#48 = DIRECTION ( 'NONE',  ( -0.000000000000000000, -1.000000000000000000, -0.000000000000000000 ) ) ;
#49 = PERSON_AND_ORGANIZATION_ROLE ( 'creator' ) ;
#50 = DIRECTION ( 'NONE',  ( 0.000000000000000000, 1.000000000000000000, 0.000000000000000000 ) ) ;
#51 = VECTOR ( 'NONE', #222, 1000.000000000000000 ) ;
#52 = AXIS2_PLACEMENT_3D ( 'NONE', #236, #287, #195 ) ;
#53 = DIRECTION ( 'NONE',  ( 0.000000000000000000, 0.000000000000000000, 1.000000000000000000 ) ) ;
#54 = DIRECTION ( 'NONE',  ( 4.336808689942017736E-16, -0.000000000000000000, 1.000000000000000000 ) ) ;
#55 = COORDINATED_UNIVERSAL_TIME_OFFSET ( 8, 0, .AHEAD. ) ;
#56 = CARTESIAN_POINT ( 'NONE',  ( 5.000000000000000000, 2.000000000000000000, -1.999999999999999556 ) ) ;
#57 = ADVANCED_FACE ( 'NONE', ( #154 ), #36, .T. ) ;
#58 = APPROVAL_STATUS ( 'not_yet_approved' ) ;
#59 = DIRECTION ( 'NONE',  ( -0.000000000000000000, -1.000000000000000000, -0.000000000000000000 ) ) ;
#60 = ADVANCED_FACE ( 'NONE', ( #369 ), #157, .T. ) ;
#61 = CARTESIAN_POINT ( 'NONE',  ( 5.000000000000001776, 0.000000000000000000, 1.800000000000000488 ) ) ;
#62 = AXIS2_PLACEMENT_3D ( 'NONE', #302, #89, #474 ) ;
#63 = DIRECTION ( 'NONE',  ( 0.000000000000000000, 1.000000000000000000, 0.000000000000000000 ) ) ;
#64 = ORIENTED_EDGE ( 'NONE', *, *, #133, .F. ) ;
#65 = CARTESIAN_POINT ( 'NONE',  ( -5.000000000000000000, 1.800000000000000044, -1.999999999999999556 ) ) ;
#66 = EDGE_CURVE ( 'NONE', #322, #279, #203, .T. ) ;
#67 = ORIENTED_EDGE ( 'NONE', *, *, #465, .F. ) ;
#68 = DIRECTION ( 'NONE',  ( 0.000000000000000000, 0.000000000000000000, 1.000000000000000000 ) ) ;
#69 = CC_DESIGN_SECURITY_CLASSIFICATION ( #180, ( #512 ) ) ;
#70 = ORIENTED_EDGE ( 'NONE', *, *, #480, .T. ) ;
#71 = DIRECTION ( 'NONE',  ( 1.000000000000000000, 0.000000000000000000, 0.000000000000000000 ) ) ;
#72 = ORIENTED_EDGE ( 'NONE', *, *, #122, .F. ) ;
#73 = AXIS2_PLACEMENT_3D ( 'NONE', #106, #523, #482 ) ;
#74 = DIRECTION ( 'NONE',  ( 1.000000000000000000, -0.000000000000000000, -0.000000000000000000 ) ) ;
#75 = DIRECTION ( 'NONE',  ( 1.000000000000000000, 0.000000000000000000, 0.000000000000000000 ) ) ;
#76 = CIRCLE ( 'NONE', #21, 0.1999999999999996503 ) ;
#77 = CARTESIAN_POINT ( 'NONE',  ( -4.800000000000000711, 2.000000000000000000, -1.799999999999999600 ) ) ;
#78 = EDGE_CURVE ( 'NONE', #205, #246, #102, .T. ) ;
#79 = DIRECTION ( 'NONE',  ( -1.000000000000000000, -0.000000000000000000, -0.000000000000000000 ) ) ;
#80 = VECTOR ( 'NONE', #33, 1000.000000000000000 ) ;
#81 = DIRECTION ( 'NONE',  ( -1.000000000000000000, 0.000000000000000000, 0.000000000000000000 ) ) ;
#82 = AXIS2_PLACEMENT_3D ( 'NONE', #93, #507, #298 ) ;
#83 = CARTESIAN_POINT ( 'NONE',  ( 4.800000000000002487, 1.800000000000000044, 1.800000000000000488 ) ) ;
#84 = ORIENTED_EDGE ( 'NONE', *, *, #6, .T. ) ;
#85 = ORIENTED_EDGE ( 'NONE', *, *, #350, .T. ) ;
#86 = DIRECTION ( 'NONE',  ( 0.000000000000000000, 0.000000000000000000, 1.000000000000000000 ) ) ;
#87 = DIRECTION ( 'NONE',  ( 0.000000000000000000, 0.000000000000000000, 1.000000000000000000 ) ) ;
#88 = PERSON_AND_ORGANIZATION ( #188, #260 ) ;
#89 = DIRECTION ( 'NONE',  ( 0.000000000000000000, 1.000000000000000000, -0.000000000000000000 ) ) ;
#90 = MECHANICAL_CONTEXT ( 'NONE', #430, 'mechanical' ) ;
#91 = FACE_OUTER_BOUND ( 'NONE', #24, .T. ) ;
#92 = APPLICATION_PROTOCOL_DEFINITION ( 'international standard', 'config_control_design', 1994, #453 ) ;
#93 = CARTESIAN_POINT ( 'NONE',  ( 4.800000000000002487, 1.800000000000000044, 1.800000000000000488 ) ) ;
#94 = PERSON_AND_ORGANIZATION ( #188, #260 ) ;
#95 = DIRECTION ( 'NONE',  ( 1.000000000000000000, 0.000000000000000000, 0.000000000000000000 ) ) ;
#96 = EDGE_CURVE ( 'NONE', #246, #497, #330, .T. ) ;
#97 = PERSON_AND_ORGANIZATION_ROLE ( 'design_owner' ) ;
#98 = PLANE ( 'NONE',  #295 ) ;
#99 = DESIGN_CONTEXT ( 'detailed design', #453, 'design' ) ;
#100 = FACE_OUTER_BOUND ( 'NONE', #149, .T. ) ;
#101 = AXIS2_PLACEMENT_3D ( 'NONE', #313, #63, #394 ) ;
#102 = CIRCLE ( 'NONE', #409, 0.2000000000000000944 ) ;
#103 = CARTESIAN_POINT ( 'NONE',  ( 5.000000000000000000, 0.000000000000000000, -1.999999999999999556 ) ) ;
#104 = VERTEX_POINT ( 'NONE', #332 ) ;
#105 = VECTOR ( 'NONE', #253, 1000.000000000000000 ) ;
#106 = CARTESIAN_POINT ( 'NONE',  ( 4.800000000000002487, 0.000000000000000000, 1.800000000000000488 ) ) ;
#107 = ORIENTED_EDGE ( 'NONE', *, *, #16, .F. ) ;
#108 = CARTESIAN_POINT ( 'NONE',  ( 5.000000000000001776, 2.000000000000000000, 1.800000000000000488 ) ) ;
#109 = EDGE_LOOP ( 'NONE', ( #274, #439, #526, #355 ) ) ;
#110 = LINE ( 'NONE', #525, #176 ) ;
#111 = CC_DESIGN_PERSON_AND_ORGANIZATION_ASSIGNMENT ( #336, #97, ( #357 ) ) ;
#112 = EDGE_LOOP ( 'NONE', ( #117, #231, #250 ) ) ;
#113 = EDGE_CURVE ( 'NONE', #442, #319, #478, .T. ) ;
#114 = ORIENTED_EDGE ( 'NONE', *, *, #400, .F. ) ;
#115 = ADVANCED_FACE ( 'NONE', ( #375 ), #426, .T. ) ;
#116 = CARTESIAN_POINT ( 'NONE',  ( 4.800000000000000711, 1.800000000000000044, -1.799999999999999600 ) ) ;
#117 = ORIENTED_EDGE ( 'NONE', *, *, #78, .T. ) ;
#118 = AXIS2_PLACEMENT_3D ( 'NONE', #83, #490, #249 ) ;
#119 = ADVANCED_BREP_SHAPE_REPRESENTATION ( 'BAR4X10T2', ( #435, #489 ), #443 ) ;
#120 = EDGE_LOOP ( 'NONE', ( #449, #517, #377, #283 ) ) ;
#121 = AXIS2_PLACEMENT_3D ( 'NONE', #199, #163, #324 ) ;
#122 = EDGE_CURVE ( 'NONE', #279, #352, #340, .T. ) ;
#123 = FACE_OUTER_BOUND ( 'NONE', #112, .T. ) ;
#124 = CARTESIAN_POINT ( 'NONE',  ( -5.000000000000000000, 1.800000000000000044, 2.000000000000000444 ) ) ;
#125 =( LENGTH_UNIT ( ) NAMED_UNIT ( * ) SI_UNIT ( .MILLI., .METRE. ) );
#126 = DIRECTION ( 'NONE',  ( 0.000000000000000000, 0.000000000000000000, 1.000000000000000000 ) ) ;
#127 = CALENDAR_DATE ( 2026, 22, 3 ) ;
#128 = EDGE_LOOP ( 'NONE', ( #528, #398, #189, #84 ) ) ;
#129 = CARTESIAN_POINT ( 'NONE',  ( 4.800000000000000711, 2.000000000000000000, -1.799999999999999600 ) ) ;
#130 = VECTOR ( 'NONE', #388, 1000.000000000000000 ) ;
#131 = ADVANCED_FACE ( 'NONE', ( #137 ), #463, .T. ) ;
#132 = CARTESIAN_POINT ( 'NONE',  ( -5.000000000000000000, 2.000000000000000000, -1.999999999999999556 ) ) ;
#133 = EDGE_CURVE ( 'NONE', #205, #352, #261, .T. ) ;
#134 = PLANE ( 'NONE',  #223 ) ;
#135 = CC_DESIGN_APPROVAL ( #345, ( #441 ) ) ;
#136 = CARTESIAN_POINT ( 'NONE',  ( -4.800000000000000711, 1.800000000000000044, -1.799999999999999600 ) ) ;
#137 = FACE_OUTER_BOUND ( 'NONE', #483, .T. ) ;
#138 = CARTESIAN_POINT ( 'NONE',  ( 5.000000000000001776, 2.000000000000000000, 1.800000000000000488 ) ) ;
#139 = ORIENTED_EDGE ( 'NONE', *, *, #364, .T. ) ;
#140 = VECTOR ( 'NONE', #75, 1000.000000000000000 ) ;
#141 = DIRECTION ( 'NONE',  ( -4.336808689942017736E-16, -0.000000000000000000, -1.000000000000000000 ) ) ;
#142 = ORIENTED_EDGE ( 'NONE', *, *, #251, .T. ) ;
#143 = CARTESIAN_POINT ( 'NONE',  ( -5.000000000000000000, 0.000000000000000000, -1.999999999999999556 ) ) ;
#144 = ORIENTED_EDGE ( 'NONE', *, *, #113, .F. ) ;
#145 = CC_DESIGN_PERSON_AND_ORGANIZATION_ASSIGNMENT ( #387, #208, ( #180 ) ) ;
#146 = DIRECTION ( 'NONE',  ( 0.000000000000000000, -1.000000000000000000, 0.000000000000000000 ) ) ;
#147 = VERTEX_POINT ( 'NONE', #306 ) ;
#148 = UNCERTAINTY_MEASURE_WITH_UNIT (LENGTH_MEASURE( 1.000000000000000082E-05 ), #125, 'distance_accuracy_value', 'NONE');
#149 = EDGE_LOOP ( 'NONE', ( #192, #391, #281, #418 ) ) ;
#150 = ADVANCED_FACE ( 'NONE', ( #378 ), #214, .T. ) ;
#151 = AXIS2_PLACEMENT_3D ( 'NONE', #216, #468, #385 ) ;
#152 = CARTESIAN_POINT ( 'NONE',  ( -4.800000000000000711, 1.800000000000000044, 0.000000000000000000 ) ) ;
#153 = ORIENTED_EDGE ( 'NONE', *, *, #78, .F. ) ;
#154 = FACE_OUTER_BOUND ( 'NONE', #502, .T. ) ;
#155 = AXIS2_PLACEMENT_3D ( 'NONE', #181, #311, #225 ) ;
#156 = DIRECTION ( 'NONE',  ( -0.000000000000000000, 1.000000000000000000, -0.000000000000000000 ) ) ;
#157 = SPHERICAL_SURFACE ( 'NONE', #186, 0.2000000000000000111 ) ;
#158 = ADVANCED_FACE ( 'NONE', ( #2 ), #429, .T. ) ;
#159 = DIRECTION ( 'NONE',  ( -0.000000000000000000, -0.000000000000000000, 1.000000000000000000 ) ) ;
#160 = ORIENTED_EDGE ( 'NONE', *, *, #13, .F. ) ;
#161 = LOCAL_TIME ( 15, 19, 3.000000000000000000, #296 ) ;
#162 = CARTESIAN_POINT ( 'NONE',  ( -5.000000000000000000, 2.000000000000000000, 1.800000000000000488 ) ) ;
#163 = DIRECTION ( 'NONE',  ( 0.000000000000000000, -1.000000000000000000, 0.000000000000000000 ) ) ;
#164 = EDGE_CURVE ( 'NONE', #104, #422, #315, .T. ) ;
#165 = APPROVAL_STATUS ( 'not_yet_approved' ) ;
#166 = ORIENTED_EDGE ( 'NONE', *, *, #414, .F. ) ;
#167 = LINE ( 'NONE', #408, #521 ) ;
#168 = AXIS2_PLACEMENT_3D ( 'NONE', #533, #32, #320 ) ;
#169 = ORIENTED_EDGE ( 'NONE', *, *, #425, .F. ) ;
#170 = LINE ( 'NONE', #339, #130 ) ;
#171 = VECTOR ( 'NONE', #41, 1000.000000000000000 ) ;
#172 = EDGE_CURVE ( 'NONE', #30, #209, #170, .T. ) ;
#173 = CARTESIAN_POINT ( 'NONE',  ( 4.800000000000001599, 1.800000000000000044, -2.081668171172169302E-15 ) ) ;
#174 = CIRCLE ( 'NONE', #151, 0.2000000000000000944 ) ;
#175 = AXIS2_PLACEMENT_3D ( 'NONE', #383, #95, #300 ) ;
#176 = VECTOR ( 'NONE', #440, 1000.000000000000000 ) ;
#177 = PERSON_AND_ORGANIZATION ( #188, #260 ) ;
#178 = DIRECTION ( 'NONE',  ( 0.000000000000000000, -1.000000000000000000, 0.000000000000000000 ) ) ;
#179 = DIRECTION ( 'NONE',  ( 0.000000000000000000, 1.000000000000000000, 0.000000000000000000 ) ) ;
#180 = SECURITY_CLASSIFICATION ( '', '', #7 ) ;
#181 = CARTESIAN_POINT ( 'NONE',  ( -4.800000000000000711, 0.000000000000000000, 1.800000000000000488 ) ) ;
#182 = CARTESIAN_POINT ( 'NONE',  ( -5.000000000000000000, 1.800000000000000044, 1.800000000000000488 ) ) ;
#183 = ORIENTED_EDGE ( 'NONE', *, *, #164, .T. ) ;
#184 = CARTESIAN_POINT ( 'NONE',  ( -5.000000000000000000, 2.000000000000000000, 2.000000000000000444 ) ) ;
#185 = ORIENTED_EDGE ( 'NONE', *, *, #210, .T. ) ;
#186 = AXIS2_PLACEMENT_3D ( 'NONE', #420, #292, #81 ) ;
#187 = DIRECTION ( 'NONE',  ( 1.000000000000000000, 0.000000000000000000, -0.000000000000000000 ) ) ;
#188 = PERSON ( 'UNSPECIFIED', 'UNSPECIFIED', 'UNSPECIFIED', ('UNSPECIFIED'), ('UNSPECIFIED'), ('UNSPECIFIED') ) ;
#189 = ORIENTED_EDGE ( 'NONE', *, *, #356, .T. ) ;
#190 = EDGE_CURVE ( 'NONE', #352, #30, #8, .T. ) ;
#191 = PLANE ( 'NONE',  #234 ) ;
#192 = ORIENTED_EDGE ( 'NONE', *, *, #164, .F. ) ;
#193 = FACE_OUTER_BOUND ( 'NONE', #120, .T. ) ;
#194 = ORIENTED_EDGE ( 'NONE', *, *, #133, .T. ) ;
#195 = DIRECTION ( 'NONE',  ( 0.000000000000000000, -0.000000000000000000, 1.000000000000000000 ) ) ;
#196 = AXIS2_PLACEMENT_3D ( 'NONE', #136, #50, #5 ) ;
#197 = CARTESIAN_POINT ( 'NONE',  ( 0.000000000000000000, 1.800000000000000044, 1.800000000000000488 ) ) ;
#198 = ORIENTED_EDGE ( 'NONE', *, *, #29, .T. ) ;
#199 = CARTESIAN_POINT ( 'NONE',  ( 4.800000000000002487, 2.000000000000000000, 1.800000000000000488 ) ) ;
#200 = CARTESIAN_POINT ( 'NONE',  ( -4.800000000000000711, 1.800000000000000044, -1.799999999999999600 ) ) ;
#201 = CARTESIAN_POINT ( 'NONE',  ( 4.800000000000000711, 1.800000000000000044, -1.799999999999999600 ) ) ;
#202 = DIRECTION ( 'NONE',  ( -1.000000000000000000, 0.000000000000000000, 4.336808689942024836E-15 ) ) ;
#203 = LINE ( 'NONE', #532, #285 ) ;
#204 = CARTESIAN_POINT ( 'NONE',  ( -5.000000000000000000, 2.000000000000000000, -1.799999999999999600 ) ) ;
#205 = VERTEX_POINT ( 'NONE', #389 ) ;
#206 = EDGE_CURVE ( 'NONE', #446, #437, #386, .T. ) ;
#207 = DIRECTION ( 'NONE',  ( 1.000000000000000000, -0.000000000000000000, -0.000000000000000000 ) ) ;
#208 = PERSON_AND_ORGANIZATION_ROLE ( 'classification_officer' ) ;
#209 = VERTEX_POINT ( 'NONE', #129 ) ;
#210 = EDGE_CURVE ( 'NONE', #279, #30, #174, .T. ) ;
#211 = DIRECTION ( 'NONE',  ( 0.000000000000000000, 0.000000000000000000, 1.000000000000000000 ) ) ;
#212 = VECTOR ( 'NONE', #156, 1000.000000000000000 ) ;
#213 = COORDINATED_UNIVERSAL_TIME_OFFSET ( 8, 0, .AHEAD. ) ;
#214 = CYLINDRICAL_SURFACE ( 'NONE', #464, 0.1999999999999996503 ) ;
#215 = APPROVAL_ROLE ( '' ) ;
#216 = CARTESIAN_POINT ( 'NONE',  ( 4.800000000000002487, 1.800000000000000044, 1.800000000000000488 ) ) ;
#217 = ADVANCED_FACE ( 'NONE', ( #509 ), #134, .F. ) ;
#218 = PERSON_AND_ORGANIZATION_ROLE ( 'creator' ) ;
#219 = DIRECTION ( 'NONE',  ( 0.000000000000000000, 0.000000000000000000, -1.000000000000000000 ) ) ;
#220 = DIRECTION ( 'NONE',  ( 1.000000000000000000, 0.000000000000000000, -4.336808689942029076E-16 ) ) ;
#221 = PRODUCT_RELATED_PRODUCT_CATEGORY ( 'detail', '', ( #357 ) ) ;
#222 = DIRECTION ( 'NONE',  ( -0.000000000000000000, 1.000000000000000000, -0.000000000000000000 ) ) ;
#223 = AXIS2_PLACEMENT_3D ( 'NONE', #132, #11, #431 ) ;
#224 = ORIENTED_EDGE ( 'NONE', *, *, #346, .T. ) ;
#225 = DIRECTION ( 'NONE',  ( 0.000000000000000000, 0.000000000000000000, 1.000000000000000000 ) ) ;
#226 = ADVANCED_FACE ( 'NONE', ( #91 ), #255, .T. ) ;
#227 = ORIENTED_EDGE ( 'NONE', *, *, #400, .T. ) ;
#228 = ORIENTED_EDGE ( 'NONE', *, *, #16, .T. ) ;
#229 = APPROVAL_PERSON_ORGANIZATION ( #539, #498, #215 ) ;
#230 = LINE ( 'NONE', #487, #412 ) ;
#231 = ORIENTED_EDGE ( 'NONE', *, *, #501, .T. ) ;
#232 = CARTESIAN_POINT ( 'NONE',  ( -4.800000000000000711, 0.000000000000000000, 2.000000000000000444 ) ) ;
#233 = ORIENTED_EDGE ( 'NONE', *, *, #172, .T. ) ;
#234 = AXIS2_PLACEMENT_3D ( 'NONE', #358, #275, #187 ) ;
#235 = FACE_OUTER_BOUND ( 'NONE', #524, .T. ) ;
#236 = CARTESIAN_POINT ( 'NONE',  ( 0.000000000000000000, 2.000000000000000000, 0.000000000000000000 ) ) ;
#237 = VECTOR ( 'NONE', #146, 1000.000000000000000 ) ;
#238 = AXIS2_PLACEMENT_3D ( 'NONE', #459, #207, #87 ) ;
#239 = CYLINDRICAL_SURFACE ( 'NONE', #256, 0.1999999999999996503 ) ;
#240 = ORIENTED_EDGE ( 'NONE', *, *, #264, .T. ) ;
#241 = DIRECTION ( 'NONE',  ( 0.000000000000000000, 0.000000000000000000, 1.000000000000000000 ) ) ;
#242 = EDGE_LOOP ( 'NONE', ( #198, #252, #228, #540 ) ) ;
#243 = AXIS2_PLACEMENT_3D ( 'NONE', #514, #48, #211 ) ;
#244 = DIRECTION ( 'NONE',  ( 0.000000000000000000, 1.000000000000000000, -0.000000000000000000 ) ) ;
#245 = CARTESIAN_POINT ( 'NONE',  ( -5.000000000000000000, 1.800000000000000044, -1.799999999999999600 ) ) ;
#246 = VERTEX_POINT ( 'NONE', #511 ) ;
#247 = CC_DESIGN_PERSON_AND_ORGANIZATION_ASSIGNMENT ( #94, #257, ( #512 ) ) ;
#248 = ADVANCED_FACE ( 'NONE', ( #472 ), #98, .F. ) ;
#249 = DIRECTION ( 'NONE',  ( 0.000000000000000000, 0.000000000000000000, -1.000000000000000000 ) ) ;
#250 = ORIENTED_EDGE ( 'NONE', *, *, #480, .F. ) ;
#251 = EDGE_CURVE ( 'NONE', #497, #506, #18, .T. ) ;
#252 = ORIENTED_EDGE ( 'NONE', *, *, #268, .T. ) ;
#253 = DIRECTION ( 'NONE',  ( 4.336808689942017736E-16, -0.000000000000000000, 1.000000000000000000 ) ) ;
#254 = COORDINATED_UNIVERSAL_TIME_OFFSET ( 8, 0, .AHEAD. ) ;
#255 = CYLINDRICAL_SURFACE ( 'NONE', #508, 0.2000000000000000944 ) ;
#256 = AXIS2_PLACEMENT_3D ( 'NONE', #152, #417, #35 ) ;
#257 = PERSON_AND_ORGANIZATION_ROLE ( 'design_supplier' ) ;
#258 = EDGE_CURVE ( 'NONE', #361, #147, #325, .T. ) ;
#259 = CARTESIAN_POINT ( 'NONE',  ( 4.800000000000002487, 1.800000000000000044, 1.800000000000000488 ) ) ;
#260 = ORGANIZATION ( 'UNSPECIFIED', 'UNSPECIFIED', '' ) ;
#261 = LINE ( 'NONE', #513, #105 ) ;
#262 = ADVANCED_FACE ( 'NONE', ( #193 ), #191, .F. ) ;
#263 = DIRECTION ( 'NONE',  ( 4.336808689942017736E-16, 0.000000000000000000, 1.000000000000000000 ) ) ;
#264 = EDGE_CURVE ( 'NONE', #393, #322, #307, .T. ) ;
#265 = ADVANCED_FACE ( 'NONE', ( #100 ), #527, .T. ) ;
#266 = DIRECTION ( 'NONE',  ( -0.000000000000000000, 1.000000000000000000, -0.000000000000000000 ) ) ;
#267 = CLOSED_SHELL ( 'NONE', ( #248, #262, #217, #326, #40, #405, #265, #115, #158, #60, #461, #226, #444, #150, #57, #131, #419, #504 ) ) ;
#268 = EDGE_CURVE ( 'NONE', #319, #361, #230, .T. ) ;
#269 = FACE_OUTER_BOUND ( 'NONE', #312, .T. ) ;
#270 = AXIS2_PLACEMENT_3D ( 'NONE', #423, #349, #219 ) ;
#271 = ORIENTED_EDGE ( 'NONE', *, *, #268, .F. ) ;
#272 = AXIS2_PLACEMENT_3D ( 'NONE', #397, #308, #351 ) ;
#273 = CARTESIAN_POINT ( 'NONE',  ( 4.800000000000002487, 1.800000000000000044, 2.000000000000000444 ) ) ;
#274 = ORIENTED_EDGE ( 'NONE', *, *, #425, .T. ) ;
#275 = DIRECTION ( 'NONE',  ( 0.000000000000000000, 0.000000000000000000, 1.000000000000000000 ) ) ;
#276 = ORIENTED_EDGE ( 'NONE', *, *, #206, .T. ) ;
#277 = APPROVAL_PERSON_ORGANIZATION ( #381, #12, #469 ) ;
#278 = LINE ( 'NONE', #138, #376 ) ;
#279 = VERTEX_POINT ( 'NONE', #273 ) ;
#280 =( NAMED_UNIT ( * ) SI_UNIT ( $, .STERADIAN. ) SOLID_ANGLE_UNIT ( ) );
#281 = ORIENTED_EDGE ( 'NONE', *, *, #206, .F. ) ;
#282 = APPLICATION_PROTOCOL_DEFINITION ( 'international standard', 'config_control_design', 1994, #430 ) ;
#283 = ORIENTED_EDGE ( 'NONE', *, *, #96, .T. ) ;
#284 = VECTOR ( 'NONE', #354, 1000.000000000000000 ) ;
#285 = VECTOR ( 'NONE', #413, 1000.000000000000000 ) ;
#286 = DIRECTION ( 'NONE',  ( -1.000000000000000000, 0.000000000000000000, 0.000000000000000000 ) ) ;
#287 = DIRECTION ( 'NONE',  ( 0.000000000000000000, 1.000000000000000000, 0.000000000000000000 ) ) ;
#288 = CARTESIAN_POINT ( 'NONE',  ( -4.800000000000000711, 2.000000000000000000, 1.800000000000000488 ) ) ;
#289 = CARTESIAN_POINT ( 'NONE',  ( -4.800000000000000711, 1.800000000000000044, 1.800000000000000488 ) ) ;
#290 = LINE ( 'NONE', #43, #407 ) ;
#291 = ORIENTED_EDGE ( 'NONE', *, *, #66, .F. ) ;
#292 = DIRECTION ( 'NONE',  ( 0.000000000000000000, 1.000000000000000000, 0.000000000000000000 ) ) ;
#293 = DATE_AND_TIME ( #510, #396 ) ;
#294 = EDGE_LOOP ( 'NONE', ( #70, #45, #317, #64 ) ) ;
#295 = AXIS2_PLACEMENT_3D ( 'NONE', #56, #347, #263 ) ;
#296 = COORDINATED_UNIVERSAL_TIME_OFFSET ( 8, 0, .AHEAD. ) ;
#297 = ORIENTED_EDGE ( 'NONE', *, *, #465, .T. ) ;
#298 = DIRECTION ( 'NONE',  ( 1.000000000000000000, 0.000000000000000000, 0.000000000000000000 ) ) ;
#299 = CALENDAR_DATE ( 2026, 22, 3 ) ;
#300 = DIRECTION ( 'NONE',  ( 0.000000000000000000, 0.000000000000000000, -1.000000000000000000 ) ) ;
#301 = COORDINATED_UNIVERSAL_TIME_OFFSET ( 8, 0, .AHEAD. ) ;
#302 = CARTESIAN_POINT ( 'NONE',  ( -4.800000000000000711, 1.800000000000000044, 1.800000000000000488 ) ) ;
#303 = APPROVAL_PERSON_ORGANIZATION ( #88, #345, #432 ) ;
#304 = DATE_AND_TIME ( #299, #23 ) ;
#305 = CC_DESIGN_DATE_AND_TIME_ASSIGNMENT ( #293, #10, ( #180 ) ) ;
#306 = CARTESIAN_POINT ( 'NONE',  ( -5.000000000000000000, 0.000000000000000000, 1.800000000000000488 ) ) ;
#307 = CIRCLE ( 'NONE', #73, 0.2000000000000000944 ) ;
#308 = DIRECTION ( 'NONE',  ( 0.000000000000000000, -1.000000000000000000, 0.000000000000000000 ) ) ;
#309 = EDGE_CURVE ( 'NONE', #497, #422, #110, .T. ) ;
#310 = AXIS2_PLACEMENT_3D ( 'NONE', #401, #26, #71 ) ;
#311 = DIRECTION ( 'NONE',  ( -0.000000000000000000, -1.000000000000000000, -0.000000000000000000 ) ) ;
#312 = EDGE_LOOP ( 'NONE', ( #107, #371, #47, #183, #492, #142, #114, #240 ) ) ;
#313 = CARTESIAN_POINT ( 'NONE',  ( 0.000000000000000000, 0.000000000000000000, 0.000000000000000000 ) ) ;
#314 = ORIENTED_EDGE ( 'NONE', *, *, #37, .T. ) ;
#315 = CIRCLE ( 'NONE', #243, 0.2000000000000000944 ) ;
#316 = DIRECTION ( 'NONE',  ( 0.000000000000000000, 0.000000000000000000, -1.000000000000000000 ) ) ;
#317 = ORIENTED_EDGE ( 'NONE', *, *, #190, .F. ) ;
#318 = FACE_OUTER_BOUND ( 'NONE', #486, .T. ) ;
#319 = VERTEX_POINT ( 'NONE', #475 ) ;
#320 = DIRECTION ( 'NONE',  ( 4.336808689942015369E-15, 1.000000000000000000, 0.000000000000000000 ) ) ;
#321 = EDGE_CURVE ( 'NONE', #104, #147, #477, .T. ) ;
#322 = VERTEX_POINT ( 'NONE', #392 ) ;
#323 = ORIENTED_EDGE ( 'NONE', *, *, #501, .F. ) ;
#324 = DIRECTION ( 'NONE',  ( 0.000000000000000000, 0.000000000000000000, -1.000000000000000000 ) ) ;
#325 = CIRCLE ( 'NONE', #155, 0.2000000000000000944 ) ;
#326 = ADVANCED_FACE ( 'NONE', ( #434 ), #516, .F. ) ;
#327 = FACE_OUTER_BOUND ( 'NONE', #500, .T. ) ;
#328 = VECTOR ( 'NONE', #266, 1000.000000000000000 ) ;
#329 = CARTESIAN_POINT ( 'NONE',  ( -4.800000000000000711, 1.800000000000000044, -1.799999999999999600 ) ) ;
#330 = LINE ( 'NONE', #416, #171 ) ;
#331 = CARTESIAN_POINT ( 'NONE',  ( -4.800000000000000711, 0.000000000000000000, -1.999999999999999556 ) ) ;
#332 = CARTESIAN_POINT ( 'NONE',  ( -5.000000000000000000, 0.000000000000000000, -1.799999999999999600 ) ) ;
#333 = DATE_AND_TIME ( #341, #161 ) ;
#334 = DIRECTION ( 'NONE',  ( 0.000000000000000000, 0.000000000000000000, 1.000000000000000000 ) ) ;
#335 = AXIS2_PLACEMENT_3D ( 'NONE', #116, #415, #202 ) ;
#336 = PERSON_AND_ORGANIZATION ( #188, #260 ) ;
#337 = ORIENTED_EDGE ( 'NONE', *, *, #210, .F. ) ;
#338 = VECTOR ( 'NONE', #79, 1000.000000000000000 ) ;
#339 = CARTESIAN_POINT ( 'NONE',  ( 4.800000000000000711, 2.000000000000000000, -1.999999999999999556 ) ) ;
#340 = CIRCLE ( 'NONE', #481, 0.2000000000000000944 ) ;
#341 = CALENDAR_DATE ( 2026, 22, 3 ) ;
#342 = DIRECTION ( 'NONE',  ( 0.000000000000000000, 0.000000000000000000, 1.000000000000000000 ) ) ;
#343 = APPROVAL_STATUS ( 'not_yet_approved' ) ;
#344 = DIRECTION ( 'NONE',  ( 0.000000000000000000, 0.000000000000000000, -1.000000000000000000 ) ) ;
#345 = APPROVAL ( #165, 'UNSPECIFIED' ) ;
#346 = EDGE_CURVE ( 'NONE', #442, #30, #278, .T. ) ;
#347 = DIRECTION ( 'NONE',  ( -1.000000000000000000, 0.000000000000000000, 4.336808689942017736E-16 ) ) ;
#348 = LOCAL_TIME ( 15, 19, 3.000000000000000000, #301 ) ;
#349 = DIRECTION ( 'NONE',  ( 0.000000000000000000, -1.000000000000000000, 0.000000000000000000 ) ) ;
#350 = EDGE_CURVE ( 'NONE', #442, #395, #31, .T. ) ;
#351 = DIRECTION ( 'NONE',  ( 0.000000000000000000, 0.000000000000000000, -1.000000000000000000 ) ) ;
#352 = VERTEX_POINT ( 'NONE', #390 ) ;
#353 = VECTOR ( 'NONE', #141, 1000.000000000000000 ) ;
#354 = DIRECTION ( 'NONE',  ( 0.000000000000000000, -0.000000000000000000, -1.000000000000000000 ) ) ;
#355 = ORIENTED_EDGE ( 'NONE', *, *, #37, .F. ) ;
#356 = EDGE_CURVE ( 'NONE', #395, #437, #15, .T. ) ;
#357 = PRODUCT ( 'BAR4X10T2', 'BAR4X10T2', '', ( #90 ) ) ;
#358 = CARTESIAN_POINT ( 'NONE',  ( -5.000000000000000000, 2.000000000000000000, -1.999999999999999556 ) ) ;
#359 = ORIENTED_EDGE ( 'NONE', *, *, #122, .T. ) ;
#360 = DIRECTION ( 'NONE',  ( 0.000000000000000000, -1.000000000000000000, 0.000000000000000000 ) ) ;
#361 = VERTEX_POINT ( 'NONE', #232 ) ;
#362 = CC_DESIGN_PERSON_AND_ORGANIZATION_ASSIGNMENT ( #177, #218, ( #512 ) ) ;
#363 = CARTESIAN_POINT ( 'NONE',  ( -4.800000000000000711, 2.000000000000000000, -1.999999999999999556 ) ) ;
#364 = EDGE_CURVE ( 'NONE', #506, #205, #28, .T. ) ;
#365 = ORIENTED_EDGE ( 'NONE', *, *, #190, .T. ) ;
#366 = CARTESIAN_POINT ( 'NONE',  ( -4.800000000000000711, 1.800000000000000044, -1.999999999999999556 ) ) ;
#367 = LINE ( 'NONE', #124, #338 ) ;
#368 = EDGE_CURVE ( 'NONE', #422, #446, #484, .T. ) ;
#369 = FACE_OUTER_BOUND ( 'NONE', #402, .T. ) ;
#370 = SPHERICAL_SURFACE ( 'NONE', #335, 0.2000000000000000111 ) ;
#371 = ORIENTED_EDGE ( 'NONE', *, *, #258, .T. ) ;
#372 = CARTESIAN_POINT ( 'NONE',  ( 4.799999999999999822, 0.000000000000000000, -1.999999999999999556 ) ) ;
#373 = ORIENTED_EDGE ( 'NONE', *, *, #113, .T. ) ;
#374 = DIRECTION ( 'NONE',  ( -1.000000000000000000, 0.000000000000000000, 0.000000000000000000 ) ) ;
#375 = FACE_OUTER_BOUND ( 'NONE', #27, .T. ) ;
#376 = VECTOR ( 'NONE', #445, 1000.000000000000000 ) ;
#377 = ORIENTED_EDGE ( 'NONE', *, *, #485, .T. ) ;
#378 = FACE_OUTER_BOUND ( 'NONE', #294, .T. ) ;
#379 = VECTOR ( 'NONE', #68, 1000.000000000000000 ) ;
#380 = CIRCLE ( 'NONE', #168, 0.2000000000000000944 ) ;
#381 = PERSON_AND_ORGANIZATION ( #188, #260 ) ;
#382 = CIRCLE ( 'NONE', #34, 0.2000000000000000944 ) ;
#383 = CARTESIAN_POINT ( 'NONE',  ( 0.000000000000000000, 1.800000000000000044, -1.799999999999999600 ) ) ;
#384 = APPROVAL_DATE_TIME ( #304, #498 ) ;
#385 = DIRECTION ( 'NONE',  ( 0.000000000000000000, 0.000000000000000000, -1.000000000000000000 ) ) ;
#386 = CIRCLE ( 'NONE', #196, 0.2000000000000000944 ) ;
#387 = PERSON_AND_ORGANIZATION ( #188, #260 ) ;
#388 = DIRECTION ( 'NONE',  ( -4.336808689942017736E-16, 0.000000000000000000, -1.000000000000000000 ) ) ;
#389 = CARTESIAN_POINT ( 'NONE',  ( 5.000000000000000000, 1.800000000000000044, -1.799999999999999600 ) ) ;
#390 = CARTESIAN_POINT ( 'NONE',  ( 5.000000000000001776, 1.800000000000000044, 1.800000000000000488 ) ) ;
#391 = ORIENTED_EDGE ( 'NONE', *, *, #6, .F. ) ;
#392 = CARTESIAN_POINT ( 'NONE',  ( 4.800000000000003375, 0.000000000000000000, 2.000000000000000444 ) ) ;
#393 = VERTEX_POINT ( 'NONE', #61 ) ;
#394 = DIRECTION ( 'NONE',  ( 0.000000000000000000, -0.000000000000000000, 1.000000000000000000 ) ) ;
#395 = VERTEX_POINT ( 'NONE', #182 ) ;
#396 = LOCAL_TIME ( 15, 19, 3.000000000000000000, #254 ) ;
#397 = CARTESIAN_POINT ( 'NONE',  ( -4.800000000000000711, 2.000000000000000000, -1.799999999999999600 ) ) ;
#398 = ORIENTED_EDGE ( 'NONE', *, *, #518, .T. ) ;
#399 = CC_DESIGN_PERSON_AND_ORGANIZATION_ASSIGNMENT ( #462, #49, ( #441 ) ) ;
#400 = EDGE_CURVE ( 'NONE', #393, #506, #520, .T. ) ;
#401 = CARTESIAN_POINT ( 'NONE',  ( -4.800000000000000711, 1.800000000000000044, 1.800000000000000488 ) ) ;
#402 = EDGE_LOOP ( 'NONE', ( #297, #276, #169 ) ) ;
#403 = AXIS2_PLACEMENT_3D ( 'NONE', #184, #316, #438 ) ;
#404 = LINE ( 'NONE', #162, #212 ) ;
#405 = ADVANCED_FACE ( 'NONE', ( #269 ), #436, .F. ) ;
#406 = ORIENTED_EDGE ( 'NONE', *, *, #258, .F. ) ;
#407 = VECTOR ( 'NONE', #74, 1000.000000000000000 ) ;
#408 = CARTESIAN_POINT ( 'NONE',  ( -5.000000000000000000, 2.000000000000000000, -1.799999999999999600 ) ) ;
#409 = AXIS2_PLACEMENT_3D ( 'NONE', #201, #534, #334 ) ;
#410 = CARTESIAN_POINT ( 'NONE',  ( 4.800000000000000711, 1.800000000000000044, -1.799999999999999600 ) ) ;
#411 = CARTESIAN_POINT ( 'NONE',  ( -5.000000000000000000, 0.000000000000000000, 2.000000000000000444 ) ) ;
#412 = VECTOR ( 'NONE', #360, 1000.000000000000000 ) ;
#413 = DIRECTION ( 'NONE',  ( -0.000000000000000000, 1.000000000000000000, -0.000000000000000000 ) ) ;
#414 = EDGE_CURVE ( 'NONE', #352, #393, #22, .T. ) ;
#415 = DIRECTION ( 'NONE',  ( 0.000000000000000000, 1.000000000000000000, 0.000000000000000000 ) ) ;
#416 = CARTESIAN_POINT ( 'NONE',  ( 4.799999999999999822, 2.000000000000000000, -1.999999999999999556 ) ) ;
#417 = DIRECTION ( 'NONE',  ( 0.000000000000000000, 0.000000000000000000, -1.000000000000000000 ) ) ;
#418 = ORIENTED_EDGE ( 'NONE', *, *, #368, .F. ) ;
#419 = ADVANCED_FACE ( 'NONE', ( #318 ), #38, .T. ) ;
#420 = CARTESIAN_POINT ( 'NONE',  ( -4.800000000000000711, 1.800000000000000044, -1.799999999999999600 ) ) ;
#421 = DIRECTION ( 'NONE',  ( 1.000000000000000000, 0.000000000000000000, 0.000000000000000000 ) ) ;
#422 = VERTEX_POINT ( 'NONE', #331 ) ;
#423 = CARTESIAN_POINT ( 'NONE',  ( 4.799999999999999822, 2.000000000000000000, -1.799999999999999600 ) ) ;
#424 = CALENDAR_DATE ( 2026, 22, 3 ) ;
#425 = EDGE_CURVE ( 'NONE', #455, #437, #494, .T. ) ;
#426 = CYLINDRICAL_SURFACE ( 'NONE', #175, 0.2000000000000000944 ) ;
#427 = AXIS2_PLACEMENT_3D ( 'NONE', #329, #159, #457 ) ;
#428 = DATE_AND_TIME ( #127, #471 ) ;
#429 = CYLINDRICAL_SURFACE ( 'NONE', #270, 0.2000000000000000944 ) ;
#430 = APPLICATION_CONTEXT ( 'configuration controlled 3d designs of mechanical parts and assemblies' ) ;
#431 = DIRECTION ( 'NONE',  ( 0.000000000000000000, 0.000000000000000000, -1.000000000000000000 ) ) ;
#432 = APPROVAL_ROLE ( '' ) ;
#433 = CARTESIAN_POINT ( 'NONE',  ( 4.799999999999999822, 0.000000000000000000, -1.799999999999999600 ) ) ;
#434 = FACE_OUTER_BOUND ( 'NONE', #242, .T. ) ;
#435 = MANIFOLD_SOLID_BREP ( '\X2\570689d2\X0\1', #267 ) ;
#436 = PLANE ( 'NONE',  #101 ) ;
#437 = VERTEX_POINT ( 'NONE', #245 ) ;
#438 = DIRECTION ( 'NONE',  ( -1.000000000000000000, 0.000000000000000000, -0.000000000000000000 ) ) ;
#439 = ORIENTED_EDGE ( 'NONE', *, *, #356, .F. ) ;
#440 = DIRECTION ( 'NONE',  ( -1.000000000000000000, -0.000000000000000000, -0.000000000000000000 ) ) ;
#441 = PRODUCT_DEFINITION ( 'UNKNOWN', '', #512, #99 ) ;
#442 = VERTEX_POINT ( 'NONE', #288 ) ;
#443 =( GEOMETRIC_REPRESENTATION_CONTEXT ( 3 ) GLOBAL_UNCERTAINTY_ASSIGNED_CONTEXT ( ( #148 ) ) GLOBAL_UNIT_ASSIGNED_CONTEXT ( ( #125, #529, #280 ) ) REPRESENTATION_CONTEXT ( 'NONE', 'WORKASPACE' ) );
#444 = ADVANCED_FACE ( 'NONE', ( #496 ), #239, .T. ) ;
#445 = DIRECTION ( 'NONE',  ( 1.000000000000000000, -0.000000000000000000, 0.000000000000000000 ) ) ;
#446 = VERTEX_POINT ( 'NONE', #366 ) ;
#447 = ORIENTED_EDGE ( 'NONE', *, *, #485, .F. ) ;
#448 = CYLINDRICAL_SURFACE ( 'NONE', #450, 0.2000000000000000944 ) ;
#449 = ORIENTED_EDGE ( 'NONE', *, *, #309, .T. ) ;
#450 = AXIS2_PLACEMENT_3D ( 'NONE', #197, #286, #86 ) ;
#451 = EDGE_LOOP ( 'NONE', ( #227, #139, #194, #495 ) ) ;
#452 = CARTESIAN_POINT ( 'NONE',  ( 4.800000000000002487, 2.000000000000000000, 1.800000000000000488 ) ) ;
#453 = APPLICATION_CONTEXT ( 'configuration controlled 3d designs of mechanical parts and assemblies' ) ;
#454 = DIRECTION ( 'NONE',  ( -0.000000000000000000, -0.000000000000000000, 1.000000000000000000 ) ) ;
#455 = VERTEX_POINT ( 'NONE', #77 ) ;
#456 = LINE ( 'NONE', #39, #80 ) ;
#457 = DIRECTION ( 'NONE',  ( -1.000000000000000000, 0.000000000000000000, 0.000000000000000000 ) ) ;
#458 = EDGE_LOOP ( 'NONE', ( #488, #1, #153, #20 ) ) ;
#459 = CARTESIAN_POINT ( 'NONE',  ( -4.800000000000000711, 1.800000000000000044, 1.800000000000000488 ) ) ;
#460 = CC_DESIGN_DATE_AND_TIME_ASSIGNMENT ( #428, #46, ( #441 ) ) ;
#461 = ADVANCED_FACE ( 'NONE', ( #123 ), #370, .T. ) ;
#462 = PERSON_AND_ORGANIZATION ( #188, #260 ) ;
#463 = SPHERICAL_SURFACE ( 'NONE', #62, 0.2000000000000000111 ) ;
#464 = AXIS2_PLACEMENT_3D ( 'NONE', #173, #54, #220 ) ;
#465 = EDGE_CURVE ( 'NONE', #455, #446, #3, .T. ) ;
#466 = SHAPE_DEFINITION_REPRESENTATION ( #25, #119 ) ;
#467 = ORIENTED_EDGE ( 'NONE', *, *, #346, .F. ) ;
#468 = DIRECTION ( 'NONE',  ( -1.000000000000000000, -0.000000000000000000, -0.000000000000000000 ) ) ;
#469 = APPROVAL_ROLE ( '' ) ;
#470 = APPROVAL_DATE_TIME ( #4, #345 ) ;
#471 = LOCAL_TIME ( 15, 19, 3.000000000000000000, #213 ) ;
#472 = FACE_OUTER_BOUND ( 'NONE', #451, .T. ) ;
#473 = APPROVAL_DATE_TIME ( #333, #12 ) ;
#474 = DIRECTION ( 'NONE',  ( 0.000000000000000000, 0.000000000000000000, 1.000000000000000000 ) ) ;
#475 = CARTESIAN_POINT ( 'NONE',  ( -4.800000000000000711, 1.800000000000000044, 2.000000000000000444 ) ) ;
#476 = AXIS2_PLACEMENT_3D ( 'NONE', #200, #499, #241 ) ;
#477 = LINE ( 'NONE', #143, #379 ) ;
#478 = CIRCLE ( 'NONE', #238, 0.2000000000000000944 ) ;
#479 = ORIENTED_EDGE ( 'NONE', *, *, #13, .T. ) ;
#480 = EDGE_CURVE ( 'NONE', #205, #209, #76, .T. ) ;
#481 = AXIS2_PLACEMENT_3D ( 'NONE', #259, #179, #342 ) ;
#482 = DIRECTION ( 'NONE',  ( -1.301042606982604690E-14, 0.000000000000000000, 1.000000000000000000 ) ) ;
#483 = EDGE_LOOP ( 'NONE', ( #85, #479, #144 ) ) ;
#484 = LINE ( 'NONE', #363, #328 ) ;
#485 = EDGE_CURVE ( 'NONE', #446, #246, #290, .T. ) ;
#486 = EDGE_LOOP ( 'NONE', ( #359, #365, #337 ) ) ;
#487 = CARTESIAN_POINT ( 'NONE',  ( -4.800000000000000711, 2.000000000000000000, 2.000000000000000444 ) ) ;
#488 = ORIENTED_EDGE ( 'NONE', *, *, #251, .F. ) ;
#489 = AXIS2_PLACEMENT_3D ( 'NONE', #505, #53, #421 ) ;
#490 = DIRECTION ( 'NONE',  ( -0.000000000000000000, 1.000000000000000000, 0.000000000000000000 ) ) ;
#491 = ORIENTED_EDGE ( 'NONE', *, *, #264, .F. ) ;
#492 = ORIENTED_EDGE ( 'NONE', *, *, #309, .F. ) ;
#493 = DIRECTION ( 'NONE',  ( -1.000000000000000000, 0.000000000000000000, 0.000000000000000000 ) ) ;
#494 = CIRCLE ( 'NONE', #427, 0.1999999999999996503 ) ;
#495 = ORIENTED_EDGE ( 'NONE', *, *, #414, .T. ) ;
#496 = FACE_OUTER_BOUND ( 'NONE', #109, .T. ) ;
#497 = VERTEX_POINT ( 'NONE', #372 ) ;
#498 = APPROVAL ( #343, 'UNSPECIFIED' ) ;
#499 = DIRECTION ( 'NONE',  ( -1.000000000000000000, 0.000000000000000000, 0.000000000000000000 ) ) ;
#500 = EDGE_LOOP ( 'NONE', ( #314, #224, #233, #17 ) ) ;
#501 = EDGE_CURVE ( 'NONE', #246, #209, #380, .T. ) ;
#502 = EDGE_LOOP ( 'NONE', ( #491, #166, #72, #291 ) ) ;
#503 = PLANE ( 'NONE',  #52 ) ;
#504 = ADVANCED_FACE ( 'NONE', ( #235 ), #448, .T. ) ;
#505 = CARTESIAN_POINT ( 'NONE',  ( 0.000000000000000000, 0.000000000000000000, 0.000000000000000000 ) ) ;
#506 = VERTEX_POINT ( 'NONE', #531 ) ;
#507 = DIRECTION ( 'NONE',  ( 0.000000000000000000, 0.000000000000000000, 1.000000000000000000 ) ) ;
#508 = AXIS2_PLACEMENT_3D ( 'NONE', #9, #178, #344 ) ;
#509 = FACE_OUTER_BOUND ( 'NONE', #128, .T. ) ;
#510 = CALENDAR_DATE ( 2026, 22, 3 ) ;
#511 = CARTESIAN_POINT ( 'NONE',  ( 4.799999999999999822, 1.800000000000000044, -1.999999999999999556 ) ) ;
#512 = PRODUCT_DEFINITION_FORMATION_WITH_SPECIFIED_SOURCE ( 'ANY', '', #357, .NOT_KNOWN. ) ;
#513 = CARTESIAN_POINT ( 'NONE',  ( 5.000000000000001776, 1.800000000000000044, 2.000000000000000444 ) ) ;
#514 = CARTESIAN_POINT ( 'NONE',  ( -4.800000000000000711, 0.000000000000000000, -1.799999999999999600 ) ) ;
#515 = AXIS2_PLACEMENT_3D ( 'NONE', #433, #59, #14 ) ;
#516 = PLANE ( 'NONE',  #403 ) ;
#517 = ORIENTED_EDGE ( 'NONE', *, *, #368, .T. ) ;
#518 = EDGE_CURVE ( 'NONE', #147, #395, #404, .T. ) ;
#519 = VECTOR ( 'NONE', #374, 1000.000000000000000 ) ;
#520 = LINE ( 'NONE', #103, #353 ) ;
#521 = VECTOR ( 'NONE', #541, 1000.000000000000000 ) ;
#522 = ORIENTED_EDGE ( 'NONE', *, *, #29, .F. ) ;
#523 = DIRECTION ( 'NONE',  ( -0.000000000000000000, -1.000000000000000000, -0.000000000000000000 ) ) ;
#524 = EDGE_LOOP ( 'NONE', ( #373, #522, #185, #467 ) ) ;
#525 = CARTESIAN_POINT ( 'NONE',  ( -5.000000000000000000, 0.000000000000000000, -1.999999999999999556 ) ) ;
#526 = ORIENTED_EDGE ( 'NONE', *, *, #350, .F. ) ;
#527 = CYLINDRICAL_SURFACE ( 'NONE', #272, 0.2000000000000000944 ) ;
#528 = ORIENTED_EDGE ( 'NONE', *, *, #321, .T. ) ;
#529 =( NAMED_UNIT ( * ) PLANE_ANGLE_UNIT ( ) SI_UNIT ( $, .RADIAN. ) );
#530 = LINE ( 'NONE', #411, #140 ) ;
#531 = CARTESIAN_POINT ( 'NONE',  ( 5.000000000000000000, 0.000000000000000000, -1.799999999999999600 ) ) ;
#532 = CARTESIAN_POINT ( 'NONE',  ( 4.800000000000003375, 2.000000000000000000, 2.000000000000000444 ) ) ;
#533 = CARTESIAN_POINT ( 'NONE',  ( 4.799999999999999822, 1.800000000000000044, -1.799999999999999600 ) ) ;
#534 = DIRECTION ( 'NONE',  ( -0.000000000000000000, 1.000000000000000000, 0.000000000000000000 ) ) ;
#535 = EDGE_CURVE ( 'NONE', #209, #455, #537, .T. ) ;
#536 = CC_DESIGN_APPROVAL ( #498, ( #512 ) ) ;
#537 = LINE ( 'NONE', #204, #519 ) ;
#538 = ORIENTED_EDGE ( 'NONE', *, *, #535, .F. ) ;
#539 = PERSON_AND_ORGANIZATION ( #188, #260 ) ;
#540 = ORIENTED_EDGE ( 'NONE', *, *, #66, .T. ) ;
#541 = DIRECTION ( 'NONE',  ( 0.000000000000000000, -1.000000000000000000, 0.000000000000000000 ) ) ;
ENDSEC;
END-ISO-10303-21;
