ISO-10303-21;
HEADER;
FILE_DESCRIPTION (( 'STEP AP203' ),
    '1' );
FILE_NAME ('BAR4X12T2.step',
    '2026-03-22T07:18:41',
    ( '' ),
    ( '' ),
    'SwSTEP 2.0',
    'SolidWorks 2025',
    '' );
FILE_SCHEMA (( 'CONFIG_CONTROL_DESIGN' ));
ENDSEC;

DATA;
#1 = EDGE_LOOP ( 'NONE', ( #437, #143, #440, #31 ) ) ;
#2 = CYLINDRICAL_SURFACE ( 'NONE', #81, 0.2000000000000000944 ) ;
#3 = CARTESIAN_POINT ( 'NONE',  ( -5.800000000000002487, 1.800000000000000044, 1.799999999999999600 ) ) ;
#4 = VERTEX_POINT ( 'NONE', #443 ) ;
#5 = DIRECTION ( 'NONE',  ( 1.000000000000000000, 0.000000000000000000, -4.336808689942029076E-16 ) ) ;
#6 = CIRCLE ( 'NONE', #464, 0.1999999999999996503 ) ;
#7 = DIRECTION ( 'NONE',  ( 0.000000000000000000, -1.000000000000000000, 0.000000000000000000 ) ) ;
#8 = EDGE_LOOP ( 'NONE', ( #309, #338, #515, #384 ) ) ;
#9 = DIRECTION ( 'NONE',  ( -1.000000000000000000, 0.000000000000000000, 0.000000000000000000 ) ) ;
#10 = FACE_OUTER_BOUND ( 'NONE', #478, .T. ) ;
#11 = EDGE_LOOP ( 'NONE', ( #451, #380, #292 ) ) ;
#12 = ADVANCED_FACE ( 'NONE', ( #397 ), #61, .T. ) ;
#13 = CARTESIAN_POINT ( 'NONE',  ( 5.799999999999999822, 2.000000000000000000, -2.000000000000000444 ) ) ;
#14 = APPROVAL_STATUS ( 'not_yet_approved' ) ;
#15 = CARTESIAN_POINT ( 'NONE',  ( -5.800000000000002487, 1.800000000000000044, 1.799999999999999600 ) ) ;
#16 = ORIENTED_EDGE ( 'NONE', *, *, #89, .T. ) ;
#17 = EDGE_CURVE ( 'NONE', #479, #350, #524, .T. ) ;
#18 = LINE ( 'NONE', #475, #328 ) ;
#19 = SPHERICAL_SURFACE ( 'NONE', #114, 0.2000000000000000111 ) ;
#20 = CARTESIAN_POINT ( 'NONE',  ( 6.000000000000000000, 2.000000000000000000, 1.799999999999999600 ) ) ;
#21 = PLANE ( 'NONE',  #404 ) ;
#22 = CARTESIAN_POINT ( 'NONE',  ( -6.000000000000001776, 2.000000000000000000, -1.800000000000000488 ) ) ;
#23 = DIRECTION ( 'NONE',  ( 0.000000000000000000, 1.000000000000000000, 0.000000000000000000 ) ) ;
#24 = ORIENTED_EDGE ( 'NONE', *, *, #460, .T. ) ;
#25 = FACE_OUTER_BOUND ( 'NONE', #8, .T. ) ;
#26 = DIRECTION ( 'NONE',  ( -0.000000000000000000, -1.000000000000000000, -0.000000000000000000 ) ) ;
#27 = DIRECTION ( 'NONE',  ( 6.505213034913024080E-14, 0.000000000000000000, 1.000000000000000000 ) ) ;
#28 = EDGE_CURVE ( 'NONE', #83, #55, #238, .T. ) ;
#29 = AXIS2_PLACEMENT_3D ( 'NONE', #314, #239, #450 ) ;
#30 = PLANE ( 'NONE',  #412 ) ;
#31 = ORIENTED_EDGE ( 'NONE', *, *, #155, .F. ) ;
#32 = AXIS2_PLACEMENT_3D ( 'NONE', #375, #371, #413 ) ;
#33 = LINE ( 'NONE', #505, #112 ) ;
#34 = CC_DESIGN_DATE_AND_TIME_ASSIGNMENT ( #53, #175, ( #102 ) ) ;
#35 = ORIENTED_EDGE ( 'NONE', *, *, #364, .T. ) ;
#36 = AXIS2_PLACEMENT_3D ( 'NONE', #529, #162, #283 ) ;
#37 = ORIENTED_EDGE ( 'NONE', *, *, #28, .F. ) ;
#38 = AXIS2_PLACEMENT_3D ( 'NONE', #188, #445, #280 ) ;
#39 = LINE ( 'NONE', #533, #466 ) ;
#40 = VECTOR ( 'NONE', #105, 1000.000000000000000 ) ;
#41 = ORIENTED_EDGE ( 'NONE', *, *, #248, .T. ) ;
#42 = AXIS2_PLACEMENT_3D ( 'NONE', #382, #339, #302 ) ;
#43 = CYLINDRICAL_SURFACE ( 'NONE', #111, 0.2000000000000000944 ) ;
#44 = DIRECTION ( 'NONE',  ( 0.000000000000000000, 0.000000000000000000, 1.000000000000000000 ) ) ;
#45 = ORIENTED_EDGE ( 'NONE', *, *, #169, .F. ) ;
#46 = DIRECTION ( 'NONE',  ( 1.000000000000000000, -0.000000000000000000, -0.000000000000000000 ) ) ;
#47 = LINE ( 'NONE', #176, #415 ) ;
#48 = ORIENTED_EDGE ( 'NONE', *, *, #536, .F. ) ;
#49 = DIRECTION ( 'NONE',  ( 0.000000000000000000, 1.000000000000000000, 0.000000000000000000 ) ) ;
#50 = EDGE_CURVE ( 'NONE', #243, #377, #307, .T. ) ;
#51 = EDGE_CURVE ( 'NONE', #493, #350, #376, .T. ) ;
#52 = ORIENTED_EDGE ( 'NONE', *, *, #526, .F. ) ;
#53 = DATE_AND_TIME ( #268, #213 ) ;
#54 = CARTESIAN_POINT ( 'NONE',  ( -6.000000000000001776, 1.800000000000000044, -1.800000000000000488 ) ) ;
#55 = VERTEX_POINT ( 'NONE', #199 ) ;
#56 = PLANE ( 'NONE',  #42 ) ;
#57 = DIRECTION ( 'NONE',  ( 0.000000000000000000, 0.000000000000000000, -1.000000000000000000 ) ) ;
#58 = ORIENTED_EDGE ( 'NONE', *, *, #86, .T. ) ;
#59 = LOCAL_TIME ( 15, 18, 41.00000000000000000, #503 ) ;
#60 = DIRECTION ( 'NONE',  ( 4.336808689942017736E-16, -0.000000000000000000, 1.000000000000000000 ) ) ;
#61 = CYLINDRICAL_SURFACE ( 'NONE', #38, 0.2000000000000000944 ) ;
#62 = AXIS2_PLACEMENT_3D ( 'NONE', #15, #423, #44 ) ;
#63 = DIRECTION ( 'NONE',  ( 0.000000000000000000, 1.000000000000000000, 0.000000000000000000 ) ) ;
#64 = EDGE_LOOP ( 'NONE', ( #181, #70, #256, #512 ) ) ;
#65 = DIRECTION ( 'NONE',  ( 0.000000000000000000, 0.000000000000000000, 1.000000000000000000 ) ) ;
#66 = CARTESIAN_POINT ( 'NONE',  ( -6.000000000000001776, 0.000000000000000000, -2.000000000000000444 ) ) ;
#67 = AXIS2_PLACEMENT_3D ( 'NONE', #530, #407, #196 ) ;
#68 = CARTESIAN_POINT ( 'NONE',  ( 5.799999999999999822, 2.000000000000000000, 1.999999999999999556 ) ) ;
#69 = EDGE_CURVE ( 'NONE', #270, #83, #356, .T. ) ;
#70 = ORIENTED_EDGE ( 'NONE', *, *, #172, .F. ) ;
#71 = CARTESIAN_POINT ( 'NONE',  ( 5.799999999999996270, 0.000000000000000000, 1.999999999999999556 ) ) ;
#72 = ORIENTED_EDGE ( 'NONE', *, *, #266, .F. ) ;
#73 = PERSON_AND_ORGANIZATION ( #279, #532 ) ;
#74 = APPROVAL ( #463, 'UNSPECIFIED' ) ;
#75 = APPLICATION_PROTOCOL_DEFINITION ( 'international standard', 'config_control_design', 1994, #184 ) ;
#76 = CALENDAR_DATE ( 2026, 22, 3 ) ;
#77 = DATE_AND_TIME ( #120, #59 ) ;
#78 = AXIS2_PLACEMENT_3D ( 'NONE', #484, #242, #27 ) ;
#79 = ORIENTED_EDGE ( 'NONE', *, *, #406, .T. ) ;
#80 = AXIS2_PLACEMENT_3D ( 'NONE', #226, #7, #225 ) ;
#81 = AXIS2_PLACEMENT_3D ( 'NONE', #519, #472, #264 ) ;
#82 = LINE ( 'NONE', #262, #132 ) ;
#83 = VERTEX_POINT ( 'NONE', #150 ) ;
#84 = AXIS2_PLACEMENT_3D ( 'NONE', #219, #516, #230 ) ;
#85 = CYLINDRICAL_SURFACE ( 'NONE', #80, 0.2000000000000000944 ) ;
#86 = EDGE_CURVE ( 'NONE', #377, #270, #400, .T. ) ;
#87 = ORIENTED_EDGE ( 'NONE', *, *, #538, .T. ) ;
#88 = CYLINDRICAL_SURFACE ( 'NONE', #84, 0.2000000000000000944 ) ;
#89 = EDGE_CURVE ( 'NONE', #471, #55, #254, .T. ) ;
#90 = DIRECTION ( 'NONE',  ( 0.000000000000000000, 1.000000000000000000, 0.000000000000000000 ) ) ;
#91 = VERTEX_POINT ( 'NONE', #528 ) ;
#92 = FACE_OUTER_BOUND ( 'NONE', #1, .T. ) ;
#93 = DIRECTION ( 'NONE',  ( -1.000000000000000000, 0.000000000000000000, 0.000000000000000000 ) ) ;
#94 = ORIENTED_EDGE ( 'NONE', *, *, #69, .T. ) ;
#95 = DIRECTION ( 'NONE',  ( 0.000000000000000000, -1.000000000000000000, 0.000000000000000000 ) ) ;
#96 = FACE_OUTER_BOUND ( 'NONE', #222, .T. ) ;
#97 = DESIGN_CONTEXT ( 'detailed design', #214, 'design' ) ;
#98 = DIRECTION ( 'NONE',  ( 0.000000000000000000, 0.000000000000000000, 1.000000000000000000 ) ) ;
#99 = CARTESIAN_POINT ( 'NONE',  ( 6.000000000000000000, 1.800000000000000044, 1.999999999999999556 ) ) ;
#100 = CIRCLE ( 'NONE', #260, 0.2000000000000000944 ) ;
#101 = VERTEX_POINT ( 'NONE', #490 ) ;
#102 = SECURITY_CLASSIFICATION ( '', '', #293 ) ;
#103 = AXIS2_PLACEMENT_3D ( 'NONE', #481, #234, #272 ) ;
#104 = SPHERICAL_SURFACE ( 'NONE', #163, 0.2000000000000000111 ) ;
#105 = DIRECTION ( 'NONE',  ( -0.000000000000000000, 0.000000000000000000, 1.000000000000000000 ) ) ;
#106 = DIRECTION ( 'NONE',  ( -1.000000000000000000, 0.000000000000000000, 0.000000000000000000 ) ) ;
#107 = CARTESIAN_POINT ( 'NONE',  ( 5.799999999999999822, 0.000000000000000000, -1.800000000000000488 ) ) ;
#108 = EDGE_CURVE ( 'NONE', #479, #131, #496, .T. ) ;
#109 = CARTESIAN_POINT ( 'NONE',  ( -6.000000000000001776, 1.800000000000000044, -2.000000000000000444 ) ) ;
#110 = VERTEX_POINT ( 'NONE', #161 ) ;
#111 = AXIS2_PLACEMENT_3D ( 'NONE', #348, #182, #522 ) ;
#112 = VECTOR ( 'NONE', #246, 1000.000000000000000 ) ;
#113 = PLANE ( 'NONE',  #29 ) ;
#114 = AXIS2_PLACEMENT_3D ( 'NONE', #436, #311, #57 ) ;
#115 = ORIENTED_EDGE ( 'NONE', *, *, #108, .T. ) ;
#116 = VECTOR ( 'NONE', #46, 1000.000000000000000 ) ;
#117 = PERSON_AND_ORGANIZATION ( #279, #532 ) ;
#118 = CIRCLE ( 'NONE', #494, 0.2000000000000000944 ) ;
#119 = ORIENTED_EDGE ( 'NONE', *, *, #534, .T. ) ;
#120 = CALENDAR_DATE ( 2026, 22, 3 ) ;
#121 = DIRECTION ( 'NONE',  ( 0.000000000000000000, 1.000000000000000000, -0.000000000000000000 ) ) ;
#122 = EDGE_LOOP ( 'NONE', ( #119, #206, #79, #215 ) ) ;
#123 = MECHANICAL_CONTEXT ( 'NONE', #184, 'mechanical' ) ;
#124 = ORIENTED_EDGE ( 'NONE', *, *, #17, .F. ) ;
#125 =( NAMED_UNIT ( * ) SI_UNIT ( $, .STERADIAN. ) SOLID_ANGLE_UNIT ( ) );
#126 = ORIENTED_EDGE ( 'NONE', *, *, #28, .T. ) ;
#127 = EDGE_CURVE ( 'NONE', #110, #243, #385, .T. ) ;
#128 = CALENDAR_DATE ( 2026, 22, 3 ) ;
#129 = AXIS2_PLACEMENT_3D ( 'NONE', #151, #316, #106 ) ;
#130 = DIRECTION ( 'NONE',  ( 0.000000000000000000, 0.000000000000000000, 1.000000000000000000 ) ) ;
#131 = VERTEX_POINT ( 'NONE', #310 ) ;
#132 = VECTOR ( 'NONE', #383, 1000.000000000000000 ) ;
#133 = AXIS2_PLACEMENT_3D ( 'NONE', #3, #183, #145 ) ;
#134 = DIRECTION ( 'NONE',  ( 0.000000000000000000, 0.000000000000000000, -1.000000000000000000 ) ) ;
#135 = ORIENTED_EDGE ( 'NONE', *, *, #386, .T. ) ;
#136 = CC_DESIGN_PERSON_AND_ORGANIZATION_ASSIGNMENT ( #294, #245, ( #251 ) ) ;
#137 = DIRECTION ( 'NONE',  ( 1.000000000000000000, -0.000000000000000000, -0.000000000000000000 ) ) ;
#138 = CARTESIAN_POINT ( 'NONE',  ( 5.799999999999998934, 2.000000000000000000, -1.800000000000000488 ) ) ;
#139 = ORIENTED_EDGE ( 'NONE', *, *, #526, .T. ) ;
#140 = CARTESIAN_POINT ( 'NONE',  ( 5.999999999999998224, 2.000000000000000000, -1.800000000000000488 ) ) ;
#141 = DIRECTION ( 'NONE',  ( 0.000000000000000000, 0.000000000000000000, 1.000000000000000000 ) ) ;
#142 = CC_DESIGN_APPROVAL ( #502, ( #251 ) ) ;
#143 = ORIENTED_EDGE ( 'NONE', *, *, #290, .F. ) ;
#144 = FACE_OUTER_BOUND ( 'NONE', #458, .T. ) ;
#145 = DIRECTION ( 'NONE',  ( 1.000000000000000000, 0.000000000000000000, 0.000000000000000000 ) ) ;
#146 = AXIS2_PLACEMENT_3D ( 'NONE', #107, #26, #203 ) ;
#147 = EDGE_LOOP ( 'NONE', ( #35, #139, #306 ) ) ;
#148 = CARTESIAN_POINT ( 'NONE',  ( -5.800000000000002487, 1.800000000000000044, -1.800000000000000488 ) ) ;
#149 = CARTESIAN_POINT ( 'NONE',  ( 5.999999999999998224, 2.000000000000000000, -2.000000000000000444 ) ) ;
#150 = CARTESIAN_POINT ( 'NONE',  ( -5.800000000000002487, 2.000000000000000000, 1.799999999999999600 ) ) ;
#151 = CARTESIAN_POINT ( 'NONE',  ( 5.799999999999998934, 1.800000000000000044, -1.800000000000000488 ) ) ;
#152 = ORIENTED_EDGE ( 'NONE', *, *, #51, .T. ) ;
#153 = LINE ( 'NONE', #276, #247 ) ;
#154 = ADVANCED_FACE ( 'NONE', ( #92 ), #2, .T. ) ;
#155 = EDGE_CURVE ( 'NONE', #350, #110, #18, .T. ) ;
#156 = UNCERTAINTY_MEASURE_WITH_UNIT (LENGTH_MEASURE( 1.000000000000000082E-05 ), #332, 'distance_accuracy_value', 'NONE');
#157 = ORIENTED_EDGE ( 'NONE', *, *, #193, .F. ) ;
#158 = ADVANCED_FACE ( 'NONE', ( #144 ), #395, .T. ) ;
#159 = EDGE_CURVE ( 'NONE', #270, #110, #100, .T. ) ;
#160 = LINE ( 'NONE', #68, #366 ) ;
#161 = CARTESIAN_POINT ( 'NONE',  ( -5.800000000000002487, 1.800000000000000044, -2.000000000000000444 ) ) ;
#162 = DIRECTION ( 'NONE',  ( 0.000000000000000000, 0.000000000000000000, -1.000000000000000000 ) ) ;
#163 = AXIS2_PLACEMENT_3D ( 'NONE', #402, #23, #198 ) ;
#164 = CALENDAR_DATE ( 2026, 22, 3 ) ;
#165 = APPLICATION_PROTOCOL_DEFINITION ( 'international standard', 'config_control_design', 1994, #214 ) ;
#166 = PERSON_AND_ORGANIZATION ( #279, #532 ) ;
#167 = CIRCLE ( 'NONE', #483, 0.2000000000000000944 ) ;
#168 = DATE_AND_TIME ( #164, #241 ) ;
#169 = EDGE_CURVE ( 'NONE', #131, #101, #313, .T. ) ;
#170 = DIRECTION ( 'NONE',  ( -1.000000000000000000, -0.000000000000000000, -0.000000000000000000 ) ) ;
#171 = ORIENTED_EDGE ( 'NONE', *, *, #485, .F. ) ;
#172 = EDGE_CURVE ( 'NONE', #263, #337, #435, .T. ) ;
#173 = ORIENTED_EDGE ( 'NONE', *, *, #417, .T. ) ;
#174 = FACE_OUTER_BOUND ( 'NONE', #64, .T. ) ;
#175 = DATE_TIME_ROLE ( 'classification_date' ) ;
#176 = CARTESIAN_POINT ( 'NONE',  ( -6.000000000000001776, 0.000000000000000000, -2.000000000000000444 ) ) ;
#177 = ADVANCED_FACE ( 'NONE', ( #392 ), #43, .T. ) ;
#178 = ORIENTED_EDGE ( 'NONE', *, *, #480, .T. ) ;
#179 = APPROVAL_ROLE ( '' ) ;
#180 = PLANE ( 'NONE',  #535 ) ;
#181 = ORIENTED_EDGE ( 'NONE', *, *, #501, .F. ) ;
#182 = DIRECTION ( 'NONE',  ( 0.000000000000000000, -1.000000000000000000, 0.000000000000000000 ) ) ;
#183 = DIRECTION ( 'NONE',  ( 0.000000000000000000, -0.000000000000000000, 1.000000000000000000 ) ) ;
#184 = APPLICATION_CONTEXT ( 'configuration controlled 3d designs of mechanical parts and assemblies' ) ;
#185 = CIRCLE ( 'NONE', #194, 0.2000000000000000944 ) ;
#186 = CARTESIAN_POINT ( 'NONE',  ( -5.800000000000002487, 2.000000000000000000, -1.800000000000000488 ) ) ;
#187 = PRODUCT_DEFINITION_FORMATION_WITH_SPECIFIED_SOURCE ( 'ANY', '', #461, .NOT_KNOWN. ) ;
#188 = CARTESIAN_POINT ( 'NONE',  ( 0.000000000000000000, 1.800000000000000044, 1.799999999999999600 ) ) ;
#189 = DIRECTION ( 'NONE',  ( -0.000000000000000000, 1.000000000000000000, -0.000000000000000000 ) ) ;
#190 = FACE_OUTER_BOUND ( 'NONE', #285, .T. ) ;
#191 = AXIS2_PLACEMENT_3D ( 'NONE', #361, #277, #403 ) ;
#192 = ORIENTED_EDGE ( 'NONE', *, *, #448, .F. ) ;
#193 = EDGE_CURVE ( 'NONE', #243, #479, #217, .T. ) ;
#194 = AXIS2_PLACEMENT_3D ( 'NONE', #257, #137, #438 ) ;
#195 = DIRECTION ( 'NONE',  ( 1.000000000000000000, 0.000000000000000000, 0.000000000000000000 ) ) ;
#196 = DIRECTION ( 'NONE',  ( -4.336808689942015369E-15, 1.000000000000000000, 0.000000000000000000 ) ) ;
#197 = EDGE_CURVE ( 'NONE', #83, #91, #185, .T. ) ;
#198 = DIRECTION ( 'NONE',  ( -1.000000000000000000, 0.000000000000000000, -4.336808689942024836E-15 ) ) ;
#199 = CARTESIAN_POINT ( 'NONE',  ( 5.800000000000000711, 2.000000000000000000, 1.799999999999999600 ) ) ;
#200 = EDGE_CURVE ( 'NONE', #506, #4, #401, .T. ) ;
#201 = AXIS2_PLACEMENT_3D ( 'NONE', #453, #319, #98 ) ;
#202 = DIRECTION ( 'NONE',  ( 0.000000000000000000, -0.000000000000000000, -1.000000000000000000 ) ) ;
#203 = DIRECTION ( 'NONE',  ( 0.000000000000000000, 0.000000000000000000, 1.000000000000000000 ) ) ;
#204 = LINE ( 'NONE', #109, #207 ) ;
#205 = DIRECTION ( 'NONE',  ( 0.000000000000000000, 0.000000000000000000, 1.000000000000000000 ) ) ;
#206 = ORIENTED_EDGE ( 'NONE', *, *, #169, .T. ) ;
#207 = VECTOR ( 'NONE', #202, 1000.000000000000000 ) ;
#208 = AXIS2_PLACEMENT_3D ( 'NONE', #439, #49, #93 ) ;
#209 = PERSON_AND_ORGANIZATION_ROLE ( 'design_owner' ) ;
#210 = ORIENTED_EDGE ( 'NONE', *, *, #108, .F. ) ;
#211 = APPROVAL_DATE_TIME ( #77, #74 ) ;
#212 = ADVANCED_FACE ( 'NONE', ( #174 ), #88, .T. ) ;
#213 = LOCAL_TIME ( 15, 18, 41.00000000000000000, #428 ) ;
#214 = APPLICATION_CONTEXT ( 'configuration controlled 3d designs of mechanical parts and assemblies' ) ;
#215 = ORIENTED_EDGE ( 'NONE', *, *, #172, .T. ) ;
#216 = ORIENTED_EDGE ( 'NONE', *, *, #159, .T. ) ;
#217 = LINE ( 'NONE', #13, #351 ) ;
#218 = ORIENTED_EDGE ( 'NONE', *, *, #485, .T. ) ;
#219 = CARTESIAN_POINT ( 'NONE',  ( 5.800000000000000711, 2.000000000000000000, 1.799999999999999600 ) ) ;
#220 = PERSON_AND_ORGANIZATION ( #279, #532 ) ;
#221 = CARTESIAN_POINT ( 'NONE',  ( 5.799999999999998934, 2.000000000000000000, -2.000000000000000444 ) ) ;
#222 = EDGE_LOOP ( 'NONE', ( #457, #252, #52, #342 ) ) ;
#223 = VECTOR ( 'NONE', #60, 1000.000000000000000 ) ;
#224 = CARTESIAN_POINT ( 'NONE',  ( 5.799999999999999822, 1.800000000000000044, -2.515349040166370287E-15 ) ) ;
#225 = DIRECTION ( 'NONE',  ( 0.000000000000000000, 0.000000000000000000, -1.000000000000000000 ) ) ;
#226 = CARTESIAN_POINT ( 'NONE',  ( -5.800000000000002487, 2.000000000000000000, 1.799999999999999600 ) ) ;
#227 = VECTOR ( 'NONE', #305, 1000.000000000000000 ) ;
#228 = ORIENTED_EDGE ( 'NONE', *, *, #367, .F. ) ;
#229 = ADVANCED_FACE ( 'NONE', ( #354 ), #56, .T. ) ;
#230 = DIRECTION ( 'NONE',  ( 0.000000000000000000, 0.000000000000000000, -1.000000000000000000 ) ) ;
#231 = CARTESIAN_POINT ( 'NONE',  ( -6.000000000000001776, 2.000000000000000000, 1.999999999999999556 ) ) ;
#232 =( GEOMETRIC_REPRESENTATION_CONTEXT ( 3 ) GLOBAL_UNCERTAINTY_ASSIGNED_CONTEXT ( ( #156 ) ) GLOBAL_UNIT_ASSIGNED_CONTEXT ( ( #332, #499, #125 ) ) REPRESENTATION_CONTEXT ( 'NONE', 'WORKASPACE' ) );
#233 = ORIENTED_EDGE ( 'NONE', *, *, #200, .T. ) ;
#234 = DIRECTION ( 'NONE',  ( -0.000000000000000000, -0.000000000000000000, 1.000000000000000000 ) ) ;
#235 = CARTESIAN_POINT ( 'NONE',  ( -5.800000000000002487, 2.000000000000000000, 1.999999999999999556 ) ) ;
#236 = CC_DESIGN_PERSON_AND_ORGANIZATION_ASSIGNMENT ( #336, #209, ( #461 ) ) ;
#237 = FACE_OUTER_BOUND ( 'NONE', #274, .T. ) ;
#238 = LINE ( 'NONE', #20, #418 ) ;
#239 = DIRECTION ( 'NONE',  ( 0.000000000000000000, 0.000000000000000000, 1.000000000000000000 ) ) ;
#240 = DIRECTION ( 'NONE',  ( 1.000000000000000000, -0.000000000000000000, 0.000000000000000000 ) ) ;
#241 = LOCAL_TIME ( 15, 18, 41.00000000000000000, #459 ) ;
#242 = DIRECTION ( 'NONE',  ( -0.000000000000000000, -1.000000000000000000, -0.000000000000000000 ) ) ;
#243 = VERTEX_POINT ( 'NONE', #355 ) ;
#244 = CARTESIAN_POINT ( 'NONE',  ( -6.000000000000001776, 1.800000000000000044, 1.799999999999999600 ) ) ;
#245 = PERSON_AND_ORGANIZATION_ROLE ( 'creator' ) ;
#246 = DIRECTION ( 'NONE',  ( -4.336808689942017736E-16, -0.000000000000000000, -1.000000000000000000 ) ) ;
#247 = VECTOR ( 'NONE', #360, 1000.000000000000000 ) ;
#248 = EDGE_CURVE ( 'NONE', #506, #487, #433, .T. ) ;
#249 = APPROVAL_STATUS ( 'not_yet_approved' ) ;
#250 = EDGE_CURVE ( 'NONE', #471, #263, #118, .T. ) ;
#251 = PRODUCT_DEFINITION ( 'UNKNOWN', '', #187, #97 ) ;
#252 = ORIENTED_EDGE ( 'NONE', *, *, #447, .F. ) ;
#253 = DIRECTION ( 'NONE',  ( -0.000000000000000000, 1.000000000000000000, -0.000000000000000000 ) ) ;
#254 = CIRCLE ( 'NONE', #191, 0.2000000000000000944 ) ;
#255 = CARTESIAN_POINT ( 'NONE',  ( 6.000000000000000000, 1.800000000000000044, 1.799999999999999600 ) ) ;
#256 = ORIENTED_EDGE ( 'NONE', *, *, #250, .F. ) ;
#257 = CARTESIAN_POINT ( 'NONE',  ( -5.800000000000002487, 1.800000000000000044, 1.799999999999999600 ) ) ;
#258 = LINE ( 'NONE', #221, #227 ) ;
#259 = ORIENTED_EDGE ( 'NONE', *, *, #536, .T. ) ;
#260 = AXIS2_PLACEMENT_3D ( 'NONE', #148, #9, #343 ) ;
#261 = AXIS2_PLACEMENT_3D ( 'NONE', #492, #195, #358 ) ;
#262 = CARTESIAN_POINT ( 'NONE',  ( -6.000000000000001776, 2.000000000000000000, -1.800000000000000488 ) ) ;
#263 = VERTEX_POINT ( 'NONE', #255 ) ;
#264 = DIRECTION ( 'NONE',  ( 0.000000000000000000, 0.000000000000000000, -1.000000000000000000 ) ) ;
#265 = CARTESIAN_POINT ( 'NONE',  ( -6.000000000000001776, 2.000000000000000000, -2.000000000000000444 ) ) ;
#266 = EDGE_CURVE ( 'NONE', #101, #243, #398, .T. ) ;
#267 = ORIENTED_EDGE ( 'NONE', *, *, #372, .T. ) ;
#268 = CALENDAR_DATE ( 2026, 22, 3 ) ;
#269 = CARTESIAN_POINT ( 'NONE',  ( 5.800000000000000711, 1.800000000000000044, 1.799999999999999600 ) ) ;
#270 = VERTEX_POINT ( 'NONE', #186 ) ;
#271 = AXIS2_PLACEMENT_3D ( 'NONE', #224, #510, #5 ) ;
#272 = DIRECTION ( 'NONE',  ( -1.000000000000000000, 0.000000000000000000, 0.000000000000000000 ) ) ;
#273 = CIRCLE ( 'NONE', #129, 0.1999999999999996503 ) ;
#274 = EDGE_LOOP ( 'NONE', ( #369, #233, #228, #152, #124, #115, #315, #303 ) ) ;
#275 = CC_DESIGN_DATE_AND_TIME_ASSIGNMENT ( #498, #414, ( #251 ) ) ;
#276 = CARTESIAN_POINT ( 'NONE',  ( -5.800000000000002487, 2.000000000000000000, 1.999999999999999556 ) ) ;
#277 = DIRECTION ( 'NONE',  ( -1.000000000000000000, -0.000000000000000000, -0.000000000000000000 ) ) ;
#278 = DIRECTION ( 'NONE',  ( -1.000000000000000000, 0.000000000000000000, 4.336808689942017736E-16 ) ) ;
#279 = PERSON ( 'UNSPECIFIED', 'UNSPECIFIED', 'UNSPECIFIED', ('UNSPECIFIED'), ('UNSPECIFIED'), ('UNSPECIFIED') ) ;
#280 = DIRECTION ( 'NONE',  ( 0.000000000000000000, 0.000000000000000000, 1.000000000000000000 ) ) ;
#281 = CLOSED_SHELL ( 'NONE', ( #449, #389, #287, #346, #229, #446, #154, #462, #177, #322, #486, #344, #381, #158, #212, #347, #326, #12 ) ) ;
#282 = CC_DESIGN_APPROVAL ( #488, ( #102 ) ) ;
#283 = DIRECTION ( 'NONE',  ( -1.000000000000000000, 0.000000000000000000, 0.000000000000000000 ) ) ;
#284 = AXIS2_PLACEMENT_3D ( 'NONE', #265, #429, #134 ) ;
#285 = EDGE_LOOP ( 'NONE', ( #482, #87, #218, #394 ) ) ;
#286 = APPROVAL_DATE_TIME ( #168, #502 ) ;
#287 = ADVANCED_FACE ( 'NONE', ( #190 ), #477, .F. ) ;
#288 = ORIENTED_EDGE ( 'NONE', *, *, #69, .F. ) ;
#289 = CARTESIAN_POINT ( 'NONE',  ( -6.000000000000001776, 2.000000000000000000, 1.799999999999999600 ) ) ;
#290 = EDGE_CURVE ( 'NONE', #329, #493, #82, .T. ) ;
#291 = CC_DESIGN_PERSON_AND_ORGANIZATION_ASSIGNMENT ( #416, #540, ( #102 ) ) ;
#292 = ORIENTED_EDGE ( 'NONE', *, *, #89, .F. ) ;
#293 = SECURITY_CLASSIFICATION_LEVEL ( 'unclassified' ) ;
#294 = PERSON_AND_ORGANIZATION ( #279, #532 ) ;
#295 = PRODUCT_DEFINITION_SHAPE ( 'NONE', 'NONE',  #251 ) ;
#296 = ORIENTED_EDGE ( 'NONE', *, *, #86, .F. ) ;
#297 = APPROVAL_PERSON_ORGANIZATION ( #73, #74, #330 ) ;
#298 = DIRECTION ( 'NONE',  ( 1.000000000000000000, 0.000000000000000000, 0.000000000000000000 ) ) ;
#299 = ORIENTED_EDGE ( 'NONE', *, *, #417, .F. ) ;
#300 = CARTESIAN_POINT ( 'NONE',  ( 5.999999999999998224, 1.800000000000000044, -2.000000000000000444 ) ) ;
#301 = VECTOR ( 'NONE', #359, 1000.000000000000000 ) ;
#302 = DIRECTION ( 'NONE',  ( 0.000000000000000000, -0.000000000000000000, 1.000000000000000000 ) ) ;
#303 = ORIENTED_EDGE ( 'NONE', *, *, #501, .T. ) ;
#304 = DIRECTION ( 'NONE',  ( -0.000000000000000000, -1.000000000000000000, -0.000000000000000000 ) ) ;
#305 = DIRECTION ( 'NONE',  ( -4.336808689942017736E-16, 0.000000000000000000, -1.000000000000000000 ) ) ;
#306 = ORIENTED_EDGE ( 'NONE', *, *, #197, .F. ) ;
#307 = CIRCLE ( 'NONE', #67, 0.2000000000000000944 ) ;
#308 = CARTESIAN_POINT ( 'NONE',  ( 5.799999999999998934, 1.800000000000000044, -1.800000000000000488 ) ) ;
#309 = ORIENTED_EDGE ( 'NONE', *, *, #17, .T. ) ;
#310 = CARTESIAN_POINT ( 'NONE',  ( 5.999999999999998224, 0.000000000000000000, -1.800000000000000488 ) ) ;
#311 = DIRECTION ( 'NONE',  ( -0.000000000000000000, 1.000000000000000000, 0.000000000000000000 ) ) ;
#312 = ORIENTED_EDGE ( 'NONE', *, *, #480, .F. ) ;
#313 = LINE ( 'NONE', #140, #508 ) ;
#314 = CARTESIAN_POINT ( 'NONE',  ( -6.000000000000001776, 2.000000000000000000, -2.000000000000000444 ) ) ;
#315 = ORIENTED_EDGE ( 'NONE', *, *, #534, .F. ) ;
#316 = DIRECTION ( 'NONE',  ( -0.000000000000000000, -0.000000000000000000, 1.000000000000000000 ) ) ;
#317 = ORIENTED_EDGE ( 'NONE', *, *, #266, .T. ) ;
#318 = FACE_OUTER_BOUND ( 'NONE', #321, .T. ) ;
#319 = DIRECTION ( 'NONE',  ( -0.000000000000000000, -1.000000000000000000, -0.000000000000000000 ) ) ;
#320 = FACE_OUTER_BOUND ( 'NONE', #122, .T. ) ;
#321 = EDGE_LOOP ( 'NONE', ( #430, #465, #541, #296 ) ) ;
#322 = ADVANCED_FACE ( 'NONE', ( #352 ), #388, .T. ) ;
#323 = CARTESIAN_POINT ( 'NONE',  ( -6.000000000000001776, 0.000000000000000000, -1.800000000000000488 ) ) ;
#324 = AXIS2_PLACEMENT_3D ( 'NONE', #531, #121, #420 ) ;
#325 = EDGE_LOOP ( 'NONE', ( #317, #504, #312 ) ) ;
#326 = ADVANCED_FACE ( 'NONE', ( #345 ), #19, .T. ) ;
#327 = LINE ( 'NONE', #289, #419 ) ;
#328 = VECTOR ( 'NONE', #189, 1000.000000000000000 ) ;
#329 = VERTEX_POINT ( 'NONE', #54 ) ;
#330 = APPROVAL_ROLE ( '' ) ;
#331 = CC_DESIGN_PERSON_AND_ORGANIZATION_ASSIGNMENT ( #166, #334, ( #187 ) ) ;
#332 =( LENGTH_UNIT ( ) NAMED_UNIT ( * ) SI_UNIT ( .MILLI., .METRE. ) );
#333 = VECTOR ( 'NONE', #513, 1000.000000000000000 ) ;
#334 = PERSON_AND_ORGANIZATION_ROLE ( 'design_supplier' ) ;
#335 = ORIENTED_EDGE ( 'NONE', *, *, #406, .F. ) ;
#336 = PERSON_AND_ORGANIZATION ( #279, #532 ) ;
#337 = VERTEX_POINT ( 'NONE', #349 ) ;
#338 = ORIENTED_EDGE ( 'NONE', *, *, #155, .T. ) ;
#339 = DIRECTION ( 'NONE',  ( 0.000000000000000000, 1.000000000000000000, 0.000000000000000000 ) ) ;
#340 = CC_DESIGN_APPROVAL ( #74, ( #187 ) ) ;
#341 = FACE_OUTER_BOUND ( 'NONE', #421, .T. ) ;
#342 = ORIENTED_EDGE ( 'NONE', *, *, #538, .F. ) ;
#343 = DIRECTION ( 'NONE',  ( 0.000000000000000000, 0.000000000000000000, 1.000000000000000000 ) ) ;
#344 = ADVANCED_FACE ( 'NONE', ( #96 ), #85, .T. ) ;
#345 = FACE_OUTER_BOUND ( 'NONE', #11, .T. ) ;
#346 = ADVANCED_FACE ( 'NONE', ( #341 ), #180, .F. ) ;
#347 = ADVANCED_FACE ( 'NONE', ( #514 ), #467, .T. ) ;
#348 = CARTESIAN_POINT ( 'NONE',  ( 5.799999999999999822, 2.000000000000000000, -1.800000000000000488 ) ) ;
#349 = CARTESIAN_POINT ( 'NONE',  ( 6.000000000000000000, 0.000000000000000000, 1.799999999999999600 ) ) ;
#350 = VERTEX_POINT ( 'NONE', #520 ) ;
#351 = VECTOR ( 'NONE', #95, 1000.000000000000000 ) ;
#352 = FACE_OUTER_BOUND ( 'NONE', #434, .T. ) ;
#353 = DIRECTION ( 'NONE',  ( -1.000000000000000000, -0.000000000000000000, -0.000000000000000000 ) ) ;
#354 = FACE_OUTER_BOUND ( 'NONE', #518, .T. ) ;
#355 = CARTESIAN_POINT ( 'NONE',  ( 5.799999999999999822, 1.800000000000000044, -2.000000000000000444 ) ) ;
#356 = LINE ( 'NONE', #235, #40 ) ;
#357 = VECTOR ( 'NONE', #298, 1000.000000000000000 ) ;
#358 = DIRECTION ( 'NONE',  ( 0.000000000000000000, 0.000000000000000000, -1.000000000000000000 ) ) ;
#359 = DIRECTION ( 'NONE',  ( -1.000000000000000000, 0.000000000000000000, 0.000000000000000000 ) ) ;
#360 = DIRECTION ( 'NONE',  ( 0.000000000000000000, -1.000000000000000000, 0.000000000000000000 ) ) ;
#361 = CARTESIAN_POINT ( 'NONE',  ( 5.800000000000000711, 1.800000000000000044, 1.799999999999999600 ) ) ;
#362 = FACE_OUTER_BOUND ( 'NONE', #325, .T. ) ;
#363 = ORIENTED_EDGE ( 'NONE', *, *, #372, .F. ) ;
#364 = EDGE_CURVE ( 'NONE', #83, #521, #374, .T. ) ;
#365 = CARTESIAN_POINT ( 'NONE',  ( -5.800000000000002487, 0.000000000000000000, 1.999999999999999556 ) ) ;
#366 = VECTOR ( 'NONE', #444, 1000.000000000000000 ) ;
#367 = EDGE_CURVE ( 'NONE', #493, #4, #47, .T. ) ;
#368 = APPROVAL_PERSON_ORGANIZATION ( #220, #488, #179 ) ;
#369 = ORIENTED_EDGE ( 'NONE', *, *, #248, .F. ) ;
#370 = CIRCLE ( 'NONE', #103, 0.1999999999999996503 ) ;
#371 = DIRECTION ( 'NONE',  ( 0.000000000000000000, 0.000000000000000000, 1.000000000000000000 ) ) ;
#372 = EDGE_CURVE ( 'NONE', #55, #377, #258, .T. ) ;
#373 = AXIS2_PLACEMENT_3D ( 'NONE', #308, #511, #470 ) ;
#374 = CIRCLE ( 'NONE', #133, 0.1999999999999996503 ) ;
#375 = CARTESIAN_POINT ( 'NONE',  ( 0.000000000000000000, 0.000000000000000000, 0.000000000000000000 ) ) ;
#376 = CIRCLE ( 'NONE', #201, 0.2000000000000000944 ) ;
#377 = VERTEX_POINT ( 'NONE', #138 ) ;
#378 = LOCAL_TIME ( 15, 18, 41.00000000000000000, #390 ) ;
#379 = PERSON_AND_ORGANIZATION ( #279, #532 ) ;
#380 = ORIENTED_EDGE ( 'NONE', *, *, #448, .T. ) ;
#381 = ADVANCED_FACE ( 'NONE', ( #10 ), #517, .T. ) ;
#382 = CARTESIAN_POINT ( 'NONE',  ( 0.000000000000000000, 2.000000000000000000, 0.000000000000000000 ) ) ;
#383 = DIRECTION ( 'NONE',  ( 0.000000000000000000, -1.000000000000000000, 0.000000000000000000 ) ) ;
#384 = ORIENTED_EDGE ( 'NONE', *, *, #193, .T. ) ;
#385 = LINE ( 'NONE', #300, #116 ) ;
#386 = EDGE_CURVE ( 'NONE', #487, #471, #160, .T. ) ;
#387 = DATE_AND_TIME ( #128, #378 ) ;
#388 = SPHERICAL_SURFACE ( 'NONE', #208, 0.2000000000000000111 ) ;
#389 = ADVANCED_FACE ( 'NONE', ( #25 ), #113, .F. ) ;
#390 = COORDINATED_UNIVERSAL_TIME_OFFSET ( 8, 0, .AHEAD. ) ;
#391 = DIRECTION ( 'NONE',  ( 0.000000000000000000, 0.000000000000000000, -1.000000000000000000 ) ) ;
#392 = FACE_OUTER_BOUND ( 'NONE', #509, .T. ) ;
#393 = DIRECTION ( 'NONE',  ( -1.000000000000000000, 0.000000000000000000, -0.000000000000000000 ) ) ;
#394 = ORIENTED_EDGE ( 'NONE', *, *, #290, .T. ) ;
#395 = CYLINDRICAL_SURFACE ( 'NONE', #271, 0.1999999999999996503 ) ;
#396 = LOCAL_TIME ( 15, 18, 41.00000000000000000, #456 ) ;
#397 = FACE_OUTER_BOUND ( 'NONE', #410, .T. ) ;
#398 = CIRCLE ( 'NONE', #373, 0.2000000000000000944 ) ;
#399 = DIRECTION ( 'NONE',  ( 0.000000000000000000, 1.000000000000000000, 0.000000000000000000 ) ) ;
#400 = LINE ( 'NONE', #22, #301 ) ;
#401 = CIRCLE ( 'NONE', #455, 0.2000000000000000944 ) ;
#402 = CARTESIAN_POINT ( 'NONE',  ( 5.799999999999998934, 1.800000000000000044, -1.800000000000000488 ) ) ;
#403 = DIRECTION ( 'NONE',  ( 0.000000000000000000, 0.000000000000000000, -1.000000000000000000 ) ) ;
#404 = AXIS2_PLACEMENT_3D ( 'NONE', #149, #278, #409 ) ;
#405 = CARTESIAN_POINT ( 'NONE',  ( 5.799999999999999822, 0.000000000000000000, -2.000000000000000444 ) ) ;
#406 = EDGE_CURVE ( 'NONE', #101, #263, #527, .T. ) ;
#407 = DIRECTION ( 'NONE',  ( 1.000000000000000000, 4.336808689942016158E-15, 0.000000000000000000 ) ) ;
#408 = DIRECTION ( 'NONE',  ( 0.000000000000000000, -0.000000000000000000, 1.000000000000000000 ) ) ;
#409 = DIRECTION ( 'NONE',  ( 4.336808689942017736E-16, 0.000000000000000000, 1.000000000000000000 ) ) ;
#410 = EDGE_LOOP ( 'NONE', ( #424, #48, #16, #37 ) ) ;
#411 = CIRCLE ( 'NONE', #78, 0.2000000000000000944 ) ;
#412 = AXIS2_PLACEMENT_3D ( 'NONE', #454, #399, #408 ) ;
#413 = DIRECTION ( 'NONE',  ( 1.000000000000000000, 0.000000000000000000, 0.000000000000000000 ) ) ;
#414 = DATE_TIME_ROLE ( 'creation_date' ) ;
#415 = VECTOR ( 'NONE', #130, 1000.000000000000000 ) ;
#416 = PERSON_AND_ORGANIZATION ( #279, #532 ) ;
#417 = EDGE_CURVE ( 'NONE', #270, #329, #370, .T. ) ;
#418 = VECTOR ( 'NONE', #240, 1000.000000000000000 ) ;
#419 = VECTOR ( 'NONE', #495, 1000.000000000000000 ) ;
#420 = DIRECTION ( 'NONE',  ( 0.000000000000000000, 0.000000000000000000, 1.000000000000000000 ) ) ;
#421 = EDGE_LOOP ( 'NONE', ( #259, #497, #41, #135 ) ) ;
#422 = CARTESIAN_POINT ( 'NONE',  ( 6.000000000000000000, 2.000000000000000000, 1.799999999999999600 ) ) ;
#423 = DIRECTION ( 'NONE',  ( 0.000000000000000000, 1.000000000000000000, -0.000000000000000000 ) ) ;
#424 = ORIENTED_EDGE ( 'NONE', *, *, #197, .T. ) ;
#425 = MANIFOLD_SOLID_BREP ( '\X2\570689d2\X0\1', #281 ) ;
#426 = DIRECTION ( 'NONE',  ( 0.000000000000000000, 0.000000000000000000, 1.000000000000000000 ) ) ;
#427 = CC_DESIGN_PERSON_AND_ORGANIZATION_ASSIGNMENT ( #379, #539, ( #187 ) ) ;
#428 = COORDINATED_UNIVERSAL_TIME_OFFSET ( 8, 0, .AHEAD. ) ;
#429 = DIRECTION ( 'NONE',  ( 1.000000000000000000, 0.000000000000000000, 0.000000000000000000 ) ) ;
#430 = ORIENTED_EDGE ( 'NONE', *, *, #50, .F. ) ;
#431 = VECTOR ( 'NONE', #353, 1000.000000000000000 ) ;
#432 = CARTESIAN_POINT ( 'NONE',  ( -5.800000000000002487, 0.000000000000000000, 1.799999999999999600 ) ) ;
#433 = LINE ( 'NONE', #473, #357 ) ;
#434 = EDGE_LOOP ( 'NONE', ( #216, #24, #299 ) ) ;
#435 = LINE ( 'NONE', #422, #333 ) ;
#436 = CARTESIAN_POINT ( 'NONE',  ( 5.800000000000000711, 1.800000000000000044, 1.799999999999999600 ) ) ;
#437 = ORIENTED_EDGE ( 'NONE', *, *, #51, .F. ) ;
#438 = DIRECTION ( 'NONE',  ( 0.000000000000000000, 0.000000000000000000, 1.000000000000000000 ) ) ;
#439 = CARTESIAN_POINT ( 'NONE',  ( -5.800000000000002487, 1.800000000000000044, -1.800000000000000488 ) ) ;
#440 = ORIENTED_EDGE ( 'NONE', *, *, #460, .F. ) ;
#441 = CIRCLE ( 'NONE', #324, 0.2000000000000000944 ) ;
#442 = CARTESIAN_POINT ( 'NONE',  ( 5.800000000000000711, 1.800000000000000044, 1.799999999999999600 ) ) ;
#443 = CARTESIAN_POINT ( 'NONE',  ( -6.000000000000001776, 0.000000000000000000, 1.799999999999999600 ) ) ;
#444 = DIRECTION ( 'NONE',  ( -0.000000000000000000, 1.000000000000000000, -0.000000000000000000 ) ) ;
#445 = DIRECTION ( 'NONE',  ( -1.000000000000000000, 0.000000000000000000, 0.000000000000000000 ) ) ;
#446 = ADVANCED_FACE ( 'NONE', ( #237 ), #30, .F. ) ;
#447 = EDGE_CURVE ( 'NONE', #91, #506, #153, .T. ) ;
#448 = EDGE_CURVE ( 'NONE', #263, #55, #6, .T. ) ;
#449 = ADVANCED_FACE ( 'NONE', ( #320 ), #21, .F. ) ;
#450 = DIRECTION ( 'NONE',  ( 1.000000000000000000, 0.000000000000000000, -0.000000000000000000 ) ) ;
#451 = ORIENTED_EDGE ( 'NONE', *, *, #250, .T. ) ;
#452 = CC_DESIGN_SECURITY_CLASSIFICATION ( #102, ( #187 ) ) ;
#453 = CARTESIAN_POINT ( 'NONE',  ( -5.800000000000002487, 0.000000000000000000, -1.800000000000000488 ) ) ;
#454 = CARTESIAN_POINT ( 'NONE',  ( 0.000000000000000000, 0.000000000000000000, 0.000000000000000000 ) ) ;
#455 = AXIS2_PLACEMENT_3D ( 'NONE', #432, #304, #426 ) ;
#456 = COORDINATED_UNIVERSAL_TIME_OFFSET ( 8, 0, .AHEAD. ) ;
#457 = ORIENTED_EDGE ( 'NONE', *, *, #200, .F. ) ;
#458 = EDGE_LOOP ( 'NONE', ( #178, #363, #192, #335 ) ) ;
#459 = COORDINATED_UNIVERSAL_TIME_OFFSET ( 8, 0, .AHEAD. ) ;
#460 = EDGE_CURVE ( 'NONE', #110, #329, #167, .T. ) ;
#461 = PRODUCT ( 'BAR4X12T2', 'BAR4X12T2', '', ( #123 ) ) ;
#462 = ADVANCED_FACE ( 'NONE', ( #318 ), #489, .T. ) ;
#463 = APPROVAL_STATUS ( 'not_yet_approved' ) ;
#464 = AXIS2_PLACEMENT_3D ( 'NONE', #442, #205, #523 ) ;
#465 = ORIENTED_EDGE ( 'NONE', *, *, #127, .F. ) ;
#466 = VECTOR ( 'NONE', #170, 1000.000000000000000 ) ;
#467 = SPHERICAL_SURFACE ( 'NONE', #62, 0.2000000000000000111 ) ;
#468 = ORIENTED_EDGE ( 'NONE', *, *, #364, .F. ) ;
#469 = PRODUCT_RELATED_PRODUCT_CATEGORY ( 'detail', '', ( #461 ) ) ;
#470 = DIRECTION ( 'NONE',  ( 0.000000000000000000, 0.000000000000000000, 1.000000000000000000 ) ) ;
#471 = VERTEX_POINT ( 'NONE', #525 ) ;
#472 = DIRECTION ( 'NONE',  ( 0.000000000000000000, -1.000000000000000000, 0.000000000000000000 ) ) ;
#473 = CARTESIAN_POINT ( 'NONE',  ( -6.000000000000001776, 0.000000000000000000, 1.999999999999999556 ) ) ;
#474 = APPROVAL_PERSON_ORGANIZATION ( #117, #502, #537 ) ;
#475 = CARTESIAN_POINT ( 'NONE',  ( -5.800000000000002487, 2.000000000000000000, -2.000000000000000444 ) ) ;
#476 = APPROVAL_DATE_TIME ( #387, #488 ) ;
#477 = PLANE ( 'NONE',  #284 ) ;
#478 = EDGE_LOOP ( 'NONE', ( #173, #171, #468, #288 ) ) ;
#479 = VERTEX_POINT ( 'NONE', #405 ) ;
#480 = EDGE_CURVE ( 'NONE', #101, #377, #273, .T. ) ;
#481 = CARTESIAN_POINT ( 'NONE',  ( -5.800000000000002487, 1.800000000000000044, -1.800000000000000488 ) ) ;
#482 = ORIENTED_EDGE ( 'NONE', *, *, #367, .T. ) ;
#483 = AXIS2_PLACEMENT_3D ( 'NONE', #491, #63, #65 ) ;
#484 = CARTESIAN_POINT ( 'NONE',  ( 5.800000000000000711, 0.000000000000000000, 1.799999999999999600 ) ) ;
#485 = EDGE_CURVE ( 'NONE', #521, #329, #204, .T. ) ;
#486 = ADVANCED_FACE ( 'NONE', ( #362 ), #104, .T. ) ;
#487 = VERTEX_POINT ( 'NONE', #71 ) ;
#488 = APPROVAL ( #14, 'UNSPECIFIED' ) ;
#489 = CYLINDRICAL_SURFACE ( 'NONE', #261, 0.2000000000000000944 ) ;
#490 = CARTESIAN_POINT ( 'NONE',  ( 5.999999999999998224, 1.800000000000000044, -1.800000000000000488 ) ) ;
#491 = CARTESIAN_POINT ( 'NONE',  ( -5.800000000000002487, 1.800000000000000044, -1.800000000000000488 ) ) ;
#492 = CARTESIAN_POINT ( 'NONE',  ( 0.000000000000000000, 1.800000000000000044, -1.800000000000000488 ) ) ;
#493 = VERTEX_POINT ( 'NONE', #323 ) ;
#494 = AXIS2_PLACEMENT_3D ( 'NONE', #269, #90, #141 ) ;
#495 = DIRECTION ( 'NONE',  ( -0.000000000000000000, 1.000000000000000000, -0.000000000000000000 ) ) ;
#496 = CIRCLE ( 'NONE', #146, 0.2000000000000000944 ) ;
#497 = ORIENTED_EDGE ( 'NONE', *, *, #447, .T. ) ;
#498 = DATE_AND_TIME ( #76, #396 ) ;
#499 =( NAMED_UNIT ( * ) PLANE_ANGLE_UNIT ( ) SI_UNIT ( $, .RADIAN. ) );
#500 = ADVANCED_BREP_SHAPE_REPRESENTATION ( 'BAR4X12T2', ( #425, #32 ), #232 ) ;
#501 = EDGE_CURVE ( 'NONE', #337, #487, #411, .T. ) ;
#502 = APPROVAL ( #249, 'UNSPECIFIED' ) ;
#503 = COORDINATED_UNIVERSAL_TIME_OFFSET ( 8, 0, .AHEAD. ) ;
#504 = ORIENTED_EDGE ( 'NONE', *, *, #50, .T. ) ;
#505 = CARTESIAN_POINT ( 'NONE',  ( 5.999999999999998224, 0.000000000000000000, -2.000000000000000444 ) ) ;
#506 = VERTEX_POINT ( 'NONE', #365 ) ;
#507 = SHAPE_DEFINITION_REPRESENTATION ( #295, #500 ) ;
#508 = VECTOR ( 'NONE', #253, 1000.000000000000000 ) ;
#509 = EDGE_LOOP ( 'NONE', ( #210, #157, #72, #45 ) ) ;
#510 = DIRECTION ( 'NONE',  ( 4.336808689942017736E-16, -0.000000000000000000, 1.000000000000000000 ) ) ;
#511 = DIRECTION ( 'NONE',  ( -0.000000000000000000, 1.000000000000000000, 0.000000000000000000 ) ) ;
#512 = ORIENTED_EDGE ( 'NONE', *, *, #386, .F. ) ;
#513 = DIRECTION ( 'NONE',  ( 0.000000000000000000, -1.000000000000000000, 0.000000000000000000 ) ) ;
#514 = FACE_OUTER_BOUND ( 'NONE', #147, .T. ) ;
#515 = ORIENTED_EDGE ( 'NONE', *, *, #127, .T. ) ;
#516 = DIRECTION ( 'NONE',  ( 0.000000000000000000, -1.000000000000000000, 0.000000000000000000 ) ) ;
#517 = CYLINDRICAL_SURFACE ( 'NONE', #36, 0.1999999999999996503 ) ;
#518 = EDGE_LOOP ( 'NONE', ( #94, #126, #267, #58 ) ) ;
#519 = CARTESIAN_POINT ( 'NONE',  ( -5.800000000000002487, 2.000000000000000000, -1.800000000000000488 ) ) ;
#520 = CARTESIAN_POINT ( 'NONE',  ( -5.800000000000002487, 0.000000000000000000, -2.000000000000000444 ) ) ;
#521 = VERTEX_POINT ( 'NONE', #244 ) ;
#522 = DIRECTION ( 'NONE',  ( 0.000000000000000000, 0.000000000000000000, -1.000000000000000000 ) ) ;
#523 = DIRECTION ( 'NONE',  ( 1.000000000000000000, 0.000000000000000000, 0.000000000000000000 ) ) ;
#524 = LINE ( 'NONE', #66, #431 ) ;
#525 = CARTESIAN_POINT ( 'NONE',  ( 5.800000000000000711, 1.800000000000000044, 1.999999999999999556 ) ) ;
#526 = EDGE_CURVE ( 'NONE', #521, #91, #441, .T. ) ;
#527 = LINE ( 'NONE', #99, #223 ) ;
#528 = CARTESIAN_POINT ( 'NONE',  ( -5.800000000000002487, 1.800000000000000044, 1.999999999999999556 ) ) ;
#529 = CARTESIAN_POINT ( 'NONE',  ( -5.800000000000002487, 1.800000000000000044, 0.000000000000000000 ) ) ;
#530 = CARTESIAN_POINT ( 'NONE',  ( 5.799999999999999822, 1.800000000000000044, -1.800000000000000488 ) ) ;
#531 = CARTESIAN_POINT ( 'NONE',  ( -5.800000000000002487, 1.800000000000000044, 1.799999999999999600 ) ) ;
#532 = ORGANIZATION ( 'UNSPECIFIED', 'UNSPECIFIED', '' ) ;
#533 = CARTESIAN_POINT ( 'NONE',  ( -6.000000000000001776, 1.800000000000000044, 1.999999999999999556 ) ) ;
#534 = EDGE_CURVE ( 'NONE', #337, #131, #33, .T. ) ;
#535 = AXIS2_PLACEMENT_3D ( 'NONE', #231, #391, #393 ) ;
#536 = EDGE_CURVE ( 'NONE', #471, #91, #39, .T. ) ;
#537 = APPROVAL_ROLE ( '' ) ;
#538 = EDGE_CURVE ( 'NONE', #4, #521, #327, .T. ) ;
#539 = PERSON_AND_ORGANIZATION_ROLE ( 'creator' ) ;
#540 = PERSON_AND_ORGANIZATION_ROLE ( 'classification_officer' ) ;
#541 = ORIENTED_EDGE ( 'NONE', *, *, #159, .F. ) ;
ENDSEC;
END-ISO-10303-21;
