ISO-10303-21;
HEADER;
FILE_DESCRIPTION (( 'STEP AP214' ),
    '1' );
FILE_NAME ('BAR4X20T1.step',
    '2026-03-22T07:23:36',
    ( '' ),
    ( '' ),
    'SwSTEP 2.0',
    'SolidWorks 2025',
    '' );
FILE_SCHEMA (( 'AUTOMOTIVE_DESIGN' ));
ENDSEC;

DATA;
#1 = CARTESIAN_POINT ( 'NONE',  ( -9.799999999999995381, 1.000000000000000000, -2.000000000000000000 ) ) ;
#2 = EDGE_CURVE ( 'NONE', #184, #462, #42, .T. ) ;
#3 = CIRCLE ( 'NONE', #176, 0.2000000000000000944 ) ;
#4 =( GEOMETRIC_REPRESENTATION_CONTEXT ( 3 ) GLOBAL_UNCERTAINTY_ASSIGNED_CONTEXT ( ( #18 ) ) GLOBAL_UNIT_ASSIGNED_CONTEXT ( ( #327, #366, #213 ) ) REPRESENTATION_CONTEXT ( 'NONE', 'WORKASPACE' ) );
#5 = DIRECTION ( 'NONE',  ( -0.000000000000000000, -0.000000000000000000, 1.000000000000000000 ) ) ;
#6 = DIRECTION ( 'NONE',  ( 0.000000000000000000, 0.000000000000000000, -1.000000000000000000 ) ) ;
#7 = DIRECTION ( 'NONE',  ( 1.000000000000000000, 0.000000000000000000, 0.000000000000000000 ) ) ;
#8 = CARTESIAN_POINT ( 'NONE',  ( 9.800000000000002487, 0.8000000000000000444, -1.800000000000000044 ) ) ;
#9 = CARTESIAN_POINT ( 'NONE',  ( -9.799999999999995381, 0.000000000000000000, -2.000000000000000000 ) ) ;
#10 = CARTESIAN_POINT ( 'NONE',  ( 0.000000000000000000, 0.8000000000000000444, -1.800000000000000044 ) ) ;
#11 = CIRCLE ( 'NONE', #161, 0.2000000000000000944 ) ;
#12 = DIRECTION ( 'NONE',  ( 0.000000000000000000, -1.000000000000000000, 0.000000000000000000 ) ) ;
#13 = VECTOR ( 'NONE', #51, 1000.000000000000000 ) ;
#14 = EDGE_CURVE ( 'NONE', #341, #184, #138, .T. ) ;
#15 = LINE ( 'NONE', #174, #206 ) ;
#16 = LINE ( 'NONE', #131, #13 ) ;
#17 = FACE_OUTER_BOUND ( 'NONE', #33, .T. ) ;
#18 = UNCERTAINTY_MEASURE_WITH_UNIT (LENGTH_MEASURE( 1.000000000000000082E-05 ), #327, 'distance_accuracy_value', 'NONE');
#19 = ORIENTED_EDGE ( 'NONE', *, *, #40, .F. ) ;
#20 = CARTESIAN_POINT ( 'NONE',  ( -9.999999999999996447, 0.8000000000000000444, -1.800000000000000044 ) ) ;
#21 = FACE_OUTER_BOUND ( 'NONE', #336, .T. ) ;
#22 = CIRCLE ( 'NONE', #263, 0.2000000000000005107 ) ;
#23 = DIRECTION ( 'NONE',  ( 0.000000000000000000, 0.000000000000000000, 1.000000000000000000 ) ) ;
#24 = EDGE_LOOP ( 'NONE', ( #448, #86, #112, #188 ) ) ;
#25 = DIRECTION ( 'NONE',  ( 1.000000000000000000, 0.000000000000000000, 0.000000000000000000 ) ) ;
#26 = ORIENTED_EDGE ( 'NONE', *, *, #359, .F. ) ;
#27 = EDGE_CURVE ( 'NONE', #413, #137, #116, .T. ) ;
#28 = CIRCLE ( 'NONE', #248, 0.2000000000000000944 ) ;
#29 = CARTESIAN_POINT ( 'NONE',  ( 9.800000000000002487, 0.8000000000000000444, 0.000000000000000000 ) ) ;
#30 = VECTOR ( 'NONE', #483, 1000.000000000000000 ) ;
#31 = ORIENTED_EDGE ( 'NONE', *, *, #243, .T. ) ;
#32 = CARTESIAN_POINT ( 'NONE',  ( 10.00000000000000355, 1.000000000000000000, -2.000000000000000000 ) ) ;
#33 = EDGE_LOOP ( 'NONE', ( #332, #319, #367 ) ) ;
#34 = CARTESIAN_POINT ( 'NONE',  ( 9.800000000000002487, 1.000000000000000000, -1.800000000000000044 ) ) ;
#35 = ORIENTED_EDGE ( 'NONE', *, *, #190, .T. ) ;
#36 = EDGE_CURVE ( 'NONE', #379, #73, #380, .T. ) ;
#37 = ORIENTED_EDGE ( 'NONE', *, *, #243, .F. ) ;
#38 = VECTOR ( 'NONE', #461, 1000.000000000000000 ) ;
#39 = ORIENTED_EDGE ( 'NONE', *, *, #344, .F. ) ;
#40 = EDGE_CURVE ( 'NONE', #145, #305, #394, .T. ) ;
#41 = CARTESIAN_POINT ( 'NONE',  ( -9.799999999999995381, 0.8000000000000000444, 1.800000000000000044 ) ) ;
#42 = LINE ( 'NONE', #307, #81 ) ;
#43 = VECTOR ( 'NONE', #158, 1000.000000000000000 ) ;
#44 = CARTESIAN_POINT ( 'NONE',  ( -9.799999999999995381, 1.000000000000000000, 2.000000000000000000 ) ) ;
#45 = ORIENTED_EDGE ( 'NONE', *, *, #120, .T. ) ;
#46 = CARTESIAN_POINT ( 'NONE',  ( -9.799999999999995381, 1.000000000000000000, 1.800000000000000044 ) ) ;
#47 = CARTESIAN_POINT ( 'NONE',  ( 10.00000000000000355, 1.000000000000000000, 1.800000000000000044 ) ) ;
#48 = ADVANCED_FACE ( 'NONE', ( #418 ), #354, .T. ) ;
#49 = CARTESIAN_POINT ( 'NONE',  ( -9.999999999999996447, 0.8000000000000000444, -2.000000000000000000 ) ) ;
#50 = DIRECTION ( 'NONE',  ( -0.000000000000000000, 1.000000000000000000, -0.000000000000000000 ) ) ;
#51 = DIRECTION ( 'NONE',  ( 1.000000000000000000, -0.000000000000000000, -0.000000000000000000 ) ) ;
#52 = AXIS2_PLACEMENT_3D ( 'NONE', #375, #5, #333 ) ;
#53 = DIRECTION ( 'NONE',  ( -1.000000000000000000, 0.000000000000000000, 0.000000000000000000 ) ) ;
#54 = LINE ( 'NONE', #89, #38 ) ;
#55 = PRODUCT_RELATED_PRODUCT_CATEGORY ( 'part', '', ( #224 ) ) ;
#56 = DIRECTION ( 'NONE',  ( 0.000000000000000000, 0.000000000000000000, -1.000000000000000000 ) ) ;
#57 = ORIENTED_EDGE ( 'NONE', *, *, #226, .F. ) ;
#58 = CARTESIAN_POINT ( 'NONE',  ( 9.800000000000002487, 1.000000000000000000, -2.000000000000000000 ) ) ;
#59 =( GEOMETRIC_REPRESENTATION_CONTEXT ( 3 ) GLOBAL_UNCERTAINTY_ASSIGNED_CONTEXT ( ( #401 ) ) GLOBAL_UNIT_ASSIGNED_CONTEXT ( ( #70, #346, #331 ) ) REPRESENTATION_CONTEXT ( 'NONE', 'WORKASPACE' ) );
#60 = DIRECTION ( 'NONE',  ( 0.000000000000000000, 0.000000000000000000, 1.000000000000000000 ) ) ;
#61 = ORIENTED_EDGE ( 'NONE', *, *, #71, .F. ) ;
#62 = APPLICATION_PROTOCOL_DEFINITION ( 'draft international standard', 'automotive_design', 1998, #252 ) ;
#63 = LINE ( 'NONE', #491, #30 ) ;
#64 = ORIENTED_EDGE ( 'NONE', *, *, #473, .T. ) ;
#65 = EDGE_CURVE ( 'NONE', #376, #184, #223, .T. ) ;
#66 = DIRECTION ( 'NONE',  ( -1.000000000000000000, -0.000000000000000000, -0.000000000000000000 ) ) ;
#67 = ORIENTED_EDGE ( 'NONE', *, *, #344, .T. ) ;
#68 = CARTESIAN_POINT ( 'NONE',  ( 0.000000000000000000, 0.000000000000000000, 0.000000000000000000 ) ) ;
#69 = ORIENTED_EDGE ( 'NONE', *, *, #114, .F. ) ;
#70 =( LENGTH_UNIT ( ) NAMED_UNIT ( * ) SI_UNIT ( .MILLI., .METRE. ) );
#71 = EDGE_CURVE ( 'NONE', #342, #288, #460, .T. ) ;
#72 = EDGE_LOOP ( 'NONE', ( #300, #414, #255, #39 ) ) ;
#73 = VERTEX_POINT ( 'NONE', #83 ) ;
#74 = ORIENTED_EDGE ( 'NONE', *, *, #260, .T. ) ;
#75 = AXIS2_PLACEMENT_3D ( 'NONE', #68, #449, #302 ) ;
#76 = DIRECTION ( 'NONE',  ( 1.000000000000000000, 0.000000000000000000, 0.000000000000000000 ) ) ;
#77 = SURFACE_STYLE_USAGE ( .BOTH. , #258 ) ;
#78 = DIRECTION ( 'NONE',  ( 0.000000000000000000, 0.000000000000000000, -1.000000000000000000 ) ) ;
#79 = SPHERICAL_SURFACE ( 'NONE', #487, 0.2000000000000000111 ) ;
#80 = DIRECTION ( 'NONE',  ( -1.000000000000000000, 0.000000000000000000, 0.000000000000000000 ) ) ;
#81 = VECTOR ( 'NONE', #345, 1000.000000000000000 ) ;
#82 = FACE_OUTER_BOUND ( 'NONE', #142, .T. ) ;
#83 = CARTESIAN_POINT ( 'NONE',  ( 10.00000000000000355, 0.000000000000000000, 1.800000000000000044 ) ) ;
#84 = EDGE_CURVE ( 'NONE', #242, #184, #11, .T. ) ;
#85 = CARTESIAN_POINT ( 'NONE',  ( -9.999999999999996447, 1.000000000000000000, -2.000000000000000000 ) ) ;
#86 = ORIENTED_EDGE ( 'NONE', *, *, #27, .T. ) ;
#87 = CARTESIAN_POINT ( 'NONE',  ( -9.799999999999995381, 1.000000000000000000, -1.800000000000000044 ) ) ;
#88 = DIRECTION ( 'NONE',  ( 0.000000000000000000, -1.000000000000000000, 0.000000000000000000 ) ) ;
#89 = CARTESIAN_POINT ( 'NONE',  ( 10.00000000000000355, 0.8000000000000000444, 2.000000000000000000 ) ) ;
#90 = EDGE_CURVE ( 'NONE', #101, #341, #153, .T. ) ;
#91 = AXIS2_PLACEMENT_3D ( 'NONE', #159, #231, #361 ) ;
#92 = CARTESIAN_POINT ( 'NONE',  ( 9.800000000000000711, 0.000000000000000000, -2.000000000000000000 ) ) ;
#93 = EDGE_LOOP ( 'NONE', ( #173, #457, #484, #382 ) ) ;
#94 = CARTESIAN_POINT ( 'NONE',  ( 10.00000000000000355, 0.8000000000000000444, -1.800000000000000044 ) ) ;
#95 = CARTESIAN_POINT ( 'NONE',  ( 9.800000000000000711, 0.000000000000000000, -1.800000000000000044 ) ) ;
#96 = AXIS2_PLACEMENT_3D ( 'NONE', #466, #125, #310 ) ;
#97 = DIRECTION ( 'NONE',  ( 0.000000000000000000, -1.000000000000000000, 0.000000000000000000 ) ) ;
#98 = EDGE_CURVE ( 'NONE', #376, #296, #28, .T. ) ;
#99 = EDGE_LOOP ( 'NONE', ( #324, #218, #201, #299 ) ) ;
#100 = CARTESIAN_POINT ( 'NONE',  ( 10.00000000000000355, 1.000000000000000000, -1.800000000000000044 ) ) ;
#101 = VERTEX_POINT ( 'NONE', #270 ) ;
#102 = DIRECTION ( 'NONE',  ( -0.000000000000000000, 1.000000000000000000, -0.000000000000000000 ) ) ;
#103 = ORIENTED_EDGE ( 'NONE', *, *, #422, .T. ) ;
#104 = VECTOR ( 'NONE', #328, 1000.000000000000000 ) ;
#105 = SURFACE_STYLE_FILL_AREA ( #225 ) ;
#106 = PRODUCT_DEFINITION_SHAPE ( 'NONE', 'NONE',  #488 ) ;
#107 = PRESENTATION_LAYER_ASSIGNMENT (  '', '', ( #139 ) ) ;
#108 = ORIENTED_EDGE ( 'NONE', *, *, #220, .T. ) ;
#109 = ORIENTED_EDGE ( 'NONE', *, *, #439, .F. ) ;
#110 = EDGE_LOOP ( 'NONE', ( #147, #57, #374, #186 ) ) ;
#111 = AXIS2_PLACEMENT_3D ( 'NONE', #349, #155, #273 ) ;
#112 = ORIENTED_EDGE ( 'NONE', *, *, #404, .T. ) ;
#113 = VECTOR ( 'NONE', #123, 1000.000000000000000 ) ;
#114 = EDGE_CURVE ( 'NONE', #288, #137, #214, .T. ) ;
#115 = DIRECTION ( 'NONE',  ( 0.000000000000000000, 0.000000000000000000, 1.000000000000000000 ) ) ;
#116 = LINE ( 'NONE', #1, #450 ) ;
#117 = DIRECTION ( 'NONE',  ( -0.000000000000000000, -1.000000000000000000, -0.000000000000000000 ) ) ;
#118 = CARTESIAN_POINT ( 'NONE',  ( -9.999999999999996447, 1.000000000000000000, -1.800000000000000044 ) ) ;
#119 = FACE_OUTER_BOUND ( 'NONE', #175, .T. ) ;
#120 = EDGE_CURVE ( 'NONE', #462, #101, #221, .T. ) ;
#121 = DIRECTION ( 'NONE',  ( -0.000000000000000000, 1.000000000000000000, 0.000000000000000000 ) ) ;
#122 = VECTOR ( 'NONE', #160, 1000.000000000000000 ) ;
#123 = DIRECTION ( 'NONE',  ( -0.000000000000000000, -0.000000000000000000, -1.000000000000000000 ) ) ;
#124 = CARTESIAN_POINT ( 'NONE',  ( 9.800000000000002487, 0.8000000000000000444, 1.800000000000000044 ) ) ;
#125 = DIRECTION ( 'NONE',  ( 0.000000000000000000, 0.000000000000000000, -1.000000000000000000 ) ) ;
#126 = DIRECTION ( 'NONE',  ( -0.000000000000000000, -0.000000000000000000, 1.000000000000000000 ) ) ;
#127 = ADVANCED_FACE ( 'NONE', ( #301 ), #390, .F. ) ;
#128 = DIRECTION ( 'NONE',  ( 0.000000000000000000, -0.000000000000000000, -1.000000000000000000 ) ) ;
#129 = CARTESIAN_POINT ( 'NONE',  ( 9.800000000000002487, 0.8000000000000000444, 1.800000000000000044 ) ) ;
#130 = CIRCLE ( 'NONE', #412, 0.2000000000000000944 ) ;
#131 = CARTESIAN_POINT ( 'NONE',  ( 10.00000000000000355, 0.8000000000000000444, -2.000000000000000000 ) ) ;
#132 = SPHERICAL_SURFACE ( 'NONE', #323, 0.2000000000000000111 ) ;
#133 = CARTESIAN_POINT ( 'NONE',  ( -9.999999999999996447, 0.000000000000000000, -2.000000000000000000 ) ) ;
#134 = ORIENTED_EDGE ( 'NONE', *, *, #235, .T. ) ;
#135 = EDGE_CURVE ( 'NONE', #376, #379, #3, .T. ) ;
#136 = CARTESIAN_POINT ( 'NONE',  ( -9.799999999999995381, 0.8000000000000000444, -1.800000000000000044 ) ) ;
#137 = VERTEX_POINT ( 'NONE', #200 ) ;
#138 = CIRCLE ( 'NONE', #111, 0.2000000000000000944 ) ;
#139 = STYLED_ITEM ( 'NONE', ( #250 ), #362 ) ;
#140 = VERTEX_POINT ( 'NONE', #92 ) ;
#141 = DIRECTION ( 'NONE',  ( 0.000000000000000000, 0.000000000000000000, 1.000000000000000000 ) ) ;
#142 = EDGE_LOOP ( 'NONE', ( #134, #399, #64, #482 ) ) ;
#143 = EDGE_CURVE ( 'NONE', #288, #431, #146, .T. ) ;
#144 = PLANE ( 'NONE',  #356 ) ;
#145 = VERTEX_POINT ( 'NONE', #94 ) ;
#146 = CIRCLE ( 'NONE', #417, 0.2000000000000005107 ) ;
#147 = ORIENTED_EDGE ( 'NONE', *, *, #330, .T. ) ;
#148 = ORIENTED_EDGE ( 'NONE', *, *, #388, .T. ) ;
#149 = EDGE_CURVE ( 'NONE', #431, #486, #209, .T. ) ;
#150 = DIRECTION ( 'NONE',  ( -0.000000000000000000, 1.000000000000000000, -0.000000000000000000 ) ) ;
#151 = CARTESIAN_POINT ( 'NONE',  ( 0.000000000000000000, 0.8000000000000000444, 1.800000000000000044 ) ) ;
#152 = AXIS2_PLACEMENT_3D ( 'NONE', #203, #244, #172 ) ;
#153 = LINE ( 'NONE', #268, #441 ) ;
#154 = LINE ( 'NONE', #306, #348 ) ;
#155 = DIRECTION ( 'NONE',  ( 0.000000000000000000, 1.000000000000000000, -0.000000000000000000 ) ) ;
#156 = ADVANCED_FACE ( 'NONE', ( #474 ), #237, .T. ) ;
#157 = DIRECTION ( 'NONE',  ( 0.000000000000000000, 0.000000000000000000, -1.000000000000000000 ) ) ;
#158 = DIRECTION ( 'NONE',  ( -1.000000000000000000, 0.000000000000000000, 0.000000000000000000 ) ) ;
#159 = CARTESIAN_POINT ( 'NONE',  ( -9.999999999999996447, 1.000000000000000000, -2.000000000000000000 ) ) ;
#160 = DIRECTION ( 'NONE',  ( -1.000000000000000000, -0.000000000000000000, -0.000000000000000000 ) ) ;
#161 = AXIS2_PLACEMENT_3D ( 'NONE', #41, #309, #490 ) ;
#162 = AXIS2_PLACEMENT_3D ( 'NONE', #32, #381, #183 ) ;
#163 = DIRECTION ( 'NONE',  ( 0.000000000000000000, 0.000000000000000000, -1.000000000000000000 ) ) ;
#164 = DIRECTION ( 'NONE',  ( 0.000000000000000000, 1.000000000000000000, 0.000000000000000000 ) ) ;
#165 = FACE_OUTER_BOUND ( 'NONE', #24, .T. ) ;
#166 = FACE_OUTER_BOUND ( 'NONE', #480, .T. ) ;
#167 = CARTESIAN_POINT ( 'NONE',  ( -9.799999999999995381, 0.8000000000000000444, 1.800000000000000044 ) ) ;
#168 = AXIS2_PLACEMENT_3D ( 'NONE', #253, #286, #329 ) ;
#169 = DIRECTION ( 'NONE',  ( -0.000000000000000000, 1.000000000000000000, 0.000000000000000000 ) ) ;
#170 = ORIENTED_EDGE ( 'NONE', *, *, #71, .T. ) ;
#171 = ADVANCED_FACE ( 'NONE', ( #17 ), #277, .T. ) ;
#172 = DIRECTION ( 'NONE',  ( 0.000000000000000000, 0.000000000000000000, 1.000000000000000000 ) ) ;
#173 = ORIENTED_EDGE ( 'NONE', *, *, #120, .F. ) ;
#174 = CARTESIAN_POINT ( 'NONE',  ( -9.999999999999996447, 0.000000000000000000, -2.000000000000000000 ) ) ;
#175 = EDGE_LOOP ( 'NONE', ( #187, #108, #326 ) ) ;
#176 = AXIS2_PLACEMENT_3D ( 'NONE', #124, #322, #60 ) ;
#177 = AXIS2_PLACEMENT_3D ( 'NONE', #355, #12, #163 ) ;
#178 = DIRECTION ( 'NONE',  ( 1.000000000000000000, 0.000000000000000000, 0.000000000000000000 ) ) ;
#179 = ADVANCED_FACE ( 'NONE', ( #166 ), #467, .T. ) ;
#180 = ORIENTED_EDGE ( 'NONE', *, *, #458, .F. ) ;
#181 = CARTESIAN_POINT ( 'NONE',  ( 9.800000000000000711, 0.8000000000000000444, -2.000000000000000000 ) ) ;
#182 = ORIENTED_EDGE ( 'NONE', *, *, #27, .F. ) ;
#183 = DIRECTION ( 'NONE',  ( 0.000000000000000000, 0.000000000000000000, 1.000000000000000000 ) ) ;
#184 = VERTEX_POINT ( 'NONE', #472 ) ;
#185 = CIRCLE ( 'NONE', #52, 0.2000000000000005107 ) ;
#186 = ORIENTED_EDGE ( 'NONE', *, *, #446, .F. ) ;
#187 = ORIENTED_EDGE ( 'NONE', *, *, #114, .T. ) ;
#188 = ORIENTED_EDGE ( 'NONE', *, *, #199, .T. ) ;
#189 = ORIENTED_EDGE ( 'NONE', *, *, #226, .T. ) ;
#190 = EDGE_CURVE ( 'NONE', #379, #296, #22, .T. ) ;
#191 = DIRECTION ( 'NONE',  ( 0.000000000000000000, 0.000000000000000000, -1.000000000000000000 ) ) ;
#192 = ORIENTED_EDGE ( 'NONE', *, *, #473, .F. ) ;
#193 = CYLINDRICAL_SURFACE ( 'NONE', #96, 0.2000000000000005107 ) ;
#194 = DIRECTION ( 'NONE',  ( 0.000000000000000000, -1.000000000000000000, 0.000000000000000000 ) ) ;
#195 = FACE_OUTER_BOUND ( 'NONE', #72, .T. ) ;
#196 = DIRECTION ( 'NONE',  ( 1.000000000000000000, -8.673617379884037050E-15, 0.000000000000000000 ) ) ;
#197 = AXIS2_PLACEMENT_3D ( 'NONE', #46, #393, #157 ) ;
#198 = DIRECTION ( 'NONE',  ( 0.000000000000000000, -1.000000000000000000, 0.000000000000000000 ) ) ;
#199 = EDGE_CURVE ( 'NONE', #305, #140, #437, .T. ) ;
#200 = CARTESIAN_POINT ( 'NONE',  ( -9.799999999999995381, 0.8000000000000000444, -2.000000000000000000 ) ) ;
#201 = ORIENTED_EDGE ( 'NONE', *, *, #446, .T. ) ;
#202 = CARTESIAN_POINT ( 'NONE',  ( -9.999999999999996447, 0.000000000000000000, -1.800000000000000044 ) ) ;
#203 = CARTESIAN_POINT ( 'NONE',  ( -9.799999999999995381, 0.8000000000000000444, -1.800000000000000044 ) ) ;
#204 = CARTESIAN_POINT ( 'NONE',  ( 9.800000000000002487, 0.8000000000000000444, -1.800000000000000044 ) ) ;
#205 = ADVANCED_FACE ( 'NONE', ( #21 ), #132, .T. ) ;
#206 = VECTOR ( 'NONE', #66, 1000.000000000000000 ) ;
#207 = MECHANICAL_DESIGN_GEOMETRIC_PRESENTATION_REPRESENTATION (  '', ( #139 ), #59 ) ;
#208 = APPLICATION_PROTOCOL_DEFINITION ( 'draft international standard', 'automotive_design', 1998, #304 ) ;
#209 = LINE ( 'NONE', #315, #478 ) ;
#210 = ADVANCED_FACE ( 'NONE', ( #241 ), #470, .T. ) ;
#211 = CARTESIAN_POINT ( 'NONE',  ( 9.800000000000002487, 1.000000000000000000, 1.800000000000000044 ) ) ;
#212 = ORIENTED_EDGE ( 'NONE', *, *, #143, .T. ) ;
#213 =( NAMED_UNIT ( * ) SI_UNIT ( $, .STERADIAN. ) SOLID_ANGLE_UNIT ( ) );
#214 = CIRCLE ( 'NONE', #364, 0.2000000000000000944 ) ;
#215 = DIRECTION ( 'NONE',  ( 0.000000000000000000, -0.000000000000000000, 1.000000000000000000 ) ) ;
#216 = ORIENTED_EDGE ( 'NONE', *, *, #337, .T. ) ;
#217 = CARTESIAN_POINT ( 'NONE',  ( -9.999999999999996447, 0.8000000000000000444, 1.800000000000000044 ) ) ;
#218 = ORIENTED_EDGE ( 'NONE', *, *, #311, .T. ) ;
#219 = ORIENTED_EDGE ( 'NONE', *, *, #2, .T. ) ;
#220 = EDGE_CURVE ( 'NONE', #137, #431, #256, .T. ) ;
#221 = CIRCLE ( 'NONE', #289, 0.2000000000000000944 ) ;
#222 = EDGE_LOOP ( 'NONE', ( #377, #74, #415 ) ) ;
#223 = LINE ( 'NONE', #275, #122 ) ;
#224 = PRODUCT ( 'BAR4X20T1', 'BAR4X20T1', '', ( #284 ) ) ;
#225 = FILL_AREA_STYLE ('',( #456 ) ) ;
#226 = EDGE_CURVE ( 'NONE', #296, #342, #400, .T. ) ;
#227 = EDGE_LOOP ( 'NONE', ( #212, #192, #180, #438 ) ) ;
#228 = DIRECTION ( 'NONE',  ( 0.000000000000000000, 1.000000000000000000, 0.000000000000000000 ) ) ;
#229 = AXIS2_PLACEMENT_3D ( 'NONE', #10, #76, #6 ) ;
#230 = CARTESIAN_POINT ( 'NONE',  ( -9.799999999999995381, 0.000000000000000000, 1.800000000000000044 ) ) ;
#231 = DIRECTION ( 'NONE',  ( 0.000000000000000000, 0.000000000000000000, 1.000000000000000000 ) ) ;
#232 = DIRECTION ( 'NONE',  ( 0.000000000000000000, 0.000000000000000000, 1.000000000000000000 ) ) ;
#233 = CARTESIAN_POINT ( 'NONE',  ( -9.799999999999995381, 0.8000000000000000444, -1.800000000000000044 ) ) ;
#234 = EDGE_LOOP ( 'NONE', ( #37, #261, #19, #476 ) ) ;
#235 = EDGE_CURVE ( 'NONE', #486, #101, #325, .T. ) ;
#236 = CYLINDRICAL_SURFACE ( 'NONE', #257, 0.2000000000000000944 ) ;
#237 = SPHERICAL_SURFACE ( 'NONE', #280, 0.2000000000000000111 ) ;
#238 = EDGE_LOOP ( 'NONE', ( #26, #45, #451, #452, #251, #31, #109, #216 ) ) ;
#239 = PRODUCT_DEFINITION_FORMATION_WITH_SPECIFIED_SOURCE ( 'ANY', '', #224, .NOT_KNOWN. ) ;
#240 = LINE ( 'NONE', #49, #386 ) ;
#241 = FACE_OUTER_BOUND ( 'NONE', #234, .T. ) ;
#242 = VERTEX_POINT ( 'NONE', #440 ) ;
#243 = EDGE_CURVE ( 'NONE', #140, #249, #130, .T. ) ;
#244 = DIRECTION ( 'NONE',  ( 0.000000000000000000, 1.000000000000000000, 0.000000000000000000 ) ) ;
#245 = ADVANCED_BREP_SHAPE_REPRESENTATION ( 'BAR4X20T1', ( #362, #168 ), #4 ) ;
#246 = DIRECTION ( 'NONE',  ( -0.000000000000000000, -1.000000000000000000, -0.000000000000000000 ) ) ;
#247 = ORIENTED_EDGE ( 'NONE', *, *, #98, .T. ) ;
#248 = AXIS2_PLACEMENT_3D ( 'NONE', #455, #420, #78 ) ;
#249 = VERTEX_POINT ( 'NONE', #287 ) ;
#250 = PRESENTATION_STYLE_ASSIGNMENT (( #77 ) ) ;
#251 = ORIENTED_EDGE ( 'NONE', *, *, #266, .F. ) ;
#252 = APPLICATION_CONTEXT ( 'automotive_design' ) ;
#253 = CARTESIAN_POINT ( 'NONE',  ( 0.000000000000000000, 0.000000000000000000, 0.000000000000000000 ) ) ;
#254 = FACE_OUTER_BOUND ( 'NONE', #110, .T. ) ;
#255 = ORIENTED_EDGE ( 'NONE', *, *, #135, .F. ) ;
#256 = CIRCLE ( 'NONE', #152, 0.2000000000000000944 ) ;
#257 = AXIS2_PLACEMENT_3D ( 'NONE', #87, #198, #191 ) ;
#258 = SURFACE_SIDE_STYLE ('',( #105 ) ) ;
#259 = ORIENTED_EDGE ( 'NONE', *, *, #260, .F. ) ;
#260 = EDGE_CURVE ( 'NONE', #305, #342, #383, .T. ) ;
#261 = ORIENTED_EDGE ( 'NONE', *, *, #199, .F. ) ;
#262 = ORIENTED_EDGE ( 'NONE', *, *, #282, .F. ) ;
#263 = AXIS2_PLACEMENT_3D ( 'NONE', #396, #23, #25 ) ;
#264 = AXIS2_PLACEMENT_3D ( 'NONE', #151, #267, #141 ) ;
#265 = DIRECTION ( 'NONE',  ( 0.000000000000000000, 0.000000000000000000, 1.000000000000000000 ) ) ;
#266 = EDGE_CURVE ( 'NONE', #140, #413, #15, .T. ) ;
#267 = DIRECTION ( 'NONE',  ( -1.000000000000000000, 0.000000000000000000, 0.000000000000000000 ) ) ;
#268 = CARTESIAN_POINT ( 'NONE',  ( -9.999999999999996447, 1.000000000000000000, 1.800000000000000044 ) ) ;
#269 = FACE_OUTER_BOUND ( 'NONE', #238, .T. ) ;
#270 = CARTESIAN_POINT ( 'NONE',  ( -9.999999999999996447, 0.000000000000000000, 1.800000000000000044 ) ) ;
#271 = DIRECTION ( 'NONE',  ( 1.000000000000000000, 0.000000000000000000, 0.000000000000000000 ) ) ;
#272 = AXIS2_PLACEMENT_3D ( 'NONE', #459, #117, #115 ) ;
#273 = DIRECTION ( 'NONE',  ( 0.000000000000000000, 0.000000000000000000, 1.000000000000000000 ) ) ;
#274 = CYLINDRICAL_SURFACE ( 'NONE', #197, 0.2000000000000000944 ) ;
#275 = CARTESIAN_POINT ( 'NONE',  ( -9.999999999999996447, 0.8000000000000000444, 2.000000000000000000 ) ) ;
#276 = DIRECTION ( 'NONE',  ( -1.000000000000000000, 0.000000000000000000, 0.000000000000000000 ) ) ;
#277 = SPHERICAL_SURFACE ( 'NONE', #321, 0.2000000000000000111 ) ;
#278 = PLANE ( 'NONE',  #91 ) ;
#279 = DIRECTION ( 'NONE',  ( 0.000000000000000000, 0.000000000000000000, -1.000000000000000000 ) ) ;
#280 = AXIS2_PLACEMENT_3D ( 'NONE', #204, #434, #360 ) ;
#281 = COLOUR_RGB ( '',0.8980392156862745390, 0.9215686274509803377, 0.9294117647058823817 ) ;
#282 = EDGE_CURVE ( 'NONE', #486, #413, #485, .T. ) ;
#283 = DIRECTION ( 'NONE',  ( 0.000000000000000000, -0.000000000000000000, 1.000000000000000000 ) ) ;
#284 = PRODUCT_CONTEXT ( 'NONE', #252, 'mechanical' ) ;
#285 = DIRECTION ( 'NONE',  ( 0.000000000000000000, 0.000000000000000000, 1.000000000000000000 ) ) ;
#286 = DIRECTION ( 'NONE',  ( 0.000000000000000000, 0.000000000000000000, 1.000000000000000000 ) ) ;
#287 = CARTESIAN_POINT ( 'NONE',  ( 10.00000000000000355, 0.000000000000000000, -1.800000000000000044 ) ) ;
#288 = VERTEX_POINT ( 'NONE', #410 ) ;
#289 = AXIS2_PLACEMENT_3D ( 'NONE', #230, #387, #232 ) ;
#290 = VECTOR ( 'NONE', #320, 1000.000000000000000 ) ;
#291 = ADVANCED_FACE ( 'NONE', ( #407 ), #368, .T. ) ;
#292 = ORIENTED_EDGE ( 'NONE', *, *, #149, .F. ) ;
#293 = DIRECTION ( 'NONE',  ( -0.000000000000000000, -1.000000000000000000, -0.000000000000000000 ) ) ;
#294 = ORIENTED_EDGE ( 'NONE', *, *, #359, .T. ) ;
#295 = DIRECTION ( 'NONE',  ( 2.602085213965209379E-14, 0.000000000000000000, 1.000000000000000000 ) ) ;
#296 = VERTEX_POINT ( 'NONE', #211 ) ;
#297 = AXIS2_PLACEMENT_3D ( 'NONE', #313, #428, #465 ) ;
#298 = ADVANCED_FACE ( 'NONE', ( #269 ), #343, .F. ) ;
#299 = ORIENTED_EDGE ( 'NONE', *, *, #36, .T. ) ;
#300 = ORIENTED_EDGE ( 'NONE', *, *, #337, .F. ) ;
#301 = FACE_OUTER_BOUND ( 'NONE', #338, .T. ) ;
#302 = DIRECTION ( 'NONE',  ( 0.000000000000000000, -0.000000000000000000, 1.000000000000000000 ) ) ;
#303 = VECTOR ( 'NONE', #88, 1000.000000000000000 ) ;
#304 = APPLICATION_CONTEXT ( 'automotive_design' ) ;
#305 = VERTEX_POINT ( 'NONE', #181 ) ;
#306 = CARTESIAN_POINT ( 'NONE',  ( 9.800000000000000711, 1.000000000000000000, 2.000000000000000000 ) ) ;
#307 = CARTESIAN_POINT ( 'NONE',  ( -9.799999999999995381, 1.000000000000000000, 2.000000000000000000 ) ) ;
#308 = DIRECTION ( 'NONE',  ( 0.000000000000000000, 0.000000000000000000, -1.000000000000000000 ) ) ;
#309 = DIRECTION ( 'NONE',  ( 1.000000000000000000, -0.000000000000000000, -0.000000000000000000 ) ) ;
#310 = DIRECTION ( 'NONE',  ( -1.000000000000000000, 0.000000000000000000, 0.000000000000000000 ) ) ;
#311 = EDGE_CURVE ( 'NONE', #249, #145, #335, .T. ) ;
#312 = CIRCLE ( 'NONE', #340, 0.2000000000000005107 ) ;
#313 = CARTESIAN_POINT ( 'NONE',  ( -9.999999999999996447, 1.000000000000000000, 2.000000000000000000 ) ) ;
#314 = DIRECTION ( 'NONE',  ( 1.000000000000000000, -0.000000000000000000, 0.000000000000000000 ) ) ;
#315 = CARTESIAN_POINT ( 'NONE',  ( -9.999999999999996447, 1.000000000000000000, -1.800000000000000044 ) ) ;
#316 = CARTESIAN_POINT ( 'NONE',  ( 10.00000000000000355, 1.000000000000000000, 1.800000000000000044 ) ) ;
#317 = CARTESIAN_POINT ( 'NONE',  ( 0.000000000000000000, 1.000000000000000000, 0.000000000000000000 ) ) ;
#318 = ADVANCED_FACE ( 'NONE', ( #254 ), #444, .T. ) ;
#319 = ORIENTED_EDGE ( 'NONE', *, *, #14, .T. ) ;
#320 = DIRECTION ( 'NONE',  ( -0.000000000000000000, 0.000000000000000000, 1.000000000000000000 ) ) ;
#321 = AXIS2_PLACEMENT_3D ( 'NONE', #167, #363, #365 ) ;
#322 = DIRECTION ( 'NONE',  ( 0.000000000000000000, 1.000000000000000000, 0.000000000000000000 ) ) ;
#323 = AXIS2_PLACEMENT_3D ( 'NONE', #129, #169, #279 ) ;
#324 = ORIENTED_EDGE ( 'NONE', *, *, #439, .T. ) ;
#325 = LINE ( 'NONE', #133, #347 ) ;
#326 = ORIENTED_EDGE ( 'NONE', *, *, #143, .F. ) ;
#327 =( LENGTH_UNIT ( ) NAMED_UNIT ( * ) SI_UNIT ( .MILLI., .METRE. ) );
#328 = DIRECTION ( 'NONE',  ( 0.000000000000000000, 0.000000000000000000, -1.000000000000000000 ) ) ;
#329 = DIRECTION ( 'NONE',  ( 1.000000000000000000, 0.000000000000000000, 0.000000000000000000 ) ) ;
#330 = EDGE_CURVE ( 'NONE', #145, #342, #185, .T. ) ;
#331 =( NAMED_UNIT ( * ) SI_UNIT ( $, .STERADIAN. ) SOLID_ANGLE_UNIT ( ) );
#332 = ORIENTED_EDGE ( 'NONE', *, *, #458, .T. ) ;
#333 = DIRECTION ( 'NONE',  ( -1.000000000000000000, 0.000000000000000000, 0.000000000000000000 ) ) ;
#334 = ORIENTED_EDGE ( 'NONE', *, *, #98, .F. ) ;
#335 = LINE ( 'NONE', #100, #395 ) ;
#336 = EDGE_LOOP ( 'NONE', ( #445, #35, #334 ) ) ;
#337 = EDGE_CURVE ( 'NONE', #73, #406, #371, .T. ) ;
#338 = EDGE_LOOP ( 'NONE', ( #408, #219, #294, #67 ) ) ;
#339 = CLOSED_SHELL ( 'NONE', ( #352, #416, #373, #127, #179, #298, #409, #48, #210, #453, #156, #432, #468, #318, #479, #171, #205, #291 ) ) ;
#340 = AXIS2_PLACEMENT_3D ( 'NONE', #427, #384, #271 ) ;
#341 = VERTEX_POINT ( 'NONE', #217 ) ;
#342 = VERTEX_POINT ( 'NONE', #34 ) ;
#343 = PLANE ( 'NONE',  #75 ) ;
#344 = EDGE_CURVE ( 'NONE', #406, #376, #154, .T. ) ;
#345 = DIRECTION ( 'NONE',  ( 0.000000000000000000, -1.000000000000000000, 0.000000000000000000 ) ) ;
#346 =( NAMED_UNIT ( * ) PLANE_ANGLE_UNIT ( ) SI_UNIT ( $, .RADIAN. ) );
#347 = VECTOR ( 'NONE', #285, 1000.000000000000000 ) ;
#348 = VECTOR ( 'NONE', #447, 1000.000000000000000 ) ;
#349 = CARTESIAN_POINT ( 'NONE',  ( -9.799999999999995381, 0.8000000000000000444, 1.800000000000000044 ) ) ;
#350 = CARTESIAN_POINT ( 'NONE',  ( 10.00000000000000355, 0.8000000000000000444, 1.800000000000000044 ) ) ;
#351 = ORIENTED_EDGE ( 'NONE', *, *, #388, .F. ) ;
#352 = ADVANCED_FACE ( 'NONE', ( #372 ), #481, .F. ) ;
#353 = LINE ( 'NONE', #316, #464 ) ;
#354 = CYLINDRICAL_SURFACE ( 'NONE', #229, 0.2000000000000000944 ) ;
#355 = CARTESIAN_POINT ( 'NONE',  ( 9.800000000000002487, 1.000000000000000000, 1.800000000000000044 ) ) ;
#356 = AXIS2_PLACEMENT_3D ( 'NONE', #85, #7, #308 ) ;
#357 = DIRECTION ( 'NONE',  ( 8.673617379884035472E-15, 1.000000000000000000, 0.000000000000000000 ) ) ;
#358 = LINE ( 'NONE', #429, #113 ) ;
#359 = EDGE_CURVE ( 'NONE', #462, #406, #63, .T. ) ;
#360 = DIRECTION ( 'NONE',  ( -1.000000000000000000, 0.000000000000000000, 8.673617379884013384E-15 ) ) ;
#361 = DIRECTION ( 'NONE',  ( 1.000000000000000000, 0.000000000000000000, -0.000000000000000000 ) ) ;
#362 = MANIFOLD_SOLID_BREP ( '\X2\570689d2\X0\1', #339 ) ;
#363 = DIRECTION ( 'NONE',  ( 0.000000000000000000, 1.000000000000000000, -0.000000000000000000 ) ) ;
#364 = AXIS2_PLACEMENT_3D ( 'NONE', #423, #80, #426 ) ;
#365 = DIRECTION ( 'NONE',  ( 0.000000000000000000, 0.000000000000000000, 1.000000000000000000 ) ) ;
#366 =( NAMED_UNIT ( * ) PLANE_ANGLE_UNIT ( ) SI_UNIT ( $, .RADIAN. ) );
#367 = ORIENTED_EDGE ( 'NONE', *, *, #84, .F. ) ;
#368 = CYLINDRICAL_SURFACE ( 'NONE', #264, 0.2000000000000000944 ) ;
#369 = EDGE_LOOP ( 'NONE', ( #259, #436, #69, #61 ) ) ;
#370 = AXIS2_PLACEMENT_3D ( 'NONE', #405, #398, #56 ) ;
#371 = CIRCLE ( 'NONE', #385, 0.2000000000000000944 ) ;
#372 = FACE_OUTER_BOUND ( 'NONE', #99, .T. ) ;
#373 = ADVANCED_FACE ( 'NONE', ( #82 ), #144, .F. ) ;
#374 = ORIENTED_EDGE ( 'NONE', *, *, #190, .F. ) ;
#375 = CARTESIAN_POINT ( 'NONE',  ( 9.800000000000002487, 0.8000000000000000444, -1.800000000000000044 ) ) ;
#376 = VERTEX_POINT ( 'NONE', #421 ) ;
#377 = ORIENTED_EDGE ( 'NONE', *, *, #40, .T. ) ;
#378 = VECTOR ( 'NONE', #194, 1000.000000000000000 ) ;
#379 = VERTEX_POINT ( 'NONE', #350 ) ;
#380 = LINE ( 'NONE', #47, #378 ) ;
#381 = DIRECTION ( 'NONE',  ( -1.000000000000000000, 0.000000000000000000, 0.000000000000000000 ) ) ;
#382 = ORIENTED_EDGE ( 'NONE', *, *, #90, .F. ) ;
#383 = CIRCLE ( 'NONE', #424, 0.1999999999999999833 ) ;
#384 = DIRECTION ( 'NONE',  ( 0.000000000000000000, -0.000000000000000000, 1.000000000000000000 ) ) ;
#385 = AXIS2_PLACEMENT_3D ( 'NONE', #419, #293, #295 ) ;
#386 = VECTOR ( 'NONE', #128, 1000.000000000000000 ) ;
#387 = DIRECTION ( 'NONE',  ( -0.000000000000000000, -1.000000000000000000, -0.000000000000000000 ) ) ;
#388 = EDGE_CURVE ( 'NONE', #242, #296, #353, .T. ) ;
#389 = FACE_OUTER_BOUND ( 'NONE', #93, .T. ) ;
#390 = PLANE ( 'NONE',  #297 ) ;
#391 = FACE_OUTER_BOUND ( 'NONE', #227, .T. ) ;
#392 = EDGE_LOOP ( 'NONE', ( #262, #292, #489, #182 ) ) ;
#393 = DIRECTION ( 'NONE',  ( 0.000000000000000000, -1.000000000000000000, 0.000000000000000000 ) ) ;
#394 = CIRCLE ( 'NONE', #471, 0.2000000000000000944 ) ;
#395 = VECTOR ( 'NONE', #102, 1000.000000000000000 ) ;
#396 = CARTESIAN_POINT ( 'NONE',  ( 9.800000000000002487, 0.8000000000000000444, 1.800000000000000044 ) ) ;
#397 = CYLINDRICAL_SURFACE ( 'NONE', #177, 0.2000000000000000944 ) ;
#398 = DIRECTION ( 'NONE',  ( 0.000000000000000000, -1.000000000000000000, 0.000000000000000000 ) ) ;
#399 = ORIENTED_EDGE ( 'NONE', *, *, #90, .T. ) ;
#400 = LINE ( 'NONE', #58, #104 ) ;
#401 = UNCERTAINTY_MEASURE_WITH_UNIT (LENGTH_MEASURE( 1.000000000000000082E-05 ), #70, 'distance_accuracy_value', 'NONE');
#402 = AXIS2_PLACEMENT_3D ( 'NONE', #317, #164, #283 ) ;
#403 = AXIS2_PLACEMENT_3D ( 'NONE', #29, #215, #178 ) ;
#404 = EDGE_CURVE ( 'NONE', #137, #305, #16, .T. ) ;
#405 = CARTESIAN_POINT ( 'NONE',  ( 9.800000000000000711, 1.000000000000000000, -1.800000000000000044 ) ) ;
#406 = VERTEX_POINT ( 'NONE', #463 ) ;
#407 = FACE_OUTER_BOUND ( 'NONE', #454, .T. ) ;
#408 = ORIENTED_EDGE ( 'NONE', *, *, #65, .T. ) ;
#409 = ADVANCED_FACE ( 'NONE', ( #469 ), #236, .T. ) ;
#410 = CARTESIAN_POINT ( 'NONE',  ( -9.799999999999995381, 1.000000000000000000, -1.800000000000000044 ) ) ;
#411 = ORIENTED_EDGE ( 'NONE', *, *, #84, .T. ) ;
#412 = AXIS2_PLACEMENT_3D ( 'NONE', #95, #246, #475 ) ;
#413 = VERTEX_POINT ( 'NONE', #9 ) ;
#414 = ORIENTED_EDGE ( 'NONE', *, *, #36, .F. ) ;
#415 = ORIENTED_EDGE ( 'NONE', *, *, #330, .F. ) ;
#416 = ADVANCED_FACE ( 'NONE', ( #165 ), #278, .F. ) ;
#417 = AXIS2_PLACEMENT_3D ( 'NONE', #136, #126, #53 ) ;
#418 = FACE_OUTER_BOUND ( 'NONE', #369, .T. ) ;
#419 = CARTESIAN_POINT ( 'NONE',  ( 9.800000000000002487, 0.000000000000000000, 1.800000000000000044 ) ) ;
#420 = DIRECTION ( 'NONE',  ( -1.000000000000000000, -0.000000000000000000, -0.000000000000000000 ) ) ;
#421 = CARTESIAN_POINT ( 'NONE',  ( 9.800000000000002487, 0.8000000000000000444, 2.000000000000000000 ) ) ;
#422 = EDGE_CURVE ( 'NONE', #288, #242, #433, .T. ) ;
#423 = CARTESIAN_POINT ( 'NONE',  ( -9.799999999999995381, 0.8000000000000000444, -1.800000000000000044 ) ) ;
#424 = AXIS2_PLACEMENT_3D ( 'NONE', #442, #196, #357 ) ;
#425 = CARTESIAN_POINT ( 'NONE',  ( -9.799999999999995381, 0.000000000000000000, 2.000000000000000000 ) ) ;
#426 = DIRECTION ( 'NONE',  ( 0.000000000000000000, 0.000000000000000000, 1.000000000000000000 ) ) ;
#427 = CARTESIAN_POINT ( 'NONE',  ( -9.799999999999995381, 0.8000000000000000444, 1.800000000000000044 ) ) ;
#428 = DIRECTION ( 'NONE',  ( 0.000000000000000000, 0.000000000000000000, -1.000000000000000000 ) ) ;
#429 = CARTESIAN_POINT ( 'NONE',  ( 10.00000000000000355, 0.000000000000000000, -2.000000000000000000 ) ) ;
#430 = CARTESIAN_POINT ( 'NONE',  ( 9.800000000000000711, 1.000000000000000000, -2.000000000000000000 ) ) ;
#431 = VERTEX_POINT ( 'NONE', #20 ) ;
#432 = ADVANCED_FACE ( 'NONE', ( #389 ), #274, .T. ) ;
#433 = LINE ( 'NONE', #44, #290 ) ;
#434 = DIRECTION ( 'NONE',  ( 0.000000000000000000, 1.000000000000000000, 0.000000000000000000 ) ) ;
#435 = PRODUCT_DEFINITION_CONTEXT ( 'detailed design', #304, 'design' ) ;
#436 = ORIENTED_EDGE ( 'NONE', *, *, #404, .F. ) ;
#437 = LINE ( 'NONE', #430, #303 ) ;
#438 = ORIENTED_EDGE ( 'NONE', *, *, #422, .F. ) ;
#439 = EDGE_CURVE ( 'NONE', #73, #249, #358, .T. ) ;
#440 = CARTESIAN_POINT ( 'NONE',  ( -9.799999999999995381, 1.000000000000000000, 1.800000000000000044 ) ) ;
#441 = VECTOR ( 'NONE', #150, 1000.000000000000000 ) ;
#442 = CARTESIAN_POINT ( 'NONE',  ( 9.800000000000000711, 0.8000000000000000444, -1.800000000000000044 ) ) ;
#443 = ORIENTED_EDGE ( 'NONE', *, *, #65, .F. ) ;
#444 = CYLINDRICAL_SURFACE ( 'NONE', #403, 0.2000000000000005107 ) ;
#445 = ORIENTED_EDGE ( 'NONE', *, *, #135, .T. ) ;
#446 = EDGE_CURVE ( 'NONE', #145, #379, #54, .T. ) ;
#447 = DIRECTION ( 'NONE',  ( -0.000000000000000000, 1.000000000000000000, -0.000000000000000000 ) ) ;
#448 = ORIENTED_EDGE ( 'NONE', *, *, #266, .T. ) ;
#449 = DIRECTION ( 'NONE',  ( 0.000000000000000000, 1.000000000000000000, 0.000000000000000000 ) ) ;
#450 = VECTOR ( 'NONE', #50, 1000.000000000000000 ) ;
#451 = ORIENTED_EDGE ( 'NONE', *, *, #235, .F. ) ;
#452 = ORIENTED_EDGE ( 'NONE', *, *, #282, .T. ) ;
#453 = ADVANCED_FACE ( 'NONE', ( #119 ), #79, .T. ) ;
#454 = EDGE_LOOP ( 'NONE', ( #411, #443, #247, #351 ) ) ;
#455 = CARTESIAN_POINT ( 'NONE',  ( 9.800000000000002487, 0.8000000000000000444, 1.800000000000000044 ) ) ;
#456 = FILL_AREA_STYLE_COLOUR ( '', #281 ) ;
#457 = ORIENTED_EDGE ( 'NONE', *, *, #2, .F. ) ;
#458 = EDGE_CURVE ( 'NONE', #242, #341, #312, .T. ) ;
#459 = CARTESIAN_POINT ( 'NONE',  ( -9.799999999999995381, 0.000000000000000000, -1.800000000000000044 ) ) ;
#460 = LINE ( 'NONE', #118, #43 ) ;
#461 = DIRECTION ( 'NONE',  ( -0.000000000000000000, -0.000000000000000000, 1.000000000000000000 ) ) ;
#462 = VERTEX_POINT ( 'NONE', #425 ) ;
#463 = CARTESIAN_POINT ( 'NONE',  ( 9.800000000000000711, 0.000000000000000000, 2.000000000000000000 ) ) ;
#464 = VECTOR ( 'NONE', #314, 1000.000000000000000 ) ;
#465 = DIRECTION ( 'NONE',  ( -1.000000000000000000, 0.000000000000000000, -0.000000000000000000 ) ) ;
#466 = CARTESIAN_POINT ( 'NONE',  ( -9.799999999999995381, 0.8000000000000000444, 0.000000000000000000 ) ) ;
#467 = PLANE ( 'NONE',  #402 ) ;
#468 = ADVANCED_FACE ( 'NONE', ( #391 ), #193, .T. ) ;
#469 = FACE_OUTER_BOUND ( 'NONE', #392, .T. ) ;
#470 = CYLINDRICAL_SURFACE ( 'NONE', #370, 0.2000000000000000944 ) ;
#471 = AXIS2_PLACEMENT_3D ( 'NONE', #8, #121, #265 ) ;
#472 = CARTESIAN_POINT ( 'NONE',  ( -9.799999999999995381, 0.8000000000000000444, 2.000000000000000000 ) ) ;
#473 = EDGE_CURVE ( 'NONE', #341, #431, #240, .T. ) ;
#474 = FACE_OUTER_BOUND ( 'NONE', #222, .T. ) ;
#475 = DIRECTION ( 'NONE',  ( 0.000000000000000000, 0.000000000000000000, 1.000000000000000000 ) ) ;
#476 = ORIENTED_EDGE ( 'NONE', *, *, #311, .F. ) ;
#477 = SHAPE_DEFINITION_REPRESENTATION ( #106, #245 ) ;
#478 = VECTOR ( 'NONE', #97, 1000.000000000000000 ) ;
#479 = ADVANCED_FACE ( 'NONE', ( #195 ), #397, .T. ) ;
#480 = EDGE_LOOP ( 'NONE', ( #103, #148, #189, #170 ) ) ;
#481 = PLANE ( 'NONE',  #162 ) ;
#482 = ORIENTED_EDGE ( 'NONE', *, *, #149, .T. ) ;
#483 = DIRECTION ( 'NONE',  ( 1.000000000000000000, 0.000000000000000000, 0.000000000000000000 ) ) ;
#484 = ORIENTED_EDGE ( 'NONE', *, *, #14, .F. ) ;
#485 = CIRCLE ( 'NONE', #272, 0.2000000000000000944 ) ;
#486 = VERTEX_POINT ( 'NONE', #202 ) ;
#487 = AXIS2_PLACEMENT_3D ( 'NONE', #233, #228, #276 ) ;
#488 = PRODUCT_DEFINITION ( 'UNKNOWN', '', #239, #435 ) ;
#489 = ORIENTED_EDGE ( 'NONE', *, *, #220, .F. ) ;
#490 = DIRECTION ( 'NONE',  ( 0.000000000000000000, 0.000000000000000000, 1.000000000000000000 ) ) ;
#491 = CARTESIAN_POINT ( 'NONE',  ( -9.999999999999996447, 0.000000000000000000, 2.000000000000000000 ) ) ;
ENDSEC;
END-ISO-10303-21;
