ISO-10303-21;
HEADER;
FILE_DESCRIPTION (( 'STEP AP214' ),
    '1' );
FILE_NAME ('BAR4X6T1.step',
    '2026-03-22T07:21:20',
    ( '' ),
    ( '' ),
    'SwSTEP 2.0',
    'SolidWorks 2025',
    '' );
FILE_SCHEMA (( 'AUTOMOTIVE_DESIGN' ));
ENDSEC;

DATA;
#1 = DIRECTION ( 'NONE',  ( 1.000000000000000000, 0.000000000000000000, 0.000000000000000000 ) ) ;
#2 = CARTESIAN_POINT ( 'NONE',  ( 2.800000000000000266, 1.000000000000000000, 1.800000000000000488 ) ) ;
#3 = CARTESIAN_POINT ( 'NONE',  ( 2.799999999999999378, 0.8000000000000000444, -1.799999999999999600 ) ) ;
#4 = CARTESIAN_POINT ( 'NONE',  ( -2.800000000000000266, 1.000000000000000000, -1.799999999999999600 ) ) ;
#5 = DIRECTION ( 'NONE',  ( 0.000000000000000000, 0.000000000000000000, 1.000000000000000000 ) ) ;
#6 = DIRECTION ( 'NONE',  ( 1.000000000000000000, 0.000000000000000000, 0.000000000000000000 ) ) ;
#7 = CIRCLE ( 'NONE', #62, 0.1999999999999999833 ) ;
#8 = AXIS2_PLACEMENT_3D ( 'NONE', #158, #321, #5 ) ;
#9 = SPHERICAL_SURFACE ( 'NONE', #374, 0.2000000000000000111 ) ;
#10 = DIRECTION ( 'NONE',  ( -0.000000000000000000, -1.000000000000000000, -0.000000000000000000 ) ) ;
#11 = EDGE_CURVE ( 'NONE', #165, #228, #250, .T. ) ;
#12 = FACE_OUTER_BOUND ( 'NONE', #375, .T. ) ;
#13 = DIRECTION ( 'NONE',  ( -0.000000000000000000, 0.000000000000000000, 1.000000000000000000 ) ) ;
#14 = AXIS2_PLACEMENT_3D ( 'NONE', #313, #343, #388 ) ;
#15 =( LENGTH_UNIT ( ) NAMED_UNIT ( * ) SI_UNIT ( .MILLI., .METRE. ) );
#16 = DIRECTION ( 'NONE',  ( 0.000000000000000000, -0.000000000000000000, -1.000000000000000000 ) ) ;
#17 = CIRCLE ( 'NONE', #94, 0.2000000000000000944 ) ;
#18 = EDGE_LOOP ( 'NONE', ( #408, #401, #486, #309 ) ) ;
#19 = ORIENTED_EDGE ( 'NONE', *, *, #471, .T. ) ;
#20 = CARTESIAN_POINT ( 'NONE',  ( 2.999999999999999556, 0.000000000000000000, -1.799999999999999600 ) ) ;
#21 = DIRECTION ( 'NONE',  ( -1.000000000000000000, -0.000000000000000000, -0.000000000000000000 ) ) ;
#22 = EDGE_LOOP ( 'NONE', ( #430, #28, #209, #325 ) ) ;
#23 = CARTESIAN_POINT ( 'NONE',  ( -2.800000000000000266, 0.000000000000000000, 2.000000000000000444 ) ) ;
#24 = CARTESIAN_POINT ( 'NONE',  ( -3.000000000000000444, 0.000000000000000000, -1.999999999999999556 ) ) ;
#25 = EDGE_LOOP ( 'NONE', ( #213, #221, #480 ) ) ;
#26 = MECHANICAL_DESIGN_GEOMETRIC_PRESENTATION_REPRESENTATION (  '', ( #162 ), #373 ) ;
#27 = CARTESIAN_POINT ( 'NONE',  ( -3.000000000000000444, 0.8000000000000000444, 2.000000000000000444 ) ) ;
#28 = ORIENTED_EDGE ( 'NONE', *, *, #269, .F. ) ;
#29 = EDGE_CURVE ( 'NONE', #66, #116, #181, .T. ) ;
#30 = EDGE_LOOP ( 'NONE', ( #470, #485, #71, #146 ) ) ;
#31 = CARTESIAN_POINT ( 'NONE',  ( 2.799999999999998934, 1.000000000000000000, -1.799999999999999600 ) ) ;
#32 = EDGE_CURVE ( 'NONE', #371, #150, #479, .T. ) ;
#33 = ORIENTED_EDGE ( 'NONE', *, *, #400, .T. ) ;
#34 = CARTESIAN_POINT ( 'NONE',  ( 2.799999999999998934, 0.8000000000000000444, -1.799999999999999600 ) ) ;
#35 = PRODUCT ( 'BAR4X6T1', 'BAR4X6T1', '', ( #254 ) ) ;
#36 = EDGE_CURVE ( 'NONE', #234, #436, #300, .T. ) ;
#37 = DIRECTION ( 'NONE',  ( 1.951563910473907035E-14, 0.000000000000000000, 1.000000000000000000 ) ) ;
#38 = VECTOR ( 'NONE', #223, 1000.000000000000000 ) ;
#39 = CARTESIAN_POINT ( 'NONE',  ( 2.800000000000000711, 1.000000000000000000, 2.000000000000000444 ) ) ;
#40 = CARTESIAN_POINT ( 'NONE',  ( -3.000000000000000444, 0.8000000000000000444, 1.800000000000000488 ) ) ;
#41 = LINE ( 'NONE', #39, #342 ) ;
#42 = CARTESIAN_POINT ( 'NONE',  ( -3.000000000000000444, 0.000000000000000000, 2.000000000000000444 ) ) ;
#43 = DIRECTION ( 'NONE',  ( 0.000000000000000000, 0.000000000000000000, -1.000000000000000000 ) ) ;
#44 = UNCERTAINTY_MEASURE_WITH_UNIT (LENGTH_MEASURE( 1.000000000000000082E-05 ), #67, 'distance_accuracy_value', 'NONE');
#45 = EDGE_CURVE ( 'NONE', #136, #116, #440, .T. ) ;
#46 = CARTESIAN_POINT ( 'NONE',  ( -3.000000000000000444, 1.000000000000000000, -1.799999999999999600 ) ) ;
#47 = CYLINDRICAL_SURFACE ( 'NONE', #347, 0.2000000000000000944 ) ;
#48 = ADVANCED_FACE ( 'NONE', ( #336 ), #263, .T. ) ;
#49 = ORIENTED_EDGE ( 'NONE', *, *, #322, .T. ) ;
#50 = LINE ( 'NONE', #288, #439 ) ;
#51 = LINE ( 'NONE', #54, #64 ) ;
#52 = DIRECTION ( 'NONE',  ( 0.000000000000000000, 0.000000000000000000, 1.000000000000000000 ) ) ;
#53 = AXIS2_PLACEMENT_3D ( 'NONE', #145, #192, #185 ) ;
#54 = CARTESIAN_POINT ( 'NONE',  ( -3.000000000000000444, 0.000000000000000000, -1.999999999999999556 ) ) ;
#55 = DIRECTION ( 'NONE',  ( 2.168404344971008868E-16, -0.000000000000000000, 1.000000000000000000 ) ) ;
#56 = ORIENTED_EDGE ( 'NONE', *, *, #86, .T. ) ;
#57 = UNCERTAINTY_MEASURE_WITH_UNIT (LENGTH_MEASURE( 1.000000000000000082E-05 ), #15, 'distance_accuracy_value', 'NONE');
#58 = ORIENTED_EDGE ( 'NONE', *, *, #471, .F. ) ;
#59 = CARTESIAN_POINT ( 'NONE',  ( 3.000000000000000444, 0.8000000000000000444, 2.000000000000000444 ) ) ;
#60 = ORIENTED_EDGE ( 'NONE', *, *, #129, .T. ) ;
#61 = CARTESIAN_POINT ( 'NONE',  ( 2.799999999999998934, 0.8000000000000000444, -1.999999999999999556 ) ) ;
#62 = AXIS2_PLACEMENT_3D ( 'NONE', #34, #191, #70 ) ;
#63 = ORIENTED_EDGE ( 'NONE', *, *, #488, .F. ) ;
#64 = VECTOR ( 'NONE', #249, 1000.000000000000000 ) ;
#65 = DIRECTION ( 'NONE',  ( 1.000000000000000000, 0.000000000000000000, 0.000000000000000000 ) ) ;
#66 = VERTEX_POINT ( 'NONE', #247 ) ;
#67 =( LENGTH_UNIT ( ) NAMED_UNIT ( * ) SI_UNIT ( .MILLI., .METRE. ) );
#68 = ORIENTED_EDGE ( 'NONE', *, *, #218, .T. ) ;
#69 = ORIENTED_EDGE ( 'NONE', *, *, #29, .T. ) ;
#70 = DIRECTION ( 'NONE',  ( 2.168404344971008868E-15, 1.000000000000000000, 0.000000000000000000 ) ) ;
#71 = ORIENTED_EDGE ( 'NONE', *, *, #129, .F. ) ;
#72 = ORIENTED_EDGE ( 'NONE', *, *, #233, .F. ) ;
#73 = AXIS2_PLACEMENT_3D ( 'NONE', #258, #225, #372 ) ;
#74 = AXIS2_PLACEMENT_3D ( 'NONE', #295, #433, #97 ) ;
#75 = CARTESIAN_POINT ( 'NONE',  ( 2.999999999999999556, 1.000000000000000000, -1.999999999999999556 ) ) ;
#76 = ORIENTED_EDGE ( 'NONE', *, *, #29, .F. ) ;
#77 = EDGE_CURVE ( 'NONE', #234, #371, #337, .T. ) ;
#78 = DIRECTION ( 'NONE',  ( 0.000000000000000000, 0.000000000000000000, 1.000000000000000000 ) ) ;
#79 = CARTESIAN_POINT ( 'NONE',  ( 2.800000000000000266, 0.8000000000000000444, 1.800000000000000488 ) ) ;
#80 = DIRECTION ( 'NONE',  ( 0.000000000000000000, -1.000000000000000000, 0.000000000000000000 ) ) ;
#81 = AXIS2_PLACEMENT_3D ( 'NONE', #410, #419, #240 ) ;
#82 = SPHERICAL_SURFACE ( 'NONE', #427, 0.2000000000000000111 ) ;
#83 = ADVANCED_BREP_SHAPE_REPRESENTATION ( 'BAR4X6T1', ( #229, #74 ), #302 ) ;
#84 = DIRECTION ( 'NONE',  ( 0.000000000000000000, -1.000000000000000000, 0.000000000000000000 ) ) ;
#85 = LINE ( 'NONE', #203, #473 ) ;
#86 = EDGE_CURVE ( 'NONE', #261, #360, #276, .T. ) ;
#87 = VERTEX_POINT ( 'NONE', #118 ) ;
#88 = FACE_OUTER_BOUND ( 'NONE', #257, .T. ) ;
#89 = ADVANCED_FACE ( 'NONE', ( #425 ), #456, .T. ) ;
#90 = DIRECTION ( 'NONE',  ( 0.000000000000000000, 0.000000000000000000, 1.000000000000000000 ) ) ;
#91 = AXIS2_PLACEMENT_3D ( 'NONE', #384, #127, #460 ) ;
#92 = DIRECTION ( 'NONE',  ( 0.000000000000000000, 1.000000000000000000, 0.000000000000000000 ) ) ;
#93 = CARTESIAN_POINT ( 'NONE',  ( 2.999999999999999556, 1.000000000000000000, -1.799999999999999600 ) ) ;
#94 = AXIS2_PLACEMENT_3D ( 'NONE', #278, #197, #1 ) ;
#95 = CARTESIAN_POINT ( 'NONE',  ( -2.800000000000000266, 1.000000000000000000, 2.000000000000000444 ) ) ;
#96 = ORIENTED_EDGE ( 'NONE', *, *, #476, .F. ) ;
#97 = DIRECTION ( 'NONE',  ( 1.000000000000000000, 0.000000000000000000, 0.000000000000000000 ) ) ;
#98 = EDGE_LOOP ( 'NONE', ( #214, #434, #58, #405 ) ) ;
#99 = EDGE_CURVE ( 'NONE', #360, #66, #41, .T. ) ;
#100 = EDGE_LOOP ( 'NONE', ( #138, #294, #219 ) ) ;
#101 = DIRECTION ( 'NONE',  ( 0.000000000000000000, -1.000000000000000000, 0.000000000000000000 ) ) ;
#102 = EDGE_CURVE ( 'NONE', #116, #178, #85, .T. ) ;
#103 = AXIS2_PLACEMENT_3D ( 'NONE', #196, #236, #377 ) ;
#104 = ORIENTED_EDGE ( 'NONE', *, *, #193, .T. ) ;
#105 = AXIS2_PLACEMENT_3D ( 'NONE', #415, #78, #452 ) ;
#106 = CARTESIAN_POINT ( 'NONE',  ( -3.000000000000000444, 1.000000000000000000, 1.800000000000000488 ) ) ;
#107 = CARTESIAN_POINT ( 'NONE',  ( 3.000000000000000444, 1.000000000000000000, 1.800000000000000488 ) ) ;
#108 = VERTEX_POINT ( 'NONE', #4 ) ;
#109 = CARTESIAN_POINT ( 'NONE',  ( 0.000000000000000000, 0.8000000000000000444, -1.799999999999999600 ) ) ;
#110 = CARTESIAN_POINT ( 'NONE',  ( -2.800000000000000266, 1.000000000000000000, -1.999999999999999556 ) ) ;
#111 = ORIENTED_EDGE ( 'NONE', *, *, #102, .T. ) ;
#112 = PRODUCT_RELATED_PRODUCT_CATEGORY ( 'part', '', ( #35 ) ) ;
#113 = CIRCLE ( 'NONE', #119, 0.2000000000000000944 ) ;
#114 = SURFACE_STYLE_USAGE ( .BOTH. , #270 ) ;
#115 = CARTESIAN_POINT ( 'NONE',  ( 2.800000000000000266, 0.8000000000000000444, 1.800000000000000488 ) ) ;
#116 = VERTEX_POINT ( 'NONE', #346 ) ;
#117 = CYLINDRICAL_SURFACE ( 'NONE', #14, 0.2000000000000000944 ) ;
#118 = CARTESIAN_POINT ( 'NONE',  ( 2.999999999999999556, 0.8000000000000000444, -1.799999999999999600 ) ) ;
#119 = AXIS2_PLACEMENT_3D ( 'NONE', #399, #211, #52 ) ;
#120 = CARTESIAN_POINT ( 'NONE',  ( 2.799999999999999378, 0.8000000000000000444, -1.799999999999999600 ) ) ;
#121 = FACE_OUTER_BOUND ( 'NONE', #100, .T. ) ;
#122 = VECTOR ( 'NONE', #156, 1000.000000000000000 ) ;
#123 = DIRECTION ( 'NONE',  ( 0.000000000000000000, 0.000000000000000000, 1.000000000000000000 ) ) ;
#124 = ADVANCED_FACE ( 'NONE', ( #121 ), #244, .T. ) ;
#125 = DIRECTION ( 'NONE',  ( -0.000000000000000000, 1.000000000000000000, -0.000000000000000000 ) ) ;
#126 = ADVANCED_FACE ( 'NONE', ( #242 ), #423, .F. ) ;
#127 = DIRECTION ( 'NONE',  ( -0.000000000000000000, -1.000000000000000000, -0.000000000000000000 ) ) ;
#128 = CARTESIAN_POINT ( 'NONE',  ( -2.800000000000000266, 0.8000000000000000444, -1.799999999999999600 ) ) ;
#129 = EDGE_CURVE ( 'NONE', #340, #305, #226, .T. ) ;
#130 = APPLICATION_PROTOCOL_DEFINITION ( 'draft international standard', 'automotive_design', 1998, #189 ) ;
#131 = DIRECTION ( 'NONE',  ( 0.000000000000000000, -0.000000000000000000, 1.000000000000000000 ) ) ;
#132 = DIRECTION ( 'NONE',  ( 0.000000000000000000, 0.000000000000000000, -1.000000000000000000 ) ) ;
#133 = PRESENTATION_LAYER_ASSIGNMENT (  '', '', ( #162 ) ) ;
#134 = CARTESIAN_POINT ( 'NONE',  ( 3.000000000000000444, 0.000000000000000000, 1.800000000000000488 ) ) ;
#135 = PRODUCT_DEFINITION ( 'UNKNOWN', '', #152, #159 ) ;
#136 = VERTEX_POINT ( 'NONE', #389 ) ;
#137 = ADVANCED_FACE ( 'NONE', ( #12 ), #47, .T. ) ;
#138 = ORIENTED_EDGE ( 'NONE', *, *, #365, .T. ) ;
#139 = ORIENTED_EDGE ( 'NONE', *, *, #169, .T. ) ;
#140 = DIRECTION ( 'NONE',  ( -0.000000000000000000, 1.000000000000000000, -0.000000000000000000 ) ) ;
#141 = CIRCLE ( 'NONE', #103, 0.2000000000000000944 ) ;
#142 = ORIENTED_EDGE ( 'NONE', *, *, #160, .F. ) ;
#143 = VECTOR ( 'NONE', #200, 1000.000000000000000 ) ;
#144 = FACE_OUTER_BOUND ( 'NONE', #448, .T. ) ;
#145 = CARTESIAN_POINT ( 'NONE',  ( 2.799999999999998934, 0.000000000000000000, -1.799999999999999600 ) ) ;
#146 = ORIENTED_EDGE ( 'NONE', *, *, #218, .F. ) ;
#147 = CYLINDRICAL_SURFACE ( 'NONE', #481, 0.2000000000000000944 ) ;
#148 = ORIENTED_EDGE ( 'NONE', *, *, #32, .T. ) ;
#149 = DIRECTION ( 'NONE',  ( 0.000000000000000000, 0.000000000000000000, -1.000000000000000000 ) ) ;
#150 = VERTEX_POINT ( 'NONE', #285 ) ;
#151 = AXIS2_PLACEMENT_3D ( 'NONE', #154, #10, #37 ) ;
#152 = PRODUCT_DEFINITION_FORMATION_WITH_SPECIFIED_SOURCE ( 'ANY', '', #35, .NOT_KNOWN. ) ;
#153 = DIRECTION ( 'NONE',  ( -0.000000000000000000, 1.000000000000000000, -0.000000000000000000 ) ) ;
#154 = CARTESIAN_POINT ( 'NONE',  ( 2.800000000000000266, 0.000000000000000000, 1.800000000000000488 ) ) ;
#155 = CARTESIAN_POINT ( 'NONE',  ( -2.800000000000000266, 1.000000000000000000, 2.000000000000000444 ) ) ;
#156 = DIRECTION ( 'NONE',  ( -2.168404344971008868E-16, -0.000000000000000000, -1.000000000000000000 ) ) ;
#157 = CARTESIAN_POINT ( 'NONE',  ( -2.800000000000000266, 0.8000000000000000444, 1.800000000000000488 ) ) ;
#158 = CARTESIAN_POINT ( 'NONE',  ( -2.800000000000000266, 0.8000000000000000444, -1.799999999999999600 ) ) ;
#159 = PRODUCT_DEFINITION_CONTEXT ( 'detailed design', #189, 'design' ) ;
#160 = EDGE_CURVE ( 'NONE', #136, #305, #141, .T. ) ;
#161 = DIRECTION ( 'NONE',  ( -0.000000000000000000, -0.000000000000000000, 1.000000000000000000 ) ) ;
#162 = STYLED_ITEM ( 'NONE', ( #333 ), #229 ) ;
#163 = AXIS2_PLACEMENT_3D ( 'NONE', #3, #316, #381 ) ;
#164 = LINE ( 'NONE', #59, #402 ) ;
#165 = VERTEX_POINT ( 'NONE', #469 ) ;
#166 =( NAMED_UNIT ( * ) PLANE_ANGLE_UNIT ( ) SI_UNIT ( $, .RADIAN. ) );
#167 = DIRECTION ( 'NONE',  ( 2.168404344971008868E-16, -0.000000000000000000, 1.000000000000000000 ) ) ;
#168 = DIRECTION ( 'NONE',  ( 0.000000000000000000, 0.000000000000000000, 1.000000000000000000 ) ) ;
#169 = EDGE_CURVE ( 'NONE', #150, #446, #175, .T. ) ;
#170 = CYLINDRICAL_SURFACE ( 'NONE', #417, 0.2000000000000000944 ) ;
#171 = AXIS2_PLACEMENT_3D ( 'NONE', #369, #376, #308 ) ;
#172 = ADVANCED_FACE ( 'NONE', ( #396 ), #327, .F. ) ;
#173 = AXIS2_PLACEMENT_3D ( 'NONE', #394, #428, #132 ) ;
#174 = ORIENTED_EDGE ( 'NONE', *, *, #487, .T. ) ;
#175 = LINE ( 'NONE', #296, #330 ) ;
#176 = ORIENTED_EDGE ( 'NONE', *, *, #437, .T. ) ;
#177 = DIRECTION ( 'NONE',  ( -1.000000000000000000, -0.000000000000000000, -0.000000000000000000 ) ) ;
#178 = VERTEX_POINT ( 'NONE', #359 ) ;
#179 = ORIENTED_EDGE ( 'NONE', *, *, #400, .F. ) ;
#180 = DIRECTION ( 'NONE',  ( 0.000000000000000000, 0.000000000000000000, -1.000000000000000000 ) ) ;
#181 = CIRCLE ( 'NONE', #312, 0.2000000000000000944 ) ;
#182 = AXIS2_PLACEMENT_3D ( 'NONE', #329, #161, #287 ) ;
#183 = ORIENTED_EDGE ( 'NONE', *, *, #397, .F. ) ;
#184 = CARTESIAN_POINT ( 'NONE',  ( -2.800000000000000266, 0.8000000000000000444, 2.000000000000000444 ) ) ;
#185 = DIRECTION ( 'NONE',  ( 0.000000000000000000, 0.000000000000000000, 1.000000000000000000 ) ) ;
#186 = ORIENTED_EDGE ( 'NONE', *, *, #431, .F. ) ;
#187 =( NAMED_UNIT ( * ) SI_UNIT ( $, .STERADIAN. ) SOLID_ANGLE_UNIT ( ) );
#188 = ORIENTED_EDGE ( 'NONE', *, *, #266, .T. ) ;
#189 = APPLICATION_CONTEXT ( 'automotive_design' ) ;
#190 = ADVANCED_FACE ( 'NONE', ( #391 ), #170, .T. ) ;
#191 = DIRECTION ( 'NONE',  ( 1.000000000000000000, -2.168404344971009262E-15, 0.000000000000000000 ) ) ;
#192 = DIRECTION ( 'NONE',  ( -0.000000000000000000, -1.000000000000000000, -0.000000000000000000 ) ) ;
#193 = EDGE_CURVE ( 'NONE', #87, #230, #164, .T. ) ;
#194 = AXIS2_PLACEMENT_3D ( 'NONE', #243, #43, #280 ) ;
#195 = DIRECTION ( 'NONE',  ( -1.000000000000000000, 0.000000000000000000, 2.168404344971008079E-15 ) ) ;
#196 = CARTESIAN_POINT ( 'NONE',  ( -2.800000000000000266, 0.8000000000000000444, 1.800000000000000488 ) ) ;
#197 = DIRECTION ( 'NONE',  ( 0.000000000000000000, -0.000000000000000000, 1.000000000000000000 ) ) ;
#198 = DIRECTION ( 'NONE',  ( -0.000000000000000000, -1.000000000000000000, -0.000000000000000000 ) ) ;
#199 = VECTOR ( 'NONE', #140, 1000.000000000000000 ) ;
#200 = DIRECTION ( 'NONE',  ( -1.000000000000000000, 0.000000000000000000, 0.000000000000000000 ) ) ;
#201 = DIRECTION ( 'NONE',  ( 0.000000000000000000, 0.000000000000000000, 1.000000000000000000 ) ) ;
#202 = CARTESIAN_POINT ( 'NONE',  ( -3.000000000000000444, 1.000000000000000000, -1.799999999999999600 ) ) ;
#203 = CARTESIAN_POINT ( 'NONE',  ( 2.799999999999999378, 1.000000000000000000, -1.999999999999999556 ) ) ;
#204 = ORIENTED_EDGE ( 'NONE', *, *, #451, .F. ) ;
#205 = CARTESIAN_POINT ( 'NONE',  ( -3.000000000000000444, 0.8000000000000000444, -1.799999999999999600 ) ) ;
#206 = VECTOR ( 'NONE', #153, 1000.000000000000000 ) ;
#207 = DIRECTION ( 'NONE',  ( 1.000000000000000000, 0.000000000000000000, 0.000000000000000000 ) ) ;
#208 = EDGE_CURVE ( 'NONE', #150, #483, #113, .T. ) ;
#209 = ORIENTED_EDGE ( 'NONE', *, *, #266, .F. ) ;
#210 = DIRECTION ( 'NONE',  ( -0.000000000000000000, 1.000000000000000000, 0.000000000000000000 ) ) ;
#211 = DIRECTION ( 'NONE',  ( 0.000000000000000000, 1.000000000000000000, 0.000000000000000000 ) ) ;
#212 = EDGE_CURVE ( 'NONE', #446, #165, #50, .T. ) ;
#213 = ORIENTED_EDGE ( 'NONE', *, *, #431, .T. ) ;
#214 = ORIENTED_EDGE ( 'NONE', *, *, #429, .T. ) ;
#215 = SHAPE_DEFINITION_REPRESENTATION ( #453, #83 ) ;
#216 = VECTOR ( 'NONE', #84, 1000.000000000000000 ) ;
#217 = VECTOR ( 'NONE', #80, 1000.000000000000000 ) ;
#218 = EDGE_CURVE ( 'NONE', #436, #340, #484, .T. ) ;
#219 = ORIENTED_EDGE ( 'NONE', *, *, #487, .F. ) ;
#220 = FACE_OUTER_BOUND ( 'NONE', #30, .T. ) ;
#221 = ORIENTED_EDGE ( 'NONE', *, *, #282, .T. ) ;
#222 =( NAMED_UNIT ( * ) PLANE_ANGLE_UNIT ( ) SI_UNIT ( $, .RADIAN. ) );
#223 = DIRECTION ( 'NONE',  ( 0.000000000000000000, 0.000000000000000000, 1.000000000000000000 ) ) ;
#224 = EDGE_LOOP ( 'NONE', ( #467, #398, #111, #432 ) ) ;
#225 = DIRECTION ( 'NONE',  ( 0.000000000000000000, -1.000000000000000000, 0.000000000000000000 ) ) ;
#226 = CIRCLE ( 'NONE', #245, 0.2000000000000000944 ) ;
#227 = CIRCLE ( 'NONE', #8, 0.2000000000000000944 ) ;
#228 = VERTEX_POINT ( 'NONE', #20 ) ;
#229 = MANIFOLD_SOLID_BREP ( '\X2\570689d2\X0\1', #283 ) ;
#230 = VERTEX_POINT ( 'NONE', #478 ) ;
#231 = ADVANCED_FACE ( 'NONE', ( #367 ), #147, .T. ) ;
#232 = CARTESIAN_POINT ( 'NONE',  ( -3.000000000000000444, 0.000000000000000000, -1.799999999999999600 ) ) ;
#233 = EDGE_CURVE ( 'NONE', #66, #305, #311, .T. ) ;
#234 = VERTEX_POINT ( 'NONE', #232 ) ;
#235 = FACE_OUTER_BOUND ( 'NONE', #25, .T. ) ;
#236 = DIRECTION ( 'NONE',  ( 1.000000000000000000, -0.000000000000000000, -0.000000000000000000 ) ) ;
#237 = VECTOR ( 'NONE', #101, 1000.000000000000000 ) ;
#238 = CIRCLE ( 'NONE', #182, 0.2000000000000000944 ) ;
#239 = LINE ( 'NONE', #344, #122 ) ;
#240 = DIRECTION ( 'NONE',  ( 0.000000000000000000, -0.000000000000000000, 1.000000000000000000 ) ) ;
#241 = FACE_OUTER_BOUND ( 'NONE', #248, .T. ) ;
#242 = FACE_OUTER_BOUND ( 'NONE', #475, .T. ) ;
#243 = CARTESIAN_POINT ( 'NONE',  ( -3.000000000000000444, 1.000000000000000000, 2.000000000000000444 ) ) ;
#244 = SPHERICAL_SURFACE ( 'NONE', #355, 0.2000000000000000111 ) ;
#245 = AXIS2_PLACEMENT_3D ( 'NONE', #157, #461, #90 ) ;
#246 = DIRECTION ( 'NONE',  ( 0.000000000000000000, 1.000000000000000000, 0.000000000000000000 ) ) ;
#247 = CARTESIAN_POINT ( 'NONE',  ( 2.800000000000000266, 0.8000000000000000444, 2.000000000000000444 ) ) ;
#248 = EDGE_LOOP ( 'NONE', ( #188, #19, #76 ) ) ;
#249 = DIRECTION ( 'NONE',  ( -1.000000000000000000, -0.000000000000000000, -0.000000000000000000 ) ) ;
#250 = CIRCLE ( 'NONE', #53, 0.2000000000000000944 ) ;
#251 = ORIENTED_EDGE ( 'NONE', *, *, #323, .T. ) ;
#252 = LINE ( 'NONE', #468, #395 ) ;
#253 = ORIENTED_EDGE ( 'NONE', *, *, #45, .F. ) ;
#254 = PRODUCT_CONTEXT ( 'NONE', #472, 'mechanical' ) ;
#255 = CARTESIAN_POINT ( 'NONE',  ( 0.000000000000000000, 0.000000000000000000, 0.000000000000000000 ) ) ;
#256 = EDGE_LOOP ( 'NONE', ( #357, #60, #142 ) ) ;
#257 = EDGE_LOOP ( 'NONE', ( #174, #63, #297, #96 ) ) ;
#258 = CARTESIAN_POINT ( 'NONE',  ( -2.800000000000000266, 1.000000000000000000, 1.800000000000000488 ) ) ;
#259 = ORIENTED_EDGE ( 'NONE', *, *, #397, .T. ) ;
#260 = FILL_AREA_STYLE_COLOUR ( '', #378 ) ;
#261 = VERTEX_POINT ( 'NONE', #23 ) ;
#262 = DIRECTION ( 'NONE',  ( 0.000000000000000000, 0.000000000000000000, -1.000000000000000000 ) ) ;
#263 = PLANE ( 'NONE',  #81 ) ;
#264 = ORIENTED_EDGE ( 'NONE', *, *, #36, .F. ) ;
#265 = DIRECTION ( 'NONE',  ( 0.000000000000000000, -1.000000000000000000, 0.000000000000000000 ) ) ;
#266 = EDGE_CURVE ( 'NONE', #66, #230, #490, .T. ) ;
#267 = AXIS2_PLACEMENT_3D ( 'NONE', #2, #421, #463 ) ;
#268 = CIRCLE ( 'NONE', #163, 0.2000000000000000944 ) ;
#269 = EDGE_CURVE ( 'NONE', #230, #444, #403, .T. ) ;
#270 = SURFACE_SIDE_STYLE ('',( #409 ) ) ;
#271 = ORIENTED_EDGE ( 'NONE', *, *, #212, .F. ) ;
#272 = DIRECTION ( 'NONE',  ( 0.000000000000000000, 0.000000000000000000, -1.000000000000000000 ) ) ;
#273 = ORIENTED_EDGE ( 'NONE', *, *, #437, .F. ) ;
#274 = ADVANCED_FACE ( 'NONE', ( #144 ), #445, .F. ) ;
#275 = SPHERICAL_SURFACE ( 'NONE', #387, 0.2000000000000000111 ) ;
#276 = LINE ( 'NONE', #42, #466 ) ;
#277 = CARTESIAN_POINT ( 'NONE',  ( 2.799999999999999378, 0.8000000000000000444, -1.799999999999999600 ) ) ;
#278 = CARTESIAN_POINT ( 'NONE',  ( -2.800000000000000266, 0.8000000000000000444, 1.800000000000000488 ) ) ;
#279 = CARTESIAN_POINT ( 'NONE',  ( 0.000000000000000000, 0.8000000000000000444, 1.800000000000000488 ) ) ;
#280 = DIRECTION ( 'NONE',  ( -1.000000000000000000, 0.000000000000000000, -0.000000000000000000 ) ) ;
#281 = DIRECTION ( 'NONE',  ( -1.000000000000000000, 0.000000000000000000, 0.000000000000000000 ) ) ;
#282 = EDGE_CURVE ( 'NONE', #446, #178, #7, .T. ) ;
#283 = CLOSED_SHELL ( 'NONE', ( #274, #362, #126, #348, #48, #172, #450, #284, #231, #124, #385, #307, #390, #190, #89, #383, #353, #137 ) ) ;
#284 = ADVANCED_FACE ( 'NONE', ( #341 ), #489, .T. ) ;
#285 = CARTESIAN_POINT ( 'NONE',  ( -2.800000000000000266, 0.8000000000000000444, -1.999999999999999556 ) ) ;
#286 = ORIENTED_EDGE ( 'NONE', *, *, #233, .T. ) ;
#287 = DIRECTION ( 'NONE',  ( -1.000000000000000000, 0.000000000000000000, 0.000000000000000000 ) ) ;
#288 = CARTESIAN_POINT ( 'NONE',  ( 2.799999999999998934, 1.000000000000000000, -1.999999999999999556 ) ) ;
#289 = CYLINDRICAL_SURFACE ( 'NONE', #173, 0.2000000000000000944 ) ;
#290 = DIRECTION ( 'NONE',  ( -0.000000000000000000, 1.000000000000000000, -0.000000000000000000 ) ) ;
#291 = CARTESIAN_POINT ( 'NONE',  ( 2.799999999999999822, 0.8000000000000000444, -6.071532165918824830E-16 ) ) ;
#292 = VECTOR ( 'NONE', #290, 1000.000000000000000 ) ;
#293 = ORIENTED_EDGE ( 'NONE', *, *, #77, .T. ) ;
#294 = ORIENTED_EDGE ( 'NONE', *, *, #208, .T. ) ;
#295 = CARTESIAN_POINT ( 'NONE',  ( 0.000000000000000000, 0.000000000000000000, 0.000000000000000000 ) ) ;
#296 = CARTESIAN_POINT ( 'NONE',  ( 2.999999999999999556, 0.8000000000000000444, -1.999999999999999556 ) ) ;
#297 = ORIENTED_EDGE ( 'NONE', *, *, #310, .F. ) ;
#298 = DIRECTION ( 'NONE',  ( 1.000000000000000000, -0.000000000000000000, -0.000000000000000000 ) ) ;
#299 = ORIENTED_EDGE ( 'NONE', *, *, #488, .T. ) ;
#300 = LINE ( 'NONE', #24, #38 ) ;
#301 = CIRCLE ( 'NONE', #91, 0.2000000000000000944 ) ;
#302 =( GEOMETRIC_REPRESENTATION_CONTEXT ( 3 ) GLOBAL_UNCERTAINTY_ASSIGNED_CONTEXT ( ( #57 ) ) GLOBAL_UNIT_ASSIGNED_CONTEXT ( ( #15, #166, #464 ) ) REPRESENTATION_CONTEXT ( 'NONE', 'WORKASPACE' ) );
#303 = ORIENTED_EDGE ( 'NONE', *, *, #451, .T. ) ;
#304 = DIRECTION ( 'NONE',  ( -1.000000000000000000, 0.000000000000000000, 2.168404344971008868E-16 ) ) ;
#305 = VERTEX_POINT ( 'NONE', #184 ) ;
#306 = EDGE_LOOP ( 'NONE', ( #286, #251, #56, #366 ) ) ;
#307 = ADVANCED_FACE ( 'NONE', ( #220 ), #435, .T. ) ;
#308 = DIRECTION ( 'NONE',  ( 0.000000000000000000, 0.000000000000000000, 1.000000000000000000 ) ) ;
#309 = ORIENTED_EDGE ( 'NONE', *, *, #351, .F. ) ;
#310 = EDGE_CURVE ( 'NONE', #136, #340, #17, .T. ) ;
#311 = LINE ( 'NONE', #27, #318 ) ;
#312 = AXIS2_PLACEMENT_3D ( 'NONE', #79, #21, #180 ) ;
#313 = CARTESIAN_POINT ( 'NONE',  ( -2.800000000000000266, 0.8000000000000000444, 0.000000000000000000 ) ) ;
#314 = EDGE_CURVE ( 'NONE', #261, #436, #301, .T. ) ;
#315 = FACE_OUTER_BOUND ( 'NONE', #256, .T. ) ;
#316 = DIRECTION ( 'NONE',  ( -0.000000000000000000, -0.000000000000000000, 1.000000000000000000 ) ) ;
#317 = DIRECTION ( 'NONE',  ( -2.168404344971008868E-16, 0.000000000000000000, -1.000000000000000000 ) ) ;
#318 = VECTOR ( 'NONE', #177, 1000.000000000000000 ) ;
#319 = FACE_OUTER_BOUND ( 'NONE', #306, .T. ) ;
#320 = DIRECTION ( 'NONE',  ( 1.000000000000000000, 0.000000000000000000, 0.000000000000000000 ) ) ;
#321 = DIRECTION ( 'NONE',  ( -1.000000000000000000, 0.000000000000000000, 0.000000000000000000 ) ) ;
#322 = EDGE_CURVE ( 'NONE', #444, #360, #363, .T. ) ;
#323 = EDGE_CURVE ( 'NONE', #305, #261, #418, .T. ) ;
#324 = DIRECTION ( 'NONE',  ( -1.000000000000000000, 0.000000000000000000, 0.000000000000000000 ) ) ;
#325 = ORIENTED_EDGE ( 'NONE', *, *, #99, .F. ) ;
#326 = AXIS2_PLACEMENT_3D ( 'NONE', #382, #6, #386 ) ;
#327 = PLANE ( 'NONE',  #459 ) ;
#328 = LINE ( 'NONE', #93, #292 ) ;
#329 = CARTESIAN_POINT ( 'NONE',  ( -2.800000000000000266, 0.8000000000000000444, -1.799999999999999600 ) ) ;
#330 = VECTOR ( 'NONE', #298, 1000.000000000000000 ) ;
#331 = ORIENTED_EDGE ( 'NONE', *, *, #32, .F. ) ;
#332 = ORIENTED_EDGE ( 'NONE', *, *, #314, .T. ) ;
#333 = PRESENTATION_STYLE_ASSIGNMENT (( #114 ) ) ;
#334 = ORIENTED_EDGE ( 'NONE', *, *, #160, .T. ) ;
#335 = AXIS2_PLACEMENT_3D ( 'NONE', #75, #304, #442 ) ;
#336 = FACE_OUTER_BOUND ( 'NONE', #224, .T. ) ;
#337 = CIRCLE ( 'NONE', #424, 0.2000000000000000944 ) ;
#338 = VECTOR ( 'NONE', #13, 1000.000000000000000 ) ;
#339 = ORIENTED_EDGE ( 'NONE', *, *, #86, .F. ) ;
#340 = VERTEX_POINT ( 'NONE', #40 ) ;
#341 = FACE_OUTER_BOUND ( 'NONE', #18, .T. ) ;
#342 = VECTOR ( 'NONE', #125, 1000.000000000000000 ) ;
#343 = DIRECTION ( 'NONE',  ( 0.000000000000000000, 0.000000000000000000, -1.000000000000000000 ) ) ;
#344 = CARTESIAN_POINT ( 'NONE',  ( 2.999999999999999556, 0.000000000000000000, -1.999999999999999556 ) ) ;
#345 = FACE_OUTER_BOUND ( 'NONE', #411, .T. ) ;
#346 = CARTESIAN_POINT ( 'NONE',  ( 2.800000000000000266, 1.000000000000000000, 1.800000000000000488 ) ) ;
#347 = AXIS2_PLACEMENT_3D ( 'NONE', #279, #324, #465 ) ;
#348 = ADVANCED_FACE ( 'NONE', ( #319 ), #420, .F. ) ;
#349 = DIRECTION ( 'NONE',  ( -0.000000000000000000, 1.000000000000000000, 0.000000000000000000 ) ) ;
#350 = DIRECTION ( 'NONE',  ( 0.000000000000000000, 1.000000000000000000, 0.000000000000000000 ) ) ;
#351 = EDGE_CURVE ( 'NONE', #178, #108, #462, .T. ) ;
#352 = CARTESIAN_POINT ( 'NONE',  ( -2.800000000000000266, 0.000000000000000000, -1.999999999999999556 ) ) ;
#353 = ADVANCED_FACE ( 'NONE', ( #241 ), #9, .T. ) ;
#354 = LINE ( 'NONE', #95, #338 ) ;
#355 = AXIS2_PLACEMENT_3D ( 'NONE', #128, #350, #281 ) ;
#356 = CARTESIAN_POINT ( 'NONE',  ( -3.000000000000000444, 0.000000000000000000, 1.800000000000000488 ) ) ;
#357 = ORIENTED_EDGE ( 'NONE', *, *, #310, .T. ) ;
#358 = CARTESIAN_POINT ( 'NONE',  ( 2.800000000000000266, 0.8000000000000000444, 1.800000000000000488 ) ) ;
#359 = CARTESIAN_POINT ( 'NONE',  ( 2.799999999999999378, 1.000000000000000000, -1.799999999999999600 ) ) ;
#360 = VERTEX_POINT ( 'NONE', #380 ) ;
#361 = DIRECTION ( 'NONE',  ( 0.000000000000000000, 0.000000000000000000, 1.000000000000000000 ) ) ;
#362 = ADVANCED_FACE ( 'NONE', ( #345 ), #422, .F. ) ;
#363 = CIRCLE ( 'NONE', #151, 0.2000000000000000944 ) ;
#364 = ORIENTED_EDGE ( 'NONE', *, *, #212, .T. ) ;
#365 = EDGE_CURVE ( 'NONE', #108, #150, #227, .T. ) ;
#366 = ORIENTED_EDGE ( 'NONE', *, *, #99, .T. ) ;
#367 = FACE_OUTER_BOUND ( 'NONE', #441, .T. ) ;
#368 = ORIENTED_EDGE ( 'NONE', *, *, #269, .T. ) ;
#369 = CARTESIAN_POINT ( 'NONE',  ( 2.800000000000000266, 0.8000000000000000444, 1.800000000000000488 ) ) ;
#370 = DIRECTION ( 'NONE',  ( 1.000000000000000000, -0.000000000000000000, 0.000000000000000000 ) ) ;
#371 = VERTEX_POINT ( 'NONE', #352 ) ;
#372 = DIRECTION ( 'NONE',  ( 0.000000000000000000, 0.000000000000000000, -1.000000000000000000 ) ) ;
#373 =( GEOMETRIC_REPRESENTATION_CONTEXT ( 3 ) GLOBAL_UNCERTAINTY_ASSIGNED_CONTEXT ( ( #44 ) ) GLOBAL_UNIT_ASSIGNED_CONTEXT ( ( #67, #222, #187 ) ) REPRESENTATION_CONTEXT ( 'NONE', 'WORKASPACE' ) );
#374 = AXIS2_PLACEMENT_3D ( 'NONE', #115, #349, #272 ) ;
#375 = EDGE_LOOP ( 'NONE', ( #334, #72, #69, #253 ) ) ;
#376 = DIRECTION ( 'NONE',  ( 0.000000000000000000, 1.000000000000000000, 0.000000000000000000 ) ) ;
#377 = DIRECTION ( 'NONE',  ( 0.000000000000000000, 0.000000000000000000, 1.000000000000000000 ) ) ;
#378 = COLOUR_RGB ( '',0.8980392156862745390, 0.9215686274509803377, 0.9294117647058823817 ) ;
#379 = AXIS2_PLACEMENT_3D ( 'NONE', #358, #361, #207 ) ;
#380 = CARTESIAN_POINT ( 'NONE',  ( 2.799999999999998934, 0.000000000000000000, 2.000000000000000444 ) ) ;
#381 = DIRECTION ( 'NONE',  ( -1.000000000000000000, 0.000000000000000000, 0.000000000000000000 ) ) ;
#382 = CARTESIAN_POINT ( 'NONE',  ( -3.000000000000000444, 1.000000000000000000, -1.999999999999999556 ) ) ;
#383 = ADVANCED_FACE ( 'NONE', ( #315 ), #275, .T. ) ;
#384 = CARTESIAN_POINT ( 'NONE',  ( -2.800000000000000266, 0.000000000000000000, 1.800000000000000488 ) ) ;
#385 = ADVANCED_FACE ( 'NONE', ( #235 ), #82, .T. ) ;
#386 = DIRECTION ( 'NONE',  ( 0.000000000000000000, 0.000000000000000000, -1.000000000000000000 ) ) ;
#387 = AXIS2_PLACEMENT_3D ( 'NONE', #457, #455, #123 ) ;
#388 = DIRECTION ( 'NONE',  ( -1.000000000000000000, 0.000000000000000000, 0.000000000000000000 ) ) ;
#389 = CARTESIAN_POINT ( 'NONE',  ( -2.800000000000000266, 1.000000000000000000, 1.800000000000000488 ) ) ;
#390 = ADVANCED_FACE ( 'NONE', ( #88 ), #117, .T. ) ;
#391 = FACE_OUTER_BOUND ( 'NONE', #98, .T. ) ;
#392 = FACE_OUTER_BOUND ( 'NONE', #426, .T. ) ;
#393 = DIRECTION ( 'NONE',  ( 1.000000000000000000, 0.000000000000000000, -2.168404344971009608E-16 ) ) ;
#394 = CARTESIAN_POINT ( 'NONE',  ( -2.800000000000000266, 1.000000000000000000, -1.799999999999999600 ) ) ;
#395 = VECTOR ( 'NONE', #16, 1000.000000000000000 ) ;
#396 = FACE_OUTER_BOUND ( 'NONE', #438, .T. ) ;
#397 = EDGE_CURVE ( 'NONE', #483, #234, #416, .T. ) ;
#398 = ORIENTED_EDGE ( 'NONE', *, *, #45, .T. ) ;
#399 = CARTESIAN_POINT ( 'NONE',  ( -2.800000000000000266, 0.8000000000000000444, -1.799999999999999600 ) ) ;
#400 = EDGE_CURVE ( 'NONE', #444, #228, #239, .T. ) ;
#401 = ORIENTED_EDGE ( 'NONE', *, *, #169, .F. ) ;
#402 = VECTOR ( 'NONE', #55, 1000.000000000000000 ) ;
#403 = LINE ( 'NONE', #412, #237 ) ;
#404 = CIRCLE ( 'NONE', #491, 0.2000000000000000944 ) ;
#405 = ORIENTED_EDGE ( 'NONE', *, *, #193, .F. ) ;
#406 = FILL_AREA_STYLE ('',( #260 ) ) ;
#407 = ORIENTED_EDGE ( 'NONE', *, *, #77, .F. ) ;
#408 = ORIENTED_EDGE ( 'NONE', *, *, #282, .F. ) ;
#409 = SURFACE_STYLE_FILL_AREA ( #406 ) ;
#410 = CARTESIAN_POINT ( 'NONE',  ( 0.000000000000000000, 1.000000000000000000, 0.000000000000000000 ) ) ;
#411 = EDGE_LOOP ( 'NONE', ( #303, #148, #139, #364 ) ) ;
#412 = CARTESIAN_POINT ( 'NONE',  ( 3.000000000000000444, 1.000000000000000000, 1.800000000000000488 ) ) ;
#413 = VECTOR ( 'NONE', #370, 1000.000000000000000 ) ;
#414 = ORIENTED_EDGE ( 'NONE', *, *, #11, .T. ) ;
#415 = CARTESIAN_POINT ( 'NONE',  ( -3.000000000000000444, 1.000000000000000000, -1.999999999999999556 ) ) ;
#416 = LINE ( 'NONE', #46, #217 ) ;
#417 = AXIS2_PLACEMENT_3D ( 'NONE', #291, #167, #393 ) ;
#418 = LINE ( 'NONE', #155, #216 ) ;
#419 = DIRECTION ( 'NONE',  ( 0.000000000000000000, 1.000000000000000000, 0.000000000000000000 ) ) ;
#420 = PLANE ( 'NONE',  #194 ) ;
#421 = DIRECTION ( 'NONE',  ( 0.000000000000000000, -1.000000000000000000, 0.000000000000000000 ) ) ;
#422 = PLANE ( 'NONE',  #105 ) ;
#423 = PLANE ( 'NONE',  #326 ) ;
#424 = AXIS2_PLACEMENT_3D ( 'NONE', #458, #198, #201 ) ;
#425 = FACE_OUTER_BOUND ( 'NONE', #22, .T. ) ;
#426 = EDGE_LOOP ( 'NONE', ( #407, #183, #454, #331 ) ) ;
#427 = AXIS2_PLACEMENT_3D ( 'NONE', #120, #246, #195 ) ;
#428 = DIRECTION ( 'NONE',  ( 0.000000000000000000, -1.000000000000000000, 0.000000000000000000 ) ) ;
#429 = EDGE_CURVE ( 'NONE', #87, #178, #268, .T. ) ;
#430 = ORIENTED_EDGE ( 'NONE', *, *, #322, .F. ) ;
#431 = EDGE_CURVE ( 'NONE', #87, #446, #404, .T. ) ;
#432 = ORIENTED_EDGE ( 'NONE', *, *, #351, .T. ) ;
#433 = DIRECTION ( 'NONE',  ( 0.000000000000000000, 0.000000000000000000, 1.000000000000000000 ) ) ;
#434 = ORIENTED_EDGE ( 'NONE', *, *, #102, .F. ) ;
#435 = CYLINDRICAL_SURFACE ( 'NONE', #73, 0.2000000000000000944 ) ;
#436 = VERTEX_POINT ( 'NONE', #356 ) ;
#437 = EDGE_CURVE ( 'NONE', #228, #87, #328, .T. ) ;
#438 = EDGE_LOOP ( 'NONE', ( #339, #332, #264, #293, #204, #414, #179, #49 ) ) ;
#439 = VECTOR ( 'NONE', #482, 1000.000000000000000 ) ;
#440 = LINE ( 'NONE', #107, #413 ) ;
#441 = EDGE_LOOP ( 'NONE', ( #443, #271, #186, #273 ) ) ;
#442 = DIRECTION ( 'NONE',  ( 2.168404344971008868E-16, 0.000000000000000000, 1.000000000000000000 ) ) ;
#443 = ORIENTED_EDGE ( 'NONE', *, *, #11, .F. ) ;
#444 = VERTEX_POINT ( 'NONE', #134 ) ;
#445 = PLANE ( 'NONE',  #335 ) ;
#446 = VERTEX_POINT ( 'NONE', #61 ) ;
#447 = AXIS2_PLACEMENT_3D ( 'NONE', #109, #65, #262 ) ;
#448 = EDGE_LOOP ( 'NONE', ( #33, #176, #104, #368 ) ) ;
#449 = CIRCLE ( 'NONE', #379, 0.2000000000000000944 ) ;
#450 = ADVANCED_FACE ( 'NONE', ( #392 ), #289, .T. ) ;
#451 = EDGE_CURVE ( 'NONE', #165, #371, #51, .T. ) ;
#452 = DIRECTION ( 'NONE',  ( 1.000000000000000000, 0.000000000000000000, -0.000000000000000000 ) ) ;
#453 = PRODUCT_DEFINITION_SHAPE ( 'NONE', 'NONE',  #135 ) ;
#454 = ORIENTED_EDGE ( 'NONE', *, *, #208, .F. ) ;
#455 = DIRECTION ( 'NONE',  ( 0.000000000000000000, 1.000000000000000000, -0.000000000000000000 ) ) ;
#456 = CYLINDRICAL_SURFACE ( 'NONE', #267, 0.2000000000000000944 ) ;
#457 = CARTESIAN_POINT ( 'NONE',  ( -2.800000000000000266, 0.8000000000000000444, 1.800000000000000488 ) ) ;
#458 = CARTESIAN_POINT ( 'NONE',  ( -2.800000000000000266, 0.000000000000000000, -1.799999999999999600 ) ) ;
#459 = AXIS2_PLACEMENT_3D ( 'NONE', #255, #92, #131 ) ;
#460 = DIRECTION ( 'NONE',  ( 0.000000000000000000, 0.000000000000000000, 1.000000000000000000 ) ) ;
#461 = DIRECTION ( 'NONE',  ( 0.000000000000000000, 1.000000000000000000, -0.000000000000000000 ) ) ;
#462 = LINE ( 'NONE', #202, #143 ) ;
#463 = DIRECTION ( 'NONE',  ( 0.000000000000000000, 0.000000000000000000, -1.000000000000000000 ) ) ;
#464 =( NAMED_UNIT ( * ) SI_UNIT ( $, .STERADIAN. ) SOLID_ANGLE_UNIT ( ) );
#465 = DIRECTION ( 'NONE',  ( 0.000000000000000000, 0.000000000000000000, 1.000000000000000000 ) ) ;
#466 = VECTOR ( 'NONE', #320, 1000.000000000000000 ) ;
#467 = ORIENTED_EDGE ( 'NONE', *, *, #476, .T. ) ;
#468 = CARTESIAN_POINT ( 'NONE',  ( -3.000000000000000444, 0.8000000000000000444, -1.999999999999999556 ) ) ;
#469 = CARTESIAN_POINT ( 'NONE',  ( 2.799999999999998934, 0.000000000000000000, -1.999999999999999556 ) ) ;
#470 = ORIENTED_EDGE ( 'NONE', *, *, #314, .F. ) ;
#471 = EDGE_CURVE ( 'NONE', #230, #116, #449, .T. ) ;
#472 = APPLICATION_CONTEXT ( 'automotive_design' ) ;
#473 = VECTOR ( 'NONE', #317, 1000.000000000000000 ) ;
#474 = APPLICATION_PROTOCOL_DEFINITION ( 'draft international standard', 'automotive_design', 1998, #472 ) ;
#475 = EDGE_LOOP ( 'NONE', ( #477, #68, #299, #259 ) ) ;
#476 = EDGE_CURVE ( 'NONE', #108, #136, #354, .T. ) ;
#477 = ORIENTED_EDGE ( 'NONE', *, *, #36, .T. ) ;
#478 = CARTESIAN_POINT ( 'NONE',  ( 3.000000000000000444, 0.8000000000000000444, 1.800000000000000488 ) ) ;
#479 = LINE ( 'NONE', #110, #199 ) ;
#480 = ORIENTED_EDGE ( 'NONE', *, *, #429, .F. ) ;
#481 = AXIS2_PLACEMENT_3D ( 'NONE', #31, #265, #149 ) ;
#482 = DIRECTION ( 'NONE',  ( 0.000000000000000000, -1.000000000000000000, 0.000000000000000000 ) ) ;
#483 = VERTEX_POINT ( 'NONE', #205 ) ;
#484 = LINE ( 'NONE', #106, #206 ) ;
#485 = ORIENTED_EDGE ( 'NONE', *, *, #323, .F. ) ;
#486 = ORIENTED_EDGE ( 'NONE', *, *, #365, .F. ) ;
#487 = EDGE_CURVE ( 'NONE', #108, #483, #238, .T. ) ;
#488 = EDGE_CURVE ( 'NONE', #340, #483, #252, .T. ) ;
#489 = CYLINDRICAL_SURFACE ( 'NONE', #447, 0.2000000000000000944 ) ;
#490 = CIRCLE ( 'NONE', #171, 0.2000000000000000944 ) ;
#491 = AXIS2_PLACEMENT_3D ( 'NONE', #277, #210, #168 ) ;
ENDSEC;
END-ISO-10303-21;
