ISO-10303-21;
HEADER;
FILE_DESCRIPTION (( 'STEP AP214' ),
    '1' );
FILE_NAME ('BAR4X8T1.step',
    '2026-03-22T07:21:43',
    ( '' ),
    ( '' ),
    'SwSTEP 2.0',
    'SolidWorks 2025',
    '' );
FILE_SCHEMA (( 'AUTOMOTIVE_DESIGN' ));
ENDSEC;

DATA;
#1 = FACE_OUTER_BOUND ( 'NONE', #36, .T. ) ;
#2 = EDGE_CURVE ( 'NONE', #129, #193, #5, .T. ) ;
#3 = EDGE_LOOP ( 'NONE', ( #439, #478, #229, #78 ) ) ;
#4 = PLANE ( 'NONE',  #391 ) ;
#5 = LINE ( 'NONE', #34, #92 ) ;
#6 = CARTESIAN_POINT ( 'NONE',  ( 3.999999999999998224, 1.000000000000000000, 1.799999999999999600 ) ) ;
#7 = ORIENTED_EDGE ( 'NONE', *, *, #124, .T. ) ;
#8 = CARTESIAN_POINT ( 'NONE',  ( -3.800000000000001599, 0.8000000000000000444, -1.800000000000000488 ) ) ;
#9 = APPLICATION_CONTEXT ( 'automotive_design' ) ;
#10 = VERTEX_POINT ( 'NONE', #351 ) ;
#11 = DIRECTION ( 'NONE',  ( -0.000000000000000000, 1.000000000000000000, 0.000000000000000000 ) ) ;
#12 = ORIENTED_EDGE ( 'NONE', *, *, #273, .T. ) ;
#13 = SHAPE_DEFINITION_REPRESENTATION ( #39, #96 ) ;
#14 = DIRECTION ( 'NONE',  ( 0.000000000000000000, -1.000000000000000000, 0.000000000000000000 ) ) ;
#15 = EDGE_CURVE ( 'NONE', #332, #21, #159, .T. ) ;
#16 = ORIENTED_EDGE ( 'NONE', *, *, #271, .T. ) ;
#17 = CARTESIAN_POINT ( 'NONE',  ( -3.800000000000001599, 0.8000000000000000444, 1.799999999999999600 ) ) ;
#18 = CIRCLE ( 'NONE', #147, 0.2000000000000000944 ) ;
#19 = EDGE_CURVE ( 'NONE', #332, #31, #427, .T. ) ;
#20 = CARTESIAN_POINT ( 'NONE',  ( 0.000000000000000000, 0.000000000000000000, 0.000000000000000000 ) ) ;
#21 = VERTEX_POINT ( 'NONE', #354 ) ;
#22 = CARTESIAN_POINT ( 'NONE',  ( 3.799999999999998046, 0.000000000000000000, -2.000000000000000444 ) ) ;
#23 = ORIENTED_EDGE ( 'NONE', *, *, #15, .T. ) ;
#24 = CIRCLE ( 'NONE', #307, 0.2000000000000000944 ) ;
#25 = DIRECTION ( 'NONE',  ( 0.000000000000000000, 0.000000000000000000, -1.000000000000000000 ) ) ;
#26 = ORIENTED_EDGE ( 'NONE', *, *, #446, .F. ) ;
#27 = MANIFOLD_SOLID_BREP ( '\X2\570689d2\X0\1', #300 ) ;
#28 = CARTESIAN_POINT ( 'NONE',  ( 3.999999999999998224, 1.000000000000000000, 1.799999999999999600 ) ) ;
#29 = CIRCLE ( 'NONE', #455, 0.2000000000000000944 ) ;
#30 = VECTOR ( 'NONE', #226, 1000.000000000000000 ) ;
#31 = VERTEX_POINT ( 'NONE', #93 ) ;
#32 =( GEOMETRIC_REPRESENTATION_CONTEXT ( 3 ) GLOBAL_UNCERTAINTY_ASSIGNED_CONTEXT ( ( #174 ) ) GLOBAL_UNIT_ASSIGNED_CONTEXT ( ( #339, #66, #367 ) ) REPRESENTATION_CONTEXT ( 'NONE', 'WORKASPACE' ) );
#33 = FACE_OUTER_BOUND ( 'NONE', #140, .T. ) ;
#34 = CARTESIAN_POINT ( 'NONE',  ( -4.000000000000001776, 1.000000000000000000, -1.800000000000000488 ) ) ;
#35 = CARTESIAN_POINT ( 'NONE',  ( -3.800000000000001599, 1.000000000000000000, -1.800000000000000488 ) ) ;
#36 = EDGE_LOOP ( 'NONE', ( #445, #138, #164, #260 ) ) ;
#37 = SPHERICAL_SURFACE ( 'NONE', #200, 0.2000000000000000111 ) ;
#38 = CIRCLE ( 'NONE', #343, 0.2000000000000000944 ) ;
#39 = PRODUCT_DEFINITION_SHAPE ( 'NONE', 'NONE',  #458 ) ;
#40 = CARTESIAN_POINT ( 'NONE',  ( -3.800000000000001599, 1.000000000000000000, 1.799999999999999600 ) ) ;
#41 = LINE ( 'NONE', #47, #49 ) ;
#42 = DIRECTION ( 'NONE',  ( 0.000000000000000000, 0.000000000000000000, -1.000000000000000000 ) ) ;
#43 = VERTEX_POINT ( 'NONE', #472 ) ;
#44 = LINE ( 'NONE', #190, #368 ) ;
#45 = MECHANICAL_DESIGN_GEOMETRIC_PRESENTATION_REPRESENTATION (  '', ( #473 ), #32 ) ;
#46 = ORIENTED_EDGE ( 'NONE', *, *, #361, .F. ) ;
#47 = CARTESIAN_POINT ( 'NONE',  ( -4.000000000000001776, 0.8000000000000000444, 1.999999999999999556 ) ) ;
#48 = CARTESIAN_POINT ( 'NONE',  ( -3.800000000000001599, 0.8000000000000000444, 1.799999999999999600 ) ) ;
#49 = VECTOR ( 'NONE', #315, 1000.000000000000000 ) ;
#50 = DIRECTION ( 'NONE',  ( 0.000000000000000000, 0.000000000000000000, 1.000000000000000000 ) ) ;
#51 = DIRECTION ( 'NONE',  ( -1.000000000000000000, 0.000000000000000000, 0.000000000000000000 ) ) ;
#52 = DIRECTION ( 'NONE',  ( 0.000000000000000000, -1.000000000000000000, 0.000000000000000000 ) ) ;
#53 = ADVANCED_FACE ( 'NONE', ( #248 ), #316, .T. ) ;
#54 = ADVANCED_FACE ( 'NONE', ( #326 ), #84, .T. ) ;
#55 = CARTESIAN_POINT ( 'NONE',  ( -3.800000000000001599, 1.000000000000000000, 1.999999999999999556 ) ) ;
#56 = VERTEX_POINT ( 'NONE', #128 ) ;
#57 = DIRECTION ( 'NONE',  ( -1.000000000000000000, -0.000000000000000000, -0.000000000000000000 ) ) ;
#58 = ORIENTED_EDGE ( 'NONE', *, *, #143, .T. ) ;
#59 = FACE_OUTER_BOUND ( 'NONE', #330, .T. ) ;
#60 = ORIENTED_EDGE ( 'NONE', *, *, #87, .T. ) ;
#61 = CARTESIAN_POINT ( 'NONE',  ( -3.800000000000001599, 0.8000000000000000444, 1.799999999999999600 ) ) ;
#62 = ORIENTED_EDGE ( 'NONE', *, *, #361, .T. ) ;
#63 = CARTESIAN_POINT ( 'NONE',  ( -3.800000000000001599, 0.8000000000000000444, -1.800000000000000488 ) ) ;
#64 = ORIENTED_EDGE ( 'NONE', *, *, #19, .F. ) ;
#65 = FACE_OUTER_BOUND ( 'NONE', #297, .T. ) ;
#66 =( NAMED_UNIT ( * ) PLANE_ANGLE_UNIT ( ) SI_UNIT ( $, .RADIAN. ) );
#67 = ADVANCED_FACE ( 'NONE', ( #475 ), #405, .F. ) ;
#68 = FACE_OUTER_BOUND ( 'NONE', #3, .T. ) ;
#69 = ORIENTED_EDGE ( 'NONE', *, *, #103, .T. ) ;
#70 = DIRECTION ( 'NONE',  ( 0.000000000000000000, 0.000000000000000000, 1.000000000000000000 ) ) ;
#71 = VECTOR ( 'NONE', #210, 1000.000000000000000 ) ;
#72 = PLANE ( 'NONE',  #423 ) ;
#73 = DIRECTION ( 'NONE',  ( -0.000000000000000000, 1.000000000000000000, -0.000000000000000000 ) ) ;
#74 = CARTESIAN_POINT ( 'NONE',  ( 3.799999999999998046, 1.000000000000000000, -2.000000000000000444 ) ) ;
#75 = ORIENTED_EDGE ( 'NONE', *, *, #2, .F. ) ;
#76 = VECTOR ( 'NONE', #42, 1000.000000000000000 ) ;
#77 = CIRCLE ( 'NONE', #106, 0.2000000000000000944 ) ;
#78 = ORIENTED_EDGE ( 'NONE', *, *, #431, .F. ) ;
#79 = DIRECTION ( 'NONE',  ( 0.000000000000000000, 0.000000000000000000, 1.000000000000000000 ) ) ;
#80 = CIRCLE ( 'NONE', #371, 0.2000000000000000944 ) ;
#81 = ORIENTED_EDGE ( 'NONE', *, *, #462, .F. ) ;
#82 = SURFACE_STYLE_USAGE ( .BOTH. , #318 ) ;
#83 = CARTESIAN_POINT ( 'NONE',  ( 3.799999999999998046, 0.8000000000000000444, 1.799999999999999600 ) ) ;
#84 = SPHERICAL_SURFACE ( 'NONE', #328, 0.2000000000000000111 ) ;
#85 = EDGE_CURVE ( 'NONE', #464, #213, #408, .T. ) ;
#86 = FACE_OUTER_BOUND ( 'NONE', #144, .T. ) ;
#87 = EDGE_CURVE ( 'NONE', #10, #370, #80, .T. ) ;
#88 =( NAMED_UNIT ( * ) SI_UNIT ( $, .STERADIAN. ) SOLID_ANGLE_UNIT ( ) );
#89 = CARTESIAN_POINT ( 'NONE',  ( -3.800000000000001599, 1.000000000000000000, -1.800000000000000488 ) ) ;
#90 = ORIENTED_EDGE ( 'NONE', *, *, #87, .F. ) ;
#91 = CARTESIAN_POINT ( 'NONE',  ( -3.800000000000001599, 1.000000000000000000, -2.000000000000000444 ) ) ;
#92 = VECTOR ( 'NONE', #118, 1000.000000000000000 ) ;
#93 = CARTESIAN_POINT ( 'NONE',  ( -3.800000000000001599, 0.8000000000000000444, 1.999999999999999556 ) ) ;
#94 = ORIENTED_EDGE ( 'NONE', *, *, #285, .F. ) ;
#95 = CIRCLE ( 'NONE', #401, 0.2000000000000000944 ) ;
#96 = ADVANCED_BREP_SHAPE_REPRESENTATION ( 'BAR4X8T1', ( #27, #119 ), #359 ) ;
#97 = DIRECTION ( 'NONE',  ( -0.000000000000000000, -0.000000000000000000, 1.000000000000000000 ) ) ;
#98 = ORIENTED_EDGE ( 'NONE', *, *, #271, .F. ) ;
#99 = CARTESIAN_POINT ( 'NONE',  ( 3.999999999999998224, 0.8000000000000000444, 1.999999999999999556 ) ) ;
#100 = ORIENTED_EDGE ( 'NONE', *, *, #85, .F. ) ;
#101 = DIRECTION ( 'NONE',  ( -1.000000000000000000, 0.000000000000000000, -0.000000000000000000 ) ) ;
#102 = ORIENTED_EDGE ( 'NONE', *, *, #108, .F. ) ;
#103 = EDGE_CURVE ( 'NONE', #173, #452, #312, .T. ) ;
#104 = AXIS2_PLACEMENT_3D ( 'NONE', #394, #453, #115 ) ;
#105 = DIRECTION ( 'NONE',  ( 2.168404344971008868E-15, 1.000000000000000000, 0.000000000000000000 ) ) ;
#106 = AXIS2_PLACEMENT_3D ( 'NONE', #365, #165, #322 ) ;
#107 = DIRECTION ( 'NONE',  ( 1.000000000000000000, -0.000000000000000000, -0.000000000000000000 ) ) ;
#108 = EDGE_CURVE ( 'NONE', #56, #10, #207, .T. ) ;
#109 = CARTESIAN_POINT ( 'NONE',  ( -3.800000000000001599, 0.8000000000000000444, -1.800000000000000488 ) ) ;
#110 = VERTEX_POINT ( 'NONE', #362 ) ;
#111 = DIRECTION ( 'NONE',  ( 0.000000000000000000, 0.000000000000000000, 1.000000000000000000 ) ) ;
#112 = DIRECTION ( 'NONE',  ( 0.000000000000000000, -1.000000000000000000, 0.000000000000000000 ) ) ;
#113 = VECTOR ( 'NONE', #152, 1000.000000000000000 ) ;
#114 = DIRECTION ( 'NONE',  ( 0.000000000000000000, -0.000000000000000000, 1.000000000000000000 ) ) ;
#115 = DIRECTION ( 'NONE',  ( 0.000000000000000000, 0.000000000000000000, -1.000000000000000000 ) ) ;
#116 = ORIENTED_EDGE ( 'NONE', *, *, #382, .F. ) ;
#117 = CARTESIAN_POINT ( 'NONE',  ( 3.799999999999998046, 0.8000000000000000444, 1.799999999999999600 ) ) ;
#118 = DIRECTION ( 'NONE',  ( -1.000000000000000000, 0.000000000000000000, 0.000000000000000000 ) ) ;
#119 = AXIS2_PLACEMENT_3D ( 'NONE', #440, #396, #358 ) ;
#120 = AXIS2_PLACEMENT_3D ( 'NONE', #204, #14, #444 ) ;
#121 = DIRECTION ( 'NONE',  ( 1.000000000000000000, 0.000000000000000000, 0.000000000000000000 ) ) ;
#122 = PRODUCT_RELATED_PRODUCT_CATEGORY ( 'part', '', ( #188 ) ) ;
#123 = CARTESIAN_POINT ( 'NONE',  ( 3.799999999999998046, 1.000000000000000000, 1.999999999999999556 ) ) ;
#124 = EDGE_CURVE ( 'NONE', #432, #299, #149, .T. ) ;
#125 =( LENGTH_UNIT ( ) NAMED_UNIT ( * ) SI_UNIT ( .MILLI., .METRE. ) );
#126 = DIRECTION ( 'NONE',  ( 0.000000000000000000, 0.000000000000000000, 1.000000000000000000 ) ) ;
#127 = ORIENTED_EDGE ( 'NONE', *, *, #158, .T. ) ;
#128 = CARTESIAN_POINT ( 'NONE',  ( 3.799999999999998046, 0.000000000000000000, 1.999999999999999556 ) ) ;
#129 = VERTEX_POINT ( 'NONE', #467 ) ;
#130 = DIRECTION ( 'NONE',  ( 0.000000000000000000, 1.000000000000000000, 0.000000000000000000 ) ) ;
#131 = ORIENTED_EDGE ( 'NONE', *, *, #103, .F. ) ;
#132 = AXIS2_PLACEMENT_3D ( 'NONE', #235, #311, #154 ) ;
#133 = DIRECTION ( 'NONE',  ( -1.000000000000000000, 0.000000000000000000, 0.000000000000000000 ) ) ;
#134 = ORIENTED_EDGE ( 'NONE', *, *, #419, .T. ) ;
#135 = CIRCLE ( 'NONE', #178, 0.2000000000000000944 ) ;
#136 = VECTOR ( 'NONE', #97, 1000.000000000000000 ) ;
#137 = DIRECTION ( 'NONE',  ( -0.000000000000000000, 1.000000000000000000, 0.000000000000000000 ) ) ;
#138 = ORIENTED_EDGE ( 'NONE', *, *, #449, .T. ) ;
#139 = CARTESIAN_POINT ( 'NONE',  ( 3.999999999999998224, 0.8000000000000000444, -2.000000000000000444 ) ) ;
#140 = EDGE_LOOP ( 'NONE', ( #483, #305, #12, #295 ) ) ;
#141 = ADVANCED_FACE ( 'NONE', ( #86 ), #477, .T. ) ;
#142 = DIRECTION ( 'NONE',  ( 0.000000000000000000, 0.000000000000000000, -1.000000000000000000 ) ) ;
#143 = EDGE_CURVE ( 'NONE', #432, #129, #77, .T. ) ;
#144 = EDGE_LOOP ( 'NONE', ( #253, #395, #131, #414 ) ) ;
#145 = VECTOR ( 'NONE', #463, 1000.000000000000000 ) ;
#146 = FACE_OUTER_BOUND ( 'NONE', #186, .T. ) ;
#147 = AXIS2_PLACEMENT_3D ( 'NONE', #303, #180, #451 ) ;
#148 = EDGE_LOOP ( 'NONE', ( #98, #406, #94, #75 ) ) ;
#149 = CIRCLE ( 'NONE', #284, 0.2000000000000000944 ) ;
#150 = CARTESIAN_POINT ( 'NONE',  ( -3.800000000000001599, 1.000000000000000000, 1.799999999999999600 ) ) ;
#151 = CARTESIAN_POINT ( 'NONE',  ( 3.999999999999998224, 1.000000000000000000, -1.800000000000000488 ) ) ;
#152 = DIRECTION ( 'NONE',  ( -0.000000000000000000, -0.000000000000000000, -1.000000000000000000 ) ) ;
#153 = VECTOR ( 'NONE', #57, 1000.000000000000000 ) ;
#154 = DIRECTION ( 'NONE',  ( 1.000000000000000000, 0.000000000000000000, -0.000000000000000000 ) ) ;
#155 = ORIENTED_EDGE ( 'NONE', *, *, #323, .T. ) ;
#156 = CARTESIAN_POINT ( 'NONE',  ( 3.799999999999998046, 1.000000000000000000, 1.799999999999999600 ) ) ;
#157 = EDGE_LOOP ( 'NONE', ( #7, #16, #409 ) ) ;
#158 = EDGE_CURVE ( 'NONE', #193, #452, #369, .T. ) ;
#159 = CIRCLE ( 'NONE', #442, 0.2000000000000000944 ) ;
#160 = LINE ( 'NONE', #74, #76 ) ;
#161 = SURFACE_STYLE_FILL_AREA ( #357 ) ;
#162 = ADVANCED_FACE ( 'NONE', ( #281 ), #293, .T. ) ;
#163 = LINE ( 'NONE', #435, #349 ) ;
#164 = ORIENTED_EDGE ( 'NONE', *, *, #234, .T. ) ;
#165 = DIRECTION ( 'NONE',  ( -0.000000000000000000, -0.000000000000000000, 1.000000000000000000 ) ) ;
#166 = DIRECTION ( 'NONE',  ( 0.000000000000000000, 1.000000000000000000, -0.000000000000000000 ) ) ;
#167 = LINE ( 'NONE', #99, #136 ) ;
#168 = ORIENTED_EDGE ( 'NONE', *, *, #183, .F. ) ;
#169 = PLANE ( 'NONE',  #205 ) ;
#170 = CARTESIAN_POINT ( 'NONE',  ( 3.799999999999998046, 0.8000000000000000444, -1.800000000000000488 ) ) ;
#171 = ORIENTED_EDGE ( 'NONE', *, *, #459, .T. ) ;
#172 = DIRECTION ( 'NONE',  ( 0.000000000000000000, 1.000000000000000000, 0.000000000000000000 ) ) ;
#173 = VERTEX_POINT ( 'NONE', #360 ) ;
#174 = UNCERTAINTY_MEASURE_WITH_UNIT (LENGTH_MEASURE( 1.000000000000000082E-05 ), #339, 'distance_accuracy_value', 'NONE');
#175 = CARTESIAN_POINT ( 'NONE',  ( -4.000000000000001776, 0.000000000000000000, 1.999999999999999556 ) ) ;
#176 = ORIENTED_EDGE ( 'NONE', *, *, #446, .T. ) ;
#177 = EDGE_CURVE ( 'NONE', #21, #452, #163, .T. ) ;
#178 = AXIS2_PLACEMENT_3D ( 'NONE', #471, #242, #364 ) ;
#179 = AXIS2_PLACEMENT_3D ( 'NONE', #185, #412, #338 ) ;
#180 = DIRECTION ( 'NONE',  ( -0.000000000000000000, -1.000000000000000000, -0.000000000000000000 ) ) ;
#181 = ADVANCED_FACE ( 'NONE', ( #282 ), #298, .T. ) ;
#182 = ORIENTED_EDGE ( 'NONE', *, *, #177, .T. ) ;
#183 = EDGE_CURVE ( 'NONE', #432, #370, #167, .T. ) ;
#184 = DIRECTION ( 'NONE',  ( 1.000000000000000000, 0.000000000000000000, 0.000000000000000000 ) ) ;
#185 = CARTESIAN_POINT ( 'NONE',  ( 3.799999999999998046, 1.000000000000000000, -1.800000000000000488 ) ) ;
#186 = EDGE_LOOP ( 'NONE', ( #58, #388, #434, #168 ) ) ;
#187 = DIRECTION ( 'NONE',  ( 0.000000000000000000, 0.000000000000000000, -1.000000000000000000 ) ) ;
#188 = PRODUCT ( 'BAR4X8T1', 'BAR4X8T1', '', ( #208 ) ) ;
#189 = CARTESIAN_POINT ( 'NONE',  ( -4.000000000000001776, 1.000000000000000000, -2.000000000000000444 ) ) ;
#190 = CARTESIAN_POINT ( 'NONE',  ( 3.799999999999998046, 1.000000000000000000, -2.000000000000000444 ) ) ;
#191 = AXIS2_PLACEMENT_3D ( 'NONE', #450, #421, #105 ) ;
#192 = LINE ( 'NONE', #230, #113 ) ;
#193 = VERTEX_POINT ( 'NONE', #35 ) ;
#194 = AXIS2_PLACEMENT_3D ( 'NONE', #61, #222, #488 ) ;
#195 = ADVANCED_FACE ( 'NONE', ( #33 ), #257, .F. ) ;
#196 = DIRECTION ( 'NONE',  ( 0.000000000000000000, -1.000000000000000000, 0.000000000000000000 ) ) ;
#197 = ADVANCED_FACE ( 'NONE', ( #68 ), #484, .T. ) ;
#198 = ORIENTED_EDGE ( 'NONE', *, *, #398, .T. ) ;
#199 = CYLINDRICAL_SURFACE ( 'NONE', #350, 0.2000000000000000944 ) ;
#200 = AXIS2_PLACEMENT_3D ( 'NONE', #375, #137, #187 ) ;
#201 = EDGE_LOOP ( 'NONE', ( #60, #335, #26 ) ) ;
#202 = VECTOR ( 'NONE', #111, 1000.000000000000000 ) ;
#203 = APPLICATION_PROTOCOL_DEFINITION ( 'draft international standard', 'automotive_design', 1998, #9 ) ;
#204 = CARTESIAN_POINT ( 'NONE',  ( 3.799999999999998046, 1.000000000000000000, 1.799999999999999600 ) ) ;
#205 = AXIS2_PLACEMENT_3D ( 'NONE', #241, #51, #400 ) ;
#206 = AXIS2_PLACEMENT_3D ( 'NONE', #486, #25, #101 ) ;
#207 = LINE ( 'NONE', #123, #437 ) ;
#208 = PRODUCT_CONTEXT ( 'NONE', #9, 'mechanical' ) ;
#209 = DIRECTION ( 'NONE',  ( 0.000000000000000000, 0.000000000000000000, -1.000000000000000000 ) ) ;
#210 = DIRECTION ( 'NONE',  ( -0.000000000000000000, 0.000000000000000000, 1.000000000000000000 ) ) ;
#211 = DIRECTION ( 'NONE',  ( 0.000000000000000000, 0.000000000000000000, 1.000000000000000000 ) ) ;
#212 = AXIS2_PLACEMENT_3D ( 'NONE', #63, #379, #261 ) ;
#213 = VERTEX_POINT ( 'NONE', #259 ) ;
#214 = AXIS2_PLACEMENT_3D ( 'NONE', #8, #397, #133 ) ;
#215 = APPLICATION_PROTOCOL_DEFINITION ( 'draft international standard', 'automotive_design', 1998, #321 ) ;
#216 = DIRECTION ( 'NONE',  ( 0.000000000000000000, -0.000000000000000000, 1.000000000000000000 ) ) ;
#217 = ORIENTED_EDGE ( 'NONE', *, *, #288, .T. ) ;
#218 = DIRECTION ( 'NONE',  ( 0.000000000000000000, 0.000000000000000000, 1.000000000000000000 ) ) ;
#219 = ADVANCED_FACE ( 'NONE', ( #65 ), #377, .T. ) ;
#220 = VERTEX_POINT ( 'NONE', #264 ) ;
#221 = EDGE_CURVE ( 'NONE', #370, #225, #340, .T. ) ;
#222 = DIRECTION ( 'NONE',  ( 0.000000000000000000, 1.000000000000000000, -0.000000000000000000 ) ) ;
#223 = ORIENTED_EDGE ( 'NONE', *, *, #2, .T. ) ;
#224 = SPHERICAL_SURFACE ( 'NONE', #212, 0.2000000000000000111 ) ;
#225 = VERTEX_POINT ( 'NONE', #383 ) ;
#226 = DIRECTION ( 'NONE',  ( 0.000000000000000000, -1.000000000000000000, 0.000000000000000000 ) ) ;
#227 = EDGE_LOOP ( 'NONE', ( #134, #392, #256, #474 ) ) ;
#228 = DIRECTION ( 'NONE',  ( 1.000000000000000000, -0.000000000000000000, -0.000000000000000000 ) ) ;
#229 = ORIENTED_EDGE ( 'NONE', *, *, #124, .F. ) ;
#230 = CARTESIAN_POINT ( 'NONE',  ( 3.999999999999998224, 0.000000000000000000, -2.000000000000000444 ) ) ;
#231 = FACE_OUTER_BOUND ( 'NONE', #317, .T. ) ;
#232 = CARTESIAN_POINT ( 'NONE',  ( 3.999999999999998224, 0.8000000000000000444, 1.799999999999999600 ) ) ;
#233 = ADVANCED_FACE ( 'NONE', ( #146 ), #296, .T. ) ;
#234 = EDGE_CURVE ( 'NONE', #173, #299, #301, .T. ) ;
#235 = CARTESIAN_POINT ( 'NONE',  ( -4.000000000000001776, 1.000000000000000000, -2.000000000000000444 ) ) ;
#236 = DIRECTION ( 'NONE',  ( 0.000000000000000000, 0.000000000000000000, 1.000000000000000000 ) ) ;
#237 = VECTOR ( 'NONE', #228, 1000.000000000000000 ) ;
#238 = EDGE_LOOP ( 'NONE', ( #376, #62, #182, #155 ) ) ;
#239 = CARTESIAN_POINT ( 'NONE',  ( -4.000000000000001776, 0.000000000000000000, -2.000000000000000444 ) ) ;
#240 = FILL_AREA_STYLE_COLOUR ( '', #262 ) ;
#241 = CARTESIAN_POINT ( 'NONE',  ( 3.999999999999998224, 1.000000000000000000, -2.000000000000000444 ) ) ;
#242 = DIRECTION ( 'NONE',  ( -0.000000000000000000, -1.000000000000000000, -0.000000000000000000 ) ) ;
#243 = CARTESIAN_POINT ( 'NONE',  ( 3.799999999999998046, 0.8000000000000000444, 1.799999999999999600 ) ) ;
#244 = PRODUCT_DEFINITION_FORMATION_WITH_SPECIFIED_SOURCE ( 'ANY', '', #188, .NOT_KNOWN. ) ;
#245 = AXIS2_PLACEMENT_3D ( 'NONE', #319, #172, #126 ) ;
#246 = VECTOR ( 'NONE', #196, 1000.000000000000000 ) ;
#247 = PRODUCT_DEFINITION_CONTEXT ( 'detailed design', #321, 'design' ) ;
#248 = FACE_OUTER_BOUND ( 'NONE', #342, .T. ) ;
#249 = ORIENTED_EDGE ( 'NONE', *, *, #363, .F. ) ;
#250 = EDGE_CURVE ( 'NONE', #43, #213, #18, .T. ) ;
#251 = CARTESIAN_POINT ( 'NONE',  ( -4.000000000000001776, 0.8000000000000000444, -1.800000000000000488 ) ) ;
#252 = DIRECTION ( 'NONE',  ( 0.000000000000000000, 1.000000000000000000, 0.000000000000000000 ) ) ;
#253 = ORIENTED_EDGE ( 'NONE', *, *, #250, .F. ) ;
#254 = UNCERTAINTY_MEASURE_WITH_UNIT (LENGTH_MEASURE( 1.000000000000000082E-05 ), #125, 'distance_accuracy_value', 'NONE');
#255 = LINE ( 'NONE', #175, #470 ) ;
#256 = ORIENTED_EDGE ( 'NONE', *, *, #183, .T. ) ;
#257 = PLANE ( 'NONE',  #206 ) ;
#258 = ORIENTED_EDGE ( 'NONE', *, *, #415, .T. ) ;
#259 = CARTESIAN_POINT ( 'NONE',  ( -3.800000000000001599, 0.000000000000000000, -2.000000000000000444 ) ) ;
#260 = ORIENTED_EDGE ( 'NONE', *, *, #378, .T. ) ;
#261 = DIRECTION ( 'NONE',  ( -1.000000000000000000, 0.000000000000000000, 0.000000000000000000 ) ) ;
#262 = COLOUR_RGB ( '',0.8980392156862745390, 0.9215686274509803377, 0.9294117647058823817 ) ;
#263 = ORIENTED_EDGE ( 'NONE', *, *, #19, .T. ) ;
#264 = CARTESIAN_POINT ( 'NONE',  ( 3.999999999999998224, 0.000000000000000000, -1.800000000000000488 ) ) ;
#265 = ORIENTED_EDGE ( 'NONE', *, *, #177, .F. ) ;
#266 = LINE ( 'NONE', #347, #334 ) ;
#267 = VECTOR ( 'NONE', #348, 1000.000000000000000 ) ;
#268 = CYLINDRICAL_SURFACE ( 'NONE', #104, 0.2000000000000000944 ) ;
#269 = AXIS2_PLACEMENT_3D ( 'NONE', #150, #448, #142 ) ;
#270 = ADVANCED_FACE ( 'NONE', ( #59 ), #224, .T. ) ;
#271 = EDGE_CURVE ( 'NONE', #299, #129, #417, .T. ) ;
#272 = LINE ( 'NONE', #239, #202 ) ;
#273 = EDGE_CURVE ( 'NONE', #443, #56, #255, .T. ) ;
#274 = LINE ( 'NONE', #313, #246 ) ;
#275 = DIRECTION ( 'NONE',  ( 0.000000000000000000, -0.000000000000000000, 1.000000000000000000 ) ) ;
#276 = DIRECTION ( 'NONE',  ( 1.000000000000000000, 0.000000000000000000, 0.000000000000000000 ) ) ;
#277 = CIRCLE ( 'NONE', #425, 0.2000000000000000944 ) ;
#278 = ORIENTED_EDGE ( 'NONE', *, *, #250, .T. ) ;
#279 = AXIS2_PLACEMENT_3D ( 'NONE', #381, #107, #236 ) ;
#280 = PRESENTATION_STYLE_ASSIGNMENT (( #82 ) ) ;
#281 = FACE_OUTER_BOUND ( 'NONE', #289, .T. ) ;
#282 = FACE_OUTER_BOUND ( 'NONE', #337, .T. ) ;
#283 = ADVANCED_FACE ( 'NONE', ( #336 ), #37, .T. ) ;
#284 = AXIS2_PLACEMENT_3D ( 'NONE', #403, #11, #287 ) ;
#285 = EDGE_CURVE ( 'NONE', #193, #173, #24, .T. ) ;
#286 =( NAMED_UNIT ( * ) PLANE_ANGLE_UNIT ( ) SI_UNIT ( $, .RADIAN. ) );
#287 = DIRECTION ( 'NONE',  ( 0.000000000000000000, 0.000000000000000000, 1.000000000000000000 ) ) ;
#288 = EDGE_CURVE ( 'NONE', #464, #220, #290, .T. ) ;
#289 = EDGE_LOOP ( 'NONE', ( #81, #487, #90, #102 ) ) ;
#290 = CIRCLE ( 'NONE', #356, 0.2000000000000000944 ) ;
#291 = DIRECTION ( 'NONE',  ( -1.000000000000000000, 0.000000000000000000, 2.168404344971008079E-15 ) ) ;
#292 = ORIENTED_EDGE ( 'NONE', *, *, #158, .F. ) ;
#293 = CYLINDRICAL_SURFACE ( 'NONE', #120, 0.2000000000000000944 ) ;
#294 = VECTOR ( 'NONE', #465, 1000.000000000000000 ) ;
#295 = ORIENTED_EDGE ( 'NONE', *, *, #108, .T. ) ;
#296 = CYLINDRICAL_SURFACE ( 'NONE', #389, 0.2000000000000000944 ) ;
#297 = EDGE_LOOP ( 'NONE', ( #418, #476, #411, #46 ) ) ;
#298 = SPHERICAL_SURFACE ( 'NONE', #194, 0.2000000000000000111 ) ;
#299 = VERTEX_POINT ( 'NONE', #447 ) ;
#300 = CLOSED_SHELL ( 'NONE', ( #479, #308, #341, #195, #310, #67, #141, #413, #197, #270, #54, #219, #325, #233, #162, #181, #283, #53 ) ) ;
#301 = LINE ( 'NONE', #139, #237 ) ;
#302 = ORIENTED_EDGE ( 'NONE', *, *, #382, .T. ) ;
#303 = CARTESIAN_POINT ( 'NONE',  ( -3.800000000000001599, 0.000000000000000000, -1.800000000000000488 ) ) ;
#304 = AXIS2_PLACEMENT_3D ( 'NONE', #441, #402, #211 ) ;
#305 = ORIENTED_EDGE ( 'NONE', *, *, #380, .T. ) ;
#306 = DIRECTION ( 'NONE',  ( -0.000000000000000000, -1.000000000000000000, -0.000000000000000000 ) ) ;
#307 = AXIS2_PLACEMENT_3D ( 'NONE', #109, #345, #218 ) ;
#308 = ADVANCED_FACE ( 'NONE', ( #1 ), #456, .F. ) ;
#309 = LINE ( 'NONE', #387, #352 ) ;
#310 = ADVANCED_FACE ( 'NONE', ( #426 ), #72, .T. ) ;
#311 = DIRECTION ( 'NONE',  ( 0.000000000000000000, 0.000000000000000000, 1.000000000000000000 ) ) ;
#312 = CIRCLE ( 'NONE', #245, 0.2000000000000000944 ) ;
#313 = CARTESIAN_POINT ( 'NONE',  ( -4.000000000000001776, 1.000000000000000000, -1.800000000000000488 ) ) ;
#314 = ORIENTED_EDGE ( 'NONE', *, *, #285, .T. ) ;
#315 = DIRECTION ( 'NONE',  ( -1.000000000000000000, -0.000000000000000000, -0.000000000000000000 ) ) ;
#316 = CYLINDRICAL_SURFACE ( 'NONE', #304, 0.2000000000000000944 ) ;
#317 = EDGE_LOOP ( 'NONE', ( #127, #265, #384, #461 ) ) ;
#318 = SURFACE_SIDE_STYLE ('',( #161 ) ) ;
#319 = CARTESIAN_POINT ( 'NONE',  ( -3.800000000000001599, 0.8000000000000000444, -1.800000000000000488 ) ) ;
#320 = EDGE_CURVE ( 'NONE', #43, #110, #272, .T. ) ;
#321 = APPLICATION_CONTEXT ( 'automotive_design' ) ;
#322 = DIRECTION ( 'NONE',  ( -1.000000000000000000, 0.000000000000000000, 0.000000000000000000 ) ) ;
#323 = EDGE_CURVE ( 'NONE', #452, #43, #274, .T. ) ;
#324 = LINE ( 'NONE', #55, #71 ) ;
#325 = ADVANCED_FACE ( 'NONE', ( #231 ), #199, .T. ) ;
#326 = FACE_OUTER_BOUND ( 'NONE', #157, .T. ) ;
#327 = VERTEX_POINT ( 'NONE', #156 ) ;
#328 = AXIS2_PLACEMENT_3D ( 'NONE', #170, #252, #291 ) ;
#329 = DIRECTION ( 'NONE',  ( 0.000000000000000000, 0.000000000000000000, 1.000000000000000000 ) ) ;
#330 = EDGE_LOOP ( 'NONE', ( #314, #69, #292 ) ) ;
#331 = DIRECTION ( 'NONE',  ( -0.000000000000000000, 1.000000000000000000, -0.000000000000000000 ) ) ;
#332 = VERTEX_POINT ( 'NONE', #40 ) ;
#333 = CARTESIAN_POINT ( 'NONE',  ( 3.799999999999998046, 0.000000000000000000, -1.800000000000000488 ) ) ;
#334 = VECTOR ( 'NONE', #112, 1000.000000000000000 ) ;
#335 = ORIENTED_EDGE ( 'NONE', *, *, #399, .T. ) ;
#336 = FACE_OUTER_BOUND ( 'NONE', #201, .T. ) ;
#337 = EDGE_LOOP ( 'NONE', ( #23, #485, #64 ) ) ;
#338 = DIRECTION ( 'NONE',  ( 0.000000000000000000, 0.000000000000000000, -1.000000000000000000 ) ) ;
#339 =( LENGTH_UNIT ( ) NAMED_UNIT ( * ) SI_UNIT ( .MILLI., .METRE. ) );
#340 = LINE ( 'NONE', #28, #30 ) ;
#341 = ADVANCED_FACE ( 'NONE', ( #428 ), #4, .F. ) ;
#342 = EDGE_LOOP ( 'NONE', ( #263, #249, #176, #116 ) ) ;
#343 = AXIS2_PLACEMENT_3D ( 'NONE', #17, #166, #329 ) ;
#344 = AXIS2_PLACEMENT_3D ( 'NONE', #89, #52, #209 ) ;
#345 = DIRECTION ( 'NONE',  ( -1.000000000000000000, 0.000000000000000000, 0.000000000000000000 ) ) ;
#346 = DIRECTION ( 'NONE',  ( -1.000000000000000000, 0.000000000000000000, 0.000000000000000000 ) ) ;
#347 = CARTESIAN_POINT ( 'NONE',  ( -3.800000000000001599, 1.000000000000000000, 1.999999999999999556 ) ) ;
#348 = DIRECTION ( 'NONE',  ( -0.000000000000000000, 1.000000000000000000, -0.000000000000000000 ) ) ;
#349 = VECTOR ( 'NONE', #469, 1000.000000000000000 ) ;
#350 = AXIS2_PLACEMENT_3D ( 'NONE', #490, #390, #346 ) ;
#351 = CARTESIAN_POINT ( 'NONE',  ( 3.799999999999998046, 0.8000000000000000444, 1.999999999999999556 ) ) ;
#352 = VECTOR ( 'NONE', #73, 1000.000000000000000 ) ;
#353 = DIRECTION ( 'NONE',  ( 0.000000000000000000, -1.000000000000000000, 0.000000000000000000 ) ) ;
#354 = CARTESIAN_POINT ( 'NONE',  ( -4.000000000000001776, 0.8000000000000000444, 1.799999999999999600 ) ) ;
#355 = LINE ( 'NONE', #6, #145 ) ;
#356 = AXIS2_PLACEMENT_3D ( 'NONE', #333, #306, #480 ) ;
#357 = FILL_AREA_STYLE ('',( #240 ) ) ;
#358 = DIRECTION ( 'NONE',  ( 1.000000000000000000, 0.000000000000000000, 0.000000000000000000 ) ) ;
#359 =( GEOMETRIC_REPRESENTATION_CONTEXT ( 3 ) GLOBAL_UNCERTAINTY_ASSIGNED_CONTEXT ( ( #254 ) ) GLOBAL_UNIT_ASSIGNED_CONTEXT ( ( #125, #286, #88 ) ) REPRESENTATION_CONTEXT ( 'NONE', 'WORKASPACE' ) );
#360 = CARTESIAN_POINT ( 'NONE',  ( -3.800000000000001599, 0.8000000000000000444, -2.000000000000000444 ) ) ;
#361 = EDGE_CURVE ( 'NONE', #110, #21, #309, .T. ) ;
#362 = CARTESIAN_POINT ( 'NONE',  ( -4.000000000000001776, 0.000000000000000000, 1.799999999999999600 ) ) ;
#363 = EDGE_CURVE ( 'NONE', #10, #31, #41, .T. ) ;
#364 = DIRECTION ( 'NONE',  ( 4.336808689942015369E-15, 0.000000000000000000, 1.000000000000000000 ) ) ;
#365 = CARTESIAN_POINT ( 'NONE',  ( 3.799999999999998046, 0.8000000000000000444, -1.800000000000000488 ) ) ;
#366 = FACE_OUTER_BOUND ( 'NONE', #227, .T. ) ;
#367 =( NAMED_UNIT ( * ) SI_UNIT ( $, .STERADIAN. ) SOLID_ANGLE_UNIT ( ) );
#368 = VECTOR ( 'NONE', #353, 1000.000000000000000 ) ;
#369 = CIRCLE ( 'NONE', #214, 0.2000000000000000944 ) ;
#370 = VERTEX_POINT ( 'NONE', #232 ) ;
#371 = AXIS2_PLACEMENT_3D ( 'NONE', #243, #373, #50 ) ;
#372 = DIRECTION ( 'NONE',  ( -1.000000000000000000, -0.000000000000000000, -0.000000000000000000 ) ) ;
#373 = DIRECTION ( 'NONE',  ( 0.000000000000000000, 1.000000000000000000, 0.000000000000000000 ) ) ;
#374 = ORIENTED_EDGE ( 'NONE', *, *, #419, .F. ) ;
#375 = CARTESIAN_POINT ( 'NONE',  ( 3.799999999999998046, 0.8000000000000000444, 1.799999999999999600 ) ) ;
#376 = ORIENTED_EDGE ( 'NONE', *, *, #320, .T. ) ;
#377 = CYLINDRICAL_SURFACE ( 'NONE', #269, 0.2000000000000000944 ) ;
#378 = EDGE_CURVE ( 'NONE', #299, #464, #44, .T. ) ;
#379 = DIRECTION ( 'NONE',  ( 0.000000000000000000, 1.000000000000000000, 0.000000000000000000 ) ) ;
#380 = EDGE_CURVE ( 'NONE', #31, #443, #266, .T. ) ;
#381 = CARTESIAN_POINT ( 'NONE',  ( -3.800000000000001599, 0.8000000000000000444, 1.799999999999999600 ) ) ;
#382 = EDGE_CURVE ( 'NONE', #332, #327, #355, .T. ) ;
#383 = CARTESIAN_POINT ( 'NONE',  ( 3.999999999999998224, 0.000000000000000000, 1.799999999999999600 ) ) ;
#384 = ORIENTED_EDGE ( 'NONE', *, *, #15, .F. ) ;
#385 = LINE ( 'NONE', #151, #267 ) ;
#386 = DIRECTION ( 'NONE',  ( 0.000000000000000000, 0.000000000000000000, -1.000000000000000000 ) ) ;
#387 = CARTESIAN_POINT ( 'NONE',  ( -4.000000000000001776, 1.000000000000000000, 1.799999999999999600 ) ) ;
#388 = ORIENTED_EDGE ( 'NONE', *, *, #398, .F. ) ;
#389 = AXIS2_PLACEMENT_3D ( 'NONE', #416, #482, #410 ) ;
#390 = DIRECTION ( 'NONE',  ( 0.000000000000000000, 0.000000000000000000, -1.000000000000000000 ) ) ;
#391 = AXIS2_PLACEMENT_3D ( 'NONE', #189, #429, #386 ) ;
#392 = ORIENTED_EDGE ( 'NONE', *, *, #431, .T. ) ;
#393 = EDGE_LOOP ( 'NONE', ( #171, #302, #198, #223 ) ) ;
#394 = CARTESIAN_POINT ( 'NONE',  ( 0.000000000000000000, 0.8000000000000000444, -1.800000000000000488 ) ) ;
#395 = ORIENTED_EDGE ( 'NONE', *, *, #323, .F. ) ;
#396 = DIRECTION ( 'NONE',  ( 0.000000000000000000, 0.000000000000000000, 1.000000000000000000 ) ) ;
#397 = DIRECTION ( 'NONE',  ( -0.000000000000000000, -0.000000000000000000, 1.000000000000000000 ) ) ;
#398 = EDGE_CURVE ( 'NONE', #327, #129, #160, .T. ) ;
#399 = EDGE_CURVE ( 'NONE', #370, #327, #29, .T. ) ;
#400 = DIRECTION ( 'NONE',  ( 0.000000000000000000, 0.000000000000000000, 1.000000000000000000 ) ) ;
#401 = AXIS2_PLACEMENT_3D ( 'NONE', #83, #372, #404 ) ;
#402 = DIRECTION ( 'NONE',  ( -1.000000000000000000, 0.000000000000000000, 0.000000000000000000 ) ) ;
#403 = CARTESIAN_POINT ( 'NONE',  ( 3.799999999999998046, 0.8000000000000000444, -1.800000000000000488 ) ) ;
#404 = DIRECTION ( 'NONE',  ( 0.000000000000000000, 0.000000000000000000, -1.000000000000000000 ) ) ;
#405 = PLANE ( 'NONE',  #457 ) ;
#406 = ORIENTED_EDGE ( 'NONE', *, *, #234, .F. ) ;
#407 = CARTESIAN_POINT ( 'NONE',  ( 3.999999999999998224, 0.8000000000000000444, -1.800000000000000488 ) ) ;
#408 = LINE ( 'NONE', #438, #153 ) ;
#409 = ORIENTED_EDGE ( 'NONE', *, *, #143, .F. ) ;
#410 = DIRECTION ( 'NONE',  ( 1.000000000000000000, 0.000000000000000000, 0.000000000000000000 ) ) ;
#411 = ORIENTED_EDGE ( 'NONE', *, *, #491, .F. ) ;
#412 = DIRECTION ( 'NONE',  ( 0.000000000000000000, -1.000000000000000000, 0.000000000000000000 ) ) ;
#413 = ADVANCED_FACE ( 'NONE', ( #433 ), #268, .T. ) ;
#414 = ORIENTED_EDGE ( 'NONE', *, *, #449, .F. ) ;
#415 = EDGE_CURVE ( 'NONE', #443, #110, #277, .T. ) ;
#416 = CARTESIAN_POINT ( 'NONE',  ( 3.799999999999998046, 0.8000000000000000444, 0.000000000000000000 ) ) ;
#417 = CIRCLE ( 'NONE', #191, 0.1999999999999999833 ) ;
#418 = ORIENTED_EDGE ( 'NONE', *, *, #415, .F. ) ;
#419 = EDGE_CURVE ( 'NONE', #225, #220, #192, .T. ) ;
#420 = PRESENTATION_LAYER_ASSIGNMENT (  '', '', ( #473 ) ) ;
#421 = DIRECTION ( 'NONE',  ( 1.000000000000000000, -2.168404344971009262E-15, 0.000000000000000000 ) ) ;
#422 = ORIENTED_EDGE ( 'NONE', *, *, #320, .F. ) ;
#423 = AXIS2_PLACEMENT_3D ( 'NONE', #454, #460, #114 ) ;
#424 = CARTESIAN_POINT ( 'NONE',  ( -3.800000000000001599, 0.000000000000000000, 1.799999999999999600 ) ) ;
#425 = AXIS2_PLACEMENT_3D ( 'NONE', #424, #489, #70 ) ;
#426 = FACE_OUTER_BOUND ( 'NONE', #393, .T. ) ;
#427 = CIRCLE ( 'NONE', #279, 0.2000000000000000944 ) ;
#428 = FACE_OUTER_BOUND ( 'NONE', #238, .T. ) ;
#429 = DIRECTION ( 'NONE',  ( 1.000000000000000000, 0.000000000000000000, 0.000000000000000000 ) ) ;
#430 = ORIENTED_EDGE ( 'NONE', *, *, #273, .F. ) ;
#431 = EDGE_CURVE ( 'NONE', #220, #432, #385, .T. ) ;
#432 = VERTEX_POINT ( 'NONE', #407 ) ;
#433 = FACE_OUTER_BOUND ( 'NONE', #148, .T. ) ;
#434 = ORIENTED_EDGE ( 'NONE', *, *, #399, .F. ) ;
#435 = CARTESIAN_POINT ( 'NONE',  ( -4.000000000000001776, 0.8000000000000000444, -2.000000000000000444 ) ) ;
#436 = CARTESIAN_POINT ( 'NONE',  ( -3.800000000000001599, 0.000000000000000000, 1.999999999999999556 ) ) ;
#437 = VECTOR ( 'NONE', #331, 1000.000000000000000 ) ;
#438 = CARTESIAN_POINT ( 'NONE',  ( -4.000000000000001776, 0.000000000000000000, -2.000000000000000444 ) ) ;
#439 = ORIENTED_EDGE ( 'NONE', *, *, #288, .F. ) ;
#440 = CARTESIAN_POINT ( 'NONE',  ( 0.000000000000000000, 0.000000000000000000, 0.000000000000000000 ) ) ;
#441 = CARTESIAN_POINT ( 'NONE',  ( 0.000000000000000000, 0.8000000000000000444, 1.799999999999999600 ) ) ;
#442 = AXIS2_PLACEMENT_3D ( 'NONE', #48, #275, #121 ) ;
#443 = VERTEX_POINT ( 'NONE', #436 ) ;
#444 = DIRECTION ( 'NONE',  ( 0.000000000000000000, 0.000000000000000000, -1.000000000000000000 ) ) ;
#445 = ORIENTED_EDGE ( 'NONE', *, *, #85, .T. ) ;
#446 = EDGE_CURVE ( 'NONE', #10, #327, #95, .T. ) ;
#447 = CARTESIAN_POINT ( 'NONE',  ( 3.799999999999998046, 0.8000000000000000444, -2.000000000000000444 ) ) ;
#448 = DIRECTION ( 'NONE',  ( 0.000000000000000000, -1.000000000000000000, 0.000000000000000000 ) ) ;
#449 = EDGE_CURVE ( 'NONE', #213, #173, #468, .T. ) ;
#450 = CARTESIAN_POINT ( 'NONE',  ( 3.799999999999998046, 0.8000000000000000444, -1.800000000000000488 ) ) ;
#451 = DIRECTION ( 'NONE',  ( 0.000000000000000000, 0.000000000000000000, 1.000000000000000000 ) ) ;
#452 = VERTEX_POINT ( 'NONE', #251 ) ;
#453 = DIRECTION ( 'NONE',  ( 1.000000000000000000, 0.000000000000000000, 0.000000000000000000 ) ) ;
#454 = CARTESIAN_POINT ( 'NONE',  ( 0.000000000000000000, 1.000000000000000000, 0.000000000000000000 ) ) ;
#455 = AXIS2_PLACEMENT_3D ( 'NONE', #117, #79, #276 ) ;
#456 = PLANE ( 'NONE',  #132 ) ;
#457 = AXIS2_PLACEMENT_3D ( 'NONE', #20, #130, #216 ) ;
#458 = PRODUCT_DEFINITION ( 'UNKNOWN', '', #244, #247 ) ;
#459 = EDGE_CURVE ( 'NONE', #193, #332, #324, .T. ) ;
#460 = DIRECTION ( 'NONE',  ( 0.000000000000000000, 1.000000000000000000, 0.000000000000000000 ) ) ;
#461 = ORIENTED_EDGE ( 'NONE', *, *, #459, .F. ) ;
#462 = EDGE_CURVE ( 'NONE', #225, #56, #135, .T. ) ;
#463 = DIRECTION ( 'NONE',  ( 1.000000000000000000, -0.000000000000000000, 0.000000000000000000 ) ) ;
#464 = VERTEX_POINT ( 'NONE', #22 ) ;
#465 = DIRECTION ( 'NONE',  ( -0.000000000000000000, 1.000000000000000000, -0.000000000000000000 ) ) ;
#466 = EDGE_LOOP ( 'NONE', ( #430, #258, #422, #278, #100, #217, #374, #481 ) ) ;
#467 = CARTESIAN_POINT ( 'NONE',  ( 3.799999999999998046, 1.000000000000000000, -1.800000000000000488 ) ) ;
#468 = LINE ( 'NONE', #91, #294 ) ;
#469 = DIRECTION ( 'NONE',  ( 0.000000000000000000, -0.000000000000000000, -1.000000000000000000 ) ) ;
#470 = VECTOR ( 'NONE', #184, 1000.000000000000000 ) ;
#471 = CARTESIAN_POINT ( 'NONE',  ( 3.799999999999998046, 0.000000000000000000, 1.799999999999999600 ) ) ;
#472 = CARTESIAN_POINT ( 'NONE',  ( -4.000000000000001776, 0.000000000000000000, -1.800000000000000488 ) ) ;
#473 = STYLED_ITEM ( 'NONE', ( #280 ), #27 ) ;
#474 = ORIENTED_EDGE ( 'NONE', *, *, #221, .T. ) ;
#475 = FACE_OUTER_BOUND ( 'NONE', #466, .T. ) ;
#476 = ORIENTED_EDGE ( 'NONE', *, *, #380, .F. ) ;
#477 = CYLINDRICAL_SURFACE ( 'NONE', #344, 0.2000000000000000944 ) ;
#478 = ORIENTED_EDGE ( 'NONE', *, *, #378, .F. ) ;
#479 = ADVANCED_FACE ( 'NONE', ( #366 ), #169, .F. ) ;
#480 = DIRECTION ( 'NONE',  ( 0.000000000000000000, 0.000000000000000000, 1.000000000000000000 ) ) ;
#481 = ORIENTED_EDGE ( 'NONE', *, *, #462, .T. ) ;
#482 = DIRECTION ( 'NONE',  ( 0.000000000000000000, -0.000000000000000000, 1.000000000000000000 ) ) ;
#483 = ORIENTED_EDGE ( 'NONE', *, *, #363, .T. ) ;
#484 = CYLINDRICAL_SURFACE ( 'NONE', #179, 0.2000000000000000944 ) ;
#485 = ORIENTED_EDGE ( 'NONE', *, *, #491, .T. ) ;
#486 = CARTESIAN_POINT ( 'NONE',  ( -4.000000000000001776, 1.000000000000000000, 1.999999999999999556 ) ) ;
#487 = ORIENTED_EDGE ( 'NONE', *, *, #221, .F. ) ;
#488 = DIRECTION ( 'NONE',  ( 0.000000000000000000, 0.000000000000000000, 1.000000000000000000 ) ) ;
#489 = DIRECTION ( 'NONE',  ( -0.000000000000000000, -1.000000000000000000, -0.000000000000000000 ) ) ;
#490 = CARTESIAN_POINT ( 'NONE',  ( -3.800000000000001599, 0.8000000000000000444, 0.000000000000000000 ) ) ;
#491 = EDGE_CURVE ( 'NONE', #21, #31, #38, .T. ) ;
ENDSEC;
END-ISO-10303-21;
