ISO-10303-21;
HEADER;
FILE_DESCRIPTION (( 'STEP AP214' ),
    '1' );
FILE_NAME ('BAR4X10T1.step',
    '2026-03-22T07:22:07',
    ( '' ),
    ( '' ),
    'SwSTEP 2.0',
    'SolidWorks 2025',
    '' );
FILE_SCHEMA (( 'AUTOMOTIVE_DESIGN' ));
ENDSEC;

DATA;
#1 = DIRECTION ( 'NONE',  ( 0.000000000000000000, 0.000000000000000000, -1.000000000000000000 ) ) ;
#2 = EDGE_LOOP ( 'NONE', ( #445, #440, #110 ) ) ;
#3 = EDGE_CURVE ( 'NONE', #333, #478, #48, .T. ) ;
#4 = DIRECTION ( 'NONE',  ( -0.000000000000000000, -1.000000000000000000, -0.000000000000000000 ) ) ;
#5 = EDGE_LOOP ( 'NONE', ( #238, #220, #231, #262 ) ) ;
#6 = AXIS2_PLACEMENT_3D ( 'NONE', #115, #303, #266 ) ;
#7 = ADVANCED_FACE ( 'NONE', ( #348 ), #460, .F. ) ;
#8 = DIRECTION ( 'NONE',  ( 0.000000000000000000, 0.000000000000000000, -1.000000000000000000 ) ) ;
#9 = DIRECTION ( 'NONE',  ( 0.000000000000000000, 0.000000000000000000, 1.000000000000000000 ) ) ;
#10 = CARTESIAN_POINT ( 'NONE',  ( -4.800000000000000711, 0.000000000000000000, -1.999999999999999556 ) ) ;
#11 = CARTESIAN_POINT ( 'NONE',  ( -4.800000000000000711, 0.8000000000000000444, 2.000000000000000444 ) ) ;
#12 = DIRECTION ( 'NONE',  ( -0.000000000000000000, -1.000000000000000000, -0.000000000000000000 ) ) ;
#13 = AXIS2_PLACEMENT_3D ( 'NONE', #38, #81, #309 ) ;
#14 = CARTESIAN_POINT ( 'NONE',  ( -4.800000000000000711, 0.000000000000000000, -1.799999999999999600 ) ) ;
#15 = DIRECTION ( 'NONE',  ( 1.000000000000000000, 0.000000000000000000, 0.000000000000000000 ) ) ;
#16 = VECTOR ( 'NONE', #65, 1000.000000000000000 ) ;
#17 = FACE_OUTER_BOUND ( 'NONE', #150, .T. ) ;
#18 = ADVANCED_FACE ( 'NONE', ( #214 ), #431, .T. ) ;
#19 = CYLINDRICAL_SURFACE ( 'NONE', #79, 0.2000000000000000944 ) ;
#20 = LINE ( 'NONE', #361, #192 ) ;
#21 = ORIENTED_EDGE ( 'NONE', *, *, #184, .T. ) ;
#22 = AXIS2_PLACEMENT_3D ( 'NONE', #245, #324, #8 ) ;
#23 =( LENGTH_UNIT ( ) NAMED_UNIT ( * ) SI_UNIT ( .MILLI., .METRE. ) );
#24 = EDGE_LOOP ( 'NONE', ( #60, #384, #104, #295 ) ) ;
#25 = DIRECTION ( 'NONE',  ( -1.000000000000000000, -0.000000000000000000, -0.000000000000000000 ) ) ;
#26 = VERTEX_POINT ( 'NONE', #168 ) ;
#27 = AXIS2_PLACEMENT_3D ( 'NONE', #430, #89, #46 ) ;
#28 = DIRECTION ( 'NONE',  ( -0.000000000000000000, 1.000000000000000000, -0.000000000000000000 ) ) ;
#29 = ORIENTED_EDGE ( 'NONE', *, *, #159, .F. ) ;
#30 = PRODUCT ( 'BAR4X10T1', 'BAR4X10T1', '', ( #51 ) ) ;
#31 = DIRECTION ( 'NONE',  ( -0.000000000000000000, 1.000000000000000000, -0.000000000000000000 ) ) ;
#32 = ORIENTED_EDGE ( 'NONE', *, *, #308, .T. ) ;
#33 = DIRECTION ( 'NONE',  ( 4.336808689942017736E-16, -0.000000000000000000, 1.000000000000000000 ) ) ;
#34 = ADVANCED_FACE ( 'NONE', ( #133 ), #53, .F. ) ;
#35 = ORIENTED_EDGE ( 'NONE', *, *, #326, .T. ) ;
#36 = CARTESIAN_POINT ( 'NONE',  ( -5.000000000000000000, 0.8000000000000000444, -1.799999999999999600 ) ) ;
#37 = VERTEX_POINT ( 'NONE', #56 ) ;
#38 = CARTESIAN_POINT ( 'NONE',  ( -4.800000000000000711, 1.000000000000000000, 1.800000000000000488 ) ) ;
#39 = VECTOR ( 'NONE', #368, 1000.000000000000000 ) ;
#40 = VERTEX_POINT ( 'NONE', #135 ) ;
#41 = CARTESIAN_POINT ( 'NONE',  ( -4.800000000000000711, 1.000000000000000000, 2.000000000000000444 ) ) ;
#42 = DIRECTION ( 'NONE',  ( -1.000000000000000000, 0.000000000000000000, 0.000000000000000000 ) ) ;
#43 = EDGE_CURVE ( 'NONE', #76, #37, #128, .T. ) ;
#44 = ORIENTED_EDGE ( 'NONE', *, *, #413, .T. ) ;
#45 = VECTOR ( 'NONE', #342, 1000.000000000000000 ) ;
#46 = DIRECTION ( 'NONE',  ( 1.000000000000000000, 0.000000000000000000, 0.000000000000000000 ) ) ;
#47 = LINE ( 'NONE', #429, #39 ) ;
#48 = CIRCLE ( 'NONE', #213, 0.2000000000000000944 ) ;
#49 = EDGE_CURVE ( 'NONE', #484, #420, #400, .T. ) ;
#50 = DIRECTION ( 'NONE',  ( 1.000000000000000000, 0.000000000000000000, -0.000000000000000000 ) ) ;
#51 = PRODUCT_CONTEXT ( 'NONE', #218, 'mechanical' ) ;
#52 = AXIS2_PLACEMENT_3D ( 'NONE', #199, #247, #92 ) ;
#53 = PLANE ( 'NONE',  #114 ) ;
#54 = VECTOR ( 'NONE', #423, 1000.000000000000000 ) ;
#55 =( NAMED_UNIT ( * ) SI_UNIT ( $, .STERADIAN. ) SOLID_ANGLE_UNIT ( ) );
#56 = CARTESIAN_POINT ( 'NONE',  ( 4.800000000000003375, 0.000000000000000000, 2.000000000000000444 ) ) ;
#57 = EDGE_CURVE ( 'NONE', #333, #304, #365, .T. ) ;
#58 = DIRECTION ( 'NONE',  ( 1.000000000000000000, 0.000000000000000000, -4.336808689942029076E-16 ) ) ;
#59 = CARTESIAN_POINT ( 'NONE',  ( 4.800000000000002487, 0.8000000000000000444, 1.800000000000000488 ) ) ;
#60 = ORIENTED_EDGE ( 'NONE', *, *, #475, .F. ) ;
#61 = CARTESIAN_POINT ( 'NONE',  ( -4.800000000000000711, 0.8000000000000000444, 0.000000000000000000 ) ) ;
#62 = ORIENTED_EDGE ( 'NONE', *, *, #239, .T. ) ;
#63 = UNCERTAINTY_MEASURE_WITH_UNIT (LENGTH_MEASURE( 1.000000000000000082E-05 ), #464, 'distance_accuracy_value', 'NONE');
#64 = AXIS2_PLACEMENT_3D ( 'NONE', #250, #401, #58 ) ;
#65 = DIRECTION ( 'NONE',  ( -1.000000000000000000, -0.000000000000000000, -0.000000000000000000 ) ) ;
#66 = EDGE_LOOP ( 'NONE', ( #381, #443, #369 ) ) ;
#67 = CARTESIAN_POINT ( 'NONE',  ( 4.800000000000002487, 1.000000000000000000, 1.800000000000000488 ) ) ;
#68 = ORIENTED_EDGE ( 'NONE', *, *, #271, .T. ) ;
#69 = CARTESIAN_POINT ( 'NONE',  ( 4.800000000000000711, 1.000000000000000000, -1.799999999999999600 ) ) ;
#70 = EDGE_LOOP ( 'NONE', ( #481, #260, #186, #293 ) ) ;
#71 = ADVANCED_FACE ( 'NONE', ( #394 ), #280, .T. ) ;
#72 = ADVANCED_FACE ( 'NONE', ( #87 ), #206, .T. ) ;
#73 = DIRECTION ( 'NONE',  ( -1.000000000000000000, 0.000000000000000000, 0.000000000000000000 ) ) ;
#74 = ORIENTED_EDGE ( 'NONE', *, *, #98, .T. ) ;
#75 = CARTESIAN_POINT ( 'NONE',  ( 5.000000000000001776, 1.000000000000000000, 1.800000000000000488 ) ) ;
#76 = VERTEX_POINT ( 'NONE', #357 ) ;
#77 = AXIS2_PLACEMENT_3D ( 'NONE', #240, #95, #393 ) ;
#78 = CYLINDRICAL_SURFACE ( 'NONE', #13, 0.2000000000000000944 ) ;
#79 = AXIS2_PLACEMENT_3D ( 'NONE', #221, #99, #474 ) ;
#80 = ORIENTED_EDGE ( 'NONE', *, *, #278, .F. ) ;
#81 = DIRECTION ( 'NONE',  ( 0.000000000000000000, -1.000000000000000000, 0.000000000000000000 ) ) ;
#82 = AXIS2_PLACEMENT_3D ( 'NONE', #290, #405, #331 ) ;
#83 = ORIENTED_EDGE ( 'NONE', *, *, #435, .F. ) ;
#84 = SPHERICAL_SURFACE ( 'NONE', #77, 0.2000000000000000111 ) ;
#85 = ORIENTED_EDGE ( 'NONE', *, *, #403, .F. ) ;
#86 = FACE_OUTER_BOUND ( 'NONE', #194, .T. ) ;
#87 = FACE_OUTER_BOUND ( 'NONE', #346, .T. ) ;
#88 = EDGE_CURVE ( 'NONE', #304, #26, #399, .T. ) ;
#89 = DIRECTION ( 'NONE',  ( 0.000000000000000000, 0.000000000000000000, 1.000000000000000000 ) ) ;
#90 = DIRECTION ( 'NONE',  ( -1.301042606982604690E-14, 0.000000000000000000, 1.000000000000000000 ) ) ;
#91 = AXIS2_PLACEMENT_3D ( 'NONE', #427, #12, #90 ) ;
#92 = DIRECTION ( 'NONE',  ( -1.000000000000000000, 0.000000000000000000, -0.000000000000000000 ) ) ;
#93 = SPHERICAL_SURFACE ( 'NONE', #235, 0.2000000000000000111 ) ;
#94 = PRODUCT_RELATED_PRODUCT_CATEGORY ( 'part', '', ( #30 ) ) ;
#95 = DIRECTION ( 'NONE',  ( 0.000000000000000000, 1.000000000000000000, 0.000000000000000000 ) ) ;
#96 = DIRECTION ( 'NONE',  ( 4.336808689942017736E-16, 0.000000000000000000, 1.000000000000000000 ) ) ;
#97 = DIRECTION ( 'NONE',  ( 0.000000000000000000, -0.000000000000000000, 1.000000000000000000 ) ) ;
#98 = EDGE_CURVE ( 'NONE', #146, #37, #449, .T. ) ;
#99 = DIRECTION ( 'NONE',  ( 0.000000000000000000, -1.000000000000000000, 0.000000000000000000 ) ) ;
#100 = VERTEX_POINT ( 'NONE', #10 ) ;
#101 = LINE ( 'NONE', #223, #275 ) ;
#102 = ORIENTED_EDGE ( 'NONE', *, *, #239, .F. ) ;
#103 = FACE_OUTER_BOUND ( 'NONE', #234, .T. ) ;
#104 = ORIENTED_EDGE ( 'NONE', *, *, #3, .F. ) ;
#105 = FACE_OUTER_BOUND ( 'NONE', #113, .T. ) ;
#106 = ORIENTED_EDGE ( 'NONE', *, *, #251, .F. ) ;
#107 = PRODUCT_DEFINITION_SHAPE ( 'NONE', 'NONE',  #237 ) ;
#108 = FILL_AREA_STYLE ('',( #297 ) ) ;
#109 = ADVANCED_FACE ( 'NONE', ( #17 ), #93, .T. ) ;
#110 = ORIENTED_EDGE ( 'NONE', *, *, #184, .F. ) ;
#111 = VECTOR ( 'NONE', #252, 1000.000000000000000 ) ;
#112 = CARTESIAN_POINT ( 'NONE',  ( 4.800000000000002487, 0.8000000000000000444, 1.800000000000000488 ) ) ;
#113 = EDGE_LOOP ( 'NONE', ( #411, #29, #339, #307 ) ) ;
#114 = AXIS2_PLACEMENT_3D ( 'NONE', #243, #470, #96 ) ;
#115 = CARTESIAN_POINT ( 'NONE',  ( 4.800000000000000711, 0.8000000000000000444, -1.799999999999999600 ) ) ;
#116 = EDGE_LOOP ( 'NONE', ( #408, #44, #121 ) ) ;
#117 = CARTESIAN_POINT ( 'NONE',  ( -5.000000000000000000, 1.000000000000000000, 1.800000000000000488 ) ) ;
#118 = ORIENTED_EDGE ( 'NONE', *, *, #451, .F. ) ;
#119 = FACE_OUTER_BOUND ( 'NONE', #140, .T. ) ;
#120 = AXIS2_PLACEMENT_3D ( 'NONE', #402, #268, #340 ) ;
#121 = ORIENTED_EDGE ( 'NONE', *, *, #197, .F. ) ;
#122 = DIRECTION ( 'NONE',  ( 0.000000000000000000, 1.000000000000000000, 0.000000000000000000 ) ) ;
#123 = CARTESIAN_POINT ( 'NONE',  ( -5.000000000000000000, 1.000000000000000000, -1.999999999999999556 ) ) ;
#124 = SHAPE_DEFINITION_REPRESENTATION ( #107, #202 ) ;
#125 = CYLINDRICAL_SURFACE ( 'NONE', #64, 0.1999999999999996503 ) ;
#126 = ADVANCED_FACE ( 'NONE', ( #321 ), #463, .T. ) ;
#127 = ADVANCED_FACE ( 'NONE', ( #328 ), #473, .F. ) ;
#128 = LINE ( 'NONE', #426, #131 ) ;
#129 = CARTESIAN_POINT ( 'NONE',  ( 4.799999999999999822, 0.000000000000000000, -1.999999999999999556 ) ) ;
#130 = FACE_OUTER_BOUND ( 'NONE', #434, .T. ) ;
#131 = VECTOR ( 'NONE', #286, 1000.000000000000000 ) ;
#132 = DIRECTION ( 'NONE',  ( 1.000000000000000000, 0.000000000000000000, 0.000000000000000000 ) ) ;
#133 = FACE_OUTER_BOUND ( 'NONE', #334, .T. ) ;
#134 = CARTESIAN_POINT ( 'NONE',  ( 5.000000000000000000, 0.8000000000000000444, -1.799999999999999600 ) ) ;
#135 = CARTESIAN_POINT ( 'NONE',  ( 5.000000000000001776, 0.8000000000000000444, 1.800000000000000488 ) ) ;
#136 = LINE ( 'NONE', #137, #272 ) ;
#137 = CARTESIAN_POINT ( 'NONE',  ( -5.000000000000000000, 0.000000000000000000, -1.999999999999999556 ) ) ;
#138 = ADVANCED_FACE ( 'NONE', ( #130 ), #125, .T. ) ;
#139 = CARTESIAN_POINT ( 'NONE',  ( 4.800000000000002487, 0.8000000000000000444, 2.000000000000000444 ) ) ;
#140 = EDGE_LOOP ( 'NONE', ( #222, #386, #148, #253 ) ) ;
#141 = CIRCLE ( 'NONE', #249, 0.2000000000000000944 ) ;
#142 = PRESENTATION_STYLE_ASSIGNMENT (( #257 ) ) ;
#143 = ORIENTED_EDGE ( 'NONE', *, *, #289, .T. ) ;
#144 = CIRCLE ( 'NONE', #82, 0.1999999999999996503 ) ;
#145 = EDGE_CURVE ( 'NONE', #156, #228, #47, .T. ) ;
#146 = VERTEX_POINT ( 'NONE', #370 ) ;
#147 = DIRECTION ( 'NONE',  ( 0.000000000000000000, -1.000000000000000000, 0.000000000000000000 ) ) ;
#148 = ORIENTED_EDGE ( 'NONE', *, *, #198, .F. ) ;
#149 = DIRECTION ( 'NONE',  ( -0.000000000000000000, -1.000000000000000000, -0.000000000000000000 ) ) ;
#150 = EDGE_LOOP ( 'NONE', ( #313, #277, #118 ) ) ;
#151 = LINE ( 'NONE', #75, #388 ) ;
#152 = ORIENTED_EDGE ( 'NONE', *, *, #174, .T. ) ;
#153 = ORIENTED_EDGE ( 'NONE', *, *, #215, .F. ) ;
#154 = DIRECTION ( 'NONE',  ( 0.000000000000000000, 0.000000000000000000, 1.000000000000000000 ) ) ;
#155 = CIRCLE ( 'NONE', #6, 0.2000000000000000944 ) ;
#156 = VERTEX_POINT ( 'NONE', #67 ) ;
#157 = LINE ( 'NONE', #385, #418 ) ;
#158 = ADVANCED_FACE ( 'NONE', ( #480 ), #254, .T. ) ;
#159 = EDGE_CURVE ( 'NONE', #175, #447, #444, .T. ) ;
#160 = CARTESIAN_POINT ( 'NONE',  ( -4.800000000000000711, 0.8000000000000000444, -1.799999999999999600 ) ) ;
#161 = DIRECTION ( 'NONE',  ( 1.000000000000000000, -4.336808689942018525E-15, 0.000000000000000000 ) ) ;
#162 = APPLICATION_CONTEXT ( 'automotive_design' ) ;
#163 = CIRCLE ( 'NONE', #270, 0.2000000000000000944 ) ;
#164 = CARTESIAN_POINT ( 'NONE',  ( -4.800000000000000711, 0.8000000000000000444, 1.800000000000000488 ) ) ;
#165 = DIRECTION ( 'NONE',  ( 0.000000000000000000, -1.000000000000000000, 0.000000000000000000 ) ) ;
#166 = AXIS2_PLACEMENT_3D ( 'NONE', #347, #4, #154 ) ;
#167 = CARTESIAN_POINT ( 'NONE',  ( 0.000000000000000000, 0.000000000000000000, 0.000000000000000000 ) ) ;
#168 = CARTESIAN_POINT ( 'NONE',  ( -5.000000000000000000, 0.000000000000000000, -1.799999999999999600 ) ) ;
#169 = AXIS2_PLACEMENT_3D ( 'NONE', #59, #25, #216 ) ;
#170 = CARTESIAN_POINT ( 'NONE',  ( -5.000000000000000000, 1.000000000000000000, -1.999999999999999556 ) ) ;
#171 = DIRECTION ( 'NONE',  ( 0.000000000000000000, -1.000000000000000000, 0.000000000000000000 ) ) ;
#172 = CARTESIAN_POINT ( 'NONE',  ( -5.000000000000000000, 0.8000000000000000444, 2.000000000000000444 ) ) ;
#173 = DIRECTION ( 'NONE',  ( -1.000000000000000000, 0.000000000000000000, 0.000000000000000000 ) ) ;
#174 = EDGE_CURVE ( 'NONE', #37, #175, #101, .T. ) ;
#175 = VERTEX_POINT ( 'NONE', #139 ) ;
#176 = AXIS2_PLACEMENT_3D ( 'NONE', #205, #281, #15 ) ;
#177 = UNCERTAINTY_MEASURE_WITH_UNIT (LENGTH_MEASURE( 1.000000000000000082E-05 ), #23, 'distance_accuracy_value', 'NONE');
#178 = LINE ( 'NONE', #436, #111 ) ;
#179 = AXIS2_PLACEMENT_3D ( 'NONE', #167, #322, #132 ) ;
#180 = ORIENTED_EDGE ( 'NONE', *, *, #145, .F. ) ;
#181 = VECTOR ( 'NONE', #345, 1000.000000000000000 ) ;
#182 = DIRECTION ( 'NONE',  ( 0.000000000000000000, 1.000000000000000000, -0.000000000000000000 ) ) ;
#183 = ORIENTED_EDGE ( 'NONE', *, *, #409, .T. ) ;
#184 = EDGE_CURVE ( 'NONE', #437, #228, #144, .T. ) ;
#185 = LINE ( 'NONE', #227, #45 ) ;
#186 = ORIENTED_EDGE ( 'NONE', *, *, #49, .F. ) ;
#187 = DIRECTION ( 'NONE',  ( 0.000000000000000000, 0.000000000000000000, 1.000000000000000000 ) ) ;
#188 = DIRECTION ( 'NONE',  ( 0.000000000000000000, 0.000000000000000000, 1.000000000000000000 ) ) ;
#189 = AXIS2_PLACEMENT_3D ( 'NONE', #112, #236, #1 ) ;
#190 = CARTESIAN_POINT ( 'NONE',  ( 5.000000000000001776, 0.8000000000000000444, 2.000000000000000444 ) ) ;
#191 = ORIENTED_EDGE ( 'NONE', *, *, #326, .F. ) ;
#192 = VECTOR ( 'NONE', #364, 1000.000000000000000 ) ;
#193 = CARTESIAN_POINT ( 'NONE',  ( 5.000000000000000000, 1.000000000000000000, -1.799999999999999600 ) ) ;
#194 = EDGE_LOOP ( 'NONE', ( #336, #68, #217, #152 ) ) ;
#195 = DIRECTION ( 'NONE',  ( -0.000000000000000000, 0.000000000000000000, 1.000000000000000000 ) ) ;
#196 = EDGE_LOOP ( 'NONE', ( #343, #264, #422, #416, #102, #453, #106, #74 ) ) ;
#197 = EDGE_CURVE ( 'NONE', #175, #156, #344, .T. ) ;
#198 = EDGE_CURVE ( 'NONE', #420, #447, #461, .T. ) ;
#199 = CARTESIAN_POINT ( 'NONE',  ( -5.000000000000000000, 1.000000000000000000, 2.000000000000000444 ) ) ;
#200 = VECTOR ( 'NONE', #33, 1000.000000000000000 ) ;
#201 = ORIENTED_EDGE ( 'NONE', *, *, #251, .T. ) ;
#202 = ADVANCED_BREP_SHAPE_REPRESENTATION ( 'BAR4X10T1', ( #224, #179 ), #317 ) ;
#203 = DIRECTION ( 'NONE',  ( 0.000000000000000000, 0.000000000000000000, -1.000000000000000000 ) ) ;
#204 = VECTOR ( 'NONE', #359, 1000.000000000000000 ) ;
#205 = CARTESIAN_POINT ( 'NONE',  ( -4.800000000000000711, 0.8000000000000000444, 1.800000000000000488 ) ) ;
#206 = CYLINDRICAL_SURFACE ( 'NONE', #490, 0.2000000000000000944 ) ;
#207 = AXIS2_PLACEMENT_3D ( 'NONE', #14, #315, #358 ) ;
#208 = DIRECTION ( 'NONE',  ( 0.000000000000000000, 0.000000000000000000, 1.000000000000000000 ) ) ;
#209 = DIRECTION ( 'NONE',  ( -1.000000000000000000, 0.000000000000000000, 0.000000000000000000 ) ) ;
#210 = AXIS2_PLACEMENT_3D ( 'NONE', #285, #244, #319 ) ;
#211 = CARTESIAN_POINT ( 'NONE',  ( -5.000000000000000000, 0.8000000000000000444, 1.800000000000000488 ) ) ;
#212 = CARTESIAN_POINT ( 'NONE',  ( 4.800000000000002487, 1.000000000000000000, 1.800000000000000488 ) ) ;
#213 = AXIS2_PLACEMENT_3D ( 'NONE', #376, #42, #188 ) ;
#214 = FACE_OUTER_BOUND ( 'NONE', #5, .T. ) ;
#215 = EDGE_CURVE ( 'NONE', #100, #478, #20, .T. ) ;
#216 = DIRECTION ( 'NONE',  ( 0.000000000000000000, 0.000000000000000000, -1.000000000000000000 ) ) ;
#217 = ORIENTED_EDGE ( 'NONE', *, *, #43, .T. ) ;
#218 = APPLICATION_CONTEXT ( 'automotive_design' ) ;
#219 = DIRECTION ( 'NONE',  ( 0.000000000000000000, 0.000000000000000000, 1.000000000000000000 ) ) ;
#220 = ORIENTED_EDGE ( 'NONE', *, *, #318, .T. ) ;
#221 = CARTESIAN_POINT ( 'NONE',  ( -4.800000000000000711, 1.000000000000000000, -1.799999999999999600 ) ) ;
#222 = ORIENTED_EDGE ( 'NONE', *, *, #387, .F. ) ;
#223 = CARTESIAN_POINT ( 'NONE',  ( 4.800000000000003375, 1.000000000000000000, 2.000000000000000444 ) ) ;
#224 = MANIFOLD_SOLID_BREP ( '\X2\570689d2\X0\1', #392 ) ;
#225 = EDGE_CURVE ( 'NONE', #478, #367, #439, .T. ) ;
#226 = FACE_OUTER_BOUND ( 'NONE', #301, .T. ) ;
#227 = CARTESIAN_POINT ( 'NONE',  ( -4.800000000000000711, 1.000000000000000000, 2.000000000000000444 ) ) ;
#228 = VERTEX_POINT ( 'NONE', #69 ) ;
#229 = FACE_OUTER_BOUND ( 'NONE', #66, .T. ) ;
#230 = ADVANCED_FACE ( 'NONE', ( #103 ), #19, .T. ) ;
#231 = ORIENTED_EDGE ( 'NONE', *, *, #145, .T. ) ;
#232 = VECTOR ( 'NONE', #31, 1000.000000000000000 ) ;
#233 = LINE ( 'NONE', #380, #412 ) ;
#234 = EDGE_LOOP ( 'NONE', ( #274, #406, #491, #153 ) ) ;
#235 = AXIS2_PLACEMENT_3D ( 'NONE', #284, #316, #391 ) ;
#236 = DIRECTION ( 'NONE',  ( -0.000000000000000000, 1.000000000000000000, 0.000000000000000000 ) ) ;
#237 = PRODUCT_DEFINITION ( 'UNKNOWN', '', #438, #471 ) ;
#238 = ORIENTED_EDGE ( 'NONE', *, *, #373, .T. ) ;
#239 = EDGE_CURVE ( 'NONE', #410, #100, #136, .T. ) ;
#240 = CARTESIAN_POINT ( 'NONE',  ( 4.800000000000000711, 0.8000000000000000444, -1.799999999999999600 ) ) ;
#241 = VERTEX_POINT ( 'NONE', #433 ) ;
#242 = CARTESIAN_POINT ( 'NONE',  ( -4.800000000000000711, 0.8000000000000000444, -1.999999999999999556 ) ) ;
#243 = CARTESIAN_POINT ( 'NONE',  ( 5.000000000000000000, 1.000000000000000000, -1.999999999999999556 ) ) ;
#244 = DIRECTION ( 'NONE',  ( 0.000000000000000000, 1.000000000000000000, 0.000000000000000000 ) ) ;
#245 = CARTESIAN_POINT ( 'NONE',  ( 0.000000000000000000, 0.8000000000000000444, -1.799999999999999600 ) ) ;
#246 = DIRECTION ( 'NONE',  ( 0.000000000000000000, 1.000000000000000000, 0.000000000000000000 ) ) ;
#247 = DIRECTION ( 'NONE',  ( 0.000000000000000000, 0.000000000000000000, -1.000000000000000000 ) ) ;
#248 = DIRECTION ( 'NONE',  ( 0.000000000000000000, 0.000000000000000000, -1.000000000000000000 ) ) ;
#249 = AXIS2_PLACEMENT_3D ( 'NONE', #459, #122, #276 ) ;
#250 = CARTESIAN_POINT ( 'NONE',  ( 4.800000000000001599, 0.8000000000000000444, -2.081668171172169302E-15 ) ) ;
#251 = EDGE_CURVE ( 'NONE', #146, #371, #178, .T. ) ;
#252 = DIRECTION ( 'NONE',  ( -4.336808689942017736E-16, -0.000000000000000000, -1.000000000000000000 ) ) ;
#253 = ORIENTED_EDGE ( 'NONE', *, *, #360, .F. ) ;
#254 = CYLINDRICAL_SURFACE ( 'NONE', #442, 0.1999999999999996503 ) ;
#255 = ORIENTED_EDGE ( 'NONE', *, *, #215, .T. ) ;
#256 = AXIS2_PLACEMENT_3D ( 'NONE', #452, #414, #73 ) ;
#257 = SURFACE_STYLE_USAGE ( .BOTH. , #338 ) ;
#258 = ORIENTED_EDGE ( 'NONE', *, *, #308, .F. ) ;
#259 = CYLINDRICAL_SURFACE ( 'NONE', #120, 0.2000000000000000944 ) ;
#260 = ORIENTED_EDGE ( 'NONE', *, *, #289, .F. ) ;
#261 = SURFACE_STYLE_FILL_AREA ( #108 ) ;
#262 = ORIENTED_EDGE ( 'NONE', *, *, #312, .T. ) ;
#263 = LINE ( 'NONE', #193, #466 ) ;
#264 = ORIENTED_EDGE ( 'NONE', *, *, #387, .T. ) ;
#265 = ADVANCED_FACE ( 'NONE', ( #105 ), #259, .T. ) ;
#266 = DIRECTION ( 'NONE',  ( 0.000000000000000000, 0.000000000000000000, 1.000000000000000000 ) ) ;
#267 = ORIENTED_EDGE ( 'NONE', *, *, #325, .F. ) ;
#268 = DIRECTION ( 'NONE',  ( -1.000000000000000000, 0.000000000000000000, 0.000000000000000000 ) ) ;
#269 = ORIENTED_EDGE ( 'NONE', *, *, #360, .T. ) ;
#270 = AXIS2_PLACEMENT_3D ( 'NONE', #164, #353, #9 ) ;
#271 = EDGE_CURVE ( 'NONE', #447, #76, #185, .T. ) ;
#272 = VECTOR ( 'NONE', #292, 1000.000000000000000 ) ;
#273 = CARTESIAN_POINT ( 'NONE',  ( 5.000000000000000000, 0.000000000000000000, -1.799999999999999600 ) ) ;
#274 = ORIENTED_EDGE ( 'NONE', *, *, #488, .F. ) ;
#275 = VECTOR ( 'NONE', #28, 1000.000000000000000 ) ;
#276 = DIRECTION ( 'NONE',  ( 0.000000000000000000, 0.000000000000000000, 1.000000000000000000 ) ) ;
#277 = ORIENTED_EDGE ( 'NONE', *, *, #198, .T. ) ;
#278 = EDGE_CURVE ( 'NONE', #437, #367, #155, .T. ) ;
#279 = DIRECTION ( 'NONE',  ( 1.000000000000000000, 0.000000000000000000, 0.000000000000000000 ) ) ;
#280 = CYLINDRICAL_SURFACE ( 'NONE', #415, 0.2000000000000000944 ) ;
#281 = DIRECTION ( 'NONE',  ( 0.000000000000000000, -0.000000000000000000, 1.000000000000000000 ) ) ;
#282 = ADVANCED_FACE ( 'NONE', ( #446 ), #448, .T. ) ;
#283 = DIRECTION ( 'NONE',  ( 4.336808689942017736E-15, 1.000000000000000000, 0.000000000000000000 ) ) ;
#284 = CARTESIAN_POINT ( 'NONE',  ( -4.800000000000000711, 0.8000000000000000444, 1.800000000000000488 ) ) ;
#285 = CARTESIAN_POINT ( 'NONE',  ( 4.800000000000002487, 0.8000000000000000444, 1.800000000000000488 ) ) ;
#286 = DIRECTION ( 'NONE',  ( 1.000000000000000000, 0.000000000000000000, 0.000000000000000000 ) ) ;
#287 =( NAMED_UNIT ( * ) PLANE_ANGLE_UNIT ( ) SI_UNIT ( $, .RADIAN. ) );
#288 = CARTESIAN_POINT ( 'NONE',  ( -5.000000000000000000, 1.000000000000000000, -1.799999999999999600 ) ) ;
#289 = EDGE_CURVE ( 'NONE', #420, #304, #233, .T. ) ;
#290 = CARTESIAN_POINT ( 'NONE',  ( 4.800000000000000711, 0.8000000000000000444, -1.799999999999999600 ) ) ;
#291 = ORIENTED_EDGE ( 'NONE', *, *, #435, .T. ) ;
#292 = DIRECTION ( 'NONE',  ( -1.000000000000000000, -0.000000000000000000, -0.000000000000000000 ) ) ;
#293 = ORIENTED_EDGE ( 'NONE', *, *, #373, .F. ) ;
#294 =( NAMED_UNIT ( * ) SI_UNIT ( $, .STERADIAN. ) SOLID_ANGLE_UNIT ( ) );
#295 = ORIENTED_EDGE ( 'NONE', *, *, #312, .F. ) ;
#296 = CIRCLE ( 'NONE', #210, 0.2000000000000000944 ) ;
#297 = FILL_AREA_STYLE_COLOUR ( '', #299 ) ;
#298 = ORIENTED_EDGE ( 'NONE', *, *, #174, .F. ) ;
#299 = COLOUR_RGB ( '',0.8980392156862745390, 0.9215686274509803377, 0.9294117647058823817 ) ;
#300 = CARTESIAN_POINT ( 'NONE',  ( 5.000000000000001776, 1.000000000000000000, 1.800000000000000488 ) ) ;
#301 = EDGE_LOOP ( 'NONE', ( #183, #269, #143, #450 ) ) ;
#302 = EDGE_CURVE ( 'NONE', #410, #371, #330, .T. ) ;
#303 = DIRECTION ( 'NONE',  ( -0.000000000000000000, 1.000000000000000000, 0.000000000000000000 ) ) ;
#304 = VERTEX_POINT ( 'NONE', #36 ) ;
#305 = AXIS2_PLACEMENT_3D ( 'NONE', #467, #354, #432 ) ;
#306 = LINE ( 'NONE', #190, #200 ) ;
#307 = ORIENTED_EDGE ( 'NONE', *, *, #318, .F. ) ;
#308 = EDGE_CURVE ( 'NONE', #40, #146, #151, .T. ) ;
#309 = DIRECTION ( 'NONE',  ( 0.000000000000000000, 0.000000000000000000, -1.000000000000000000 ) ) ;
#310 = ORIENTED_EDGE ( 'NONE', *, *, #413, .F. ) ;
#311 = CARTESIAN_POINT ( 'NONE',  ( -4.800000000000000711, 1.000000000000000000, -1.799999999999999600 ) ) ;
#312 = EDGE_CURVE ( 'NONE', #228, #333, #419, .T. ) ;
#313 = ORIENTED_EDGE ( 'NONE', *, *, #49, .T. ) ;
#314 = CARTESIAN_POINT ( 'NONE',  ( 0.000000000000000000, 1.000000000000000000, 0.000000000000000000 ) ) ;
#315 = DIRECTION ( 'NONE',  ( -0.000000000000000000, -1.000000000000000000, -0.000000000000000000 ) ) ;
#316 = DIRECTION ( 'NONE',  ( 0.000000000000000000, 1.000000000000000000, -0.000000000000000000 ) ) ;
#317 =( GEOMETRIC_REPRESENTATION_CONTEXT ( 3 ) GLOBAL_UNCERTAINTY_ASSIGNED_CONTEXT ( ( #63 ) ) GLOBAL_UNIT_ASSIGNED_CONTEXT ( ( #464, #287, #55 ) ) REPRESENTATION_CONTEXT ( 'NONE', 'WORKASPACE' ) );
#318 = EDGE_CURVE ( 'NONE', #484, #156, #486, .T. ) ;
#319 = DIRECTION ( 'NONE',  ( 0.000000000000000000, 0.000000000000000000, 1.000000000000000000 ) ) ;
#320 = VECTOR ( 'NONE', #195, 1000.000000000000000 ) ;
#321 = FACE_OUTER_BOUND ( 'NONE', #24, .T. ) ;
#322 = DIRECTION ( 'NONE',  ( 0.000000000000000000, 0.000000000000000000, 1.000000000000000000 ) ) ;
#323 = AXIS2_PLACEMENT_3D ( 'NONE', #160, #465, #209 ) ;
#324 = DIRECTION ( 'NONE',  ( 1.000000000000000000, 0.000000000000000000, 0.000000000000000000 ) ) ;
#325 = EDGE_CURVE ( 'NONE', #437, #40, #306, .T. ) ;
#326 = EDGE_CURVE ( 'NONE', #371, #437, #263, .T. ) ;
#327 = LINE ( 'NONE', #472, #479 ) ;
#328 = FACE_OUTER_BOUND ( 'NONE', #196, .T. ) ;
#329 = CARTESIAN_POINT ( 'NONE',  ( -4.800000000000000711, 0.8000000000000000444, 1.800000000000000488 ) ) ;
#330 = CIRCLE ( 'NONE', #356, 0.2000000000000000944 ) ;
#331 = DIRECTION ( 'NONE',  ( -1.000000000000000000, 0.000000000000000000, 0.000000000000000000 ) ) ;
#332 = AXIS2_PLACEMENT_3D ( 'NONE', #314, #246, #97 ) ;
#333 = VERTEX_POINT ( 'NONE', #311 ) ;
#334 = EDGE_LOOP ( 'NONE', ( #201, #35, #424, #32 ) ) ;
#335 = AXIS2_PLACEMENT_3D ( 'NONE', #425, #161, #283 ) ;
#336 = ORIENTED_EDGE ( 'NONE', *, *, #159, .T. ) ;
#337 = CIRCLE ( 'NONE', #27, 0.1999999999999996503 ) ;
#338 = SURFACE_SIDE_STYLE ('',( #261 ) ) ;
#339 = ORIENTED_EDGE ( 'NONE', *, *, #197, .T. ) ;
#340 = DIRECTION ( 'NONE',  ( 0.000000000000000000, 0.000000000000000000, 1.000000000000000000 ) ) ;
#341 = ORIENTED_EDGE ( 'NONE', *, *, #225, .T. ) ;
#342 = DIRECTION ( 'NONE',  ( 0.000000000000000000, -1.000000000000000000, 0.000000000000000000 ) ) ;
#343 = ORIENTED_EDGE ( 'NONE', *, *, #43, .F. ) ;
#344 = CIRCLE ( 'NONE', #169, 0.2000000000000000944 ) ;
#345 = DIRECTION ( 'NONE',  ( 1.000000000000000000, -0.000000000000000000, 0.000000000000000000 ) ) ;
#346 = EDGE_LOOP ( 'NONE', ( #456, #258, #85, #298 ) ) ;
#347 = CARTESIAN_POINT ( 'NONE',  ( -4.800000000000000711, 0.000000000000000000, 1.800000000000000488 ) ) ;
#348 = FACE_OUTER_BOUND ( 'NONE', #349, .T. ) ;
#349 = EDGE_LOOP ( 'NONE', ( #62, #255, #341, #291 ) ) ;
#350 = DIRECTION ( 'NONE',  ( 0.000000000000000000, -1.000000000000000000, 0.000000000000000000 ) ) ;
#351 = ADVANCED_FACE ( 'NONE', ( #229 ), #377, .T. ) ;
#352 = CARTESIAN_POINT ( 'NONE',  ( 4.799999999999999822, 1.000000000000000000, -1.799999999999999600 ) ) ;
#353 = DIRECTION ( 'NONE',  ( 1.000000000000000000, -0.000000000000000000, -0.000000000000000000 ) ) ;
#354 = DIRECTION ( 'NONE',  ( 0.000000000000000000, 1.000000000000000000, 0.000000000000000000 ) ) ;
#355 = FACE_OUTER_BOUND ( 'NONE', #2, .T. ) ;
#356 = AXIS2_PLACEMENT_3D ( 'NONE', #485, #149, #187 ) ;
#357 = CARTESIAN_POINT ( 'NONE',  ( -4.800000000000000711, 0.000000000000000000, 2.000000000000000444 ) ) ;
#358 = DIRECTION ( 'NONE',  ( 0.000000000000000000, 0.000000000000000000, 1.000000000000000000 ) ) ;
#359 = DIRECTION ( 'NONE',  ( 0.000000000000000000, -1.000000000000000000, 0.000000000000000000 ) ) ;
#360 = EDGE_CURVE ( 'NONE', #241, #420, #421, .T. ) ;
#361 = CARTESIAN_POINT ( 'NONE',  ( -4.800000000000000711, 1.000000000000000000, -1.999999999999999556 ) ) ;
#362 =( NAMED_UNIT ( * ) PLANE_ANGLE_UNIT ( ) SI_UNIT ( $, .RADIAN. ) );
#363 = EDGE_LOOP ( 'NONE', ( #378, #83, #80, #191 ) ) ;
#364 = DIRECTION ( 'NONE',  ( -0.000000000000000000, 1.000000000000000000, -0.000000000000000000 ) ) ;
#365 = CIRCLE ( 'NONE', #323, 0.1999999999999996503 ) ;
#366 = ADVANCED_FACE ( 'NONE', ( #119 ), #78, .T. ) ;
#367 = VERTEX_POINT ( 'NONE', #455 ) ;
#368 = DIRECTION ( 'NONE',  ( -4.336808689942017736E-16, 0.000000000000000000, -1.000000000000000000 ) ) ;
#369 = ORIENTED_EDGE ( 'NONE', *, *, #57, .F. ) ;
#370 = CARTESIAN_POINT ( 'NONE',  ( 5.000000000000001776, 0.000000000000000000, 1.800000000000000488 ) ) ;
#371 = VERTEX_POINT ( 'NONE', #273 ) ;
#372 = AXIS2_PLACEMENT_3D ( 'NONE', #170, #279, #203 ) ;
#373 = EDGE_CURVE ( 'NONE', #333, #484, #383, .T. ) ;
#374 = PLANE ( 'NONE',  #372 ) ;
#375 = CARTESIAN_POINT ( 'NONE',  ( -5.000000000000000000, 1.000000000000000000, -1.799999999999999600 ) ) ;
#376 = CARTESIAN_POINT ( 'NONE',  ( -4.800000000000000711, 0.8000000000000000444, -1.799999999999999600 ) ) ;
#377 = SPHERICAL_SURFACE ( 'NONE', #256, 0.2000000000000000111 ) ;
#378 = ORIENTED_EDGE ( 'NONE', *, *, #302, .F. ) ;
#379 = CIRCLE ( 'NONE', #166, 0.2000000000000000944 ) ;
#380 = CARTESIAN_POINT ( 'NONE',  ( -5.000000000000000000, 0.8000000000000000444, -1.999999999999999556 ) ) ;
#381 = ORIENTED_EDGE ( 'NONE', *, *, #3, .T. ) ;
#382 = PRESENTATION_LAYER_ASSIGNMENT (  '', '', ( #468 ) ) ;
#383 = LINE ( 'NONE', #41, #320 ) ;
#384 = ORIENTED_EDGE ( 'NONE', *, *, #225, .F. ) ;
#385 = CARTESIAN_POINT ( 'NONE',  ( 4.799999999999999822, 1.000000000000000000, -1.999999999999999556 ) ) ;
#386 = ORIENTED_EDGE ( 'NONE', *, *, #271, .F. ) ;
#387 = EDGE_CURVE ( 'NONE', #76, #241, #379, .T. ) ;
#388 = VECTOR ( 'NONE', #147, 1000.000000000000000 ) ;
#389 = EDGE_CURVE ( 'NONE', #478, #304, #141, .T. ) ;
#390 = CARTESIAN_POINT ( 'NONE',  ( -4.800000000000000711, 1.000000000000000000, 1.800000000000000488 ) ) ;
#391 = DIRECTION ( 'NONE',  ( 0.000000000000000000, 0.000000000000000000, 1.000000000000000000 ) ) ;
#392 = CLOSED_SHELL ( 'NONE', ( #34, #7, #395, #476, #18, #127, #230, #126, #71, #351, #458, #366, #158, #138, #72, #109, #282, #265 ) ) ;
#393 = DIRECTION ( 'NONE',  ( -1.000000000000000000, 0.000000000000000000, 4.336808689942024836E-15 ) ) ;
#394 = FACE_OUTER_BOUND ( 'NONE', #363, .T. ) ;
#395 = ADVANCED_FACE ( 'NONE', ( #226 ), #374, .F. ) ;
#396 = APPLICATION_PROTOCOL_DEFINITION ( 'draft international standard', 'automotive_design', 1998, #218 ) ;
#397 = DIRECTION ( 'NONE',  ( 0.000000000000000000, 0.000000000000000000, -1.000000000000000000 ) ) ;
#398 = CIRCLE ( 'NONE', #207, 0.2000000000000000944 ) ;
#399 = LINE ( 'NONE', #288, #204 ) ;
#400 = CIRCLE ( 'NONE', #176, 0.1999999999999996503 ) ;
#401 = DIRECTION ( 'NONE',  ( 4.336808689942017736E-16, -0.000000000000000000, 1.000000000000000000 ) ) ;
#402 = CARTESIAN_POINT ( 'NONE',  ( 0.000000000000000000, 0.8000000000000000444, 1.800000000000000488 ) ) ;
#403 = EDGE_CURVE ( 'NONE', #175, #40, #296, .T. ) ;
#404 =( GEOMETRIC_REPRESENTATION_CONTEXT ( 3 ) GLOBAL_UNCERTAINTY_ASSIGNED_CONTEXT ( ( #177 ) ) GLOBAL_UNIT_ASSIGNED_CONTEXT ( ( #23, #362, #294 ) ) REPRESENTATION_CONTEXT ( 'NONE', 'WORKASPACE' ) );
#405 = DIRECTION ( 'NONE',  ( -0.000000000000000000, -0.000000000000000000, 1.000000000000000000 ) ) ;
#406 = ORIENTED_EDGE ( 'NONE', *, *, #88, .F. ) ;
#407 = AXIS2_PLACEMENT_3D ( 'NONE', #329, #182, #219 ) ;
#408 = ORIENTED_EDGE ( 'NONE', *, *, #403, .T. ) ;
#409 = EDGE_CURVE ( 'NONE', #26, #241, #327, .T. ) ;
#410 = VERTEX_POINT ( 'NONE', #129 ) ;
#411 = ORIENTED_EDGE ( 'NONE', *, *, #451, .T. ) ;
#412 = VECTOR ( 'NONE', #417, 1000.000000000000000 ) ;
#413 = EDGE_CURVE ( 'NONE', #40, #156, #337, .T. ) ;
#414 = DIRECTION ( 'NONE',  ( 0.000000000000000000, 1.000000000000000000, 0.000000000000000000 ) ) ;
#415 = AXIS2_PLACEMENT_3D ( 'NONE', #352, #171, #248 ) ;
#416 = ORIENTED_EDGE ( 'NONE', *, *, #488, .T. ) ;
#417 = DIRECTION ( 'NONE',  ( 0.000000000000000000, -0.000000000000000000, -1.000000000000000000 ) ) ;
#418 = VECTOR ( 'NONE', #350, 1000.000000000000000 ) ;
#419 = LINE ( 'NONE', #375, #54 ) ;
#420 = VERTEX_POINT ( 'NONE', #211 ) ;
#421 = LINE ( 'NONE', #117, #232 ) ;
#422 = ORIENTED_EDGE ( 'NONE', *, *, #409, .F. ) ;
#423 = DIRECTION ( 'NONE',  ( -1.000000000000000000, 0.000000000000000000, 0.000000000000000000 ) ) ;
#424 = ORIENTED_EDGE ( 'NONE', *, *, #325, .T. ) ;
#425 = CARTESIAN_POINT ( 'NONE',  ( 4.799999999999999822, 0.8000000000000000444, -1.799999999999999600 ) ) ;
#426 = CARTESIAN_POINT ( 'NONE',  ( -5.000000000000000000, 0.000000000000000000, 2.000000000000000444 ) ) ;
#427 = CARTESIAN_POINT ( 'NONE',  ( 4.800000000000002487, 0.000000000000000000, 1.800000000000000488 ) ) ;
#428 = AXIS2_PLACEMENT_3D ( 'NONE', #123, #487, #50 ) ;
#429 = CARTESIAN_POINT ( 'NONE',  ( 4.800000000000000711, 1.000000000000000000, -1.999999999999999556 ) ) ;
#430 = CARTESIAN_POINT ( 'NONE',  ( 4.800000000000002487, 0.8000000000000000444, 1.800000000000000488 ) ) ;
#431 = PLANE ( 'NONE',  #332 ) ;
#432 = DIRECTION ( 'NONE',  ( 0.000000000000000000, -0.000000000000000000, 1.000000000000000000 ) ) ;
#433 = CARTESIAN_POINT ( 'NONE',  ( -5.000000000000000000, 0.000000000000000000, 1.800000000000000488 ) ) ;
#434 = EDGE_LOOP ( 'NONE', ( #21, #180, #310, #267 ) ) ;
#435 = EDGE_CURVE ( 'NONE', #367, #410, #157, .T. ) ;
#436 = CARTESIAN_POINT ( 'NONE',  ( 5.000000000000000000, 0.000000000000000000, -1.999999999999999556 ) ) ;
#437 = VERTEX_POINT ( 'NONE', #134 ) ;
#438 = PRODUCT_DEFINITION_FORMATION_WITH_SPECIFIED_SOURCE ( 'ANY', '', #30, .NOT_KNOWN. ) ;
#439 = LINE ( 'NONE', #441, #457 ) ;
#440 = ORIENTED_EDGE ( 'NONE', *, *, #475, .T. ) ;
#441 = CARTESIAN_POINT ( 'NONE',  ( 5.000000000000000000, 0.8000000000000000444, -1.999999999999999556 ) ) ;
#442 = AXIS2_PLACEMENT_3D ( 'NONE', #61, #482, #173 ) ;
#443 = ORIENTED_EDGE ( 'NONE', *, *, #389, .T. ) ;
#444 = LINE ( 'NONE', #172, #16 ) ;
#445 = ORIENTED_EDGE ( 'NONE', *, *, #278, .T. ) ;
#446 = FACE_OUTER_BOUND ( 'NONE', #116, .T. ) ;
#447 = VERTEX_POINT ( 'NONE', #11 ) ;
#448 = SPHERICAL_SURFACE ( 'NONE', #189, 0.2000000000000000111 ) ;
#449 = CIRCLE ( 'NONE', #91, 0.2000000000000000944 ) ;
#450 = ORIENTED_EDGE ( 'NONE', *, *, #88, .T. ) ;
#451 = EDGE_CURVE ( 'NONE', #484, #447, #163, .T. ) ;
#452 = CARTESIAN_POINT ( 'NONE',  ( -4.800000000000000711, 0.8000000000000000444, -1.799999999999999600 ) ) ;
#453 = ORIENTED_EDGE ( 'NONE', *, *, #302, .T. ) ;
#454 = CIRCLE ( 'NONE', #335, 0.1999999999999999833 ) ;
#455 = CARTESIAN_POINT ( 'NONE',  ( 4.799999999999999822, 0.8000000000000000444, -1.999999999999999556 ) ) ;
#456 = ORIENTED_EDGE ( 'NONE', *, *, #98, .F. ) ;
#457 = VECTOR ( 'NONE', #477, 1000.000000000000000 ) ;
#458 = ADVANCED_FACE ( 'NONE', ( #355 ), #84, .T. ) ;
#459 = CARTESIAN_POINT ( 'NONE',  ( -4.800000000000000711, 0.8000000000000000444, -1.799999999999999600 ) ) ;
#460 = PLANE ( 'NONE',  #428 ) ;
#461 = CIRCLE ( 'NONE', #407, 0.2000000000000000944 ) ;
#462 = APPLICATION_PROTOCOL_DEFINITION ( 'draft international standard', 'automotive_design', 1998, #162 ) ;
#463 = CYLINDRICAL_SURFACE ( 'NONE', #22, 0.2000000000000000944 ) ;
#464 =( LENGTH_UNIT ( ) NAMED_UNIT ( * ) SI_UNIT ( .MILLI., .METRE. ) );
#465 = DIRECTION ( 'NONE',  ( -0.000000000000000000, -0.000000000000000000, 1.000000000000000000 ) ) ;
#466 = VECTOR ( 'NONE', #489, 1000.000000000000000 ) ;
#467 = CARTESIAN_POINT ( 'NONE',  ( 0.000000000000000000, 0.000000000000000000, 0.000000000000000000 ) ) ;
#468 = STYLED_ITEM ( 'NONE', ( #142 ), #224 ) ;
#469 = PLANE ( 'NONE',  #52 ) ;
#470 = DIRECTION ( 'NONE',  ( -1.000000000000000000, 0.000000000000000000, 4.336808689942017736E-16 ) ) ;
#471 = PRODUCT_DEFINITION_CONTEXT ( 'detailed design', #162, 'design' ) ;
#472 = CARTESIAN_POINT ( 'NONE',  ( -5.000000000000000000, 0.000000000000000000, -1.999999999999999556 ) ) ;
#473 = PLANE ( 'NONE',  #305 ) ;
#474 = DIRECTION ( 'NONE',  ( 0.000000000000000000, 0.000000000000000000, -1.000000000000000000 ) ) ;
#475 = EDGE_CURVE ( 'NONE', #367, #228, #454, .T. ) ;
#476 = ADVANCED_FACE ( 'NONE', ( #86 ), #469, .F. ) ;
#477 = DIRECTION ( 'NONE',  ( 1.000000000000000000, -0.000000000000000000, -0.000000000000000000 ) ) ;
#478 = VERTEX_POINT ( 'NONE', #242 ) ;
#479 = VECTOR ( 'NONE', #208, 1000.000000000000000 ) ;
#480 = FACE_OUTER_BOUND ( 'NONE', #70, .T. ) ;
#481 = ORIENTED_EDGE ( 'NONE', *, *, #57, .T. ) ;
#482 = DIRECTION ( 'NONE',  ( 0.000000000000000000, 0.000000000000000000, -1.000000000000000000 ) ) ;
#483 = MECHANICAL_DESIGN_GEOMETRIC_PRESENTATION_REPRESENTATION (  '', ( #468 ), #404 ) ;
#484 = VERTEX_POINT ( 'NONE', #390 ) ;
#485 = CARTESIAN_POINT ( 'NONE',  ( 4.799999999999999822, 0.000000000000000000, -1.799999999999999600 ) ) ;
#486 = LINE ( 'NONE', #300, #181 ) ;
#487 = DIRECTION ( 'NONE',  ( 0.000000000000000000, 0.000000000000000000, 1.000000000000000000 ) ) ;
#488 = EDGE_CURVE ( 'NONE', #26, #100, #398, .T. ) ;
#489 = DIRECTION ( 'NONE',  ( -0.000000000000000000, 1.000000000000000000, -0.000000000000000000 ) ) ;
#490 = AXIS2_PLACEMENT_3D ( 'NONE', #212, #165, #397 ) ;
#491 = ORIENTED_EDGE ( 'NONE', *, *, #389, .F. ) ;
ENDSEC;
END-ISO-10303-21;
