ISO-10303-21;
HEADER;
FILE_DESCRIPTION (( 'STEP AP203' ),
    '1' );
FILE_NAME ('BAR4X18T2.step',
    '2026-03-22T07:17:33',
    ( '' ),
    ( '' ),
    'SwSTEP 2.0',
    'SolidWorks 2025',
    '' );
FILE_SCHEMA (( 'CONFIG_CONTROL_DESIGN' ));
ENDSEC;

DATA;
#1 = ORIENTED_EDGE ( 'NONE', *, *, #432, .T. ) ;
#2 = DIRECTION ( 'NONE',  ( 0.000000000000000000, 0.000000000000000000, 1.000000000000000000 ) ) ;
#3 = VERTEX_POINT ( 'NONE', #18 ) ;
#4 = ORIENTED_EDGE ( 'NONE', *, *, #243, .F. ) ;
#5 = CARTESIAN_POINT ( 'NONE',  ( -9.000000000000001776, 2.000000000000000000, -2.000000000000000444 ) ) ;
#6 = EDGE_LOOP ( 'NONE', ( #170, #77, #332, #376 ) ) ;
#7 = DIRECTION ( 'NONE',  ( 0.000000000000000000, 0.000000000000000000, 1.000000000000000000 ) ) ;
#8 = DIRECTION ( 'NONE',  ( 0.000000000000000000, -1.000000000000000000, 0.000000000000000000 ) ) ;
#9 = EDGE_CURVE ( 'NONE', #493, #498, #100, .T. ) ;
#10 = CIRCLE ( 'NONE', #387, 0.2000000000000000944 ) ;
#11 = CARTESIAN_POINT ( 'NONE',  ( 8.799999999999995381, 2.000000000000000000, -2.000000000000000444 ) ) ;
#12 = APPROVAL ( #309, 'UNSPECIFIED' ) ;
#13 = CARTESIAN_POINT ( 'NONE',  ( -9.000000000000001776, 1.800000000000000044, -1.800000000000000488 ) ) ;
#14 = ADVANCED_FACE ( 'NONE', ( #225 ), #141, .T. ) ;
#15 = DATE_AND_TIME ( #515, #525 ) ;
#16 = CARTESIAN_POINT ( 'NONE',  ( 8.799999999999997158, 2.000000000000000000, 1.799999999999999600 ) ) ;
#17 = PERSON_AND_ORGANIZATION ( #121, #481 ) ;
#18 = CARTESIAN_POINT ( 'NONE',  ( 8.799999999999995381, 0.000000000000000000, -2.000000000000000444 ) ) ;
#19 = APPROVAL_STATUS ( 'not_yet_approved' ) ;
#20 = CIRCLE ( 'NONE', #437, 0.2000000000000000944 ) ;
#21 = DIRECTION ( 'NONE',  ( 0.000000000000000000, 1.000000000000000000, -0.000000000000000000 ) ) ;
#22 = CARTESIAN_POINT ( 'NONE',  ( 8.799999999999995381, 1.800000000000000044, -2.000000000000000444 ) ) ;
#23 = CARTESIAN_POINT ( 'NONE',  ( 8.799999999999997158, 0.000000000000000000, 1.799999999999999600 ) ) ;
#24 = DIRECTION ( 'NONE',  ( 0.000000000000000000, 0.000000000000000000, 1.000000000000000000 ) ) ;
#25 = DIRECTION ( 'NONE',  ( 0.000000000000000000, -1.000000000000000000, 0.000000000000000000 ) ) ;
#26 = EDGE_CURVE ( 'NONE', #498, #125, #266, .T. ) ;
#27 = LINE ( 'NONE', #483, #395 ) ;
#28 = ADVANCED_FACE ( 'NONE', ( #269 ), #187, .T. ) ;
#29 = DIRECTION ( 'NONE',  ( 0.000000000000000000, -1.000000000000000000, 0.000000000000000000 ) ) ;
#30 = CARTESIAN_POINT ( 'NONE',  ( -8.800000000000000711, 2.000000000000000000, 1.799999999999999600 ) ) ;
#31 = CC_DESIGN_PERSON_AND_ORGANIZATION_ASSIGNMENT ( #138, #94, ( #90 ) ) ;
#32 = DIRECTION ( 'NONE',  ( 0.000000000000000000, -0.000000000000000000, 1.000000000000000000 ) ) ;
#33 = AXIS2_PLACEMENT_3D ( 'NONE', #5, #537, #457 ) ;
#34 = AXIS2_PLACEMENT_3D ( 'NONE', #130, #32, #207 ) ;
#35 = CARTESIAN_POINT ( 'NONE',  ( -8.800000000000000711, 1.800000000000000044, -2.000000000000000444 ) ) ;
#36 = ORIENTED_EDGE ( 'NONE', *, *, #413, .F. ) ;
#37 = CARTESIAN_POINT ( 'NONE',  ( -8.800000000000000711, 1.800000000000000044, -1.800000000000000488 ) ) ;
#38 = VERTEX_POINT ( 'NONE', #13 ) ;
#39 = AXIS2_PLACEMENT_3D ( 'NONE', #424, #397, #52 ) ;
#40 = CARTESIAN_POINT ( 'NONE',  ( -8.800000000000000711, 1.800000000000000044, 1.799999999999999600 ) ) ;
#41 = ORIENTED_EDGE ( 'NONE', *, *, #240, .F. ) ;
#42 = ORIENTED_EDGE ( 'NONE', *, *, #229, .F. ) ;
#43 = FACE_OUTER_BOUND ( 'NONE', #297, .T. ) ;
#44 = ORIENTED_EDGE ( 'NONE', *, *, #243, .T. ) ;
#45 = EDGE_LOOP ( 'NONE', ( #252, #132, #48, #255 ) ) ;
#46 = PRODUCT_DEFINITION_SHAPE ( 'NONE', 'NONE',  #90 ) ;
#47 = CARTESIAN_POINT ( 'NONE',  ( 8.799999999999997158, 2.000000000000000000, -2.000000000000000444 ) ) ;
#48 = ORIENTED_EDGE ( 'NONE', *, *, #242, .F. ) ;
#49 = EDGE_CURVE ( 'NONE', #500, #493, #95, .T. ) ;
#50 = ADVANCED_FACE ( 'NONE', ( #514 ), #227, .T. ) ;
#51 = DIRECTION ( 'NONE',  ( 0.000000000000000000, 1.000000000000000000, 0.000000000000000000 ) ) ;
#52 = DIRECTION ( 'NONE',  ( 8.673617379884030739E-15, 1.000000000000000000, 0.000000000000000000 ) ) ;
#53 = DATE_TIME_ROLE ( 'creation_date' ) ;
#54 = VECTOR ( 'NONE', #123, 1000.000000000000000 ) ;
#55 = EDGE_LOOP ( 'NONE', ( #164, #177, #42, #465, #81, #124, #436, #213 ) ) ;
#56 = DATE_AND_TIME ( #472, #155 ) ;
#57 = CYLINDRICAL_SURFACE ( 'NONE', #99, 0.2000000000000000944 ) ;
#58 = ORIENTED_EDGE ( 'NONE', *, *, #513, .F. ) ;
#59 = CC_DESIGN_APPROVAL ( #12, ( #142 ) ) ;
#60 = LINE ( 'NONE', #47, #85 ) ;
#61 = CIRCLE ( 'NONE', #363, 0.2000000000000000944 ) ;
#62 = ORIENTED_EDGE ( 'NONE', *, *, #185, .T. ) ;
#63 = DESIGN_CONTEXT ( 'detailed design', #235, 'design' ) ;
#64 = DIRECTION ( 'NONE',  ( -1.000000000000000000, 0.000000000000000000, 0.000000000000000000 ) ) ;
#65 = DIRECTION ( 'NONE',  ( 0.000000000000000000, 0.000000000000000000, 1.000000000000000000 ) ) ;
#66 = ADVANCED_FACE ( 'NONE', ( #136 ), #57, .T. ) ;
#67 = MECHANICAL_CONTEXT ( 'NONE', #531, 'mechanical' ) ;
#68 = DIRECTION ( 'NONE',  ( -0.000000000000000000, 1.000000000000000000, -0.000000000000000000 ) ) ;
#69 =( GEOMETRIC_REPRESENTATION_CONTEXT ( 3 ) GLOBAL_UNCERTAINTY_ASSIGNED_CONTEXT ( ( #194 ) ) GLOBAL_UNIT_ASSIGNED_CONTEXT ( ( #476, #526, #433 ) ) REPRESENTATION_CONTEXT ( 'NONE', 'WORKASPACE' ) );
#70 = SPHERICAL_SURFACE ( 'NONE', #209, 0.2000000000000000111 ) ;
#71 = LINE ( 'NONE', #405, #322 ) ;
#72 = DIRECTION ( 'NONE',  ( -1.000000000000000000, 0.000000000000000000, 8.673617379884013384E-15 ) ) ;
#73 = DIRECTION ( 'NONE',  ( 0.000000000000000000, 0.000000000000000000, -1.000000000000000000 ) ) ;
#74 = ORIENTED_EDGE ( 'NONE', *, *, #529, .T. ) ;
#75 = VECTOR ( 'NONE', #499, 1000.000000000000000 ) ;
#76 = DIRECTION ( 'NONE',  ( -1.000000000000000000, -0.000000000000000000, -0.000000000000000000 ) ) ;
#77 = ORIENTED_EDGE ( 'NONE', *, *, #339, .T. ) ;
#78 = CARTESIAN_POINT ( 'NONE',  ( 8.999999999999998224, 2.000000000000000000, 1.799999999999999600 ) ) ;
#79 = ORIENTED_EDGE ( 'NONE', *, *, #475, .F. ) ;
#80 = EDGE_CURVE ( 'NONE', #350, #38, #520, .T. ) ;
#81 = ORIENTED_EDGE ( 'NONE', *, *, #206, .F. ) ;
#82 = AXIS2_PLACEMENT_3D ( 'NONE', #180, #305, #72 ) ;
#83 = CARTESIAN_POINT ( 'NONE',  ( -8.800000000000000711, 2.000000000000000000, -1.800000000000000488 ) ) ;
#84 = EDGE_LOOP ( 'NONE', ( #330, #409, #263, #373 ) ) ;
#85 = VECTOR ( 'NONE', #316, 1000.000000000000000 ) ;
#86 = EDGE_CURVE ( 'NONE', #375, #500, #92, .T. ) ;
#87 = COORDINATED_UNIVERSAL_TIME_OFFSET ( 8, 0, .AHEAD. ) ;
#88 = DIRECTION ( 'NONE',  ( -0.000000000000000000, -1.000000000000000000, -0.000000000000000000 ) ) ;
#89 = EDGE_LOOP ( 'NONE', ( #497, #79, #167, #172 ) ) ;
#90 = PRODUCT_DEFINITION ( 'UNKNOWN', '', #377, #63 ) ;
#91 = EDGE_LOOP ( 'NONE', ( #412, #307, #256 ) ) ;
#92 = LINE ( 'NONE', #228, #383 ) ;
#93 = VERTEX_POINT ( 'NONE', #261 ) ;
#94 = PERSON_AND_ORGANIZATION_ROLE ( 'creator' ) ;
#95 = LINE ( 'NONE', #429, #238 ) ;
#96 = CALENDAR_DATE ( 2026, 22, 3 ) ;
#97 = DIRECTION ( 'NONE',  ( -1.000000000000000000, 0.000000000000000000, 0.000000000000000000 ) ) ;
#98 = CALENDAR_DATE ( 2026, 22, 3 ) ;
#99 = AXIS2_PLACEMENT_3D ( 'NONE', #517, #468, #394 ) ;
#100 = LINE ( 'NONE', #470, #495 ) ;
#101 = CARTESIAN_POINT ( 'NONE',  ( -8.800000000000000711, 1.800000000000000044, 1.999999999999999556 ) ) ;
#102 = CARTESIAN_POINT ( 'NONE',  ( 8.999999999999998224, 0.000000000000000000, 1.799999999999999600 ) ) ;
#103 = VECTOR ( 'NONE', #64, 1000.000000000000000 ) ;
#104 = CARTESIAN_POINT ( 'NONE',  ( -9.000000000000001776, 0.000000000000000000, 1.799999999999999600 ) ) ;
#105 = CC_DESIGN_DATE_AND_TIME_ASSIGNMENT ( #466, #143, ( #142 ) ) ;
#106 = ADVANCED_FACE ( 'NONE', ( #221 ), #310, .T. ) ;
#107 = CARTESIAN_POINT ( 'NONE',  ( -9.000000000000001776, 0.000000000000000000, -2.000000000000000444 ) ) ;
#108 = CIRCLE ( 'NONE', #292, 0.2000000000000005107 ) ;
#109 = DIRECTION ( 'NONE',  ( 0.000000000000000000, 0.000000000000000000, 1.000000000000000000 ) ) ;
#110 = CIRCLE ( 'NONE', #186, 0.2000000000000005107 ) ;
#111 = CIRCLE ( 'NONE', #324, 0.2000000000000000944 ) ;
#112 = LINE ( 'NONE', #198, #278 ) ;
#113 = CARTESIAN_POINT ( 'NONE',  ( 8.999999999999998224, 1.800000000000000044, -2.000000000000000444 ) ) ;
#114 = AXIS2_PLACEMENT_3D ( 'NONE', #267, #8, #391 ) ;
#115 = CARTESIAN_POINT ( 'NONE',  ( -8.800000000000000711, 0.000000000000000000, 1.999999999999999556 ) ) ;
#116 = EDGE_LOOP ( 'NONE', ( #462, #450, #431, #511 ) ) ;
#117 = PLANE ( 'NONE',  #33 ) ;
#118 = EDGE_CURVE ( 'NONE', #415, #125, #443, .T. ) ;
#119 = ORIENTED_EDGE ( 'NONE', *, *, #534, .T. ) ;
#120 = LOCAL_TIME ( 15, 17, 33.00000000000000000, #134 ) ;
#121 = PERSON ( 'UNSPECIFIED', 'UNSPECIFIED', 'UNSPECIFIED', ('UNSPECIFIED'), ('UNSPECIFIED'), ('UNSPECIFIED') ) ;
#122 = AXIS2_PLACEMENT_3D ( 'NONE', #23, #369, #236 ) ;
#123 = DIRECTION ( 'NONE',  ( 1.000000000000000000, -0.000000000000000000, 0.000000000000000000 ) ) ;
#124 = ORIENTED_EDGE ( 'NONE', *, *, #509, .T. ) ;
#125 = VERTEX_POINT ( 'NONE', #477 ) ;
#126 = AXIS2_PLACEMENT_3D ( 'NONE', #355, #506, #265 ) ;
#127 = CARTESIAN_POINT ( 'NONE',  ( 8.799999999999995381, 2.000000000000000000, 1.999999999999999556 ) ) ;
#128 = AXIS2_PLACEMENT_3D ( 'NONE', #532, #314, #488 ) ;
#129 = ORIENTED_EDGE ( 'NONE', *, *, #152, .T. ) ;
#130 = CARTESIAN_POINT ( 'NONE',  ( 8.799999999999997158, 1.800000000000000044, 0.000000000000000000 ) ) ;
#131 = ADVANCED_FACE ( 'NONE', ( #519 ), #388, .T. ) ;
#132 = ORIENTED_EDGE ( 'NONE', *, *, #239, .F. ) ;
#133 = AXIS2_PLACEMENT_3D ( 'NONE', #311, #51, #273 ) ;
#134 = COORDINATED_UNIVERSAL_TIME_OFFSET ( 8, 0, .AHEAD. ) ;
#135 = DIRECTION ( 'NONE',  ( 0.000000000000000000, 0.000000000000000000, 1.000000000000000000 ) ) ;
#136 = FACE_OUTER_BOUND ( 'NONE', #459, .T. ) ;
#137 = ORIENTED_EDGE ( 'NONE', *, *, #340, .F. ) ;
#138 = PERSON_AND_ORGANIZATION ( #121, #481 ) ;
#139 = EDGE_LOOP ( 'NONE', ( #469, #328, #119, #137 ) ) ;
#140 = VERTEX_POINT ( 'NONE', #101 ) ;
#141 = CYLINDRICAL_SURFACE ( 'NONE', #452, 0.2000000000000000944 ) ;
#142 = SECURITY_CLASSIFICATION ( '', '', #184 ) ;
#143 = DATE_TIME_ROLE ( 'classification_date' ) ;
#144 = CARTESIAN_POINT ( 'NONE',  ( -8.800000000000000711, 1.800000000000000044, -1.800000000000000488 ) ) ;
#145 = PERSON_AND_ORGANIZATION_ROLE ( 'classification_officer' ) ;
#146 = CARTESIAN_POINT ( 'NONE',  ( 8.999999999999998224, 2.000000000000000000, -2.000000000000000444 ) ) ;
#147 = AXIS2_PLACEMENT_3D ( 'NONE', #510, #21, #190 ) ;
#148 = ORIENTED_EDGE ( 'NONE', *, *, #478, .F. ) ;
#149 = ADVANCED_FACE ( 'NONE', ( #318 ), #70, .T. ) ;
#150 = ADVANCED_FACE ( 'NONE', ( #283 ), #530, .F. ) ;
#151 = FACE_OUTER_BOUND ( 'NONE', #116, .T. ) ;
#152 = EDGE_CURVE ( 'NONE', #375, #336, #110, .T. ) ;
#153 = FACE_OUTER_BOUND ( 'NONE', #45, .T. ) ;
#154 = DIRECTION ( 'NONE',  ( 0.000000000000000000, 0.000000000000000000, 1.000000000000000000 ) ) ;
#155 = LOCAL_TIME ( 15, 17, 33.00000000000000000, #220 ) ;
#156 = AXIS2_PLACEMENT_3D ( 'NONE', #346, #232, #97 ) ;
#157 = CARTESIAN_POINT ( 'NONE',  ( -9.000000000000001776, 2.000000000000000000, -2.000000000000000444 ) ) ;
#158 = AXIS2_PLACEMENT_3D ( 'NONE', #480, #522, #24 ) ;
#159 = DIRECTION ( 'NONE',  ( 1.000000000000000000, 0.000000000000000000, 0.000000000000000000 ) ) ;
#160 = CARTESIAN_POINT ( 'NONE',  ( -9.000000000000001776, 1.800000000000000044, -2.000000000000000444 ) ) ;
#161 = AXIS2_PLACEMENT_3D ( 'NONE', #37, #502, #334 ) ;
#162 = LINE ( 'NONE', #113, #279 ) ;
#163 = CARTESIAN_POINT ( 'NONE',  ( 8.799999999999997158, 1.800000000000000044, 1.799999999999999600 ) ) ;
#164 = ORIENTED_EDGE ( 'NONE', *, *, #401, .F. ) ;
#165 = EDGE_CURVE ( 'NONE', #498, #375, #27, .T. ) ;
#166 = LINE ( 'NONE', #453, #516 ) ;
#167 = ORIENTED_EDGE ( 'NONE', *, *, #152, .F. ) ;
#168 = DIRECTION ( 'NONE',  ( -0.000000000000000000, 1.000000000000000000, 0.000000000000000000 ) ) ;
#169 = ORIENTED_EDGE ( 'NONE', *, *, #317, .F. ) ;
#170 = ORIENTED_EDGE ( 'NONE', *, *, #380, .T. ) ;
#171 = CARTESIAN_POINT ( 'NONE',  ( -8.800000000000000711, 1.800000000000000044, -1.800000000000000488 ) ) ;
#172 = ORIENTED_EDGE ( 'NONE', *, *, #165, .F. ) ;
#173 = VERTEX_POINT ( 'NONE', #321 ) ;
#174 = CARTESIAN_POINT ( 'NONE',  ( 8.799999999999995381, 0.000000000000000000, 1.999999999999999556 ) ) ;
#175 = ORIENTED_EDGE ( 'NONE', *, *, #534, .F. ) ;
#176 = PERSON_AND_ORGANIZATION ( #121, #481 ) ;
#177 = ORIENTED_EDGE ( 'NONE', *, *, #325, .T. ) ;
#178 = EDGE_LOOP ( 'NONE', ( #423, #288, #337 ) ) ;
#179 = CARTESIAN_POINT ( 'NONE',  ( -8.800000000000000711, 2.000000000000000000, -2.000000000000000444 ) ) ;
#180 = CARTESIAN_POINT ( 'NONE',  ( 8.799999999999997158, 1.800000000000000044, -1.800000000000000488 ) ) ;
#181 = ORIENTED_EDGE ( 'NONE', *, *, #118, .F. ) ;
#182 = PERSON_AND_ORGANIZATION_ROLE ( 'design_supplier' ) ;
#183 = DIRECTION ( 'NONE',  ( -1.000000000000000000, 0.000000000000000000, 0.000000000000000000 ) ) ;
#184 = SECURITY_CLASSIFICATION_LEVEL ( 'unclassified' ) ;
#185 = EDGE_CURVE ( 'NONE', #93, #375, #482, .T. ) ;
#186 = AXIS2_PLACEMENT_3D ( 'NONE', #362, #323, #237 ) ;
#187 = CYLINDRICAL_SURFACE ( 'NONE', #114, 0.2000000000000000944 ) ;
#188 = AXIS2_PLACEMENT_3D ( 'NONE', #422, #88, #191 ) ;
#189 = ADVANCED_FACE ( 'NONE', ( #233 ), #448, .T. ) ;
#190 = DIRECTION ( 'NONE',  ( 0.000000000000000000, 0.000000000000000000, 1.000000000000000000 ) ) ;
#191 = DIRECTION ( 'NONE',  ( 0.000000000000000000, 0.000000000000000000, 1.000000000000000000 ) ) ;
#192 = CC_DESIGN_PERSON_AND_ORGANIZATION_ASSIGNMENT ( #176, #354, ( #216 ) ) ;
#193 = CARTESIAN_POINT ( 'NONE',  ( 8.799999999999997158, 1.800000000000000044, 1.799999999999999600 ) ) ;
#194 = UNCERTAINTY_MEASURE_WITH_UNIT (LENGTH_MEASURE( 1.000000000000000082E-05 ), #476, 'distance_accuracy_value', 'NONE');
#195 = DIRECTION ( 'NONE',  ( -1.000000000000000000, -0.000000000000000000, -0.000000000000000000 ) ) ;
#196 = LINE ( 'NONE', #107, #199 ) ;
#197 = ADVANCED_BREP_SHAPE_REPRESENTATION ( 'BAR4X18T2', ( #276, #407 ), #69 ) ;
#198 = CARTESIAN_POINT ( 'NONE',  ( -9.000000000000001776, 2.000000000000000000, -1.800000000000000488 ) ) ;
#199 = VECTOR ( 'NONE', #109, 1000.000000000000000 ) ;
#200 = DIRECTION ( 'NONE',  ( -0.000000000000000000, 0.000000000000000000, 1.000000000000000000 ) ) ;
#201 = LINE ( 'NONE', #295, #398 ) ;
#202 = EDGE_CURVE ( 'NONE', #500, #306, #348, .T. ) ;
#203 = EDGE_CURVE ( 'NONE', #248, #382, #390, .T. ) ;
#204 = FACE_OUTER_BOUND ( 'NONE', #89, .T. ) ;
#205 = EDGE_LOOP ( 'NONE', ( #341, #219, #217, #4 ) ) ;
#206 = EDGE_CURVE ( 'NONE', #3, #382, #281, .T. ) ;
#207 = DIRECTION ( 'NONE',  ( 1.000000000000000000, 0.000000000000000000, 0.000000000000000000 ) ) ;
#208 = EDGE_LOOP ( 'NONE', ( #62, #129, #175 ) ) ;
#209 = AXIS2_PLACEMENT_3D ( 'NONE', #402, #277, #326 ) ;
#210 = ORIENTED_EDGE ( 'NONE', *, *, #229, .T. ) ;
#211 = CARTESIAN_POINT ( 'NONE',  ( -8.800000000000000711, 0.000000000000000000, 1.799999999999999600 ) ) ;
#212 = LOCAL_TIME ( 15, 17, 33.00000000000000000, #87 ) ;
#213 = ORIENTED_EDGE ( 'NONE', *, *, #202, .T. ) ;
#214 = DIRECTION ( 'NONE',  ( 0.000000000000000000, 1.000000000000000000, 0.000000000000000000 ) ) ;
#215 = VERTEX_POINT ( 'NONE', #104 ) ;
#216 = PRODUCT ( 'BAR4X18T2', 'BAR4X18T2', '', ( #67 ) ) ;
#217 = ORIENTED_EDGE ( 'NONE', *, *, #410, .F. ) ;
#218 = DIRECTION ( 'NONE',  ( -0.000000000000000000, 1.000000000000000000, -0.000000000000000000 ) ) ;
#219 = ORIENTED_EDGE ( 'NONE', *, *, #339, .F. ) ;
#220 = COORDINATED_UNIVERSAL_TIME_OFFSET ( 8, 0, .AHEAD. ) ;
#221 = FACE_OUTER_BOUND ( 'NONE', #178, .T. ) ;
#222 = APPROVAL_PERSON_ORGANIZATION ( #299, #384, #343 ) ;
#223 = ADVANCED_FACE ( 'NONE', ( #153 ), #528, .T. ) ;
#224 = COORDINATED_UNIVERSAL_TIME_OFFSET ( 8, 0, .AHEAD. ) ;
#225 = FACE_OUTER_BOUND ( 'NONE', #419, .T. ) ;
#226 = DATE_AND_TIME ( #426, #315 ) ;
#227 = CYLINDRICAL_SURFACE ( 'NONE', #126, 0.2000000000000000944 ) ;
#228 = CARTESIAN_POINT ( 'NONE',  ( 8.999999999999998224, 2.000000000000000000, 1.799999999999999600 ) ) ;
#229 = EDGE_CURVE ( 'NONE', #248, #215, #196, .T. ) ;
#230 = CIRCLE ( 'NONE', #254, 0.2000000000000000944 ) ;
#231 = DIRECTION ( 'NONE',  ( -0.000000000000000000, 1.000000000000000000, 0.000000000000000000 ) ) ;
#232 = DIRECTION ( 'NONE',  ( -0.000000000000000000, -0.000000000000000000, 1.000000000000000000 ) ) ;
#233 = FACE_OUTER_BOUND ( 'NONE', #139, .T. ) ;
#234 = LINE ( 'NONE', #403, #304 ) ;
#235 = APPLICATION_CONTEXT ( 'configuration controlled 3d designs of mechanical parts and assemblies' ) ;
#236 = DIRECTION ( 'NONE',  ( 2.602085213965209379E-14, 0.000000000000000000, 1.000000000000000000 ) ) ;
#237 = DIRECTION ( 'NONE',  ( 1.000000000000000000, 0.000000000000000000, 0.000000000000000000 ) ) ;
#238 = VECTOR ( 'NONE', #357, 1000.000000000000000 ) ;
#239 = EDGE_CURVE ( 'NONE', #173, #38, #274, .T. ) ;
#240 = EDGE_CURVE ( 'NONE', #38, #248, #112, .T. ) ;
#241 = FACE_OUTER_BOUND ( 'NONE', #55, .T. ) ;
#242 = EDGE_CURVE ( 'NONE', #258, #173, #108, .T. ) ;
#243 = EDGE_CURVE ( 'NONE', #215, #173, #71, .T. ) ;
#244 = CC_DESIGN_APPROVAL ( #491, ( #90 ) ) ;
#245 = DIRECTION ( 'NONE',  ( 0.000000000000000000, -1.000000000000000000, 0.000000000000000000 ) ) ;
#246 = ORIENTED_EDGE ( 'NONE', *, *, #206, .T. ) ;
#247 = CARTESIAN_POINT ( 'NONE',  ( -8.800000000000000711, 0.000000000000000000, -2.000000000000000444 ) ) ;
#248 = VERTEX_POINT ( 'NONE', #524 ) ;
#249 = ORIENTED_EDGE ( 'NONE', *, *, #26, .F. ) ;
#250 = DIRECTION ( 'NONE',  ( 0.000000000000000000, -1.000000000000000000, 0.000000000000000000 ) ) ;
#251 = ORIENTED_EDGE ( 'NONE', *, *, #86, .F. ) ;
#252 = ORIENTED_EDGE ( 'NONE', *, *, #80, .T. ) ;
#253 = CARTESIAN_POINT ( 'NONE',  ( 8.999999999999998224, 1.800000000000000044, 1.799999999999999600 ) ) ;
#254 = AXIS2_PLACEMENT_3D ( 'NONE', #211, #331, #374 ) ;
#255 = ORIENTED_EDGE ( 'NONE', *, *, #262, .F. ) ;
#256 = ORIENTED_EDGE ( 'NONE', *, *, #80, .F. ) ;
#257 = DIRECTION ( 'NONE',  ( 0.000000000000000000, 0.000000000000000000, -1.000000000000000000 ) ) ;
#258 = VERTEX_POINT ( 'NONE', #30 ) ;
#259 = DATE_AND_TIME ( #98, #212 ) ;
#260 = DIRECTION ( 'NONE',  ( 1.000000000000000000, -0.000000000000000000, -0.000000000000000000 ) ) ;
#261 = CARTESIAN_POINT ( 'NONE',  ( 8.799999999999997158, 1.800000000000000044, 1.999999999999999556 ) ) ;
#262 = EDGE_CURVE ( 'NONE', #350, #258, #234, .T. ) ;
#263 = ORIENTED_EDGE ( 'NONE', *, *, #165, .T. ) ;
#264 = APPROVAL_ROLE ( '' ) ;
#265 = DIRECTION ( 'NONE',  ( 0.000000000000000000, 0.000000000000000000, -1.000000000000000000 ) ) ;
#266 = CIRCLE ( 'NONE', #156, 0.2000000000000005107 ) ;
#267 = CARTESIAN_POINT ( 'NONE',  ( -8.800000000000000711, 2.000000000000000000, -1.800000000000000488 ) ) ;
#268 = APPROVAL_DATE_TIME ( #259, #12 ) ;
#269 = FACE_OUTER_BOUND ( 'NONE', #541, .T. ) ;
#270 = CARTESIAN_POINT ( 'NONE',  ( 8.999999999999998224, 1.800000000000000044, -1.800000000000000488 ) ) ;
#271 = DIRECTION ( 'NONE',  ( 0.000000000000000000, 0.000000000000000000, -1.000000000000000000 ) ) ;
#272 = VECTOR ( 'NONE', #290, 1000.000000000000000 ) ;
#273 = DIRECTION ( 'NONE',  ( 0.000000000000000000, -0.000000000000000000, 1.000000000000000000 ) ) ;
#274 = LINE ( 'NONE', #160, #393 ) ;
#275 = DIRECTION ( 'NONE',  ( 1.000000000000000000, 0.000000000000000000, 0.000000000000000000 ) ) ;
#276 = MANIFOLD_SOLID_BREP ( '\X2\570689d2\X0\1', #364 ) ;
#277 = DIRECTION ( 'NONE',  ( 0.000000000000000000, 1.000000000000000000, 0.000000000000000000 ) ) ;
#278 = VECTOR ( 'NONE', #29, 1000.000000000000000 ) ;
#279 = VECTOR ( 'NONE', #489, 1000.000000000000000 ) ;
#280 = VECTOR ( 'NONE', #218, 1000.000000000000000 ) ;
#281 = LINE ( 'NONE', #368, #484 ) ;
#282 = EDGE_CURVE ( 'NONE', #379, #415, #162, .T. ) ;
#283 = FACE_OUTER_BOUND ( 'NONE', #458, .T. ) ;
#284 = CC_DESIGN_PERSON_AND_ORGANIZATION_ASSIGNMENT ( #396, #392, ( #377 ) ) ;
#285 = FACE_OUTER_BOUND ( 'NONE', #205, .T. ) ;
#286 = VERTEX_POINT ( 'NONE', #115 ) ;
#287 = CC_DESIGN_APPROVAL ( #384, ( #377 ) ) ;
#288 = ORIENTED_EDGE ( 'NONE', *, *, #410, .T. ) ;
#289 = ORIENTED_EDGE ( 'NONE', *, *, #509, .F. ) ;
#290 = DIRECTION ( 'NONE',  ( 1.000000000000000000, 0.000000000000000000, 0.000000000000000000 ) ) ;
#291 = ORIENTED_EDGE ( 'NONE', *, *, #202, .F. ) ;
#292 = AXIS2_PLACEMENT_3D ( 'NONE', #442, #447, #159 ) ;
#293 = DIRECTION ( 'NONE',  ( -1.000000000000000000, 0.000000000000000000, -0.000000000000000000 ) ) ;
#294 = ORIENTED_EDGE ( 'NONE', *, *, #282, .F. ) ;
#295 = CARTESIAN_POINT ( 'NONE',  ( -8.800000000000000711, 2.000000000000000000, 1.999999999999999556 ) ) ;
#296 = AXIS2_PLACEMENT_3D ( 'NONE', #163, #168, #372 ) ;
#297 = EDGE_LOOP ( 'NONE', ( #210, #44, #471, #416 ) ) ;
#298 = ORIENTED_EDGE ( 'NONE', *, *, #513, .T. ) ;
#299 = PERSON_AND_ORGANIZATION ( #121, #481 ) ;
#300 = DIRECTION ( 'NONE',  ( -1.000000000000000000, 0.000000000000000000, 0.000000000000000000 ) ) ;
#301 = ADVANCED_FACE ( 'NONE', ( #204 ), #408, .T. ) ;
#302 = DIRECTION ( 'NONE',  ( 0.000000000000000000, -1.000000000000000000, 0.000000000000000000 ) ) ;
#303 = ADVANCED_FACE ( 'NONE', ( #540 ), #338, .F. ) ;
#304 = VECTOR ( 'NONE', #200, 1000.000000000000000 ) ;
#305 = DIRECTION ( 'NONE',  ( 0.000000000000000000, 1.000000000000000000, 0.000000000000000000 ) ) ;
#306 = VERTEX_POINT ( 'NONE', #174 ) ;
#307 = ORIENTED_EDGE ( 'NONE', *, *, #317, .T. ) ;
#308 = APPROVAL_PERSON_ORGANIZATION ( #507, #491, #264 ) ;
#309 = APPROVAL_STATUS ( 'not_yet_approved' ) ;
#310 = SPHERICAL_SURFACE ( 'NONE', #147, 0.2000000000000000111 ) ;
#311 = CARTESIAN_POINT ( 'NONE',  ( 0.000000000000000000, 2.000000000000000000, 0.000000000000000000 ) ) ;
#312 = AXIS2_PLACEMENT_3D ( 'NONE', #144, #427, #183 ) ;
#313 = PLANE ( 'NONE',  #133 ) ;
#314 = DIRECTION ( 'NONE',  ( 0.000000000000000000, 0.000000000000000000, -1.000000000000000000 ) ) ;
#315 = LOCAL_TIME ( 15, 17, 33.00000000000000000, #224 ) ;
#316 = DIRECTION ( 'NONE',  ( 0.000000000000000000, 0.000000000000000000, -1.000000000000000000 ) ) ;
#317 = EDGE_CURVE ( 'NONE', #379, #38, #446, .T. ) ;
#318 = FACE_OUTER_BOUND ( 'NONE', #91, .T. ) ;
#319 = CARTESIAN_POINT ( 'NONE',  ( -8.800000000000000711, 1.800000000000000044, 1.799999999999999600 ) ) ;
#320 = ADVANCED_FACE ( 'NONE', ( #285 ), #406, .T. ) ;
#321 = CARTESIAN_POINT ( 'NONE',  ( -9.000000000000001776, 1.800000000000000044, 1.799999999999999600 ) ) ;
#322 = VECTOR ( 'NONE', #68, 1000.000000000000000 ) ;
#323 = DIRECTION ( 'NONE',  ( 0.000000000000000000, 0.000000000000000000, 1.000000000000000000 ) ) ;
#324 = AXIS2_PLACEMENT_3D ( 'NONE', #40, #378, #2 ) ;
#325 = EDGE_CURVE ( 'NONE', #286, #215, #230, .T. ) ;
#326 = DIRECTION ( 'NONE',  ( -1.000000000000000000, 0.000000000000000000, 0.000000000000000000 ) ) ;
#327 = CARTESIAN_POINT ( 'NONE',  ( -8.800000000000000711, 2.000000000000000000, 1.799999999999999600 ) ) ;
#328 = ORIENTED_EDGE ( 'NONE', *, *, #380, .F. ) ;
#329 = DIRECTION ( 'NONE',  ( 0.000000000000000000, 0.000000000000000000, -1.000000000000000000 ) ) ;
#330 = ORIENTED_EDGE ( 'NONE', *, *, #49, .T. ) ;
#331 = DIRECTION ( 'NONE',  ( -0.000000000000000000, -1.000000000000000000, -0.000000000000000000 ) ) ;
#332 = ORIENTED_EDGE ( 'NONE', *, *, #401, .T. ) ;
#333 = ORIENTED_EDGE ( 'NONE', *, *, #185, .F. ) ;
#334 = DIRECTION ( 'NONE',  ( 0.000000000000000000, 0.000000000000000000, 1.000000000000000000 ) ) ;
#335 = EDGE_CURVE ( 'NONE', #306, #93, #449, .T. ) ;
#336 = VERTEX_POINT ( 'NONE', #538 ) ;
#337 = ORIENTED_EDGE ( 'NONE', *, *, #454, .F. ) ;
#338 = PLANE ( 'NONE',  #460 ) ;
#339 = EDGE_CURVE ( 'NONE', #140, #286, #201, .T. ) ;
#340 = EDGE_CURVE ( 'NONE', #258, #336, #464, .T. ) ;
#341 = ORIENTED_EDGE ( 'NONE', *, *, #325, .F. ) ;
#342 = ADVANCED_FACE ( 'NONE', ( #241 ), #492, .F. ) ;
#343 = APPROVAL_ROLE ( '' ) ;
#344 = DIRECTION ( 'NONE',  ( -1.000000000000000000, -0.000000000000000000, -0.000000000000000000 ) ) ;
#345 = CC_DESIGN_PERSON_AND_ORGANIZATION_ASSIGNMENT ( #351, #145, ( #142 ) ) ;
#346 = CARTESIAN_POINT ( 'NONE',  ( 8.799999999999997158, 1.800000000000000044, -1.800000000000000488 ) ) ;
#347 = APPROVAL_STATUS ( 'not_yet_approved' ) ;
#348 = CIRCLE ( 'NONE', #122, 0.2000000000000000944 ) ;
#349 = FACE_OUTER_BOUND ( 'NONE', #84, .T. ) ;
#350 = VERTEX_POINT ( 'NONE', #83 ) ;
#351 = PERSON_AND_ORGANIZATION ( #121, #481 ) ;
#352 = DIRECTION ( 'NONE',  ( 0.000000000000000000, -1.000000000000000000, 0.000000000000000000 ) ) ;
#353 = AXIS2_PLACEMENT_3D ( 'NONE', #157, #486, #444 ) ;
#354 = PERSON_AND_ORGANIZATION_ROLE ( 'design_owner' ) ;
#355 = CARTESIAN_POINT ( 'NONE',  ( 8.799999999999995381, 2.000000000000000000, -1.800000000000000488 ) ) ;
#356 = AXIS2_PLACEMENT_3D ( 'NONE', #327, #250, #73 ) ;
#357 = DIRECTION ( 'NONE',  ( -0.000000000000000000, -0.000000000000000000, -1.000000000000000000 ) ) ;
#358 = CARTESIAN_POINT ( 'NONE',  ( 8.799999999999997158, 1.800000000000000044, -1.800000000000000488 ) ) ;
#359 = CARTESIAN_POINT ( 'NONE',  ( 0.000000000000000000, 1.800000000000000044, 1.799999999999999600 ) ) ;
#360 = CARTESIAN_POINT ( 'NONE',  ( 0.000000000000000000, 0.000000000000000000, 0.000000000000000000 ) ) ;
#361 = ADVANCED_FACE ( 'NONE', ( #43 ), #117, .F. ) ;
#362 = CARTESIAN_POINT ( 'NONE',  ( 8.799999999999997158, 1.800000000000000044, 1.799999999999999600 ) ) ;
#363 = AXIS2_PLACEMENT_3D ( 'NONE', #171, #386, #135 ) ;
#364 = CLOSED_SHELL ( 'NONE', ( #435, #150, #361, #303, #533, #342, #28, #66, #50, #149, #131, #320, #223, #301, #14, #106, #366, #189 ) ) ;
#365 = LINE ( 'NONE', #179, #280 ) ;
#366 = ADVANCED_FACE ( 'NONE', ( #381 ), #371, .T. ) ;
#367 = DIRECTION ( 'NONE',  ( -1.000000000000000000, 0.000000000000000000, 0.000000000000000000 ) ) ;
#368 = CARTESIAN_POINT ( 'NONE',  ( -9.000000000000001776, 0.000000000000000000, -2.000000000000000444 ) ) ;
#369 = DIRECTION ( 'NONE',  ( -0.000000000000000000, -1.000000000000000000, -0.000000000000000000 ) ) ;
#370 = AXIS2_PLACEMENT_3D ( 'NONE', #358, #231, #521 ) ;
#371 = SPHERICAL_SURFACE ( 'NONE', #296, 0.2000000000000000111 ) ;
#372 = DIRECTION ( 'NONE',  ( 0.000000000000000000, 0.000000000000000000, -1.000000000000000000 ) ) ;
#373 = ORIENTED_EDGE ( 'NONE', *, *, #86, .T. ) ;
#374 = DIRECTION ( 'NONE',  ( 0.000000000000000000, 0.000000000000000000, 1.000000000000000000 ) ) ;
#375 = VERTEX_POINT ( 'NONE', #253 ) ;
#376 = ORIENTED_EDGE ( 'NONE', *, *, #335, .T. ) ;
#377 = PRODUCT_DEFINITION_FORMATION_WITH_SPECIFIED_SOURCE ( 'ANY', '', #216, .NOT_KNOWN. ) ;
#378 = DIRECTION ( 'NONE',  ( 0.000000000000000000, 1.000000000000000000, -0.000000000000000000 ) ) ;
#379 = VERTEX_POINT ( 'NONE', #35 ) ;
#380 = EDGE_CURVE ( 'NONE', #93, #140, #166, .T. ) ;
#381 = FACE_OUTER_BOUND ( 'NONE', #208, .T. ) ;
#382 = VERTEX_POINT ( 'NONE', #247 ) ;
#383 = VECTOR ( 'NONE', #352, 1000.000000000000000 ) ;
#384 = APPROVAL ( #19, 'UNSPECIFIED' ) ;
#385 = EDGE_LOOP ( 'NONE', ( #74, #503, #249 ) ) ;
#386 = DIRECTION ( 'NONE',  ( -1.000000000000000000, 0.000000000000000000, 0.000000000000000000 ) ) ;
#387 = AXIS2_PLACEMENT_3D ( 'NONE', #439, #344, #257 ) ;
#388 = SPHERICAL_SURFACE ( 'NONE', #82, 0.2000000000000000111 ) ;
#389 = COORDINATED_UNIVERSAL_TIME_OFFSET ( 8, 0, .AHEAD. ) ;
#390 = CIRCLE ( 'NONE', #158, 0.2000000000000000944 ) ;
#391 = DIRECTION ( 'NONE',  ( 0.000000000000000000, 0.000000000000000000, -1.000000000000000000 ) ) ;
#392 = PERSON_AND_ORGANIZATION_ROLE ( 'creator' ) ;
#393 = VECTOR ( 'NONE', #404, 1000.000000000000000 ) ;
#394 = DIRECTION ( 'NONE',  ( 0.000000000000000000, 0.000000000000000000, -1.000000000000000000 ) ) ;
#395 = VECTOR ( 'NONE', #485, 1000.000000000000000 ) ;
#396 = PERSON_AND_ORGANIZATION ( #121, #481 ) ;
#397 = DIRECTION ( 'NONE',  ( 1.000000000000000000, -8.673617379884032317E-15, 0.000000000000000000 ) ) ;
#398 = VECTOR ( 'NONE', #245, 1000.000000000000000 ) ;
#399 = LINE ( 'NONE', #11, #417 ) ;
#400 = DIRECTION ( 'NONE',  ( 0.000000000000000000, 0.000000000000000000, 1.000000000000000000 ) ) ;
#401 = EDGE_CURVE ( 'NONE', #286, #306, #418, .T. ) ;
#402 = CARTESIAN_POINT ( 'NONE',  ( -8.800000000000000711, 1.800000000000000044, -1.800000000000000488 ) ) ;
#403 = CARTESIAN_POINT ( 'NONE',  ( -8.800000000000000711, 2.000000000000000000, 1.999999999999999556 ) ) ;
#404 = DIRECTION ( 'NONE',  ( 0.000000000000000000, -0.000000000000000000, -1.000000000000000000 ) ) ;
#405 = CARTESIAN_POINT ( 'NONE',  ( -9.000000000000001776, 2.000000000000000000, 1.799999999999999600 ) ) ;
#406 = CYLINDRICAL_SURFACE ( 'NONE', #356, 0.2000000000000000944 ) ;
#407 = AXIS2_PLACEMENT_3D ( 'NONE', #360, #154, #275 ) ;
#408 = CYLINDRICAL_SURFACE ( 'NONE', #34, 0.2000000000000005107 ) ;
#409 = ORIENTED_EDGE ( 'NONE', *, *, #9, .T. ) ;
#410 = EDGE_CURVE ( 'NONE', #173, #140, #111, .T. ) ;
#411 = CARTESIAN_POINT ( 'NONE',  ( -9.000000000000001776, 2.000000000000000000, 1.999999999999999556 ) ) ;
#412 = ORIENTED_EDGE ( 'NONE', *, *, #413, .T. ) ;
#413 = EDGE_CURVE ( 'NONE', #350, #379, #61, .T. ) ;
#414 = DIRECTION ( 'NONE',  ( 0.000000000000000000, -0.000000000000000000, 1.000000000000000000 ) ) ;
#415 = VERTEX_POINT ( 'NONE', #22 ) ;
#416 = ORIENTED_EDGE ( 'NONE', *, *, #240, .T. ) ;
#417 = VECTOR ( 'NONE', #25, 1000.000000000000000 ) ;
#418 = LINE ( 'NONE', #496, #272 ) ;
#419 = EDGE_LOOP ( 'NONE', ( #291, #251, #333, #421 ) ) ;
#420 = CC_DESIGN_DATE_AND_TIME_ASSIGNMENT ( #226, #53, ( #90 ) ) ;
#421 = ORIENTED_EDGE ( 'NONE', *, *, #335, .F. ) ;
#422 = CARTESIAN_POINT ( 'NONE',  ( 8.799999999999995381, 0.000000000000000000, -1.800000000000000488 ) ) ;
#423 = ORIENTED_EDGE ( 'NONE', *, *, #242, .T. ) ;
#424 = CARTESIAN_POINT ( 'NONE',  ( 8.799999999999995381, 1.800000000000000044, -1.800000000000000488 ) ) ;
#425 = ORIENTED_EDGE ( 'NONE', *, *, #9, .F. ) ;
#426 = CALENDAR_DATE ( 2026, 22, 3 ) ;
#427 = DIRECTION ( 'NONE',  ( -0.000000000000000000, -0.000000000000000000, 1.000000000000000000 ) ) ;
#428 = APPLICATION_PROTOCOL_DEFINITION ( 'international standard', 'config_control_design', 1994, #235 ) ;
#429 = CARTESIAN_POINT ( 'NONE',  ( 8.999999999999998224, 0.000000000000000000, -2.000000000000000444 ) ) ;
#430 = SHAPE_DEFINITION_REPRESENTATION ( #46, #197 ) ;
#431 = ORIENTED_EDGE ( 'NONE', *, *, #475, .T. ) ;
#432 = EDGE_CURVE ( 'NONE', #415, #3, #399, .T. ) ;
#433 =( NAMED_UNIT ( * ) SI_UNIT ( $, .STERADIAN. ) SOLID_ANGLE_UNIT ( ) );
#434 = CC_DESIGN_SECURITY_CLASSIFICATION ( #142, ( #377 ) ) ;
#435 = ADVANCED_FACE ( 'NONE', ( #349 ), #479, .F. ) ;
#436 = ORIENTED_EDGE ( 'NONE', *, *, #49, .F. ) ;
#437 = AXIS2_PLACEMENT_3D ( 'NONE', #319, #260, #508 ) ;
#438 = PRODUCT_RELATED_PRODUCT_CATEGORY ( 'detail', '', ( #216 ) ) ;
#439 = CARTESIAN_POINT ( 'NONE',  ( 8.799999999999997158, 1.800000000000000044, 1.799999999999999600 ) ) ;
#440 = DIRECTION ( 'NONE',  ( 0.000000000000000000, 1.000000000000000000, 0.000000000000000000 ) ) ;
#441 = APPLICATION_PROTOCOL_DEFINITION ( 'international standard', 'config_control_design', 1994, #531 ) ;
#442 = CARTESIAN_POINT ( 'NONE',  ( -8.800000000000000711, 1.800000000000000044, 1.799999999999999600 ) ) ;
#443 = CIRCLE ( 'NONE', #39, 0.2000000000000000944 ) ;
#444 = DIRECTION ( 'NONE',  ( 1.000000000000000000, 0.000000000000000000, -0.000000000000000000 ) ) ;
#445 = APPROVAL_PERSON_ORGANIZATION ( #474, #12, #504 ) ;
#446 = CIRCLE ( 'NONE', #161, 0.2000000000000000944 ) ;
#447 = DIRECTION ( 'NONE',  ( 0.000000000000000000, -0.000000000000000000, 1.000000000000000000 ) ) ;
#448 = CYLINDRICAL_SURFACE ( 'NONE', #527, 0.2000000000000000944 ) ;
#449 = LINE ( 'NONE', #127, #75 ) ;
#450 = ORIENTED_EDGE ( 'NONE', *, *, #340, .T. ) ;
#451 = CIRCLE ( 'NONE', #188, 0.2000000000000000944 ) ;
#452 = AXIS2_PLACEMENT_3D ( 'NONE', #16, #302, #271 ) ;
#453 = CARTESIAN_POINT ( 'NONE',  ( -9.000000000000001776, 1.800000000000000044, 1.999999999999999556 ) ) ;
#454 = EDGE_CURVE ( 'NONE', #258, #140, #20, .T. ) ;
#455 = ORIENTED_EDGE ( 'NONE', *, *, #432, .F. ) ;
#456 = AXIS2_PLACEMENT_3D ( 'NONE', #193, #440, #400 ) ;
#457 = DIRECTION ( 'NONE',  ( 0.000000000000000000, 0.000000000000000000, -1.000000000000000000 ) ) ;
#458 = EDGE_LOOP ( 'NONE', ( #246, #298, #539, #1 ) ) ;
#459 = EDGE_LOOP ( 'NONE', ( #181, #294, #36, #148 ) ) ;
#460 = AXIS2_PLACEMENT_3D ( 'NONE', #411, #329, #293 ) ;
#461 = CARTESIAN_POINT ( 'NONE',  ( 0.000000000000000000, 0.000000000000000000, 0.000000000000000000 ) ) ;
#462 = ORIENTED_EDGE ( 'NONE', *, *, #262, .T. ) ;
#463 = CIRCLE ( 'NONE', #370, 0.2000000000000000944 ) ;
#464 = LINE ( 'NONE', #78, #54 ) ;
#465 = ORIENTED_EDGE ( 'NONE', *, *, #203, .T. ) ;
#466 = DATE_AND_TIME ( #96, #120 ) ;
#467 = CARTESIAN_POINT ( 'NONE',  ( -9.000000000000001776, 2.000000000000000000, -1.800000000000000488 ) ) ;
#468 = DIRECTION ( 'NONE',  ( 1.000000000000000000, 0.000000000000000000, 0.000000000000000000 ) ) ;
#469 = ORIENTED_EDGE ( 'NONE', *, *, #454, .T. ) ;
#470 = CARTESIAN_POINT ( 'NONE',  ( 8.999999999999998224, 2.000000000000000000, -1.800000000000000488 ) ) ;
#471 = ORIENTED_EDGE ( 'NONE', *, *, #239, .T. ) ;
#472 = CALENDAR_DATE ( 2026, 22, 3 ) ;
#473 = DIRECTION ( 'NONE',  ( -0.000000000000000000, 1.000000000000000000, -0.000000000000000000 ) ) ;
#474 = PERSON_AND_ORGANIZATION ( #121, #481 ) ;
#475 = EDGE_CURVE ( 'NONE', #336, #125, #60, .T. ) ;
#476 =( LENGTH_UNIT ( ) NAMED_UNIT ( * ) SI_UNIT ( .MILLI., .METRE. ) );
#477 = CARTESIAN_POINT ( 'NONE',  ( 8.799999999999997158, 2.000000000000000000, -1.800000000000000488 ) ) ;
#478 = EDGE_CURVE ( 'NONE', #125, #350, #505, .T. ) ;
#479 = PLANE ( 'NONE',  #487 ) ;
#480 = CARTESIAN_POINT ( 'NONE',  ( -8.800000000000000711, 0.000000000000000000, -1.800000000000000488 ) ) ;
#481 = ORGANIZATION ( 'UNSPECIFIED', 'UNSPECIFIED', '' ) ;
#482 = CIRCLE ( 'NONE', #456, 0.2000000000000000944 ) ;
#483 = CARTESIAN_POINT ( 'NONE',  ( 8.999999999999998224, 1.800000000000000044, 1.999999999999999556 ) ) ;
#484 = VECTOR ( 'NONE', #195, 1000.000000000000000 ) ;
#485 = DIRECTION ( 'NONE',  ( -0.000000000000000000, -0.000000000000000000, 1.000000000000000000 ) ) ;
#486 = DIRECTION ( 'NONE',  ( 0.000000000000000000, 0.000000000000000000, 1.000000000000000000 ) ) ;
#487 = AXIS2_PLACEMENT_3D ( 'NONE', #146, #300, #7 ) ;
#488 = DIRECTION ( 'NONE',  ( -1.000000000000000000, 0.000000000000000000, 0.000000000000000000 ) ) ;
#489 = DIRECTION ( 'NONE',  ( 1.000000000000000000, -0.000000000000000000, -0.000000000000000000 ) ) ;
#490 = ORIENTED_EDGE ( 'NONE', *, *, #529, .F. ) ;
#491 = APPROVAL ( #347, 'UNSPECIFIED' ) ;
#492 = PLANE ( 'NONE',  #535 ) ;
#493 = VERTEX_POINT ( 'NONE', #523 ) ;
#494 = ORIENTED_EDGE ( 'NONE', *, *, #203, .F. ) ;
#495 = VECTOR ( 'NONE', #473, 1000.000000000000000 ) ;
#496 = CARTESIAN_POINT ( 'NONE',  ( -9.000000000000001776, 0.000000000000000000, 1.999999999999999556 ) ) ;
#497 = ORIENTED_EDGE ( 'NONE', *, *, #26, .T. ) ;
#498 = VERTEX_POINT ( 'NONE', #270 ) ;
#499 = DIRECTION ( 'NONE',  ( -0.000000000000000000, 1.000000000000000000, -0.000000000000000000 ) ) ;
#500 = VERTEX_POINT ( 'NONE', #102 ) ;
#501 = EDGE_LOOP ( 'NONE', ( #289, #455, #490, #425 ) ) ;
#502 = DIRECTION ( 'NONE',  ( 0.000000000000000000, 1.000000000000000000, 0.000000000000000000 ) ) ;
#503 = ORIENTED_EDGE ( 'NONE', *, *, #118, .T. ) ;
#504 = APPROVAL_ROLE ( '' ) ;
#505 = LINE ( 'NONE', #467, #103 ) ;
#506 = DIRECTION ( 'NONE',  ( 0.000000000000000000, -1.000000000000000000, 0.000000000000000000 ) ) ;
#507 = PERSON_AND_ORGANIZATION ( #121, #481 ) ;
#508 = DIRECTION ( 'NONE',  ( 0.000000000000000000, 0.000000000000000000, 1.000000000000000000 ) ) ;
#509 = EDGE_CURVE ( 'NONE', #3, #493, #451, .T. ) ;
#510 = CARTESIAN_POINT ( 'NONE',  ( -8.800000000000000711, 1.800000000000000044, 1.799999999999999600 ) ) ;
#511 = ORIENTED_EDGE ( 'NONE', *, *, #478, .T. ) ;
#512 = APPROVAL_DATE_TIME ( #15, #384 ) ;
#513 = EDGE_CURVE ( 'NONE', #382, #379, #365, .T. ) ;
#514 = FACE_OUTER_BOUND ( 'NONE', #501, .T. ) ;
#515 = CALENDAR_DATE ( 2026, 22, 3 ) ;
#516 = VECTOR ( 'NONE', #76, 1000.000000000000000 ) ;
#517 = CARTESIAN_POINT ( 'NONE',  ( 0.000000000000000000, 1.800000000000000044, -1.800000000000000488 ) ) ;
#518 = APPROVAL_DATE_TIME ( #56, #491 ) ;
#519 = FACE_OUTER_BOUND ( 'NONE', #385, .T. ) ;
#520 = CIRCLE ( 'NONE', #312, 0.2000000000000005107 ) ;
#521 = DIRECTION ( 'NONE',  ( 0.000000000000000000, 0.000000000000000000, 1.000000000000000000 ) ) ;
#522 = DIRECTION ( 'NONE',  ( -0.000000000000000000, -1.000000000000000000, -0.000000000000000000 ) ) ;
#523 = CARTESIAN_POINT ( 'NONE',  ( 8.999999999999998224, 0.000000000000000000, -1.800000000000000488 ) ) ;
#524 = CARTESIAN_POINT ( 'NONE',  ( -9.000000000000001776, 0.000000000000000000, -1.800000000000000488 ) ) ;
#525 = LOCAL_TIME ( 15, 17, 33.00000000000000000, #389 ) ;
#526 =( NAMED_UNIT ( * ) PLANE_ANGLE_UNIT ( ) SI_UNIT ( $, .RADIAN. ) );
#527 = AXIS2_PLACEMENT_3D ( 'NONE', #359, #367, #65 ) ;
#528 = CYLINDRICAL_SURFACE ( 'NONE', #128, 0.2000000000000005107 ) ;
#529 = EDGE_CURVE ( 'NONE', #498, #415, #463, .T. ) ;
#530 = PLANE ( 'NONE',  #353 ) ;
#531 = APPLICATION_CONTEXT ( 'configuration controlled 3d designs of mechanical parts and assemblies' ) ;
#532 = CARTESIAN_POINT ( 'NONE',  ( -8.800000000000000711, 1.800000000000000044, 0.000000000000000000 ) ) ;
#533 = ADVANCED_FACE ( 'NONE', ( #151 ), #313, .T. ) ;
#534 = EDGE_CURVE ( 'NONE', #93, #336, #10, .T. ) ;
#535 = AXIS2_PLACEMENT_3D ( 'NONE', #461, #214, #414 ) ;
#536 = CC_DESIGN_PERSON_AND_ORGANIZATION_ASSIGNMENT ( #17, #182, ( #377 ) ) ;
#537 = DIRECTION ( 'NONE',  ( 1.000000000000000000, 0.000000000000000000, 0.000000000000000000 ) ) ;
#538 = CARTESIAN_POINT ( 'NONE',  ( 8.799999999999997158, 2.000000000000000000, 1.799999999999999600 ) ) ;
#539 = ORIENTED_EDGE ( 'NONE', *, *, #282, .T. ) ;
#540 = FACE_OUTER_BOUND ( 'NONE', #6, .T. ) ;
#541 = EDGE_LOOP ( 'NONE', ( #494, #41, #169, #58 ) ) ;
ENDSEC;
END-ISO-10303-21;
