ISO-10303-21;
HEADER;
FILE_DESCRIPTION (( 'STEP AP214' ),
    '1' );
FILE_NAME ('BAR4X14T1.step',
    '2026-03-22T07:22:42',
    ( '' ),
    ( '' ),
    'SwSTEP 2.0',
    'SolidWorks 2025',
    '' );
FILE_SCHEMA (( 'AUTOMOTIVE_DESIGN' ));
ENDSEC;

DATA;
#1 = DIRECTION ( 'NONE',  ( 0.000000000000000000, 1.000000000000000000, 0.000000000000000000 ) ) ;
#2 = ADVANCED_FACE ( 'NONE', ( #314 ), #188, .T. ) ;
#3 = DIRECTION ( 'NONE',  ( 1.000000000000000000, -0.000000000000000000, -0.000000000000000000 ) ) ;
#4 = SPHERICAL_SURFACE ( 'NONE', #73, 0.2000000000000000111 ) ;
#5 = DIRECTION ( 'NONE',  ( 0.000000000000000000, -0.000000000000000000, 1.000000000000000000 ) ) ;
#6 = DIRECTION ( 'NONE',  ( 0.000000000000000000, 0.000000000000000000, -1.000000000000000000 ) ) ;
#7 = FACE_OUTER_BOUND ( 'NONE', #9, .T. ) ;
#8 = AXIS2_PLACEMENT_3D ( 'NONE', #324, #289, #283 ) ;
#9 = EDGE_LOOP ( 'NONE', ( #70, #136, #218 ) ) ;
#10 = VECTOR ( 'NONE', #405, 1000.000000000000000 ) ;
#11 = DIRECTION ( 'NONE',  ( 1.000000000000000000, 0.000000000000000000, 0.000000000000000000 ) ) ;
#12 = ADVANCED_FACE ( 'NONE', ( #341 ), #4, .T. ) ;
#13 = PRODUCT_CONTEXT ( 'NONE', #342, 'mechanical' ) ;
#14 = LINE ( 'NONE', #204, #305 ) ;
#15 = LINE ( 'NONE', #172, #442 ) ;
#16 = ORIENTED_EDGE ( 'NONE', *, *, #231, .F. ) ;
#17 = AXIS2_PLACEMENT_3D ( 'NONE', #416, #1, #120 ) ;
#18 = ADVANCED_FACE ( 'NONE', ( #304 ), #455, .F. ) ;
#19 = CARTESIAN_POINT ( 'NONE',  ( -7.000000000000000888, 1.000000000000000000, -2.000000000000000000 ) ) ;
#20 = ORIENTED_EDGE ( 'NONE', *, *, #231, .T. ) ;
#21 = CYLINDRICAL_SURFACE ( 'NONE', #92, 0.2000000000000000944 ) ;
#22 = VERTEX_POINT ( 'NONE', #111 ) ;
#23 = DIRECTION ( 'NONE',  ( 0.000000000000000000, 1.000000000000000000, 0.000000000000000000 ) ) ;
#24 = CIRCLE ( 'NONE', #282, 0.2000000000000000944 ) ;
#25 = CARTESIAN_POINT ( 'NONE',  ( 0.000000000000000000, 0.000000000000000000, 0.000000000000000000 ) ) ;
#26 = ORIENTED_EDGE ( 'NONE', *, *, #472, .F. ) ;
#27 = ADVANCED_FACE ( 'NONE', ( #268 ), #160, .T. ) ;
#28 = DIRECTION ( 'NONE',  ( 0.000000000000000000, 0.000000000000000000, 1.000000000000000000 ) ) ;
#29 = EDGE_LOOP ( 'NONE', ( #351, #371, #38, #349 ) ) ;
#30 = CYLINDRICAL_SURFACE ( 'NONE', #427, 0.2000000000000000944 ) ;
#31 = ORIENTED_EDGE ( 'NONE', *, *, #189, .T. ) ;
#32 = VECTOR ( 'NONE', #300, 1000.000000000000000 ) ;
#33 = DIRECTION ( 'NONE',  ( 0.000000000000000000, -0.000000000000000000, 1.000000000000000000 ) ) ;
#34 = VERTEX_POINT ( 'NONE', #237 ) ;
#35 = ADVANCED_FACE ( 'NONE', ( #382 ), #278, .T. ) ;
#36 = CARTESIAN_POINT ( 'NONE',  ( 6.799999999999998934, 0.8000000000000000444, -2.000000000000000000 ) ) ;
#37 = MANIFOLD_SOLID_BREP ( '\X2\570689d2\X0\1', #403 ) ;
#38 = ORIENTED_EDGE ( 'NONE', *, *, #334, .F. ) ;
#39 = EDGE_CURVE ( 'NONE', #325, #323, #46, .T. ) ;
#40 = CARTESIAN_POINT ( 'NONE',  ( 6.799999999999998934, 0.8000000000000000444, 1.800000000000000044 ) ) ;
#41 = EDGE_LOOP ( 'NONE', ( #31, #241, #367 ) ) ;
#42 = LINE ( 'NONE', #347, #397 ) ;
#43 = VECTOR ( 'NONE', #454, 1000.000000000000000 ) ;
#44 = FACE_OUTER_BOUND ( 'NONE', #339, .T. ) ;
#45 = DIRECTION ( 'NONE',  ( -1.000000000000000000, 0.000000000000000000, 0.000000000000000000 ) ) ;
#46 = LINE ( 'NONE', #156, #161 ) ;
#47 = CARTESIAN_POINT ( 'NONE',  ( 6.999999999999998224, 0.8000000000000000444, 1.800000000000000044 ) ) ;
#48 = ADVANCED_FACE ( 'NONE', ( #355 ), #88, .F. ) ;
#49 = EDGE_CURVE ( 'NONE', #216, #130, #393, .T. ) ;
#50 = CYLINDRICAL_SURFACE ( 'NONE', #183, 0.2000000000000000944 ) ;
#51 = EDGE_CURVE ( 'NONE', #297, #257, #224, .T. ) ;
#52 = DIRECTION ( 'NONE',  ( 0.000000000000000000, 0.000000000000000000, 1.000000000000000000 ) ) ;
#53 = EDGE_LOOP ( 'NONE', ( #68, #307, #362, #385 ) ) ;
#54 = CARTESIAN_POINT ( 'NONE',  ( -6.800000000000001599, 1.000000000000000000, 1.800000000000000044 ) ) ;
#55 = ORIENTED_EDGE ( 'NONE', *, *, #346, .T. ) ;
#56 = AXIS2_PLACEMENT_3D ( 'NONE', #298, #262, #330 ) ;
#57 =( LENGTH_UNIT ( ) NAMED_UNIT ( * ) SI_UNIT ( .MILLI., .METRE. ) );
#58 = LINE ( 'NONE', #165, #311 ) ;
#59 = ORIENTED_EDGE ( 'NONE', *, *, #387, .T. ) ;
#60 = CARTESIAN_POINT ( 'NONE',  ( 6.799999999999998934, 0.8000000000000000444, 1.800000000000000044 ) ) ;
#61 = EDGE_LOOP ( 'NONE', ( #486, #331, #470 ) ) ;
#62 = CARTESIAN_POINT ( 'NONE',  ( 6.799999999999998934, 1.000000000000000000, -2.000000000000000000 ) ) ;
#63 = VERTEX_POINT ( 'NONE', #464 ) ;
#64 = AXIS2_PLACEMENT_3D ( 'NONE', #123, #425, #292 ) ;
#65 = EDGE_CURVE ( 'NONE', #297, #216, #90, .T. ) ;
#66 = AXIS2_PLACEMENT_3D ( 'NONE', #264, #232, #459 ) ;
#67 = DIRECTION ( 'NONE',  ( 0.000000000000000000, 1.000000000000000000, -0.000000000000000000 ) ) ;
#68 = ORIENTED_EDGE ( 'NONE', *, *, #51, .F. ) ;
#69 = CARTESIAN_POINT ( 'NONE',  ( 6.799999999999998934, 1.000000000000000000, 1.800000000000000044 ) ) ;
#70 = ORIENTED_EDGE ( 'NONE', *, *, #430, .T. ) ;
#71 = DIRECTION ( 'NONE',  ( 0.000000000000000000, 1.000000000000000000, 0.000000000000000000 ) ) ;
#72 = ORIENTED_EDGE ( 'NONE', *, *, #281, .T. ) ;
#73 = AXIS2_PLACEMENT_3D ( 'NONE', #121, #153, #344 ) ;
#74 = DIRECTION ( 'NONE',  ( 0.000000000000000000, 0.000000000000000000, 1.000000000000000000 ) ) ;
#75 = ORIENTED_EDGE ( 'NONE', *, *, #65, .F. ) ;
#76 = DIRECTION ( 'NONE',  ( 0.000000000000000000, 1.000000000000000000, 0.000000000000000000 ) ) ;
#77 = ORIENTED_EDGE ( 'NONE', *, *, #472, .T. ) ;
#78 = DIRECTION ( 'NONE',  ( 0.000000000000000000, 0.000000000000000000, -1.000000000000000000 ) ) ;
#79 = SURFACE_SIDE_STYLE ('',( #419 ) ) ;
#80 = VECTOR ( 'NONE', #159, 1000.000000000000000 ) ;
#81 =( NAMED_UNIT ( * ) SI_UNIT ( $, .STERADIAN. ) SOLID_ANGLE_UNIT ( ) );
#82 = LINE ( 'NONE', #235, #202 ) ;
#83 = PRODUCT_DEFINITION_SHAPE ( 'NONE', 'NONE',  #228 ) ;
#84 = ORIENTED_EDGE ( 'NONE', *, *, #39, .F. ) ;
#85 = VECTOR ( 'NONE', #128, 1000.000000000000000 ) ;
#86 = CARTESIAN_POINT ( 'NONE',  ( -6.800000000000001599, 0.8000000000000000444, 1.800000000000000044 ) ) ;
#87 = EDGE_CURVE ( 'NONE', #34, #63, #336, .T. ) ;
#88 = PLANE ( 'NONE',  #422 ) ;
#89 = SHAPE_DEFINITION_REPRESENTATION ( #83, #94 ) ;
#90 = LINE ( 'NONE', #170, #296 ) ;
#91 = CARTESIAN_POINT ( 'NONE',  ( -6.800000000000001599, 1.000000000000000000, 1.800000000000000044 ) ) ;
#92 = AXIS2_PLACEMENT_3D ( 'NONE', #357, #207, #287 ) ;
#93 = AXIS2_PLACEMENT_3D ( 'NONE', #164, #5, #412 ) ;
#94 = ADVANCED_BREP_SHAPE_REPRESENTATION ( 'BAR4X14T1', ( #37, #266 ), #225 ) ;
#95 = DIRECTION ( 'NONE',  ( 1.000000000000000000, -0.000000000000000000, 0.000000000000000000 ) ) ;
#96 = CARTESIAN_POINT ( 'NONE',  ( -6.800000000000001599, 0.8000000000000000444, 1.800000000000000044 ) ) ;
#97 = ADVANCED_FACE ( 'NONE', ( #471 ), #21, .T. ) ;
#98 = ORIENTED_EDGE ( 'NONE', *, *, #39, .T. ) ;
#99 = PLANE ( 'NONE',  #443 ) ;
#100 = VERTEX_POINT ( 'NONE', #47 ) ;
#101 = AXIS2_PLACEMENT_3D ( 'NONE', #475, #67, #139 ) ;
#102 = EDGE_CURVE ( 'NONE', #143, #449, #24, .T. ) ;
#103 = CARTESIAN_POINT ( 'NONE',  ( 6.799999999999998934, 0.8000000000000000444, -1.800000000000000044 ) ) ;
#104 = ORIENTED_EDGE ( 'NONE', *, *, #451, .T. ) ;
#105 = DIRECTION ( 'NONE',  ( 1.000000000000000000, 0.000000000000000000, 0.000000000000000000 ) ) ;
#106 = ORIENTED_EDGE ( 'NONE', *, *, #51, .T. ) ;
#107 = LINE ( 'NONE', #213, #147 ) ;
#108 = ORIENTED_EDGE ( 'NONE', *, *, #206, .F. ) ;
#109 = CIRCLE ( 'NONE', #326, 0.2000000000000000944 ) ;
#110 = DIRECTION ( 'NONE',  ( -0.000000000000000000, -0.000000000000000000, 1.000000000000000000 ) ) ;
#111 = CARTESIAN_POINT ( 'NONE',  ( -7.000000000000000888, 0.000000000000000000, -1.800000000000000044 ) ) ;
#112 = LINE ( 'NONE', #386, #43 ) ;
#113 = CARTESIAN_POINT ( 'NONE',  ( 6.999999999999998224, 1.000000000000000000, -2.000000000000000000 ) ) ;
#114 = EDGE_CURVE ( 'NONE', #458, #63, #433, .T. ) ;
#115 = CARTESIAN_POINT ( 'NONE',  ( 6.999999999999998224, 0.000000000000000000, 1.800000000000000044 ) ) ;
#116 = SURFACE_STYLE_USAGE ( .BOTH. , #79 ) ;
#117 = MECHANICAL_DESIGN_GEOMETRIC_PRESENTATION_REPRESENTATION (  '', ( #239 ), #256 ) ;
#118 = LINE ( 'NONE', #487, #374 ) ;
#119 = VECTOR ( 'NONE', #110, 1000.000000000000000 ) ;
#120 = DIRECTION ( 'NONE',  ( 0.000000000000000000, -0.000000000000000000, 1.000000000000000000 ) ) ;
#121 = CARTESIAN_POINT ( 'NONE',  ( 6.799999999999998934, 0.8000000000000000444, 1.800000000000000044 ) ) ;
#122 = EDGE_CURVE ( 'NONE', #489, #325, #15, .T. ) ;
#123 = CARTESIAN_POINT ( 'NONE',  ( -6.800000000000001599, 0.8000000000000000444, -1.800000000000000044 ) ) ;
#124 = EDGE_LOOP ( 'NONE', ( #227, #480, #230, #263 ) ) ;
#125 = ADVANCED_FACE ( 'NONE', ( #321 ), #50, .T. ) ;
#126 = CARTESIAN_POINT ( 'NONE',  ( 0.000000000000000000, 0.000000000000000000, 0.000000000000000000 ) ) ;
#127 = AXIS2_PLACEMENT_3D ( 'NONE', #191, #463, #6 ) ;
#128 = DIRECTION ( 'NONE',  ( -0.000000000000000000, 1.000000000000000000, -0.000000000000000000 ) ) ;
#129 = AXIS2_PLACEMENT_3D ( 'NONE', #96, #483, #28 ) ;
#130 = VERTEX_POINT ( 'NONE', #435 ) ;
#131 = CARTESIAN_POINT ( 'NONE',  ( 6.799999999999998934, 0.8000000000000000444, -1.800000000000000044 ) ) ;
#132 = DIRECTION ( 'NONE',  ( 1.000000000000000000, 0.000000000000000000, 0.000000000000000000 ) ) ;
#133 = CARTESIAN_POINT ( 'NONE',  ( -6.800000000000001599, 0.000000000000000000, 1.800000000000000044 ) ) ;
#134 = ORIENTED_EDGE ( 'NONE', *, *, #430, .F. ) ;
#135 = CARTESIAN_POINT ( 'NONE',  ( 6.799999999999998934, 1.000000000000000000, 2.000000000000000000 ) ) ;
#136 = ORIENTED_EDGE ( 'NONE', *, *, #196, .T. ) ;
#137 = CIRCLE ( 'NONE', #288, 0.2000000000000000944 ) ;
#138 = EDGE_CURVE ( 'NONE', #323, #478, #352, .T. ) ;
#139 = DIRECTION ( 'NONE',  ( 0.000000000000000000, 0.000000000000000000, 1.000000000000000000 ) ) ;
#140 = PRODUCT_RELATED_PRODUCT_CATEGORY ( 'part', '', ( #312 ) ) ;
#141 = EDGE_LOOP ( 'NONE', ( #460, #98, #476, #77 ) ) ;
#142 = CARTESIAN_POINT ( 'NONE',  ( 6.799999999999995381, 0.000000000000000000, 2.000000000000000000 ) ) ;
#143 = VERTEX_POINT ( 'NONE', #91 ) ;
#144 = EDGE_CURVE ( 'NONE', #143, #284, #58, .T. ) ;
#145 = DIRECTION ( 'NONE',  ( 0.000000000000000000, 0.000000000000000000, -1.000000000000000000 ) ) ;
#146 = EDGE_LOOP ( 'NONE', ( #75, #106, #175, #400, #410, #377, #394, #20 ) ) ;
#147 = VECTOR ( 'NONE', #477, 1000.000000000000000 ) ;
#148 = CYLINDRICAL_SURFACE ( 'NONE', #56, 0.1999999999999996503 ) ;
#149 = ORIENTED_EDGE ( 'NONE', *, *, #364, .F. ) ;
#150 = FACE_OUTER_BOUND ( 'NONE', #124, .T. ) ;
#151 = ORIENTED_EDGE ( 'NONE', *, *, #329, .T. ) ;
#152 = CARTESIAN_POINT ( 'NONE',  ( 6.799999999999998934, 0.8000000000000000444, 1.800000000000000044 ) ) ;
#153 = DIRECTION ( 'NONE',  ( -0.000000000000000000, 1.000000000000000000, 0.000000000000000000 ) ) ;
#154 = EDGE_CURVE ( 'NONE', #449, #297, #14, .T. ) ;
#155 = DIRECTION ( 'NONE',  ( -0.000000000000000000, -1.000000000000000000, -0.000000000000000000 ) ) ;
#156 = CARTESIAN_POINT ( 'NONE',  ( 6.999999999999998224, 1.000000000000000000, -1.800000000000000044 ) ) ;
#157 = CARTESIAN_POINT ( 'NONE',  ( -7.000000000000000888, 0.8000000000000000444, 1.800000000000000044 ) ) ;
#158 =( NAMED_UNIT ( * ) PLANE_ANGLE_UNIT ( ) SI_UNIT ( $, .RADIAN. ) );
#159 = DIRECTION ( 'NONE',  ( -1.000000000000000000, -0.000000000000000000, -0.000000000000000000 ) ) ;
#160 = PLANE ( 'NONE',  #17 ) ;
#161 = VECTOR ( 'NONE', #167, 1000.000000000000000 ) ;
#162 = EDGE_CURVE ( 'NONE', #318, #200, #250, .T. ) ;
#163 = VECTOR ( 'NONE', #3, 1000.000000000000000 ) ;
#164 = CARTESIAN_POINT ( 'NONE',  ( -6.800000000000001599, 0.8000000000000000444, 1.800000000000000044 ) ) ;
#165 = CARTESIAN_POINT ( 'NONE',  ( 6.999999999999998224, 1.000000000000000000, 1.800000000000000044 ) ) ;
#166 = PRODUCT_DEFINITION_CONTEXT ( 'detailed design', #221, 'design' ) ;
#167 = DIRECTION ( 'NONE',  ( -0.000000000000000000, 1.000000000000000000, -0.000000000000000000 ) ) ;
#168 = DIRECTION ( 'NONE',  ( -0.000000000000000000, -0.000000000000000000, -1.000000000000000000 ) ) ;
#169 = CIRCLE ( 'NONE', #93, 0.1999999999999996503 ) ;
#170 = CARTESIAN_POINT ( 'NONE',  ( -7.000000000000000888, 0.000000000000000000, 2.000000000000000000 ) ) ;
#171 = ORIENTED_EDGE ( 'NONE', *, *, #206, .T. ) ;
#172 = CARTESIAN_POINT ( 'NONE',  ( 6.999999999999998224, 0.000000000000000000, -2.000000000000000000 ) ) ;
#173 = DIRECTION ( 'NONE',  ( 0.000000000000000000, -1.000000000000000000, 0.000000000000000000 ) ) ;
#174 = AXIS2_PLACEMENT_3D ( 'NONE', #379, #310, #195 ) ;
#175 = ORIENTED_EDGE ( 'NONE', *, *, #488, .F. ) ;
#176 = FACE_OUTER_BOUND ( 'NONE', #61, .T. ) ;
#177 = ADVANCED_FACE ( 'NONE', ( #286 ), #211, .F. ) ;
#178 = VERTEX_POINT ( 'NONE', #251 ) ;
#179 = DIRECTION ( 'NONE',  ( -0.000000000000000000, -1.000000000000000000, -0.000000000000000000 ) ) ;
#180 = EDGE_LOOP ( 'NONE', ( #59, #252, #408, #171 ) ) ;
#181 = CARTESIAN_POINT ( 'NONE',  ( -6.800000000000001599, 1.000000000000000000, -1.800000000000000044 ) ) ;
#182 = EDGE_LOOP ( 'NONE', ( #151, #392, #333, #484 ) ) ;
#183 = AXIS2_PLACEMENT_3D ( 'NONE', #54, #209, #361 ) ;
#184 = CIRCLE ( 'NONE', #193, 0.2000000000000000944 ) ;
#185 = CARTESIAN_POINT ( 'NONE',  ( -6.800000000000001599, 0.000000000000000000, -2.000000000000000000 ) ) ;
#186 = ORIENTED_EDGE ( 'NONE', *, *, #242, .F. ) ;
#187 = DIRECTION ( 'NONE',  ( -1.000000000000000000, -0.000000000000000000, -0.000000000000000000 ) ) ;
#188 = CYLINDRICAL_SURFACE ( 'NONE', #127, 0.2000000000000000944 ) ;
#189 = EDGE_CURVE ( 'NONE', #323, #337, #201, .T. ) ;
#190 = CARTESIAN_POINT ( 'NONE',  ( -7.000000000000000888, 0.000000000000000000, -2.000000000000000000 ) ) ;
#191 = CARTESIAN_POINT ( 'NONE',  ( 0.000000000000000000, 0.8000000000000000444, -1.800000000000000044 ) ) ;
#192 = CIRCLE ( 'NONE', #258, 0.2000000000000000944 ) ;
#193 = AXIS2_PLACEMENT_3D ( 'NONE', #60, #23, #222 ) ;
#194 = CARTESIAN_POINT ( 'NONE',  ( 6.999999999999998224, 0.8000000000000000444, 2.000000000000000000 ) ) ;
#195 = DIRECTION ( 'NONE',  ( -1.000000000000000000, 0.000000000000000000, 0.000000000000000000 ) ) ;
#196 = EDGE_CURVE ( 'NONE', #200, #63, #215, .T. ) ;
#197 = CARTESIAN_POINT ( 'NONE',  ( 6.799999999999998934, 1.000000000000000000, -1.800000000000000044 ) ) ;
#198 = EDGE_LOOP ( 'NONE', ( #436, #277, #254 ) ) ;
#199 = LINE ( 'NONE', #194, #119 ) ;
#200 = VERTEX_POINT ( 'NONE', #399 ) ;
#201 = CIRCLE ( 'NONE', #426, 0.2000000000000000944 ) ;
#202 = VECTOR ( 'NONE', #343, 1000.000000000000000 ) ;
#203 =( NAMED_UNIT ( * ) PLANE_ANGLE_UNIT ( ) SI_UNIT ( $, .RADIAN. ) );
#204 = CARTESIAN_POINT ( 'NONE',  ( -6.800000000000001599, 1.000000000000000000, 2.000000000000000000 ) ) ;
#205 = DIRECTION ( 'NONE',  ( -0.000000000000000000, -0.000000000000000000, 1.000000000000000000 ) ) ;
#206 = EDGE_CURVE ( 'NONE', #337, #178, #440, .T. ) ;
#207 = DIRECTION ( 'NONE',  ( 0.000000000000000000, -1.000000000000000000, 0.000000000000000000 ) ) ;
#208 = EDGE_LOOP ( 'NONE', ( #149, #414, #441, #474 ) ) ;
#209 = DIRECTION ( 'NONE',  ( 0.000000000000000000, -1.000000000000000000, 0.000000000000000000 ) ) ;
#210 = AXIS2_PLACEMENT_3D ( 'NONE', #424, #76, #378 ) ;
#211 = PLANE ( 'NONE',  #8 ) ;
#212 = ORIENTED_EDGE ( 'NONE', *, *, #245, .F. ) ;
#213 = CARTESIAN_POINT ( 'NONE',  ( -7.000000000000000888, 0.8000000000000000444, 2.000000000000000000 ) ) ;
#214 = DIRECTION ( 'NONE',  ( 0.000000000000000000, -1.000000000000000000, 0.000000000000000000 ) ) ;
#215 = CIRCLE ( 'NONE', #64, 0.2000000000000000944 ) ;
#216 = VERTEX_POINT ( 'NONE', #142 ) ;
#217 = CARTESIAN_POINT ( 'NONE',  ( -6.800000000000001599, 0.000000000000000000, 2.000000000000000000 ) ) ;
#218 = ORIENTED_EDGE ( 'NONE', *, *, #87, .F. ) ;
#219 = CARTESIAN_POINT ( 'NONE',  ( -7.000000000000000888, 1.000000000000000000, -1.800000000000000044 ) ) ;
#220 = EDGE_LOOP ( 'NONE', ( #16, #26, #212, #265 ) ) ;
#221 = APPLICATION_CONTEXT ( 'automotive_design' ) ;
#222 = DIRECTION ( 'NONE',  ( 0.000000000000000000, 0.000000000000000000, 1.000000000000000000 ) ) ;
#223 = ORIENTED_EDGE ( 'NONE', *, *, #329, .F. ) ;
#224 = CIRCLE ( 'NONE', #274, 0.2000000000000000944 ) ;
#225 =( GEOMETRIC_REPRESENTATION_CONTEXT ( 3 ) GLOBAL_UNCERTAINTY_ASSIGNED_CONTEXT ( ( #429 ) ) GLOBAL_UNIT_ASSIGNED_CONTEXT ( ( #57, #203, #432 ) ) REPRESENTATION_CONTEXT ( 'NONE', 'WORKASPACE' ) );
#226 = CARTESIAN_POINT ( 'NONE',  ( -6.800000000000001599, 0.000000000000000000, -1.800000000000000044 ) ) ;
#227 = ORIENTED_EDGE ( 'NONE', *, *, #87, .T. ) ;
#228 = PRODUCT_DEFINITION ( 'UNKNOWN', '', #365, #166 ) ;
#229 = LINE ( 'NONE', #457, #163 ) ;
#230 = ORIENTED_EDGE ( 'NONE', *, *, #368, .F. ) ;
#231 = EDGE_CURVE ( 'NONE', #489, #216, #192, .T. ) ;
#232 = DIRECTION ( 'NONE',  ( 0.000000000000000000, 0.000000000000000000, 1.000000000000000000 ) ) ;
#233 = CYLINDRICAL_SURFACE ( 'NONE', #275, 0.2000000000000000944 ) ;
#234 =( LENGTH_UNIT ( ) NAMED_UNIT ( * ) SI_UNIT ( .MILLI., .METRE. ) );
#235 = CARTESIAN_POINT ( 'NONE',  ( 6.999999999999998224, 1.000000000000000000, 1.800000000000000044 ) ) ;
#236 = DIRECTION ( 'NONE',  ( -1.000000000000000000, 0.000000000000000000, 0.000000000000000000 ) ) ;
#237 = CARTESIAN_POINT ( 'NONE',  ( -6.800000000000001599, 1.000000000000000000, -1.800000000000000044 ) ) ;
#238 = UNCERTAINTY_MEASURE_WITH_UNIT (LENGTH_MEASURE( 1.000000000000000082E-05 ), #234, 'distance_accuracy_value', 'NONE');
#239 = STYLED_ITEM ( 'NONE', ( #273 ), #37 ) ;
#240 = CARTESIAN_POINT ( 'NONE',  ( -6.800000000000001599, 0.8000000000000000444, -1.800000000000000044 ) ) ;
#241 = ORIENTED_EDGE ( 'NONE', *, *, #242, .T. ) ;
#242 = EDGE_CURVE ( 'NONE', #337, #478, #358, .T. ) ;
#243 = DIRECTION ( 'NONE',  ( 1.000000000000000000, 0.000000000000000000, 0.000000000000000000 ) ) ;
#244 = ORIENTED_EDGE ( 'NONE', *, *, #279, .T. ) ;
#245 = EDGE_CURVE ( 'NONE', #130, #100, #184, .T. ) ;
#246 = DIRECTION ( 'NONE',  ( -1.000000000000000000, 0.000000000000000000, 0.000000000000000000 ) ) ;
#247 = APPLICATION_PROTOCOL_DEFINITION ( 'draft international standard', 'automotive_design', 1998, #342 ) ;
#248 = AXIS2_PLACEMENT_3D ( 'NONE', #131, #359, #469 ) ;
#249 = AXIS2_PLACEMENT_3D ( 'NONE', #103, #332, #363 ) ;
#250 = LINE ( 'NONE', #398, #85 ) ;
#251 = CARTESIAN_POINT ( 'NONE',  ( 6.799999999999995381, 0.000000000000000000, -2.000000000000000000 ) ) ;
#252 = ORIENTED_EDGE ( 'NONE', *, *, #162, .T. ) ;
#253 = CARTESIAN_POINT ( 'NONE',  ( 6.799999999999998934, 0.8000000000000000444, 0.000000000000000000 ) ) ;
#254 = ORIENTED_EDGE ( 'NONE', *, *, #420, .F. ) ;
#255 = LINE ( 'NONE', #219, #10 ) ;
#256 =( GEOMETRIC_REPRESENTATION_CONTEXT ( 3 ) GLOBAL_UNCERTAINTY_ASSIGNED_CONTEXT ( ( #238 ) ) GLOBAL_UNIT_ASSIGNED_CONTEXT ( ( #234, #158, #81 ) ) REPRESENTATION_CONTEXT ( 'NONE', 'WORKASPACE' ) );
#257 = VERTEX_POINT ( 'NONE', #295 ) ;
#258 = AXIS2_PLACEMENT_3D ( 'NONE', #290, #179, #444 ) ;
#259 = ADVANCED_FACE ( 'NONE', ( #485 ), #327, .T. ) ;
#260 = DIRECTION ( 'NONE',  ( 0.000000000000000000, -0.000000000000000000, 1.000000000000000000 ) ) ;
#261 = ORIENTED_EDGE ( 'NONE', *, *, #417, .F. ) ;
#262 = DIRECTION ( 'NONE',  ( 0.000000000000000000, 0.000000000000000000, -1.000000000000000000 ) ) ;
#263 = ORIENTED_EDGE ( 'NONE', *, *, #451, .F. ) ;
#264 = CARTESIAN_POINT ( 'NONE',  ( -7.000000000000000888, 1.000000000000000000, -2.000000000000000000 ) ) ;
#265 = ORIENTED_EDGE ( 'NONE', *, *, #49, .F. ) ;
#266 = AXIS2_PLACEMENT_3D ( 'NONE', #126, #388, #132 ) ;
#267 = CARTESIAN_POINT ( 'NONE',  ( -6.800000000000001599, 0.8000000000000000444, 2.000000000000000000 ) ) ;
#268 = FACE_OUTER_BOUND ( 'NONE', #294, .T. ) ;
#269 = ADVANCED_FACE ( 'NONE', ( #437 ), #99, .F. ) ;
#270 = DIRECTION ( 'NONE',  ( 0.000000000000000000, 0.000000000000000000, 1.000000000000000000 ) ) ;
#271 = FILL_AREA_STYLE ('',( #389 ) ) ;
#272 = DIRECTION ( 'NONE',  ( 0.000000000000000000, -1.000000000000000000, 0.000000000000000000 ) ) ;
#273 = PRESENTATION_STYLE_ASSIGNMENT (( #116 ) ) ;
#274 = AXIS2_PLACEMENT_3D ( 'NONE', #133, #428, #52 ) ;
#275 = AXIS2_PLACEMENT_3D ( 'NONE', #197, #272, #421 ) ;
#276 = DIRECTION ( 'NONE',  ( -0.000000000000000000, 0.000000000000000000, 1.000000000000000000 ) ) ;
#277 = ORIENTED_EDGE ( 'NONE', *, *, #334, .T. ) ;
#278 = SPHERICAL_SURFACE ( 'NONE', #174, 0.2000000000000000111 ) ;
#279 = EDGE_CURVE ( 'NONE', #257, #458, #407, .T. ) ;
#280 = CARTESIAN_POINT ( 'NONE',  ( 6.799999999999998934, 0.8000000000000000444, -1.800000000000000044 ) ) ;
#281 = EDGE_CURVE ( 'NONE', #63, #22, #255, .T. ) ;
#282 = AXIS2_PLACEMENT_3D ( 'NONE', #86, #395, #431 ) ;
#283 = DIRECTION ( 'NONE',  ( -1.000000000000000000, 0.000000000000000000, -0.000000000000000000 ) ) ;
#284 = VERTEX_POINT ( 'NONE', #69 ) ;
#285 = ADVANCED_FACE ( 'NONE', ( #370 ), #30, .T. ) ;
#286 = FACE_OUTER_BOUND ( 'NONE', #182, .T. ) ;
#287 = DIRECTION ( 'NONE',  ( 0.000000000000000000, 0.000000000000000000, -1.000000000000000000 ) ) ;
#288 = AXIS2_PLACEMENT_3D ( 'NONE', #340, #45, #74 ) ;
#289 = DIRECTION ( 'NONE',  ( 0.000000000000000000, 0.000000000000000000, -1.000000000000000000 ) ) ;
#290 = CARTESIAN_POINT ( 'NONE',  ( 6.799999999999998934, 0.000000000000000000, 1.800000000000000044 ) ) ;
#291 = EDGE_LOOP ( 'NONE', ( #375, #223, #356, #438 ) ) ;
#292 = DIRECTION ( 'NONE',  ( 0.000000000000000000, 0.000000000000000000, 1.000000000000000000 ) ) ;
#293 = EDGE_CURVE ( 'NONE', #458, #449, #452, .T. ) ;
#294 = EDGE_LOOP ( 'NONE', ( #104, #467, #328, #55 ) ) ;
#295 = CARTESIAN_POINT ( 'NONE',  ( -7.000000000000000888, 0.000000000000000000, 1.800000000000000044 ) ) ;
#296 = VECTOR ( 'NONE', #11, 1000.000000000000000 ) ;
#297 = VERTEX_POINT ( 'NONE', #217 ) ;
#298 = CARTESIAN_POINT ( 'NONE',  ( -6.800000000000001599, 0.8000000000000000444, 0.000000000000000000 ) ) ;
#299 = ORIENTED_EDGE ( 'NONE', *, *, #346, .F. ) ;
#300 = DIRECTION ( 'NONE',  ( -0.000000000000000000, 1.000000000000000000, -0.000000000000000000 ) ) ;
#301 = ADVANCED_FACE ( 'NONE', ( #176 ), #366, .T. ) ;
#302 = ORIENTED_EDGE ( 'NONE', *, *, #189, .F. ) ;
#303 = CARTESIAN_POINT ( 'NONE',  ( -6.800000000000001599, 1.000000000000000000, 2.000000000000000000 ) ) ;
#304 = FACE_OUTER_BOUND ( 'NONE', #141, .T. ) ;
#305 = VECTOR ( 'NONE', #473, 1000.000000000000000 ) ;
#306 = DIRECTION ( 'NONE',  ( 0.000000000000000000, 0.000000000000000000, 1.000000000000000000 ) ) ;
#307 = ORIENTED_EDGE ( 'NONE', *, *, #154, .F. ) ;
#308 = DIRECTION ( 'NONE',  ( 0.000000000000000000, 0.000000000000000000, 1.000000000000000000 ) ) ;
#309 = DIRECTION ( 'NONE',  ( 1.000000000000000000, 0.000000000000000000, 0.000000000000000000 ) ) ;
#310 = DIRECTION ( 'NONE',  ( 0.000000000000000000, 1.000000000000000000, 0.000000000000000000 ) ) ;
#311 = VECTOR ( 'NONE', #95, 1000.000000000000000 ) ;
#312 = PRODUCT ( 'BAR4X14T1', 'BAR4X14T1', '', ( #13 ) ) ;
#313 = DIRECTION ( 'NONE',  ( 0.000000000000000000, 0.000000000000000000, 1.000000000000000000 ) ) ;
#314 = FACE_OUTER_BOUND ( 'NONE', #402, .T. ) ;
#315 = DIRECTION ( 'NONE',  ( 0.000000000000000000, 0.000000000000000000, 1.000000000000000000 ) ) ;
#316 = ADVANCED_FACE ( 'NONE', ( #373 ), #335, .T. ) ;
#317 = CARTESIAN_POINT ( 'NONE',  ( -7.000000000000000888, 0.8000000000000000444, -2.000000000000000000 ) ) ;
#318 = VERTEX_POINT ( 'NONE', #185 ) ;
#319 = ADVANCED_FACE ( 'NONE', ( #150 ), #148, .T. ) ;
#320 = AXIS2_PLACEMENT_3D ( 'NONE', #226, #376, #306 ) ;
#321 = FACE_OUTER_BOUND ( 'NONE', #53, .T. ) ;
#322 = DIRECTION ( 'NONE',  ( -0.000000000000000000, 1.000000000000000000, -0.000000000000000000 ) ) ;
#323 = VERTEX_POINT ( 'NONE', #338 ) ;
#324 = CARTESIAN_POINT ( 'NONE',  ( -7.000000000000000888, 1.000000000000000000, 2.000000000000000000 ) ) ;
#325 = VERTEX_POINT ( 'NONE', #448 ) ;
#326 = AXIS2_PLACEMENT_3D ( 'NONE', #152, #187, #418 ) ;
#327 = CYLINDRICAL_SURFACE ( 'NONE', #461, 0.2000000000000000944 ) ;
#328 = ORIENTED_EDGE ( 'NONE', *, *, #439, .T. ) ;
#329 = EDGE_CURVE ( 'NONE', #130, #449, #107, .T. ) ;
#330 = DIRECTION ( 'NONE',  ( -1.000000000000000000, 0.000000000000000000, 0.000000000000000000 ) ) ;
#331 = ORIENTED_EDGE ( 'NONE', *, *, #293, .T. ) ;
#332 = DIRECTION ( 'NONE',  ( 1.000000000000000000, -0.000000000000000000, 0.000000000000000000 ) ) ;
#333 = ORIENTED_EDGE ( 'NONE', *, *, #65, .T. ) ;
#334 = EDGE_CURVE ( 'NONE', #100, #284, #390, .T. ) ;
#335 = CYLINDRICAL_SURFACE ( 'NONE', #482, 0.1999999999999996503 ) ;
#336 = CIRCLE ( 'NONE', #490, 0.1999999999999996503 ) ;
#337 = VERTEX_POINT ( 'NONE', #36 ) ;
#338 = CARTESIAN_POINT ( 'NONE',  ( 6.999999999999998224, 0.8000000000000000444, -1.800000000000000044 ) ) ;
#339 = EDGE_LOOP ( 'NONE', ( #406, #108, #302, #84 ) ) ;
#340 = CARTESIAN_POINT ( 'NONE',  ( -6.800000000000001599, 0.8000000000000000444, -1.800000000000000044 ) ) ;
#341 = FACE_OUTER_BOUND ( 'NONE', #198, .T. ) ;
#342 = APPLICATION_CONTEXT ( 'automotive_design' ) ;
#343 = DIRECTION ( 'NONE',  ( 0.000000000000000000, -1.000000000000000000, 0.000000000000000000 ) ) ;
#344 = DIRECTION ( 'NONE',  ( 0.000000000000000000, 0.000000000000000000, -1.000000000000000000 ) ) ;
#345 = VECTOR ( 'NONE', #173, 1000.000000000000000 ) ;
#346 = EDGE_CURVE ( 'NONE', #478, #34, #112, .T. ) ;
#347 = CARTESIAN_POINT ( 'NONE',  ( -7.000000000000000888, 0.000000000000000000, -2.000000000000000000 ) ) ;
#348 = CARTESIAN_POINT ( 'NONE',  ( 6.799999999999998934, 0.000000000000000000, -1.800000000000000044 ) ) ;
#349 = ORIENTED_EDGE ( 'NONE', *, *, #456, .F. ) ;
#350 = FACE_OUTER_BOUND ( 'NONE', #180, .T. ) ;
#351 = ORIENTED_EDGE ( 'NONE', *, *, #138, .T. ) ;
#352 = CIRCLE ( 'NONE', #248, 0.1999999999999996503 ) ;
#353 = DIRECTION ( 'NONE',  ( -0.000000000000000000, 1.000000000000000000, 0.000000000000000000 ) ) ;
#354 = EDGE_CURVE ( 'NONE', #178, #325, #434, .T. ) ;
#355 = FACE_OUTER_BOUND ( 'NONE', #445, .T. ) ;
#356 = ORIENTED_EDGE ( 'NONE', *, *, #420, .T. ) ;
#357 = CARTESIAN_POINT ( 'NONE',  ( 6.799999999999998934, 1.000000000000000000, 1.800000000000000044 ) ) ;
#358 = CIRCLE ( 'NONE', #249, 0.2000000000000000944 ) ;
#359 = DIRECTION ( 'NONE',  ( -0.000000000000000000, -0.000000000000000000, 1.000000000000000000 ) ) ;
#360 = APPLICATION_PROTOCOL_DEFINITION ( 'draft international standard', 'automotive_design', 1998, #221 ) ;
#361 = DIRECTION ( 'NONE',  ( 0.000000000000000000, 0.000000000000000000, -1.000000000000000000 ) ) ;
#362 = ORIENTED_EDGE ( 'NONE', *, *, #293, .F. ) ;
#363 = DIRECTION ( 'NONE',  ( 0.000000000000000000, 0.000000000000000000, -1.000000000000000000 ) ) ;
#364 = EDGE_CURVE ( 'NONE', #22, #318, #413, .T. ) ;
#365 = PRODUCT_DEFINITION_FORMATION_WITH_SPECIFIED_SOURCE ( 'ANY', '', #312, .NOT_KNOWN. ) ;
#366 = SPHERICAL_SURFACE ( 'NONE', #129, 0.2000000000000000111 ) ;
#367 = ORIENTED_EDGE ( 'NONE', *, *, #138, .F. ) ;
#368 = EDGE_CURVE ( 'NONE', #143, #458, #169, .T. ) ;
#369 = ORIENTED_EDGE ( 'NONE', *, *, #114, .T. ) ;
#370 = FACE_OUTER_BOUND ( 'NONE', #208, .T. ) ;
#371 = ORIENTED_EDGE ( 'NONE', *, *, #439, .F. ) ;
#372 = AXIS2_PLACEMENT_3D ( 'NONE', #113, #236, #453 ) ;
#373 = FACE_OUTER_BOUND ( 'NONE', #29, .T. ) ;
#374 = VECTOR ( 'NONE', #78, 1000.000000000000000 ) ;
#375 = ORIENTED_EDGE ( 'NONE', *, *, #102, .T. ) ;
#376 = DIRECTION ( 'NONE',  ( -0.000000000000000000, -1.000000000000000000, -0.000000000000000000 ) ) ;
#377 = ORIENTED_EDGE ( 'NONE', *, *, #354, .T. ) ;
#378 = DIRECTION ( 'NONE',  ( -1.000000000000000000, 0.000000000000000000, 0.000000000000000000 ) ) ;
#379 = CARTESIAN_POINT ( 'NONE',  ( 6.799999999999998934, 0.8000000000000000444, -1.800000000000000044 ) ) ;
#380 = ADVANCED_FACE ( 'NONE', ( #44 ), #233, .T. ) ;
#381 = SPHERICAL_SURFACE ( 'NONE', #210, 0.2000000000000000111 ) ;
#382 = FACE_OUTER_BOUND ( 'NONE', #41, .T. ) ;
#383 = AXIS2_PLACEMENT_3D ( 'NONE', #40, #313, #309 ) ;
#384 = PLANE ( 'NONE',  #66 ) ;
#385 = ORIENTED_EDGE ( 'NONE', *, *, #279, .F. ) ;
#386 = CARTESIAN_POINT ( 'NONE',  ( -7.000000000000000888, 1.000000000000000000, -1.800000000000000044 ) ) ;
#387 = EDGE_CURVE ( 'NONE', #178, #318, #462, .T. ) ;
#388 = DIRECTION ( 'NONE',  ( 0.000000000000000000, 0.000000000000000000, 1.000000000000000000 ) ) ;
#389 = FILL_AREA_STYLE_COLOUR ( '', #450 ) ;
#390 = CIRCLE ( 'NONE', #383, 0.1999999999999996503 ) ;
#391 = DIRECTION ( 'NONE',  ( 0.000000000000000000, 0.000000000000000000, -1.000000000000000000 ) ) ;
#392 = ORIENTED_EDGE ( 'NONE', *, *, #154, .T. ) ;
#393 = LINE ( 'NONE', #135, #411 ) ;
#394 = ORIENTED_EDGE ( 'NONE', *, *, #122, .F. ) ;
#395 = DIRECTION ( 'NONE',  ( 1.000000000000000000, -0.000000000000000000, -0.000000000000000000 ) ) ;
#396 = VECTOR ( 'NONE', #466, 1000.000000000000000 ) ;
#397 = VECTOR ( 'NONE', #308, 1000.000000000000000 ) ;
#398 = CARTESIAN_POINT ( 'NONE',  ( -6.800000000000001599, 1.000000000000000000, -2.000000000000000000 ) ) ;
#399 = CARTESIAN_POINT ( 'NONE',  ( -6.800000000000001599, 0.8000000000000000444, -2.000000000000000000 ) ) ;
#400 = ORIENTED_EDGE ( 'NONE', *, *, #364, .T. ) ;
#401 = CARTESIAN_POINT ( 'NONE',  ( 0.000000000000000000, 0.8000000000000000444, 1.800000000000000044 ) ) ;
#402 = EDGE_LOOP ( 'NONE', ( #186, #261, #134, #299 ) ) ;
#403 = CLOSED_SHELL ( 'NONE', ( #18, #404, #48, #177, #27, #269, #285, #2, #380, #465, #35, #125, #319, #316, #97, #301, #12, #259 ) ) ;
#404 = ADVANCED_FACE ( 'NONE', ( #350 ), #384, .F. ) ;
#405 = DIRECTION ( 'NONE',  ( 0.000000000000000000, -1.000000000000000000, 0.000000000000000000 ) ) ;
#406 = ORIENTED_EDGE ( 'NONE', *, *, #354, .F. ) ;
#407 = LINE ( 'NONE', #446, #32 ) ;
#408 = ORIENTED_EDGE ( 'NONE', *, *, #417, .T. ) ;
#409 = DIRECTION ( 'NONE',  ( 0.000000000000000000, 0.000000000000000000, 1.000000000000000000 ) ) ;
#410 = ORIENTED_EDGE ( 'NONE', *, *, #387, .F. ) ;
#411 = VECTOR ( 'NONE', #322, 1000.000000000000000 ) ;
#412 = DIRECTION ( 'NONE',  ( 1.000000000000000000, 0.000000000000000000, 0.000000000000000000 ) ) ;
#413 = CIRCLE ( 'NONE', #320, 0.2000000000000000944 ) ;
#414 = ORIENTED_EDGE ( 'NONE', *, *, #281, .F. ) ;
#415 = LINE ( 'NONE', #303, #468 ) ;
#416 = CARTESIAN_POINT ( 'NONE',  ( 0.000000000000000000, 1.000000000000000000, 0.000000000000000000 ) ) ;
#417 = EDGE_CURVE ( 'NONE', #200, #337, #229, .T. ) ;
#418 = DIRECTION ( 'NONE',  ( 0.000000000000000000, 0.000000000000000000, -1.000000000000000000 ) ) ;
#419 = SURFACE_STYLE_FILL_AREA ( #271 ) ;
#420 = EDGE_CURVE ( 'NONE', #130, #284, #109, .T. ) ;
#421 = DIRECTION ( 'NONE',  ( 0.000000000000000000, 0.000000000000000000, -1.000000000000000000 ) ) ;
#422 = AXIS2_PLACEMENT_3D ( 'NONE', #19, #243, #391 ) ;
#423 = AXIS2_PLACEMENT_3D ( 'NONE', #348, #155, #270 ) ;
#424 = CARTESIAN_POINT ( 'NONE',  ( -6.800000000000001599, 0.8000000000000000444, -1.800000000000000044 ) ) ;
#425 = DIRECTION ( 'NONE',  ( 0.000000000000000000, 1.000000000000000000, 0.000000000000000000 ) ) ;
#426 = AXIS2_PLACEMENT_3D ( 'NONE', #280, #353, #315 ) ;
#427 = AXIS2_PLACEMENT_3D ( 'NONE', #181, #214, #145 ) ;
#428 = DIRECTION ( 'NONE',  ( -0.000000000000000000, -1.000000000000000000, -0.000000000000000000 ) ) ;
#429 = UNCERTAINTY_MEASURE_WITH_UNIT (LENGTH_MEASURE( 1.000000000000000082E-05 ), #57, 'distance_accuracy_value', 'NONE');
#430 = EDGE_CURVE ( 'NONE', #34, #200, #137, .T. ) ;
#431 = DIRECTION ( 'NONE',  ( 0.000000000000000000, 0.000000000000000000, 1.000000000000000000 ) ) ;
#432 =( NAMED_UNIT ( * ) SI_UNIT ( $, .STERADIAN. ) SOLID_ANGLE_UNIT ( ) );
#433 = LINE ( 'NONE', #317, #396 ) ;
#434 = CIRCLE ( 'NONE', #423, 0.2000000000000000944 ) ;
#435 = CARTESIAN_POINT ( 'NONE',  ( 6.799999999999998934, 0.8000000000000000444, 2.000000000000000000 ) ) ;
#436 = ORIENTED_EDGE ( 'NONE', *, *, #245, .T. ) ;
#437 = FACE_OUTER_BOUND ( 'NONE', #146, .T. ) ;
#438 = ORIENTED_EDGE ( 'NONE', *, *, #144, .F. ) ;
#439 = EDGE_CURVE ( 'NONE', #284, #478, #118, .T. ) ;
#440 = LINE ( 'NONE', #62, #345 ) ;
#441 = ORIENTED_EDGE ( 'NONE', *, *, #196, .F. ) ;
#442 = VECTOR ( 'NONE', #168, 1000.000000000000000 ) ;
#443 = AXIS2_PLACEMENT_3D ( 'NONE', #25, #71, #260 ) ;
#444 = DIRECTION ( 'NONE',  ( 5.204170427930418759E-14, 0.000000000000000000, 1.000000000000000000 ) ) ;
#445 = EDGE_LOOP ( 'NONE', ( #447, #244, #369, #72 ) ) ;
#446 = CARTESIAN_POINT ( 'NONE',  ( -7.000000000000000888, 1.000000000000000000, 1.800000000000000044 ) ) ;
#447 = ORIENTED_EDGE ( 'NONE', *, *, #488, .T. ) ;
#448 = CARTESIAN_POINT ( 'NONE',  ( 6.999999999999998224, 0.000000000000000000, -1.800000000000000044 ) ) ;
#449 = VERTEX_POINT ( 'NONE', #267 ) ;
#450 = COLOUR_RGB ( '',0.8980392156862745390, 0.9215686274509803377, 0.9294117647058823817 ) ;
#451 = EDGE_CURVE ( 'NONE', #34, #143, #415, .T. ) ;
#452 = CIRCLE ( 'NONE', #101, 0.2000000000000000944 ) ;
#453 = DIRECTION ( 'NONE',  ( 0.000000000000000000, 0.000000000000000000, 1.000000000000000000 ) ) ;
#454 = DIRECTION ( 'NONE',  ( -1.000000000000000000, 0.000000000000000000, 0.000000000000000000 ) ) ;
#455 = PLANE ( 'NONE',  #372 ) ;
#456 = EDGE_CURVE ( 'NONE', #323, #100, #199, .T. ) ;
#457 = CARTESIAN_POINT ( 'NONE',  ( 6.999999999999998224, 0.8000000000000000444, -2.000000000000000000 ) ) ;
#458 = VERTEX_POINT ( 'NONE', #157 ) ;
#459 = DIRECTION ( 'NONE',  ( 1.000000000000000000, 0.000000000000000000, -0.000000000000000000 ) ) ;
#460 = ORIENTED_EDGE ( 'NONE', *, *, #122, .T. ) ;
#461 = AXIS2_PLACEMENT_3D ( 'NONE', #401, #479, #409 ) ;
#462 = LINE ( 'NONE', #190, #80 ) ;
#463 = DIRECTION ( 'NONE',  ( 1.000000000000000000, 0.000000000000000000, 0.000000000000000000 ) ) ;
#464 = CARTESIAN_POINT ( 'NONE',  ( -7.000000000000000888, 0.8000000000000000444, -1.800000000000000044 ) ) ;
#465 = ADVANCED_FACE ( 'NONE', ( #7 ), #381, .T. ) ;
#466 = DIRECTION ( 'NONE',  ( 0.000000000000000000, -0.000000000000000000, -1.000000000000000000 ) ) ;
#467 = ORIENTED_EDGE ( 'NONE', *, *, #144, .T. ) ;
#468 = VECTOR ( 'NONE', #276, 1000.000000000000000 ) ;
#469 = DIRECTION ( 'NONE',  ( -1.000000000000000000, 0.000000000000000000, 0.000000000000000000 ) ) ;
#470 = ORIENTED_EDGE ( 'NONE', *, *, #102, .F. ) ;
#471 = FACE_OUTER_BOUND ( 'NONE', #220, .T. ) ;
#472 = EDGE_CURVE ( 'NONE', #100, #489, #82, .T. ) ;
#473 = DIRECTION ( 'NONE',  ( 0.000000000000000000, -1.000000000000000000, 0.000000000000000000 ) ) ;
#474 = ORIENTED_EDGE ( 'NONE', *, *, #162, .F. ) ;
#475 = CARTESIAN_POINT ( 'NONE',  ( -6.800000000000001599, 0.8000000000000000444, 1.800000000000000044 ) ) ;
#476 = ORIENTED_EDGE ( 'NONE', *, *, #456, .T. ) ;
#477 = DIRECTION ( 'NONE',  ( -1.000000000000000000, -0.000000000000000000, -0.000000000000000000 ) ) ;
#478 = VERTEX_POINT ( 'NONE', #491 ) ;
#479 = DIRECTION ( 'NONE',  ( -1.000000000000000000, 0.000000000000000000, 0.000000000000000000 ) ) ;
#480 = ORIENTED_EDGE ( 'NONE', *, *, #114, .F. ) ;
#481 = PRESENTATION_LAYER_ASSIGNMENT (  '', '', ( #239 ) ) ;
#482 = AXIS2_PLACEMENT_3D ( 'NONE', #253, #33, #105 ) ;
#483 = DIRECTION ( 'NONE',  ( 0.000000000000000000, 1.000000000000000000, -0.000000000000000000 ) ) ;
#484 = ORIENTED_EDGE ( 'NONE', *, *, #49, .T. ) ;
#485 = FACE_OUTER_BOUND ( 'NONE', #291, .T. ) ;
#486 = ORIENTED_EDGE ( 'NONE', *, *, #368, .T. ) ;
#487 = CARTESIAN_POINT ( 'NONE',  ( 6.799999999999998934, 1.000000000000000000, -2.000000000000000000 ) ) ;
#488 = EDGE_CURVE ( 'NONE', #22, #257, #42, .T. ) ;
#489 = VERTEX_POINT ( 'NONE', #115 ) ;
#490 = AXIS2_PLACEMENT_3D ( 'NONE', #240, #205, #246 ) ;
#491 = CARTESIAN_POINT ( 'NONE',  ( 6.799999999999998934, 1.000000000000000000, -1.800000000000000044 ) ) ;
ENDSEC;
END-ISO-10303-21;
