ISO-10303-21;
HEADER;
FILE_DESCRIPTION (( 'STEP AP214' ),
    '1' );
FILE_NAME ('BAR4X18T1.step',
    '2026-03-22T07:23:17',
    ( '' ),
    ( '' ),
    'SwSTEP 2.0',
    'SolidWorks 2025',
    '' );
FILE_SCHEMA (( 'AUTOMOTIVE_DESIGN' ));
ENDSEC;

DATA;
#1 = DIRECTION ( 'NONE',  ( -1.000000000000000000, 0.000000000000000000, 0.000000000000000000 ) ) ;
#2 = DIRECTION ( 'NONE',  ( 1.000000000000000000, 0.000000000000000000, 0.000000000000000000 ) ) ;
#3 = EDGE_LOOP ( 'NONE', ( #410, #341, #62, #276 ) ) ;
#4 = CARTESIAN_POINT ( 'NONE',  ( 8.799999999999997158, 0.8000000000000000444, 1.800000000000000044 ) ) ;
#5 = ADVANCED_FACE ( 'NONE', ( #192 ), #235, .T. ) ;
#6 = DIRECTION ( 'NONE',  ( -0.000000000000000000, 1.000000000000000000, 0.000000000000000000 ) ) ;
#7 = AXIS2_PLACEMENT_3D ( 'NONE', #202, #356, #245 ) ;
#8 = DIRECTION ( 'NONE',  ( 0.000000000000000000, 0.000000000000000000, -1.000000000000000000 ) ) ;
#9 = EDGE_CURVE ( 'NONE', #75, #34, #248, .T. ) ;
#10 = FACE_OUTER_BOUND ( 'NONE', #59, .T. ) ;
#11 = ADVANCED_FACE ( 'NONE', ( #343 ), #231, .T. ) ;
#12 = ADVANCED_FACE ( 'NONE', ( #37 ), #166, .T. ) ;
#13 = LINE ( 'NONE', #168, #79 ) ;
#14 = FACE_OUTER_BOUND ( 'NONE', #266, .T. ) ;
#15 = CARTESIAN_POINT ( 'NONE',  ( 8.999999999999998224, 0.000000000000000000, -1.800000000000000044 ) ) ;
#16 = DIRECTION ( 'NONE',  ( 0.000000000000000000, 1.000000000000000000, 0.000000000000000000 ) ) ;
#17 = PRESENTATION_LAYER_ASSIGNMENT (  '', '', ( #177 ) ) ;
#18 = VECTOR ( 'NONE', #222, 1000.000000000000000 ) ;
#19 = APPLICATION_CONTEXT ( 'automotive_design' ) ;
#20 = CARTESIAN_POINT ( 'NONE',  ( -8.800000000000000711, 0.8000000000000000444, -1.800000000000000044 ) ) ;
#21 = ORIENTED_EDGE ( 'NONE', *, *, #405, .F. ) ;
#22 = DIRECTION ( 'NONE',  ( -1.000000000000000000, -0.000000000000000000, -0.000000000000000000 ) ) ;
#23 = EDGE_CURVE ( 'NONE', #354, #361, #27, .T. ) ;
#24 = EDGE_CURVE ( 'NONE', #400, #488, #92, .T. ) ;
#25 = ORIENTED_EDGE ( 'NONE', *, *, #35, .F. ) ;
#26 = CYLINDRICAL_SURFACE ( 'NONE', #280, 0.2000000000000005107 ) ;
#27 = CIRCLE ( 'NONE', #309, 0.2000000000000000944 ) ;
#28 = PRODUCT_RELATED_PRODUCT_CATEGORY ( 'part', '', ( #138 ) ) ;
#29 = ORIENTED_EDGE ( 'NONE', *, *, #417, .T. ) ;
#30 = DIRECTION ( 'NONE',  ( -1.000000000000000000, -0.000000000000000000, -0.000000000000000000 ) ) ;
#31 = VERTEX_POINT ( 'NONE', #78 ) ;
#32 = CIRCLE ( 'NONE', #375, 0.2000000000000000944 ) ;
#33 = DIRECTION ( 'NONE',  ( 0.000000000000000000, 1.000000000000000000, 0.000000000000000000 ) ) ;
#34 = VERTEX_POINT ( 'NONE', #419 ) ;
#35 = EDGE_CURVE ( 'NONE', #268, #400, #372, .T. ) ;
#36 = LINE ( 'NONE', #353, #214 ) ;
#37 = FACE_OUTER_BOUND ( 'NONE', #56, .T. ) ;
#38 = VECTOR ( 'NONE', #165, 1000.000000000000000 ) ;
#39 = VECTOR ( 'NONE', #43, 1000.000000000000000 ) ;
#40 = DIRECTION ( 'NONE',  ( 0.000000000000000000, 0.000000000000000000, 1.000000000000000000 ) ) ;
#41 = CARTESIAN_POINT ( 'NONE',  ( 8.999999999999998224, 0.8000000000000000444, -2.000000000000000000 ) ) ;
#42 = DIRECTION ( 'NONE',  ( 0.000000000000000000, 0.000000000000000000, 1.000000000000000000 ) ) ;
#43 = DIRECTION ( 'NONE',  ( -0.000000000000000000, -0.000000000000000000, 1.000000000000000000 ) ) ;
#44 = DIRECTION ( 'NONE',  ( 1.000000000000000000, 0.000000000000000000, -0.000000000000000000 ) ) ;
#45 = DIRECTION ( 'NONE',  ( 1.000000000000000000, -0.000000000000000000, 0.000000000000000000 ) ) ;
#46 = DIRECTION ( 'NONE',  ( 0.000000000000000000, 0.000000000000000000, -1.000000000000000000 ) ) ;
#47 = VECTOR ( 'NONE', #45, 1000.000000000000000 ) ;
#48 = ADVANCED_FACE ( 'NONE', ( #461 ), #277, .T. ) ;
#49 = DIRECTION ( 'NONE',  ( 0.000000000000000000, 0.000000000000000000, -1.000000000000000000 ) ) ;
#50 = EDGE_CURVE ( 'NONE', #263, #31, #285, .T. ) ;
#51 = DIRECTION ( 'NONE',  ( 0.000000000000000000, 0.000000000000000000, -1.000000000000000000 ) ) ;
#52 = CARTESIAN_POINT ( 'NONE',  ( -8.800000000000000711, 1.000000000000000000, -1.800000000000000044 ) ) ;
#53 = ORIENTED_EDGE ( 'NONE', *, *, #153, .T. ) ;
#54 = AXIS2_PLACEMENT_3D ( 'NONE', #52, #88, #51 ) ;
#55 = FACE_OUTER_BOUND ( 'NONE', #249, .T. ) ;
#56 = EDGE_LOOP ( 'NONE', ( #335, #441, #490 ) ) ;
#57 = ADVANCED_FACE ( 'NONE', ( #459 ), #272, .F. ) ;
#58 = CARTESIAN_POINT ( 'NONE',  ( 8.799999999999997158, 0.8000000000000000444, 0.000000000000000000 ) ) ;
#59 = EDGE_LOOP ( 'NONE', ( #91, #319, #29, #445 ) ) ;
#60 = PRODUCT_DEFINITION_SHAPE ( 'NONE', 'NONE',  #157 ) ;
#61 = DIRECTION ( 'NONE',  ( 0.000000000000000000, 0.000000000000000000, -1.000000000000000000 ) ) ;
#62 = ORIENTED_EDGE ( 'NONE', *, *, #278, .F. ) ;
#63 = EDGE_CURVE ( 'NONE', #223, #182, #483, .T. ) ;
#64 = CARTESIAN_POINT ( 'NONE',  ( -8.800000000000000711, 1.000000000000000000, -1.800000000000000044 ) ) ;
#65 = UNCERTAINTY_MEASURE_WITH_UNIT (LENGTH_MEASURE( 1.000000000000000082E-05 ), #74, 'distance_accuracy_value', 'NONE');
#66 = AXIS2_PLACEMENT_3D ( 'NONE', #433, #49, #208 ) ;
#67 = CARTESIAN_POINT ( 'NONE',  ( 8.999999999999998224, 1.000000000000000000, -1.800000000000000044 ) ) ;
#68 = ORIENTED_EDGE ( 'NONE', *, *, #99, .T. ) ;
#69 = CARTESIAN_POINT ( 'NONE',  ( -8.800000000000000711, 0.8000000000000000444, -1.800000000000000044 ) ) ;
#70 = ORIENTED_EDGE ( 'NONE', *, *, #293, .F. ) ;
#71 = DIRECTION ( 'NONE',  ( -0.000000000000000000, -0.000000000000000000, 1.000000000000000000 ) ) ;
#72 = ORIENTED_EDGE ( 'NONE', *, *, #468, .T. ) ;
#73 = VECTOR ( 'NONE', #358, 1000.000000000000000 ) ;
#74 =( LENGTH_UNIT ( ) NAMED_UNIT ( * ) SI_UNIT ( .MILLI., .METRE. ) );
#75 = VERTEX_POINT ( 'NONE', #93 ) ;
#76 = CARTESIAN_POINT ( 'NONE',  ( 8.799999999999995381, 1.000000000000000000, -1.800000000000000044 ) ) ;
#77 = CARTESIAN_POINT ( 'NONE',  ( 0.000000000000000000, 0.8000000000000000444, 1.800000000000000044 ) ) ;
#78 = CARTESIAN_POINT ( 'NONE',  ( -8.800000000000000711, 0.8000000000000000444, 2.000000000000000000 ) ) ;
#79 = VECTOR ( 'NONE', #170, 1000.000000000000000 ) ;
#80 = LINE ( 'NONE', #82, #469 ) ;
#81 = DIRECTION ( 'NONE',  ( 0.000000000000000000, 0.000000000000000000, 1.000000000000000000 ) ) ;
#82 = CARTESIAN_POINT ( 'NONE',  ( -8.800000000000000711, 1.000000000000000000, -2.000000000000000000 ) ) ;
#83 = ORIENTED_EDGE ( 'NONE', *, *, #366, .T. ) ;
#84 = VECTOR ( 'NONE', #118, 1000.000000000000000 ) ;
#85 = ORIENTED_EDGE ( 'NONE', *, *, #317, .T. ) ;
#86 = CIRCLE ( 'NONE', #152, 0.2000000000000000944 ) ;
#87 = ADVANCED_FACE ( 'NONE', ( #281 ), #429, .F. ) ;
#88 = DIRECTION ( 'NONE',  ( 0.000000000000000000, -1.000000000000000000, 0.000000000000000000 ) ) ;
#89 = SHAPE_DEFINITION_REPRESENTATION ( #60, #197 ) ;
#90 = DIRECTION ( 'NONE',  ( 0.000000000000000000, 0.000000000000000000, 1.000000000000000000 ) ) ;
#91 = ORIENTED_EDGE ( 'NONE', *, *, #439, .T. ) ;
#92 = CIRCLE ( 'NONE', #396, 0.2000000000000005107 ) ;
#93 = CARTESIAN_POINT ( 'NONE',  ( 8.999999999999998224, 0.8000000000000000444, -1.800000000000000044 ) ) ;
#94 = ORIENTED_EDGE ( 'NONE', *, *, #243, .T. ) ;
#95 = DIRECTION ( 'NONE',  ( -1.000000000000000000, 0.000000000000000000, 0.000000000000000000 ) ) ;
#96 = LINE ( 'NONE', #247, #146 ) ;
#97 = FACE_OUTER_BOUND ( 'NONE', #332, .T. ) ;
#98 = ORIENTED_EDGE ( 'NONE', *, *, #178, .T. ) ;
#99 = EDGE_CURVE ( 'NONE', #75, #421, #437, .T. ) ;
#100 = CARTESIAN_POINT ( 'NONE',  ( -8.800000000000000711, 0.000000000000000000, -1.800000000000000044 ) ) ;
#101 = ORIENTED_EDGE ( 'NONE', *, *, #203, .T. ) ;
#102 = ADVANCED_FACE ( 'NONE', ( #55 ), #318, .T. ) ;
#103 = EDGE_CURVE ( 'NONE', #263, #337, #121, .T. ) ;
#104 = CIRCLE ( 'NONE', #385, 0.1999999999999999833 ) ;
#105 = CARTESIAN_POINT ( 'NONE',  ( -8.800000000000000711, 0.8000000000000000444, -1.800000000000000044 ) ) ;
#106 = ORIENTED_EDGE ( 'NONE', *, *, #9, .F. ) ;
#107 = DIRECTION ( 'NONE',  ( -1.000000000000000000, 0.000000000000000000, 0.000000000000000000 ) ) ;
#108 = ORIENTED_EDGE ( 'NONE', *, *, #103, .T. ) ;
#109 = PLANE ( 'NONE',  #240 ) ;
#110 = ORIENTED_EDGE ( 'NONE', *, *, #201, .T. ) ;
#111 = EDGE_CURVE ( 'NONE', #34, #223, #325, .T. ) ;
#112 = AXIS2_PLACEMENT_3D ( 'NONE', #76, #237, #230 ) ;
#113 = LINE ( 'NONE', #313, #303 ) ;
#114 = EDGE_LOOP ( 'NONE', ( #108, #180, #207 ) ) ;
#115 = LINE ( 'NONE', #269, #84 ) ;
#116 = DIRECTION ( 'NONE',  ( 0.000000000000000000, 1.000000000000000000, 0.000000000000000000 ) ) ;
#117 = ADVANCED_FACE ( 'NONE', ( #206 ), #394, .T. ) ;
#118 = DIRECTION ( 'NONE',  ( -0.000000000000000000, -0.000000000000000000, -1.000000000000000000 ) ) ;
#119 = CARTESIAN_POINT ( 'NONE',  ( 8.799999999999997158, 0.8000000000000000444, 1.800000000000000044 ) ) ;
#120 = SPHERICAL_SURFACE ( 'NONE', #257, 0.2000000000000000111 ) ;
#121 = CIRCLE ( 'NONE', #7, 0.2000000000000005107 ) ;
#122 = DIRECTION ( 'NONE',  ( 0.000000000000000000, 0.000000000000000000, 1.000000000000000000 ) ) ;
#123 = DIRECTION ( 'NONE',  ( 1.000000000000000000, -0.000000000000000000, -0.000000000000000000 ) ) ;
#124 = CARTESIAN_POINT ( 'NONE',  ( 8.799999999999997158, 0.8000000000000000444, -1.800000000000000044 ) ) ;
#125 = DIRECTION ( 'NONE',  ( 0.000000000000000000, 0.000000000000000000, 1.000000000000000000 ) ) ;
#126 = EDGE_CURVE ( 'NONE', #31, #354, #283, .T. ) ;
#127 = DIRECTION ( 'NONE',  ( 0.000000000000000000, 1.000000000000000000, 0.000000000000000000 ) ) ;
#128 = MECHANICAL_DESIGN_GEOMETRIC_PRESENTATION_REPRESENTATION (  '', ( #177 ), #427 ) ;
#129 = CARTESIAN_POINT ( 'NONE',  ( 8.999999999999998224, 1.000000000000000000, -2.000000000000000000 ) ) ;
#130 = CIRCLE ( 'NONE', #304, 0.2000000000000005107 ) ;
#131 = PRODUCT_CONTEXT ( 'NONE', #19, 'mechanical' ) ;
#132 = DIRECTION ( 'NONE',  ( 0.000000000000000000, -1.000000000000000000, 0.000000000000000000 ) ) ;
#133 = CARTESIAN_POINT ( 'NONE',  ( -9.000000000000001776, 0.8000000000000000444, -2.000000000000000000 ) ) ;
#134 = AXIS2_PLACEMENT_3D ( 'NONE', #274, #116, #196 ) ;
#135 = CARTESIAN_POINT ( 'NONE',  ( 8.999999999999998224, 1.000000000000000000, 1.800000000000000044 ) ) ;
#136 = DIRECTION ( 'NONE',  ( -1.000000000000000000, 0.000000000000000000, 0.000000000000000000 ) ) ;
#137 = EDGE_CURVE ( 'NONE', #467, #361, #204, .T. ) ;
#138 = PRODUCT ( 'BAR4X18T1', 'BAR4X18T1', '', ( #131 ) ) ;
#139 = CARTESIAN_POINT ( 'NONE',  ( -8.800000000000000711, 0.8000000000000000444, 1.800000000000000044 ) ) ;
#140 = VERTEX_POINT ( 'NONE', #438 ) ;
#141 = CYLINDRICAL_SURFACE ( 'NONE', #470, 0.2000000000000000944 ) ;
#142 = EDGE_LOOP ( 'NONE', ( #261, #408, #101, #270 ) ) ;
#143 = AXIS2_PLACEMENT_3D ( 'NONE', #175, #477, #251 ) ;
#144 = DIRECTION ( 'NONE',  ( 0.000000000000000000, 1.000000000000000000, -0.000000000000000000 ) ) ;
#145 = ORIENTED_EDGE ( 'NONE', *, *, #63, .T. ) ;
#146 = VECTOR ( 'NONE', #132, 1000.000000000000000 ) ;
#147 = DIRECTION ( 'NONE',  ( -0.000000000000000000, 1.000000000000000000, -0.000000000000000000 ) ) ;
#148 = ORIENTED_EDGE ( 'NONE', *, *, #382, .T. ) ;
#149 = EDGE_CURVE ( 'NONE', #218, #268, #13, .T. ) ;
#150 = FACE_OUTER_BOUND ( 'NONE', #404, .T. ) ;
#151 = VERTEX_POINT ( 'NONE', #466 ) ;
#152 = AXIS2_PLACEMENT_3D ( 'NONE', #100, #376, #373 ) ;
#153 = EDGE_CURVE ( 'NONE', #400, #322, #399, .T. ) ;
#154 = DIRECTION ( 'NONE',  ( -0.000000000000000000, -1.000000000000000000, -0.000000000000000000 ) ) ;
#155 = ADVANCED_FACE ( 'NONE', ( #10 ), #478, .F. ) ;
#156 = CARTESIAN_POINT ( 'NONE',  ( -8.800000000000000711, 0.8000000000000000444, 1.800000000000000044 ) ) ;
#157 = PRODUCT_DEFINITION ( 'UNKNOWN', '', #239, #330 ) ;
#158 = CYLINDRICAL_SURFACE ( 'NONE', #112, 0.2000000000000000944 ) ;
#159 = CARTESIAN_POINT ( 'NONE',  ( -8.800000000000000711, 1.000000000000000000, 1.800000000000000044 ) ) ;
#160 = CARTESIAN_POINT ( 'NONE',  ( 8.799999999999995381, 0.8000000000000000444, -1.800000000000000044 ) ) ;
#161 = AXIS2_PLACEMENT_3D ( 'NONE', #129, #397, #90 ) ;
#162 = ORIENTED_EDGE ( 'NONE', *, *, #103, .F. ) ;
#163 = AXIS2_PLACEMENT_3D ( 'NONE', #436, #172, #287 ) ;
#164 = AXIS2_PLACEMENT_3D ( 'NONE', #444, #224, #336 ) ;
#165 = DIRECTION ( 'NONE',  ( -1.000000000000000000, -0.000000000000000000, -0.000000000000000000 ) ) ;
#166 = SPHERICAL_SURFACE ( 'NONE', #134, 0.2000000000000000111 ) ;
#167 = CARTESIAN_POINT ( 'NONE',  ( 8.799999999999997158, 1.000000000000000000, 1.800000000000000044 ) ) ;
#168 = CARTESIAN_POINT ( 'NONE',  ( 8.799999999999995381, 1.000000000000000000, 2.000000000000000000 ) ) ;
#169 = ORIENTED_EDGE ( 'NONE', *, *, #315, .F. ) ;
#170 = DIRECTION ( 'NONE',  ( -0.000000000000000000, 1.000000000000000000, -0.000000000000000000 ) ) ;
#171 = APPLICATION_PROTOCOL_DEFINITION ( 'draft international standard', 'automotive_design', 1998, #288 ) ;
#172 = DIRECTION ( 'NONE',  ( -0.000000000000000000, -0.000000000000000000, 1.000000000000000000 ) ) ;
#173 = CARTESIAN_POINT ( 'NONE',  ( -9.000000000000001776, 0.000000000000000000, -2.000000000000000000 ) ) ;
#174 = ORIENTED_EDGE ( 'NONE', *, *, #326, .T. ) ;
#175 = CARTESIAN_POINT ( 'NONE',  ( 0.000000000000000000, 0.8000000000000000444, -1.800000000000000044 ) ) ;
#176 =( GEOMETRIC_REPRESENTATION_CONTEXT ( 3 ) GLOBAL_UNCERTAINTY_ASSIGNED_CONTEXT ( ( #213 ) ) GLOBAL_UNIT_ASSIGNED_CONTEXT ( ( #282, #432, #241 ) ) REPRESENTATION_CONTEXT ( 'NONE', 'WORKASPACE' ) );
#177 = STYLED_ITEM ( 'NONE', ( #491 ), #395 ) ;
#178 = EDGE_CURVE ( 'NONE', #151, #467, #96, .T. ) ;
#179 = DIRECTION ( 'NONE',  ( 0.000000000000000000, 0.000000000000000000, 1.000000000000000000 ) ) ;
#180 = ORIENTED_EDGE ( 'NONE', *, *, #278, .T. ) ;
#181 = CARTESIAN_POINT ( 'NONE',  ( -9.000000000000001776, 1.000000000000000000, -2.000000000000000000 ) ) ;
#182 = VERTEX_POINT ( 'NONE', #15 ) ;
#183 = AXIS2_PLACEMENT_3D ( 'NONE', #77, #1, #233 ) ;
#184 = CARTESIAN_POINT ( 'NONE',  ( -9.000000000000001776, 0.8000000000000000444, 1.800000000000000044 ) ) ;
#185 = ORIENTED_EDGE ( 'NONE', *, *, #35, .T. ) ;
#186 = DIRECTION ( 'NONE',  ( 0.000000000000000000, 0.000000000000000000, -1.000000000000000000 ) ) ;
#187 = ORIENTED_EDGE ( 'NONE', *, *, #243, .F. ) ;
#188 = CARTESIAN_POINT ( 'NONE',  ( 8.799999999999995381, 0.000000000000000000, -2.000000000000000000 ) ) ;
#189 = ORIENTED_EDGE ( 'NONE', *, *, #315, .T. ) ;
#190 = ADVANCED_FACE ( 'NONE', ( #14 ), #323, .T. ) ;
#191 = CARTESIAN_POINT ( 'NONE',  ( 8.999999999999998224, 0.8000000000000000444, 1.800000000000000044 ) ) ;
#192 = FACE_OUTER_BOUND ( 'NONE', #3, .T. ) ;
#193 = VECTOR ( 'NONE', #147, 1000.000000000000000 ) ;
#194 = ADVANCED_FACE ( 'NONE', ( #253 ), #284, .T. ) ;
#195 = CARTESIAN_POINT ( 'NONE',  ( 8.799999999999997158, 0.000000000000000000, 1.800000000000000044 ) ) ;
#196 = DIRECTION ( 'NONE',  ( -1.000000000000000000, 0.000000000000000000, 8.673617379884013384E-15 ) ) ;
#197 = ADVANCED_BREP_SHAPE_REPRESENTATION ( 'BAR4X18T1', ( #395, #451 ), #176 ) ;
#198 = CARTESIAN_POINT ( 'NONE',  ( -9.000000000000001776, 0.8000000000000000444, 2.000000000000000000 ) ) ;
#199 = ORIENTED_EDGE ( 'NONE', *, *, #456, .T. ) ;
#200 = CARTESIAN_POINT ( 'NONE',  ( 8.799999999999995381, 0.000000000000000000, -1.800000000000000044 ) ) ;
#201 = EDGE_CURVE ( 'NONE', #337, #151, #289, .T. ) ;
#202 = CARTESIAN_POINT ( 'NONE',  ( -8.800000000000000711, 0.8000000000000000444, 1.800000000000000044 ) ) ;
#203 = EDGE_CURVE ( 'NONE', #268, #488, #32, .T. ) ;
#204 = LINE ( 'NONE', #173, #217 ) ;
#205 = AXIS2_PLACEMENT_3D ( 'NONE', #200, #238, #328 ) ;
#206 = FACE_OUTER_BOUND ( 'NONE', #384, .T. ) ;
#207 = ORIENTED_EDGE ( 'NONE', *, *, #50, .F. ) ;
#208 = DIRECTION ( 'NONE',  ( -1.000000000000000000, 0.000000000000000000, -0.000000000000000000 ) ) ;
#209 = EDGE_LOOP ( 'NONE', ( #416, #453, #106, #449 ) ) ;
#210 = CARTESIAN_POINT ( 'NONE',  ( -8.800000000000000711, 1.000000000000000000, 2.000000000000000000 ) ) ;
#211 = ORIENTED_EDGE ( 'NONE', *, *, #366, .F. ) ;
#212 = CARTESIAN_POINT ( 'NONE',  ( -8.800000000000000711, 1.000000000000000000, 1.800000000000000044 ) ) ;
#213 = UNCERTAINTY_MEASURE_WITH_UNIT (LENGTH_MEASURE( 1.000000000000000082E-05 ), #282, 'distance_accuracy_value', 'NONE');
#214 = VECTOR ( 'NONE', #2, 1000.000000000000000 ) ;
#215 = VECTOR ( 'NONE', #22, 1000.000000000000000 ) ;
#216 = CARTESIAN_POINT ( 'NONE',  ( 8.799999999999995381, 0.000000000000000000, 2.000000000000000000 ) ) ;
#217 = VECTOR ( 'NONE', #360, 1000.000000000000000 ) ;
#218 = VERTEX_POINT ( 'NONE', #216 ) ;
#219 = DIRECTION ( 'NONE',  ( 0.000000000000000000, -1.000000000000000000, 0.000000000000000000 ) ) ;
#220 = ORIENTED_EDGE ( 'NONE', *, *, #456, .F. ) ;
#221 = CLOSED_SHELL ( 'NONE', ( #87, #57, #331, #155, #246, #226, #102, #117, #381, #194, #12, #5, #333, #190, #236, #11, #431, #48 ) ) ;
#222 = DIRECTION ( 'NONE',  ( -0.000000000000000000, 0.000000000000000000, 1.000000000000000000 ) ) ;
#223 = VERTEX_POINT ( 'NONE', #188 ) ;
#224 = DIRECTION ( 'NONE',  ( 0.000000000000000000, 1.000000000000000000, 0.000000000000000000 ) ) ;
#225 = ORIENTED_EDGE ( 'NONE', *, *, #405, .T. ) ;
#226 = ADVANCED_FACE ( 'NONE', ( #97 ), #260, .F. ) ;
#227 = SURFACE_STYLE_FILL_AREA ( #450 ) ;
#228 = ORIENTED_EDGE ( 'NONE', *, *, #417, .F. ) ;
#229 = EDGE_CURVE ( 'NONE', #295, #151, #369, .T. ) ;
#230 = DIRECTION ( 'NONE',  ( 0.000000000000000000, 0.000000000000000000, -1.000000000000000000 ) ) ;
#231 = SPHERICAL_SURFACE ( 'NONE', #476, 0.2000000000000000111 ) ;
#232 = LINE ( 'NONE', #348, #489 ) ;
#233 = DIRECTION ( 'NONE',  ( 0.000000000000000000, 0.000000000000000000, 1.000000000000000000 ) ) ;
#234 = DIRECTION ( 'NONE',  ( -0.000000000000000000, 1.000000000000000000, -0.000000000000000000 ) ) ;
#235 = CYLINDRICAL_SURFACE ( 'NONE', #264, 0.2000000000000000944 ) ;
#236 = ADVANCED_FACE ( 'NONE', ( #296 ), #141, .T. ) ;
#237 = DIRECTION ( 'NONE',  ( 0.000000000000000000, -1.000000000000000000, 0.000000000000000000 ) ) ;
#238 = DIRECTION ( 'NONE',  ( -0.000000000000000000, -1.000000000000000000, -0.000000000000000000 ) ) ;
#239 = PRODUCT_DEFINITION_FORMATION_WITH_SPECIFIED_SOURCE ( 'ANY', '', #138, .NOT_KNOWN. ) ;
#240 = AXIS2_PLACEMENT_3D ( 'NONE', #181, #334, #413 ) ;
#241 =( NAMED_UNIT ( * ) SI_UNIT ( $, .STERADIAN. ) SOLID_ANGLE_UNIT ( ) );
#242 = DIRECTION ( 'NONE',  ( 0.000000000000000000, -0.000000000000000000, -1.000000000000000000 ) ) ;
#243 = EDGE_CURVE ( 'NONE', #324, #151, #130, .T. ) ;
#244 = EDGE_CURVE ( 'NONE', #467, #140, #86, .T. ) ;
#245 = DIRECTION ( 'NONE',  ( 1.000000000000000000, 0.000000000000000000, 0.000000000000000000 ) ) ;
#246 = ADVANCED_FACE ( 'NONE', ( #329 ), #256, .T. ) ;
#247 = CARTESIAN_POINT ( 'NONE',  ( -9.000000000000001776, 1.000000000000000000, -1.800000000000000044 ) ) ;
#248 = CIRCLE ( 'NONE', #389, 0.2000000000000000944 ) ;
#249 = EDGE_LOOP ( 'NONE', ( #482, #486, #430, #21 ) ) ;
#250 = CARTESIAN_POINT ( 'NONE',  ( 0.000000000000000000, 0.000000000000000000, 0.000000000000000000 ) ) ;
#251 = DIRECTION ( 'NONE',  ( 0.000000000000000000, 0.000000000000000000, -1.000000000000000000 ) ) ;
#252 = VECTOR ( 'NONE', #242, 1000.000000000000000 ) ;
#253 = FACE_OUTER_BOUND ( 'NONE', #447, .T. ) ;
#254 = DIRECTION ( 'NONE',  ( 0.000000000000000000, 0.000000000000000000, -1.000000000000000000 ) ) ;
#255 = ORIENTED_EDGE ( 'NONE', *, *, #326, .F. ) ;
#256 = PLANE ( 'NONE',  #428 ) ;
#257 = AXIS2_PLACEMENT_3D ( 'NONE', #4, #305, #8 ) ;
#258 = AXIS2_PLACEMENT_3D ( 'NONE', #139, #144, #179 ) ;
#259 = ORIENTED_EDGE ( 'NONE', *, *, #229, .T. ) ;
#260 = PLANE ( 'NONE',  #164 ) ;
#261 = ORIENTED_EDGE ( 'NONE', *, *, #50, .T. ) ;
#262 = LINE ( 'NONE', #411, #18 ) ;
#263 = VERTEX_POINT ( 'NONE', #212 ) ;
#264 = AXIS2_PLACEMENT_3D ( 'NONE', #159, #457, #46 ) ;
#265 = CARTESIAN_POINT ( 'NONE',  ( -9.000000000000001776, 0.000000000000000000, -2.000000000000000000 ) ) ;
#266 = EDGE_LOOP ( 'NONE', ( #68, #70, #378, #211 ) ) ;
#267 = DIRECTION ( 'NONE',  ( -0.000000000000000000, -1.000000000000000000, -0.000000000000000000 ) ) ;
#268 = VERTEX_POINT ( 'NONE', #370 ) ;
#269 = CARTESIAN_POINT ( 'NONE',  ( 8.999999999999998224, 0.000000000000000000, -2.000000000000000000 ) ) ;
#270 = ORIENTED_EDGE ( 'NONE', *, *, #377, .F. ) ;
#271 = CARTESIAN_POINT ( 'NONE',  ( -9.000000000000001776, 0.000000000000000000, -1.800000000000000044 ) ) ;
#272 = PLANE ( 'NONE',  #312 ) ;
#273 = DIRECTION ( 'NONE',  ( 1.000000000000000000, -8.673617379884037050E-15, 0.000000000000000000 ) ) ;
#274 = CARTESIAN_POINT ( 'NONE',  ( 8.799999999999997158, 0.8000000000000000444, -1.800000000000000044 ) ) ;
#275 = FACE_OUTER_BOUND ( 'NONE', #286, .T. ) ;
#276 = ORIENTED_EDGE ( 'NONE', *, *, #454, .F. ) ;
#277 = CYLINDRICAL_SURFACE ( 'NONE', #183, 0.2000000000000000944 ) ;
#278 = EDGE_CURVE ( 'NONE', #337, #31, #406, .T. ) ;
#279 = CIRCLE ( 'NONE', #320, 0.2000000000000000944 ) ;
#280 = AXIS2_PLACEMENT_3D ( 'NONE', #340, #487, #107 ) ;
#281 = FACE_OUTER_BOUND ( 'NONE', #475, .T. ) ;
#282 =( LENGTH_UNIT ( ) NAMED_UNIT ( * ) SI_UNIT ( .MILLI., .METRE. ) );
#283 = LINE ( 'NONE', #210, #73 ) ;
#284 = SPHERICAL_SURFACE ( 'NONE', #347, 0.2000000000000000111 ) ;
#285 = CIRCLE ( 'NONE', #351, 0.2000000000000000944 ) ;
#286 = EDGE_LOOP ( 'NONE', ( #185, #290, #398 ) ) ;
#287 = DIRECTION ( 'NONE',  ( -1.000000000000000000, 0.000000000000000000, 0.000000000000000000 ) ) ;
#288 = APPLICATION_CONTEXT ( 'automotive_design' ) ;
#289 = LINE ( 'NONE', #133, #252 ) ;
#290 = ORIENTED_EDGE ( 'NONE', *, *, #24, .T. ) ;
#291 = DIRECTION ( 'NONE',  ( 0.000000000000000000, 0.000000000000000000, 1.000000000000000000 ) ) ;
#292 = ORIENTED_EDGE ( 'NONE', *, *, #244, .T. ) ;
#293 = EDGE_CURVE ( 'NONE', #488, #421, #367, .T. ) ;
#294 = DIRECTION ( 'NONE',  ( 0.000000000000000000, 1.000000000000000000, 0.000000000000000000 ) ) ;
#295 = VERTEX_POINT ( 'NONE', #299 ) ;
#296 = FACE_OUTER_BOUND ( 'NONE', #300, .T. ) ;
#297 = AXIS2_PLACEMENT_3D ( 'NONE', #58, #440, #474 ) ;
#298 = ORIENTED_EDGE ( 'NONE', *, *, #363, .F. ) ;
#299 = CARTESIAN_POINT ( 'NONE',  ( -8.800000000000000711, 0.8000000000000000444, -2.000000000000000000 ) ) ;
#300 = EDGE_LOOP ( 'NONE', ( #302, #443, #25, #339 ) ) ;
#301 = CARTESIAN_POINT ( 'NONE',  ( -9.000000000000001776, 0.000000000000000000, 1.800000000000000044 ) ) ;
#302 = ORIENTED_EDGE ( 'NONE', *, *, #420, .F. ) ;
#303 = VECTOR ( 'NONE', #345, 1000.000000000000000 ) ;
#304 = AXIS2_PLACEMENT_3D ( 'NONE', #105, #71, #338 ) ;
#305 = DIRECTION ( 'NONE',  ( -0.000000000000000000, 1.000000000000000000, 0.000000000000000000 ) ) ;
#306 = ORIENTED_EDGE ( 'NONE', *, *, #420, .T. ) ;
#307 = DIRECTION ( 'NONE',  ( 2.602085213965209379E-14, 0.000000000000000000, 1.000000000000000000 ) ) ;
#308 = DIRECTION ( 'NONE',  ( 1.000000000000000000, -0.000000000000000000, -0.000000000000000000 ) ) ;
#309 = AXIS2_PLACEMENT_3D ( 'NONE', #346, #154, #316 ) ;
#310 = SURFACE_SIDE_STYLE ('',( #227 ) ) ;
#311 = DIRECTION ( 'NONE',  ( 0.000000000000000000, 0.000000000000000000, 1.000000000000000000 ) ) ;
#312 = AXIS2_PLACEMENT_3D ( 'NONE', #423, #81, #44 ) ;
#313 = CARTESIAN_POINT ( 'NONE',  ( -9.000000000000001776, 1.000000000000000000, 1.800000000000000044 ) ) ;
#314 = DIRECTION ( 'NONE',  ( 0.000000000000000000, 1.000000000000000000, -0.000000000000000000 ) ) ;
#315 = EDGE_CURVE ( 'NONE', #324, #295, #452, .T. ) ;
#316 = DIRECTION ( 'NONE',  ( 0.000000000000000000, 0.000000000000000000, 1.000000000000000000 ) ) ;
#317 = EDGE_CURVE ( 'NONE', #182, #75, #442, .T. ) ;
#318 = CYLINDRICAL_SURFACE ( 'NONE', #54, 0.2000000000000000944 ) ;
#319 = ORIENTED_EDGE ( 'NONE', *, *, #126, .T. ) ;
#320 = AXIS2_PLACEMENT_3D ( 'NONE', #195, #267, #307 ) ;
#321 = DIRECTION ( 'NONE',  ( 0.000000000000000000, -1.000000000000000000, 0.000000000000000000 ) ) ;
#322 = VERTEX_POINT ( 'NONE', #407 ) ;
#323 = CYLINDRICAL_SURFACE ( 'NONE', #297, 0.2000000000000005107 ) ;
#324 = VERTEX_POINT ( 'NONE', #64 ) ;
#325 = LINE ( 'NONE', #357, #462 ) ;
#326 = EDGE_CURVE ( 'NONE', #223, #140, #446, .T. ) ;
#327 = VECTOR ( 'NONE', #123, 1000.000000000000000 ) ;
#328 = DIRECTION ( 'NONE',  ( 0.000000000000000000, 0.000000000000000000, 1.000000000000000000 ) ) ;
#329 = FACE_OUTER_BOUND ( 'NONE', #473, .T. ) ;
#330 = PRODUCT_DEFINITION_CONTEXT ( 'detailed design', #288, 'design' ) ;
#331 = ADVANCED_FACE ( 'NONE', ( #150 ), #109, .F. ) ;
#332 = EDGE_LOOP ( 'NONE', ( #228, #426, #414, #292, #255, #145, #220, #306 ) ) ;
#333 = ADVANCED_FACE ( 'NONE', ( #481 ), #26, .T. ) ;
#334 = DIRECTION ( 'NONE',  ( 1.000000000000000000, 0.000000000000000000, 0.000000000000000000 ) ) ;
#335 = ORIENTED_EDGE ( 'NONE', *, *, #9, .T. ) ;
#336 = DIRECTION ( 'NONE',  ( 0.000000000000000000, -0.000000000000000000, 1.000000000000000000 ) ) ;
#337 = VERTEX_POINT ( 'NONE', #184 ) ;
#338 = DIRECTION ( 'NONE',  ( -1.000000000000000000, 0.000000000000000000, 0.000000000000000000 ) ) ;
#339 = ORIENTED_EDGE ( 'NONE', *, *, #149, .F. ) ;
#340 = CARTESIAN_POINT ( 'NONE',  ( -8.800000000000000711, 0.8000000000000000444, 0.000000000000000000 ) ) ;
#341 = ORIENTED_EDGE ( 'NONE', *, *, #126, .F. ) ;
#342 = LINE ( 'NONE', #415, #39 ) ;
#343 = FACE_OUTER_BOUND ( 'NONE', #114, .T. ) ;
#344 = AXIS2_PLACEMENT_3D ( 'NONE', #20, #448, #291 ) ;
#345 = DIRECTION ( 'NONE',  ( -0.000000000000000000, 1.000000000000000000, -0.000000000000000000 ) ) ;
#346 = CARTESIAN_POINT ( 'NONE',  ( -8.800000000000000711, 0.000000000000000000, 1.800000000000000044 ) ) ;
#347 = AXIS2_PLACEMENT_3D ( 'NONE', #362, #16, #136 ) ;
#348 = CARTESIAN_POINT ( 'NONE',  ( -9.000000000000001776, 1.000000000000000000, -1.800000000000000044 ) ) ;
#349 = AXIS2_PLACEMENT_3D ( 'NONE', #69, #294, #365 ) ;
#350 = ORIENTED_EDGE ( 'NONE', *, *, #377, .T. ) ;
#351 = AXIS2_PLACEMENT_3D ( 'NONE', #156, #308, #122 ) ;
#352 = EDGE_LOOP ( 'NONE', ( #174, #225, #148, #391 ) ) ;
#353 = CARTESIAN_POINT ( 'NONE',  ( -9.000000000000001776, 0.000000000000000000, 2.000000000000000000 ) ) ;
#354 = VERTEX_POINT ( 'NONE', #484 ) ;
#355 = DIRECTION ( 'NONE',  ( 1.000000000000000000, 0.000000000000000000, 0.000000000000000000 ) ) ;
#356 = DIRECTION ( 'NONE',  ( 0.000000000000000000, -0.000000000000000000, 1.000000000000000000 ) ) ;
#357 = CARTESIAN_POINT ( 'NONE',  ( 8.799999999999995381, 1.000000000000000000, -2.000000000000000000 ) ) ;
#358 = DIRECTION ( 'NONE',  ( 0.000000000000000000, -1.000000000000000000, 0.000000000000000000 ) ) ;
#359 = ORIENTED_EDGE ( 'NONE', *, *, #363, .T. ) ;
#360 = DIRECTION ( 'NONE',  ( 0.000000000000000000, 0.000000000000000000, 1.000000000000000000 ) ) ;
#361 = VERTEX_POINT ( 'NONE', #301 ) ;
#362 = CARTESIAN_POINT ( 'NONE',  ( -8.800000000000000711, 0.8000000000000000444, -1.800000000000000044 ) ) ;
#363 = EDGE_CURVE ( 'NONE', #324, #263, #262, .T. ) ;
#364 = VECTOR ( 'NONE', #186, 1000.000000000000000 ) ;
#365 = DIRECTION ( 'NONE',  ( 0.000000000000000000, 0.000000000000000000, 1.000000000000000000 ) ) ;
#366 = EDGE_CURVE ( 'NONE', #75, #400, #342, .T. ) ;
#367 = LINE ( 'NONE', #403, #364 ) ;
#368 = ORIENTED_EDGE ( 'NONE', *, *, #293, .T. ) ;
#369 = CIRCLE ( 'NONE', #349, 0.2000000000000000944 ) ;
#370 = CARTESIAN_POINT ( 'NONE',  ( 8.799999999999997158, 0.8000000000000000444, 2.000000000000000000 ) ) ;
#371 = ORIENTED_EDGE ( 'NONE', *, *, #434, .F. ) ;
#372 = CIRCLE ( 'NONE', #435, 0.2000000000000000944 ) ;
#373 = DIRECTION ( 'NONE',  ( 0.000000000000000000, 0.000000000000000000, 1.000000000000000000 ) ) ;
#374 = ORIENTED_EDGE ( 'NONE', *, *, #468, .F. ) ;
#375 = AXIS2_PLACEMENT_3D ( 'NONE', #393, #30, #254 ) ;
#376 = DIRECTION ( 'NONE',  ( -0.000000000000000000, -1.000000000000000000, -0.000000000000000000 ) ) ;
#377 = EDGE_CURVE ( 'NONE', #263, #488, #460, .T. ) ;
#378 = ORIENTED_EDGE ( 'NONE', *, *, #24, .F. ) ;
#379 = LINE ( 'NONE', #41, #327 ) ;
#380 = ORIENTED_EDGE ( 'NONE', *, *, #137, .T. ) ;
#381 = ADVANCED_FACE ( 'NONE', ( #418 ), #158, .T. ) ;
#382 = EDGE_CURVE ( 'NONE', #295, #34, #379, .T. ) ;
#383 = DIRECTION ( 'NONE',  ( 8.673617379884035472E-15, 1.000000000000000000, 0.000000000000000000 ) ) ;
#384 = EDGE_LOOP ( 'NONE', ( #371, #480, #169, #374 ) ) ;
#385 = AXIS2_PLACEMENT_3D ( 'NONE', #160, #273, #383 ) ;
#386 = CARTESIAN_POINT ( 'NONE',  ( -8.800000000000000711, 0.8000000000000000444, 1.800000000000000044 ) ) ;
#387 = CARTESIAN_POINT ( 'NONE',  ( 8.999999999999998224, 1.000000000000000000, 1.800000000000000044 ) ) ;
#388 = ORIENTED_EDGE ( 'NONE', *, *, #201, .F. ) ;
#389 = AXIS2_PLACEMENT_3D ( 'NONE', #124, #6, #40 ) ;
#390 = CARTESIAN_POINT ( 'NONE',  ( 8.799999999999997158, 1.000000000000000000, -1.800000000000000044 ) ) ;
#391 = ORIENTED_EDGE ( 'NONE', *, *, #111, .T. ) ;
#392 = COLOUR_RGB ( '',0.8980392156862745390, 0.9215686274509803377, 0.9294117647058823817 ) ;
#393 = CARTESIAN_POINT ( 'NONE',  ( 8.799999999999997158, 0.8000000000000000444, 1.800000000000000044 ) ) ;
#394 = CYLINDRICAL_SURFACE ( 'NONE', #143, 0.2000000000000000944 ) ;
#395 = MANIFOLD_SOLID_BREP ( '\X2\570689d2\X0\1', #221 ) ;
#396 = AXIS2_PLACEMENT_3D ( 'NONE', #119, #42, #465 ) ;
#397 = DIRECTION ( 'NONE',  ( -1.000000000000000000, 0.000000000000000000, 0.000000000000000000 ) ) ;
#398 = ORIENTED_EDGE ( 'NONE', *, *, #203, .F. ) ;
#399 = LINE ( 'NONE', #135, #472 ) ;
#400 = VERTEX_POINT ( 'NONE', #191 ) ;
#401 = APPLICATION_PROTOCOL_DEFINITION ( 'draft international standard', 'automotive_design', 1998, #19 ) ;
#402 = EDGE_LOOP ( 'NONE', ( #94, #388, #162, #298 ) ) ;
#403 = CARTESIAN_POINT ( 'NONE',  ( 8.799999999999997158, 1.000000000000000000, -2.000000000000000000 ) ) ;
#404 = EDGE_LOOP ( 'NONE', ( #380, #412, #110, #98 ) ) ;
#405 = EDGE_CURVE ( 'NONE', #140, #295, #80, .T. ) ;
#406 = CIRCLE ( 'NONE', #258, 0.2000000000000000944 ) ;
#407 = CARTESIAN_POINT ( 'NONE',  ( 8.999999999999998224, 0.000000000000000000, 1.800000000000000044 ) ) ;
#408 = ORIENTED_EDGE ( 'NONE', *, *, #439, .F. ) ;
#409 = DIRECTION ( 'NONE',  ( 0.000000000000000000, -0.000000000000000000, 1.000000000000000000 ) ) ;
#410 = ORIENTED_EDGE ( 'NONE', *, *, #23, .F. ) ;
#411 = CARTESIAN_POINT ( 'NONE',  ( -8.800000000000000711, 1.000000000000000000, 2.000000000000000000 ) ) ;
#412 = ORIENTED_EDGE ( 'NONE', *, *, #454, .T. ) ;
#413 = DIRECTION ( 'NONE',  ( 0.000000000000000000, 0.000000000000000000, -1.000000000000000000 ) ) ;
#414 = ORIENTED_EDGE ( 'NONE', *, *, #137, .F. ) ;
#415 = CARTESIAN_POINT ( 'NONE',  ( 8.999999999999998224, 0.8000000000000000444, 2.000000000000000000 ) ) ;
#416 = ORIENTED_EDGE ( 'NONE', *, *, #63, .F. ) ;
#417 = EDGE_CURVE ( 'NONE', #354, #218, #36, .T. ) ;
#418 = FACE_OUTER_BOUND ( 'NONE', #209, .T. ) ;
#419 = CARTESIAN_POINT ( 'NONE',  ( 8.799999999999995381, 0.8000000000000000444, -2.000000000000000000 ) ) ;
#420 = EDGE_CURVE ( 'NONE', #322, #218, #279, .T. ) ;
#421 = VERTEX_POINT ( 'NONE', #390 ) ;
#422 = FILL_AREA_STYLE_COLOUR ( '', #392 ) ;
#423 = CARTESIAN_POINT ( 'NONE',  ( -9.000000000000001776, 1.000000000000000000, -2.000000000000000000 ) ) ;
#424 = SURFACE_STYLE_USAGE ( .BOTH. , #310 ) ;
#425 = DIRECTION ( 'NONE',  ( 0.000000000000000000, 0.000000000000000000, 1.000000000000000000 ) ) ;
#426 = ORIENTED_EDGE ( 'NONE', *, *, #23, .T. ) ;
#427 =( GEOMETRIC_REPRESENTATION_CONTEXT ( 3 ) GLOBAL_UNCERTAINTY_ASSIGNED_CONTEXT ( ( #65 ) ) GLOBAL_UNIT_ASSIGNED_CONTEXT ( ( #74, #458, #463 ) ) REPRESENTATION_CONTEXT ( 'NONE', 'WORKASPACE' ) );
#428 = AXIS2_PLACEMENT_3D ( 'NONE', #479, #33, #409 ) ;
#429 = PLANE ( 'NONE',  #161 ) ;
#430 = ORIENTED_EDGE ( 'NONE', *, *, #229, .F. ) ;
#431 = ADVANCED_FACE ( 'NONE', ( #275 ), #120, .T. ) ;
#432 =( NAMED_UNIT ( * ) PLANE_ANGLE_UNIT ( ) SI_UNIT ( $, .RADIAN. ) );
#433 = CARTESIAN_POINT ( 'NONE',  ( -9.000000000000001776, 1.000000000000000000, 2.000000000000000000 ) ) ;
#434 = EDGE_CURVE ( 'NONE', #34, #421, #104, .T. ) ;
#435 = AXIS2_PLACEMENT_3D ( 'NONE', #464, #127, #425 ) ;
#436 = CARTESIAN_POINT ( 'NONE',  ( 8.799999999999997158, 0.8000000000000000444, -1.800000000000000044 ) ) ;
#437 = CIRCLE ( 'NONE', #163, 0.2000000000000005107 ) ;
#438 = CARTESIAN_POINT ( 'NONE',  ( -8.800000000000000711, 0.000000000000000000, -2.000000000000000000 ) ) ;
#439 = EDGE_CURVE ( 'NONE', #268, #31, #455, .T. ) ;
#440 = DIRECTION ( 'NONE',  ( 0.000000000000000000, -0.000000000000000000, 1.000000000000000000 ) ) ;
#441 = ORIENTED_EDGE ( 'NONE', *, *, #434, .T. ) ;
#442 = LINE ( 'NONE', #67, #193 ) ;
#443 = ORIENTED_EDGE ( 'NONE', *, *, #153, .F. ) ;
#444 = CARTESIAN_POINT ( 'NONE',  ( 0.000000000000000000, 0.000000000000000000, 0.000000000000000000 ) ) ;
#445 = ORIENTED_EDGE ( 'NONE', *, *, #149, .T. ) ;
#446 = LINE ( 'NONE', #265, #215 ) ;
#447 = EDGE_LOOP ( 'NONE', ( #189, #259, #187 ) ) ;
#448 = DIRECTION ( 'NONE',  ( -1.000000000000000000, 0.000000000000000000, 0.000000000000000000 ) ) ;
#449 = ORIENTED_EDGE ( 'NONE', *, *, #317, .F. ) ;
#450 = FILL_AREA_STYLE ('',( #422 ) ) ;
#451 = AXIS2_PLACEMENT_3D ( 'NONE', #250, #125, #355 ) ;
#452 = CIRCLE ( 'NONE', #344, 0.2000000000000000944 ) ;
#453 = ORIENTED_EDGE ( 'NONE', *, *, #111, .F. ) ;
#454 = EDGE_CURVE ( 'NONE', #361, #337, #113, .T. ) ;
#455 = LINE ( 'NONE', #198, #38 ) ;
#456 = EDGE_CURVE ( 'NONE', #322, #182, #115, .T. ) ;
#457 = DIRECTION ( 'NONE',  ( 0.000000000000000000, -1.000000000000000000, 0.000000000000000000 ) ) ;
#458 =( NAMED_UNIT ( * ) PLANE_ANGLE_UNIT ( ) SI_UNIT ( $, .RADIAN. ) );
#459 = FACE_OUTER_BOUND ( 'NONE', #352, .T. ) ;
#460 = LINE ( 'NONE', #387, #47 ) ;
#461 = FACE_OUTER_BOUND ( 'NONE', #142, .T. ) ;
#462 = VECTOR ( 'NONE', #471, 1000.000000000000000 ) ;
#463 =( NAMED_UNIT ( * ) SI_UNIT ( $, .STERADIAN. ) SOLID_ANGLE_UNIT ( ) );
#464 = CARTESIAN_POINT ( 'NONE',  ( 8.799999999999997158, 0.8000000000000000444, 1.800000000000000044 ) ) ;
#465 = DIRECTION ( 'NONE',  ( 1.000000000000000000, 0.000000000000000000, 0.000000000000000000 ) ) ;
#466 = CARTESIAN_POINT ( 'NONE',  ( -9.000000000000001776, 0.8000000000000000444, -1.800000000000000044 ) ) ;
#467 = VERTEX_POINT ( 'NONE', #271 ) ;
#468 = EDGE_CURVE ( 'NONE', #421, #324, #232, .T. ) ;
#469 = VECTOR ( 'NONE', #234, 1000.000000000000000 ) ;
#470 = AXIS2_PLACEMENT_3D ( 'NONE', #485, #219, #61 ) ;
#471 = DIRECTION ( 'NONE',  ( 0.000000000000000000, -1.000000000000000000, 0.000000000000000000 ) ) ;
#472 = VECTOR ( 'NONE', #321, 1000.000000000000000 ) ;
#473 = EDGE_LOOP ( 'NONE', ( #359, #350, #368, #72 ) ) ;
#474 = DIRECTION ( 'NONE',  ( 1.000000000000000000, 0.000000000000000000, 0.000000000000000000 ) ) ;
#475 = EDGE_LOOP ( 'NONE', ( #199, #85, #83, #53 ) ) ;
#476 = AXIS2_PLACEMENT_3D ( 'NONE', #386, #314, #311 ) ;
#477 = DIRECTION ( 'NONE',  ( 1.000000000000000000, 0.000000000000000000, 0.000000000000000000 ) ) ;
#478 = PLANE ( 'NONE',  #66 ) ;
#479 = CARTESIAN_POINT ( 'NONE',  ( 0.000000000000000000, 1.000000000000000000, 0.000000000000000000 ) ) ;
#480 = ORIENTED_EDGE ( 'NONE', *, *, #382, .F. ) ;
#481 = FACE_OUTER_BOUND ( 'NONE', #402, .T. ) ;
#482 = ORIENTED_EDGE ( 'NONE', *, *, #244, .F. ) ;
#483 = CIRCLE ( 'NONE', #205, 0.2000000000000000944 ) ;
#484 = CARTESIAN_POINT ( 'NONE',  ( -8.800000000000000711, 0.000000000000000000, 2.000000000000000000 ) ) ;
#485 = CARTESIAN_POINT ( 'NONE',  ( 8.799999999999997158, 1.000000000000000000, 1.800000000000000044 ) ) ;
#486 = ORIENTED_EDGE ( 'NONE', *, *, #178, .F. ) ;
#487 = DIRECTION ( 'NONE',  ( 0.000000000000000000, 0.000000000000000000, -1.000000000000000000 ) ) ;
#488 = VERTEX_POINT ( 'NONE', #167 ) ;
#489 = VECTOR ( 'NONE', #95, 1000.000000000000000 ) ;
#490 = ORIENTED_EDGE ( 'NONE', *, *, #99, .F. ) ;
#491 = PRESENTATION_STYLE_ASSIGNMENT (( #424 ) ) ;
ENDSEC;
END-ISO-10303-21;
