ISO-10303-21;
HEADER;
FILE_DESCRIPTION (( 'STEP AP214' ),
    '1' );
FILE_NAME ('BAR4X16T2.step',
    '2026-03-22T07:17:59',
    ( '' ),
    ( '' ),
    'SwSTEP 2.0',
    'SolidWorks 2025',
    '' );
FILE_SCHEMA (( 'AUTOMOTIVE_DESIGN' ));
ENDSEC;

DATA;
#1 = SHAPE_DEFINITION_REPRESENTATION ( #94, #250 ) ;
#2 = DIRECTION ( 'NONE',  ( 0.000000000000000000, 1.000000000000000000, 0.000000000000000000 ) ) ;
#3 =( GEOMETRIC_REPRESENTATION_CONTEXT ( 3 ) GLOBAL_UNCERTAINTY_ASSIGNED_CONTEXT ( ( #132 ) ) GLOBAL_UNIT_ASSIGNED_CONTEXT ( ( #268, #337, #418 ) ) REPRESENTATION_CONTEXT ( 'NONE', 'WORKASPACE' ) );
#4 = CARTESIAN_POINT ( 'NONE',  ( 7.800000000000000711, 1.800000000000000044, 2.000000000000000000 ) ) ;
#5 = DIRECTION ( 'NONE',  ( 0.000000000000000000, 1.000000000000000000, 0.000000000000000000 ) ) ;
#6 = ADVANCED_FACE ( 'NONE', ( #38 ), #188, .F. ) ;
#7 = VERTEX_POINT ( 'NONE', #225 ) ;
#8 = CARTESIAN_POINT ( 'NONE',  ( -7.800000000000000711, 1.800000000000000044, 1.800000000000000044 ) ) ;
#9 = VERTEX_POINT ( 'NONE', #72 ) ;
#10 = EDGE_CURVE ( 'NONE', #491, #141, #373, .T. ) ;
#11 = DIRECTION ( 'NONE',  ( 0.000000000000000000, -1.000000000000000000, 0.000000000000000000 ) ) ;
#12 = ORIENTED_EDGE ( 'NONE', *, *, #488, .F. ) ;
#13 = AXIS2_PLACEMENT_3D ( 'NONE', #476, #439, #98 ) ;
#14 = AXIS2_PLACEMENT_3D ( 'NONE', #197, #79, #126 ) ;
#15 = CARTESIAN_POINT ( 'NONE',  ( 0.000000000000000000, 1.800000000000000044, 1.800000000000000044 ) ) ;
#16 = ORIENTED_EDGE ( 'NONE', *, *, #488, .T. ) ;
#17 = CARTESIAN_POINT ( 'NONE',  ( 8.000000000000000000, 0.000000000000000000, -2.000000000000000000 ) ) ;
#18 = ORIENTED_EDGE ( 'NONE', *, *, #138, .T. ) ;
#19 = CARTESIAN_POINT ( 'NONE',  ( -8.000000000000000000, 1.800000000000000044, -1.800000000000000044 ) ) ;
#20 = ORIENTED_EDGE ( 'NONE', *, *, #101, .F. ) ;
#21 = ADVANCED_FACE ( 'NONE', ( #458 ), #183, .T. ) ;
#22 = AXIS2_PLACEMENT_3D ( 'NONE', #367, #170, #318 ) ;
#23 = FACE_OUTER_BOUND ( 'NONE', #253, .T. ) ;
#24 = ORIENTED_EDGE ( 'NONE', *, *, #306, .T. ) ;
#25 = DIRECTION ( 'NONE',  ( 0.000000000000000000, -1.000000000000000000, 0.000000000000000000 ) ) ;
#26 = VECTOR ( 'NONE', #370, 1000.000000000000000 ) ;
#27 = ORIENTED_EDGE ( 'NONE', *, *, #177, .T. ) ;
#28 = ADVANCED_FACE ( 'NONE', ( #449 ), #486, .T. ) ;
#29 = DIRECTION ( 'NONE',  ( 0.000000000000000000, 1.000000000000000000, 0.000000000000000000 ) ) ;
#30 = CYLINDRICAL_SURFACE ( 'NONE', #196, 0.2000000000000000944 ) ;
#31 = DIRECTION ( 'NONE',  ( 1.000000000000000000, 0.000000000000000000, -0.000000000000000000 ) ) ;
#32 = CIRCLE ( 'NONE', #385, 0.2000000000000000944 ) ;
#33 = DIRECTION ( 'NONE',  ( 0.000000000000000000, 0.000000000000000000, 1.000000000000000000 ) ) ;
#34 =( NAMED_UNIT ( * ) PLANE_ANGLE_UNIT ( ) SI_UNIT ( $, .RADIAN. ) );
#35 = AXIS2_PLACEMENT_3D ( 'NONE', #70, #412, #334 ) ;
#36 = ORIENTED_EDGE ( 'NONE', *, *, #127, .F. ) ;
#37 = EDGE_CURVE ( 'NONE', #400, #220, #389, .T. ) ;
#38 = FACE_OUTER_BOUND ( 'NONE', #59, .T. ) ;
#39 = VECTOR ( 'NONE', #467, 1000.000000000000000 ) ;
#40 = DIRECTION ( 'NONE',  ( 0.000000000000000000, 0.000000000000000000, -1.000000000000000000 ) ) ;
#41 = ORIENTED_EDGE ( 'NONE', *, *, #387, .F. ) ;
#42 = DIRECTION ( 'NONE',  ( 0.000000000000000000, -1.000000000000000000, 0.000000000000000000 ) ) ;
#43 = CARTESIAN_POINT ( 'NONE',  ( 7.800000000000000711, 2.000000000000000000, 1.800000000000000044 ) ) ;
#44 = EDGE_LOOP ( 'NONE', ( #18, #16, #397 ) ) ;
#45 = ADVANCED_FACE ( 'NONE', ( #154 ), #30, .T. ) ;
#46 = CYLINDRICAL_SURFACE ( 'NONE', #447, 0.2000000000000000944 ) ;
#47 = AXIS2_PLACEMENT_3D ( 'NONE', #108, #257, #366 ) ;
#48 = CARTESIAN_POINT ( 'NONE',  ( 0.000000000000000000, 1.800000000000000044, -1.800000000000000044 ) ) ;
#49 = EDGE_LOOP ( 'NONE', ( #176, #207, #24, #57 ) ) ;
#50 = CARTESIAN_POINT ( 'NONE',  ( 7.800000000000000711, 2.000000000000000000, -1.800000000000000044 ) ) ;
#51 = ORIENTED_EDGE ( 'NONE', *, *, #37, .T. ) ;
#52 = VECTOR ( 'NONE', #25, 1000.000000000000000 ) ;
#53 = DIRECTION ( 'NONE',  ( 1.000000000000000000, -0.000000000000000000, -0.000000000000000000 ) ) ;
#54 = CARTESIAN_POINT ( 'NONE',  ( -8.000000000000000000, 1.800000000000000044, 2.000000000000000000 ) ) ;
#55 = ORIENTED_EDGE ( 'NONE', *, *, #431, .T. ) ;
#56 = CARTESIAN_POINT ( 'NONE',  ( -7.800000000000000711, 2.000000000000000000, 2.000000000000000000 ) ) ;
#57 = ORIENTED_EDGE ( 'NONE', *, *, #10, .F. ) ;
#58 = DIRECTION ( 'NONE',  ( -0.000000000000000000, -0.000000000000000000, -1.000000000000000000 ) ) ;
#59 = EDGE_LOOP ( 'NONE', ( #212, #434, #179, #110 ) ) ;
#60 = DIRECTION ( 'NONE',  ( -0.000000000000000000, -0.000000000000000000, 1.000000000000000000 ) ) ;
#61 = ORIENTED_EDGE ( 'NONE', *, *, #291, .F. ) ;
#62 = UNCERTAINTY_MEASURE_WITH_UNIT (LENGTH_MEASURE( 1.000000000000000082E-05 ), #270, 'distance_accuracy_value', 'NONE');
#63 = CARTESIAN_POINT ( 'NONE',  ( -7.800000000000000711, 1.800000000000000044, -1.800000000000000044 ) ) ;
#64 = DIRECTION ( 'NONE',  ( 0.000000000000000000, 1.000000000000000000, 0.000000000000000000 ) ) ;
#65 = PLANE ( 'NONE',  #129 ) ;
#66 = CYLINDRICAL_SURFACE ( 'NONE', #293, 0.1999999999999996503 ) ;
#67 = FILL_AREA_STYLE ('',( #411 ) ) ;
#68 = CARTESIAN_POINT ( 'NONE',  ( -7.800000000000000711, 1.800000000000000044, 1.800000000000000044 ) ) ;
#69 = DIRECTION ( 'NONE',  ( 0.000000000000000000, 0.000000000000000000, 1.000000000000000000 ) ) ;
#70 = CARTESIAN_POINT ( 'NONE',  ( -7.800000000000000711, 0.000000000000000000, -1.800000000000000044 ) ) ;
#71 = CLOSED_SHELL ( 'NONE', ( #6, #241, #417, #320, #224, #351, #200, #323, #139, #300, #28, #269, #190, #484, #45, #137, #21, #259 ) ) ;
#72 = CARTESIAN_POINT ( 'NONE',  ( -7.800000000000000711, 0.000000000000000000, 2.000000000000000000 ) ) ;
#73 =( NAMED_UNIT ( * ) SI_UNIT ( $, .STERADIAN. ) SOLID_ANGLE_UNIT ( ) );
#74 = DIRECTION ( 'NONE',  ( 0.000000000000000000, -0.000000000000000000, -1.000000000000000000 ) ) ;
#75 = MANIFOLD_SOLID_BREP ( '\X2\570689d2\X0\1', #71 ) ;
#76 = CIRCLE ( 'NONE', #247, 0.2000000000000000944 ) ;
#77 = EDGE_CURVE ( 'NONE', #368, #441, #82, .T. ) ;
#78 = CIRCLE ( 'NONE', #406, 0.2000000000000000944 ) ;
#79 = DIRECTION ( 'NONE',  ( 0.000000000000000000, -0.000000000000000000, 1.000000000000000000 ) ) ;
#80 = EDGE_CURVE ( 'NONE', #9, #281, #165, .T. ) ;
#81 = EDGE_CURVE ( 'NONE', #292, #285, #78, .T. ) ;
#82 = LINE ( 'NONE', #238, #357 ) ;
#83 = VECTOR ( 'NONE', #128, 1000.000000000000000 ) ;
#84 = CARTESIAN_POINT ( 'NONE',  ( 8.000000000000000000, 1.800000000000000044, 1.800000000000000044 ) ) ;
#85 = ORIENTED_EDGE ( 'NONE', *, *, #468, .F. ) ;
#86 = AXIS2_PLACEMENT_3D ( 'NONE', #453, #69, #267 ) ;
#87 = LINE ( 'NONE', #445, #410 ) ;
#88 = PRODUCT_DEFINITION ( 'UNKNOWN', '', #153, #180 ) ;
#89 = DIRECTION ( 'NONE',  ( -0.000000000000000000, -0.000000000000000000, 1.000000000000000000 ) ) ;
#90 = EDGE_LOOP ( 'NONE', ( #161, #173, #474, #384 ) ) ;
#91 = DIRECTION ( 'NONE',  ( -1.301042606982604690E-14, 0.000000000000000000, 1.000000000000000000 ) ) ;
#92 = CARTESIAN_POINT ( 'NONE',  ( -8.000000000000000000, 2.000000000000000000, -1.800000000000000044 ) ) ;
#93 = STYLED_ITEM ( 'NONE', ( #116 ), #75 ) ;
#94 = PRODUCT_DEFINITION_SHAPE ( 'NONE', 'NONE',  #88 ) ;
#95 = ORIENTED_EDGE ( 'NONE', *, *, #394, .T. ) ;
#96 = CARTESIAN_POINT ( 'NONE',  ( 7.800000000000000711, 0.000000000000000000, 1.800000000000000044 ) ) ;
#97 = ORIENTED_EDGE ( 'NONE', *, *, #413, .F. ) ;
#98 = DIRECTION ( 'NONE',  ( 1.000000000000000000, 0.000000000000000000, 0.000000000000000000 ) ) ;
#99 = ORIENTED_EDGE ( 'NONE', *, *, #37, .F. ) ;
#100 = CARTESIAN_POINT ( 'NONE',  ( 8.000000000000000000, 2.000000000000000000, 1.800000000000000044 ) ) ;
#101 = EDGE_CURVE ( 'NONE', #292, #7, #340, .T. ) ;
#102 = ORIENTED_EDGE ( 'NONE', *, *, #177, .F. ) ;
#103 = AXIS2_PLACEMENT_3D ( 'NONE', #124, #5, #201 ) ;
#104 = CARTESIAN_POINT ( 'NONE',  ( -7.800000000000000711, 1.800000000000000044, -1.800000000000000044 ) ) ;
#105 = CARTESIAN_POINT ( 'NONE',  ( 7.800000000000000711, 1.800000000000000044, -1.800000000000000044 ) ) ;
#106 = SURFACE_STYLE_USAGE ( .BOTH. , #112 ) ;
#107 = AXIS2_PLACEMENT_3D ( 'NONE', #456, #347, #349 ) ;
#108 = CARTESIAN_POINT ( 'NONE',  ( -7.800000000000000711, 2.000000000000000000, 1.800000000000000044 ) ) ;
#109 = DIRECTION ( 'NONE',  ( 0.000000000000000000, 1.000000000000000000, -0.000000000000000000 ) ) ;
#110 = ORIENTED_EDGE ( 'NONE', *, *, #387, .T. ) ;
#111 = FACE_OUTER_BOUND ( 'NONE', #236, .T. ) ;
#112 = SURFACE_SIDE_STYLE ('',( #326 ) ) ;
#113 = PRODUCT_RELATED_PRODUCT_CATEGORY ( 'part', '', ( #168 ) ) ;
#114 = CARTESIAN_POINT ( 'NONE',  ( 7.800000000000000711, 1.800000000000000044, 0.000000000000000000 ) ) ;
#115 = CIRCLE ( 'NONE', #123, 0.2000000000000000944 ) ;
#116 = PRESENTATION_STYLE_ASSIGNMENT (( #106 ) ) ;
#117 = CARTESIAN_POINT ( 'NONE',  ( 7.800000000000000711, 1.800000000000000044, 1.800000000000000044 ) ) ;
#118 = VECTOR ( 'NONE', #11, 1000.000000000000000 ) ;
#119 = EDGE_CURVE ( 'NONE', #9, #461, #235, .T. ) ;
#120 = FACE_OUTER_BOUND ( 'NONE', #379, .T. ) ;
#121 = ORIENTED_EDGE ( 'NONE', *, *, #341, .F. ) ;
#122 = CARTESIAN_POINT ( 'NONE',  ( 7.800000000000000711, 1.800000000000000044, 1.800000000000000044 ) ) ;
#123 = AXIS2_PLACEMENT_3D ( 'NONE', #404, #358, #288 ) ;
#124 = CARTESIAN_POINT ( 'NONE',  ( 0.000000000000000000, 2.000000000000000000, 0.000000000000000000 ) ) ;
#125 = ORIENTED_EDGE ( 'NONE', *, *, #443, .T. ) ;
#126 = DIRECTION ( 'NONE',  ( 1.000000000000000000, 0.000000000000000000, 0.000000000000000000 ) ) ;
#127 = EDGE_CURVE ( 'NONE', #7, #220, #383, .T. ) ;
#128 = DIRECTION ( 'NONE',  ( 0.000000000000000000, 0.000000000000000000, 1.000000000000000000 ) ) ;
#129 = AXIS2_PLACEMENT_3D ( 'NONE', #184, #333, #487 ) ;
#130 = CARTESIAN_POINT ( 'NONE',  ( -8.000000000000000000, 0.000000000000000000, 1.800000000000000044 ) ) ;
#131 = EDGE_LOOP ( 'NONE', ( #171, #348, #85, #415 ) ) ;
#132 = UNCERTAINTY_MEASURE_WITH_UNIT (LENGTH_MEASURE( 1.000000000000000082E-05 ), #268, 'distance_accuracy_value', 'NONE');
#133 = CYLINDRICAL_SURFACE ( 'NONE', #298, 0.2000000000000000944 ) ;
#134 = ORIENTED_EDGE ( 'NONE', *, *, #80, .T. ) ;
#135 = CARTESIAN_POINT ( 'NONE',  ( 7.800000000000000711, 1.800000000000000044, -1.800000000000000044 ) ) ;
#136 = ORIENTED_EDGE ( 'NONE', *, *, #455, .F. ) ;
#137 = ADVANCED_FACE ( 'NONE', ( #419 ), #378, .T. ) ;
#138 = EDGE_CURVE ( 'NONE', #491, #368, #273, .T. ) ;
#139 = ADVANCED_FACE ( 'NONE', ( #155 ), #425, .T. ) ;
#140 = LINE ( 'NONE', #56, #457 ) ;
#141 = VERTEX_POINT ( 'NONE', #43 ) ;
#142 = DIRECTION ( 'NONE',  ( -0.000000000000000000, 1.000000000000000000, -0.000000000000000000 ) ) ;
#143 = ORIENTED_EDGE ( 'NONE', *, *, #426, .T. ) ;
#144 = DIRECTION ( 'NONE',  ( 0.000000000000000000, -0.000000000000000000, 1.000000000000000000 ) ) ;
#145 = SPHERICAL_SURFACE ( 'NONE', #336, 0.2000000000000000111 ) ;
#146 = AXIS2_PLACEMENT_3D ( 'NONE', #311, #64, #217 ) ;
#147 = AXIS2_PLACEMENT_3D ( 'NONE', #279, #388, #40 ) ;
#148 = LINE ( 'NONE', #395, #198 ) ;
#149 = EDGE_LOOP ( 'NONE', ( #249, #205, #343 ) ) ;
#150 = DIRECTION ( 'NONE',  ( -1.000000000000000000, -0.000000000000000000, -0.000000000000000000 ) ) ;
#151 = EDGE_LOOP ( 'NONE', ( #350, #41, #218, #202 ) ) ;
#152 = DIRECTION ( 'NONE',  ( -0.000000000000000000, 1.000000000000000000, 0.000000000000000000 ) ) ;
#153 = PRODUCT_DEFINITION_FORMATION_WITH_SPECIFIED_SOURCE ( 'ANY', '', #168, .NOT_KNOWN. ) ;
#154 = FACE_OUTER_BOUND ( 'NONE', #151, .T. ) ;
#155 = FACE_OUTER_BOUND ( 'NONE', #392, .T. ) ;
#156 = LINE ( 'NONE', #346, #353 ) ;
#157 = VERTEX_POINT ( 'NONE', #84 ) ;
#158 = CARTESIAN_POINT ( 'NONE',  ( 7.800000000000001599, 2.000000000000000000, -2.000000000000000000 ) ) ;
#159 = CARTESIAN_POINT ( 'NONE',  ( -7.800000000000000711, 0.000000000000000000, -2.000000000000000000 ) ) ;
#160 = LINE ( 'NONE', #309, #83 ) ;
#161 = ORIENTED_EDGE ( 'NONE', *, *, #303, .T. ) ;
#162 = DIRECTION ( 'NONE',  ( 0.000000000000000000, 0.000000000000000000, -1.000000000000000000 ) ) ;
#163 = CIRCLE ( 'NONE', #448, 0.1999999999999996503 ) ;
#164 = EDGE_CURVE ( 'NONE', #194, #157, #355, .T. ) ;
#165 = CIRCLE ( 'NONE', #107, 0.2000000000000000944 ) ;
#166 = CARTESIAN_POINT ( 'NONE',  ( -7.800000000000000711, 1.800000000000000044, 1.800000000000000044 ) ) ;
#167 = ORIENTED_EDGE ( 'NONE', *, *, #262, .F. ) ;
#168 = PRODUCT ( 'BAR4X16T2', 'BAR4X16T2', '', ( #227 ) ) ;
#169 = EDGE_CURVE ( 'NONE', #444, #223, #156, .T. ) ;
#170 = DIRECTION ( 'NONE',  ( 1.000000000000000000, 0.000000000000000000, 0.000000000000000000 ) ) ;
#171 = ORIENTED_EDGE ( 'NONE', *, *, #376, .T. ) ;
#172 = CARTESIAN_POINT ( 'NONE',  ( 7.800000000000001599, 0.000000000000000000, 2.000000000000000000 ) ) ;
#173 = ORIENTED_EDGE ( 'NONE', *, *, #455, .T. ) ;
#174 = VECTOR ( 'NONE', #213, 1000.000000000000000 ) ;
#175 = DIRECTION ( 'NONE',  ( -0.000000000000000000, -0.000000000000000000, 1.000000000000000000 ) ) ;
#176 = ORIENTED_EDGE ( 'NONE', *, *, #261, .T. ) ;
#177 = EDGE_CURVE ( 'NONE', #285, #365, #278, .T. ) ;
#178 = LINE ( 'NONE', #100, #52 ) ;
#179 = ORIENTED_EDGE ( 'NONE', *, *, #436, .T. ) ;
#180 = PRODUCT_DEFINITION_CONTEXT ( 'detailed design', #403, 'design' ) ;
#181 = FACE_OUTER_BOUND ( 'NONE', #246, .T. ) ;
#182 = CARTESIAN_POINT ( 'NONE',  ( -7.800000000000000711, 2.000000000000000000, 2.000000000000000000 ) ) ;
#183 = SPHERICAL_SURFACE ( 'NONE', #301, 0.2000000000000000111 ) ;
#184 = CARTESIAN_POINT ( 'NONE',  ( -8.000000000000000000, 2.000000000000000000, 2.000000000000000000 ) ) ;
#185 = CIRCLE ( 'NONE', #272, 0.2000000000000000944 ) ;
#186 = FACE_OUTER_BOUND ( 'NONE', #131, .T. ) ;
#187 = DIRECTION ( 'NONE',  ( -1.000000000000000000, 0.000000000000000000, -4.336808689942024836E-15 ) ) ;
#188 = PLANE ( 'NONE',  #440 ) ;
#189 = DIRECTION ( 'NONE',  ( 0.000000000000000000, 1.000000000000000000, 0.000000000000000000 ) ) ;
#190 = ADVANCED_FACE ( 'NONE', ( #304 ), #274, .T. ) ;
#191 = DIRECTION ( 'NONE',  ( -0.000000000000000000, 1.000000000000000000, -0.000000000000000000 ) ) ;
#192 = VECTOR ( 'NONE', #386, 1000.000000000000000 ) ;
#193 = DIRECTION ( 'NONE',  ( 0.000000000000000000, 0.000000000000000000, 1.000000000000000000 ) ) ;
#194 = VERTEX_POINT ( 'NONE', #4 ) ;
#195 = FACE_OUTER_BOUND ( 'NONE', #470, .T. ) ;
#196 = AXIS2_PLACEMENT_3D ( 'NONE', #489, #408, #228 ) ;
#197 = CARTESIAN_POINT ( 'NONE',  ( -7.800000000000000711, 1.800000000000000044, 1.800000000000000044 ) ) ;
#198 = VECTOR ( 'NONE', #53, 1000.000000000000000 ) ;
#199 = ORIENTED_EDGE ( 'NONE', *, *, #237, .T. ) ;
#200 = ADVANCED_FACE ( 'NONE', ( #120 ), #46, .T. ) ;
#201 = DIRECTION ( 'NONE',  ( 0.000000000000000000, -0.000000000000000000, 1.000000000000000000 ) ) ;
#202 = ORIENTED_EDGE ( 'NONE', *, *, #478, .F. ) ;
#203 = VECTOR ( 'NONE', #150, 1000.000000000000000 ) ;
#204 = DIRECTION ( 'NONE',  ( -1.000000000000000000, 0.000000000000000000, 0.000000000000000000 ) ) ;
#205 = ORIENTED_EDGE ( 'NONE', *, *, #468, .T. ) ;
#206 = DIRECTION ( 'NONE',  ( -0.000000000000000000, 1.000000000000000000, -0.000000000000000000 ) ) ;
#207 = ORIENTED_EDGE ( 'NONE', *, *, #303, .F. ) ;
#208 = CIRCLE ( 'NONE', #485, 0.2000000000000000944 ) ;
#209 = CARTESIAN_POINT ( 'NONE',  ( -8.000000000000000000, 0.000000000000000000, -1.800000000000000044 ) ) ;
#210 = ORIENTED_EDGE ( 'NONE', *, *, #119, .F. ) ;
#211 = PLANE ( 'NONE',  #332 ) ;
#212 = ORIENTED_EDGE ( 'NONE', *, *, #398, .T. ) ;
#213 = DIRECTION ( 'NONE',  ( 0.000000000000000000, 0.000000000000000000, -1.000000000000000000 ) ) ;
#214 = ORIENTED_EDGE ( 'NONE', *, *, #81, .T. ) ;
#215 = CIRCLE ( 'NONE', #462, 0.2000000000000000944 ) ;
#216 = CYLINDRICAL_SURFACE ( 'NONE', #47, 0.2000000000000000944 ) ;
#217 = DIRECTION ( 'NONE',  ( 0.000000000000000000, 0.000000000000000000, 1.000000000000000000 ) ) ;
#218 = ORIENTED_EDGE ( 'NONE', *, *, #164, .F. ) ;
#219 = CARTESIAN_POINT ( 'NONE',  ( -7.800000000000000711, 2.000000000000000000, -1.800000000000000044 ) ) ;
#220 = VERTEX_POINT ( 'NONE', #159 ) ;
#221 = DIRECTION ( 'NONE',  ( 0.000000000000000000, 0.000000000000000000, 1.000000000000000000 ) ) ;
#222 = CARTESIAN_POINT ( 'NONE',  ( -7.800000000000000711, 2.000000000000000000, 1.800000000000000044 ) ) ;
#223 = VERTEX_POINT ( 'NONE', #271 ) ;
#224 = ADVANCED_FACE ( 'NONE', ( #195 ), #465, .T. ) ;
#225 = CARTESIAN_POINT ( 'NONE',  ( 7.800000000000001599, 0.000000000000000000, -2.000000000000000000 ) ) ;
#226 = EDGE_CURVE ( 'NONE', #400, #281, #160, .T. ) ;
#227 = PRODUCT_CONTEXT ( 'NONE', #252, 'mechanical' ) ;
#228 = DIRECTION ( 'NONE',  ( 0.000000000000000000, 0.000000000000000000, -1.000000000000000000 ) ) ;
#229 = CARTESIAN_POINT ( 'NONE',  ( 8.000000000000000000, 2.000000000000000000, 1.800000000000000044 ) ) ;
#230 = VECTOR ( 'NONE', #248, 1000.000000000000000 ) ;
#231 = AXIS2_PLACEMENT_3D ( 'NONE', #8, #460, #342 ) ;
#232 = CARTESIAN_POINT ( 'NONE',  ( -8.000000000000000000, 0.000000000000000000, 2.000000000000000000 ) ) ;
#233 = DIRECTION ( 'NONE',  ( -1.000000000000000000, 0.000000000000000000, 0.000000000000000000 ) ) ;
#234 = CIRCLE ( 'NONE', #382, 0.2000000000000000944 ) ;
#235 = LINE ( 'NONE', #232, #39 ) ;
#236 = EDGE_LOOP ( 'NONE', ( #317, #428, #97, #102 ) ) ;
#237 = EDGE_CURVE ( 'NONE', #281, #368, #87, .T. ) ;
#238 = CARTESIAN_POINT ( 'NONE',  ( -8.000000000000000000, 1.800000000000000044, -2.000000000000000000 ) ) ;
#239 =( GEOMETRIC_REPRESENTATION_CONTEXT ( 3 ) GLOBAL_UNCERTAINTY_ASSIGNED_CONTEXT ( ( #62 ) ) GLOBAL_UNIT_ASSIGNED_CONTEXT ( ( #270, #34, #73 ) ) REPRESENTATION_CONTEXT ( 'NONE', 'WORKASPACE' ) );
#240 = DIRECTION ( 'NONE',  ( -1.000000000000000000, -0.000000000000000000, -0.000000000000000000 ) ) ;
#241 = ADVANCED_FACE ( 'NONE', ( #314 ), #391, .F. ) ;
#242 = LINE ( 'NONE', #92, #118 ) ;
#243 = EDGE_LOOP ( 'NONE', ( #322, #466, #167 ) ) ;
#244 = CARTESIAN_POINT ( 'NONE',  ( 0.000000000000000000, 0.000000000000000000, 0.000000000000000000 ) ) ;
#245 = FACE_OUTER_BOUND ( 'NONE', #243, .T. ) ;
#246 = EDGE_LOOP ( 'NONE', ( #283, #136, #12, #405 ) ) ;
#247 = AXIS2_PLACEMENT_3D ( 'NONE', #321, #254, #407 ) ;
#248 = DIRECTION ( 'NONE',  ( -0.000000000000000000, 0.000000000000000000, 1.000000000000000000 ) ) ;
#249 = ORIENTED_EDGE ( 'NONE', *, *, #164, .T. ) ;
#250 = ADVANCED_BREP_SHAPE_REPRESENTATION ( 'BAR4X16T2', ( #75, #86 ), #239 ) ;
#251 = DIRECTION ( 'NONE',  ( -0.000000000000000000, 1.000000000000000000, 0.000000000000000000 ) ) ;
#252 = APPLICATION_CONTEXT ( 'automotive_design' ) ;
#253 = EDGE_LOOP ( 'NONE', ( #210, #134, #356, #51, #36, #480, #438, #143 ) ) ;
#254 = DIRECTION ( 'NONE',  ( -1.000000000000000000, 0.000000000000000000, 0.000000000000000000 ) ) ;
#255 = ORIENTED_EDGE ( 'NONE', *, *, #127, .T. ) ;
#256 = AXIS2_PLACEMENT_3D ( 'NONE', #302, #423, #233 ) ;
#257 = DIRECTION ( 'NONE',  ( 0.000000000000000000, -1.000000000000000000, 0.000000000000000000 ) ) ;
#258 = CARTESIAN_POINT ( 'NONE',  ( 8.000000000000000000, 1.800000000000000044, 2.000000000000000000 ) ) ;
#259 = ADVANCED_FACE ( 'NONE', ( #433 ), #133, .T. ) ;
#260 = CARTESIAN_POINT ( 'NONE',  ( 7.800000000000000711, 1.800000000000000044, -1.800000000000000044 ) ) ;
#261 = EDGE_CURVE ( 'NONE', #491, #390, #234, .T. ) ;
#262 = EDGE_CURVE ( 'NONE', #365, #441, #277, .T. ) ;
#263 = CYLINDRICAL_SURFACE ( 'NONE', #266, 0.2000000000000000944 ) ;
#264 = APPLICATION_PROTOCOL_DEFINITION ( 'draft international standard', 'automotive_design', 1998, #252 ) ;
#265 = COLOUR_RGB ( '',0.8980392156862745390, 0.9215686274509803377, 0.9294117647058823817 ) ;
#266 = AXIS2_PLACEMENT_3D ( 'NONE', #48, #352, #162 ) ;
#267 = DIRECTION ( 'NONE',  ( 1.000000000000000000, 0.000000000000000000, 0.000000000000000000 ) ) ;
#268 =( LENGTH_UNIT ( ) NAMED_UNIT ( * ) SI_UNIT ( .MILLI., .METRE. ) );
#269 = ADVANCED_FACE ( 'NONE', ( #181 ), #216, .T. ) ;
#270 =( LENGTH_UNIT ( ) NAMED_UNIT ( * ) SI_UNIT ( .MILLI., .METRE. ) );
#271 = CARTESIAN_POINT ( 'NONE',  ( 8.000000000000000000, 1.800000000000000044, -1.800000000000000044 ) ) ;
#272 = AXIS2_PLACEMENT_3D ( 'NONE', #135, #251, #290 ) ;
#273 = CIRCLE ( 'NONE', #14, 0.1999999999999996503 ) ;
#274 = CYLINDRICAL_SURFACE ( 'NONE', #256, 0.1999999999999996503 ) ;
#275 = DIRECTION ( 'NONE',  ( 0.000000000000000000, 0.000000000000000000, -1.000000000000000000 ) ) ;
#276 = ORIENTED_EDGE ( 'NONE', *, *, #77, .F. ) ;
#277 = CIRCLE ( 'NONE', #361, 0.1999999999999996503 ) ;
#278 = LINE ( 'NONE', #427, #331 ) ;
#279 = CARTESIAN_POINT ( 'NONE',  ( 7.800000000000001599, 2.000000000000000000, -1.800000000000000044 ) ) ;
#280 = CARTESIAN_POINT ( 'NONE',  ( 7.800000000000000711, 1.800000000000000044, 1.800000000000000044 ) ) ;
#281 = VERTEX_POINT ( 'NONE', #130 ) ;
#282 = DIRECTION ( 'NONE',  ( 1.000000000000000000, -0.000000000000000000, -0.000000000000000000 ) ) ;
#283 = ORIENTED_EDGE ( 'NONE', *, *, #80, .F. ) ;
#284 = CARTESIAN_POINT ( 'NONE',  ( -7.800000000000000711, 2.000000000000000000, -2.000000000000000000 ) ) ;
#285 = VERTEX_POINT ( 'NONE', #50 ) ;
#286 = CARTESIAN_POINT ( 'NONE',  ( -8.000000000000000000, 1.800000000000000044, 1.800000000000000044 ) ) ;
#287 = ORIENTED_EDGE ( 'NONE', *, *, #344, .F. ) ;
#288 = DIRECTION ( 'NONE',  ( 0.000000000000000000, 0.000000000000000000, 1.000000000000000000 ) ) ;
#289 = EDGE_LOOP ( 'NONE', ( #451, #276, #362, #330 ) ) ;
#290 = DIRECTION ( 'NONE',  ( 0.000000000000000000, 0.000000000000000000, 1.000000000000000000 ) ) ;
#291 = EDGE_CURVE ( 'NONE', #441, #400, #242, .T. ) ;
#292 = VERTEX_POINT ( 'NONE', #469 ) ;
#293 = AXIS2_PLACEMENT_3D ( 'NONE', #114, #414, #339 ) ;
#294 = LINE ( 'NONE', #54, #203 ) ;
#295 = LINE ( 'NONE', #17, #364 ) ;
#296 = ORIENTED_EDGE ( 'NONE', *, *, #394, .F. ) ;
#297 = DIRECTION ( 'NONE',  ( -1.000000000000000000, -0.000000000000000000, -0.000000000000000000 ) ) ;
#298 = AXIS2_PLACEMENT_3D ( 'NONE', #15, #396, #430 ) ;
#299 = DIRECTION ( 'NONE',  ( -1.000000000000000000, 0.000000000000000000, 0.000000000000000000 ) ) ;
#300 = ADVANCED_FACE ( 'NONE', ( #245 ), #145, .T. ) ;
#301 = AXIS2_PLACEMENT_3D ( 'NONE', #117, #152, #375 ) ;
#302 = CARTESIAN_POINT ( 'NONE',  ( -7.800000000000000711, 1.800000000000000044, 0.000000000000000000 ) ) ;
#303 = EDGE_CURVE ( 'NONE', #194, #390, #294, .T. ) ;
#304 = FACE_OUTER_BOUND ( 'NONE', #289, .T. ) ;
#305 = DIRECTION ( 'NONE',  ( 1.000000000000000000, 4.336808689942016158E-15, 0.000000000000000000 ) ) ;
#306 = EDGE_CURVE ( 'NONE', #194, #141, #215, .T. ) ;
#307 = CARTESIAN_POINT ( 'NONE',  ( -8.000000000000000000, 0.000000000000000000, -2.000000000000000000 ) ) ;
#308 = ORIENTED_EDGE ( 'NONE', *, *, #376, .F. ) ;
#309 = CARTESIAN_POINT ( 'NONE',  ( -8.000000000000000000, 0.000000000000000000, -2.000000000000000000 ) ) ;
#310 = VERTEX_POINT ( 'NONE', #450 ) ;
#311 = CARTESIAN_POINT ( 'NONE',  ( -7.800000000000000711, 1.800000000000000044, -1.800000000000000044 ) ) ;
#312 = VECTOR ( 'NONE', #483, 1000.000000000000000 ) ;
#313 = VECTOR ( 'NONE', #240, 1000.000000000000000 ) ;
#314 = FACE_OUTER_BOUND ( 'NONE', #454, .T. ) ;
#315 = VERTEX_POINT ( 'NONE', #409 ) ;
#316 = LINE ( 'NONE', #284, #312 ) ;
#317 = ORIENTED_EDGE ( 'NONE', *, *, #81, .F. ) ;
#318 = DIRECTION ( 'NONE',  ( 0.000000000000000000, 0.000000000000000000, -1.000000000000000000 ) ) ;
#319 = EDGE_LOOP ( 'NONE', ( #95, #214, #308 ) ) ;
#320 = ADVANCED_FACE ( 'NONE', ( #452 ), #65, .F. ) ;
#321 = CARTESIAN_POINT ( 'NONE',  ( -7.800000000000000711, 1.800000000000000044, -1.800000000000000044 ) ) ;
#322 = ORIENTED_EDGE ( 'NONE', *, *, #413, .T. ) ;
#323 = ADVANCED_FACE ( 'NONE', ( #111 ), #263, .T. ) ;
#324 = DIRECTION ( 'NONE',  ( 0.000000000000000000, 0.000000000000000000, 1.000000000000000000 ) ) ;
#325 = LINE ( 'NONE', #258, #354 ) ;
#326 = SURFACE_STYLE_FILL_AREA ( #67 ) ;
#327 = DIRECTION ( 'NONE',  ( 0.000000000000000000, 1.000000000000000000, 0.000000000000000000 ) ) ;
#328 = PRESENTATION_LAYER_ASSIGNMENT (  '', '', ( #93 ) ) ;
#329 = LINE ( 'NONE', #182, #230 ) ;
#330 = ORIENTED_EDGE ( 'NONE', *, *, #431, .F. ) ;
#331 = VECTOR ( 'NONE', #429, 1000.000000000000000 ) ;
#332 = AXIS2_PLACEMENT_3D ( 'NONE', #244, #29, #144 ) ;
#333 = DIRECTION ( 'NONE',  ( 0.000000000000000000, 0.000000000000000000, -1.000000000000000000 ) ) ;
#334 = DIRECTION ( 'NONE',  ( 0.000000000000000000, 0.000000000000000000, 1.000000000000000000 ) ) ;
#335 = ORIENTED_EDGE ( 'NONE', *, *, #10, .T. ) ;
#336 = AXIS2_PLACEMENT_3D ( 'NONE', #63, #327, #482 ) ;
#337 =( NAMED_UNIT ( * ) PLANE_ANGLE_UNIT ( ) SI_UNIT ( $, .RADIAN. ) );
#338 = CIRCLE ( 'NONE', #13, 0.1999999999999996503 ) ;
#339 = DIRECTION ( 'NONE',  ( 1.000000000000000000, 0.000000000000000000, 0.000000000000000000 ) ) ;
#340 = LINE ( 'NONE', #158, #192 ) ;
#341 = EDGE_CURVE ( 'NONE', #315, #441, #421, .T. ) ;
#342 = DIRECTION ( 'NONE',  ( 0.000000000000000000, 0.000000000000000000, 1.000000000000000000 ) ) ;
#343 = ORIENTED_EDGE ( 'NONE', *, *, #306, .F. ) ;
#344 = EDGE_CURVE ( 'NONE', #220, #315, #316, .T. ) ;
#345 = EDGE_CURVE ( 'NONE', #7, #444, #115, .T. ) ;
#346 = CARTESIAN_POINT ( 'NONE',  ( 8.000000000000000000, 2.000000000000000000, -1.800000000000000044 ) ) ;
#347 = DIRECTION ( 'NONE',  ( -0.000000000000000000, -1.000000000000000000, -0.000000000000000000 ) ) ;
#348 = ORIENTED_EDGE ( 'NONE', *, *, #435, .F. ) ;
#349 = DIRECTION ( 'NONE',  ( 0.000000000000000000, 0.000000000000000000, 1.000000000000000000 ) ) ;
#350 = ORIENTED_EDGE ( 'NONE', *, *, #426, .F. ) ;
#351 = ADVANCED_FACE ( 'NONE', ( #23 ), #211, .F. ) ;
#352 = DIRECTION ( 'NONE',  ( 1.000000000000000000, 0.000000000000000000, 0.000000000000000000 ) ) ;
#353 = VECTOR ( 'NONE', #191, 1000.000000000000000 ) ;
#354 = VECTOR ( 'NONE', #60, 1000.000000000000000 ) ;
#355 = CIRCLE ( 'NONE', #422, 0.2000000000000000944 ) ;
#356 = ORIENTED_EDGE ( 'NONE', *, *, #226, .F. ) ;
#357 = VECTOR ( 'NONE', #74, 1000.000000000000000 ) ;
#358 = DIRECTION ( 'NONE',  ( -0.000000000000000000, -1.000000000000000000, -0.000000000000000000 ) ) ;
#359 = ORIENTED_EDGE ( 'NONE', *, *, #291, .T. ) ;
#360 = DIRECTION ( 'NONE',  ( 0.000000000000000000, -1.000000000000000000, 0.000000000000000000 ) ) ;
#361 = AXIS2_PLACEMENT_3D ( 'NONE', #104, #89, #204 ) ;
#362 = ORIENTED_EDGE ( 'NONE', *, *, #138, .F. ) ;
#363 = LINE ( 'NONE', #481, #174 ) ;
#364 = VECTOR ( 'NONE', #58, 1000.000000000000000 ) ;
#365 = VERTEX_POINT ( 'NONE', #219 ) ;
#366 = DIRECTION ( 'NONE',  ( 0.000000000000000000, 0.000000000000000000, -1.000000000000000000 ) ) ;
#367 = CARTESIAN_POINT ( 'NONE',  ( -8.000000000000000000, 2.000000000000000000, -2.000000000000000000 ) ) ;
#368 = VERTEX_POINT ( 'NONE', #286 ) ;
#369 = PLANE ( 'NONE',  #22 ) ;
#370 = DIRECTION ( 'NONE',  ( 1.000000000000000000, -0.000000000000000000, 0.000000000000000000 ) ) ;
#371 = DIRECTION ( 'NONE',  ( 0.000000000000000000, 0.000000000000000000, -1.000000000000000000 ) ) ;
#372 = ORIENTED_EDGE ( 'NONE', *, *, #101, .T. ) ;
#373 = LINE ( 'NONE', #229, #26 ) ;
#374 = APPLICATION_PROTOCOL_DEFINITION ( 'draft international standard', 'automotive_design', 1998, #403 ) ;
#375 = DIRECTION ( 'NONE',  ( 0.000000000000000000, 0.000000000000000000, -1.000000000000000000 ) ) ;
#376 = EDGE_CURVE ( 'NONE', #223, #285, #163, .T. ) ;
#377 = DIRECTION ( 'NONE',  ( 0.000000000000000000, 0.000000000000000000, 1.000000000000000000 ) ) ;
#378 = SPHERICAL_SURFACE ( 'NONE', #231, 0.2000000000000000111 ) ;
#379 = EDGE_LOOP ( 'NONE', ( #99, #61, #121, #287 ) ) ;
#380 = CARTESIAN_POINT ( 'NONE',  ( -7.800000000000000711, 2.000000000000000000, -1.800000000000000044 ) ) ;
#381 = AXIS2_PLACEMENT_3D ( 'NONE', #471, #324, #31 ) ;
#382 = AXIS2_PLACEMENT_3D ( 'NONE', #166, #282, #221 ) ;
#383 = LINE ( 'NONE', #307, #313 ) ;
#384 = ORIENTED_EDGE ( 'NONE', *, *, #478, .T. ) ;
#385 = AXIS2_PLACEMENT_3D ( 'NONE', #96, #446, #91 ) ;
#386 = DIRECTION ( 'NONE',  ( 0.000000000000000000, -1.000000000000000000, 0.000000000000000000 ) ) ;
#387 = EDGE_CURVE ( 'NONE', #157, #310, #178, .T. ) ;
#388 = DIRECTION ( 'NONE',  ( 0.000000000000000000, -1.000000000000000000, 0.000000000000000000 ) ) ;
#389 = CIRCLE ( 'NONE', #35, 0.2000000000000000944 ) ;
#390 = VERTEX_POINT ( 'NONE', #473 ) ;
#391 = PLANE ( 'NONE',  #381 ) ;
#392 = EDGE_LOOP ( 'NONE', ( #464, #20, #296, #424 ) ) ;
#393 = MECHANICAL_DESIGN_GEOMETRIC_PRESENTATION_REPRESENTATION (  '', ( #93 ), #3 ) ;
#394 = EDGE_CURVE ( 'NONE', #223, #292, #185, .T. ) ;
#395 = CARTESIAN_POINT ( 'NONE',  ( 8.000000000000000000, 1.800000000000000044, -2.000000000000000000 ) ) ;
#396 = DIRECTION ( 'NONE',  ( -1.000000000000000000, 0.000000000000000000, 0.000000000000000000 ) ) ;
#397 = ORIENTED_EDGE ( 'NONE', *, *, #261, .F. ) ;
#398 = EDGE_CURVE ( 'NONE', #310, #444, #295, .T. ) ;
#399 = CARTESIAN_POINT ( 'NONE',  ( 8.000000000000000000, 0.000000000000000000, -1.800000000000000044 ) ) ;
#400 = VERTEX_POINT ( 'NONE', #209 ) ;
#401 = LINE ( 'NONE', #479, #475 ) ;
#402 = EDGE_LOOP ( 'NONE', ( #472, #199, #477, #359 ) ) ;
#403 = APPLICATION_CONTEXT ( 'automotive_design' ) ;
#404 = CARTESIAN_POINT ( 'NONE',  ( 7.800000000000001599, 0.000000000000000000, -1.800000000000000044 ) ) ;
#405 = ORIENTED_EDGE ( 'NONE', *, *, #237, .F. ) ;
#406 = AXIS2_PLACEMENT_3D ( 'NONE', #463, #305, #459 ) ;
#407 = DIRECTION ( 'NONE',  ( 0.000000000000000000, 0.000000000000000000, 1.000000000000000000 ) ) ;
#408 = DIRECTION ( 'NONE',  ( 0.000000000000000000, -1.000000000000000000, 0.000000000000000000 ) ) ;
#409 = CARTESIAN_POINT ( 'NONE',  ( -7.800000000000000711, 1.800000000000000044, -2.000000000000000000 ) ) ;
#410 = VECTOR ( 'NONE', #206, 1000.000000000000000 ) ;
#411 = FILL_AREA_STYLE_COLOUR ( '', #265 ) ;
#412 = DIRECTION ( 'NONE',  ( -0.000000000000000000, -1.000000000000000000, -0.000000000000000000 ) ) ;
#413 = EDGE_CURVE ( 'NONE', #365, #315, #76, .T. ) ;
#414 = DIRECTION ( 'NONE',  ( 0.000000000000000000, -0.000000000000000000, 1.000000000000000000 ) ) ;
#415 = ORIENTED_EDGE ( 'NONE', *, *, #436, .F. ) ;
#416 = AXIS2_PLACEMENT_3D ( 'NONE', #260, #189, #187 ) ;
#417 = ADVANCED_FACE ( 'NONE', ( #437 ), #369, .F. ) ;
#418 =( NAMED_UNIT ( * ) SI_UNIT ( $, .STERADIAN. ) SOLID_ANGLE_UNIT ( ) );
#419 = FACE_OUTER_BOUND ( 'NONE', #44, .T. ) ;
#420 = ORIENTED_EDGE ( 'NONE', *, *, #344, .T. ) ;
#421 = CIRCLE ( 'NONE', #146, 0.2000000000000000944 ) ;
#422 = AXIS2_PLACEMENT_3D ( 'NONE', #122, #2, #193 ) ;
#423 = DIRECTION ( 'NONE',  ( 0.000000000000000000, 0.000000000000000000, -1.000000000000000000 ) ) ;
#424 = ORIENTED_EDGE ( 'NONE', *, *, #169, .F. ) ;
#425 = CYLINDRICAL_SURFACE ( 'NONE', #147, 0.2000000000000000944 ) ;
#426 = EDGE_CURVE ( 'NONE', #310, #461, #32, .T. ) ;
#427 = CARTESIAN_POINT ( 'NONE',  ( -8.000000000000000000, 2.000000000000000000, -1.800000000000000044 ) ) ;
#428 = ORIENTED_EDGE ( 'NONE', *, *, #443, .F. ) ;
#429 = DIRECTION ( 'NONE',  ( -1.000000000000000000, 0.000000000000000000, 0.000000000000000000 ) ) ;
#430 = DIRECTION ( 'NONE',  ( 0.000000000000000000, 0.000000000000000000, 1.000000000000000000 ) ) ;
#431 = EDGE_CURVE ( 'NONE', #365, #491, #329, .T. ) ;
#432 = ORIENTED_EDGE ( 'NONE', *, *, #435, .T. ) ;
#433 = FACE_OUTER_BOUND ( 'NONE', #49, .T. ) ;
#434 = ORIENTED_EDGE ( 'NONE', *, *, #169, .T. ) ;
#435 = EDGE_CURVE ( 'NONE', #141, #285, #363, .T. ) ;
#436 = EDGE_CURVE ( 'NONE', #223, #157, #325, .T. ) ;
#437 = FACE_OUTER_BOUND ( 'NONE', #402, .T. ) ;
#438 = ORIENTED_EDGE ( 'NONE', *, *, #398, .F. ) ;
#439 = DIRECTION ( 'NONE',  ( 0.000000000000000000, 0.000000000000000000, 1.000000000000000000 ) ) ;
#440 = AXIS2_PLACEMENT_3D ( 'NONE', #490, #299, #33 ) ;
#441 = VERTEX_POINT ( 'NONE', #19 ) ;
#442 = DIRECTION ( 'NONE',  ( -1.000000000000000000, 0.000000000000000000, 0.000000000000000000 ) ) ;
#443 = EDGE_CURVE ( 'NONE', #315, #292, #148, .T. ) ;
#444 = VERTEX_POINT ( 'NONE', #399 ) ;
#445 = CARTESIAN_POINT ( 'NONE',  ( -8.000000000000000000, 2.000000000000000000, 1.800000000000000044 ) ) ;
#446 = DIRECTION ( 'NONE',  ( -0.000000000000000000, -1.000000000000000000, -0.000000000000000000 ) ) ;
#447 = AXIS2_PLACEMENT_3D ( 'NONE', #380, #42, #275 ) ;
#448 = AXIS2_PLACEMENT_3D ( 'NONE', #105, #175, #442 ) ;
#449 = FACE_OUTER_BOUND ( 'NONE', #319, .T. ) ;
#450 = CARTESIAN_POINT ( 'NONE',  ( 8.000000000000000000, 0.000000000000000000, 1.800000000000000044 ) ) ;
#451 = ORIENTED_EDGE ( 'NONE', *, *, #262, .T. ) ;
#452 = FACE_OUTER_BOUND ( 'NONE', #90, .T. ) ;
#453 = CARTESIAN_POINT ( 'NONE',  ( 0.000000000000000000, 0.000000000000000000, 0.000000000000000000 ) ) ;
#454 = EDGE_LOOP ( 'NONE', ( #255, #420, #125, #372 ) ) ;
#455 = EDGE_CURVE ( 'NONE', #390, #9, #140, .T. ) ;
#456 = CARTESIAN_POINT ( 'NONE',  ( -7.800000000000000711, 0.000000000000000000, 1.800000000000000044 ) ) ;
#457 = VECTOR ( 'NONE', #360, 1000.000000000000000 ) ;
#458 = FACE_OUTER_BOUND ( 'NONE', #149, .T. ) ;
#459 = DIRECTION ( 'NONE',  ( -4.336808689942015369E-15, 1.000000000000000000, 0.000000000000000000 ) ) ;
#460 = DIRECTION ( 'NONE',  ( 0.000000000000000000, 1.000000000000000000, -0.000000000000000000 ) ) ;
#461 = VERTEX_POINT ( 'NONE', #172 ) ;
#462 = AXIS2_PLACEMENT_3D ( 'NONE', #280, #297, #371 ) ;
#463 = CARTESIAN_POINT ( 'NONE',  ( 7.800000000000001599, 1.800000000000000044, -1.800000000000000044 ) ) ;
#464 = ORIENTED_EDGE ( 'NONE', *, *, #345, .F. ) ;
#465 = PLANE ( 'NONE',  #103 ) ;
#466 = ORIENTED_EDGE ( 'NONE', *, *, #341, .T. ) ;
#467 = DIRECTION ( 'NONE',  ( 1.000000000000000000, 0.000000000000000000, 0.000000000000000000 ) ) ;
#468 = EDGE_CURVE ( 'NONE', #157, #141, #338, .T. ) ;
#469 = CARTESIAN_POINT ( 'NONE',  ( 7.800000000000001599, 1.800000000000000044, -2.000000000000000000 ) ) ;
#470 = EDGE_LOOP ( 'NONE', ( #55, #335, #432, #27 ) ) ;
#471 = CARTESIAN_POINT ( 'NONE',  ( -8.000000000000000000, 2.000000000000000000, -2.000000000000000000 ) ) ;
#472 = ORIENTED_EDGE ( 'NONE', *, *, #226, .T. ) ;
#473 = CARTESIAN_POINT ( 'NONE',  ( -7.800000000000000711, 1.800000000000000044, 2.000000000000000000 ) ) ;
#474 = ORIENTED_EDGE ( 'NONE', *, *, #119, .T. ) ;
#475 = VECTOR ( 'NONE', #142, 1000.000000000000000 ) ;
#476 = CARTESIAN_POINT ( 'NONE',  ( 7.800000000000000711, 1.800000000000000044, 1.800000000000000044 ) ) ;
#477 = ORIENTED_EDGE ( 'NONE', *, *, #77, .T. ) ;
#478 = EDGE_CURVE ( 'NONE', #461, #194, #401, .T. ) ;
#479 = CARTESIAN_POINT ( 'NONE',  ( 7.800000000000001599, 2.000000000000000000, 2.000000000000000000 ) ) ;
#480 = ORIENTED_EDGE ( 'NONE', *, *, #345, .T. ) ;
#481 = CARTESIAN_POINT ( 'NONE',  ( 7.800000000000000711, 2.000000000000000000, -2.000000000000000000 ) ) ;
#482 = DIRECTION ( 'NONE',  ( -1.000000000000000000, 0.000000000000000000, 0.000000000000000000 ) ) ;
#483 = DIRECTION ( 'NONE',  ( -0.000000000000000000, 1.000000000000000000, -0.000000000000000000 ) ) ;
#484 = ADVANCED_FACE ( 'NONE', ( #186 ), #66, .T. ) ;
#485 = AXIS2_PLACEMENT_3D ( 'NONE', #68, #109, #377 ) ;
#486 = SPHERICAL_SURFACE ( 'NONE', #416, 0.2000000000000000111 ) ;
#487 = DIRECTION ( 'NONE',  ( -1.000000000000000000, 0.000000000000000000, -0.000000000000000000 ) ) ;
#488 = EDGE_CURVE ( 'NONE', #368, #390, #208, .T. ) ;
#489 = CARTESIAN_POINT ( 'NONE',  ( 7.800000000000000711, 2.000000000000000000, 1.800000000000000044 ) ) ;
#490 = CARTESIAN_POINT ( 'NONE',  ( 8.000000000000000000, 2.000000000000000000, -2.000000000000000000 ) ) ;
#491 = VERTEX_POINT ( 'NONE', #222 ) ;
ENDSEC;
END-ISO-10303-21;
