ISO-10303-21;
HEADER;
FILE_DESCRIPTION (( 'STEP AP203' ),
    '1' );
FILE_NAME ('BAR4X14T2.step',
    '2026-03-22T07:18:15',
    ( '' ),
    ( '' ),
    'SwSTEP 2.0',
    'SolidWorks 2025',
    '' );
FILE_SCHEMA (( 'CONFIG_CONTROL_DESIGN' ));
ENDSEC;

DATA;
#1 = CARTESIAN_POINT ( 'NONE',  ( 6.800000000000002487, 1.800000000000000044, 1.800000000000000044 ) ) ;
#2 = ORIENTED_EDGE ( 'NONE', *, *, #33, .T. ) ;
#3 = PLANE ( 'NONE',  #58 ) ;
#4 = ORIENTED_EDGE ( 'NONE', *, *, #458, .F. ) ;
#5 = EDGE_CURVE ( 'NONE', #329, #23, #228, .T. ) ;
#6 = DIRECTION ( 'NONE',  ( 0.000000000000000000, 0.000000000000000000, -1.000000000000000000 ) ) ;
#7 = CIRCLE ( 'NONE', #366, 0.1999999999999996503 ) ;
#8 = LINE ( 'NONE', #384, #215 ) ;
#9 = ORIENTED_EDGE ( 'NONE', *, *, #264, .F. ) ;
#10 = EDGE_CURVE ( 'NONE', #507, #259, #476, .T. ) ;
#11 = PLANE ( 'NONE',  #311 ) ;
#12 = VECTOR ( 'NONE', #181, 1000.000000000000000 ) ;
#13 = ORIENTED_EDGE ( 'NONE', *, *, #443, .T. ) ;
#14 = CARTESIAN_POINT ( 'NONE',  ( 6.800000000000002487, 0.000000000000000000, 1.800000000000000044 ) ) ;
#15 = CARTESIAN_POINT ( 'NONE',  ( 6.800000000000002487, 1.800000000000000044, -1.800000000000000044 ) ) ;
#16 = DIRECTION ( 'NONE',  ( 0.000000000000000000, 0.000000000000000000, 1.000000000000000000 ) ) ;
#17 = ORIENTED_EDGE ( 'NONE', *, *, #357, .F. ) ;
#18 = COORDINATED_UNIVERSAL_TIME_OFFSET ( 8, 0, .AHEAD. ) ;
#19 = DIRECTION ( 'NONE',  ( 4.336808689942015369E-15, 1.000000000000000000, 0.000000000000000000 ) ) ;
#20 = ORGANIZATION ( 'UNSPECIFIED', 'UNSPECIFIED', '' ) ;
#21 = CARTESIAN_POINT ( 'NONE',  ( 0.000000000000000000, 1.800000000000000044, -1.800000000000000044 ) ) ;
#22 = APPLICATION_PROTOCOL_DEFINITION ( 'international standard', 'config_control_design', 1994, #459 ) ;
#23 = VERTEX_POINT ( 'NONE', #272 ) ;
#24 = DIRECTION ( 'NONE',  ( 1.000000000000000000, 0.000000000000000000, 0.000000000000000000 ) ) ;
#25 = DIRECTION ( 'NONE',  ( 0.000000000000000000, 0.000000000000000000, 1.000000000000000000 ) ) ;
#26 = VECTOR ( 'NONE', #126, 1000.000000000000000 ) ;
#27 = PERSON_AND_ORGANIZATION ( #113, #20 ) ;
#28 = CARTESIAN_POINT ( 'NONE',  ( -6.799999999999998934, 1.800000000000000044, -2.000000000000000000 ) ) ;
#29 = ORIENTED_EDGE ( 'NONE', *, *, #5, .T. ) ;
#30 = CARTESIAN_POINT ( 'NONE',  ( 6.800000000000002487, 2.000000000000000000, -1.800000000000000044 ) ) ;
#31 = LINE ( 'NONE', #252, #260 ) ;
#32 = EDGE_LOOP ( 'NONE', ( #473, #393, #53, #411 ) ) ;
#33 = EDGE_CURVE ( 'NONE', #329, #325, #42, .T. ) ;
#34 = FACE_OUTER_BOUND ( 'NONE', #300, .T. ) ;
#35 = DIRECTION ( 'NONE',  ( 0.000000000000000000, -0.000000000000000000, 1.000000000000000000 ) ) ;
#36 = EDGE_LOOP ( 'NONE', ( #447, #251, #13, #66 ) ) ;
#37 = MANIFOLD_SOLID_BREP ( '\X2\570689d2\X0\1', #348 ) ;
#38 = AXIS2_PLACEMENT_3D ( 'NONE', #117, #269, #24 ) ;
#39 = CIRCLE ( 'NONE', #364, 0.2000000000000000944 ) ;
#40 = CARTESIAN_POINT ( 'NONE',  ( 6.800000000000001599, 0.000000000000000000, -2.000000000000000000 ) ) ;
#41 = CYLINDRICAL_SURFACE ( 'NONE', #466, 0.2000000000000000944 ) ;
#42 = CIRCLE ( 'NONE', #537, 0.1999999999999996503 ) ;
#43 = CARTESIAN_POINT ( 'NONE',  ( 6.800000000000002487, 1.800000000000000044, 1.800000000000000044 ) ) ;
#44 = CIRCLE ( 'NONE', #324, 0.2000000000000000944 ) ;
#45 = CARTESIAN_POINT ( 'NONE',  ( 6.800000000000001599, 2.000000000000000000, -1.800000000000000044 ) ) ;
#46 = ORIENTED_EDGE ( 'NONE', *, *, #95, .F. ) ;
#47 = AXIS2_PLACEMENT_3D ( 'NONE', #467, #330, #160 ) ;
#48 = LOCAL_TIME ( 15, 18, 15.00000000000000000, #156 ) ;
#49 = DIRECTION ( 'NONE',  ( 0.000000000000000000, -0.000000000000000000, 1.000000000000000000 ) ) ;
#50 = EDGE_CURVE ( 'NONE', #130, #185, #516, .T. ) ;
#51 = ORIENTED_EDGE ( 'NONE', *, *, #386, .T. ) ;
#52 = FACE_OUTER_BOUND ( 'NONE', #235, .T. ) ;
#53 = ORIENTED_EDGE ( 'NONE', *, *, #186, .F. ) ;
#54 = CARTESIAN_POINT ( 'NONE',  ( -6.999999999999998224, 2.000000000000000000, -1.800000000000000044 ) ) ;
#55 = EDGE_CURVE ( 'NONE', #206, #175, #107, .T. ) ;
#56 = ORIENTED_EDGE ( 'NONE', *, *, #10, .T. ) ;
#57 = CARTESIAN_POINT ( 'NONE',  ( 6.800000000000002487, 2.000000000000000000, -2.000000000000000000 ) ) ;
#58 = AXIS2_PLACEMENT_3D ( 'NONE', #389, #179, #346 ) ;
#59 = EDGE_LOOP ( 'NONE', ( #429, #513, #256, #426 ) ) ;
#60 = LINE ( 'NONE', #57, #65 ) ;
#61 = CARTESIAN_POINT ( 'NONE',  ( -6.799999999999998934, 2.000000000000000000, 2.000000000000000000 ) ) ;
#62 = ORIENTED_EDGE ( 'NONE', *, *, #383, .F. ) ;
#63 = FACE_OUTER_BOUND ( 'NONE', #170, .T. ) ;
#64 = APPROVAL ( #490, 'UNSPECIFIED' ) ;
#65 = VECTOR ( 'NONE', #266, 1000.000000000000000 ) ;
#66 = ORIENTED_EDGE ( 'NONE', *, *, #534, .T. ) ;
#67 = VECTOR ( 'NONE', #230, 1000.000000000000000 ) ;
#68 = DATE_AND_TIME ( #517, #345 ) ;
#69 = EDGE_LOOP ( 'NONE', ( #56, #417, #17, #494 ) ) ;
#70 = MECHANICAL_CONTEXT ( 'NONE', #108, 'mechanical' ) ;
#71 = DIRECTION ( 'NONE',  ( 1.000000000000000000, 0.000000000000000000, 0.000000000000000000 ) ) ;
#72 = ORIENTED_EDGE ( 'NONE', *, *, #245, .F. ) ;
#73 = CIRCLE ( 'NONE', #541, 0.1999999999999996503 ) ;
#74 = VECTOR ( 'NONE', #209, 1000.000000000000000 ) ;
#75 = FACE_OUTER_BOUND ( 'NONE', #382, .T. ) ;
#76 = CARTESIAN_POINT ( 'NONE',  ( -6.799999999999998934, 2.000000000000000000, -2.000000000000000000 ) ) ;
#77 = CARTESIAN_POINT ( 'NONE',  ( 7.000000000000001776, 2.000000000000000000, -2.000000000000000000 ) ) ;
#78 = DIRECTION ( 'NONE',  ( 0.000000000000000000, 0.000000000000000000, -1.000000000000000000 ) ) ;
#79 = CYLINDRICAL_SURFACE ( 'NONE', #224, 0.2000000000000000944 ) ;
#80 = CARTESIAN_POINT ( 'NONE',  ( 6.800000000000002487, 1.800000000000000044, 0.000000000000000000 ) ) ;
#81 = PRODUCT_RELATED_PRODUCT_CATEGORY ( 'detail', '', ( #344 ) ) ;
#82 = AXIS2_PLACEMENT_3D ( 'NONE', #511, #430, #96 ) ;
#83 = DIRECTION ( 'NONE',  ( 0.000000000000000000, 0.000000000000000000, 1.000000000000000000 ) ) ;
#84 = DIRECTION ( 'NONE',  ( 0.000000000000000000, 0.000000000000000000, 1.000000000000000000 ) ) ;
#85 = DIRECTION ( 'NONE',  ( 0.000000000000000000, -1.000000000000000000, 0.000000000000000000 ) ) ;
#86 = ORIENTED_EDGE ( 'NONE', *, *, #150, .T. ) ;
#87 = CC_DESIGN_PERSON_AND_ORGANIZATION_ASSIGNMENT ( #115, #450, ( #402 ) ) ;
#88 = CIRCLE ( 'NONE', #367, 0.2000000000000000944 ) ;
#89 = DIRECTION ( 'NONE',  ( -1.000000000000000000, 0.000000000000000000, 0.000000000000000000 ) ) ;
#90 = EDGE_LOOP ( 'NONE', ( #431, #62, #9, #296 ) ) ;
#91 = CIRCLE ( 'NONE', #47, 0.2000000000000000944 ) ;
#92 = CARTESIAN_POINT ( 'NONE',  ( 7.000000000000001776, 2.000000000000000000, -1.800000000000000044 ) ) ;
#93 = EDGE_CURVE ( 'NONE', #177, #329, #435, .T. ) ;
#94 = ORIENTED_EDGE ( 'NONE', *, *, #484, .T. ) ;
#95 = EDGE_CURVE ( 'NONE', #515, #138, #358, .T. ) ;
#96 = DIRECTION ( 'NONE',  ( 0.000000000000000000, 0.000000000000000000, 1.000000000000000000 ) ) ;
#97 = EDGE_LOOP ( 'NONE', ( #200, #29, #219, #307 ) ) ;
#98 = DIRECTION ( 'NONE',  ( -1.000000000000000000, 0.000000000000000000, -0.000000000000000000 ) ) ;
#99 = EDGE_LOOP ( 'NONE', ( #294, #72, #242, #154 ) ) ;
#100 = CARTESIAN_POINT ( 'NONE',  ( -6.799999999999998934, 0.000000000000000000, 2.000000000000000000 ) ) ;
#101 = ORIENTED_EDGE ( 'NONE', *, *, #443, .F. ) ;
#102 = PERSON_AND_ORGANIZATION ( #113, #20 ) ;
#103 = DIRECTION ( 'NONE',  ( 1.000000000000000000, 0.000000000000000000, 0.000000000000000000 ) ) ;
#104 = AXIS2_PLACEMENT_3D ( 'NONE', #468, #337, #172 ) ;
#105 = CC_DESIGN_DATE_AND_TIME_ASSIGNMENT ( #68, #229, ( #402 ) ) ;
#106 = SHAPE_DEFINITION_REPRESENTATION ( #114, #136 ) ;
#107 = LINE ( 'NONE', #480, #67 ) ;
#108 = APPLICATION_CONTEXT ( 'configuration controlled 3d designs of mechanical parts and assemblies' ) ;
#109 = PERSON_AND_ORGANIZATION ( #113, #20 ) ;
#110 = LINE ( 'NONE', #493, #26 ) ;
#111 = AXIS2_PLACEMENT_3D ( 'NONE', #295, #255, #16 ) ;
#112 = EDGE_CURVE ( 'NONE', #138, #370, #403, .T. ) ;
#113 = PERSON ( 'UNSPECIFIED', 'UNSPECIFIED', 'UNSPECIFIED', ('UNSPECIFIED'), ('UNSPECIFIED'), ('UNSPECIFIED') ) ;
#114 = PRODUCT_DEFINITION_SHAPE ( 'NONE', 'NONE',  #380 ) ;
#115 = PERSON_AND_ORGANIZATION ( #113, #20 ) ;
#116 = EDGE_LOOP ( 'NONE', ( #385, #319, #441 ) ) ;
#117 = CARTESIAN_POINT ( 'NONE',  ( 0.000000000000000000, 0.000000000000000000, 0.000000000000000000 ) ) ;
#118 = AXIS2_PLACEMENT_3D ( 'NONE', #176, #341, #504 ) ;
#119 = AXIS2_PLACEMENT_3D ( 'NONE', #462, #286, #247 ) ;
#120 = DIRECTION ( 'NONE',  ( 0.000000000000000000, 0.000000000000000000, -1.000000000000000000 ) ) ;
#121 = ORIENTED_EDGE ( 'NONE', *, *, #386, .F. ) ;
#122 = DIRECTION ( 'NONE',  ( 0.000000000000000000, 1.000000000000000000, 0.000000000000000000 ) ) ;
#123 = LINE ( 'NONE', #211, #203 ) ;
#124 = CARTESIAN_POINT ( 'NONE',  ( 6.800000000000002487, 2.000000000000000000, 1.800000000000000044 ) ) ;
#125 = CYLINDRICAL_SURFACE ( 'NONE', #104, 0.1999999999999996503 ) ;
#126 = DIRECTION ( 'NONE',  ( -1.000000000000000000, -0.000000000000000000, -0.000000000000000000 ) ) ;
#127 = CARTESIAN_POINT ( 'NONE',  ( 6.800000000000001599, 0.000000000000000000, -1.800000000000000044 ) ) ;
#128 = ORIENTED_EDGE ( 'NONE', *, *, #55, .T. ) ;
#129 = DIRECTION ( 'NONE',  ( 0.000000000000000000, 0.000000000000000000, -1.000000000000000000 ) ) ;
#130 = VERTEX_POINT ( 'NONE', #438 ) ;
#131 = SPHERICAL_SURFACE ( 'NONE', #222, 0.2000000000000000111 ) ;
#132 = ORIENTED_EDGE ( 'NONE', *, *, #458, .T. ) ;
#133 = EDGE_CURVE ( 'NONE', #175, #259, #39, .T. ) ;
#134 = EDGE_LOOP ( 'NONE', ( #86, #233, #128, #285 ) ) ;
#135 = CIRCLE ( 'NONE', #381, 0.2000000000000000944 ) ;
#136 = ADVANCED_BREP_SHAPE_REPRESENTATION ( 'BAR4X14T2', ( #37, #38 ), #390 ) ;
#137 = ORIENTED_EDGE ( 'NONE', *, *, #445, .F. ) ;
#138 = VERTEX_POINT ( 'NONE', #190 ) ;
#139 = CYLINDRICAL_SURFACE ( 'NONE', #118, 0.2000000000000000944 ) ;
#140 =( LENGTH_UNIT ( ) NAMED_UNIT ( * ) SI_UNIT ( .MILLI., .METRE. ) );
#141 = DIRECTION ( 'NONE',  ( 0.000000000000000000, -1.000000000000000000, 0.000000000000000000 ) ) ;
#142 = CALENDAR_DATE ( 2026, 22, 3 ) ;
#143 = CARTESIAN_POINT ( 'NONE',  ( -6.999999999999998224, 0.000000000000000000, 2.000000000000000000 ) ) ;
#144 = CIRCLE ( 'NONE', #334, 0.2000000000000000944 ) ;
#145 = CC_DESIGN_PERSON_AND_ORGANIZATION_ASSIGNMENT ( #102, #231, ( #326 ) ) ;
#146 = DATE_AND_TIME ( #188, #178 ) ;
#147 = ORIENTED_EDGE ( 'NONE', *, *, #55, .F. ) ;
#148 = PERSON_AND_ORGANIZATION ( #113, #20 ) ;
#149 = ADVANCED_FACE ( 'NONE', ( #63 ), #232, .T. ) ;
#150 = EDGE_CURVE ( 'NONE', #217, #238, #110, .T. ) ;
#151 = ORIENTED_EDGE ( 'NONE', *, *, #245, .T. ) ;
#152 = ADVANCED_FACE ( 'NONE', ( #327 ), #79, .T. ) ;
#153 = APPROVAL_STATUS ( 'not_yet_approved' ) ;
#154 = ORIENTED_EDGE ( 'NONE', *, *, #298, .F. ) ;
#155 = VECTOR ( 'NONE', #313, 1000.000000000000000 ) ;
#156 = COORDINATED_UNIVERSAL_TIME_OFFSET ( 8, 0, .AHEAD. ) ;
#157 = CARTESIAN_POINT ( 'NONE',  ( -6.999999999999998224, 2.000000000000000000, -2.000000000000000000 ) ) ;
#158 = CARTESIAN_POINT ( 'NONE',  ( 7.000000000000001776, 0.000000000000000000, 1.800000000000000044 ) ) ;
#159 = ORIENTED_EDGE ( 'NONE', *, *, #5, .F. ) ;
#160 = DIRECTION ( 'NONE',  ( 0.000000000000000000, 0.000000000000000000, 1.000000000000000000 ) ) ;
#161 = FACE_OUTER_BOUND ( 'NONE', #69, .T. ) ;
#162 = ORIENTED_EDGE ( 'NONE', *, *, #210, .T. ) ;
#163 = CC_DESIGN_PERSON_AND_ORGANIZATION_ASSIGNMENT ( #109, #355, ( #344 ) ) ;
#164 = CARTESIAN_POINT ( 'NONE',  ( -6.799999999999998934, 1.800000000000000044, -1.800000000000000044 ) ) ;
#165 = FACE_OUTER_BOUND ( 'NONE', #90, .T. ) ;
#166 = ORIENTED_EDGE ( 'NONE', *, *, #186, .T. ) ;
#167 = DIRECTION ( 'NONE',  ( 1.000000000000000000, 0.000000000000000000, -0.000000000000000000 ) ) ;
#168 = DIRECTION ( 'NONE',  ( 0.000000000000000000, 0.000000000000000000, -1.000000000000000000 ) ) ;
#169 = CARTESIAN_POINT ( 'NONE',  ( -6.999999999999998224, 1.800000000000000044, -1.800000000000000044 ) ) ;
#170 = EDGE_LOOP ( 'NONE', ( #265, #147, #456, #137 ) ) ;
#171 = ADVANCED_FACE ( 'NONE', ( #454 ), #526, .F. ) ;
#172 = DIRECTION ( 'NONE',  ( -1.000000000000000000, 0.000000000000000000, 0.000000000000000000 ) ) ;
#173 = EDGE_LOOP ( 'NONE', ( #261, #121, #268, #159 ) ) ;
#174 = DIRECTION ( 'NONE',  ( 0.000000000000000000, -1.000000000000000000, 0.000000000000000000 ) ) ;
#175 = VERTEX_POINT ( 'NONE', #410 ) ;
#176 = CARTESIAN_POINT ( 'NONE',  ( -6.799999999999998934, 2.000000000000000000, -1.800000000000000044 ) ) ;
#177 = VERTEX_POINT ( 'NONE', #321 ) ;
#178 = LOCAL_TIME ( 15, 18, 15.00000000000000000, #18 ) ;
#179 = DIRECTION ( 'NONE',  ( 0.000000000000000000, 1.000000000000000000, 0.000000000000000000 ) ) ;
#180 = AXIS2_PLACEMENT_3D ( 'NONE', #157, #25, #167 ) ;
#181 = DIRECTION ( 'NONE',  ( 0.000000000000000000, -0.000000000000000000, -1.000000000000000000 ) ) ;
#182 = DIRECTION ( 'NONE',  ( -0.000000000000000000, -0.000000000000000000, 1.000000000000000000 ) ) ;
#183 = CARTESIAN_POINT ( 'NONE',  ( 7.000000000000001776, 1.800000000000000044, -1.800000000000000044 ) ) ;
#184 = AXIS2_PLACEMENT_3D ( 'NONE', #451, #71, #497 ) ;
#185 = VERTEX_POINT ( 'NONE', #158 ) ;
#186 = EDGE_CURVE ( 'NONE', #206, #309, #452, .T. ) ;
#187 = CIRCLE ( 'NONE', #401, 0.2000000000000000944 ) ;
#188 = CALENDAR_DATE ( 2026, 22, 3 ) ;
#189 = LOCAL_TIME ( 15, 18, 15.00000000000000000, #273 ) ;
#190 = CARTESIAN_POINT ( 'NONE',  ( 6.800000000000001599, 0.000000000000000000, 2.000000000000000000 ) ) ;
#191 = EDGE_CURVE ( 'NONE', #329, #522, #91, .T. ) ;
#192 = EDGE_CURVE ( 'NONE', #279, #196, #408, .T. ) ;
#193 = DIRECTION ( 'NONE',  ( 1.000000000000000000, 0.000000000000000000, 0.000000000000000000 ) ) ;
#194 = AXIS2_PLACEMENT_3D ( 'NONE', #15, #182, #352 ) ;
#195 = CALENDAR_DATE ( 2026, 22, 3 ) ;
#196 = VERTEX_POINT ( 'NONE', #283 ) ;
#197 = PERSON_AND_ORGANIZATION ( #113, #20 ) ;
#198 = DIRECTION ( 'NONE',  ( 0.000000000000000000, 0.000000000000000000, 1.000000000000000000 ) ) ;
#199 = DIRECTION ( 'NONE',  ( -0.000000000000000000, -1.000000000000000000, -0.000000000000000000 ) ) ;
#200 = ORIENTED_EDGE ( 'NONE', *, *, #93, .T. ) ;
#201 = CARTESIAN_POINT ( 'NONE',  ( -6.799999999999998934, 1.800000000000000044, 1.800000000000000044 ) ) ;
#202 = DIRECTION ( 'NONE',  ( -1.000000000000000000, -0.000000000000000000, -0.000000000000000000 ) ) ;
#203 = VECTOR ( 'NONE', #284, 1000.000000000000000 ) ;
#204 = CC_DESIGN_PERSON_AND_ORGANIZATION_ASSIGNMENT ( #446, #314, ( #380 ) ) ;
#205 = DIRECTION ( 'NONE',  ( 0.000000000000000000, 0.000000000000000000, 1.000000000000000000 ) ) ;
#206 = VERTEX_POINT ( 'NONE', #28 ) ;
#207 = ADVANCED_FACE ( 'NONE', ( #323 ), #289, .T. ) ;
#208 = CARTESIAN_POINT ( 'NONE',  ( -6.799999999999998934, 0.000000000000000000, -2.000000000000000000 ) ) ;
#209 = DIRECTION ( 'NONE',  ( -0.000000000000000000, -0.000000000000000000, 1.000000000000000000 ) ) ;
#210 = EDGE_CURVE ( 'NONE', #279, #238, #187, .T. ) ;
#211 = CARTESIAN_POINT ( 'NONE',  ( -6.999999999999998224, 2.000000000000000000, 1.800000000000000044 ) ) ;
#212 = CARTESIAN_POINT ( 'NONE',  ( 6.800000000000001599, 2.000000000000000000, -2.000000000000000000 ) ) ;
#213 = AXIS2_PLACEMENT_3D ( 'NONE', #164, #122, #291 ) ;
#214 = EDGE_LOOP ( 'NONE', ( #46, #336, #338, #162, #506, #475, #225, #94 ) ) ;
#215 = VECTOR ( 'NONE', #174, 1000.000000000000000 ) ;
#216 = DIRECTION ( 'NONE',  ( 0.000000000000000000, 1.000000000000000000, 0.000000000000000000 ) ) ;
#217 = VERTEX_POINT ( 'NONE', #40 ) ;
#218 = FACE_OUTER_BOUND ( 'NONE', #214, .T. ) ;
#219 = ORIENTED_EDGE ( 'NONE', *, *, #502, .T. ) ;
#220 = AXIS2_PLACEMENT_3D ( 'NONE', #379, #293, #241 ) ;
#221 = DIRECTION ( 'NONE',  ( 1.301042606982604690E-14, 0.000000000000000000, 1.000000000000000000 ) ) ;
#222 = AXIS2_PLACEMENT_3D ( 'NONE', #308, #216, #514 ) ;
#223 = CARTESIAN_POINT ( 'NONE',  ( -6.999999999999998224, 2.000000000000000000, 2.000000000000000000 ) ) ;
#224 = AXIS2_PLACEMENT_3D ( 'NONE', #124, #237, #120 ) ;
#225 = ORIENTED_EDGE ( 'NONE', *, *, #439, .F. ) ;
#226 = EDGE_CURVE ( 'NONE', #177, #206, #44, .T. ) ;
#227 = CARTESIAN_POINT ( 'NONE',  ( -6.999999999999998224, 1.800000000000000044, -2.000000000000000000 ) ) ;
#228 = LINE ( 'NONE', #449, #405 ) ;
#229 = DATE_TIME_ROLE ( 'classification_date' ) ;
#230 = DIRECTION ( 'NONE',  ( 1.000000000000000000, -0.000000000000000000, -0.000000000000000000 ) ) ;
#231 = PERSON_AND_ORGANIZATION_ROLE ( 'design_supplier' ) ;
#232 = CYLINDRICAL_SURFACE ( 'NONE', #421, 0.2000000000000000944 ) ;
#233 = ORIENTED_EDGE ( 'NONE', *, *, #360, .T. ) ;
#234 = APPROVAL_DATE_TIME ( #359, #280 ) ;
#235 = EDGE_LOOP ( 'NONE', ( #51, #151, #253, #361 ) ) ;
#236 = APPROVAL_ROLE ( '' ) ;
#237 = DIRECTION ( 'NONE',  ( 0.000000000000000000, -1.000000000000000000, 0.000000000000000000 ) ) ;
#238 = VERTEX_POINT ( 'NONE', #208 ) ;
#239 = CC_DESIGN_PERSON_AND_ORGANIZATION_ASSIGNMENT ( #27, #520, ( #326 ) ) ;
#240 = CARTESIAN_POINT ( 'NONE',  ( -6.799999999999998934, 1.800000000000000044, -1.800000000000000044 ) ) ;
#241 = DIRECTION ( 'NONE',  ( 0.000000000000000000, 0.000000000000000000, 1.000000000000000000 ) ) ;
#242 = ORIENTED_EDGE ( 'NONE', *, *, #262, .F. ) ;
#243 = DIRECTION ( 'NONE',  ( 0.000000000000000000, 0.000000000000000000, 1.000000000000000000 ) ) ;
#244 = CARTESIAN_POINT ( 'NONE',  ( 6.800000000000002487, 1.800000000000000044, 1.800000000000000044 ) ) ;
#245 = EDGE_CURVE ( 'NONE', #522, #515, #375, .T. ) ;
#246 = ADVANCED_FACE ( 'NONE', ( #75 ), #277, .F. ) ;
#247 = DIRECTION ( 'NONE',  ( -1.000000000000000000, 0.000000000000000000, 4.336808689942024836E-15 ) ) ;
#248 = DIRECTION ( 'NONE',  ( -0.000000000000000000, -0.000000000000000000, -1.000000000000000000 ) ) ;
#249 = CC_DESIGN_SECURITY_CLASSIFICATION ( #402, ( #326 ) ) ;
#250 = LINE ( 'NONE', #369, #74 ) ;
#251 = ORIENTED_EDGE ( 'NONE', *, *, #298, .T. ) ;
#252 = CARTESIAN_POINT ( 'NONE',  ( -6.999999999999998224, 1.800000000000000044, 2.000000000000000000 ) ) ;
#253 = ORIENTED_EDGE ( 'NONE', *, *, #95, .T. ) ;
#254 = AXIS2_PLACEMENT_3D ( 'NONE', #201, #365, #368 ) ;
#255 = DIRECTION ( 'NONE',  ( -1.000000000000000000, 0.000000000000000000, 0.000000000000000000 ) ) ;
#256 = ORIENTED_EDGE ( 'NONE', *, *, #404, .F. ) ;
#257 =( NAMED_UNIT ( * ) PLANE_ANGLE_UNIT ( ) SI_UNIT ( $, .RADIAN. ) );
#258 = ADVANCED_FACE ( 'NONE', ( #503 ), #525, .F. ) ;
#259 = VERTEX_POINT ( 'NONE', #30 ) ;
#260 = VECTOR ( 'NONE', #423, 1000.000000000000000 ) ;
#261 = ORIENTED_EDGE ( 'NONE', *, *, #191, .T. ) ;
#262 = EDGE_CURVE ( 'NONE', #325, #522, #397, .T. ) ;
#263 = DIRECTION ( 'NONE',  ( -0.000000000000000000, -0.000000000000000000, 1.000000000000000000 ) ) ;
#264 = EDGE_CURVE ( 'NONE', #507, #175, #88, .T. ) ;
#265 = ORIENTED_EDGE ( 'NONE', *, *, #133, .F. ) ;
#266 = DIRECTION ( 'NONE',  ( 0.000000000000000000, 0.000000000000000000, -1.000000000000000000 ) ) ;
#267 = VECTOR ( 'NONE', #270, 1000.000000000000000 ) ;
#268 = ORIENTED_EDGE ( 'NONE', *, *, #387, .T. ) ;
#269 = DIRECTION ( 'NONE',  ( 0.000000000000000000, 0.000000000000000000, 1.000000000000000000 ) ) ;
#270 = DIRECTION ( 'NONE',  ( -0.000000000000000000, 1.000000000000000000, -0.000000000000000000 ) ) ;
#271 = COORDINATED_UNIVERSAL_TIME_OFFSET ( 8, 0, .AHEAD. ) ;
#272 = CARTESIAN_POINT ( 'NONE',  ( 6.800000000000002487, 2.000000000000000000, 1.800000000000000044 ) ) ;
#273 = COORDINATED_UNIVERSAL_TIME_OFFSET ( 8, 0, .AHEAD. ) ;
#274 = ORIENTED_EDGE ( 'NONE', *, *, #93, .F. ) ;
#275 = AXIS2_PLACEMENT_3D ( 'NONE', #508, #427, #6 ) ;
#276 = UNCERTAINTY_MEASURE_WITH_UNIT (LENGTH_MEASURE( 1.000000000000000082E-05 ), #140, 'distance_accuracy_value', 'NONE');
#277 = PLANE ( 'NONE',  #278 ) ;
#278 = AXIS2_PLACEMENT_3D ( 'NONE', #77, #332, #535 ) ;
#279 = VERTEX_POINT ( 'NONE', #415 ) ;
#280 = APPROVAL ( #153, 'UNSPECIFIED' ) ;
#281 = ADVANCED_FACE ( 'NONE', ( #34 ), #310, .T. ) ;
#282 = LOCAL_TIME ( 15, 18, 15.00000000000000000, #524 ) ;
#283 = CARTESIAN_POINT ( 'NONE',  ( -6.999999999999998224, 0.000000000000000000, 1.800000000000000044 ) ) ;
#284 = DIRECTION ( 'NONE',  ( -0.000000000000000000, 1.000000000000000000, -0.000000000000000000 ) ) ;
#285 = ORIENTED_EDGE ( 'NONE', *, *, #383, .T. ) ;
#286 = DIRECTION ( 'NONE',  ( 0.000000000000000000, 1.000000000000000000, 0.000000000000000000 ) ) ;
#287 = CARTESIAN_POINT ( 'NONE',  ( -6.999999999999998224, 1.800000000000000044, 1.800000000000000044 ) ) ;
#288 = ADVANCED_FACE ( 'NONE', ( #372 ), #139, .T. ) ;
#289 = SPHERICAL_SURFACE ( 'NONE', #119, 0.2000000000000000111 ) ;
#290 = LINE ( 'NONE', #463, #496 ) ;
#291 = DIRECTION ( 'NONE',  ( 0.000000000000000000, 0.000000000000000000, 1.000000000000000000 ) ) ;
#292 = CARTESIAN_POINT ( 'NONE',  ( -6.799999999999998934, 2.000000000000000000, 1.800000000000000044 ) ) ;
#293 = DIRECTION ( 'NONE',  ( 0.000000000000000000, 1.000000000000000000, -0.000000000000000000 ) ) ;
#294 = ORIENTED_EDGE ( 'NONE', *, *, #465, .F. ) ;
#295 = CARTESIAN_POINT ( 'NONE',  ( 0.000000000000000000, 1.800000000000000044, 1.800000000000000044 ) ) ;
#296 = ORIENTED_EDGE ( 'NONE', *, *, #528, .F. ) ;
#297 = VECTOR ( 'NONE', #538, 1000.000000000000000 ) ;
#298 = EDGE_CURVE ( 'NONE', #196, #325, #123, .T. ) ;
#299 = DIRECTION ( 'NONE',  ( 0.000000000000000000, 1.000000000000000000, 0.000000000000000000 ) ) ;
#300 = EDGE_LOOP ( 'NONE', ( #433, #478, #471 ) ) ;
#301 = VECTOR ( 'NONE', #388, 1000.000000000000000 ) ;
#302 =( NAMED_UNIT ( * ) SI_UNIT ( $, .STERADIAN. ) SOLID_ANGLE_UNIT ( ) );
#303 = ORIENTED_EDGE ( 'NONE', *, *, #439, .T. ) ;
#304 = EDGE_CURVE ( 'NONE', #217, #374, #492, .T. ) ;
#305 = VECTOR ( 'NONE', #141, 1000.000000000000000 ) ;
#306 = FACE_OUTER_BOUND ( 'NONE', #97, .T. ) ;
#307 = ORIENTED_EDGE ( 'NONE', *, *, #445, .T. ) ;
#308 = CARTESIAN_POINT ( 'NONE',  ( -6.799999999999998934, 1.800000000000000044, -1.800000000000000044 ) ) ;
#309 = VERTEX_POINT ( 'NONE', #169 ) ;
#310 = SPHERICAL_SURFACE ( 'NONE', #275, 0.2000000000000000111 ) ;
#311 = AXIS2_PLACEMENT_3D ( 'NONE', #223, #479, #98 ) ;
#312 = CALENDAR_DATE ( 2026, 22, 3 ) ;
#313 = DIRECTION ( 'NONE',  ( 1.000000000000000000, 0.000000000000000000, 0.000000000000000000 ) ) ;
#314 = PERSON_AND_ORGANIZATION_ROLE ( 'creator' ) ;
#315 = DIRECTION ( 'NONE',  ( 0.000000000000000000, -0.000000000000000000, 1.000000000000000000 ) ) ;
#316 = ORIENTED_EDGE ( 'NONE', *, *, #262, .T. ) ;
#317 = PERSON_AND_ORGANIZATION ( #113, #20 ) ;
#318 = APPROVAL_PERSON_ORGANIZATION ( #197, #280, #236 ) ;
#319 = ORIENTED_EDGE ( 'NONE', *, *, #133, .T. ) ;
#320 = DATE_TIME_ROLE ( 'creation_date' ) ;
#321 = CARTESIAN_POINT ( 'NONE',  ( -6.799999999999998934, 2.000000000000000000, -1.800000000000000044 ) ) ;
#322 = ADVANCED_FACE ( 'NONE', ( #455 ), #335, .T. ) ;
#323 = FACE_OUTER_BOUND ( 'NONE', #116, .T. ) ;
#324 = AXIS2_PLACEMENT_3D ( 'NONE', #240, #363, #500 ) ;
#325 = VERTEX_POINT ( 'NONE', #287 ) ;
#326 = PRODUCT_DEFINITION_FORMATION_WITH_SPECIFIED_SOURCE ( 'ANY', '', #344, .NOT_KNOWN. ) ;
#327 = FACE_OUTER_BOUND ( 'NONE', #59, .T. ) ;
#328 = CARTESIAN_POINT ( 'NONE',  ( 6.800000000000002487, 1.800000000000000044, 2.000000000000000000 ) ) ;
#329 = VERTEX_POINT ( 'NONE', #292 ) ;
#330 = DIRECTION ( 'NONE',  ( 1.000000000000000000, -0.000000000000000000, -0.000000000000000000 ) ) ;
#331 = APPROVAL ( #398, 'UNSPECIFIED' ) ;
#332 = DIRECTION ( 'NONE',  ( -1.000000000000000000, 0.000000000000000000, 0.000000000000000000 ) ) ;
#333 = LINE ( 'NONE', #227, #12 ) ;
#334 = AXIS2_PLACEMENT_3D ( 'NONE', #244, #531, #205 ) ;
#335 = SPHERICAL_SURFACE ( 'NONE', #220, 0.2000000000000000111 ) ;
#336 = ORIENTED_EDGE ( 'NONE', *, *, #465, .T. ) ;
#337 = DIRECTION ( 'NONE',  ( 0.000000000000000000, 0.000000000000000000, -1.000000000000000000 ) ) ;
#338 = ORIENTED_EDGE ( 'NONE', *, *, #192, .F. ) ;
#339 = CC_DESIGN_DATE_AND_TIME_ASSIGNMENT ( #437, #320, ( #380 ) ) ;
#340 = ORIENTED_EDGE ( 'NONE', *, *, #50, .T. ) ;
#341 = DIRECTION ( 'NONE',  ( 0.000000000000000000, -1.000000000000000000, 0.000000000000000000 ) ) ;
#342 = ADVANCED_FACE ( 'NONE', ( #536 ), #125, .T. ) ;
#343 = FACE_OUTER_BOUND ( 'NONE', #173, .T. ) ;
#344 = PRODUCT ( 'BAR4X14T2', 'BAR4X14T2', '', ( #70 ) ) ;
#345 = LOCAL_TIME ( 15, 18, 15.00000000000000000, #271 ) ;
#346 = DIRECTION ( 'NONE',  ( 0.000000000000000000, -0.000000000000000000, 1.000000000000000000 ) ) ;
#347 = ORIENTED_EDGE ( 'NONE', *, *, #400, .T. ) ;
#348 = CLOSED_SHELL ( 'NONE', ( #246, #171, #258, #485, #510, #495, #288, #149, #362, #529, #207, #442, #342, #436, #152, #322, #281, #464 ) ) ;
#349 = DIRECTION ( 'NONE',  ( -1.000000000000000000, 0.000000000000000000, 0.000000000000000000 ) ) ;
#350 = ORIENTED_EDGE ( 'NONE', *, *, #226, .T. ) ;
#351 = LINE ( 'NONE', #54, #371 ) ;
#352 = DIRECTION ( 'NONE',  ( -1.000000000000000000, 0.000000000000000000, 0.000000000000000000 ) ) ;
#353 = VECTOR ( 'NONE', #198, 1000.000000000000000 ) ;
#354 = CC_DESIGN_APPROVAL ( #64, ( #326 ) ) ;
#355 = PERSON_AND_ORGANIZATION_ROLE ( 'design_owner' ) ;
#356 = CARTESIAN_POINT ( 'NONE',  ( 6.800000000000001599, 1.800000000000000044, -1.800000000000000044 ) ) ;
#357 = EDGE_CURVE ( 'NONE', #130, #23, #7, .T. ) ;
#358 = LINE ( 'NONE', #143, #155 ) ;
#359 = DATE_AND_TIME ( #142, #282 ) ;
#360 = EDGE_CURVE ( 'NONE', #238, #206, #378, .T. ) ;
#361 = ORIENTED_EDGE ( 'NONE', *, *, #112, .T. ) ;
#362 = ADVANCED_FACE ( 'NONE', ( #165 ), #413, .T. ) ;
#363 = DIRECTION ( 'NONE',  ( -1.000000000000000000, 0.000000000000000000, 0.000000000000000000 ) ) ;
#364 = AXIS2_PLACEMENT_3D ( 'NONE', #356, #399, #19 ) ;
#365 = DIRECTION ( 'NONE',  ( 0.000000000000000000, 1.000000000000000000, -0.000000000000000000 ) ) ;
#366 = AXIS2_PLACEMENT_3D ( 'NONE', #43, #505, #373 ) ;
#367 = AXIS2_PLACEMENT_3D ( 'NONE', #530, #460, #243 ) ;
#368 = DIRECTION ( 'NONE',  ( 0.000000000000000000, 0.000000000000000000, 1.000000000000000000 ) ) ;
#369 = CARTESIAN_POINT ( 'NONE',  ( 7.000000000000001776, 1.800000000000000044, 2.000000000000000000 ) ) ;
#370 = VERTEX_POINT ( 'NONE', #328 ) ;
#371 = VECTOR ( 'NONE', #89, 1000.000000000000000 ) ;
#372 = FACE_OUTER_BOUND ( 'NONE', #32, .T. ) ;
#373 = DIRECTION ( 'NONE',  ( 1.000000000000000000, 0.000000000000000000, 0.000000000000000000 ) ) ;
#374 = VERTEX_POINT ( 'NONE', #461 ) ;
#375 = LINE ( 'NONE', #412, #297 ) ;
#376 = CARTESIAN_POINT ( 'NONE',  ( -6.799999999999998934, 2.000000000000000000, 1.800000000000000044 ) ) ;
#377 = VECTOR ( 'NONE', #521, 1000.000000000000000 ) ;
#378 = LINE ( 'NONE', #76, #414 ) ;
#379 = CARTESIAN_POINT ( 'NONE',  ( -6.799999999999998934, 1.800000000000000044, 1.800000000000000044 ) ) ;
#380 = PRODUCT_DEFINITION ( 'UNKNOWN', '', #326, #440 ) ;
#381 = AXIS2_PLACEMENT_3D ( 'NONE', #14, #477, #221 ) ;
#382 = EDGE_LOOP ( 'NONE', ( #303, #527, #347, #340 ) ) ;
#383 = EDGE_CURVE ( 'NONE', #175, #217, #540, .T. ) ;
#384 = CARTESIAN_POINT ( 'NONE',  ( -6.999999999999998224, 2.000000000000000000, -1.800000000000000044 ) ) ;
#385 = ORIENTED_EDGE ( 'NONE', *, *, #264, .T. ) ;
#386 = EDGE_CURVE ( 'NONE', #370, #522, #31, .T. ) ;
#387 = EDGE_CURVE ( 'NONE', #370, #23, #391, .T. ) ;
#388 = DIRECTION ( 'NONE',  ( -0.000000000000000000, 1.000000000000000000, -0.000000000000000000 ) ) ;
#389 = CARTESIAN_POINT ( 'NONE',  ( 0.000000000000000000, 2.000000000000000000, 0.000000000000000000 ) ) ;
#390 =( GEOMETRIC_REPRESENTATION_CONTEXT ( 3 ) GLOBAL_UNCERTAINTY_ASSIGNED_CONTEXT ( ( #276 ) ) GLOBAL_UNIT_ASSIGNED_CONTEXT ( ( #140, #257, #302 ) ) REPRESENTATION_CONTEXT ( 'NONE', 'WORKASPACE' ) );
#391 = CIRCLE ( 'NONE', #469, 0.2000000000000000944 ) ;
#392 = FACE_OUTER_BOUND ( 'NONE', #424, .T. ) ;
#393 = ORIENTED_EDGE ( 'NONE', *, *, #534, .F. ) ;
#394 = CYLINDRICAL_SURFACE ( 'NONE', #111, 0.2000000000000000944 ) ;
#395 = DIRECTION ( 'NONE',  ( 1.000000000000000000, -0.000000000000000000, 0.000000000000000000 ) ) ;
#396 = AXIS2_PLACEMENT_3D ( 'NONE', #127, #470, #84 ) ;
#397 = CIRCLE ( 'NONE', #254, 0.2000000000000000944 ) ;
#398 = APPROVAL_STATUS ( 'not_yet_approved' ) ;
#399 = DIRECTION ( 'NONE',  ( 1.000000000000000000, -4.336808689942016158E-15, 0.000000000000000000 ) ) ;
#400 = EDGE_CURVE ( 'NONE', #507, #130, #250, .T. ) ;
#401 = AXIS2_PLACEMENT_3D ( 'NONE', #419, #199, #83 ) ;
#402 = SECURITY_CLASSIFICATION ( '', '', #481 ) ;
#403 = LINE ( 'NONE', #482, #267 ) ;
#404 = EDGE_CURVE ( 'NONE', #370, #130, #144, .T. ) ;
#405 = VECTOR ( 'NONE', #395, 1000.000000000000000 ) ;
#406 = EDGE_LOOP ( 'NONE', ( #2, #316, #532 ) ) ;
#407 = APPLICATION_PROTOCOL_DEFINITION ( 'international standard', 'config_control_design', 1994, #108 ) ;
#408 = LINE ( 'NONE', #491, #353 ) ;
#409 = DATE_AND_TIME ( #195, #189 ) ;
#410 = CARTESIAN_POINT ( 'NONE',  ( 6.800000000000001599, 1.800000000000000044, -2.000000000000000000 ) ) ;
#411 = ORIENTED_EDGE ( 'NONE', *, *, #360, .F. ) ;
#412 = CARTESIAN_POINT ( 'NONE',  ( -6.799999999999998934, 2.000000000000000000, 2.000000000000000000 ) ) ;
#413 = CYLINDRICAL_SURFACE ( 'NONE', #457, 0.2000000000000000944 ) ;
#414 = VECTOR ( 'NONE', #498, 1000.000000000000000 ) ;
#415 = CARTESIAN_POINT ( 'NONE',  ( -6.999999999999998224, 0.000000000000000000, -1.800000000000000044 ) ) ;
#416 = CYLINDRICAL_SURFACE ( 'NONE', #444, 0.1999999999999996503 ) ;
#417 = ORIENTED_EDGE ( 'NONE', *, *, #502, .F. ) ;
#418 = CIRCLE ( 'NONE', #82, 0.2000000000000000944 ) ;
#419 = CARTESIAN_POINT ( 'NONE',  ( -6.799999999999998934, 0.000000000000000000, -1.800000000000000044 ) ) ;
#420 = FACE_OUTER_BOUND ( 'NONE', #99, .T. ) ;
#421 = AXIS2_PLACEMENT_3D ( 'NONE', #21, #193, #487 ) ;
#422 = DIRECTION ( 'NONE',  ( 0.000000000000000000, -1.000000000000000000, 0.000000000000000000 ) ) ;
#423 = DIRECTION ( 'NONE',  ( -1.000000000000000000, -0.000000000000000000, -0.000000000000000000 ) ) ;
#424 = EDGE_LOOP ( 'NONE', ( #350, #166, #4 ) ) ;
#425 = CARTESIAN_POINT ( 'NONE',  ( 0.000000000000000000, 0.000000000000000000, 0.000000000000000000 ) ) ;
#426 = ORIENTED_EDGE ( 'NONE', *, *, #112, .F. ) ;
#427 = DIRECTION ( 'NONE',  ( -0.000000000000000000, 1.000000000000000000, 0.000000000000000000 ) ) ;
#428 = VECTOR ( 'NONE', #85, 1000.000000000000000 ) ;
#429 = ORIENTED_EDGE ( 'NONE', *, *, #484, .F. ) ;
#430 = DIRECTION ( 'NONE',  ( -0.000000000000000000, -1.000000000000000000, -0.000000000000000000 ) ) ;
#431 = ORIENTED_EDGE ( 'NONE', *, *, #304, .F. ) ;
#432 = PLANE ( 'NONE',  #453 ) ;
#433 = ORIENTED_EDGE ( 'NONE', *, *, #404, .T. ) ;
#434 = CARTESIAN_POINT ( 'NONE',  ( -6.799999999999998934, 1.800000000000000044, -1.800000000000000044 ) ) ;
#435 = LINE ( 'NONE', #61, #377 ) ;
#436 = ADVANCED_FACE ( 'NONE', ( #161 ), #416, .T. ) ;
#437 = DATE_AND_TIME ( #312, #48 ) ;
#438 = CARTESIAN_POINT ( 'NONE',  ( 7.000000000000001776, 1.800000000000000044, 1.800000000000000044 ) ) ;
#439 = EDGE_CURVE ( 'NONE', #185, #374, #290, .T. ) ;
#440 = DESIGN_CONTEXT ( 'detailed design', #459, 'design' ) ;
#441 = ORIENTED_EDGE ( 'NONE', *, *, #10, .F. ) ;
#442 = ADVANCED_FACE ( 'NONE', ( #420 ), #41, .T. ) ;
#443 = EDGE_CURVE ( 'NONE', #325, #309, #333, .T. ) ;
#444 = AXIS2_PLACEMENT_3D ( 'NONE', #80, #35, #501 ) ;
#445 = EDGE_CURVE ( 'NONE', #259, #177, #351, .T. ) ;
#446 = PERSON_AND_ORGANIZATION ( #113, #20 ) ;
#447 = ORIENTED_EDGE ( 'NONE', *, *, #192, .T. ) ;
#448 = APPROVAL_DATE_TIME ( #409, #64 ) ;
#449 = CARTESIAN_POINT ( 'NONE',  ( 7.000000000000001776, 2.000000000000000000, 1.800000000000000044 ) ) ;
#450 = PERSON_AND_ORGANIZATION_ROLE ( 'classification_officer' ) ;
#451 = CARTESIAN_POINT ( 'NONE',  ( -6.999999999999998224, 2.000000000000000000, -2.000000000000000000 ) ) ;
#452 = CIRCLE ( 'NONE', #213, 0.2000000000000000944 ) ;
#453 = AXIS2_PLACEMENT_3D ( 'NONE', #425, #299, #49 ) ;
#454 = FACE_OUTER_BOUND ( 'NONE', #134, .T. ) ;
#455 = FACE_OUTER_BOUND ( 'NONE', #406, .T. ) ;
#456 = ORIENTED_EDGE ( 'NONE', *, *, #226, .F. ) ;
#457 = AXIS2_PLACEMENT_3D ( 'NONE', #45, #422, #129 ) ;
#458 = EDGE_CURVE ( 'NONE', #177, #309, #73, .T. ) ;
#459 = APPLICATION_CONTEXT ( 'configuration controlled 3d designs of mechanical parts and assemblies' ) ;
#460 = DIRECTION ( 'NONE',  ( -0.000000000000000000, 1.000000000000000000, 0.000000000000000000 ) ) ;
#461 = CARTESIAN_POINT ( 'NONE',  ( 7.000000000000001776, 0.000000000000000000, -1.800000000000000044 ) ) ;
#462 = CARTESIAN_POINT ( 'NONE',  ( 6.800000000000002487, 1.800000000000000044, -1.800000000000000044 ) ) ;
#463 = CARTESIAN_POINT ( 'NONE',  ( 7.000000000000001776, 0.000000000000000000, -2.000000000000000000 ) ) ;
#464 = ADVANCED_FACE ( 'NONE', ( #343 ), #394, .T. ) ;
#465 = EDGE_CURVE ( 'NONE', #515, #196, #418, .T. ) ;
#466 = AXIS2_PLACEMENT_3D ( 'NONE', #376, #539, #168 ) ;
#467 = CARTESIAN_POINT ( 'NONE',  ( -6.799999999999998934, 1.800000000000000044, 1.800000000000000044 ) ) ;
#468 = CARTESIAN_POINT ( 'NONE',  ( -6.799999999999998934, 1.800000000000000044, 0.000000000000000000 ) ) ;
#469 = AXIS2_PLACEMENT_3D ( 'NONE', #1, #202, #78 ) ;
#470 = DIRECTION ( 'NONE',  ( -0.000000000000000000, -1.000000000000000000, -0.000000000000000000 ) ) ;
#471 = ORIENTED_EDGE ( 'NONE', *, *, #387, .F. ) ;
#472 = CARTESIAN_POINT ( 'NONE',  ( -6.799999999999998934, 1.800000000000000044, 2.000000000000000000 ) ) ;
#473 = ORIENTED_EDGE ( 'NONE', *, *, #210, .F. ) ;
#474 = LINE ( 'NONE', #92, #301 ) ;
#475 = ORIENTED_EDGE ( 'NONE', *, *, #304, .T. ) ;
#476 = CIRCLE ( 'NONE', #194, 0.1999999999999996503 ) ;
#477 = DIRECTION ( 'NONE',  ( -0.000000000000000000, -1.000000000000000000, -0.000000000000000000 ) ) ;
#478 = ORIENTED_EDGE ( 'NONE', *, *, #357, .T. ) ;
#479 = DIRECTION ( 'NONE',  ( 0.000000000000000000, 0.000000000000000000, -1.000000000000000000 ) ) ;
#480 = CARTESIAN_POINT ( 'NONE',  ( 7.000000000000001776, 1.800000000000000044, -2.000000000000000000 ) ) ;
#481 = SECURITY_CLASSIFICATION_LEVEL ( 'unclassified' ) ;
#482 = CARTESIAN_POINT ( 'NONE',  ( 6.800000000000001599, 2.000000000000000000, 2.000000000000000000 ) ) ;
#483 = APPROVAL_DATE_TIME ( #146, #331 ) ;
#484 = EDGE_CURVE ( 'NONE', #185, #138, #135, .T. ) ;
#485 = ADVANCED_FACE ( 'NONE', ( #52 ), #11, .F. ) ;
#486 = CARTESIAN_POINT ( 'NONE',  ( 7.000000000000001776, 2.000000000000000000, 1.800000000000000044 ) ) ;
#487 = DIRECTION ( 'NONE',  ( 0.000000000000000000, 0.000000000000000000, -1.000000000000000000 ) ) ;
#488 = CC_DESIGN_APPROVAL ( #331, ( #402 ) ) ;
#489 = APPROVAL_ROLE ( '' ) ;
#490 = APPROVAL_STATUS ( 'not_yet_approved' ) ;
#491 = CARTESIAN_POINT ( 'NONE',  ( -6.999999999999998224, 0.000000000000000000, -2.000000000000000000 ) ) ;
#492 = CIRCLE ( 'NONE', #396, 0.2000000000000000944 ) ;
#493 = CARTESIAN_POINT ( 'NONE',  ( -6.999999999999998224, 0.000000000000000000, -2.000000000000000000 ) ) ;
#494 = ORIENTED_EDGE ( 'NONE', *, *, #400, .F. ) ;
#495 = ADVANCED_FACE ( 'NONE', ( #218 ), #432, .F. ) ;
#496 = VECTOR ( 'NONE', #248, 1000.000000000000000 ) ;
#497 = DIRECTION ( 'NONE',  ( 0.000000000000000000, 0.000000000000000000, -1.000000000000000000 ) ) ;
#498 = DIRECTION ( 'NONE',  ( -0.000000000000000000, 1.000000000000000000, -0.000000000000000000 ) ) ;
#499 = EDGE_LOOP ( 'NONE', ( #132, #101, #509, #274 ) ) ;
#500 = DIRECTION ( 'NONE',  ( 0.000000000000000000, 0.000000000000000000, 1.000000000000000000 ) ) ;
#501 = DIRECTION ( 'NONE',  ( 1.000000000000000000, 0.000000000000000000, 0.000000000000000000 ) ) ;
#502 = EDGE_CURVE ( 'NONE', #23, #259, #60, .T. ) ;
#503 = FACE_OUTER_BOUND ( 'NONE', #36, .T. ) ;
#504 = DIRECTION ( 'NONE',  ( 0.000000000000000000, 0.000000000000000000, -1.000000000000000000 ) ) ;
#505 = DIRECTION ( 'NONE',  ( 0.000000000000000000, 0.000000000000000000, 1.000000000000000000 ) ) ;
#506 = ORIENTED_EDGE ( 'NONE', *, *, #150, .F. ) ;
#507 = VERTEX_POINT ( 'NONE', #183 ) ;
#508 = CARTESIAN_POINT ( 'NONE',  ( 6.800000000000002487, 1.800000000000000044, 1.800000000000000044 ) ) ;
#509 = ORIENTED_EDGE ( 'NONE', *, *, #33, .F. ) ;
#510 = ADVANCED_FACE ( 'NONE', ( #306 ), #3, .T. ) ;
#511 = CARTESIAN_POINT ( 'NONE',  ( -6.799999999999998934, 0.000000000000000000, 1.800000000000000044 ) ) ;
#512 = CC_DESIGN_APPROVAL ( #280, ( #380 ) ) ;
#513 = ORIENTED_EDGE ( 'NONE', *, *, #50, .F. ) ;
#514 = DIRECTION ( 'NONE',  ( -1.000000000000000000, 0.000000000000000000, 0.000000000000000000 ) ) ;
#515 = VERTEX_POINT ( 'NONE', #100 ) ;
#516 = LINE ( 'NONE', #486, #305 ) ;
#517 = CALENDAR_DATE ( 2026, 22, 3 ) ;
#518 = CARTESIAN_POINT ( 'NONE',  ( -6.799999999999998934, 1.800000000000000044, 1.800000000000000044 ) ) ;
#519 = APPROVAL_ROLE ( '' ) ;
#520 = PERSON_AND_ORGANIZATION_ROLE ( 'creator' ) ;
#521 = DIRECTION ( 'NONE',  ( -0.000000000000000000, 0.000000000000000000, 1.000000000000000000 ) ) ;
#522 = VERTEX_POINT ( 'NONE', #472 ) ;
#523 = APPROVAL_PERSON_ORGANIZATION ( #317, #64, #489 ) ;
#524 = COORDINATED_UNIVERSAL_TIME_OFFSET ( 8, 0, .AHEAD. ) ;
#525 = PLANE ( 'NONE',  #184 ) ;
#526 = PLANE ( 'NONE',  #180 ) ;
#527 = ORIENTED_EDGE ( 'NONE', *, *, #528, .T. ) ;
#528 = EDGE_CURVE ( 'NONE', #374, #507, #474, .T. ) ;
#529 = ADVANCED_FACE ( 'NONE', ( #392 ), #131, .T. ) ;
#530 = CARTESIAN_POINT ( 'NONE',  ( 6.800000000000002487, 1.800000000000000044, -1.800000000000000044 ) ) ;
#531 = DIRECTION ( 'NONE',  ( 0.000000000000000000, 1.000000000000000000, 0.000000000000000000 ) ) ;
#532 = ORIENTED_EDGE ( 'NONE', *, *, #191, .F. ) ;
#533 = APPROVAL_PERSON_ORGANIZATION ( #148, #331, #519 ) ;
#534 = EDGE_CURVE ( 'NONE', #309, #279, #8, .T. ) ;
#535 = DIRECTION ( 'NONE',  ( 0.000000000000000000, 0.000000000000000000, 1.000000000000000000 ) ) ;
#536 = FACE_OUTER_BOUND ( 'NONE', #499, .T. ) ;
#537 = AXIS2_PLACEMENT_3D ( 'NONE', #518, #315, #103 ) ;
#538 = DIRECTION ( 'NONE',  ( 0.000000000000000000, -1.000000000000000000, 0.000000000000000000 ) ) ;
#539 = DIRECTION ( 'NONE',  ( 0.000000000000000000, -1.000000000000000000, 0.000000000000000000 ) ) ;
#540 = LINE ( 'NONE', #212, #428 ) ;
#541 = AXIS2_PLACEMENT_3D ( 'NONE', #434, #263, #349 ) ;
ENDSEC;
END-ISO-10303-21;
