ISO-10303-21;
HEADER;
FILE_DESCRIPTION (( 'STEP AP214' ),
    '1' );
FILE_NAME ('BAR4X12T1.step',
    '2026-03-22T07:22:26',
    ( '' ),
    ( '' ),
    'SwSTEP 2.0',
    'SolidWorks 2025',
    '' );
FILE_SCHEMA (( 'AUTOMOTIVE_DESIGN' ));
ENDSEC;

DATA;
#1 = ORIENTED_EDGE ( 'NONE', *, *, #189, .T. ) ;
#2 = LINE ( 'NONE', #234, #199 ) ;
#3 = CARTESIAN_POINT ( 'NONE',  ( -5.799999999999998934, 0.8000000000000000444, 2.000000000000000000 ) ) ;
#4 = AXIS2_PLACEMENT_3D ( 'NONE', #419, #313, #75 ) ;
#5 = AXIS2_PLACEMENT_3D ( 'NONE', #333, #412, #143 ) ;
#6 = DIRECTION ( 'NONE',  ( 0.000000000000000000, -1.000000000000000000, 0.000000000000000000 ) ) ;
#7 = EDGE_CURVE ( 'NONE', #34, #228, #310, .T. ) ;
#8 = ORIENTED_EDGE ( 'NONE', *, *, #151, .T. ) ;
#9 = DIRECTION ( 'NONE',  ( 0.000000000000000000, 1.000000000000000000, 0.000000000000000000 ) ) ;
#10 = CARTESIAN_POINT ( 'NONE',  ( -5.800000000000000711, 0.8000000000000000444, -1.800000000000000044 ) ) ;
#11 = EDGE_CURVE ( 'NONE', #14, #341, #372, .T. ) ;
#12 = SPHERICAL_SURFACE ( 'NONE', #115, 0.2000000000000000111 ) ;
#13 = CARTESIAN_POINT ( 'NONE',  ( 5.800000000000002487, 1.000000000000000000, -2.000000000000000000 ) ) ;
#14 = VERTEX_POINT ( 'NONE', #277 ) ;
#15 = ADVANCED_BREP_SHAPE_REPRESENTATION ( 'BAR4X12T1', ( #198, #429 ), #148 ) ;
#16 =( LENGTH_UNIT ( ) NAMED_UNIT ( * ) SI_UNIT ( .MILLI., .METRE. ) );
#17 = APPLICATION_CONTEXT ( 'automotive_design' ) ;
#18 = DIRECTION ( 'NONE',  ( -2.168404344971008868E-16, -0.000000000000000000, -1.000000000000000000 ) ) ;
#19 = CARTESIAN_POINT ( 'NONE',  ( 5.800000000000001599, 0.8000000000000000444, 2.000000000000000000 ) ) ;
#20 = ORIENTED_EDGE ( 'NONE', *, *, #227, .T. ) ;
#21 = DIRECTION ( 'NONE',  ( 0.000000000000000000, -0.000000000000000000, 1.000000000000000000 ) ) ;
#22 = CIRCLE ( 'NONE', #489, 0.1999999999999999833 ) ;
#23 = DIRECTION ( 'NONE',  ( -1.000000000000000000, 0.000000000000000000, -0.000000000000000000 ) ) ;
#24 = ORIENTED_EDGE ( 'NONE', *, *, #98, .T. ) ;
#25 = CARTESIAN_POINT ( 'NONE',  ( -5.799999999999998934, 1.000000000000000000, 2.000000000000000000 ) ) ;
#26 = EDGE_CURVE ( 'NONE', #414, #297, #195, .T. ) ;
#27 = VERTEX_POINT ( 'NONE', #3 ) ;
#28 = PLANE ( 'NONE',  #223 ) ;
#29 = CIRCLE ( 'NONE', #397, 0.1999999999999996503 ) ;
#30 = EDGE_LOOP ( 'NONE', ( #112, #360, #97, #334 ) ) ;
#31 = DIRECTION ( 'NONE',  ( 0.000000000000000000, 0.000000000000000000, 1.000000000000000000 ) ) ;
#32 = ORIENTED_EDGE ( 'NONE', *, *, #46, .T. ) ;
#33 = FACE_OUTER_BOUND ( 'NONE', #444, .T. ) ;
#34 = VERTEX_POINT ( 'NONE', #78 ) ;
#35 = DIRECTION ( 'NONE',  ( -1.000000000000000000, 0.000000000000000000, 0.000000000000000000 ) ) ;
#36 = CARTESIAN_POINT ( 'NONE',  ( -5.999999999999998224, 1.000000000000000000, 1.800000000000000044 ) ) ;
#37 = CARTESIAN_POINT ( 'NONE',  ( -5.999999999999999112, 0.000000000000000000, -1.800000000000000044 ) ) ;
#38 = LINE ( 'NONE', #273, #471 ) ;
#39 = CARTESIAN_POINT ( 'NONE',  ( 6.000000000000000888, 0.8000000000000000444, 2.000000000000000000 ) ) ;
#40 = DIRECTION ( 'NONE',  ( -1.000000000000000000, 0.000000000000000000, 0.000000000000000000 ) ) ;
#41 = CARTESIAN_POINT ( 'NONE',  ( -5.999999999999999112, 0.8000000000000000444, -2.000000000000000000 ) ) ;
#42 = CARTESIAN_POINT ( 'NONE',  ( 5.800000000000002487, 0.000000000000000000, -1.800000000000000044 ) ) ;
#43 = DIRECTION ( 'NONE',  ( 2.168404344971008868E-16, -0.000000000000000000, 1.000000000000000000 ) ) ;
#44 = ORIENTED_EDGE ( 'NONE', *, *, #26, .T. ) ;
#45 = CIRCLE ( 'NONE', #60, 0.2000000000000000944 ) ;
#46 = EDGE_CURVE ( 'NONE', #375, #403, #279, .T. ) ;
#47 = DIRECTION ( 'NONE',  ( 0.000000000000000000, 0.000000000000000000, 1.000000000000000000 ) ) ;
#48 = ADVANCED_FACE ( 'NONE', ( #390 ), #462, .T. ) ;
#49 = FACE_OUTER_BOUND ( 'NONE', #141, .T. ) ;
#50 = EDGE_LOOP ( 'NONE', ( #219, #1, #183, #449 ) ) ;
#51 = AXIS2_PLACEMENT_3D ( 'NONE', #370, #182, #478 ) ;
#52 = SURFACE_STYLE_FILL_AREA ( #87 ) ;
#53 = EDGE_LOOP ( 'NONE', ( #84, #433, #451, #362 ) ) ;
#54 = AXIS2_PLACEMENT_3D ( 'NONE', #324, #469, #439 ) ;
#55 = CARTESIAN_POINT ( 'NONE',  ( 5.800000000000001599, 0.8000000000000000444, -1.800000000000000044 ) ) ;
#56 = CARTESIAN_POINT ( 'NONE',  ( 0.000000000000000000, 0.000000000000000000, 0.000000000000000000 ) ) ;
#57 = EDGE_CURVE ( 'NONE', #228, #14, #38, .T. ) ;
#58 = LINE ( 'NONE', #304, #358 ) ;
#59 = ADVANCED_FACE ( 'NONE', ( #428 ), #355, .T. ) ;
#60 = AXIS2_PLACEMENT_3D ( 'NONE', #153, #269, #491 ) ;
#61 = DIRECTION ( 'NONE',  ( 0.000000000000000000, 0.000000000000000000, 1.000000000000000000 ) ) ;
#62 = COLOUR_RGB ( '',0.8980392156862745390, 0.9215686274509803377, 0.9294117647058823817 ) ;
#63 = FACE_OUTER_BOUND ( 'NONE', #50, .T. ) ;
#64 = ORIENTED_EDGE ( 'NONE', *, *, #420, .T. ) ;
#65 = CARTESIAN_POINT ( 'NONE',  ( 5.800000000000001599, 0.8000000000000000444, 1.800000000000000044 ) ) ;
#66 = CIRCLE ( 'NONE', #351, 0.2000000000000000944 ) ;
#67 = AXIS2_PLACEMENT_3D ( 'NONE', #366, #367, #263 ) ;
#68 = ORIENTED_EDGE ( 'NONE', *, *, #132, .T. ) ;
#69 = FACE_OUTER_BOUND ( 'NONE', #213, .T. ) ;
#70 = ORIENTED_EDGE ( 'NONE', *, *, #487, .T. ) ;
#71 = CIRCLE ( 'NONE', #139, 0.2000000000000000944 ) ;
#72 = SPHERICAL_SURFACE ( 'NONE', #280, 0.2000000000000000111 ) ;
#73 = EDGE_LOOP ( 'NONE', ( #20, #44, #70, #68 ) ) ;
#74 = DIRECTION ( 'NONE',  ( -0.000000000000000000, -0.000000000000000000, -1.000000000000000000 ) ) ;
#75 = DIRECTION ( 'NONE',  ( 1.000000000000000000, 0.000000000000000000, 0.000000000000000000 ) ) ;
#76 = VECTOR ( 'NONE', #376, 1000.000000000000000 ) ;
#77 = CARTESIAN_POINT ( 'NONE',  ( -5.799999999999999822, 1.000000000000000000, 2.000000000000000000 ) ) ;
#78 = CARTESIAN_POINT ( 'NONE',  ( 5.800000000000002487, 0.8000000000000000444, -2.000000000000000000 ) ) ;
#79 = LINE ( 'NONE', #41, #327 ) ;
#80 = DIRECTION ( 'NONE',  ( -0.000000000000000000, 1.000000000000000000, -0.000000000000000000 ) ) ;
#81 = FACE_OUTER_BOUND ( 'NONE', #230, .T. ) ;
#82 = ADVANCED_FACE ( 'NONE', ( #152 ), #237, .T. ) ;
#83 = DIRECTION ( 'NONE',  ( -0.000000000000000000, -0.000000000000000000, 1.000000000000000000 ) ) ;
#84 = ORIENTED_EDGE ( 'NONE', *, *, #7, .F. ) ;
#85 = EDGE_CURVE ( 'NONE', #375, #297, #222, .T. ) ;
#86 = LINE ( 'NONE', #245, #291 ) ;
#87 = FILL_AREA_STYLE ('',( #320 ) ) ;
#88 = ORIENTED_EDGE ( 'NONE', *, *, #441, .F. ) ;
#89 = CLOSED_SHELL ( 'NONE', ( #247, #244, #231, #201, #365, #145, #484, #262, #120, #416, #106, #377, #149, #319, #82, #191, #48, #59 ) ) ;
#90 = AXIS2_PLACEMENT_3D ( 'NONE', #176, #99, #340 ) ;
#91 = APPLICATION_CONTEXT ( 'automotive_design' ) ;
#92 = ORIENTED_EDGE ( 'NONE', *, *, #151, .F. ) ;
#93 = DIRECTION ( 'NONE',  ( -0.000000000000000000, -1.000000000000000000, -0.000000000000000000 ) ) ;
#94 = EDGE_CURVE ( 'NONE', #14, #188, #66, .T. ) ;
#95 = DIRECTION ( 'NONE',  ( 0.000000000000000000, -1.000000000000000000, 0.000000000000000000 ) ) ;
#96 = DIRECTION ( 'NONE',  ( -0.000000000000000000, -0.000000000000000000, 1.000000000000000000 ) ) ;
#97 = ORIENTED_EDGE ( 'NONE', *, *, #238, .T. ) ;
#98 = EDGE_CURVE ( 'NONE', #211, #407, #71, .T. ) ;
#99 = DIRECTION ( 'NONE',  ( -1.000000000000000000, -0.000000000000000000, -0.000000000000000000 ) ) ;
#100 = EDGE_LOOP ( 'NONE', ( #305, #164, #168, #386 ) ) ;
#101 = CARTESIAN_POINT ( 'NONE',  ( -5.799999999999998934, 0.000000000000000000, 2.000000000000000000 ) ) ;
#102 = ORIENTED_EDGE ( 'NONE', *, *, #329, .T. ) ;
#103 = CARTESIAN_POINT ( 'NONE',  ( -5.999999999999998224, 0.8000000000000000444, 2.000000000000000000 ) ) ;
#104 = AXIS2_PLACEMENT_3D ( 'NONE', #154, #350, #425 ) ;
#105 = VERTEX_POINT ( 'NONE', #384 ) ;
#106 = ADVANCED_FACE ( 'NONE', ( #353 ), #12, .T. ) ;
#107 = FACE_OUTER_BOUND ( 'NONE', #240, .T. ) ;
#108 = ORIENTED_EDGE ( 'NONE', *, *, #85, .F. ) ;
#109 = CARTESIAN_POINT ( 'NONE',  ( 6.000000000000000888, 0.8000000000000000444, -1.800000000000000044 ) ) ;
#110 = CARTESIAN_POINT ( 'NONE',  ( 5.800000000000001599, 1.000000000000000000, 1.800000000000000044 ) ) ;
#111 = DIRECTION ( 'NONE',  ( 0.000000000000000000, 1.000000000000000000, 0.000000000000000000 ) ) ;
#112 = ORIENTED_EDGE ( 'NONE', *, *, #404, .T. ) ;
#113 = AXIS2_PLACEMENT_3D ( 'NONE', #140, #96, #298 ) ;
#114 = FACE_OUTER_BOUND ( 'NONE', #246, .T. ) ;
#115 = AXIS2_PLACEMENT_3D ( 'NONE', #55, #398, #430 ) ;
#116 = ORIENTED_EDGE ( 'NONE', *, *, #11, .T. ) ;
#117 = CARTESIAN_POINT ( 'NONE',  ( -5.999999999999998224, 0.000000000000000000, 1.800000000000000044 ) ) ;
#118 = ORIENTED_EDGE ( 'NONE', *, *, #132, .F. ) ;
#119 = EDGE_CURVE ( 'NONE', #326, #177, #465, .T. ) ;
#120 = ADVANCED_FACE ( 'NONE', ( #173 ), #437, .T. ) ;
#121 = DIRECTION ( 'NONE',  ( -1.000000000000000000, 0.000000000000000000, 0.000000000000000000 ) ) ;
#122 =( LENGTH_UNIT ( ) NAMED_UNIT ( * ) SI_UNIT ( .MILLI., .METRE. ) );
#123 = CIRCLE ( 'NONE', #131, 0.2000000000000000944 ) ;
#124 = APPLICATION_PROTOCOL_DEFINITION ( 'draft international standard', 'automotive_design', 1998, #17 ) ;
#125 = CARTESIAN_POINT ( 'NONE',  ( -5.799999999999999822, 0.000000000000000000, -1.800000000000000044 ) ) ;
#126 = FACE_OUTER_BOUND ( 'NONE', #268, .T. ) ;
#127 = EDGE_LOOP ( 'NONE', ( #102, #179, #257 ) ) ;
#128 = AXIS2_PLACEMENT_3D ( 'NONE', #316, #202, #458 ) ;
#129 = DIRECTION ( 'NONE',  ( 0.000000000000000000, 0.000000000000000000, 1.000000000000000000 ) ) ;
#130 = ORIENTED_EDGE ( 'NONE', *, *, #467, .F. ) ;
#131 = AXIS2_PLACEMENT_3D ( 'NONE', #190, #418, #307 ) ;
#132 = EDGE_CURVE ( 'NONE', #341, #409, #86, .T. ) ;
#133 = DIRECTION ( 'NONE',  ( 0.000000000000000000, 0.000000000000000000, 1.000000000000000000 ) ) ;
#134 = ORIENTED_EDGE ( 'NONE', *, *, #487, .F. ) ;
#135 = CARTESIAN_POINT ( 'NONE',  ( 5.800000000000001599, 0.8000000000000000444, 0.000000000000000000 ) ) ;
#136 = EDGE_LOOP ( 'NONE', ( #368, #483, #92, #466 ) ) ;
#137 = DIRECTION ( 'NONE',  ( 0.000000000000000000, -1.000000000000000000, 0.000000000000000000 ) ) ;
#138 = ORIENTED_EDGE ( 'NONE', *, *, #391, .F. ) ;
#139 = AXIS2_PLACEMENT_3D ( 'NONE', #42, #197, #423 ) ;
#140 = CARTESIAN_POINT ( 'NONE',  ( 5.800000000000001599, 0.8000000000000000444, -1.800000000000000044 ) ) ;
#141 = EDGE_LOOP ( 'NONE', ( #473, #64, #205, #302, #417, #24, #431, #331 ) ) ;
#142 = PRESENTATION_LAYER_ASSIGNMENT (  '', '', ( #299 ) ) ;
#143 = DIRECTION ( 'NONE',  ( 0.000000000000000000, 0.000000000000000000, -1.000000000000000000 ) ) ;
#144 = ORIENTED_EDGE ( 'NONE', *, *, #404, .F. ) ;
#145 = ADVANCED_FACE ( 'NONE', ( #49 ), #393, .F. ) ;
#146 = CARTESIAN_POINT ( 'NONE',  ( 5.800000000000002487, 0.000000000000000000, -2.000000000000000000 ) ) ;
#147 = ORIENTED_EDGE ( 'NONE', *, *, #457, .F. ) ;
#148 =( GEOMETRIC_REPRESENTATION_CONTEXT ( 3 ) GLOBAL_UNCERTAINTY_ASSIGNED_CONTEXT ( ( #210 ) ) GLOBAL_UNIT_ASSIGNED_CONTEXT ( ( #122, #434, #321 ) ) REPRESENTATION_CONTEXT ( 'NONE', 'WORKASPACE' ) );
#149 = ADVANCED_FACE ( 'NONE', ( #170 ), #204, .T. ) ;
#150 = DIRECTION ( 'NONE',  ( -1.000000000000000000, -0.000000000000000000, -0.000000000000000000 ) ) ;
#151 = EDGE_CURVE ( 'NONE', #171, #105, #160, .T. ) ;
#152 = FACE_OUTER_BOUND ( 'NONE', #136, .T. ) ;
#153 = CARTESIAN_POINT ( 'NONE',  ( 5.800000000000001599, 0.000000000000000000, 1.800000000000000044 ) ) ;
#154 = CARTESIAN_POINT ( 'NONE',  ( 5.800000000000002487, 0.8000000000000000444, -1.800000000000000044 ) ) ;
#155 = DIRECTION ( 'NONE',  ( 0.000000000000000000, -1.000000000000000000, 0.000000000000000000 ) ) ;
#156 = DIRECTION ( 'NONE',  ( 0.000000000000000000, -1.000000000000000000, 0.000000000000000000 ) ) ;
#157 = AXIS2_PLACEMENT_3D ( 'NONE', #318, #83, #121 ) ;
#158 = VECTOR ( 'NONE', #422, 1000.000000000000000 ) ;
#159 = DIRECTION ( 'NONE',  ( 0.000000000000000000, 0.000000000000000000, -1.000000000000000000 ) ) ;
#160 = CIRCLE ( 'NONE', #438, 0.2000000000000000944 ) ;
#161 = CIRCLE ( 'NONE', #184, 0.2000000000000000944 ) ;
#162 =( GEOMETRIC_REPRESENTATION_CONTEXT ( 3 ) GLOBAL_UNCERTAINTY_ASSIGNED_CONTEXT ( ( #166 ) ) GLOBAL_UNIT_ASSIGNED_CONTEXT ( ( #16, #290, #286 ) ) REPRESENTATION_CONTEXT ( 'NONE', 'WORKASPACE' ) );
#163 = LINE ( 'NONE', #192, #216 ) ;
#164 = ORIENTED_EDGE ( 'NONE', *, *, #243, .F. ) ;
#165 = PLANE ( 'NONE',  #349 ) ;
#166 = UNCERTAINTY_MEASURE_WITH_UNIT (LENGTH_MEASURE( 1.000000000000000082E-05 ), #16, 'distance_accuracy_value', 'NONE');
#167 = LINE ( 'NONE', #432, #470 ) ;
#168 = ORIENTED_EDGE ( 'NONE', *, *, #303, .F. ) ;
#169 = ORIENTED_EDGE ( 'NONE', *, *, #457, .T. ) ;
#170 = FACE_OUTER_BOUND ( 'NONE', #285, .T. ) ;
#171 = VERTEX_POINT ( 'NONE', #19 ) ;
#172 = EDGE_CURVE ( 'NONE', #409, #288, #161, .T. ) ;
#173 = FACE_OUTER_BOUND ( 'NONE', #193, .T. ) ;
#174 = PRODUCT_DEFINITION_FORMATION_WITH_SPECIFIED_SOURCE ( 'ANY', '', #447, .NOT_KNOWN. ) ;
#175 = EDGE_CURVE ( 'NONE', #34, #211, #281, .T. ) ;
#176 = CARTESIAN_POINT ( 'NONE',  ( 5.800000000000001599, 0.8000000000000000444, 1.800000000000000044 ) ) ;
#177 = VERTEX_POINT ( 'NONE', #322 ) ;
#178 = CYLINDRICAL_SURFACE ( 'NONE', #5, 0.2000000000000000944 ) ;
#179 = ORIENTED_EDGE ( 'NONE', *, *, #7, .T. ) ;
#180 = AXIS2_PLACEMENT_3D ( 'NONE', #110, #156, #270 ) ;
#181 = VECTOR ( 'NONE', #150, 1000.000000000000000 ) ;
#182 = DIRECTION ( 'NONE',  ( 0.000000000000000000, 1.000000000000000000, -0.000000000000000000 ) ) ;
#183 = ORIENTED_EDGE ( 'NONE', *, *, #381, .T. ) ;
#184 = AXIS2_PLACEMENT_3D ( 'NONE', #125, #93, #133 ) ;
#185 = DIRECTION ( 'NONE',  ( 0.000000000000000000, 0.000000000000000000, 1.000000000000000000 ) ) ;
#186 = ORIENTED_EDGE ( 'NONE', *, *, #332, .F. ) ;
#187 = CARTESIAN_POINT ( 'NONE',  ( -5.999999999999998224, 1.000000000000000000, 2.000000000000000000 ) ) ;
#188 = VERTEX_POINT ( 'NONE', #253 ) ;
#189 = EDGE_CURVE ( 'NONE', #288, #188, #167, .T. ) ;
#190 = CARTESIAN_POINT ( 'NONE',  ( -5.799999999999998934, 0.000000000000000000, 1.800000000000000044 ) ) ;
#191 = ADVANCED_FACE ( 'NONE', ( #126 ), #203, .T. ) ;
#192 = CARTESIAN_POINT ( 'NONE',  ( -5.999999999999999112, 0.000000000000000000, -2.000000000000000000 ) ) ;
#193 = EDGE_LOOP ( 'NONE', ( #455, #411, #477, #147 ) ) ;
#194 = CARTESIAN_POINT ( 'NONE',  ( 5.800000000000001599, 1.000000000000000000, 1.800000000000000044 ) ) ;
#195 = LINE ( 'NONE', #36, #396 ) ;
#196 = CARTESIAN_POINT ( 'NONE',  ( -5.799999999999999822, 1.000000000000000000, -1.800000000000000044 ) ) ;
#197 = DIRECTION ( 'NONE',  ( -0.000000000000000000, -1.000000000000000000, -0.000000000000000000 ) ) ;
#198 = MANIFOLD_SOLID_BREP ( '\X2\570689d2\X0\1', #89 ) ;
#199 = VECTOR ( 'NONE', #276, 1000.000000000000000 ) ;
#200 = DIRECTION ( 'NONE',  ( 1.000000000000000000, 4.336808689942018525E-15, -0.000000000000000000 ) ) ;
#201 = ADVANCED_FACE ( 'NONE', ( #448 ), #165, .F. ) ;
#202 = DIRECTION ( 'NONE',  ( -0.000000000000000000, 1.000000000000000000, 0.000000000000000000 ) ) ;
#203 = SPHERICAL_SURFACE ( 'NONE', #218, 0.2000000000000000111 ) ;
#204 = CYLINDRICAL_SURFACE ( 'NONE', #54, 0.1999999999999996503 ) ;
#205 = ORIENTED_EDGE ( 'NONE', *, *, #227, .F. ) ;
#206 = AXIS2_PLACEMENT_3D ( 'NONE', #135, #443, #226 ) ;
#207 = AXIS2_PLACEMENT_3D ( 'NONE', #212, #361, #21 ) ;
#208 = SURFACE_SIDE_STYLE ('',( #52 ) ) ;
#209 = ORIENTED_EDGE ( 'NONE', *, *, #303, .T. ) ;
#210 = UNCERTAINTY_MEASURE_WITH_UNIT (LENGTH_MEASURE( 1.000000000000000082E-05 ), #122, 'distance_accuracy_value', 'NONE');
#211 = VERTEX_POINT ( 'NONE', #146 ) ;
#212 = CARTESIAN_POINT ( 'NONE',  ( 0.000000000000000000, 0.000000000000000000, 0.000000000000000000 ) ) ;
#213 = EDGE_LOOP ( 'NONE', ( #259, #275, #186, #130 ) ) ;
#214 = PRODUCT_RELATED_PRODUCT_CATEGORY ( 'part', '', ( #447 ) ) ;
#215 = PLANE ( 'NONE',  #67 ) ;
#216 = VECTOR ( 'NONE', #266, 1000.000000000000000 ) ;
#217 = PLANE ( 'NONE',  #289 ) ;
#218 = AXIS2_PLACEMENT_3D ( 'NONE', #242, #401, #47 ) ;
#219 = ORIENTED_EDGE ( 'NONE', *, *, #382, .T. ) ;
#220 = DIRECTION ( 'NONE',  ( 1.000000000000000000, 0.000000000000000000, -0.000000000000000000 ) ) ;
#221 = ORIENTED_EDGE ( 'NONE', *, *, #189, .F. ) ;
#222 = CIRCLE ( 'NONE', #4, 0.1999999999999996503 ) ;
#223 = AXIS2_PLACEMENT_3D ( 'NONE', #406, #61, #220 ) ;
#224 = LINE ( 'NONE', #25, #295 ) ;
#225 = ORIENTED_EDGE ( 'NONE', *, *, #467, .T. ) ;
#226 = DIRECTION ( 'NONE',  ( 1.000000000000000000, 0.000000000000000000, 0.000000000000000000 ) ) ;
#227 = EDGE_CURVE ( 'NONE', #409, #414, #408, .T. ) ;
#228 = VERTEX_POINT ( 'NONE', #476 ) ;
#229 = CARTESIAN_POINT ( 'NONE',  ( -5.799999999999998934, 0.8000000000000000444, 1.800000000000000044 ) ) ;
#230 = EDGE_LOOP ( 'NONE', ( #337, #32, #264, #371 ) ) ;
#231 = ADVANCED_FACE ( 'NONE', ( #402 ), #215, .F. ) ;
#232 = FACE_OUTER_BOUND ( 'NONE', #100, .T. ) ;
#233 = DIRECTION ( 'NONE',  ( -1.000000000000000000, 0.000000000000000000, -4.336808689942016158E-15 ) ) ;
#234 = CARTESIAN_POINT ( 'NONE',  ( 6.000000000000000888, 1.000000000000000000, -1.800000000000000044 ) ) ;
#235 = DIRECTION ( 'NONE',  ( -1.000000000000000000, 0.000000000000000000, 0.000000000000000000 ) ) ;
#236 = LINE ( 'NONE', #456, #344 ) ;
#237 = CYLINDRICAL_SURFACE ( 'NONE', #180, 0.2000000000000000944 ) ;
#238 = EDGE_CURVE ( 'NONE', #171, #403, #249, .T. ) ;
#239 = DIRECTION ( 'NONE',  ( 0.000000000000000000, -0.000000000000000000, 1.000000000000000000 ) ) ;
#240 = EDGE_LOOP ( 'NONE', ( #339, #480, #378 ) ) ;
#241 = APPLICATION_PROTOCOL_DEFINITION ( 'draft international standard', 'automotive_design', 1998, #91 ) ;
#242 = CARTESIAN_POINT ( 'NONE',  ( -5.799999999999998934, 0.8000000000000000444, 1.800000000000000044 ) ) ;
#243 = EDGE_CURVE ( 'NONE', #27, #326, #224, .T. ) ;
#244 = ADVANCED_FACE ( 'NONE', ( #63 ), #28, .F. ) ;
#245 = CARTESIAN_POINT ( 'NONE',  ( -5.999999999999999112, 1.000000000000000000, -1.800000000000000044 ) ) ;
#246 = EDGE_LOOP ( 'NONE', ( #300, #118, #88, #221 ) ) ;
#247 = ADVANCED_FACE ( 'NONE', ( #33 ), #217, .F. ) ;
#248 = DIRECTION ( 'NONE',  ( 0.000000000000000000, -1.000000000000000000, 0.000000000000000000 ) ) ;
#249 = CIRCLE ( 'NONE', #90, 0.2000000000000000944 ) ;
#250 = DIRECTION ( 'NONE',  ( 0.000000000000000000, 0.000000000000000000, 1.000000000000000000 ) ) ;
#251 = DIRECTION ( 'NONE',  ( 0.000000000000000000, -1.000000000000000000, 0.000000000000000000 ) ) ;
#252 = ORIENTED_EDGE ( 'NONE', *, *, #238, .F. ) ;
#253 = CARTESIAN_POINT ( 'NONE',  ( -5.799999999999999822, 0.8000000000000000444, -2.000000000000000000 ) ) ;
#254 = CARTESIAN_POINT ( 'NONE',  ( -5.999999999999998224, 0.8000000000000000444, 1.800000000000000044 ) ) ;
#255 = DIRECTION ( 'NONE',  ( 2.168404344971008868E-16, 0.000000000000000000, 1.000000000000000000 ) ) ;
#256 = PRODUCT_DEFINITION_CONTEXT ( 'detailed design', #91, 'design' ) ;
#257 = ORIENTED_EDGE ( 'NONE', *, *, #325, .F. ) ;
#258 = LINE ( 'NONE', #445, #76 ) ;
#259 = ORIENTED_EDGE ( 'NONE', *, *, #325, .T. ) ;
#260 = CARTESIAN_POINT ( 'NONE',  ( 5.800000000000001599, 0.8000000000000000444, -1.800000000000000044 ) ) ;
#261 = ORIENTED_EDGE ( 'NONE', *, *, #317, .T. ) ;
#262 = ADVANCED_FACE ( 'NONE', ( #374 ), #178, .T. ) ;
#263 = DIRECTION ( 'NONE',  ( -2.168404344971008868E-16, 0.000000000000000000, -1.000000000000000000 ) ) ;
#264 = ORIENTED_EDGE ( 'NONE', *, *, #452, .T. ) ;
#265 = VECTOR ( 'NONE', #43, 1000.000000000000000 ) ;
#266 = DIRECTION ( 'NONE',  ( -1.000000000000000000, -0.000000000000000000, -0.000000000000000000 ) ) ;
#267 = PRODUCT_DEFINITION ( 'UNKNOWN', '', #174, #256 ) ;
#268 = EDGE_LOOP ( 'NONE', ( #446, #209, #144 ) ) ;
#269 = DIRECTION ( 'NONE',  ( -0.000000000000000000, -1.000000000000000000, -0.000000000000000000 ) ) ;
#270 = DIRECTION ( 'NONE',  ( 0.000000000000000000, 0.000000000000000000, -1.000000000000000000 ) ) ;
#271 = CARTESIAN_POINT ( 'NONE',  ( 5.800000000000001599, 1.000000000000000000, -2.000000000000000000 ) ) ;
#272 = CIRCLE ( 'NONE', #51, 0.2000000000000000944 ) ;
#273 = CARTESIAN_POINT ( 'NONE',  ( -5.999999999999999112, 1.000000000000000000, -1.800000000000000044 ) ) ;
#274 = CYLINDRICAL_SURFACE ( 'NONE', #454, 0.2000000000000000944 ) ;
#275 = ORIENTED_EDGE ( 'NONE', *, *, #452, .F. ) ;
#276 = DIRECTION ( 'NONE',  ( -0.000000000000000000, 1.000000000000000000, -0.000000000000000000 ) ) ;
#277 = CARTESIAN_POINT ( 'NONE',  ( -5.800000000000000711, 1.000000000000000000, -1.800000000000000044 ) ) ;
#278 = EDGE_CURVE ( 'NONE', #177, #171, #258, .T. ) ;
#279 = LINE ( 'NONE', #309, #287 ) ;
#280 = AXIS2_PLACEMENT_3D ( 'NONE', #459, #415, #35 ) ;
#281 = LINE ( 'NONE', #13, #282 ) ;
#282 = VECTOR ( 'NONE', #251, 1000.000000000000000 ) ;
#283 = PRODUCT_CONTEXT ( 'NONE', #17, 'mechanical' ) ;
#284 = CARTESIAN_POINT ( 'NONE',  ( 5.800000000000001599, 0.8000000000000000444, 1.800000000000000044 ) ) ;
#285 = EDGE_LOOP ( 'NONE', ( #116, #134, #108, #138 ) ) ;
#286 =( NAMED_UNIT ( * ) SI_UNIT ( $, .STERADIAN. ) SOLID_ANGLE_UNIT ( ) );
#287 = VECTOR ( 'NONE', #380, 1000.000000000000000 ) ;
#288 = VERTEX_POINT ( 'NONE', #330 ) ;
#289 = AXIS2_PLACEMENT_3D ( 'NONE', #485, #301, #296 ) ;
#290 =( NAMED_UNIT ( * ) PLANE_ANGLE_UNIT ( ) SI_UNIT ( $, .RADIAN. ) );
#291 = VECTOR ( 'NONE', #475, 1000.000000000000000 ) ;
#292 = CARTESIAN_POINT ( 'NONE',  ( -5.999999999999998224, 0.000000000000000000, 2.000000000000000000 ) ) ;
#293 = DIRECTION ( 'NONE',  ( 0.000000000000000000, 0.000000000000000000, -1.000000000000000000 ) ) ;
#294 = EDGE_LOOP ( 'NONE', ( #323, #308, #442, #364 ) ) ;
#295 = VECTOR ( 'NONE', #137, 1000.000000000000000 ) ;
#296 = DIRECTION ( 'NONE',  ( 0.000000000000000000, 0.000000000000000000, 1.000000000000000000 ) ) ;
#297 = VERTEX_POINT ( 'NONE', #254 ) ;
#298 = DIRECTION ( 'NONE',  ( -1.000000000000000000, 0.000000000000000000, 0.000000000000000000 ) ) ;
#299 = STYLED_ITEM ( 'NONE', ( #468 ), #198 ) ;
#300 = ORIENTED_EDGE ( 'NONE', *, *, #172, .F. ) ;
#301 = DIRECTION ( 'NONE',  ( -1.000000000000000000, 0.000000000000000000, 0.000000000000000000 ) ) ;
#302 = ORIENTED_EDGE ( 'NONE', *, *, #172, .T. ) ;
#303 = EDGE_CURVE ( 'NONE', #297, #27, #272, .T. ) ;
#304 = CARTESIAN_POINT ( 'NONE',  ( 6.000000000000000888, 1.000000000000000000, 1.800000000000000044 ) ) ;
#305 = ORIENTED_EDGE ( 'NONE', *, *, #420, .F. ) ;
#306 = CIRCLE ( 'NONE', #405, 0.2000000000000000944 ) ;
#307 = DIRECTION ( 'NONE',  ( 0.000000000000000000, 0.000000000000000000, 1.000000000000000000 ) ) ;
#308 = ORIENTED_EDGE ( 'NONE', *, *, #243, .T. ) ;
#309 = CARTESIAN_POINT ( 'NONE',  ( 6.000000000000000888, 1.000000000000000000, 1.800000000000000044 ) ) ;
#310 = CIRCLE ( 'NONE', #104, 0.1999999999999999833 ) ;
#311 = DIRECTION ( 'NONE',  ( -0.000000000000000000, -0.000000000000000000, 1.000000000000000000 ) ) ;
#312 = AXIS2_PLACEMENT_3D ( 'NONE', #354, #9, #239 ) ;
#313 = DIRECTION ( 'NONE',  ( 0.000000000000000000, -0.000000000000000000, 1.000000000000000000 ) ) ;
#314 = VECTOR ( 'NONE', #394, 1000.000000000000000 ) ;
#315 = DIRECTION ( 'NONE',  ( 0.000000000000000000, 0.000000000000000000, 1.000000000000000000 ) ) ;
#316 = CARTESIAN_POINT ( 'NONE',  ( 5.800000000000001599, 0.8000000000000000444, 1.800000000000000044 ) ) ;
#317 = EDGE_CURVE ( 'NONE', #105, #486, #58, .T. ) ;
#318 = CARTESIAN_POINT ( 'NONE',  ( -5.799999999999999822, 0.8000000000000000444, -1.800000000000000044 ) ) ;
#319 = ADVANCED_FACE ( 'NONE', ( #69 ), #336, .T. ) ;
#320 = FILL_AREA_STYLE_COLOUR ( '', #62 ) ;
#321 =( NAMED_UNIT ( * ) SI_UNIT ( $, .STERADIAN. ) SOLID_ANGLE_UNIT ( ) );
#322 = CARTESIAN_POINT ( 'NONE',  ( 5.800000000000001599, 0.000000000000000000, 2.000000000000000000 ) ) ;
#323 = ORIENTED_EDGE ( 'NONE', *, *, #356, .T. ) ;
#324 = CARTESIAN_POINT ( 'NONE',  ( -5.799999999999999822, 0.8000000000000000444, 1.257674520083185143E-15 ) ) ;
#325 = EDGE_CURVE ( 'NONE', #427, #228, #421, .T. ) ;
#326 = VERTEX_POINT ( 'NONE', #101 ) ;
#327 = VECTOR ( 'NONE', #18, 1000.000000000000000 ) ;
#328 = DIRECTION ( 'NONE',  ( 0.000000000000000000, 0.000000000000000000, -1.000000000000000000 ) ) ;
#329 = EDGE_CURVE ( 'NONE', #427, #34, #479, .T. ) ;
#330 = CARTESIAN_POINT ( 'NONE',  ( -5.799999999999999822, 0.000000000000000000, -2.000000000000000000 ) ) ;
#331 = ORIENTED_EDGE ( 'NONE', *, *, #400, .T. ) ;
#332 = EDGE_CURVE ( 'NONE', #105, #403, #29, .T. ) ;
#333 = CARTESIAN_POINT ( 'NONE',  ( 0.000000000000000000, 0.8000000000000000444, -1.800000000000000044 ) ) ;
#334 = ORIENTED_EDGE ( 'NONE', *, *, #46, .F. ) ;
#335 = AXIS2_PLACEMENT_3D ( 'NONE', #260, #410, #31 ) ;
#336 = CYLINDRICAL_SURFACE ( 'NONE', #206, 0.1999999999999996503 ) ;
#337 = ORIENTED_EDGE ( 'NONE', *, *, #391, .T. ) ;
#338 = DIRECTION ( 'NONE',  ( 1.000000000000000000, 0.000000000000000000, 0.000000000000000000 ) ) ;
#339 = ORIENTED_EDGE ( 'NONE', *, *, #94, .T. ) ;
#340 = DIRECTION ( 'NONE',  ( 0.000000000000000000, 0.000000000000000000, -1.000000000000000000 ) ) ;
#341 = VERTEX_POINT ( 'NONE', #482 ) ;
#342 = CYLINDRICAL_SURFACE ( 'NONE', #436, 0.2000000000000000944 ) ;
#343 = CARTESIAN_POINT ( 'NONE',  ( 0.000000000000000000, 0.8000000000000000444, 1.800000000000000044 ) ) ;
#344 = VECTOR ( 'NONE', #74, 1000.000000000000000 ) ;
#345 = CARTESIAN_POINT ( 'NONE',  ( -5.799999999999999822, 0.8000000000000000444, -1.800000000000000044 ) ) ;
#346 = ORIENTED_EDGE ( 'NONE', *, *, #440, .T. ) ;
#347 = MECHANICAL_DESIGN_GEOMETRIC_PRESENTATION_REPRESENTATION (  '', ( #299 ), #162 ) ;
#348 = CARTESIAN_POINT ( 'NONE',  ( -5.799999999999998934, 1.000000000000000000, 1.800000000000000044 ) ) ;
#349 = AXIS2_PLACEMENT_3D ( 'NONE', #187, #293, #23 ) ;
#350 = DIRECTION ( 'NONE',  ( 1.000000000000000000, 4.336808689942018525E-15, 0.000000000000000000 ) ) ;
#351 = AXIS2_PLACEMENT_3D ( 'NONE', #10, #233, #460 ) ;
#352 = CARTESIAN_POINT ( 'NONE',  ( -5.799999999999999822, 1.000000000000000000, 1.800000000000000044 ) ) ;
#353 = FACE_OUTER_BOUND ( 'NONE', #127, .T. ) ;
#354 = CARTESIAN_POINT ( 'NONE',  ( 0.000000000000000000, 1.000000000000000000, 0.000000000000000000 ) ) ;
#355 = CYLINDRICAL_SURFACE ( 'NONE', #435, 0.2000000000000000944 ) ;
#356 = EDGE_CURVE ( 'NONE', #171, #27, #450, .T. ) ;
#357 = CARTESIAN_POINT ( 'NONE',  ( 5.800000000000002487, 1.000000000000000000, -1.800000000000000044 ) ) ;
#358 = VECTOR ( 'NONE', #95, 1000.000000000000000 ) ;
#359 = DIRECTION ( 'NONE',  ( 0.000000000000000000, 1.000000000000000000, 0.000000000000000000 ) ) ;
#360 = ORIENTED_EDGE ( 'NONE', *, *, #356, .F. ) ;
#361 = DIRECTION ( 'NONE',  ( 0.000000000000000000, 1.000000000000000000, 0.000000000000000000 ) ) ;
#362 = ORIENTED_EDGE ( 'NONE', *, *, #57, .F. ) ;
#363 = DIRECTION ( 'NONE',  ( -0.000000000000000000, 1.000000000000000000, -0.000000000000000000 ) ) ;
#364 = ORIENTED_EDGE ( 'NONE', *, *, #278, .T. ) ;
#365 = ADVANCED_FACE ( 'NONE', ( #81 ), #387, .T. ) ;
#366 = CARTESIAN_POINT ( 'NONE',  ( -5.999999999999999112, 1.000000000000000000, -2.000000000000000000 ) ) ;
#367 = DIRECTION ( 'NONE',  ( 1.000000000000000000, 0.000000000000000000, -2.168404344971008868E-16 ) ) ;
#368 = ORIENTED_EDGE ( 'NONE', *, *, #400, .F. ) ;
#369 = VECTOR ( 'NONE', #255, 1000.000000000000000 ) ;
#370 = CARTESIAN_POINT ( 'NONE',  ( -5.799999999999998934, 0.8000000000000000444, 1.800000000000000044 ) ) ;
#371 = ORIENTED_EDGE ( 'NONE', *, *, #57, .T. ) ;
#372 = CIRCLE ( 'NONE', #157, 0.1999999999999996503 ) ;
#373 = PRODUCT_DEFINITION_SHAPE ( 'NONE', 'NONE',  #267 ) ;
#374 = FACE_OUTER_BOUND ( 'NONE', #53, .T. ) ;
#375 = VERTEX_POINT ( 'NONE', #352 ) ;
#376 = DIRECTION ( 'NONE',  ( -0.000000000000000000, 1.000000000000000000, -0.000000000000000000 ) ) ;
#377 = ADVANCED_FACE ( 'NONE', ( #232 ), #342, .T. ) ;
#378 = ORIENTED_EDGE ( 'NONE', *, *, #11, .F. ) ;
#379 = LINE ( 'NONE', #383, #158 ) ;
#380 = DIRECTION ( 'NONE',  ( 1.000000000000000000, -0.000000000000000000, 0.000000000000000000 ) ) ;
#381 = EDGE_CURVE ( 'NONE', #188, #34, #379, .T. ) ;
#382 = EDGE_CURVE ( 'NONE', #211, #288, #163, .T. ) ;
#383 = CARTESIAN_POINT ( 'NONE',  ( 6.000000000000000888, 0.8000000000000000444, -2.000000000000000000 ) ) ;
#384 = CARTESIAN_POINT ( 'NONE',  ( 6.000000000000000888, 0.8000000000000000444, 1.800000000000000044 ) ) ;
#385 = LINE ( 'NONE', #39, #474 ) ;
#386 = ORIENTED_EDGE ( 'NONE', *, *, #26, .F. ) ;
#387 = PLANE ( 'NONE',  #312 ) ;
#388 = EDGE_LOOP ( 'NONE', ( #8, #395, #252 ) ) ;
#389 = LINE ( 'NONE', #77, #265 ) ;
#390 = FACE_OUTER_BOUND ( 'NONE', #388, .T. ) ;
#391 = EDGE_CURVE ( 'NONE', #14, #375, #389, .T. ) ;
#392 = DIRECTION ( 'NONE',  ( 1.000000000000000000, 0.000000000000000000, 0.000000000000000000 ) ) ;
#393 = PLANE ( 'NONE',  #207 ) ;
#394 = DIRECTION ( 'NONE',  ( 1.000000000000000000, 0.000000000000000000, 0.000000000000000000 ) ) ;
#395 = ORIENTED_EDGE ( 'NONE', *, *, #332, .T. ) ;
#396 = VECTOR ( 'NONE', #80, 1000.000000000000000 ) ;
#397 = AXIS2_PLACEMENT_3D ( 'NONE', #65, #185, #338 ) ;
#398 = DIRECTION ( 'NONE',  ( 0.000000000000000000, 1.000000000000000000, 0.000000000000000000 ) ) ;
#399 = SHAPE_DEFINITION_REPRESENTATION ( #373, #15 ) ;
#400 = EDGE_CURVE ( 'NONE', #486, #177, #45, .T. ) ;
#401 = DIRECTION ( 'NONE',  ( 0.000000000000000000, 1.000000000000000000, -0.000000000000000000 ) ) ;
#402 = FACE_OUTER_BOUND ( 'NONE', #73, .T. ) ;
#403 = VERTEX_POINT ( 'NONE', #194 ) ;
#404 = EDGE_CURVE ( 'NONE', #375, #27, #22, .T. ) ;
#405 = AXIS2_PLACEMENT_3D ( 'NONE', #345, #111, #315 ) ;
#406 = CARTESIAN_POINT ( 'NONE',  ( -5.999999999999999112, 1.000000000000000000, -2.000000000000000000 ) ) ;
#407 = VERTEX_POINT ( 'NONE', #488 ) ;
#408 = LINE ( 'NONE', #481, #369 ) ;
#409 = VERTEX_POINT ( 'NONE', #37 ) ;
#410 = DIRECTION ( 'NONE',  ( -0.000000000000000000, 1.000000000000000000, 0.000000000000000000 ) ) ;
#411 = ORIENTED_EDGE ( 'NONE', *, *, #175, .F. ) ;
#412 = DIRECTION ( 'NONE',  ( 1.000000000000000000, 0.000000000000000000, 0.000000000000000000 ) ) ;
#413 = VECTOR ( 'NONE', #464, 1000.000000000000000 ) ;
#414 = VERTEX_POINT ( 'NONE', #117 ) ;
#415 = DIRECTION ( 'NONE',  ( 0.000000000000000000, 1.000000000000000000, 0.000000000000000000 ) ) ;
#416 = ADVANCED_FACE ( 'NONE', ( #107 ), #72, .T. ) ;
#417 = ORIENTED_EDGE ( 'NONE', *, *, #382, .F. ) ;
#418 = DIRECTION ( 'NONE',  ( -0.000000000000000000, -1.000000000000000000, -0.000000000000000000 ) ) ;
#419 = CARTESIAN_POINT ( 'NONE',  ( -5.799999999999999822, 0.8000000000000000444, 1.800000000000000044 ) ) ;
#420 = EDGE_CURVE ( 'NONE', #326, #414, #123, .T. ) ;
#421 = CIRCLE ( 'NONE', #113, 0.1999999999999996503 ) ;
#422 = DIRECTION ( 'NONE',  ( 1.000000000000000000, -0.000000000000000000, -0.000000000000000000 ) ) ;
#423 = DIRECTION ( 'NONE',  ( 0.000000000000000000, 0.000000000000000000, 1.000000000000000000 ) ) ;
#424 = DIRECTION ( 'NONE',  ( 0.000000000000000000, 0.000000000000000000, -1.000000000000000000 ) ) ;
#425 = DIRECTION ( 'NONE',  ( -4.336808689942017736E-15, 1.000000000000000000, 0.000000000000000000 ) ) ;
#426 = CARTESIAN_POINT ( 'NONE',  ( 6.000000000000000888, 0.000000000000000000, 1.800000000000000044 ) ) ;
#427 = VERTEX_POINT ( 'NONE', #109 ) ;
#428 = FACE_OUTER_BOUND ( 'NONE', #30, .T. ) ;
#429 = AXIS2_PLACEMENT_3D ( 'NONE', #56, #250, #392 ) ;
#430 = DIRECTION ( 'NONE',  ( -1.000000000000000000, 0.000000000000000000, -4.336808689942024836E-15 ) ) ;
#431 = ORIENTED_EDGE ( 'NONE', *, *, #440, .F. ) ;
#432 = CARTESIAN_POINT ( 'NONE',  ( -5.799999999999999822, 1.000000000000000000, -2.000000000000000000 ) ) ;
#433 = ORIENTED_EDGE ( 'NONE', *, *, #381, .F. ) ;
#434 =( NAMED_UNIT ( * ) PLANE_ANGLE_UNIT ( ) SI_UNIT ( $, .RADIAN. ) );
#435 = AXIS2_PLACEMENT_3D ( 'NONE', #343, #235, #490 ) ;
#436 = AXIS2_PLACEMENT_3D ( 'NONE', #348, #155, #159 ) ;
#437 = CYLINDRICAL_SURFACE ( 'NONE', #463, 0.2000000000000000944 ) ;
#438 = AXIS2_PLACEMENT_3D ( 'NONE', #284, #359, #129 ) ;
#439 = DIRECTION ( 'NONE',  ( -1.000000000000000000, 0.000000000000000000, 2.168404344971014538E-16 ) ) ;
#440 = EDGE_CURVE ( 'NONE', #486, #407, #236, .T. ) ;
#441 = EDGE_CURVE ( 'NONE', #188, #341, #306, .T. ) ;
#442 = ORIENTED_EDGE ( 'NONE', *, *, #119, .T. ) ;
#443 = DIRECTION ( 'NONE',  ( 0.000000000000000000, -0.000000000000000000, 1.000000000000000000 ) ) ;
#444 = EDGE_LOOP ( 'NONE', ( #346, #169, #225, #261 ) ) ;
#445 = CARTESIAN_POINT ( 'NONE',  ( 5.800000000000001599, 1.000000000000000000, 2.000000000000000000 ) ) ;
#446 = ORIENTED_EDGE ( 'NONE', *, *, #85, .T. ) ;
#447 = PRODUCT ( 'BAR4X12T1', 'BAR4X12T1', '', ( #283 ) ) ;
#448 = FACE_OUTER_BOUND ( 'NONE', #294, .T. ) ;
#449 = ORIENTED_EDGE ( 'NONE', *, *, #175, .T. ) ;
#450 = LINE ( 'NONE', #103, #181 ) ;
#451 = ORIENTED_EDGE ( 'NONE', *, *, #94, .F. ) ;
#452 = EDGE_CURVE ( 'NONE', #403, #228, #461, .T. ) ;
#453 = DIRECTION ( 'NONE',  ( 4.336808689942017736E-15, -1.000000000000000000, 0.000000000000000000 ) ) ;
#454 = AXIS2_PLACEMENT_3D ( 'NONE', #196, #6, #424 ) ;
#455 = ORIENTED_EDGE ( 'NONE', *, *, #98, .F. ) ;
#456 = CARTESIAN_POINT ( 'NONE',  ( 6.000000000000000888, 0.000000000000000000, -2.000000000000000000 ) ) ;
#457 = EDGE_CURVE ( 'NONE', #407, #427, #2, .T. ) ;
#458 = DIRECTION ( 'NONE',  ( 0.000000000000000000, 0.000000000000000000, -1.000000000000000000 ) ) ;
#459 = CARTESIAN_POINT ( 'NONE',  ( -5.799999999999999822, 0.8000000000000000444, -1.800000000000000044 ) ) ;
#460 = DIRECTION ( 'NONE',  ( -4.336808689942015369E-15, 0.000000000000000000, 1.000000000000000000 ) ) ;
#461 = LINE ( 'NONE', #271, #413 ) ;
#462 = SPHERICAL_SURFACE ( 'NONE', #128, 0.2000000000000000111 ) ;
#463 = AXIS2_PLACEMENT_3D ( 'NONE', #357, #248, #328 ) ;
#464 = DIRECTION ( 'NONE',  ( 0.000000000000000000, 0.000000000000000000, -1.000000000000000000 ) ) ;
#465 = LINE ( 'NONE', #292, #314 ) ;
#466 = ORIENTED_EDGE ( 'NONE', *, *, #278, .F. ) ;
#467 = EDGE_CURVE ( 'NONE', #427, #105, #385, .T. ) ;
#468 = PRESENTATION_STYLE_ASSIGNMENT (( #472 ) ) ;
#469 = DIRECTION ( 'NONE',  ( -2.168404344971008868E-16, 0.000000000000000000, -1.000000000000000000 ) ) ;
#470 = VECTOR ( 'NONE', #363, 1000.000000000000000 ) ;
#471 = VECTOR ( 'NONE', #40, 1000.000000000000000 ) ;
#472 = SURFACE_STYLE_USAGE ( .BOTH. , #208 ) ;
#473 = ORIENTED_EDGE ( 'NONE', *, *, #119, .F. ) ;
#474 = VECTOR ( 'NONE', #311, 1000.000000000000000 ) ;
#475 = DIRECTION ( 'NONE',  ( 0.000000000000000000, -1.000000000000000000, 0.000000000000000000 ) ) ;
#476 = CARTESIAN_POINT ( 'NONE',  ( 5.800000000000001599, 1.000000000000000000, -1.800000000000000044 ) ) ;
#477 = ORIENTED_EDGE ( 'NONE', *, *, #329, .F. ) ;
#478 = DIRECTION ( 'NONE',  ( 0.000000000000000000, 0.000000000000000000, 1.000000000000000000 ) ) ;
#479 = CIRCLE ( 'NONE', #335, 0.2000000000000000944 ) ;
#480 = ORIENTED_EDGE ( 'NONE', *, *, #441, .T. ) ;
#481 = CARTESIAN_POINT ( 'NONE',  ( -5.999999999999999112, 0.000000000000000000, -2.000000000000000000 ) ) ;
#482 = CARTESIAN_POINT ( 'NONE',  ( -5.999999999999999112, 0.8000000000000000444, -1.800000000000000044 ) ) ;
#483 = ORIENTED_EDGE ( 'NONE', *, *, #317, .F. ) ;
#484 = ADVANCED_FACE ( 'NONE', ( #114 ), #274, .T. ) ;
#485 = CARTESIAN_POINT ( 'NONE',  ( 6.000000000000000888, 1.000000000000000000, -2.000000000000000000 ) ) ;
#486 = VERTEX_POINT ( 'NONE', #426 ) ;
#487 = EDGE_CURVE ( 'NONE', #297, #341, #79, .T. ) ;
#488 = CARTESIAN_POINT ( 'NONE',  ( 6.000000000000000888, 0.000000000000000000, -1.800000000000000044 ) ) ;
#489 = AXIS2_PLACEMENT_3D ( 'NONE', #229, #200, #453 ) ;
#490 = DIRECTION ( 'NONE',  ( 0.000000000000000000, 0.000000000000000000, 1.000000000000000000 ) ) ;
#491 = DIRECTION ( 'NONE',  ( 0.000000000000000000, 0.000000000000000000, 1.000000000000000000 ) ) ;
ENDSEC;
END-ISO-10303-21;
